<svg width="253.14" height="253.14" viewBox="0 0 253.14 253.14" xmlns="http://www.w3.org/2000/svg"><g transform="matrix(.52102 0 0 .52102 27.305 -437.9)"><path d="m428.64 1083.4c0.022 131.51-106.6 238.12-238.12 238.12-131.53 0-238.15-106.62-238.12-238.12-0.022-131.51 106.6-238.12 238.12-238.12 131.53 0 238.15 106.62 238.12 238.12z" stroke="#00408c" stroke-width="9.5965"/><path d="m426.26 1083.4c0 130.2-105.55 235.74-235.74 235.74-130.2 0-235.74-105.55-235.74-235.74 0-130.2 105.55-235.74 235.74-235.74 130.2 0 235.74 105.55 235.74 235.74z" fill="#fff"/><path transform="matrix(2.3073 0 0 2.3073 629.7 877.21)" d="m-98.542 89.557c0 51.908-40.226 93.988-89.847 93.988s-89.847-42.08-89.847-93.988 40.226-93.988 89.847-93.988 89.847 42.08 89.847 93.988z" fill="#00408b" stroke="#fff" stroke-width=".83182"/><path d="m190.52 852.4c-127.57 0-230.98 103.41-230.98 230.98s103.41 230.98 230.98 230.98 230.98-103.41 230.98-230.98-103.41-230.98-230.98-230.98zm0 59.531c94.64 0 171.45 76.81 171.45 171.45 0 42.365-15.435 81.097-40.928 111.03l-241.55-241.55c29.928-25.493 68.661-40.928 111.03-40.928zm-132.16 62.285 241.32 241.4c-29.658 24.526-67.703 39.216-109.17 39.216-94.64 0-171.45-76.81-171.45-171.45 0-41.48 14.746-79.502 39.291-109.17z" fill="#d40000" fill-rule="evenodd" stroke="#fff" stroke-width="1.9193"/></g></svg>