<svg width="200.26" height="203.17" version="1.1" viewBox="0 0 200.26 203.17" xmlns="http://www.w3.org/2000/svg"><defs><clipPath id="a"><path d="m0 0h264.34v266.57h-264.34z"/></clipPath></defs><g transform="translate(-608.68 87.64)"><path d="m621.75-87.64h174.12c7.24 0 13.069 5.8286 13.069 13.069v177.03c0 7.24-5.8286 13.069-13.069 13.069h-174.12c-7.24 0-13.069-5.8286-13.069-13.069v-177.03c0-7.24 5.8286-13.069 13.069-13.069z" fill="#00408c" fill-rule="evenodd" opacity=".99988" stroke-linecap="round" stroke-linejoin="round" stroke-miterlimit=".1" stroke-width="3.0807"/><path d="m620.53 111.68c-4.0805-0.52402-7.3252-3.8063-7.8372-7.928-0.10693-0.86065-0.10693-178.51 0-179.37 0.22056-1.7753 0.90983-3.3604 2.0664-4.7518 1.2862-1.5474 2.9868-2.5679 5.1476-3.0888 0.52041-0.12547 3.9488-0.13139 88.707-0.15295 62.697-0.0159 87.974 4e-5 88.46 0.0554 4.2013 0.47809 7.4877 3.735 8.0099 7.9382 0.10693 0.86065 0.10693 178.51 0 179.37-0.51767 4.1667-3.7671 7.4162-7.9339 7.9339-0.76909 0.0956-175.87 0.0897-176.62-6e-3zm176.98-3.0781c2.2433-0.5995 3.905-2.3038 4.4914-4.527l0.16411-0.6496v-178.71l-0.16473-0.6496c-0.57134-2.2531-2.2692-3.9589-4.5-4.5211l-0.67645-0.17047h-87.704c-83.337 0-88.124 7e-3 -88.655 0.1252-1.1948 0.26629-2.2004 0.81638-3.0552 1.6712-0.82489 0.82489-1.3709 1.8007-1.6678 2.9806-0.11655 0.46313-0.1251 5.6963-0.14616 89.379-0.0148 58.875 2e-3 89.131 0.0498 89.609 0.0951 0.95178 0.23251 1.4527 0.61355 2.2375 0.88952 1.832 2.7146 3.1064 4.8037 3.3541 0.25803 0.0306 40.014 0.0515 88.346 0.0467l87.487-9e-3z" fill="#fff" stroke-width=".087081"/><g transform="matrix(3.1538 0 0 -3.073 388.49 120.69)"/><g fill="#fff"><g transform="matrix(5.5045 0 0 5.5045 -2.5936 -2807.2)" aria-label="R"><path d="m121.38 510.68-1.9796-1e-3 0.0266 7.1912h-2.8007l-0.0196-19.984h6.951c0.53297 0 1.0361 1e-3 1.6779 0.11222 0.94776 0.16381 1.9916 0.71366 2.6892 1.3004 1.3595 1.1436 2.3922 2.6668 2.3922 5.0068 0 1.4945-0.47893 2.6208-1.3129 3.7987-0.41405 0.58486-0.93987 1.0618-1.5138 1.4674-0.44449 0.31408-0.95283 0.5352-1.4627 0.72557-0.36552 0.13647-0.74817 0.22933-1.1329 0.29431-0.30377 0.0513-0.92123 0.0743-0.92123 0.0743zm5.7249-7.7666c-0.1715-0.44911-0.4691-0.85919-0.82354-1.184-0.4418-0.40484-0.98647-0.71922-1.5596-0.89402-0.53141-0.16207-1.4331-0.11601-1.6625-0.11911-0.32615-4e-3 -0.66067-6e-3 -0.97663-6e-3l-2.6699 4e-3v7.1822l2.3839-3e-3c0.45799-3.4e-4 0.79261 1.1e-4 1.105-1e-3 0.28784-1e-3 1.2824 0.0437 1.8811-0.14931 0.5861-0.18899 1.1587-0.50819 1.5802-0.9572 0.48545-0.5172 0.85837-1.1883 0.9852-1.8862 0.11927-0.65634-5e-3 -1.3632-0.24318-1.9864z" fill="#fff"/></g><g transform="matrix(3.0803 0 0 -3.1213 586.51 128.67)"><g transform="scale(.27238 .2701)" fill="#fff"><g clip-path="url(#a)" fill="#fff"><path d="m203.18 174.77h10.94l0.0182-18.952h19.111v-10.892h-19.111l-0.0182-19.098h-10.94v19.098h-19.137v10.892h19.137z" fill="#fff" fill-rule="evenodd" opacity=".99988" stroke-linecap="round" stroke-linejoin="round" stroke-miterlimit="10" stroke-width=".89878"/></g></g></g><path d="m690.04 47.776-10.578 7.4922 10.578 7.4531 10.631-7.4531zm0 14.945h-5.3613l-1.1738 1.3086h-18.738l-2.3457 2.6191v25.838h-2.7266v3.5039h10.355s0.22701 1.2356 1.0176 2.0801c0.80214 0.85685 2.1739 1.3222 3.0664 1.3223 0.82202 7e-5 2.1128-0.42204 2.8828-1.207 0.89024-0.90759 1.2031-2.1953 1.2031-2.1953h2.752s0.25982 1.2888 1.2188 2.2246c0.74719 0.72915 2.105 1.1576 2.8809 1.1562 0.84675-1e-3 2.1283-0.41678 2.9102-1.2266 0.847-0.87725 1.1621-2.1543 1.1621-2.1543h54.912s0.33486 1.2811 1.1152 2.1074c0.80527 0.85266 2.0702 1.2513 2.9648 1.252 0.76822 5.3e-4 2.1086-0.37858 2.8516-1.0976 0.96375-0.93273 1.2402-2.2617 1.2402-2.2617h2.7441s0.32026 1.3385 1.2402 2.2617c0.74971 0.75236 2.0233 1.124 2.8144 1.1289 0.81155 5e-3 2.0939-0.34178 2.8691-1.1055 0.93323-0.91931 1.2891-2.2852 1.2891-2.2852h17.586v-3.5039h-2.7441v-26.072l-2.5996-2.3848h-16.832l-1.4004-1.3086zm-26.51 4.4551h9.5371v13.742h-9.5371zm10.896 0h11.99v25.035h-11.99zm14.717 0h14.439v13.742h-14.439zm15.822 0h14.424v13.742h-14.424zm15.758 0h14.463v13.742h-14.463zm43.426-5.2e-4h12.77v13.742h-12.77zm-1.3844 0v25.036h-11.964v-25.036zm-25.254 0h11.989v25.036h-11.989z" fill-rule="evenodd" opacity=".99988" stroke-linecap="round" stroke-linejoin="round" stroke-miterlimit="10" stroke-width=".75591"/></g></g></svg>