<svg width="258.07" height="258.07" viewBox="0 0 258.07 258.07" xmlns="http://www.w3.org/2000/svg"><g transform="matrix(.52102 0 0 .52102 -256.48 -437.85)"><path d="m985.13 1088c0.0226 135.41-109.76 245.2-245.2 245.2s-245.23-109.79-245.2-245.2c-0.0227-135.41 109.76-245.2 245.2-245.2s245.23 109.79 245.2 245.2z" fill-rule="evenodd"/><path d="m982.68 1088c0 134.07-108.68 242.75-242.75 242.75s-242.75-108.68-242.75-242.75 108.68-242.75 242.75-242.75 242.75 108.68 242.75 242.75z" fill="#fff" fill-rule="evenodd"/><path transform="matrix(1.1078 0 0 1.1078 683.05 954.22)" d="m240.97 117.05c0 114.11-84.16 206.61-187.98 206.61s-187.98-92.501-187.98-206.61c0-114.11 84.16-206.61 187.98-206.61s187.98 92.501 187.98 206.61z" fill="#00408b" stroke="#00418c" stroke-linecap="round" stroke-linejoin="round" stroke-width="3.4649"/><path d="m739.93 850.18c-131.36 0-237.85 106.49-237.85 237.85s106.49 237.85 237.85 237.85 237.85-106.49 237.85-237.85-106.49-237.85-237.85-237.85zm0 61.301c43.158 0 82.708 15.527 113.39 41.276l-114.29 114.29-113.42-113.42c30.818-26.25 70.701-42.144 114.33-42.144zm135.27 63.156c25.749 30.681 41.276 70.231 41.276 113.39 0 43.624-15.894 83.507-42.144 114.33l-113.42-113.42 114.29-114.29zm-271.36 0.98762 113.29 113.32-112.47 112.47c-25.749-30.681-41.276-70.231-41.276-113.39 0-42.713 15.184-81.856 40.458-112.4zm135.17 135.2 113.32 113.35c-30.54 25.255-69.707 40.39-112.4 40.39-43.158 0-82.708-15.527-113.39-41.276l112.47-112.47z" fill="#d40000" fill-rule="evenodd" stroke="#fff" stroke-width="1.9193"/></g></svg>