<svg width="202.7" height="312.79" version="1.1" viewBox="0 0 202.7 312.79" xmlns="http://www.w3.org/2000/svg"><defs><clipPath id="a"><path d="m0 0h227.21v241.73h-227.21z"/></clipPath></defs><g transform="translate(-599.64 86.272)"><g transform="matrix(3.1538 0 0 -3.073 388.49 120.69)"/><g transform="matrix(3.0097 0 0 -3.1986 390.02 129.23)"><g transform="scale(.31689 .29786)"><g clip-path="url(#a)"><path d="m301.22 35.778v123.49" fill="none"/></g></g></g><path d="m611.58-86.272h178.83c6.6132 0 11.937 5.3239 11.937 11.937v288.92c0 6.6131-5.3238 11.937-11.937 11.937h-178.83c-6.6132 0-11.937-5.3239-11.937-11.937v-288.92c0-6.6131 5.3239-11.937 11.937-11.937z" fill="#00408c" fill-rule="evenodd" opacity=".99988" stroke-linecap="round" stroke-linejoin="round" stroke-miterlimit=".1" stroke-width="178.79"/><g fill="#fff"><path d="m612.32-82.802c-5.1396 0-9.3297 4.1902-9.3297 9.3297v287.04c0 5.1396 4.1902 9.3297 9.3297 9.3297h177.25c5.1396 0 9.3286-4.1902 9.3286-9.3297v-287.04c0-5.1396-4.189-9.3297-9.3286-9.3297zm0 3.348h177.25c3.343 0 5.9818 2.6388 5.9818 5.9817v287.04c0 3.343-2.6388 5.9817-5.9818 5.9817h-177.25c-3.3429 0-5.9817-2.6388-5.9817-5.9817v-287.04c0-3.343 2.6388-5.9817 5.9817-5.9817z" color="#000000" color-rendering="auto" dominant-baseline="auto" enable-background="accumulate" fill-rule="evenodd" image-rendering="auto" opacity=".99988" shape-rendering="auto" solid-color="#000000" stop-color="#000000" style="font-feature-settings:normal;font-variant-alternates:normal;font-variant-caps:normal;font-variant-east-asian:normal;font-variant-ligatures:normal;font-variant-numeric:normal;font-variant-position:normal;font-variation-settings:normal;inline-size:0;isolation:auto;mix-blend-mode:normal;shape-margin:0;shape-padding:0;text-decoration-color:#000000;text-decoration-line:none;text-decoration-style:solid;text-indent:0;text-orientation:mixed;text-transform:none;white-space:normal"/><g transform="matrix(7.8472 0 0 7.8472 -260.73 -3966.2)" aria-label="R"><path d="m121.38 510.68-1.9796-1e-3 0.0266 7.1912h-2.8007l-0.0196-19.984h6.951c0.53297 0 1.0361 1e-3 1.6779 0.11222 0.94776 0.16381 1.9916 0.71366 2.6892 1.3004 1.3595 1.1436 2.3922 2.6668 2.3922 5.0068 0 1.4945-0.47893 2.6208-1.3129 3.7987-0.41405 0.58486-0.93987 1.0618-1.5138 1.4674-0.44449 0.31408-0.95283 0.5352-1.4627 0.72557-0.36552 0.13647-0.74817 0.22933-1.1329 0.29431-0.30377 0.0513-0.92123 0.0743-0.92123 0.0743zm5.7249-7.7666c-0.1715-0.44911-0.4691-0.85919-0.82354-1.184-0.4418-0.40484-0.98647-0.71922-1.5596-0.89402-0.53141-0.16207-1.4331-0.11601-1.6625-0.11911-0.32615-4e-3 -0.66067-6e-3 -0.97663-6e-3l-2.6699 4e-3v7.1822l2.3839-3e-3c0.45799-3.4e-4 0.79261 1.1e-4 1.105-1e-3 0.28784-1e-3 1.2824 0.0437 1.8811-0.14931 0.5861-0.18899 1.1587-0.50819 1.5802-0.9572 0.48545-0.5172 0.85837-1.1883 0.9852-1.8862 0.11927-0.65634-5e-3 -1.3632-0.24318-1.9864z" fill="#fff"/></g><path d="m678.84 191.94 96.919 5e-5h-14.915l-50.386 4e-5 72.434-4e-3v10.418l-104.05 4e-3 -24.395-4e-3v-3.47h24.395z" fill-rule="evenodd" opacity=".99988"/><path d="m705.87 129.07-8.3496 19.576s-0.78621 1.1652-1.2504 1.6902c-0.2931 0.33152-0.96242 0.91436-0.96242 0.91436s-1.2604 0.72716-1.7331 1.2636c-0.55639 0.63141-1.2189 2.211-1.2189 2.211l4e-3 4.2427h13.135v5.3984h-13.135v12.447c2e-3 1.3956 1.124 2.5176 2.5195 2.5176h0.30273l-8e-3 12.916h15.293l6e-3 -12.916h50.346l0.0352 13.016h14.916l-0.0449-13.016h0.37305c1.3956 0 2.5203-1.122 2.5195-2.5176l-0.0312-12.254h-12.854v-5.207h12.854v-4.6053s-0.35954-0.96934-0.66839-1.3745c-0.5612-0.73627-2.0864-1.833-2.0864-1.833s-0.77326-0.64469-1.1057-1.0201c-0.45655-0.51565-1.2068-1.6771-1.2068-1.6771l-7.88-18.902s-0.96436-3.4306-4.9881-4.6127c-4.3356-1.2737-11.42-2.219-17.271-2.6315-3.3149-0.23368-5.4766-0.29161-8.217-0.27318-3.2836 0.0221-6.2841 0.12811-9.8403 0.45972-5.5174 0.51449-11.144 1.603-15.067 2.6488-3.1579 0.8418-4.385 3.5385-4.385 3.5385zm61.831 21.121s-5.0463-0.94647-11.462-1.6012c-6.7667-0.69064-15.057-1.0916-20.554-1.0946-5.6062-3e-3 -14.079 0.49568-20.96 1.1921-6.4371 0.65155-11.481 1.5037-11.481 1.5037l6.8472-16.106s0.23421-0.60823 0.63085-1.1633c0.28527-0.39924 0.69228-0.73328 0.97992-0.97046 0.26407-0.21774 0.66668-0.48128 1.0751-0.66629 0.5398-0.24454 1.0664-0.38109 1.0664-0.38109s4.9245-1.0982 10.583-1.8097c3.7876-0.47622 8.0139-0.65715 10.905-0.67189 3.6248-0.0185 9.9469 0.43776 14.882 1.0534 2.3135 0.28866 6.8844 1.2356 6.8844 1.2356s0.89473 0.26884 1.679 0.72254c0.36276 0.20984 0.68453 0.54173 0.91444 0.75668 0.26585 0.24855 0.6214 0.68434 0.86173 1.0816 0.26004 0.4299 0.39463 0.81285 0.39463 0.81285zm-44.568 8.003h25.052v9.066h-25.052z" fill-rule="evenodd" opacity=".99988"/></g></g></svg>