<svg width="200" height="308.97" version="1.1" viewBox="0 0 200 308.97" xmlns="http://www.w3.org/2000/svg"><defs><clipPath id="b"><path d="m0 0h227.21v241.73h-227.21z"/></clipPath><clipPath id="a"><path d="m0 0h382.07v114.05h-382.07z"/></clipPath></defs><g transform="translate(-982.69 22.936)"><g transform="matrix(3.1538 0 0 -3.073 388.49 120.69)"/><g transform="matrix(3.0097 0 0 -3.1986 390.02 129.23)"><g transform="scale(.31689 .29786)"><g clip-path="url(#b)"><path d="m301.22 35.778v123.49" fill="none"/></g></g></g><path d="m995.74-22.936h173.89c7.2307 0 13.051 5.821 13.051 13.052v282.87c0 7.2307-5.8212 13.052-13.052 13.052h-173.89c-7.2307 0-13.052-5.821-13.052-13.052v-282.87c0-7.2306 5.8208-13.052 13.052-13.052z" fill="#00408c" fill-rule="evenodd" stroke-linecap="round" stroke-linejoin="round" stroke-miterlimit=".1" stroke-width="3.0807"/><g fill="#fff"><g transform="matrix(3.699 0 0 -3.7929 591 358.61)"><g clip-path="url(#a)" fill="#fff"><path d="m129.04 42.699-1.751-5.2632s-0.18103-0.31998-0.29178-0.46671c-0.07-0.09266-0.23379-0.25912-0.23379-0.25912s-0.31736-0.21756-0.43011-0.36743c-0.13271-0.17642-0.271-0.60084-0.271-0.60084l0.10192-1.0986 3.4876 0.30492 0.12849-1.3979-3.4877-0.30493 0.29629-3.2233c0.0337-0.36135 0.35838-0.62584 0.72893-0.59345l0.0804 0.0071 0.30556-3.3448 4.0607 0.35502-0.30555 3.3448 13.368 1.1688 0.3193-3.3696 3.9606 0.34627-0.32176 3.3694 0.0991 0.0087c0.37053 0.0324 0.64249 0.34906 0.60906 0.71043l-0.30022 3.1725-3.413-0.2984-0.12391 1.3484 3.4129 0.29839-0.10964 1.1926s-0.11857 0.24267-0.21021 0.34042c-0.16654 0.17763-0.59763 0.42624-0.59763 0.42624s-0.22069 0.14899-0.31788 0.2385c-0.13349 0.12293-0.36036 0.40627-0.36036 0.40627l-2.5423 4.7119s-0.33772 0.86599-1.4343 1.0787c-1.1815 0.22917-3.0851 0.30952-4.6486 0.28049-0.88576-0.01643-1.4611-0.05161-2.1884-0.11997-0.87135-0.08201-1.6655-0.17906-2.6019-0.34749-1.4528-0.26131-2.9208-0.67381-3.9375-1.0357-0.81847-0.2913-1.0801-1.0181-1.0801-1.0181zm16.92-4.0339s-1.3624 0.12794-3.0814 0.14857c-1.8132 0.02176-4.0239-0.06686-5.4837-0.19371-1.4886-0.12946-3.7265-0.4552-5.537-0.79529-1.6937-0.31816-3.0127-0.65592-3.0127-0.65592l1.4347 4.3297s0.0476 0.16294 0.13981 0.3159c0.0662 0.11001 0.16636 0.20596 0.23709 0.27406 0.0649 0.06252 0.16558 0.14011 0.2696 0.19749 0.13752 0.07585 0.27409 0.12344 0.27409 0.12344s1.2814 0.39871 2.767 0.7143c0.99438 0.21125 2.1123 0.35621 2.8796 0.42715 0.96204 0.08899 2.6516 0.11756 3.9765 0.07268 0.62116-0.02103 1.8574-0.16014 1.8574-0.16014s0.24397-0.04884 0.46304-0.14812c0.10131-0.04592 0.19464-0.12439 0.26081-0.17472 0.0765-0.05819 0.18128-0.16279 0.25455-0.2601 0.0793-0.10529 0.12413-0.20133 0.12413-0.20133zm-11.644-3.1071 6.652 0.58159 0.21579-2.3477-6.652-0.58158z" fill="#fff" fill-rule="evenodd"/></g></g><path d="m994.53 282.19c-4.0751-0.52307-7.3155-3.8014-7.8269-7.9178-0.1071-0.85952-0.1071-284.34 0-285.2 0.2227-1.773 0.9084-3.356 2.0634-4.7456 1.2845-1.5454 2.983-2.5646 5.1411-3.0849 0.5195-0.12506 3.9437-0.13149 88.592-0.15247 62.616-0.0171 87.86 4e-5 88.345 0.0514 4.1959 0.47736 7.4783 3.7302 7.9995 7.9279 0.1071 0.85952 0.1071 284.34 0 285.2-0.5165 4.1613-3.762 7.4066-7.9236 7.9236-0.7679 0.0955-175.65 0.0904-176.39-4e-3zm176.75-3.0742c2.2403-0.59865 3.8999-2.3007 4.4858-4.5211l0.1627-0.64877v-284.55l-0.1628-0.64872c-0.5704-2.2502-2.2664-3.9541-4.4944-4.5153l-0.6754-0.17003h-87.591c-83.229 0-88.01 4e-3 -88.54 0.12506-1.1932 0.26596-2.1975 0.81528-3.0511 1.6691-0.824 0.82376-1.3692 1.7983-1.6656 2.9768-0.1156 0.46255-0.1199 111.76-0.1456 195.33 0 58.798 0 89.016 0.047 89.493 0.094 0.95061 0.2313 1.4509 0.6125 2.2346 0.8887 1.8296 2.711 3.1023 4.7976 3.3498 0.257 0.03 39.962 0.0514 88.231 0.0458l87.374-0.0128z" stroke-width=".087081"/><path d="m1102.6 251.78v6.8425h-69.948v3.4129h126.47v-10.255z" fill-rule="evenodd" stroke-width="0" style="paint-order:fill markers stroke"/><path d="m1032.7 4.7686v154.14h21.054v-55.752h31.653c27.252 0 49.194-21.941 49.194-49.194s-21.941-49.194-49.194-49.194h-31.653zm21.054 21.657h32.163c15.363 0 27.73 12.366 27.73 27.73s-12.366 27.73-27.73 27.73h-32.163z" fill-rule="evenodd" stroke-width="0" style="paint-order:fill markers stroke"/></g></g></svg>