<svg width="200" height="308.97" version="1.1" viewBox="0 0 200 308.97" xmlns="http://www.w3.org/2000/svg"><defs><clipPath id="a"><path d="m0 0h227.21v241.73h-227.21z"/></clipPath></defs><g transform="translate(-1285.3 -18.994)"><g transform="matrix(3.1538 0 0 -3.073 388.49 120.69)"/><g transform="matrix(3.0097 0 0 -3.1986 390.02 129.23)"><g transform="scale(.31689 .29786)"><g clip-path="url(#a)"><path d="m301.22 35.778v123.49" fill="none"/></g></g></g><path d="m1298.4 18.994h173.89c7.2307 0 13.052 5.821 13.052 13.052v282.87c0 7.2307-5.8208 13.052-13.052 13.052h-173.89c-7.2307 0-13.052-5.821-13.052-13.052v-282.87c0-7.2306 5.8212-13.052 13.052-13.052z" fill="#00408c" fill-rule="evenodd" stroke-linecap="round" stroke-linejoin="round" stroke-miterlimit=".1" stroke-width="3.0807"/><g fill="#fff"><g fill-rule="evenodd"><path d="m1393.1 293.71v6.8425l-84.004 4e-3v3.4129l84.004-4e-3 68.783 4e-3h0.3512v-10.255z" stroke-width="0" style="paint-order:fill markers stroke"/><path d="m1335.6 46.697v154.14h21.054v-55.752h31.653c27.252 0 49.194-21.941 49.194-49.194s-21.941-49.194-49.194-49.194h-31.653zm21.054 21.657h32.163c15.363 0 27.73 12.366 27.73 27.73 0 15.363-12.366 27.73-27.73 27.73h-32.163z" stroke-width="0" style="paint-order:fill markers stroke"/><path d="m1407.3 244.7 22.899 15.075 26.584-0.44541 4.1141 9.482-4.4987 11.274-10.804 2.6668s-0.4835-4.2454-3.1821-7.1263c-1.3311-1.4216-3.1102-2.5418-5.0379-3.1428-1.5945-0.49741-3.3462-0.60966-4.5364-0.50996-1.2711 0.10664-2.9843 0.45856-4.53 1.2975-1.8351 0.99623-3.4849 2.6086-4.5727 4.313-1.9975 3.1294-1.6862 7.1618-1.6862 7.1618l-50.206 4.4138s-0.5221-4.2024-3.1693-7.053c-1.1589-1.2478-2.8039-2.3723-4.47-2.9863-1.7713-0.65254-3.5693-0.75275-4.9085-0.6471-1.2814 0.0955-3.1046 0.37389-4.7051 1.2521-1.8292 1.0036-3.4194 2.7111-4.4987 4.355-2.0909 3.1849-1.7251 7.1435-1.7251 7.1435l-14.935 0.1786-3.968-11.413 0.6976-11.419 21.474-1.8878 15.661-18.465zm-0.3083 3.7127-13.523 1.1887 1.1692 13.299 29.862-2.6253zm-16.778 1.4749-13.335 1.1723-7.7827 14.086 22.286-1.9592zm42.688 23.933c5.4464-0.47852 10.298 3.5972 10.775 9.0203 0.4767 5.423-3.5894 10.285-9.0359 10.764-5.4465 0.47852-10.302-3.599-10.778-9.022-0.4772-5.423 3.5924-10.283 9.0389-10.762zm-73.644 6.4743c5.446-0.47852 10.298 3.5972 10.775 9.0203 0.4767 5.4229-3.5894 10.285-9.0359 10.764-5.446 0.47852-10.3-3.5991-10.777-9.0221-0.4771-5.423 3.5916-10.283 9.0381-10.762zm74.126-0.98471c-2.4472 0.21543-4.219 2.3151-4.0014 4.7873 0.2184 2.4721 2.3286 4.234 4.7753 4.0188 2.4473-0.21542 4.2144-2.3179 3.9972-4.79-0.2184-2.4721-2.3243-4.2312-4.7711-4.0161zm-73.644 6.4742c-2.4467 0.21542-4.2173 2.3151-4.0001 4.7873 0.2184 2.472 2.3277 4.2339 4.7745 4.0188 2.4467-0.21543 4.2151-2.318 3.998-4.79-0.2184-2.4722-2.3252-4.2312-4.7724-4.0161z"/></g><path d="m1297.2 324.12c-4.0751-0.52306-7.3155-3.8014-7.8269-7.9178-0.1071-0.85952-0.1113-284.34 0-285.2 0.2227-1.773 0.9084-3.356 2.0634-4.7455 1.2845-1.5455 2.983-2.5646 5.1411-3.0849 0.5196-0.12506 3.9437-0.13148 88.592-0.15247 62.616-0.0171 87.86 4e-5 88.345 0.0514 4.1959 0.47737 7.4783 3.7302 7.9999 7.9279 0.1071 0.85953 0.1071 284.34 0 285.2-0.5165 4.1613-3.762 7.4066-7.9232 7.9236-0.7684 0.0955-175.65 0.0904-176.39-4e-3zm176.75-3.0741c2.2403-0.5987 3.8999-2.3007 4.4854-4.5211l0.1627-0.64876v-284.55l-0.1628-0.64872c-0.5704-2.2502-2.2665-3.9541-4.4944-4.5153l-0.6754-0.17003h-87.591c-83.228 0-88.009 4e-3 -88.54 0.12506-1.1932 0.26597-2.1975 0.81528-3.0515 1.6691-0.8236 0.82376-1.3688 1.7983-1.6656 2.9768-0.1156 0.46255-0.1242 111.76-0.1456 195.33 0 58.798 0 89.016 0.047 89.493 0.094 0.95062 0.2313 1.4509 0.6129 2.2346 0.8882 1.8296 2.711 3.1023 4.7972 3.3498 0.2569 0.03 39.962 0.0514 88.232 0.0458l87.374-0.0129z" stroke-width=".087081"/></g></g></svg>