<svg width="200" height="308.97" version="1.1" viewBox="0 0 200 308.97" xmlns="http://www.w3.org/2000/svg"><defs><clipPath id="a"><path d="m0 0h227.21v241.73h-227.21z"/></clipPath></defs><g transform="translate(-917.99 207.08)"><g transform="matrix(3.1538 0 0 -3.073 388.49 120.69)"/><g transform="matrix(3.0097 0 0 -3.1986 390.02 129.23)"><g transform="scale(.31689 .29786)"><g clip-path="url(#a)"><path d="m301.22 35.778v123.49" fill="none"/></g></g></g><path d="m931.04-207.08h173.89c7.2307 0 13.052 5.821 13.052 13.052v282.87c0 7.2307-5.8208 13.052-13.052 13.052h-173.89c-7.2307 0-13.051-5.821-13.051-13.052v-282.87c0-7.2306 5.8208-13.052 13.052-13.052z" fill="#00408c" fill-rule="evenodd" stroke-linecap="round" stroke-linejoin="round" stroke-miterlimit=".1" stroke-width="3.0807"/><g fill="#fff"><path d="m929.83 98.05c-4.0755-0.52306-7.3159-3.8014-7.8273-7.9178-0.107-0.85952-0.107-284.34 0-285.2 0.2227-1.773 0.9088-3.356 2.0639-4.7456 1.2844-1.5455 2.9825-2.5646 5.1407-3.0849 0.5199-0.12506 3.944-0.13148 88.592-0.15247 62.616-0.0171 87.86 5e-5 88.345 0.0514 4.1958 0.47736 7.4782 3.7302 7.9999 7.9279 0.107 0.85952 0.107 284.34 0 285.2-0.5165 4.1613-3.7621 7.4066-7.9233 7.9236-0.7683 0.09551-175.65 0.09037-176.39-0.0043zm176.75-3.0741c2.2403-0.5987 3.8999-2.3007 4.4854-4.5211l0.1628-0.64876v-284.55l-0.1627-0.64872c-0.5705-2.2502-2.2665-3.9541-4.4944-4.5153l-0.6754-0.17002h-87.591c-83.229 0-88.01 4e-3 -88.54 0.12506-1.1932 0.26596-2.1975 0.81527-3.0511 1.6691-0.824 0.82376-1.3692 1.7983-1.6656 2.9768-0.1156 0.46254-0.1242 111.76-0.1456 195.33 0 58.798 0 89.016 0.047 89.493 0.094 0.95062 0.2313 1.4509 0.6129 2.2347 0.8883 1.8296 2.711 3.1023 4.7976 3.3497 0.257 0.02998 39.962 0.05139 88.232 0.04583l87.374-0.01285z" stroke-width=".087081"/><g fill-rule="evenodd"><path d="m965.84 67.642v6.8425h-24.117v3.4129l84.005-0.0043 68.783 4e-3h0.3512v-10.255z" stroke-width="0" style="paint-order:fill markers stroke"/><path d="m968.27-179.38v154.14h21.054v-55.752h31.653c27.252 0 49.194-21.941 49.194-49.194s-21.941-49.194-49.194-49.194h-31.653zm21.054 21.657h32.163c15.363 0 27.73 12.366 27.73 27.73 0 15.363-12.366 27.73-27.73 27.73h-32.163z" stroke-width="0" style="paint-order:fill markers stroke"/><path d="m1044.9 15.895 21.684 17.175 26.758 1.9021 3.2969 9.8938-5.5176 10.934-11.095 1.7246s-0.1114-4.3086-2.5684-7.4426c-1.2121-1.5464-2.9012-2.8296-4.7861-3.604-1.5581-0.64041-3.3089-0.90864-4.5141-0.91323-1.2874-0.0038-3.04 0.19701-4.6674 0.90385-1.9329 0.83909-3.7334 2.3142-4.9771 3.931-2.2845 2.9688-2.3277 7.0495-2.3277 7.0495h-50.852s-0.1542-4.2699-2.562-7.369c-1.0544-1.3566-2.6086-2.6322-4.2288-3.3965-1.7226-0.81258-3.521-1.0718-4.8765-1.0845-1.2964-0.01713-3.1534 0.1015-4.84 0.84269-1.9268 0.84714-3.6764 2.4228-4.9064 3.9796-2.383 3.0166-2.365 7.0277-2.365 7.0277l-15.027-1.1415-2.9792-11.821 1.7102-11.416h21.75l17.372-17.175zm-0.6352 3.7048h-13.696v13.47h30.246zm-16.993 0h-13.506l-9.0667 13.47h22.573zm40.79 27.827c5.5163-4.3e-5 10.033 4.5255 10.033 10.018 0 5.4928-4.5167 10.02-10.033 10.02s-10.035-4.5276-10.035-10.02c0-5.4928 4.5188-10.018 10.035-10.018zm-74.59 0c5.5168-4.3e-5 10.033 4.5255 10.033 10.018 0 5.4928-4.5166 10.02-10.033 10.02-5.5162 0-10.035-4.5276-10.035-10.02 0-5.4928 4.5184-10.018 10.035-10.018zm74.59 5.5591c-2.4784 0-4.4438 1.9552-4.4438 4.4592s1.9654 4.4613 4.4438 4.4613c2.4785 0 4.4417-1.9573 4.4417-4.4613 0-2.5039-1.9632-4.4592-4.4417-4.4592zm-74.59 0c-2.478 0-4.4434 1.9552-4.4434 4.4592s1.9654 4.4613 4.4434 4.4613c2.4789 0 4.4418-1.9573 4.4418-4.4613 0-2.5039-1.9629-4.4592-4.4418-4.4592z"/></g></g></g></svg>