<svg width="200.26" height="203.17" version="1.1" viewBox="0 0 200.26 203.17" xmlns="http://www.w3.org/2000/svg"><defs><clipPath id="b"><path d="m0 0h264.34v266.57h-264.34z"/></clipPath><clipPath id="a"><path d="m0 0h227.21v241.73h-227.21z"/></clipPath></defs><g transform="translate(-608.68 87.64)"><path d="m621.75-87.64h174.12c7.24 0 13.069 5.8286 13.069 13.069v177.03c0 7.24-5.8286 13.069-13.069 13.069h-174.12c-7.24 0-13.069-5.8286-13.069-13.069v-177.03c0-7.24 5.8286-13.069 13.069-13.069z" fill="#00408c" fill-rule="evenodd" opacity=".99988" stroke-linecap="round" stroke-linejoin="round" stroke-miterlimit=".1" stroke-width="3.0807"/><path d="m620.53 111.68c-4.0805-0.52402-7.3252-3.8063-7.8372-7.928-0.10693-0.86065-0.10693-178.51 0-179.37 0.22056-1.7753 0.90983-3.3604 2.0664-4.7518 1.2862-1.5474 2.9868-2.5679 5.1476-3.0888 0.52041-0.12547 3.9488-0.13139 88.707-0.15295 62.697-0.0159 87.974 4e-5 88.46 0.0554 4.2013 0.47809 7.4877 3.735 8.0099 7.9382 0.10693 0.86065 0.10693 178.51 0 179.37-0.51767 4.1667-3.7671 7.4162-7.9339 7.9339-0.76909 0.0956-175.87 0.0897-176.62-6e-3zm176.98-3.0781c2.2433-0.5995 3.905-2.3038 4.4914-4.527l0.16411-0.6496v-178.71l-0.16473-0.6496c-0.57134-2.2531-2.2692-3.9589-4.5-4.5211l-0.67645-0.17047h-87.704c-83.337 0-88.124 7e-3 -88.655 0.1252-1.1948 0.26629-2.2004 0.81638-3.0552 1.6712-0.82489 0.82489-1.3709 1.8007-1.6678 2.9806-0.11655 0.46313-0.1251 5.6963-0.14616 89.379-0.0148 58.875 2e-3 89.131 0.0498 89.609 0.0951 0.95178 0.23251 1.4527 0.61355 2.2375 0.88952 1.832 2.7146 3.1064 4.8037 3.3541 0.25803 0.0306 40.014 0.0515 88.346 0.0467l87.487-9e-3z" fill="#fff" stroke-width=".087081"/><g transform="matrix(3.1538 0 0 -3.073 388.49 120.69)"/><g transform="matrix(5.8923 0 0 5.8923 -9.8796 -2956.3)" fill="#fff" aria-label="R"><path d="m121.38 510.68-1.9796-1e-3 0.0266 7.1912h-2.8007l-0.0196-19.984h6.951c0.53297 0 1.0361 1e-3 1.6779 0.11222 0.94776 0.16381 1.9916 0.71366 2.6892 1.3004 1.3595 1.1436 2.3922 2.6668 2.3922 5.0068 0 1.4945-0.47893 2.6208-1.3129 3.7987-0.41405 0.58486-0.93987 1.0618-1.5138 1.4674-0.44449 0.31408-0.95283 0.5352-1.4627 0.72557-0.36552 0.13647-0.74817 0.22933-1.1329 0.29431-0.30377 0.0513-0.92123 0.0743-0.92123 0.0743zm5.7249-7.7666c-0.1715-0.44911-0.4691-0.85919-0.82354-1.184-0.4418-0.40484-0.98647-0.71922-1.5596-0.89402-0.53141-0.16207-1.4331-0.11601-1.6625-0.11911-0.32615-4e-3 -0.66067-6e-3 -0.97663-6e-3l-2.6699 4e-3v7.1822l2.3839-3e-3c0.45799-3.4e-4 0.79261 1.1e-4 1.105-1e-3 0.28784-1e-3 1.2824 0.0437 1.8811-0.14931 0.5861-0.18899 1.1587-0.50819 1.5802-0.9572 0.48545-0.5172 0.85837-1.1883 0.9852-1.8862 0.11927-0.65634-5e-3 -1.3632-0.24318-1.9864z" fill="#fff"/></g><g transform="matrix(3.0803 0 0 -3.1213 470.02 122.28)" fill="#fff"><g transform="matrix(1.108 0 0 .2701 -153.79 0)" fill="#fff"><g clip-path="url(#b)" fill="#fff"><path d="m233.34 169.56-0.0953-24.631-24.63 57.832-24.576-57.832 3e-3 25.377 24.573 57.802z" fill="#fff" fill-rule="evenodd" opacity=".99988"/></g></g></g><g transform="matrix(3.0097 0 0 -3.1986 390.02 129.23)"><g transform="scale(.31689 .29786)"><g clip-path="url(#a)"><path d="m301.22 35.778v123.49" fill="none"/></g></g></g></g></svg>