<svg width="200.26" height="203.17" version="1.1" viewBox="0 0 200.26 203.17" xmlns="http://www.w3.org/2000/svg"><g transform="translate(-608.68 87.64)"><path d="m621.75-87.64h174.12c7.24 0 13.069 5.8286 13.069 13.069v177.03c0 7.24-5.8286 13.069-13.069 13.069h-174.12c-7.24 0-13.069-5.8286-13.069-13.069v-177.03c0-7.24 5.8286-13.069 13.069-13.069z" fill="#00408c" fill-rule="evenodd" opacity=".99988" stroke-linecap="round" stroke-linejoin="round" stroke-miterlimit=".1" stroke-width="3.0807"/><path d="m620.53 111.68c-4.0805-0.52402-7.3252-3.8063-7.8372-7.928-0.10693-0.86065-0.10693-178.51 0-179.37 0.22056-1.7753 0.90983-3.3604 2.0664-4.7518 1.2862-1.5474 2.9868-2.5679 5.1476-3.0888 0.52041-0.12547 3.9488-0.13139 88.707-0.15295 62.697-0.0159 87.974 4e-5 88.46 0.0554 4.2013 0.47809 7.4877 3.735 8.0099 7.9382 0.10693 0.86065 0.10693 178.51 0 179.37-0.51767 4.1667-3.7671 7.4162-7.9339 7.9339-0.76909 0.0956-175.87 0.0897-176.62-6e-3zm176.98-3.0781c2.2433-0.5995 3.905-2.3038 4.4914-4.527l0.16411-0.6496v-178.71l-0.16473-0.6496c-0.57134-2.2531-2.2692-3.9589-4.5-4.5211l-0.67645-0.17047h-87.704c-83.337 0-88.124 7e-3 -88.655 0.1252-1.1948 0.26629-2.2004 0.81638-3.0552 1.6712-0.82489 0.82489-1.3709 1.8007-1.6678 2.9806-0.11655 0.46313-0.1251 5.6963-0.14616 89.379-0.0148 58.875 2e-3 89.131 0.0498 89.609 0.0951 0.95178 0.23251 1.4527 0.61355 2.2375 0.88952 1.832 2.7146 3.1064 4.8037 3.3541 0.25803 0.0306 40.014 0.0515 88.346 0.0467l87.487-9e-3z" fill="#fff" stroke-width=".087081"/><g transform="matrix(3.1538 0 0 -3.073 388.49 120.69)"/><g fill="#fff"><g transform="matrix(5.5045 0 0 5.5045 32.339 -2809.9)" aria-label="R"><path d="m121.38 510.68-1.9796-1e-3 0.0266 7.1912h-2.8007l-0.0196-19.984h6.951c0.53297 0 1.0361 1e-3 1.6779 0.11222 0.94776 0.16381 1.9916 0.71366 2.6892 1.3004 1.3595 1.1436 2.3922 2.6668 2.3922 5.0068 0 1.4945-0.47893 2.6208-1.3129 3.7987-0.41405 0.58486-0.93987 1.0618-1.5138 1.4674-0.44449 0.31408-0.95283 0.5352-1.4627 0.72557-0.36552 0.13647-0.74817 0.22933-1.1329 0.29431-0.30377 0.0513-0.92123 0.0743-0.92123 0.0743zm5.7249-7.7666c-0.1715-0.44911-0.4691-0.85919-0.82354-1.184-0.4418-0.40484-0.98647-0.71922-1.5596-0.89402-0.53141-0.16207-1.4331-0.11601-1.6625-0.11911-0.32615-4e-3 -0.66067-6e-3 -0.97663-6e-3l-2.6699 4e-3v7.1822l2.3839-3e-3c0.45799-3.4e-4 0.79261 1.1e-4 1.105-1e-3 0.28784-1e-3 1.2824 0.0437 1.8811-0.14931 0.5861-0.18899 1.1587-0.50819 1.5802-0.9572 0.48545-0.5172 0.85837-1.1883 0.9852-1.8862 0.11927-0.65634-5e-3 -1.3632-0.24318-1.9864z" fill="#fff"/></g><path d="m642.21 40.626h9.1787l0.0153 15.978h16.034v9.183h-16.034l-0.0153 16.101h-9.1787v-16.101h-16.056v-9.183h16.056z" fill-rule="evenodd" opacity=".99988" stroke-linecap="round" stroke-linejoin="round" stroke-miterlimit="10" stroke-width=".75591"/><g transform="matrix(1.029 0 0 1.029 408.87 -393.89)" aria-label="M"><path d="m280.16 477.02h-3.6022l-8e-3 -13.864-6.8309 11.155-6.821-11.136-0.0152 13.845-3.6161 1e-5v-20.1l4.014-0.0312 6.4425 10.474 6.4258-10.473 4.0109 0.0304z" fill="#fff"/></g><path d="m723.46 96.925-14.818 0.01669v-20.59l14.818-0.02572v3.6877l-11.068 0.02572-0.0541 4.5197 7.0107 0.0092v3.7492l-7.0107-0.0092 0.0541 4.9455 11.069-0.01669z"/><g transform="matrix(1.0413 0 0 1.0413 437.53 -414.06)" aria-label="T"><path d="m294.82 474.49h-5.7273v16.203h-3.5684v-16.203l-5.6987-1.3e-4v-3.54l14.994 1e-5z" fill="#fff"/></g><g transform="matrix(1.0345 0 0 1.0345 631.75 -439.79)" aria-label="R"><path d="m132.55 518.83h-4.1842l-4.6752-8.3485-3.4692-1e-3v8.3616h-3.6l-8e-3 -19.946h9.24c0.53297 0 1.2196-0.037 1.8614 0.074 0.94776 0.16381 1.8617 0.56079 2.5592 1.1475 1.3595 1.1436 2.2782 2.4782 2.2782 4.8182 0 1.4945-0.68799 2.739-1.6004 3.7436-0.80998 0.89192-2.1508 1.5317-3.1716 1.7335zm-3.5728-14.106c0.0136-0.37657-0.0999-0.78364-0.28127-1.125-0.13511-0.25425-0.35499-0.47526-0.57724-0.64254-0.25525-0.1921-0.50311-0.29531-0.78182-0.36804-0.21755-0.0568-0.44341-0.0444-0.67283-0.0475-0.32615-4e-3 -0.66067-6e-3 -0.97663-6e-3l-5.4444-9e-3 5e-3 4.3554 5.6513-0.0264c0.87999-4e-3 1.1679 0.0569 1.702-0.14015 0.31227-0.11519 0.65904-0.39413 0.80997-0.58393 0.29832-0.37512 0.54904-0.95093 0.56545-1.4068z" fill="#fff"/></g><path d="m794.06 86.744c0 3.2252-0.89803 5.2711-2.438 7.2637-1.5197 1.9721-3.5561 2.9581-6.1092 2.9581-2.7962 0-4.9846-1.1401-6.5651-3.4203-1.3778-1.9721-2.1692-3.8434-2.1692-6.7399 0-3.2868 0.92362-5.6705 2.4636-7.5604 1.54-1.9104 3.6473-2.8657 6.322-2.8657 2.5126 0 4.5388 0.97576 6.0788 2.9273 1.5602 1.931 2.4172 4.2737 2.4172 7.4372zm-3.6938 0.06163c0-2.1775-0.66197-3.8119-1.513-5.0445-0.83076-1.2325-2.0928-1.6976-3.3438-1.7043-1.3142-7e-3 -2.6606 0.52006-3.5319 1.7526-0.8713 1.2326-1.4654 2.8187-1.4654 4.9962 0 2.198 0.4917 3.4684 1.363 4.7215 0.87131 1.2326 2.3292 1.7214 3.6888 1.741 1.4378 0.02073 2.9616-0.86377 3.7721-2.4045 0.64841-1.212 1.0301-2.127 1.0301-4.058z"/></g></g></svg>