<svg width="570" height="500" version="1.1" xmlns="http://www.w3.org/2000/svg"><g transform="translate(.25484 -427.12)"><path d="m562.01 472.01c2.2857-3.8149 4.2275-6.9527 5.4757-10.043 1.1782-2.9165 1.7267-5.8054 1.761-8.6837 0.0501-4.175-0.92485-8.8049-3.1583-12.669-3.4413-5.9534-8.7729-10.112-14.884-11.98-3.6612-1.1193-7.6779-1.0188-11.525-1.02l-511.94 0.0447c-2.1127-9.3e-4 -3.83-0.0534-5.7332 0.2453-7.7332 1.2135-14.221 5.0946-18.862 13.111-2.5352 4.3792-3.0991 9.8352-2.8298 13.934 0.31589 4.808 1.9041 8.229 4.6741 13.021l256.64 444.11c4.7695 8.8771 12.924 14.445 23.045 14.532 11.592-0.19219 19.604-7.1289 23.719-15.698l253.62-438.9z" fill="#fff" stroke="#000" stroke-linecap="round" stroke-linejoin="round" stroke-miterlimit="2"/><path d="m27.366 433.51c-8.7544 0.0329-14.949 3.0215-18.788 9.6533-3.7365 6.4543-2.9519 14.26 0.38116 20.086l259.08 447.82c3.2637 5.6457 10.076 9.5523 17.544 9.5546 7.6741 2e-3 12.894-4.302 16.657-10.802l258.21-446.81c3.8943-6.3896 3.6786-13.855-0.023-20.247-3.732-6.4561-11.034-9.216-17.565-9.2183zm43.459 45.501 427.64 0.10766-213.78 370.05z" fill="#ee252c"/></g></svg>