<?xml version="1.0" encoding="UTF-8" standalone="no"?>
<svg
   xmlns:dc="http://purl.org/dc/elements/1.1/"
   xmlns:cc="http://creativecommons.org/ns#"
   xmlns:rdf="http://www.w3.org/1999/02/22-rdf-syntax-ns#"
   xmlns:svg="http://www.w3.org/2000/svg"
   xmlns="http://www.w3.org/2000/svg"
   xmlns:sodipodi="http://sodipodi.sourceforge.net/DTD/sodipodi-0.dtd"
   xmlns:inkscape="http://www.inkscape.org/namespaces/inkscape"
   sodipodi:docname="Turkey_road_sign_TT-1.svg"
   inkscape:version="1.0 (4035a4fb49, 2020-05-01)"
   version="1.1"
   id="svg2"
   height="500"
   width="570">
  <defs
     id="defs4">
    <inkscape:perspective
       id="perspective10"
       inkscape:persp3d-origin="372.04724 : 250.91642 : 1"
       inkscape:vp_z="744.09448 : 426.31012 : 1"
       inkscape:vp_y="0 : 1000 : 0"
       inkscape:vp_x="0 : 426.31012 : 1"
       sodipodi:type="inkscape:persp3d" />
    <inkscape:perspective
       sodipodi:type="inkscape:persp3d"
       inkscape:vp_x="0 : 267.62354 : 1"
       inkscape:vp_y="0 : 1000 : 0"
       inkscape:vp_z="834.086 : 267.62354 : 1"
       inkscape:persp3d-origin="417.043 : 145.12537 : 1"
       id="perspective2832" />
  </defs>
  <sodipodi:namedview
     inkscape:document-rotation="0"
     inkscape:window-maximized="1"
     inkscape:window-y="-9"
     inkscape:window-x="-9"
     inkscape:window-height="1001"
     inkscape:window-width="1920"
     showgrid="false"
     inkscape:current-layer="layer1"
     inkscape:document-units="px"
     inkscape:cy="267.45998"
     inkscape:cx="183.24852"
     inkscape:zoom="1.1327851"
     inkscape:pageshadow="2"
     inkscape:pageopacity="0.0"
     borderopacity="1.0"
     bordercolor="#666666"
     pagecolor="#ffffff"
     id="base" />
  <metadata
     id="metadata7">
    <rdf:RDF>
      <cc:Work
         rdf:about="">
        <dc:format>image/svg+xml</dc:format>
        <dc:type
           rdf:resource="http://purl.org/dc/dcmitype/StillImage" />
        <dc:title />
      </cc:Work>
    </rdf:RDF>
  </metadata>
  <g
     transform="translate(0.25484499,-427.11644)"
     id="layer1"
     inkscape:groupmode="layer"
     inkscape:label="Livello 1">
    <path
       style="opacity:1;fill:#ffffff;fill-rule:nonzero;stroke:#000000;stroke-width:1;stroke-linecap:round;stroke-linejoin:round;stroke-miterlimit:2;stroke-dasharray:none;stroke-dashoffset:0;stroke-opacity:1"
       stroke-miterlimit="2"
       d="m 562.00658,472.01423 c 2.28566,-3.81488 4.22747,-6.95274 5.47574,-10.04261 1.17818,-2.91649 1.72672,-5.80536 1.76097,-8.68369 0.0501,-4.17499 -0.92485,-8.80487 -3.15834,-12.66872 -3.44132,-5.95345 -8.77287,-10.11185 -14.88396,-11.98035 -3.66122,-1.11932 -7.6779,-1.01879 -11.52466,-1.02002 l -511.944595,0.0447 c -2.112674,-9.3e-4 -3.829987,-0.0534 -5.73324,0.2453 -7.733173,1.21351 -14.2208946,5.09455 -18.8616493,13.11102 -2.53516037,4.37924 -3.09913683,9.83524 -2.82983562,13.93378 0.31589371,4.80796 1.90407392,8.22896 4.67412942,13.02101 L 261.62046,912.08418 c 4.76951,8.87713 12.92385,14.44525 23.04502,14.53227 11.59195,-0.19219 19.6037,-7.12893 23.71852,-15.69821 L 562.00658,472.01338 Z"
       id="path2818-7"
       sodipodi:nodetypes="cssssccssscccccc" />
    <path
       id="path2820-2"
       style="opacity:1;fill:#ee252c;fill-opacity:1;fill-rule:nonzero;stroke-width:1"
       d="m 27.366194,433.50549 c -8.754432,0.0329 -14.949241,3.02154 -18.7883603,9.65332 -3.7364717,6.45434 -2.9519394,14.25952 0.3811613,20.08601 L 268.03628,911.06146 c 3.26367,5.64571 10.07561,9.55228 17.54423,9.5546 7.67409,0.002 12.89419,-4.30199 16.65714,-10.80222 L 560.44959,463.0028 c 3.89432,-6.38961 3.67863,-13.85457 -0.023,-20.24682 -3.73201,-6.45607 -11.0338,-9.21598 -17.56536,-9.2183 z m 43.458521,45.50129 427.639635,0.10766 -213.77804,370.04609 z"
       sodipodi:nodetypes="cscccccscccccc" />
  </g>
</svg>
