<svg width="600" height="600.01" version="1.1" xmlns="http://www.w3.org/2000/svg"><g transform="translate(-3351.3 -1557)"><g transform="translate(-108.37 1759.9)"><rect x="578.74" y="298.17" width="0" height="27.202" rx="249.48" ry="27.202" color="#000000"/><g transform="matrix(.88381 0 0 .88381 -1569.9 -1726.3)"><g transform="matrix(1.1315 0 0 1.1315 -1464.3 -762.13)"><g transform="translate(-108.37 1759.9)"><rect x="578.74" y="298.17" width="0" height="27.202" rx="249.48" ry="27.202" color="#000000"/></g></g></g><g fill-rule="evenodd"><path d="m3759.6-201.93c-165.06 0-299.05 133.99-299.05 299.05-5e-4 165.06 133.99 299.05 299.05 299.05 165.06 6.3e-4 299.05-133.99 299.05-299.05 6e-4 -165.06-133.99-299.05-299.05-299.05z" color="#000000" color-rendering="auto" dominant-baseline="auto" enable-background="accumulate" fill="#fff" image-rendering="auto" shape-rendering="auto" solid-color="#000000" stop-color="#000000" stroke="#000" stroke-linecap="square" stroke-linejoin="round" stroke-miterlimit="2" stroke-width="1.9" style="font-feature-settings:normal;font-variant-alternates:normal;font-variant-caps:normal;font-variant-east-asian:normal;font-variant-ligatures:normal;font-variant-numeric:normal;font-variant-position:normal;font-variation-settings:normal;inline-size:0;isolation:auto;mix-blend-mode:normal;paint-order:stroke fill markers;shape-margin:0;shape-padding:0;text-decoration-color:#000000;text-decoration-line:none;text-decoration-style:solid;text-indent:0;text-orientation:mixed;text-transform:none;white-space:normal"/><path d="m3706.1 6.2352c-10.252 0.43737-15.576 5.853-19.085 13.111l-21.641 52.556a59.215 59.215 0 0 0-17.252-2.5715 59.215 59.215 0 0 0-0.4233 0 59.215 59.215 0 0 0-58.789 59.217 59.215 59.215 0 0 0 59.212 59.212 59.215 59.215 0 0 0 59.217-59.212 59.215 59.215 0 0 0-30.011-51.513l7.575-18.347h5.391c2.1209 0.19591 2.8611 0.90955 3.7024 1.5852l50.021 75.189c3.1416 3.5409 7.6387 6.8116 14.381 8.5665l54.792 1.4149a59.215 59.215 0 0 0 56.749 42.316 59.215 59.215 0 0 0 59.217-59.212 59.215 59.215 0 0 0-59.217-59.217 59.215 59.215 0 0 0-0.4232 0 59.215 59.215 0 0 0-58.773 57.88l-50.016 1.2754v-8e-3c-2.3736-0.32817-4.6848-1.1593-6.8778-2.8555l-5.2877-7.823c-1.0725-2.034-0.809-3.3771-0.4182-4.6525l4.637-12.114c1.0207-2.9165 1.7216-6.1064-0.5113-11.789l-21.047-29.505-4.4977-6.2429c-3.9533-4.7356-7.6509-6.0361-14.272-6.0467l-22.896 0.02829-0.032 0.01058 9.7852-23.701c1.737-3.5148 4.2108-4.2439 6.7901-4.5802h30.827v-12.971zm96.675 40.499c-1.1625 0-2.0963 0.93919-2.0963 2.1016 0 0.52453 0.2649 0.8931 0.5523 1.2858l30.079 22.23s7.4045-4.2939 11.324-5.9847c3.8796-1.6736 11.995-4.0845 11.995-4.0845h62.398v-15.548zm-154.98 37.633a44.128 44.128 0 0 1 0.2892 0 44.128 44.128 0 0 1 11.525 1.5336l-15.315 37.189c-3.2495 9.0173 9.4233 12.619 12.176 4.4562l15.047-36.44a44.128 44.128 0 0 1 20.696 37.39 44.128 44.128 0 0 1-44.129 44.124 44.128 44.128 0 0 1-44.129-44.124 44.128 44.128 0 0 1 43.84-44.129zm221.67 0a44.128 44.128 0 0 1 0.1507 0 44.128 44.128 0 0 1 0.289 0 44.128 44.128 0 0 1 44.129 44.129 44.128 44.128 0 0 1-44.129 44.124 44.128 44.128 0 0 1-40.566-26.758l51.844 1.3374v-21.786l-55.381 1.4148a44.128 44.128 0 0 1 43.659-42.461z" style="paint-order:stroke fill markers"/><path d="m3759.6-193.45c-160.48 0-290.58 130.1-290.57 290.58-2e-4 160.48 130.09 290.58 290.57 290.58 160.48 5e-4 290.58-130.1 290.58-290.58 8e-4 -160.48-130.1-290.58-290.58-290.58zm-0.6366 70.562c0.1639-2.1e-4 0.3278-2.1e-4 0.4912 0 121.49 5.6e-4 219.98 98.487 219.98 219.98-5e-4 121.49-98.487 219.98-219.98 219.98-121.49-5.2e-4 -219.98-98.487-219.98-219.98 5e-4 -121.3 98.188-219.71 219.48-219.98z" color="#000000" color-rendering="auto" dominant-baseline="auto" enable-background="accumulate" fill="#ed232a" image-rendering="auto" shape-rendering="auto" solid-color="#000000" stop-color="#000000" style="font-feature-settings:normal;font-variant-alternates:normal;font-variant-caps:normal;font-variant-east-asian:normal;font-variant-ligatures:normal;font-variant-numeric:normal;font-variant-position:normal;font-variation-settings:normal;inline-size:0;isolation:auto;mix-blend-mode:normal;paint-order:stroke fill markers;shape-margin:0;shape-padding:0;text-decoration-color:#000000;text-decoration-line:none;text-decoration-style:solid;text-indent:0;text-orientation:mixed;text-transform:none;white-space:normal"/></g></g></g></svg>