<?xml version="1.0" encoding="UTF-8" standalone="no"?>
<svg
   xmlns:dc="http://purl.org/dc/elements/1.1/"
   xmlns:cc="http://creativecommons.org/ns#"
   xmlns:rdf="http://www.w3.org/1999/02/22-rdf-syntax-ns#"
   xmlns:svg="http://www.w3.org/2000/svg"
   xmlns="http://www.w3.org/2000/svg"
   xmlns:sodipodi="http://sodipodi.sourceforge.net/DTD/sodipodi-0.dtd"
   xmlns:inkscape="http://www.inkscape.org/namespaces/inkscape"
   sodipodi:docname="tt5.svg"
   inkscape:version="1.0 (4035a4fb49, 2020-05-01)"
   id="svg26447"
   version="1.1"
   viewBox="0 0 158.75 158.75137"
   height="158.75137mm"
   width="158.75mm">
  <defs
     id="defs26441" />
  <sodipodi:namedview
     inkscape:window-maximized="0"
     inkscape:window-y="0"
     inkscape:window-x="32"
     inkscape:window-height="1030"
     inkscape:window-width="1424"
     showgrid="false"
     inkscape:document-rotation="0"
     inkscape:current-layer="layer1"
     inkscape:document-units="mm"
     inkscape:cy="517.14547"
     inkscape:cx="591.42858"
     inkscape:zoom="0.35"
     inkscape:pageshadow="2"
     inkscape:pageopacity="0.0"
     borderopacity="1.0"
     bordercolor="#666666"
     pagecolor="#ffffff"
     id="base" />
  <metadata
     id="metadata26444">
    <rdf:RDF>
      <cc:Work
         rdf:about="">
        <dc:format>image/svg+xml</dc:format>
        <dc:type
           rdf:resource="http://purl.org/dc/dcmitype/StillImage" />
        <dc:title></dc:title>
      </cc:Work>
    </rdf:RDF>
  </metadata>
  <g
     transform="translate(50.648811,-11.338594)"
     id="layer1"
     inkscape:groupmode="layer"
     inkscape:label="Layer 1">
    <path
       sodipodi:nodetypes="ccccc"
       id="path26405"
       d="m 28.725579,11.589948 c -43.672416,0 -79.123169,35.451952 -79.123036,79.12435 -1.33e-4,43.672392 35.45062,79.123712 79.123036,79.124322 43.672869,1.7e-4 79.124391,-35.45131 79.124261,-79.124322 1.3e-4,-43.672959 -35.451392,-79.12449 -79.124261,-79.12435 z"
       style="color:#000000;font-style:normal;font-variant:normal;font-weight:normal;font-stretch:normal;font-size:medium;line-height:normal;font-family:sans-serif;font-variant-ligatures:normal;font-variant-position:normal;font-variant-caps:normal;font-variant-numeric:normal;font-variant-alternates:normal;font-variant-east-asian:normal;font-feature-settings:normal;font-variation-settings:normal;text-indent:0;text-align:start;text-decoration:none;text-decoration-line:none;text-decoration-style:solid;text-decoration-color:#000000;letter-spacing:normal;word-spacing:normal;text-transform:none;writing-mode:lr-tb;direction:ltr;text-orientation:mixed;dominant-baseline:auto;baseline-shift:baseline;text-anchor:start;white-space:normal;shape-padding:0;shape-margin:0;inline-size:0;clip-rule:nonzero;display:inline;overflow:visible;visibility:visible;opacity:1;isolation:auto;mix-blend-mode:normal;color-interpolation:sRGB;color-interpolation-filters:linearRGB;solid-color:#000000;solid-opacity:1;vector-effect:none;fill:#ffffff;fill-opacity:1;fill-rule:evenodd;stroke:#000000;stroke-width:0.502708;stroke-linecap:square;stroke-linejoin:round;stroke-miterlimit:2;stroke-dasharray:none;stroke-dashoffset:0;stroke-opacity:1;paint-order:stroke fill markers;color-rendering:auto;image-rendering:auto;shape-rendering:auto;text-rendering:auto;enable-background:accumulate;stop-color:#000000;stop-opacity:1" />
    <path
       id="path61228"
       style="opacity:1;fill:#000000;fill-opacity:1;fill-rule:evenodd;stroke:none;stroke-width:0.702733;stroke-linecap:round;stroke-linejoin:round;stroke-miterlimit:10;stroke-dasharray:none;stroke-opacity:0.87451"
       d="M 8.8561384,67.035582 V 97.104305 H 73.347588 V 67.035582 Z M -9.8395316,77.187123 -15.254626,90.8612 v 15.35962 h 3.271678 c 0,0 -0.03638,-0.99554 0.323506,-2.2668 0.301837,-1.0696 0.906145,-2.32387 1.8253874,-3.43822 0.766789,-0.929634 1.93302,-1.69314 3.135948,-2.229095 1.240287,-0.55257 2.254091,-0.822915 3.434106,-0.869831 0.861351,-0.03421 1.746039,0.120896 2.549208,0.43389 1.614249,0.629073 3.293983,1.459907 4.3629,2.825426 0.851085,1.08717 1.412081,2.36655 1.686851,3.4492 0.296042,1.16525 0.272176,2.09543 0.272176,2.09543 H 45.207745 c 0,0 0.02656,-0.46755 0.122688,-1.16596 0.09932,-0.70161 0.314298,-1.5302 0.529166,-2.05224 0.228759,-0.55666 0.654394,-1.34657 1.111806,-1.97067 0.295672,-0.40339 0.598276,-0.74254 0.806106,-0.9617 0.160337,-0.169039 0.263869,-0.266636 0.263869,-0.266636 H 6.1917844 V 77.187123 Z m 0.823886,3.738462 h 12.477327 v 8.705239 H -12.460018 Z m 5.835915,18.647032 c -3.656171,0 -6.649508,2.999383 -6.649508,6.639973 0,3.64058 2.993337,6.64135 6.649508,6.64134 3.656277,-1e-5 6.65099,-3.00076 6.65099,-6.64134 0,-3.64059 -2.994713,-6.639973 -6.65099,-6.639973 z m 57.1749486,0 c -3.65625,0 -6.649586,2.999383 -6.649586,6.639973 0,3.64058 2.993336,6.64135 6.649586,6.64134 3.6562,-1e-5 6.65163,-3.00076 6.65163,-6.64134 0,-3.64059 -2.99543,-6.639973 -6.65163,-6.639973 z m 6.00528,0.230997 c 0,0 0.54702,0.514486 1.07066,1.229016 0.45757,0.62403 0.88244,1.41469 1.11112,1.97135 0.21447,0.52203 0.43188,1.34789 0.5312,2.04951 0.10044,0.69844 0.0796,1.27356 0.0796,1.27356 l 10.55391,-3.4341 V 99.803614 Z M -3.1797306,103.2576 c 1.642798,1e-5 2.945421,1.29537 2.945421,2.95499 0,1.65961 -1.302623,2.95704 -2.945421,2.95704 -1.642719,1e-5 -2.943939,-1.29743 -2.943939,-2.95704 0,-1.65962 1.30122,-2.95499 2.943939,-2.95499 z m 57.1749486,0 c 1.64275,1e-5 2.94542,1.29537 2.94542,2.95499 0,1.65961 -1.30267,2.95704 -2.94542,2.95704 -1.64277,1e-5 -2.94402,-1.29743 -2.94402,-2.95704 0,-1.65962 1.30125,-2.95499 2.94402,-2.95499 z" />
    <path
       id="path26407"
       d="m 28.725579,13.831792 c -42.46065,0 -76.881328,34.421955 -76.881248,76.882506 -8e-5,42.460562 34.420598,76.881902 76.881248,76.882562 42.461179,1.3e-4 76.882681,-34.42144 76.882471,-76.882562 2.1e-4,-42.46109 -34.421292,-76.882633 -76.882471,-76.882506 z m -0.168433,18.669402 c 0.04337,-5.6e-5 0.08673,-5.6e-5 0.129963,0 32.144279,1.46e-4 58.202119,26.058027 58.202249,58.20219 -1.3e-4,32.144086 -26.05797,58.202036 -58.202249,58.202176 -32.1439646,-1.4e-4 -58.201904,-26.05809 -58.202036,-58.202176 1.32e-4,-32.093392 25.9788024,-58.130385 58.072073,-58.20219 z"
       style="color:#000000;font-style:normal;font-variant:normal;font-weight:normal;font-stretch:normal;font-size:medium;line-height:normal;font-family:sans-serif;font-variant-ligatures:normal;font-variant-position:normal;font-variant-caps:normal;font-variant-numeric:normal;font-variant-alternates:normal;font-variant-east-asian:normal;font-feature-settings:normal;font-variation-settings:normal;text-indent:0;text-align:start;text-decoration:none;text-decoration-line:none;text-decoration-style:solid;text-decoration-color:#000000;letter-spacing:normal;word-spacing:normal;text-transform:none;writing-mode:lr-tb;direction:ltr;text-orientation:mixed;dominant-baseline:auto;baseline-shift:baseline;text-anchor:start;white-space:normal;shape-padding:0;shape-margin:0;inline-size:0;clip-rule:nonzero;display:inline;overflow:visible;visibility:visible;opacity:1;isolation:auto;mix-blend-mode:normal;color-interpolation:sRGB;color-interpolation-filters:linearRGB;solid-color:#000000;solid-opacity:1;vector-effect:none;fill:#ed232a;fill-opacity:1;fill-rule:evenodd;stroke:none;stroke-width:1.69334;stroke-linecap:square;stroke-linejoin:round;stroke-miterlimit:2;stroke-dasharray:none;stroke-dashoffset:0;stroke-opacity:1;paint-order:stroke fill markers;color-rendering:auto;image-rendering:auto;shape-rendering:auto;text-rendering:auto;enable-background:accumulate;stop-color:#000000;stop-opacity:1" />
  </g>
</svg>
