<svg width="158.75mm" height="158.75mm" version="1.1" viewBox="0 0 158.75 158.75" xmlns="http://www.w3.org/2000/svg"><g transform="translate(50.649 -11.339)" fill-rule="evenodd"><path d="m28.726 11.59c-43.672 0-79.123 35.452-79.123 79.124-1.33e-4 43.672 35.451 79.124 79.123 79.124 43.673 1.7e-4 79.124-35.451 79.124-79.124 1.3e-4 -43.673-35.451-79.124-79.124-79.124z" color="#000000" color-rendering="auto" dominant-baseline="auto" enable-background="accumulate" fill="#fff" image-rendering="auto" shape-rendering="auto" solid-color="#000000" stop-color="#000000" stroke="#000" stroke-linecap="square" stroke-linejoin="round" stroke-miterlimit="2" stroke-width=".50271" style="font-feature-settings:normal;font-variant-alternates:normal;font-variant-caps:normal;font-variant-east-asian:normal;font-variant-ligatures:normal;font-variant-numeric:normal;font-variant-position:normal;font-variation-settings:normal;inline-size:0;isolation:auto;mix-blend-mode:normal;paint-order:stroke fill markers;shape-margin:0;shape-padding:0;text-decoration-color:#000000;text-decoration-line:none;text-decoration-style:solid;text-indent:0;text-orientation:mixed;text-transform:none;white-space:normal"/><path d="m8.8561 67.036v30.069h64.491v-30.069zm-18.696 10.152-5.4151 13.674v15.36h3.2717s-0.03638-0.99554 0.32351-2.2668c0.30184-1.0696 0.90614-2.3239 1.8254-3.4382 0.76679-0.92963 1.933-1.6931 3.1359-2.2291 1.2403-0.55257 2.2541-0.82292 3.4341-0.86983 0.86135-0.03421 1.746 0.1209 2.5492 0.43389 1.6142 0.62907 3.294 1.4599 4.3629 2.8254 0.85108 1.0872 1.4121 2.3666 1.6869 3.4492 0.29604 1.1652 0.27218 2.0954 0.27218 2.0954h39.601s0.02656-0.46755 0.12269-1.166c0.09932-0.70161 0.3143-1.5302 0.52917-2.0522 0.22876-0.55666 0.65439-1.3466 1.1118-1.9707 0.29567-0.40339 0.59828-0.74254 0.80611-0.9617 0.16034-0.16904 0.26387-0.26664 0.26387-0.26664h-41.85v-22.616zm0.82389 3.7385h12.477v8.7052h-15.922zm5.8359 18.647c-3.6562 0-6.6495 2.9994-6.6495 6.64 0 3.6406 2.9933 6.6414 6.6495 6.6413 3.6563-1e-5 6.651-3.0008 6.651-6.6413 0-3.6406-2.9947-6.64-6.651-6.64zm57.175 0c-3.6562 0-6.6496 2.9994-6.6496 6.64 0 3.6406 2.9933 6.6414 6.6496 6.6413 3.6562-1e-5 6.6516-3.0008 6.6516-6.6413 0-3.6406-2.9954-6.64-6.6516-6.64zm6.0053 0.231s0.54702 0.51449 1.0707 1.229c0.45757 0.62403 0.88244 1.4147 1.1111 1.9714 0.21447 0.52203 0.43188 1.3479 0.5312 2.0495 0.10044 0.69844 0.0796 1.2736 0.0796 1.2736l10.554-3.4341v-3.0893zm-63.18 3.454c1.6428 1e-5 2.9454 1.2954 2.9454 2.955 0 1.6596-1.3026 2.957-2.9454 2.957-1.6427 1e-5 -2.9439-1.2974-2.9439-2.957 0-1.6596 1.3012-2.955 2.9439-2.955zm57.175 0c1.6428 1e-5 2.9454 1.2954 2.9454 2.955 0 1.6596-1.3027 2.957-2.9454 2.957-1.6428 1e-5 -2.944-1.2974-2.944-2.957 0-1.6596 1.3012-2.955 2.944-2.955z"/><path d="m28.726 13.832c-42.461 0-76.881 34.422-76.881 76.883-8e-5 42.461 34.421 76.882 76.881 76.883 42.461 1.3e-4 76.883-34.421 76.882-76.883 2.1e-4 -42.461-34.421-76.883-76.882-76.883zm-0.16843 18.669c0.04337-5.6e-5 0.08673-5.6e-5 0.12996 0 32.144 1.46e-4 58.202 26.058 58.202 58.202-1.3e-4 32.144-26.058 58.202-58.202 58.202-32.144-1.4e-4 -58.202-26.058-58.202-58.202 1.32e-4 -32.093 25.979-58.13 58.072-58.202z" color="#000000" color-rendering="auto" dominant-baseline="auto" enable-background="accumulate" fill="#ed232a" image-rendering="auto" shape-rendering="auto" solid-color="#000000" stop-color="#000000" style="font-feature-settings:normal;font-variant-alternates:normal;font-variant-caps:normal;font-variant-east-asian:normal;font-variant-ligatures:normal;font-variant-numeric:normal;font-variant-position:normal;font-variation-settings:normal;inline-size:0;isolation:auto;mix-blend-mode:normal;paint-order:stroke fill markers;shape-margin:0;shape-padding:0;text-decoration-color:#000000;text-decoration-line:none;text-decoration-style:solid;text-indent:0;text-orientation:mixed;text-transform:none;white-space:normal"/></g></svg>