<svg width="600" height="600.01" version="1.1" xmlns="http://www.w3.org/2000/svg"><g transform="translate(1133.2 -778.43)"><g transform="translate(-108.37 1759.9)"><rect x="578.74" y="298.17" width="0" height="27.202" rx="249.48" ry="27.202" color="#000000"/><g transform="matrix(.88381 0 0 .88381 -1569.9 -1726.3)"><g transform="matrix(1.1315 0 0 1.1315 -1464.3 -762.13)"><g transform="translate(-108.37 1759.9)"><rect x="578.74" y="298.17" width="0" height="27.202" rx="249.48" ry="27.202" color="#000000"/></g></g></g><g fill-rule="evenodd"><path d="m-724.84-980.53c-165.06 0-299.05 133.99-299.05 299.05-5e-4 165.06 133.99 299.05 299.05 299.05 165.06 5.2e-4 299.05-133.99 299.05-299.05 5e-4 -165.06-133.99-299.05-299.05-299.05z" color="#000000" color-rendering="auto" dominant-baseline="auto" enable-background="accumulate" fill="#fff" image-rendering="auto" shape-rendering="auto" solid-color="#000000" stop-color="#000000" stroke="#000" stroke-linecap="square" stroke-linejoin="round" stroke-miterlimit="2" stroke-width="1.9" style="font-feature-settings:normal;font-variant-alternates:normal;font-variant-caps:normal;font-variant-east-asian:normal;font-variant-ligatures:normal;font-variant-numeric:normal;font-variant-position:normal;font-variation-settings:normal;inline-size:0;isolation:auto;mix-blend-mode:normal;paint-order:stroke fill markers;shape-margin:0;shape-padding:0;text-decoration-color:#000000;text-decoration-line:none;text-decoration-style:solid;text-indent:0;text-orientation:mixed;text-transform:none;white-space:normal"/><path d="m-909.02-744.23-2.7282 52.242-6.2443 52.239h36.175c-0.16592-1.3216-0.24902-2.6524-0.24902-3.9842 2.2e-4 -17.61 14.255-31.889 31.846-31.901h0.0212c17.599 0 31.867 14.283 31.867 31.901 0 1.3321-0.0834 2.663-0.24954 3.9848h158.66c-0.16618-1.3218-0.24954-2.6526-0.24954-3.9848 2.1e-4 -17.61 14.255-31.889 31.846-31.901h0.0212c17.599 0 31.867 14.283 31.867 31.901-1.1e-4 1.0469-0.0521 2.0929-0.15454 3.1348h0.0511l63.986-4.6561 0.0212-58.432-12.436-40.544zm5.0515 9.3697h34.186v35.831h-35.774zm41.569 0h56.151v35.831h-56.151zm63.533 0h55.992v35.831h-55.992zm63.374 0h56.162v35.831h-56.162zm63.544 0h56.198v35.831h-56.198zm63.579 0h56.242l11.073 35.831h-67.314zm-241.82 66.287c-13.782 0-24.955 11.173-24.955 24.955 0 13.782 11.173 24.955 24.955 24.955s24.955-11.173 24.955-24.955c0-13.782-11.173-24.955-24.955-24.955zm221.89 0c-13.782 0-24.955 11.173-24.955 24.955 0 13.782 11.173 24.955 24.955 24.955 13.782 0 24.955-11.173 24.955-24.955 0-13.782-11.173-24.955-24.955-24.955zm-221.95 15.555c5.1804 2.6e-4 9.3798 4.1999 9.3797 9.3803 8e-5 5.1804-4.1993 9.38-9.3797 9.3803-5.1806 0-9.3803-4.1996-9.3803-9.3803-6e-5 -5.1806 4.1996-9.3803 9.3803-9.3803zm221.98 0c5.1806 0 9.3804 4.1996 9.3804 9.3803 0 5.1806-4.1997 9.3803-9.3804 9.3803s-9.3804-4.1996-9.3803-9.3803c-6e-5 -5.1806 4.1996-9.3803 9.3803-9.3803z" style="paint-order:fill markers stroke"/><path d="m-724.84-972.06c-160.48 0-290.57 130.1-290.57 290.58-8e-4 160.48 130.09 290.58 290.57 290.58 160.48 5.3e-4 290.58-130.1 290.58-290.58 3.1e-4 -160.48-130.1-290.58-290.58-290.58zm-0.63633 70.562c0.17148-2.6e-4 0.33097-2.6e-4 0.49253 0 121.49 5.3e-4 219.98 98.487 219.98 219.98-7.4e-4 121.49-98.488 219.98-219.98 219.98-121.49-5.3e-4 -219.98-98.487-219.98-219.98 0-121.3 98.187-219.71 219.49-219.98z" color="#000000" color-rendering="auto" dominant-baseline="auto" enable-background="accumulate" fill="#ed232a" image-rendering="auto" shape-rendering="auto" solid-color="#000000" stop-color="#000000" style="font-feature-settings:normal;font-variant-alternates:normal;font-variant-caps:normal;font-variant-east-asian:normal;font-variant-ligatures:normal;font-variant-numeric:normal;font-variant-position:normal;font-variation-settings:normal;inline-size:0;isolation:auto;mix-blend-mode:normal;paint-order:stroke fill markers;shape-margin:0;shape-padding:0;text-decoration-color:#000000;text-decoration-line:none;text-decoration-style:solid;text-indent:0;text-orientation:mixed;text-transform:none;white-space:normal"/></g></g></g></svg>