<svg width="600" height="600.01" version="1.1" xmlns="http://www.w3.org/2000/svg"><g transform="translate(340.79 -1214.3)"><g transform="translate(-108.37 1759.9)"><rect x="578.74" y="298.17" width="0" height="27.202" rx="249.48" ry="27.202" color="#000000"/><g transform="matrix(.88381 0 0 .88381 -1569.9 -1726.3)"><g transform="matrix(1.1315 0 0 1.1315 -1464.3 -762.13)"><g transform="translate(-108.37 1759.9)"><rect x="578.74" y="298.17" width="0" height="27.202" rx="249.48" ry="27.202" color="#000000"/></g></g></g><g fill-rule="evenodd"><path d="m67.576-544.67c-165.06 0-299.05 133.99-299.05 299.05-7.9e-4 165.06 133.99 299.05 299.05 299.05 165.06 5.3e-4 299.05-133.99 299.05-299.05 5e-4 -165.06-133.99-299.05-299.05-299.05z" color="#000000" color-rendering="auto" dominant-baseline="auto" enable-background="accumulate" fill="#fff" image-rendering="auto" shape-rendering="auto" solid-color="#000000" stop-color="#000000" stroke="#000" stroke-linecap="square" stroke-linejoin="round" stroke-miterlimit="2" stroke-width="1.9" style="font-feature-settings:normal;font-variant-alternates:normal;font-variant-caps:normal;font-variant-east-asian:normal;font-variant-ligatures:normal;font-variant-numeric:normal;font-variant-position:normal;font-variation-settings:normal;inline-size:0;isolation:auto;mix-blend-mode:normal;paint-order:stroke fill markers;shape-margin:0;shape-padding:0;text-decoration-color:#000000;text-decoration-line:none;text-decoration-style:solid;text-indent:0;text-orientation:mixed;text-transform:none;white-space:normal"/><path d="m-118.88-313.63a147.77 181.38 0 0 0-13.784 76.499 147.77 181.38 0 0 0 1.9744 29.528h187.81v0.0362h207.57a121.44 144.51 0 0 0 3.0598-32.221 121.44 144.51 0 0 0-17.035-73.806h-193.59v97.489h-80.009v-97.525zm37.456 114.79a24.718 24.718 0 0 0-24.654 24.716 24.718 24.718 0 0 0 24.716 24.721 24.718 24.718 0 0 0 24.721-24.721 24.718 24.718 0 0 0-24.721-24.716 24.718 24.718 0 0 0-0.06219 0zm207.84 0a24.718 24.718 0 0 0-24.654 24.716 24.718 24.718 0 0 0 24.716 24.721 24.718 24.718 0 0 0 24.721-24.721 24.718 24.718 0 0 0-24.721-24.716 24.718 24.718 0 0 0-0.0617 0zm-255.49 0.0569v1.3955a147.77 181.38 0 0 0 5.2564 22.059h10.456a32.073 32.382 0 0 1 11.49-23.455zm68.302 0a32.073 32.382 0 0 1 11.49 23.455h26.38v-23.455zm117.89 0v23.496h37.389a32.073 32.382 0 0 1 11.49-23.496zm89.984 0a32.073 32.382 0 0 1 11.49 23.496h96.383a121.44 144.51 0 0 0 7.4841-22.333v-1.1629zm-228.42 14.358a10.288 10.289 0 0 1 10.29 10.291 10.288 10.289 0 0 1-10.29 10.285 10.288 10.289 0 0 1-10.291-10.285 10.288 10.289 0 0 1 10.291-10.291zm207.84 0a10.288 10.289 0 0 1 10.291 10.291 10.288 10.289 0 0 1-10.291 10.285 10.288 10.289 0 0 1-10.291-10.285 10.288 10.289 0 0 1 10.291-10.291z" style="paint-order:stroke fill markers"/><path d="m67.576-536.2c-160.48 0-290.57 130.1-290.57 290.58-7.9e-4 160.48 130.09 290.58 290.57 290.58 160.48 5.56e-4 290.58-130.1 290.58-290.58 3.2e-4 -160.48-130.1-290.58-290.58-290.58zm-0.63632 70.562c0.17148-2.6e-4 0.33097-2.6e-4 0.49253 0 121.49 5.3e-4 219.98 98.487 219.98 219.98-7.4e-4 121.49-98.488 219.98-219.98 219.98-121.49-5.56e-4 -219.98-98.487-219.98-219.98 0-121.3 98.187-219.71 219.49-219.98z" color="#000000" color-rendering="auto" dominant-baseline="auto" enable-background="accumulate" fill="#ed232a" image-rendering="auto" shape-rendering="auto" solid-color="#000000" stop-color="#000000" style="font-feature-settings:normal;font-variant-alternates:normal;font-variant-caps:normal;font-variant-east-asian:normal;font-variant-ligatures:normal;font-variant-numeric:normal;font-variant-position:normal;font-variation-settings:normal;inline-size:0;isolation:auto;mix-blend-mode:normal;paint-order:stroke fill markers;shape-margin:0;shape-padding:0;text-decoration-color:#000000;text-decoration-line:none;text-decoration-style:solid;text-indent:0;text-orientation:mixed;text-transform:none;white-space:normal"/></g></g></g></svg>