<?xml version="1.0" encoding="UTF-8" standalone="no"?>
<svg
   xmlns:dc="http://purl.org/dc/elements/1.1/"
   xmlns:cc="http://creativecommons.org/ns#"
   xmlns:rdf="http://www.w3.org/1999/02/22-rdf-syntax-ns#"
   xmlns:svg="http://www.w3.org/2000/svg"
   xmlns="http://www.w3.org/2000/svg"
   xmlns:sodipodi="http://sodipodi.sourceforge.net/DTD/sodipodi-0.dtd"
   xmlns:inkscape="http://www.inkscape.org/namespaces/inkscape"
   width="158.75mm"
   height="158.75139mm"
   viewBox="0 0 158.75 158.75139"
   version="1.1"
   id="svg26447"
   inkscape:version="1.0 (4035a4fb49, 2020-05-01)"
   sodipodi:docname="tt5.svg">
  <defs
     id="defs26441" />
  <sodipodi:namedview
     id="base"
     pagecolor="#ffffff"
     bordercolor="#666666"
     borderopacity="1.0"
     inkscape:pageopacity="0.0"
     inkscape:pageshadow="2"
     inkscape:zoom="0.7"
     inkscape:cx="226.37229"
     inkscape:cy="151.58396"
     inkscape:document-units="mm"
     inkscape:current-layer="layer1"
     inkscape:document-rotation="0"
     showgrid="false"
     inkscape:window-width="1920"
     inkscape:window-height="1001"
     inkscape:window-x="-9"
     inkscape:window-y="-9"
     inkscape:window-maximized="1" />
  <metadata
     id="metadata26444">
    <rdf:RDF>
      <cc:Work
         rdf:about="">
        <dc:format>image/svg+xml</dc:format>
        <dc:type
           rdf:resource="http://purl.org/dc/dcmitype/StillImage" />
        <dc:title />
      </cc:Work>
    </rdf:RDF>
  </metadata>
  <g
     inkscape:label="Layer 1"
     inkscape:groupmode="layer"
     id="layer1"
     transform="translate(-218.84068,-93.204111)">
    <path
       sodipodi:nodetypes="ccccc"
       id="path22868"
       d="m 298.21506,93.455465 c -43.67242,0 -79.12314,35.451935 -79.12303,79.124345 -1.1e-4,43.67238 35.45061,79.12373 79.12303,79.12434 43.67288,1.6e-4 79.12439,-35.45133 79.12426,-79.12434 1.3e-4,-43.67294 -35.45138,-79.124496 -79.12426,-79.124345 z"
       style="color:#000000;font-style:normal;font-variant:normal;font-weight:normal;font-stretch:normal;font-size:medium;line-height:normal;font-family:sans-serif;font-variant-ligatures:normal;font-variant-position:normal;font-variant-caps:normal;font-variant-numeric:normal;font-variant-alternates:normal;font-variant-east-asian:normal;font-feature-settings:normal;font-variation-settings:normal;text-indent:0;text-align:start;text-decoration:none;text-decoration-line:none;text-decoration-style:solid;text-decoration-color:#000000;letter-spacing:normal;word-spacing:normal;text-transform:none;writing-mode:lr-tb;direction:ltr;text-orientation:mixed;dominant-baseline:auto;baseline-shift:baseline;text-anchor:start;white-space:normal;shape-padding:0;shape-margin:0;inline-size:0;clip-rule:nonzero;display:inline;overflow:visible;visibility:visible;opacity:1;isolation:auto;mix-blend-mode:normal;color-interpolation:sRGB;color-interpolation-filters:linearRGB;solid-color:#000000;solid-opacity:1;vector-effect:none;fill:#ffffff;fill-opacity:1;fill-rule:evenodd;stroke:#000000;stroke-width:0.502709;stroke-linecap:square;stroke-linejoin:round;stroke-miterlimit:2;stroke-dasharray:none;stroke-dashoffset:0;stroke-opacity:1;paint-order:stroke fill markers;color-rendering:auto;image-rendering:auto;shape-rendering:auto;text-rendering:auto;enable-background:accumulate;stop-color:#000000;stop-opacity:1" />
    <path
       id="path22842"
       style="opacity:1;fill:#000000;fill-rule:evenodd;stroke:none;stroke-width:0.502709;stroke-linecap:square;stroke-linejoin:round;stroke-miterlimit:2;paint-order:stroke fill markers"
       d="m 295.42956,130.5866 c -3.67823,6e-5 -6.65999,2.98182 -6.66004,6.66004 5e-5,3.67821 2.98181,6.65996 6.66004,6.66002 3.6782,-6e-5 6.65996,-2.98181 6.66004,-6.66002 -5e-5,-3.67822 -2.98184,-6.65998 -6.66004,-6.66004 z m 6.35725,13.77836 c -0.74941,-0.0132 -1.40788,0.28771 -1.67628,0.44737 l -5.33566,3.24067 -19.24495,21.84324 c -0.6888,1.55382 -0.26695,3.24007 0.65057,4.35911 1.10935,1.3529 2.97561,1.88088 4.76828,1.1716 l 10.89367,-11.06142 1.31208,5.05605 -19.23432,39.29193 c -0.60262,2.1146 0.70294,4.66028 2.52784,5.56885 2.01684,1.00414 4.26823,1.12302 6.59487,-1.48018 l 16.78801,-34.41416 12.90549,34.2462 c 1.89801,3.01335 4.38885,2.89766 6.50089,1.97104 1.81571,-0.79661 2.93177,-2.92762 2.46529,-5.23952 l -14.46965,-40.30696 2.23548,-6.50863 5.558,4.07812 -0.008,6.52092 c 0.5526,1.99723 2.11887,2.93093 3.71668,2.957 1.79358,0.0293 3.44286,-1.29378 3.77671,-2.94198 v -8.82732 c 0.0132,-0.71138 -0.32229,-1.05542 -0.64242,-1.43485 L 303.9079,145.25967 c -0.41517,-0.49638 -1.45423,-0.88281 -2.12228,-0.89471 z"
       sodipodi:nodetypes="cccccccccsccccacccscccccscccccc" />
    <path
       id="path22870"
       d="m 298.21506,95.697306 c -42.46064,0 -76.88132,34.421944 -76.88124,76.882504 -8e-5,42.46057 34.4206,76.88192 76.88124,76.88258 42.46118,1e-4 76.88268,-34.42145 76.88247,-76.88258 2.1e-4,-42.46109 -34.42129,-76.882625 -76.88247,-76.882504 z m -0.1684,18.669384 c 0.0436,-5e-5 0.0866,-5e-5 0.12986,0 32.1443,1.6e-4 58.20214,26.05805 58.20229,58.20222 -1.5e-4,32.1441 -26.05799,58.20205 -58.20229,58.20215 -32.14395,-1e-4 -58.2019,-26.05805 -58.20203,-58.20215 1.3e-4,-32.09341 25.97879,-58.1304 58.07207,-58.20222 z"
       style="color:#000000;font-style:normal;font-variant:normal;font-weight:normal;font-stretch:normal;font-size:medium;line-height:normal;font-family:sans-serif;font-variant-ligatures:normal;font-variant-position:normal;font-variant-caps:normal;font-variant-numeric:normal;font-variant-alternates:normal;font-variant-east-asian:normal;font-feature-settings:normal;font-variation-settings:normal;text-indent:0;text-align:start;text-decoration:none;text-decoration-line:none;text-decoration-style:solid;text-decoration-color:#000000;letter-spacing:normal;word-spacing:normal;text-transform:none;writing-mode:lr-tb;direction:ltr;text-orientation:mixed;dominant-baseline:auto;baseline-shift:baseline;text-anchor:start;white-space:normal;shape-padding:0;shape-margin:0;inline-size:0;clip-rule:nonzero;display:inline;overflow:visible;visibility:visible;opacity:1;isolation:auto;mix-blend-mode:normal;color-interpolation:sRGB;color-interpolation-filters:linearRGB;solid-color:#000000;solid-opacity:1;vector-effect:none;fill:#ed232a;fill-opacity:1;fill-rule:evenodd;stroke:none;stroke-width:1.69334;stroke-linecap:square;stroke-linejoin:round;stroke-miterlimit:2;stroke-dasharray:none;stroke-dashoffset:0;stroke-opacity:1;paint-order:stroke fill markers;color-rendering:auto;image-rendering:auto;shape-rendering:auto;text-rendering:auto;enable-background:accumulate;stop-color:#000000;stop-opacity:1" />
  </g>
</svg>
