<svg width="158.75mm" height="158.75mm" version="1.1" viewBox="0 0 158.75 158.75" xmlns="http://www.w3.org/2000/svg"><g transform="translate(-218.84 -93.204)" fill-rule="evenodd"><path d="m298.22 93.455c-43.672 0-79.123 35.452-79.123 79.124-1.1e-4 43.672 35.451 79.124 79.123 79.124 43.673 1.6e-4 79.124-35.451 79.124-79.124 1.3e-4 -43.673-35.451-79.124-79.124-79.124z" color="#000000" color-rendering="auto" dominant-baseline="auto" enable-background="accumulate" fill="#fff" image-rendering="auto" shape-rendering="auto" solid-color="#000000" stop-color="#000000" stroke="#000" stroke-linecap="square" stroke-linejoin="round" stroke-miterlimit="2" stroke-width=".50271" style="font-feature-settings:normal;font-variant-alternates:normal;font-variant-caps:normal;font-variant-east-asian:normal;font-variant-ligatures:normal;font-variant-numeric:normal;font-variant-position:normal;font-variation-settings:normal;inline-size:0;isolation:auto;mix-blend-mode:normal;paint-order:stroke fill markers;shape-margin:0;shape-padding:0;text-decoration-color:#000000;text-decoration-line:none;text-decoration-style:solid;text-indent:0;text-orientation:mixed;text-transform:none;white-space:normal"/><path d="m295.43 130.59c-3.6782 6e-5 -6.66 2.9818-6.66 6.66 5e-5 3.6782 2.9818 6.66 6.66 6.66 3.6782-6e-5 6.66-2.9818 6.66-6.66-5e-5 -3.6782-2.9818-6.66-6.66-6.66zm6.3572 13.778c-0.74941-0.0132-1.4079 0.28771-1.6763 0.44737l-5.3357 3.2407-19.245 21.843c-0.6888 1.5538-0.26695 3.2401 0.65057 4.3591 1.1094 1.3529 2.9756 1.8809 4.7683 1.1716l10.894-11.061 1.3121 5.056-19.234 39.292c-0.60262 2.1146 0.70294 4.6603 2.5278 5.5688 2.0168 1.0041 4.2682 1.123 6.5949-1.4802l16.788-34.414 12.905 34.246c1.898 3.0134 4.3888 2.8977 6.5009 1.971 1.8157-0.79661 2.9318-2.9276 2.4653-5.2395l-14.47-40.307 2.2355-6.5086 5.558 4.0781-8e-3 6.5209c0.5526 1.9972 2.1189 2.9309 3.7167 2.957 1.7936 0.0293 3.4429-1.2938 3.7767-2.942v-8.8273c0.0132-0.71138-0.32229-1.0554-0.64242-1.4348l-17.961-17.642c-0.41517-0.49638-1.4542-0.88281-2.1223-0.89471z" style="paint-order:stroke fill markers"/><path d="m298.22 95.697c-42.461 0-76.881 34.422-76.881 76.883-8e-5 42.461 34.421 76.882 76.881 76.883 42.461 1e-4 76.883-34.421 76.882-76.883 2.1e-4 -42.461-34.421-76.883-76.882-76.883zm-0.1684 18.669c0.0436-5e-5 0.0866-5e-5 0.12986 0 32.144 1.6e-4 58.202 26.058 58.202 58.202-1.5e-4 32.144-26.058 58.202-58.202 58.202-32.144-1e-4 -58.202-26.058-58.202-58.202 1.3e-4 -32.093 25.979-58.13 58.072-58.202z" color="#000000" color-rendering="auto" dominant-baseline="auto" enable-background="accumulate" fill="#ed232a" image-rendering="auto" shape-rendering="auto" solid-color="#000000" stop-color="#000000" style="font-feature-settings:normal;font-variant-alternates:normal;font-variant-caps:normal;font-variant-east-asian:normal;font-variant-ligatures:normal;font-variant-numeric:normal;font-variant-position:normal;font-variation-settings:normal;inline-size:0;isolation:auto;mix-blend-mode:normal;paint-order:stroke fill markers;shape-margin:0;shape-padding:0;text-decoration-color:#000000;text-decoration-line:none;text-decoration-style:solid;text-indent:0;text-orientation:mixed;text-transform:none;white-space:normal"/></g></svg>