<?xml version="1.0" encoding="UTF-8" standalone="no"?>
<svg
   xmlns:dc="http://purl.org/dc/elements/1.1/"
   xmlns:cc="http://creativecommons.org/ns#"
   xmlns:rdf="http://www.w3.org/1999/02/22-rdf-syntax-ns#"
   xmlns:svg="http://www.w3.org/2000/svg"
   xmlns="http://www.w3.org/2000/svg"
   xmlns:sodipodi="http://sodipodi.sourceforge.net/DTD/sodipodi-0.dtd"
   xmlns:inkscape="http://www.inkscape.org/namespaces/inkscape"
   width="158.74863mm"
   height="158.75mm"
   viewBox="0 0 158.74863 158.75"
   version="1.1"
   id="svg26447"
   inkscape:version="1.0 (4035a4fb49, 2020-05-01)"
   sodipodi:docname="tt5.svg">
  <defs
     id="defs26441" />
  <sodipodi:namedview
     id="base"
     pagecolor="#ffffff"
     bordercolor="#666666"
     borderopacity="1.0"
     inkscape:pageopacity="0.0"
     inkscape:pageshadow="2"
     inkscape:zoom="0.7"
     inkscape:cx="477.28852"
     inkscape:cy="193.9495"
     inkscape:document-units="mm"
     inkscape:current-layer="layer1"
     inkscape:document-rotation="0"
     showgrid="false"
     inkscape:window-width="1920"
     inkscape:window-height="1001"
     inkscape:window-x="-9"
     inkscape:window-y="-9"
     inkscape:window-maximized="1" />
  <metadata
     id="metadata26444">
    <rdf:RDF>
      <cc:Work
         rdf:about="">
        <dc:format>image/svg+xml</dc:format>
        <dc:type
           rdf:resource="http://purl.org/dc/dcmitype/StillImage" />
        <dc:title />
      </cc:Work>
    </rdf:RDF>
  </metadata>
  <g
     inkscape:label="Layer 1"
     inkscape:groupmode="layer"
     id="layer1"
     transform="translate(-39.787504,-74.034604)">
    <path
       style="color:#000000;font-style:normal;font-variant:normal;font-weight:normal;font-stretch:normal;font-size:medium;line-height:normal;font-family:sans-serif;font-variant-ligatures:normal;font-variant-position:normal;font-variant-caps:normal;font-variant-numeric:normal;font-variant-alternates:normal;font-variant-east-asian:normal;font-feature-settings:normal;font-variation-settings:normal;text-indent:0;text-align:start;text-decoration:none;text-decoration-line:none;text-decoration-style:solid;text-decoration-color:#000000;letter-spacing:normal;word-spacing:normal;text-transform:none;writing-mode:lr-tb;direction:ltr;text-orientation:mixed;dominant-baseline:auto;baseline-shift:baseline;text-anchor:start;white-space:normal;shape-padding:0;shape-margin:0;inline-size:0;clip-rule:nonzero;display:inline;overflow:visible;visibility:visible;opacity:1;isolation:auto;mix-blend-mode:normal;color-interpolation:sRGB;color-interpolation-filters:linearRGB;solid-color:#000000;solid-opacity:1;vector-effect:none;fill:#ffffff;fill-opacity:1;fill-rule:evenodd;stroke:#000000;stroke-width:0.502709;stroke-linecap:square;stroke-linejoin:round;stroke-miterlimit:2;stroke-dasharray:none;stroke-dashoffset:0;stroke-opacity:1;paint-order:stroke fill markers;color-rendering:auto;image-rendering:auto;shape-rendering:auto;text-rendering:auto;enable-background:accumulate;stop-color:#000000;stop-opacity:1"
       d="m 119.16121,74.285958 c -43.672042,0 -79.122462,35.451632 -79.122352,79.123672 -1.1e-4,43.67198 35.45031,79.12301 79.122352,79.12362 43.67248,1.6e-4 79.12367,-35.451 79.12357,-79.12362 10e-5,-43.67257 -35.45109,-79.123802 -79.12357,-79.123672 z"
       id="path26405"
       sodipodi:nodetypes="ccccc" />
    <path
       d="m 133.65206,119.87371 c -1.92151,0 -3.47859,1.55927 -3.47817,3.48081 -4.2e-4,1.92164 1.55666,3.47999 3.47817,3.48097 1.92262,4.3e-4 3.4814,-1.55832 3.48097,-3.48097 4.3e-4,-1.92265 -1.55835,-3.4814 -3.48097,-3.48081 z m -0.098,8.11114 c -0.35111,-0.0212 -0.69017,0.0185 -0.98512,0.1234 l -12.66766,4.50716 c -1.18005,0.42007 -1.78924,1.71022 -1.36835,2.88984 0.42088,1.17975 1.70166,1.76459 2.88986,1.36835 l 6.03972,-2.01414 2.22205,3.49456 -8.08384,0.0159 c -1.43898,0.002 -2.86278,1.42581 -2.94185,2.86253 -0.0278,0.50735 -0.0159,1.38083 0,2.09346 0,0.0418 -0.0159,0.0826 -0.0159,0.12605 v 10.60434 c 0,1.10773 0.89254,2.0004 2.0004,2.0004 1.10788,0 1.99772,-0.89267 1.99772,-2.0004 v -10.58247 l 0.0379,-0.0159 10.66443,0.66232 c 1.39528,0.0868 2.64805,-1.12314 2.79136,-2.50945 h 0.0519 v -12.08476 0 c 0,0 0.0159,-0.11361 -0.0185,-0.15862 -0.41011,-0.75746 -1.57361,-1.32341 -2.62715,-1.38196 z m -62.208152,9.03074 -0.8976,0.10937 0.83741,5.32823 c 0,0 -0.48232,0.17477 -0.90033,0.51995 -0.36734,0.3035 -0.6661,0.75619 -0.78815,1.10002 -0.13929,0.39203 -0.17398,1.11715 -0.0601,1.63374 0.10857,0.49417 0.12314,0.44878 0.12314,0.44878 l 0.22429,0.3339 c 0,0 -0.10698,1.00865 -0.18616,2.06064 -0.045,0.59982 -0.0493,1.21182 -0.0985,1.66117 -0.20364,1.84964 -0.79361,5.5279 -0.79361,5.5279 0,0 1.54638,2.60724 2.85152,2.6955 0.47989,0.032 1.2467,-0.31147 1.72132,-0.73882 0.50936,-0.4586 0.70876,-1.00432 0.70876,-1.00432 0,0 0.40482,-1.52347 0.6732,-2.26327 0.17795,-0.49038 0.61849,-1.43657 0.61849,-1.43657 0,0 0.33994,-0.66737 0.65951,-0.79096 0.26759,-0.1038 0.85107,0.11784 0.85107,0.11784 0,0 0.66321,0.58216 0.95236,0.94953 0.38495,0.48945 1.04729,1.57824 1.53521,2.24953 0.92299,1.27 1.88549,2.45746 1.88549,2.45746 0,0 -0.24283,2.51196 -0.16153,3.76554 0.0771,1.18997 0.61301,3.52469 0.61301,3.52469 0,0 -1.42743,1.08421 -1.97069,1.60493 -1.21156,1.16125 -3.23147,3.50086 -3.23147,3.50086 0,0 -0.26923,0.70712 -0.28388,1.07863 -0.0159,0.37486 0.19967,1.10764 0.19967,1.10764 0,0 0.19146,1.7264 0.39804,2.56746 0.3515,1.43143 1.42364,4.18645 1.42364,4.18645 0,0 0.33522,0.34979 0.41646,0.57091 0.0797,0.21714 0.0315,1.02674 0.0315,1.02674 l 0.0842,0.53322 1.90564,2.8859 3.02678,-5.26881 -1.31722,-0.2521 c 0,0 -1.0023,-1.83598 -1.7636,-3.28568 -0.21264,-0.40508 -0.58404,-0.58888 -0.69357,-0.92659 -0.27129,-0.83672 -0.26083,-2.62591 -0.26083,-2.62591 l 0.33668,-0.27998 6.06887,-2.11056 c 0,0 0.29783,1.31719 0.56648,1.93203 0.21741,0.49696 0.64145,1.00405 1.00707,1.62545 0.85944,1.46082 3.23079,5.47504 3.23079,5.47504 l -1.48556,4.62434 4.48431,-0.14035 -0.0842,-2.15798 0.16498,-0.25263 0.56373,-1.06461 c 0,0 -1.88794,-4.50351 -2.82671,-6.7768 -0.32612,-0.78974 -0.66417,-2.0975 -0.85928,-3.04578 -0.134,-0.65167 -0.11228,-1.16855 -0.11228,-1.16855 0,0 0.89384,0.27799 2.11813,0.44067 1.47332,0.19569 3.41008,0.27895 4.64677,0.22985 1.11869,-0.045 2.753732,-0.24971 4.085692,-0.53354 1.16429,-0.24786 2.10993,-0.58022 2.10993,-0.58022 l 1.27797,0.99889 -0.73067,2.13182 c 0,0 -0.53361,1.29884 -0.83192,1.9347 -0.3161,0.67407 -1.01528,1.98959 -1.01528,1.98959 0,0 -0.72677,0.69076 -1.03167,1.08646 -0.35755,0.46376 -0.92225,1.49416 -0.92225,1.49416 l -2.364442,2.57234 -0.21873,2.85973 4.033772,-0.44335 v -2.07984 l 1.68024,-0.16974 c 0,0 0.78291,-2.29209 1.56807,-3.1744 0.48293,-0.54252 1.46995,-1.33065 2.20843,-1.73768 0.52872,-0.29198 0.93043,-0.29831 0.93043,-0.29831 0,0 -0.0312,-1.18254 0.0273,-1.7706 0.0757,-0.76334 0.41596,-2.26311 0.41596,-2.26311 0,0 1.54612,0.51352 2.2686,0.88115 0.62699,0.31904 1.77605,1.13844 1.77605,1.13844 0,0 1.40283,2.29325 1.89643,3.53561 0.39976,1.0063 0.84559,3.13616 0.84559,3.13616 l 0.22694,0.16683 c 0,0 -0.81082,1.11347 -1.0891,1.73766 -0.23674,0.53134 -0.47889,1.67759 -0.47889,1.67759 l 0.10937,1.79514 3.92429,-0.16683 0.10937,-2.24124 0.22694,0.10937 c 0,0 0.44612,-1.22181 0.44332,-1.8582 0,-0.84363 -0.6102,-2.45478 -0.6102,-2.45478 l -0.78813,-4.2034 -0.16974,-2.52583 c 0,0 -1.15677,-1.06779 -1.66121,-1.66931 -0.48759,-0.58147 -1.3081,-1.86087 -1.3081,-1.86087 v -1.28623 l 1.55991,0.063 1.19866,0.0771 c 0.0159,0.045 0.2611,1.0786 0.76347,2.29323 0.5466,1.32166 1.3741,2.83002 2.20298,3.61504 0.43561,0.41266 1.15288,1.13535 1.8882,1.41488 0.93359,0.35477 1.85817,0.21635 1.85817,0.21635 0,0 0.045,-0.94942 -0.0826,-1.39846 -0.30586,-1.08686 -1.02842,-2.11922 -1.74875,-3.33861 -0.70336,-1.19098 -1.39428,-2.54855 -1.41207,-2.5833 l 11.69624,0.7443 c -0.20867,0.91116 -0.31412,1.84292 -0.3147,2.77756 -6.9e-4,6.89879 5.59097,12.49213 12.48974,12.49255 6.89987,6.9e-4 12.49363,-5.59264 12.49265,-12.49255 -4.5e-4,-0.45801 -0.0267,-0.91576 -0.0771,-1.37097 l 4.17875,0.23807 8.5324,0.64534 v -4.36931 h -6.78222 l 4.93252,-18.10457 -43.80185,-3.29884 0.0159,7.08778 3.86405,12.43241 -8.36308,-0.53369 c -0.0159,-0.0477 -0.49056,-1.8806 -1.57895,-3.8202 -0.84445,-1.5048 -2.18479,-3.03164 -3.13334,-3.9463 -1.75269,-1.6899 -5.09541,-3.32404 -6.37907,-3.55199 -1.46397,-0.26004 -2.90086,-0.0185 -4.38948,0.15597 -1.68986,0.19596 -3.43503,0.3419 -5.122882,0.3531 -1.77038,0.0159 -3.39334,-0.0882 -5.07364,-0.30922 -1.61216,-0.21132 -3.36726,-0.16551 -4.78084,-0.96875 -2.12237,-1.20637 -3.20875,-3.68318 -4.92038,-5.42394 -1.24799,-1.26928 -2.41336,-2.66549 -3.89418,-3.65344 -1.27982,-0.85372 -2.70074,-1.5896 -4.20885,-1.89363 -0.5716,-0.11466 -1.18529,-0.10645 -1.74867,0.0434 -0.15492,0.0408 -0.58838,0.18855 -0.58838,0.18855 z m 63.973322,31.48445 5.4266,0.30924 c -0.42078,0.69187 -0.64314,1.48617 -0.64314,2.29603 0,2.43951 1.97744,4.41708 4.41692,4.41694 2.4394,1.4e-4 4.41694,-1.97757 4.41681,-4.41694 -4.2e-4,-0.63893 -0.14035,-1.27 -0.40773,-1.8499 l 5.5279,0.3147 c 0.0771,0.49161 0.11493,0.98834 0.11493,1.486 6.9e-4,5.30276 -4.29715,9.60212 -9.59988,9.60268 -5.30289,-5.3e-4 -9.60101,-4.29992 -9.6,-9.60268 4.2e-4,-0.86378 0.11784,-1.72354 0.34745,-2.55607 z"
       style="font-size:24.9647px;line-height:97.02%;font-family:BywayEMod;-inkscape-font-specification:BywayEMod;text-align:center;text-anchor:middle;opacity:1;fill:#000000;fill-opacity:1;fill-rule:evenodd;stroke:none;stroke-width:0.2;stroke-linecap:round;stroke-linejoin:round;stroke-miterlimit:10;stroke-opacity:1"
       id="path16924"
       sodipodi:nodetypes="ccccccccsscccccsssscccccccccccccsscccscccscsccccscscscacacscccccsscccssccccccsscscscccccccccccccccscscsccscccccccccsccccsscccccccccccccccccccscscccsscccccccsccccccccc" />
    <path
       style="color:#000000;font-style:normal;font-variant:normal;font-weight:normal;font-stretch:normal;font-size:medium;line-height:normal;font-family:sans-serif;font-variant-ligatures:normal;font-variant-position:normal;font-variant-caps:normal;font-variant-numeric:normal;font-variant-alternates:normal;font-variant-east-asian:normal;font-feature-settings:normal;font-variation-settings:normal;text-indent:0;text-align:start;text-decoration:none;text-decoration-line:none;text-decoration-style:solid;text-decoration-color:#000000;letter-spacing:normal;word-spacing:normal;text-transform:none;writing-mode:lr-tb;direction:ltr;text-orientation:mixed;dominant-baseline:auto;baseline-shift:baseline;text-anchor:start;white-space:normal;shape-padding:0;shape-margin:0;inline-size:0;clip-rule:nonzero;display:inline;overflow:visible;visibility:visible;opacity:1;isolation:auto;mix-blend-mode:normal;color-interpolation:sRGB;color-interpolation-filters:linearRGB;solid-color:#000000;solid-opacity:1;vector-effect:none;fill:#ed232a;fill-opacity:1;fill-rule:evenodd;stroke:none;stroke-width:1.69334;stroke-linecap:square;stroke-linejoin:round;stroke-miterlimit:2;stroke-dasharray:none;stroke-dashoffset:0;stroke-opacity:1;paint-order:stroke fill markers;color-rendering:auto;image-rendering:auto;shape-rendering:auto;text-rendering:auto;enable-background:accumulate;stop-color:#000000;stop-opacity:1"
       d="m 119.16121,76.527808 c -42.460272,0 -76.880662,34.421632 -76.880562,76.881822 -10e-5,42.46019 34.42029,76.88121 76.880562,76.88187 42.4608,1.4e-4 76.88201,-34.42113 76.88179,-76.88187 2.2e-4,-42.46072 -34.42099,-76.881952 -76.88179,-76.881822 z m -0.16842,18.66923 c 0.0434,-6e-5 0.0866,-6e-5 0.13002,0 32.14398,1.3e-4 58.2016,26.057782 58.20176,58.201682 -1.6e-4,32.14382 -26.05778,58.20152 -58.20176,58.20163 -32.143692,-1.1e-4 -58.201422,-26.05781 -58.201532,-58.20163 1.1e-4,-32.09311 25.97856,-58.129892 58.071532,-58.201682 z"
       id="path26407" />
  </g>
</svg>
