<svg width="158.75mm" height="158.75mm" version="1.1" viewBox="0 0 158.75 158.75" xmlns="http://www.w3.org/2000/svg"><g transform="translate(-39.788 -74.035)" fill-rule="evenodd"><path d="m119.16 74.286c-43.672 0-79.122 35.452-79.122 79.124-1.1e-4 43.672 35.45 79.123 79.122 79.124 43.672 1.6e-4 79.124-35.451 79.124-79.124 1e-4 -43.673-35.451-79.124-79.124-79.124z" color="#000000" color-rendering="auto" dominant-baseline="auto" enable-background="accumulate" fill="#fff" image-rendering="auto" shape-rendering="auto" solid-color="#000000" stop-color="#000000" stroke="#000" stroke-linecap="square" stroke-linejoin="round" stroke-miterlimit="2" stroke-width=".50271" style="font-feature-settings:normal;font-variant-alternates:normal;font-variant-caps:normal;font-variant-east-asian:normal;font-variant-ligatures:normal;font-variant-numeric:normal;font-variant-position:normal;font-variation-settings:normal;inline-size:0;isolation:auto;mix-blend-mode:normal;paint-order:stroke fill markers;shape-margin:0;shape-padding:0;text-decoration-color:#000000;text-decoration-line:none;text-decoration-style:solid;text-indent:0;text-orientation:mixed;text-transform:none;white-space:normal"/><path d="m133.65 119.87c-1.9215 0-3.4786 1.5593-3.4782 3.4808-4.2e-4 1.9216 1.5567 3.48 3.4782 3.481 1.9226 4.3e-4 3.4814-1.5583 3.481-3.481 4.3e-4 -1.9226-1.5584-3.4814-3.481-3.4808zm-0.098 8.1111c-0.35111-0.0212-0.69017 0.0185-0.98512 0.1234l-12.668 4.5072c-1.18 0.42007-1.7892 1.7102-1.3684 2.8898 0.42088 1.1798 1.7017 1.7646 2.8899 1.3684l6.0397-2.0141 2.222 3.4946-8.0838 0.0159c-1.439 2e-3 -2.8628 1.4258-2.9418 2.8625-0.0278 0.50735-0.0159 1.3808 0 2.0935 0 0.0418-0.0159 0.0826-0.0159 0.12605v10.604c0 1.1077 0.89254 2.0004 2.0004 2.0004 1.1079 0 1.9977-0.89267 1.9977-2.0004v-10.582l0.0379-0.0159 10.664 0.66232c1.3953 0.0868 2.648-1.1231 2.7914-2.5094h0.0519v-12.085s0.0159-0.11361-0.0185-0.15862c-0.41011-0.75746-1.5736-1.3234-2.6272-1.382zm-62.208 9.0307-0.8976 0.10937 0.83741 5.3282s-0.48232 0.17477-0.90033 0.51995c-0.36734 0.3035-0.6661 0.75619-0.78815 1.1-0.13929 0.39203-0.17398 1.1172-0.0601 1.6337 0.10857 0.49417 0.12314 0.44878 0.12314 0.44878l0.22429 0.3339s-0.10698 1.0086-0.18616 2.0606c-0.045 0.59982-0.0493 1.2118-0.0985 1.6612-0.20364 1.8496-0.79361 5.5279-0.79361 5.5279s1.5464 2.6072 2.8515 2.6955c0.47989 0.032 1.2467-0.31147 1.7213-0.73882 0.50936-0.4586 0.70876-1.0043 0.70876-1.0043s0.40482-1.5235 0.6732-2.2633c0.17795-0.49038 0.61849-1.4366 0.61849-1.4366s0.33994-0.66737 0.65951-0.79096c0.26759-0.1038 0.85107 0.11784 0.85107 0.11784s0.66321 0.58216 0.95236 0.94953c0.38495 0.48945 1.0473 1.5782 1.5352 2.2495 0.92299 1.27 1.8855 2.4575 1.8855 2.4575s-0.24283 2.512-0.16153 3.7655c0.0771 1.19 0.61301 3.5247 0.61301 3.5247s-1.4274 1.0842-1.9707 1.6049c-1.2116 1.1612-3.2315 3.5009-3.2315 3.5009s-0.26923 0.70712-0.28388 1.0786c-0.0159 0.37486 0.19967 1.1076 0.19967 1.1076s0.19146 1.7264 0.39804 2.5675c0.3515 1.4314 1.4236 4.1864 1.4236 4.1864s0.33522 0.34979 0.41646 0.57091c0.0797 0.21714 0.0315 1.0267 0.0315 1.0267l0.0842 0.53322 1.9056 2.8859 3.0268-5.2688-1.3172-0.2521s-1.0023-1.836-1.7636-3.2857c-0.21264-0.40508-0.58404-0.58888-0.69357-0.92659-0.27129-0.83672-0.26083-2.6259-0.26083-2.6259l0.33668-0.27998 6.0689-2.1106s0.29783 1.3172 0.56648 1.932c0.21741 0.49696 0.64145 1.004 1.0071 1.6254 0.85944 1.4608 3.2308 5.475 3.2308 5.475l-1.4856 4.6243 4.4843-0.14035-0.0842-2.158 0.16498-0.25263 0.56373-1.0646s-1.8879-4.5035-2.8267-6.7768c-0.32612-0.78974-0.66417-2.0975-0.85928-3.0458-0.134-0.65167-0.11228-1.1686-0.11228-1.1686s0.89384 0.27799 2.1181 0.44067c1.4733 0.19569 3.4101 0.27895 4.6468 0.22985 1.1187-0.045 2.7537-0.24971 4.0857-0.53354 1.1643-0.24786 2.1099-0.58022 2.1099-0.58022l1.278 0.99889-0.73067 2.1318s-0.53361 1.2988-0.83192 1.9347c-0.3161 0.67407-1.0153 1.9896-1.0153 1.9896s-0.72677 0.69076-1.0317 1.0865c-0.35755 0.46376-0.92225 1.4942-0.92225 1.4942l-2.3644 2.5723-0.21873 2.8597 4.0338-0.44335v-2.0798l1.6802-0.16974s0.78291-2.2921 1.5681-3.1744c0.48293-0.54252 1.47-1.3306 2.2084-1.7377 0.52872-0.29198 0.93043-0.29831 0.93043-0.29831s-0.0312-1.1825 0.0273-1.7706c0.0757-0.76334 0.41596-2.2631 0.41596-2.2631s1.5461 0.51352 2.2686 0.88115c0.62699 0.31904 1.776 1.1384 1.776 1.1384s1.4028 2.2932 1.8964 3.5356c0.39976 1.0063 0.84559 3.1362 0.84559 3.1362l0.22694 0.16683s-0.81082 1.1135-1.0891 1.7377c-0.23674 0.53134-0.47889 1.6776-0.47889 1.6776l0.10937 1.7951 3.9243-0.16683 0.10937-2.2412 0.22694 0.10937s0.44612-1.2218 0.44332-1.8582c0-0.84363-0.6102-2.4548-0.6102-2.4548l-0.78813-4.2034-0.16974-2.5258s-1.1568-1.0678-1.6612-1.6693c-0.48759-0.58147-1.3081-1.8609-1.3081-1.8609v-1.2862l1.5599 0.063 1.1987 0.0771c0.0159 0.045 0.2611 1.0786 0.76347 2.2932 0.5466 1.3217 1.3741 2.83 2.203 3.615 0.43561 0.41266 1.1529 1.1354 1.8882 1.4149 0.93359 0.35477 1.8582 0.21635 1.8582 0.21635s0.045-0.94942-0.0826-1.3985c-0.30586-1.0869-1.0284-2.1192-1.7488-3.3386-0.70336-1.191-1.3943-2.5486-1.4121-2.5833l11.696 0.7443c-0.20867 0.91116-0.31412 1.8429-0.3147 2.7776-6.9e-4 6.8988 5.591 12.492 12.49 12.493 6.8999 6.9e-4 12.494-5.5926 12.493-12.493-4.5e-4 -0.45801-0.0267-0.91576-0.0771-1.371l4.1788 0.23807 8.5324 0.64534v-4.3693h-6.7822l4.9325-18.105-43.802-3.2988 0.0159 7.0878 3.864 12.432-8.3631-0.53369c-0.0159-0.0477-0.49056-1.8806-1.579-3.8202-0.84445-1.5048-2.1848-3.0316-3.1333-3.9463-1.7527-1.6899-5.0954-3.324-6.3791-3.552-1.464-0.26004-2.9009-0.0185-4.3895 0.15597-1.6899 0.19596-3.435 0.3419-5.1229 0.3531-1.7704 0.0159-3.3933-0.0882-5.0736-0.30922-1.6122-0.21132-3.3673-0.16551-4.7808-0.96875-2.1224-1.2064-3.2088-3.6832-4.9204-5.4239-1.248-1.2693-2.4134-2.6655-3.8942-3.6534-1.2798-0.85372-2.7007-1.5896-4.2088-1.8936-0.5716-0.11466-1.1853-0.10645-1.7487 0.0434-0.15492 0.0408-0.58838 0.18855-0.58838 0.18855zm63.973 31.484 5.4266 0.30924c-0.42078 0.69187-0.64314 1.4862-0.64314 2.296 0 2.4395 1.9774 4.4171 4.4169 4.4169 2.4394 1.4e-4 4.4169-1.9776 4.4168-4.4169-4.2e-4 -0.63893-0.14035-1.27-0.40773-1.8499l5.5279 0.3147c0.0771 0.49161 0.11493 0.98834 0.11493 1.486 6.9e-4 5.3028-4.2972 9.6021-9.5999 9.6027-5.3029-5.3e-4 -9.601-4.2999-9.6-9.6027 4.2e-4 -0.86378 0.11784-1.7235 0.34745-2.5561z"/><path d="m119.16 76.528c-42.46 0-76.881 34.422-76.881 76.882-1e-4 42.46 34.42 76.881 76.881 76.882 42.461 1.4e-4 76.882-34.421 76.882-76.882 2.2e-4 -42.461-34.421-76.882-76.882-76.882zm-0.16842 18.669c0.0434-6e-5 0.0866-6e-5 0.13002 0 32.144 1.3e-4 58.202 26.058 58.202 58.202-1.6e-4 32.144-26.058 58.202-58.202 58.202-32.144-1.1e-4 -58.201-26.058-58.202-58.202 1.1e-4 -32.093 25.979-58.13 58.072-58.202z" color="#000000" color-rendering="auto" dominant-baseline="auto" enable-background="accumulate" fill="#ed232a" image-rendering="auto" shape-rendering="auto" solid-color="#000000" stop-color="#000000" style="font-feature-settings:normal;font-variant-alternates:normal;font-variant-caps:normal;font-variant-east-asian:normal;font-variant-ligatures:normal;font-variant-numeric:normal;font-variant-position:normal;font-variation-settings:normal;inline-size:0;isolation:auto;mix-blend-mode:normal;paint-order:stroke fill markers;shape-margin:0;shape-padding:0;text-decoration-color:#000000;text-decoration-line:none;text-decoration-style:solid;text-indent:0;text-orientation:mixed;text-transform:none;white-space:normal"/></g></svg>