<?xml version="1.0" encoding="UTF-8" standalone="no"?>
<svg
   xmlns:dc="http://purl.org/dc/elements/1.1/"
   xmlns:cc="http://creativecommons.org/ns#"
   xmlns:rdf="http://www.w3.org/1999/02/22-rdf-syntax-ns#"
   xmlns:svg="http://www.w3.org/2000/svg"
   xmlns="http://www.w3.org/2000/svg"
   xmlns:sodipodi="http://sodipodi.sourceforge.net/DTD/sodipodi-0.dtd"
   xmlns:inkscape="http://www.inkscape.org/namespaces/inkscape"
   width="158.75mm"
   height="158.75139mm"
   viewBox="0 0 158.75 158.75139"
   version="1.1"
   id="svg26447"
   inkscape:version="1.0 (4035a4fb49, 2020-05-01)"
   sodipodi:docname="tt5.svg">
  <defs
     id="defs26441" />
  <sodipodi:namedview
     id="base"
     pagecolor="#ffffff"
     bordercolor="#666666"
     borderopacity="1.0"
     inkscape:pageopacity="0.0"
     inkscape:pageshadow="2"
     inkscape:zoom="0.49497475"
     inkscape:cx="-474.60865"
     inkscape:cy="463.35375"
     inkscape:document-units="mm"
     inkscape:current-layer="layer1"
     inkscape:document-rotation="0"
     showgrid="false"
     inkscape:window-width="1920"
     inkscape:window-height="1001"
     inkscape:window-x="-9"
     inkscape:window-y="-9"
     inkscape:window-maximized="1" />
  <metadata
     id="metadata26444">
    <rdf:RDF>
      <cc:Work
         rdf:about="">
        <dc:format>image/svg+xml</dc:format>
        <dc:type
           rdf:resource="http://purl.org/dc/dcmitype/StillImage" />
        <dc:title />
      </cc:Work>
    </rdf:RDF>
  </metadata>
  <g
     inkscape:label="Layer 1"
     inkscape:groupmode="layer"
     id="layer1"
     transform="translate(-155.2038,-58.967383)">
    <path
       sodipodi:nodetypes="ccccc"
       id="path12718"
       d="m 234.57818,59.218737 c -43.67242,0 -79.12317,35.451946 -79.12303,79.124343 -1.4e-4,43.67239 35.45061,79.12372 79.12303,79.12433 43.67288,1.5e-4 79.12439,-35.45133 79.12426,-79.12433 1.3e-4,-43.672951 -35.45138,-79.124481 -79.12426,-79.124343 z"
       style="color:#000000;font-style:normal;font-variant:normal;font-weight:normal;font-stretch:normal;font-size:medium;line-height:normal;font-family:sans-serif;font-variant-ligatures:normal;font-variant-position:normal;font-variant-caps:normal;font-variant-numeric:normal;font-variant-alternates:normal;font-variant-east-asian:normal;font-feature-settings:normal;font-variation-settings:normal;text-indent:0;text-align:start;text-decoration:none;text-decoration-line:none;text-decoration-style:solid;text-decoration-color:#000000;letter-spacing:normal;word-spacing:normal;text-transform:none;writing-mode:lr-tb;direction:ltr;text-orientation:mixed;dominant-baseline:auto;baseline-shift:baseline;text-anchor:start;white-space:normal;shape-padding:0;shape-margin:0;inline-size:0;clip-rule:nonzero;display:inline;overflow:visible;visibility:visible;opacity:1;isolation:auto;mix-blend-mode:normal;color-interpolation:sRGB;color-interpolation-filters:linearRGB;solid-color:#000000;solid-opacity:1;vector-effect:none;fill:#ffffff;fill-opacity:1;fill-rule:evenodd;stroke:#000000;stroke-width:0.502709;stroke-linecap:square;stroke-linejoin:round;stroke-miterlimit:2;stroke-dasharray:none;stroke-dashoffset:0;stroke-opacity:1;paint-order:stroke fill markers;color-rendering:auto;image-rendering:auto;shape-rendering:auto;text-rendering:auto;enable-background:accumulate;stop-color:#000000;stop-opacity:1" />
    <path
       id="rect10563"
       style="opacity:1;fill:#000000;fill-opacity:1;fill-rule:evenodd;stroke:none;stroke-width:0.502709;stroke-linecap:square;stroke-linejoin:round;stroke-miterlimit:2;paint-order:stroke fill markers"
       d="m 263.17457,114.94276 a 3.7798043,3.7798042 0 0 0 -3.7257,3.7804 3.7798043,3.7798042 0 0 0 3.77903,3.77903 3.7798043,3.7798042 0 0 0 3.78041,-3.77903 3.7798043,3.7798042 0 0 0 -3.78041,-3.7804 3.7798043,3.7798042 0 0 0 -0.0535,0 z m 2.25672,9.45374 c -1.59329,-0.0536 -3.28875,0.66843 -4.26457,1.87925 l -8.86698,11.10596 c -0.185,0.8048 0.10931,1.65362 0.66335,2.1487 0.70694,0.63163 1.88007,0.79031 2.61374,0.34467 l 6.38591,-6.58288 3.9213,6.16162 -7.19838,7.19972 c -0.30718,0.44818 -0.60655,0.97601 -0.62505,1.56879 -0.0212,0.67947 -0.0265,1.26881 0.4199,1.91755 l 4.71455,10.29489 c 1.16098,0.85472 2.05244,0.56361 2.94746,0.0971 0.83424,-0.43482 1.17374,-1.61446 0.97521,-2.56175 l -3.69834,-8.85194 4.93065,-4.5094 7.61825,15.20914 c 0.66742,1.09777 2.0705,1.30933 3.0172,0.85893 0.93514,-0.44489 1.44662,-1.56649 1.32259,-2.51115 l -8.26106,-17.4782 -1.65224,-12.35332 c -0.44181,-1.77086 -2.22062,-3.49097 -4.28918,-3.86657 -0.22101,-0.0401 -0.44669,-0.0634 -0.67431,-0.0711 z m -51.65907,11.73374 a 11.530099,11.530099 0 0 0 -10.79548,7.48421 l -14.37484,1.77804 0.5047,3.95 13.13565,-1.71513 a 11.530099,11.530099 0 0 0 0,0.0342 11.530099,11.530099 0 0 0 11.52997,11.52996 11.530099,11.530099 0 0 0 11.52994,-11.52996 11.530099,11.530099 0 0 0 -0.39529,-2.99395 l 6.8195,-0.89039 7.688,5.06059 1.14891,7.9 2.26768,-0.41989 -1.8478,-13.74977 9.69036,-1.26515 -0.47461,-3.52874 -26.9415,3.33179 a 11.530099,11.530099 0 0 0 -9.48519,-4.9758 z m -0.041,2.82572 a 8.7251696,8.7251693 0 0 1 0.0643,0 8.7251696,8.7251693 0 0 1 6.17254,2.55766 l -13.65949,1.68914 a 8.7251696,8.7251693 0 0 1 7.42266,-4.2468 z m 24.81741,3.93085 0.55531,3.82144 -4.73233,-3.27571 z m -16.43872,2.14597 a 8.7251696,8.7251693 0 0 1 0.41169,2.64793 8.7251696,8.7251693 0 0 1 -8.72609,8.7261 8.7251696,8.7251693 0 0 1 -8.72476,-8.7261 8.7251696,8.7251693 0 0 1 0.0106,-0.424 l 5.85525,-0.76456 a 3.0983748,3.098375 0 0 0 -0.23397,1.17898 3.0983748,3.098375 0 0 0 3.09791,3.09927 3.0983748,3.098375 0 0 0 3.0979,-3.09927 3.0983748,3.098375 0 0 0 -0.63326,-1.87516 z" />
    <path
       id="path12720"
       d="m 234.57818,61.460585 c -42.46065,0 -76.88132,34.421949 -76.88124,76.882495 -8e-5,42.46057 34.42059,76.8819 76.88124,76.88256 42.46118,1.3e-4 76.88267,-34.42144 76.88246,-76.88256 2.1e-4,-42.461088 -34.42128,-76.882625 -76.88246,-76.882495 z m -0.16833,18.669389 c 0.0434,-5.6e-5 0.0865,-5.6e-5 0.12996,0 32.14428,1.51e-4 58.20212,26.058026 58.20225,58.202186 -1.3e-4,32.14411 -26.05797,58.20205 -58.20225,58.20216 -32.14397,-1.1e-4 -58.20192,-26.05805 -58.20205,-58.20216 1.3e-4,-32.09338 25.97881,-58.130373 58.07209,-58.202186 z"
       style="color:#000000;font-style:normal;font-variant:normal;font-weight:normal;font-stretch:normal;font-size:medium;line-height:normal;font-family:sans-serif;font-variant-ligatures:normal;font-variant-position:normal;font-variant-caps:normal;font-variant-numeric:normal;font-variant-alternates:normal;font-variant-east-asian:normal;font-feature-settings:normal;font-variation-settings:normal;text-indent:0;text-align:start;text-decoration:none;text-decoration-line:none;text-decoration-style:solid;text-decoration-color:#000000;letter-spacing:normal;word-spacing:normal;text-transform:none;writing-mode:lr-tb;direction:ltr;text-orientation:mixed;dominant-baseline:auto;baseline-shift:baseline;text-anchor:start;white-space:normal;shape-padding:0;shape-margin:0;inline-size:0;clip-rule:nonzero;display:inline;overflow:visible;visibility:visible;opacity:1;isolation:auto;mix-blend-mode:normal;color-interpolation:sRGB;color-interpolation-filters:linearRGB;solid-color:#000000;solid-opacity:1;vector-effect:none;fill:#ed232a;fill-opacity:1;fill-rule:evenodd;stroke:none;stroke-width:1.69334;stroke-linecap:square;stroke-linejoin:round;stroke-miterlimit:2;stroke-dasharray:none;stroke-dashoffset:0;stroke-opacity:1;paint-order:stroke fill markers;color-rendering:auto;image-rendering:auto;shape-rendering:auto;text-rendering:auto;enable-background:accumulate;stop-color:#000000;stop-opacity:1" />
  </g>
</svg>
