<svg width="158.75mm" height="158.75mm" version="1.1" viewBox="0 0 158.75 158.75" xmlns="http://www.w3.org/2000/svg"><g transform="translate(-155.2 -58.967)" fill-rule="evenodd"><path d="m234.58 59.219c-43.672 0-79.123 35.452-79.123 79.124-1.4e-4 43.672 35.451 79.124 79.123 79.124 43.673 1.5e-4 79.124-35.451 79.124-79.124 1.3e-4 -43.673-35.451-79.124-79.124-79.124z" color="#000000" color-rendering="auto" dominant-baseline="auto" enable-background="accumulate" fill="#fff" image-rendering="auto" shape-rendering="auto" solid-color="#000000" stop-color="#000000" stroke="#000" stroke-linecap="square" stroke-linejoin="round" stroke-miterlimit="2" stroke-width=".50271" style="font-feature-settings:normal;font-variant-alternates:normal;font-variant-caps:normal;font-variant-east-asian:normal;font-variant-ligatures:normal;font-variant-numeric:normal;font-variant-position:normal;font-variation-settings:normal;inline-size:0;isolation:auto;mix-blend-mode:normal;paint-order:stroke fill markers;shape-margin:0;shape-padding:0;text-decoration-color:#000000;text-decoration-line:none;text-decoration-style:solid;text-indent:0;text-orientation:mixed;text-transform:none;white-space:normal"/><path d="m263.17 114.94a3.7798 3.7798 0 0 0-3.7257 3.7804 3.7798 3.7798 0 0 0 3.779 3.779 3.7798 3.7798 0 0 0 3.7804-3.779 3.7798 3.7798 0 0 0-3.7804-3.7804 3.7798 3.7798 0 0 0-0.0535 0zm2.2567 9.4537c-1.5933-0.0536-3.2888 0.66843-4.2646 1.8792l-8.867 11.106c-0.185 0.8048 0.10931 1.6536 0.66335 2.1487 0.70694 0.63163 1.8801 0.79031 2.6137 0.34467l6.3859-6.5829 3.9213 6.1616-7.1984 7.1997c-0.30718 0.44818-0.60655 0.97601-0.62505 1.5688-0.0212 0.67947-0.0265 1.2688 0.4199 1.9176l4.7146 10.295c1.161 0.85472 2.0524 0.56361 2.9475 0.0971 0.83424-0.43482 1.1737-1.6145 0.97521-2.5618l-3.6983-8.8519 4.9306-4.5094 7.6182 15.209c0.66742 1.0978 2.0705 1.3093 3.0172 0.85893 0.93514-0.44489 1.4466-1.5665 1.3226-2.5112l-8.2611-17.478-1.6522-12.353c-0.44181-1.7709-2.2206-3.491-4.2892-3.8666-0.22101-0.0401-0.44669-0.0634-0.67431-0.0711zm-51.659 11.734a11.53 11.53 0 0 0-10.795 7.4842l-14.375 1.778 0.5047 3.95 13.136-1.7151a11.53 11.53 0 0 0 0 0.0342 11.53 11.53 0 0 0 11.53 11.53 11.53 11.53 0 0 0 11.53-11.53 11.53 11.53 0 0 0-0.39529-2.994l6.8195-0.89039 7.688 5.0606 1.1489 7.9 2.2677-0.41989-1.8478-13.75 9.6904-1.2652-0.47461-3.5287-26.942 3.3318a11.53 11.53 0 0 0-9.4852-4.9758zm-0.041 2.8257a8.7252 8.7252 0 0 1 0.0643 0 8.7252 8.7252 0 0 1 6.1725 2.5577l-13.659 1.6891a8.7252 8.7252 0 0 1 7.4227-4.2468zm24.817 3.9308 0.55531 3.8214-4.7323-3.2757zm-16.439 2.146a8.7252 8.7252 0 0 1 0.41169 2.6479 8.7252 8.7252 0 0 1-8.7261 8.7261 8.7252 8.7252 0 0 1-8.7248-8.7261 8.7252 8.7252 0 0 1 0.0106-0.424l5.8552-0.76456a3.0984 3.0984 0 0 0-0.23397 1.179 3.0984 3.0984 0 0 0 3.0979 3.0993 3.0984 3.0984 0 0 0 3.0979-3.0993 3.0984 3.0984 0 0 0-0.63326-1.8752z" style="paint-order:stroke fill markers"/><path d="m234.58 61.461c-42.461 0-76.881 34.422-76.881 76.882-8e-5 42.461 34.421 76.882 76.881 76.883 42.461 1.3e-4 76.883-34.421 76.882-76.883 2.1e-4 -42.461-34.421-76.883-76.882-76.882zm-0.16833 18.669c0.0434-5.6e-5 0.0865-5.6e-5 0.12996 0 32.144 1.51e-4 58.202 26.058 58.202 58.202-1.3e-4 32.144-26.058 58.202-58.202 58.202-32.144-1.1e-4 -58.202-26.058-58.202-58.202 1.3e-4 -32.093 25.979-58.13 58.072-58.202z" color="#000000" color-rendering="auto" dominant-baseline="auto" enable-background="accumulate" fill="#ed232a" image-rendering="auto" shape-rendering="auto" solid-color="#000000" stop-color="#000000" style="font-feature-settings:normal;font-variant-alternates:normal;font-variant-caps:normal;font-variant-east-asian:normal;font-variant-ligatures:normal;font-variant-numeric:normal;font-variant-position:normal;font-variation-settings:normal;inline-size:0;isolation:auto;mix-blend-mode:normal;paint-order:stroke fill markers;shape-margin:0;shape-padding:0;text-decoration-color:#000000;text-decoration-line:none;text-decoration-style:solid;text-indent:0;text-orientation:mixed;text-transform:none;white-space:normal"/></g></svg>