<svg width="158.75mm" height="158.75mm" version="1.1" viewBox="0 0 158.75 158.75" xmlns="http://www.w3.org/2000/svg"><g transform="translate(18.199 -61.962)" fill-rule="evenodd"><path d="m61.175 62.214c-43.672 0-79.123 35.452-79.123 79.124-1.06e-4 43.672 35.451 79.124 79.123 79.124 43.673 1.6e-4 79.124-35.451 79.124-79.124 1.3e-4 -43.673-35.451-79.124-79.124-79.124z" color="#000000" color-rendering="auto" dominant-baseline="auto" enable-background="accumulate" fill="#fff" image-rendering="auto" shape-rendering="auto" solid-color="#000000" stop-color="#000000" stroke="#000" stroke-linecap="square" stroke-linejoin="round" stroke-miterlimit="2" stroke-width=".50271" style="font-feature-settings:normal;font-variant-alternates:normal;font-variant-caps:normal;font-variant-east-asian:normal;font-variant-ligatures:normal;font-variant-numeric:normal;font-variant-position:normal;font-variation-settings:normal;inline-size:0;isolation:auto;mix-blend-mode:normal;paint-order:stroke fill markers;shape-margin:0;shape-padding:0;text-decoration-color:#000000;text-decoration-line:none;text-decoration-style:solid;text-indent:0;text-orientation:mixed;text-transform:none;white-space:normal"/><path d="m80.954 104.32c-1.0403-4e-3 -2.3181 0.48603-3.1184 1.2734-0.83504 0.82146-1.4048 2.149-1.3814 3.2306 0.02858 1.2509 0.75754 2.6168 1.737 3.4549 0.82898 0.70937 2.1729 1.0424 3.117 1.0012 1.276-0.0555 2.2087-0.6886 2.9461-1.51 0.70238-0.78243 1.1417-2.2106 1.1284-2.9461-0.01588-0.91938-0.32724-2.0834-0.99162-2.8298-0.8475-0.95225-2.2508-1.6694-3.4371-1.6741zm1.4265 10.295c-0.89702 0.0326-1.6372 0.42537-1.6372 0.42537l-2.0871 1.0641-0.61547 0.31321-12.567 6.4174s-0.76432 0.53012-1.0203 0.90681c-0.23 0.33809-0.38099 0.80675-0.41988 1.153-0.10931 0.97918 0.313 2.1674 1.1174 2.7368 0.14583 0.10312 0.38875 0.16762 0.59633 0.18053 0.23159 0.0143 0.68934-0.11762 0.68934-0.11762l9.86-5.0606 1.6194 5.4176-10.224 2.823s-0.89218 0.3414-1.2323 0.65924c-0.33695 0.31488-0.73311 1.1735-0.73311 1.1735l-3.6395 11.779s-0.08496 0.70918 0.15192 1.3335c0.24879 0.65681 0.8334 1.2356 1.3349 1.4211 0.56798 0.2101 1.4886 0.29627 2.1966-0.0821 0.26414-0.14105 0.4956-0.30456 0.68658-0.50608 0.32946-0.34735 0.5348-0.73036 0.5348-0.73036l3.3345-10.481 11.341-2.8079 0.77414-0.19287s0.95544-0.14078 1.3869-0.34193c0.72284-0.33704 1.4352-0.78658 1.9326-1.4101 0.43472-0.54493 0.74042-1.6851 0.74815-2.0338v-10.428s-0.07914-0.84196-0.54708-1.6235c-0.38264-0.6394-1.0567-1.2592-1.5551-1.5278-0.46328-0.24977-1.3311-0.48624-2.027-0.46092zm-66.257 17.787v17.919h45.052v-17.919zm70.694 1.1215c-6.5092 0.063-12.334 2.9672-16.305 7.5307-0.0053 6e-3 -0.01059 0.0119-0.01588 0.0177l0.02382 0.0329 1.8765 1.8765 0.01588 6.9e-4c3.5482-4.1634 8.7785-6.8006 14.617-6.8003 6.992 1.8e-4 13.116 3.7782 16.517 9.4373l0.0738 6e-3 1.9982-1.7206 0.0397 0.0233c-3.8636-6.2444-10.761-10.406-18.63-10.405-0.0704-3.4e-4 -0.14028-3.4e-4 -0.21068 0zm0.24614 3.8625c-9.87 0-17.988 8.1229-17.988 17.982 0 9.8587 8.1184 17.982 17.988 17.982 9.8699 0 17.987-8.1228 17.987-17.982 0-9.8587-8.117-17.982-17.987-17.982zm0 11.503c3.6388 0 6.4707 2.8292 6.4707 6.4789s-2.8319 6.4789-6.4707 6.4789c-3.6389 0-6.4721-2.8292-6.4721-6.4789s2.8333-6.4789 6.4721-6.4789zm-58.144 2.2896c-6.0349 0-11.094 5.0578-11.094 11.084 0 6.0262 5.0587 11.079 11.094 11.079 6.035 0 11.092-5.0524 11.092-11.079 0-6.0262-5.0573-11.084-11.092-11.084zm5.7103 0.30638s1.0306 0.61143 1.9531 1.3308c0.45645 0.35601 0.84867 0.77503 1.1503 1.0874 0.36265 0.37516 0.86606 0.99311 1.2446 1.5428 0.4267 0.6197 0.70847 1.153 0.70847 1.153h21.488v-5.1139s-19.165 0.0275-26.545 0zm-5.7103 6.122c2.4821 0 4.6612 2.1788 4.6612 4.6558 0 2.4769-2.1792 4.6544-4.6612 4.6544-2.482 0-4.6612-2.1775-4.6612-4.6544 0-2.4769 2.1792-4.6558 4.6612-4.6558z" stroke-linecap="round" stroke-linejoin="round" stroke-miterlimit="10" stroke-opacity=".82353" stroke-width=".84799"/><path d="m61.175 64.455c-42.461 0-76.881 34.422-76.881 76.882-8e-5 42.461 34.421 76.882 76.881 76.883 42.461 1.3e-4 76.883-34.421 76.882-76.883 2.2e-4 -42.461-34.421-76.883-76.882-76.882zm-0.16833 18.669c0.04341-5.6e-5 0.08655-5.6e-5 0.12995 0 32.144 1.51e-4 58.202 26.058 58.202 58.202-1.4e-4 32.144-26.058 58.202-58.202 58.202-32.144-1.1e-4 -58.202-26.058-58.202-58.202 1.32e-4 -32.093 25.979-58.13 58.072-58.202z" color="#000000" color-rendering="auto" dominant-baseline="auto" enable-background="accumulate" fill="#ed232a" image-rendering="auto" shape-rendering="auto" solid-color="#000000" stop-color="#000000" style="font-feature-settings:normal;font-variant-alternates:normal;font-variant-caps:normal;font-variant-east-asian:normal;font-variant-ligatures:normal;font-variant-numeric:normal;font-variant-position:normal;font-variation-settings:normal;inline-size:0;isolation:auto;mix-blend-mode:normal;paint-order:stroke fill markers;shape-margin:0;shape-padding:0;text-decoration-color:#000000;text-decoration-line:none;text-decoration-style:solid;text-indent:0;text-orientation:mixed;text-transform:none;white-space:normal"/></g></svg>