<svg width="158.75mm" height="158.75mm" version="1.1" viewBox="0 0 158.75 158.75" xmlns="http://www.w3.org/2000/svg"><g transform="translate(-416.63 -63.832)" fill-rule="evenodd"><path d="m496.01 64.083c-43.672 0-79.123 35.452-79.123 79.124-8e-5 43.672 35.451 79.124 79.123 79.124 43.673 1.6e-4 79.124-35.451 79.124-79.124 8e-5 -43.673-35.451-79.124-79.124-79.124z" color="#000000" color-rendering="auto" dominant-baseline="auto" enable-background="accumulate" fill="#fff" image-rendering="auto" shape-rendering="auto" solid-color="#000000" stop-color="#000000" stroke="#000" stroke-linecap="square" stroke-linejoin="round" stroke-miterlimit="2" stroke-width=".50271" style="font-feature-settings:normal;font-variant-alternates:normal;font-variant-caps:normal;font-variant-east-asian:normal;font-variant-ligatures:normal;font-variant-numeric:normal;font-variant-position:normal;font-variation-settings:normal;inline-size:0;isolation:auto;mix-blend-mode:normal;paint-order:stroke fill markers;shape-margin:0;shape-padding:0;text-decoration-color:#000000;text-decoration-line:none;text-decoration-style:solid;text-indent:0;text-orientation:mixed;text-transform:none;white-space:normal"/><path d="m477.14 121.72-4.5968-15.444 16.116 8.5487 5.2974-17.994 7.848 20.965 8.7449-18.191-0.67268 15.444 10.371-11.52-7.5957 21.302 11.071-6.6708-16.845 25.001h-21.218l-23.488-26.038z" fill="#dd7500" style="paint-order:stroke fill markers"/><path d="m486.36 127.94-5.0732-13.117 10.146 9.6698 3.6724-11.071 4.6242 14.519 8.7448-6.895-3.5315 10.258h5.0732l-11.296 11.856h-7.5116l-11.295-16.369z" fill="#ff0" style="paint-order:stroke fill markers"/><path d="m496.26 143.16c-1.9993 0.0132-3.8275 0.0789-5.9929 0.28072-3.3594 0.3133-7.6997 0.97703-10.088 1.6137-1.9228 0.51259-2.7715 2.1532-2.7715 2.1532l-5.4394 12.198s-0.47988 0.7087-0.76251 1.0284c-0.1785 0.20181-0.58537 0.55746-0.58537 0.55746s-0.76742 0.44203-1.0552 0.76855c-0.33878 0.38452-0.74067 1.3479-0.74067 1.3479l-0.11547 2.5823 0.21902 3.0462 0.20313 7.5778c3.4e-4 0.84967 0.53203 1.5327 1.3817 1.5321h0.18221l-5e-3 5.2761h5e-3v0.27676c0 1.1477 0.92396 2.0716 2.0716 2.0716h5.5409c1.1477 0 2.0716-0.92396 2.0716-2.0716v-3.4813l2e-3 -2.0557h31.264v5.7132c0 1.0467 0.84366 1.8894 1.8904 1.8894h5.8804c1.0468 0 1.8894-0.84274 1.8894-1.8894v-5.8366h0.0315c0.84978 0 1.433-0.45941 1.4325-1.3091l0.23491-7.6912 0.15334-3.1717s0.0869-1.3274 0.0212-1.986c-0.0273-0.27701-0.17427-0.8163-0.17427-0.8163s-0.21902-0.59146-0.40713-0.83821c-0.34169-0.44834-1.2175-1.0403-1.2175-1.0403s-0.53687-0.3723-0.75059-0.59034c-0.36569-0.37297-0.91289-1.2782-0.91289-1.2782l-4.9008-11.28s-0.58727-2.0886-3.0372-2.8083c-2.6399-0.77555-6.9527-1.3506-10.515-1.6018-2.0184-0.14222-3.3348-0.1785-5.0034-0.16712zm0.10249 3.6544c2.2071-0.0106 6.0564 0.26624 9.061 0.64106 1.4086 0.17585 4.192 0.75264 4.192 0.75264s0.54484 0.16182 1.0224 0.43799c0.22088 0.12765 0.41749 0.33215 0.55746 0.46293 0.16181 0.15149 0.37728 0.41516 0.5236 0.657 0.15838 0.26166 0.24101 0.49583 0.24101 0.49583l4.1124 9.8176s-3.0723-0.5779-6.9784-0.97655c-4.1201-0.42064-9.169-0.66321-12.516-0.66503-3.4134 0-8.5716 0.30069-12.761 0.72472-3.9194 0.39664-8.0854 1.1031-8.0854 1.1031l4.3483-10.004s0.14381-0.37085 0.38531-0.70883c0.17373-0.24312 0.42212-0.44694 0.59729-0.59135 0.16075-0.13242 0.40435-0.29156 0.65305-0.40412 0.32864-0.1491 0.64901-0.23305 0.64901-0.23305s3.9144-0.66789 7.3597-1.101c2.3062-0.29005 4.8786-0.40011 6.6389-0.40917zm-22.264 19.481c1.5916 0 2.882 1.3032 2.882 2.9108s-1.2903 2.9109-2.882 2.9108c-1.5916 5e-5 -2.882-1.3032-2.882-2.9108 0-1.6077 1.2903-2.9108 2.882-2.9108zm43.809 0c1.5917 0 2.882 1.3032 2.882 2.9108-3e-5 1.6077-1.2903 2.9109-2.882 2.9108-1.5916 5e-5 -2.8819-1.3032-2.8819-2.9108 3e-5 -1.6077 1.2903-2.9108 2.8819-2.9108zm-37.708 0.97062h31.563v1.2105c0 3.1848-2.5652 5.748-5.7499 5.748h-20.065c-3.1847 0-5.7479-2.5632-5.7479-5.748z"/><path d="m496.01 66.325c-42.461 0-76.881 34.422-76.881 76.882-8e-5 42.461 34.421 76.882 76.881 76.883 42.461 1.6e-4 76.883-34.421 76.882-76.883 2.4e-4 -42.461-34.421-76.883-76.882-76.882zm-0.16844 18.669c0.0434-5.3e-5 0.0866-5.3e-5 0.13004 0 32.144 1.32e-4 58.202 26.058 58.202 58.202-1.5e-4 32.144-26.058 58.202-58.202 58.202-32.144-8e-5 -58.202-26.058-58.202-58.202 1.1e-4 -32.093 25.979-58.13 58.072-58.202z" color="#000000" color-rendering="auto" dominant-baseline="auto" enable-background="accumulate" fill="#ed232a" image-rendering="auto" shape-rendering="auto" solid-color="#000000" stop-color="#000000" style="font-feature-settings:normal;font-variant-alternates:normal;font-variant-caps:normal;font-variant-east-asian:normal;font-variant-ligatures:normal;font-variant-numeric:normal;font-variant-position:normal;font-variation-settings:normal;inline-size:0;isolation:auto;mix-blend-mode:normal;paint-order:stroke fill markers;shape-margin:0;shape-padding:0;text-decoration-color:#000000;text-decoration-line:none;text-decoration-style:solid;text-indent:0;text-orientation:mixed;text-transform:none;white-space:normal"/></g></svg>