<?xml version="1.0" encoding="UTF-8" standalone="no"?>
<svg
   xmlns:dc="http://purl.org/dc/elements/1.1/"
   xmlns:cc="http://creativecommons.org/ns#"
   xmlns:rdf="http://www.w3.org/1999/02/22-rdf-syntax-ns#"
   xmlns:svg="http://www.w3.org/2000/svg"
   xmlns="http://www.w3.org/2000/svg"
   xmlns:sodipodi="http://sodipodi.sourceforge.net/DTD/sodipodi-0.dtd"
   xmlns:inkscape="http://www.inkscape.org/namespaces/inkscape"
   width="158.75mm"
   height="158.75133mm"
   viewBox="0 0 158.75 158.75133"
   version="1.1"
   id="svg26447"
   inkscape:version="1.0 (4035a4fb49, 2020-05-01)"
   sodipodi:docname="tt5.svg">
  <defs
     id="defs26441" />
  <sodipodi:namedview
     id="base"
     pagecolor="#ffffff"
     bordercolor="#666666"
     borderopacity="1.0"
     inkscape:pageopacity="0.0"
     inkscape:pageshadow="2"
     inkscape:zoom="1.4"
     inkscape:cx="537.60502"
     inkscape:cy="309.46629"
     inkscape:document-units="mm"
     inkscape:current-layer="layer1"
     inkscape:document-rotation="0"
     showgrid="false"
     inkscape:window-width="1920"
     inkscape:window-height="1001"
     inkscape:window-x="-9"
     inkscape:window-y="-9"
     inkscape:window-maximized="1" />
  <metadata
     id="metadata26444">
    <rdf:RDF>
      <cc:Work
         rdf:about="">
        <dc:format>image/svg+xml</dc:format>
        <dc:type
           rdf:resource="http://purl.org/dc/dcmitype/StillImage" />
        <dc:title />
      </cc:Work>
    </rdf:RDF>
  </metadata>
  <g
     inkscape:label="Layer 1"
     inkscape:groupmode="layer"
     id="layer1"
     transform="translate(-416.63253,-63.831995)">
    <path
       style="color:#000000;font-style:normal;font-variant:normal;font-weight:normal;font-stretch:normal;font-size:medium;line-height:normal;font-family:sans-serif;font-variant-ligatures:normal;font-variant-position:normal;font-variant-caps:normal;font-variant-numeric:normal;font-variant-alternates:normal;font-variant-east-asian:normal;font-feature-settings:normal;font-variation-settings:normal;text-indent:0;text-align:start;text-decoration:none;text-decoration-line:none;text-decoration-style:solid;text-decoration-color:#000000;letter-spacing:normal;word-spacing:normal;text-transform:none;writing-mode:lr-tb;direction:ltr;text-orientation:mixed;dominant-baseline:auto;baseline-shift:baseline;text-anchor:start;white-space:normal;shape-padding:0;shape-margin:0;inline-size:0;clip-rule:nonzero;display:inline;overflow:visible;visibility:visible;opacity:1;isolation:auto;mix-blend-mode:normal;color-interpolation:sRGB;color-interpolation-filters:linearRGB;solid-color:#000000;solid-opacity:1;vector-effect:none;fill:#ffffff;fill-opacity:1;fill-rule:evenodd;stroke:#000000;stroke-width:0.502709;stroke-linecap:square;stroke-linejoin:round;stroke-miterlimit:2;stroke-dasharray:none;stroke-dashoffset:0;stroke-opacity:1;paint-order:stroke fill markers;color-rendering:auto;image-rendering:auto;shape-rendering:auto;text-rendering:auto;enable-background:accumulate;stop-color:#000000;stop-opacity:1"
       d="m 496.00693,64.083349 c -43.67242,0 -79.12313,35.451918 -79.12305,79.124331 -8e-5,43.67236 35.45063,79.12368 79.12305,79.12429 43.67284,1.6e-4 79.12432,-35.45129 79.12424,-79.12429 8e-5,-43.672943 -35.4514,-79.124468 -79.12424,-79.124331 z"
       id="path26405-2"
       sodipodi:nodetypes="ccccc" />
    <path
       id="rect31006"
       style="opacity:1;fill:#dd7500;fill-opacity:1;fill-rule:evenodd;stroke:none;stroke-width:0.502709;stroke-linecap:square;stroke-linejoin:round;stroke-miterlimit:2;paint-order:stroke fill markers"
       d="m 477.13752,121.71579 -4.59679,-15.4436 16.11649,8.54867 5.29739,-17.994362 7.84796,20.965402 8.74489,-18.190503 -0.67268,15.443593 10.37052,-11.5196 -7.59571,21.30164 11.07116,-6.67077 -16.84503,25.00139 h -21.21763 l -23.48778,-26.03844 z"
       sodipodi:nodetypes="cccccccccccccc" />
    <path
       id="rect31009"
       style="opacity:1;fill:#ffff00;fill-opacity:1;fill-rule:evenodd;stroke:none;stroke-width:0.502709;stroke-linecap:square;stroke-linejoin:round;stroke-miterlimit:2;paint-order:stroke fill markers"
       d="m 486.35887,127.93819 -5.07315,-13.11733 10.14622,9.66983 3.67237,-11.07124 4.62415,14.51874 8.7448,-6.89501 -3.53151,10.25843 h 5.07318 l -11.2955,11.85604 h -7.51162 l -11.29547,-16.36861 z"
       sodipodi:nodetypes="cccccccccccc" />
    <path
       sodipodi:nodetypes="ccsccsccccccccccssssccccsssccscccscscsccssccscscsccscsccssccccssssssssssccssssc"
       d="m 496.25757,143.15562 c -1.9993,0.0132 -3.82754,0.0789 -5.99287,0.28072 -3.35939,0.3133 -7.69968,0.97703 -10.08829,1.6137 -1.92279,0.51259 -2.77146,2.15322 -2.77146,2.15322 l -5.43939,12.19782 c 0,0 -0.47988,0.7087 -0.76251,1.02838 -0.1785,0.20181 -0.58537,0.55746 -0.58537,0.55746 0,0 -0.76742,0.44203 -1.05521,0.76855 -0.33878,0.38452 -0.74067,1.34791 -0.74067,1.34791 l -0.11547,2.58228 0.21902,3.04623 0.20313,7.57775 c 3.4e-4,0.84967 0.53203,1.53274 1.38173,1.5321 h 0.18221 l -0.005,5.27609 h 0.005 v 0.27676 c 0,1.14766 0.92396,2.07162 2.07162,2.07162 h 5.54088 c 1.14766,0 2.07162,-0.92396 2.07162,-2.07162 v -2.90682 -0.57445 l 0.002,-2.05566 h 31.26437 v 5.71315 c 0,1.04671 0.84366,1.88945 1.89045,1.88945 h 5.8804 c 1.04676,0 1.88939,-0.84274 1.88942,-1.88945 v -5.83662 h 0.0315 c 0.84978,0 1.43298,-0.45941 1.4325,-1.30908 l 0.23491,-7.69121 0.15334,-3.17168 c 0,0 0.0869,-1.32735 0.0212,-1.98598 -0.0273,-0.27701 -0.17427,-0.8163 -0.17427,-0.8163 0,0 -0.21902,-0.59146 -0.40713,-0.83821 -0.34169,-0.44834 -1.21748,-1.0403 -1.21748,-1.0403 0,0 -0.53687,-0.3723 -0.75059,-0.59034 -0.36569,-0.37297 -0.91289,-1.27823 -0.91289,-1.27823 l -4.9008,-11.27998 c 0,0 -0.58727,-2.0886 -3.03724,-2.80829 -2.63986,-0.77555 -6.95269,-1.35064 -10.51537,-1.60178 -2.01837,-0.14222 -3.33476,-0.1785 -5.00336,-0.16712 z m 0.10249,3.65444 c 2.20712,-0.0106 6.0564,0.26624 9.06099,0.64106 1.40861,0.17585 4.19199,0.75264 4.19199,0.75264 0,0 0.54484,0.16182 1.02242,0.43799 0.22088,0.12765 0.41749,0.33215 0.55746,0.46293 0.16181,0.15149 0.37728,0.41516 0.5236,0.657 0.15838,0.26166 0.24101,0.49583 0.24101,0.49583 l 4.1124,9.81755 c 0,0 -3.07234,-0.5779 -6.97841,-0.97655 -4.12008,-0.42064 -9.16897,-0.66321 -12.51633,-0.66503 -3.41345,0 -8.57163,0.30069 -12.76121,0.72472 -3.91936,0.39664 -8.08542,1.10307 -8.08542,1.10307 l 4.34832,-10.00376 c 0,0 0.14381,-0.37085 0.38531,-0.70883 0.17373,-0.24312 0.42212,-0.44694 0.59729,-0.59135 0.16075,-0.13242 0.40435,-0.29156 0.65305,-0.40412 0.32864,-0.1491 0.64901,-0.23305 0.64901,-0.23305 0,0 3.91438,-0.66789 7.35969,-1.10098 2.30616,-0.29005 4.87862,-0.40011 6.63891,-0.40917 z m -22.26413,19.48089 c 1.59161,0 2.88195,1.30318 2.88195,2.91084 0,1.60766 -1.29034,2.91086 -2.88195,2.91081 -1.59164,5e-5 -2.88195,-1.30315 -2.88197,-2.91081 0,-1.60766 1.29033,-2.91084 2.88197,-2.91084 z m 43.80854,0 c 1.59167,0 2.88197,1.30318 2.882,2.91084 -3e-5,1.60766 -1.29033,2.91086 -2.882,2.91081 -1.59161,5e-5 -2.88189,-1.30315 -2.88192,-2.91081 3e-5,-1.60766 1.29031,-2.91084 2.88192,-2.91084 z m -37.70817,0.97062 h 31.56302 v 1.21049 c 0,3.18481 -2.56525,5.74802 -5.74993,5.74802 h -20.06515 c -3.1847,0 -5.74794,-2.56321 -5.74794,-5.74802 z"
       style="font-size:30px;line-height:1.15;font-family:'ALS Direct';-inkscape-font-specification:'ALS Direct';opacity:1;fill:#000000;fill-opacity:1;fill-rule:evenodd;stroke:none;stroke-width:0.2;stroke-linecap:round;stroke-linejoin:round;stroke-miterlimit:10;stroke-opacity:1"
       id="path96871" />
    <path
       style="color:#000000;font-style:normal;font-variant:normal;font-weight:normal;font-stretch:normal;font-size:medium;line-height:normal;font-family:sans-serif;font-variant-ligatures:normal;font-variant-position:normal;font-variant-caps:normal;font-variant-numeric:normal;font-variant-alternates:normal;font-variant-east-asian:normal;font-feature-settings:normal;font-variation-settings:normal;text-indent:0;text-align:start;text-decoration:none;text-decoration-line:none;text-decoration-style:solid;text-decoration-color:#000000;letter-spacing:normal;word-spacing:normal;text-transform:none;writing-mode:lr-tb;direction:ltr;text-orientation:mixed;dominant-baseline:auto;baseline-shift:baseline;text-anchor:start;white-space:normal;shape-padding:0;shape-margin:0;inline-size:0;clip-rule:nonzero;display:inline;overflow:visible;visibility:visible;opacity:1;isolation:auto;mix-blend-mode:normal;color-interpolation:sRGB;color-interpolation-filters:linearRGB;solid-color:#000000;solid-opacity:1;vector-effect:none;fill:#ed232a;fill-opacity:1;fill-rule:evenodd;stroke:none;stroke-width:1.69334;stroke-linecap:square;stroke-linejoin:round;stroke-miterlimit:2;stroke-dasharray:none;stroke-dashoffset:0;stroke-opacity:1;paint-order:stroke fill markers;color-rendering:auto;image-rendering:auto;shape-rendering:auto;text-rendering:auto;enable-background:accumulate;stop-color:#000000;stop-opacity:1"
       d="m 496.00693,66.325208 c -42.46066,0 -76.88132,34.421922 -76.88124,76.882472 -8e-5,42.46055 34.42058,76.88187 76.88124,76.88251 42.46113,1.6e-4 76.88267,-34.4214 76.88243,-76.88251 2.4e-4,-42.46108 -34.4213,-76.882602 -76.88243,-76.882472 z m -0.16844,18.669396 c 0.0434,-5.3e-5 0.0866,-5.3e-5 0.13004,0 32.14423,1.32e-4 58.20209,26.057986 58.20224,58.202166 -1.5e-4,32.1441 -26.05801,58.20203 -58.20224,58.20211 -32.14398,-8e-5 -58.20193,-26.05801 -58.20204,-58.20211 1.1e-4,-32.09339 25.97877,-58.130396 58.07203,-58.202166 z"
       id="path26407-3" />
  </g>
</svg>
