<svg width="158.75mm" height="158.75mm" version="1.1" viewBox="0 0 158.75 158.75" xmlns="http://www.w3.org/2000/svg"><g transform="translate(-590.23 -67.722)" fill-rule="evenodd"><path d="m669.61 67.973c-43.672 0-79.123 35.452-79.123 79.124-8e-5 43.672 35.451 79.124 79.123 79.124 43.673 1.6e-4 79.124-35.451 79.124-79.124 1e-4 -43.673-35.451-79.124-79.124-79.124z" color="#000000" color-rendering="auto" dominant-baseline="auto" enable-background="accumulate" fill="#fff" image-rendering="auto" shape-rendering="auto" solid-color="#000000" stop-color="#000000" stroke="#000" stroke-linecap="square" stroke-linejoin="round" stroke-miterlimit="2" stroke-width=".50271" style="font-feature-settings:normal;font-variant-alternates:normal;font-variant-caps:normal;font-variant-east-asian:normal;font-variant-ligatures:normal;font-variant-numeric:normal;font-variant-position:normal;font-variation-settings:normal;inline-size:0;isolation:auto;mix-blend-mode:normal;paint-order:stroke fill markers;shape-margin:0;shape-padding:0;text-decoration-color:#000000;text-decoration-line:none;text-decoration-style:solid;text-indent:0;text-orientation:mixed;text-transform:none;white-space:normal"/><path d="m637.82 107.4v54.038h63.569v-54.038zm0.0562 58.271v1.0648h63.513v-1.0648zm-0.0562 5.2964v15.892h7.4287v-6.8976h20.288a4.2153 4.2153 0 0 0 4.0852 3.1737 4.2153 4.2153 0 0 0 4.0838-3.1737h20.256v6.8976h7.4273v-15.892h-7.4273v6.8949h-20.26a4.2153 4.2153 0 0 0-4.0797-3.1573 4.2153 4.2153 0 0 0-4.0798 3.1573h-20.293v-6.8949z" style="paint-order:stroke fill markers"/><rect x="639.95" y="109.53" width="59.308" height="49.779" fill="#dd7500" style="paint-order:stroke fill markers"/><path d="m669.61 70.215c-42.461 0-76.881 34.422-76.881 76.882-8e-5 42.461 34.421 76.882 76.881 76.883 42.461 1.3e-4 76.883-34.421 76.882-76.883 2.4e-4 -42.461-34.421-76.883-76.882-76.882zm-0.16844 18.669c0.0434-6e-5 0.0866-6e-5 0.13004 0 32.144 1.3e-4 58.202 26.058 58.202 58.202-1.6e-4 32.144-26.058 58.202-58.202 58.202-32.144-1.1e-4 -58.202-26.058-58.202-58.202 1.1e-4 -32.093 25.979-58.13 58.072-58.202z" color="#000000" color-rendering="auto" dominant-baseline="auto" enable-background="accumulate" fill="#ed232a" image-rendering="auto" shape-rendering="auto" solid-color="#000000" stop-color="#000000" style="font-feature-settings:normal;font-variant-alternates:normal;font-variant-caps:normal;font-variant-east-asian:normal;font-variant-ligatures:normal;font-variant-numeric:normal;font-variant-position:normal;font-variation-settings:normal;inline-size:0;isolation:auto;mix-blend-mode:normal;paint-order:stroke fill markers;shape-margin:0;shape-padding:0;text-decoration-color:#000000;text-decoration-line:none;text-decoration-style:solid;text-indent:0;text-orientation:mixed;text-transform:none;white-space:normal"/></g></svg>