<?xml version="1.0" encoding="UTF-8" standalone="no"?>
<svg
   xmlns:dc="http://purl.org/dc/elements/1.1/"
   xmlns:cc="http://creativecommons.org/ns#"
   xmlns:rdf="http://www.w3.org/1999/02/22-rdf-syntax-ns#"
   xmlns:svg="http://www.w3.org/2000/svg"
   xmlns="http://www.w3.org/2000/svg"
   xmlns:sodipodi="http://sodipodi.sourceforge.net/DTD/sodipodi-0.dtd"
   xmlns:inkscape="http://www.inkscape.org/namespaces/inkscape"
   sodipodi:docname="tt2.svg"
   inkscape:version="1.0 (4035a4fb49, 2020-05-01)"
   id="svg16841"
   version="1.1"
   viewBox="0 0 132.29167 132.29167"
   height="132.29167mm"
   width="132.29167mm">
  <defs
     id="defs16835" />
  <sodipodi:namedview
     inkscape:window-maximized="1"
     inkscape:window-y="-9"
     inkscape:window-x="-9"
     inkscape:window-height="1001"
     inkscape:window-width="1920"
     showgrid="false"
     inkscape:document-rotation="0"
     inkscape:current-layer="layer1"
     inkscape:document-units="mm"
     inkscape:cy="183.23042"
     inkscape:cx="178.99351"
     inkscape:zoom="0.98994949"
     inkscape:pageshadow="2"
     inkscape:pageopacity="0.0"
     borderopacity="1.0"
     bordercolor="#666666"
     pagecolor="#ffffff"
     id="base" />
  <metadata
     id="metadata16838">
    <rdf:RDF>
      <cc:Work
         rdf:about="">
        <dc:format>image/svg+xml</dc:format>
        <dc:type
           rdf:resource="http://purl.org/dc/dcmitype/StillImage" />
        <dc:title></dc:title>
      </cc:Work>
    </rdf:RDF>
  </metadata>
  <g
     transform="translate(-84.117179,-46.319785)"
     id="layer1"
     inkscape:groupmode="layer"
     inkscape:label="Layer 1">
    <path
       id="path26312"
       style="opacity:1;fill:#ee252c;fill-opacity:1;fill-rule:evenodd;stroke:none;stroke-width:0.264582"
       d="m 122.86506,46.319785 h 54.79677 l 38.74702,38.747197 v 54.797048 l -38.74702,38.74743 H 122.86506 L 84.117179,139.86403 V 85.066982 Z"
       sodipodi:nodetypes="ccccccccc" />
    <path
       id="path16830"
       style="opacity:1;fill:#ffffff;fill-opacity:1;fill-rule:evenodd;stroke:none;stroke-width:0.264582"
       d="M 124.23818,49.706746 87.447299,86.497053 v 52.028507 l 36.790881,36.79032 h 52.029 l 36.78936,-36.79032 V 86.497053 L 176.26718,49.706746 Z m 1.06519,2.533893 h 49.91831 l 35.29796,35.298135 v 49.918566 l -35.29796,35.29814 H 125.30337 L 90.005408,137.45734 V 87.538774 Z" />
    <path
       id="rect16020"
       style="opacity:1;fill:#ffffff;fill-opacity:1;fill-rule:evenodd;stroke-width:0.264582;stroke-linecap:square;stroke-linejoin:round;paint-order:fill markers stroke"
       d="m 177.11811,90.303577 v 44.304933 h 5.924 v -21.05095 h 5.98305 l 6.21775,21.05095 h 5.924 l -6.4426,-21.81103 c 3.92622,-1.54356 6.68334,-5.27788 6.68334,-9.66469 v -2.40368 c 0,-5.775718 -4.77771,-10.425533 -10.71316,-10.425533 h -7.65238 z m 5.92249,5.990653 h 7.90446 c 2.48672,0 4.48862,2.001902 4.48862,4.48864 v 2.3098 c 0,2.48673 -2.0019,4.48863 -4.48862,4.48863 h -7.90446 z" />
    <path
       id="rect16061"
       style="opacity:1;fill:#ffffff;fill-opacity:1;fill-rule:evenodd;stroke-width:0.264582;stroke-linecap:square;stroke-linejoin:round;paint-order:fill markers stroke"
       d="m 137.73884,90.361115 v 32.188115 c 0,6.72811 5.41594,12.14482 12.14402,12.14482 6.72807,0 12.14476,-5.41671 12.14476,-12.14482 V 90.361115 h -5.96109 v 32.404635 c 0,3.26465 -2.62834,5.89299 -5.89297,5.89299 h -0.58596 c -3.26464,0 -5.8922,-2.62834 -5.8922,-5.89299 V 90.361115 Z" />
    <g
       transform="matrix(2.1194809,0,0,2.1194809,-17.940763,-81.545224)"
       style="font-size:31.1478px;line-height:1.46;font-family:'Russian Road Sign';-inkscape-font-specification:'Russian Road Sign';text-align:center;text-anchor:middle;opacity:1;fill:#ffffff;fill-opacity:1;stroke-width:0.124834"
       id="text17437"
       aria-label="D">
      <path
         sodipodi:nodetypes="sscsccscsssassscccssssss"
         id="path17439"
         style="font-style:normal;font-variant:normal;font-weight:normal;font-stretch:normal;font-family:'Highway Gothic Narrow';-inkscape-font-specification:'Highway Gothic Narrow';fill:#ffffff;fill-opacity:1;stroke-width:0.124834"
         d="m 66.681866,91.54223 c 0,2.032293 -0.259681,4.598674 -0.722475,6.231334 -0.171449,0.604843 -0.440429,1.100743 -0.726361,1.522539 -1.229535,1.833097 -2.86204,2.680677 -5.000856,2.680677 H 55.250349 V 81.107757 h 5.170535 c 2.138816,0 3.837286,1.193079 4.827909,2.709859 0.575866,0.934424 0.913586,2.235349 1.131281,3.601846 0.198349,1.24506 0.301792,2.519 0.301792,4.122768 z m -2.768602,-0.06226 c 0.04869,-0.653666 -0.01,-1.47982 -0.07164,-2.216442 -0.06095,-0.727926 -0.145642,-1.423 -0.294412,-2.171552 -0.151347,-0.761516 -0.272616,-1.339214 -0.99575,-2.227515 -0.516861,-0.634914 -1.133846,-0.972979 -2.255167,-0.972921 H 58.05853 v 7.619578 l -8.8e-5,7.690289 h 2.237764 c 1.121321,0 1.787276,-0.481995 2.288469,-0.990373 0.518497,-0.52593 0.801626,-1.514656 0.99143,-2.734331 0.128822,-0.827808 0.220667,-1.762003 0.290682,-2.7301 0.02764,-0.382154 0.01273,-0.813583 0.04648,-1.266633 z" />
    </g>
  </g>
</svg>
