<svg width="132.29mm" height="132.29mm" version="1.1" viewBox="0 0 132.29 132.29" xmlns="http://www.w3.org/2000/svg"><g transform="translate(-84.117 -46.32)"><path d="m122.87 46.32h54.797l38.747 38.747v54.797l-38.747 38.747h-54.797l-38.748-38.747v-54.797z" fill="#ee252c" fill-rule="evenodd"/><g fill="#fff"><g fill-rule="evenodd"><path d="m124.24 49.707-36.791 36.79v52.029l36.791 36.79h52.029l36.789-36.79v-52.029l-36.789-36.79zm1.0652 2.5339h49.918l35.298 35.298v49.919l-35.298 35.298h-49.918l-35.298-35.298v-49.919z"/><path d="m177.12 90.304v44.305h5.924v-21.051h5.983l6.2178 21.051h5.924l-6.4426-21.811c3.9262-1.5436 6.6833-5.2779 6.6833-9.6647v-2.4037c0-5.7757-4.7777-10.426-10.713-10.426h-7.6524zm5.9225 5.9907h7.9045c2.4867 0 4.4886 2.0019 4.4886 4.4886v2.3098c0 2.4867-2.0019 4.4886-4.4886 4.4886h-7.9045z" stroke-linecap="square" stroke-linejoin="round" stroke-width=".26458" style="paint-order:fill markers stroke"/><path d="m137.74 90.361v32.188c0 6.7281 5.4159 12.145 12.144 12.145 6.7281 0 12.145-5.4167 12.145-12.145v-32.188h-5.9611v32.405c0 3.2646-2.6283 5.893-5.893 5.893h-0.58596c-3.2646 0-5.8922-2.6283-5.8922-5.893v-32.405z" stroke-linecap="square" stroke-linejoin="round" stroke-width=".26458" style="paint-order:fill markers stroke"/></g><g transform="matrix(2.1195 0 0 2.1195 -17.941 -81.545)" stroke-width=".12483" aria-label="D"><path d="m66.682 91.542c0 2.0323-0.25968 4.5987-0.72248 6.2313-0.17145 0.60484-0.44043 1.1007-0.72636 1.5225-1.2295 1.8331-2.862 2.6807-5.0009 2.6807h-4.9818v-20.869h5.1705c2.1388 0 3.8373 1.1931 4.8279 2.7099 0.57587 0.93442 0.91359 2.2353 1.1313 3.6018 0.19835 1.2451 0.30179 2.519 0.30179 4.1228zm-2.7686-0.06226c0.04869-0.65367-0.01-1.4798-0.07164-2.2164-0.06095-0.72793-0.14564-1.423-0.29441-2.1716-0.15135-0.76152-0.27262-1.3392-0.99575-2.2275-0.51686-0.63491-1.1338-0.97298-2.2552-0.97292h-2.2378v7.6196l-8.8e-5 7.6903h2.2378c1.1213 0 1.7873-0.482 2.2885-0.99037 0.5185-0.52593 0.80163-1.5147 0.99143-2.7343 0.12882-0.82781 0.22067-1.762 0.29068-2.7301 0.02764-0.38215 0.01273-0.81358 0.04648-1.2666z" fill="#fff" stroke-width=".12483"/></g></g></g></svg>