<svg width="600" height="600.01" version="1.1" xmlns="http://www.w3.org/2000/svg"><g transform="translate(1280.7 -1161.9)"><g transform="translate(-108.37 1759.9)"><rect x="578.74" y="298.17" width="0" height="27.202" rx="249.48" ry="27.202" color="#000000"/><g transform="matrix(.88381 0 0 .88381 -1569.9 -1726.3)"><g transform="matrix(1.1315 0 0 1.1315 -1464.3 -762.13)"><g transform="translate(-108.37 1759.9)"><rect x="578.74" y="298.17" width="0" height="27.202" rx="249.48" ry="27.202" color="#000000"/></g></g></g><path d="m-872.38-597.07c-165.06 0-299.05 133.99-299.05 299.05-7e-4 165.06 133.99 299.05 299.05 299.05 165.06 5.3e-4 299.05-133.99 299.05-299.05 5.3e-4 -165.06-133.99-299.05-299.05-299.05z" color="#000000" color-rendering="auto" dominant-baseline="auto" enable-background="accumulate" fill="#fff" fill-rule="evenodd" image-rendering="auto" shape-rendering="auto" solid-color="#000000" stop-color="#000000" stroke="#000" stroke-linecap="square" stroke-linejoin="round" stroke-miterlimit="2" stroke-width="1.9" style="font-feature-settings:normal;font-variant-alternates:normal;font-variant-caps:normal;font-variant-east-asian:normal;font-variant-ligatures:normal;font-variant-numeric:normal;font-variant-position:normal;font-variation-settings:normal;inline-size:0;isolation:auto;mix-blend-mode:normal;paint-order:stroke fill markers;shape-margin:0;shape-padding:0;text-decoration-color:#000000;text-decoration-line:none;text-decoration-style:solid;text-indent:0;text-orientation:mixed;text-transform:none;white-space:normal"/><path d="m-872.37-448.09a110.5 68.033 0 0 0-110.5 68.034 110.5 68.033 0 0 0 110.5 68.033 110.5 68.033 0 0 0 110.5-68.033 110.5 68.033 0 0 0-110.5-68.034zm0.0623 14.9a95.01 53.298 0 0 1 95.009 53.299 95.01 53.298 0 0 1-95.009 53.299 95.01 53.298 0 0 1-95.009-53.299 95.01 53.298 0 0 1 95.009-53.299zm-110.11 121.4v17.021h219.74v-17.021zm0 27.069v19.986h219.74v-19.986zm14.91 29.93c-2.7065 0-4.8839 2.1774-4.8839 4.884v45.099c0 2.7065 2.1774 4.8891 4.8839 4.8891h11.273c2.7065 0 4.8839-2.1826 4.8839-4.8891v-45.099c0-2.7066-2.1774-4.884-4.8839-4.884zm26.986 0c-2.7066 0-4.8891 2.1774-4.8891 4.884v45.099c0 2.7065 2.1826 4.8891 4.8891 4.8891h11.273c2.7065 0 4.8839-2.1826 4.8839-4.8891v-18.366h39.263a13.613 13.613 0 0 0 12.556 8.3606 13.613 13.613 0 0 0 12.556-8.3606h39.387v18.366c0 2.7065 2.1774 4.8891 4.8839 4.8891h11.273c2.7065 0 4.8839-2.1826 4.8839-4.8891v-45.099c0-2.7066-2.1774-4.884-4.8839-4.884h-11.273c-2.7065 0-4.8839 2.1774-4.8839 4.884v16.157h-39.413a13.613 13.613 0 0 0-12.531-8.2933 13.613 13.613 0 0 0-12.531 8.2933h-39.289v-16.157c0-2.7066-2.1774-4.884-4.8839-4.884zm151.78 0c-2.7065 0-4.8839 2.1774-4.8839 4.884v45.099c0 2.7065 2.1774 4.8891 4.8839 4.8891h11.273c2.7065 0 4.8891-2.1826 4.8891-4.8891v-45.099c0-2.7066-2.1826-4.884-4.8891-4.884z" fill-rule="evenodd" stroke-linecap="square" stroke-linejoin="round" stroke-miterlimit="2" stroke-width="1.9" style="paint-order:stroke fill markers"/><g><path d="m-786.2-174.7c-9.9684-0.14834-18.029 4.8409-25.782 8.844-7.6773 3.9642-14.737 7.1884-21.358 7.1445-5.8559-0.0389-12.656-3.1808-19.665-6.7021-6.9871-3.5104-15.304-8.3683-22.839-8.3552-10.001 0.0186-17.233 4.9664-23.771 8.2613-6.7708 3.4123-12.936 5.9757-18.627 6.0313-2.0106 0.0185-6.8113-0.83764-10.527-2.4097-3.647-1.5429-6.5374-2.9678-6.6447-3.0208-0.16397-0.10066-3.6014-2.1952-8.1366-4.2281-4.646-2.0826-10.03-4.9012-15.669-4.8885-7.4846 0.0186-15.694 3.6885-22.658 6.7294-0.23496 0.10305-0.45317 0.2-0.6848 0.30126v10.141c1.3075-0.67767 2.7535-1.3802 4.3064-2.0583 3.3087-1.4449 7.0866-2.8877 10.591-3.7914 3.3576-0.86587 6.4687-1.2235 8.4694-1.228 2.282-8e-3 7.8346 1.2995 11.961 3.149 4.1259 1.8495 7.3799 3.5926 7.3799 3.5926l0.0501 0.0283 0.0477 0.0283s3.3841 1.9779 7.6172 3.7688c4.233 1.7908 8.7808 4.0319 13.996 3.981 8.9396-0.0872 16.803-5.3218 23.473-8.5784 6.7409-3.2912 11.57-5.7475 18.78-5.7141 5.8714 0.0283 12.235 2.9728 19.205 6.5073 6.9657 3.5323 15.839 8.598 23.278 8.55 7.7801-0.0498 18.07-5.2747 25.669-9.4058 7.5809-4.1214 14.778-6.681 21.388-6.5827 2.3693 0.0358 6.3328 0.4754 10.48 1.7279 4.6249 1.3967 9.6005 3.351 13.553 5.1314 0.0238 0.0106 0.0479 0.0212 0.0731 0.0358v-10.078c-7.5686-3.3597-16.197-6.7931-23.957-6.9086zm0 21.022c-9.9684-0.14834-18.029 4.8414-25.782 8.8446-7.6773 3.9642-14.737 7.1879-21.358 7.1439-5.8559-0.0389-12.656-3.1808-19.665-6.7021-6.9871-3.5104-15.304-8.3683-22.839-8.3552-10.001 0.0185-17.233 4.967-23.771 8.2619-6.7708 3.4122-12.936 5.9751-18.627 6.0307-2.0106 0.0185-6.8113-0.83762-10.527-2.4098-3.647-1.5429-6.5374-2.9678-6.6447-3.0208-0.16397-0.10039-3.6014-2.1952-8.1366-4.228-4.646-2.0826-10.03-4.9013-15.669-4.8885-7.4846 0.0185-15.694 3.6885-22.658 6.7294-0.23496 0.10304-0.45317 0.19946-0.6848 0.30129v10.141c1.3075-0.67769 2.7535-1.3802 4.3064-2.0584 3.3087-1.4449 7.0866-2.8876 10.591-3.7914 3.3576-0.86588 6.4687-1.2235 8.4694-1.2281 2.282-8e-3 7.8346 1.2996 11.961 3.149 4.1259 1.8495 7.3799 3.5932 7.3799 3.5932l0.0501 0.0283 0.0477 0.0283s3.3841 1.978 7.6172 3.7688c4.233 1.791 8.7808 4.0326 13.996 3.9816 8.9396-0.0871 16.803-5.3224 23.473-8.579 6.7409-3.2912 11.57-5.7475 18.78-5.7141 5.8714 0.0283 12.235 2.9727 19.205 6.5073 6.9657 3.5324 15.839 8.5985 23.278 8.5506 7.7801-0.0501 18.07-5.2753 25.669-9.4064 7.5809-4.1214 14.778-6.6811 21.388-6.5827 2.3693 0.0358 6.3328 0.47535 10.48 1.7279 4.6249 1.3967 9.6005 3.3515 13.553 5.132 0.0238 0.0106 0.0479 0.0212 0.0731 0.0358v-10.078c-7.5686-3.3596-16.197-6.7931-23.957-6.9085z" color="#000000" color-rendering="auto" dominant-baseline="auto" enable-background="accumulate" fill="#00408c" image-rendering="auto" shape-rendering="auto" solid-color="#000000" stop-color="#000000" style="font-feature-settings:normal;font-variant-alternates:normal;font-variant-caps:normal;font-variant-east-asian:normal;font-variant-ligatures:normal;font-variant-numeric:normal;font-variant-position:normal;font-variation-settings:normal;inline-size:0;isolation:auto;mix-blend-mode:normal;shape-margin:0;shape-padding:0;text-decoration-color:#000000;text-decoration-line:none;text-decoration-style:solid;text-indent:0;text-orientation:mixed;text-transform:none;white-space:normal"/><path d="m-787.41-379.96c0 23.739-41.425 42.857-84.942 42.984-43.283 0.12609-84.942-19.244-84.942-42.984 0-23.739 42.135-43.779 84.942-42.984 44.103 0.81947 84.942 19.244 84.942 42.984z" fill="#dd7500" fill-rule="evenodd" stroke-linecap="square" stroke-linejoin="round" stroke-miterlimit="2" stroke-width="1.9" style="paint-order:stroke fill markers"/><path d="m-872.38-588.6c-160.48 0-290.57 130.1-290.57 290.58-8e-4 160.48 130.09 290.58 290.57 290.58 160.48 5.83e-4 290.58-130.1 290.58-290.58 3.2e-4 -160.48-130.1-290.58-290.58-290.58zm-0.63629 70.562c0.17165-2.6e-4 0.33058-2.6e-4 0.49248 0 121.49 5.3e-4 219.98 98.487 219.98 219.98-7.4e-4 121.49-98.488 219.98-219.98 219.98-121.49-5.8e-4 -219.98-98.487-219.98-219.98 0-121.3 98.187-219.71 219.49-219.98z" color="#000000" color-rendering="auto" dominant-baseline="auto" enable-background="accumulate" fill="#ed232a" fill-rule="evenodd" image-rendering="auto" shape-rendering="auto" solid-color="#000000" stop-color="#000000" style="font-feature-settings:normal;font-variant-alternates:normal;font-variant-caps:normal;font-variant-east-asian:normal;font-variant-ligatures:normal;font-variant-numeric:normal;font-variant-position:normal;font-variation-settings:normal;inline-size:0;isolation:auto;mix-blend-mode:normal;paint-order:stroke fill markers;shape-margin:0;shape-padding:0;text-decoration-color:#000000;text-decoration-line:none;text-decoration-style:solid;text-indent:0;text-orientation:mixed;text-transform:none;white-space:normal"/></g></g></g></svg>