<svg width="599.99" height="600" version="1.1" xmlns="http://www.w3.org/2000/svg"><g transform="translate(-1132.1 -644.88)"><g transform="translate(-108.37 1759.9)"><rect x="578.74" y="298.17" width="0" height="27.202" rx="249.48" ry="27.202" color="#000000"/><g transform="matrix(.88381 0 0 .88381 -1569.9 -1726.3)"><g transform="matrix(1.1315 0 0 1.1315 -1464.3 -762.13)"><g transform="translate(-108.37 1759.9)"><rect x="578.74" y="298.17" width="0" height="27.202" rx="249.48" ry="27.202" color="#000000"/></g></g></g><g fill-rule="evenodd"><path d="m1540.5-1114.1c-165.06 0-299.05 133.99-299.04 299.05-6e-4 165.06 133.99 299.05 299.04 299.05 165.06 5.3e-4 299.05-133.99 299.05-299.05 5e-4 -165.06-133.99-299.05-299.05-299.05z" color="#000000" color-rendering="auto" dominant-baseline="auto" enable-background="accumulate" fill="#fff" image-rendering="auto" shape-rendering="auto" solid-color="#000000" stop-color="#000000" stroke="#000" stroke-linecap="square" stroke-linejoin="round" stroke-miterlimit="2" stroke-width="1.9" style="font-feature-settings:normal;font-variant-alternates:normal;font-variant-caps:normal;font-variant-east-asian:normal;font-variant-ligatures:normal;font-variant-numeric:normal;font-variant-position:normal;font-variation-settings:normal;inline-size:0;isolation:auto;mix-blend-mode:normal;paint-order:stroke fill markers;shape-margin:0;shape-padding:0;text-decoration-color:#000000;text-decoration-line:none;text-decoration-style:solid;text-indent:0;text-orientation:mixed;text-transform:none;white-space:normal"/><path d="m1540.5-1105.6c-160.48 0-290.57 130.1-290.57 290.58-5e-4 160.48 130.09 290.58 290.57 290.58 160.48 5.3e-4 290.58-130.1 290.58-290.58 3e-4 -160.48-130.1-290.58-290.58-290.58zm-0.6363 70.558c0.164-6e-4 0.3276-6e-4 0.4913 0 121.49 2e-4 219.97 98.49 219.97 219.98-2e-4 52.43-18.371 100.55-48.99 138.35l-309.49-309.2c37.696-30.598 85.694-49.007 138.02-49.124zm-170.24 81.305 309.32 309.47c-37.83 30.733-86.047 49.176-138.59 49.176-121.49-5.3e-4 -219.97-98.485-219.97-219.97 3e-4 -52.571 18.463-100.83 49.238-138.67z" color="#000000" color-rendering="auto" dominant-baseline="auto" enable-background="accumulate" fill="#ed232a" image-rendering="auto" shape-rendering="auto" solid-color="#000000" stop-color="#000000" style="font-feature-settings:normal;font-variant-alternates:normal;font-variant-caps:normal;font-variant-east-asian:normal;font-variant-ligatures:normal;font-variant-numeric:normal;font-variant-position:normal;font-variation-settings:normal;inline-size:0;isolation:auto;mix-blend-mode:normal;paint-order:stroke fill markers;shape-margin:0;shape-padding:0;text-decoration-color:#000000;text-decoration-line:none;text-decoration-style:solid;text-indent:0;text-orientation:mixed;text-transform:none;white-space:normal"/><path d="m1644.8-935.57c-5.1921 0.037-9.9423 0.20373-15.565 0.72868-8.7275 0.81387-20.001 2.5371-26.206 4.1911-4.9952 1.3317-7.204 5.5966-7.204 5.5966l-14.129 31.689s-1.2451 1.8413-1.9794 2.6716c-0.4635 0.52442-1.5245 1.447-1.5245 1.447s-1.9911 1.1465-2.7388 1.9947c-0.88 0.99909-1.9225 3.5037-1.9225 3.5037l-0.2998 6.7079 0.5684 7.9118 0.527 19.689c0 2.2075 1.3791 3.981 3.5865 3.9792h0.4755v14.423c0 2.9814 2.3982 5.3849 5.3796 5.3849h14.397c2.9814 0 5.3796-2.4035 5.3796-5.3849v-14.382h81.222v14.842c0 2.7192 2.1898 4.9095 4.9092 4.9095h15.276c2.7195 0 4.9092-2.1903 4.9095-4.9095v-15.162h0.082c2.2075 0 3.722-1.193 3.7206-3.4005l0.6099-19.984 0.398-8.2375s0.2275-3.4516 0.058-5.1627c-0.072-0.71968-0.4548-2.1186-0.4548-2.1186s-0.5657-1.5346-1.0544-2.1757c-0.8877-1.1647-3.1627-2.7028-3.1627-2.7028s-1.3981-0.96839-1.9534-1.5349c-0.9499-0.96893-2.3718-3.3227-2.3718-3.3227l-12.728-29.301s-1.5264-5.427-7.8911-7.2968c-6.8581-2.0146-18.061-3.5077-27.317-4.1599-5.2413-0.36937-8.6648-0.46303-12.997-0.43419zm0.2688 9.4932c5.7336-0.0291 15.734 0.69005 23.539 1.664 3.6592 0.45668 10.893 1.9585 10.893 1.9585s1.4158 0.41911 2.6565 1.1369c0.5736 0.3318 1.0832 0.86442 1.4467 1.2042 0.4207 0.39345 0.979 1.0771 1.3592 1.7053 0.4115 0.67999 0.6253 1.287 0.6253 1.287l10.682 25.503s-7.9808-1.5016-18.128-2.5374c-10.704-1.0925-23.82-1.7212-32.516-1.7259-8.8677 0-22.267 0.78451-33.151 1.8863-10.182 1.0303-21.002 2.8628-21.002 2.8628l11.297-25.988s0.3701-0.96178 0.9975-1.84c0.4511-0.63131 1.0954-1.1647 1.5502-1.5399 0.4178-0.34423 1.0544-0.75646 1.7002-1.0491 0.8539-0.38683 1.6847-0.60459 1.6847-0.60459s10.17-1.7325 19.121-2.8578c5.9911-0.75355 12.672-1.0409 17.245-1.0644zm-57.838 50.608c4.135 0 7.4882 3.3841 7.4882 7.5606 0 4.1763-3.3532 7.5657-7.4882 7.5654-4.135 2.7e-4 -7.4881-3.3891-7.4881-7.5654 0-4.1766 3.3531-7.5606 7.4881-7.5606zm113.81 0c4.1348 0 7.4879 3.3841 7.4882 7.5606-3e-4 4.1763-3.3534 7.5657-7.4882 7.5654-4.135 2.7e-4 -7.4881-3.3891-7.4881-7.5654 0-4.1766 3.3531-7.5606 7.4881-7.5606zm-97.96 2.5221h81.997v3.147c0 8.2737-6.6666 14.93-14.94 14.93h-52.127c-8.2735 0-14.93-6.656-14.93-14.93zm-117.56 105.95c-7.4115 0-13.379 5.9564-13.379 13.359v0.76995l12.341 0.0265 0.403 7.8395-11.007 6.4184v6.683l25.022-15.56v-6.1702c0-7.4027-5.9679-13.364-13.38-13.364zm14.046 23.503c-0.4808 0-0.9872 0.0688-1.4262 0.19051-1.0401 0.28787-1.7725 0.85277-1.7725 0.85277l-22.056 14.625-12.909 2.0879-0.4289-1.9172-20.144 4.9198 4.8992 11.426s4.0778-0.23019 8.0511 1.0388c4.7113 1.5044 9.6324 4.733 12.491 7.5707 2.8575 2.8377 5.3095 7.0968 6.8679 11.824 1.3518 4.1011 0.8176 6.1173 2.0051 8.9246 0.8028 1.8971 1.8542 3.7894 3.3849 5.168 1.4909 1.3428 3.4039 2.28 5.3537 2.7544 0.2712 0.0661 0.8371 3e-3 0.8371 3e-3l34.981 0.0767s-1.5978-6.2647-1.0904-11.493c0.5779-5.9482 3.4199-11.155 6.346-14.935 2.544-3.2859 7.3304-7.096 12.31-8.9868 4.9934-1.896 10.18-1.8656 10.18-1.8656v-6.1753l-20.981 4.0876-7.4985-9.3382-17.508 14.18-13.333 2.6147s-2.2699 0.66491-3.0748 1.4677c-0.5456 0.54452-1.0025 2.0879-1.0025 2.0879l-1.0645 5.0023s-7.0786-4.5232-9.9843-7.5035c-3.2176-3.301-8.0255-11.261-8.0255-11.261l10.961-1.8138s0.3733-0.0953 0.5477-0.14553c0.3111-0.09 0.894-0.3773 0.894-0.3773l12.175-7.6742 1.664 1.669 8.4078 13.012 17.24-13.927-12.072-15.431s-0.8798-1.1253-2.0516-1.9119c-0.5827-0.39159-1.3796-0.63898-1.8966-0.739-0.3429-0.0661-0.7956-0.10583-1.2766-0.0926zm-53.776 35.813c-14.023 0-25.467 11.452-25.467 25.467s11.444 25.467 25.467 25.467c14.023 0 25.472-11.451 25.472-25.467 0-14.015-11.449-25.467-25.472-25.467zm101.73 0c-14.023 0-25.467 11.452-25.467 25.467s11.444 25.467 25.467 25.467 25.472-11.451 25.472-25.467c0-14.015-11.449-25.467-25.472-25.467zm-101.73 7.9842c9.6961 0 17.477 7.7784 17.477 17.482s-7.7813 17.477-17.477 17.477c-9.6964 0-17.472-7.7734-17.472-17.477s7.7758-17.482 17.472-17.482zm101.73 0c9.6961 0 17.472 7.7784 17.472 17.482s-7.7761 17.477-17.472 17.477c-9.6962 0-17.478-7.7734-17.478-17.477s7.7813-17.482 17.478-17.482z"/></g></g></g></svg>