<svg width="599.99" height="600" version="1.1" xmlns="http://www.w3.org/2000/svg"><g transform="translate(-354.69 -507.17)"><g transform="translate(-108.37 1759.9)"><rect x="578.74" y="298.17" width="0" height="27.202" rx="249.48" ry="27.202" color="#000000"/><g transform="matrix(.88381 0 0 .88381 -1569.9 -1726.3)"><g transform="matrix(1.1315 0 0 1.1315 -1464.3 -762.13)"><g transform="translate(-108.37 1759.9)"><rect x="578.74" y="298.17" width="0" height="27.202" rx="249.48" ry="27.202" color="#000000"/></g></g></g><g fill-rule="evenodd"><path d="m763.05-1251.8c-165.06 0-299.05 133.99-299.04 299.05-5.3e-4 165.06 133.99 299.05 299.04 299.05 165.06 5.3e-4 299.05-133.99 299.05-299.05 5e-4 -165.06-133.99-299.05-299.05-299.05z" color="#000000" color-rendering="auto" dominant-baseline="auto" enable-background="accumulate" fill="#fff" image-rendering="auto" shape-rendering="auto" solid-color="#000000" stop-color="#000000" stroke="#000" stroke-linecap="square" stroke-linejoin="round" stroke-miterlimit="2" stroke-width="1.9" style="font-feature-settings:normal;font-variant-alternates:normal;font-variant-caps:normal;font-variant-east-asian:normal;font-variant-ligatures:normal;font-variant-numeric:normal;font-variant-position:normal;font-variation-settings:normal;inline-size:0;isolation:auto;mix-blend-mode:normal;paint-order:stroke fill markers;shape-margin:0;shape-padding:0;text-decoration-color:#000000;text-decoration-line:none;text-decoration-style:solid;text-indent:0;text-orientation:mixed;text-transform:none;white-space:normal"/><path d="m764.36-1123c-5.2099 0.034-9.9721 0.2039-15.614 0.7293-8.754 0.8164-20.065 2.5459-26.29 4.2049-5.0104 1.3357-7.2202 5.6116-7.2202 5.6116l-14.042 31.689s-1.2496 1.8463-1.9861 2.6794c-0.46505 0.5259-1.5258 1.4533-1.5258 1.4533s-2.0016 1.1506-2.7515 2.0014c-0.88279 1.002-1.9292 3.5119-1.9292 3.5119l-0.29998 6.7288 0.56892 7.9393v19.752c3e-3 2.2141 1.7838 3.9928 3.998 3.9928h0.47584l-0.0106 20.492h25.24l0.0106-20.492h81.072v14.73c0 2.7276 2.196 4.9239 4.9238 4.9239h15.325c2.7278 0 4.9238-2.1963 4.9238-4.9239v-14.73h0.0826c2.2142 0 3.9992-1.7787 3.998-3.9928l0.74475-19.049v-15.568s-0.57027-1.5396-1.0603-2.1826c-0.89043-1.1683-3.3101-2.9068-3.3101-2.9068s-1.2014-1.0507-1.7585-1.6188c-0.95298-0.9718-2.705-3.0567-2.705-3.0567l-12.506-29.993s-1.529-5.4429-7.9133-7.3183c-6.879-2.021-18.118-3.5196-27.402-4.1739-5.2595-0.3707-8.6907-0.4637-13.039-0.4346zm0.26894 9.5218c5.7512-0.029 15.781 0.6938 23.61 1.6707 3.6707 0.4579 10.923 1.9601 10.923 1.9601s1.4192 0.4232 2.6636 1.1432c0.57557 0.3329 1.0886 0.8641 1.4534 1.2049 0.42179 0.3946 0.98414 1.0817 1.3654 1.712 0.4126 0.6821 0.6258 1.2931 0.6258 1.2931l10.717 25.555s-8.0064-1.5057-18.185-2.5446c-10.736-1.096-23.892-1.7279-32.615-1.7326-8.8949 0-22.334 0.7828-33.251 1.8878-10.213 1.0336-21.071 2.8756-21.071 2.8756l11.332-26.041s0.37407-0.9658 1.0034-1.8466c0.45262-0.6334 1.1004-1.1649 1.5568-1.5412 0.41898-0.3455 1.0536-0.7615 1.7016-1.055 0.85648-0.3882 1.6913-0.605 1.6913-0.605s10.2-1.742 19.178-2.8706c6.0095-0.7558 12.714-1.042 17.301-1.0656zm-58.217 50.645a7.5721 7.5721 0 0 1 5e-3 0 7.5721 7.5721 0 0 1 0.22244 0 7.5721 7.5721 0 0 1 7.5719 7.572 7.5721 7.5721 0 0 1-7.5719 7.572 7.5721 7.5721 0 0 1-7.5719-7.572 7.5721 7.5721 0 0 1 7.3443-7.572zm113.79 0a7.5721 7.5721 0 0 1 5e-3 0 7.5721 7.5721 0 0 1 5e-3 0 7.5721 7.5721 0 0 1 0.22244 0 7.5721 7.5721 0 0 1 7.5719 7.572 7.5721 7.5721 0 0 1-7.5719 7.572 7.5721 7.5721 0 0 1-7.5771-7.572 7.5721 7.5721 0 0 1 7.3444-7.572zm-97.695 2.6172h81.982v3.1549c0 8.2989-6.6847 14.978-14.983 14.978h-52.021c-8.2988 0-14.978-6.6796-14.978-14.978zm208.92 53.95c-3.6316 0-6.5744 2.947-6.5736 6.5787-7.9e-4 3.6319 2.942 6.5771 6.5736 6.5789 3.6337 7.9e-4 6.5797-2.9452 6.5789-6.5789 7.9e-4 -3.6338-2.9452-6.5798-6.5789-6.5787zm-0.18537 15.33c-0.66361-0.0371-1.3045 0.0344-1.8619 0.23303l-23.941 8.5184c-2.2302 0.7939-3.3816 3.2323-2.5861 5.4617 0.79549 2.2297 3.2161 3.335 5.4617 2.5861l11.415-3.8066 4.1996 6.6046-15.278 0.0265c-2.7196 3e-3 -5.4106 2.6947-5.56 5.4101-0.053 0.95888-0.0265 2.6097 0 3.9565 0 0.0794-0.0265 0.15624-0.0265 0.23833v20.042c0 2.0936 1.6868 3.7807 3.7807 3.7807 2.0939 0 3.7757-1.6871 3.7757-3.7807v-20.001l0.0715-0.0265 20.155 1.2518c2.637 0.16418 5.0046-2.1227 5.2756-4.7428h0.098v-22.84s0.0265-0.2145-0.0318-0.30003c-0.7751-1.4316-2.9741-2.5011-4.9652-2.6118zm-117.57 17.068-1.6965 0.20655 1.5827 10.07s-0.91159 0.32995-1.7016 0.98271c-0.69428 0.57358-1.2589 1.4292-1.4896 2.079-0.26295 0.74094-0.32865 2.1113-0.11386 3.0877 0.20496 0.93398 0.23276 0.84818 0.23276 0.84818l0.42412 0.63104s-0.20205 1.9064-0.35169 3.8946c-0.0853 1.1336-0.0927 2.2903-0.18616 3.1396-0.38498 3.4958-1.4999 10.448-1.4999 10.448s2.9226 4.9276 5.3893 5.0944c0.90694 0.0609 2.3562-0.58867 3.2532-1.3963 0.96269-0.86673 1.3396-1.8982 1.3396-1.8982s0.76512-2.8793 1.2723-4.2775c0.33629-0.92683 1.1689-2.7151 1.1689-2.7151s0.64243-1.2613 1.2465-1.4949c0.50574-0.19596 1.6085 0.22244 1.6085 0.22244s1.2534 1.1003 1.7999 1.7946c0.72757 0.92498 1.9794 2.9828 2.9015 4.2515 1.7445 2.4002 3.5636 4.6445 3.5636 4.6445s-0.45899 4.7475-0.30514 7.1168c0.14591 2.249 1.1586 6.6616 1.1586 6.6616l-3.1705 2.8552 6.9771 6.884 4.4532-1.5878s0.56286 2.4895 1.0706 3.6515c0.41056 0.93928 1.2123 1.8976 1.9033 3.0721 1.6243 2.7609 3.3877 5.7721 3.3877 5.7721l8.5753 8.591 1.0654-2.012s-3.9545-8.4681-5.379-12.904c-0.49374-1.5375-1.2552-3.9642-1.624-5.7564-0.25343-1.2316-0.21212-2.2085-0.21212-2.2085s1.6893 0.52539 4.0032 0.83283c2.7845 0.36994 6.445 0.52724 8.7822 0.43429 2.1143-0.0847 5.2045-0.47189 7.7219-1.0084 2.2004-0.46898 3.9877-1.0966 3.9877-1.0966l2.4154 1.8878-1.3809 4.0291s-1.0086 2.4548-1.5723 3.6565c-0.59744 1.274-1.9188 3.7603-1.9188 3.7603s-1.3736 1.3055-1.9499 2.0533c-0.67572 0.87652-1.743 2.8239-1.743 2.8239l-4.4687 4.8616-0.41377 5.4048 7.6236-0.83786v-3.9308l3.1756-0.32068s1.4797-4.332 2.9636-5.9995c0.91272-1.0253 2.7781-2.5149 4.1738-3.2842 0.99927-0.55187 1.7585-0.56378 1.7585-0.56378s-0.0588-2.235 0.0516-3.3464c0.14326-1.4427 0.78614-4.2772 0.78614-4.2772s2.9222 0.97053 4.2876 1.6654c1.185 0.60297 3.3567 2.1516 3.3567 2.1516s2.6513 4.3342 3.5842 6.6822c0.7555 1.9019 1.5981 5.9272 1.5981 5.9272l0.42926 0.31566s-1.5325 2.1044-2.0584 3.2842c-0.44753 1.0042-0.90512 3.1706-0.90512 3.1706l0.20655 3.3928 7.4168-0.31539 0.20655-4.2359 0.42926 0.20655s0.84315-2.3091 0.83786-3.5119c0-1.5944-1.1532-4.6395-1.1532-4.6395l-1.4896-7.9443-0.32068-4.7737s-2.1863-2.0181-3.1396-3.1549c-0.92154-1.099-2.4723-3.517-2.4723-3.517v-2.431l2.9481 0.11916 2.2654 0.14565c0.0265 0.0847 0.49361 2.0385 1.443 4.3341 1.033 2.498 2.597 5.3486 4.1636 6.8324 0.8233 0.77986 2.1789 2.1458 3.5686 2.674 1.7644 0.6705 3.5119 0.4086 3.5119 0.4086s0.0847-1.7944-0.15623-2.6431c-0.57808-2.0541-1.9437-4.0052-3.3051-6.3099-1.3293-2.2509-2.6351-4.8166-2.6688-4.8823l22.106 1.4067c-0.39404 1.7221-0.59371 3.483-0.59477 5.2496-2e-3 13.038 10.567 23.61 23.605 23.61 13.041 2e-3 23.613-10.57 23.611-23.61-7.9e-4 -0.86566-0.0503-1.7308-0.14564-2.5912l7.8977 0.44992 1.8206-42.256-71.975-5.2342 0.0265 13.396 7.3029 23.497-15.806-1.0087c-0.0265-0.09-0.9271-3.5543-2.9841-7.22-1.596-2.8441-4.1292-5.7297-5.922-7.4584-3.3125-3.1939-9.6302-6.2824-12.056-6.7132-2.7669-0.49149-5.4825-0.0318-8.296 0.29473-3.1938 0.37021-6.4921 0.64614-9.6821 0.66733-3.3459 0.0265-6.4133-0.16684-9.589-0.58444-3.047-0.3996-6.364-0.31248-9.0356-1.8309-4.0113-2.28-6.0644-6.9611-9.2994-10.251-2.3587-2.3989-4.5612-5.0378-7.3599-6.9049-2.4189-1.6135-5.1043-3.0043-7.9547-3.5789-1.0803-0.21714-2.2402-0.20126-3.3049 0.0821-0.29286 0.0768-1.112 0.3567-1.112 0.3567zm120.91 59.505 10.256 0.58444c-0.79522 1.3076-1.2155 2.8088-1.2155 4.3394 0 4.6106 3.7373 8.3481 8.3479 8.3479 4.6104 2.7e-4 8.3479-3.7375 8.3476-8.3479-7.9e-4 -1.2075-0.26481-2.4002-0.77059-3.4963l10.448 0.59477c0.14564 0.92921 0.21714 1.868 0.21714 2.8086 2e-3 10.022-8.1215 18.148-18.143 18.149-10.022-1e-3 -18.146-8.1268-18.144-18.149 8e-4 -1.6326 0.22244-3.2574 0.65673-4.8309zm-225.73 12.098c-7.3642 0-13.292 5.9214-13.292 13.277v0.7653l12.263 0.0265 0.39308 7.7891-10.934 6.3772v6.6359l24.862-15.459v-6.1288c0-7.3554-5.9281-13.277-13.292-13.277zm13.954 23.352c-0.47788 0.0265-0.98083 0.0715-1.4172 0.19066-1.0333 0.28626-1.7585 0.84289-1.7585 0.84289l-21.919 14.534-12.822 2.074-0.42929-1.9032-20.016 4.8873 4.8721 11.353s4.0532-0.22509 8.0012 1.0344c4.681 1.4946 9.568 4.7004 12.408 7.5201 2.8395 2.8194 5.2737 7.0543 6.822 11.751 1.3433 4.0752 0.81135 6.0755 1.9912 8.865 0.79782 1.8849 1.8412 3.7661 3.3619 5.1357 1.4815 1.3344 3.3848 2.2646 5.322 2.736 0.26963 0.0662 0.8327 0 0.8327 0l34.756 0.0768s-1.5853-6.2249-1.081-11.42c0.574-5.91 3.3973-11.083 6.3048-14.839 2.5276-3.2648 7.2793-7.0535 12.227-8.932 4.9615-1.8839 10.117-1.8516 10.117-1.8516v-6.1341l-20.843 4.0601-7.453-9.2787-17.399 14.089-13.241 2.5962s-2.2622 0.66097-3.0619 1.4586c-0.54218 0.541-0.99304 2.074-0.99304 2.074l-1.0603 4.9755s-7.0277-4.4967-9.9149-7.4581c-3.1972-3.2797-7.9753-11.187-7.9753-11.187l10.887-1.7999s0.37492-0.10063 0.54824-0.15095c0.30938-0.09 0.88441-0.37232 0.88441-0.37232l12.097-7.6236 1.6551 1.6551 8.3529 12.93 17.13-13.841-11.994-15.33s-0.87854-1.1164-2.043-1.8982c-0.57866-0.38901-1.3637-0.64031-1.8774-0.73962-0.34033-0.0662-0.79443-0.10063-1.2723-0.0874zm-53.433 35.584c-13.933 0-25.302 11.376-25.302 25.302 0 13.926 11.369 25.307 25.302 25.307 13.933 0 25.312-11.382 25.312-25.307 0-13.925-11.379-25.302-25.312-25.302zm101.08 0c-13.933 0-25.302 11.376-25.302 25.302 0 13.926 11.369 25.307 25.302 25.307s25.312-11.382 25.312-25.307c0-13.925-11.379-25.302-25.312-25.302zm-101.08 7.9337c9.6342 0 17.368 7.7258 17.368 17.368 0 9.6423-7.7337 17.368-17.368 17.368-9.6342 0-17.363-7.7256-17.363-17.368 0-9.642 7.7284-17.368 17.363-17.368zm101.08 0c9.6341 0 17.363 7.7258 17.363 17.368 0 9.6423-7.7285 17.368-17.363 17.368-9.6342 0-17.363-7.7256-17.363-17.368 0-9.642 7.7284-17.368 17.363-17.368z" opacity=".99988"/><path d="m763.05-1243.3c-160.48 0-290.57 130.1-290.57 290.58-4.5e-4 160.48 130.09 290.57 290.57 290.58 160.48 5e-4 290.58-130.1 290.58-290.58 3e-4 -160.48-130.1-290.58-290.58-290.58zm-0.63615 70.558c0.16392-5e-4 0.32736-5e-4 0.49133 0 121.49 3e-4 219.97 98.49 219.97 219.98-2.6e-4 52.43-18.371 100.55-48.99 138.35l-309.49-309.2c37.696-30.598 85.694-49.007 138.02-49.124zm-170.24 81.305 309.32 309.47c-37.83 30.733-86.047 49.176-138.59 49.176-121.49-5.3e-4 -219.97-98.485-219.97-219.97 1.3e-4 -52.571 18.463-100.83 49.238-138.67z" color="#000000" color-rendering="auto" dominant-baseline="auto" enable-background="accumulate" fill="#ed232a" image-rendering="auto" shape-rendering="auto" solid-color="#000000" stop-color="#000000" style="font-feature-settings:normal;font-variant-alternates:normal;font-variant-caps:normal;font-variant-east-asian:normal;font-variant-ligatures:normal;font-variant-numeric:normal;font-variant-position:normal;font-variation-settings:normal;inline-size:0;isolation:auto;mix-blend-mode:normal;paint-order:stroke fill markers;shape-margin:0;shape-padding:0;text-decoration-color:#000000;text-decoration-line:none;text-decoration-style:solid;text-indent:0;text-orientation:mixed;text-transform:none;white-space:normal"/></g></g></g></svg>