<svg width="600" height="600" version="1.1" xmlns="http://www.w3.org/2000/svg"><g transform="translate(341.93 -553.63)"><g transform="translate(-108.37 1759.9)"><path d="m66.438-1205.3c-165.06 0-299.05 133.99-299.05 299.05-5.3e-4 165.06 133.99 299.05 299.05 299.05 165.06 5.3e-4 299.05-133.99 299.05-299.05 5.3e-4 -165.06-133.99-299.05-299.05-299.05z" color="#000000" color-rendering="auto" dominant-baseline="auto" enable-background="accumulate" fill="#fff" fill-rule="evenodd" image-rendering="auto" shape-rendering="auto" solid-color="#000000" stop-color="#000000" stroke="#000" stroke-linecap="square" stroke-linejoin="round" stroke-miterlimit="2" stroke-width="1.9" style="font-feature-settings:normal;font-variant-alternates:normal;font-variant-caps:normal;font-variant-east-asian:normal;font-variant-ligatures:normal;font-variant-numeric:normal;font-variant-position:normal;font-variation-settings:normal;inline-size:0;isolation:auto;mix-blend-mode:normal;paint-order:stroke fill markers;shape-margin:0;shape-padding:0;text-decoration-color:#000000;text-decoration-line:none;text-decoration-style:solid;text-indent:0;text-orientation:mixed;text-transform:none;white-space:normal"/><rect x="578.74" y="298.17" width="0" height="27.202" rx="249.48" ry="27.202" color="#000000"/><g transform="matrix(.88381 0 0 .88381 -1569.9 -1726.3)"><g transform="matrix(1.1315 0 0 1.1315 -1464.3 -762.13)"><g transform="translate(-108.37 1759.9)"><rect x="578.74" y="298.17" width="0" height="27.202" rx="249.48" ry="27.202" color="#000000"/></g></g></g><path d="m286.56-906.3c0-121.62-98.572-220.19-220.18-220.19-121.62 0-220.19 98.572-220.19 220.19 0 121.61 98.572 220.18 220.19 220.18 121.61 0 220.18-98.572 220.18-220.18" fill="none" stroke="#ee232b" stroke-linecap="round" stroke-linejoin="round" stroke-miterlimit="10" stroke-width=".16"/><path d="m356.71-906.3c0-160.34-129.98-290.32-290.32-290.32-160.34 0-290.32 129.98-290.32 290.32 0 160.33 129.98 290.32 290.32 290.32 160.34 0 290.32-129.99 290.32-290.32" fill="none" stroke="#ee232b" stroke-linecap="round" stroke-linejoin="round" stroke-miterlimit="10" stroke-width=".16"/><path d="m-3.1281-1034.5-0.030987 0.011c-4.1305 0.029-8.3127 0.4332-12.492 1.2156-33.443 6.2434-57.671 35.459-57.671 69.455a1.0565 1.0565 0 0 0 0.03099 0.031 1.1279 1.1279 0 0 0 1.1173 1.0604h35.62a1.1279 1.1279 0 0 0 1.1277-1.0759 1.0565 1.0565 0 0 0 0.02649-0.031c0-15.824 11.307-29.389 26.898-32.221 15.561-2.832 30.934 5.864 36.509 20.665 5.606 14.832-0.19069 31.519-13.76 39.665a1.0565 1.0565 0 0 0-0.36207 0.38278c-51.735 34.395-82.976 92.395-82.976 154.68v1.0501h2.2086l133.77-0.0265h1.0501v-1.0397a1.0565 1.0565 0 0 0 0.02648-0.0265v-36.959h-94.434c9.1075-35.203 30.799-65.822 61.049-86.038a1.0565 1.0565 0 0 0 0.02648-0.057c28.916-17.92 40.973-53.911 28.683-85.614-10.755-27.743-37.489-45.351-66.413-45.122zm175.47 0.781c-8.3128 0-15.754 3.5232-20.986 9.1351-5.147-5.5492-12.485-9.0316-20.686-9.0316h-1.4432c-4.8527 0-9.4073 1.2169-13.387 3.3571v-1.3553h-14.882v78.362h0.0723v0.21215h14.825v-50.108c0-7.742 6.2348-13.977 13.977-13.977 7.742 0 13.977 6.2348 13.977 13.977v50.108h14.815v-50.108c0-7.742 6.2348-13.977 13.977-13.977 7.742 0 13.977 6.2348 13.977 13.977v50.108h14.975l-0.0212-51.981c-8.4e-4 -2.5417-0.031-7.4694-0.031-7.4694-2.687-11.307-15.311-21.228-28.667-21.229zm-341.45 46.053-8.892 89.421 22.755 58.98 66.48-66.951zm470.57 0-80.348 81.445 66.485 66.951 22.755-58.975zm-92.349 106.14c-1.1579 0-2.25 0.0723-3.2485 0.19148-5.026 0.60544-9.2654 2.6122-12.756 6.0366-7.177 7.0422-11.074 20.049-11.665 38.961-0.10594 3.4083-0.0908 7.3323 0.031 10.666 0.42772 12.246 2.2943 22.2 5.5866 29.733 1.0265 2.3484 1.9478 3.9491 3.2744 5.7159 3.0619 4.0792 7.6159 7.4811 12.58 9.3886 2.6673 1.025 5.1652 1.5627 7.6712 1.6604 0.47354 0.0265 1.4299 2e-3 2.0743-0.0363 4.4783-0.26484 8.7001-1.5604 12.44-3.8227 0.87504-0.52916 1.7875-1.1593 2.5812-1.7846 2.5023-1.9707 4.5982-4.3603 6.2487-7.1229 1.0591-1.7729 1.896-3.6386 2.6691-5.9332 2.0232-6.0038 3.1946-14.106 3.5175-24.358 0.0689-2.1431 0.0776-3.4303 0.0776-6.1556 0-2.6935-0.0212-4.1505-0.0776-6.5952-0.38535-14.398-1.9348-24.002-4.971-30.788-1.602-3.581-3.6697-6.583-6.1452-8.9282-4.1353-3.9173-9.4998-6.1246-16.232-6.6832-1.2652-0.10594-2.4889-0.15017-3.6468-0.14487zm-77.793 0.21214c-13.598-0.44256-25.104 9.9992-25.978 23.572l0.031 0.031c-2e-3 0-1e-3 -1e-3 0 0.0265 8e-4 0.23041 0.19334 0.41792 0.42418 0.41898h14.416c0.20923-5.3e-4 0.38721-0.15122 0.41899-0.3569 0-3e-3 -1e-3 0 0.0265 0 0.81308-5.2042 5.5325-8.8938 10.796-8.4057 5.2127 0.48441 9.1437 4.8974 9.042 10.133v0.12924c0.33635 4.6443-2.263 9.0075-6.4918 10.94h-10.47v17.132h0.37762a0.42445 0.42445 0 0 0 0.0466 0 0.42445 0.42445 0 0 0 0.0413 0h8.1833c8.2669 5.1361 12.281 15.022 9.8903 24.467a0.42445 0.42445 0 0 0 0 0.031c-2.0205 6.1328-8.1561 9.8945-14.546 8.8764-6.392-1.0093-11.085-6.5167-11.085-13.004 0-0.0556-0.0464-0.0919-0.0569-0.13957a0.42445 0.42445 0 0 0-0.031-0.0776c-0.0265-0.0424-0.0432-0.0768-0.0776-0.10858a0.42445 0.42445 0 0 0-0.30002-0.11892h-14.287a0.42445 0.42445 0 0 0-0.41901 0.37242 0.42445 0.42445 0 0 0-0.062 0.0673c0 15.684 12.719 28.409 28.404 28.409 15.661 0 28.376-12.708 28.393-28.378 2.7e-4 0-2.6e-4 1e-3 0-0.0265 0.38138-10.465-3.6341-20.605-11.039-27.995 5.866-5.2484 9.1098-12.83 8.7885-20.717 0-0.0265 0.0265-0.0381 0.0265-0.062 0-13.598-10.807-24.753-24.405-25.196zm80.064 15.932-5e-3 5e-3c0.64092 0 1.2691 0.0275 1.8105 0.0673 2.5211 0.22776 4.3719 0.99462 5.7676 2.3898 0.85757 0.8573 1.5171 1.8938 2.1829 3.445 2.1529 5.0146 3.4024 12.039 3.864 21.72 0.15361 3.2475 0.21718 6.2557 0.21718 10.537 0 3.02 5e-3 3.9397-0.0776 5.9073-0.24631 6.6407-1.0055 11.552-2.3329 15.099-0.18009 0.48176-0.359 0.90381-1.0656 2.4984-1.2194 2.7525-2.014 4.2463-2.8398 5.3486-1.6386 2.1874-3.6054 3.1352-6.828 3.2899-0.28736 0.0265-1.3503 0.0265-1.6294 0-1.2464-0.053-2.1367-0.16421-3.0054-0.37759-2.2228-0.54797-3.6696-1.7016-4.7796-3.8072-0.45235-0.85836-0.83566-1.7918-1.3656-3.3158-0.21452-0.62079-1.1303-3.3716-1.2828-3.8589-1.4593-4.6668-2.3338-10.164-2.695-16.946-0.23042-4.3316-0.25266-9.4938-0.062-13.977 0.38005-8.915 1.5722-15.931 3.5278-20.753 0.68913-1.6998 1.562-3.2566 2.3536-4.2002 1.5059-1.7949 3.5019-2.7351 6.3522-2.9899 0.59882-0.053 1.2523-0.0826 1.8932-0.0826zm-128.24 71.27c-3.0987 0-5.607 2.5238-5.6073 5.6228 0 0.91027 0.22247 1.7837 0.62074 2.5605 0.93517 1.9283 2.8897 3.1502 5.0331 3.1502h0.05165c-1.0483 1.7652-2.5087 2.7561-4.0916 3.683-1.4601 0.85465-3.7906 1.3097-4.8055 1.6294 2.7923 0.22776 5.223 0.14831 7.2056-0.49659 2.3823-0.77626 4.1362-2.2849 5.3486-3.8589 1.2556-1.6299 1.8829-3.5487 1.8829-5.4831 0-0.16155 0.0011-0.43453 0-0.68798v-0.37762c2.65e-4 -0.19069 0.0012-0.384-0.02648-0.57416-0.23042-2.891-2.6517-5.1676-5.6021-5.1676z" fill-rule="evenodd" style="paint-order:stroke fill markers"/><path d="m16.009-935.55c-53.217 34.209-85.385 93.124-85.385 156.38" fill="none" stroke="#211e1e" stroke-linecap="round" stroke-linejoin="round" stroke-miterlimit="10" stroke-width=".16"/><path d="m66.438-1196.9c-160.48 0-290.58 130.1-290.57 290.58-5.3e-4 160.48 130.09 290.58 290.57 290.58 160.48 5.3e-4 290.58-130.1 290.58-290.58 2.7e-4 -160.48-130.1-290.58-290.58-290.58zm-0.63642 70.562c0.1642-3e-4 0.32761-3e-4 0.49155 0 121.49 5e-4 219.98 98.487 219.98 219.98-7.9e-4 121.49-98.487 219.98-219.98 219.98-121.49-5.3e-4 -219.98-98.487-219.98-219.98 2.6e-4 -121.3 98.188-219.71 219.49-219.98z" color="#000000" color-rendering="auto" dominant-baseline="auto" enable-background="accumulate" fill="#ed232a" fill-rule="evenodd" image-rendering="auto" shape-rendering="auto" solid-color="#000000" stop-color="#000000" style="font-feature-settings:normal;font-variant-alternates:normal;font-variant-caps:normal;font-variant-east-asian:normal;font-variant-ligatures:normal;font-variant-numeric:normal;font-variant-position:normal;font-variation-settings:normal;inline-size:0;isolation:auto;mix-blend-mode:normal;paint-order:stroke fill markers;shape-margin:0;shape-padding:0;text-decoration-color:#000000;text-decoration-line:none;text-decoration-style:solid;text-indent:0;text-orientation:mixed;text-transform:none;white-space:normal"/></g></g></svg>