<svg width="600" height="600.01" version="1.1" xmlns="http://www.w3.org/2000/svg"><g transform="translate(-310.94 -549.7)"><g transform="translate(-108.37 1759.9)"><rect x="578.74" y="298.17" width="0" height="27.202" rx="249.48" ry="27.202" color="#000000"/><g transform="matrix(.88381 0 0 .88381 -1569.9 -1726.3)"><g transform="matrix(1.1315 0 0 1.1315 -1464.3 -762.13)"><g transform="translate(-108.37 1759.9)"><rect x="578.74" y="298.17" width="0" height="27.202" rx="249.48" ry="27.202" color="#000000"/></g></g></g><g fill-rule="evenodd"><path d="m719.3-1209.3c-165.06 0-299.05 133.99-299.05 299.05-8e-4 165.06 133.99 299.05 299.05 299.05 165.06 5.3e-4 299.05-133.99 299.05-299.05 5e-4 -165.06-133.99-299.05-299.05-299.05z" color="#000000" color-rendering="auto" dominant-baseline="auto" enable-background="accumulate" fill="#fff" image-rendering="auto" shape-rendering="auto" solid-color="#000000" stop-color="#000000" stroke="#000" stroke-linecap="square" stroke-linejoin="round" stroke-miterlimit="2" stroke-width="1.9" style="font-feature-settings:normal;font-variant-alternates:normal;font-variant-caps:normal;font-variant-east-asian:normal;font-variant-ligatures:normal;font-variant-numeric:normal;font-variant-position:normal;font-variation-settings:normal;inline-size:0;isolation:auto;mix-blend-mode:normal;paint-order:stroke fill markers;shape-margin:0;shape-padding:0;text-decoration-color:#000000;text-decoration-line:none;text-decoration-style:solid;text-indent:0;text-orientation:mixed;text-transform:none;white-space:normal"/><path d="m708.77-1175.2-75.697 25.366 86.263 86.367 103.46-103.28zm101.72 134.19c-8.3846-8e-4 -15.893 3.5538-21.17 9.2145-5.1913-5.5973-12.594-9.1111-20.865-9.1111h-1.4557c-4.8946 0-9.4899 1.2276-13.504 3.3861v-1.3677h-15.006v79.042h0.071v0.2114h14.949v-50.542c0-7.8089 6.2887-14.098 14.098-14.098 7.809 0 14.098 6.2887 14.098 14.098v50.542h14.944v-50.542c0-7.8087 6.2887-14.097 14.098-14.097 7.8087 0 14.098 6.2887 14.098 14.097v50.542h15.104l-0.026-52.431c-8e-4 -2.5637-0.032-7.5315-0.032-7.5315-2.7101-11.404-15.447-21.411-28.918-21.412zm-180.63 2.1112c-32.611 0.5574-59.678 26.098-61.795 58.987 0.026 0.026 0.058 0.026 0.058 0.053 0 0.026 0 0.032-0.026 0.056 0 0.5809 0.4723 1.0503 1.0533 1.0532h36.067c0.5209 0 0.9631-0.3774 1.0426-0.8931 0.026 0 0.032-0.026 0.058-0.032 2.0338-13.017 13.828-22.246 26.992-21.025 13.039 1.2112 22.879 12.254 22.625 25.351-0.029 0.111-0.032 0.2194-0.032 0.3301 0.8415 11.616-5.6676 22.52-16.245 27.354h-26.187v42.85h0.9552c0.037 0 0.071 0 0.1084 0.026 0.037 0 0.077 0 0.1136-0.026h20.462c20.678 12.846 30.728 37.577 24.747 61.201v0.082c-5.054 15.34-20.4 24.749-36.382 22.202h-0.026c-15.989-2.5243-27.731-16.31-27.731-32.536-2e-4 -0.1374-0.1136-0.2141-0.14-0.3357-0.026-0.069-0.048-0.1348-0.082-0.1955-0.053-0.1111-0.1083-0.193-0.1903-0.2733-0.2008-0.193-0.4699-0.2982-0.7484-0.2945h-35.737c-0.5349 3e-4 -0.9864 0.3983-1.053 0.9293-0.061 0.048-0.1163 0.1031-0.1638 0.1639 0 39.23 31.821 71.051 71.051 71.051 39.173 0 70.971-31.775 71.014-70.968v-0.026c8e-4 -0.026-6e-4 -0.032 0-0.058 0.9538-26.175-9.0863-51.535-27.607-70.018 14.672-13.128 22.784-32.089 21.98-51.817 0-0.053 0.05-0.084 0.05-0.14 0-34.012-27.036-61.916-61.046-63.024h-0.026c-1.063-0.034-2.1175-0.042-3.1694-0.029zm216.39 151.4c-1.168 0-2.2709 0.077-3.2779 0.1955-5.0695 0.6108-9.3432 2.6322-12.864 6.0863-7.2391 7.103-11.174 20.223-11.769 39.299-0.1084 3.4378-0.087 7.3951 0.037 10.758 0.4313 12.352 2.311 22.394 5.6316 29.992 1.0356 2.3686 1.9659 3.984 3.3038 5.7659 3.0883 4.1146 7.6813 7.5436 12.688 9.4674 2.6903 1.0337 5.2103 1.5789 7.7381 1.6775 0.4776 0.029 1.4407 0 2.0906-0.037 4.5168-0.2666 8.7763-1.5741 12.549-3.8561 0.8827-0.5336 1.8012-1.1708 2.6017-1.8014 2.5238-1.9878 4.6382-4.3993 6.303-7.1858 1.068-1.7879 1.9148-3.6682 2.6945-5.9826 2.0407-6.0556 3.2207-14.23 3.5464-24.572 0.069-2.1617 0.077-3.456 0.077-6.205 0-2.7167-0.026-4.1878-0.077-6.6537-0.3888-14.523-1.95-24.21-5.0125-31.055-1.6159-3.6119-3.7028-6.6373-6.1996-9.0028-4.1709-3.9509-9.5837-6.1782-16.374-6.7417-1.2761-0.1057-2.5074-0.1559-3.6754-0.1506zm-102.77 1.7398-2.2199 53.272 13.561 1.59c2.0555-7.3404 7.5362-10.339 12.931-10.247 4.2327 0 7.8073 2.6847 10.546 5.9879 2.8221 3.3034 2.3784 7.4032 2.2867 12.208 0 5.6058-1.0977 10.493-3.2519 15.208-0.8683 1.9003-2.2683 3.6203-3.7737 5.0021-3.4097 3.1293-7.7164 4.9416-11.976 4.8007-4.7309 0-8.591-2.6771-12.492-5.0796l-10.112 10.386c4.8583 4.2261 12.89 9.2763 20.277 9.2763 10.541-3e-4 20.156-3.4034 26.879-11.512 6.8062-8.1084 9.1746-18.054 9.2248-27.829 0.032-5.3159-0.5976-10.912-2.6586-15.941-1.1941-2.9142-3.2036-5.5455-4.9762-8.0632-1.885-2.6753-4.9791-4.5039-7.8103-5.9467-3.49-1.7785-7.3126-2.9879-11.666-3.1024-1.9973 0-4.7978 0.268-7.098 0.795-2.5734 0.59-4.5425 1.4455-4.5425 1.4455l0.6917-17.747h33.93v-14.505zm105.06 14.541c0.6465 0 1.2813 0.029 1.8274 0.066 2.5428 0.2299 4.4048 1.0035 5.8124 2.4107 0.8651 0.8648 1.5327 1.9095 2.2043 3.4742 2.1714 5.0578 3.4319 12.143 3.8973 21.908 0.1559 3.2757 0.2167 6.3107 0.2167 10.629 0 3.0463 0 3.9726-0.077 5.957-0.2485 6.6981-1.0149 11.651-2.3539 15.228-0.1823 0.4861-0.361 0.9108-1.0738 2.5193-1.2298 2.7762-2.0319 4.2824-2.8647 5.3943-1.653 2.2064-3.636 3.1632-6.8863 3.3191-0.29 0.029-1.3601 0.029-1.6416 0-1.2572-0.053-2.159-0.1665-3.0352-0.3819-2.242-0.5527-3.6967-1.7119-4.8163-3.8355-0.4562-0.8658-0.8439-1.8078-1.3783-3.345-0.2167-0.6261-1.1418-3.4007-1.2956-3.892-1.4719-4.7072-2.3559-10.251-2.7204-17.092-0.2326-4.3691-0.2537-9.5761-0.061-14.098 0.3832-8.9919 1.5892-16.068 3.5617-20.932 0.6951-1.7142 1.5763-3.286 2.3747-4.238 1.5189-1.8102 3.5313-2.7577 6.4061-3.0146 0.6039-0.053 1.2636-0.087 1.91-0.087zm-143.62 71.892c-3.1256 0-5.6573 2.5423-5.6579 5.6678 0 0.9182 0.2273 1.8028 0.6298 2.5862 0.9433 1.945 2.9126 3.1747 5.0746 3.1747h0.053c-1.0574 1.7806-2.528 2.7818-4.1246 3.7169-1.4727 0.8618-3.8236 1.3188-4.8472 1.6413 2.8163 0.2299 5.2685 0.1506 7.2682-0.5006 2.403-0.7831 4.1714-2.3047 5.3943-3.8923 1.2665-1.644 1.8998-3.5773 1.8998-5.5286 0-0.1639 1e-3 -0.4411 0-0.6967v-0.3822c2e-4 -0.1929 0-0.3861-0.032-0.578-0.2325-2.916-2.6715-5.2085-5.6472-5.2085zm14.407 41.601-86.263 86.367 75.697 25.366 114.02-8.4554z" style="paint-order:stroke fill markers"/><path d="m719.3-1200.8c-160.48 0-290.57 130.1-290.57 290.58-6e-4 160.48 130.09 290.58 290.57 290.58 160.48 5.3e-4 290.58-130.1 290.58-290.58 3e-4 -160.48-130.1-290.58-290.58-290.58zm-0.6364 70.562c0.1717-3e-4 0.3309-3e-4 0.4926 0 121.49 5e-4 219.98 98.487 219.98 219.98-8e-4 121.49-98.488 219.98-219.98 219.98-121.49-5e-4 -219.98-98.487-219.98-219.98 0-121.3 98.188-219.71 219.49-219.98z" color="#000000" color-rendering="auto" dominant-baseline="auto" enable-background="accumulate" fill="#ed232a" image-rendering="auto" shape-rendering="auto" solid-color="#000000" stop-color="#000000" style="font-feature-settings:normal;font-variant-alternates:normal;font-variant-caps:normal;font-variant-east-asian:normal;font-variant-ligatures:normal;font-variant-numeric:normal;font-variant-position:normal;font-variation-settings:normal;inline-size:0;isolation:auto;mix-blend-mode:normal;paint-order:stroke fill markers;shape-margin:0;shape-padding:0;text-decoration-color:#000000;text-decoration-line:none;text-decoration-style:solid;text-indent:0;text-orientation:mixed;text-transform:none;white-space:normal"/></g></g></g></svg>