<?xml version="1.0" encoding="UTF-8" standalone="no"?>
<svg
   xmlns:dc="http://purl.org/dc/elements/1.1/"
   xmlns:cc="http://creativecommons.org/ns#"
   xmlns:rdf="http://www.w3.org/1999/02/22-rdf-syntax-ns#"
   xmlns:svg="http://www.w3.org/2000/svg"
   xmlns="http://www.w3.org/2000/svg"
   xmlns:sodipodi="http://sodipodi.sourceforge.net/DTD/sodipodi-0.dtd"
   xmlns:inkscape="http://www.inkscape.org/namespaces/inkscape"
   width="600"
   height="600.00586"
   id="svg2"
   version="1.1"
   inkscape:version="1.0 (4035a4fb49, 2020-05-01)"
   sodipodi:docname="tt20.svg">
  <defs
     id="defs4">
    <inkscape:perspective
       sodipodi:type="inkscape:persp3d"
       inkscape:vp_x="0 : 526.18505 : 1"
       inkscape:vp_y="0 : 1000 : 0"
       inkscape:vp_z="744.09448 : 526.18505 : 1"
       inkscape:persp3d-origin="372.04724 : 350.79136 : 1"
       id="perspective10" />
    <inkscape:perspective
       id="perspective2832"
       inkscape:persp3d-origin="417.043 : 245.00031 : 1"
       inkscape:vp_z="834.086 : 367.49848 : 1"
       inkscape:vp_y="0 : 1000 : 0"
       inkscape:vp_x="0 : 367.49848 : 1"
       sodipodi:type="inkscape:persp3d" />
    <inkscape:perspective
       inkscape:vp_x="0 : 300.50397 : 1"
       inkscape:vp_y="0 : 1000 : 0"
       inkscape:vp_z="601 : 300.50397 : 1"
       inkscape:persp3d-origin="300.5 : 200.33729 : 1"
       id="perspective3380"
       sodipodi:type="inkscape:persp3d" />
    <inkscape:perspective
       inkscape:vp_x="0 : 375.00396 : 1"
       inkscape:vp_y="0 : 1000 : 0"
       inkscape:vp_z="750 : 375.00396 : 1"
       inkscape:persp3d-origin="375 : 250.00397 : 1"
       id="perspective3990"
       sodipodi:type="inkscape:persp3d" />
    <inkscape:perspective
       inkscape:vp_x="0 : 450.00396 : 1"
       inkscape:vp_y="0 : 1000 : 0"
       inkscape:vp_z="900 : 450.00396 : 1"
       inkscape:persp3d-origin="450 : 300.00397 : 1"
       id="perspective14"
       sodipodi:type="inkscape:persp3d" />
    <inkscape:perspective
       inkscape:vp_x="0 : 450.00396 : 1"
       inkscape:vp_y="0 : 1000 : 0"
       inkscape:vp_z="900 : 450.00396 : 1"
       inkscape:persp3d-origin="450 : 300.00397 : 1"
       id="perspective27"
       sodipodi:type="inkscape:persp3d" />
    <inkscape:perspective
       id="perspective2845"
       inkscape:persp3d-origin="374.983 : 219.69664 : 1"
       inkscape:vp_z="749.966 : 329.54297 : 1"
       inkscape:vp_y="0 : 1000 : 0"
       inkscape:vp_x="0 : 329.54297 : 1"
       sodipodi:type="inkscape:persp3d" />
    <inkscape:perspective
       id="perspective3633"
       inkscape:persp3d-origin="300 : 200.00396 : 1"
       inkscape:vp_z="600 : 300.00397 : 1"
       inkscape:vp_y="0 : 1000 : 0"
       inkscape:vp_x="0 : 300.00397 : 1"
       sodipodi:type="inkscape:persp3d" />
    <inkscape:perspective
       id="perspective3650"
       inkscape:persp3d-origin="300 : 200.00396 : 1"
       inkscape:vp_z="600 : 300.00397 : 1"
       inkscape:vp_y="0 : 1000 : 0"
       inkscape:vp_x="0 : 300.00397 : 1"
       sodipodi:type="inkscape:persp3d" />
    <inkscape:perspective
       id="perspective3666"
       inkscape:persp3d-origin="300 : 200.00396 : 1"
       inkscape:vp_z="600 : 300.00397 : 1"
       inkscape:vp_y="0 : 1000 : 0"
       inkscape:vp_x="0 : 300.00397 : 1"
       sodipodi:type="inkscape:persp3d" />
    <inkscape:perspective
       id="perspective3701"
       inkscape:persp3d-origin="300 : 200.00396 : 1"
       inkscape:vp_z="600 : 300.00397 : 1"
       inkscape:vp_y="0 : 1000 : 0"
       inkscape:vp_x="0 : 300.00397 : 1"
       sodipodi:type="inkscape:persp3d" />
    <inkscape:perspective
       id="perspective2844"
       inkscape:persp3d-origin="100 : 66.670638 : 1"
       inkscape:vp_z="200 : 100.00395 : 1"
       inkscape:vp_y="0 : 1000 : 0"
       inkscape:vp_x="0 : 100.00395 : 1"
       sodipodi:type="inkscape:persp3d" />
    <inkscape:perspective
       id="perspective3640"
       inkscape:persp3d-origin="300 : 200.00396 : 1"
       inkscape:vp_z="600 : 300.00397 : 1"
       inkscape:vp_y="0 : 1000 : 0"
       inkscape:vp_x="0 : 300.00397 : 1"
       sodipodi:type="inkscape:persp3d" />
    <inkscape:perspective
       id="perspective3684"
       inkscape:persp3d-origin="150 : 100.00395 : 1"
       inkscape:vp_z="300 : 150.00396 : 1"
       inkscape:vp_y="0 : 1000 : 0"
       inkscape:vp_x="0 : 150.00396 : 1"
       sodipodi:type="inkscape:persp3d" />
    <inkscape:perspective
       id="perspective3706"
       inkscape:persp3d-origin="100 : 66.670638 : 1"
       inkscape:vp_z="200 : 100.00395 : 1"
       inkscape:vp_y="0 : 1000 : 0"
       inkscape:vp_x="0 : 100.00395 : 1"
       sodipodi:type="inkscape:persp3d" />
    <foreignObject
       y="0"
       x="0"
       requiredExtensions="http://ns.adobe.com/AdobeIllustrator/10.0/"
       width="1"
       height="1"
       id="foreignObject1878" />
    <inkscape:perspective
       id="perspective3731"
       inkscape:persp3d-origin="100 : 66.670638 : 1"
       inkscape:vp_z="200 : 100.00395 : 1"
       inkscape:vp_y="0 : 1000 : 0"
       inkscape:vp_x="0 : 100.00395 : 1"
       sodipodi:type="inkscape:persp3d" />
    <inkscape:perspective
       id="perspective3749"
       inkscape:persp3d-origin="300 : 200.00396 : 1"
       inkscape:vp_z="600 : 300.00397 : 1"
       inkscape:vp_y="0 : 1000 : 0"
       inkscape:vp_x="0 : 300.00397 : 1"
       sodipodi:type="inkscape:persp3d" />
    <inkscape:perspective
       id="perspective2851"
       inkscape:persp3d-origin="100 : 66.670638 : 1"
       inkscape:vp_z="200 : 100.00395 : 1"
       inkscape:vp_y="0 : 1000 : 0"
       inkscape:vp_x="0 : 100.00395 : 1"
       sodipodi:type="inkscape:persp3d" />
    <foreignObject
       requiredExtensions="http://ns.adobe.com/AdobeIllustrator/10.0/"
       x="0"
       y="0"
       width="1"
       height="1"
       id="foreignObject3750" />
    <foreignObject
       requiredExtensions="http://ns.adobe.com/AdobeIllustrator/10.0/"
       x="0"
       y="0"
       width="1"
       height="1"
       id="foreignObject3876" />
    <inkscape:perspective
       id="perspective3643"
       inkscape:persp3d-origin="100 : 66.670638 : 1"
       inkscape:vp_z="200 : 100.00395 : 1"
       inkscape:vp_y="0 : 1000 : 0"
       inkscape:vp_x="0 : 100.00395 : 1"
       sodipodi:type="inkscape:persp3d" />
    <inkscape:perspective
       id="perspective3667"
       inkscape:persp3d-origin="100 : 66.670638 : 1"
       inkscape:vp_z="200 : 100.00395 : 1"
       inkscape:vp_y="0 : 1000 : 0"
       inkscape:vp_x="0 : 100.00395 : 1"
       sodipodi:type="inkscape:persp3d" />
    <foreignObject
       requiredExtensions="http://ns.adobe.com/AdobeIllustrator/10.0/"
       x="0"
       y="0"
       width="1"
       height="1"
       id="foreignObject3750-8" />
    <inkscape:perspective
       id="perspective3898"
       inkscape:persp3d-origin="0.5 : 0.33729881 : 1"
       inkscape:vp_z="1 : 0.50395881 : 1"
       inkscape:vp_y="0 : 1000 : 0"
       inkscape:vp_x="0 : 0.50395881 : 1"
       sodipodi:type="inkscape:persp3d" />
    <inkscape:perspective
       id="perspective3941"
       inkscape:persp3d-origin="100 : 66.670638 : 1"
       inkscape:vp_z="200 : 100.00395 : 1"
       inkscape:vp_y="0 : 1000 : 0"
       inkscape:vp_x="0 : 100.00395 : 1"
       sodipodi:type="inkscape:persp3d" />
    <inkscape:perspective
       inkscape:vp_x="0 : 526.18505 : 1"
       inkscape:vp_y="0 : 1000 : 0"
       inkscape:vp_z="744.09448 : 526.18505 : 1"
       inkscape:persp3d-origin="372.04724 : 350.79136 : 1"
       id="perspective10-1"
       sodipodi:type="inkscape:persp3d" />
    <inkscape:perspective
       inkscape:vp_x="0 : 131.00396 : 1"
       inkscape:vp_y="0 : 1000 : 0"
       inkscape:vp_z="910 : 131.00396 : 1"
       inkscape:persp3d-origin="455 : 87.337298 : 1"
       id="perspective2827"
       sodipodi:type="inkscape:persp3d" />
    <foreignObject
       height="1"
       width="1"
       y="0"
       x="0"
       requiredExtensions="http://ns.adobe.com/AdobeIllustrator/10.0/"
       id="foreignObject1878-7" />
    <inkscape:perspective
       inkscape:vp_x="0 : 100.00395 : 1"
       inkscape:vp_y="0 : 1000 : 0"
       inkscape:vp_z="200 : 100.00395 : 1"
       inkscape:persp3d-origin="100 : 66.670638 : 1"
       id="perspective2495"
       sodipodi:type="inkscape:persp3d" />
    <inkscape:perspective
       inkscape:vp_x="0 : 526.18505 : 1"
       inkscape:vp_y="0 : 1000 : 0"
       inkscape:vp_z="744.09448 : 526.18505 : 1"
       inkscape:persp3d-origin="372.04724 : 350.79136 : 1"
       id="perspective3536"
       sodipodi:type="inkscape:persp3d" />
    <inkscape:perspective
       inkscape:vp_x="0 : 327.50397 : 1"
       inkscape:vp_y="0 : 1000 : 0"
       inkscape:vp_z="655 : 327.50397 : 1"
       inkscape:persp3d-origin="327.5 : 218.3373 : 1"
       id="perspective3555"
       sodipodi:type="inkscape:persp3d" />
    <inkscape:perspective
       inkscape:vp_x="0 : 0.50395881 : 1"
       inkscape:vp_y="0 : 1000 : 0"
       inkscape:vp_z="1 : 0.50395881 : 1"
       inkscape:persp3d-origin="0.5 : 0.33729881 : 1"
       id="perspective3571"
       sodipodi:type="inkscape:persp3d" />
    <inkscape:perspective
       inkscape:vp_x="0 : 0.50395881 : 1"
       inkscape:vp_y="0 : 1000 : 0"
       inkscape:vp_z="1 : 0.50395881 : 1"
       inkscape:persp3d-origin="0.5 : 0.33729881 : 1"
       id="perspective4417"
       sodipodi:type="inkscape:persp3d" />
    <inkscape:perspective
       inkscape:vp_x="0 : 0.50395881 : 1"
       inkscape:vp_y="0 : 1000 : 0"
       inkscape:vp_z="1 : 0.50395881 : 1"
       inkscape:persp3d-origin="0.5 : 0.33729881 : 1"
       id="perspective4450"
       sodipodi:type="inkscape:persp3d" />
    <inkscape:perspective
       inkscape:vp_x="0 : 0.50395881 : 1"
       inkscape:vp_y="0 : 1000 : 0"
       inkscape:vp_z="1 : 0.50395881 : 1"
       inkscape:persp3d-origin="0.5 : 0.33729881 : 1"
       id="perspective4487"
       sodipodi:type="inkscape:persp3d" />
    <inkscape:perspective
       inkscape:vp_x="0 : 0.50395881 : 1"
       inkscape:vp_y="0 : 1000 : 0"
       inkscape:vp_z="1 : 0.50395881 : 1"
       inkscape:persp3d-origin="0.5 : 0.33729881 : 1"
       id="perspective4516"
       sodipodi:type="inkscape:persp3d" />
    <inkscape:perspective
       inkscape:vp_x="0 : 0.50395881 : 1"
       inkscape:vp_y="0 : 1000 : 0"
       inkscape:vp_z="1 : 0.50395881 : 1"
       inkscape:persp3d-origin="0.5 : 0.33729881 : 1"
       id="perspective4549"
       sodipodi:type="inkscape:persp3d" />
    <inkscape:perspective
       inkscape:vp_x="0 : 0.50395881 : 1"
       inkscape:vp_y="0 : 1000 : 0"
       inkscape:vp_z="1 : 0.50395881 : 1"
       inkscape:persp3d-origin="0.5 : 0.33729881 : 1"
       id="perspective4574"
       sodipodi:type="inkscape:persp3d" />
    <inkscape:perspective
       inkscape:vp_x="0 : 0.50395881 : 1"
       inkscape:vp_y="0 : 1000 : 0"
       inkscape:vp_z="1 : 0.50395881 : 1"
       inkscape:persp3d-origin="0.5 : 0.33729881 : 1"
       id="perspective4630"
       sodipodi:type="inkscape:persp3d" />
    <inkscape:perspective
       inkscape:vp_x="0 : 0.50395881 : 1"
       inkscape:vp_y="0 : 1000 : 0"
       inkscape:vp_z="1 : 0.50395881 : 1"
       inkscape:persp3d-origin="0.5 : 0.33729881 : 1"
       id="perspective4655"
       sodipodi:type="inkscape:persp3d" />
    <inkscape:perspective
       inkscape:vp_x="0 : 0.50395881 : 1"
       inkscape:vp_y="0 : 1000 : 0"
       inkscape:vp_z="1 : 0.50395881 : 1"
       inkscape:persp3d-origin="0.5 : 0.33729881 : 1"
       id="perspective4694"
       sodipodi:type="inkscape:persp3d" />
    <inkscape:perspective
       inkscape:vp_x="0 : 0.50395881 : 1"
       inkscape:vp_y="0 : 1000 : 0"
       inkscape:vp_z="1 : 0.50395881 : 1"
       inkscape:persp3d-origin="0.5 : 0.33729881 : 1"
       id="perspective4719"
       sodipodi:type="inkscape:persp3d" />
    <inkscape:perspective
       inkscape:vp_x="0 : 0.50395881 : 1"
       inkscape:vp_y="0 : 1000 : 0"
       inkscape:vp_z="1 : 0.50395881 : 1"
       inkscape:persp3d-origin="0.5 : 0.33729881 : 1"
       id="perspective4751"
       sodipodi:type="inkscape:persp3d" />
    <inkscape:perspective
       inkscape:vp_x="0 : 0.50395881 : 1"
       inkscape:vp_y="0 : 1000 : 0"
       inkscape:vp_z="1 : 0.50395881 : 1"
       inkscape:persp3d-origin="0.5 : 0.33729881 : 1"
       id="perspective4776"
       sodipodi:type="inkscape:persp3d" />
    <inkscape:perspective
       inkscape:vp_x="0 : 0.50395881 : 1"
       inkscape:vp_y="0 : 1000 : 0"
       inkscape:vp_z="1 : 0.50395881 : 1"
       inkscape:persp3d-origin="0.5 : 0.33729881 : 1"
       id="perspective4801"
       sodipodi:type="inkscape:persp3d" />
    <inkscape:perspective
       inkscape:vp_x="0 : 0.50395881 : 1"
       inkscape:vp_y="0 : 1000 : 0"
       inkscape:vp_z="1 : 0.50395881 : 1"
       inkscape:persp3d-origin="0.5 : 0.33729881 : 1"
       id="perspective4832"
       sodipodi:type="inkscape:persp3d" />
    <inkscape:perspective
       inkscape:vp_x="0 : 0.50395881 : 1"
       inkscape:vp_y="0 : 1000 : 0"
       inkscape:vp_z="1 : 0.50395881 : 1"
       inkscape:persp3d-origin="0.5 : 0.33729881 : 1"
       id="perspective5167"
       sodipodi:type="inkscape:persp3d" />
    <inkscape:perspective
       inkscape:vp_x="0 : 0.50395881 : 1"
       inkscape:vp_y="0 : 1000 : 0"
       inkscape:vp_z="1 : 0.50395881 : 1"
       inkscape:persp3d-origin="0.5 : 0.33729881 : 1"
       id="perspective5195"
       sodipodi:type="inkscape:persp3d" />
    <inkscape:perspective
       inkscape:vp_x="0 : 0.50395881 : 1"
       inkscape:vp_y="0 : 1000 : 0"
       inkscape:vp_z="1 : 0.50395881 : 1"
       inkscape:persp3d-origin="0.5 : 0.33729881 : 1"
       id="perspective5002"
       sodipodi:type="inkscape:persp3d" />
    <inkscape:perspective
       inkscape:vp_x="0 : 0.50395881 : 1"
       inkscape:vp_y="0 : 1000 : 0"
       inkscape:vp_z="1 : 0.50395881 : 1"
       inkscape:persp3d-origin="0.5 : 0.33729881 : 1"
       id="perspective5033"
       sodipodi:type="inkscape:persp3d" />
    <inkscape:perspective
       inkscape:vp_x="0 : 0.50395881 : 1"
       inkscape:vp_y="0 : 1000 : 0"
       inkscape:vp_z="1 : 0.50395881 : 1"
       inkscape:persp3d-origin="0.5 : 0.33729881 : 1"
       id="perspective5051"
       sodipodi:type="inkscape:persp3d" />
    <inkscape:perspective
       id="perspective4096"
       inkscape:persp3d-origin="300 : 200.00396 : 1"
       inkscape:vp_z="600 : 300.00397 : 1"
       inkscape:vp_y="0 : 1000 : 0"
       inkscape:vp_x="0 : 300.00397 : 1"
       sodipodi:type="inkscape:persp3d" />
    <inkscape:perspective
       id="perspective4134"
       inkscape:persp3d-origin="300 : 200.00396 : 1"
       inkscape:vp_z="600 : 300.00397 : 1"
       inkscape:vp_y="0 : 1000 : 0"
       inkscape:vp_x="0 : 300.00397 : 1"
       sodipodi:type="inkscape:persp3d" />
    <inkscape:perspective
       id="perspective4151"
       inkscape:persp3d-origin="0.5 : 0.33729881 : 1"
       inkscape:vp_z="1 : 0.50395881 : 1"
       inkscape:vp_y="0 : 1000 : 0"
       inkscape:vp_x="0 : 0.50395881 : 1"
       sodipodi:type="inkscape:persp3d" />
    <inkscape:perspective
       id="perspective4336"
       inkscape:persp3d-origin="0.5 : 0.33729881 : 1"
       inkscape:vp_z="1 : 0.50395881 : 1"
       inkscape:vp_y="0 : 1000 : 0"
       inkscape:vp_x="0 : 0.50395881 : 1"
       sodipodi:type="inkscape:persp3d" />
    <inkscape:perspective
       id="perspective3760"
       inkscape:persp3d-origin="300 : 200.00396 : 1"
       inkscape:vp_z="600 : 300.00397 : 1"
       inkscape:vp_y="0 : 1000 : 0"
       inkscape:vp_x="0 : 300.00397 : 1"
       sodipodi:type="inkscape:persp3d" />
    <inkscape:perspective
       id="perspective3779"
       inkscape:persp3d-origin="300 : 200.00396 : 1"
       inkscape:vp_z="600 : 300.00397 : 1"
       inkscape:vp_y="0 : 1000 : 0"
       inkscape:vp_x="0 : 300.00397 : 1"
       sodipodi:type="inkscape:persp3d" />
    <inkscape:perspective
       inkscape:vp_x="0 : 300.00397 : 1"
       inkscape:vp_y="0 : 1000 : 0"
       inkscape:vp_z="600 : 300.00397 : 1"
       inkscape:persp3d-origin="300 : 200.00396 : 1"
       id="perspective12"
       sodipodi:type="inkscape:persp3d" />
    <inkscape:perspective
       id="perspective3819"
       inkscape:persp3d-origin="100 : 66.670638 : 1"
       inkscape:vp_z="200 : 100.00395 : 1"
       inkscape:vp_y="0 : 1000 : 0"
       inkscape:vp_x="0 : 100.00395 : 1"
       sodipodi:type="inkscape:persp3d" />
    <inkscape:perspective
       inkscape:vp_x="0 : 526.18505 : 1"
       inkscape:vp_y="0 : 1000 : 0"
       inkscape:vp_z="744.09448 : 526.18505 : 1"
       inkscape:persp3d-origin="372.04724 : 350.79136 : 1"
       sodipodi:type="inkscape:persp3d"
       id="perspective10-22" />
    <inkscape:perspective
       inkscape:vp_x="0 : 367.49848 : 1"
       inkscape:vp_y="0 : 1000 : 0"
       inkscape:vp_z="834.086 : 367.49848 : 1"
       inkscape:persp3d-origin="417.043 : 245.00031 : 1"
       sodipodi:type="inkscape:persp3d"
       id="perspective2832-1" />
    <inkscape:perspective
       inkscape:vp_x="0 : 300.50397 : 1"
       inkscape:vp_y="0 : 1000 : 0"
       inkscape:vp_z="601 : 300.50397 : 1"
       inkscape:persp3d-origin="300.5 : 200.33729 : 1"
       sodipodi:type="inkscape:persp3d"
       id="perspective3380-6" />
    <inkscape:perspective
       inkscape:vp_x="0 : 375.00396 : 1"
       inkscape:vp_y="0 : 1000 : 0"
       inkscape:vp_z="750 : 375.00396 : 1"
       inkscape:persp3d-origin="375 : 250.00397 : 1"
       sodipodi:type="inkscape:persp3d"
       id="perspective3990-8" />
    <inkscape:perspective
       inkscape:vp_x="0 : 450.00396 : 1"
       inkscape:vp_y="0 : 1000 : 0"
       inkscape:vp_z="900 : 450.00396 : 1"
       inkscape:persp3d-origin="450 : 300.00397 : 1"
       sodipodi:type="inkscape:persp3d"
       id="perspective14-5" />
    <inkscape:perspective
       inkscape:vp_x="0 : 100.00395 : 1"
       inkscape:vp_y="0 : 1000 : 0"
       inkscape:vp_z="200 : 100.00395 : 1"
       inkscape:persp3d-origin="100 : 66.670638 : 1"
       sodipodi:type="inkscape:persp3d"
       id="perspective9" />
    <inkscape:perspective
       inkscape:vp_x="0 : 450.00396 : 1"
       inkscape:vp_y="0 : 1000 : 0"
       inkscape:vp_z="900 : 450.00396 : 1"
       inkscape:persp3d-origin="450 : 300.00397 : 1"
       sodipodi:type="inkscape:persp3d"
       id="perspective17" />
    <inkscape:perspective
       inkscape:vp_x="0 : 450.00396 : 1"
       inkscape:vp_y="0 : 1000 : 0"
       inkscape:vp_z="900 : 450.00396 : 1"
       inkscape:persp3d-origin="450 : 300.00397 : 1"
       sodipodi:type="inkscape:persp3d"
       id="perspective14-1" />
    <inkscape:perspective
       inkscape:vp_x="0 : 450.00396 : 1"
       inkscape:vp_y="0 : 1000 : 0"
       inkscape:vp_z="900 : 450.00396 : 1"
       inkscape:persp3d-origin="450 : 300.00397 : 1"
       sodipodi:type="inkscape:persp3d"
       id="perspective10-8" />
    <inkscape:perspective
       inkscape:vp_x="0 : 450.00396 : 1"
       inkscape:vp_y="0 : 1000 : 0"
       inkscape:vp_z="900 : 450.00396 : 1"
       inkscape:persp3d-origin="450 : 300.00397 : 1"
       sodipodi:type="inkscape:persp3d"
       id="perspective19" />
    <inkscape:perspective
       inkscape:vp_x="0 : 450.00396 : 1"
       inkscape:vp_y="0 : 1000 : 0"
       inkscape:vp_z="900 : 450.00396 : 1"
       inkscape:persp3d-origin="450 : 300.00397 : 1"
       sodipodi:type="inkscape:persp3d"
       id="perspective22" />
    <inkscape:perspective
       inkscape:vp_x="0 : 0.50395881 : 1"
       inkscape:vp_y="0 : 1000 : 0"
       inkscape:vp_z="1 : 0.50395881 : 1"
       inkscape:persp3d-origin="0.5 : 0.33729881 : 1"
       sodipodi:type="inkscape:persp3d"
       id="perspective2836" />
    <inkscape:perspective
       inkscape:vp_x="0 : 0.50395881 : 1"
       inkscape:vp_y="0 : 1000 : 0"
       inkscape:vp_z="1 : 0.50395881 : 1"
       inkscape:persp3d-origin="0.5 : 0.33729881 : 1"
       sodipodi:type="inkscape:persp3d"
       id="perspective2850" />
    <inkscape:perspective
       inkscape:vp_x="0 : 0.50395881 : 1"
       inkscape:vp_y="0 : 1000 : 0"
       inkscape:vp_z="1 : 0.50395881 : 1"
       inkscape:persp3d-origin="0.5 : 0.33729881 : 1"
       sodipodi:type="inkscape:persp3d"
       id="perspective2864" />
    <inkscape:perspective
       inkscape:vp_x="0 : 450.00396 : 1"
       inkscape:vp_y="0 : 1000 : 0"
       inkscape:vp_z="900 : 450.00396 : 1"
       inkscape:persp3d-origin="450 : 300.00397 : 1"
       sodipodi:type="inkscape:persp3d"
       id="perspective10-2" />
    <inkscape:perspective
       id="perspective6006"
       inkscape:persp3d-origin="300 : 200.00396 : 1"
       inkscape:vp_z="600 : 300.00397 : 1"
       inkscape:vp_y="0 : 1000 : 0"
       inkscape:vp_x="0 : 300.00397 : 1"
       sodipodi:type="inkscape:persp3d" />
    <inkscape:perspective
       id="perspective22070"
       inkscape:persp3d-origin="0.5 : 0.33729881 : 1"
       inkscape:vp_z="1 : 0.50395881 : 1"
       inkscape:vp_y="0 : 1000 : 0"
       inkscape:vp_x="0 : 0.50395881 : 1"
       sodipodi:type="inkscape:persp3d" />
    <clipPath
       clipPathUnits="userSpaceOnUse"
       id="clipPath6314">
      <path
         d="M 0,0 H 206.95 V 162.16 H 0 Z"
         id="path6316" />
    </clipPath>
    <inkscape:perspective
       id="perspective46558"
       inkscape:persp3d-origin="0.5 : 0.33729881 : 1"
       inkscape:vp_z="1 : 0.50395881 : 1"
       inkscape:vp_y="0 : 1000 : 0"
       inkscape:vp_x="0 : 0.50395881 : 1"
       sodipodi:type="inkscape:persp3d" />
    <clipPath
       id="clip1">
      <path
         id="path73276"
         d="m 559,804 h 36.27734 v 19 H 559 Z m 0,0" />
    </clipPath>
  </defs>
  <sodipodi:namedview
     id="base"
     pagecolor="#ffffff"
     bordercolor="#666666"
     borderopacity="1.0"
     inkscape:pageopacity="0.0"
     inkscape:pageshadow="2"
     inkscape:zoom="0.66749445"
     inkscape:cx="4.4927819"
     inkscape:cy="254.63146"
     inkscape:document-units="px"
     inkscape:current-layer="layer1-9"
     showgrid="false"
     inkscape:window-width="1920"
     inkscape:window-height="1001"
     inkscape:window-x="-9"
     inkscape:window-y="-9"
     inkscape:window-maximized="1"
     inkscape:document-rotation="0" />
  <metadata
     id="metadata7">
    <rdf:RDF>
      <cc:Work
         rdf:about="">
        <dc:format>image/svg+xml</dc:format>
        <dc:type
           rdf:resource="http://purl.org/dc/dcmitype/StillImage" />
        <dc:title />
      </cc:Work>
    </rdf:RDF>
  </metadata>
  <g
     inkscape:label="Livello 1"
     inkscape:groupmode="layer"
     id="layer1"
     transform="translate(-310.94089,-549.7008)">
    <g
       inkscape:label="Layer 1"
       inkscape:groupmode="layer"
       transform="translate(-108.36693,1759.913)"
       id="layer1-9">
      <rect
         ry="27.202101"
         rx="249.48199"
         height="27.202101"
         width="0"
         y="298.168"
         x="578.73798"
         style="color:#000000;display:inline;overflow:visible;visibility:visible;fill:#000000;fill-opacity:1;fill-rule:nonzero;stroke:none;stroke-width:0.873544;marker-start:none;marker-mid:none;marker-end:none"
         id="rect3653" />
      <g
         transform="matrix(3,0,0,3,-2776.4438,-1366.9029)"
         id="g1882" />
      <g
         transform="matrix(3,0,0,3,-2472.0638,-1394.8999)"
         id="g2461" />
      <g
         id="layer1-4"
         transform="matrix(0.88381191,0,0,0.88381191,-1569.8528,-1726.3343)"
         inkscape:groupmode="layer"
         inkscape:label="Livello 1">
        <g
           transform="matrix(3.3943874,0,0,3.3943874,-2871.2253,276.02427)"
           id="g1882-1" />
        <g
           transform="matrix(3.3943874,0,0,3.3943874,-2526.8217,244.34649)"
           id="g2461-6" />
        <g
           transform="matrix(3.3943874,0,0,3.3943874,-2157.9843,263.37159)"
           id="g1882-0" />
        <g
           transform="matrix(3.3943874,0,0,3.3943874,-1813.5807,231.69404)"
           id="g2461-9" />
        <g
           transform="matrix(3.3943874,0,0,3.3943874,-3015.5884,314.80259)"
           id="g1882-5" />
        <g
           transform="matrix(3.3943874,0,0,3.3943874,-2671.1848,283.12503)"
           id="g2461-1" />
        <g
           transform="matrix(3.3943874,0,0,3.3943874,-2387.8723,165.00489)"
           id="g1882-2" />
        <g
           transform="matrix(3.3943874,0,0,3.3943874,-2043.4687,133.32734)"
           id="g2461-7" />
        <g
           inkscape:label="Livello 1"
           inkscape:groupmode="layer"
           transform="matrix(1.1314625,0,0,1.1314625,-1464.2594,-762.1262)"
           id="layer1-1">
          <g
             inkscape:label="Layer 1"
             inkscape:groupmode="layer"
             transform="translate(-108.367,1759.91)"
             id="layer1-9-8">
            <rect
               ry="27.202101"
               rx="249.48199"
               height="27.202101"
               width="0"
               y="298.168"
               x="578.73798"
               style="color:#000000;display:inline;overflow:visible;visibility:visible;fill:#000000;fill-opacity:1;fill-rule:nonzero;stroke:none;stroke-width:0.873544;marker-start:none;marker-mid:none;marker-end:none"
               id="rect3653-9" />
            <g
               transform="matrix(4.17043,0,0,4.17043,-2747.09,-1572.52)"
               id="g5634" />
            <g
               transform="matrix(4.17043,0,0,4.17043,-1023.25,-2009.04)"
               id="g5634-3" />
          </g>
        </g>
      </g>
      <g
         aria-label="3"
         transform="matrix(1.1041314,0,0,1.3845389,-3742.7802,-2485.9115)"
         id="text856"
         style="font-size:269.652px;line-height:1.15;font-family:IrisUPC;-inkscape-font-specification:'IrisUPC, Normal';fill:#000000;fill-opacity:1;stroke-width:6.74128" />
      <path
         sodipodi:nodetypes="ccccc"
         id="path82350-8"
         d="m 719.30492,-1209.2622 c -165.0599,0 -299.0479,133.992 -299.0471,299.05293 -8e-4,165.0612 133.9872,299.05026 299.0471,299.0529 165.0636,5.3e-4 299.05338,-133.9898 299.05288,-299.0529 5e-4,-165.06313 -133.98928,-299.05343 -299.05288,-299.05293 z"
         style="color:#000000;font-style:normal;font-variant:normal;font-weight:normal;font-stretch:normal;font-size:medium;line-height:normal;font-family:sans-serif;font-variant-ligatures:normal;font-variant-position:normal;font-variant-caps:normal;font-variant-numeric:normal;font-variant-alternates:normal;font-variant-east-asian:normal;font-feature-settings:normal;font-variation-settings:normal;text-indent:0;text-align:start;text-decoration:none;text-decoration-line:none;text-decoration-style:solid;text-decoration-color:#000000;letter-spacing:normal;word-spacing:normal;text-transform:none;writing-mode:lr-tb;direction:ltr;text-orientation:mixed;dominant-baseline:auto;baseline-shift:baseline;text-anchor:start;white-space:normal;shape-padding:0;shape-margin:0;inline-size:0;clip-rule:nonzero;display:inline;overflow:visible;visibility:visible;opacity:1;isolation:auto;mix-blend-mode:normal;color-interpolation:sRGB;color-interpolation-filters:linearRGB;solid-color:#000000;solid-opacity:1;vector-effect:none;fill:#ffffff;fill-opacity:1;fill-rule:evenodd;stroke:#000000;stroke-width:1.9;stroke-linecap:square;stroke-linejoin:round;stroke-miterlimit:2;stroke-dasharray:none;stroke-dashoffset:0;stroke-opacity:1;paint-order:stroke fill markers;color-rendering:auto;image-rendering:auto;shape-rendering:auto;text-rendering:auto;enable-background:accumulate;stop-color:#000000;stop-opacity:1" />
      <path
         id="path13191"
         style="opacity:1;fill:#000000;fill-rule:evenodd;stroke:none;stroke-width:1.9;stroke-linecap:square;stroke-linejoin:round;stroke-miterlimit:2;stroke-dasharray:none;stroke-opacity:1;paint-order:stroke fill markers"
         d="m 708.76552,-1175.2446 -75.6966,25.3662 86.2632,86.3668 103.4584,-103.2776 z m 101.7238,134.193 c -8.3846,-8e-4 -15.8931,3.5538 -21.1698,9.2145 -5.1913,-5.5973 -12.5935,-9.1111 -20.865,-9.1111 h -1.4557 c -4.8946,0 -9.4899,1.2276 -13.5041,3.3861 v -1.3677 h -15.006 v 79.04153 h 0.071 v 0.2114 h 14.9493 v -50.54173 c 0,-7.8089 6.2887,-14.0976 14.0976,-14.0976 7.809,0 14.0977,6.2887 14.0977,14.0976 v 50.54173 h 14.9442 v -50.54193 c 0,-7.8087 6.2887,-14.0974 14.0976,-14.0974 7.8087,0 14.0977,6.2887 14.0977,14.0974 v 50.54193 h 15.1041 l -0.026,-52.43113 c -8e-4,-2.5637 -0.032,-7.5315 -0.032,-7.5315 -2.7101,-11.4044 -15.4466,-21.4108 -28.9179,-21.4123 z m -180.626,2.1112 c -32.611,0.5574 -59.6783,26.0984 -61.7953,58.98713 0.026,0.026 0.058,0.026 0.058,0.053 0,0.026 0,0.032 -0.026,0.056 0,0.5809 0.4723,1.0503 1.0533,1.0532 h 36.0674 c 0.5209,0 0.9631,-0.3774 1.0426,-0.8931 0.026,0 0.032,-0.026 0.058,-0.032 2.0338,-13.0169 13.8283,-22.24593 26.9925,-21.02513 13.0386,1.21123 22.8792,12.25413 22.6252,25.35093 -0.029,0.111 -0.032,0.2194 -0.032,0.3301 0.8415,11.6164 -5.6676,22.5198 -16.2451,27.354 h -25.1289 -1.0583 v 2.1113 21.6497 16.9832 1.0633 1.0429 h 0.9552 c 0.037,0 0.071,0 0.1084,0.026 0.037,0 0.077,0 0.1136,-0.026 h 20.4622 c 20.6779,12.8462 30.7276,37.5768 24.7471,61.2014 0,0.029 0,0.056 0,0.082 -5.054,15.3396 -20.3999,24.7489 -36.3822,22.2021 h -0.026 c -15.9887,-2.5243 -27.7307,-16.3096 -27.7307,-32.5364 -2e-4,-0.1374 -0.1136,-0.2141 -0.14,-0.3357 -0.026,-0.069 -0.048,-0.1348 -0.082,-0.1955 -0.053,-0.1111 -0.1083,-0.193 -0.1903,-0.2733 -0.2008,-0.193 -0.4699,-0.2982 -0.7484,-0.2945 h -35.7371 c -0.5349,3e-4 -0.9864,0.3983 -1.053,0.9293 -0.061,0.048 -0.1163,0.1031 -0.1638,0.1639 0,39.2295 31.8209,71.0507 71.0507,71.0507 39.1734,0 70.9714,-31.775 71.0145,-70.9683 v -0.026 c 0,0 0,0 0,0 8e-4,-0.026 -6e-4,-0.032 0,-0.058 0.9538,-26.1753 -9.0863,-51.5347 -27.6068,-70.0181 14.6723,-13.128 22.7844,-32.0887 21.9801,-51.817 0,-0.053 0.05,-0.084 0.05,-0.14 0,-34.01203 -27.0358,-61.91553 -61.0465,-63.02373 h -0.026 c -1.063,-0.034 -2.1175,-0.042 -3.1694,-0.029 z m 216.3887,151.39843 c -1.168,0 -2.2709,0.077 -3.2779,0.1955 -5.0695,0.6108 -9.3432,2.6322 -12.8639,6.0863 -7.2391,7.103 -11.1737,20.2233 -11.7694,39.2987 -0.1084,3.4378 -0.087,7.3951 0.037,10.7577 0.4313,12.3515 2.311,22.394 5.6316,29.9918 1.0356,2.3686 1.9659,3.984 3.3038,5.7659 3.0883,4.1146 7.6813,7.5436 12.6884,9.4674 2.6903,1.0337 5.2103,1.5789 7.7381,1.6775 0.4776,0.029 1.4407,0 2.0906,-0.037 4.5168,-0.2666 8.7763,-1.5741 12.5489,-3.8561 0.8827,-0.5336 1.8012,-1.1708 2.6017,-1.8014 2.5238,-1.9878 4.6382,-4.3993 6.303,-7.1858 1.068,-1.7879 1.9148,-3.6682 2.6945,-5.9826 2.0407,-6.0556 3.2207,-14.2303 3.5464,-24.5715 0.069,-2.1617 0.077,-3.456 0.077,-6.205 0,-2.7167 -0.026,-4.1878 -0.077,-6.6537 -0.3888,-14.5226 -1.95,-24.2104 -5.0125,-31.055 -1.6159,-3.6119 -3.7028,-6.6373 -6.1996,-9.0028 -4.1709,-3.9509 -9.5837,-6.1782 -16.374,-6.7417 -1.2761,-0.1057 -2.5074,-0.1559 -3.6754,-0.1506 z m -102.7715,1.7398 -2.2199,53.2725 13.5609,1.59 c 2.0555,-7.3404 7.5362,-10.3386 12.9311,-10.2468 4.2327,0 7.8073,2.6847 10.546,5.9879 2.8221,3.3034 2.3784,7.4032 2.2867,12.2084 0,5.6058 -1.0977,10.4927 -3.2519,15.2075 -0.8683,1.9003 -2.2683,3.6203 -3.7737,5.0021 -3.4097,3.1293 -7.7164,4.9416 -11.9759,4.8007 -4.7309,0 -8.591,-2.6771 -12.4923,-5.0796 l -10.1125,10.3862 c 4.8583,4.2261 12.8898,9.2763 20.2766,9.2763 10.5408,-3e-4 20.1565,-3.4034 26.8789,-11.5115 6.8062,-8.1084 9.1746,-18.0542 9.2248,-27.8287 0.032,-5.3159 -0.5976,-10.9118 -2.6586,-15.9406 -1.1941,-2.9142 -3.2036,-5.5455 -4.9762,-8.0632 -1.885,-2.6753 -4.9791,-4.5039 -7.8103,-5.9467 -3.49,-1.7785 -7.3126,-2.9879 -11.6661,-3.1024 -1.9973,0 -4.7978,0.268 -7.098,0.795 -2.5734,0.59 -4.5425,1.4455 -4.5425,1.4455 l 0.6917,-17.7474 h 33.9303 v -14.5052 z m 105.0635,14.5414 v 0 0 c 0.6465,0 1.2813,0.029 1.8274,0.066 2.5428,0.2299 4.4048,1.0035 5.8124,2.4107 0.8651,0.8648 1.5327,1.9095 2.2043,3.4742 2.1714,5.0578 3.4319,12.1426 3.8973,21.9076 0.1559,3.2757 0.2167,6.3107 0.2167,10.6288 0,3.0463 0,3.9726 -0.077,5.957 -0.2485,6.6981 -1.0149,11.6508 -2.3539,15.228 -0.1823,0.4861 -0.361,0.9108 -1.0738,2.5193 -1.2298,2.7762 -2.0319,4.2824 -2.8647,5.3943 -1.653,2.2064 -3.636,3.1632 -6.8863,3.3191 -0.29,0.029 -1.3601,0.029 -1.6416,0 -1.2572,-0.053 -2.159,-0.1665 -3.0352,-0.3819 -2.242,-0.5527 -3.6967,-1.7119 -4.8163,-3.8355 -0.4562,-0.8658 -0.8439,-1.8078 -1.3783,-3.345 -0.2167,-0.6261 -1.1418,-3.4007 -1.2956,-3.892 -1.4719,-4.7072 -2.3559,-10.2513 -2.7204,-17.0916 -0.2326,-4.3691 -0.2537,-9.5761 -0.061,-14.0977 0.3832,-8.9919 1.5892,-16.068 3.5617,-20.9324 0.6951,-1.7142 1.5763,-3.286 2.3747,-4.238 1.5189,-1.8102 3.5313,-2.7577 6.4061,-3.0146 0.6039,-0.053 1.2636,-0.087 1.91,-0.087 z m -143.619,71.8923 c -3.1256,0 -5.6573,2.5423 -5.6579,5.6678 0,0.9182 0.2273,1.8028 0.6298,2.5862 0.9433,1.945 2.9126,3.1747 5.0746,3.1747 h 0.053 c -1.0574,1.7806 -2.528,2.7818 -4.1246,3.7169 -1.4727,0.8618 -3.8236,1.3188 -4.8472,1.6413 2.8163,0.2299 5.2685,0.1506 7.2682,-0.5006 2.403,-0.7831 4.1714,-2.3047 5.3943,-3.8923 1.2665,-1.644 1.8998,-3.5773 1.8998,-5.5286 0,-0.1639 0.001,-0.4411 0,-0.6967 v -0.3822 c 2e-4,-0.1929 0,-0.3861 -0.032,-0.578 -0.2325,-2.916 -2.6715,-5.2085 -5.6472,-5.2085 z m 14.4071,41.601 -86.2632,86.3668 75.6966,25.3662 114.025,-8.4554 z" />
      <path
         id="path82352-8"
         d="m 719.30492,-1200.7885 c -160.4812,0 -290.5743,130.098 -290.5737,290.57923 -6e-4,160.4812 130.0925,290.5774 290.5737,290.58004 160.4836,5.3e-4 290.58058,-130.09644 290.58028,-290.58004 3e-4,-160.48303 -130.09668,-290.58003 -290.58028,-290.57923 z m -0.6364,70.5615 c 0.1717,-3e-4 0.3309,-3e-4 0.4926,0 121.4888,5e-4 219.9755,98.4872 219.9763,219.97653 -8e-4,121.489 -98.4875,219.9757 -219.9763,219.9762 -121.4906,-5e-4 -219.9776,-98.4872 -219.9779,-219.9762 0,-121.29773 98.1875,-219.70543 219.4853,-219.97653 z"
         style="color:#000000;font-style:normal;font-variant:normal;font-weight:normal;font-stretch:normal;font-size:medium;line-height:normal;font-family:sans-serif;font-variant-ligatures:normal;font-variant-position:normal;font-variant-caps:normal;font-variant-numeric:normal;font-variant-alternates:normal;font-variant-east-asian:normal;font-feature-settings:normal;font-variation-settings:normal;text-indent:0;text-align:start;text-decoration:none;text-decoration-line:none;text-decoration-style:solid;text-decoration-color:#000000;letter-spacing:normal;word-spacing:normal;text-transform:none;writing-mode:lr-tb;direction:ltr;text-orientation:mixed;dominant-baseline:auto;baseline-shift:baseline;text-anchor:start;white-space:normal;shape-padding:0;shape-margin:0;inline-size:0;clip-rule:nonzero;display:inline;overflow:visible;visibility:visible;opacity:1;isolation:auto;mix-blend-mode:normal;color-interpolation:sRGB;color-interpolation-filters:linearRGB;solid-color:#000000;solid-opacity:1;vector-effect:none;fill:#ed232a;fill-opacity:1;fill-rule:evenodd;stroke:none;stroke-width:6.4;stroke-linecap:square;stroke-linejoin:round;stroke-miterlimit:2;stroke-dasharray:none;stroke-dashoffset:0;stroke-opacity:1;paint-order:stroke fill markers;color-rendering:auto;image-rendering:auto;shape-rendering:auto;text-rendering:auto;enable-background:accumulate;stop-color:#000000;stop-opacity:1" />
    </g>
  </g>
</svg>
