<svg width="600" height="600.01" version="1.1" xmlns="http://www.w3.org/2000/svg"><g transform="translate(436.61 -515.27)"><g transform="translate(-108.37 1759.9)"><rect x="578.74" y="298.17" width="0" height="27.202" rx="249.48" ry="27.202" color="#000000"/><g transform="matrix(.88381 0 0 .88381 -1569.9 -1726.3)"><g transform="matrix(1.1315 0 0 1.1315 -1464.3 -762.13)"><g transform="translate(-108.37 1759.9)"><rect x="578.74" y="298.17" width="0" height="27.202" rx="249.48" ry="27.202" color="#000000"/></g></g></g><g fill-rule="evenodd"><path d="m-28.244-1243.7c-165.06 0-299.05 133.99-299.05 299.05-8.2e-4 165.06 133.99 299.05 299.05 299.05 165.06 5.3e-4 299.05-133.99 299.05-299.05 5e-4 -165.06-133.99-299.05-299.05-299.05z" color="#000000" color-rendering="auto" dominant-baseline="auto" enable-background="accumulate" fill="#fff" image-rendering="auto" shape-rendering="auto" solid-color="#000000" stop-color="#000000" stroke="#000" stroke-linecap="square" stroke-linejoin="round" stroke-miterlimit="2" stroke-width="1.9" style="font-feature-settings:normal;font-variant-alternates:normal;font-variant-caps:normal;font-variant-east-asian:normal;font-variant-ligatures:normal;font-variant-numeric:normal;font-variant-position:normal;font-variation-settings:normal;inline-size:0;isolation:auto;mix-blend-mode:normal;paint-order:stroke fill markers;shape-margin:0;shape-padding:0;text-decoration-color:#000000;text-decoration-line:none;text-decoration-style:solid;text-indent:0;text-orientation:mixed;text-transform:none;white-space:normal"/><path d="m-28.244-1235.2c-160.48 0-290.57 130.1-290.57 290.58-6.4e-4 160.48 130.09 290.58 290.57 290.58 160.48 5.3e-4 290.58-130.1 290.58-290.58 3.2e-4 -160.48-130.1-290.58-290.58-290.58zm-0.63635 70.562c0.17166-3e-4 0.33095-3e-4 0.49258 0 121.49 5e-4 219.98 98.487 219.98 219.98-7.6e-4 121.49-98.488 219.98-219.98 219.98-121.49-5.3e-4 -219.98-98.487-219.98-219.98 0-121.3 98.187-219.71 219.49-219.98z" color="#000000" color-rendering="auto" dominant-baseline="auto" enable-background="accumulate" fill="#ed232a" image-rendering="auto" shape-rendering="auto" solid-color="#000000" stop-color="#000000" style="font-feature-settings:normal;font-variant-alternates:normal;font-variant-caps:normal;font-variant-east-asian:normal;font-variant-ligatures:normal;font-variant-numeric:normal;font-variant-position:normal;font-variation-settings:normal;inline-size:0;isolation:auto;mix-blend-mode:normal;paint-order:stroke fill markers;shape-margin:0;shape-padding:0;text-decoration-color:#000000;text-decoration-line:none;text-decoration-style:solid;text-indent:0;text-orientation:mixed;text-transform:none;white-space:normal"/><path d="m-104.25-1056.9v113.34h243.09v-113.34zm-70.471 38.268-20.412 51.539v57.898h12.335s-0.142-3.7506 1.2159-8.5424c1.1375-4.0317 3.4167-8.7607 6.8815-12.961 2.8904-3.504 7.2884-6.3823 11.823-8.4025 4.6752-2.083 8.4926-3.1037 12.94-3.2804 3.2467-0.12981 6.5859 0.45512 9.6134 1.635 6.0848 2.371 12.414 5.5062 16.443 10.653 3.208 4.098 5.323 8.9165 6.3589 12.997 1.1157 4.3923 1.0245 7.9008 1.0245 7.9008h149.27s0.0975-1.7601 0.4605-4.3928c0.37451-2.6446 1.1872-5.7727 1.9972-7.7405 0.86214-2.0981 2.4669-5.0723 4.191-7.4247 1.1146-1.5206 2.2538-2.8009 3.0372-3.6269 0.60433-0.63738 0.9933-1.004 0.99343-1.004h-157.75v-85.248zm3.1045 14.089h47.033v32.814h-60.014zm22 70.29c-13.782 0-25.063 11.304-25.063 25.027s11.281 25.032 25.063 25.032c13.782 0 25.068-11.309 25.068-25.032s-11.287-25.027-25.068-25.027zm215.52 0c-13.782 0-25.069 11.304-25.069 25.027 0 13.723 11.287 25.032 25.069 25.032 13.782 0 25.069-11.309 25.069-25.032s-11.287-25.027-25.069-25.027zm22.637 0.86919s2.0619 1.9376 4.0358 4.631c1.7248 2.3522 3.3238 5.3317 4.1858 7.43 0.80841 1.9678 1.6279 5.0853 2.0024 7.7302 0.37848 2.6324 0.30009 4.7963 0.30009 4.7963l39.784-12.941v-11.647zm-238.15 13.018c6.1921 0 11.104 4.8842 11.104 11.14s-4.9115 11.145-11.104 11.145c-6.1921 0-11.098-4.8892-11.098-11.145s4.9063-11.14 11.098-11.14zm215.52 0c6.192 0 11.098 4.8842 11.098 11.14s-4.9064 11.145-11.098 11.145c-6.1924 0-11.098-4.8892-11.098-11.145s4.9061-11.14 11.098-11.14zm-114.68 70.347c-0.57688 2.6e-4 -1.1219 0.0344-1.6195 0.0927-2.5127 0.30279-4.6346 1.3095-6.3797 3.0216-3.5881 3.5204-5.536 10.021-5.8312 19.475-0.0532 1.7039-0.0471 3.6677 0.0106 5.3346 0.21379 6.1216 1.148 11.099 2.794 14.865 0.51313 1.1738 0.97196 1.9728 1.635 2.856 1.5308 2.0393 3.8049 3.7393 6.2865 4.693 1.3335 0.51234 2.5811 0.78441 3.834 0.83289 0.23657 0 0.71781-2e-3 1.04-0.0265 2.2387-0.13246 4.3494-0.77806 6.2193-1.909 0.43748-0.26492 0.89152-0.57752 1.2884-0.89012 1.2509-0.98521 2.3001-2.1837 3.1251-3.5649 0.52951-0.88614 0.9484-1.8176 1.3349-2.9646 1.0114-3.0015 1.5978-7.0491 1.7592-12.175 0.0352-1.0716 0.0413-1.7164 0.0413-3.0786 0-1.3466-0.0106-2.0788-0.0413-3.3011-0.19286-7.1982-0.96572-12-2.4836-15.393-0.80089-1.79-1.8358-3.2876-3.0734-4.4601-2.0673-1.9582-4.7472-3.0632-8.113-3.3424-0.6306-0.053-1.2438-0.0768-1.8213-0.0715zm-34.196 0.14835c-1.5109 1.874-2.4098 2.5344-5.1689 3.2182v5.6037h3.208v41.993h7.1558v-50.815zm35.329 7.9215h5e-3c0.32036 0 0.62962 0 0.90028 0.0371 1.2604 0.11392 2.1894 0.49274 2.8872 1.1903 0.42876 0.42837 0.7536 0.95263 1.0865 1.728 1.0764 2.5069 1.7044 6.0151 1.9351 10.855 0.0774 1.6234 0.10861 3.1268 0.10861 5.267 0 1.5097-5e-3 1.971-0.0413 2.9546-0.12266 3.3196-0.50578 5.7756-1.1693 7.549-0.0903 0.24107-0.17988 0.44956-0.53293 1.247-0.60957 1.376-1.005 2.1241-1.4177 2.6748-0.8193 1.0936-1.8038 1.5683-3.4149 1.6454h-0.81234c-0.62305-0.0291-1.0713-0.0848-1.5057-0.19073-1.1112-0.27392-1.8304-0.84614-2.3853-1.8989-0.22597-0.42889-0.41811-0.89885-0.683-1.6607-0.10809-0.31048-0.56535-1.6862-0.64157-1.9299-0.72957-2.3331-1.17-5.0795-1.3504-8.4701-0.1155-2.1654-0.1261-4.7438-0.031-6.985 0.18995-4.4569 0.78674-7.9684 1.7644-10.379 0.34476-0.84958 0.78394-1.629 1.1797-2.1005 0.75294-0.89753 1.7468-1.363 3.1717-1.4901 0.29919-0.0291 0.62636-0.045 0.94685-0.0477zm-128.03 4.6413-17.38 12.816 17.375 12.718v-8.1596h53.619v-9.2203h-53.614zm295.85 0v8.1543h-53.614v9.2203h53.619v8.1596l17.375-12.718zm-102.33 1.5884c-3.7085-2.6e-4 -7.0313 1.5683-9.3651 4.072-2.2961-2.4756-5.567-4.0307-9.2254-4.0307h-0.64676c-2.1648 0-4.1954 0.54572-5.9709 1.5005v-0.60533h-6.6384v34.961h0.031v0.0927h6.6125v-22.357c0-3.4537 2.7809-6.2348 6.2348-6.2348 3.4539 0 6.24 2.7811 6.24 6.2348v22.357h6.6073v-22.357c0-3.4537 2.781-6.2348 6.2348-6.2348 3.4537 0 6.2348 2.7811 6.2348 6.2348v22.357h6.6798l-0.0106-23.19c-3.9e-4 -1.1341-0.0106-3.3321-0.0106-3.3321-1.1986-5.0442-6.8321-9.468-12.79-9.4688z" style="paint-order:stroke fill markers"/></g></g></g></svg>