<svg width="600" height="600.01" version="1.1" xmlns="http://www.w3.org/2000/svg"><g transform="translate(-2226 -987.4)"><g transform="translate(-108.37 1759.9)"><rect x="578.74" y="298.17" width="0" height="27.202" rx="249.48" ry="27.202" color="#000000"/><g transform="matrix(.88381 0 0 .88381 -1569.9 -1726.3)"><g transform="matrix(1.1315 0 0 1.1315 -1464.3 -762.13)"><g transform="translate(-108.37 1759.9)"><rect x="578.74" y="298.17" width="0" height="27.202" rx="249.48" ry="27.202" color="#000000"/></g></g></g><g fill-rule="evenodd"><path d="m2634.3-771.57c-165.06 0-299.05 133.99-299.05 299.05-5e-4 165.06 133.99 299.05 299.05 299.05 165.06 5.5e-4 299.05-133.99 299.05-299.05 8e-4 -165.06-133.99-299.05-299.05-299.05z" color="#000000" color-rendering="auto" dominant-baseline="auto" enable-background="accumulate" fill="#fff" image-rendering="auto" shape-rendering="auto" solid-color="#000000" stop-color="#000000" stroke="#000" stroke-linecap="square" stroke-linejoin="round" stroke-miterlimit="2" stroke-width="1.9" style="font-feature-settings:normal;font-variant-alternates:normal;font-variant-caps:normal;font-variant-east-asian:normal;font-variant-ligatures:normal;font-variant-numeric:normal;font-variant-position:normal;font-variation-settings:normal;inline-size:0;isolation:auto;mix-blend-mode:normal;paint-order:stroke fill markers;shape-margin:0;shape-padding:0;text-decoration-color:#000000;text-decoration-line:none;text-decoration-style:solid;text-indent:0;text-orientation:mixed;text-transform:none;white-space:normal"/><path d="m2639.6-658.19c-11.065 9.3296-23.399 21.798-30.886 38.145-3.8354 8.3106-6.9672 16.793-8.8711 25.404-1.8125 8.1996-2.4903 16.518-2.4903 24.914 0 11.146 1.8406 18.708 8.6955 26.386 6.9604 7.6782 14.808 12.054 25.038 12.054 5.288 0 9.7248-0.93718 14.053-2.7125 4.0444-1.6586 8.0399-4.0294 11.351-7.5588 6.9601-7.3067 10.814-16.454 10.814-27.228 0-7.5381-0.5608-14.681-3.3585-21.059-1.0632-2.424-2.0758-5.0321-4.0505-7.0783-7.0657-7.4306-15.493-13.464-25.301-13.464-4.5346 0-7.1157-0.0844-11.139 1.0592 5.9506-13.52 17.843-27.372 27.332-34.792zm69.119 49.682-11.522 6.5513v14.906h-6.5408v10.013h6.5408v36.11c0 4.4393 3.5744 7.9759 8.0135 8.0134l14.384 0.11878v-9.4188h-8.5145c-1.333 0-2.4086-1.0696-2.4078-2.4025l0.026-32.421h6.8768v-10.013h-6.8715zm-76.601 16.228c5.2729 0 10.151 2.2754 13.185 6.0398 1.5679 1.9456 2.7573 4.4606 3.3014 7.1042 0.7515 3.6481 0.5116 7.5276 0.5116 10.328 0 4.9537-0.9066 9.3855-3.7408 12.818-3.0341 3.6753-7.5476 6.5306-12.715 6.5306-5.2729 0-8.5126-1.3582-12.204-4.9497-3.6911-3.5914-5.2235-8.3764-5.2235-13.454 0.066-3.4629-0.3624-7.6235 0.3873-11.382 0.4571-2.2901 1.5364-4.401 2.8934-6.2052 3.0506-4.0552 7.5926-6.9541 13.604-6.8303zm-10.085 85.828v39.576l-16.611-2.7538c-1.4015 0.10978-1.205 0.8247-1.1626 1.4828l27.828 46.665 27.828-46.665c0.2775-0.5274 0.2593-1.3814-0.961-1.5758l-16.817 2.8468v-39.576zm-134.95 74.875c-5.5186 0-9.9615 4.4479-9.9615 9.9664v80.326c0 5.5186 4.4429 9.9613 9.9615 9.9613h19.954c5.5186 0 9.9615-4.4428 9.9615-9.9613v-80.326c0-5.5186-4.4429-9.9664-9.9615-9.9664zm45.761 0c-5.5187 0-9.9613 4.4479-9.9613 9.9664v80.326c0 5.5186 4.4426 9.9613 9.9613 9.9613h19.954c5.5184 0 9.9612-4.4428 9.9612-9.9613v-32.235h50.752a20.147 20.147 0 0 0 18.528 12.235 20.147 20.147 0 0 0 18.522-12.235h50.881v32.235c0 5.5186 4.4425 9.9613 9.9612 9.9613h19.953c5.5187 0 9.9615-4.4428 9.9615-9.9613v-80.326c0-5.5186-4.4428-9.9664-9.9615-9.9664h-19.953c-5.5187 0-9.9612 4.4479-9.9612 9.9664v32.085h-50.959a20.147 20.147 0 0 0-18.445-12.054 20.147 20.147 0 0 0-18.45 12.054h-50.829v-32.085c0-5.5186-4.4428-9.9664-9.9612-9.9664zm224.32 0c-5.5185 0-9.9613 4.4479-9.9613 9.9664v80.326c0 5.5186 4.4428 9.9613 9.9613 9.9613h19.954c5.5184 0 9.9613-4.4428 9.9613-9.9613v-80.326c0-5.5186-4.4429-9.9664-9.9613-9.9664z" style="paint-order:stroke fill markers"/><path d="m2634.3-763.09c-160.48 0-290.58 130.1-290.57 290.58-3e-4 160.48 130.09 290.58 290.57 290.58 160.48 4.5e-4 290.58-130.1 290.58-290.58 5e-4 -160.48-130.1-290.58-290.58-290.58zm-0.6365 70.562c0.1641-2.1e-4 0.3278-2.1e-4 0.4915 0 121.49 5.8e-4 219.98 98.487 219.98 219.98-5e-4 121.49-98.487 219.98-219.98 219.98-121.49-5e-4 -219.98-98.487-219.98-219.98 5e-4 -121.3 98.188-219.71 219.49-219.98z" color="#000000" color-rendering="auto" dominant-baseline="auto" enable-background="accumulate" fill="#ed232a" image-rendering="auto" shape-rendering="auto" solid-color="#000000" stop-color="#000000" style="font-feature-settings:normal;font-variant-alternates:normal;font-variant-caps:normal;font-variant-east-asian:normal;font-variant-ligatures:normal;font-variant-numeric:normal;font-variant-position:normal;font-variation-settings:normal;inline-size:0;isolation:auto;mix-blend-mode:normal;paint-order:stroke fill markers;shape-margin:0;shape-padding:0;text-decoration-color:#000000;text-decoration-line:none;text-decoration-style:solid;text-indent:0;text-orientation:mixed;text-transform:none;white-space:normal"/></g></g></g></svg>