<svg width="600" height="600.01" version="1.1" xmlns="http://www.w3.org/2000/svg"><g transform="translate(-1575.1 -934.03)"><g transform="translate(-108.37 1759.9)"><rect x="578.74" y="298.17" width="0" height="27.202" rx="249.48" ry="27.202" color="#000000"/><g transform="matrix(.88381 0 0 .88381 -1569.9 -1726.3)"><g transform="matrix(1.1315 0 0 1.1315 -1464.3 -762.13)"><g transform="translate(-108.37 1759.9)"><rect x="578.74" y="298.17" width="0" height="27.202" rx="249.48" ry="27.202" color="#000000"/></g></g></g><g fill-rule="evenodd"><path d="m1983.5-824.94c-165.06 0-299.05 133.99-299.05 299.05-5e-4 165.06 133.99 299.05 299.05 299.05 165.06 5.9e-4 299.05-133.99 299.05-299.05 8e-4 -165.06-133.99-299.05-299.05-299.05z" color="#000000" color-rendering="auto" dominant-baseline="auto" enable-background="accumulate" fill="#fff" image-rendering="auto" shape-rendering="auto" solid-color="#000000" stop-color="#000000" stroke="#000" stroke-linecap="square" stroke-linejoin="round" stroke-miterlimit="2" stroke-width="1.9" style="font-feature-settings:normal;font-variant-alternates:normal;font-variant-caps:normal;font-variant-east-asian:normal;font-variant-ligatures:normal;font-variant-numeric:normal;font-variant-position:normal;font-variation-settings:normal;inline-size:0;isolation:auto;mix-blend-mode:normal;paint-order:stroke fill markers;shape-margin:0;shape-padding:0;text-decoration-color:#000000;text-decoration-line:none;text-decoration-style:solid;text-indent:0;text-orientation:mixed;text-transform:none;white-space:normal"/><path d="m1978.6-653.93-136.73 2e-3v36.708h93.576c-40.117 65.331-61.065 139.64-61.245 219.09h35.433c0.6282-108.22 41.187-180.48 68.965-219.35zm91.153 0.97343-15.487 8.8025v20.044h-8.7975v13.468h8.7975v48.559c-2e-4 5.9694 4.8059 10.72 10.775 10.77l19.34 0.16038v-12.665h-11.448c-1.7924 0-3.2375-1.4386-3.2362-3.231l0.032-43.593h9.2476v-13.468h-9.2426zm-60.018 152.81c-1.1506 0-2.2391 0.0798-3.2312 0.19644-4.9936 0.60167-9.2023 2.5884-12.67 5.9909-7.131 6.9969-11.007 19.925-11.593 38.716-0.1056 3.3864-0.085 7.2817 0.037 10.594 0.4248 12.167 2.2744 22.061 5.5456 29.545 1.0202 2.3332 1.939 3.925 3.257 5.6802 3.0421 4.0532 7.5673 7.4304 12.5 9.3255 2.6503 1.0183 5.1319 1.5547 7.6219 1.6518 0.4706 0.0283 1.4154 3.7e-4 2.0556-0.0364 4.4494-0.26272 8.6487-1.5525 12.365-3.8006 0.8696-0.52558 1.7744-1.1496 2.5631-1.7708 2.486-1.9581 4.5684-4.3334 6.2084-7.0783 1.0519-1.7612 1.8831-3.6127 2.6511-5.8925 2.0103-5.9652 3.1742-14.02 3.495-24.207 0.068-2.1294 0.077-3.402 0.077-6.11 0-2.6761-0.026-4.1262-0.077-6.5553-0.3828-14.306-1.9229-23.849-4.9396-30.591-1.592-3.558-3.6455-6.5397-6.1049-8.8698-4.1086-3.8919-9.4404-6.083-16.129-6.6382-1.257-0.10387-2.4688-0.15588-3.6193-0.15033zm82.713 0c-1.1506 0-2.2391 0.0798-3.2311 0.19644-4.9936 0.60167-9.2023 2.5884-12.67 5.9909-7.1313 6.9969-11.007 19.925-11.594 38.716-0.1056 3.3864-0.085 7.2817 0.037 10.594 0.4247 12.167 2.2796 22.061 5.5506 29.545 1.0204 2.3332 1.934 3.925 3.2519 5.6802 3.0422 4.0532 7.5674 7.4304 12.5 9.3255 2.6501 1.0183 5.1317 1.5547 7.622 1.6518 0.4703 0.0283 1.4201 3.7e-4 2.0606-0.0364 4.4494-0.26272 8.6435-1.5525 12.36-3.8006 0.8696-0.52558 1.7746-1.1496 2.5632-1.7708 2.4862-1.9581 4.5683-4.3334 6.2083-7.0783 1.052-1.7612 1.8884-3.6127 2.6564-5.8925 2.0101-5.9652 3.1688-14.02 3.4899-24.207 0.069-2.1294 0.077-3.402 0.077-6.11 0-2.6761-0.026-4.1262-0.077-6.5553-0.383-14.306-1.9177-23.849-4.9347-30.591-1.5918-3.558-3.6504-6.5397-6.11-8.8698-4.1085-3.8919-9.4404-6.083-16.129-6.6382-1.2572-0.10387-2.469-0.15588-3.6196-0.15033zm-80.45 16.031v0.0108c0.6369 0 1.2585 0.0239 1.7967 0.0617 2.505 0.22666 4.3404 0.99053 5.7269 2.3767 0.8521 0.85196 1.5079 1.8813 2.1694 3.4226 2.1392 4.9822 3.3837 11.963 3.8422 21.582 0.1538 3.2268 0.2122 6.2162 0.2122 10.47 0 3.001 0 3.912-0.077 5.8667-0.2439 6.598-0.9957 11.477-2.3146 15.001-0.1804 0.47888-0.3595 0.89577-1.0616 2.4803-1.2112 2.7347-2.0016 4.2173-2.8218 5.3125-1.6284 2.1735-3.5814 3.1189-6.7831 3.2725-0.2856 0.0283-1.3384 0.0283-1.6157 0-1.2383-0.0522-2.1246-0.16569-2.9875-0.37803-2.2086-0.54443-3.6452-1.688-4.7484-3.7799-0.4494-0.85291-0.8301-1.779-1.3566-3.2932-0.2147-0.61679-1.1222-3.3478-1.2739-3.8317-1.4498-4.6369-2.3229-10.1-2.6821-16.839-0.2279-4.3038-0.2466-9.4332-0.058-13.887 0.3775-8.8576 1.5626-15.827 3.5055-20.619 0.6848-1.6886 1.5542-3.2357 2.3404-4.1734 1.4963-1.7832 3.4802-2.7191 6.3121-2.9721 0.595-0.0522 1.2429-0.0827 1.8794-0.0827zm82.713 0v0.0108c0.6368 0 1.2641 0.0239 1.802 0.0617 2.5048 0.22666 4.3351 0.99053 5.7216 2.3767 0.8521 0.85196 1.5132 1.8813 2.1747 3.4226 2.139 4.9822 3.3786 11.963 3.837 21.582 0.1538 3.2268 0.2174 6.2162 0.2174 10.47 0 3.001 0 3.912-0.077 5.8667-0.244 6.598-1.0009 11.477-2.3198 15.001-0.1803 0.47888-0.3542 0.89577-1.0565 2.4803-1.2112 2.7347-2.0016 4.2173-2.8218 5.3125-1.6284 2.1735-3.5814 3.1189-6.7831 3.2725-0.2856 0.0283-1.3433 0.0283-1.6207 0-1.2386-0.0522-2.1246-0.16569-2.9878-0.37803-2.2086-0.54443-3.6399-1.688-4.7431-3.7799-0.4491-0.85291-0.8354-1.779-1.3616-3.2932-0.2147-0.61679-1.1223-3.3478-1.2738-3.8317-1.4499-4.6369-2.3233-10.1-2.6822-16.839-0.228-4.3038-0.2466-9.4332-0.059-13.887 0.3775-8.8576 1.5676-15.827 3.5106-20.619 0.6847-1.6886 1.5488-3.2357 2.3353-4.1734 1.4964-1.7832 3.4802-2.7191 6.3118-2.9721 0.5949-0.0522 1.2428-0.0827 1.8797-0.0827zm-142.78 76.049c-3.0476 0-5.519 2.4823-5.5195 5.5301 0 0.89536 0.2226 1.7577 0.6161 2.5216 0.9199 1.8966 2.842 3.0912 4.9502 3.0912h0.048c-1.031 1.7363-2.461 2.7127-4.018 3.6246-1.4361 0.8404-3.7293 1.2907-4.7274 1.6052 2.7463 0.22401 5.1385 0.14289 7.0885-0.49192 2.3434-0.7636 4.0684-2.2473 5.2609-3.7954 1.2348-1.6031 1.8485-3.4875 1.8485-5.3902 0-0.16013 9e-4 -0.42908 0-0.67829v-0.37286c0-0.18795 6e-4 -0.3773-0.031-0.56436-0.2279-2.8435-2.6025-5.0796-5.5042-5.0796z" style="paint-order:stroke fill markers"/><path d="m1983.5-816.46c-160.48 0-290.58 130.1-290.58 290.58-3e-4 160.48 130.09 290.58 290.58 290.58 160.48 4.8e-4 290.58-130.1 290.58-290.58 6e-4 -160.48-130.1-290.58-290.58-290.58zm-0.6365 70.562c0.1643-2.2e-4 0.3279-2.2e-4 0.4912 0 121.49 5.5e-4 219.98 98.487 219.98 219.98-5e-4 121.49-98.487 219.98-219.98 219.98-121.49-5e-4 -219.98-98.487-219.98-219.98 6e-4 -121.3 98.188-219.71 219.49-219.98z" color="#000000" color-rendering="auto" dominant-baseline="auto" enable-background="accumulate" fill="#ed232a" image-rendering="auto" shape-rendering="auto" solid-color="#000000" stop-color="#000000" style="font-feature-settings:normal;font-variant-alternates:normal;font-variant-caps:normal;font-variant-east-asian:normal;font-variant-ligatures:normal;font-variant-numeric:normal;font-variant-position:normal;font-variation-settings:normal;inline-size:0;isolation:auto;mix-blend-mode:normal;paint-order:stroke fill markers;shape-margin:0;shape-padding:0;text-decoration-color:#000000;text-decoration-line:none;text-decoration-style:solid;text-indent:0;text-orientation:mixed;text-transform:none;white-space:normal"/></g></g></g></svg>