<svg width="600" height="600.01" version="1.1" xmlns="http://www.w3.org/2000/svg"><g transform="translate(-666.54 -710.38)"><g transform="translate(-108.37 1759.9)"><rect x="578.74" y="298.17" width="0" height="27.202" rx="249.48" ry="27.202" color="#000000"/><g transform="matrix(.88381 0 0 .88381 -1569.9 -1726.3)"><g transform="matrix(1.1315 0 0 1.1315 -1464.3 -762.13)"><g transform="translate(-108.37 1759.9)"><rect x="578.74" y="298.17" width="0" height="27.202" rx="249.48" ry="27.202" color="#000000"/></g></g></g><g fill-rule="evenodd"><path d="m1074.9-1048.6c-165.06 0-299.05 133.99-299.05 299.05-5.5e-4 165.06 133.99 299.05 299.05 299.05 165.06 5.3e-4 299.05-133.99 299.05-299.05 5e-4 -165.06-133.99-299.05-299.05-299.05z" color="#000000" color-rendering="auto" dominant-baseline="auto" enable-background="accumulate" fill="#fff" image-rendering="auto" shape-rendering="auto" solid-color="#000000" stop-color="#000000" stroke="#000" stroke-linecap="square" stroke-linejoin="round" stroke-miterlimit="2" stroke-width="1.9" style="font-feature-settings:normal;font-variant-alternates:normal;font-variant-caps:normal;font-variant-east-asian:normal;font-variant-ligatures:normal;font-variant-numeric:normal;font-variant-position:normal;font-variation-settings:normal;inline-size:0;isolation:auto;mix-blend-mode:normal;paint-order:stroke fill markers;shape-margin:0;shape-padding:0;text-decoration-color:#000000;text-decoration-line:none;text-decoration-style:solid;text-indent:0;text-orientation:mixed;text-transform:none;white-space:normal"/><path d="m855.38-748.47a219.25 219.25 0 0 0 0.11831 7.2109h13.203v26.205h-10.736a219.25 219.25 0 0 0 12.929 47.427h46.898s0.29899-8.3097 4.9869-14.339c2.0514-2.6389 5.0745-5.1224 8.2267-6.6093 3.3515-1.581 6.8496-2.0851 9.4866-2.1098 2.522-0.0263 6.1332 0.20026 9.4139 1.6434 3.7486 1.6479 7.156 4.7106 9.5488 7.7395 4.6357 5.8684 4.598 13.675 4.598 13.675l29.232-2.2186 5.7956-23.001-3.3229-22.208h-42.316l-33.794-33.415zm395.36 0.0975-42.186 33.41-52.056 3.7011-6.4125 19.248 10.736 21.269 21.58 3.3591s0.2169-8.3816 4.9972-14.478c2.3584-3.0086 5.6435-5.5071 9.3103-7.0138 3.032-1.2458 6.4369-1.7691 8.7816-1.7781 2.5044 0 5.9158 0.38234 9.0821 1.7573 3.7599 1.6326 7.2633 4.5061 9.6835 7.6514 4.4441 5.7756 4.5255 13.711 4.5255 13.711h49.553a219.25 219.25 0 0 0 12.954-47.427h-6.2569v-26.205h8.7296a219.25 219.25 0 0 0 0.1294-7.2056zm-375.62 7.1126h26.277l17.641 26.204h-43.918zm376.86 0.0922h26.645v26.204h-58.842zm-311.1 54.042c-10.732 0-19.517 8.8003-19.517 19.486 0 10.686 8.7855 19.496 19.517 19.496 10.732 0 19.523-8.8108 19.523-19.496 0-10.686-8.7908-19.486-19.523-19.486zm264.8 0.0922c-10.732 0-19.518 8.8056-19.518 19.491 0 10.686 8.7856 19.497 19.518 19.497 10.732-2.6e-4 19.528-8.8108 19.528-19.497 0-10.686-8.7958-19.491-19.528-19.491zm-264.8 10.72c4.8217 0 8.6468 3.8012 8.6468 8.6728 0 4.871-3.825 8.6828-8.6468 8.6828-4.8216 0-8.6415-3.8118-8.6415-8.6828 0-4.8716 3.8199-8.6728 8.6415-8.6728zm264.8 0.0975c4.8218 0 8.6467 3.8012 8.6467 8.6725 0 4.8713-3.8249 8.678-8.6467 8.678-4.8217 0-8.6416-3.8068-8.6416-8.678 0-4.8713 3.8199-8.6725 8.6416-8.6725z"/><path d="m945.98-872.74v14.271h36.39c-15.599 25.404-23.747 54.302-23.818 85.194h13.777c0.24427-42.08 16.017-70.177 26.818-85.292v-14.173zm109.37 0.34466h-0.01c-1.1184 5.3e-4 -2.1748 0.0659-3.1394 0.17918-4.8713 0.58707-8.9839 2.5375-12.367 5.8568-6.956 6.8249-10.734 19.425-11.307 37.754-0.103 3.3035-0.091 7.1129 0.021 10.344 0.4144 11.868 2.2282 21.52 5.4192 28.82 0.9947 2.2756 1.8848 3.8252 3.1702 5.5377 2.9677 3.9535 7.3757 7.2449 12.187 9.0936 2.5852 0.99338 5.0024 1.522 7.4314 1.616 0.4587 0 1.3928 0 2.0174-0.0527 4.3401-0.25823 8.428-1.5077 12.053-3.7003 0.8481-0.51356 1.7319-1.118 2.5012-1.7241 2.4251-1.9098 4.4578-4.2339 6.0573-6.9115 1.0266-1.718 1.8394-3.5248 2.5887-5.7487 1.9608-5.8186 3.0992-13.665 3.4121-23.602 0.068-2.0774 0.077-3.329 0.077-5.9698 0-2.6105-0.019-4.0273-0.077-6.3969-0.3739-13.955-1.8745-23.267-4.8171-29.844-1.5526-3.4703-3.5603-6.373-5.9596-8.6462-4.0077-3.7962-9.2024-5.9379-15.728-6.4794-1.2225-0.10277-2.411-0.1502-3.5304-0.13966zm2.1872 15.645h0.011c0.621 0 1.2199 5.3e-4 1.7446 0.0711 2.4435 0.22134 4.2466 0.95333 5.5993 2.3056 0.8312 0.83029 1.4594 1.8471 2.1049 3.3501 2.0867 4.86 3.3044 11.66 3.7518 21.044 0.1497 3.1472 0.2111 6.0612 0.2111 10.211 0 2.9267-0.013 3.821-0.082 5.7279-0.2379 6.4357-0.978 11.199-2.2644 14.637-0.175 0.46718-0.3503 0.87297-1.0344 2.4189-1.1818 2.6674-1.9481 4.1145-2.7482 5.1822-1.5883 2.1201-3.495 3.0416-6.6183 3.191h-1.58c-1.2079-0.0553-2.076-0.166-2.918-0.37048-2.1544-0.53121-3.5458-1.639-4.6215-3.6798-0.4381-0.83159-0.8091-1.7446-1.3227-3.2218-0.2097-0.60183-1.0976-3.269-1.2454-3.7414-1.4143-4.5229-2.2697-9.844-2.6195-16.417-0.2237-4.1978-0.2414-9.1953-0.057-13.54 0.3683-8.6404 1.522-15.449 3.4173-20.123 0.6683-1.6469 1.5229-3.1617 2.2901-4.0758 1.4597-1.7401 3.3825-2.6408 6.1449-2.8872 0.58-0.0553 1.2159-0.087 1.8372-0.0922zm127.37 12.084h-0.422c-7.1894-5.2e-4 -13.632 3.0408-18.157 7.8947-4.4513-4.7994-10.792-7.8174-17.884-7.8174h-1.2506c-4.1969 0-8.1374 1.0566-11.58 2.9077v-1.1734h-12.866v67.778h0.057v0.17918h12.82v-43.343c0-6.6955 5.3932-12.084 12.089-12.084s12.094 5.3883 12.094 12.084v43.344h12.81v-43.344c0-6.6955 5.3932-12.084 12.089-12.084 6.6956 0 12.089 5.3883 12.089 12.084v43.344h12.948l-0.021-44.959c-8e-4 -2.1986-0.021-6.4589-0.021-6.4589-2.3238-9.7789-13.245-18.356-24.796-18.357z" style="paint-order:stroke fill markers"/><path d="m1074.9-1040.1c-160.48 0-290.58 130.1-290.57 290.58-5e-4 160.48 130.09 290.58 290.57 290.58 160.48 5.3e-4 290.58-130.1 290.58-290.58 3e-4 -160.48-130.1-290.58-290.58-290.58zm-0.6365 70.562c0.1642-2.6e-4 0.3275-2.6e-4 0.4916 0 121.49 5.3e-4 219.98 98.487 219.98 219.98-8e-4 121.49-98.487 219.98-219.98 219.98-121.49-5.2e-4 -219.98-98.487-219.98-219.98 2.7e-4 -121.3 98.188-219.71 219.49-219.98z" color="#000000" color-rendering="auto" dominant-baseline="auto" enable-background="accumulate" fill="#ed232a" image-rendering="auto" shape-rendering="auto" solid-color="#000000" stop-color="#000000" style="font-feature-settings:normal;font-variant-alternates:normal;font-variant-caps:normal;font-variant-east-asian:normal;font-variant-ligatures:normal;font-variant-numeric:normal;font-variant-position:normal;font-variation-settings:normal;inline-size:0;isolation:auto;mix-blend-mode:normal;paint-order:stroke fill markers;shape-margin:0;shape-padding:0;text-decoration-color:#000000;text-decoration-line:none;text-decoration-style:solid;text-indent:0;text-orientation:mixed;text-transform:none;white-space:normal"/></g></g></g></svg>