<svg width="600" height="600.01" version="1.1" xmlns="http://www.w3.org/2000/svg"><g transform="translate(597.79 -1305.5)"><g transform="translate(-108.37 1759.9)"><g fill-rule="evenodd"><path d="m-189.43-453.46c-165.06 0-299.05 133.99-299.05 299.05-5.3e-4 165.06 133.99 299.05 299.05 299.05 165.06 5e-4 299.05-133.99 299.05-299.05 5.3e-4 -165.06-133.99-299.05-299.05-299.05z" color="#000000" color-rendering="auto" dominant-baseline="auto" enable-background="accumulate" fill="#fff" image-rendering="auto" shape-rendering="auto" solid-color="#000000" stop-color="#000000" stroke="#000" stroke-linecap="square" stroke-linejoin="round" stroke-miterlimit="2" stroke-width="1.9" style="font-feature-settings:normal;font-variant-alternates:normal;font-variant-caps:normal;font-variant-east-asian:normal;font-variant-ligatures:normal;font-variant-numeric:normal;font-variant-position:normal;font-variation-settings:normal;inline-size:0;isolation:auto;mix-blend-mode:normal;paint-order:stroke fill markers;shape-margin:0;shape-padding:0;text-decoration-color:#000000;text-decoration-line:none;text-decoration-style:solid;text-indent:0;text-orientation:mixed;text-transform:none;white-space:normal"/><path d="m-345.45-179.49c-13.725 0-24.77 11.039-24.77 24.75 0 13.712 11.045 24.75 24.77 24.75h310.51c13.725 0 24.771-11.038 24.771-24.75 0-13.711-11.045-24.75-24.771-24.75z"/><path d="m-189.43-444.98c-160.48 0-290.57 130.1-290.57 290.58-7.9e-4 160.48 130.09 290.58 290.57 290.58 160.48 5.8e-4 290.58-130.1 290.58-290.58 3.2e-4 -160.48-130.1-290.58-290.58-290.58zm-0.63611 70.562c0.17185-2.6e-4 0.33048-2.6e-4 0.49255 0 121.49 5.1e-4 219.98 98.487 219.98 219.98-6.87e-4 121.49-98.488 219.98-219.98 219.98-121.49-5.81e-4 -219.98-98.487-219.98-219.98 0-121.3 98.187-219.71 219.49-219.98z" color="#000000" color-rendering="auto" dominant-baseline="auto" enable-background="accumulate" fill="#ed232a" image-rendering="auto" shape-rendering="auto" solid-color="#000000" stop-color="#000000" style="font-feature-settings:normal;font-variant-alternates:normal;font-variant-caps:normal;font-variant-east-asian:normal;font-variant-ligatures:normal;font-variant-numeric:normal;font-variant-position:normal;font-variation-settings:normal;inline-size:0;isolation:auto;mix-blend-mode:normal;paint-order:stroke fill markers;shape-margin:0;shape-padding:0;text-decoration-color:#000000;text-decoration-line:none;text-decoration-style:solid;text-indent:0;text-orientation:mixed;text-transform:none;white-space:normal"/></g><g><g><path d="m-111.31-309.2v109.75h14.675v-52.148h14.821l15.403 52.148h14.675l-15.96-54.031c9.7261-3.8238 16.556-13.074 16.556-23.942v-5.9544c0-14.308-11.835-25.826-26.539-25.826h-18.957zm14.671 14.84h19.581c6.1601 0 11.119 4.9592 11.119 11.119v5.7219c0 6.1602-4.9591 11.119-11.119 11.119h-19.581z" fill-rule="evenodd" stroke-linecap="square" stroke-linejoin="round" style="paint-order:fill markers stroke"/><path d="m-208.86-309.05v79.737c0 16.667 13.416 30.085 30.083 30.085 16.667 0 30.085-13.418 30.085-30.085v-79.737h-14.767v80.273c0 8.0873-6.511 14.598-14.598 14.598h-1.4516c-8.0872 0-14.596-6.511-14.596-14.598v-80.273z" fill-rule="evenodd" stroke-linecap="square" stroke-linejoin="round" style="paint-order:fill markers stroke"/><g transform="matrix(5.2504 0 0 5.2504 -594.51 -734.9)" stroke-width=".19046" aria-label="D"><path d="m66.682 91.542c0 2.0323-0.25968 4.5987-0.72248 6.2313-0.17145 0.60484-0.44043 1.1007-0.72636 1.5225-1.2295 1.8331-2.862 2.6807-5.0009 2.6807h-4.9818v-20.869h5.1705c2.1388 0 3.8373 1.1931 4.8279 2.7099 0.57587 0.93442 0.91359 2.2353 1.1313 3.6018 0.19835 1.2451 0.30179 2.519 0.30179 4.1228zm-2.7686-0.06226c0.04869-0.65367-0.01-1.4798-0.07164-2.2164-0.06095-0.72793-0.14564-1.423-0.29441-2.1716-0.15135-0.76152-0.27262-1.3392-0.99575-2.2275-0.51686-0.63491-1.1338-0.97298-2.2552-0.97292h-2.2378v7.6196l-8.8e-5 7.6903h2.2378c1.1213 0 1.7873-0.482 2.2885-0.99037 0.5185-0.52593 0.80163-1.5147 0.99143-2.7343 0.12882-0.82781 0.22067-1.762 0.29068-2.7301 0.02764-0.38215 0.01273-0.81358 0.04648-1.2666z" stroke-width=".19046"/></g></g><path d="m-222.08-109.5a10.596 10.596 0 0 0-10.537 10.595 10.596 10.596 0 0 0 10.598 10.595 10.596 10.596 0 0 0 10.595-10.595 10.596 10.596 0 0 0-10.595-10.595 10.596 10.596 0 0 0-0.0612 0zm80.752 11.499a11.582 11.582 0 0 0-11.381 11.58 11.582 11.582 0 0 0 11.58 11.583 11.582 11.582 0 0 0 6.4705-1.9781l2.5576 1.243-4.1631 1.5621 10.141 4.9645-0.6764-3.9538 6.6364 3.2237c1.9501 0.36711 2.9274-0.35271 3.4918-1.4855 0.57322-1.1505 0.47547-2.7629-0.93165-3.7419l-7.0065-3.3922 2e-3 -0.0079 4.7552-1.7765-8.8851-4.2856 0.78104 4.4438-5e-3 0.0052-2.7541-1.3349a11.582 11.582 0 0 0 1.169-5.0692 11.582 11.582 0 0 0-11.583-11.58 11.582 11.582 0 0 0-0.19909 0zm-70.956 11.346c-1.2354 0.05659-2.3752 0.50988-3.4611 1.1869l-8.9157 5.7583-26.921 35.808c-1.0333 2.0326-0.8426 4.512 0.45943 6.0672 1.474 1.7606 3.7707 2.9625 6.6696 1.7204l16.55-21.589 3.6066 13.069-8.7294 16.992 2.2717 1.1665-0.0995 0.02038-22.977 44.76c-0.65067 2.4881 0.45609 4.8446 2.2844 5.886 2.0534 1.1695 4.7154 1.3482 6.9912-1.1665l22.977-44.76-5e-3 -0.03058 2.2002 1.1282 5.3321-10.35 4.0252 10.455 2.3023-0.8857 17.459 45.37c1.9972 2.7411 4.6648 2.845 6.8304 1.899 1.9282-0.84228 3.276-3.0673 2.8919-5.6103l-17.459-45.372-0.046-0.01521 2.1364-0.82188-7.8411-19.029 2.6648-17.354 8.5226 8.5711v14.01c0.41849 2.8333 2.8652 4.5473 5.1611 4.5612 2.3289 0.01468 4.7816-1.43 5.2912-4.5612l2e-3 -15.787c-0.12849-2.2102-0.88358-2.8305-1.5162-3.7623l-24.624-26.14c-1.4688-0.91229-2.8-1.2512-4.0354-1.1945zm71.867 16.849c-1.555 0.04966-2.5414 0.42596-3.479 0.76063l-31.262 25.249c-2.0099 1.4644-2.1106 4.8164-0.68149 6.4322 1.5638 1.7682 4.3752 2.7583 7.0244 0.43901l17.443-14.138 3.0323 7.5297-6.6389 22.582 3.6551-0.30885-14.748 42.087c-0.30016 2.436 1.1811 4.6285 3.2033 5.2376 2.065 0.62209 4.6021 0.0349 5.8987-2.4401l16.045-45.76 5.2147-0.43646 15.483 46.197c1.2966 2.475 3.8311 3.0649 5.8962 2.4427 2.0222-0.60918 3.5035-2.8041 3.2033-5.2402l-14.789-44.224 1.9884-0.16847-9.2526-19.603 4.0763-12.599 4.4438 1.5162 4.1094 10.687c1.6948 1.2506 3.8458 1.4029 5.4597 0.33947 1.3058-0.86045 2.343-2.4287 2.2972-4.0227l-4.4438-11.813c-0.77179-1.4859-1.8997-2.5861-3.3437-3.3463l-16.31-7.055c-1.4539-0.28456-2.5919-0.3744-3.5249-0.34458zm-125.91 25.331-14.791 21.484 28.853 19.97 14.794-21.433zm159.8 1.6719-16.206 5.9064 0.99291 14.064 23.368-8.469z" fill-rule="evenodd" style="paint-order:stroke fill markers"/></g></g></g></svg>