<svg width="600" height="600.01" version="1.1" xmlns="http://www.w3.org/2000/svg"><g transform="translate(3573.6 -221.78)"><g transform="translate(-108.37 1759.9)"><rect x="578.74" y="298.17" width="0" height="27.202" rx="249.48" ry="27.202" color="#000000"/><g transform="matrix(.88381 0 0 .88381 -1569.9 -1726.3)"><path d="m-1805.1 214.02c186.76 0 338.36 151.61 338.36 338.37 6e-4 186.76-151.6 338.36-338.36 338.37-186.76 6e-4 -338.37-151.6-338.37-338.37-5e-4 -186.76 151.6-338.37 338.37-338.37z" color="#000000" color-rendering="auto" dominant-baseline="auto" enable-background="accumulate" fill="#fff" fill-rule="evenodd" image-rendering="auto" shape-rendering="auto" solid-color="#000000" stop-color="#000000" stroke="#000" stroke-linecap="square" stroke-linejoin="round" stroke-miterlimit="2" stroke-width="2.1498" style="font-feature-settings:normal;font-variant-alternates:normal;font-variant-caps:normal;font-variant-east-asian:normal;font-variant-ligatures:normal;font-variant-numeric:normal;font-variant-position:normal;font-variation-settings:normal;inline-size:0;isolation:auto;mix-blend-mode:normal;paint-order:stroke fill markers;shape-margin:0;shape-padding:0;text-decoration-color:#000000;text-decoration-line:none;text-decoration-style:solid;text-indent:0;text-orientation:mixed;text-transform:none;white-space:normal"/><path d="m-1956.4 450.64-40.141 40.141 40.141 40.141h145.66c12.131 0 20.644 8.5129 20.644 20.644v185.8l40.142-40.141 40.141 40.141v-185.8c0-55.219-45.708-100.93-100.93-100.93z"/><path d="m-1805.1 223.61c181.58 0 328.77 147.2 328.77 328.78 5e-4 181.58-147.2 328.78-328.77 328.78-181.58 6e-4 -328.78-147.2-328.78-328.78-5e-4 -181.58 147.2-328.78 328.78-328.78zm0.7199 79.834c-0.1855-5.8e-4 -0.3715-5.8e-4 -0.5564 0-137.46 3.5e-4 -248.89 111.44-248.89 248.9 2e-4 59.323 20.786 113.77 55.431 156.54l350.18-349.85c-42.652-34.621-96.96-55.45-156.16-55.583zm192.63 91.994-349.99 350.16c42.803 34.773 97.36 55.641 156.81 55.641 137.46-7e-4 248.89-111.43 248.89-248.89-3e-4 -59.483-20.89-114.08-55.712-156.91z" color="#000000" color-rendering="auto" dominant-baseline="auto" enable-background="accumulate" fill="#ed232a" fill-rule="evenodd" image-rendering="auto" shape-rendering="auto" solid-color="#000000" stop-color="#000000" style="font-feature-settings:normal;font-variant-alternates:normal;font-variant-caps:normal;font-variant-east-asian:normal;font-variant-ligatures:normal;font-variant-numeric:normal;font-variant-position:normal;font-variation-settings:normal;inline-size:0;isolation:auto;mix-blend-mode:normal;paint-order:stroke fill markers;shape-margin:0;shape-padding:0;text-decoration-color:#000000;text-decoration-line:none;text-decoration-style:solid;text-indent:0;text-orientation:mixed;text-transform:none;white-space:normal"/></g></g></g></svg>