<svg width="600" height="600.01" version="1.1" xmlns="http://www.w3.org/2000/svg"><g transform="translate(-244.79 -363.5)"><g transform="translate(-108.37 1759.9)"><rect x="578.74" y="298.17" width="0" height="27.202" rx="249.48" ry="27.202" color="#000000"/><g transform="matrix(.88381 0 0 .88381 -1569.9 -1726.3)"><g transform="matrix(1.1315 0 0 1.1315 -1464.3 -762.13)"><g transform="translate(-108.37 1759.9)"><rect x="578.74" y="298.17" width="0" height="27.202" rx="249.48" ry="27.202" color="#000000"/></g></g></g><g fill-rule="evenodd"><path d="m653.15-1395.5c-165.06 0-299.05 133.99-299.05 299.05 0 165.06 133.99 299.05 299.05 299.05 165.06 5.2e-4 299.05-133.99 299.05-299.05 8e-4 -165.06-133.99-299.05-299.05-299.05z" color="#000000" color-rendering="auto" dominant-baseline="auto" enable-background="accumulate" fill="#fff" image-rendering="auto" shape-rendering="auto" solid-color="#000000" stop-color="#000000" stroke="#000" stroke-linecap="square" stroke-linejoin="round" stroke-miterlimit="2" stroke-width="1.9" style="font-feature-settings:normal;font-variant-alternates:normal;font-variant-caps:normal;font-variant-east-asian:normal;font-variant-ligatures:normal;font-variant-numeric:normal;font-variant-position:normal;font-variation-settings:normal;inline-size:0;isolation:auto;mix-blend-mode:normal;paint-order:stroke fill markers;shape-margin:0;shape-padding:0;text-decoration-color:#000000;text-decoration-line:none;text-decoration-style:solid;text-indent:0;text-orientation:mixed;text-transform:none;white-space:normal"/><path d="m653.15-1387c-160.48 0-290.57 130.1-290.57 290.58-5e-4 160.48 130.09 290.58 290.57 290.58 160.48 7.9e-4 290.58-130.1 290.58-290.58 3e-4 -160.48-130.1-290.58-290.58-290.58zm-0.6362 70.558c0.172-6e-4 0.334-6e-4 0.492 0 121.49 2e-4 219.97 98.491 219.98 219.98-3e-4 52.43-18.371 100.55-48.99 138.35l-309.49-309.2c37.696-30.598 85.694-49.008 138.02-49.125zm-170.24 81.305 309.32 309.47c-37.83 30.733-86.048 49.176-138.59 49.176-121.49-5.3e-4 -219.98-98.486-219.98-219.97 3e-4 -52.572 18.464-100.83 49.24-138.68z" color="#000000" color-rendering="auto" dominant-baseline="auto" enable-background="accumulate" fill="#ed232a" image-rendering="auto" shape-rendering="auto" solid-color="#000000" stop-color="#000000" style="font-feature-settings:normal;font-variant-alternates:normal;font-variant-caps:normal;font-variant-east-asian:normal;font-variant-ligatures:normal;font-variant-numeric:normal;font-variant-position:normal;font-variation-settings:normal;inline-size:0;isolation:auto;mix-blend-mode:normal;paint-order:stroke fill markers;shape-margin:0;shape-padding:0;text-decoration-color:#000000;text-decoration-line:none;text-decoration-style:solid;text-indent:0;text-orientation:mixed;text-transform:none;white-space:normal"/><path d="m653.51-1246.6c-32.609 0-62.216 12.384-84.408 32.716l50.246 50.778c9.382-7.4142 21.223-11.863 34.162-11.863 30.516 0 55.082 24.566 55.082 55.082v194.87l34.844-35.036 34.922 35.036v-196.74c0-69.166-55.682-124.85-124.85-124.85zm-112.53 70.541c-7.8974 16.404-12.322 34.819-12.322 54.307v161.94l34.658 34.798 35.103-35.015v-158.35z" style="paint-order:stroke fill markers"/></g></g></g></svg>