<svg width="600" height="600" version="1.1" xmlns="http://www.w3.org/2000/svg"><g transform="translate(1452.5 -1343.8)"><g transform="translate(-108.37 1759.9)" fill-rule="evenodd"><path d="m-1044.1-415.15c-165.06 0-299.05 133.99-299.05 299.05-5e-4 165.06 133.99 299.05 299.05 299.05 165.06 5e-4 299.05-133.99 299.05-299.05 5.3e-4 -165.06-133.99-299.05-299.05-299.05z" color="#000000" color-rendering="auto" dominant-baseline="auto" enable-background="accumulate" fill="#fff" image-rendering="auto" shape-rendering="auto" solid-color="#000000" stop-color="#000000" stroke="#000" stroke-linecap="square" stroke-linejoin="round" stroke-miterlimit="2" stroke-width="1.9" style="font-feature-settings:normal;font-variant-alternates:normal;font-variant-caps:normal;font-variant-east-asian:normal;font-variant-ligatures:normal;font-variant-numeric:normal;font-variant-position:normal;font-variation-settings:normal;inline-size:0;isolation:auto;mix-blend-mode:normal;paint-order:stroke fill markers;shape-margin:0;shape-padding:0;text-decoration-color:#000000;text-decoration-line:none;text-decoration-style:solid;text-indent:0;text-orientation:mixed;text-transform:none;white-space:normal"/><path d="m-1147.8-178.08c-0.1872 2.4e-4 -0.3763 0-0.5657 8e-5 -7.4819 0-16.057 0.23652-22.256 0.81374-9.8613 0.91938-20.295 3.2433-27.307 5.1125-5.6442 1.5044-7.8373 6.3238-7.8373 6.3238l-15.239 35.493s-1.4055 2.0823-2.2352 3.0206c-0.5239 0.59276-1.7201 1.634-1.7201 1.634s-2.0335 1.3003-2.7192 2.2584c-0.6089 0.85073-1.5036 2.1476-1.9547 3.3631-0.4046 1.0904-0.6385 3.43-0.6385 3.43l-0.018 5.1138 23.823 0.0803-0.039 10.248-23.818-0.0517 0.039 22.419c0 2.4946 2.0088 4.4994 4.5031 4.4995h0.1671v19.533c0 1.6044 1.2917 2.8962 2.8962 2.8962h22.732c1.6045 0 2.8961-1.2917 2.8961-2.8962v-19.534l93.948-0.11087v19.645c0 1.6045 1.2919 2.8962 2.8965 2.8962h22.731c1.6045 0 2.8961-1.2918 2.8961-2.8962v-19.647h0.3705c2.4943 0 4.5049-2.0049 4.5034-4.4995l-0.052-21.901-23.733-0.0739 0.072-10.183 23.842 0.0388v-5.1219s0.013-1.3002-0.3382-2.6765c-0.2763-1.0709-0.8652-2.162-1.2977-2.8894-0.7908-1.3298-3.2876-3.2765-3.2876-3.2765s-1.3923-1.143-1.9762-1.823c-1.0549-1.2286-2.7166-4.0276-2.7166-4.0276l-14.084-33.784s-2.3542-5.7024-9.5459-7.8155c-7.7491-2.2764-20.411-3.9659-30.869-4.7028-5.9248-0.4188-9.3676-0.91051-14.056-0.90727zm-2.7531 10.699h1.4906c0.5257 0 1.0473 8e-3 1.563 0.0132 8.6778 0.10374 17.147 1.5725 25.967 2.6728 4.1349 0.51354 12.62 2.2088 12.62 2.2088s1.5993 0.48005 3.0011 1.2912c0.6485 0.37174 1.2235 0.96872 1.6344 1.3524 0.4748 0.44589 1.1106 1.2233 1.5401 1.9332 0.4646 0.76882 0.7053 1.4532 0.7053 1.4532l12.696 29.678s-9.9605-2.1918-21.426-3.3625c-12.094-1.2342-26.28-1.951-36.105-1.9562-10.02 0-30.397 0.88589-42.696 2.1303-11.505 1.1646-20.939 2.9033-20.939 2.9033l12.909-29.787s0.4188-1.0871 1.1272-2.0795c0.5103-0.71319 1.2376-1.3105 1.7516-1.7346 0.4723-0.39169 1.1916-0.85973 1.9215-1.1908 0.9648-0.43881 1.9058-0.68083 1.9058-0.68083s8.5493-1.9279 18.662-3.1993c5.95-0.74796 14.167-1.617 21.671-1.6451zm-21.25 55.025 43.551 0.0583v16.204l-43.551-0.05834z" fill="#ed242a"/><path d="m-937.66-178.08c-0.18717 2.4e-4 -0.37631 0-0.56574 8e-5 -7.4819 0-16.057 0.23652-22.256 0.81374-9.8612 0.91938-20.295 3.2433-27.307 5.1125-5.6442 1.5044-7.8373 6.3238-7.8373 6.3238h-1e-3l-15.239 35.493s-1.4055 2.0823-2.2352 3.0206c-0.5238 0.59276-1.7201 1.634-1.7201 1.634s-2.0335 1.3003-2.7192 2.2584c-0.6089 0.85073-1.5036 2.1476-1.9547 3.3631-0.4046 1.0904-0.6386 3.43-0.6386 3.43l-0.019 5.1138 23.823 0.0803-0.0388 10.248-23.818-0.0517 0.039 22.419c0 2.4946 2.0088 4.4994 4.5031 4.4995h0.1671v19.533c0 1.6044 1.2917 2.8962 2.8962 2.8962h22.732c1.6045 0 2.8962-1.2917 2.8962-2.8962v-19.534l93.948-0.11087v19.645c0 1.6045 1.292 2.8962 2.8965 2.8962h22.731c1.6045 0 2.8961-1.2918 2.8961-2.8962v-19.647h0.3705c2.4943 0 4.5049-2.0049 4.5034-4.4995l-0.0517-21.901-23.733-0.0739 0.0721-10.183 23.842 0.0388v-5.1219s0.0132-1.3002-0.33823-2.6765c-0.27631-1.0709-0.86517-2.162-1.2977-2.8894-0.79072-1.3298-3.2875-3.2765-3.2875-3.2765s-1.3923-1.143-1.9762-1.823c-1.055-1.2286-2.7166-4.0276-2.7166-4.0276l-14.084-33.784s-2.3542-5.7024-9.5459-7.8155c-7.7491-2.2764-20.411-3.9659-30.869-4.7028-5.9248-0.41881-9.3676-0.91052-14.056-0.90727zm-2.7531 10.699h1.4906c0.5258 0 1.0473 8e-3 1.563 0.0132 8.6778 0.10374 17.147 1.5725 25.967 2.6728 4.1349 0.51354 12.62 2.2088 12.62 2.2088s1.5993 0.48005 3.0011 1.2912c0.64852 0.37174 1.2235 0.96872 1.6344 1.3524 0.47485 0.44589 1.1106 1.2233 1.5402 1.9332 0.46457 0.76882 0.70522 1.4532 0.70522 1.4532l12.696 29.678s-9.9605-2.1918-21.426-3.3625c-12.094-1.2342-26.28-1.951-36.105-1.9562-10.02 0-30.397 0.88589-42.696 2.1303-11.505 1.1646-20.939 2.9033-20.939 2.9033l12.909-29.787s0.41881-1.0871 1.1272-2.0795c0.51035-0.71319 1.2376-1.3105 1.7516-1.7346 0.47231-0.39169 1.1916-0.85973 1.9214-1.1908 0.96482-0.43881 1.9058-0.68083 1.9058-0.68083s8.5493-1.9279 18.663-3.1993c5.95-0.74796 14.167-1.617 21.671-1.6451zm-21.251 55.025 43.551 0.0583v16.204l-43.551-0.05834z"/><path d="m-1044.1-406.67c-160.48 0-290.57 130.1-290.57 290.58-8e-4 160.48 130.09 290.57 290.57 290.58 160.48 5.3e-4 290.58-130.1 290.58-290.58 3.2e-4 -160.48-130.1-290.58-290.58-290.58zm-0.6361 70.561c0.1719-2.6e-4 0.3305-2.6e-4 0.4926 0 121.49 4.8e-4 219.98 98.486 219.98 219.97-6.6e-4 121.49-98.488 219.97-219.98 219.97-121.49-6.3e-4 -219.98-98.486-219.98-219.97 0-121.3 98.187-219.7 219.49-219.97z" color="#000000" color-rendering="auto" dominant-baseline="auto" enable-background="accumulate" fill="#ed232a" image-rendering="auto" shape-rendering="auto" solid-color="#000000" stop-color="#000000" style="font-feature-settings:normal;font-variant-alternates:normal;font-variant-caps:normal;font-variant-east-asian:normal;font-variant-ligatures:normal;font-variant-numeric:normal;font-variant-position:normal;font-variation-settings:normal;inline-size:0;isolation:auto;mix-blend-mode:normal;paint-order:stroke fill markers;shape-margin:0;shape-padding:0;text-decoration-color:#000000;text-decoration-line:none;text-decoration-style:solid;text-indent:0;text-orientation:mixed;text-transform:none;white-space:normal"/></g></g></svg>