<svg width="600" height="600.01" version="1.1" xmlns="http://www.w3.org/2000/svg"><g transform="translate(-1441.7 -299.72)"><g transform="translate(-108.37 1759.9)"><path d="m1850.1-1459.2c-165.06 0-299.05 133.99-299.05 299.05 0 165.06 133.99 299.05 299.05 299.05 165.06 5.3e-4 299.05-133.99 299.05-299.05 8e-4 -165.06-133.99-299.05-299.05-299.05z" color="#000000" color-rendering="auto" dominant-baseline="auto" enable-background="accumulate" fill="#fff" fill-rule="evenodd" image-rendering="auto" shape-rendering="auto" solid-color="#000000" stop-color="#000000" stroke="#000" stroke-linecap="square" stroke-linejoin="round" stroke-miterlimit="2" stroke-width="1.9" style="font-feature-settings:normal;font-variant-alternates:normal;font-variant-caps:normal;font-variant-east-asian:normal;font-variant-ligatures:normal;font-variant-numeric:normal;font-variant-position:normal;font-variation-settings:normal;inline-size:0;isolation:auto;mix-blend-mode:normal;paint-order:stroke fill markers;shape-margin:0;shape-padding:0;text-decoration-color:#000000;text-decoration-line:none;text-decoration-style:solid;text-indent:0;text-orientation:mixed;text-transform:none;white-space:normal"/><rect x="578.74" y="298.17" width="0" height="27.202" rx="249.48" ry="27.202" color="#000000"/><g transform="matrix(.88381 0 0 .88381 -1569.9 -1726.3)"><g transform="matrix(1.1315 0 0 1.1315 -1464.3 -762.13)"><g transform="translate(-108.37 1759.9)"><rect x="578.74" y="298.17" width="0" height="27.202" rx="249.48" ry="27.202" color="#000000"/></g></g></g><g fill-rule="evenodd"><path d="m1850.1-1450.8c-160.48 0-290.58 130.1-290.58 290.58-8e-4 160.48 130.09 290.58 290.58 290.58 160.48 5.2e-4 290.58-130.1 290.58-290.58 3e-4 -160.48-130.1-290.58-290.58-290.58zm-0.3233 54.269a236.15 236.15 0 0 1 236.16 236.16 236.15 236.15 0 0 1-236.16 236.15 236.15 236.15 0 0 1-236.15-236.15 236.15 236.15 0 0 1 236.15-236.16z" color="#000000" color-rendering="auto" dominant-baseline="auto" enable-background="accumulate" fill="#ed232a" image-rendering="auto" shape-rendering="auto" solid-color="#000000" stop-color="#000000" style="font-feature-settings:normal;font-variant-alternates:normal;font-variant-caps:normal;font-variant-east-asian:normal;font-variant-ligatures:normal;font-variant-numeric:normal;font-variant-position:normal;font-variation-settings:normal;inline-size:0;isolation:auto;mix-blend-mode:normal;paint-order:stroke fill markers;shape-margin:0;shape-padding:0;text-decoration-color:#000000;text-decoration-line:none;text-decoration-style:solid;text-indent:0;text-orientation:mixed;text-transform:none;white-space:normal"/><path d="m1666.1-1279.2v169.56h177.66v-169.56zm0 181.74v16.16h177.66v-16.16zm12.101 24.243c-2.2634 0-4.0824 1.8108-4.0824 4.0741v36.408c0 2.2633 1.8231 4.0743 4.0824 4.0743h8.8895c2.2633 0 4.0822-1.811 4.0822-4.0743v-36.408c0-2.2633-1.8229-4.0741-4.0822-4.0741zm21.904 0c-2.2635 0-4.0823 1.8108-4.0823 4.0741v36.408c0 2.2633 1.8188 4.0743 4.0823 4.0743h8.8894c2.2635 0 4.0825-1.811 4.0825-4.0743v-14.93h31.665c1.6998 4.1154 5.7122 6.8025 10.166 6.8069 4.4535 0 8.466-2.675 10.165-6.8069h31.747v15.099c0 2.2634 1.8231 4.0742 4.0823 4.0742h8.8892c2.2634 0 4.0823-1.8108 4.0823-4.0742v-36.408c0-2.2633-1.8189-4.0742-4.0823-4.0742h-8.8892c-2.2634 0-4.0823 1.8109-4.0823 4.0742v13.124h-31.769c-1.7285-4.0742-5.7241-6.7078-10.144-6.6995-4.4124 0-8.3969 2.6336-10.123 6.6995h-31.708v-12.976c0-2.2634-1.8231-4.0742-4.0825-4.0742zm122.71 0c-2.2633 0-4.0825 1.8108-4.0825 4.0741v36.408c0 2.2633 1.8192 4.0743 4.0825 4.0743h8.8892c2.2634 0 4.0822-1.811 4.0822-4.0743v-36.408c0-2.2633-1.8231-4.0741-4.0822-4.0741z" fill="#ed232a" style="paint-order:fill markers stroke"/><path d="m1954.3-1158c-0.1922 3e-4 -0.3855 0-0.5795 1e-4 -7.6646 0-16.449 0.2423-22.799 0.8337-10.102 0.9418-20.791 3.3225-27.974 5.2373-5.782 1.5411-8.0286 6.4782-8.0286 6.4782l-15.611 36.359s-1.4399 2.133-2.2899 3.0943c-0.5366 0.6073-1.7621 1.674-1.7621 1.674s-2.0832 1.332-2.7855 2.3135c-0.6238 0.8715-1.5402 2.2-2.0025 3.4453-0.4145 1.117-0.6541 3.5136-0.6541 3.5136l-0.019 5.2387 24.405 0.082-0.041 10.498-24.4-0.052 0.041 22.966c0 2.5555 2.0577 4.6092 4.613 4.6093h0.1708v20.01c0 1.6437 1.3232 2.9669 2.967 2.9669h23.286c1.6438 0 2.967-1.3232 2.967-2.9669v-20.011l96.242-0.1134v20.124c0 1.6437 1.3236 2.967 2.9671 2.967h23.286c1.6439 0 2.9671-1.3233 2.9671-2.967v-20.127h0.3794c2.5553 0 4.6149-2.054 4.6133-4.6094l-0.052-22.436-24.312-0.076 0.075-10.432 24.424 0.039v-5.247s0.018-1.332-0.3466-2.7418c-0.2831-1.0971-0.8863-2.215-1.3296-2.96-0.8099-1.3622-3.3677-3.3564-3.3677-3.3564s-1.4264-1.171-2.0244-1.8675c-1.0808-1.2586-2.7831-4.1259-2.7831-4.1259l-14.428-34.608s-2.4117-5.8416-9.7787-8.0062c-7.9384-2.332-20.91-4.0627-31.623-4.8177-6.0694-0.429-9.5962-0.9327-14.399-0.9295zm-2.8204 10.961h1.5272c0.5385 0 1.0727 0.01 1.6009 0.016 8.8898 0.1066 17.566 1.6109 26.601 2.7381 4.2357 0.5262 12.928 2.2628 12.928 2.2628s1.6384 0.4918 3.0745 1.3228c0.6643 0.3808 1.2532 0.9923 1.6743 1.3853 0.4864 0.4568 1.1376 1.2532 1.5778 1.9805 0.4759 0.7876 0.7224 1.4886 0.7224 1.4886l13.006 30.402s-10.204-2.2452-21.95-3.4446c-12.389-1.2642-26.921-1.9986-36.987-2.0039-10.264 0-31.14 0.9075-43.738 2.1822-11.786 1.1932-21.45 2.9743-21.45 2.9743l13.224-30.514s0.429-1.1137 1.1548-2.1303c0.5227-0.7306 1.2678-1.3424 1.7944-1.777 0.4837-0.4013 1.2207-0.8807 1.9683-1.2199 0.9884-0.4494 1.9524-0.6974 1.9524-0.6974s8.758-1.9749 19.118-3.2773c6.0952-0.7663 14.513-1.6565 22.2-1.6853zm-21.769 56.368 44.615 0.059v16.599l-44.615-0.059z"/></g></g></g></svg>