<svg width="400.86" height="600" version="1.1" viewBox="0 0 400.86 600" xmlns="http://www.w3.org/2000/svg"><style type="text/css">.st0{fill-rule:evenodd;clip-rule:evenodd;}.st1{fill-rule:evenodd;clip-rule:evenodd;fill:#FFFFFF;}.st2{fill-rule:evenodd;clip-rule:evenodd;fill:#F8EA1D;}.st3{fill:#FFFFFF;}.st4{fill:#D40000;}</style><g transform="translate(-950.6 -546.4)"><g transform="matrix(.81855 0 0 .81855 3058 2024.3)"><g transform="matrix(.88381 0 0 .88381 -1569.9 -1726.3)"><g transform="matrix(1.1315 0 0 1.1315 -1464.3 -762.13)"><g transform="translate(-108.37 1759.9)"></g></g></g></g><g><g fill-rule="evenodd"><g stroke-linecap="square" stroke-linejoin="round" stroke-miterlimit="2"><path d="m975.6 552.95h350.95c9.5458 0 17.231 7.685 17.231 17.231v552.62c0 9.5458-7.685 17.231-17.231 17.231h-350.95c-9.5459 0-17.231-7.685-17.231-17.231v-552.62c0-9.5458 7.6849-17.231 17.231-17.231z" fill="#fff" stroke-width=".66167" style="paint-order:stroke fill markers"/><path d="m973.87 553.96h355.18c9.6609 0 17.438 7.6906 17.438 17.244v184.48h-390.06v-184.48c0-9.5529 7.7776-17.244 17.439-17.244z" fill="#e7eb13" stroke-width=".66167" style="paint-order:stroke fill markers"/><path d="m1149.4 796.96c-82.146 0-148.83 66.683-148.83 148.83-3e-4 82.145 66.681 148.83 148.83 148.83 82.147 2e-4 148.83-66.682 148.83-148.83 2e-4 -82.146-66.682-148.83-148.83-148.83z" color="#000000" color-rendering="auto" dominant-baseline="auto" enable-background="accumulate" fill="#fff" image-rendering="auto" shape-rendering="auto" solid-color="#000000" stop-color="#000000" stroke="#000" stroke-width="1.9" style="font-feature-settings:normal;font-variant-alternates:normal;font-variant-caps:normal;font-variant-east-asian:normal;font-variant-ligatures:normal;font-variant-numeric:normal;font-variant-position:normal;font-variation-settings:normal;inline-size:0;isolation:auto;mix-blend-mode:normal;paint-order:stroke fill markers;shape-margin:0;shape-padding:0;text-decoration-color:#000000;text-decoration-line:none;text-decoration-style:solid;text-indent:0;text-orientation:mixed;text-transform:none;white-space:normal"/></g><path d="m1149.4 801.18c-79.866 0-144.61 64.746-144.61 144.61-3e-4 79.866 64.743 144.61 144.61 144.61 79.867 3e-4 144.61-64.745 144.61-144.61 2e-4 -79.867-64.745-144.61-144.61-144.61zm-0.3167 35.116c0.081-1.4e-4 0.1635-1.4e-4 0.2446 0 60.461 2.9e-4 109.47 49.014 109.48 109.48-3e-4 60.461-49.014 109.47-109.48 109.48-60.461-2e-4 -109.47-49.014-109.48-109.48 1e-4 -60.366 48.865-109.34 109.23-109.48z" color="#000000" color-rendering="auto" dominant-baseline="auto" enable-background="accumulate" fill="#ed232a" image-rendering="auto" shape-rendering="auto" solid-color="#000000" stop-color="#000000" style="font-feature-settings:normal;font-variant-alternates:normal;font-variant-caps:normal;font-variant-east-asian:normal;font-variant-ligatures:normal;font-variant-numeric:normal;font-variant-position:normal;font-variation-settings:normal;inline-size:0;isolation:auto;mix-blend-mode:normal;paint-order:stroke fill markers;shape-margin:0;shape-padding:0;text-decoration-color:#000000;text-decoration-line:none;text-decoration-style:solid;text-indent:0;text-orientation:mixed;text-transform:none;white-space:normal"/></g><path d="m1100.1 881.93v6.7e-4c-16.424 0.28074-30.054 13.144-31.121 29.707 0.023 0.0548 0.019 0.0401 0.023 0.0541 0 0.29263 0.2382 0.53028 0.5307 0.53168h18.164c0.2624 0 0.4858-0.19228 0.5259-0.45197 0-7e-3 0.018-9e-3 0.027-0.016 1.0243-6.5557 6.9656-11.202 13.596-10.587 6.5668 0.61011 11.522 6.1703 11.394 12.766-0.018 0.0555-0.018 0.10977-0.018 0.16536 0.4238 5.8504-2.8544 11.344-8.1813 13.778h-13.636v21.581h0.4802c0.021 7e-3 0.037 7e-3 0.056 7e-3 0.021 0 0.037-7e-3 0.056-7e-3h10.756c10.414 6.47 15.475 18.922 12.463 30.82v0.0421c-2.5452 7.7255-10.274 12.465-18.323 11.182-8.0525-1.2713-13.967-8.2128-13.967-16.385 0-0.0686-0.056-0.11031-0.069-0.17117-0.018-0.0327-0.025-0.0648-0.04-0.0962-0.029-0.0554-0.056-0.0969-0.097-0.1379-0.1019-0.0976-0.2358-0.15125-0.376-0.14992h-17.998c-0.2701-3.3e-4 -0.4984 0.20123-0.5316 0.46948-0.03 0.024-0.058 0.0514-0.083 0.0828 0 19.757 16.026 35.783 35.783 35.783 19.729 0 35.744-16.004 35.766-35.744v-0.0217c2e-4 -9e-3 -3e-4 -0.016 0-0.0274 0.4804-13.183-4.5761-25.954-13.904-35.263 7.3896-6.6117 11.473-16.163 11.068-26.098 0-0.0274 0.027-0.0414 0.027-0.0689 0-17.13-13.617-31.183-30.746-31.741h-0.018c-0.5353-0.0187-1.0683-0.0234-1.598-0.012zm91.421 0.32564c-1.4492 9e-3 -2.8152 0.0895-4.0648 0.24011-6.2924 0.75776-11.606 3.2726-15.976 7.5602-8.9856 8.8163-13.858 25.097-14.598 48.774-0.1337 4.2672-0.1249 9.1845 0.021 13.358 0.5354 15.331 2.8783 27.789 7.0004 37.219 1.2849 2.9398 2.4335 4.9487 4.0939 7.1607 3.8336 5.1066 9.5367 9.3606 15.752 11.749 3.3394 1.2832 6.4639 1.9618 9.6014 2.084 0.5929 0.023 1.7943-6e-4 2.6011-0.046 5.6065-0.3306 10.893-1.9549 15.576-4.7871 1.0957-0.6628 2.2332-1.45 3.227-2.2328 3.1326-2.4672 5.7594-5.4605 7.8257-8.9191 1.326-2.2195 2.3757-4.5517 3.3436-7.4242 2.5329-7.5164 3.9971-17.661 4.4013-30.497 0.085-2.6832 0.1073-4.2944 0.1073-7.7061-5e-4 -3.3722-0.025-5.2013-0.1073-8.262-0.4827-18.026-2.4235-30.049-6.2247-38.545-2.0057-4.4829-4.5904-8.2373-7.6895-11.173-5.177-4.9042-11.894-7.6708-20.323-8.3699-1.5834-0.13155-3.1162-0.19254-4.5656-0.18292zm2.8383 20.226c0.8026-7e-3 1.588 0.0254 2.2657 0.0866 3.1563 0.28348 5.4729 1.2423 7.2201 2.9889 1.0738 1.0733 1.8976 2.3758 2.7313 4.3177 2.6955 6.278 4.2608 15.072 4.8388 27.193 0.1937 4.0657 0.2721 7.8322 0.2721 13.192 0 3.7809-0.019 4.9317-0.1072 7.395-0.3074 8.3136-1.2574 14.463-2.9191 18.904-0.2258 0.6033-0.451 1.1291-1.3354 3.1259-1.5267 3.4459-2.5174 5.3134-3.5508 6.6932-2.0517 2.7386-4.5191 3.9278-8.5536 4.1213-0.3597 0.0187-1.6858 0.0234-2.0355 9e-3 -1.5602-0.0661-2.6768-0.20725-3.7645-0.47523-2.7829-0.686-4.5933-2.1278-5.9827-4.7638-0.5664-1.0743-1.0475-2.2435-1.7108-4.1514-0.2702-0.77713-1.4149-4.2217-1.6057-4.8319-1.8271-5.8427-2.9211-12.72-3.3728-21.211-0.2888-5.4228-0.3181-11.886-0.079-17.498 0.4757-11.161 1.9704-19.948 4.4187-25.986 0.8629-2.1279 1.9561-4.0784 2.9472-5.2595 1.8856-2.2473 4.3828-3.4224 7.9509-3.7413 0.7497-0.0668 1.5691-0.10343 2.3718-0.10677z" stroke-width=".039786"/></g><path d="m976.02 546.4c-14.085 0-25.426 11.341-25.426 25.426v549.15c0 14.085 11.341 25.426 25.426 25.426h350.01c14.085 0 25.426-11.341 25.426-25.426v-549.15c0-14.085-11.341-25.426-25.426-25.426zm1.4051 9.6297h347.07c9.4402 0 17.04 7.5999 17.04 17.04v546.5c0 9.4403-7.5999 17.04-17.04 17.04h-347.07c-9.4402 0-17.04-7.5999-17.04-17.04v-546.5c0-9.4402 7.5999-17.04 17.04-17.04zm199.7 34.365v6.2698h6.2595v-6.2698zm-76.588 9.9424-13.883 34.712 6.6786 0.0516 2.7587-6.8195 15.535-0.0241 2.9167 6.8744 6.909-0.0756-13.89-34.712zm111.73 0v34.764h6.256v-13.91h15.274v13.91l6.2218-3e-3v-34.757h-6.2287v13.893h-15.274v-13.893zm-187.18 0.0894-13.883 34.716 6.6751 0.048 2.7587-6.816 15.539-0.031 2.9167 6.8779 6.9053-0.079-13.886-34.712zm27.264 0v6.232h9.049c4.9779 0 9.0492 7e-3 9.0492 0.0206 0 9e-3 -4.0713 5.0393-9.0492 11.179l-9.049 11.165v3.1022c0 1.7061 0.029 3.1298 0.029 3.1298l27.776 3e-3s0.062-0.33581 0.062-3.1366v-3.1126l-19.771-0.014 9.884-12.186 9.8874-12.182v-4.1948h-13.931zm211.53 0v6.232h9.0526c4.9777 0 9.0526 7e-3 9.0526 0.0206 0 9e-3 -4.0749 5.0393-9.0526 11.179l-9.0526 11.165v3.1022c0 1.7061 0.018 3.118 0.029 3.1298 0.035 0.0353 27.69 0.0341 27.776 3e-3 0.058-0.0188 0.065-0.33581 0.065-3.1366v-3.1126l-19.775-0.014 9.8875-12.186 9.8873-12.182v-4.1948h-13.934zm-124.17 7e-3 -6.9432 0.0549v34.767h6.2559l0.029-23.949 11.794 19.266 11.818-19.297 0.018 23.98h6.2319v-34.767l-6.9363-0.0549-11.114 18.119zm37.402 0.4157v34.778h6.2595v-34.778zm71.977 0v34.778h6.2596v-34.778zm-145.04 7.7436 5.3284 13.316-10.781 0.0756zm-75.444 0.0859 5.3251 13.316-10.774 0.0756zm226.3 54.631v6.2664h6.2595v-6.2664zm-174.54 1.5494v6.3797l6.4039-0.0548v-6.3248zm15.896 0v6.3694l6.4588 0.0548v-6.4244zm136.45 8.0459c-1.7685 9e-3 -3.3575 0.235-4.9299 0.773-2.1558 0.73822-4.4494 1.6176-5.9812 3.3015-1.5404 1.6931-2.6181 4.013-2.7314 6.2973-0.109 2.2272 0.7312 4.5655 2.0443 6.3694 1.0777 1.4807 2.7739 2.4983 4.4627 3.2122 1.3884 0.58672 2.9603 0.57636 4.4523 0.79362 2.6091 0.37976 7.0517 0.93882 8.5923 1.5185 0.4535 0.17115 0.9153 0.52043 1.1818 0.84513 0.552 0.67323 0.8855 1.6221 0.7935 2.4873-0.1091 1.0404-0.6803 2.1549-1.5597 2.7244-1.6671 1.0797-3.9068 1.5632-6.0327 1.6284-3.3212 0.10149-7.2217-1.724-9.1143-4.26l-4.8133 3.9886c4.5308 4.4768 8.0292 6.4794 13.842 6.4794 4.3595 0 8.0096-1.1592 10.42-3.2466 2.4457-2.0874 3.3936-4.5458 3.4528-7.2077 0.059-2.7422-0.9508-5.5197-3.2191-7.5718-2.2329-2.0874-6.9043-2.3369-11.866-3.2568-2.0557-0.38888-3.687-0.53436-4.7857-1.1715-1.0986-0.63668-1.591-1.6835-1.6421-2.7484-0.051-1.0645 0.5595-2.1927 1.3674-2.8893 1.5741-1.3572 3.8914-1.8631 5.9708-1.8174 2.8685 0.0617 5.4814 0.61851 8.1147 2.8652l4.0573-4.7238c-3.3806-3.0005-7.8243-4.4194-12.076-4.3906zm-72.688 0.0141c-4.3768 6.7e-4 -8.1087 2.037-10.547 4.9334-2.6621 3.3214-3.8341 7.7288-3.8341 13.113 0 5.0697 0.9256 9.1464 3.1676 12.433 2.6268 3.8111 6.5518 5.8163 11.385 5.8163 3.8881 0 6.9672-1.3663 9.6642-3.9886 2.732-2.6224 3.4244-5.0925 3.4252-5.5552l0.018-4.8647v-5.8438h-12.474v6.232h6.5v2.556c-0.5585 1.569-1.1654 2.6579-2.5664 3.7069-1.401 1.0488-2.8492 1.467-4.5657 1.467-2.9773 0-5.3291-1.178-6.7303-3.7653-1.1208-2.0278-1.6009-4.8372-1.6009-8.1937 0-3.4615 0.4935-6.3928 1.9995-8.5956 1.5412-2.238 3.8798-3.2533 6.3317-3.2534 3.0125 0 4.7397 1.3623 6.5961 4.0195l5.136-3.5489c-2.062-3.2305-5.8397-6.667-11.897-6.6683zm-119.28 0.51876v35.131h17.655c1.8211 0 3.618-0.49169 5.404-1.4704 1.6109-0.87398 2.6753-2.1057 3.6211-3.7138 0.9807-1.6431 1.515-3.8755 1.515-5.6583-0.018-1.8756-0.7827-3.6353-1.6559-5.2494-0.5002-0.92512-1.9994-2.4392-1.9994-2.4392s2.2089-2.7911 2.2089-6.287c0-3.5657-2.1136-7.2697-5.301-9.0525-1.4708-0.83917-3.503-1.2608-6.0945-1.2608zm169.42 0.079-25.278 0.048v35.063l25.278-0.0206v-6.2835l-18.885 0.0275-0.093-8.4273 11.962 0.0206v-6.3832l-11.962-0.0141 0.093-7.699 18.885-0.0412zm-94.779 0.12032v34.85h23.739v-6.256h-17.445v-28.594zm139.53 0.12365v34.778h6.2595v-34.778zm-163.18 0.26798c-4.4981 0-8.0394 1.5988-10.629 4.8063-2.5901 3.1728-4.1022 7.1761-4.102 12.694 0 4.8628 1.2897 8.0023 3.6072 11.313 2.6582 3.8281 6.3354 5.7407 11.038 5.7407 4.2938 0 7.7196-1.6501 10.276-4.9609 2.5899-3.3453 4.1466-6.7776 4.1466-12.193 0-5.3111-1.485-9.2458-4.1089-12.488-2.5901-3.2764-6.0016-4.9128-10.228-4.9128zm-44.637 5.7476h10.324c1.0157 0.0702 2.0369 0.52559 2.5973 1.12 0.7186 0.79862 1.166 1.6398 1.1646 2.5835 0 1.1412-0.5869 2.3366-1.419 3.1194-0.6312 0.59403-1.3464 0.8613-2.4322 0.93102h-10.234zm44.637 0.4054c2.556 0 4.735 1.3324 5.8302 3.2569 1.4313 2.0693 2.2502 4.4349 2.2502 8.0906 0 3.2418-0.6994 4.936-1.7898 6.9707-1.1751 2.0576-3.3597 3.7928-6.2906 3.7928-2.5898 0-4.7838-1.0364-6.249-3.1057-1.4655-2.1038-2.2022-3.9675-2.2022-7.6577 0-3.6557 0.9051-6.1725 2.3705-8.2417 1.4654-2.0693 3.4909-3.1057 6.0807-3.1057zm-44.641 13.618 11.1 0.0206c1.3659 0.0357 2.4349 0.50967 3.2052 1.4189 0.8056 0.90888 1.1801 1.6658 1.2025 2.6316 0.025 1.131-0.4725 2.3079-1.278 3.1469-0.7706 0.83897-1.7638 1.2957-3.1297 1.2608h-11.042z" fill-rule="evenodd" stroke-linecap="square" stroke-linejoin="round" stroke-miterlimit="2" stroke-width=".66167" style="paint-order:stroke fill markers"/></g></svg>