<svg width="600" height="600.01" version="1.1" xmlns="http://www.w3.org/2000/svg"><g transform="translate(-1441.7 -299.72)"><g transform="translate(-108.37 1759.9)"><path d="m1850.1-1459.2c-165.06 0-299.05 133.99-299.05 299.05 0 165.06 133.99 299.05 299.05 299.05 165.06 5.3e-4 299.05-133.99 299.05-299.05 8e-4 -165.06-133.99-299.05-299.05-299.05z" color="#000000" color-rendering="auto" dominant-baseline="auto" enable-background="accumulate" fill="#fff" fill-rule="evenodd" image-rendering="auto" shape-rendering="auto" solid-color="#000000" stop-color="#000000" stroke="#000" stroke-linecap="square" stroke-linejoin="round" stroke-miterlimit="2" stroke-width="1.9" style="font-feature-settings:normal;font-variant-alternates:normal;font-variant-caps:normal;font-variant-east-asian:normal;font-variant-ligatures:normal;font-variant-numeric:normal;font-variant-position:normal;font-variation-settings:normal;inline-size:0;isolation:auto;mix-blend-mode:normal;paint-order:stroke fill markers;shape-margin:0;shape-padding:0;text-decoration-color:#000000;text-decoration-line:none;text-decoration-style:solid;text-indent:0;text-orientation:mixed;text-transform:none;white-space:normal"/><rect x="578.74" y="298.17" width="0" height="27.202" rx="249.48" ry="27.202" color="#000000"/><g transform="matrix(.88381 0 0 .88381 -1569.9 -1726.3)"><g transform="matrix(1.1315 0 0 1.1315 -1464.3 -762.13)"><g transform="translate(-108.37 1759.9)"><rect x="578.74" y="298.17" width="0" height="27.202" rx="249.48" ry="27.202" color="#000000"/></g></g></g><path d="m1661.1-1239.9c-2.2378-0.026-4.1517 1.7009-4.1517 1.7009v159.04s1.8141 1.6887 4.4672 1.6958c2.6372 0 4.4257-1.6958 4.4257-1.6958 8.3845-43.373 47.434-54.238 47.434-54.238l181.08-14.906c3.7086 1.8401 7.3946 3.7419 9.7409 9.7361l-56.126 6.5716-84.578-0.1244c-15.495-0.026-28.453 15.936-28.453 31.431 0 15.495 13.398 30.382 28.893 30.382h145.11s15.836-26.421 19.421-41.167h32.61c5.9588 2.8601 10.958 9.8735 13.609 13.05 6.489 7.7766 16.239 12.745 27.16 12.745 19.557 0 35.412-15.597 35.412-35.154 0-19.557-15.855-35.412-35.412-35.412-10.921 0-20.672 4.9689-27.16 12.745-2.1806 2.6134-5.9421 8.0326-10.527 11.499h-38.572c-0.8813-23.523-12.727-34.361-30.604-38.22-53.241-2.9682-120.64-5.5807-180.97-8.371-26.334-7.8205-45.657-24.212-47.972-59.61 0 0-1.2058-1.6196-4.8447-1.7011zm100.22 128.42h137.23c15.088 0-3.7173 20.615-14.177 20.615h-123.32s-6.1891-3.631-6.1891-10.377c0-6.7461 6.4581-10.238 6.4581-10.238z" fill-rule="evenodd"/><path d="m1850.1-1450.8c-160.48 0-290.57 130.1-290.57 290.58-5e-4 160.48 130.09 290.58 290.57 290.58 160.48 8e-4 290.58-130.1 290.58-290.58 2e-4 -160.48-130.1-290.58-290.58-290.58zm-0.6361 70.558c0.172-6e-4 0.3343-6e-4 0.4921 0 121.49 2e-4 219.97 98.491 219.97 219.98-2e-4 52.43-18.37 100.55-48.99 138.35l-309.49-309.2c37.696-30.599 85.694-49.009 138.02-49.125zm-170.24 81.305 309.32 309.47c-37.83 30.733-86.048 49.175-138.59 49.175-121.49-5.3e-4 -219.98-98.486-219.98-219.97 3e-4 -52.572 18.464-100.83 49.24-138.68z" color="#000000" color-rendering="auto" dominant-baseline="auto" enable-background="accumulate" fill="#ee252c" fill-rule="evenodd" image-rendering="auto" shape-rendering="auto" solid-color="#000000" stop-color="#000000" style="font-feature-settings:normal;font-variant-alternates:normal;font-variant-caps:normal;font-variant-east-asian:normal;font-variant-ligatures:normal;font-variant-numeric:normal;font-variant-position:normal;font-variation-settings:normal;inline-size:0;isolation:auto;mix-blend-mode:normal;paint-order:stroke fill markers;shape-margin:0;shape-padding:0;text-decoration-color:#000000;text-decoration-line:none;text-decoration-style:solid;text-indent:0;text-orientation:mixed;text-transform:none;white-space:normal"/></g></g></svg>