<svg width="600" height="600.01" version="1.1" xmlns="http://www.w3.org/2000/svg"><g transform="translate(597.79 -1305.5)"><g transform="translate(-108.37 1759.9)" fill-rule="evenodd"><path d="m-189.43-453.46c-165.06 0-299.05 133.99-299.05 299.05-5.3e-4 165.06 133.99 299.05 299.05 299.05 165.06 5e-4 299.05-133.99 299.05-299.05 5.3e-4 -165.06-133.99-299.05-299.05-299.05z" color="#000000" color-rendering="auto" dominant-baseline="auto" enable-background="accumulate" fill="#fff" image-rendering="auto" shape-rendering="auto" solid-color="#000000" stop-color="#000000" stroke="#000" stroke-linecap="square" stroke-linejoin="round" stroke-miterlimit="2" stroke-width="1.9" style="font-feature-settings:normal;font-variant-alternates:normal;font-variant-caps:normal;font-variant-east-asian:normal;font-variant-ligatures:normal;font-variant-numeric:normal;font-variant-position:normal;font-variation-settings:normal;inline-size:0;isolation:auto;mix-blend-mode:normal;paint-order:stroke fill markers;shape-margin:0;shape-padding:0;text-decoration-color:#000000;text-decoration-line:none;text-decoration-style:solid;text-indent:0;text-orientation:mixed;text-transform:none;white-space:normal"/><path d="m-106.82-290.48c-1.3404 0-2.5302 0.49213-3.5734 1.4562-0.96394 0.96949-1.4509 2.1575-1.4509 3.5733 0 1.4156 0.487 2.6144 1.4509 3.5785 1.0419 0.96405 2.233 1.451 3.5734 1.451 1.4158 0 2.6142-0.48697 3.5784-1.451 0.96395-0.96934 1.451-2.1628 1.451-3.5785 0-1.4898-0.487-2.6752-1.451-3.5733-0.96817-0.96405-2.1627-1.4562-3.5784-1.4562zm31.204 0c-1.3418 0-2.5352 0.49213-3.5784 1.4562-0.96421 0.96949-1.4509 2.1575-1.4509 3.5733 0 1.4156 0.48673 2.6144 1.4509 3.5785 1.0433 0.96405 2.2367 1.451 3.5784 1.451 1.4145 0 2.6092-0.48697 3.5734-1.451 0.96395-0.96934 1.4509-2.1628 1.4509-3.5785-2.64e-4 -1.4898-0.487-2.6752-1.4509-3.5733-0.96818-0.96405-2.159-1.4562-3.5734-1.4562zm-228.84 0.18084c-1.3404 0-2.5302 0.49213-3.5734 1.4562-0.96395 0.96817-1.4509 2.1576-1.4509 3.5733 0 1.4158 0.48699 2.6143 1.4509 3.5785 1.0419 0.96408 2.233 1.451 3.5734 1.451 1.4158 0 2.6145-0.48695 3.5784-1.451 0.96394-0.96812 1.4509-2.1626 1.4509-3.5785 0-1.4897-0.487-2.6753-1.4509-3.5733-0.96818-0.96405-2.1627-1.4562-3.5784-1.4562zm31.204 0c-1.3418 0-2.5352 0.49213-3.5784 1.4562-0.96421 0.96817-1.4509 2.1576-1.4509 3.5733 0 1.4158 0.48673 2.6143 1.4509 3.5785 1.0433 0.96408 2.2367 1.451 3.5784 1.451 1.4145 0 2.6092-0.48695 3.5734-1.451 0.96395-0.96812 1.4509-2.1626 1.4509-3.5785 0-1.4897-0.48699-2.6753-1.4509-3.5733-0.96817-0.96405-2.159-1.4562-3.5734-1.4562zm-74.41 14.324c-6.5591 0-13.868 2.6249-17.856 9.6201-3.988 6.9224-4.6164 16.756-4.6164 27.977 0 10.566 0.5248 21.097 3.883 27.946 3.9356 7.9424 10.765 10.746 18.006 10.746 5.8244 0 12.07-2.8021 16.111-8.2672 4.0932-5.465 4.1054-12.186 4.1054-12.186l-0.0264-17.815h-19.137l-0.0264 10.849h8.4323l-0.0264 8.1587c-0.6488 1.7883-1.2963 4.1218-2.8244 5.5098-1.7899 1.6255-4.3261 2.6986-6.7439 2.68-2.5466-0.0185-5.4894-0.92336-7.0538-2.933-0.92508-1.1885-1.2217-2.5258-1.797-3.9658-2.9143-7.2961-2.266-17.179-2.1841-23.154 0.0291-2.1524 0.18243-4.5942 0.45448-6.873 0.42724-3.5809 0.52401-7.9631 1.8486-10.658 2.3086-4.6634 6.7526-6.8998 10.823-6.119 3.9137 0.7508 5.9722 4.2259 7.4979 9.3154h10.73c-0.85608-4.3366-1.3825-8.0722-4.1722-11.804-3.5671-4.7725-10.35-9.0262-15.445-9.0262zm196.19 0.0619-21.171 0.12902v76.165h10.741v-36.007h9.4137l10.508 36.007h11.257l-10.834-37.138c5.8151-3.0969 10.701-9.6284 10.834-18.843v-0.0568c0.0767-6.7974-2.372-11.485-5.8453-15.187-3.4748-3.7004-9.843-5.0708-14.903-5.0708zm39.472 0.0722-0.12954 54.896c0 3.8737 1.4303 10.085 4.6423 13.668 4.057 4.5234 9.0702 7.6992 16.519 7.6992 6.2588 0 11.1-2.5723 14.872-6.4392 3.7098-3.8023 5.973-9.9306 5.9695-14.774v-54.917h-10.787v55.061c0 5.8109-5.3884 10.059-10.152 10.059-4.7584-0.0159-10.065-4.2997-10.074-10.111l-0.13483-55.01zm59.76 0.10337v76.171h10.787v-24.616l6.7285-12.047 12.961 36.663h11.443l-17.443-49.123 15.083-27.048h-12.439l-16.333 29.475v-29.475zm-193.09 0.0106v76.16h10.787v-42.632l13.736 42.632 13.808-42.632v42.632h10.715v-76.16h-11.185l-13.338 41.098-13.312-41.098zm-64.304 0.0671-0.12955 54.896c0 3.8735 1.4303 10.087 4.6423 13.668 4.057 4.5245 9.0689 7.6992 16.519 7.6992 6.2588 0 11.1-2.5672 14.872-6.4341 3.7098-3.8023 5.9695-9.937 5.9695-14.779l0.0264-54.917h-10.789v55.061c0 5.8109-5.3882 10.059-10.152 10.059-4.7584-0.0159-10.061-4.2996-10.075-10.111l-0.13484-55.01zm147.74 10.612h10.359c2.5674-3e-3 5.7752 0.0315 7.2862 1.8435 1.5794 1.8119 2.6335 4.3386 2.6335 8.1897 0 2.7096-1.144 4.9342-2.4995 6.6664-1.3602 1.7406-4.42 1.7894-6.8367 2.0139l-10.942-0.12902zm-183.55 85.553c-13.725 0-24.77 11.039-24.77 24.75 0 13.712 11.045 24.75 24.77 24.75h310.51c13.725 0 24.771-11.038 24.771-24.75 0-13.711-11.045-24.75-24.771-24.75zm296.81 69.819v76.114h38.336v-10.741h-27.549v-25.163h16.168v-10.87h-16.168v-18.584h26.366v-10.756zm-321.39 0.0878v75.525l19.746-0.11871c7.3509 0 12.724-3.1824 16.116-9.5478 3.487-6.3654 5.2308-15.729 5.2308-28.086 0-13.779-0.93327-22.051-4.4202-27.667-3.3926-5.6914-9.576-9.9075-16.927-9.9609zm211.47 0-18.264 75.969h11.076l5.0656-20.913h15.057l5.0191 20.913h11.05l-18.238-75.969zm50.352 0v76.026h10.73v-50.3l22.803 50.3h8.3498v-76.026h-10.823v44.594l-20.092-44.594zm-177.23 0.21177c-8.2932 0-12.827 3.0715-16.219 9.2122-3.3928 6.1407-5.0915 14.758-5.0915 28.463 0 13.18 1.6987 21.682 5.0915 28.122 3.3926 6.3654 7.926 9.5478 16.219 9.5478 8.2935 0 11.768-3.234 15.161-9.5994 3.3926-6.4402 5.0862-14.942 5.0862-28.122 0-13.704-1.6936-22.322-5.0862-28.463-3.3926-6.1407-6.8674-9.1605-15.161-9.1605zm44.295 0.11369-0.13483 54.478c0 3.8454 1.4237 10.011 4.6114 13.565 4.0263 4.4903 9.0012 7.6424 16.395 7.6424 6.2101 0 11.015-2.55 14.758-6.3876 3.6816-3.7735 5.9227-9.8603 5.9227-14.665l0.0264-54.503h-10.704v54.643c0 5.767-5.3469 9.9815-10.075 9.9815-4.7222-0.01322-9.9892-4.2662-10.002-10.033l-0.12955-54.591zm-118.24 10.343h6.0777c3.2043-0.07482 7.264 0.67339 9.2431 3.7437 1.9792 2.9955 4.0097 11.188 4.1982 23.769-0.0952 11.008-1.9234 18.287-3.9967 22.106-2.0733 3.8192-6.3336 4.5802-9.4446 4.5802h-6.0777zm73.666 0.10337c2.9214 0 4.9739 1.2957 6.7645 3.9916 1.7904 2.621 2.876 9.3313 3.253 22.736-0.37701 13.405-1.4626 20.149-3.253 22.844-1.7907 2.6211-3.8431 3.9813-6.7645 3.9813-2.8273 0-5.1391-1.3086-6.9298-3.9296-1.7907-2.6959-2.8762-9.4398-3.2532-22.844 0.37701-13.405 1.4626-20.115 3.2532-22.736 1.7907-2.6959 4.1024-4.0432 6.9298-4.0432zm132.55 12.863 4.9004 20.619h-9.8266z"/><path d="m-189.43-444.98c-160.48 0-290.57 130.1-290.57 290.58-7.9e-4 160.48 130.09 290.58 290.57 290.58 160.48 5.8e-4 290.58-130.1 290.58-290.58 3.2e-4 -160.48-130.1-290.58-290.58-290.58zm-0.63611 70.562c0.17185-2.6e-4 0.33048-2.6e-4 0.49255 0 121.49 5.1e-4 219.98 98.487 219.98 219.98-6.87e-4 121.49-98.488 219.98-219.98 219.98-121.49-5.81e-4 -219.98-98.487-219.98-219.98 0-121.3 98.187-219.71 219.49-219.98z" color="#000000" color-rendering="auto" dominant-baseline="auto" enable-background="accumulate" fill="#ed232a" image-rendering="auto" shape-rendering="auto" solid-color="#000000" stop-color="#000000" style="font-feature-settings:normal;font-variant-alternates:normal;font-variant-caps:normal;font-variant-east-asian:normal;font-variant-ligatures:normal;font-variant-numeric:normal;font-variant-position:normal;font-variation-settings:normal;inline-size:0;isolation:auto;mix-blend-mode:normal;paint-order:stroke fill markers;shape-margin:0;shape-padding:0;text-decoration-color:#000000;text-decoration-line:none;text-decoration-style:solid;text-indent:0;text-orientation:mixed;text-transform:none;white-space:normal"/></g></g></svg>