<svg width="158.75mm" height="158.75mm" version="1.1" viewBox="0 0 158.75 158.75" xmlns="http://www.w3.org/2000/svg"><g transform="translate(-210.27 -12.209)" fill-rule="evenodd" shape-rendering="auto"><path d="m289.64 12.209c-43.83 0-79.375 35.545-79.375 79.375 0 43.83 35.545 79.375 79.375 79.375 43.83 0 79.375-35.545 79.375-79.375 0-43.83-35.545-79.375-79.375-79.375z" color="#000000" color-rendering="auto" dominant-baseline="auto" enable-background="accumulate" image-rendering="auto" solid-color="#000000" stop-color="#000000" style="font-feature-settings:normal;font-variant-alternates:normal;font-variant-caps:normal;font-variant-east-asian:normal;font-variant-ligatures:normal;font-variant-numeric:normal;font-variant-position:normal;font-variation-settings:normal;inline-size:0;isolation:auto;mix-blend-mode:normal;paint-order:stroke fill markers;shape-margin:0;shape-padding:0;text-decoration-color:#000000;text-decoration-line:none;text-decoration-style:solid;text-indent:0;text-orientation:mixed;text-transform:none;white-space:normal"/><path transform="matrix(.26458 0 0 .26458 210.27 12.209)" d="m300 2.502c-164.3 0-297.5 133.19-297.5 297.5 0 63.699 20.031 122.71 54.121 171.11l0.01367-0.0137 414.38-414.5h2e-3s0.0179-0.01917 0.0234-0.02539c-48.385-34.059-107.37-54.07-171.04-54.07zm243.38 126.38-0.0332 0.0215-414.5 414.42-0.0117 8e-3c48.408 34.113 107.44 54.156 171.17 54.156 164.3 0 297.5-133.19 297.5-297.5 0-63.699-20.03-122.71-54.121-171.11zm-432.66 400.63c0.0692 0.0572 0.1397 0.11283 0.20898 0.16993l-0.17773-0.15039c-8e-3 -8e-3 -0.0158-9e-3 -0.0195-0.0117-4e-3 -3e-3 -8e-3 -5e-3 -0.0117-8e-3z" color="#000000" color-rendering="auto" dominant-baseline="auto" enable-background="accumulate" fill="#fff" image-rendering="auto" solid-color="#000000" stop-color="#000000" style="font-feature-settings:normal;font-variant-alternates:normal;font-variant-caps:normal;font-variant-east-asian:normal;font-variant-ligatures:normal;font-variant-numeric:normal;font-variant-position:normal;font-variation-settings:normal;inline-size:0;isolation:auto;mix-blend-mode:normal;paint-order:stroke fill markers;shape-margin:0;shape-padding:0;text-decoration-color:#000000;text-decoration-line:none;text-decoration-style:solid;text-indent:0;text-orientation:mixed;text-transform:none;white-space:normal"/></g></svg>