<?xml version="1.0" encoding="UTF-8" standalone="no"?>
<svg
   xmlns:dc="http://purl.org/dc/elements/1.1/"
   xmlns:cc="http://creativecommons.org/ns#"
   xmlns:rdf="http://www.w3.org/1999/02/22-rdf-syntax-ns#"
   xmlns:svg="http://www.w3.org/2000/svg"
   xmlns="http://www.w3.org/2000/svg"
   xmlns:sodipodi="http://sodipodi.sourceforge.net/DTD/sodipodi-0.dtd"
   xmlns:inkscape="http://www.inkscape.org/namespaces/inkscape"
   sodipodi:docname="tt5.svg"
   inkscape:version="1.0 (4035a4fb49, 2020-05-01)"
   id="svg26447"
   version="1.1"
   viewBox="0 0 158.75 158.75"
   height="158.75mm"
   width="158.75mm">
  <defs
     id="defs26441" />
  <sodipodi:namedview
     inkscape:window-maximized="1"
     inkscape:window-y="-9"
     inkscape:window-x="-9"
     inkscape:window-height="1001"
     inkscape:window-width="1920"
     showgrid="false"
     inkscape:document-rotation="0"
     inkscape:current-layer="layer1"
     inkscape:document-units="mm"
     inkscape:cy="314.38093"
     inkscape:cx="816.25618"
     inkscape:zoom="0.70710678"
     inkscape:pageshadow="2"
     inkscape:pageopacity="0.0"
     borderopacity="1.0"
     bordercolor="#666666"
     pagecolor="#ffffff"
     id="base" />
  <metadata
     id="metadata26444">
    <rdf:RDF>
      <cc:Work
         rdf:about="">
        <dc:format>image/svg+xml</dc:format>
        <dc:type
           rdf:resource="http://purl.org/dc/dcmitype/StillImage" />
        <dc:title />
      </cc:Work>
    </rdf:RDF>
  </metadata>
  <g
     transform="translate(-248.02944,-71.577935)"
     id="layer1"
     inkscape:groupmode="layer"
     inkscape:label="Layer 1">
    <path
       id="path25195"
       style="opacity:1;fill:#ffffff;fill-rule:evenodd;stroke:#000000;stroke-width:0.502708;stroke-linecap:square;stroke-linejoin:round;stroke-miterlimit:2;stroke-opacity:1;paint-order:stroke fill markers"
       d="m 406.52808,150.95294 a 79.123635,79.123635 0 0 1 -79.12362,79.12364 79.123635,79.123635 0 0 1 -79.12367,-79.12364 79.123635,79.123635 0 0 1 79.12367,-79.123651 79.123635,79.123635 0 0 1 79.12362,79.123651 z" />
    <path
       id="path25183"
       style="opacity:1;fill:#000000;fill-rule:evenodd;stroke:none;stroke-width:0.502708;stroke-linecap:square;stroke-linejoin:round;stroke-miterlimit:2;paint-order:stroke fill markers"
       d="m 327.40234,73.784249 a 77.176706,77.176706 0 0 0 -77.15809,77.175891 77.176706,77.176706 0 0 0 77.17589,77.17725 77.176706,77.176706 0 0 0 77.17725,-77.17725 77.176706,77.176706 0 0 0 -77.17725,-77.175891 77.176706,77.176706 0 0 0 -0.0185,0 z m -0.48455,3.36438 -20.68052,144.495411 a 73.799281,73.799418 0 0 1 -52.62726,-70.69759 73.799281,73.799418 0 0 1 73.30778,-73.797821 z m 21.73446,3.12213 a 73.799281,73.799418 0 0 1 52.55609,70.675691 73.799281,73.799418 0 0 1 -73.37895,73.79917 z" />
    <path
       id="path11755"
       style="opacity:1;fill:#000000;fill-opacity:1;stroke-width:0.0105267"
       d="m 271.34771,117.00268 -1.47006,35.2619 8.97767,1.05256 c 1.36077,-4.85833 4.98815,-6.84295 8.55884,-6.78081 2.80166,0 5.16788,1.77334 6.98065,3.95981 1.86779,2.18651 1.57463,4.90209 1.51247,8.08249 0,3.71036 -0.72702,6.94543 -2.15305,10.06584 -0.57475,1.25771 -1.50134,2.39647 -2.49797,3.31102 -2.25656,2.07147 -5.10588,3.26839 -7.9251,3.1755 -3.13128,0 -5.68531,-1.7701 -8.2673,-3.3603 l -6.69457,6.87391 c 3.21574,2.79703 8.53013,6.13885 13.41929,6.13885 6.97657,0 13.34411,-2.25042 17.7938,-7.61712 4.50444,-5.36672 6.07215,-11.95129 6.1033,-18.42069 0.0212,-3.51859 -0.39347,-7.22183 -1.7575,-10.55037 -0.7905,-1.92881 -2.12256,-3.67065 -3.29596,-5.33679 -1.24762,-1.77077 -3.29321,-2.98173 -5.16704,-3.93653 -2.31001,-1.1773 -4.84111,-1.9771 -7.72253,-2.05452 -1.32218,0 -3.1768,0.17958 -4.69893,0.52833 -1.70373,0.39064 -3.00578,0.95542 -3.00578,0.95542 l 0.45852,-11.7453 H 302.955 v -9.6032 z m 94.62478,0.17376 c -0.77432,0.005 -1.50465,0.0469 -2.1722,0.1274 -3.36083,0.4047 -6.19741,1.74778 -8.53147,4.03784 -4.79927,4.70879 -7.40297,13.40549 -7.79779,26.05151 -0.071,2.27915 -0.067,4.90465 0.0106,7.13396 0.28598,8.18828 1.53789,14.84286 3.73944,19.87979 0.6863,1.57026 1.30033,2.64282 2.18727,3.8243 2.04747,2.7275 5.09306,5.00022 8.41239,6.27576 1.78363,0.68538 3.4529,1.04754 5.12871,1.1128 0.31665,0.0132 0.95697,-8e-5 1.38792,-0.0238 2.99436,-0.17667 5.81824,-1.04409 8.31928,-2.55682 0.58521,-0.35397 1.19383,-0.77546 1.72465,-1.19356 1.67314,-1.31778 3.0752,-2.91598 4.17881,-4.76327 0.70823,-1.1855 1.26923,-2.43105 1.78623,-3.96529 1.3528,-4.01461 2.13427,-9.43235 2.35014,-16.28817 0.0456,-1.43308 0.0575,-2.29367 0.0575,-4.11587 0,-1.80112 -0.0132,-2.77812 -0.0575,-4.41285 -0.25772,-9.6278 -1.29447,-16.0496 -3.3247,-20.58747 -1.07124,-2.39435 -2.45095,-4.39963 -4.10626,-5.96776 -2.76509,-2.61939 -6.35368,-4.09696 -10.8556,-4.47035 -0.84584,-0.0702 -1.66342,-0.10251 -2.43776,-0.0972 z m 1.51522,10.80221 c 0.42866,-0.003 0.84793,0.0132 1.20998,0.0466 1.68579,0.15151 2.92387,0.66311 3.85714,1.59598 0.5735,0.57328 1.01239,1.26918 1.45772,2.30636 1.43962,3.35315 2.2769,8.04996 2.58558,14.52387 0.10357,2.17148 0.14515,4.18355 0.14515,7.04634 0,2.0194 -0.008,2.63324 -0.0575,3.94885 -0.16395,4.44036 -0.67147,7.7256 -1.559,10.0973 -0.12051,0.32227 -0.24076,0.60205 -0.71311,1.66853 -0.81532,1.84048 -1.34368,2.83827 -1.89573,3.57519 -1.09584,1.46269 -2.414,2.09756 -4.5689,2.20094 -0.19203,0.0106 -0.90151,0.0132 -1.08817,0.005 -0.83331,-0.0355 -1.42839,-0.10992 -2.00933,-0.25322 -1.48635,-0.36637 -2.45392,-1.13656 -3.19603,-2.5445 -0.30248,-0.57382 -0.56007,-1.19835 -0.91433,-2.21739 -0.14436,-0.41508 -0.75491,-2.25418 -0.85686,-2.5801 -0.97589,-3.12062 -1.55987,-6.79557 -1.80128,-11.33057 -0.15415,-2.89638 -0.17031,-6.34828 -0.0424,-9.34587 0.25401,-5.96122 1.0521,-10.65308 2.35973,-13.8778 0.46088,-1.1365 1.04481,-2.17919 1.57407,-2.81006 1.00717,-1.20026 2.34143,-1.82806 4.24725,-1.99837 0.40035,-0.0358 0.83742,-0.0543 1.26611,-0.0562 z" />
  </g>
</svg>
