<svg width="158.75mm" height="158.75mm" version="1.1" viewBox="0 0 158.75 158.75" xmlns="http://www.w3.org/2000/svg"><g transform="translate(-248.03 -71.578)"><path d="m406.53 150.95a79.124 79.124 0 0 1-79.124 79.124 79.124 79.124 0 0 1-79.124-79.124 79.124 79.124 0 0 1 79.124-79.124 79.124 79.124 0 0 1 79.124 79.124z" fill="#fff" fill-rule="evenodd" stroke="#000" stroke-linecap="square" stroke-linejoin="round" stroke-miterlimit="2" stroke-width=".50271" style="paint-order:stroke fill markers"/><path d="m327.4 73.784a77.177 77.177 0 0 0-77.158 77.176 77.177 77.177 0 0 0 77.176 77.177 77.177 77.177 0 0 0 77.177-77.177 77.177 77.177 0 0 0-77.177-77.176 77.177 77.177 0 0 0-0.0185 0zm-0.48455 3.3644-20.681 144.5a73.799 73.799 0 0 1-52.627-70.698 73.799 73.799 0 0 1 73.308-73.798zm21.734 3.1221a73.799 73.799 0 0 1 52.556 70.676 73.799 73.799 0 0 1-73.379 73.799z" fill-rule="evenodd" style="paint-order:stroke fill markers"/><path d="m271.35 117-1.4701 35.262 8.9777 1.0526c1.3608-4.8583 4.9882-6.843 8.5588-6.7808 2.8017 0 5.1679 1.7733 6.9806 3.9598 1.8678 2.1865 1.5746 4.9021 1.5125 8.0825 0 3.7104-0.72702 6.9454-2.153 10.066-0.57475 1.2577-1.5013 2.3965-2.498 3.311-2.2566 2.0715-5.1059 3.2684-7.9251 3.1755-3.1313 0-5.6853-1.7701-8.2673-3.3603l-6.6946 6.8739c3.2157 2.797 8.5301 6.1388 13.419 6.1388 6.9766 0 13.344-2.2504 17.794-7.6171 4.5044-5.3667 6.0722-11.951 6.1033-18.421 0.0212-3.5186-0.39347-7.2218-1.7575-10.55-0.7905-1.9288-2.1226-3.6706-3.296-5.3368-1.2476-1.7708-3.2932-2.9817-5.167-3.9365-2.31-1.1773-4.8411-1.9771-7.7225-2.0545-1.3222 0-3.1768 0.17958-4.6989 0.52833-1.7037 0.39064-3.0058 0.95542-3.0058 0.95542l0.45852-11.745h22.459v-9.6032zm94.625 0.17376c-0.77432 5e-3 -1.5046 0.0469-2.1722 0.1274-3.3608 0.4047-6.1974 1.7478-8.5315 4.0378-4.7993 4.7088-7.403 13.405-7.7978 26.052-0.071 2.2792-0.067 4.9046 0.0106 7.134 0.28598 8.1883 1.5379 14.843 3.7394 19.88 0.6863 1.5703 1.3003 2.6428 2.1873 3.8243 2.0475 2.7275 5.0931 5.0002 8.4124 6.2758 1.7836 0.68538 3.4529 1.0475 5.1287 1.1128 0.31665 0.0132 0.95697-8e-5 1.3879-0.0238 2.9944-0.17667 5.8182-1.0441 8.3193-2.5568 0.58521-0.35397 1.1938-0.77546 1.7246-1.1936 1.6731-1.3178 3.0752-2.916 4.1788-4.7633 0.70823-1.1855 1.2692-2.431 1.7862-3.9653 1.3528-4.0146 2.1343-9.4324 2.3501-16.288 0.0456-1.4331 0.0575-2.2937 0.0575-4.1159 0-1.8011-0.0132-2.7781-0.0575-4.4128-0.25772-9.6278-1.2945-16.05-3.3247-20.587-1.0712-2.3944-2.451-4.3996-4.1063-5.9678-2.7651-2.6194-6.3537-4.097-10.856-4.4704-0.84584-0.0702-1.6634-0.10251-2.4378-0.0972zm1.5152 10.802c0.42866-3e-3 0.84793 0.0132 1.21 0.0466 1.6858 0.15151 2.9239 0.66311 3.8571 1.596 0.5735 0.57328 1.0124 1.2692 1.4577 2.3064 1.4396 3.3532 2.2769 8.05 2.5856 14.524 0.10357 2.1715 0.14515 4.1836 0.14515 7.0463 0 2.0194-8e-3 2.6332-0.0575 3.9488-0.16395 4.4404-0.67147 7.7256-1.559 10.097-0.12051 0.32227-0.24076 0.60205-0.71311 1.6685-0.81532 1.8405-1.3437 2.8383-1.8957 3.5752-1.0958 1.4627-2.414 2.0976-4.5689 2.2009-0.19203 0.0106-0.90151 0.0132-1.0882 5e-3 -0.83331-0.0355-1.4284-0.10992-2.0093-0.25322-1.4864-0.36637-2.4539-1.1366-3.196-2.5445-0.30248-0.57382-0.56007-1.1984-0.91433-2.2174-0.14436-0.41508-0.75491-2.2542-0.85686-2.5801-0.97589-3.1206-1.5599-6.7956-1.8013-11.331-0.15415-2.8964-0.17031-6.3483-0.0424-9.3459 0.25401-5.9612 1.0521-10.653 2.3597-13.878 0.46088-1.1365 1.0448-2.1792 1.5741-2.8101 1.0072-1.2003 2.3414-1.8281 4.2472-1.9984 0.40035-0.0358 0.83742-0.0543 1.2661-0.0562z" stroke-width=".010527"/></g></svg>