<svg width="599.99" height="600" version="1.1" xmlns="http://www.w3.org/2000/svg"><g transform="translate(-1024.6 -939.6)"><g transform="translate(-108.37 1759.9)"><rect x="578.74" y="298.17" width="0" height="27.202" rx="249.48" ry="27.202" color="#000000"/><g transform="matrix(.88381 0 0 .88381 -1569.9 -1726.3)"><g transform="matrix(1.1315 0 0 1.1315 -1464.3 -762.13)"><g transform="translate(-108.37 1759.9)"><rect x="578.74" y="298.17" width="0" height="27.202" rx="249.48" ry="27.202" color="#000000"/></g></g></g><g fill-rule="evenodd"><path d="m1433-819.37c-165.06 0-299.05 133.99-299.04 299.05-6e-4 165.06 133.99 299.05 299.04 299.05 165.06 5.3e-4 299.05-133.99 299.05-299.05 5e-4 -165.06-133.99-299.05-299.05-299.05z" color="#000000" color-rendering="auto" dominant-baseline="auto" enable-background="accumulate" fill="#fff" image-rendering="auto" shape-rendering="auto" solid-color="#000000" stop-color="#000000" stroke="#000" stroke-linecap="square" stroke-linejoin="round" stroke-miterlimit="2" stroke-width="1.9" style="font-feature-settings:normal;font-variant-alternates:normal;font-variant-caps:normal;font-variant-east-asian:normal;font-variant-ligatures:normal;font-variant-numeric:normal;font-variant-position:normal;font-variation-settings:normal;inline-size:0;isolation:auto;mix-blend-mode:normal;paint-order:stroke fill markers;shape-margin:0;shape-padding:0;text-decoration-color:#000000;text-decoration-line:none;text-decoration-style:solid;text-indent:0;text-orientation:mixed;text-transform:none;white-space:normal"/><path d="m1512.6-656.2-64.39 119.5c-2.0026 3.5984 0.5888 8.7425 5.9078 7.3148l38.462-14.516v157.97h40.045v-157.85l39.202 14.614c4.6126 0.72838 6.9811-3.728 5.3233-7.3252z" fill="#ed232a" style="paint-order:stroke fill markers"/><path d="m1353.6-385.93-64.39-119.5c-2.0029-3.5983 0.5888-8.7425 5.9075-7.3148l38.462 14.516v-157.97h40.046v157.85l39.202-14.614c4.6126-0.72833 6.981 3.728 5.3232 7.3252z" style="paint-order:stroke fill markers"/><path d="m1433-810.89c-160.48 0-290.57 130.1-290.57 290.58-3e-4 160.48 130.09 290.57 290.57 290.58 160.48 5.3e-4 290.58-130.1 290.58-290.58 6e-4 -160.48-130.1-290.58-290.58-290.58zm-0.6364 70.561c0.1642-2.4e-4 0.3276-2.4e-4 0.4916 0 121.49 5.3e-4 219.97 98.486 219.97 219.97-5e-4 121.49-98.486 219.97-219.97 219.97-121.49-5e-4 -219.97-98.486-219.98-219.97 6e-4 -121.3 98.187-219.7 219.48-219.97z" color="#000000" color-rendering="auto" dominant-baseline="auto" enable-background="accumulate" fill="#ed232a" image-rendering="auto" shape-rendering="auto" solid-color="#000000" stop-color="#000000" style="font-feature-settings:normal;font-variant-alternates:normal;font-variant-caps:normal;font-variant-east-asian:normal;font-variant-ligatures:normal;font-variant-numeric:normal;font-variant-position:normal;font-variation-settings:normal;inline-size:0;isolation:auto;mix-blend-mode:normal;paint-order:stroke fill markers;shape-margin:0;shape-padding:0;text-decoration-color:#000000;text-decoration-line:none;text-decoration-style:solid;text-indent:0;text-orientation:mixed;text-transform:none;white-space:normal"/></g></g></g></svg>