<svg width="79.375mm" height="118.88mm" version="1.1" viewBox="0 0 79.375 118.88" xmlns="http://www.w3.org/2000/svg"><g transform="translate(-66.146 -88.729)"><g fill-rule="evenodd"><path d="m71.651 90.093h68.311c2.5423 0 4.589 2.0467 4.589 4.589v107.62c0 2.5423-2.0467 4.589-4.589 4.589h-68.311c-2.5423 0-4.589-2.0467-4.589-4.589v-107.62c0-2.5423 2.0467-4.589 4.589-4.589z" fill="#fff" style="paint-order:stroke fill markers"/><path d="m71.144 88.729c-2.7691 0-4.998 2.2289-4.998 4.998v108.88c0 2.7691 2.2289 4.9987 4.998 4.9987h69.379c2.7691 0 4.998-2.2296 4.998-4.9987v-108.88c0-2.7691-2.2289-4.998-4.998-4.998zm0.10072 1.9335h69.173c1.7538 0 3.1653 1.4115 3.1653 3.1653v35.976h-75.503v-35.976c0-1.7538 1.4115-3.1653 3.1653-3.1653zm39.675 6.8845v1.2413h1.2393v-1.2413zm-15.164 1.9689-2.7488 6.873 1.3223 0.01 0.54649-1.3502 3.0761-5e-3 0.57712 1.3611 1.3679-0.015-2.7501-6.873zm22.123 0v6.8832h1.2386v-2.7542h3.0244v2.7542l1.2318-1e-3 1e-3 -6.8818h-1.2332v2.7507h-3.0244v-2.7508zm-37.061 0.01771-2.7488 6.8736 1.3216 9e-3 0.54649-1.3496 3.0768-6e-3 0.57712 1.3618 1.3672-0.0157-2.7495-6.873zm5.3982 0v1.2338h1.7919c0.98559 0 1.7919 1e-3 1.7919 4e-3 0 2e-3 -0.80633 0.99818-1.7919 2.2139l-1.7919 2.2105v0.61455c0 0.33779 0.0054 0.6193 0.0054 0.6193l5.4996 1e-3s0.01228-0.0668 0.01228-0.62135v-0.6159l-1.9573-2e-3 -1.9573-1e-3 3.9146-4.8252v-0.83027h-2.7583zm41.883 0v1.2338h1.7919c0.98558 0 1.7926 1e-3 1.7926 4e-3 0 2e-3 -0.80701 0.99818-1.7926 2.2139l-1.7919 2.2105v0.61455c0 0.33779 3e-3 0.61698 5e-3 0.6193 7e-3 7e-3 5.4826 7e-3 5.4996 1e-3 0.0115-4e-3 0.0129-0.0668 0.0129-0.62135v-0.6159l-1.9573-2e-3 -1.958-1e-3 1.958-2.4126 1.9573-2.4126v-0.83028h-2.759zm-24.585 0.0014-1.3747 0.01087v6.8838h1.2386l5e-3 -4.7421 2.3357 3.8145 2.3398-3.8207 2e-3 4.7483h1.2338l8e-4 -6.8839-1.3734-0.01087-2.2009 3.5872zm7.4052 0.08234v6.8859h1.2393v-6.8859zm14.252 0v6.8859h1.2393v-6.8859zm-28.718 1.5326 1.0549 2.6365-2.1342 0.015zm-14.938 0.0176 1.0542 2.6365-2.1336 0.015zm44.806 10.816v1.2413h1.2393v-1.2413zm-34.559 0.30693v1.2631l1.2679-0.0109v-1.2522zm3.1476 0v1.2611l1.2788 0.0109v-1.272zm27.016 1.5932c-0.35017 2e-3 -0.66458 0.0466-0.97592 0.15313-0.42682 0.14617-0.88085 0.32059-1.1842 0.65401-0.30498 0.33522-0.51862 0.7945-0.54104 1.2468-0.0216 0.44098 0.14496 0.9039 0.40493 1.2611 0.21341 0.29318 0.54902 0.4943 0.88337 0.63564 0.27491 0.11617 0.58659 0.1142 0.882 0.15721 0.51659 0.0752 1.3957 0.18604 1.7007 0.30081 0.0898 0.0339 0.18137 0.10313 0.23411 0.16742 0.10932 0.1333 0.17541 0.32073 0.15721 0.49204-0.0215 0.20601-0.13487 0.42693-0.30897 0.53968-0.33009 0.21379-0.77345 0.30969-1.1944 0.32259-0.65758 0.0201-1.4301-0.34177-1.8048-0.8439l-0.95278 0.79013c0.89707 0.8864 1.5897 1.2829 2.7406 1.2829 0.86317 0 1.5863-0.22984 2.0635-0.64313 0.48422-0.41331 0.67155-0.90009 0.68328-1.4271 0.012-0.54296-0.18787-1.093-0.637-1.4993-0.44211-0.4133-1.3675-0.46235-2.35-0.64449-0.40705-0.077-0.72981-0.10592-0.94734-0.23207-0.21755-0.12606-0.31519-0.3329-0.32531-0.54376-0.0101-0.21077 0.11091-0.43443 0.27086-0.57235 0.31166-0.26873 0.77041-0.36908 1.1821-0.36002 0.56794 0.0122 1.0854 0.12274 1.6068 0.56758l0.80305-0.93576c-0.66935-0.59409-1.549-0.87478-2.3908-0.86908zm-14.392 3e-3c-0.8666 2.2e-4 -1.6059 0.40313-2.0886 0.97661-0.52708 0.65764-0.75882 1.5302-0.75882 2.5963 0 1.0038 0.18287 1.8115 0.62679 2.4623 0.52011 0.75458 1.2977 1.1515 2.2547 1.1515 0.76982 0 1.379-0.27092 1.913-0.79013 0.54094-0.51923 0.67837-1.0082 0.67852-1.0998l2e-3 -0.96299v-1.157h-2.4698l7.9e-4 1.2338h1.2869v0.50566c-0.11056 0.31065-0.23028 0.52662-0.5077 0.73432-0.27738 0.20766-0.56456 0.2906-0.90446 0.2906-0.58948 0-1.0551-0.23361-1.3325-0.74589-0.22193-0.4015-0.31714-0.95788-0.31714-1.6225 0-0.68536 0.0979-1.2652 0.39609-1.7014 0.30516-0.44312 0.76815-0.64447 1.2536-0.64449 0.59651 0 0.93844 0.27012 1.306 0.79625l1.0174-0.70302c-0.40829-0.63963-1.1567-1.32-2.3561-1.3203zm-23.617 0.10277v6.956h3.4954c0.36056 0 0.71688-0.0975 1.0705-0.29128 0.31895-0.17304 0.52939-0.41728 0.71662-0.73568 0.19416-0.32533 0.30013-0.76721 0.30013-1.1202-0.0032-0.37136-0.15515-0.71962-0.32803-1.0392-0.09905-0.18317-0.39608-0.4832-0.39608-0.4832s0.4376-0.55257 0.4376-1.2447c0-0.706-0.41835-1.4396-1.0494-1.7926-0.29124-0.16615-0.69352-0.24909-1.2066-0.24909zm33.545 0.0157-5.0048 9e-3v6.9424l5.0048-4e-3v-1.244l-3.739 5e-3 -0.0184-1.668 2.3684 4e-3v-1.2638l-2.3684-3e-3 0.0184-1.5244 3.739-8e-3zm-18.766 0.0238v6.9002h4.7006v-1.2393h-3.4545v-5.6609zm27.626 0.0245v6.8859h1.2393v-6.886zm-32.31 0.0531c-0.89066 0-1.5922 0.31636-2.105 0.95142-0.51282 0.62822-0.81196 1.4207-0.81191 2.5133 0 0.96282 0.25508 1.5842 0.71391 2.2397 0.5263 0.75796 1.2548 1.1372 2.186 1.1372 0.85018 0 1.5281-0.3272 2.0342-0.98273 0.51281-0.66237 0.82076-1.3418 0.82076-2.4139 0-1.0516-0.29372-1.8305-0.81326-2.4725-0.51281-0.64871-1.188-0.97251-2.0247-0.97251zm-8.8384 1.1379h2.0444c0.2011 0.0139 0.40289 0.10417 0.51382 0.22186 0.14228 0.15812 0.23099 0.32426 0.23071 0.5111-2.65e-4 0.22595-0.11637 0.46294-0.28107 0.61795-0.125 0.11761-0.2662 0.17063-0.48116 0.18444h-2.0267zm8.8384 0.0803c0.50607 0 0.93742 0.26345 1.1542 0.64449 0.28341 0.40971 0.44509 0.87822 0.44508 1.602 0 0.64187-0.13797 0.9773-0.35389 1.3802-0.23267 0.40739-0.66514 0.75066-1.2454 0.75066-0.5128 0-0.9478-0.20484-1.2379-0.61455-0.29016-0.41654-0.43556-0.78564-0.43556-1.5163 0-0.72382 0.17876-1.2223 0.4689-1.632 0.29015-0.40972 0.69179-0.61455 1.2046-0.61455zm-8.8391 2.6964 2.1975 4e-3c0.27043 7e-3 0.48244 0.10105 0.63496 0.28107 0.1595 0.17995 0.23376 0.33007 0.2382 0.5213 0.0049 0.22393-0.09369 0.45659-0.25317 0.62272-0.15256 0.16612-0.34955 0.25667-0.61999 0.24977h-2.186zm-17.093 13.73h75.503v70.754c0 1.7538-1.4115 3.166-3.1653 3.166h-69.173c-1.7538 0-3.1653-1.4122-3.1653-3.166z" color="#000000" color-rendering="auto" dominant-baseline="auto" enable-background="accumulate" image-rendering="auto" shape-rendering="auto" solid-color="#000000" stop-color="#000000" style="font-feature-settings:normal;font-variant-alternates:normal;font-variant-caps:normal;font-variant-east-asian:normal;font-variant-ligatures:normal;font-variant-numeric:normal;font-variant-position:normal;font-variation-settings:normal;inline-size:0;isolation:auto;mix-blend-mode:normal;paint-order:stroke fill markers;shape-margin:0;shape-padding:0;text-decoration-color:#000000;text-decoration-line:none;text-decoration-style:solid;text-indent:0;text-orientation:mixed;text-transform:none;white-space:normal"/><path d="m135.28 168.66a29.439 29.439 0 0 1-29.439 29.439 29.439 29.439 0 0 1-29.439-29.439 29.439 29.439 0 0 1 29.439-29.439 29.439 29.439 0 0 1 29.439 29.439z" fill="#fff" stroke="#000" stroke-linecap="square" stroke-linejoin="round" stroke-miterlimit="2" stroke-width=".50271" style="paint-order:stroke fill markers"/><path d="m105.84 139.95a28.715 28.715 0 0 0-28.708 28.715 28.715 28.715 0 0 0 28.715 28.715 28.715 28.715 0 0 0 28.715-28.715 28.715 28.715 0 0 0-28.715-28.715 28.715 28.715 0 0 0-7e-3 0zm-0.18029 1.2518-7.6945 53.762a27.458 27.458 0 0 1-19.581-26.304 27.458 27.458 0 0 1 27.275-27.458zm8.0867 1.1616a27.458 27.458 0 0 1 19.554 26.296 27.458 27.458 0 0 1-27.302 27.458z" style="paint-order:stroke fill markers"/></g><path d="m120.19 156.09c-0.2881 2e-3 -0.55944 0.0177-0.80782 0.0476-1.2504 0.15057-2.3057 0.64993-3.1741 1.502-1.7856 1.752-2.7543 4.988-2.9012 9.6932-0.0264 0.84799-0.025 1.8247 4e-3 2.6542 0.1064 3.0466 0.57193 5.5222 1.3911 7.3963 0.25535 0.58423 0.48394 0.98345 0.81395 1.423 0.7618 1.0148 1.8949 1.8604 3.1299 2.335 0.66363 0.25501 1.2848 0.39019 1.9083 0.41446 0.11781 5e-3 0.3562-5e-5 0.51655-9e-3 1.1141-0.0657 2.1646-0.38858 3.0952-0.95142 0.21774-0.13169 0.44426-0.28885 0.64177-0.44441 0.62251-0.4903 1.1438-1.0849 1.5544-1.7722 0.26351-0.44109 0.47256-0.90462 0.66491-1.4755 0.50333-1.4937 0.7942-3.5096 0.87452-6.0604 0.017-0.53321 0.0211-0.85328 0.0211-1.5313 0-0.67014-5e-3 -1.0333-0.0211-1.6415-0.0959-3.5822-0.48188-5.972-1.2373-7.6604-0.39857-0.89086-0.91198-1.6365-1.5278-2.22-1.0288-0.9746-2.3641-1.5244-4.0391-1.6633-0.31471-0.0261-0.61841-0.038-0.90651-0.0361zm-28.999 0.34368v1e-3c-3.183 0.0544-5.8245 2.5474-6.0311 5.7575 0.0042 0.0106 0.0028 7e-3 0.0042 0.0102 0 0.0567 0.04609 0.10249 0.10276 0.10276h3.5205c0.05085 0 0.09433-0.0368 0.10208-0.0871 0.0014-1e-3 0.0018-2e-3 0.0048-3e-3 0.19852-1.2705 1.3502-2.171 2.6351-2.0519 1.2727 0.11822 2.2332 1.1955 2.2084 2.4738-0.0028 0.0108-0.0028 0.0211-0.0028 0.032 0.08213 1.1338-0.55329 2.1987-1.5857 2.6705h-2.6433v4.1827h0.09324c0.0037 1e-3 0.0072 1e-3 0.01087 1e-3 0.0037 0 0.0073-1e-3 0.01087-1e-3h2.0846c2.0183 1.2539 2.999 3.6674 2.4153 5.9733-0.0013 3e-3 -0.0013 5e-3 -0.0013 8e-3 -0.49329 1.4973-1.9912 2.4162-3.5512 2.1676h-0.0014c-1.5606-0.24638-2.7066-1.5916-2.7066-3.1755-1.8e-5 -0.0133-0.01108-0.0216-0.01362-0.0333-0.0025-6e-3 -0.0049-0.0125-0.0081-0.0183-0.0053-0.0107-0.01041-0.0192-0.01834-0.0272-0.01965-0.0189-0.04562-0.0289-0.07282-0.0286h-3.4886c-0.05239-8e-5 -0.09636 0.0385-0.10276 0.0905-0.0059 5e-3 -0.01161 0.0104-0.01633 0.0163 0 3.8291 3.1065 6.9349 6.9356 6.9349 3.8236 0 6.9273-3.1019 6.9315-6.9274v-3e-3c5.9e-5 -1e-3 -5.8e-5 -3e-3 0-5e-3 0.09309-2.5549-0.88729-5.0301-2.695-6.8342 1.4321-1.2814 2.2236-3.1323 2.1451-5.0579 0.0013-5e-3 0.0055-8e-3 0.0055-0.0136 0-3.3198-2.6393-6.0434-5.959-6.1516h-0.0028c-0.10374-3e-3 -0.20698-4e-3 -0.30965-2e-3zm29.563 3.6757c0.15948-1e-3 0.31514 5e-3 0.44985 0.017 0.62722 0.0564 1.0881 0.24704 1.4353 0.59413 0.21338 0.21329 0.37671 0.47229 0.5424 0.85819 0.53565 1.2476 0.84747 2.9949 0.96231 5.4036 0.0385 0.80793 0.0538 1.5564 0.0538 2.6215 0 0.75134-3e-3 0.97983-0.0218 1.4693-0.061 1.6521-0.24962 2.8742-0.57983 3.7567-0.0449 0.11991-0.0897 0.22455-0.26542 0.62136-0.30336 0.68478-0.49967 1.0556-0.70506 1.3298-0.40774 0.54421-0.89827 0.78025-1.7 0.81871-0.0714 4e-3 -0.33548 5e-3 -0.40493 2e-3 -0.31005-0.0132-0.53111-0.0407-0.74726-0.0939-0.55302-0.13632-0.9135-0.42281-1.1896-0.94666-0.11255-0.2135-0.20847-0.44637-0.34028-0.82552-0.0537-0.15444-0.28057-0.83832-0.31851-0.95959-0.36309-1.1611-0.58053-2.5287-0.67035-4.2161-0.0573-1.0776-0.0632-2.3617-0.0156-3.477 0.0945-2.218 0.3914-3.9636 0.87793-5.1634 0.17148-0.42286 0.38903-0.81062 0.58596-1.0453 0.37474-0.44657 0.87116-0.68049 1.5803-0.74385 0.14895-0.0134 0.31145-0.0203 0.47094-0.0211z" stroke-width=".010527"/></g></svg>