<?xml version="1.0" encoding="UTF-8" standalone="no"?>
<svg
   xmlns:dc="http://purl.org/dc/elements/1.1/"
   xmlns:cc="http://creativecommons.org/ns#"
   xmlns:rdf="http://www.w3.org/1999/02/22-rdf-syntax-ns#"
   xmlns:svg="http://www.w3.org/2000/svg"
   xmlns="http://www.w3.org/2000/svg"
   xmlns:sodipodi="http://sodipodi.sourceforge.net/DTD/sodipodi-0.dtd"
   xmlns:inkscape="http://www.inkscape.org/namespaces/inkscape"
   sodipodi:docname="Turkey_road_sign_TT-33b.svg"
   inkscape:version="1.0 (4035a4fb49, 2020-05-01)"
   id="svg70164"
   version="1.1"
   viewBox="0 0 79.375 118.87535"
   height="118.87535mm"
   width="79.375mm">
  <defs
     id="defs70158" />
  <sodipodi:namedview
     inkscape:window-maximized="0"
     inkscape:window-y="0"
     inkscape:window-x="64"
     inkscape:window-height="1030"
     inkscape:window-width="1424"
     showgrid="false"
     inkscape:document-rotation="0"
     inkscape:current-layer="layer1"
     inkscape:document-units="mm"
     inkscape:cy="241.45054"
     inkscape:cx="14.337384"
     inkscape:zoom="1.8473482"
     inkscape:pageshadow="2"
     inkscape:pageopacity="0.0"
     borderopacity="1.0"
     bordercolor="#666666"
     pagecolor="#ffffff"
     id="base" />
  <metadata
     id="metadata70161">
    <rdf:RDF>
      <cc:Work
         rdf:about="">
        <dc:format>image/svg+xml</dc:format>
        <dc:type
           rdf:resource="http://purl.org/dc/dcmitype/StillImage" />
        <dc:title></dc:title>
      </cc:Work>
    </rdf:RDF>
  </metadata>
  <g
     transform="translate(-66.145833,-88.728992)"
     id="layer1"
     inkscape:groupmode="layer"
     inkscape:label="Layer 1">
    <path
       id="rect70142"
       style="opacity:1;fill:#ffffff;fill-opacity:1;fill-rule:evenodd;stroke:none;stroke-width:0.264582;stroke-linecap:square;stroke-linejoin:round;stroke-miterlimit:2;paint-order:stroke fill markers"
       d="m 71.65093,90.093342 h 68.3113 c 2.54231,0 4.589,2.04669 4.589,4.588993 V 202.30276 c 0,2.5423 -2.04669,4.589 -4.589,4.589 h -68.3113 c -2.542303,0 -4.588993,-2.0467 -4.588993,-4.589 V 94.682335 c 0,-2.542303 2.04669,-4.588993 4.588993,-4.588993 z" />
    <path
       id="path68200"
       style="color:#000000;font-style:normal;font-variant:normal;font-weight:normal;font-stretch:normal;font-size:medium;line-height:normal;font-family:sans-serif;font-variant-ligatures:normal;font-variant-position:normal;font-variant-caps:normal;font-variant-numeric:normal;font-variant-alternates:normal;font-variant-east-asian:normal;font-feature-settings:normal;font-variation-settings:normal;text-indent:0;text-align:start;text-decoration:none;text-decoration-line:none;text-decoration-style:solid;text-decoration-color:#000000;letter-spacing:normal;word-spacing:normal;text-transform:none;writing-mode:lr-tb;direction:ltr;text-orientation:mixed;dominant-baseline:auto;baseline-shift:baseline;text-anchor:start;white-space:normal;shape-padding:0;shape-margin:0;inline-size:0;clip-rule:nonzero;display:inline;overflow:visible;visibility:visible;opacity:1;isolation:auto;mix-blend-mode:normal;color-interpolation:sRGB;color-interpolation-filters:linearRGB;solid-color:#000000;solid-opacity:1;vector-effect:none;fill:#000000;fill-opacity:1;fill-rule:evenodd;stroke:none;stroke-width:1.27001;stroke-linecap:square;stroke-linejoin:round;stroke-miterlimit:2;stroke-dasharray:none;stroke-dashoffset:0;stroke-opacity:1;paint-order:stroke fill markers;color-rendering:auto;image-rendering:auto;shape-rendering:auto;text-rendering:auto;enable-background:accumulate;stop-color:#000000;stop-opacity:1"
       d="m 71.143862,88.728992 c -2.769094,0 -4.998029,2.228938 -4.998029,4.998032 V 202.60564 c 0,2.76909 2.228935,4.9987 4.998029,4.9987 H 140.5228 c 2.7691,0 4.99803,-2.22961 4.99803,-4.9987 V 93.727024 c 0,-2.769094 -2.22893,-4.998032 -4.99803,-4.998032 z m 0.100721,1.933472 h 69.172737 c 1.75376,0 3.16528,1.411521 3.16528,3.165281 V 129.80416 H 68.079302 V 93.827745 c 0,-1.75376 1.411524,-3.165281 3.165281,-3.165281 z M 110.91915,97.547 v 1.241344 h 1.2393 V 97.547 Z m -15.16422,1.96886 -2.748782,6.87297 1.322329,0.01 0.546486,-1.35023 3.076128,-0.005 0.577115,1.36112 1.367927,-0.015 -2.75014,-6.87297 z m 22.12294,0 v 6.88318 h 1.23862 v -2.75422 h 3.02441 v 2.75422 l 1.23181,-0.001 0.001,-6.881815 h -1.23316 v 2.750745 h -3.0244 v -2.750819 z m -37.060539,0.01771 -2.748777,6.87365 1.321643,0.009 0.546488,-1.34955 3.076811,-0.006 0.577117,1.3618 1.367243,-0.0157 -2.749462,-6.872973 z m 5.398195,0 v 0.61727 0.61658 h 1.791914 c 0.985587,0 1.791913,0.001 1.791913,0.004 0,0.002 -0.806326,0.99818 -1.791913,2.21386 l -1.791914,2.21046 v 0.61455 c 0,0.33779 0.0054,0.6193 0.0054,0.6193 l 5.499597,10e-4 c 0,0 0.01228,-0.0668 0.01228,-0.62135 v -0.6159 l -1.957292,-0.002 -1.957289,-10e-4 1.957289,-2.41258 1.957292,-2.41259 v -0.415122 -0.415146 h -2.758308 z m 41.882984,0 v 0.61727 0.61658 h 1.79192 c 0.98558,0 1.79259,0.001 1.79259,0.004 0,0.002 -0.80701,0.99818 -1.79259,2.21386 l -1.79192,2.21046 v 0.61455 c 0,0.33779 0.003,0.61698 0.005,0.6193 0.007,0.007 5.48255,0.007 5.4996,10e-4 0.0115,-0.004 0.0129,-0.0668 0.0129,-0.62135 v -0.6159 l -1.95729,-0.002 -1.95797,-10e-4 1.95797,-2.41258 1.95729,-2.41259 v -0.415139 -0.415145 h -2.75899 z m -24.58452,0.0014 -1.37473,0.01087 v 6.88385 h 1.23862 l 0.005,-4.74214 2.33568,3.81454 2.33976,-3.82066 0.002,4.74826 h 1.23385 l 8e-4,-6.883852 -1.37337,-0.01087 -2.20093,3.587232 z m 7.40516,0.08234 v 6.8859 h 1.2393 v -6.88589 z m 14.2516,0 v 6.8859 h 1.2393 v -6.88589 z m -28.718248,1.53262 1.054864,2.63649 -2.134235,0.015 z m -14.937599,0.0176 1.054188,2.63649 -2.133557,0.015 z m 44.805987,10.81623 v 1.24133 h 1.2393 v -1.24133 z m -34.559486,0.30693 v 1.26311 l 1.267879,-0.0109 v -1.25223 z m 3.147585,0 v 1.26107 l 1.278779,0.0109 v -1.27197 z m 27.016171,1.59318 c -0.35017,0.002 -0.66458,0.0466 -0.97592,0.15313 -0.42682,0.14617 -0.88085,0.32059 -1.18418,0.65401 -0.30498,0.33522 -0.51862,0.7945 -0.54104,1.24679 -0.0216,0.44098 0.14496,0.9039 0.40493,1.26108 0.21341,0.29318 0.54902,0.4943 0.88337,0.63564 0.27491,0.11617 0.58659,0.1142 0.882,0.15721 0.51659,0.0752 1.39573,0.18604 1.70072,0.30081 0.0898,0.0339 0.18137,0.10313 0.23411,0.16742 0.10932,0.1333 0.17541,0.32073 0.15721,0.49204 -0.0215,0.20601 -0.13487,0.42693 -0.30897,0.53968 -0.33009,0.21379 -0.77345,0.30969 -1.19438,0.32259 -0.65758,0.0201 -1.43009,-0.34177 -1.80485,-0.8439 l -0.95278,0.79013 c 0.89707,0.8864 1.58973,1.28286 2.74061,1.28286 0.86317,0 1.58626,-0.22984 2.06346,-0.64313 0.48422,-0.41331 0.67155,-0.90009 0.68328,-1.42713 0.012,-0.54296 -0.18787,-1.09296 -0.637,-1.49928 -0.44211,-0.4133 -1.36754,-0.46235 -2.34997,-0.64449 -0.40705,-0.077 -0.72981,-0.10592 -0.94734,-0.23207 -0.21755,-0.12606 -0.31519,-0.3329 -0.32531,-0.54376 -0.0101,-0.21077 0.11091,-0.43443 0.27086,-0.57235 0.31166,-0.26873 0.77041,-0.36908 1.18213,-0.36002 0.56794,0.0122 1.0854,0.12274 1.60681,0.56758 l 0.80305,-0.93576 c -0.66935,-0.59409 -1.54902,-0.87478 -2.3908,-0.86908 z m -14.39179,0.003 c -0.8666,2.2e-4 -1.60587,0.40313 -2.08864,0.97661 -0.52708,0.65764 -0.75882,1.53021 -0.75882,2.59633 0,1.00379 0.18287,1.81151 0.62679,2.46227 0.52011,0.75458 1.2977,1.1515 2.2547,1.1515 0.76982,0 1.37904,-0.27092 1.91305,-0.79013 0.54094,-0.51923 0.67837,-1.00817 0.67852,-1.09978 l 0.002,-0.96299 v -1.15695 h -2.46975 l 7.9e-4,1.23385 h 1.28694 v 0.50566 c -0.11056,0.31065 -0.23028,0.52662 -0.5077,0.73432 -0.27738,0.20766 -0.56456,0.2906 -0.90446,0.2906 -0.58948,0 -1.0551,-0.23361 -1.33254,-0.74589 -0.22193,-0.4015 -0.31714,-0.95788 -0.31714,-1.62246 0,-0.68536 0.0979,-1.26523 0.39609,-1.70139 0.30516,-0.44312 0.76815,-0.64447 1.25359,-0.64449 0.59651,0 0.93844,0.27012 1.30599,0.79625 l 1.01744,-0.70302 c -0.40829,-0.63963 -1.15672,-1.32004 -2.35608,-1.32031 z m -23.617454,0.10277 v 6.95598 h 3.495354 c 0.36056,0 0.716879,-0.0975 1.070522,-0.29128 0.318953,-0.17304 0.529388,-0.41728 0.716625,-0.73568 0.194162,-0.32533 0.300129,-0.76721 0.300129,-1.1202 -0.0032,-0.37136 -0.155151,-0.71962 -0.32803,-1.03922 -0.09905,-0.18317 -0.396085,-0.4832 -0.396085,-0.4832 0,0 0.437597,-0.55257 0.437597,-1.24474 0,-0.706 -0.418346,-1.43959 -1.049423,-1.79259 -0.291242,-0.16615 -0.693518,-0.24909 -1.206627,-0.24909 z m 33.544774,0.0157 -5.00483,0.009 v 6.94238 l 5.00483,-0.004 v -1.24402 l -3.73899,0.005 -0.0184,-1.66805 2.36835,0.004 v -1.2638 l -2.36835,-0.003 0.0184,-1.52445 3.73899,-0.008 z m -18.765744,0.0238 v 6.90019 h 4.700624 v -1.23931 h -3.454521 v -5.6609 z m 27.625944,0.0245 v 6.8859 h 1.2393 v -6.88599 z m -32.309558,0.0531 c -0.890665,0 -1.592156,0.31636 -2.104964,0.95142 -0.512816,0.62822 -0.811964,1.42074 -0.811908,2.5133 0,0.96282 0.255076,1.58418 0.713906,2.23972 0.526299,0.75796 1.254778,1.13722 2.185953,1.13722 0.850175,0 1.528138,-0.3272 2.034193,-0.98273 0.512813,-0.66237 0.820756,-1.34179 0.820756,-2.41394 0,-1.05159 -0.293719,-1.83052 -0.813265,-2.47248 -0.512813,-0.64871 -1.187966,-0.97251 -2.024671,-0.97251 z m -8.838419,1.13789 h 2.044396 c 0.201098,0.0139 0.40289,0.10417 0.513821,0.22186 0.142279,0.15812 0.230988,0.32426 0.230713,0.5111 -2.65e-4,0.22595 -0.116367,0.46294 -0.281068,0.61795 -0.124997,0.11761 -0.266196,0.17063 -0.481161,0.18444 h -2.026701 z m 8.838419,0.0803 c 0.506071,0 0.937424,0.26345 1.154234,0.64449 0.283406,0.40971 0.445087,0.87822 0.445082,1.60204 0,0.64187 -0.137972,0.9773 -0.353891,1.38017 -0.232667,0.40739 -0.665136,0.75066 -1.245425,0.75066 -0.5128,0 -0.947801,-0.20484 -1.237933,-0.61455 -0.290155,-0.41654 -0.435556,-0.78564 -0.435556,-1.51628 0,-0.72382 0.178763,-1.22228 0.468902,-1.63198 0.29015,-0.40972 0.691787,-0.61455 1.204587,-0.61455 z m -8.839104,2.69638 2.197527,0.004 c 0.270432,0.007 0.482441,0.10105 0.634961,0.28107 0.159495,0.17995 0.233765,0.33007 0.238199,0.5213 0.0049,0.22393 -0.09369,0.45659 -0.253167,0.62272 -0.152562,0.16612 -0.349547,0.25667 -0.619993,0.24977 H 85.183803 Z M 68.079302,131.75108 H 143.5826 v 70.75427 c 0,1.75377 -1.41152,3.16597 -3.16528,3.16597 H 71.244583 c -1.753757,0 -3.165281,-1.4122 -3.165281,-3.16597 z" />
    <path
       id="path25195"
       style="opacity:1;fill:#ffffff;fill-rule:evenodd;stroke:#000000;stroke-width:0.502708;stroke-linecap:square;stroke-linejoin:round;stroke-miterlimit:2;stroke-opacity:1;paint-order:stroke fill markers"
       d="m 135.2808,168.65999 a 29.439288,29.439288 0 0 1 -29.43928,29.43929 29.439288,29.439288 0 0 1 -29.439301,-29.43929 29.439288,29.439288 0 0 1 29.439301,-29.4393 29.439288,29.439288 0 0 1 29.43928,29.4393 z" />
    <path
       id="path25183"
       style="opacity:1;fill:#000000;fill-rule:evenodd;stroke:none;stroke-width:0.502708;stroke-linecap:square;stroke-linejoin:round;stroke-miterlimit:2;paint-order:stroke fill markers"
       d="m 105.84073,139.94806 a 28.714901,28.714901 0 0 0 -28.707969,28.7146 28.714901,28.714901 0 0 0 28.714589,28.7151 28.714901,28.714901 0 0 0 28.71511,-28.7151 28.714901,28.714901 0 0 0 -28.71511,-28.7146 28.714901,28.714901 0 0 0 -0.007,0 z m -0.18029,1.25178 -7.694532,53.76197 A 27.458273,27.458326 0 0 1 78.385042,168.65757 27.458273,27.458326 0 0 1 105.66044,141.19984 Z m 8.08668,1.16165 a 27.458273,27.458326 0 0 1 19.55438,26.29608 27.458273,27.458326 0 0 1 -27.30187,27.45823 z" />
    <path
       id="path11755"
       style="opacity:1;fill:#000000;fill-opacity:1;stroke-width:0.0105267"
       d="m 120.19109,156.09281 c -0.2881,0.002 -0.55944,0.0177 -0.80782,0.0476 -1.25045,0.15057 -2.3057,0.64993 -3.17413,1.50199 -1.78565,1.75198 -2.75433,4.98804 -2.90122,9.69321 -0.0264,0.84799 -0.025,1.82473 0.004,2.65417 0.1064,3.04659 0.57193,5.52225 1.39106,7.39633 0.25535,0.58423 0.48394,0.98345 0.81395,1.42305 0.7618,1.01481 1.89488,1.86041 3.12989,2.33499 0.66363,0.25501 1.28477,0.39019 1.90829,0.41446 0.11781,0.005 0.3562,-5e-5 0.51655,-0.009 1.1141,-0.0657 2.16462,-0.38858 3.09518,-0.95142 0.21774,-0.13169 0.44426,-0.28885 0.64177,-0.44441 0.62251,-0.4903 1.14378,-1.08486 1.55439,-1.77217 0.26351,-0.44109 0.47256,-0.90462 0.66491,-1.47546 0.50333,-1.49369 0.7942,-3.50955 0.87452,-6.06037 0.017,-0.53321 0.0211,-0.85328 0.0211,-1.53126 0,-0.67014 -0.005,-1.03328 -0.0211,-1.64152 -0.0959,-3.58218 -0.48188,-5.97197 -1.23726,-7.66037 -0.39857,-0.89086 -0.91198,-1.63654 -1.52785,-2.21998 -1.0288,-0.9746 -2.36411,-1.52437 -4.03912,-1.66329 -0.31471,-0.0261 -0.61841,-0.038 -0.90651,-0.0361 z m -28.998632,0.34368 v 0.001 c -3.183022,0.0544 -5.824491,2.54736 -6.03112,5.75753 0.0042,0.0106 0.0028,0.007 0.0042,0.0102 0,0.0567 0.04609,0.10249 0.102764,0.10276 h 3.520542 c 0.05085,0 0.09433,-0.0368 0.102084,-0.0871 0.0014,-0.001 0.0018,-0.002 0.0048,-0.003 0.198515,-1.27052 1.350247,-2.17105 2.635127,-2.05189 1.272677,0.11822 2.233213,1.19548 2.208416,2.47384 -0.0028,0.0108 -0.0028,0.0211 -0.0028,0.032 0.08213,1.13382 -0.553289,2.19868 -1.585706,2.67051 H 89.61092 89.507475 v 0.20621 2.11246 1.65783 0.10413 0.10209 h 0.09324 c 0.0037,0.001 0.0072,0.001 0.01087,0.001 0.0037,0 0.0073,-0.001 0.01087,-0.001 h 2.084641 c 2.018284,1.25391 2.999023,3.66735 2.415304,5.97327 -0.0013,0.003 -0.0013,0.005 -0.0013,0.008 -0.493289,1.49726 -1.991189,2.41617 -3.551158,2.16759 h -0.0014 c -1.560594,-0.24638 -2.706582,-1.59164 -2.706582,-3.1755 -1.8e-5,-0.0133 -0.01108,-0.0216 -0.01362,-0.0333 -0.0025,-0.006 -0.0049,-0.0125 -0.0081,-0.0183 -0.0053,-0.0107 -0.01041,-0.0192 -0.01834,-0.0272 -0.01965,-0.0189 -0.04562,-0.0289 -0.07282,-0.0286 h -3.48864 c -0.05239,-8e-5 -0.09636,0.0385 -0.102764,0.0905 -0.0059,0.005 -0.01161,0.0104 -0.01633,0.0163 0,3.82907 3.106505,6.9349 6.935583,6.9349 3.823571,0 6.927252,-3.10189 6.931488,-6.92741 v -0.002 -0.001 c 5.9e-5,-0.001 -5.8e-5,-0.003 0,-0.005 0.09309,-2.5549 -0.887288,-5.03006 -2.695008,-6.83418 1.432126,-1.28137 2.223621,-3.13231 2.14512,-5.05791 0.0013,-0.005 0.0055,-0.008 0.0055,-0.0136 0,-3.31982 -2.639314,-6.04342 -5.958976,-6.15159 h -0.0028 c -0.103742,-0.003 -0.206979,-0.004 -0.309654,-0.002 z m 29.562822,3.6757 c 0.15948,-0.001 0.31514,0.005 0.44985,0.017 0.62722,0.0564 1.08807,0.24704 1.4353,0.59413 0.21338,0.21329 0.37671,0.47229 0.5424,0.85819 0.53565,1.24759 0.84747,2.99491 0.96231,5.40364 0.0385,0.80793 0.0538,1.55635 0.0538,2.62151 0,0.75134 -0.003,0.97983 -0.0218,1.46933 -0.061,1.6521 -0.24962,2.87425 -0.57983,3.75668 -0.0449,0.11991 -0.0897,0.22455 -0.26542,0.62136 -0.30336,0.68478 -0.49967,1.05563 -0.70506,1.32981 -0.40774,0.54421 -0.89827,0.78025 -1.70004,0.81871 -0.0714,0.004 -0.33548,0.005 -0.40493,0.002 -0.31005,-0.0132 -0.53111,-0.0407 -0.74726,-0.0939 -0.55302,-0.13632 -0.9135,-0.42281 -1.18961,-0.94666 -0.11255,-0.2135 -0.20847,-0.44637 -0.34028,-0.82552 -0.0537,-0.15444 -0.28057,-0.83832 -0.31851,-0.95959 -0.36309,-1.16108 -0.58053,-2.52873 -0.67035,-4.21606 -0.0573,-1.07765 -0.0632,-2.36168 -0.0156,-3.47698 0.0945,-2.21797 0.3914,-3.96359 0.87793,-5.1634 0.17148,-0.42286 0.38903,-0.81062 0.58596,-1.04534 0.37474,-0.44657 0.87116,-0.68049 1.58026,-0.74385 0.14895,-0.0134 0.31145,-0.0203 0.47094,-0.0211 z" />
  </g>
</svg>
