<svg width="158.75mm" height="158.75mm" version="1.1" viewBox="0 0 158.75 158.75" xmlns="http://www.w3.org/2000/svg"><g transform="translate(-383.33 -46.63)" fill-rule="evenodd"><path d="m541.83 126.01a79.124 79.124 0 0 1-79.124 79.124 79.124 79.124 0 0 1-79.124-79.124 79.124 79.124 0 0 1 79.124-79.124 79.124 79.124 0 0 1 79.124 79.124z" fill="#fff" stroke="#000" stroke-linecap="square" stroke-linejoin="round" stroke-miterlimit="2" stroke-width=".50271" style="paint-order:stroke fill markers"/><path d="m462.7 48.836a77.177 77.177 0 0 0-77.158 77.176 77.177 77.177 0 0 0 77.176 77.177 77.177 77.177 0 0 0 77.177-77.177 77.177 77.177 0 0 0-77.177-77.176 77.177 77.177 0 0 0-0.0185 0zm-0.48455 3.3644-20.681 144.5a73.799 73.799 0 0 1-52.627-70.698 73.799 73.799 0 0 1 73.308-73.798zm21.734 3.1221a73.799 73.799 0 0 1 52.556 70.676 73.799 73.799 0 0 1-73.379 73.799z" style="paint-order:stroke fill markers"/><path d="m423.35 109.57-5e-3 1e-3c-0.0485 7e-5 -0.0966 0-0.14508 0-1.9118 0-4.1019 0.0604-5.686 0.20796-2.5198 0.23497-5.1858 0.82759-6.9774 1.3052-1.4423 0.38444-2.003 1.6171-2.003 1.6171l-3.8937 9.0693s-0.35985 0.53185-0.57186 0.77163c-0.13396 0.15141-0.43919 0.41728-0.43919 0.41728s-0.51981 0.3326-0.69499 0.57734c-0.15568 0.21739-0.3841 0.5486-0.49937 0.8592-0.10326 0.2786-0.16282 0.8756-0.16282 0.8756l-5e-3 1.3079 6.0868 0.0207-0.0106 2.6186-6.0854-0.0138 0.0106 5.7284c0 0.63744 0.51329 1.1492 1.1506 1.1492h0.0437v4.9923c0 0.40997 0.33014 0.73879 0.74016 0.73879h5.8077c0.40999 0 0.74016-0.32882 0.74016-0.73879v-4.9923l24.007-0.0287v5.0197c0 0.41003 0.33016 0.74016 0.74016 0.74016h5.8077c0.41002 0 0.74016-0.33013 0.74016-0.74016v-5.0197h0.0945c0.63736 0 1.1509-0.51316 1.1506-1.1506l-0.0132-5.5956-6.0649-0.0191 0.0185-2.6022 6.0923 0.01v-1.3079s5e-3 -0.33239-0.086-0.68407c-0.0707-0.2736-0.22186-0.55294-0.33245-0.73879-0.202-0.33977-0.84004-0.83729-0.84004-0.83729s-0.35564-0.29144-0.50486-0.46516c-0.26956-0.31395-0.69361-1.0288-0.69361-1.0288l-3.5996-8.6329s-0.60035-1.4576-2.438-1.9975c-1.9801-0.58168-5.2164-1.0128-7.8886-1.2012-1.5139-0.10698-2.3935-0.23338-3.5913-0.23258zm79.855 0-5e-3 1e-3c-0.0485 7e-5 -0.0966 0-0.14508 0-1.9118 0-4.1019 0.0604-5.686 0.20796-2.5198 0.23497-5.1858 0.82759-6.9774 1.3052-1.4423 0.38444-2.003 1.6171-2.003 1.6171l-3.8937 9.0693s-0.35985 0.53185-0.57186 0.77163c-0.13397 0.15141-0.43919 0.41728-0.43919 0.41728s-0.51981 0.3326-0.695 0.57734c-0.15567 0.21739-0.3841 0.5486-0.49937 0.8592-0.10352 0.2786-0.16282 0.8756-0.16282 0.8756l-5e-3 1.3079 6.0868 0.0207-0.0106 2.6186-6.0854-0.0138 0.0106 5.7284c0 0.63744 0.5133 1.1492 1.1506 1.1492h0.0437v4.9923c0 0.40997 0.33014 0.73879 0.74016 0.73879h5.8077c0.40999 0 0.74016-0.32882 0.74016-0.73879v-4.9923l24.007-0.0287v5.0197c0 0.41003 0.33017 0.74016 0.74016 0.74016h5.8077c0.41002 0 0.74016-0.33013 0.74016-0.74016v-5.0197h0.0945c0.63736 0 1.151-0.51316 1.1506-1.1506l-0.0132-5.5956-6.0649-0.0191 0.0185-2.6022 6.0923 0.01v-1.3079s5e-3 -0.33239-0.0863-0.68407c-0.0707-0.2736-0.22186-0.55294-0.33245-0.73879-0.202-0.33977-0.84005-0.83729-0.84005-0.83729s-0.35563-0.29144-0.50485-0.46516c-0.26956-0.31395-0.69361-1.0288-0.69361-1.0288l-3.5969-8.633s-0.60034-1.4576-2.438-1.9975c-1.9801-0.58168-5.2164-1.0129-7.8886-1.2012-1.5139-0.10699-2.3935-0.23338-3.5913-0.23258zm-80.562 2.7349h0.38034c0.13449 0 0.26774 4e-3 0.39951 4e-3 2.2174 0.027 4.3818 0.40292 6.6354 0.68406 1.0566 0.13124 3.2247 0.56367 3.2247 0.56367s0.40933 0.12248 0.76753 0.32972c0.16574 0.095 0.3123 0.24815 0.41727 0.34614 0.12126 0.11394 0.28289 0.3125 0.39265 0.49389 0.11861 0.19645 0.18056 0.37077 0.18056 0.37077l3.2438 7.5835s-2.544-0.56005-5.4739-0.85918c-3.0904-0.31534-6.716-0.49802-9.2267-0.49937-2.5603 0-7.7671 0.22652-10.909 0.54451-2.9398 0.2976-5.3508 0.74153-5.3508 0.74153l3.2986-7.6109s0.10775-0.27867 0.28868-0.53221c0.13026-0.18228 0.31611-0.33485 0.44738-0.44327 0.12072-0.10011 0.30472-0.21922 0.49116-0.30373 0.24675-0.11214 0.48706-0.17375 0.48706-0.17375s2.1838-0.49325 4.7679-0.81815c1.5204-0.19104 3.6207-0.41282 5.5382-0.42001zm79.855 0h0.38034c0.13449 0 0.26774 4e-3 0.3995 4e-3 2.2174 0.027 4.3818 0.40292 6.6354 0.68406 1.0566 0.13124 3.2247 0.56367 3.2247 0.56367s0.40933 0.12248 0.76754 0.32972c0.16573 0.095 0.3123 0.24815 0.41727 0.34614 0.12125 0.11394 0.28288 0.3125 0.39265 0.49389 0.11861 0.19645 0.18056 0.37077 0.18056 0.37077l3.2438 7.5835s-2.5441-0.56005-5.4739-0.85918c-3.0904-0.31534-6.716-0.49802-9.2267-0.49937-2.5603 0-7.7671 0.22652-10.909 0.54451-2.9398 0.2976-5.3508 0.74153-5.3508 0.74153l3.2986-7.6109s0.10776-0.27867 0.28869-0.53221c0.13025-0.18228 0.31611-0.33485 0.44737-0.44327 0.12073-0.10011 0.30473-0.21922 0.49116-0.30373 0.24675-0.11214 0.48706-0.17375 0.48706-0.17375s2.1838-0.49325 4.7679-0.81815c1.5204-0.19104 3.6206-0.41282 5.5382-0.42001zm-85.285 14.06 11.128 0.0151v4.14l-11.128-0.0151zm79.855 0 11.128 0.0151v4.14l-11.128-0.0151z"/></g></svg>