<?xml version="1.0" encoding="UTF-8" standalone="no"?>
<svg
   xmlns:dc="http://purl.org/dc/elements/1.1/"
   xmlns:cc="http://creativecommons.org/ns#"
   xmlns:rdf="http://www.w3.org/1999/02/22-rdf-syntax-ns#"
   xmlns:svg="http://www.w3.org/2000/svg"
   xmlns="http://www.w3.org/2000/svg"
   xmlns:sodipodi="http://sodipodi.sourceforge.net/DTD/sodipodi-0.dtd"
   xmlns:inkscape="http://www.inkscape.org/namespaces/inkscape"
   width="158.75mm"
   height="158.75003mm"
   viewBox="0 0 158.75 158.75003"
   version="1.1"
   id="svg32415"
   inkscape:version="1.0 (4035a4fb49, 2020-05-01)"
   sodipodi:docname="tt22.svg">
  <defs
     id="defs32409" />
  <sodipodi:namedview
     id="base"
     pagecolor="#ffffff"
     bordercolor="#666666"
     borderopacity="1.0"
     inkscape:pageopacity="0.0"
     inkscape:pageshadow="2"
     inkscape:zoom="0.70710678"
     inkscape:cx="-240.17952"
     inkscape:cy="239.97023"
     inkscape:document-units="mm"
     inkscape:current-layer="layer1"
     inkscape:document-rotation="0"
     showgrid="false"
     inkscape:window-width="1920"
     inkscape:window-height="1001"
     inkscape:window-x="-9"
     inkscape:window-y="-9"
     inkscape:window-maximized="1" />
  <metadata
     id="metadata32412">
    <rdf:RDF>
      <cc:Work
         rdf:about="">
        <dc:format>image/svg+xml</dc:format>
        <dc:type
           rdf:resource="http://purl.org/dc/dcmitype/StillImage" />
        <dc:title />
      </cc:Work>
    </rdf:RDF>
  </metadata>
  <g
     inkscape:label="Layer 1"
     inkscape:groupmode="layer"
     id="layer1"
     transform="translate(-383.33135,-46.63014)">
    <path
       id="path25195"
       style="opacity:1;fill:#ffffff;fill-rule:evenodd;stroke:#000000;stroke-width:0.502706;stroke-linecap:square;stroke-linejoin:round;stroke-miterlimit:2;stroke-opacity:1;paint-order:stroke fill markers"
       d="m 541.82999,126.00516 a 79.123651,79.123651 0 0 1 -79.12358,79.12365 79.123651,79.123651 0 0 1 -79.12371,-79.12365 79.123651,79.123651 0 0 1 79.12371,-79.123667 79.123651,79.123651 0 0 1 79.12358,79.123667 z" />
    <path
       id="path25183"
       style="opacity:1;fill:#000000;fill-rule:evenodd;stroke:none;stroke-width:0.502706;stroke-linecap:square;stroke-linejoin:round;stroke-miterlimit:2;paint-order:stroke fill markers"
       d="m 462.70427,48.83642 a 77.176724,77.176724 0 0 0 -77.15811,77.17598 77.176724,77.176724 0 0 0 77.17587,77.17726 77.176724,77.176724 0 0 0 77.17731,-77.17726 77.176724,77.176724 0 0 0 -77.17731,-77.17598 77.176724,77.176724 0 0 0 -0.0185,0 z m -0.48455,3.364426 -20.68057,144.495494 a 73.799291,73.799431 0 0 1 -52.62726,-70.6977 73.799291,73.799431 0 0 1 73.30783,-73.797794 z m 21.73449,3.122125 a 73.799291,73.799431 0 0 1 52.55607,70.675669 73.799291,73.799431 0 0 1 -73.37894,73.79926 z" />
    <path
       id="rect220966"
       style="opacity:1;fill:#000000;fill-opacity:1;fill-rule:evenodd;stroke:none;stroke-width:0.199999;stroke-linecap:round;stroke-linejoin:round;stroke-miterlimit:10;stroke-opacity:1"
       d="m 423.35111,109.57094 -0.005,0.001 c -0.0485,7e-5 -0.0966,0 -0.14508,0 -1.91181,0 -4.10192,0.0604 -5.68597,0.20796 -2.51975,0.23497 -5.18583,0.82759 -6.97744,1.3052 -1.44228,0.38444 -2.00296,1.61713 -2.00296,1.61713 l -3.8937,9.06933 c 0,0 -0.35985,0.53185 -0.57186,0.77163 -0.13396,0.15141 -0.43919,0.41728 -0.43919,0.41728 0,0 -0.51981,0.3326 -0.69499,0.57734 -0.15568,0.21739 -0.3841,0.5486 -0.49937,0.8592 -0.10326,0.2786 -0.16282,0.8756 -0.16282,0.8756 l -0.005,1.30793 6.08683,0.0207 -0.0106,2.6186 -6.08545,-0.0138 0.0106,5.72837 c 0,0.63744 0.51329,1.14917 1.15057,1.14922 h 0.0437 v 4.99231 c 0,0.40997 0.33014,0.73879 0.74016,0.73879 h 5.80772 c 0.40999,0 0.74016,-0.32882 0.74016,-0.73879 v -4.99231 l 24.00657,-0.0287 v 5.01966 c 0,0.41003 0.33016,0.74016 0.74016,0.74016 h 5.80769 c 0.41002,0 0.74016,-0.33013 0.74016,-0.74016 v -5.01968 h 0.0945 c 0.63736,0 1.15094,-0.51316 1.1506,-1.1506 l -0.0132,-5.59565 -6.06493,-0.0191 0.0185,-2.60218 6.09227,0.01 v -1.30793 c 0,0 0.005,-0.33239 -0.086,-0.68407 -0.0707,-0.2736 -0.22186,-0.55294 -0.33245,-0.73879 -0.202,-0.33977 -0.84004,-0.83729 -0.84004,-0.83729 0,0 -0.35564,-0.29144 -0.50486,-0.46516 -0.26956,-0.31395 -0.69361,-1.02884 -0.69361,-1.02884 l -3.59956,-8.6329 c 0,0 -0.60035,-1.45755 -2.438,-1.99747 -1.98008,-0.58168 -5.21638,-1.01285 -7.88865,-1.20122 -1.51394,-0.10698 -2.39349,-0.23338 -3.59133,-0.23258 z m 79.85501,0 -0.005,0.001 c -0.0485,7e-5 -0.0966,0 -0.14508,0 -1.91181,0 -4.10192,0.0604 -5.68597,0.20796 -2.51975,0.23497 -5.18583,0.82759 -6.97744,1.3052 -1.44227,0.38444 -2.00296,1.61713 -2.00296,1.61713 l -3.89369,9.06933 c 0,0 -0.35985,0.53185 -0.57186,0.77163 -0.13397,0.15141 -0.43919,0.41728 -0.43919,0.41728 0,0 -0.51981,0.3326 -0.695,0.57734 -0.15567,0.21739 -0.3841,0.5486 -0.49937,0.8592 -0.10352,0.2786 -0.16282,0.8756 -0.16282,0.8756 l -0.005,1.30793 6.08682,0.0207 -0.0106,2.6186 -6.08545,-0.0138 0.0106,5.72837 c 0,0.63744 0.5133,1.14917 1.15058,1.14922 h 0.0437 v 4.99231 c 0,0.40997 0.33014,0.73879 0.74016,0.73879 h 5.80773 c 0.40999,0 0.74016,-0.32882 0.74016,-0.73879 v -4.99231 l 24.00656,-0.0287 v 5.01966 c 0,0.41003 0.33017,0.74016 0.74016,0.74016 h 5.8077 c 0.41002,0 0.74016,-0.33013 0.74016,-0.74016 v -5.01968 h 0.0945 c 0.63736,0 1.15095,-0.51316 1.1506,-1.1506 l -0.0132,-5.59565 -6.06493,-0.0191 0.0185,-2.60218 6.09228,0.01 v -1.30793 c 0,0 0.005,-0.33239 -0.0863,-0.68407 -0.0707,-0.2736 -0.22186,-0.55294 -0.33245,-0.73879 -0.202,-0.33977 -0.84005,-0.83729 -0.84005,-0.83729 0,0 -0.35563,-0.29144 -0.50485,-0.46516 -0.26956,-0.31395 -0.69361,-1.02884 -0.69361,-1.02884 l -3.59694,-8.63296 c 0,0 -0.60034,-1.45756 -2.438,-1.99747 -1.98008,-0.58168 -5.21638,-1.01286 -7.88865,-1.20122 -1.51394,-0.10699 -2.39349,-0.23338 -3.59132,-0.23258 z m -80.56234,2.73489 h 0.38034 c 0.13449,0 0.26774,0.004 0.39951,0.004 2.21735,0.027 4.38181,0.40292 6.63544,0.68406 1.05661,0.13124 3.22467,0.56367 3.22467,0.56367 0,0 0.40933,0.12248 0.76753,0.32972 0.16574,0.095 0.3123,0.24815 0.41727,0.34614 0.12126,0.11394 0.28289,0.3125 0.39265,0.49389 0.11861,0.19645 0.18056,0.37077 0.18056,0.37077 l 3.24384,7.58354 c 0,0 -2.54405,-0.56005 -5.47387,-0.85918 -3.0904,-0.31534 -6.71603,-0.49802 -9.22667,-0.49937 -2.56034,0 -7.76706,0.22652 -10.90948,0.54451 -2.93977,0.2976 -5.35076,0.74153 -5.35076,0.74153 l 3.29856,-7.6109 c 0,0 0.10775,-0.27867 0.28868,-0.53221 0.13026,-0.18228 0.31611,-0.33485 0.44738,-0.44327 0.12072,-0.10011 0.30472,-0.21922 0.49116,-0.30373 0.24675,-0.11214 0.48706,-0.17375 0.48706,-0.17375 0,0 2.18378,-0.49325 4.76792,-0.81815 1.52038,-0.19104 3.62066,-0.41282 5.53819,-0.42001 z m 79.85501,0 h 0.38034 c 0.13449,0 0.26774,0.004 0.3995,0.004 2.21736,0.027 4.38181,0.40292 6.63544,0.68406 1.05661,0.13124 3.22467,0.56367 3.22467,0.56367 0,0 0.40933,0.12248 0.76754,0.32972 0.16573,0.095 0.3123,0.24815 0.41727,0.34614 0.12125,0.11394 0.28288,0.3125 0.39265,0.49389 0.11861,0.19645 0.18056,0.37077 0.18056,0.37077 l 3.24384,7.58354 c 0,0 -2.54406,-0.56005 -5.47388,-0.85918 -3.09039,-0.31534 -6.71603,-0.49802 -9.22667,-0.49937 -2.56034,0 -7.76706,0.22652 -10.90947,0.54451 -2.93978,0.2976 -5.35077,0.74153 -5.35077,0.74153 l 3.29856,-7.6109 c 0,0 0.10776,-0.27867 0.28869,-0.53221 0.13025,-0.18228 0.31611,-0.33485 0.44737,-0.44327 0.12073,-0.10011 0.30473,-0.21922 0.49116,-0.30373 0.24675,-0.11214 0.48706,-0.17375 0.48706,-0.17375 0,0 2.18379,-0.49325 4.76793,-0.81815 1.52037,-0.19104 3.62065,-0.41282 5.53818,-0.42001 z m -85.2851,14.06027 11.12837,0.0151 v 4.13997 l -11.12837,-0.0151 z m 79.85501,0 11.12837,0.0151 v 4.13997 l -11.12837,-0.0151 z" />
  </g>
</svg>
