<?xml version="1.0" encoding="UTF-8" standalone="no"?>
<svg
   xmlns:dc="http://purl.org/dc/elements/1.1/"
   xmlns:cc="http://creativecommons.org/ns#"
   xmlns:rdf="http://www.w3.org/1999/02/22-rdf-syntax-ns#"
   xmlns:svg="http://www.w3.org/2000/svg"
   xmlns="http://www.w3.org/2000/svg"
   xmlns:sodipodi="http://sodipodi.sourceforge.net/DTD/sodipodi-0.dtd"
   xmlns:inkscape="http://www.inkscape.org/namespaces/inkscape"
   width="158.75002mm"
   height="158.74998mm"
   viewBox="0 0 158.75002 158.74998"
   version="1.1"
   id="svg32415"
   inkscape:version="1.0 (4035a4fb49, 2020-05-01)"
   sodipodi:docname="tt22.svg">
  <defs
     id="defs32409" />
  <sodipodi:namedview
     id="base"
     pagecolor="#ffffff"
     bordercolor="#666666"
     borderopacity="1.0"
     inkscape:pageopacity="0.0"
     inkscape:pageshadow="2"
     inkscape:zoom="0.70710678"
     inkscape:cx="800.86842"
     inkscape:cy="86.007643"
     inkscape:document-units="mm"
     inkscape:current-layer="layer1"
     inkscape:document-rotation="0"
     showgrid="false"
     inkscape:window-width="1920"
     inkscape:window-height="1001"
     inkscape:window-x="-9"
     inkscape:window-y="-9"
     inkscape:window-maximized="1" />
  <metadata
     id="metadata32412">
    <rdf:RDF>
      <cc:Work
         rdf:about="">
        <dc:format>image/svg+xml</dc:format>
        <dc:type
           rdf:resource="http://purl.org/dc/dcmitype/StillImage" />
        <dc:title />
      </cc:Work>
    </rdf:RDF>
  </metadata>
  <g
     inkscape:label="Layer 1"
     inkscape:groupmode="layer"
     id="layer1"
     transform="translate(-107.88742,-87.366074)">
    <path
       id="path41282"
       style="opacity:1;fill:#ffffff;fill-rule:evenodd;stroke:#000000;stroke-width:0.502708;stroke-linecap:square;stroke-linejoin:round;stroke-miterlimit:2;stroke-opacity:1;paint-order:stroke fill markers"
       d="m 266.38607,166.74107 a 79.123656,79.123656 0 0 1 -79.12362,79.12363 79.123656,79.123656 0 0 1 -79.12368,-79.12363 79.123656,79.123656 0 0 1 79.12368,-79.123642 79.123656,79.123656 0 0 1 79.12362,79.123642 z" />
    <path
       d="m 187.1619,88.885206 c -42.94798,0.06916 -77.73005,34.907144 -77.73029,77.855154 -2.4e-4,42.99707 34.85795,77.85667 77.85515,77.85695 42.99736,2.3e-4 77.85717,-34.8595 77.85698,-77.85695 0,-42.99709 -34.85999,-77.855392 -77.85698,-77.855154 z m -0.0411,2.278221 -15.7398,149.422383 c -34.78773,-7.502 -59.63859,-38.25837 -59.63846,-73.86186 1.4e-4,-41.66859 33.72425,-75.456648 75.37826,-75.560523 z m 16.06148,1.687724 c 34.81382,7.480059 59.69352,38.248169 59.69407,73.872799 2.4e-4,41.68891 -33.75326,75.48274 -75.42384,75.5605 z"
       style="color:#000000;font-style:normal;font-variant:normal;font-weight:normal;font-stretch:normal;font-size:medium;line-height:normal;font-family:sans-serif;font-variant-ligatures:normal;font-variant-position:normal;font-variant-caps:normal;font-variant-numeric:normal;font-variant-alternates:normal;font-variant-east-asian:normal;font-feature-settings:normal;font-variation-settings:normal;text-indent:0;text-align:start;text-decoration:none;text-decoration-line:none;text-decoration-style:solid;text-decoration-color:#000000;letter-spacing:normal;word-spacing:normal;text-transform:none;writing-mode:lr-tb;direction:ltr;text-orientation:mixed;dominant-baseline:auto;baseline-shift:baseline;text-anchor:start;white-space:normal;shape-padding:0;shape-margin:0;inline-size:0;clip-rule:nonzero;display:inline;overflow:visible;visibility:visible;opacity:1;isolation:auto;mix-blend-mode:normal;color-interpolation:sRGB;color-interpolation-filters:linearRGB;solid-color:#000000;solid-opacity:1;vector-effect:none;fill:#000000;fill-opacity:1;fill-rule:evenodd;stroke:none;stroke-width:0.175066;stroke-linecap:square;stroke-linejoin:round;stroke-miterlimit:2;stroke-dasharray:none;stroke-dashoffset:0;stroke-opacity:1;paint-order:stroke fill markers;color-rendering:auto;image-rendering:auto;shape-rendering:auto;text-rendering:auto;enable-background:accumulate;stop-color:#000000;stop-opacity:1"
       id="path62613" />
    <path
       d="m 124.63811,135.02184 v 45.28762 h 47.4513 v -45.28762 z m 0,48.5422 v 4.31634 h 47.4513 v -4.31634 z m 3.23202,6.47516 c -0.6046,0 -1.0904,0.48366 -1.0904,1.08816 v 9.72419 c 0,0.60455 0.48688,1.08825 1.0904,1.08825 h 2.37418 c 0.60471,0 1.09051,-0.4837 1.09051,-1.08825 v -9.72419 c 0,-0.6045 -0.48694,-1.08816 -1.09051,-1.08816 z m 5.85036,0 c -0.6046,0 -1.0904,0.48366 -1.0904,1.08816 v 9.72419 c 0,0.60455 0.4858,1.08825 1.0904,1.08825 h 2.37429 c 0.60449,0 1.0903,-0.4837 1.0903,-1.08825 v -3.98772 h 8.45767 c 0.45397,1.09917 1.52556,1.81691 2.7152,1.81807 1.18936,0 2.26113,-0.71447 2.71495,-1.81807 h 8.45761 0.0225 v 4.03279 c 0,0.6045 0.48692,1.08821 1.09035,1.08821 h 2.37421 c 0.6045,0 1.0903,-0.48371 1.0903,-1.08821 v -9.72419 c 0,-0.6045 -0.4858,-1.0882 -1.0903,-1.0882 h -2.37421 c -0.60454,0 -1.09035,0.4837 -1.09035,1.0882 v 3.50523 h -0.0225 -8.46335 c -0.46165,-1.0882 -1.52877,-1.79162 -2.70921,-1.78938 -1.17853,0 -2.24279,0.70337 -2.70377,1.78938 h -8.4691 v -3.46571 c 0,-0.6045 -0.48692,-1.08816 -1.0903,-1.08816 z m 32.77404,0 c -0.60449,0 -1.09029,0.48366 -1.09029,1.08816 v 9.72419 c 0,0.60455 0.4858,1.08825 1.09029,1.08825 h 2.37429 c 0.60447,0 1.09033,-0.4837 1.09033,-1.08825 v -9.72419 c 0,-0.6045 -0.487,-1.08816 -1.09033,-1.08816 z"
       style="opacity:1;fill:#000000;fill-opacity:1;fill-rule:evenodd;stroke:none;stroke-width:4.39999;stroke-linecap:square;stroke-linejoin:round;paint-order:fill markers stroke"
       id="rect38024-9" />
    <path
       id="rect220966-1"
       style="opacity:1;fill:#000000;fill-opacity:1;fill-rule:evenodd;stroke:none;stroke-width:0.199999;stroke-linecap:round;stroke-linejoin:round;stroke-miterlimit:10;stroke-opacity:1"
       d="m 225.72424,167.38956 c -0.0517,6e-5 -0.10295,0 -0.15486,0 -2.04714,0 -4.39328,0.0647 -6.08944,0.2227 -2.69814,0.2516 -5.55305,0.88739 -7.47149,1.3988 -1.54435,0.41167 -2.14437,1.73027 -2.14437,1.73027 v 0 l -4.16959,9.71132 c 0,0 -0.3845,0.56974 -0.61154,0.8265 -0.14335,0.16214 -0.47058,0.44708 -0.47058,0.44708 0,0 -0.55642,0.35581 -0.74401,0.61789 -0.16658,0.23278 -0.41148,0.58766 -0.53491,0.92024 -0.1107,0.29833 -0.17468,0.93843 -0.17468,0.93843 l -0.005,1.39923 6.51828,0.0224 -0.0109,2.80391 -6.517,-0.0145 0.0108,6.13409 c 0,0.68256 0.54962,1.23107 1.23204,1.23112 h 0.0462 v 5.34444 c 0,0.43901 0.35341,0.79249 0.79246,0.79249 h 6.21964 c 0.43902,0 0.7924,-0.35348 0.7924,-0.79249 v -5.34472 l 25.70535,-0.0308 v 5.37506 c 0,0.43905 0.35346,0.79253 0.79246,0.79253 h 6.21961 c 0.43905,0 0.79243,-0.35348 0.79243,-0.79253 v -5.37562 h 0.10136 c 0.68249,0 1.23259,-0.54855 1.23222,-1.23112 l -0.014,-5.99247 -6.49361,-0.0205 0.0201,-2.78628 6.52354,0.0108 v -1.40142 c 0,0 0.005,-0.35577 -0.0926,-0.73235 -0.0756,-0.29297 -0.23669,-0.59153 -0.35507,-0.79053 -0.21632,-0.36384 -0.89948,-0.89649 -0.89948,-0.89649 0,0 -0.38097,-0.31274 -0.54073,-0.49877 -0.28866,-0.33617 -0.74326,-1.10202 -0.74326,-1.10202 l -3.85366,-9.24361 c 0,0 -0.64413,-1.56025 -2.61189,-2.13839 -2.12024,-0.62286 -5.58469,-1.08508 -8.44613,-1.28677 -1.62113,-0.11457 -2.5631,-0.24914 -3.84575,-0.24829 z m -0.7533,2.92751 c 0.13674,0 0.27295,0 0.40778,0 0.14391,0 0.28662,0.005 0.42772,0.005 2.37432,0.0289 4.6916,0.43027 7.10475,0.73131 1.13142,0.14052 3.45303,0.60442 3.45303,0.60442 0,0 0.43762,0.13134 0.82119,0.35324 0.1774,0.10171 0.33477,0.26512 0.44717,0.37005 0.12983,0.122 0.30382,0.33472 0.42137,0.52895 0.12714,0.21035 0.19291,0.39762 0.19291,0.39762 l 3.47385,8.12028 c 0,0 -2.72534,-0.59979 -5.86259,-0.9201 -3.30914,-0.33766 -7.19047,-0.53377 -9.87885,-0.53521 -2.74159,0 -8.31718,0.24234 -11.68207,0.58285 -3.14788,0.31867 -5.72913,0.7944 -5.72913,0.7944 l 3.53214,-8.14996 c 0,0 0.11456,-0.29744 0.30842,-0.56893 0.1396,-0.19519 0.33864,-0.35857 0.47921,-0.47466 0.12925,-0.10721 0.3261,-0.23525 0.52576,-0.32576 0.26408,-0.12009 0.52155,-0.18632 0.52155,-0.18632 0,0 2.33918,-0.5275 5.10624,-0.8754 1.62801,-0.20458 3.87625,-0.44241 5.92955,-0.45011 z m -5.81443,15.05544 11.91617,0.0159 v 4.43349 l -11.91617,-0.0159 z"
       sodipodi:nodetypes="cscscccscssccccccscssssccsssscsccccccsscsccccccsscccccccccccccccccsssccccc" />
  </g>
</svg>
