<svg width="158.75mm" height="158.75mm" version="1.1" viewBox="0 0 158.75 158.75" xmlns="http://www.w3.org/2000/svg"><g transform="translate(-107.89 -87.366)" fill-rule="evenodd"><path d="m266.39 166.74a79.124 79.124 0 0 1-79.124 79.124 79.124 79.124 0 0 1-79.124-79.124 79.124 79.124 0 0 1 79.124-79.124 79.124 79.124 0 0 1 79.124 79.124z" fill="#fff" stroke="#000" stroke-linecap="square" stroke-linejoin="round" stroke-miterlimit="2" stroke-width=".50271" style="paint-order:stroke fill markers"/><g><path d="m187.16 88.885c-42.948 0.06916-77.73 34.907-77.73 77.855-2.4e-4 42.997 34.858 77.857 77.855 77.857 42.997 2.3e-4 77.857-34.86 77.857-77.857 0-42.997-34.86-77.855-77.857-77.855zm-0.0411 2.2782-15.74 149.42c-34.788-7.502-59.639-38.258-59.638-73.862 1.4e-4 -41.669 33.724-75.457 75.378-75.561zm16.061 1.6877c34.814 7.4801 59.694 38.248 59.694 73.873 2.4e-4 41.689-33.753 75.483-75.424 75.56z" color="#000000" color-rendering="auto" dominant-baseline="auto" enable-background="accumulate" image-rendering="auto" shape-rendering="auto" solid-color="#000000" stop-color="#000000" style="font-feature-settings:normal;font-variant-alternates:normal;font-variant-caps:normal;font-variant-east-asian:normal;font-variant-ligatures:normal;font-variant-numeric:normal;font-variant-position:normal;font-variation-settings:normal;inline-size:0;isolation:auto;mix-blend-mode:normal;paint-order:stroke fill markers;shape-margin:0;shape-padding:0;text-decoration-color:#000000;text-decoration-line:none;text-decoration-style:solid;text-indent:0;text-orientation:mixed;text-transform:none;white-space:normal"/><path d="m124.64 135.02v45.288h47.451v-45.288zm0 48.542v4.3163h47.451v-4.3163zm3.232 6.4752c-0.6046 0-1.0904 0.48366-1.0904 1.0882v9.7242c0 0.60455 0.48688 1.0882 1.0904 1.0882h2.3742c0.60471 0 1.0905-0.4837 1.0905-1.0882v-9.7242c0-0.6045-0.48694-1.0882-1.0905-1.0882zm5.8504 0c-0.6046 0-1.0904 0.48366-1.0904 1.0882v9.7242c0 0.60455 0.4858 1.0882 1.0904 1.0882h2.3743c0.60449 0 1.0903-0.4837 1.0903-1.0882v-3.9877h8.4577c0.45397 1.0992 1.5256 1.8169 2.7152 1.8181 1.1894 0 2.2611-0.71447 2.715-1.8181h8.4801v4.0328c0 0.6045 0.48692 1.0882 1.0904 1.0882h2.3742c0.6045 0 1.0903-0.48371 1.0903-1.0882v-9.7242c0-0.6045-0.4858-1.0882-1.0903-1.0882h-2.3742c-0.60454 0-1.0904 0.4837-1.0904 1.0882v3.5052h-8.4858c-0.46165-1.0882-1.5288-1.7916-2.7092-1.7894-1.1785 0-2.2428 0.70337-2.7038 1.7894h-8.4691v-3.4657c0-0.6045-0.48692-1.0882-1.0903-1.0882zm32.774 0c-0.60449 0-1.0903 0.48366-1.0903 1.0882v9.7242c0 0.60455 0.4858 1.0882 1.0903 1.0882h2.3743c0.60447 0 1.0903-0.4837 1.0903-1.0882v-9.7242c0-0.6045-0.487-1.0882-1.0903-1.0882z" style="paint-order:fill markers stroke"/><path d="m225.72 167.39c-0.0517 6e-5 -0.10295 0-0.15486 0-2.0471 0-4.3933 0.0647-6.0894 0.2227-2.6981 0.2516-5.553 0.88739-7.4715 1.3988-1.5444 0.41167-2.1444 1.7303-2.1444 1.7303l-4.1696 9.7113s-0.3845 0.56974-0.61154 0.8265c-0.14335 0.16214-0.47058 0.44708-0.47058 0.44708s-0.55642 0.35581-0.74401 0.61789c-0.16658 0.23278-0.41148 0.58766-0.53491 0.92024-0.1107 0.29833-0.17468 0.93843-0.17468 0.93843l-5e-3 1.3992 6.5183 0.0224-0.0109 2.8039-6.517-0.0145 0.0108 6.1341c0 0.68256 0.54962 1.2311 1.232 1.2311h0.0462v5.3444c0 0.43901 0.35341 0.79249 0.79246 0.79249h6.2196c0.43902 0 0.7924-0.35348 0.7924-0.79249v-5.3447l25.705-0.0308v5.3751c0 0.43905 0.35346 0.79253 0.79246 0.79253h6.2196c0.43905 0 0.79243-0.35348 0.79243-0.79253v-5.3756h0.10136c0.68249 0 1.2326-0.54855 1.2322-1.2311l-0.014-5.9925-6.4936-0.0205 0.0201-2.7863 6.5235 0.0108v-1.4014s5e-3 -0.35577-0.0926-0.73235c-0.0756-0.29297-0.23669-0.59153-0.35507-0.79053-0.21632-0.36384-0.89948-0.89649-0.89948-0.89649s-0.38097-0.31274-0.54073-0.49877c-0.28866-0.33617-0.74326-1.102-0.74326-1.102l-3.8537-9.2436s-0.64413-1.5602-2.6119-2.1384c-2.1202-0.62286-5.5847-1.0851-8.4461-1.2868-1.6211-0.11457-2.5631-0.24914-3.8458-0.24829zm-0.7533 2.9275h0.40778c0.14391 0 0.28662 5e-3 0.42772 5e-3 2.3743 0.0289 4.6916 0.43027 7.1048 0.73131 1.1314 0.14052 3.453 0.60442 3.453 0.60442s0.43762 0.13134 0.82119 0.35324c0.1774 0.10171 0.33477 0.26512 0.44717 0.37005 0.12983 0.122 0.30382 0.33472 0.42137 0.52895 0.12714 0.21035 0.19291 0.39762 0.19291 0.39762l3.4738 8.1203s-2.7253-0.59979-5.8626-0.9201c-3.3091-0.33766-7.1905-0.53377-9.8788-0.53521-2.7416 0-8.3172 0.24234-11.682 0.58285-3.1479 0.31867-5.7291 0.7944-5.7291 0.7944l3.5321-8.15s0.11456-0.29744 0.30842-0.56893c0.1396-0.19519 0.33864-0.35857 0.47921-0.47466 0.12925-0.10721 0.3261-0.23525 0.52576-0.32576 0.26408-0.12009 0.52155-0.18632 0.52155-0.18632s2.3392-0.5275 5.1062-0.8754c1.628-0.20458 3.8762-0.44241 5.9296-0.45011zm-5.8144 15.055 11.916 0.0159v4.4335l-11.916-0.0159z"/></g></g></svg>