<svg width="600" height="600" version="1.1" xmlns="http://www.w3.org/2000/svg"><g transform="translate(2872.3 -1379.7)"><g transform="translate(-108.37 1759.9)" fill-rule="evenodd"><path d="m-2763.9-80.201a300 300 0 0 0 300 300 300 300 0 0 0 300-300 300 300 0 0 0-300-300 300 300 0 0 0-300 300" fill="#00408c" stroke-width="0" style="paint-order:fill markers stroke"/><path d="m-2489.3-208.17c-0.9663 0.0184-1.9885 0.31806-2.974 0.94024l-190.04 127.26 190.28 127.77c3.493 2.4 8.3841-0.11902 7.5325-5.2584l-19.863-87.671 34.101 0.0237 233.14 0.0184-0.1027-69.228-233.04-0.0184-34.198-0.0237 19.797-87.625c0.6546-3.7956-1.7356-6.2508-4.6351-6.1936z" fill="#fff" style="paint-order:stroke fill markers"/><path d="m-2463.9-370.12c160.04 0 289.89 129.85 289.89 289.89 0 160.04-129.85 289.89-289.89 289.89-160.04 0-289.89-129.85-289.89-289.89 0-160.04 129.85-289.89 289.89-289.89zm0 9.9789c-154.65 0-279.91 125.26-279.91 279.91 0 154.65 125.26 279.91 279.91 279.91s279.91-125.26 279.91-279.91c0-154.65-125.26-279.91-279.91-279.91z" color="#000000" fill="#fff" style="paint-order:fill markers stroke"/></g></g></svg>