<?xml version="1.0" encoding="UTF-8" standalone="no"?>
<svg
   xmlns:dc="http://purl.org/dc/elements/1.1/"
   xmlns:cc="http://creativecommons.org/ns#"
   xmlns:rdf="http://www.w3.org/1999/02/22-rdf-syntax-ns#"
   xmlns:svg="http://www.w3.org/2000/svg"
   xmlns="http://www.w3.org/2000/svg"
   xmlns:sodipodi="http://sodipodi.sourceforge.net/DTD/sodipodi-0.dtd"
   xmlns:inkscape="http://www.inkscape.org/namespaces/inkscape"
   sodipodi:docname="tt36_left.svg"
   inkscape:version="1.0 (4035a4fb49, 2020-05-01)"
   version="1.1"
   id="svg2"
   height="600"
   width="600">
  <defs
     id="defs4">
    <inkscape:perspective
       id="perspective10"
       inkscape:persp3d-origin="372.04724 : 350.78557 : 1"
       inkscape:vp_z="744.09448 : 526.17926 : 1"
       inkscape:vp_y="0 : 1000 : 0"
       inkscape:vp_x="0 : 526.17926 : 1"
       sodipodi:type="inkscape:persp3d" />
  </defs>
  <sodipodi:namedview
     inkscape:document-rotation="0"
     inkscape:window-maximized="1"
     inkscape:window-y="-9"
     inkscape:window-x="-9"
     inkscape:window-height="1001"
     inkscape:window-width="1920"
     showgrid="false"
     inkscape:current-layer="layer1-9"
     inkscape:document-units="px"
     inkscape:cy="268.79002"
     inkscape:cx="667.36434"
     inkscape:zoom="0.66749368"
     pagecolor="#ffffff"
     id="base" />
  <metadata
     id="metadata7">
    <rdf:RDF>
      <cc:Work
         rdf:about="">
        <dc:format>image/svg+xml</dc:format>
        <dc:type
           rdf:resource="http://purl.org/dc/dcmitype/StillImage" />
      </cc:Work>
    </rdf:RDF>
  </metadata>
  <g
     transform="translate(2872.3144,-1379.7123)"
     id="layer1"
     inkscape:groupmode="layer"
     inkscape:label="Livello 1">
    <g
       id="layer1-9"
       transform="translate(-108.36693,1759.913)"
       inkscape:groupmode="layer"
       inkscape:label="Layer 1">
      <path
         id="path13683-5"
         style="opacity:1;fill:#00408c;fill-opacity:1;fill-rule:evenodd;stroke-width:0;stroke-linecap:square;stroke-linejoin:round;paint-order:fill markers stroke"
         d="m -2763.9475,-80.200816 a 299.99997,299.99997 0 0 0 300,300.000076 299.99997,299.99997 0 0 0 300,-300.000076 299.99997,299.99997 0 0 0 -300,-299.999894 299.99997,299.99997 0 0 0 -300,299.999894" />
      
      <path
         d="m -2489.3296,-208.17455 c -0.9663,0.0184 -1.9885,0.31806 -2.974,0.94024 l -190.0384,127.264646 190.2785,127.770525 c 3.493,2.39995 8.3841,-0.11902 7.5325,-5.2584 l -19.8633,-87.67074 34.101,0.0237 233.1383,0.0184 v 0 l -0.1027,-69.228081 -233.0363,-0.0184 -34.1983,-0.0237 19.797,-87.62474 c 0.6546,-3.79563 -1.7356,-6.2508 -4.6351,-6.19356 z"
         style="opacity:1;fill:#ffffff;fill-opacity:1;fill-rule:evenodd;stroke:none;stroke-width:1.90001;stroke-linecap:square;stroke-linejoin:round;stroke-miterlimit:2;paint-order:stroke fill markers"
         id="rect45018-4"
         sodipodi:nodetypes="sccccccccccccss" />
         
      <path
         style="color:#000000;font-style:normal;font-variant:normal;font-weight:normal;font-stretch:normal;font-size:medium;line-height:normal;font-family:sans-serif;fill:#ffffff;fill-opacity:1;fill-rule:evenodd;stroke:none;stroke-width:16.6299;stroke-linecap:square;stroke-linejoin:round;paint-order:fill markers stroke;"
         d="m -2463.9222,-370.11581 c 160.0434,0 289.8911,129.84794 289.8911,289.891244 0,160.043517 -129.8477,289.891236 -289.8911,289.891236 -160.0435,0 -289.8914,-129.847719 -289.8914,-289.891236 0,-160.043304 129.8479,-289.891244 289.8914,-289.891244 z m 0,9.97893 c -154.6508,0 -279.9123,125.26148 -279.9123,279.912314 0,154.650887 125.2615,279.912286 279.9123,279.912286 154.6508,0 279.9123,-125.261399 279.9123,-279.912286 0,-154.650834 -125.2615,-279.912314 -279.9123,-279.912314 z"
         id="path13685-1" />
    </g>
  </g>
</svg>
