<svg width="600" height="600" version="1.1" xmlns="http://www.w3.org/2000/svg"><g transform="translate(2872.3 -1379.7)"><g transform="translate(-108.37 1759.9)" fill-rule="evenodd"><path d="m-2463.9 219.8a300 300 0 0 1-300-300 300 300 0 0 1 300-300 300 300 0 0 1 300 300 300 300 0 0 1-300 300" fill="#00408c" stroke-width="0" style="paint-order:fill markers stroke"/><path d="m-2331.4-109.31c-0.018-0.9663-0.3181-1.9885-0.9403-2.974l-127.26-190.04-127.77 190.28c-2.4 3.493 0.119 8.3841 5.2584 7.5325l87.671-19.863-0.024 34.101-0.018 233.14 69.228-0.1027 0.018-233.04 0.024-34.198 87.625 19.797c3.7956 0.6546 6.2508-1.7356 6.1936-4.6351z" fill="#fff" style="paint-order:stroke fill markers"/><path d="m-2174.1-80.225c0-160.04-129.85-289.89-289.89-289.89-160.04 0-289.89 129.85-289.89 289.89 0 160.04 129.85 289.89 289.89 289.89 160.04 0 289.89-129.85 289.89-289.89zm-9.9789 0c0 154.65-125.26 279.91-279.91 279.91-154.65 0-279.91-125.26-279.91-279.91s125.26-279.91 279.91-279.91c154.65 0 279.91 125.26 279.91 279.91z" color="#000000" color-rendering="auto" dominant-baseline="auto" enable-background="accumulate" fill="#fff" image-rendering="auto" shape-rendering="auto" solid-color="#000000" stop-color="#000000" style="font-feature-settings:normal;font-variant-alternates:normal;font-variant-caps:normal;font-variant-east-asian:normal;font-variant-ligatures:normal;font-variant-numeric:normal;font-variant-position:normal;font-variation-settings:normal;inline-size:0;isolation:auto;mix-blend-mode:normal;paint-order:fill markers stroke;shape-margin:0;shape-padding:0;text-decoration-color:#000000;text-decoration-line:none;text-decoration-style:solid;text-indent:0;text-orientation:mixed;text-transform:none;white-space:normal"/></g></g></svg>