<svg width="600" height="600" version="1.1" xmlns="http://www.w3.org/2000/svg"><g transform="translate(2160.1 -1459.7)"><g transform="translate(-108.37 1759.9)" fill-rule="evenodd"><path d="m-1751.8 299.76a300 300 0 0 1-300-300 300 300 0 0 1 300-300 300 300 0 0 1 300 300 300 300 0 0 1-300 300" fill="#00408c" stroke-width="0" style="paint-order:fill markers stroke"/><path d="m-1461.9-0.26866c0-160.04-129.85-289.89-289.89-289.89s-289.89 129.85-289.89 289.89c0 160.04 129.85 289.89 289.89 289.89s289.89-129.85 289.89-289.89zm-9.979 0c0 154.65-125.26 279.91-279.91 279.91-154.65 0-279.91-125.26-279.91-279.91 0-154.65 125.26-279.91 279.91-279.91 154.65 0 279.91 125.26 279.91 279.91z" color="#000000" color-rendering="auto" dominant-baseline="auto" enable-background="accumulate" fill="#fff" image-rendering="auto" shape-rendering="auto" solid-color="#000000" stop-color="#000000" style="font-feature-settings:normal;font-variant-alternates:normal;font-variant-caps:normal;font-variant-east-asian:normal;font-variant-ligatures:normal;font-variant-numeric:normal;font-variant-position:normal;font-variation-settings:normal;inline-size:0;isolation:auto;mix-blend-mode:normal;paint-order:fill markers stroke;shape-margin:0;shape-padding:0;text-decoration-color:#000000;text-decoration-line:none;text-decoration-style:solid;text-indent:0;text-orientation:mixed;text-transform:none;white-space:normal"/><path d="m-1801.7-255.4-104.18 182.16c-2.4436 4.564 0.9349 9.1144 6.03 7.6278l68.076-19.589 0.026 72.906-0.026 267.28h60.05v-85.788c-0.026-3.8488 22.916-69.415 96.901-69.415h8.145l-19.786 68.676c-0.8568 3.8281 2.7388 7.8662 7.4105 5.6109l182.59-104.32-182.16-104.18c-1.1409-0.61091-2.28-0.85395-3.325-0.80155-3.1358 0.15701-5.4176 3.0101-4.3026 6.8314l19.558 67.988c-0.542-0.01059-1.1557-0.0466-1.6601-0.0466h-6.1589c-38.339 0-72.802 12.099-97.232 31.54v-117.07l0.026-39.204 68.738 19.806c3.8278 0.85668 7.8659-2.7441 5.6108-7.4157z" fill="#fff" style="paint-order:stroke fill markers"/></g></g></svg>