<svg width="600" height="600" version="1.1" viewBox="0 0 600 600" xmlns="http://www.w3.org/2000/svg"><g transform="translate(300 300)" fill-rule="evenodd"><path d="m0-300a300 300 0 1 1 0 600 300 300 0 1 1 0-600z" fill="#00408c"/><path d="m0-289.89c160.04 0 289.89 129.85 289.89 289.89s-129.85 289.89-289.89 289.89-289.89-129.85-289.89-289.89 129.85-289.89 289.89-289.89zm0 9.979c-154.65 0-279.91 125.26-279.91 279.91s125.26 279.91 279.91 279.91 279.91-125.26 279.91-279.91-125.26-279.91-279.91-279.91z" fill="#fff"/><path d="m49.886-255.4 104.18 182.16c2.443 4.564-0.935 9.115-6.03 7.628l-68.076-19.589-0.026 72.906 0.026 267.28h-60.05v-85.788c0.026-3.849-22.916-69.415-96.901-69.415h-8.145l19.785 68.676c0.857 3.828-2.739 7.866-7.411 5.611l-182.59-104.32 182.16-104.18c1.141-0.611 2.28-0.854 3.325-0.802 3.136 0.157 5.418 3.01 4.303 6.831l-19.558 67.988c0.542-0.011 1.156-0.047 1.66-0.047h6.159c38.339 0 72.802 12.099 97.232 31.54v-117.07l0.026-39.204-68.738 19.806c-3.828 0.857-7.866-2.744-5.611-7.416z" fill="#fff"/></g></svg>