<?xml version="1.0" encoding="UTF-8" standalone="no"?>
<svg
   xmlns="http://www.w3.org/2000/svg"
   width="600"
   height="600"
   viewBox="0 0 600 600"
   id="svg2"
   version="1.1">
  <defs id="defs4" />
  <g
     id="layer1"
     transform="translate(300, 300)">
    <path
       d="M 0,-300 A 300,300 0 1,1 0,300 A 300,300 0 1,1 0,-300 Z"
       style="fill:#00408c;fill-opacity:1;fill-rule:evenodd;stroke:none;"
       id="path13683-5-3" />
    
    <path
       d="M 0,-289.891 C 160.043,-289.891 289.891,-160.043 289.891,0 C 289.891,160.043 160.043,289.891 0,289.891 C -160.043,289.891 -289.891,160.043 -289.891,0 C -289.891,-160.043 -160.043,-289.891 0,-289.891 Z M 0,-279.912 C -154.651,-279.912 -279.912,-154.651 -279.912,0 C -279.912,154.651 -154.651,279.912 0,279.912 C 154.651,279.912 279.912,154.651 279.912,0 C 279.912,-154.651 154.651,-279.912 0,-279.912 Z"
       style="fill:#ffffff;fill-opacity:1;fill-rule:evenodd;stroke:none;"
       id="path13685-1-5" />
    
    <path
       id="rect45018-4-5"
       style="fill:#ffffff;fill-opacity:1;fill-rule:evenodd;stroke:none;"
       d="m 49.886,-255.397 104.183,182.161 c 2.443,4.564 -0.935,9.115 -6.03,7.628 l -68.076,-19.589 -0.026,72.906 0.026,267.277 h -60.05 v -76.712 v -9.076 c 0.026,-3.849 -22.916,-69.415 -96.901,-69.415 h -8.145 l 19.785,68.676 c 0.857,3.828 -2.739,7.866 -7.411,5.611 l -182.59,-104.322 182.156,-104.182 c 1.141,-0.611 2.28,-0.854 3.325,-0.802 3.136,0.157 5.418,3.01 4.303,6.831 l -19.558,67.988 c 0.542,-0.011 1.156,-0.047 1.66,-0.047 h 6.159 c 38.339,0 72.802,12.099 97.232,31.54 V -45.993 l 0.026,-39.204 -68.738,19.806 c -3.828,0.857 -7.866,-2.744 -5.611,-7.416 z" />
  </g>
</svg>
