<svg width="600" height="600" version="1.1" xmlns="http://www.w3.org/2000/svg"><g transform="translate(2873.5 -1502.7)"><g transform="translate(-108.37 1759.9)" fill-rule="evenodd"><path d="m-2465.1 342.77a300 300 0 0 0 300-300 300 300 0 0 0-300-300 300 300 0 0 0-300 300 300 300 0 0 0 300 300" fill="#00408c" stroke-width="0" style="paint-order:fill markers stroke"/><path d="m-2755 42.743c0-160.04 129.85-289.89 289.89-289.89 160.04 0 289.89 129.85 289.89 289.89 0 160.04-129.85 289.89-289.89 289.89-160.04 0-289.89-129.85-289.89-289.89zm9.9792 0c0 154.65 125.26 279.91 279.91 279.91 154.65 0 279.91-125.26 279.91-279.91 0-154.65-125.26-279.91-279.91-279.91-154.65 0-279.91 125.26-279.91 279.91z" color="#000000" color-rendering="auto" dominant-baseline="auto" enable-background="accumulate" fill="#fff" image-rendering="auto" shape-rendering="auto" solid-color="#000000" stop-color="#000000" style="font-feature-settings:normal;font-variant-alternates:normal;font-variant-caps:normal;font-variant-east-asian:normal;font-variant-ligatures:normal;font-variant-numeric:normal;font-variant-position:normal;font-variation-settings:normal;inline-size:0;isolation:auto;mix-blend-mode:normal;paint-order:fill markers stroke;shape-margin:0;shape-padding:0;text-decoration-color:#000000;text-decoration-line:none;text-decoration-style:solid;text-indent:0;text-orientation:mixed;text-transform:none;white-space:normal"/><path d="m-2529.2-55.48c-0.8032-0.06038-1.5586 0.04404-2.1116 0.28325l-197.02 60.967 150.83 141.65c2.808 2.3259 7.6371 1.2124 8.1218-3.6875l2.0032-68.563 0.145-0.63861h0.2479c1.6037-6.6e-4 6.9874 0.77151 12.432 2.1579 5.5007 1.4006 11.076 3.4272 15.388 5.4643 8.2749 3.9087 13.853 8.2004 20.075 13.689 13.974 12.326 24.113 35.39 24.113 46.356v119.24h59.731v-119.24c-3e-4 -10.966 10.139-34.03 24.113-46.356 6.2222-5.4886 11.8-9.7803 20.075-13.689 4.3126-2.0371 9.8874-4.0636 15.388-5.4643 5.3995-1.3748 10.718-2.1406 12.37-2.1527l0.1503 0.6695 2.0035 68.558c0.4847 4.8999 5.3135 6.0185 8.1218 3.6926l150.83-141.65-197.02-60.967c-2.2121-0.95676-7.6253 0.18722-6.6436 5.8042l29.397 65.149 0.058 0.26263c-3.9447 0.15056-12.416 1.8779-19.89 4.1716-11.233 3.4477-22.407 8.3664-31.153 13.612-15.122 9.0691-26.863 20.036-32.827 26.801-3.2067 3.6376-5.0111 5.8866-5.0111 5.8866v0.0773c-0.055-0.61281-14.547-18.895-37.606-32.724-8.7464-5.2453-19.791-10.205-31.024-13.653-7.6384-2.3443-16.38-4.1173-20.199-4.1973l0.061-0.2678 29.397-65.149c0.7365-4.2126-2.1224-5.9062-4.5319-6.0874z" fill="#fff" style="paint-order:stroke fill markers"/></g></g></svg>