<svg width="600" height="600" version="1.1" viewBox="0 0 600 600" xmlns="http://www.w3.org/2000/svg"><g transform="translate(2204.1 -1526.6)"><g transform="translate(-1904.1 1759.9) scale(-1 1) translate(1795.7)" fill-rule="evenodd"><path d="m-1495.7 66.697a300 300 0 0 1-300 300 300 300 0 0 1-300-300 300 300 0 0 1 300-300 300 300 0 0 1 300 300" fill="#00408c" stroke-width="0" style="paint-order:fill markers stroke"/><path d="m-1795.7-223.22c-160.04 0-289.89 129.85-289.89 289.89 0 160.04 129.85 289.89 289.89 289.89s289.89-129.85 289.89-289.89c0-160.04-129.85-289.89-289.89-289.89zm0 9.979c154.65 0 279.91 125.26 279.91 279.91 0 154.65-125.26 279.91-279.91 279.91s-279.91-125.26-279.91-279.91c0-154.65 125.26-279.91 279.91-279.91z" color="#000000" fill="#fff" style="paint-order:fill markers stroke"/><path d="m-1820.2-148.14c-0.9763 0.0185-2.0088 0.32141-3.0044 0.9499l-191.98 128.56 192.22 129.08c3.5286 2.4245 8.4697-0.12026 7.6094-5.3121l-20.066-88.566 58.242 0.04123h1.0739c28.096 0 50.716 22.165 50.716 50.261v199.12h69.889v-200.2c0-65.991-53.127-119.12-119.12-119.12h-2.6638l-58.237-0.04123 19.999-88.52c0.6613-3.8344-1.7535-6.3147-4.6824-6.2568z" fill="#fff" style="paint-order:stroke fill markers"/></g></g></svg>