<?xml version="1.0" encoding="UTF-8" standalone="no"?>
<svg
   xmlns:dc="http://purl.org/dc/elements/1.1/"
   xmlns:cc="http://creativecommons.org/ns#"
   xmlns:rdf="http://www.w3.org/1999/02/22-rdf-syntax-ns#"
   xmlns:svg="http://www.w3.org/2000/svg"
   xmlns="http://www.w3.org/2000/svg"
   xmlns:sodipodi="http://sodipodi.sourceforge.net/DTD/sodipodi-0.dtd"
   xmlns:inkscape="http://www.inkscape.org/namespaces/inkscape"
   width="600"
   height="600"
   viewBox="0 0 600 600"
   id="svg2"
   version="1.1"
   inkscape:version="1.0 (4035a4fb49, 2020-05-01)"
   sodipodi:docname="tt36_left.svg">
  <defs id="defs4" />
  <sodipodi:namedview
     id="base"
     pagecolor="#ffffff"
     bordercolor="#666666"
     borderopacity="1.0"
     inkscape:pageopacity="0.0"
     inkscape:pageshadow="2"
     inkscape:zoom="0.66749369"
     inkscape:cx="300"
     inkscape:cy="300"
     inkscape:document-units="px"
     inkscape:current-layer="layer1-9"
     showgrid="false"
     inkscape:window-width="1920"
     inkscape:window-height="1001"
     inkscape:window-x="-9"
     inkscape:window-y="-9"
     inkscape:window-maximized="1"
     inkscape:document-rotation="0" />
  <metadata id="metadata7">
    <rdf:RDF>
      <cc:Work rdf:about="">
        <dc:format>image/svg+xml</dc:format>
        <dc:type rdf:resource="http://purl.org/dc/dcmitype/StillImage" />
      </cc:Work>
    </rdf:RDF>
  </metadata>
  <g
     inkscape:label="Livello 1"
     inkscape:groupmode="layer"
     id="layer1"
     transform="translate(2204.0637,-1526.6097)">
    <g
       inkscape:label="Layer 1"
       inkscape:groupmode="layer"
       transform="translate(-108.36693,1759.913) translate(-1795.722, 0) scale(1, 1) translate(1795.722, 0)"
       id="layer1-9">
      <path
         d="m -1495.6968,66.696646 a 299.99992,299.99992 0 0 1 -300.0001,299.999914 299.99992,299.99992 0 0 1 -299.9999,-299.999914 299.99992,299.99992 0 0 1 299.9999,-299.999896 299.99992,299.99992 0 0 1 300.0001,299.999896"
         style="opacity:1;fill:#00408c;fill-opacity:1;fill-rule:evenodd;stroke-width:0;stroke-linecap:square;stroke-linejoin:round;paint-order:fill markers stroke"
         id="path57278" />
      
      <path
         id="path57280"
         d="m -1795.722,-223.21837 c -160.0434,0 -289.8911,129.847957 -289.8911,289.891227 0,160.043443 129.8477,289.891163 289.8911,289.891163 160.0434,0 289.8914,-129.84772 289.8914,-289.891163 0,-160.04327 -129.848,-289.891227 -289.8914,-289.891227 z m 0,9.97898 c 154.6508,0 279.9124,125.261466 279.9124,279.912247 0,154.650773 -125.2616,279.912233 -279.9124,279.912233 -154.6508,0 -279.9122,-125.26146 -279.9122,-279.912233 0,-154.650781 125.2614,-279.912247 279.9122,-279.912247 z"
         style="color:#000000;font-style:normal;font-variant:normal;font-weight:normal;font-stretch:normal;font-size:medium;line-height:normal;font-family:sans-serif;fill:#ffffff;fill-opacity:1;fill-rule:evenodd;stroke:none;stroke-width:16.6299;stroke-linecap:square;stroke-linejoin:round;paint-order:fill markers stroke" />
      
      <path
         sodipodi:nodetypes="scccccccssccsscccss"
         id="rect45018"
         style="opacity:1;fill:#ffffff;fill-opacity:1;fill-rule:evenodd;stroke:none;stroke-width:1.90001;stroke-linecap:square;stroke-linejoin:round;stroke-miterlimit:2;paint-order:stroke fill markers"
         d="m -1820.2302,-148.14431 c -0.9763,0.0185 -2.0088,0.32141 -3.0044,0.9499 l -191.9799,128.564777 192.2225,129.075883 c 3.5286,2.42452 8.4697,-0.12026 7.6094,-5.31211 l -20.0663,-88.566415 58.2422,0.04123 v 0 h 1.0739 c 28.0965,0 50.7156,22.164639 50.7156,50.261289 V 265.98978 h 69.8887 V 65.791285 c 0,-65.99100573 -53.1266,-119.117557 -119.1175,-119.117557 h -2.6638 l -58.2372,-0.04123 19.9992,-88.519928 c 0.6613,-3.8344 -1.7535,-6.31466 -4.6824,-6.25683 z" />
    </g>
  </g>
</svg>
