<svg width="600" height="600" version="1.1" viewBox="0 0 600 600" xmlns="http://www.w3.org/2000/svg"><g transform="translate(1469.8 -1233.3)"><g transform="translate(-1169.8 1759.9) scale(-1 1) translate(1061.4)" fill-rule="evenodd"><path d="m-761.42-226.59a300 300 0 0 1-300 300 300 300 0 0 1-300-300 300 300 0 0 1 300-300 300 300 0 0 1 300 300" fill="#00408c" stroke-width="0" style="paint-order:fill markers stroke"/><path d="m-1061.4-516.51c-160.04 0-289.89 129.85-289.89 289.89 0 160.04 129.85 289.89 289.89 289.89 160.04 0 289.89-129.85 289.89-289.89 0-160.04-129.85-289.89-289.89-289.89zm0 9.979c154.65 0 279.91 125.26 279.91 279.91 0 154.65-125.26 279.91-279.91 279.91-154.65 0-279.91-125.26-279.91-279.91 0-154.65 125.26-279.91 279.91-279.91z" color="#000000" fill="#fff" style="paint-order:fill markers stroke"/><path d="m-1248.3-364.22 49.37-49.537 190.72 190.68 48.417-76.828c3.0617-4.2805 8.3534-2.5874 9.1354 1.6219l44.718 227.18-226.67-44.772c-4.5949-1.0376-5.9196-6.1984-1.6821-9.1912l76.717-48.474z" fill="#fff" style="paint-order:fill markers stroke"/></g></g></svg>