<?xml version="1.0" encoding="UTF-8" standalone="no"?>
<svg
   xmlns:dc="http://purl.org/dc/elements/1.1/"
   xmlns:cc="http://creativecommons.org/ns#"
   xmlns:rdf="http://www.w3.org/1999/02/22-rdf-syntax-ns#"
   xmlns:svg="http://www.w3.org/2000/svg"
   xmlns="http://www.w3.org/2000/svg"
   xmlns:sodipodi="http://sodipodi.sourceforge.net/DTD/sodipodi-0.dtd"
   xmlns:inkscape="http://www.inkscape.org/namespaces/inkscape"
   width="600"
   height="600"
   viewBox="0 0 600 600"
   id="svg2"
   version="1.1"
   inkscape:version="1.0 (4035a4fb49, 2020-05-01)"
   sodipodi:docname="tt36.svg">
  <defs id="defs4" />
  <sodipodi:namedview
     id="base"
     pagecolor="#ffffff"
     bordercolor="#666666"
     borderopacity="1.0"
     inkscape:pageopacity="0.0"
     inkscape:pageshadow="2"
     inkscape:zoom="1.8879573"
     inkscape:cx="300"
     inkscape:cy="300"
     inkscape:document-units="px"
     inkscape:current-layer="layer1-9"
     showgrid="false"
     inkscape:window-width="1920"
     inkscape:window-height="1001"
     inkscape:window-x="-9"
     inkscape:window-y="-9"
     inkscape:window-maximized="1"
     inkscape:document-rotation="0" />
  <metadata id="metadata7">
    <rdf:RDF>
      <cc:Work rdf:about="">
        <dc:format>image/xml</dc:format>
        <dc:type rdf:resource="http://purl.org/dc/dcmitype/StillImage" />
      </cc:Work>
    </rdf:RDF>
  </metadata>
  <g
     inkscape:label="Livello 1"
     inkscape:groupmode="layer"
     id="layer1"
     transform="translate(1469.7862,-1233.3215)">
    <g
       inkscape:label="Layer 1"
       inkscape:groupmode="layer"
       transform="translate(-108.36693,1759.913) translate(-1061.4444, 0) scale(-1, 1) translate(1061.4444, 0)"
       id="layer1-9">
      <path
         d="m -761.41927,-226.59154 a 300.00002,300.00002 0 0 1 -300.00003,300.00002 300.00002,300.00002 0 0 1 -300,-300.00002 300.00002,300.00002 0 0 1 300,-299.99998 300.00002,300.00002 0 0 1 300.00003,299.99998"
         style="opacity:1;fill:#00408c;fill-opacity:1;fill-rule:evenodd;stroke-width:0;stroke-linecap:square;stroke-linejoin:round;paint-order:fill markers stroke"
         id="path45040" />
      
      <path
         id="path45042"
         d="m -1061.4444,-516.50664 c -160.0435,0 -289.8913,129.848 -289.8913,289.89132 0,160.0435 129.8478,289.89126 289.8913,289.89126 160.04346,0 289.89127,-129.84776 289.89127,-289.89126 0,-160.04332 -129.84781,-289.89132 -289.89127,-289.89132 z m 0,9.97898 c 154.65086,0 279.9124,125.26151 279.9124,279.91234 0,154.65082 -125.26154,279.91233 -279.9124,279.91233 -154.6509,0 -279.9124,-125.26151 -279.9124,-279.91233 0,-154.65083 125.2615,-279.91234 279.9124,-279.91234 z"
         style="color:#000000;font-style:normal;font-variant:normal;font-weight:normal;font-stretch:normal;font-size:medium;line-height:normal;font-family:sans-serif;fill:#ffffff;fill-opacity:1;fill-rule:evenodd;stroke:none;stroke-width:16.6299;stroke-linecap:square;stroke-linejoin:round;paint-order:fill markers stroke" />
      
      <path
         id="path45044"
         style="opacity:1;fill:#ffffff;fill-rule:evenodd;stroke:none;stroke-width:0;stroke-linecap:square;stroke-linejoin:round;paint-order:fill markers stroke"
         d="m -1248.2591,-364.22342 49.3695,-49.53731 190.725,190.6755 48.4167,-76.82784 c 3.0617,-4.28051 8.35341,-2.58741 9.13539,1.62187 l 44.71831,227.17772 -226.6742,-44.77173 c -4.5949,-1.03762 -5.9196,-6.19844 -1.6821,-9.19118 l 76.7169,-48.47419 z"
         sodipodi:nodetypes="cccccccccc" />
    </g>
  </g>
</svg>
