<svg width="600" height="600" version="1.1" xmlns="http://www.w3.org/2000/svg"><g transform="translate(738.21 -995.6)"><g transform="translate(-108.37 1759.9)" fill-rule="evenodd"><path d="m-629.84-464.31a300 300 0 0 0 300 300 300 300 0 0 0 300-300 300 300 0 0 0-300-300 300 300 0 0 0-300 300" fill="#00408c" stroke-width="0" style="paint-order:fill markers stroke"/><path d="m-329.82-754.23c160.04 0 289.89 129.85 289.89 289.89 0 160.04-129.85 289.89-289.89 289.89-160.04 0-289.89-129.85-289.89-289.89 0-160.04 129.85-289.89 289.89-289.89zm0 9.979c-154.65 0-279.91 125.26-279.91 279.91 0 154.65 125.26 279.91 279.91 279.91 154.65 0 279.91-125.26 279.91-279.91 0-154.65-125.26-279.91-279.91-279.91z" color="#000000" color-rendering="auto" dominant-baseline="auto" enable-background="accumulate" fill="#fff" image-rendering="auto" shape-rendering="auto" solid-color="#000000" stop-color="#000000" style="font-feature-settings:normal;font-variant-alternates:normal;font-variant-caps:normal;font-variant-east-asian:normal;font-variant-ligatures:normal;font-variant-numeric:normal;font-variant-position:normal;font-variation-settings:normal;inline-size:0;isolation:auto;mix-blend-mode:normal;paint-order:fill markers stroke;shape-margin:0;shape-padding:0;text-decoration-color:#000000;text-decoration-line:none;text-decoration-style:solid;text-indent:0;text-orientation:mixed;text-transform:none;white-space:normal"/><path d="m-392.14-592.04-84.779 135.69-39.164-47.842c-4.4105-4.2104-8.8973 0.0572-8.7806 2.92l-5.0856 176.91 156.76-82.029c3.0608-1.2476 4.0012-7.3245-0.59431-9.1425l-60.695-14.357 84.784-135.69zm124.48 0-42.446 26.461 84.784 135.69-60.695 14.357c-4.5958 1.818-3.6551 7.8949-0.59432 9.1425l156.76 82.029-5.0908-176.91c0.11643-2.863-4.365-7.1304-8.7755-2.92l-39.164 47.842z" fill="#fff" style="paint-order:fill markers stroke"/></g></g></svg>