<?xml version="1.0" encoding="UTF-8" standalone="no"?>
<svg
   xmlns:dc="http://purl.org/dc/elements/1.1/"
   xmlns:cc="http://creativecommons.org/ns#"
   xmlns:rdf="http://www.w3.org/1999/02/22-rdf-syntax-ns#"
   xmlns:svg="http://www.w3.org/2000/svg"
   xmlns="http://www.w3.org/2000/svg"
   xmlns:sodipodi="http://sodipodi.sourceforge.net/DTD/sodipodi-0.dtd"
   xmlns:inkscape="http://www.inkscape.org/namespaces/inkscape"
   sodipodi:docname="tt37.svg"
   inkscape:version="1.0 (4035a4fb49, 2020-05-01)"
   id="svg13091"
   version="1.1"
   viewBox="0 0 158.75006 158.75"
   height="158.75mm"
   width="158.75006mm">
  <defs
     id="defs13085" />
  <sodipodi:namedview
     inkscape:window-maximized="1"
     inkscape:window-y="-9"
     inkscape:window-x="-9"
     inkscape:window-height="1001"
     inkscape:window-width="1920"
     showguides="false"
     showgrid="false"
     inkscape:document-rotation="0"
     inkscape:current-layer="layer1"
     inkscape:document-units="mm"
     inkscape:cy="164.59367"
     inkscape:cx="459.30514"
     inkscape:zoom="0.47199378"
     inkscape:pageshadow="2"
     inkscape:pageopacity="0.0"
     borderopacity="1.0"
     bordercolor="#666666"
     pagecolor="#ffffff"
     id="base" />
  <metadata
     id="metadata13088">
    <rdf:RDF>
      <cc:Work
         rdf:about="">
        <dc:format>image/svg+xml</dc:format>
        <dc:type
           rdf:resource="http://purl.org/dc/dcmitype/StillImage" />
        <dc:title></dc:title>
      </cc:Work>
    </rdf:RDF>
  </metadata>
  <g
     transform="translate(115.41478,93.492135)"
     id="layer1"
     inkscape:groupmode="layer"
     inkscape:label="Layer 1">
    <path
       id="path57278-9"
       style="opacity:1;fill:#00408c;fill-opacity:1;fill-rule:evenodd;stroke-width:0;stroke-linecap:square;stroke-linejoin:round;paint-order:fill markers stroke"
       d="M -115.41478,-14.11714 A 79.375,79.375 0 0 0 -36.039722,65.257866 79.375,79.375 0 0 0 43.335287,-14.11714 79.375,79.375 0 0 0 -36.039722,-93.492135 79.375,79.375 0 0 0 -115.41478,-14.11714" />
    <path
       style="color:#000000;font-style:normal;font-variant:normal;font-weight:normal;font-stretch:normal;font-size:medium;line-height:normal;font-family:sans-serif;font-variant-ligatures:normal;font-variant-position:normal;font-variant-caps:normal;font-variant-numeric:normal;font-variant-alternates:normal;font-variant-east-asian:normal;font-feature-settings:normal;font-variation-settings:normal;text-indent:0;text-align:start;text-decoration:none;text-decoration-line:none;text-decoration-style:solid;text-decoration-color:#000000;letter-spacing:normal;word-spacing:normal;text-transform:none;writing-mode:lr-tb;direction:ltr;text-orientation:mixed;dominant-baseline:auto;baseline-shift:baseline;text-anchor:start;white-space:normal;shape-padding:0;shape-margin:0;inline-size:0;clip-rule:nonzero;display:inline;overflow:visible;visibility:visible;opacity:1;isolation:auto;mix-blend-mode:normal;color-interpolation:sRGB;color-interpolation-filters:linearRGB;solid-color:#000000;solid-opacity:1;vector-effect:none;fill:#ffffff;fill-opacity:1;fill-rule:evenodd;stroke:none;stroke-width:4.39998;stroke-linecap:square;stroke-linejoin:round;stroke-miterlimit:4;stroke-dasharray:none;stroke-dashoffset:0;stroke-opacity:1;paint-order:fill markers stroke;color-rendering:auto;image-rendering:auto;shape-rendering:auto;text-rendering:auto;enable-background:accumulate;stop-color:#000000;stop-opacity:1"
       d="m -36.033082,-90.823832 c 42.3448294,0 76.700378,34.355607 76.700378,76.700404 0,42.344837 -34.3555486,76.700386 -76.700378,76.700386 -42.344818,0 -76.700448,-34.355549 -76.700448,-76.700386 0,-42.344797 34.35563,-76.700404 76.700448,-76.700404 z m 0,2.640257 c -40.918022,0 -74.060158,33.142114 -74.060158,74.060147 0,40.918025 33.142136,74.060126 74.060158,74.060126 40.918047,0 74.060131,-33.142101 74.060131,-74.060126 0,-40.918033 -33.142084,-74.060147 -74.060131,-74.060147 z"
       id="path57280-8" />
    <path
       id="path12393"
       style="opacity:1;fill:#ffffff;fill-rule:evenodd;stroke:none;stroke-width:0.502705;stroke-linecap:square;stroke-linejoin:round;stroke-miterlimit:2;paint-order:stroke fill markers"
       d="m -47.506432,-82.497771 c -0.339563,-0.0085 -0.696333,0.108375 -0.995637,0.40756 l -29.918281,31.99572 c -1.111171,1.124231 -1.80562,1.857518 -1.806652,1.858608 l 0.05875,0.0095 46.695018,5.902689 c 1.056726,-0.183192 1.525011,-1.1183 1.115988,-1.95161 l -5.977915,-12.236193 c 13.833487,-0.745564 27.65843,5.323264 36.3776068,17.143257 l 10.577258,-7.764042 C -3.7090836,-63.94947 -23.872041,-71.903517 -43.474726,-69.335645 l -0.01376,-0.03417 -2.798171,-12.290906 c -0.134099,-0.458087 -0.653875,-0.822366 -1.219816,-0.836985 z m -39.442484,45.997526 c -8.348178,19.10834 -5.096761,40.5373991 6.97082,56.197312 l -0.02382,0.02877 -9.221929,8.594192 c -0.525891,0.553859 -0.349527,1.842795 0.741266,2.132134 l 42.696052,9.794971 c 1.531402,0.396336 2.515074,0.630477 2.515074,0.630477 l -0.02197,-0.05608 -18.353601,-43.3415901 c -0.689275,-0.8216699 -1.733314,-0.7568935 -2.248392,0.015085 L -71.472084,8.8107364 C -79.06587,-2.7761373 -80.763008,-17.778505 -74.922626,-31.255374 Z m 102.311098,0.949134 -0.0383,0.0479 -28.335943,37.5811329 c -0.36638,1.0079642 0.21286,1.8799208 1.139242,1.9392982 L 1.7159553,4.913017 C -4.5144535,17.286505 -16.653406,26.264469 -31.243942,27.953493 l 1.478411,13.037623 C -9.0445085,38.654595 7.880299,25.114235 15.397725,6.8290707 l 0.03689,0.00556 12.055669,3.6816603 c 0.742695,0.178058 1.769754,-0.6190066 1.474298,-1.7081662 L 16.07609,-33.057907 c -0.423344,-1.524172 -0.713908,-2.493201 -0.713908,-2.493204 z" />
  </g>
</svg>
