<svg width="158.75mm" height="158.75mm" version="1.1" viewBox="0 0 158.75 158.75" xmlns="http://www.w3.org/2000/svg"><g transform="translate(115.41 93.492)" fill-rule="evenodd"><path d="m-115.41-14.117a79.375 79.375 0 0 0 79.375 79.375 79.375 79.375 0 0 0 79.375-79.375 79.375 79.375 0 0 0-79.375-79.375 79.375 79.375 0 0 0-79.375 79.375" fill="#00408c" stroke-width="0" style="paint-order:fill markers stroke"/><path d="m-36.033-90.824c42.345 0 76.7 34.356 76.7 76.7 0 42.345-34.356 76.7-76.7 76.7-42.345 0-76.7-34.356-76.7-76.7 0-42.345 34.356-76.7 76.7-76.7zm0 2.6403c-40.918 0-74.06 33.142-74.06 74.06 0 40.918 33.142 74.06 74.06 74.06 40.918 0 74.06-33.142 74.06-74.06 0-40.918-33.142-74.06-74.06-74.06z" color="#000000" color-rendering="auto" dominant-baseline="auto" enable-background="accumulate" fill="#fff" image-rendering="auto" shape-rendering="auto" solid-color="#000000" stop-color="#000000" style="font-feature-settings:normal;font-variant-alternates:normal;font-variant-caps:normal;font-variant-east-asian:normal;font-variant-ligatures:normal;font-variant-numeric:normal;font-variant-position:normal;font-variation-settings:normal;inline-size:0;isolation:auto;mix-blend-mode:normal;paint-order:fill markers stroke;shape-margin:0;shape-padding:0;text-decoration-color:#000000;text-decoration-line:none;text-decoration-style:solid;text-indent:0;text-orientation:mixed;text-transform:none;white-space:normal"/><path d="m-47.506-82.498c-0.33956-0.0085-0.69633 0.10838-0.99564 0.40756l-29.918 31.996c-1.1112 1.1242-1.8056 1.8575-1.8067 1.8586l0.05875 0.0095 46.695 5.9027c1.0567-0.18319 1.525-1.1183 1.116-1.9516l-5.9779-12.236c13.833-0.74556 27.658 5.3233 36.378 17.143l10.577-7.764c-12.329-16.817-32.492-24.771-52.094-22.203l-0.01376-0.03417-2.7982-12.291c-0.1341-0.45809-0.65388-0.82237-1.2198-0.83698zm-39.442 45.998c-8.3482 19.108-5.0968 40.537 6.9708 56.197l-0.02382 0.02877-9.2219 8.5942c-0.52589 0.55386-0.34953 1.8428 0.74127 2.1321l42.696 9.795c1.5314 0.39634 2.5151 0.63048 2.5151 0.63048l-0.02197-0.05608-18.354-43.342c-0.68928-0.82167-1.7333-0.75689-2.2484 0.015085l-7.5767 11.316c-7.5938-11.587-9.2909-26.589-3.4505-40.066zm102.31 0.94913-0.0383 0.0479-28.336 37.581c-0.36638 1.008 0.21286 1.8799 1.1392 1.9393l13.589 0.8958c-6.2304 12.373-18.369 21.351-32.96 23.04l1.4784 13.038c20.721-2.3365 37.646-15.877 45.163-34.162l0.03689 0.00556 12.056 3.6817c0.7427 0.17806 1.7698-0.61901 1.4743-1.7082l-12.888-41.866c-0.42334-1.5242-0.71391-2.4932-0.71391-2.4932z" fill="#fff" style="paint-order:stroke fill markers"/></g></svg>