<svg width="158.75mm" height="158.75mm" version="1.1" viewBox="0 0 158.75 158.75" xmlns="http://www.w3.org/2000/svg"><g transform="translate(-91.152 108.35)" fill-rule="evenodd"><path d="m91.152-28.974a79.375 79.375 0 0 0 79.375 79.375 79.375 79.375 0 0 0 79.375-79.375 79.375 79.375 0 0 0-79.375-79.375 79.375 79.375 0 0 0-79.375 79.375" fill="#00408c" stroke-width="0" style="paint-order:fill markers stroke"/><path d="m170.53-105.68c42.345 0 76.7 34.356 76.7 76.7 0 42.345-34.356 76.7-76.7 76.7s-76.7-34.356-76.7-76.7c0-42.345 34.356-76.7 76.7-76.7zm0 2.6403c-40.918 0-74.06 33.142-74.06 74.06 0 40.918 33.142 74.06 74.06 74.06 40.918 0 74.06-33.142 74.06-74.06 0-40.918-33.142-74.06-74.06-74.06z" color="#000000" color-rendering="auto" dominant-baseline="auto" enable-background="accumulate" fill="#fff" image-rendering="auto" shape-rendering="auto" solid-color="#000000" stop-color="#000000" style="font-feature-settings:normal;font-variant-alternates:normal;font-variant-caps:normal;font-variant-east-asian:normal;font-variant-ligatures:normal;font-variant-numeric:normal;font-variant-position:normal;font-variation-settings:normal;inline-size:0;isolation:auto;mix-blend-mode:normal;paint-order:fill markers stroke;shape-margin:0;shape-padding:0;text-decoration-color:#000000;text-decoration-line:none;text-decoration-style:solid;text-indent:0;text-orientation:mixed;text-transform:none;white-space:normal"/><path d="m149.61-62.12c-0.36297 0-0.69792 0.10636-0.98395 0.28421-0.58338 0.19486-1.0486 0.51595-1.4376 1.0514-0.68817 0.94735-1.1318 2.2237-0.70876 3.4036l1.5305 6.0438-8.0936 14.649a21.378 21.378 0 0 0-8.7478-1.8731 21.378 21.378 0 0 0-0.15826 0 21.378 21.378 0 0 0-21.22 21.377 21.378 21.378 0 0 0 21.378 21.378 21.378 21.378 0 0 0 21.377-21.378 21.378 21.378 0 0 0-9.1997-17.568l3.0629-5.3277-3e-3 0.01323 23.472 19.89 0.086 0.08403c-0.82265 1.3984-1.1572 3.0231-0.95476 4.4678 0.43993 3.1361 3.6193 5.274 4.6535 5.2511l16.091-1.5214a21.378 21.378 0 0 0 20.713 16.091 21.378 21.378 0 0 0 21.376-21.378 21.378 21.378 0 0 0-21.376-21.377 21.378 21.378 0 0 0-0.15827 0 21.378 21.378 0 0 0-8.9372 2.0316l-6.2661-9.8064-0.0159 0.01323 1.802-3.3271 4.2181 1.2809c0.19584 0.05947 0.7572-0.09866 1.1242-0.43199 0.35723-0.32422 0.51761-0.78138 0.52113-1.157v-5.1856l-2.0753-1.0076h-14.015c-0.88762 0-1.6016 0.7139-1.6016 1.6016v0.11653c0 0.88778 0.75231 1.4164 1.6016 1.6745l6.359 1.9332-8e-3 0.0074-2.0845 3.9193h-40.605l2.2739-3.9557-2.2393-6.5303c-0.0474-0.17107-0.12942-0.42454-0.0733-0.6341 0.0529-0.19666 0.29736-0.32423 0.48281-0.37351h12.181c1.0337 0 1.8658-0.83211 1.8658-1.8658 0-1.0336-0.8321-1.8658-1.8658-1.8658zm-0.85459 19.217h40.049l-10.42 19.591-2.3869-0.1861c-1.2282 0.0029-2.3046 0.27846-3.2233 0.73976l-0.0603-0.06897zm44.231 0.46463 5.089 7.8331a21.378 21.378 0 0 0-8.3341 12.175l-7.281-0.5648 0.0672-0.13103zm-61.837 7.8039a17.465 17.465 0 0 1 6.8582 1.403l-6.964 12.609-5e-3 0.03957a3.4764 3.4764 0 0 0-2.9572 3.4364 3.4764 3.4764 0 0 0 3.4765 3.4765 3.4764 3.4764 0 0 0 3.4764-3.4765 3.4764 3.4764 0 0 0-0.65046-2.0225h5e-3l6.9877-12.157a17.465 17.465 0 0 1 7.239 14.158 17.465 17.465 0 0 1-17.466 17.466 17.465 17.465 0 0 1-17.464-17.466 17.465 17.465 0 0 1 17.464-17.465zm79.284 0a17.465 17.465 0 0 1 0.0132 0 17.465 17.465 0 0 1 17.466 17.465 17.465 17.465 0 0 1-17.466 17.466 17.465 17.465 0 0 1-16.763-12.565l17.729-1.6763c3.4272-0.47409 4.3924-5.8642 0.0132-6.8l-0.0603-0.0064 0.0765-0.01667-7.9406-12.428a17.465 17.465 0 0 1 6.9311-1.4394zm-10.222 3.3143 6.6086 10.173 0.0394 0.04756-13.159-1.0222a17.465 17.465 0 0 1 6.5121-9.1978z" fill="#fff" style="paint-order:stroke fill markers"/></g></svg>