<?xml version="1.0" encoding="UTF-8" standalone="no"?>
<svg
   xmlns:dc="http://purl.org/dc/elements/1.1/"
   xmlns:cc="http://creativecommons.org/ns#"
   xmlns:rdf="http://www.w3.org/1999/02/22-rdf-syntax-ns#"
   xmlns:svg="http://www.w3.org/2000/svg"
   xmlns="http://www.w3.org/2000/svg"
   xmlns:sodipodi="http://sodipodi.sourceforge.net/DTD/sodipodi-0.dtd"
   xmlns:inkscape="http://www.inkscape.org/namespaces/inkscape"
   sodipodi:docname="tt37.svg"
   inkscape:version="1.0 (4035a4fb49, 2020-05-01)"
   id="svg13091"
   version="1.1"
   viewBox="0 0 158.75003 158.75"
   height="158.75mm"
   width="158.75003mm">
  <defs
     id="defs13085" />
  <sodipodi:namedview
     inkscape:window-maximized="1"
     inkscape:window-y="-9"
     inkscape:window-x="-9"
     inkscape:window-height="1001"
     inkscape:window-width="1920"
     showguides="false"
     showgrid="false"
     inkscape:document-rotation="0"
     inkscape:current-layer="layer1"
     inkscape:document-units="mm"
     inkscape:cy="220.74564"
     inkscape:cx="-321.4183"
     inkscape:zoom="0.47199378"
     inkscape:pageshadow="2"
     inkscape:pageopacity="0.0"
     borderopacity="1.0"
     bordercolor="#666666"
     pagecolor="#ffffff"
     id="base" />
  <metadata
     id="metadata13088">
    <rdf:RDF>
      <cc:Work
         rdf:about="">
        <dc:format>image/svg+xml</dc:format>
        <dc:type
           rdf:resource="http://purl.org/dc/dcmitype/StillImage" />
        <dc:title></dc:title>
      </cc:Work>
    </rdf:RDF>
  </metadata>
  <g
     transform="translate(-91.151632,108.34901)"
     id="layer1"
     inkscape:groupmode="layer"
     inkscape:label="Layer 1">
    <path
       d="m 91.151632,-28.974016 a 79.374997,79.374997 0 0 0 79.375028,79.375009 79.374997,79.374997 0 0 0 79.375,-79.375009 79.374997,79.374997 0 0 0 -79.375,-79.374994 79.374997,79.374997 0 0 0 -79.375028,79.374994"
       style="opacity:1;fill:#00408c;fill-opacity:1;fill-rule:evenodd;stroke-width:0;stroke-linecap:square;stroke-linejoin:round;paint-order:fill markers stroke"
       id="path13683" />
    <path
       id="path13685"
       d="m 170.5333,-105.68071 c 42.34483,0 76.70037,34.35561 76.70037,76.700405 0,42.344838 -34.35554,76.700388 -76.70037,76.700388 -42.34483,0 -76.700448,-34.35555 -76.700448,-76.700388 0,-42.344795 34.355618,-76.700405 76.700448,-76.700405 z m 0,2.64026 c -40.918,0 -74.060138,33.142114 -74.060138,74.060145 0,40.918028 33.142138,74.060128 74.060138,74.060128 40.91806,0 74.06012,-33.1421 74.06012,-74.060128 0,-40.918031 -33.14206,-74.060145 -74.06012,-74.060145 z"
       style="color:#000000;font-style:normal;font-variant:normal;font-weight:normal;font-stretch:normal;font-size:medium;line-height:normal;font-family:sans-serif;font-variant-ligatures:normal;font-variant-position:normal;font-variant-caps:normal;font-variant-numeric:normal;font-variant-alternates:normal;font-variant-east-asian:normal;font-feature-settings:normal;font-variation-settings:normal;text-indent:0;text-align:start;text-decoration:none;text-decoration-line:none;text-decoration-style:solid;text-decoration-color:#000000;letter-spacing:normal;word-spacing:normal;text-transform:none;writing-mode:lr-tb;direction:ltr;text-orientation:mixed;dominant-baseline:auto;baseline-shift:baseline;text-anchor:start;white-space:normal;shape-padding:0;shape-margin:0;inline-size:0;clip-rule:nonzero;display:inline;overflow:visible;visibility:visible;opacity:1;isolation:auto;mix-blend-mode:normal;color-interpolation:sRGB;color-interpolation-filters:linearRGB;solid-color:#000000;solid-opacity:1;vector-effect:none;fill:#ffffff;fill-opacity:1;fill-rule:evenodd;stroke:none;stroke-width:4.39998;stroke-linecap:square;stroke-linejoin:round;stroke-miterlimit:4;stroke-dasharray:none;stroke-dashoffset:0;stroke-opacity:1;paint-order:fill markers stroke;color-rendering:auto;image-rendering:auto;shape-rendering:auto;text-rendering:auto;enable-background:accumulate;stop-color:#000000;stop-opacity:1" />
    <path
       id="path50455"
       style="font-size:24.9647px;line-height:97.02%;font-family:BywayEMod;-inkscape-font-specification:BywayEMod;text-align:center;text-anchor:middle;opacity:1;fill:#ffffff;fill-opacity:1;fill-rule:evenodd;stroke:none;stroke-width:8.99708;stroke-linecap:square;stroke-linejoin:round;paint-order:stroke fill markers"
       d="m 149.60589,-62.119739 c -0.36297,0 -0.69792,0.106364 -0.98395,0.284208 -0.58338,0.194864 -1.04861,0.515946 -1.4376,1.051357 -0.68817,0.947351 -1.13178,2.223689 -0.70876,3.403598 l 1.53051,6.043788 -8.09363,14.649456 a 21.377837,21.377837 0 0 0 -8.74776,-1.873096 21.377837,21.377837 0 0 0 -0.15826,0 21.377837,21.377837 0 0 0 -21.21977,21.376517 21.377837,21.377837 0 0 0 21.37833,21.3783139 21.377837,21.377837 0 0 0 21.37652,-21.3783139 21.377837,21.377837 0 0 0 -9.19967,-17.568405 l 3.06291,-5.327734 -0.003,0.01323 23.47184,19.889695 0.086,0.08403 c -0.82265,1.398414 -1.15725,3.023138 -0.95476,4.467761 0.43993,3.136121 3.61931,5.274046 4.65354,5.251148 l 16.0907,-1.521395 a 21.377837,21.377837 0 0 0 20.71326,16.0906639 21.377837,21.377837 0 0 0 21.3765,-21.3783169 21.377837,21.377837 0 0 0 -21.3765,-21.376511 21.377837,21.377837 0 0 0 -0.15827,0 21.377837,21.377837 0 0 0 -8.93721,2.031623 l -6.26608,-9.806372 -0.0159,0.01323 1.80205,-3.327105 4.21809,1.280919 c 0.19584,0.05947 0.7572,-0.09866 1.12416,-0.431992 0.35723,-0.324216 0.51761,-0.78138 0.52113,-1.157028 v -5.185597 l -2.07533,-1.007573 h -14.01534 c -0.88762,0 -1.60163,0.713896 -1.60163,1.601559 v 0.116527 c 0,0.887777 0.75231,1.416448 1.60163,1.674468 l 6.35902,1.933214 -0.008,0.0074 -2.08448,3.919311 h -40.60455 l 2.27394,-3.955714 -2.2393,-6.530286 c -0.0474,-0.171072 -0.12942,-0.424535 -0.0733,-0.6341 0.0529,-0.196664 0.29736,-0.324232 0.48281,-0.37351 h 12.18053 c 1.03368,0 1.86578,-0.832113 1.86578,-1.865786 0,-1.03363 -0.8321,-1.865788 -1.86578,-1.865788 z m -0.85459,19.217353 h 40.04904 l -10.42038,19.590873 -2.3869,-0.186103 c -1.22817,0.0029 -2.30465,0.278464 -3.22326,0.739759 l -0.0603,-0.06897 z m 44.23074,0.464632 5.08901,7.833072 a 21.377837,21.377837 0 0 0 -8.33413,12.175026 l -7.28102,-0.5648 0.0672,-0.13103 z m -61.83734,7.803907 a 17.46526,17.46526 0 0 1 6.85823,1.403003 l -6.96396,12.608679 -0.005,0.03957 a 3.4763645,3.4763645 0 0 0 -2.95715,3.436425 3.4763645,3.4763645 0 0 0 3.4765,3.476523 3.4763645,3.4763645 0 0 0 3.47645,-3.476523 3.4763645,3.4763645 0 0 0 -0.65046,-2.022479 h 0.005 l 6.98773,-12.156863 a 17.46526,17.46526 0 0 1 7.23905,14.157516 17.46526,17.46526 0 0 1 -17.46634,17.46633891 17.46526,17.46526 0 0 1 -17.46448,-17.46633891 17.46526,17.46526 0 0 1 17.46448,-17.464526 z m 79.28359,0 a 17.46526,17.46526 0 0 1 0.0132,0 17.46526,17.46526 0 0 1 17.46634,17.46455 A 17.46526,17.46526 0 0 1 210.44149,0.29702291 17.46526,17.46526 0 0 1 193.67847,-12.267961 l 17.72874,-1.676307 c 3.4272,-0.474091 4.39242,-5.864156 0.0132,-6.79996 l -0.0603,-0.0064 0.0765,-0.01667 -7.94061,-12.428339 a 17.46526,17.46526 0 0 1 6.93114,-1.439443 z m -10.22176,3.314344 6.60862,10.172616 0.0394,0.04756 -13.15903,-1.022157 a 17.46526,17.46526 0 0 1 6.51209,-9.197838 z" />
  </g>
</svg>
