<svg width="158.75mm" height="158.75mm" version="1.1" viewBox="0 0 158.75 158.75" xmlns="http://www.w3.org/2000/svg"><g transform="translate(-61.988 -36.286)" fill-rule="evenodd"><path d="m61.988 115.66a79.375 79.375 0 0 0 79.375 79.375 79.375 79.375 0 0 0 79.375-79.375 79.375 79.375 0 0 0-79.375-79.375 79.375 79.375 0 0 0-79.375 79.375" fill="#00408c" stroke-width="0" style="paint-order:fill markers stroke"/><path d="m141.37 38.954c42.345 0 76.7 34.356 76.7 76.7 0 42.345-34.356 76.7-76.7 76.7-42.345 0-76.7-34.355-76.7-76.7 0-42.345 34.356-76.7 76.7-76.7zm0 2.6403c-40.918 0-74.06 33.142-74.06 74.06 0 40.918 33.142 74.06 74.06 74.06 40.918 0 74.06-33.142 74.06-74.06 0-40.918-33.142-74.06-74.06-74.06z" color="#000000" color-rendering="auto" dominant-baseline="auto" enable-background="accumulate" fill="#fff" image-rendering="auto" shape-rendering="auto" solid-color="#000000" stop-color="#000000" style="font-feature-settings:normal;font-variant-alternates:normal;font-variant-caps:normal;font-variant-east-asian:normal;font-variant-ligatures:normal;font-variant-numeric:normal;font-variant-position:normal;font-variation-settings:normal;inline-size:0;isolation:auto;mix-blend-mode:normal;paint-order:stroke markers fill;shape-margin:0;shape-padding:0;text-decoration-color:#000000;text-decoration-line:none;text-decoration-style:solid;text-indent:0;text-orientation:mixed;text-transform:none;white-space:normal"/><path d="m120.44 82.515c-0.36301 0-0.69797 0.10583-0.98398 0.28416-0.58341 0.19579-1.0486 0.51594-1.4375 1.0515-0.68819 0.94721-1.1319 2.2236-0.70882 3.4036l1.5306 6.0437-8.0936 14.65a21.378 21.378 0 0 0-8.7479-1.8732 21.378 21.378 0 0 0-0.15875 0 21.378 21.378 0 0 0-21.22 21.377 21.378 21.378 0 0 0 21.378 21.378 21.378 21.378 0 0 0 21.377-21.378 21.378 21.378 0 0 0-9.1997-17.568l3.0628-5.3278-3e-3 0.0132 23.472 19.89 0.0847 0.0847c-0.82259 1.3983-1.1573 3.0231-0.95489 4.4677 0.44001 3.1362 3.6193 5.2741 4.6536 5.2512l16.091-1.5214a21.378 21.378 0 0 0 20.713 16.091 21.378 21.378 0 0 0 21.377-21.378 21.378 21.378 0 0 0-21.377-21.377 21.378 21.378 0 0 0-0.15875 0 21.378 21.378 0 0 0-8.9372 2.0317l-6.2661-9.8064-0.0159 0.01323 1.8021-3.327 4.218 1.2808c0.19579 0.05821 0.75723-0.0979 1.1242-0.43206 0.35719-0.32412 0.51753-0.78132 0.52097-1.157v-5.1856l-2.0751-1.0075h-14.015c-0.88768 0-1.6018 0.71385-1.6018 1.6015v0.11642c0 0.88768 0.75221 1.4163 1.6018 1.6743l6.359 1.9333-8e-3 0.0074-2.0847 3.9193h-40.603l2.2741-3.9557-2.2394-6.5303c-0.0476-0.17198-0.12965-0.42466-0.0741-0.63421 0.0529-0.19579 0.29739-0.32411 0.48286-0.37333h12.18c1.0337 0 1.8658-0.83211 1.8658-1.8658s-0.83211-1.8658-1.8658-1.8658zm-0.8546 19.217h40.049l-10.42 19.591-2.3868-0.18521c-1.2282 3e-3 -2.3045 0.2786-3.2232 0.73977l-0.0609-0.0688zm44.231 0.46461 5.089 7.8331a21.378 21.378 0 0 0-8.3342 12.175l-7.281-0.56462 0.0661-0.13229zm-61.837 7.8039a17.465 17.465 0 0 1 6.8583 1.4031l-6.964 12.609-5e-3 0.0397a3.4764 3.4764 0 0 0-2.9571 3.4364 3.4764 3.4764 0 0 0 3.4764 3.4765 3.4764 3.4764 0 0 0 3.4765-3.4765 3.4764 3.4764 0 0 0-0.65035-2.0225h5e-3l6.9877-12.157a17.465 17.465 0 0 1 7.2391 14.158 17.465 17.465 0 0 1-17.466 17.466 17.465 17.465 0 0 1-17.465-17.466 17.465 17.465 0 0 1 17.465-17.464zm79.284 0a17.465 17.465 0 0 1 0.0132 0 17.465 17.465 0 0 1 17.466 17.464 17.465 17.465 0 0 1-17.466 17.466 17.465 17.465 0 0 1-16.763-12.565l17.729-1.6761c3.4272-0.47414 4.3924-5.8642 0.0132-6.8l-0.0609-6e-3 0.0767-0.0167-7.9406-12.428a17.465 17.465 0 0 1 6.9311-1.4393zm-10.222 3.3143 6.6086 10.173 0.0397 0.0476-13.159-1.0221a17.465 17.465 0 0 1 6.5121-9.1979z" fill="#fff" style="paint-order:stroke fill markers"/><path d="m187.37 57.687-103.97 103.97a73.986 74.037 0 0 0 15.394 14.54l103.11-103.11c3e-5 -0.0048-3e-5 -0.0085 0-0.01244a73.986 74.037 0 0 0-14.48-15.378c-0.0185-0.0026-0.0344-0.0079-0.0529-0.01058z" fill="#ee252c" style="paint-order:stroke markers fill"/></g></svg>