<?xml version="1.0" encoding="UTF-8" standalone="no"?>
<svg
   xmlns:dc="http://purl.org/dc/elements/1.1/"
   xmlns:cc="http://creativecommons.org/ns#"
   xmlns:rdf="http://www.w3.org/1999/02/22-rdf-syntax-ns#"
   xmlns:svg="http://www.w3.org/2000/svg"
   xmlns="http://www.w3.org/2000/svg"
   xmlns:sodipodi="http://sodipodi.sourceforge.net/DTD/sodipodi-0.dtd"
   xmlns:inkscape="http://www.inkscape.org/namespaces/inkscape"
   sodipodi:docname="tt38.svg"
   inkscape:version="1.0 (4035a4fb49, 2020-05-01)"
   id="svg26953"
   version="1.1"
   viewBox="0 0 158.75 158.74968"
   height="158.74968mm"
   width="158.75mm">
  <defs
     id="defs26947" />
  <sodipodi:namedview
     inkscape:window-maximized="0"
     inkscape:window-y="0"
     inkscape:window-x="64"
     inkscape:window-height="1030"
     inkscape:window-width="1424"
     showgrid="false"
     inkscape:document-rotation="0"
     inkscape:current-layer="layer1"
     inkscape:document-units="mm"
     inkscape:cy="269.58858"
     inkscape:cx="276.58509"
     inkscape:zoom="0.98994949"
     inkscape:pageshadow="2"
     inkscape:pageopacity="0.0"
     borderopacity="1.0"
     bordercolor="#666666"
     pagecolor="#ffffff"
     id="base" />
  <metadata
     id="metadata26950">
    <rdf:RDF>
      <cc:Work
         rdf:about="">
        <dc:format>image/svg+xml</dc:format>
        <dc:type
           rdf:resource="http://purl.org/dc/dcmitype/StillImage" />
        <dc:title></dc:title>
      </cc:Work>
    </rdf:RDF>
  </metadata>
  <g
     transform="translate(-61.988095,-36.285874)"
     id="layer1"
     inkscape:groupmode="layer"
     inkscape:label="Layer 1">
    <path
       d="M 61.988095,115.6608 A 79.374968,79.374844 0 0 0 141.36304,195.03555 79.374968,79.374844 0 0 0 220.7381,115.6608 79.374968,79.374844 0 0 0 141.36304,36.285874 79.374968,79.374844 0 0 0 61.988095,115.6608"
       style="opacity:1;fill:#00408c;fill-opacity:1;fill-rule:evenodd;stroke-width:0;stroke-linecap:square;stroke-linejoin:round;paint-order:fill markers stroke"
       id="path13683-3" />
    <path
       id="path13685-3"
       d="m 141.36968,38.954197 c 42.34488,0 76.70044,34.355564 76.70044,76.700303 0,42.34468 -34.35556,76.70014 -76.70044,76.70014 -42.344707,0 -76.700351,-34.35546 -76.700351,-76.70014 0,-42.344739 34.355644,-76.700303 76.700351,-76.700303 z m 0,2.640277 c -40.91789,0 -74.060047,33.142052 -74.060047,74.060026 0,40.91786 33.142157,74.05988 74.060047,74.05988 40.91811,0 74.06016,-33.14202 74.06016,-74.05988 0,-40.917974 -33.14205,-74.060026 -74.06016,-74.060026 z"
       style="color:#000000;font-style:normal;font-variant:normal;font-weight:normal;font-stretch:normal;font-size:medium;line-height:normal;font-family:sans-serif;font-variant-ligatures:normal;font-variant-position:normal;font-variant-caps:normal;font-variant-numeric:normal;font-variant-alternates:normal;font-variant-east-asian:normal;font-feature-settings:normal;font-variation-settings:normal;text-indent:0;text-align:start;text-decoration:none;text-decoration-line:none;text-decoration-style:solid;text-decoration-color:#000000;letter-spacing:normal;word-spacing:normal;text-transform:none;writing-mode:lr-tb;direction:ltr;text-orientation:mixed;dominant-baseline:auto;baseline-shift:baseline;text-anchor:start;white-space:normal;shape-padding:0;shape-margin:0;inline-size:0;clip-rule:nonzero;display:inline;overflow:visible;visibility:visible;opacity:1;isolation:auto;mix-blend-mode:normal;color-interpolation:sRGB;color-interpolation-filters:linearRGB;solid-color:#000000;solid-opacity:1;vector-effect:none;fill:#ffffff;fill-opacity:1;fill-rule:evenodd;stroke:none;stroke-width:0.264583;stroke-linecap:square;stroke-linejoin:round;stroke-miterlimit:4;stroke-dasharray:none;stroke-dashoffset:0;stroke-opacity:1;paint-order:stroke markers fill;color-rendering:auto;image-rendering:auto;shape-rendering:auto;text-rendering:auto;enable-background:accumulate;stop-color:#000000;stop-opacity:1" />
    <path
       id="path50455-7"
       style="font-size:24.9647px;line-height:97.02%;font-family:BywayEMod;-inkscape-font-specification:BywayEMod;text-align:center;text-anchor:middle;opacity:1;fill:#ffffff;fill-opacity:1;fill-rule:evenodd;stroke:none;stroke-width:8.99708;stroke-linecap:square;stroke-linejoin:round;paint-order:stroke fill markers"
       d="m 120.44233,82.515144 c -0.36301,0 -0.69797,0.105833 -0.98398,0.284162 -0.58341,0.195792 -1.04855,0.515938 -1.43748,1.051455 -0.68819,0.947208 -1.13189,2.223558 -0.70882,3.403573 l 1.53061,6.043719 -8.09355,14.649527 a 21.377832,21.377798 0 0 0 -8.74787,-1.87325 21.377832,21.377798 0 0 0 -0.15875,0 21.377832,21.377798 0 0 0 -21.219791,21.37651 21.377832,21.377798 0 0 0 21.378311,21.37825 21.377832,21.377798 0 0 0 21.37661,-21.37825 21.377832,21.377798 0 0 0 -9.19969,-17.56836 l 3.06281,-5.32776 -0.003,0.0132 23.47188,19.88971 0.0847,0.0847 c -0.82259,1.39833 -1.15729,3.02311 -0.95489,4.4677 0.44001,3.13619 3.61932,5.27408 4.65355,5.25116 l 16.09059,-1.52136 a 21.377832,21.377798 0 0 0 20.71326,16.09061 21.377832,21.377798 0 0 0 21.37651,-21.37822 21.377832,21.377798 0 0 0 -21.37651,-21.37651 21.377832,21.377798 0 0 0 -0.15875,0 21.377832,21.377798 0 0 0 -8.9372,2.03173 l -6.26613,-9.806381 -0.0159,0.01323 1.80207,-3.32703 4.21802,1.280848 c 0.19579,0.05821 0.75723,-0.0979 1.12421,-0.432064 0.35719,-0.324115 0.51753,-0.781315 0.52097,-1.157023 v -5.185623 l -2.0751,-1.007533 h -14.01528 c -0.88768,0 -1.60179,0.713846 -1.60179,1.601523 v 0.116416 c 0,0.887677 0.75221,1.416315 1.60179,1.674284 l 6.359,1.93331 -0.008,0.0074 -2.08466,3.919326 h -40.60276 l 2.27409,-3.955732 -2.23943,-6.530287 c -0.0476,-0.171979 -0.12965,-0.424657 -0.0741,-0.634207 0.0529,-0.195791 0.29739,-0.324114 0.48286,-0.373327 h 12.18049 c 1.03373,0 1.86584,-0.832114 1.86584,-1.865841 0,-1.033727 -0.83211,-1.865842 -1.86584,-1.865842 z m -0.8546,19.217246 h 40.04897 l -10.42037,19.59081 -2.38681,-0.18521 c -1.2282,0.003 -2.30452,0.2786 -3.22321,0.73977 l -0.0609,-0.0688 z m 44.23069,0.46461 5.08902,7.83306 a 21.377832,21.377798 0 0 0 -8.33419,12.17494 l -7.28097,-0.56462 0.0661,-0.13229 z m -61.83734,7.80391 a 17.465248,17.46522 0 0 1 6.85827,1.40308 l -6.96397,12.60864 -0.005,0.0397 a 3.4763628,3.4763572 0 0 0 -2.95714,3.43644 3.4763628,3.4763572 0 0 0 3.47644,3.47649 3.4763628,3.4763572 0 0 0 3.47647,-3.47649 3.4763628,3.4763572 0 0 0 -0.65035,-2.02248 h 0.005 l 6.98767,-12.15692 a 17.465248,17.46522 0 0 1 7.23911,14.15751 17.465248,17.46522 0 0 1 -17.46639,17.46631 17.465248,17.46522 0 0 1 -17.464513,-17.46631 17.465248,17.46522 0 0 1 17.464513,-17.46445 z m 79.28357,0 a 17.465248,17.46522 0 0 1 0.0132,0 17.465248,17.46522 0 0 1 17.46636,17.46448 17.465248,17.46522 0 0 1 -17.46636,17.46628 17.465248,17.46522 0 0 1 -16.763,-12.56498 l 17.72873,-1.67613 c 3.42725,-0.47414 4.39245,-5.86423 0.0132,-6.80003 l -0.0609,-0.006 0.0767,-0.0167 -7.94057,-12.42828 a 17.465248,17.46522 0 0 1 6.93111,-1.43933 z m -10.22176,3.31427 6.60863,10.1726 0.0397,0.0476 -13.15902,-1.02209 a 17.465248,17.46522 0 0 1 6.51206,-9.19787 z" />
    <path
       d="M 187.37425,57.686829 83.408576,161.65389 a 73.986028,74.037105 0 0 0 15.393512,14.54029 L 201.90773,73.088543 c 3e-5,-0.0048 -3e-5,-0.0085 0,-0.01244 A 73.986028,74.037105 0 0 0 187.42761,57.697624 c -0.0185,-0.0026 -0.0344,-0.0079 -0.0529,-0.01058 z"
       style="opacity:1;fill:#ee252c;fill-rule:evenodd;stroke:none;stroke-width:0.264583;stroke-linecap:square;stroke-linejoin:round;stroke-miterlimit:4;stroke-dasharray:none;stroke-opacity:1;paint-order:stroke markers fill;fill-opacity:1"
       id="path26895" />
  </g>
</svg>
