<?xml version="1.0" encoding="UTF-8" standalone="no"?>
<svg
   xmlns:dc="http://purl.org/dc/elements/1.1/"
   xmlns:cc="http://creativecommons.org/ns#"
   xmlns:rdf="http://www.w3.org/1999/02/22-rdf-syntax-ns#"
   xmlns:svg="http://www.w3.org/2000/svg"
   xmlns="http://www.w3.org/2000/svg"
   xmlns:sodipodi="http://sodipodi.sourceforge.net/DTD/sodipodi-0.dtd"
   xmlns:inkscape="http://www.inkscape.org/namespaces/inkscape"
   sodipodi:docname="tt37.svg"
   inkscape:version="1.0 (4035a4fb49, 2020-05-01)"
   id="svg13091"
   version="1.1"
   viewBox="0 0 158.75 158.74998"
   height="158.74998mm"
   width="158.75mm">
  <defs
     id="defs13085" />
  <sodipodi:namedview
     inkscape:window-maximized="1"
     inkscape:window-y="-9"
     inkscape:window-x="-9"
     inkscape:window-height="1001"
     inkscape:window-width="1920"
     showguides="false"
     showgrid="false"
     inkscape:document-rotation="0"
     inkscape:current-layer="layer1"
     inkscape:document-units="mm"
     inkscape:cy="3.0700367"
     inkscape:cx="503.24996"
     inkscape:zoom="0.6675"
     inkscape:pageshadow="2"
     inkscape:pageopacity="0.0"
     borderopacity="1.0"
     bordercolor="#666666"
     pagecolor="#ffffff"
     id="base" />
  <metadata
     id="metadata13088">
    <rdf:RDF>
      <cc:Work
         rdf:about="">
        <dc:format>image/svg+xml</dc:format>
        <dc:type
           rdf:resource="http://purl.org/dc/dcmitype/StillImage" />
        <dc:title></dc:title>
      </cc:Work>
    </rdf:RDF>
  </metadata>
  <g
     transform="translate(10.785931,5.119671)"
     id="layer1"
     inkscape:groupmode="layer"
     inkscape:label="Layer 1">
    <path
       d="M -10.785931,74.255308 A 79.374987,79.374987 0 0 0 68.58908,153.63032 79.374987,79.374987 0 0 0 147.96407,74.255308 79.374987,79.374987 0 0 0 68.58908,-5.119671 79.374987,79.374987 0 0 0 -10.785931,74.255308"
       style="opacity:1;fill:#00408c;fill-opacity:1;fill-rule:evenodd;stroke-width:0;stroke-linecap:square;stroke-linejoin:round;paint-order:fill markers stroke"
       id="path13683-5" />
    <path
       id="rect28209"
       style="opacity:1;fill:#ffffff;fill-rule:evenodd;stroke:none;stroke-width:0.264582;stroke-linecap:square;stroke-linejoin:round;stroke-miterlimit:4;stroke-dasharray:none;stroke-opacity:1;paint-order:stroke markers fill"
       d="m 53.3967,25.136336 c -4.20118,1.61e-4 -7.606853,3.40585 -7.607011,7.607027 0,2.619965 1.348196,5.05555 3.568419,6.446545 h -0.0026 c 0,0 0.175394,0.109181 0.293515,0.254098 0.110444,0.135556 0.163036,0.301962 0.194328,0.440284 l 0.103343,1.551837 c 0.01315,0.227277 0.01841,0.451492 -0.07337,0.635964 0,0 -1.584097,0.280276 -3.156703,0.966165 -1.759149,0.767256 -3.578463,2.002892 -4.633773,3.137656 -0.895116,0.962563 -2.336321,2.855262 -3.014021,4.472089 -1.173091,2.798836 -1.30181,5.394769 -1.30181,5.394769 l -0.671284,21.676909 c 0.126221,1.468495 1.579101,2.397916 2.48676,2.463651 1.486986,0.107682 2.820324,-0.774209 3.110501,-2.322331 l 2.198659,-21.791052 v 56.605643 c 1.28072,3.41823 5.973372,3.46063 7.236053,0 l 1.309962,-30.517804 c 0.03024,-0.714186 0.489079,-1.289577 1.159127,-1.289577 0.670048,0 1.159364,0.57649 1.209406,1.289577 l 2.861793,40.565384 c 0.838895,0.95169 2.110753,1.47993 3.43118,1.39422 1.491641,-0.0968 3.09049,-0.98595 3.720621,-2.61857 l -1.837196,-65.874591 12.857743,18.117997 1.168646,0.501425 3.813025,5.537453 10.519108,0.02853 -6.316088,18.33949 c 1.397685,0.251811 2.800498,0.453567 4.209832,0.610139 l -0.0079,0.02992 0.777283,14.690877 c 0.659714,2.46439 2.991827,1.50544 3.230069,0.33702 l 0.0053,-14.765633 c 0.823959,0.03048 1.651099,0.03923 2.479949,0.02992 l -0.01052,0.01367 0.892775,10.297623 c 0.102291,1.02712 1.032486,1.34568 1.501554,1.33307 0.549192,-0.0147 1.377015,-0.2936 1.558635,-1.33307 l -0.16724,-10.502813 c 1.37452,-0.125905 2.75622,-0.313156 4.14733,-0.574807 l -4.925949,-16.446562 8.320419,8.516118 c 0.58277,0.234324 1.67071,-0.09411 2.14026,-0.868328 0.35936,-0.592535 0.40122,-1.540393 -0.0531,-2.164696 l -9.07191,-10.380513 -3.090092,-1.308607 c 0,0 -0.114388,-0.209106 -0.152254,-0.338356 -0.118069,-0.404987 -0.150413,-0.857155 0.152254,-1.247456 l -0.0284,0.0014 a 4.5709586,4.5709586 0 0 0 2.212252,-3.91494 4.5709586,4.5709586 0 0 0 -4.571265,-4.57128 4.5709586,4.5709586 0 0 0 -4.571296,4.57128 4.5709586,4.5709586 0 0 0 2.564201,4.106543 l -0.02998,0.0014 c 0.540777,0.510548 0.226145,0.924775 0.139894,1.364321 L 83.462332,75.633968 80.819295,71.84948 80.623653,69.400767 66.960069,47.999716 c 0,0 -0.593474,-0.812865 -1.494769,-1.611637 -0.790616,-0.700696 -1.847005,-1.366771 -2.55605,-1.785569 -0.809654,-0.478209 -2.037466,-1.056752 -3.18931,-1.473031 -1.471261,-0.531713 -2.802022,-0.84525 -2.802022,-0.845224 l -0.394072,-1.910594 c -0.04312,-0.5944 0.247708,-0.778487 0.54083,-0.959367 h -0.01315 c 2.436534,-1.335148 3.951394,-3.892399 3.951631,-6.670765 -1.85e-4,-4.201177 -3.405858,-7.606872 -7.607038,-7.607024 z" />
    <path
       id="path13685-1"
       d="m 68.595733,-2.4513636 c 42.344807,0 76.700347,34.3556006 76.700347,76.7003816 0,42.344832 -34.35554,76.700372 -76.700347,76.700372 -42.344836,0 -76.7004334,-34.35554 -76.7004334,-76.700372 0,-42.344781 34.3555974,-76.7003816 76.7004334,-76.7003816 z m 0,2.64024943 c -40.918015,0 -74.0601339,33.14210817 -74.0601339,74.06013217 0,40.918032 33.1421189,74.060122 74.0601339,74.060122 40.918047,0 74.060097,-33.14209 74.060097,-74.060122 0,-40.918024 -33.14205,-74.06013217 -74.060097,-74.06013217 z"
       style="color:#000000;font-style:normal;font-variant:normal;font-weight:normal;font-stretch:normal;font-size:medium;line-height:normal;font-family:sans-serif;font-variant-ligatures:normal;font-variant-position:normal;font-variant-caps:normal;font-variant-numeric:normal;font-variant-alternates:normal;font-variant-east-asian:normal;font-feature-settings:normal;font-variation-settings:normal;text-indent:0;text-align:start;text-decoration:none;text-decoration-line:none;text-decoration-style:solid;text-decoration-color:#000000;letter-spacing:normal;word-spacing:normal;text-transform:none;writing-mode:lr-tb;direction:ltr;text-orientation:mixed;dominant-baseline:auto;baseline-shift:baseline;text-anchor:start;white-space:normal;shape-padding:0;shape-margin:0;inline-size:0;clip-rule:nonzero;display:inline;overflow:visible;visibility:visible;opacity:1;isolation:auto;mix-blend-mode:normal;color-interpolation:sRGB;color-interpolation-filters:linearRGB;solid-color:#000000;solid-opacity:1;vector-effect:none;fill:#ffffff;fill-opacity:1;fill-rule:evenodd;stroke:none;stroke-width:4.39998;stroke-linecap:square;stroke-linejoin:round;stroke-miterlimit:4;stroke-dasharray:none;stroke-dashoffset:0;stroke-opacity:1;paint-order:fill markers stroke;color-rendering:auto;image-rendering:auto;shape-rendering:auto;text-rendering:auto;enable-background:accumulate;stop-color:#000000;stop-opacity:1" />
  </g>
</svg>
