<svg width="158.75mm" height="158.75mm" version="1.1" viewBox="0 0 158.75 158.75" xmlns="http://www.w3.org/2000/svg"><g transform="translate(-61.988 -36.286)" fill-rule="evenodd"><path d="m61.988 115.66a79.375 79.375 0 0 0 79.375 79.375 79.375 79.375 0 0 0 79.375-79.375 79.375 79.375 0 0 0-79.375-79.375 79.375 79.375 0 0 0-79.375 79.375" fill="#00408c" stroke-width="0" style="paint-order:fill markers stroke"/><path d="m126.17 66.542c-4.2012 1.62e-4 -7.6069 3.4059-7.607 7.607 0 2.62 1.3482 5.0556 3.5684 6.4465h-3e-3s0.17539 0.10918 0.29352 0.2541c0.11044 0.13555 0.16303 0.30196 0.19432 0.44028l0.10335 1.5518c0.0131 0.22728 0.0184 0.45149-0.0734 0.63596 0 0-1.5841 0.28028-3.1567 0.96616-1.7592 0.76726-3.5785 2.0029-4.6338 3.1377-0.89512 0.96256-2.3363 2.8553-3.014 4.4721-1.1731 2.7988-1.3018 5.3948-1.3018 5.3948l-0.67129 21.677c0.12623 1.4685 1.5791 2.3979 2.4868 2.4637 1.487 0.10768 2.8203-0.77421 3.1105-2.3223l2.1987-21.791v56.606c1.2807 3.4182 5.9734 3.4606 7.236 0l1.31-30.518c0.0302-0.71418 0.48908-1.2896 1.1591-1.2896 0.67004 0 1.1594 0.57649 1.2094 1.2896l2.8618 40.565c0.83889 0.95169 2.1108 1.4799 3.4312 1.3942 1.4916-0.0968 3.0905-0.98595 3.7206-2.6186l-1.8372-65.875 12.858 18.118 1.1686 0.50143 3.813 5.5374 10.519 0.0285-6.3161 18.339c1.3977 0.25181 2.8005 0.45357 4.2098 0.61014l-8e-3 0.0299 0.77728 14.691c0.65971 2.4644 2.9918 1.5054 3.2301 0.33702l5e-3 -14.766c0.82396 0.0305 1.6511 0.0392 2.48 0.0299l-0.0105 0.0137 0.89277 10.298c0.10229 1.0271 1.0325 1.3457 1.5016 1.3331 0.54919-0.0147 1.377-0.2936 1.5586-1.3331l-0.16724-10.503c1.3745-0.1259 2.7562-0.31316 4.1473-0.5748l-4.926-16.447 8.3204 8.5161c0.58277 0.23432 1.6707-0.0941 2.1403-0.86833 0.35936-0.59253 0.40122-1.5404-0.0531-2.1647l-9.0719-10.381-3.0901-1.3086s-0.11439-0.2091-0.15225-0.33835c-0.11807-0.40499-0.15042-0.85715 0.15225-1.2475l-0.0284 1e-3a4.571 4.571 0 0 0 2.2122-3.9149 4.571 4.571 0 0 0-4.5713-4.5713 4.571 4.571 0 0 0-4.5713 4.5713 4.571 4.571 0 0 0 2.5642 4.1065l-0.03 1e-3c0.54078 0.51055 0.22615 0.92478 0.1399 1.3643l-10.215-1e-3 -2.643-3.7845-0.19564-2.4487-13.664-21.401s-0.59347-0.81287-1.4948-1.6116c-0.79061-0.7007-1.847-1.3668-2.556-1.7856-0.80965-0.47821-2.0375-1.0568-3.1893-1.473-1.4713-0.53171-2.802-0.84525-2.802-0.84522l-0.39407-1.9106c-0.0431-0.5944 0.24771-0.77849 0.54083-0.95937h-0.0131c2.4365-1.3351 3.9514-3.8924 3.9516-6.6708-1.9e-4 -4.2012-3.4059-7.6069-7.607-7.607z" fill="#fff" style="paint-order:stroke markers fill"/><path d="m141.37 38.954c42.345 0 76.7 34.356 76.7 76.7 0 42.345-34.356 76.7-76.7 76.7-42.345 0-76.7-34.355-76.7-76.7 0-42.345 34.356-76.7 76.7-76.7zm0 2.6403c-40.918 0-74.06 33.142-74.06 74.06 0 40.918 33.142 74.06 74.06 74.06 40.918 0 74.06-33.142 74.06-74.06 0-40.918-33.142-74.06-74.06-74.06z" color="#000000" color-rendering="auto" dominant-baseline="auto" enable-background="accumulate" fill="#fff" image-rendering="auto" shape-rendering="auto" solid-color="#000000" stop-color="#000000" style="font-feature-settings:normal;font-variant-alternates:normal;font-variant-caps:normal;font-variant-east-asian:normal;font-variant-ligatures:normal;font-variant-numeric:normal;font-variant-position:normal;font-variation-settings:normal;inline-size:0;isolation:auto;mix-blend-mode:normal;paint-order:stroke markers fill;shape-margin:0;shape-padding:0;text-decoration-color:#000000;text-decoration-line:none;text-decoration-style:solid;text-indent:0;text-orientation:mixed;text-transform:none;white-space:normal"/><path d="m187.37 57.687-103.97 103.97a73.986 74.037 0 0 0 15.394 14.54l103.11-103.11c3e-5 -0.0048-3e-5 -0.0085 0-0.01244a73.986 74.037 0 0 0-14.48-15.378c-0.0185-0.0026-0.0344-0.0079-0.0529-0.01058z" fill="#ee252c" style="paint-order:stroke markers fill"/></g></svg>