<?xml version="1.0" encoding="UTF-8" standalone="no"?>
<svg
   xmlns:dc="http://purl.org/dc/elements/1.1/"
   xmlns:cc="http://creativecommons.org/ns#"
   xmlns:rdf="http://www.w3.org/1999/02/22-rdf-syntax-ns#"
   xmlns:svg="http://www.w3.org/2000/svg"
   xmlns="http://www.w3.org/2000/svg"
   xmlns:sodipodi="http://sodipodi.sourceforge.net/DTD/sodipodi-0.dtd"
   xmlns:inkscape="http://www.inkscape.org/namespaces/inkscape"
   sodipodi:docname="tt38.svg"
   inkscape:version="1.0 (4035a4fb49, 2020-05-01)"
   id="svg26953"
   version="1.1"
   viewBox="0 0 158.75 158.74968"
   height="158.74968mm"
   width="158.75mm">
  <defs
     id="defs26947" />
  <sodipodi:namedview
     inkscape:window-maximized="1"
     inkscape:window-y="-9"
     inkscape:window-x="-9"
     inkscape:window-height="1001"
     inkscape:window-width="1920"
     showgrid="false"
     inkscape:document-rotation="0"
     inkscape:current-layer="layer1"
     inkscape:document-units="mm"
     inkscape:cy="269.58858"
     inkscape:cx="276.58509"
     inkscape:zoom="0.98994949"
     inkscape:pageshadow="2"
     inkscape:pageopacity="0.0"
     borderopacity="1.0"
     bordercolor="#666666"
     pagecolor="#ffffff"
     id="base" />
  <metadata
     id="metadata26950">
    <rdf:RDF>
      <cc:Work
         rdf:about="">
        <dc:format>image/svg+xml</dc:format>
        <dc:type
           rdf:resource="http://purl.org/dc/dcmitype/StillImage" />
        <dc:title></dc:title>
      </cc:Work>
    </rdf:RDF>
  </metadata>
  <g
     transform="translate(-61.988095,-36.285874)"
     id="layer1"
     inkscape:groupmode="layer"
     inkscape:label="Layer 1">
    <path
       d="M 61.988095,115.6608 A 79.374968,79.374844 0 0 0 141.36304,195.03555 79.374968,79.374844 0 0 0 220.7381,115.6608 79.374968,79.374844 0 0 0 141.36304,36.285874 79.374968,79.374844 0 0 0 61.988095,115.6608"
       style="opacity:1;fill:#00408c;fill-opacity:1;fill-rule:evenodd;stroke-width:0;stroke-linecap:square;stroke-linejoin:round;paint-order:fill markers stroke"
       id="path13683-3" />
    <path
       d="m 126.17073,66.54188 c -4.20118,1.62e-4 -7.60686,3.405852 -7.60701,7.607028 0,2.619965 1.34819,5.05555 3.56842,6.446546 h -0.003 c 0,0 0.17539,0.109181 0.29352,0.254098 0.11044,0.135554 0.16303,0.301961 0.19432,0.440283 l 0.10335,1.551837 c 0.0131,0.227277 0.0184,0.451493 -0.0734,0.635965 0,0 -1.5841,0.280276 -3.15671,0.966163 -1.75915,0.767258 -3.57846,2.002894 -4.63377,3.137657 -0.89512,0.962565 -2.33632,2.855262 -3.01402,4.472091 -1.17309,2.798834 -1.30181,5.394767 -1.30181,5.394767 l -0.67129,21.676905 c 0.12623,1.4685 1.57911,2.39792 2.48676,2.46366 1.48699,0.10768 2.82033,-0.77421 3.1105,-2.32234 l 2.19867,-21.791047 v 56.605647 c 1.28071,3.41823 5.97337,3.46063 7.23605,0 l 1.30996,-30.51781 c 0.0302,-0.71418 0.48908,-1.28957 1.15913,-1.28957 0.67004,0 1.15936,0.57649 1.2094,1.28957 l 2.8618,40.56539 c 0.83889,0.95169 2.11075,1.47993 3.43118,1.39422 1.49164,-0.0968 3.09049,-0.98595 3.72062,-2.61857 l -1.8372,-65.874594 12.85774,18.117994 1.16865,0.50143 3.81302,5.53745 10.51911,0.0285 -6.31609,18.33949 c 1.39769,0.25181 2.8005,0.45357 4.20984,0.61014 l -0.008,0.0299 0.77728,14.69088 c 0.65971,2.46439 2.99183,1.50544 3.23007,0.33702 l 0.005,-14.76564 c 0.82396,0.0305 1.6511,0.0392 2.47995,0.0299 l -0.0105,0.0137 0.89277,10.29763 c 0.10229,1.02711 1.03249,1.34567 1.50156,1.33306 0.54919,-0.0147 1.37701,-0.2936 1.55863,-1.33306 l -0.16724,-10.50282 c 1.37452,-0.1259 2.75622,-0.31316 4.14733,-0.5748 l -4.92595,-16.44657 8.32042,8.51612 c 0.58277,0.23432 1.67071,-0.0941 2.14026,-0.86833 0.35936,-0.59253 0.40122,-1.54039 -0.0531,-2.16469 l -9.07191,-10.38052 -3.09009,-1.30861 c 0,0 -0.11439,-0.2091 -0.15225,-0.33835 -0.11807,-0.40499 -0.15042,-0.85715 0.15225,-1.24746 l -0.0284,0.001 a 4.5709586,4.5709586 0 0 0 2.21225,-3.91494 4.5709586,4.5709586 0 0 0 -4.57126,-4.57128 4.5709586,4.5709586 0 0 0 -4.5713,4.57128 4.5709586,4.5709586 0 0 0 2.5642,4.10654 l -0.03,0.001 c 0.54078,0.51055 0.22615,0.92478 0.1399,1.36432 l -10.21481,-10e-4 -2.64303,-3.78449 -0.19564,-2.44871 -13.66359,-21.401052 c 0,0 -0.59347,-0.812866 -1.49477,-1.611638 -0.79061,-0.700696 -1.847,-1.366772 -2.55605,-1.785567 -0.80965,-0.478211 -2.03746,-1.056754 -3.18931,-1.473034 -1.47126,-0.531712 -2.80202,-0.845248 -2.80202,-0.845222 l -0.39407,-1.910596 c -0.0431,-0.594399 0.24771,-0.778486 0.54083,-0.959366 h -0.0131 c 2.43653,-1.335148 3.95139,-3.892399 3.95163,-6.670765 -1.9e-4,-4.201175 -3.40586,-7.606871 -7.60704,-7.607024 z"
       style="opacity:1;fill:#ffffff;fill-rule:evenodd;stroke:none;stroke-width:0.264582;stroke-linecap:square;stroke-linejoin:round;stroke-miterlimit:4;stroke-dasharray:none;stroke-opacity:1;paint-order:stroke markers fill"
       id="rect28209" />
    <path
       id="path13685-3"
       d="m 141.36968,38.954197 c 42.34488,0 76.70044,34.355564 76.70044,76.700303 0,42.34468 -34.35556,76.70014 -76.70044,76.70014 -42.344707,0 -76.700351,-34.35546 -76.700351,-76.70014 0,-42.344739 34.355644,-76.700303 76.700351,-76.700303 z m 0,2.640277 c -40.91789,0 -74.060047,33.142052 -74.060047,74.060026 0,40.91786 33.142157,74.05988 74.060047,74.05988 40.91811,0 74.06016,-33.14202 74.06016,-74.05988 0,-40.917974 -33.14205,-74.060026 -74.06016,-74.060026 z"
       style="color:#000000;font-style:normal;font-variant:normal;font-weight:normal;font-stretch:normal;font-size:medium;line-height:normal;font-family:sans-serif;font-variant-ligatures:normal;font-variant-position:normal;font-variant-caps:normal;font-variant-numeric:normal;font-variant-alternates:normal;font-variant-east-asian:normal;font-feature-settings:normal;font-variation-settings:normal;text-indent:0;text-align:start;text-decoration:none;text-decoration-line:none;text-decoration-style:solid;text-decoration-color:#000000;letter-spacing:normal;word-spacing:normal;text-transform:none;writing-mode:lr-tb;direction:ltr;text-orientation:mixed;dominant-baseline:auto;baseline-shift:baseline;text-anchor:start;white-space:normal;shape-padding:0;shape-margin:0;inline-size:0;clip-rule:nonzero;display:inline;overflow:visible;visibility:visible;opacity:1;isolation:auto;mix-blend-mode:normal;color-interpolation:sRGB;color-interpolation-filters:linearRGB;solid-color:#000000;solid-opacity:1;vector-effect:none;fill:#ffffff;fill-opacity:1;fill-rule:evenodd;stroke:none;stroke-width:0.264583;stroke-linecap:square;stroke-linejoin:round;stroke-miterlimit:4;stroke-dasharray:none;stroke-dashoffset:0;stroke-opacity:1;paint-order:stroke markers fill;color-rendering:auto;image-rendering:auto;shape-rendering:auto;text-rendering:auto;enable-background:accumulate;stop-color:#000000;stop-opacity:1" />
    <path
       d="M 187.37425,57.686829 83.408576,161.65389 a 73.986028,74.037105 0 0 0 15.393512,14.54029 L 201.90773,73.088543 c 3e-5,-0.0048 -3e-5,-0.0085 0,-0.01244 A 73.986028,74.037105 0 0 0 187.42761,57.697624 c -0.0185,-0.0026 -0.0344,-0.0079 -0.0529,-0.01058 z"
       style="opacity:1;fill:#ee252c;fill-opacity:1;fill-rule:evenodd;stroke:none;stroke-width:0.264583;stroke-linecap:square;stroke-linejoin:round;stroke-miterlimit:4;stroke-dasharray:none;stroke-opacity:1;paint-order:stroke markers fill"
       id="path26895" />
  </g>
</svg>
