<?xml version="1.0" encoding="UTF-8" standalone="no"?>
<svg
   xmlns:dc="http://purl.org/dc/elements/1.1/"
   xmlns:cc="http://creativecommons.org/ns#"
   xmlns:rdf="http://www.w3.org/1999/02/22-rdf-syntax-ns#"
   xmlns:svg="http://www.w3.org/2000/svg"
   xmlns="http://www.w3.org/2000/svg"
   xmlns:sodipodi="http://sodipodi.sourceforge.net/DTD/sodipodi-0.dtd"
   xmlns:inkscape="http://www.inkscape.org/namespaces/inkscape"
   sodipodi:docname="tt37.svg"
   inkscape:version="1.0 (4035a4fb49, 2020-05-01)"
   id="svg13091"
   version="1.1"
   viewBox="0 0 158.74968 158.75"
   height="158.75mm"
   width="158.74968mm">
  <defs
     id="defs13085">
    <clipPath
       id="clipPath53731"
       clipPathUnits="userSpaceOnUse">
      <path
         id="path53729"
         d="M 85.039,420.945 H 510.236 V 733.818 H 85.039 Z" />
    </clipPath>
    <clipPath
       id="clipPath54467"
       clipPathUnits="userSpaceOnUse">
      <path
         id="path54465"
         d="M 85.039,420.945 H 510.236 V 733.818 H 85.039 Z" />
    </clipPath>
    <clipPath
       id="clipPath54483"
       clipPathUnits="userSpaceOnUse">
      <path
         id="path54481"
         d="M 85.039,420.945 H 510.236 V 733.818 H 85.039 Z" />
    </clipPath>
    <clipPath
       id="clipPath54531"
       clipPathUnits="userSpaceOnUse">
      <path
         id="path54529"
         d="M 85.039,420.945 H 510.236 V 733.818 H 85.039 Z" />
    </clipPath>
    <clipPath
       id="clipPath54555"
       clipPathUnits="userSpaceOnUse">
      <path
         id="path54553"
         d="M 85.039,420.945 H 510.236 V 733.818 H 85.039 Z" />
    </clipPath>
    <clipPath
       id="clipPath54579"
       clipPathUnits="userSpaceOnUse">
      <path
         id="path54577"
         d="M 85.039,420.945 H 510.236 V 733.818 H 85.039 Z" />
    </clipPath>
    <clipPath
       id="clipPath54623"
       clipPathUnits="userSpaceOnUse">
      <path
         id="path54621"
         d="M 85.039,420.945 H 510.236 V 733.818 H 85.039 Z" />
    </clipPath>
    <clipPath
       id="clipPath54651"
       clipPathUnits="userSpaceOnUse">
      <path
         id="path54649"
         d="M 85.039,420.945 H 510.236 V 733.818 H 85.039 Z" />
    </clipPath>
    <clipPath
       id="clipPath54679"
       clipPathUnits="userSpaceOnUse">
      <path
         id="path54677"
         d="M 85.039,420.945 H 510.236 V 733.818 H 85.039 Z" />
    </clipPath>
    <clipPath
       id="clipPath54699"
       clipPathUnits="userSpaceOnUse">
      <path
         id="path54697"
         d="M 85.039,420.945 H 510.236 V 733.818 H 85.039 Z" />
    </clipPath>
    <clipPath
       id="clipPath56151"
       clipPathUnits="userSpaceOnUse">
      <path
         id="path56149"
         d="M 85.039,420.945 H 510.236 V 733.818 H 85.039 Z" />
    </clipPath>
    <clipPath
       id="clipPath56179"
       clipPathUnits="userSpaceOnUse">
      <path
         id="path56177"
         d="M 85.039,420.945 H 510.236 V 733.818 H 85.039 Z" />
    </clipPath>
    <clipPath
       id="clipPath56195"
       clipPathUnits="userSpaceOnUse">
      <path
         id="path56193"
         d="M 85.039,420.945 H 510.236 V 733.818 H 85.039 Z" />
    </clipPath>
    <clipPath
       id="clipPath56267"
       clipPathUnits="userSpaceOnUse">
      <path
         id="path56265"
         d="M 85.039,420.945 H 510.236 V 733.818 H 85.039 Z" />
    </clipPath>
    <clipPath
       id="clipPath56283"
       clipPathUnits="userSpaceOnUse">
      <path
         id="path56281"
         d="M 85.039,420.945 H 510.236 V 733.818 H 85.039 Z" />
    </clipPath>
    <clipPath
       id="clipPath56303"
       clipPathUnits="userSpaceOnUse">
      <path
         id="path56301"
         d="M 85.039,420.945 H 510.236 V 733.818 H 85.039 Z" />
    </clipPath>
    <clipPath
       id="clipPath56331"
       clipPathUnits="userSpaceOnUse">
      <path
         id="path56329"
         d="M 85.039,420.945 H 510.236 V 733.818 H 85.039 Z" />
    </clipPath>
    <clipPath
       id="clipPath56359"
       clipPathUnits="userSpaceOnUse">
      <path
         id="path56357"
         d="M 85.039,420.945 H 510.236 V 733.818 H 85.039 Z" />
    </clipPath>
    <clipPath
       id="clipPath56391"
       clipPathUnits="userSpaceOnUse">
      <path
         id="path56389"
         d="M 85.039,420.945 H 510.236 V 733.818 H 85.039 Z" />
    </clipPath>
  </defs>
  <sodipodi:namedview
     inkscape:window-maximized="1"
     inkscape:window-y="-9"
     inkscape:window-x="-9"
     inkscape:window-height="1001"
     inkscape:window-width="1920"
     showguides="false"
     showgrid="false"
     inkscape:document-rotation="0"
     inkscape:current-layer="layer1"
     inkscape:document-units="mm"
     inkscape:cy="126.53165"
     inkscape:cx="736.66573"
     inkscape:zoom="0.47199378"
     inkscape:pageshadow="2"
     inkscape:pageopacity="0.0"
     borderopacity="1.0"
     bordercolor="#666666"
     pagecolor="#ffffff"
     id="base" />
  <metadata
     id="metadata13088">
    <rdf:RDF>
      <cc:Work
         rdf:about="">
        <dc:format>image/svg+xml</dc:format>
        <dc:type
           rdf:resource="http://purl.org/dc/dcmitype/StillImage" />
        <dc:title />
      </cc:Work>
    </rdf:RDF>
  </metadata>
  <g
     transform="translate(169.70813,-127.73231)"
     id="layer1"
     inkscape:groupmode="layer"
     inkscape:label="Layer 1">
    <path
       d="m -169.70813,207.10728 a 79.374833,79.375003 0 0 0 79.374885,79.37503 79.374833,79.375003 0 0 0 79.374799,-79.37503 79.374833,79.375003 0 0 0 -79.374799,-79.37497 79.374833,79.375003 0 0 0 -79.374885,79.37497"
       style="opacity:1;fill:#00408c;fill-opacity:1;fill-rule:evenodd;stroke-width:0;stroke-linecap:square;stroke-linejoin:round;paint-order:fill markers stroke"
       id="path13683-5-0" />
    <path
       id="rect27859"
       style="opacity:1;fill:#ffffff;fill-opacity:1;fill-rule:evenodd;stroke:none;stroke-width:0.635;stroke-linecap:square;stroke-linejoin:round;paint-order:stroke fill markers"
       d="m -94.717729,164.76305 a 4.8498637,4.8498637 0 0 0 -4.82498,4.84961 4.8498637,4.8498637 0 0 0 4.850967,4.84958 4.8498637,4.8498637 0 0 0 4.849601,-4.84958 4.8498637,4.8498637 0 0 0 -4.849601,-4.84961 4.8498637,4.8498637 0 0 0 -0.02594,0 z m 4.704633,10.77278 c -1.172021,0.008 -2.290413,0.36533 -3.486073,1.3307 -3.092718,3.2969 -9.283101,10.84156 -14.145351,16.56468 l -0.16686,-0.15191 c 0,0 -10.49587,-9.59696 -10.67569,-9.72518 -2.77913,-1.9815 -4.38537,-2.69127 -7.02959,-3.28777 -1.12124,-0.25301 -3.18699,-0.66557 -4.63626,-0.28858 -1.67841,0.43662 -2.67097,1.69449 -2.67097,1.69449 l -4.87285,-3.51752 -0.84109,-0.28037 c 0,0 -0.205,-0.15641 -0.43354,-0.18049 -0.12838,-0.0132 -0.28421,0.063 -0.36515,0.11486 -0.086,0.0553 -0.19788,0.17811 -0.23387,0.31044 -0.0453,0.16752 -0.003,0.34328 -0.003,0.34328 l 0.0561,0.25168 c 0,0 -0.001,0.39507 0.0274,0.58946 0.0438,0.29344 0.1577,0.64847 0.2448,1.02298 0.0558,0.24004 0.19169,0.46508 0.2954,0.70159 0.22045,0.50266 0.4526,0.99785 0.55663,1.38403 0.11285,0.41892 -0.11626,0.75632 -0.11626,0.75632 0,0 -0.84588,0.94891 -1.14471,1.50301 -0.42918,0.79583 -0.89989,2.55746 -0.89989,2.55746 0,0 -0.21929,1.10881 -0.17232,1.6644 0.0414,0.49072 0.39662,1.42369 0.39662,1.42369 l -0.30772,4.41881 c 0,0 -0.83896,2.03388 0.48414,3.63788 0.68431,0.8296 1.94449,1.63912 3.23307,1.98444 0.91769,0.24586 1.91051,0.18076 2.44395,0.0643 0.75948,-0.16567 1.15563,-0.28434 1.44148,-0.91906 0.13174,-0.29252 0.16,-0.93326 0.0821,-1.32386 -0.0577,-0.28908 -0.0383,-0.5919 -0.12447,-0.87801 -0.22075,-0.73282 -0.57714,-1.35531 -0.57714,-1.35531 0,0 1.21756,-1.14616 1.74373,-1.79296 0.49898,-0.61344 1.32796,-1.96666 1.32796,-1.96666 0,0 0.0606,-0.0688 0.15456,-0.12174 0.0766,-0.0431 0.18067,-0.0722 0.24752,-0.0725 0.0658,-1.9e-4 0.18494,0.0212 0.26122,0.063 0.099,0.054 0.14907,0.1326 0.14907,0.1326 0,0 0.75504,0.69076 1.31293,1.92425 0.32566,0.72004 0.44043,1.50918 0.78775,2.39198 0.57343,1.45757 1.40075,3.0377 2.06238,4.00714 1.68082,2.46285 5.99157,6.64258 5.99157,6.64258 l 0.46089,1.28419 c 0.004,2.67381 0.19396,4.58936 0.80143,7.37148 -4.30828,1.24167 -6.48164,2.63747 -8.84034,3.91007 -1.35083,1.15494 -2.6912,2.1996 -4.01398,3.04842 -1.48085,1.90163 -0.95596,3.20028 -0.59902,4.19862 0.19553,1.89126 0.32913,3.87181 0.1012,6.37724 0.98215,1.09137 2.27249,1.74919 4.01262,1.77655 0.94675,0.94169 2.03992,1.74387 3.33564,2.35368 l 4.02629,-0.0807 c 0.9813,0.25831 1.9576,0.53172 2.83782,1.13377 1.34851,1.26327 2.69106,1.22518 3.83072,0.65372 0.27495,-0.13788 0.40043,-0.34296 0.67014,-0.52653 l -4.70601,-4.70601 c -1.42745,0.79864 -2.25951,0.25883 -2.82961,-0.86845 h -4.50907 c -1.01457,-0.30978 -1.87261,-1.05956 -1.54952,-2.57797 0.90884,-1.42992 1.47711,-3.26639 1.74646,-5.45956 l 11.28703,-2.24155 c 0.41812,1.73231 1.11356,2.89601 1.84902,3.97843 -0.023,1.95933 0.63271,3.65 1.82578,5.12996 2.24534,3.68194 5.015,6.53539 4.94124,13.88551 -1.44804,1.00036 -2.56941,2.22922 -3.43411,3.63788 l 8.34662,0.005 -10e-4,-1.65346 -1.48387,-3.6406 1.48524,-1.25959 c -0.62481,-1.85124 -1.54574,-4.08548 -2.45489,-6.5906 -1.56654,-4.31657 -3.09919,-9.4387 -3.02656,-14.79633 1.62787,0.60867 7.705111,1.51677 11.578327,1.2541 4.725114,-0.32044 6.826214,-0.49656 13.789774,-3.42316 -0.712284,5.2838 1.115198,7.52392 2.65866,10.10401 -1.963325,4.0475 -3.114605,7.23084 -4.619836,10.79056 -1.540067,0.87767 -2.323526,2.13384 -2.627214,3.62968 l -4.711469,3.42864 -0.980587,1.31566 h 7.92676 l -0.39251,-1.9598 v -1.56867 h 2.156734 l 6.582385,-8.90711 c 0.861891,-0.66856 1.772441,-1.26418 2.940395,-1.48387 0,0 0.07913,-3.86315 0.08752,-4.8277 0.0095,-1.03778 0.610311,-1.86283 1.314287,-2.2019 0.426998,-0.20564 1.353366,-0.43792 1.698591,-0.20643 1.504839,1.00872 4.070069,3.23034 4.070056,3.23034 1.13484,1.80482 2.118318,4.34357 2.99647,7.39477 0.584295,1.82308 1.680462,3.91351 4.734724,5.23798 l 1.56867,-0.0847 c 0.417851,0.72014 1.252848,1.16348 2.152635,0.90264 1.172088,-0.33978 2.832873,-0.96756 3.532586,-1.21035 l -2.632685,-3.61327 h -3.837559 v -1.51259 c -2.358924,-3.1592 -3.202245,-6.66875 -2.610793,-10.51022 -2.72874,-2.6669 -3.130886,-3.55007 -3.334274,-4.34768 -0.137354,-0.53859 0.768986,-1.40482 2.219656,-5.41988 0.780413,-1.64134 1.367474,-3.23865 1.385402,-5.27906 0.01429,-1.64299 -0.282849,-3.59461 -1.580974,-5.92455 0,0 2.75873,-0.15985 3.91141,0.4691 1.194186,0.6516 2.774319,1.30687 3.803369,2.72842 1.127242,1.55719 1.649358,3.85942 1.649358,3.85942 0,0 0.444713,8.05656 2.788588,11.0436 1.613288,2.05595 4.256715,3.19618 7.309958,3.74456 4.605224,0.82712 9.685536,0.12306 9.685528,0.12306 0,0 -1.510482,-0.3862 -3.175623,-1.25275 -1.635067,-0.85083 -3.416613,-2.17245 -4.362722,-3.27406 -3.679895,-4.28474 -3.805179,-9.45834 -6.336211,-15.4911 -1.79861,-4.28699 -10.40222,-9.9231 -18.130619,-4.5829 -1.588403,-1.80434 -4.135568,-2.82285 -7.0843,-3.40403 -4.730751,-0.93242 -9.201376,-1.53802 -14.961829,-0.89169 l 4.372302,-2.37147 c 0.87813,-0.72578 1.136547,-1.6112 0.980585,-2.60396 l -6.377238,-16.17763 c 0,0 -0.709671,-0.9456 -1.103672,-1.35669 -1.191195,-0.90172 -2.37209,-1.33723 -3.542157,-1.33072 z m -5.053372,12.45089 4.901571,6.66578 -10.207963,5.2599 -0.1559,0.005 -4.1863,-3.81567 z" />
    <path
       id="path13685-1-2"
       d="m -90.326592,130.40061 c 42.344662,0 76.700194,34.35561 76.700194,76.70034 0,42.3449 -34.355532,76.70046 -76.700194,76.70046 -42.344758,0 -76.700298,-34.35556 -76.700298,-76.70046 0,-42.34473 34.35554,-76.70034 76.700298,-76.70034 z m 0,2.64027 c -40.917948,0 -74.059978,33.14213 -74.059978,74.06007 0,40.91808 33.14203,74.06019 74.059978,74.06019 40.917927,0 74.059911,-33.14211 74.059911,-74.06019 0,-40.91794 -33.141984,-74.06007 -74.059911,-74.06007 z"
       style="color:#000000;font-style:normal;font-variant:normal;font-weight:normal;font-stretch:normal;font-size:medium;line-height:normal;font-family:sans-serif;font-variant-ligatures:normal;font-variant-position:normal;font-variant-caps:normal;font-variant-numeric:normal;font-variant-alternates:normal;font-variant-east-asian:normal;font-feature-settings:normal;font-variation-settings:normal;text-indent:0;text-align:start;text-decoration:none;text-decoration-line:none;text-decoration-style:solid;text-decoration-color:#000000;letter-spacing:normal;word-spacing:normal;text-transform:none;writing-mode:lr-tb;direction:ltr;text-orientation:mixed;dominant-baseline:auto;baseline-shift:baseline;text-anchor:start;white-space:normal;shape-padding:0;shape-margin:0;inline-size:0;clip-rule:nonzero;display:inline;overflow:visible;visibility:visible;opacity:1;isolation:auto;mix-blend-mode:normal;color-interpolation:sRGB;color-interpolation-filters:linearRGB;solid-color:#000000;solid-opacity:1;vector-effect:none;fill:#ffffff;fill-opacity:1;fill-rule:evenodd;stroke:none;stroke-width:4.39999;stroke-linecap:square;stroke-linejoin:round;stroke-miterlimit:4;stroke-dasharray:none;stroke-dashoffset:0;stroke-opacity:1;paint-order:fill markers stroke;color-rendering:auto;image-rendering:auto;shape-rendering:auto;text-rendering:auto;enable-background:accumulate;stop-color:#000000;stop-opacity:1" />
  </g>
</svg>
