<svg width="600" height="600" version="1.1" xmlns="http://www.w3.org/2000/svg"><g transform="translate(341.93 -553.63)"><g transform="translate(-108.37 1759.9)"><path d="m66.438-1205.3c-165.06 0-299.05 133.99-299.05 299.05-5.3e-4 165.06 133.99 299.05 299.05 299.05 165.06 5.3e-4 299.05-133.99 299.05-299.05 5.3e-4 -165.06-133.99-299.05-299.05-299.05z" color="#000000" color-rendering="auto" dominant-baseline="auto" enable-background="accumulate" fill="#fff" fill-rule="evenodd" image-rendering="auto" shape-rendering="auto" solid-color="#000000" stop-color="#000000" stroke="#000" stroke-linecap="square" stroke-linejoin="round" stroke-miterlimit="2" stroke-width="1.9" style="font-feature-settings:normal;font-variant-alternates:normal;font-variant-caps:normal;font-variant-east-asian:normal;font-variant-ligatures:normal;font-variant-numeric:normal;font-variant-position:normal;font-variation-settings:normal;inline-size:0;isolation:auto;mix-blend-mode:normal;paint-order:stroke fill markers;shape-margin:0;shape-padding:0;text-decoration-color:#000000;text-decoration-line:none;text-decoration-style:solid;text-indent:0;text-orientation:mixed;text-transform:none;white-space:normal"/><rect x="578.74" y="298.17" width="0" height="27.202" rx="249.48" ry="27.202" color="#000000"/><g transform="matrix(.88381 0 0 .88381 -1569.9 -1726.3)"><g transform="matrix(1.1315 0 0 1.1315 -1464.3 -762.13)"><g transform="translate(-108.37 1759.9)"><rect x="578.74" y="298.17" width="0" height="27.202" rx="249.48" ry="27.202" color="#000000"/></g></g></g><path d="m286.56-906.3c0-121.62-98.572-220.19-220.18-220.19-121.62 0-220.19 98.572-220.19 220.19 0 121.61 98.572 220.18 220.19 220.18 121.61 0 220.18-98.572 220.18-220.18" fill="none" stroke="#ee232b" stroke-linecap="round" stroke-linejoin="round" stroke-miterlimit="10" stroke-width=".16"/><path d="m356.71-906.3c0-160.34-129.98-290.32-290.32-290.32-160.34 0-290.32 129.98-290.32 290.32 0 160.33 129.98 290.32 290.32 290.32 160.34 0 290.32-129.99 290.32-290.32" fill="none" stroke="#ee232b" stroke-linecap="round" stroke-linejoin="round" stroke-miterlimit="10" stroke-width=".16"/><path d="m66.438-1196.9c-160.48 0-290.58 130.1-290.57 290.58-5.3e-4 160.48 130.09 290.58 290.57 290.58 160.48 5.3e-4 290.58-130.1 290.58-290.58 2.7e-4 -160.48-130.1-290.58-290.58-290.58zm-0.63642 70.562c0.1642-3e-4 0.32761-3e-4 0.49155 0 121.49 5e-4 219.98 98.487 219.98 219.98-7.9e-4 121.49-98.487 219.98-219.98 219.98-121.49-5.3e-4 -219.98-98.487-219.98-219.98 2.6e-4 -121.3 98.188-219.71 219.49-219.98z" color="#000000" color-rendering="auto" dominant-baseline="auto" enable-background="accumulate" fill="#ed232a" fill-rule="evenodd" image-rendering="auto" shape-rendering="auto" solid-color="#000000" stop-color="#000000" style="font-feature-settings:normal;font-variant-alternates:normal;font-variant-caps:normal;font-variant-east-asian:normal;font-variant-ligatures:normal;font-variant-numeric:normal;font-variant-position:normal;font-variation-settings:normal;inline-size:0;isolation:auto;mix-blend-mode:normal;paint-order:stroke fill markers;shape-margin:0;shape-padding:0;text-decoration-color:#000000;text-decoration-line:none;text-decoration-style:solid;text-indent:0;text-orientation:mixed;text-transform:none;white-space:normal"/></g></g></svg>