<svg width="158.75mm" height="158.75mm" version="1.1" viewBox="0 0 158.75 158.75" xmlns="http://www.w3.org/2000/svg"><g transform="translate(-61.988 -36.286)" fill-rule="evenodd"><path d="m61.988 115.66a79.375 79.375 0 0 0 79.375 79.375 79.375 79.375 0 0 0 79.375-79.375 79.375 79.375 0 0 0-79.375-79.375 79.375 79.375 0 0 0-79.375 79.375" fill="#00408c" stroke-width="0" style="paint-order:fill markers stroke"/><path d="m141.37 38.954c42.345 0 76.7 34.356 76.7 76.7 0 42.345-34.356 76.7-76.7 76.7-42.345 0-76.7-34.355-76.7-76.7 0-42.345 34.356-76.7 76.7-76.7zm0 2.6403c-40.918 0-74.06 33.142-74.06 74.06 0 40.918 33.142 74.06 74.06 74.06 40.918 0 74.06-33.142 74.06-74.06 0-40.918-33.142-74.06-74.06-74.06z" color="#000000" color-rendering="auto" dominant-baseline="auto" enable-background="accumulate" fill="#fff" image-rendering="auto" shape-rendering="auto" solid-color="#000000" stop-color="#000000" style="font-feature-settings:normal;font-variant-alternates:normal;font-variant-caps:normal;font-variant-east-asian:normal;font-variant-ligatures:normal;font-variant-numeric:normal;font-variant-position:normal;font-variation-settings:normal;inline-size:0;isolation:auto;mix-blend-mode:normal;paint-order:stroke markers fill;shape-margin:0;shape-padding:0;text-decoration-color:#000000;text-decoration-line:none;text-decoration-style:solid;text-indent:0;text-orientation:mixed;text-transform:none;white-space:normal"/><path d="m136.98 73.317a4.8499 4.8499 0 0 0-4.825 4.8496 4.8499 4.8499 0 0 0 4.851 4.8496 4.8499 4.8499 0 0 0 4.8496-4.8496 4.8499 4.8499 0 0 0-4.8496-4.8496 4.8499 4.8499 0 0 0-0.0259 0zm4.7046 10.773c-1.172 8e-3 -2.2904 0.36533-3.4861 1.3307-3.0927 3.2969-9.2831 10.842-14.145 16.565l-0.16687-0.15191s-10.496-9.597-10.676-9.7252c-2.7791-1.9815-4.3854-2.6913-7.0296-3.2878-1.1212-0.25301-3.187-0.66557-4.6363-0.28858-1.6784 0.43662-2.671 1.6945-2.671 1.6945l-4.8728-3.5175-0.84109-0.28037s-0.205-0.15641-0.43354-0.18049c-0.12838-0.0132-0.28421 0.063-0.36515 0.11486-0.086 0.0553-0.19788 0.17811-0.23387 0.31044-0.0453 0.16752-3e-3 0.34328-3e-3 0.34328l0.0561 0.25168s-0.0011 0.39507 0.0274 0.58946c0.0438 0.29344 0.1577 0.64847 0.2448 1.023 0.0558 0.24004 0.19169 0.46508 0.2954 0.70159 0.22045 0.50266 0.4526 0.99785 0.55663 1.384 0.11285 0.41892-0.11626 0.75632-0.11626 0.75632s-0.84588 0.94891-1.1447 1.503c-0.42918 0.79583-0.89989 2.5575-0.89989 2.5575s-0.21929 1.1088-0.17232 1.6644c0.0414 0.49072 0.39662 1.4237 0.39662 1.4237l-0.30772 4.4188s-0.83896 2.0339 0.48414 3.6379c0.68431 0.82959 1.9445 1.6391 3.2331 1.9844 0.91769 0.24587 1.9105 0.18076 2.444 0.0643 0.75948-0.16568 1.1556-0.28434 1.4415-0.91907 0.13174-0.29251 0.16-0.93326 0.0821-1.3239-0.0577-0.28908-0.0383-0.59189-0.12447-0.878-0.22075-0.73283-0.57714-1.3553-0.57714-1.3553s1.2176-1.1462 1.7437-1.793c0.49898-0.61344 1.328-1.9666 1.328-1.9666s0.0606-0.0688 0.15456-0.12174c0.0766-0.0431 0.18066-0.0722 0.24752-0.0725 0.0658-1.9e-4 0.18494 0.0212 0.26122 0.063 0.099 0.054 0.14907 0.13261 0.14907 0.13261s0.75504 0.69075 1.3129 1.9242c0.32566 0.72004 0.44043 1.5092 0.78775 2.392 0.57343 1.4576 1.4008 3.0377 2.0624 4.0071 1.6808 2.4628 5.9916 6.6426 5.9916 6.6426l0.46089 1.2842c4e-3 2.6738 0.19396 4.5894 0.80143 7.3715-4.3083 1.2417-6.4816 2.6375-8.8403 3.9101-1.3508 1.1549-2.6912 2.1996-4.014 3.0484-1.4809 1.9016-0.95596 3.2003-0.59902 4.1986 0.19553 1.8913 0.32913 3.8718 0.1012 6.3772 0.98216 1.0914 2.2725 1.7492 4.0126 1.7766 0.94675 0.94169 2.0399 1.7439 3.3356 2.3537l4.0263-0.0807c0.9813 0.25831 1.9576 0.53172 2.8378 1.1338 1.3485 1.2633 2.6911 1.2252 3.8307 0.65372 0.27495-0.13788 0.40043-0.34297 0.67014-0.52653l-4.706-4.706c-1.4274 0.79863-2.2595 0.25883-2.8296-0.86845h-4.5091c-1.0146-0.30978-1.8726-1.0596-1.5495-2.578 0.90884-1.4299 1.4771-3.2664 1.7464-5.4596l11.287-2.2416c0.41812 1.7323 1.1136 2.896 1.849 3.9784-0.023 1.9593 0.63271 3.65 1.8258 5.13 2.2453 3.682 5.015 6.5354 4.9412 13.886-1.448 1.0004-2.5694 2.2292-3.4341 3.6379l8.3466 5e-3 -1e-3 -1.6535-1.4839-3.6406 1.4852-1.2596c-0.62481-1.8512-1.5457-4.0855-2.4549-6.5906-1.5665-4.3166-3.0992-9.4387-3.0266-14.796 1.6279 0.60866 7.7051 1.5168 11.578 1.2541 4.7251-0.32043 6.8262-0.49655 13.79-3.4232-0.71229 5.2838 1.1152 7.5239 2.6587 10.104-1.9633 4.0475-3.1146 7.2308-4.6198 10.791-1.5401 0.87766-2.3235 2.1338-2.6272 3.6297l-4.7115 3.4286-0.98059 1.3157h7.9268l-0.39251-1.9598v-1.5687h2.1567l6.5824-8.9071c0.86189-0.66856 1.7724-1.2642 2.9404-1.4839 0 0 0.0791-3.8632 0.0875-4.8277 9e-3 -1.0378 0.61031-1.8628 1.3143-2.2019 0.427-0.20564 1.3534-0.43792 1.6986-0.20643 1.5048 1.0087 4.0701 3.2303 4.0701 3.2303 1.1348 1.8048 2.1183 4.3436 2.9965 7.3948 0.58429 1.8231 1.6805 3.9135 4.7347 5.238l1.5687-0.0847c0.41785 0.72013 1.2528 1.1635 2.1526 0.90264 1.1721-0.33978 2.8329-0.96756 3.5326-1.2104l-2.6327-3.6133h-3.8376v-1.5126c-2.3589-3.1592-3.2022-6.6688-2.6108-10.51-2.7287-2.6669-3.1309-3.5501-3.3343-4.3477-0.13735-0.53858 0.76899-1.4048 2.2197-5.4199 0.78041-1.6413 1.3675-3.2387 1.3854-5.2791 0.0143-1.643-0.28285-3.5946-1.581-5.9246 0 0 2.7587-0.15985 3.9114 0.46909 1.1942 0.6516 2.7743 1.3069 3.8034 2.7284 1.1272 1.5572 1.6494 3.8594 1.6494 3.8594s0.44471 8.0566 2.7886 11.044c1.6133 2.056 4.2567 3.1962 7.31 3.7446 4.6052 0.82713 9.6855 0.12306 9.6855 0.12306 0 0-1.5105-0.38619-3.1756-1.2527-1.6351-0.85084-3.4166-2.1725-4.3627-3.2741-3.6799-4.2847-3.8052-9.4584-6.3362-15.491-1.7986-4.287-10.402-9.9231-18.131-4.5829-1.5884-1.8043-4.1356-2.8228-7.0843-3.404-4.7308-0.93243-9.2014-1.538-14.962-0.8917l4.3723-2.3715c0.87813-0.72577 1.1365-1.6112 0.98058-2.604l-6.3772-16.178s-0.70967-0.9456-1.1037-1.3567c-1.1912-0.90172-2.3721-1.3372-3.5422-1.3307zm-5.0534 12.451 4.9016 6.6658-10.208 5.2599-0.1559 5e-3 -4.1863-3.8157z" fill="#fff" style="paint-order:stroke fill markers"/><path d="m187.37 57.687-103.97 103.97a73.986 74.037 0 0 0 15.394 14.54l103.11-103.11c3e-5 -0.0048-3e-5 -0.0085 0-0.01244a73.986 74.037 0 0 0-14.48-15.378c-0.0185-0.0026-0.0344-0.0079-0.0529-0.01058z" fill="#ee252c" style="paint-order:stroke markers fill"/></g></svg>