<?xml version="1.0" encoding="UTF-8" standalone="no"?>
<svg
   xmlns:dc="http://purl.org/dc/elements/1.1/"
   xmlns:cc="http://creativecommons.org/ns#"
   xmlns:rdf="http://www.w3.org/1999/02/22-rdf-syntax-ns#"
   xmlns:svg="http://www.w3.org/2000/svg"
   xmlns="http://www.w3.org/2000/svg"
   xmlns:sodipodi="http://sodipodi.sourceforge.net/DTD/sodipodi-0.dtd"
   xmlns:inkscape="http://www.inkscape.org/namespaces/inkscape"
   sodipodi:docname="tt38.svg"
   inkscape:version="1.0 (4035a4fb49, 2020-05-01)"
   id="svg26953"
   version="1.1"
   viewBox="0 0 158.75 158.74968"
   height="158.74968mm"
   width="158.75mm">
  <defs
     id="defs26947" />
  <sodipodi:namedview
     inkscape:window-maximized="1"
     inkscape:window-y="-9"
     inkscape:window-x="-9"
     inkscape:window-height="1001"
     inkscape:window-width="1920"
     showgrid="false"
     inkscape:document-rotation="0"
     inkscape:current-layer="layer1"
     inkscape:document-units="mm"
     inkscape:cy="269.58858"
     inkscape:cx="276.58509"
     inkscape:zoom="0.98994949"
     inkscape:pageshadow="2"
     inkscape:pageopacity="0.0"
     borderopacity="1.0"
     bordercolor="#666666"
     pagecolor="#ffffff"
     id="base" />
  <metadata
     id="metadata26950">
    <rdf:RDF>
      <cc:Work
         rdf:about="">
        <dc:format>image/svg+xml</dc:format>
        <dc:type
           rdf:resource="http://purl.org/dc/dcmitype/StillImage" />
        <dc:title />
      </cc:Work>
    </rdf:RDF>
  </metadata>
  <g
     transform="translate(-61.988095,-36.285874)"
     id="layer1"
     inkscape:groupmode="layer"
     inkscape:label="Layer 1">
    <path
       d="M 61.988095,115.6608 A 79.374968,79.374844 0 0 0 141.36304,195.03555 79.374968,79.374844 0 0 0 220.7381,115.6608 79.374968,79.374844 0 0 0 141.36304,36.285874 79.374968,79.374844 0 0 0 61.988095,115.6608"
       style="opacity:1;fill:#00408c;fill-opacity:1;fill-rule:evenodd;stroke-width:0;stroke-linecap:square;stroke-linejoin:round;paint-order:fill markers stroke"
       id="path13683-3" />
    <path
       id="path13685-3"
       d="m 141.36968,38.954197 c 42.34488,0 76.70044,34.355564 76.70044,76.700303 0,42.34468 -34.35556,76.70014 -76.70044,76.70014 -42.344707,0 -76.700351,-34.35546 -76.700351,-76.70014 0,-42.344739 34.355644,-76.700303 76.700351,-76.700303 z m 0,2.640277 c -40.91789,0 -74.060047,33.142052 -74.060047,74.060026 0,40.91786 33.142157,74.05988 74.060047,74.05988 40.91811,0 74.06016,-33.14202 74.06016,-74.05988 0,-40.917974 -33.14205,-74.060026 -74.06016,-74.060026 z"
       style="color:#000000;font-style:normal;font-variant:normal;font-weight:normal;font-stretch:normal;font-size:medium;line-height:normal;font-family:sans-serif;font-variant-ligatures:normal;font-variant-position:normal;font-variant-caps:normal;font-variant-numeric:normal;font-variant-alternates:normal;font-variant-east-asian:normal;font-feature-settings:normal;font-variation-settings:normal;text-indent:0;text-align:start;text-decoration:none;text-decoration-line:none;text-decoration-style:solid;text-decoration-color:#000000;letter-spacing:normal;word-spacing:normal;text-transform:none;writing-mode:lr-tb;direction:ltr;text-orientation:mixed;dominant-baseline:auto;baseline-shift:baseline;text-anchor:start;white-space:normal;shape-padding:0;shape-margin:0;inline-size:0;clip-rule:nonzero;display:inline;overflow:visible;visibility:visible;opacity:1;isolation:auto;mix-blend-mode:normal;color-interpolation:sRGB;color-interpolation-filters:linearRGB;solid-color:#000000;solid-opacity:1;vector-effect:none;fill:#ffffff;fill-opacity:1;fill-rule:evenodd;stroke:none;stroke-width:0.264583;stroke-linecap:square;stroke-linejoin:round;stroke-miterlimit:4;stroke-dasharray:none;stroke-dashoffset:0;stroke-opacity:1;paint-order:stroke markers fill;color-rendering:auto;image-rendering:auto;shape-rendering:auto;text-rendering:auto;enable-background:accumulate;stop-color:#000000;stop-opacity:1" />
    <path
       d="m 136.9785,73.316613 a 4.8498638,4.8498638 0 0 0 -4.82498,4.849612 4.8498638,4.8498638 0 0 0 4.85096,4.849579 4.8498638,4.8498638 0 0 0 4.8496,-4.849579 4.8498638,4.8498638 0 0 0 -4.8496,-4.849612 4.8498638,4.8498638 0 0 0 -0.0259,0 z m 4.70463,10.772781 c -1.17202,0.008 -2.29041,0.365331 -3.48607,1.3307 -3.09272,3.296902 -9.2831,10.841562 -14.14535,16.564686 l -0.16687,-0.15191 c 0,0 -10.49587,-9.596966 -10.67568,-9.725186 -2.77913,-1.981499 -4.38538,-2.69127 -7.02959,-3.287771 -1.12125,-0.253007 -3.187,-0.665569 -4.63626,-0.288578 -1.678415,0.436621 -2.670975,1.69449 -2.670975,1.69449 l -4.87285,-3.517519 -0.841089,-0.280371 c 0,0 -0.205,-0.156411 -0.433541,-0.180491 -0.128379,-0.0132 -0.284211,0.063 -0.365149,0.114861 -0.086,0.0553 -0.197879,0.178109 -0.233871,0.310441 -0.0453,0.167518 -0.003,0.343278 -0.003,0.343278 l 0.0561,0.25168 c 0,0 -0.0011,0.39507 0.0274,0.58946 0.0438,0.293441 0.1577,0.648469 0.244801,1.022982 0.0558,0.240038 0.19169,0.465079 0.295399,0.701588 0.220451,0.50266 0.452602,0.997852 0.556631,1.38403 0.11285,0.41892 -0.116261,0.756322 -0.116261,0.756322 0,0 -0.845878,0.948909 -1.144709,1.503008 -0.429181,0.795829 -0.89989,2.55746 -0.89989,2.55746 0,0 -0.21929,1.10881 -0.172321,1.664401 0.0414,0.49072 0.396621,1.423691 0.396621,1.423691 l -0.307721,4.418804 c 0,0 -0.838959,2.03389 0.48414,3.63789 0.68431,0.82959 1.944492,1.63912 3.233071,1.98443 0.917691,0.24587 1.910511,0.18076 2.443951,0.0643 0.759478,-0.16568 1.155628,-0.28434 1.441479,-0.91907 0.131741,-0.29251 0.160001,-0.93326 0.0821,-1.32386 -0.0577,-0.28908 -0.0383,-0.59189 -0.124471,-0.878 -0.220749,-0.73283 -0.577138,-1.35532 -0.577138,-1.35532 0,0 1.21756,-1.14616 1.743729,-1.79296 0.498984,-0.61344 1.327964,-1.96665 1.327964,-1.96665 0,0 0.0606,-0.0688 0.15456,-0.12174 0.0766,-0.0431 0.18066,-0.0722 0.24752,-0.0725 0.0658,-1.9e-4 0.18494,0.0212 0.26122,0.063 0.099,0.054 0.14907,0.13261 0.14907,0.13261 0,0 0.75504,0.69075 1.31293,1.92424 0.32566,0.72004 0.44043,1.50918 0.78775,2.39199 0.57343,1.45756 1.40075,3.0377 2.06238,4.00713 1.68082,2.46285 5.99157,6.64259 5.99157,6.64259 l 0.46089,1.28418 c 0.004,2.67382 0.19396,4.58936 0.80143,7.37148 -4.30828,1.24168 -6.48164,2.63747 -8.84034,3.91008 -1.35083,1.15494 -2.6912,2.1996 -4.01398,3.04842 -1.480855,1.90163 -0.955964,3.20027 -0.599023,4.19862 0.195533,1.89126 0.329133,3.87181 0.101198,6.37723 0.982155,1.09137 2.272495,1.74919 4.012625,1.77655 0.94675,0.94169 2.03992,1.74388 3.33564,2.35369 l 4.02629,-0.0807 c 0.9813,0.25831 1.9576,0.53172 2.83782,1.13378 1.34851,1.26326 2.69106,1.22518 3.83072,0.65372 0.27495,-0.13788 0.40043,-0.34297 0.67014,-0.52653 l -4.70601,-4.70601 c -1.42745,0.79863 -2.25951,0.25883 -2.82961,-0.86845 h -4.50908 c -1.01456,-0.30978 -1.8726,-1.05957 -1.54951,-2.57798 0.90884,-1.42991 1.47711,-3.26638 1.74645,-5.45956 l 11.28704,-2.24155 c 0.41812,1.73232 1.11356,2.89601 1.84902,3.97844 -0.023,1.95932 0.63271,3.64999 1.82578,5.12995 2.24534,3.68195 5.015,6.53539 4.94124,13.88551 -1.44804,1.00036 -2.56941,2.22922 -3.43411,3.63789 l 8.34662,0.005 -0.001,-1.65346 -1.48387,-3.64061 1.48524,-1.25958 c -0.62481,-1.85125 -1.54574,-4.08549 -2.45489,-6.59061 -1.56654,-4.31656 -3.09919,-9.43869 -3.02656,-14.79632 1.62787,0.60866 7.70511,1.51677 11.57833,1.25409 4.72511,-0.32043 6.82621,-0.49655 13.78977,-3.42316 -0.71229,5.2838 1.1152,7.52393 2.65866,10.10402 -1.96332,4.0475 -3.11461,7.23084 -4.61984,10.79056 -1.54006,0.87766 -2.32352,2.13383 -2.62721,3.62967 l -4.71147,3.42864 -0.98059,1.31567 h 7.92676 l -0.39251,-1.9598 v -1.56867 h 2.15674 l 6.58243,-8.90711 c 0.86189,-0.66856 1.77244,-1.26419 2.94039,-1.48387 0,0 0.0791,-3.86315 0.0875,-4.82771 0.009,-1.03777 0.61031,-1.86282 1.31428,-2.2019 0.427,-0.20564 1.35337,-0.43792 1.69859,-0.20643 1.50484,1.00873 4.07007,3.23034 4.07006,3.23034 1.13484,1.80482 2.11832,4.34358 2.99647,7.39477 0.58429,1.82308 1.68046,3.91352 4.73472,5.23798 l 1.56867,-0.0847 c 0.41785,0.72013 1.25285,1.16348 2.15264,0.90264 1.17208,-0.33978 2.83287,-0.96756 3.53258,-1.21035 l -2.63268,-3.61328 h -3.83756 v -1.51258 c -2.35892,-3.15921 -3.20225,-6.66876 -2.61079,-10.51023 -2.72874,-2.66689 -3.13089,-3.55007 -3.33428,-4.34768 -0.13735,-0.53858 0.76899,-1.40481 2.21966,-5.41987 0.78041,-1.64134 1.36747,-3.23866 1.3854,-5.27906 0.0143,-1.64299 -0.28285,-3.59461 -1.58097,-5.92455 0,0 2.75873,-0.15985 3.91141,0.46909 1.19418,0.6516 2.77432,1.30687 3.80337,2.72842 1.12724,1.55719 1.64936,3.85942 1.64936,3.85942 0,0 0.44471,8.05657 2.78858,11.04361 1.61329,2.05595 4.25672,3.19618 7.30996,3.74455 4.60522,0.82713 9.68554,0.12306 9.68553,0.12306 0,0 -1.51048,-0.38619 -3.17562,-1.25274 -1.63507,-0.85084 -3.41662,-2.17246 -4.36273,-3.27406 -3.67989,-4.28474 -3.80518,-9.45835 -6.33621,-15.4911 -1.79861,-4.287 -10.40222,-9.9231 -18.13062,-4.58291 -1.5884,-1.80433 -4.13556,-2.82285 -7.0843,-3.40402 -4.73075,-0.93243 -9.20137,-1.53802 -14.96182,-0.8917 l 4.3723,-2.37147 c 0.87813,-0.72577 1.13654,-1.61119 0.98058,-2.60396 l -6.37724,-16.177624 c 0,0 -0.70967,-0.945603 -1.10367,-1.356691 -1.19119,-0.901721 -2.37209,-1.337231 -3.54216,-1.330719 z m -5.05337,12.450892 4.90157,6.665784 -10.20796,5.25989 -0.1559,0.005 -4.1863,-3.81567 z"
       style="opacity:1;fill:#ffffff;fill-opacity:1;fill-rule:evenodd;stroke:none;stroke-width:0.635;stroke-linecap:square;stroke-linejoin:round;paint-order:stroke fill markers"
       id="rect27859" />
    <path
       d="M 187.37425,57.686829 83.408576,161.65389 a 73.986028,74.037105 0 0 0 15.393512,14.54029 L 201.90773,73.088543 c 3e-5,-0.0048 -3e-5,-0.0085 0,-0.01244 A 73.986028,74.037105 0 0 0 187.42761,57.697624 c -0.0185,-0.0026 -0.0344,-0.0079 -0.0529,-0.01058 z"
       style="opacity:1;fill:#ee252c;fill-opacity:1;fill-rule:evenodd;stroke:none;stroke-width:0.264583;stroke-linecap:square;stroke-linejoin:round;stroke-miterlimit:4;stroke-dasharray:none;stroke-opacity:1;paint-order:stroke markers fill"
       id="path26895" />
  </g>
</svg>
