<svg xmlns="http://www.w3.org/2000/svg" viewBox="0 0 519.46 519.46"><defs><style>.cls-1{fill:#00408c;}.cls-1,.cls-2{fill-rule:evenodd;}.cls-2,.cls-3{fill:#fff;}</style></defs><title>Asset 1</title><g id="Layer_2" data-name="Layer 2"><g id="Layer_1-2" data-name="Layer 1"><g id="layer1"><path id="path13683" class="cls-1" d="M0,259.73C0,403.18,116.29,519.46,259.73,519.46h0c143.45,0,259.73-116.28,259.73-259.73h0C519.46,116.29,403.18,0,259.73,0S0,116.29,0,259.73H0"/><path id="path13685" class="cls-2" d="M259.75,8.73c138.56,0,251,112.42,251,251s-112.42,251-251,251-251-112.42-251-251S121.19,8.73,259.75,8.73Zm0,8.64c-133.89,0-242.34,108.45-242.34,242.34S125.86,502.05,259.75,502.05,502.09,393.6,502.09,259.71,393.65,17.37,259.75,17.37Z"/></g><path class="cls-3" d="M170.42,129.41h0A64.71,64.71,0,0,0,107,190l0,.11a1.08,1.08,0,0,0,1.08,1.08h37a1.08,1.08,0,0,0,1.07-.91l.05,0a25.62,25.62,0,0,1,50.93,4.43,1.31,1.31,0,0,0,0,.34,28.65,28.65,0,0,1-16.68,28.08H152.7v44h23.13a57.38,57.38,0,0,1,25.39,62.81.22.22,0,0,0,0,.08,33.7,33.7,0,0,1-37.34,22.79h0a33.74,33.74,0,0,1-28.46-33.39c0-.14-.11-.23-.14-.35a1.63,1.63,0,0,0-.09-.19,1.12,1.12,0,0,0-.19-.29,1.1,1.1,0,0,0-.77-.3H97.54a1.09,1.09,0,0,0-1.09.95,1.45,1.45,0,0,0-.17.18,72.9,72.9,0,0,0,145.8.07v0h0v-.05a96.57,96.57,0,0,0-28.33-71.85,67.71,67.71,0,0,0,22.55-53.18c0-.06.06-.09.06-.15a64.75,64.75,0,0,0-62.66-64.67h0c-1.1,0-2.18,0-3.26,0Z"/><path class="cls-3" d="M423,249c-1-36.64-4.92-61.08-12.65-78.35A70.68,70.68,0,0,0,394.68,148c-10.52-10-24.18-15.59-41.32-17-3.21-.27-6.32-.39-9.27-.37h0a72.89,72.89,0,0,0-8.27.49,54.25,54.25,0,0,0-32.46,15.36Q276,173.29,273.68,245.56c-.27,8.68-.26,18.67,0,27.15,1.09,31.16,5.85,56.49,14.23,75.66a67.31,67.31,0,0,0,8.32,14.55,74.11,74.11,0,0,0,32,23.89,60.28,60.28,0,0,0,19.52,4.24c1.2.05,3.64,0,5.28-.09a68.64,68.64,0,0,0,31.66-9.74,65.49,65.49,0,0,0,22.47-22.67,76,76,0,0,0,6.8-15.09c5.15-15.28,8.12-35.9,8.94-62,.18-5.46.22-8.73.22-15.67S423.13,255.24,423,249Zm-38.1,34.81c-.62,16.9-2.55,29.4-5.93,38.43-.46,1.23-.92,2.3-2.72,6.35-3.1,7-5.11,10.8-7.21,13.61-4.17,5.56-9.19,8-17.39,8.37-.73,0-3.43.05-4.14,0a36.66,36.66,0,0,1-7.64-1c-5.66-1.39-9.35-4.32-12.17-9.68a59.69,59.69,0,0,1-3.48-8.45c-.55-1.58-2.87-8.57-3.26-9.81-3.71-11.88-5.94-25.87-6.86-43.13-.58-11-.64-24.15-.16-35.56,1-22.69,4-40.55,9-52.82a42.78,42.78,0,0,1,6-10.69c3.83-4.57,8.91-7,16.16-7.61,1.52-.14,3.19-.21,4.82-.22h0c1.63,0,3.22,0,4.6.17,6.41.58,11.13,2.53,14.68,6.08a26.71,26.71,0,0,1,5.55,8.77c5.48,12.77,8.67,30.64,9.84,55.28.4,8.26.55,15.92.55,26.81C385.08,276.48,385.05,278.82,384.86,283.82Z"/></g></g></svg>