<svg width="1017.2" height="523.38" viewBox="0 0 1017.2 523.38" xmlns="http://www.w3.org/2000/svg"><defs><style>.cls-1{fill:#00408c;}.cls-1,.cls-3,.cls-4{fill-rule:evenodd;}.cls-2,.cls-3{fill:#fff;}</style></defs><g data-name="Layer 2"><g data-name="Layer 1"><g data-name="Layer 2"><path class="cls-1" d="M21.33,0H305.51a21.28,21.28,0,0,1,21.33,21.23V502.05a21.29,21.29,0,0,1-21.24,21.33H21.33A21.29,21.29,0,0,1,0,502.14V21.33A21.28,21.28,0,0,1,21.23,0Z"/><path class="cls-2" d="M19.34,517.1A14.9,14.9,0,0,1,6.55,504.16c-.17-1.38-.17-483.13,0-484.53a14.72,14.72,0,0,1,3.38-7.76,15.11,15.11,0,0,1,8.39-5c.86-.21,6.45-.21,144.76-.25,102.33,0,143.58,0,144.37.09a14.82,14.82,0,0,1,13.1,13c.17,1.37.17,483.12,0,484.53A14.83,14.83,0,0,1,307.6,517.1c-1.26.16-287,.15-288.26,0Zm288.83-5a10.26,10.26,0,0,0,7.33-7.39l.27-1.05V20.16l-.27-1.06a10.07,10.07,0,0,0-7.33-7.38l-1.1-.28H163.93c-136,0-143.83,0-144.7.2a9.87,9.87,0,0,0-5,2.76,10.16,10.16,0,0,0-2.76,4.87c-.19.75-.21,9.29-.24,145.87,0,96.09,0,337.26.08,338a9.29,9.29,0,0,0,1,3.65,10,10,0,0,0,7.85,5.48c.42,0,65.3.08,144.18.07H307.15Z"/><rect class="cls-2" x="44.65" y="38.79" width="237.55" height="445.8"/><path class="cls-1" d="m84.92 388.8a78.49 78.49 0 0 0 78.49 78.49 78.49 78.49 0 0 0 78.49-78.49 78.49 78.49 0 0 0-157 0"/><path class="cls-3" d="M170.07,355.32a1.45,1.45,0,0,1,.77.24l49.73,33.3-49.79,33.43a1.27,1.27,0,0,1-2-1.38L174,398H104.09l0-18.12H174l-5.18-22.92a1.26,1.26,0,0,1,1.22-1.62Z"/><path class="cls-3" d="m163.42 312.94a75.85 75.85 0 1 1-75.85 75.85 75.88 75.88 0 0 1 75.85-75.85zm0 2.62a73.24 73.24 0 1 0 73.24 73.23 73.21 73.21 0 0 0-73.24-73.23z"/></g><rect x="115.62" y="52.37" width="152.67" height="71.18"/><path class="cls-4" d="M109.31,129.94V76.4H71.36L58.54,108.77v36.36h7.75a19.13,19.13,0,0,1,.76-5.36,23,23,0,0,1,4.33-8.14,20.56,20.56,0,0,1,7.42-5.28,21,21,0,0,1,8.13-2.06,15.23,15.23,0,0,1,6,1c3.82,1.49,7.79,3.46,10.32,6.69a22.63,22.63,0,0,1,4,8.16,20.14,20.14,0,0,1,.64,5h93.75s.06-1.1.29-2.75a22.3,22.3,0,0,1,1.25-4.87,24.67,24.67,0,0,1,2.63-4.66,25.28,25.28,0,0,1,1.91-2.28c.38-.4.62-.63.62-.63Zm-6.46-24.08H65.16l8.15-20.61h29.54Z"/><path class="cls-4" d="M236.7,129.94a22.77,22.77,0,0,1,5.16,7.58,22.66,22.66,0,0,1,1.26,4.85,18.62,18.62,0,0,1,.19,3l25-8.12v-7.32Z"/><path class="cls-4" d="m87.13 129.4a15.72 15.72 0 1 0 15.74 15.71 15.79 15.79 0 0 0-15.74-15.71zm0 22.71a7 7 0 0 1 0-14 7 7 0 0 1 0 14z"/><path class="cls-4" d="m222.48 129.4a15.72 15.72 0 1 0 15.75 15.71 15.8 15.8 0 0 0-15.75-15.71zm0 22.71a7 7 0 1 1 7-7 6.92 6.92 0 0 1-7 7z"/><path class="cls-4" d="m65.76 176.6a113.6 113.6 0 0 0-7.22 40.07 115.74 115.74 0 0 0 1 15.47h207.15a89.89 89.89 0 0 0 1.6-16.88 86.88 86.88 0 0 0-8.92-38.66h-101.37v51.07h-41.95v-51.07zm19.62 60.13a13 13 0 0 0 0 25.9 13 13 0 0 0 13-12.95 13 13 0 0 0-13-13zm108.88 0a13 13 0 0 0 0 25.9 13 13 0 0 0 13-12.95 13 13 0 0 0-13-13zm-133.84 0v0.73a111.76 111.76 0 0 0 2.76 11.56h5.48a17 17 0 0 1 6-12.29zm35.78 0a17 17 0 0 1 6 12.29h13.8v-12.26zm61.76 0v12.31h19.58a17 17 0 0 1 6-12.31zm47.14 0a17 17 0 0 1 6 12.31h50.5a84.12 84.12 0 0 0 3.92-11.7v-0.61zm-119.66 7.55a5.39 5.39 0 0 1 5.39 5.39 5.39 5.39 0 1 1-5.39-5.39zm108.87 0a5.39 5.39 0 0 1 5.39 5.39 5.39 5.39 0 1 1-5.39-5.39z"/><g data-name="Layer 2"><g data-name="svg2"><g data-name="g8435"><path class="cls-1" d="M366.49,0H650.67A21.28,21.28,0,0,1,672,21.23V502.05a21.28,21.28,0,0,1-21.23,21.33H366.49a21.28,21.28,0,0,1-21.32-21.24V21.33A21.28,21.28,0,0,1,366.4,0Z" data-name="rect9000"/><path class="cls-2" d="M364.51,517.1a14.92,14.92,0,0,1-12.8-12.94c-.17-1.38-.17-483.13,0-484.53a14.8,14.8,0,0,1,3.38-7.76,15.14,15.14,0,0,1,8.4-5c.85-.21,6.44-.21,144.76-.25,102.33,0,143.57,0,144.37.09a14.81,14.81,0,0,1,13.09,13c.18,1.37.18,483.12,0,484.53a14.83,14.83,0,0,1-13,12.94c-1.25.16-287,.15-288.25,0Zm288.82-5a10.27,10.27,0,0,0,7.34-7.39l.27-1.05V20.16l-.27-1.06a10.08,10.08,0,0,0-7.34-7.38l-1.1-.28H509.09c-136,0-143.82,0-144.69.2a9.9,9.9,0,0,0-5,2.76,10.14,10.14,0,0,0-2.75,4.87c-.2.75-.21,9.29-.24,145.87,0,96.09,0,337.26.08,338a9.29,9.29,0,0,0,1,3.65,10,10,0,0,0,7.84,5.48c.42,0,65.31.08,144.19.07H652.31Z" data-name="path9038"/></g><rect class="cls-2" x="389.81" y="38.79" width="237.55" height="445.8"/><g data-name="layer1"><g data-name="layer1-9"><path class="cls-1" d="m453.07 444.3a78.49 78.49 0 0 0 111 0 78.49 78.49 0 0 0 0-111 78.49 78.49 0 0 0-111 111" data-name="path13683-5"/><path class="cls-3" d="M489.61,360.42a1.47,1.47,0,0,1,.72-.38L549,348.43l-11.56,58.84a1.27,1.27,0,0,1-2.37.42L522.56,387.8l-6.31,6.31-43.13,43.14h0l-12.79-12.83,43.12-43.12,6.32-6.33-19.88-12.55a1.26,1.26,0,0,1-.28-2Z" data-name="rect45018-4"/><path class="cls-3" d="m454.94 335.16a75.85 75.85 0 1 1 0 107.26 75.87 75.87 0 0 1 0-107.26zm1.85 1.84a73.24 73.24 0 1 0 103.57 0 73.23 73.23 0 0 0-103.57 0z" data-name="path13685-1"/></g></g></g></g><rect x="468.95" y="122.57" width="126.58" height="59.02"/><path class="cls-4" d="M463.73,186.89V142.5H432.26l-10.63,26.83v30.15h6.42a15.93,15.93,0,0,1,.64-4.45,19.07,19.07,0,0,1,3.58-6.75,17.18,17.18,0,0,1,6.16-4.37,17.43,17.43,0,0,1,6.74-1.71,12.58,12.58,0,0,1,5,.85c3.17,1.24,6.47,2.87,8.56,5.55a18.79,18.79,0,0,1,3.31,6.77,16.41,16.41,0,0,1,.54,4.11H540.3s.06-.91.24-2.29a19.39,19.39,0,0,1,1-4,19.18,19.18,0,0,1,3.77-5.75c.31-.33.52-.52.52-.52Zm-5.36-20H427.12l6.76-17.09h24.49Z"/><path class="cls-4" d="M569.34,186.89a18.78,18.78,0,0,1,4.28,6.28,18.38,18.38,0,0,1,1,4,15.51,15.51,0,0,1,.16,2.5L595.54,193v-6.06Z"/><path class="cls-4" d="m445.33 186.43a13 13 0 1 0 13.06 13 13.1 13.1 0 0 0-13.06-13zm0 18.84a5.8 5.8 0 0 1 0-11.6 5.8 5.8 0 0 1 0 11.6z"/><path class="cls-4" d="m557.55 186.43a13 13 0 1 0 13.06 13 13.1 13.1 0 0 0-13.06-13zm0 18.84a5.8 5.8 0 1 1 5.78-5.8 5.74 5.74 0 0 1-5.78 5.8z"/><path class="cls-4" d="m427.62 225.57a94 94 0 0 0-6 33.22 96.34 96.34 0 0 0 0.86 12.83h171.73a75.19 75.19 0 0 0 1.33-14 72.24 72.24 0 0 0-7.4-32.06h-84.08v42.35h-34.75v-42.34zm16.27 49.86a10.74 10.74 0 0 0 0 21.47 10.74 10.74 0 0 0 10.74-10.74 10.73 10.73 0 0 0-10.74-10.73zm90.26 0a10.74 10.74 0 0 0 0 21.47 10.74 10.74 0 0 0 10.74-10.74 10.73 10.73 0 0 0-10.74-10.73zm-111 0v0.61a95.39 95.39 0 0 0 2.28 9.58h4.57a14.11 14.11 0 0 1 5-10.19zm29.67 0a14.15 14.15 0 0 1 5 10.19h11.48v-10.17zm51.2 0v10.2h16.28a14.06 14.06 0 0 1 5-10.2zm39.08 0a14.13 14.13 0 0 1 5 10.2h41.9a70.34 70.34 0 0 0 3.25-9.7v-0.5zm-99.21 6.24a4.47 4.47 0 0 1 4.47 4.46 4.47 4.47 0 1 1-4.47-4.46zm90.27 0a4.47 4.47 0 0 1 4.47 4.46 4.47 4.47 0 1 1-4.47-4.46z" data-name="rect9665"/><path class="cls-4" d="M425.75,56.3l-1.23,23.55L421.7,103.4H438a13.34,13.34,0,0,1-.11-1.79,14.38,14.38,0,0,1,14.35-14.39h0a14.38,14.38,0,0,1,14.37,14.39,15.22,15.22,0,0,1-.11,1.79H538a13.34,13.34,0,0,1-.11-1.79,14.38,14.38,0,0,1,14.35-14.39h0a14.38,14.38,0,0,1,14.37,14.39c0,.47,0,.94-.07,1.41h0l28.85-2.1V74.58L589.86,56.3ZM428,60.52h15.41V76.68H427.31Zm18.74,0h25.32V76.68H446.76Zm28.64,0h25.24V76.68H475.4Zm28.57,0h25.32V76.68H504Zm28.65,0H558V76.68H532.62Zm28.66,0h25.35l5,16.16H561.28Zm-109,29.89a11.25,11.25,0,1,0,11.25,11.25A11.24,11.24,0,0,0,452.27,90.41Zm100,0a11.25,11.25,0,1,0,11.25,11.25A11.24,11.24,0,0,0,552.3,90.41Zm-100.06,7a4.23,4.23,0,1,1-4.23,4.23,4.23,4.23,0,0,1,4.23-4.23Zm100.07,0a4.23,4.23,0,1,1-4.23,4.23,4.23,4.23,0,0,1,4.23-4.23Z"/><g data-name="Layer 2"><g data-name="svg2"><g data-name="g8435"><path class="cls-1" d="M711.66,0H995.84a21.28,21.28,0,0,1,21.33,21.23V502.05a21.29,21.29,0,0,1-21.23,21.33H711.66a21.29,21.29,0,0,1-21.33-21.24V21.33A21.28,21.28,0,0,1,711.56,0Z" data-name="rect9000"/><path class="cls-2" d="M709.67,517.1a14.91,14.91,0,0,1-12.79-12.94c-.17-1.38-.17-483.13,0-484.53a14.72,14.72,0,0,1,3.38-7.76,15.11,15.11,0,0,1,8.39-5c.86-.21,6.45-.21,144.76-.25,102.33,0,143.58,0,144.37.09a14.82,14.82,0,0,1,13.1,13c.17,1.37.17,483.12,0,484.53a14.83,14.83,0,0,1-13,12.94c-1.26.16-287,.15-288.26,0Zm288.83-5a10.24,10.24,0,0,0,7.33-7.39l.27-1.05V20.16l-.27-1.06a10.07,10.07,0,0,0-7.33-7.38l-1.1-.28H854.26c-136,0-143.83,0-144.7.2a9.91,9.91,0,0,0-5,2.76,10.16,10.16,0,0,0-2.76,4.87c-.19.75-.2,9.29-.24,145.87,0,96.09,0,337.26.08,338a9.29,9.29,0,0,0,1,3.65,10,10,0,0,0,7.85,5.48c.42,0,65.3.08,144.18.07H997.48Z" data-name="path9038"/></g><rect class="cls-2" x="734.98" y="38.79" width="237.55" height="445.8"/><g data-name="layer1"><g data-name="layer1-9"><path class="cls-1" d="m853.74 467.29a78.5 78.5 0 0 0 78.5-78.49 78.5 78.5 0 0 0-78.5-78.49 78.49 78.49 0 0 0 0 157" data-name="path13683-5"/><path class="cls-3" d="m820.26 382.14a1.45 1.45 0 0 1 0.24-0.77l33.3-49.73 33.43 49.79a1.27 1.27 0 0 1-1.37 2l-22.94-5.2v69.92h-18.11v-69.97l-22.93 5.18a1.26 1.26 0 0 1-1.62-1.22z" data-name="rect45018-4"/><path class="cls-3" d="m777.89 388.79a75.85 75.85 0 1 1 75.85 75.85 75.87 75.87 0 0 1-75.85-75.85zm2.61 0a73.24 73.24 0 1 0 73.24-73.24 73.21 73.21 0 0 0-73.24 73.24z" data-name="path13685-1"/></g></g></g></g><rect x="805.95" y="103.27" width="152.67" height="71.18"/><path class="cls-4" d="M799.64,180.84V127.3H761.69l-12.82,32.37V196h7.75a19.09,19.09,0,0,1,.76-5.36,22.88,22.88,0,0,1,4.33-8.14,20.44,20.44,0,0,1,7.42-5.28,21,21,0,0,1,8.13-2.06,15.22,15.22,0,0,1,6,1c3.82,1.49,7.79,3.46,10.32,6.7a22.63,22.63,0,0,1,4,8.16,20.14,20.14,0,0,1,.64,5H892s.06-1.11.29-2.76a22.35,22.35,0,0,1,1.25-4.86,22.72,22.72,0,0,1,4.54-6.94c.38-.4.63-.63.63-.63Zm-6.46-24.08H755.49l8.15-20.61h29.54Z"/><path class="cls-4" d="M927,180.84a22.85,22.85,0,0,1,5.16,7.57,22.92,22.92,0,0,1,1.26,4.86,18.58,18.58,0,0,1,.19,3l25-8.13v-7.31Z"/><path class="cls-4" d="m777.46 180.29a15.72 15.72 0 1 0 15.74 15.71 15.79 15.79 0 0 0-15.74-15.71zm0 22.72a7 7 0 0 1 0-14 7 7 0 0 1 0 14z"/><path class="cls-4" d="m912.81 180.29a15.72 15.72 0 1 0 15.75 15.71 15.8 15.8 0 0 0-15.75-15.71zm0 22.72a7 7 0 1 1 7-7 6.92 6.92 0 0 1-7 6.99z"/></g></g></svg>