<?xml version="1.0" encoding="UTF-8" standalone="no"?>
<svg
   xmlns:dc="http://purl.org/dc/elements/1.1/"
   xmlns:cc="http://creativecommons.org/ns#"
   xmlns:rdf="http://www.w3.org/1999/02/22-rdf-syntax-ns#"
   xmlns:svg="http://www.w3.org/2000/svg"
   xmlns="http://www.w3.org/2000/svg"
   xmlns:sodipodi="http://sodipodi.sourceforge.net/DTD/sodipodi-0.dtd"
   xmlns:inkscape="http://www.inkscape.org/namespaces/inkscape"
   width="158.75mm"
   height="158.75mm"
   viewBox="0 0 158.75 158.75"
   version="1.1"
   id="svg13091"
   inkscape:version="1.0 (4035a4fb49, 2020-05-01)"
   sodipodi:docname="tt37.svg">
  <defs
     id="defs13085">
    <clipPath
       clipPathUnits="userSpaceOnUse"
       id="clipPath53731">
      <path
         d="M 85.039,420.945 H 510.236 V 733.818 H 85.039 Z"
         id="path53729" />
    </clipPath>
    <clipPath
       clipPathUnits="userSpaceOnUse"
       id="clipPath54467">
      <path
         d="M 85.039,420.945 H 510.236 V 733.818 H 85.039 Z"
         id="path54465" />
    </clipPath>
    <clipPath
       clipPathUnits="userSpaceOnUse"
       id="clipPath54483">
      <path
         d="M 85.039,420.945 H 510.236 V 733.818 H 85.039 Z"
         id="path54481" />
    </clipPath>
    <clipPath
       clipPathUnits="userSpaceOnUse"
       id="clipPath54531">
      <path
         d="M 85.039,420.945 H 510.236 V 733.818 H 85.039 Z"
         id="path54529" />
    </clipPath>
    <clipPath
       clipPathUnits="userSpaceOnUse"
       id="clipPath54555">
      <path
         d="M 85.039,420.945 H 510.236 V 733.818 H 85.039 Z"
         id="path54553" />
    </clipPath>
    <clipPath
       clipPathUnits="userSpaceOnUse"
       id="clipPath54579">
      <path
         d="M 85.039,420.945 H 510.236 V 733.818 H 85.039 Z"
         id="path54577" />
    </clipPath>
    <clipPath
       clipPathUnits="userSpaceOnUse"
       id="clipPath54623">
      <path
         d="M 85.039,420.945 H 510.236 V 733.818 H 85.039 Z"
         id="path54621" />
    </clipPath>
    <clipPath
       clipPathUnits="userSpaceOnUse"
       id="clipPath54651">
      <path
         d="M 85.039,420.945 H 510.236 V 733.818 H 85.039 Z"
         id="path54649" />
    </clipPath>
    <clipPath
       clipPathUnits="userSpaceOnUse"
       id="clipPath54679">
      <path
         d="M 85.039,420.945 H 510.236 V 733.818 H 85.039 Z"
         id="path54677" />
    </clipPath>
    <clipPath
       clipPathUnits="userSpaceOnUse"
       id="clipPath54699">
      <path
         d="M 85.039,420.945 H 510.236 V 733.818 H 85.039 Z"
         id="path54697" />
    </clipPath>
    <clipPath
       clipPathUnits="userSpaceOnUse"
       id="clipPath56151">
      <path
         d="M 85.039,420.945 H 510.236 V 733.818 H 85.039 Z"
         id="path56149" />
    </clipPath>
    <clipPath
       clipPathUnits="userSpaceOnUse"
       id="clipPath56179">
      <path
         d="M 85.039,420.945 H 510.236 V 733.818 H 85.039 Z"
         id="path56177" />
    </clipPath>
    <clipPath
       clipPathUnits="userSpaceOnUse"
       id="clipPath56195">
      <path
         d="M 85.039,420.945 H 510.236 V 733.818 H 85.039 Z"
         id="path56193" />
    </clipPath>
    <clipPath
       clipPathUnits="userSpaceOnUse"
       id="clipPath56267">
      <path
         d="M 85.039,420.945 H 510.236 V 733.818 H 85.039 Z"
         id="path56265" />
    </clipPath>
    <clipPath
       clipPathUnits="userSpaceOnUse"
       id="clipPath56283">
      <path
         d="M 85.039,420.945 H 510.236 V 733.818 H 85.039 Z"
         id="path56281" />
    </clipPath>
    <clipPath
       clipPathUnits="userSpaceOnUse"
       id="clipPath56303">
      <path
         d="M 85.039,420.945 H 510.236 V 733.818 H 85.039 Z"
         id="path56301" />
    </clipPath>
    <clipPath
       clipPathUnits="userSpaceOnUse"
       id="clipPath56331">
      <path
         d="M 85.039,420.945 H 510.236 V 733.818 H 85.039 Z"
         id="path56329" />
    </clipPath>
    <clipPath
       clipPathUnits="userSpaceOnUse"
       id="clipPath56359">
      <path
         d="M 85.039,420.945 H 510.236 V 733.818 H 85.039 Z"
         id="path56357" />
    </clipPath>
    <clipPath
       clipPathUnits="userSpaceOnUse"
       id="clipPath56391">
      <path
         d="M 85.039,420.945 H 510.236 V 733.818 H 85.039 Z"
         id="path56389" />
    </clipPath>
  </defs>
  <sodipodi:namedview
     id="base"
     pagecolor="#ffffff"
     bordercolor="#666666"
     borderopacity="1.0"
     inkscape:pageopacity="0.0"
     inkscape:pageshadow="2"
     inkscape:zoom="0.6675"
     inkscape:cx="7.6876692"
     inkscape:cy="431.55658"
     inkscape:document-units="mm"
     inkscape:current-layer="layer1"
     inkscape:document-rotation="0"
     showgrid="false"
     showguides="false"
     inkscape:window-width="1920"
     inkscape:window-height="1001"
     inkscape:window-x="-9"
     inkscape:window-y="-9"
     inkscape:window-maximized="1" />
  <metadata
     id="metadata13088">
    <rdf:RDF>
      <cc:Work
         rdf:about="">
        <dc:format>image/svg+xml</dc:format>
        <dc:type
           rdf:resource="http://purl.org/dc/dcmitype/StillImage" />
        <dc:title />
      </cc:Work>
    </rdf:RDF>
  </metadata>
  <g
     inkscape:label="Layer 1"
     inkscape:groupmode="layer"
     id="layer1"
     transform="translate(10.785931,5.1196736)">
    <path
       id="path13683-5"
       style="opacity:1;fill:#00408c;fill-opacity:1;fill-rule:evenodd;stroke-width:0;stroke-linecap:square;stroke-linejoin:round;paint-order:fill markers stroke"
       d="M -10.785931,74.255308 A 79.374987,79.374987 0 0 0 68.58908,153.63032 79.374987,79.374987 0 0 0 147.96407,74.255308 79.374987,79.374987 0 0 0 68.58908,-5.119671 79.374987,79.374987 0 0 0 -10.785931,74.255308" />
    <path
       style="color:#000000;font-style:normal;font-variant:normal;font-weight:normal;font-stretch:normal;font-size:medium;line-height:normal;font-family:sans-serif;font-variant-ligatures:normal;font-variant-position:normal;font-variant-caps:normal;font-variant-numeric:normal;font-variant-alternates:normal;font-variant-east-asian:normal;font-feature-settings:normal;font-variation-settings:normal;text-indent:0;text-align:start;text-decoration:none;text-decoration-line:none;text-decoration-style:solid;text-decoration-color:#000000;letter-spacing:normal;word-spacing:normal;text-transform:none;writing-mode:lr-tb;direction:ltr;text-orientation:mixed;dominant-baseline:auto;baseline-shift:baseline;text-anchor:start;white-space:normal;shape-padding:0;shape-margin:0;inline-size:0;clip-rule:nonzero;display:inline;overflow:visible;visibility:visible;opacity:1;isolation:auto;mix-blend-mode:normal;color-interpolation:sRGB;color-interpolation-filters:linearRGB;solid-color:#000000;solid-opacity:1;vector-effect:none;fill:#ffffff;fill-opacity:1;fill-rule:evenodd;stroke:none;stroke-width:4.39998;stroke-linecap:square;stroke-linejoin:round;stroke-miterlimit:4;stroke-dasharray:none;stroke-dashoffset:0;stroke-opacity:1;paint-order:fill markers stroke;color-rendering:auto;image-rendering:auto;shape-rendering:auto;text-rendering:auto;enable-background:accumulate;stop-color:#000000;stop-opacity:1"
       d="m 68.595733,-2.4513636 c 42.344807,0 76.700347,34.3556006 76.700347,76.7003816 0,42.344832 -34.35554,76.700372 -76.700347,76.700372 -42.344836,0 -76.7004334,-34.35554 -76.7004334,-76.700372 0,-42.344781 34.3555974,-76.7003816 76.7004334,-76.7003816 z m 0,2.64024943 c -40.918015,0 -74.0601339,33.14210817 -74.0601339,74.06013217 0,40.918032 33.1421189,74.060122 74.0601339,74.060122 40.918047,0 74.060097,-33.14209 74.060097,-74.060122 0,-40.918024 -33.14205,-74.06013217 -74.060097,-74.06013217 z"
       id="path13685-1" />
    <path
       transform="matrix(0.26458333,0,0,0.26458333,-10.785931,-5.1196736)"
       d="m 251.5918,39.972656 c -9.97833,2.84e-4 -18.06795,8.089956 -18.06836,18.06836 0,6.222176 3.2002,12.006646 8.47265,15.310546 h 0.002 c 0.002,0.0014 0.4131,0.260611 0.69336,0.603516 0.26305,0.321714 0.38888,0.718018 0.46289,1.046875 l 0.24414,3.685547 c 0.0302,0.540026 0.0499,1.07162 -0.17383,1.509766 0,0 -3.76285,0.665699 -7.49805,2.294922 -4.17823,1.822332 -8.49935,4.757907 -11.00586,7.453124 -2.12602,2.28612 -5.54861,6.780913 -7.1582,10.621098 -2.78623,6.64759 -3.0918,12.8125 -3.0918,12.8125 l -1.59375,51.48632 c 0.29896,3.48791 3.75045,5.69545 5.90625,5.85157 3.53178,0.25542 6.69756,-1.83865 7.38672,-5.51563 l 5.22266,-51.75781 v 134.44726 c 3.04184,8.11866 14.18661,8.21934 17.18554,0 l 3.11133,-72.48437 c 0.0699,-1.69627 1.1625,-3.0625 2.75391,-3.0625 1.59145,0 2.75407,1.36884 2.87305,3.0625 l 6.79687,96.34766 c 1.99238,2.26038 5.01207,3.51422 8.14844,3.31054 3.5427,-0.22979 7.3412,-2.34099 8.83789,-6.21875 l -4.36328,-156.46093 30.53906,43.0332 2.77539,1.19141 9.05664,13.15234 24.98242,0.0703 -15,43.55859 c 3.31968,0.59774 6.65067,1.07736 9.99805,1.44922 l -0.0117,0.0684 1.84766,34.89258 c 1.56688,5.8532 7.10604,3.57586 7.67187,0.80078 l 0.01,-35.07031 c 1.95711,0.0699 3.92202,0.0945 5.89062,0.0703 l -0.0195,0.0312 2.1211,24.45703 c 0.24302,2.4395 2.45235,3.19599 3.5664,3.16602 1.30447,-0.0378 3.26985,-0.6973 3.70117,-3.16602 l -0.39453,-24.94531 c 3.26465,-0.29934 6.54555,-0.74414 9.84961,-1.36523 l -11.69922,-39.0625 19.76172,20.22656 c 1.38418,0.55633 3.9688,-0.22362 5.08399,-2.0625 0.85402,-1.4073 0.95195,-3.65782 -0.12696,-5.14063 l -21.54687,-24.65625 -7.33789,-3.10742 c 0,0 -0.27251,-0.49552 -0.36133,-0.80273 -0.2812,-0.96185 -0.35754,-2.03585 0.36133,-2.96289 l -0.0703,0.002 a 10.856602,10.856602 0 0 0 5.2539,-9.29883 10.856602,10.856602 0 0 0 -10.85742,-10.85742 10.856602,10.856602 0 0 0 -10.85742,10.85742 10.856602,10.856602 0 0 0 6.08984,9.75391 l -0.0684,0.004 c 1.28447,1.21265 0.53609,2.19624 0.33203,3.24023 l -24.26172,-0.002 -6.27734,-8.98828 -0.46289,-5.81641 -32.45312,-50.830079 c 0,0 -1.41017,-1.930939 -3.55079,-3.828125 -1.87778,-1.664175 -4.38623,-3.245535 -6.07031,-4.240235 -1.92298,-1.135759 -4.84032,-2.511328 -7.57617,-3.5 -3.4944,-1.262936 -6.6543,-2.007842 -6.6543,-2.007812 l -0.93554,-4.53711 c -0.10205,-1.411785 0.58667,-1.849594 1.2832,-2.279297 h -0.0293 c 5.78699,-3.171071 9.38428,-9.24474 9.38477,-15.84375 -4.2e-4,-9.978274 -8.08819,-18.066016 -18.06641,-18.066406 z m 28.67382,301.650394 -33.24804,0.0117 c -0.90406,0 -1.73843,0.26579 -2.45117,0.70898 -1.45369,0.48574 -2.61279,1.28489 -3.58203,2.61914 -1.71489,2.36066 -2.81978,5.5421 -1.76563,8.48242 l 3.8125,15.06055 -20.16797,36.50586 a 53.272217,53.272217 0 0 0 -21.79883,-4.66797 53.272217,53.272217 0 0 0 -0.39453,0 53.272217,53.272217 0 0 0 -52.8789,53.26758 53.272217,53.272217 0 0 0 53.27343,53.27344 53.272217,53.272217 0 0 0 53.26953,-53.27344 53.272217,53.272217 0 0 0 -22.92578,-43.7793 l 7.63282,-13.27539 -0.01,0.0293 58.49023,49.56445 0.2129,0.20899 c -2.05002,3.48479 -2.88352,7.53487 -2.37891,11.13476 1.09636,7.81501 9.01844,13.14297 11.5957,13.08594 l 40.09766,-3.79297 a 53.272217,53.272217 0 0 0 51.61523,40.09766 53.272217,53.272217 0 0 0 53.26953,-53.27344 53.272217,53.272217 0 0 0 -53.26953,-53.26953 53.272217,53.272217 0 0 0 -0.39258,0 A 53.272217,53.272217 0 0 0 376,405.4043 l -15.61523,-24.43555 -0.0391,0.0293 4.49024,-8.29102 10.51172,3.19336 c 0.48801,0.14816 1.88632,-0.24723 2.80078,-1.07812 0.89004,-0.80784 1.29006,-1.94667 1.29883,-2.88282 v -12.92187 l -5.17188,-2.51172 h -34.92578 c -2.21193,0 -3.99024,1.78022 -3.99023,3.99219 v 0.28906 c 0,2.21223 1.87373,3.53097 3.99023,4.17383 l 15.84766,4.8164 -0.0195,0.0195 -5.19531,9.76757 H 248.80469 l 5.66601,-9.85742 -5.58008,-16.27344 c -0.11715,-0.42629 -0.32148,-1.05778 -0.18164,-1.58007 0.13191,-0.49006 0.74112,-0.80886 1.20313,-0.93164 h 30.35351 c 2.57583,0 4.64844,-2.07262 4.64844,-4.64844 0,-2.57579 -2.07261,-4.65039 -4.64844,-4.65039 z m -35.37695,47.90039 h 99.80078 l -25.96875,48.81836 -5.94726,-0.46289 c -3.06059,0.008 -5.74214,0.6942 -8.03125,1.84375 l -0.15039,-0.17188 z m 110.22071,1.1582 12.68164,19.51953 a 53.272217,53.272217 0 0 0 -20.76954,30.33985 l -18.14257,-1.40821 0.16797,-0.32617 z m -154.09571,19.44727 a 43.522325,43.522325 0 0 1 17.0918,3.49609 l -17.35547,31.41992 -0.01,0.0977 a 8.6628808,8.6628808 0 0 0 -7.36914,8.56445 8.6628808,8.6628808 0 0 0 8.66211,8.66211 8.6628808,8.6628808 0 0 0 8.66407,-8.66211 8.6628808,8.6628808 0 0 0 -1.6211,-5.04101 h 0.0117 L 226.5,418.37305 a 43.522325,43.522325 0 0 1 18.03906,35.27929 43.522325,43.522325 0 0 1 -43.52539,43.52539 43.522325,43.522325 0 0 1 -43.51953,-43.52539 43.522325,43.522325 0 0 1 43.51953,-43.52148 z m 197.55078,0 a 43.522325,43.522325 0 0 1 0.0117,0 h 0.008 a 43.522325,43.522325 0 0 1 0.0293,0 43.522325,43.522325 0 0 1 43.52539,43.51953 43.522325,43.522325 0 0 1 -43.52539,43.52539 43.522325,43.522325 0 0 1 -41.77148,-31.31055 l 44.17968,-4.17773 c 8.54045,-1.18141 10.94473,-14.61335 0.0293,-16.94532 l -0.15039,-0.0117 0.19141,-0.041 -19.78711,-30.9707 a 43.522325,43.522325 0 0 1 17.25976,-3.58789 z m -25.45312,8.25781 0.006,0.002 a 43.522325,43.522325 0 0 0 -0.004,0.002 l 16.4668,25.34571 0.0996,0.11914 -32.79102,-2.54688 a 43.522325,43.522325 0 0 1 16.22461,-22.91797 z"
       style="font-size:24.9647px;line-height:97.02%;font-family:BywayEMod;-inkscape-font-specification:BywayEMod;text-align:center;text-anchor:middle;opacity:1;fill:#ffffff;fill-opacity:1;fill-rule:evenodd;stroke:none;stroke-width:34.0047;stroke-linecap:square;stroke-linejoin:round;paint-order:stroke fill markers"
       id="path50455-9" />
  </g>
</svg>
