<svg width="158.75mm" height="158.75mm" version="1.1" viewBox="0 0 158.75 158.75" xmlns="http://www.w3.org/2000/svg"><g transform="translate(10.786 5.1197)" fill-rule="evenodd"><path d="m-10.786 74.255a79.375 79.375 0 0 0 79.375 79.375 79.375 79.375 0 0 0 79.375-79.375 79.375 79.375 0 0 0-79.375-79.375 79.375 79.375 0 0 0-79.375 79.375" fill="#00408c" stroke-width="0" style="paint-order:fill markers stroke"/><path d="m68.596-2.4514c42.345 0 76.7 34.356 76.7 76.7 0 42.345-34.356 76.7-76.7 76.7-42.345 0-76.7-34.356-76.7-76.7 0-42.345 34.356-76.7 76.7-76.7zm0 2.6402c-40.918 0-74.06 33.142-74.06 74.06 0 40.918 33.142 74.06 74.06 74.06 40.918 0 74.06-33.142 74.06-74.06 0-40.918-33.142-74.06-74.06-74.06z" color="#000000" color-rendering="auto" dominant-baseline="auto" enable-background="accumulate" fill="#fff" image-rendering="auto" shape-rendering="auto" solid-color="#000000" stop-color="#000000" style="font-feature-settings:normal;font-variant-alternates:normal;font-variant-caps:normal;font-variant-east-asian:normal;font-variant-ligatures:normal;font-variant-numeric:normal;font-variant-position:normal;font-variation-settings:normal;inline-size:0;isolation:auto;mix-blend-mode:normal;paint-order:fill markers stroke;shape-margin:0;shape-padding:0;text-decoration-color:#000000;text-decoration-line:none;text-decoration-style:solid;text-indent:0;text-orientation:mixed;text-transform:none;white-space:normal"/><path transform="matrix(.26458 0 0 .26458 -10.786 -5.1197)" d="m251.59 39.973c-9.9783 2.84e-4 -18.068 8.09-18.068 18.068 0 6.2222 3.2002 12.007 8.4726 15.311h2e-3c2e-3 0.0014 0.4131 0.26061 0.69336 0.60352 0.26305 0.32171 0.38888 0.71802 0.46289 1.0469l0.24414 3.6855c0.0302 0.54003 0.0499 1.0716-0.17383 1.5098 0 0-3.7628 0.6657-7.498 2.2949-4.1782 1.8223-8.4994 4.7579-11.006 7.4531-2.126 2.2861-5.5486 6.7809-7.1582 10.621-2.7862 6.6476-3.0918 12.812-3.0918 12.812l-1.5938 51.486c0.29896 3.4879 3.7504 5.6954 5.9062 5.8516 3.5318 0.25542 6.6976-1.8386 7.3867-5.5156l5.2227-51.758v134.45c3.0418 8.1187 14.187 8.2193 17.186 0l3.1113-72.484c0.0699-1.6963 1.1625-3.0625 2.7539-3.0625 1.5914 0 2.7541 1.3688 2.873 3.0625l6.7969 96.348c1.9924 2.2604 5.0121 3.5142 8.1484 3.3105 3.5427-0.22979 7.3412-2.341 8.8379-6.2188l-4.3633-156.46 30.539 43.033 2.7754 1.1914 9.0566 13.152 24.982 0.0703-15 43.559c3.3197 0.59774 6.6507 1.0774 9.998 1.4492l-0.0117 0.0684 1.8477 34.893c1.5669 5.8532 7.106 3.5759 7.6719 0.80078l0.01-35.07c1.9571 0.0699 3.922 0.0945 5.8906 0.0703l-0.0195 0.0312 2.1211 24.457c0.24302 2.4395 2.4524 3.196 3.5664 3.166 1.3045-0.0378 3.2698-0.6973 3.7012-3.166l-0.39453-24.945c3.2646-0.29934 6.5456-0.74414 9.8496-1.3652l-11.699-39.062 19.762 20.227c1.3842 0.55633 3.9688-0.22362 5.084-2.0625 0.85402-1.4073 0.95195-3.6578-0.12696-5.1406l-21.547-24.656-7.3379-3.1074s-0.27251-0.49552-0.36133-0.80273c-0.2812-0.96185-0.35754-2.0358 0.36133-2.9629l-0.0703 2e-3a10.857 10.857 0 0 0 5.2539-9.2988 10.857 10.857 0 0 0-10.857-10.857 10.857 10.857 0 0 0-10.857 10.857 10.857 10.857 0 0 0 6.0898 9.7539l-0.0684 4e-3c1.2845 1.2126 0.53609 2.1962 0.33203 3.2402l-24.262-2e-3 -6.2773-8.9883-0.46289-5.8164-32.453-50.83s-1.4102-1.9309-3.5508-3.8281c-1.8778-1.6642-4.3862-3.2455-6.0703-4.2402-1.923-1.1358-4.8403-2.5113-7.5762-3.5-3.4944-1.2629-6.6543-2.0078-6.6543-2.0078l-0.93554-4.5371c-0.10205-1.4118 0.58667-1.8496 1.2832-2.2793h-0.0293c5.787-3.1711 9.3843-9.2447 9.3848-15.844-4.2e-4 -9.9783-8.0882-18.066-18.066-18.066zm28.674 301.65-33.248 0.0117c-0.90406 0-1.7384 0.26579-2.4512 0.70898-1.4537 0.48574-2.6128 1.2849-3.582 2.6191-1.7149 2.3607-2.8198 5.5421-1.7656 8.4824l3.8125 15.061-20.168 36.506a53.272 53.272 0 0 0-21.799-4.668 53.272 53.272 0 0 0-0.39453 0 53.272 53.272 0 0 0-52.879 53.268 53.272 53.272 0 0 0 53.273 53.273 53.272 53.272 0 0 0 53.27-53.273 53.272 53.272 0 0 0-22.926-43.779l7.6328-13.275-0.01 0.0293 58.49 49.564 0.2129 0.20899c-2.05 3.4848-2.8835 7.5349-2.3789 11.135 1.0964 7.815 9.0184 13.143 11.596 13.086l40.098-3.793a53.272 53.272 0 0 0 51.615 40.098 53.272 53.272 0 0 0 53.27-53.273 53.272 53.272 0 0 0-53.27-53.27 53.272 53.272 0 0 0-0.39258 0 53.272 53.272 0 0 0-22.271 5.0625l-15.615-24.436-0.0391 0.0293 4.4902-8.291 10.512 3.1934c0.48801 0.14816 1.8863-0.24723 2.8008-1.0781 0.89004-0.80784 1.2901-1.9467 1.2988-2.8828v-12.922l-5.1719-2.5117h-34.926c-2.2119 0-3.9902 1.7802-3.9902 3.9922v0.28906c0 2.2122 1.8737 3.531 3.9902 4.1738l15.848 4.8164-0.0195 0.0195-5.1953 9.7676h-101.18l5.666-9.8574-5.5801-16.273c-0.11715-0.42629-0.32148-1.0578-0.18164-1.5801 0.13191-0.49006 0.74112-0.80886 1.2031-0.93164h30.354c2.5758 0 4.6484-2.0726 4.6484-4.6484 0-2.5758-2.0726-4.6504-4.6484-4.6504zm-35.377 47.9h99.801l-25.969 48.818-5.9473-0.46289c-3.0606 8e-3 -5.7421 0.6942-8.0312 1.8438l-0.15039-0.17188zm110.22 1.1582 12.682 19.52a53.272 53.272 0 0 0-20.77 30.34l-18.143-1.4082 0.16797-0.32617zm-154.1 19.447a43.522 43.522 0 0 1 17.092 3.4961l-17.355 31.42-0.01 0.0977a8.6629 8.6629 0 0 0-7.3691 8.5644 8.6629 8.6629 0 0 0 8.6621 8.6621 8.6629 8.6629 0 0 0 8.6641-8.6621 8.6629 8.6629 0 0 0-1.6211-5.041h0.0117l17.412-30.293a43.522 43.522 0 0 1 18.039 35.279 43.522 43.522 0 0 1-43.525 43.525 43.522 43.522 0 0 1-43.52-43.525 43.522 43.522 0 0 1 43.52-43.521zm197.55 0a43.522 43.522 0 0 1 0.0117 0h8e-3a43.522 43.522 0 0 1 0.0293 0 43.522 43.522 0 0 1 43.525 43.52 43.522 43.522 0 0 1-43.525 43.525 43.522 43.522 0 0 1-41.771-31.311l44.18-4.1777c8.5404-1.1814 10.945-14.613 0.0293-16.945l-0.15039-0.0117 0.19141-0.041-19.787-30.971a43.522 43.522 0 0 1 17.26-3.5879zm-25.453 8.2578 6e-3 2e-3a43.522 43.522 0 0 0-4e-3 2e-3l16.467 25.346 0.0996 0.11914-32.791-2.5469a43.522 43.522 0 0 1 16.225-22.918z" fill="#fff" style="paint-order:stroke fill markers"/></g></svg>