<svg width="600" height="600" version="1.1" xmlns="http://www.w3.org/2000/svg"><g transform="translate(-223.27 -842.33)"><g transform="translate(-108.37 1759.9)"><rect x="578.74" y="298.17" width="0" height="27.202" rx="249.48" ry="27.202" color="#000000"/><g transform="matrix(.88381 0 0 .88381 -1569.9 -1726.3)"><g transform="matrix(1.1315 0 0 1.1315 -1464.3 -762.13)"><g transform="translate(-108.37 1759.9)"><rect x="578.74" y="298.17" width="0" height="27.202" rx="249.48" ry="27.202" color="#000000"/></g></g></g><g fill-rule="evenodd"><path d="m631.63-916.63c-165.06 0-299.05 133.99-299.05 299.05-7.7e-4 165.06 133.99 299.05 299.05 299.05 165.06 7.5e-4 299.05-133.99 299.05-299.05 5e-4 -165.06-133.99-299.05-299.05-299.05z" color="#000000" color-rendering="auto" dominant-baseline="auto" enable-background="accumulate" fill="#fff" image-rendering="auto" shape-rendering="auto" solid-color="#000000" stop-color="#000000" stroke="#000" stroke-linecap="square" stroke-linejoin="round" stroke-miterlimit="2" stroke-width="1.9" style="font-feature-settings:normal;font-variant-alternates:normal;font-variant-caps:normal;font-variant-east-asian:normal;font-variant-ligatures:normal;font-variant-numeric:normal;font-variant-position:normal;font-variation-settings:normal;inline-size:0;isolation:auto;mix-blend-mode:normal;paint-order:stroke fill markers;shape-margin:0;shape-padding:0;text-decoration-color:#000000;text-decoration-line:none;text-decoration-style:solid;text-indent:0;text-orientation:mixed;text-transform:none;white-space:normal"/><path d="m631.63-908.15c-160.48 0-290.57 130.1-290.57 290.58-4.8e-4 160.48 130.09 290.58 290.57 290.58 160.48 6.1e-4 290.58-130.1 290.58-290.58 3.1e-4 -160.48-130.1-290.58-290.58-290.58zm-0.6367 70.561c0.16715-2.6e-4 0.32953-2.6e-4 0.49207 0 121.49 5.3e-4 219.98 98.487 219.98 219.98-8.8e-4 121.49-98.487 219.98-219.98 219.98-121.49-7.9e-4 -219.98-98.487-219.98-219.98 3.4e-4 -121.3 98.188-219.7 219.49-219.98z" color="#000000" color-rendering="auto" dominant-baseline="auto" enable-background="accumulate" fill="#ed232a" image-rendering="auto" shape-rendering="auto" solid-color="#000000" stop-color="#000000" style="font-feature-settings:normal;font-variant-alternates:normal;font-variant-caps:normal;font-variant-east-asian:normal;font-variant-ligatures:normal;font-variant-numeric:normal;font-variant-position:normal;font-variation-settings:normal;inline-size:0;isolation:auto;mix-blend-mode:normal;paint-order:stroke fill markers;shape-margin:0;shape-padding:0;text-decoration-color:#000000;text-decoration-line:none;text-decoration-style:solid;text-indent:0;text-orientation:mixed;text-transform:none;white-space:normal"/><path d="m633.05-727.24c-10.391 0.0689-19.892 0.41112-31.146 1.459-17.459 1.6283-40.016 5.0778-52.43 8.3866-9.993 2.664-14.404 11.191-14.404 11.191l-28.269 63.393s-2.4941 3.6831-3.963 5.3445c-0.92755 1.049-3.0422 2.8974-3.0422 2.8974s-3.9885 2.2972-5.4842 3.9941c-1.7607 1.9984-3.8493 7.0051-3.8493 7.0051l-0.60015 13.421 1.1382 15.832 1.0554 39.382c3e-3 4.4158 2.765 7.9659 7.1811 7.9625h0.94681l-0.0212 27.421h0.0212v1.4384c0 5.9644 4.8021 10.766 10.767 10.766h28.797c5.9645 0 10.767-4.802 10.767-10.766v-18.093l0.0106-10.684h162.49v29.692c0 5.4399 4.3845 9.8196 9.8249 9.8196h30.561c5.4404 0 9.8196-4.3798 9.8197-9.8196v-30.334h0.16556c4.4162 0 7.4474-2.3875 7.445-6.8035l1.221-39.972 0.7968-16.484s0.45127-6.8984 0.10834-10.321c-0.1441-1.4397-0.90541-4.2426-0.90541-4.2426s-1.1388-3.0738-2.116-4.3562c-1.7759-2.3303-6.3275-5.4065-6.3275-5.4065s-2.79-1.935-3.901-3.068c-1.9005-1.9385-4.7443-6.6433-4.7443-6.6433l-25.47-58.623s-3.0521-10.855-15.785-14.595c-13.72-4.0306-36.134-7.0194-54.65-8.3246-10.49-0.73932-17.331-0.92713-26.003-0.86912zm0.53289 18.993c11.47-0.0583 31.476 1.3836 47.091 3.3318 7.3209 0.91336 21.787 3.9114 21.787 3.9114s2.8315 0.84051 5.3134 2.2765c1.148 0.66382 2.1698 1.726 2.8973 2.4058 0.84128 0.787 1.9609 2.1576 2.7214 3.4145 0.82289 1.3605 1.252 2.5766 1.252 2.5766l21.373 51.023s-15.967-3.0034-36.268-5.0754c-21.413-2.1859-47.652-3.4465-65.049-3.4561-17.74 0-44.548 1.5626-66.322 3.7665-20.37 2.0614-42.021 5.7326-42.021 5.7326l22.599-51.991s0.74706-1.9271 2.0022-3.6836c0.90271-1.2633 2.194-2.3229 3.1042-3.0733 0.83563-0.68899 2.1016-1.5152 3.3939-2.1004 1.7082-0.77429 3.3733-1.2108 3.3733-1.2108s20.344-3.4712 38.249-5.722c11.986-1.5075 25.355-2.0794 34.504-2.1266zm-115.71 101.24c8.272 0 14.978 6.7728 14.978 15.128-1e-4 8.355-6.706 15.128-14.978 15.128-8.272 2.7e-4 -14.978-6.7728-14.978-15.128 8e-5 -8.3553 6.7059-15.128 14.978-15.128zm227.68 0c8.2719 0 14.978 6.7728 14.978 15.128-1.1e-4 8.355-6.706 15.128-14.978 15.128-8.272 2.7e-4 -14.978-6.7728-14.978-15.128 1e-4 -8.3553 6.706-15.128 14.978-15.128zm-195.98 5.0444h164.04v6.2912c0 16.552-13.332 29.873-29.883 29.873h-104.28c-16.552 0-29.873-13.322-29.873-29.873z"/></g></g></g></svg>