<?xml version="1.0" encoding="UTF-8" standalone="no"?>
<svg
   xmlns:dc="http://purl.org/dc/elements/1.1/"
   xmlns:cc="http://creativecommons.org/ns#"
   xmlns:rdf="http://www.w3.org/1999/02/22-rdf-syntax-ns#"
   xmlns:svg="http://www.w3.org/2000/svg"
   xmlns="http://www.w3.org/2000/svg"
   xmlns:sodipodi="http://sodipodi.sourceforge.net/DTD/sodipodi-0.dtd"
   xmlns:inkscape="http://www.inkscape.org/namespaces/inkscape"
   width="158.75mm"
   height="158.74968mm"
   viewBox="0 0 158.75 158.74968"
   version="1.1"
   id="svg26953"
   inkscape:version="1.0 (4035a4fb49, 2020-05-01)"
   sodipodi:docname="tt38.svg">
  <defs
     id="defs26947" />
  <sodipodi:namedview
     id="base"
     pagecolor="#ffffff"
     bordercolor="#666666"
     borderopacity="1.0"
     inkscape:pageopacity="0.0"
     inkscape:pageshadow="2"
     inkscape:zoom="0.98994949"
     inkscape:cx="276.58509"
     inkscape:cy="269.58858"
     inkscape:document-units="mm"
     inkscape:current-layer="layer1"
     inkscape:document-rotation="0"
     showgrid="false"
     inkscape:window-width="1920"
     inkscape:window-height="1001"
     inkscape:window-x="-9"
     inkscape:window-y="-9"
     inkscape:window-maximized="1" />
  <metadata
     id="metadata26950">
    <rdf:RDF>
      <cc:Work
         rdf:about="">
        <dc:format>image/svg+xml</dc:format>
        <dc:type
           rdf:resource="http://purl.org/dc/dcmitype/StillImage" />
        <dc:title />
      </cc:Work>
    </rdf:RDF>
  </metadata>
  <g
     inkscape:label="Layer 1"
     inkscape:groupmode="layer"
     id="layer1"
     transform="translate(-61.988095,-36.285874)">
    <path
       id="path13683-3"
       style="opacity:1;fill:#00408c;fill-opacity:1;fill-rule:evenodd;stroke-width:0;stroke-linecap:square;stroke-linejoin:round;paint-order:fill markers stroke"
       d="M 61.988095,115.6608 A 79.374968,79.374844 0 0 0 141.36304,195.03555 79.374968,79.374844 0 0 0 220.7381,115.6608 79.374968,79.374844 0 0 0 141.36304,36.285874 79.374968,79.374844 0 0 0 61.988095,115.6608" />
    <path
       style="color:#000000;font-style:normal;font-variant:normal;font-weight:normal;font-stretch:normal;font-size:medium;line-height:normal;font-family:sans-serif;font-variant-ligatures:normal;font-variant-position:normal;font-variant-caps:normal;font-variant-numeric:normal;font-variant-alternates:normal;font-variant-east-asian:normal;font-feature-settings:normal;font-variation-settings:normal;text-indent:0;text-align:start;text-decoration:none;text-decoration-line:none;text-decoration-style:solid;text-decoration-color:#000000;letter-spacing:normal;word-spacing:normal;text-transform:none;writing-mode:lr-tb;direction:ltr;text-orientation:mixed;dominant-baseline:auto;baseline-shift:baseline;text-anchor:start;white-space:normal;shape-padding:0;shape-margin:0;inline-size:0;clip-rule:nonzero;display:inline;overflow:visible;visibility:visible;opacity:1;isolation:auto;mix-blend-mode:normal;color-interpolation:sRGB;color-interpolation-filters:linearRGB;solid-color:#000000;solid-opacity:1;vector-effect:none;fill:#ffffff;fill-opacity:1;fill-rule:evenodd;stroke:none;stroke-width:0.264583;stroke-linecap:square;stroke-linejoin:round;stroke-miterlimit:4;stroke-dasharray:none;stroke-dashoffset:0;stroke-opacity:1;paint-order:stroke markers fill;color-rendering:auto;image-rendering:auto;shape-rendering:auto;text-rendering:auto;enable-background:accumulate;stop-color:#000000;stop-opacity:1"
       d="m 141.36968,38.954197 c 42.34488,0 76.70044,34.355564 76.70044,76.700303 0,42.34468 -34.35556,76.70014 -76.70044,76.70014 -42.344707,0 -76.700351,-34.35546 -76.700351,-76.70014 0,-42.344739 34.355644,-76.700303 76.700351,-76.700303 z m 0,2.640277 c -40.91789,0 -74.060047,33.142052 -74.060047,74.060026 0,40.91786 33.142157,74.05988 74.060047,74.05988 40.91811,0 74.06016,-33.14202 74.06016,-74.05988 0,-40.917974 -33.14205,-74.060026 -74.06016,-74.060026 z"
       id="path13685-3" />
    <path
       d="m 128.55509,46.86197 c -2.6401,7.5e-5 -4.78048,2.140468 -4.78058,4.780587 0,1.646284 0.84671,3.176759 2.24172,4.050915 h 5.3e-4 c 5.3e-4,3.71e-4 0.1093,0.06895 0.18345,0.159681 0.0696,0.08512 0.10289,0.189975 0.12247,0.276985 l 0.0646,0.975135 c 0.008,0.142882 0.0132,0.283532 -0.046,0.399459 0,0 -0.99558,0.176132 -1.98386,0.607198 -1.10549,0.482158 -2.24878,1.258863 -2.91196,1.971972 -0.56251,0.604869 -1.46807,1.794117 -1.89394,2.810165 -0.73719,1.758842 -0.81804,3.389974 -0.81804,3.389974 l -0.42168,13.622422 c 0.0791,0.922843 0.99231,1.506922 1.56269,1.548228 0.93445,0.06758 1.77207,-0.486476 1.95441,-1.459343 l 1.38183,-13.694254 V 101.8736 c 0.80482,2.14806 3.75354,2.1747 4.547,0 l 0.82321,-19.178158 c 0.0185,-0.448805 0.30758,-0.810287 0.72864,-0.810287 0.42107,0 0.72868,0.362172 0.76016,0.810287 l 1.79834,25.491988 c 0.52715,0.59806 1.32611,0.9298 2.15594,0.87591 0.93734,-0.0608 1.94236,-0.61939 2.33836,-1.64538 l -1.15445,-41.396952 8.08012,11.385868 0.73432,0.315227 2.39624,3.47989 6.60993,0.0186 -3.96875,11.524877 c 0.87833,0.158152 1.75966,0.285052 2.64532,0.38344 l -0.003,0.0181 0.48886,9.23199 c 0.41457,1.54866 1.88014,0.94612 2.02985,0.21188 l 0.003,-9.279021 c 0.51782,0.01849 1.0377,0.025 1.55856,0.0186 l -0.005,0.0083 0.56121,6.470923 c 0.0643,0.645448 0.64885,0.845608 0.94361,0.837678 0.34514,-0.01 0.86515,-0.18449 0.97927,-0.837678 l -0.10439,-6.600114 c 0.86377,-0.0792 1.73184,-0.196887 2.60604,-0.361217 l -3.09542,-10.335286 5.22862,5.35161 c 0.36624,0.147196 1.05008,-0.05917 1.34514,-0.545703 0.22596,-0.372348 0.25187,-0.967798 -0.0336,-1.360125 l -5.70094,-6.523633 -1.94148,-0.822171 c 0,0 -0.0721,-0.131106 -0.0956,-0.212389 -0.0744,-0.25449 -0.0946,-0.538652 0.0956,-0.783931 l -0.0186,5.29e-4 a 2.8724759,2.8724759 0 0 0 1.39009,-2.460316 2.8724759,2.8724759 0 0 0 -2.87269,-2.872692 2.8724759,2.8724759 0 0 0 -2.87269,2.872692 2.8724759,2.8724759 0 0 0 1.61127,2.580722 l -0.0181,0.0011 c 0.33985,0.320847 0.14184,0.581088 0.0879,0.857311 l -6.41925,-5.3e-4 -1.66088,-2.378149 -0.12247,-1.538925 -8.58656,-13.448791 c 0,0 -0.3731,-0.510895 -0.93948,-1.012858 -0.49683,-0.440313 -1.16052,-0.858715 -1.6061,-1.121896 -0.50879,-0.300503 -1.28067,-0.664455 -2.00453,-0.926042 -0.92456,-0.334151 -1.76061,-0.531241 -1.76061,-0.531233 l -0.24753,-1.200444 c -0.027,-0.373535 0.15522,-0.489372 0.33951,-0.603064 h -0.008 c 1.53114,-0.839012 2.48292,-2.446004 2.48305,-4.191992 -1.1e-4,-2.640085 -2.14,-4.779967 -4.78007,-4.78007 z m 7.58662,79.81167 -8.79688,0.003 c -0.2392,0 -0.45996,0.0703 -0.64854,0.18759 -0.38462,0.12852 -0.6913,0.33996 -0.94774,0.69298 -0.45374,0.62459 -0.74607,1.46634 -0.46716,2.2443 l 1.00872,3.98477 -5.33611,9.65885 a 14.094941,14.094941 0 0 0 -5.7676,-1.23507 14.094941,14.094941 0 0 0 -0.10439,0 14.094941,14.094941 0 0 0 -13.99087,14.09371 14.094941,14.094941 0 0 0 14.09526,14.09527 14.094941,14.094941 0 0 0 14.09423,-14.09527 14.094941,14.094941 0 0 0 -6.06578,-11.58327 l 2.01951,-3.51245 -0.003,0.008 15.47554,13.11392 0.0563,0.0553 c -0.5424,0.92202 -0.76293,1.9936 -0.62942,2.94607 0.29008,2.06772 2.38613,3.47741 3.06803,3.46232 l 10.60917,-1.00355 a 14.094941,14.094941 0 0 0 13.65653,10.60917 14.094941,14.094941 0 0 0 14.09423,-14.09527 14.094941,14.094941 0 0 0 -14.09423,-14.09423 14.094941,14.094941 0 0 0 -0.10387,0 14.094941,14.094941 0 0 0 -5.8926,1.33946 l -4.13153,-6.46524 -0.0103,0.008 1.18805,-2.19367 2.78122,0.84491 c 0.12912,0.0392 0.49909,-0.0654 0.74104,-0.28525 0.23549,-0.21374 0.34133,-0.51506 0.34365,-0.76275 v -3.41891 l -1.36839,-0.66456 H 151.774 c -0.58524,0 -1.05575,0.47102 -1.05575,1.05627 v 0.0765 c 0,0.58532 0.49576,0.93423 1.05575,1.10432 l 4.19302,1.27434 -0.005,0.005 -1.3746,2.58434 h -26.76994 l 1.49913,-2.60811 -1.4764,-4.30568 c -0.031,-0.11279 -0.085,-0.27987 -0.0481,-0.41806 0.0349,-0.12966 0.19608,-0.21401 0.31832,-0.2465 h 8.03104 c 0.68152,0 1.2299,-0.54838 1.2299,-1.2299 0,-0.68151 -0.54838,-1.23041 -1.2299,-1.23041 z m -9.36015,12.67364 h 26.40562 l -6.8709,12.91653 -1.57355,-0.12248 c -0.80978,0.002 -1.51927,0.18368 -2.12493,0.48783 l -0.0398,-0.0455 z m 29.16256,0.30644 3.35535,5.16454 a 14.094941,14.094941 0 0 0 -5.49528,8.02742 l -4.80022,-0.37259 0.0444,-0.0863 z m -40.77116,5.14543 a 11.515282,11.515282 0 0 1 4.52221,0.925 l -4.59197,8.31319 -0.003,0.0258 a 2.2920539,2.2920539 0 0 0 -1.94975,2.26601 2.2920539,2.2920539 0 0 0 2.29185,2.29185 2.2920539,2.2920539 0 0 0 2.29237,-2.29185 2.2920539,2.2920539 0 0 0 -0.42892,-1.33377 h 0.003 l 4.60702,-8.01502 a 11.515282,11.515282 0 0 1 4.77283,9.33431 11.515282,11.515282 0 0 1 -11.51609,11.51609 11.515282,11.515282 0 0 1 -11.51454,-11.51609 11.515282,11.515282 0 0 1 11.51454,-11.51506 z m 52.26865,0 a 11.515282,11.515282 0 0 1 0.003,0 h 0.002 a 11.515282,11.515282 0 0 1 0.008,0 11.515282,11.515282 0 0 1 11.51609,11.51454 11.515282,11.515282 0 0 1 -11.51609,11.51609 11.515282,11.515282 0 0 1 -11.05204,-8.28425 l 11.68921,-1.10536 c 2.25966,-0.31258 2.89579,-3.86645 0.008,-4.48345 l -0.0398,-0.003 0.0507,-0.0109 -5.23534,-8.19433 a 11.515282,11.515282 0 0 1 4.56664,-0.9493 z m -6.73448,2.18487 0.002,5.3e-4 a 11.515282,11.515282 0 0 0 -10e-4,5.3e-4 l 4.35684,6.70606 0.0264,0.0315 -8.67596,-0.67386 a 11.515282,11.515282 0 0 1 4.29276,-6.06372 z"
       style="font-size:24.9647px;line-height:97.02%;font-family:BywayEMod;-inkscape-font-specification:BywayEMod;text-align:center;text-anchor:middle;opacity:1;fill:#ffffff;fill-opacity:1;fill-rule:evenodd;stroke:none;stroke-width:8.99708;stroke-linecap:square;stroke-linejoin:round;paint-order:stroke fill markers"
       id="path50455-9" />
    <path
       id="path26895"
       style="opacity:1;fill:#ee252c;fill-opacity:1;fill-rule:evenodd;stroke:none;stroke-width:0.264583;stroke-linecap:square;stroke-linejoin:round;stroke-miterlimit:4;stroke-dasharray:none;stroke-opacity:1;paint-order:stroke markers fill"
       d="M 187.37425,57.686829 83.408576,161.65389 a 73.986028,74.037105 0 0 0 15.393512,14.54029 L 201.90773,73.088543 c 3e-5,-0.0048 -3e-5,-0.0085 0,-0.01244 A 73.986028,74.037105 0 0 0 187.42761,57.697624 c -0.0185,-0.0026 -0.0344,-0.0079 -0.0529,-0.01058 z" />
  </g>
</svg>
