<svg width="158.75mm" height="158.75mm" version="1.1" viewBox="0 0 158.75 158.75" xmlns="http://www.w3.org/2000/svg"><g transform="translate(-61.988 -36.286)" fill-rule="evenodd"><path d="m61.988 115.66a79.375 79.375 0 0 0 79.375 79.375 79.375 79.375 0 0 0 79.375-79.375 79.375 79.375 0 0 0-79.375-79.375 79.375 79.375 0 0 0-79.375 79.375" fill="#00408c" stroke-width="0" style="paint-order:fill markers stroke"/><path d="m141.37 38.954c42.345 0 76.7 34.356 76.7 76.7 0 42.345-34.356 76.7-76.7 76.7-42.345 0-76.7-34.355-76.7-76.7 0-42.345 34.356-76.7 76.7-76.7zm0 2.6403c-40.918 0-74.06 33.142-74.06 74.06 0 40.918 33.142 74.06 74.06 74.06 40.918 0 74.06-33.142 74.06-74.06 0-40.918-33.142-74.06-74.06-74.06z" color="#000000" color-rendering="auto" dominant-baseline="auto" enable-background="accumulate" fill="#fff" image-rendering="auto" shape-rendering="auto" solid-color="#000000" stop-color="#000000" style="font-feature-settings:normal;font-variant-alternates:normal;font-variant-caps:normal;font-variant-east-asian:normal;font-variant-ligatures:normal;font-variant-numeric:normal;font-variant-position:normal;font-variation-settings:normal;inline-size:0;isolation:auto;mix-blend-mode:normal;paint-order:stroke markers fill;shape-margin:0;shape-padding:0;text-decoration-color:#000000;text-decoration-line:none;text-decoration-style:solid;text-indent:0;text-orientation:mixed;text-transform:none;white-space:normal"/><path d="m128.56 46.862c-2.6401 7.5e-5 -4.7805 2.1405-4.7806 4.7806 0 1.6463 0.84671 3.1768 2.2417 4.0509h5.3e-4c5.3e-4 3.71e-4 0.1093 0.06895 0.18345 0.15968 0.0696 0.08512 0.10289 0.18998 0.12247 0.27698l0.0646 0.97514c8e-3 0.14288 0.0132 0.28353-0.046 0.39946 0 0-0.99558 0.17613-1.9839 0.6072-1.1055 0.48216-2.2488 1.2589-2.912 1.972-0.56251 0.60487-1.4681 1.7941-1.8939 2.8102-0.73719 1.7588-0.81804 3.39-0.81804 3.39l-0.42168 13.622c0.0791 0.92284 0.99231 1.5069 1.5627 1.5482 0.93445 0.06758 1.7721-0.48648 1.9544-1.4593l1.3818-13.694v35.573c0.80482 2.1481 3.7535 2.1747 4.547 0l0.82321-19.178c0.0185-0.4488 0.30758-0.81029 0.72864-0.81029 0.42107 0 0.72868 0.36217 0.76016 0.81029l1.7983 25.492c0.52715 0.59806 1.3261 0.9298 2.1559 0.87591 0.93734-0.0608 1.9424-0.61939 2.3384-1.6454l-1.1544-41.397 8.0801 11.386 0.73432 0.31523 2.3962 3.4799 6.6099 0.0186-3.9688 11.525c0.87833 0.15815 1.7597 0.28505 2.6453 0.38344l-3e-3 0.0181 0.48886 9.232c0.41457 1.5487 1.8801 0.94612 2.0298 0.21188l3e-3 -9.279c0.51782 0.01849 1.0377 0.025 1.5586 0.0186l-5e-3 0.0083 0.56121 6.4709c0.0643 0.64545 0.64885 0.84561 0.94361 0.83768 0.34514-0.01 0.86515-0.18449 0.97927-0.83768l-0.10439-6.6001c0.86377-0.0792 1.7318-0.19689 2.606-0.36122l-3.0954-10.335 5.2286 5.3516c0.36624 0.1472 1.0501-0.05917 1.3451-0.5457 0.22596-0.37235 0.25187-0.9678-0.0336-1.3601l-5.7009-6.5236-1.9415-0.82217s-0.0721-0.13111-0.0956-0.21239c-0.0744-0.25449-0.0946-0.53865 0.0956-0.78393l-0.0186 5.29e-4a2.8725 2.8725 0 0 0 1.3901-2.4603 2.8725 2.8725 0 0 0-2.8727-2.8727 2.8725 2.8725 0 0 0-2.8727 2.8727 2.8725 2.8725 0 0 0 1.6113 2.5807l-0.0181 0.0011c0.33985 0.32085 0.14184 0.58109 0.0879 0.85731l-6.4192-5.3e-4 -1.6609-2.3781-0.12247-1.5389-8.5866-13.449s-0.3731-0.5109-0.93948-1.0129c-0.49683-0.44031-1.1605-0.85872-1.6061-1.1219-0.50879-0.3005-1.2807-0.66446-2.0045-0.92604-0.92456-0.33415-1.7606-0.53124-1.7606-0.53123l-0.24753-1.2004c-0.027-0.37354 0.15522-0.48937 0.33951-0.60306h-8e-3c1.5311-0.83901 2.4829-2.446 2.483-4.192-1.1e-4 -2.6401-2.14-4.78-4.7801-4.7801zm7.5866 79.812-8.7969 3e-3c-0.2392 0-0.45996 0.0703-0.64854 0.18759-0.38462 0.12852-0.6913 0.33996-0.94774 0.69298-0.45374 0.62459-0.74607 1.4663-0.46716 2.2443l1.0087 3.9848-5.3361 9.6588a14.095 14.095 0 0 0-5.7676-1.2351 14.095 14.095 0 0 0-0.10439 0 14.095 14.095 0 0 0-13.991 14.094 14.095 14.095 0 0 0 14.095 14.095 14.095 14.095 0 0 0 14.094-14.095 14.095 14.095 0 0 0-6.0658-11.583l2.0195-3.5124-3e-3 8e-3 15.476 13.114 0.0563 0.0553c-0.5424 0.92202-0.76293 1.9936-0.62942 2.9461 0.29008 2.0677 2.3861 3.4774 3.068 3.4623l10.609-1.0036a14.095 14.095 0 0 0 13.657 10.609 14.095 14.095 0 0 0 14.094-14.095 14.095 14.095 0 0 0-14.094-14.094 14.095 14.095 0 0 0-0.10387 0 14.095 14.095 0 0 0-5.8926 1.3395l-4.1315-6.4652-0.0103 8e-3 1.188-2.1937 2.7812 0.84491c0.12912 0.0392 0.49909-0.0654 0.74104-0.28525 0.23549-0.21374 0.34133-0.51506 0.34365-0.76275v-3.4189l-1.3684-0.66456h-9.2408c-0.58524 0-1.0558 0.47102-1.0558 1.0563v0.0765c0 0.58532 0.49576 0.93423 1.0558 1.1043l4.193 1.2743-5e-3 5e-3 -1.3746 2.5843h-26.77l1.4991-2.6081-1.4764-4.3057c-0.031-0.11279-0.085-0.27987-0.0481-0.41806 0.0349-0.12966 0.19608-0.21401 0.31832-0.2465h8.031c0.68152 0 1.2299-0.54838 1.2299-1.2299 0-0.68151-0.54838-1.2304-1.2299-1.2304zm-9.3602 12.674h26.406l-6.8709 12.917-1.5736-0.12248c-0.80978 2e-3 -1.5193 0.18368-2.1249 0.48783l-0.0398-0.0455zm29.163 0.30644 3.3554 5.1645a14.095 14.095 0 0 0-5.4953 8.0274l-4.8002-0.37259 0.0444-0.0863zm-40.771 5.1454a11.515 11.515 0 0 1 4.5222 0.925l-4.592 8.3132-3e-3 0.0258a2.2921 2.2921 0 0 0-1.9498 2.266 2.2921 2.2921 0 0 0 2.2918 2.2918 2.2921 2.2921 0 0 0 2.2924-2.2918 2.2921 2.2921 0 0 0-0.42892-1.3338h3e-3l4.607-8.015a11.515 11.515 0 0 1 4.7728 9.3343 11.515 11.515 0 0 1-11.516 11.516 11.515 11.515 0 0 1-11.515-11.516 11.515 11.515 0 0 1 11.515-11.515zm52.269 0a11.515 11.515 0 0 1 3e-3 0h2e-3a11.515 11.515 0 0 1 8e-3 0 11.515 11.515 0 0 1 11.516 11.515 11.515 11.515 0 0 1-11.516 11.516 11.515 11.515 0 0 1-11.052-8.2842l11.689-1.1054c2.2597-0.31258 2.8958-3.8664 8e-3 -4.4834l-0.0398-3e-3 0.0507-0.0109-5.2353-8.1943a11.515 11.515 0 0 1 4.5666-0.9493zm-6.7345 2.1849 2e-3 5.3e-4a11.515 11.515 0 0 0-1e-3 5.3e-4l4.3568 6.7061 0.0264 0.0315-8.676-0.67386a11.515 11.515 0 0 1 4.2928-6.0637z" fill="#fff" style="paint-order:stroke fill markers"/><path d="m187.37 57.687-103.97 103.97a73.986 74.037 0 0 0 15.394 14.54l103.11-103.11c3e-5 -0.0048-3e-5 -0.0085 0-0.01244a73.986 74.037 0 0 0-14.48-15.378c-0.0185-0.0026-0.0344-0.0079-0.0529-0.01058z" fill="#ee252c" style="paint-order:stroke markers fill"/></g></svg>