<svg xmlns="http://www.w3.org/2000/svg" width="404.62" height="404.62" viewBox="0 0 404.62 404.62"><defs><style>.cls-1{fill:#00408c;}.cls-1,.cls-2,.cls-3{fill-rule:evenodd;}.cls-2{fill:#fff;}.cls-3{fill:#ee252c;}</style></defs><g id="Layer_2" data-name="Layer 2"><g id="Layer_1-2" data-name="Layer 1"><path id="path13683-5" class="cls-1" d="M0,202.31C0,314,90.58,404.62,202.31,404.62h0C314,404.62,404.62,314,404.62,202.31h0C404.62,90.58,314,0,202.31,0S0,90.58,0,202.31H0"/><path id="path50455-9" class="cls-2" d="M151.24,93.83a16.67,16.67,0,0,0-8,31.28h0a2,2,0,0,1,1.19,2.1l-.86,4.19a60.23,60.23,0,0,0-6.14,1.85,44.24,44.24,0,0,0-7,3.23,38.32,38.32,0,0,0-5.6,3.91,25.66,25.66,0,0,0-3.28,3.53L91.59,190.81l-.43,5.36-5.79,8.29H63c-.18-1-.87-1.87.31-3h-.06a10,10,0,0,0,5.61-9h0a10,10,0,0,0-10-10h0a10,10,0,0,0-5.17,18.59h-.06a2.92,2.92,0,0,1,.33,2.73,4.5,4.5,0,0,1-.33.74l-6.77,2.87L27,230.13a4.55,4.55,0,0,0-.11,4.74,4.35,4.35,0,0,0,4.68,1.91l18.23-18.66L39,254.15c3.05.57,6.08,1,9.09,1.26l-.37,23a3.4,3.4,0,0,0,3.42,2.92,3.26,3.26,0,0,0,3.29-2.92l2-22.56v0q2.71,0,5.43-.06v32.35c.52,2.56,5.63,4.66,7.07-.74l1.71-32.19v-.06q4.64-.51,9.22-1.34L65.93,213.61l23-.06,8.35-12.13,2.56-1.1,28.17-39.7-4,144.32a9.33,9.33,0,0,0,8.15,5.74,9.22,9.22,0,0,0,7.51-3.05L146,218.76a2.82,2.82,0,0,1,2.65-2.83,2.69,2.69,0,0,1,2.54,2.83L154,285.61a8.39,8.39,0,0,0,15.86,0v-124l4.81,47.74a6.23,6.23,0,0,0,6.82,5.09A6.38,6.38,0,0,0,187,209l-1.48-47.49A33.78,33.78,0,0,0,176,139.93a32.87,32.87,0,0,0-10.15-6.88,35.14,35.14,0,0,0-6.92-2.12,2.76,2.76,0,0,1-.16-1.39l.23-3.4a2.32,2.32,0,0,1,.42-1,3,3,0,0,1,.64-.56h0a16.67,16.67,0,0,0-8.86-30.79Zm136.11,62.4H268.81a2.58,2.58,0,0,0-1.37.4,3.82,3.82,0,0,0-2,1.46,5.21,5.21,0,0,0-1,4.73l2.13,8.39-11.25,20.36a29.58,29.58,0,0,0-12.15-2.6H243a29.71,29.71,0,0,0,.22,59.41h0a29.71,29.71,0,0,0,16.92-54.12l4.25-7.41v0L297,214.52l.12.12a9.82,9.82,0,0,0-1.33,6.2c.62,4.36,5,7.33,6.47,7.3L324.59,226A29.7,29.7,0,1,0,353.37,189h-.22a29.67,29.67,0,0,0-12.42,2.82L332,178.17l0,0,2.51-4.62,5.86,1.78a2.23,2.23,0,0,0,1.56-.6,2.27,2.27,0,0,0,.73-1.61v-7.21l-2.89-1.4H320.3a2.22,2.22,0,0,0-2.23,2.23v.16c0,1.23,1.05,2,2.23,2.33l8.83,2.68h0l-2.89,5.45H269.81l3.16-5.5-3.11-9.07a1.83,1.83,0,0,1-.11-.88.94.94,0,0,1,.68-.52h16.92a2.6,2.6,0,0,0,0-5.19Zm-19.73,26.71h55.65l-14.48,27.22-3.31-.25a9.9,9.9,0,0,0-4.48,1l-.08-.09Zm61.46.65,7.08,10.88a29.73,29.73,0,0,0-11.59,16.92l-10.11-.78.09-.19Zm-85.92,10.84a24.39,24.39,0,0,1,9.53,1.95L243,213.9V214a4.83,4.83,0,1,0,5.55,4.77h0a4.81,4.81,0,0,0-.91-2.81h0L257.37,199A24.27,24.27,0,0,1,243.16,243h0a24.27,24.27,0,0,1-24.27-24.27h0a24.28,24.28,0,0,1,24.27-24.27Zm110.16,0h0a24.27,24.27,0,0,1,24.27,24.27h0A24.27,24.27,0,0,1,353.35,243h0a24.27,24.27,0,0,1-23.29-17.46l24.64-2.33c4.76-.66,6.1-8.15,0-9.45h-.08l.1,0-11-17.27a24.5,24.5,0,0,1,9.63-2ZM339.12,199h0l9.19,14.13.05.07-18.28-1.42a24.28,24.28,0,0,1,9-12.78Z"/><path class="cls-3" d="M64,335.34c5.81,6.1,12.61,11.37,18.11,17.75a43.31,43.31,0,0,1,4,5.28L355.92,88.2C344,73.27,333.38,56.26,316.5,46.52L45.57,317.45C52.28,322.82,58.06,329.09,64,335.34Z"/><path id="path13685-1" class="cls-2" d="M202.33,6.8c107.92,0,195.49,87.57,195.49,195.49s-87.57,195.5-195.49,195.5S6.83,310.22,6.83,202.29,94.4,6.8,202.33,6.8Zm0,6.73A188.77,188.77,0,1,0,391.09,202.29,188.72,188.72,0,0,0,202.33,13.53Zm6.79,377.53H195.64V13.53h13.48Z"/><polygon class="cls-3" points="180.08 182.94 215.82 147.2 213.48 230.83 189.3 255.04 180.08 182.94"/></g></g></svg>