<svg width="600" height="600.01" version="1.1" xmlns="http://www.w3.org/2000/svg"><g transform="translate(-2783.7 -1320.5)"><g transform="translate(-108.37 1759.9)"><rect x="578.74" y="298.17" width="0" height="27.202" rx="249.48" ry="27.202" color="#000000"/><g transform="matrix(.88381 0 0 .88381 -1569.9 -1726.3)"><g transform="matrix(1.1315 0 0 1.1315 -1464.3 -762.13)"><g transform="translate(-108.37 1759.9)"><rect x="578.74" y="298.17" width="0" height="27.202" rx="249.48" ry="27.202" color="#000000"/></g></g></g><g fill-rule="evenodd"><path d="m3192.1-438.43c-165.06 0-299.05 133.99-299.05 299.05-6e-4 165.06 133.99 299.05 299.05 299.05 165.06 6.1e-4 299.05-133.99 299.05-299.05 6e-4 -165.06-133.99-299.05-299.05-299.05z" color="#000000" color-rendering="auto" dominant-baseline="auto" enable-background="accumulate" fill="#fff" image-rendering="auto" shape-rendering="auto" solid-color="#000000" stop-color="#000000" stroke="#000" stroke-linecap="square" stroke-linejoin="round" stroke-miterlimit="2" stroke-width="1.9" style="font-feature-settings:normal;font-variant-alternates:normal;font-variant-caps:normal;font-variant-east-asian:normal;font-variant-ligatures:normal;font-variant-numeric:normal;font-variant-position:normal;font-variation-settings:normal;inline-size:0;isolation:auto;mix-blend-mode:normal;paint-order:stroke fill markers;shape-margin:0;shape-padding:0;text-decoration-color:#000000;text-decoration-line:none;text-decoration-style:solid;text-indent:0;text-orientation:mixed;text-transform:none;white-space:normal"/><path d="m3192.1-429.95c-160.48 0-290.58 130.1-290.57 290.58-2e-4 160.48 130.09 290.58 290.57 290.58 160.48 4.8e-4 290.58-130.1 290.58-290.58 8e-4 -160.48-130.1-290.58-290.58-290.58zm-0.6365 70.562c0.1641-2.1e-4 0.3279-2.1e-4 0.4912 0 121.49 5.3e-4 219.98 98.487 219.98 219.98-5e-4 121.49-98.487 219.98-219.98 219.98-121.49-5.02e-4 -219.98-98.487-219.98-219.98 6e-4 -121.3 98.188-219.71 219.49-219.98z" color="#000000" color-rendering="auto" dominant-baseline="auto" enable-background="accumulate" fill="#ed232a" image-rendering="auto" shape-rendering="auto" solid-color="#000000" stop-color="#000000" style="font-feature-settings:normal;font-variant-alternates:normal;font-variant-caps:normal;font-variant-east-asian:normal;font-variant-ligatures:normal;font-variant-numeric:normal;font-variant-position:normal;font-variation-settings:normal;inline-size:0;isolation:auto;mix-blend-mode:normal;paint-order:stroke fill markers;shape-margin:0;shape-padding:0;text-decoration-color:#000000;text-decoration-line:none;text-decoration-style:solid;text-indent:0;text-orientation:mixed;text-transform:none;white-space:normal"/><path d="m3171.3-250.99c-14.92 0-26.93 11.998-26.93 26.9v1.5513l24.844 0.0495 0.8051 15.775-22.157 12.928v13.443l50.372-31.322v-12.42c0-14.902-12.01-26.903-26.93-26.903zm28.27 47.318c-0.9683 0.0238-1.9835 0.14317-2.8673 0.38854-2.0936 0.58029-3.5629 1.708-3.5629 1.708l-44.406 29.443-25.979 4.2003-0.8727-3.856-40.547 9.9041 9.8665 22.996s8.2093-0.46092 16.208 2.0934c9.4836 3.0282 19.39 9.5304 25.144 15.243 5.753 5.712 10.688 14.288 13.825 23.804 2.7215 8.256 1.6429 12.309 4.0331 17.96 1.6164 3.8188 3.7308 7.6337 6.812 10.409 3.0015 2.7032 6.852 4.5884 10.777 5.5435 0.5465 0.13232 1.6842 0.0079 1.6842 0.0079l70.416 0.16381s-3.2105-12.617-2.1888-23.142c1.1631-11.974 6.8877-22.451 12.778-30.06 5.121-6.6147 14.749-14.287 24.772-18.093 10.052-3.8167 20.494-3.757 20.494-3.757v-12.424l-42.228 8.2267-15.103-18.799-35.246 28.543-26.831 5.264s-4.5748 1.3396-6.1949 2.9559c-1.0983 1.0961-2.015 4.1969-2.015 4.1968l-2.1478 10.078s-14.242-9.1069-20.091-15.107c-6.4775-6.6447-16.16-22.669-16.16-22.669l22.065-3.648s0.7532-0.19821 1.1046-0.29957c0.6264-0.1818 1.8001-0.75315 1.8001-0.75315l24.503-15.448 3.3579 3.3582 16.917 26.19 34.707-28.035-24.302-31.059s-1.7731-2.2686-4.1321-3.8526c-1.1726-0.78774-2.7707-1.2884-3.8118-1.4899-0.6897-0.13337-1.6093-0.20562-2.5773-0.18101zm-108.25 72.094c-28.229 0-51.266 23.046-51.266 51.259 0 28.213 23.037 51.269 51.266 51.269 28.228 0 51.28-23.056 51.28-51.269 0-28.213-23.051-51.259-51.28-51.259zm204.79 0c-28.228 0-51.266 23.046-51.266 51.259 0 28.213 23.037 51.269 51.266 51.269 28.229 0 51.28-23.056 51.28-51.269 0-28.213-23.051-51.259-51.28-51.259zm-204.79 16.068c19.518 0 35.181 15.656 35.181 35.191s-15.662 35.188-35.181 35.188c-19.519 0-35.177-15.653-35.177-35.188s15.659-35.191 35.177-35.191zm204.79 0c19.519 0 35.177 15.656 35.177 35.191s-15.658 35.188-35.177 35.188c-19.518 0-35.18-15.653-35.18-35.188s15.662-35.191 35.18-35.191z"/></g></g></g></svg>