<svg width="600" height="600.01" version="1.1" xmlns="http://www.w3.org/2000/svg"><g transform="translate(-2223.9 -978.97)"><g transform="translate(-108.37 1759.9)"><rect x="578.74" y="298.17" width="0" height="27.202" rx="249.48" ry="27.202" color="#000000"/><g transform="matrix(.88381 0 0 .88381 -1569.9 -1726.3)"><g transform="matrix(1.1315 0 0 1.1315 -1464.3 -762.13)"><g transform="translate(-108.37 1759.9)"><rect x="578.74" y="298.17" width="0" height="27.202" rx="249.48" ry="27.202" color="#000000"/></g></g></g><g fill-rule="evenodd"><path d="m2632.3-779.99c-165.06 0-299.05 133.99-299.05 299.05-6e-4 165.06 133.99 299.05 299.05 299.05 165.06 6.1e-4 299.05-133.99 299.05-299.05 5e-4 -165.06-133.99-299.05-299.05-299.05z" color="#000000" color-rendering="auto" dominant-baseline="auto" enable-background="accumulate" fill="#fff" image-rendering="auto" shape-rendering="auto" solid-color="#000000" stop-color="#000000" stroke="#000" stroke-linecap="square" stroke-linejoin="round" stroke-miterlimit="2" stroke-width="1.9" style="font-feature-settings:normal;font-variant-alternates:normal;font-variant-caps:normal;font-variant-east-asian:normal;font-variant-ligatures:normal;font-variant-numeric:normal;font-variant-position:normal;font-variation-settings:normal;inline-size:0;isolation:auto;mix-blend-mode:normal;paint-order:stroke fill markers;shape-margin:0;shape-padding:0;text-decoration-color:#000000;text-decoration-line:none;text-decoration-style:solid;text-indent:0;text-orientation:mixed;text-transform:none;white-space:normal"/><path d="m2573.6-574.09c-1.03 0-1.9798 0.30134-2.7911 0.8063-1.6548 0.55227-2.9748 1.4635-4.0781 2.9824-1.9522 2.6874-3.2106 6.3081-2.0104 9.6551l4.3416 17.145-22.959 41.556a60.643 60.643 0 0 0-24.815-5.3134 60.643 60.643 0 0 0-0.4496 0 60.643 60.643 0 0 0-60.195 60.639 60.643 60.643 0 0 0 60.644 60.644 60.643 60.643 0 0 0 60.639-60.644 60.643 60.643 0 0 0-26.097-49.836l8.6885-15.113v0.0363l66.583 56.421 0.2435 0.23791c-2.3336 3.9669-3.2828 8.5757-2.7083 12.674 1.2472 8.8964 10.267 14.961 13.201 14.896l45.644-4.3159a60.643 60.643 0 0 0 58.758 45.645 60.643 60.643 0 0 0 60.639-60.644 60.643 60.643 0 0 0-60.639-60.639 60.643 60.643 0 0 0-0.4496 0 60.643 60.643 0 0 0-25.352 5.7631l-17.775-27.818-0.048 0.0413 5.112-9.438 11.966 3.6336c0.555 0.16858 2.1481-0.28017 3.1889-1.225 1.013-0.91925 1.4685-2.2166 1.4783-3.2821v-14.71l-5.8872-2.8583h-39.757c-2.518 0-4.5433 2.0253-4.5433 4.5433v0.33061c0 2.5184 2.134 4.0181 4.5433 4.75l18.039 5.484-0.026 0.0238-5.9128 11.118h-115.18l6.4505-11.221-6.3523-18.525c-0.1323-0.48585-0.3663-1.2042-0.2064-1.7987 0.1508-0.55738 0.8434-0.91988 1.3697-1.0596h34.553c2.9322 0 5.2928-2.3606 5.2928-5.2927 0-2.9322-2.3606-5.2927-5.2928-5.2927zm-2.4241 54.514h113.61l-29.56 55.574-6.771-0.52721c-3.484 8e-3 -6.5376 0.78978-9.1435 2.0985l-0.1694-0.1961zm125.47 1.318 14.436 22.22a60.643 60.643 0 0 0-23.642 34.537l-20.654-1.6023 0.1905-0.37213zm-175.41 22.138a49.544 49.544 0 0 1 19.455 3.9799l-19.755 35.767-0.027 0.10877a9.8615 9.8615 0 0 0-8.3887 9.7481 9.8615 9.8615 0 0 0 9.8617 9.8618 9.8615 9.8615 0 0 0 9.8619-9.8618 9.8615 9.8615 0 0 0-1.8453-5.7372h0.026l19.822-34.486a49.544 49.544 0 0 1 20.536 40.161 49.544 49.544 0 0 1-49.547 49.547 49.544 49.544 0 0 1-49.542-49.547 49.544 49.544 0 0 1 49.542-49.542zm224.91 0a49.544 49.544 0 0 1 0.037 0 49.544 49.544 0 0 1 49.547 49.542 49.544 49.544 0 0 1-49.547 49.547 49.544 49.544 0 0 1-47.552-35.643l50.291-4.7552c9.7222-1.3449 12.46-16.635 0.042-19.29l-0.1693-0.0185 0.217-0.0466-22.525-35.256a49.544 49.544 0 0 1 19.662-4.0833zm-28.996 9.4019 18.747 28.857 0.1085 0.13444-37.328-2.8996a49.544 49.544 0 0 1 18.473-26.092z" style="paint-order:stroke fill markers"/><path d="m2632.3-771.52c-160.48 0-290.58 130.1-290.57 290.58-3e-4 160.48 130.09 290.58 290.57 290.58 160.48 4.8e-4 290.58-130.1 290.58-290.58 5e-4 -160.48-130.1-290.58-290.58-290.58zm-0.6365 70.562c0.1641-2.1e-4 0.3279-2.1e-4 0.4912 0 121.49 5.3e-4 219.98 98.487 219.98 219.98-5e-4 121.49-98.487 219.98-219.98 219.98-121.49-5e-4 -219.98-98.487-219.98-219.98 5e-4 -121.3 98.188-219.71 219.48-219.98z" color="#000000" color-rendering="auto" dominant-baseline="auto" enable-background="accumulate" fill="#ed232a" image-rendering="auto" shape-rendering="auto" solid-color="#000000" stop-color="#000000" style="font-feature-settings:normal;font-variant-alternates:normal;font-variant-caps:normal;font-variant-east-asian:normal;font-variant-ligatures:normal;font-variant-numeric:normal;font-variant-position:normal;font-variation-settings:normal;inline-size:0;isolation:auto;mix-blend-mode:normal;paint-order:stroke fill markers;shape-margin:0;shape-padding:0;text-decoration-color:#000000;text-decoration-line:none;text-decoration-style:solid;text-indent:0;text-orientation:mixed;text-transform:none;white-space:normal"/></g></g></g></svg>