<svg width="786" height="256" fill-rule="evenodd" version="1.1" viewBox="0 0 786 256" xmlns="http://www.w3.org/2000/svg"><path transform="translate(360,16)" d="m0 0c6.5 0.5 6.5 0.5 8.4 2.6 1.1 4.6 1.6 8.8-0.9 13l-1.5 1.5c-2.9-0.6-5.4-1.6-8-3l-1 1c0.6 3.5 0.6 3.5 2 7 2.5 1.4 2.5 1.4 5 2 0.3 0.7 0.7 1.3 1 2 2 0.6 3.9 1.1 5.9 1.5 5.9 1.3 5.9 1.3 8.1 3.5-0.6 4.6-0.6 4.6-2 6-4.8 0.2-9.3-0.2-14-0.9-2.2-0.2-2.2-0.2-5 0.9v-2c-1.5 0.6-1.5 0.6-3.1 1.2-4.7 1-5.8-0.1-9.9-2.2-4.6 0.2-7.6 0.8-11 4 0.3 1 0.7 2 1 3 3.9 1 7.4 1 11 0.8 22-0.7 42 9.2 57 24 9.7 9.3 9.7 9.3 11 12 0.7-0.2 1.4-0.3 2.1-0.5 6.4-1.1 11-0.4 17 2.2 1.3 0.5 2.6 1.1 4 1.6 0.6 0.3 1.3 0.6 1.9 0.9 3.1 1.2 6.1 2.4 9.2 3.6 1 0.4 2 0.8 3.1 1.2 6.8 2.5 14 3.4 21 0.7 4.5-2.2 8.3-5.3 12-8.3 5.5-4.2 10-7.6 18-7.4 5 1.2 7.2 3.8 10 8 0.8-0.3 1.6-0.6 2.4-1 4.6-1.3 8.8-1.4 14-1.4h2.8c9.5 0.2 18 2.5 26 6.1 3.4 1.4 6.5 1.5 10 1.7 3.9 0.2 5.6 0.4 9 2.6 2.3 3.9 3.1 7.5 2.8 12-2 3-2 3-4.1 3.7-0.6 0.1-1.3 0.2-1.9 0.3 0.5 0.7 0.5 0.7 1.1 1.4 7.3 10 12 22 12 35l-7 2c-0.1 0.8-0.3 1.5-0.4 2.3-2.6 12-8.1 22-18 29-15 9.4-31 12-49 9.1-10-2.5-20-7.4-27-15-2-0.2-2-0.2-4.4 0-0.9 0-1.8 0-2.8 0.1-1 0-2 0.1-3 0.1-2.3 0.1-4.5 0.2-6.7 0.3-1.2 0.1-2.4 0.1-3.6 0.2-23 1-45 1.6-68 1.6h-6.2c-3.9 0.1-7.8 0.1-12 0.1h-3.5c-9.3-0.1-18-1.2-25-7.4-5.9-8.8-9.1-19-12-29-1.3-4.1-2.7-8.1-4.1-12-0.3-0.8-0.6-1.6-0.9-2.4-3.8-11-8-22-12-33-0.8-2.3-1.7-4.5-2.5-6.8-0.4-1.1-0.8-2.3-1.3-3.5-0.3-1.1-0.7-2.1-1.1-3.2-1.7-3.6-3.8-5.3-7.2-7.2-2.9-0.7-4.3-0.5-7.1 0.5-2.2 1.7-4.1 3.4-6.1 5.4-0.6 0.6-1.2 1.1-1.9 1.7-12 11-23 23-34 34l3 7.5c0.4 0.9 0.7 1.7 1.1 2.6 0.3 0.8 0.6 1.6 1 2.5 3.4 9.2 3.4 22 0 31-6.2 13-15 22-29 28-14 4.4-28 3.3-41-3-13-7-20-17-24-31-2.4-12-0.4-25 6.4-36 7.8-11 19-19 32-21 16-1.5 29 2.9 42 12l42-42c-1.2-1.4-1.2-1.4-4.9-1.4-2.4-0.3-3.9-0.5-6-1.7-3.2-5.4-3.6-12-3.1-18 2.1-4.6 2.1-4.6 5-6 10-1.2 18 2.7 27 8 0.6-0.9 0.6-0.9 1.1-1.8 7.7-12 7.7-12 14-14 3.6-0.3 7.2-0.4 11-0.5 1-0.1 2-0.3 3.1-0.5 1.1-1.9 1.1-1.9 2-4 2.5-1.6 2.5-1.6 5.4-3.1 5.8-2.5 5.8-2.5 9.5-7.1 0.3-0.8 0.5-1.6 0.8-2.4 0.2-0.8 0.5-1.7 0.7-2.5 0.2-0.6 0.4-1.3 0.6-1.9zm-10 18c-0.7 1.3-1.3 2.6-2 4h2c0.7-1.3 1.3-2.6 2-4h-2zm-26 10c-1.9 2-1.9 2-3 4 1.8 0.8 1.8 0.8 4 1 2.4-1.1 2.4-1.1 4.8-2.8 0.7-0.6 1.5-1.1 2.4-1.7l1.8-1.5v-2c-4 0-6.5 1.2-10 3zm-38 11c-1 3.7-1 6.3 0 10 0.7-0.3 1.3-0.7 2-1 0.2-3.4 0.2-3.4 0-7l-2-2zm43 3c0.3 1 0.7 2 1 3 1-0.3 2-0.7 3-1-1.3-0.7-2.6-1.3-4-2zm-3 27c2 6.2 4.2 12 6.6 18 0.3 0.9 0.7 1.7 1 2.6 0.7 1.8 1.4 3.7 2.1 5.5 1.1 2.7 2.2 5.5 3.2 8.2 3.8 9.6 7.6 19 12 28 1.3-0.7 2.6-1.3 4-2-0.3-3-0.7-5.9-1-9-1.6-0.3-3.3-0.7-5-1-3.3-12-3.3-12-4-17l3.2-0.2c4.5-0.9 5.8-2.4 8.8-5.8 3-1.9 5.2-2.2 8.8-2.1h2.4c0.6 0.1 1.2 0.1 1.8 0.1l3 6h2c0.8-3.3 1.1-4.7 0-8 3.3-0.3 6.6-0.7 10-1-0.3-2.9-0.8-4.7-2.6-7.1-5.6-4.3-13-6-20-6.1h-3c-2.2-0.1-4.3-0.1-6.4-0.1-11-0.3-19-3.1-27-9.7zm89 30c0 3.6 1.1 5.1 3 8 0.3-0.7 0.7-1.3 1-2 2.1-0.6 2.1-0.6 4-1-3.9-2.7-3.9-2.7-8-5zm-223 15c-5.8 6.7-6.5 14-6.3 23 0.8 8.8 4.9 15 11 21 8.6 6.5 17 8.1 28 7.3 5.3-0.8 9.6-3.4 14-6.3 1.7-1.1 1.7-1.1 3.4-2.1 7.2-7.9 9.4-16 9-26-0.5-4.3-1.5-7.5-3.4-11-4.9 0-6.3 1.7-9.6 4.9-0.5 0.4-1 0.9-1.5 1.4-2 1.8-4 3.8-5.9 5.7 0 1.1 0.1 2.1 0.1 3.2-0.1 4.6-1.3 6.4-4.1 9.8-4.3 2.8-8 2.6-13 2-3.2-1.6-5.2-2.9-7.4-5.8-1.2-4.5-1-8.1 0.5-12 2.3-3.5 4-4.5 7.9-5.8 3.6-0.3 6.4-0.2 9.8 0.9 3.6 0.1 3.9-0.1 6.4-2.4 1.1-1.1 2.1-2.3 3.2-3.4 0.5-0.6 1.1-1.2 1.6-1.8 1.4-1.4 2.7-2.9 4-4.3-0.7-3.1-0.7-3.1-3.1-4.4-0.9-0.4-1.8-0.8-2.7-1.2-0.9-0.5-1.8-0.9-2.7-1.3-15-6.5-29-1.3-40 9.9zm231-9c0.3 0.7 0.7 1.3 1 2h2c1.5 5.2 2.2 9.6 2 15-3.6 1.2-5.3 0.6-9 0-3-0.1-6-0.1-9 0 3.6 2 6.9 2.5 11 3 0.3 1.3 0.7 2.6 1 4 9.6 0.3 19 0.7 29 1-1.3-2.5-2.4-2.9-4.9-4.1-0.7-0.3-1.4-0.6-2.1-1-2.1-1-2.1-1-5-1.9 0.7-2.3 1.3-4.6 2-7-8.1-7.4-8.1-7.4-18-11zm80 16c-2.2 3.1-3 4.2-3 8 3.8 0.4 7.3 0.6 11 0 1.9-1.6 3.1-3.2 4.5-5.2 2.8-3.3 6.4-4.2 10-4.8 6.3-0.2 11 1.4 16 5 3.8 3.9 5.9 7.7 6 13-0.4 6.6-2.6 11-7.6 15-3.7 2.6-6.7 2.9-11 2.9-1.5 0.1-1.5 0.1-3 0.1-3.2-0.3-3.2-0.3-6.6-1.8-4-1.7-7.2-1.8-12-1.6-1.5 0-2.9 0-4.4 0.1h-2.3c-4 0-8-0.2-12-0.5-0.7 0-1.5-0.1-2.2-0.1-1.7-0.2-3.5-0.3-5.2-0.4 0.3 0.7 0.7 1.3 1 2 3.1 1 5.7 1.1 9 1.1 11 0.3 11 0.3 15 3.7 0.5 0.5 1 1.1 1.5 1.6 5 4.8 12 5.9 19 6.1 9.1-0.3 16-3.3 23-9.6 4.7-5.3 6.3-11 7-18-0.6-8-3.5-15-9.3-21-15-11-32-9.4-45 4z" fill-rule="evenodd"/></svg>