<svg width="384" height="256" version="1.1" viewBox="0 0 384 256" xmlns="http://www.w3.org/2000/svg"><path transform="translate(146,55)" d="m0 0c2.4 0.2 2.4 0.2 5 1 2.2 2.9 2.2 5.5 2 9-2.5 0.7-4.4 1-7 1 2.3 1.3 4.6 2.6 7 4v2c2.3 0.7 4.6 1.3 7 2-0.3 1.3-0.7 2.6-1 4h-7c-1.6 3.6-2.4 6.9-2.9 11-0.6 3.8-1.4 7.2-2.7 11-2.8 8-1.8 14 1.6 22 1.5 3.8 1.7 7.4 2 12 8.2 0.2 16 0 24-0.9 0.7-0.1 1.5-0.1 2.2-0.2 4.2-0.5 4.2-0.5 7.5-2.9 0.5-2.4 0.5-2.4 0-5-1.9-2.3-1.9-2.3-4-4 1.8-7.1 4.7-13 10-18 4.1-2.1 8-2.3 12-2.4h2.2c2.3-0.1 4.6-0.1 6.9-0.2 3 0 6.1-0.1 9.1-0.2h2.2c5-0.1 9.9-0.5 15-1.1 2.3-0.1 2.3-0.1 5 0.5 0.7 0.1 1.5 0.3 2.3 0.4 2.1-1.9 2.1-1.9 4-4 4.1-1.4 8.2-1.2 12-1.2h2.3c7.1 0 7.1 0 10 2.2 0.3 0.7 0.7 1.3 1 2h1.8c2.7 0 5.3 0 8-0.1h2.8 2.7 2.5c2.2 0.1 2.2 0.1 5.2 1.1v3l-1.8 0.8c-3.5 1.5-6.8 2.9-10 5-2.2 1.2-2.2 1.2-6.2 1.2 5.9 1.5 5.9 1.5 12 3-0.3 1.7-0.7 3.3-1 5-1 0.7-2 1.3-3 2 0.5 0.7 1 1.4 1.5 2.2 1.5 2.8 1.5 2.8 1.4 5.2 0.1 3.4 1.4 4.6 3.6 7.2 3.5 4 3.5 4 3.5 8.4-4.3-0.3-6.2-1.8-9-5-0.6-0.8-0.6-0.8-1.3-1.6-0.5-0.5-0.9-1-1.4-1.5l-3.3-3.9c0.5 1 0.9 2 1.4 3 2.9 6.8 3.3 13 0.6 20-3.4 6.4-9 12-16 14-7.8 1.9-16 2.5-24-0.5-1.3-0.8-2.5-1.7-3.8-2.6-5.6-3.4-12-3-18-3.1-0.8 0-1.7 0-2.5-0.1h-2.4c-2-0.2-2-0.2-5-2.2-2.8-0.3-5.6-0.4-8.4-0.5-1.6 0-3.1-0.1-4.6-0.2h-2c-2-0.3-2-0.3-3.8-1.3-2.5-1.1-4.1-1.3-6.7-1.3h-2.8-2.9-6.1c-3.2-0.1-6.4-0.1-9.7-0.1-3.1 0-6.2 0-9.3-0.1-0.9 0-1.9 0-2.9 0.1-6.1-0.1-11-1.1-16-4.6-3.6-4.1-4.8-8.4-6.2-14-1.5-4.6-3.7-7.7-7.8-10 0.9 1.1 0.9 1.1 1.9 2.1 4.5 6.1 5 12 4.1 20-2.7 8.6-7.7 13-15 17-8.3 2.2-16 2.4-24-1.5-6.3-3.9-10-8.2-13-15-1.3-8.2-0.4-15 4.3-21 0.4-0.5 0.7-0.9 1.1-1.4l-2-2c0.2-3.1 0.5-4.5 2.7-6.7 10-6.7 20-7.8 32-8.3 0.2-0.7 0.4-1.3 0.6-2 3.9-12 10-21 20-29-3-0.7-3-0.7-6.1-1.4-1.9-0.6-1.9-0.6-3.9-2.6-0.3-2.3-0.3-2.3-0.4-4.9 0-0.9 0-1.8-0.1-2.7 0.5-2.4 0.5-2.4 2.1-4.2 3.1-1.5 5.2-1.5 8.6-1.4h3.2c2.6 0.2 2.6 0.2 3.6 1.2 0.1-1.1 0.3-2.3 0.4-3.4 0.6-3.6 0.6-3.6 1.6-4.6zm-17 12v5l2 1v-6h-2zm-41 64c-4 5.5-4.9 9.3-4.2 16 2.1 6.3 6.8 10 12 13 6.6 1.6 13 1 19-2.4 4.2-3.5 6.9-7.5 7.9-13 0.2-5.2-2-9.6-4.6-14-4.8-4.5-9.3-6.4-16-6.6-6.1 0.2-10 1.7-14 6.3zm172-2.9c-0.3 0.7-0.7 1.3-1 2 0.9 2 1.9 4 3 6 2.6-1 5.3-2 8-3v-4c-3.5-1.2-6.4-1.1-10-1zm12 10c0 0.6 0 1.2 0.1 1.8v2.4c0 0.8 0.1 1.6 0.1 2.4-0.2 2.7-0.7 4.2-2.2 6.4-4.8 2.7-10 3.3-16 3.8-3.2 0.3-6.1 1.2-9.2 2.2 5.7 4.5 11 4.5 18 4 7.1-1.2 11-5.4 15-11 1.6-3.1 1.4-6.6 1-10-0.7-1-1.3-2-2-3-2.9-0.2-2.9-0.2-5 1zm-51 18c0.3 0.7 0.7 1.3 1 2h6c0.3-0.7 0.7-1.3 1-2h-8z" fill-rule="evenodd"/><path transform="translate(108,131)" d="m0 0c3.2 1.3 4.6 2.5 6.8 5.2 1.6 3.7 1.9 6.9 1.2 11-2.1 4.1-3.8 6.3-8 8-4.6 0.7-8.1 0.4-12-1.6-3-2.7-4.3-4.6-5.6-8.4 0-6.1 1.9-8.8 6-13 3.7-1.8 8-1.4 12-1z" fill-rule="evenodd"/></svg>