<svg width="786" height="256" fill-rule="evenodd" version="1.1" viewBox="0 0 786 256" xmlns="http://www.w3.org/2000/svg"><g fill-rule="evenodd"><path transform="translate(201 61)" d="m0 0h3.2 10 7.3 15c6.4-0 13-0.1 19-0.1h15 7.2 10 3c8.5 0 15 1.8 21 7.8l1.5 1.5c1.8 1.6 3.5 3.4 5.3 5.1l2.1 2.1c5.8 5.7 12 12 17 17 3.4 3.4 6.8 6.8 10 10l2.3 2.3c4.2 4.3 4.2 4.3 8.8 8.1 3.5 3 5.8 6.4 6.6 11 0.2 2.2 0.2 4.4 0.2 6.6v2.5c0.1 2.5 0.1 5.1 0.1 7.6 0 2.6 0 5.1 0.1 7.7v4.8c0 3.8 0.1 5.5 2.3 8.8v8h-20l-0.2-5.4c-0.7-7.9-3.2-14-9.1-20-1.2-0.9-2.5-1.8-3.7-2.6-0.7-0.4-1.3-0.9-1.9-1.3-7-3.8-15-4-23-2.7-10 3-15 8.4-20 17-1.7 5-1.7 5-2.1 16h-145c-1-7.9-1-7.9-2-16-4.1-8.1-9.4-12-17-16-8.1-2.6-18-1.6-26 2-6.9 3.9-11 9.2-13 16-0.9 4.6-1.4 9.1-1.7 14-2.1 0.1-4.2 0.2-6.3 0.2-1.2 0.1-2.3 0.1-3.5 0.2-3.2-0.4-3.2-0.4-5.7-1.8-4.3-7.2-1.2-19-0.3-27 0.1-1.2 0.2-2.3 0.3-3.5 1.3-11 1.3-11 5.5-15 7.1-3.9 16-4.6 24-6 2.5-0.5 5-0.9 7.5-1.4 7.2-1.3 14-2.7 22-3.8 1.6-0.3 1.6-0.3 3.2-0.5 1.9-0.3 3.8-0.6 5.7-0.9 8.3-1.3 12-5.5 17-12 1-1.2 1.9-2.5 2.9-3.8 0.7-0.9 0.7-0.9 1.5-1.8 2.6-3.5 5.4-6.8 8.2-10 1.5-1.8 3-3.6 4.4-5.4 2.3-2.8 4.5-5.5 6.8-8.2 0.7-0.9 1.4-1.8 2.1-2.6 0.7-0.9 1.4-1.7 2.1-2.5 0.6-0.7 1.2-1.4 1.8-2.1 5.1-4.7 11-4.1 17-4.1zm-14 18c-0.6 0.6-1.1 1.3-1.6 1.9s-0.9 1.3-1.4 1.9c-0.5 0.7-1 1.4-1.5 2.2-0.5 0.7-1.1 1.5-1.6 2.2-0.6 0.8-1.1 1.6-1.7 2.4-1.8 2.4-3.5 4.9-5.2 7.4-0.6 0.8-1.2 1.6-1.8 2.5-3.4 4.8-6.8 9.6-10 14 0.6 1 1.3 2 2 3 2.4 0.3 4.6 0.4 7.1 0.3h2.2 7.3 5c4.4-0.1 8.8-0.1 13-0.1 5.3-0.1 11-0.1 16-0.1 8 0 16-0.1 24-0.1v-43c-6.6-0.1-13-0.2-20-0.3-2.2 0-4.4-0.1-6.7-0.1-3.2-0.1-6.4-0.1-9.7-0.1-1.5-0.1-1.5-0.1-3-0.1-6.1 0-8.9 0.4-13 5.6zm62-5v43h24c5 0 9.9 0 15 0.1h12 4.6 6.4 3.7c2.8 0.1 2.8 0.1 4.9-1.1 0-6.3-2.4-8.9-6.6-13-2.8-3-5.3-6.2-7.9-9.5-0.9-1.2-1.9-2.4-2.8-3.6-0.4-0.6-0.9-1.2-1.4-1.8-2.1-2.7-4.2-5.4-6.4-8-1.1-1.4-1.1-1.4-2.2-2.7-1.6-2.1-1.6-2.1-3.7-3-3-0.1-6-0.1-9-0.1h-2.4-8.8c-6.5 0-13 0.1-20 0.1z"/><path transform="translate(133 148)" d="m0 0c5 3.7 8.1 8.8 9.3 15 0.7 8.2-0.6 14-5.2 21-4.3 4.8-11 8.5-18 9-9.4 0.2-17-0.9-24-7.3-4.5-4.9-6.9-11-7.3-18 0.5-7.9 3.2-14 9-19 11-8.8 24-8.7 36-1.1z"/><path transform="translate(334 146)" d="m0 0c6.7 4.2 10 8.7 13 16 1.1 7.4 0.7 14-3.5 20-4.4 5.6-9.5 9.6-16 11-10 1-18-0.2-26-6.3-5.8-5.9-8.1-13-8-21 0.7-6.4 3.9-12 8.3-17 9.4-7.2 22-8.9 33-3.2z"/></g></svg>