<svg width="786" height="256" fill-rule="evenodd" version="1.1" viewBox="0 0 786 256" xmlns="http://www.w3.org/2000/svg"><g fill-rule="evenodd"><path transform="translate(327 17)" d="m0 0c0.8 0.2 1.6 0.5 2.4 0.8 1.6 3.2 1.4 6.9 1.5 11 0.1 0.8 0.1 1.6 0.2 2.4l0.3 6 1.5-3c2.5-3 2.5-3 5.9-3.6 1.3 0 2.5 0.1 3.8 0.2 1.3 0 2.6 0.1 3.9 0.1 1.4 0.1 1.4 0.1 2.9 0.3 0.3-1 0.6-2 1-3 3.1-1.6 6.5-1.2 9.9-1.3h2.4 5c2.5 0 5.1 0 7.6-0.1h4.9 2.3c3.2 0 5.5 0.1 8.3 1.7 2.8 3 2.8 6.2 2.8 10 0.1 0.9 0.1 1.9 0.1 2.9-0.4 3.2-0.9 4.5-3.3 6.7-6.6 1.7-14 1.1-21 1.1-1.8 0.1-1.8 0.1-3.6 0.1h-3.6-3.2c-3.3-0.3-6-1.1-9-2.2v-2h-8c-0.3 0.6-0.5 1.3-0.8 2-1.5 3.5-3.3 6.7-5.2 10-4.7-0.7-8.4-2.7-12-4.9-7-3.6-14-6.2-22-8.1 4.5-7.2 9.6-14 15-20 0.7-0.9 1.4-1.8 2.1-2.8 2.3-2.8 3.7-4.4 7.5-4z"/><path transform="translate(448,40)" d="m0 0c5.3 3.1 8.1 7.8 9.7 14 0.8 4 1.3 7.5 1.3 12-0.6 0-1.2 0.1-1.8 0.1-8.2 1-13 5-18 11-0.9 1.2-1.8 2.3-2.7 3.5-4.8 6.1-9.2 10-17 12-5.5 0.5-11 0.5-17 0.2-3.4-0.1-6.9-0.1-10-0.1-2.2 0-4.4-0.1-6.7-0.1h-3.1c-7.6-0.4-12-2.9-17-8.2 0.3-0.7 0.7-1.3 1-2 1.9-0.4 1.9-0.4 4.4-0.7 0.9-0.1 1.8-0.3 2.8-0.4s2-0.2 3.1-0.3c1-0.1 2.1-0.2 3.1-0.4 4.5-0.5 9-1 14-1.5 3.2-0.4 6.5-0.8 9.8-1.2 1.5-0.1 1.5-0.1 3-0.3 8.5-1 16-2.4 22-8.2h2c0.3-0.6 0.6-1.1 0.9-1.7 0.7-1.5 1.4-2.9 2.1-4.3 2.4-5 3.5-9.2 3.7-15 0.3-2.5 1-4.2 2.3-6.3 3.1-1.6 5.6-1.3 9-1z"/><path transform="translate(308 50)" d="m0 0c19 7.5 19 7.5 23 14h-50c4.5-9 4.5-9 7.7-11 0.5-0.5 1.1-1 1.7-1.4 5.2-3.7 12-3 18-1.3z"/><path transform="translate(294 69)" d="m0 0h3.8 9.9c2.7 0.1 5.4 0.1 8.1 0 3.3 0 6.5 0 9.8 0.1h3.6c8 0 13 1.2 19 6.4 1 0.9 1 0.9 2.1 1.8l8.7 7.2c2.2 2 2.2 2 4.3 4.4 7.2 7.6 15 8 25 8.5 2.5 0 5 0.1 7.5 0.1 3.8 0.1 7.5 0.3 11 0.5 13 0.6 13 0.6 25-4.9 2.9-3.1 5.6-6.4 8.3-9.6 6.4-7.8 12-13 22-14 9.8-0.8 20-0.4 29 0.2 3.7 0.1 7.4 0.2 11 0.2 4.4 0.1 8.9 0.2 13 0.4h2.5c10 0.4 17 1.2 25 8.1 6.1 7.1 10 15 11 25-0.4 3.5-0.4 3.5-2.4 5.7-3.7 2.3-6 2.2-10 2-1.8 0-1.8 0-3.8-0.1-0.9 0-1.9-0.1-2.9-0.1 0.4 4 0.7 7.9 1 12 1 0 2 0 3 0.1 5.3 0.7 9.3 4.2 13 7.9 0.4 1 0.7 2 1 3-0.4 0.7-0.8 1.5-1.2 2.2-1 2.7-1 2.7 0 4.7 1.3 2 2.5 3.5 4.2 5.1 3.1 0.3 3.1 0.3 6 0 3.6 2.4 4.3 6.3 5.3 10 0.2 0.7 0.4 1.3 0.6 2 1.1 4.2 1.2 7.4 0.1 12-1.9 0.3-3.9 0.7-6 1-1.4 7.2-1.4 7.2 1 14 0.7 0.4 1.3 0.8 2 1.3-1.8 7-4.6 15-11 19-2 0.7-2 0.7-4.4 0-2.8-0.6-2.8-0.6-5.3 1.7-2.6 2.8-2.6 2.8-2.5 6.6-0.8 3.4-0.8 3.4-2.4 4.6-2.4 1.1-4.8 2-7.4 2.8-1.4 0.5-1.4 0.5-2.9 1-5.5 1.6-5.5 1.6-8.1 2-0.9-0.7-1.9-1.3-3-2v-2c-0.6 0.2-1.2 0.3-1.9 0.5-5.4 0.9-11 1-16-0.5-0.3 1-0.6 2-1 3-4.3 1.8-7.9-0.1-12-1.8-0.7-0.2-1.5-0.5-2.2-0.8-6.3-2.4-6.3-2.4-8.8-5.4 0.4-2.7 0.4-2.7 1-5-0.7-0.3-1.4-0.5-2.2-0.8-2.8-1.2-2.8-1.2-4.7-2.8-2.1-1.7-2.1-1.7-5.1-1.3-3-0.1-3-0.1-5-1.8-2.1-2.5-3.4-4.8-4.7-7.7-0.4-1-0.9-1.9-1.3-2.9-1-2.7-1.1-4.8-1-7.7 1.4-0.7 2.7-1.3 4-2-0.3-0.7-0.6-1.3-1-2-0.2-1.5-0.4-3.1-0.5-4.6-0.1-0.8-0.2-1.7-0.3-2.5 0-0.6-0.1-1.3-0.2-1.9-1.2-0.5-1.2-0.5-2.4-0.9-2.6-1.1-2.6-1.1-3.6-2.1-0.8-7.2 1.2-16 5.5-22 1.5-1.1 1.5-1.1 5.2-0.8 1.1 0.2 2.2 0.5 3.3 0.7 0.4-0.8 0.7-1.6 1-2.4 1-2.6 1-2.6 2-4.6h2c-0.9-2-1.9-4-3-6 3.8-4.9 7.2-8.6 13-11 3.4 0.7 3.4 0.7 6 2h2v-2c-0.8-0.1-1.6-0.3-2.4-0.4-2.6-0.6-2.6-0.6-3.6-1.6v-5.1-2.8-2.1h-9c-0.6 1.3-1.3 2.6-2 4-0.8 1.2-1.6 2.5-2.5 3.7l-1.5 2.1c-0.6 0.7-1.1 1.5-1.7 2.3s-1.2 1.5-1.7 2.4c-4.8 6.4-9.5 13-14 19-3 4-6 8.1-8.9 12-0.9 1.2-0.9 1.2-1.8 2.5-1.1 1.6-2.2 3.1-3.3 4.7l-1.5 2.1c-0.7 1-0.7 1-1.3 1.9-2.7 3.2-4.5 4.6-8.7 5.1h-3.8-2.2c-2.3 0.1-4.6 0.1-6.9 0.1h-4.9-10c-4.3 0-8.7 0-13 0.1h-10-4.8-6.7-3.9c-4.2-0.8-5.7-2.3-8.4-5.6-1.4-2.4-1.4-2.4-2.5-5-0.5-1-0.9-1.9-1.3-2.9-0.5-1-0.9-2.1-1.4-3.1-0.5-1.1-0.9-2.1-1.4-3.2-1.5-3.3-2.9-6.5-4.4-9.8-0.4-1-0.9-2.1-1.3-3.1-1.3-3-2.6-5.9-3.8-8.8l-1.2-2.7c-0.4-0.8-0.7-1.6-1.1-2.5-0.3-0.7-0.6-1.4-0.9-2.1-0.7-1.8-0.7-1.8-0.7-3.8-1-0.4-1-0.4-2.1-0.8-3-1.3-5.5-2.9-8.2-4.8-4.4-2.8-7.4-4.3-13-4.4v12h5c2.4 1.5 2.4 1.5 4.7 3.4 0.8 0.6 1.6 1.2 2.4 1.9 1.3 1.2 2.7 2.4 3.9 3.7-0.2 1.2-0.4 2.5-0.6 3.7-0.5 3.6-0.3 4.3 1.2 7.8 2.2 2.8 2.2 2.8 5.4 2.6 1-0.1 2-0.1 3-0.1 5.1 4 6 11 7 17 0.3 3.3 0.3 3.3 0 6-2.1 2.1-3.1 2.4-6 3-0.2 1.8-0.4 3.5-0.6 5.3-0.2 1-0.3 2-0.4 3-0.3 2.7-0.3 2.7 1.6 4.2 0.5 0.5 1 1 1.4 1.5-0.2 4.5-1.6 7.8-3.8 12-0.5 0.9-1 1.8-1.5 2.8-1.7 2.5-3 4-5.7 5.5-1.1 0-2.2-0.1-3.3-0.1-3.6 0.1-4.4 0.2-7.1 2.3-2.8 2.5-2.8 2.5-2.7 5.4 0.1 0.8 0.1 1.6 0.1 2.4-3.2 3.1-7.3 4.4-12 5.8-0.9 0.4-0.9 0.4-2 0.7-4.9 1.7-4.9 1.7-7.9 0.7-1.6-1.2-1.6-1.2-2.6-2.2-1.8-0.1-3.7 0-5.6 0-4.3 0-8.2-0.1-12-1-0.3 1-0.6 2-1 3-4.3 1.8-7.9-0.1-12-1.8-0.7-0.2-1.5-0.5-2.2-0.8-3.6-1.3-6.3-2.4-8.8-5.4 0.1-0.8 0.1-1.6 0.2-2.4 0.1-2.8 0.1-2.8-2.3-5.5-2.7-2.5-2.7-2.5-5.9-1.7-0.9 0.2-1.9 0.4-3 0.6-4.1-2.7-6.1-5.5-8.3-9.9-0.5-1.1-1-2.1-1.5-3.1-1.1-3-1.4-4.9-1.2-8l4-2c-0.2-1.6-0.4-3.3-0.7-4.9-0.1-0.9-0.3-1.8-0.4-2.7-0.6-2.5-0.6-2.5-2.8-3.6-0.7-0.3-1.4-0.5-2.1-0.8-2-2-2-2-2.3-4.9 0.2-6.2 1.3-14 5.3-18 2-1.6 2-1.6 5.3-1.4 1.4 0.4 1.4 0.4 2.7 0.8 0.3-0.7 0.6-1.5 0.9-2.3 1-2.3 2-4.5 3.1-6.7-0.4-0.5-0.4-0.5-1-1-0.3-2.3-0.3-2.3 0-5 2.2-2.4 2.2-2.4 5.2-4.8 0.9-0.7 1.9-1.5 2.9-2.3 3.7-2.4 6.9-3.4 11-2.4 0.8 0.2 0.8 0.2 1.6 0.5 1.3-1.1 1.3-1.1 1.1-3.5v-3.1-3c0-0.8 0-1.6-0.1-2.4-0.8 0-1.6 0.1-2.5 0.1-1.6 0-1.6 0-3.3 0.1-1 0-2.1 0.1-3.2 0.1-3-0.3-3-0.3-4.8-1.7-1.2-1.6-1.2-1.6-1.2-4.2 4.2-13 17-25 29-31 8.3-3.8 16-4.6 25-4.5zm-23 42v5h4v-5h-4zm10 0v5c0.7 0.2 1.3 0.5 2 0.7 2 1.3 2 1.3 2.8 3.4 0.1 0.6 0.2 1.3 0.2 1.9 2.4 0.3 4.7 0.7 7 1-0.6-0.3-1.3-0.7-2-1v-11h-10zm214 0v5h5v-5h-5zm11 0v5c1.7 0.4 1.7 0.4 3.4 0.7 1.2 0.5 2.4 0.9 3.6 1.3 0.4 0.7 0.7 1.3 1 2s0.7 1.3 1 2c2.2 0.7 2.2 0.7 4.7 0.7 1.2 0.1 1.2 0.1 2.5 0.2 0.6 0 1.2 0.1 1.8 0.1-0.3-0.7-0.6-1.3-1-2h-2v-10h-15zm-255 40c-4.5 7.1-7 14-6 23 2.1 8.6 5.9 16 13 21 8.9 5.1 19 6.1 29 3.7 8.5-3.4 15-10 19-18 2.7-8.1 1.8-17-1.8-25-4.3-7.8-11-12-19-15-14-3.8-26 0.5-35 11zm234-1c-5.5 7.1-8.1 15-7 24 2.3 9.3 6.6 16 14 21 8.7 4.8 19 5 29 2.9 8.8-3.2 15-9 19-17 3.3-8.7 2.6-17-1-25-4.3-7.6-11-14-20-16-13-2.7-25 0.3-34 10z"/><path transform="translate(291,150)" d="m0 0c5.1 4.4 9.2 9.1 10 16 0.3 7.7-1.8 13-7 19-7.4 5.8-14 6.9-23 6-7.2-2-11-5.6-15-12-2.9-5.7-3.2-12-1.5-18 3-6.4 7.8-11 14-14 8-2.5 15-1.3 22 2.9z"/><path transform="translate(524,150)" d="m0 0c5.1 3.3 7.6 7.4 9.8 13 0.8 7.1-0.2 13-3.8 19-4.6 5.2-9.3 8.6-16 9.3-8.2 0.1-14-0.1-20-5.9-5.5-6.1-6.8-11-6.6-19 0.6-6.1 3.1-10 7.5-14 9.5-7.4 20-7.5 30-1.7z"/></g></svg>