<svg width="786" height="256" fill-rule="evenodd" version="1.1" viewBox="0 0 786 256" xmlns="http://www.w3.org/2000/svg"><g fill-rule="evenodd"><path transform="translate(195 61)" d="m0 0h2.8 3 3.1 10c2.4-0 4.8-0 7.2-0.1h15c6.5 0.1 13 0 20 0h15 7.1 10 2.9c8.8 0 16 1.6 22 7.8 0.5 0.5 1 1 1.5 1.4 1.7 1.7 3.4 3.4 5.1 5.2 0.7 0.7 1.5 1.4 2.2 2.1 5.8 5.7 12 12 17 17l10 10c1.1 1.2 1.1 1.2 2.3 2.4 4.2 4.2 4.2 4.2 8.8 8 4.2 3.7 6.4 7.6 6.8 13v4.6c0 1.2 0 1.2 0.1 2.4v7.7c0.1 2.5 0.1 5.1 0.1 7.7 0.1 1.6 0.1 3.2 0.1 4.8-0.1 3.9-0.1 3.9 1.1 7.7 5.7 0.3 11 0.6 17 1 0.4-1.7 0.7-3.3 1-5h20v2h57v-4h64c-0.6 2.3-1.3 4.6-2 7-0.3 2.9-0.6 5.9-1 9h-61v-2l-22 0.3c-3.4 0.1-6.8 0.1-10 0.2-3.9 0-7.8 0.1-12 0.1-1.2 0.1-2.4 0.1-3.7 0.1-5.6 0.1-11 0.3-16 1.3v6c-1.6 0.3-3.3 0.6-5 1-0.3-1.7-0.6-3.3-1-5-1.7-0.3-1.7-0.3-3.4-0.5-3.6-0.5-3.6-0.5-4.6-1.5-2.6-0.2-5.3-0.3-7.9-0.4h-2.4c-2.6-0.1-5.2-0.1-7.7-0.2-1.8 0-3.5-0.1-5.2-0.1-4.3-0.1-8.5-0.2-13-0.3 0-1.2 0-1.2-0.1-2.5-0.1-1-0.1-2.1-0.2-3.2s-0.2-2.1-0.2-3.2c-0.9-6.5-3.9-12-8.7-16-1.2-0.9-2.5-1.8-3.8-2.6-0.6-0.5-1.2-0.9-1.8-1.3-7-3.8-15-4-23-2.7-10 3-15 8.4-20 17-1.7 5-1.7 5-2.2 16h-145c-0.9-8-0.9-8-2-16-4-8.1-9.4-13-18-16-9.3-2.5-19-1.5-27 3.2-5.7 3.6-8.9 9.1-11 15-0.9 4.6-1.4 9.1-1.8 14-2 0-4.1 0.1-6.2 0.1-1.7 0.1-1.7 0.1-3.5 0.2-3.6-0.4-4.7-0.8-7.3-3.3-0.4-2.5-0.4-2.5-0.3-5.4 0.1-1.6 0.1-1.6 0.1-3.2 0.4-5.6 0.9-11 1.5-17 0.1-1.1 0.2-2.3 0.3-3.5 1.3-11 1.3-11 5.4-15 7.2-3.9 16-4.6 24-6 2.5-0.5 5-0.9 7.4-1.4 7.3-1.4 14-2.7 22-3.8l3.2-0.6c1.9-0.3 3.8-0.5 5.7-0.8 8.3-1.3 12-5.5 17-12 1-1.3 1.9-2.5 2.9-3.8 0.7-0.9 0.7-0.9 1.5-1.9 2.6-3.4 5.4-6.7 8.2-10 1.5-1.8 2.9-3.6 4.4-5.4 3.6-4.5 7.3-9 11-13 0.6-0.7 1.2-1.4 1.8-2.2 3.2-3.1 6-4 10-4zm-7.6 18c-0.5 0.6-1 1.2-1.5 1.9-0.5 0.6-0.9 1.3-1.4 1.9l-1.5 2.1c-0.5 0.8-1.1 1.5-1.6 2.3-0.6 0.8-1.1 1.6-1.7 2.4-1.8 2.4-3.5 4.9-5.3 7.4-0.5 0.8-1.1 1.6-1.7 2.5-3.4 4.8-6.9 9.6-10 14 0.7 1 1.4 1.9 2 3 2.5 0.2 4.7 0.3 7.2 0.3h2.2 7.2c1.7-0.1 3.4-0.1 5.1-0.1h13c5.3-0.1 11-0.1 16-0.1 8 0 16-0.1 24-0.1v-43c-6.6-0.2-13-0.3-20-0.3-2.2 0-4.5-0.1-6.7-0.1-3.2-0.1-6.5-0.1-9.7-0.1-1.5-0.1-1.5-0.1-3-0.1-6.1 0-9 0.4-13 5.6zm62-5v43h24 15c4 0 8 0.1 12 0.1h4.6 6.4 3.7c2.8 0.1 2.8 0.1 4.8-1.1 0-6.3-2.3-8.9-6.5-13-2.8-3-5.4-6.2-7.9-9.5-0.9-1.2-1.9-2.4-2.8-3.6-0.5-0.6-0.9-1.2-1.4-1.8-2.1-2.7-4.3-5.4-6.4-8.1l-2.2-2.6c-1.6-2.1-1.6-2.1-3.8-3-2.9-0.1-5.9-0.2-8.9-0.1h-2.4-8.8c-6.5 0-13 0-20 0.1z"/><path transform="translate(476 74)" d="m0 0h2 6.7 4.8 13 14 23c8.8 0.1 18 0.1 26 0 8.5 0 17 0 26 0.1h11c4.2-0.1 8.5 0 13 0h4.7 6.4 3.6c3.8 0.6 5.5 1.8 8.1 4.5 0.6 3.3 0.6 3.3 0.6 7.2v2.1c0 2.4 0 4.7-0.1 7.1v4.9c0 4.3-0.1 8.6-0.1 13-0.1 4.4-0.1 8.8-0.1 13-0.1 8.6-0.2 17-0.3 26-8 0.2-16 0.3-24 0.3-3.8 0.1-7.5 0.1-11 0.2-3.6 0-7.2 0.1-11 0.1-1.4 0-2.8 0-4.1 0.1-8 0.1-14-0.1-20-5.2-4.7-3.7-11-4-17-3.5-5 1.1-8.9 2-13 5.6-5.8 4.1-13 3-20 2.9h-4.6c-4.1 0-8.1-0.1-12-0.1-4.1-0.1-8.3-0.1-12-0.1-8-0.1-16-0.2-24-0.3-0.1-9.3-0.2-19-0.2-28 0-4.3-0.1-8.6-0.1-13-0.1-4.2-0.1-8.4-0.1-12 0-1.6-0.1-3.2-0.1-4.8v-6.7c0-1.3 0-2.5-0.1-3.8 1.3-7 5.8-9 12-9z"/><path transform="translate(133 148)" d="m0 0c5 3.7 8.1 8.8 9.3 15 0.7 8.2-0.6 14-5.2 21-4.7 5.2-12 8.4-18 9-9 0.2-16-1.2-23-7.3-4.5-4.9-6.9-11-7.3-18 0.5-7.9 3.2-14 9-19 11-8.8 24-8.7 36-1.1z"/><path transform="translate(334 146)" d="m0 0c6.7 4.2 10 8.7 13 16 1.4 8.3-0.1 15-5 22-5 5.8-11 8.6-18 9.3-9.2 0.3-16-1.2-23-6.6-5.8-5.9-8.1-13-8-21 0.7-6.4 3.9-12 8.3-17 9.4-7.2 22-8.9 33-3.2z"/><path transform="translate(571 153)" d="m0 0c5.5 5 8.2 10 8.6 18-0.4 7.4-3.1 13-8.5 18-6.1 4.7-13 6-21 5.4-6.9-1.8-14-4.2-18-10-3.5-6.3-5.3-12-3.3-19 2.6-7.8 6.6-12 14-15 9.6-3.3 20-2.3 28 4.3z"/><path transform="translate(579,157)" d="m0 0c7.5-0 15-0 23-0.1h10 12 3.8 3.6 3.1c2.3 0.1 2.3 0.1 3.3 1.1 0.2 2.4 0.2 2.4 0.3 5.3 0.1 1.5 0.1 1.5 0.1 2.9-0.5 3.6-1.6 4.6-4.4 6.8-2.5 0.5-2.5 0.5-5.2 0.5h-3.2c-1.7-0.1-1.7-0.1-3.4-0.1h-3.4c-3.7 0-7.4-0.1-11-0.2h-7.5c-6.1 0-12-0.1-18-0.2-0.1-0.8-0.3-1.6-0.4-2.5-0.2-1.1-0.4-2.1-0.5-3.3-0.2-1-0.4-2.1-0.6-3.2-0.4-2.4-0.9-4.7-1.5-7z"/></g></svg>