<svg width="786" height="256" fill-rule="evenodd" version="1.1" viewBox="0 0 786 256" xmlns="http://www.w3.org/2000/svg"><g fill-rule="evenodd"><path transform="translate(134,54)" d="m0 0h302v89h-302v-89z"/><path transform="translate(126,74)" d="m0 0c2.7 24 1 49 1 73h151c-2 3-4 5.9-6 9-1.1 3.1-1.1 3.1-1.3 6-0.7 5-0.7 5-1.7 6-1.9 0.1-3.9 0.1-5.8 0.1h-3.8-4.2-4.4-12-12-24-27c-19-0.1-37-0.1-56-0.1-0.2-1-0.4-1.9-0.6-2.9-0.2-1.3-0.5-2.5-0.7-3.8-0.3-1.3-0.5-2.5-0.8-3.8-1.5-5.7-4-9.6-9-13-7.4-3.9-15-5.3-24-3-5.6 2.4-11 5.2-14 11-1.8 4.7-3 9.3-3.8 14-2.4 0.1-4.8 0.1-7.2 0.2-0.7 0-1.3 0-2 0.1-4.5 0-7.3-0.5-11-3.3-6.7-13-2.4-42 1.9-56 1.9-5.1 3.9-10 6.1-15 0.6-1.5 1.2-2.9 1.8-4.4 4.4-10 4.4-10 9.2-13l4.2-0.3c0.9 0 1.8-0.1 2.7-0.1 1-0.1 1.9-0.1 2.9-0.1 1-0.1 2-0.1 3-0.2 2.1-0.1 4.2-0.1 6.3-0.2 3.2-0.2 6.3-0.3 9.5-0.4 10-0.5 20-0.9 30-0.7zm-42 13c-2-0.1-4.1 0-6.1 0h-3.7c-3.5 1.1-3.7 1.4-5.3 4.5l-1.8 4.5c-0.3 0.7-0.6 1.5-0.9 2.2-0.8 2.3-1.6 4.5-2.3 6.8-0.3 0.8-0.6 1.5-0.9 2.3-0.6 1.9-1.3 3.8-1.9 5.7 8.9 0.1 18-0.2 27-0.9 1.7-0.1 1.7-0.1 3.5-0.2 1.1-0.1 2.2-0.2 3.4-0.3 1 0 2-0.1 3-0.2 2.6-0.2 2.6-0.2 4.4-2.4 0.3-3.3 0.3-3.3 0.2-7.2v-3.9c-0.2-3.7-0.6-7.2-1.2-11-4.3-0.1-8.6-0.1-13 0h-4.3z"/><path transform="translate(108,148)" d="m0 0c4.7 4.1 7.6 8.6 8.4 15 0.2 8.2-1.3 13-6.8 19-4.7 4.5-9.9 5.3-16 5.8-7.6-0.7-13-3.6-18-9.3-3.5-5.7-3.8-12-3-18 1.8-5.9 4.9-9.6 10-13 8.9-4.6 17-4 26 1z"/><path transform="translate(309,149)" d="m0 0c4.4 3.4 7.3 6.7 9 12 0.6 5.8 0.9 11-1.6 16-4.8 5-9.2 9.1-16 9.8-9.5 0-15-1.5-22-8.3-3.1-4.7-4.3-9.5-4-15 1.6-6.8 4.1-11 10-15 8.2-4.2 17-4.2 25 0z"/><path transform="translate(368,150)" d="m0 0c4.6 4 7.5 8.5 8.4 15 0.1 6.8-0.9 11-5.4 16-5 4.9-10 6.3-17 6.4-6.6-0.1-12-1.5-17-5.4-5-5.3-6.4-10-6.3-17 0.6-5.9 3.4-10 7.7-14 8.8-6.9 20-6.2 30-0.6z"/><path transform="translate(313,147)" d="m0 0h21c-0.9 1.3-1.9 2.6-2.8 4-2.8 4.2-4.6 8.2-6.2 13-1.9-0.2-1.9-0.2-4-1-0.9-1.8-0.9-1.8-1.4-4.1-1.3-5.2-3-6.9-6.6-12z"/><path transform="translate(371,147)" d="m0 0h65v14c-1.9 1.9-5.5 1.4-8.1 1.6-1.9 0.1-1.9 0.1-3.9 0.2-1 0.1-2 0.1-3 0.2-0.7 1.7-1.3 3.3-2 5h-38c-1.3-4.3-2.6-8.6-4-13-2-2.6-4-5.3-6-8z"/></g></svg>