<svg width="786" height="256" fill-rule="evenodd" version="1.1" viewBox="0 0 786 256" xmlns="http://www.w3.org/2000/svg"><g fill-rule="evenodd"><path transform="translate(133,54)" d="m0 0c30-0 61-0 91-0.1h11 2.2 35 36 20 19 6.9 9.3 2.8c6.3 0 6.3 0 7.4 1.1 0.1 3 0.1 5.9 0.1 8.9v2.9 9.3 6.5 17c0 5.8 0 12-0.1 17v34c-30 0-61 0-91 0.1h-11-2.1-35-36-20-19-6.9-9.4-2.8c-6.3 0-6.3 0-7.4-1.1-0.1-2.7-0.1-5.4-0.1-8.1v-2.8c0.1-15 0.3-31 0.6-46 0-4.4 0.1-8.8 0.1-13 0.2-8.5 0.3-17 0.4-26z"/><path transform="translate(107 75)" d="m0 0c3.1-0 6.2-0.1 9.4-0.1h2.7c6 0 6 0 7.1 1.2 2 26 1 53 1 79h126c-2 4-2 4-4 6.2-3.9 5.3-5.2 12-7 18h-45-21-20c-2.6 0-5.2 0.1-7.7 0.1h-11-3.2-3-2.6c-1.9-0.1-1.9-0.1-2.9-1.1-0.3-1.7-0.5-3.4-0.8-5.1-1.4-7.9-4.9-14-11-19-6.7-4.3-14-6.5-22-5.3-8.9 2-16 6.3-21 14-2.4 5.1-3.3 10-4 16-1.8 1.7-4.4 1.2-6.8 1.2-1.5 0-1.5 0-3.1 0.1-4.5-0.5-7-2.3-10-5.3-1.1-5.5-1.2-11-1.2-16v-2.7c0.1-19 0.3-36 8-53 1.3-2.9 2.3-5.7 3.3-8.6 0.7-2 1.4-3.9 2.1-5.9 0.3-0.8 0.6-1.7 0.9-2.6s0.6-1.7 0.9-2.5c0.3-0.7 0.5-1.4 0.8-2.2 1.7-2.7 3.3-3.5 6.2-4.8 2.6-0.4 5-0.5 7.6-0.6h2.2c2.4-0.1 4.7-0.1 7.1-0.1 1.6-0.1 3.3-0.1 4.9-0.1 6-0.2 12-0.2 18-0.3zm-35 13c-3.1 6.5-5.5 13-7.8 20-0.3 1-0.6 1.9-0.9 2.9-0.8 2.4-1.6 4.7-2.3 7.1 1.7 1.6 3.8 1.1 6.2 1.1h3.2 3.6 3.5c9.2-0.1 18-0.4 28-1.1 1-9.8 1.2-19 0-29-1.2-1.4-1.2-1.4-4.1-1.2-1.3 0-2.7 0-4 0.1h-2.2-6.8-4.6c-3.8 0-7.6 0-11 0.1z"/><path transform="translate(107 155)" d="m0 0c6.9 3.8 11 9.4 13 17 1.4 8.3-1.3 14-5.9 21-3.7 4.4-8.2 6.7-14 8-8.6 0.7-15-0.3-22-5.3-5.3-5.3-7.9-11-8-18 0.1-6.8 1.9-13 6.6-18 8.5-7.3 20-9 30-4.4z"/><path transform="translate(293 158)" d="m0 0c5.4 3.7 8.2 7.5 11 14 0.9 8.1-0.2 14-4.5 21-6.4 6.4-14 9.3-23 9.6-9.2-0.2-15-2.8-22-9.3-4.5-4.8-5.6-9.7-6-16 0.3-6.9 2.9-12 7.9-17 11-8.3 25-8.6 36-1.8z"/><path transform="translate(299,155)" d="m0 0c9.2-0 18-0 28-0.1h13 12 4.7 6.7 3.8c2.8 0.1 2.8 0.1 3.8 1.1 0.1 2.7 0.1 5.4 0.1 8.1-0.1 2.6-0.1 5.2-0.1 7.9h-17c-0.3 2.3-0.7 4.6-1 7-6.1 0-12 0-18 0.1h-6.3-8.9-2.8-2.6-2.3c-1.8-0.1-1.8-0.1-2.8-1.1-0.3-1.5-0.6-3-0.8-4.6-1.5-7.4-4.5-12-9.2-18z"/></g></svg>