<svg width="786" height="256" fill-rule="evenodd" version="1.1" viewBox="0 0 786 256" xmlns="http://www.w3.org/2000/svg"><g fill-rule="evenodd"><path transform="translate(133,54)" d="m0 0c30-0 61-0 91-0.1h11 2.2 35 36 20 19 6.9 9.3 2.8c6.3 0 6.3 0 7.4 1.1 0.1 3 0.1 5.9 0.1 8.9v2.9 9.3 6.5 17c0 5.8 0 12-0.1 17v34c-30 0-61 0-91 0.1h-11-2.1-35-36-20-19-6.9-9.4-2.8c-6.3 0-6.3 0-7.4-1.1-0.1-2.7-0.1-5.4-0.1-8.1v-2.8c0.1-15 0.3-31 0.6-46 0-4.4 0.1-8.8 0.1-13 0.2-8.5 0.3-17 0.4-26z"/><path transform="translate(415 54)" d="m0 0h2.7 3.1 3.4 3.6 10 11 19 27 44c14 0.1 28 0.1 42 0.1h2.6 13 109c0.2 4.4 0.3 8.8 0.5 13 0.1 1.2 0.1 2.4 0.1 3.7 1 27 0 54-0.6 80h-293c0-97 0-97 3-97z"/><path transform="translate(107 75)" d="m0 0c3.1-0 6.2-0.1 9.4-0.1h2.7c6 0 6 0 7.1 1.2 2 26 1 53 1 79h126c-2 4-2 4-4 6.2-3.9 5.3-5.2 12-7 18h-45-21-20c-2.6 0-5.2 0.1-7.7 0.1h-11-3.2-3-2.6c-1.9-0.1-1.9-0.1-2.9-1.1-0.3-1.7-0.5-3.4-0.8-5.1-1.4-7.9-4.9-14-11-19-6.7-4.3-14-6.5-22-5.3-8.9 2-16 6.3-21 14-2.4 5.1-3.3 10-4 16-1.8 1.7-4.4 1.2-6.8 1.2-1.5 0-1.5 0-3.1 0.1-4.5-0.5-7-2.3-10-5.3-4.8-22-2.1-52 6.8-72 1.2-2.8 2.3-5.7 3.3-8.7 0.7-1.9 1.4-3.8 2.1-5.8 0.3-0.8 0.6-1.7 0.9-2.6s0.6-1.7 0.9-2.5c0.3-0.7 0.5-1.4 0.8-2.2 1.7-2.7 3.3-3.5 6.2-4.8 2.6-0.4 5-0.5 7.6-0.6h2.2c2.4-0.1 4.7-0.1 7.1-0.1 1.6-0.1 3.3-0.1 4.9-0.1 6-0.2 12-0.2 18-0.3zm-35 13c-3.1 6.5-5.5 13-7.8 20-0.3 1-0.6 1.9-0.9 2.9-0.8 2.4-1.6 4.7-2.3 7.1 1.7 1.6 3.8 1.1 6.2 1.1h3.2 3.6 3.5c9.2-0.1 18-0.4 28-1.1 1-7 1-14 0.6-21 0-0.8-0.1-1.6-0.1-2.4 0.1-3.8 0.1-3.8-1.5-6.9-2.4-0.1-4.7-0.2-7.1-0.1h-2.2-6.8-4.6c-3.8 0-7.6 0-11 0.1z"/><path transform="translate(107 155)" d="m0 0c6.9 3.8 11 9.4 13 17 1.4 8.3-1.3 14-5.9 21-3.7 4.4-8.2 6.7-14 8-8.6 0.7-15-0.3-22-5.3-5.3-5.3-7.9-11-8-18 0.1-6.8 1.9-13 6.6-18 8.5-7.3 20-9 30-4.4z"/><path transform="translate(293 158)" d="m0 0c5.4 3.7 8.2 7.5 11 14 0.9 8.1-0.2 14-4.5 21-6.4 6.4-14 9.3-23 9.6-9.2-0.2-15-2.8-22-9.3-4.5-4.8-5.6-9.7-6-16 0.3-6.9 2.9-12 7.9-17 11-8.3 25-8.6 36-1.8z"/><path transform="translate(477,157)" d="m0 0c5.4 3.3 9.9 6.8 12 13 1.6 6.8 1.3 13-2 19-4.7 7-11 11-19 13-9.1 1-18-1.1-25-6.8-5.2-4.9-7.3-9.9-7.7-17 0.3-6.2 1.8-11 5.6-16 9.7-8.6 24-12 36-5z"/><path transform="translate(640,157)" d="m0 0c5.9 4.2 10 8.7 12 16 0.8 7.8-0.8 14-5.1 20-4.6 5.2-12 8.4-19 9-8.7 0.2-16-1.7-23-7.2-5.5-5.7-8.1-11-8-19 1.1-6.5 3.1-12 8-16 10-6.8 24-9.1 35-3z"/><path transform="translate(299,155)" d="m0 0h71l2 4c2.8 0.5 5.3 0.7 8.1 0.8h2.3c1.9 0.1 3.7 0.2 5.6 0.2 0.3-1.7 0.7-3.3 1-5h50c0.3 0.7 0.7 1.3 1 2-0.7 0.6-1.4 1.2-2.2 1.9-3.7 3.9-3.7 3.9-7.8 13h-42l-1-4h-15c-0.3 1.3-0.7 2.6-1 4h-17c-0.3 2.3-0.7 4.6-1 7-6.1 0-12 0-18 0.1h-6.3-8.9-2.8-2.6-2.3c-1.8-0.1-1.8-0.1-2.8-1.1-0.3-1.5-0.6-3-0.8-4.6-1.5-7.5-4.4-12-9.2-18z"/><path transform="translate(486,155)" d="m0 0h115c-2 4-2 4-3.9 6.2-2.8 3.4-2.8 3.4-5.1 11h-97c-1.6-3.3-3.3-6.6-5-10-1.3-1.7-2.6-3.4-4-5v-2z"/><path transform="translate(647,155)" d="m0 0c7.4-0 15-0 22-0.1h10 12 3.8 3.5 3c2.3 0.1 2.3 0.1 3.3 1.1 0.1 2 0.2 3.9 0.2 5.9v3.2c-0.2 2.9-0.2 2.9-2.2 5.9-5 1.3-10 1.1-15 1.1h-2.7-8.4c-1.9 0-3.8 0-5.7-0.1h-14c-0.4-0.8-0.8-1.7-1.2-2.5-0.5-1.1-1-2.2-1.6-3.3l-1.5-3.3c-1.7-2.9-3-4.1-5.7-5.9v-2z"/></g></svg>