<svg width="786" height="256" fill-rule="evenodd" version="1.1" viewBox="0 0 786 256" xmlns="http://www.w3.org/2000/svg"><g fill-rule="evenodd"><path transform="translate(157 72)" d="m0 0h14 28 23 3.3 6.6 62 53 62 6.6 3.3 23 28 14c33-0 33-0 44 1.1 0.7 0.1 1.4 0.1 2.1 0.2 5 0.6 9.2 2.2 13 5.4 1.4 1.8 2 3.3 2.6 5.5l0.6 2.4c0.3 0.8 0.5 1.7 0.7 2.5 0.2 0.9 0.5 1.8 0.7 2.7 0.8 2.8 1.5 5.5 2.3 8.3 0.5 1.9 1 3.8 1.5 5.6 0.9 3.5 1.9 6.9 2.8 10 0.2 0.7 0.3 1.4 0.5 2.1 1.1 4.2 1.7 8.1 1.7 12v3.2c0 1.1-0.1 2.3-0.1 3.4v3.6 11 7.6c0 6.2 0 12-0.1 19-21 1.7-41 2.2-62 2.1h-11c-7.2-0.1-14-0.1-22-0.1-0.3 1.9-0.6 3.9-1 6h-9c-0.8-3.6-1-5.6-0.8-9.1 0.1-8.5-2.6-16-8.5-22-6.3-5.3-15-8-23-7.7-8.2 0.9-16 3.3-22 9.2-5.4 7-5.7 14-6.6 23-124 0.5-124 0.5-250 1-0.3 1.9-0.6 3.9-1 6h-9v-3.6c-0.2-11-0.9-21-9.2-29-5.6-4.3-11-5.9-18-6.7-1.6-0.4-3.3-0.7-5-1v-53h12v-2c-14 0.3-28 0.6-43 1 9.2 0.3 9.2 0.3 18 0.5 1.1 0.1 2.3 0.1 3.4 0.1 1.2 0.1 2.4 0.1 3.6 0.2 2.6 0.2 2.6 0.2 3.6 1.2 0.1 1.6 0.2 3.2 0.2 4.8v3.2c0 1.1-0.1 2.3-0.1 3.4v3.5 11 7.5c0 6.2 0 12-0.1 18l-1.8 0.6c-0.8 0.2-1.6 0.5-2.5 0.8-0.8 0.2-1.6 0.5-2.4 0.8-7.6 2.7-13 7.8-17 15-2.5 5.9-2.1 13-2.4 19-4.2 0.1-8.4 0.1-13 0.2-1.2 0-2.4 0.1-3.7 0.1-1.1 0-2.3 0-3.5 0.1h-3.2c-3.9-0.6-5.4-1.4-8-4.4-0.7-3.2-0.7-6.3-0.8-9.6v-2.9c-0.1-3.1 0-6.1 0-9.2v-3.2c0-16 1.8-29 8.9-44 1.2-2.7 1.8-5.2 1.9-8.1-0.3-0.7-0.6-1.4-1-2 1.3-4.6 3.6-8.1 7.5-11 31-17 67-17 101-17zm-34 18c-1.5 3.1 0 5.9 1 9.1 0.4 1 0.4 1 0.7 2.1 0.4 1.5 0.9 3 1.4 4.5 0.7 2.2 1.4 4.5 2.1 6.8 0.4 1.5 0.9 2.9 1.3 4.3 0.2 0.7 0.4 1.4 0.7 2.1 1.1 3.6 1.6 4.9 4.8 7.1 2.2 0.3 2.2 0.3 4.6 0.2h2.8 3c1 0 2 0 3.1-0.1h9.7 6.6c5.4-0.1 11-0.1 16-0.1 1.4-4.5 0.6-7.4-0.8-12-0.2-0.9-0.2-0.9-0.5-1.9-0.5-1.3-0.9-2.7-1.3-4-0.7-2-1.3-4.1-1.9-6.1-1.8-6.7-1.8-6.7-5.5-12-2.1-0.3-2.1-0.3-4.6-0.3h-2.9c-1 0-2.1 0.1-3.1 0.1h-3.3-10c-2.3 0-4.6 0.1-6.9 0.1-5.6 0-11 0-17 0.1zm57 0c0.6 5 1.3 9.5 2.8 14 0.4 1.1 0.7 2.2 1.1 3.4 0.3 1.2 0.7 2.3 1.1 3.5 0.3 1.2 0.7 2.4 1.1 3.6 1.6 6.1 1.6 6.1 4.9 11 3.1 0.1 6.1 0.2 9.2 0.2h2.7 5.8c2.9-0.1 5.8-0.1 8.8-0.1h5.6 2.6c4 0.4 4 0.4 7.3-1.1-0.4-7.5-2.7-14-5-22-0.3-1.2-0.7-2.4-1.1-3.6-1.2-5.3-1.2-5.3-3.9-9.9-1.3-0.1-2.7-0.2-4-0.2h-2.6c-1.4 0.1-1.4 0.1-2.9 0.1h-2.8-9.2-6.2c-5.1 0-10 0-15 0.1zm51 0c0.6 5.1 1.4 9.7 3 15l1.2 3.6c0.4 1.2 0.9 2.4 1.3 3.7l1.2 3.8c0.4 1.1 0.8 2.3 1.2 3.5 0.4 1.1 0.7 2.2 1.1 3.3 0.8 2.6 0.8 2.6 3 3.5 2.9 0.1 5.8 0.1 8.7 0.1h2.6 5.5 8.3 5.3 2.5c4.2 0.1 4.2 0.1 8.1-1.1-0.6-7.1-2.8-14-4.9-20-0.4-1.1-0.7-2.3-1.1-3.6-0.3-1.1-0.7-2.2-1-3.4-0.4-1-0.7-2.1-1-3.1-0.8-2.7-0.8-2.7-3-4.5-1.9-0.3-1.9-0.3-4-0.3h-2.6c-1.3 0.1-1.3 0.1-2.7 0.1h-2.9-8.9c-2 0-4 0.1-6 0.1-5 0-9.9 0-15 0.1zm51 0c0.6 5.1 1.4 9.7 3 15l1.2 3.6c0.4 1.2 0.9 2.4 1.3 3.7l1.2 3.8c0.4 1.1 0.8 2.3 1.2 3.5 0.4 1.1 0.7 2.2 1.1 3.3 0.8 2.6 0.8 2.6 3 3.5 2.9 0.1 5.8 0.1 8.7 0.1h2.6 5.5 8.3 5.3 2.5c4.2 0.1 4.2 0.1 8.1-1.1-0.6-7.1-2.8-14-4.9-20-0.4-1.1-0.7-2.3-1.1-3.6-0.3-1.1-0.7-2.2-1-3.4-0.4-1-0.7-2.1-1-3.1-0.8-2.7-0.8-2.7-3-4.5-1.9-0.3-1.9-0.3-4-0.3h-2.6c-1.3 0.1-1.3 0.1-2.7 0.1h-2.9-8.9c-2 0-4 0.1-6 0.1-5 0-9.9 0-15 0.1zm51 0c-1.3 2.7-0.4 4.4 0.6 7.2 0.2 0.7 0.4 1.4 0.7 2.1 0.2 0.8 0.5 1.5 0.7 2.2 0.5 1.6 1 3.1 1.6 4.7 0.8 2.3 1.5 4.7 2.3 7l1.5 4.5c0.2 0.7 0.5 1.4 0.7 2.2 1.1 3.7 1.1 3.7 3.9 6.1 3 0.1 5.8 0.1 8.7 0.1h2.6 5.5 8.4 5.3 2.5c3.9 0.4 3.9 0.4 7-1.1-0.4-7.5-2.7-14-5-22-0.3-1.2-0.7-2.4-1.1-3.6-1.2-5.3-1.2-5.3-3.9-9.9-3.1-0.1-6.1-0.2-9.2-0.1h-2.9-8.9-6.1c-4.9 0-9.9 0-15 0.1zm51 0c-1.2 4.1-0.5 6.5 0.8 11 0.2 0.6 0.4 1.3 0.6 1.9 0.4 1.3 0.8 2.7 1.3 4 0.6 2 1.2 4 1.8 6.1l1.2 3.9c0.4 1.1 0.8 2.3 1.2 3.5 1.1 2.9 1.8 4.1 4.1 6 3.1 0.3 6 0.4 9 0.4h2.7 5.6c2.8-0.1 5.6 0 8.5 0h5.4 2.6c2.6 0 2.6 0 6.2-0.4 0.7-1 1.4-2 2-3-0.5-2.6-1.1-4.9-1.9-7.3-0.2-0.7-0.5-1.4-0.7-2.1-0.7-2.3-1.4-4.5-2.2-6.8-0.4-1.5-0.9-3-1.4-4.5s-0.9-2.9-1.4-4.3c-0.3-1.1-0.3-1.1-0.7-2.1-0.8-3.2-0.8-3.2-2.7-5.9-3.1-0.1-6.1-0.2-9.2-0.1h-2.9-8.9-6.1c-4.9 0-9.9 0-15 0.1zm50 0c1.1 5.4 2.2 11 3.9 16 0.4 1.1 0.7 2.1 1.1 3.2 0.3 1 0.7 2.1 1 3.2 0.6 1.6 0.6 1.6 1.1 3.2 0.4 1.1 0.7 2.1 1.1 3.2 0.3 0.9 0.6 1.8 0.9 2.8 0.8 2.4 0.8 2.4 2.9 4.3 3 0.1 5.9 0.2 8.9 0.2h2.7 5.6c2.8-0.1 5.7-0.1 8.5-0.1h5.5 2.6c4.2 0.1 4.2 0.1 8.2-1.1-1.4-7.1-3.3-14-5.5-21-0.3-1-0.6-2.1-0.9-3.1s-0.6-2-0.9-3c-0.3-0.9-0.5-1.8-0.8-2.7-0.8-2.6-0.8-2.6-2.9-5.3-1.9-0.5-1.9-0.5-4.1-0.4h-2.6c-1 0-1.9 0.1-2.9 0.1h-2.8c-3.1 0-6.1 0-9.2 0.1h-6.2c-5 0-10 0.1-15 0.2zm52 0c-1.2 3.8-0.4 5.6 0.8 9.5 0.3 0.9 0.3 0.9 0.6 1.9 0.4 1.3 0.8 2.6 1.3 4l1.8 6 1.2 3.9 1.2 3.6c1.4 4 1.4 4 4.1 7.1 3.1 0.5 6.1 0.4 9.2 0.4h2.8c1.9 0 3.8-0.1 5.7-0.1 2.9 0 5.8 0 8.7-0.1h5.6 2.6c4.4 0 4.4 0 8.4-1.2-0.5-7.5-2.7-14-5-22-0.3-1.2-0.7-2.4-1.1-3.6-1.2-5.3-1.2-5.3-3.9-9.9-1.3-0.1-2.7-0.2-4.1-0.2h-2.7c-1.4 0.1-1.4 0.1-2.9 0.1h-2.9-9.4-6.4c-5.2 0-10 0-16 0.1zm-428 10c-6.3 13-6.3 13-7 26 2-0.7 4-1.4 6-2v-4c2 0.3 4 0.6 6 1v3c9.3-0.4 18-0.7 28-1v-22c-2.4-1.3-4-1.2-6.7-1.1h-2.9-3-3c-2.4 0-4.9 0-7.4 0.1-1.6 4.3-2.3 8.2-2.6 13-0.1 1.2-0.1 2.3-0.2 3.5-0.1 0.9-0.1 1.8-0.2 2.7h-10c0.3-1.1 0.6-2.1 1-3.2 0.3-1.3 0.7-2.7 1.1-4.1l0.6-2.1c1.4-4.8 1.4-4.8 0.3-9.6zm-15 53v8h7c1.5-1.2 1.5-1.2 1.1-4.6 0-1.1 0-2.3-0.1-3.4h-8zm12 18v2h11v-2h-11z"/><path transform="translate(116 154)" d="m0 0c5.5 4 9.2 9.2 10 16 0.8 7.3-0.1 13-4.7 19-5.4 5.8-10 8.6-18 9.8-9.4 0.2-17-1.2-24-7.5-5-5.2-6.9-11-7.6-18 0.8-8.2 4.2-14 10-20 9.9-7.1 23-5.5 34 0.2z"/><path transform="translate(438 155)" d="m0 0c5.6 4.3 8.2 9.4 9.9 16 0.3 7.4-1.4 13-6.1 19-5.8 5.8-13 8.7-21 8.8-9.2-0.4-15-2-22-8.8-4.4-5.4-6.9-11-6.5-18 1.2-7.5 4.2-13 10-18 11-7.3 24-6.3 35 0.9z"/></g></svg>