<svg width="786" height="256" fill-rule="evenodd" version="1.1" viewBox="0 0 786 256" xmlns="http://www.w3.org/2000/svg"><g fill-rule="evenodd"><path transform="translate(141 72)" d="m0 0h5.6 15 16 26 30 26 16 15 5.4c8.8-0 18 0.2 26 1.1l2.2 0.2c4.9 0.6 8.7 1.7 13 4 5 7.3 6.5 17 8.7 25 0.4 1.6 0.8 3.2 1.2 4.7 4.2 16 4.2 16 4.2 23v3.3 3.5 3.6c0 3.8 0 7.6-0.1 11v7.7 19c-11 1.1-22 2.3-34 2.1h-3.1c-2.4-0.1-4.7-0.1-7.1-0.1v6h-10c0-1.2-0.1-2.4-0.1-3.6-0.2-11-1.1-20-9.7-28-7.3-5.8-16-7.8-25-7-8.2 1.6-16 4.6-21 12-3.5 6.2-4.1 14-4.1 20-12 0.8-24 1.1-36 1.1h-5.4c-4.6-0.1-9.3-0.1-14-0.1h-14-28c-0.4 1.9-0.7 3.9-1 6h-9v-3.6c-0.2-11-1.1-20-9.2-29-5.4-4.2-10-5.7-17-6.5-2.5-0.2-2.5-0.2-5.5-1.2v-53h12v-2c-14 0.3-28 0.6-43 1 9.1 0.2 9.1 0.2 18 0.5 1.2 0.1 2.3 0.1 3.5 0.1 1.1 0.1 2.3 0.1 3.5 0.2 2.7 0.2 2.7 0.2 3.7 1.2 0.1 1.6 0.1 3.2 0.1 4.8v3.2 3.4 3.5c0 3.7 0 7.4-0.1 11v7.5 18c-0.6 0.2-1.3 0.4-1.9 0.6-0.8 0.2-1.6 0.5-2.5 0.8-0.8 0.2-1.6 0.5-2.4 0.8-7.6 2.7-13 7.8-17 15-2.4 5.9-2.1 13-2.3 19-4.3 0.1-8.5 0.1-13 0.2-1.2 0-2.4 0.1-3.6 0.1h-3.5c-1.1 0.1-2.2 0.1-3.3 0.1-3.9-0.6-5.4-1.4-7.9-4.4-0.8-3.2-0.8-6.3-0.9-9.5v-2.9c-0.1-3-0.1-6.1-0.1-9.1v-3.2c0-17 2.4-31 10-47 0.9-2.9 0.5-4.5-0.2-7.4 1.1-4.7 3.5-8.1 7.5-11 26-14 56-17 85-17zm-18 18c-1.6 3.1 0 5.9 1 9.1 0.3 1 0.3 1 0.6 2.1 0.5 1.5 0.9 3 1.4 4.5 0.7 2.2 1.4 4.5 2.1 6.8 0.5 1.4 0.9 2.9 1.4 4.3l0.6 2.1c1.2 3.6 1.6 4.9 4.9 7.1 2.9 0.3 2.9 0.3 6.2 0.2h3.8c1.4 0 2.8 0 4.1-0.1h4.1c9.6 0 19-0.4 29-1.1-0.7-7.1-2.9-14-5-20-0.3-1.1-0.7-2.3-1.1-3.6-0.3-1.1-0.7-2.2-1-3.4-0.3-1-0.6-2.1-1-3.1-0.8-2.7-0.8-2.7-2.9-4.5-2.2-0.3-2.2-0.3-4.7-0.3h-2.9c-1 0-2 0.1-3.1 0.1h-3.2-10c-2.4 0-4.7 0.1-7 0.1-5.6 0-11 0-17 0.1zm58 0c-1.3 3.8-0.2 6.3 1 10 0.3 0.7 0.5 1.4 0.7 2.1 0.5 1.4 0.9 2.8 1.4 4.3 0.8 2.2 1.5 4.4 2.2 6.6 0.4 1.4 0.9 2.8 1.4 4.2 0.2 0.6 0.4 1.3 0.6 2 0.9 3.1 0.9 3.1 2.7 5.8 2.9 0.1 5.9 0.2 8.8 0.3h2.7c2.9 0.1 5.7 0.2 8.5 0.2 2 0.1 3.9 0.1 5.8 0.2 4.7 0.1 9.5 0.2 14 0.3 1.2-1.7 1.2-1.7 2-4-0.5-3.2-0.5-3.2-1.7-6.7-0.2-0.6-0.4-1.2-0.6-1.9-0.4-1.3-0.9-2.6-1.3-4-0.7-2-1.3-4-2-6.1-2.1-6.9-2.1-6.9-5.4-13-1.9-0.5-1.9-0.5-4-0.4h-2.5c-0.9 0-1.8 0-2.7 0.1h-2.7c-2.9 0-5.8 0-8.7 0.1h-5.9c-4.9 0-9.7 0.1-14 0.2zm50 0c-1.6 3.1 0 5.9 1 9.1 0.2 0.7 0.4 1.4 0.7 2.1 0.4 1.5 0.9 3 1.4 4.5 0.7 2.2 1.4 4.5 2.1 6.8 0.5 1.4 0.9 2.9 1.4 4.3l0.6 2.1c0.9 2.9 1.6 4.8 3.8 7.1 3 0.1 5.9 0.2 8.9 0.2h2.6 5.6c2.9-0.1 5.7-0.1 8.6-0.1h5.4 2.6c4.3 0.1 4.3 0.1 8.3-1.1-1.4-7.5-3.3-15-5.5-22-0.3-1.1-0.6-2.1-1-3.2-0.3-1-0.6-2-0.9-3-0.2-0.9-0.5-1.7-0.8-2.7-0.7-2.3-0.7-2.3-2.8-4.1-1.9-0.3-1.9-0.3-4.1-0.3h-2.6c-1.3 0-1.3 0-2.7 0.1h-2.8-8.9c-2.1 0-4.1 0.1-6.1 0.1-4.9 0-9.9 0-15 0.1zm51 0c0.8 7.7 2.9 14 5.3 22 0.4 1.2 0.8 2.5 1.2 3.8 0.6 1.7 0.6 1.7 1.2 3.5 0.5 1.6 0.5 1.6 1 3.3 1 2.6 1 2.6 3.1 3.1 2.1 0.3 4.1 0.5 6.2 0.5h2.4 2.5 2.6 5.4 8.3 5.3 2.5c3.8 0.4 3.8 0.4 7-1.1-0.5-7.4-2.3-14-4.5-21-0.4-1.6-0.4-1.6-0.9-3.1-1.8-5.8-1.8-5.8-4.6-11-2-0.5-2-0.5-4.3-0.4h-2.7c-0.9 0-1.9 0-2.8 0.1h-3c-3.1 0-6.2 0-9.3 0.1h-6.4c-5.2 0-10 0.1-16 0.2zm-224 10c-5.4 12-5.4 12-8 25h6c0.3-1.7 0.6-3.3 1-5 2 0.3 3.9 0.6 6 1v3c9.2-0.4 18-0.7 28-1v-22c-2.5-1.3-4.1-1.2-6.8-1.1h-2.9-2.9-3.1c-2.4 0-4.9 0-7.3 0.1-1.7 4.3-2.4 8.2-2.6 13-0.1 1.2-0.2 2.3-0.3 3.5 0 0.9-0.1 1.8-0.1 2.7h-10c0.3-1.1 0.6-2.1 0.9-3.2 0.4-1.4 0.8-2.7 1.1-4.1l0.6-2.1c1.4-4.8 1.4-4.8 0.4-9.6zm-15 53v8h7c1.4-1.2 1.4-1.2 1-4.6v-3.4h-8zm12 18v2h11v-2h-11z"/><path transform="translate(116 154)" d="m0 0c5.5 3.9 9.2 9.2 11 16 0.7 7.3-0.2 13-4.8 19-5.4 5.8-10 8.6-18 9.8-9.5 0.2-17-1.2-24-7.5-4.9-5.2-6.9-11-7.6-18 0.9-8.1 4.2-14 10-20 10-6.6 23-5.7 33 0.2z"/><path transform="translate(284,154)" d="m0 0c5.9 3.8 9.4 9.2 11 16 0.8 6.9 0 12-4 18-6.7 7.7-14 10-23 11-8.3-0.7-16-3.2-22-9.3-4.3-5.9-5.8-12-5.5-19 1-6 3-11 7.6-15 11-7.7 24-8.6 36-2.1z"/></g></svg>