<svg width="786" height="256" fill-rule="evenodd" version="1.1" viewBox="0 0 786 256" xmlns="http://www.w3.org/2000/svg"><g fill-rule="evenodd"><path transform="translate(157 72)" d="m0 0h14 28 23 3.3 6.6 62 53 62 6.6 3.3 23 28 14c33-0 33-0 44 1.1 0.7 0.1 1.4 0.1 2.1 0.2 5.5 0.7 11 2.5 14 7 1.1 2.7 2.1 5.4 3 8.2 0.2 0.8 0.5 1.6 0.8 2.5l2.4 8.4c0.3 0.9 0.6 1.9 0.9 2.9 6.6 24 6.2 47 4.9 71 1.9-0.2 3.7-0.3 5.5-0.4 1-0.1 2-0.2 3-0.2 0.9-0.2 1.7-0.3 2.5-0.4 0.4-0.7 0.7-1.4 1-2h28v-2c4.8-1 9.4-1.2 14-1.2h2.3 4.8c2.4 0 4.9 0 7.3-0.1h4.7 2.2c3.8 0 5.4 0.1 8.5 2.3-0.2 0.5-0.5 1-0.8 1.5-1.4 3.1-2.3 6.2-3.2 9.5h-2.2c-7.1-0.1-14-0.1-21-0.1h-11-11c-2 0-4 0-6-0.1h-3.7-3.2c-3.1 0.2-6 0.6-9.1 1.2-0.3-1-0.6-2-1-3-0.9 0-1.8 0.1-2.8 0.1-25 1.6-50 2-74 2h-2.2c-9.2 0-18-0.1-28-0.1-0.3 1.9-0.6 3.9-1 6h-9c-0.8-3.6-1-5.6-0.8-9.1 0.1-7.4-1.9-14-6.3-20-7-6.5-16-10-25-9.9-8.2 0.9-16 3.3-22 9.2-5.4 7-5.7 14-6.6 23-124 0.5-124 0.5-250 1-0.3 1.9-0.6 3.9-1 6h-9v-3.6c-0.1-9.8-0.7-18-7-26-6.3-6.2-13-8.9-22-9.1-0.6 0-1.3 0-2 0.1-1-1-1-1-1.1-3.2v-2.8-3.2-3.5c0.1-1.2 0.1-2.4 0.1-3.6v-11-7.6-19h12v-2c-14 0.3-28 0.6-43 1 9.2 0.3 9.2 0.3 18 0.5 1.1 0.1 2.3 0.1 3.4 0.1 1.2 0.1 2.4 0.1 3.6 0.2 2.6 0.2 2.6 0.2 3.6 1.2 0.1 1.6 0.2 3.2 0.2 4.8v3.2c0 1.1-0.1 2.3-0.1 3.4v3.5 11 7.5c0 6.2 0 12-0.1 18l-1.8 0.6c-0.8 0.2-1.6 0.5-2.5 0.8-0.8 0.2-1.6 0.5-2.4 0.8-7.6 2.7-13 7.8-17 15-2.5 5.9-2.1 13-2.4 19-4.2 0.1-8.4 0.1-13 0.2-1.2 0-2.4 0.1-3.7 0.1-1.1 0-2.3 0-3.5 0.1h-3.2c-3.9-0.6-5.4-1.4-8-4.4-0.7-3.2-0.7-6.3-0.8-9.6v-2.9c-0.1-3.1 0-6.1 0-9.2v-3.2c0-16 1.8-29 8.9-44 1.2-2.7 1.8-5.2 1.9-8.1-0.3-0.7-0.6-1.4-1-2 1.3-4.6 3.6-8.1 7.5-11 31-17 67-17 101-17zm-34 18c-1.5 3.1 0 5.9 1 9.1 0.4 1 0.4 1 0.7 2.1 0.4 1.5 0.9 3 1.4 4.5 0.7 2.2 1.4 4.5 2.1 6.8 0.4 1.5 0.9 2.9 1.3 4.3 0.2 0.7 0.4 1.4 0.7 2.1 1.1 3.6 1.6 4.9 4.8 7.1 2.2 0.3 2.2 0.3 4.6 0.2h2.8 3c1 0 2 0 3.1-0.1h9.7 6.6c5.4-0.1 11-0.1 16-0.1 1.4-4.5 0.6-7.4-0.8-12-0.2-0.9-0.2-0.9-0.5-1.9-0.5-1.3-0.9-2.7-1.3-4-0.7-2-1.3-4.1-1.9-6.1-1.8-6.7-1.8-6.7-5.5-12-2.1-0.3-2.1-0.3-4.6-0.3h-2.9c-1 0-2.1 0.1-3.1 0.1h-3.3-10c-2.3 0-4.6 0.1-6.9 0.1-5.6 0-11 0-17 0.1zm57 0c0.6 5 1.3 9.5 2.8 14 0.4 1.1 0.7 2.2 1.1 3.4 0.3 1.2 0.7 2.3 1.1 3.5 0.3 1.2 0.7 2.4 1.1 3.6 1.6 6.1 1.6 6.1 4.9 11 3.1 0.1 6.1 0.2 9.2 0.2h2.7 5.8c2.9-0.1 5.8-0.1 8.8-0.1h5.6 2.6c4 0.4 4 0.4 7.3-1.1-0.4-7.5-2.7-14-5-22-0.3-1.2-0.7-2.4-1.1-3.6-1.2-5.3-1.2-5.3-3.9-9.9-1.3-0.1-2.7-0.2-4-0.2h-2.6c-1.4 0.1-1.4 0.1-2.9 0.1h-2.8-9.2-6.2c-5.1 0-10 0-15 0.1zm51 0c0.6 5.1 1.4 9.7 3 15l1.2 3.6c0.4 1.2 0.9 2.4 1.3 3.7l1.2 3.8c0.4 1.1 0.8 2.3 1.2 3.5 0.4 1.1 0.7 2.2 1.1 3.3 0.8 2.6 0.8 2.6 3 3.5 2.9 0.1 5.8 0.1 8.7 0.1h2.6 5.5 8.3 5.3 2.5c4.2 0.1 4.2 0.1 8.1-1.1-0.6-7.1-2.8-14-4.9-20-0.4-1.1-0.7-2.3-1.1-3.6-0.3-1.1-0.7-2.2-1-3.4-0.4-1-0.7-2.1-1-3.1-0.8-2.7-0.8-2.7-3-4.5-1.9-0.3-1.9-0.3-4-0.3h-2.6c-1.3 0.1-1.3 0.1-2.7 0.1h-2.9-8.9c-2 0-4 0.1-6 0.1-5 0-9.9 0-15 0.1zm51 0c0.6 5.1 1.4 9.7 3 15l1.2 3.6c0.4 1.2 0.9 2.4 1.3 3.7l1.2 3.8c0.4 1.1 0.8 2.3 1.2 3.5 0.4 1.1 0.7 2.2 1.1 3.3 0.8 2.6 0.8 2.6 3 3.5 2.9 0.1 5.8 0.1 8.7 0.1h2.6 5.5 8.3 5.3 2.5c4.2 0.1 4.2 0.1 8.1-1.1-0.6-7.1-2.8-14-4.9-20-0.4-1.1-0.7-2.3-1.1-3.6-0.3-1.1-0.7-2.2-1-3.4-0.4-1-0.7-2.1-1-3.1-0.8-2.7-0.8-2.7-3-4.5-1.9-0.3-1.9-0.3-4-0.3h-2.6c-1.3 0.1-1.3 0.1-2.7 0.1h-2.9-8.9c-2 0-4 0.1-6 0.1-5 0-9.9 0-15 0.1zm51 0c-1.3 2.7-0.4 4.4 0.6 7.2 0.2 0.7 0.4 1.4 0.7 2.1 0.2 0.8 0.5 1.5 0.7 2.2 0.5 1.6 1 3.1 1.6 4.7 0.8 2.3 1.5 4.7 2.3 7l1.5 4.5c0.2 0.7 0.5 1.4 0.7 2.2 1.1 3.7 1.1 3.7 3.9 6.1 3 0.1 5.8 0.1 8.7 0.1h2.6 5.5 8.4 5.3 2.5c3.9 0.4 3.9 0.4 7-1.1-0.4-7.5-2.7-14-5-22-0.3-1.2-0.7-2.4-1.1-3.6-1.2-5.3-1.2-5.3-3.9-9.9-3.1-0.1-6.1-0.2-9.2-0.1h-2.9-8.9-6.1c-4.9 0-9.9 0-15 0.1zm51 0c-1.2 4.1-0.5 6.5 0.8 11 0.2 0.6 0.4 1.3 0.6 1.9 0.4 1.3 0.8 2.7 1.3 4 0.6 2 1.2 4 1.8 6.1l1.2 3.9c0.4 1.1 0.8 2.3 1.2 3.5 1.1 2.9 1.8 4.1 4.1 6 3.1 0.3 6 0.4 9 0.4h2.7 5.6c2.8-0.1 5.6 0 8.5 0h5.4 2.6c2.6 0 2.6 0 6.2-0.4 0.7-1 1.4-2 2-3-0.5-2.6-1.1-4.9-1.9-7.3-0.2-0.7-0.5-1.4-0.7-2.1-0.7-2.3-1.4-4.5-2.2-6.8-0.4-1.5-0.9-3-1.4-4.5s-0.9-2.9-1.4-4.3c-0.3-1.1-0.3-1.1-0.7-2.1-0.8-3.2-0.8-3.2-2.7-5.9-3.1-0.1-6.1-0.2-9.2-0.1h-2.9-8.9-6.1c-4.9 0-9.9 0-15 0.1zm50 0c1.1 5.4 2.2 11 3.9 16 0.4 1.1 0.7 2.1 1.1 3.2 0.3 1 0.7 2.1 1 3.2 0.6 1.6 0.6 1.6 1.1 3.2 0.4 1.1 0.7 2.1 1.1 3.2 0.3 0.9 0.6 1.8 0.9 2.8 0.8 2.4 0.8 2.4 2.9 4.3 3 0.1 5.9 0.2 8.9 0.2h2.7 5.6c2.8-0.1 5.7-0.1 8.5-0.1h5.5 2.6c4.2 0.1 4.2 0.1 8.2-1.1-1.4-7.1-3.3-14-5.5-21-0.3-1-0.6-2.1-0.9-3.1s-0.6-2-0.9-3c-0.3-0.9-0.5-1.8-0.8-2.7-0.8-2.6-0.8-2.6-2.9-5.3-1.9-0.5-1.9-0.5-4.1-0.4h-2.6c-1 0-1.9 0.1-2.9 0.1h-2.8c-3.1 0-6.1 0-9.2 0.1h-6.2c-5 0-10 0.1-15 0.2zm52 0c-1.2 3.8-0.2 6.3 1.1 10 0.2 0.6 0.4 1.3 0.6 2 0.5 1.5 1 2.9 1.4 4.3 0.8 2.2 1.5 4.4 2.2 6.6 0.4 1.4 0.9 2.8 1.3 4.2 0.2 0.6 0.5 1.3 0.7 2 0.9 2.9 1.6 4.7 3.7 6.9 3.1 0.1 6.1 0.2 9.1 0.2h2.8 5.7c2.9-0.1 5.9-0.1 8.8-0.1h5.6 2.6c4.4 0.1 4.4 0.1 8.4-1.1-0.5-7.5-2.7-14-5-22-0.3-1.2-0.7-2.4-1.1-3.6-1.2-5.3-1.2-5.3-3.9-9.9-1.3-0.1-2.7-0.2-4.1-0.2h-2.7c-1.4 0.1-1.4 0.1-2.9 0.1h-2.9-9.4-6.4c-5.2 0-10 0-16 0.1zm-428 10c-5.5 12-5.5 12-8 25h6c0.4-1.7 0.7-3.3 1-5 2 0.3 4 0.6 6 1v3c9.3-0.4 18-0.7 28-1v-22c-2.4-1.3-4-1.2-6.7-1.1h-2.9-3-3c-2.4 0-4.9 0-7.4 0.1-1.6 4.3-2.3 8.2-2.6 13-0.1 1.2-0.1 2.3-0.2 3.5-0.1 0.9-0.1 1.8-0.2 2.7h-10c0.3-1.1 0.6-2.1 1-3.2 0.3-1.3 0.7-2.7 1.1-4.1l0.6-2.1c1.4-4.8 1.4-4.8 0.3-9.6zm-15 53v8h7c1.5-1.2 1.5-1.2 1.1-4.6 0-1.1 0-2.3-0.1-3.4h-8zm12 18v2h11v-2h-11zm544 1v2h11c-0.3-0.7-0.6-1.4-1-2h-10z"/><path transform="translate(608 114)" d="m0 0h2.9 3.2 3.3c3.7-0.1 7.3-0.1 11-0.1h3.8 18c6.8-0.1 14-0.1 20-0.1 5.9-0.1 12-0.1 18-0.1h7.6 11c1 0 2 0 3.1-0.1 4.4 0.1 7.1 0.1 11 2.3 2.1 2.5 2.5 3.6 2.5 6.8v2.7c0 1 0 1.9-0.1 2.9v3 6.3c-0.1 3.2-0.1 6.4 0 9.6-0.1 2-0.1 4-0.1 6v3 2.7c0 0.7-0.1 1.5-0.1 2.3-0.4 1.9-0.4 1.9-3.4 3.9-3 0.3-5.9 0.4-8.9 0.4h-2.6c-1.9 0.1-3.8 0.1-5.6 0.1-2.9 0-5.7 0-8.5 0.1-9.8 0.1-17-0.2-25-5.6-6.6-1.6-14-1.4-20 1l-3 2.1c-4.4 2.5-8.3 2.5-13 2.4h-2.7-5.5c-2.7-0.1-5.5-0.1-8.3-0.1h-5.4-2.5c-0.8 0-1.5 0-2.3-0.1h-2.1c-2.3-0.3-3.9-1.1-6-2.3 0-6.3-0.1-13-0.1-19 0-2.2-0.1-4.3-0.1-6.5v-9.3c-0.1-1-0.1-2-0.1-3v-2.7-2.4c0.4-2.6 1.3-3.4 3.3-5.1 2.9-0.9 4.7-1.1 7.7-1.1z"/><path transform="translate(114 153)" d="m0 0c0.9 0.6 0.9 0.6 1.9 1.2 0.5 0.4 1.1 0.7 1.7 1.1 5.1 3.7 7.3 9 9.3 15 0.7 7.2-0.2 13-4.8 19-5.4 5.7-10 8.5-18 9.8-9.5 0.2-17-1.3-24-7.6-4.9-5.1-6.9-11-7.6-18 0.9-8.1 4.2-14 10-19 8.6-6.2 22-6.2 31-1.2z"/><path transform="translate(438 155)" d="m0 0c5.6 4.3 8.2 9.4 9.9 16 0.3 7.4-1.4 13-6.1 19-5.8 5.8-13 8.7-21 8.8-9.7-0.4-16-2.3-22-9.3-4.5-5.4-6.2-10-6-18 1.1-7.6 4.2-13 10-18 11-7.3 24-6.3 35 0.9z"/><path transform="translate(674,167)" d="m0 0c4.3 4.8 5.3 9.7 5 16-1.5 5.2-3.7 8.6-8 12-5.3 2.8-10 3.6-16 3-5.9-2-10-4.5-14-9.6-2.1-6-2.4-12 0.4-18 9.2-10 21-13 32-3.6z"/><path transform="translate(691 167)" d="m0 0h2.4 5c2.5-0 5.1-0 7.6-0.1h4.9 2.3c3.8 0 5.5 0.1 8.7 2.3 0.3 4.1 0.4 7-1 11-3.4 1.4-7.2 1.2-11 1.3h-2c-2.1 0.1-4.2 0.2-6.3 0.2-1.4 0.1-2.9 0.1-4.3 0.2l-10 0.3c-0.3 1.3-0.6 2.6-1 4-1.3-0.4-2.6-0.7-4-1 0-0.8-0.1-1.5-0.1-2.2-0.5-5-0.9-9.9-1.9-15 3.8-1.3 7.2-1.2 11-1.2zm16 5.2c-0.3 0.6-0.6 1.3-1 2h8c-0.3-0.7-0.6-1.4-1-2h-6z"/></g></svg>