<svg width="753" height="245" version="1.1" viewBox="0 0 753 245" xmlns="http://www.w3.org/2000/svg"><path transform="translate(384 34)" d="m0 0h2.5 2.8 3c3.2-0.1 6.4-0.1 9.6-0.1h3.3 17c5.9-0.1 12-0.1 18-0.1 4.6-0.1 9.2-0.1 14-0.1h6.6 9.3c1.3 0 1.3 0 2.7-0.1 4.1 0.1 6.4 0.3 10 2.2 2.4 2.9 2.6 4.3 2.6 7.9 0.1 1.2 0.1 2.3 0.1 3.4v3.7 3.7c0.1 3.3 0.1 6.6 0.1 9.9s0 6.7 0.1 10c0 6.6 0.1 13 0.1 20 0.6 0.3 1.1 0.5 1.7 0.7 2.7 1 5.3 2 8 3 0.9 0.4 1.8 0.7 2.7 1.1 5.3 2 9.1 3.8 13 8.2 0.5 3.3 0.6 5.1-1.1 7.9-3 1.8-4.5 1.7-7.9 1.1-2.5-1.3-4.9-2.8-7.3-4.3-20-12-45-16-68-10-12 2.9-22 7.6-33 15-0.7 0.5-1.3 0.9-1.9 1.4-9.9 7.5-17 20-18 32-0.7 5.6-1.2 11-1.6 17-2.8 0.1-5.5 0.2-8.2 0.2-0.8 0.1-1.5 0.1-2.3 0.1-4.7 0.1-7.7-0.2-12-3.3-2-3-2-3-2-20-14 0.4-27 0.7-41 1 2.3 1.7 4.6 3.3 7 5 1.9 2.6 1.9 2.6 3.4 5.2 0.4 0.8 0.9 1.7 1.4 2.5 2.6 5.1 3 9.7 2.2 15-3.2 9-7.4 15-16 20-14 5.9-29 7-43 1.8-7.4-3.5-14-9.1-18-17-2-6.3-2-14 0.7-20 3.3-5.4 8.3-9.8 14-12h3v-3h-3.7c-2.5-0.3-3.9-0.5-5.6-2.4-3.7-6.1-6.6-13-9.5-19-0.5-1.1-1-2.2-1.6-3.3-4.6-10-4.6-10-3.6-16 1.1-1.6 1.1-1.6 3-3 2.9-0.4 2.9-0.4 6.5-0.4h1.9c2.2 0 4.4-0.1 6.5-0.1h4.5c4-0.1 7.9-0.1 12-0.1 4.8-0.1 9.5-0.1 14-0.2 7.2 0 14-0.1 22-0.2v-38c-2-0.9-4-1.9-6-3-1.6-5.8-1.6-5.8 0-9 7.6 0.6 18 1.5 24 6.6 3 3.8 2.3 8 2.3 13v2.8c0 2.9 0 5.8-0.1 8.7v5.9 14c7.9-0.3 16-0.6 24-1 1.5-4.1 1.5-4.1 3-8.3 1-2.7 2-5.5 3-8.2 0.7-1.8 1.4-3.7 2-5.6 2.3-6.3 4.6-13 7-19 0.3-0.8 0.6-1.7 1-2.6 0.9-2.5 1.8-5 2.8-7.5 0.3-0.8 0.5-1.5 0.8-2.3 2.5-6.5 2.5-6.5 5.4-8.6 2.7-0.9 4.3-1.1 7.1-1.1zm7.9 15c-3.4 7.7-3.4 7.7-6.2 16-0.3 1.1-0.7 2.2-1 3.4-0.4 1.1-0.7 2.3-1.1 3.5-0.5 1.7-0.5 1.7-1.1 3.5l-1 3.4-1 3c-0.8 2.9-0.8 2.9-0.6 6.7h85v-39h-73zm-125 111c-2.2 2.8-2.7 4.6-2.7 8.1 1.2 4 2.6 5.8 5.8 8.4 6 3.1 14 2.8 20 1 3.3-1.6 4.8-3.6 6.8-6.7 1.1-4.6 0.2-6.5-2.1-11-2.2-2.9-4.6-3.8-8-5-8.1-0.8-14-0.2-20 4.9z" fill-rule="evenodd"/><path transform="translate(440 104)" d="m0 0c2.5 0 5 0.1 7.6 0.3l1 4c2-0.2 2-0.2 4-1 0.3-1 0.6-1.9 1-3 3.6 0.4 7.2 0.7 11 1l2 5c0.5-0.3 1-0.7 1.5-1 3.5-1.4 5.9-0.7 9.5 0 1 0.7 2 1.4 3 2 0.2 3.2 0.2 3.2 0 6 3.6-0.6 3.6-0.6 7-2 1.9 1 1.9 1 4.1 2.5 0.7 0.4 1.4 0.9 2.2 1.4 0.5 0.4 1.1 0.7 1.7 1.1-0.4 2.3-0.7 4.7-1 7 2.3-0.3 4.6-0.6 7-1 0.8 1.1 1.6 2.2 2.5 3.3 0.7 0.9 0.7 0.9 1.4 1.8 1.1 1.9 1.1 1.9 1.1 5.9h-2v3c0.9 0.3 1.9 0.6 2.9 0.9 3.1 1.1 3.1 1.1 4.1 3.1 0 1.6 0.1 3.1 0 4.7v2.4 1.9h-4c0.3 2 0.3 2 1 4 1 0.7 2 1.4 3 2 0.3 4.1 0.6 7.8-2 11-2.7 0.8-2.7 0.8-5 1 0.5 0.6 1 1.1 1.6 1.7 1.4 2.3 1.4 2.3 0.9 4.8-1.9 3.1-3.7 5.3-6.5 7.5-2.8-0.2-2.8-0.2-5-1 0.2 1.4 0.2 1.4 0.4 2.7-0.5 3.7-0.8 4.1-3.6 6.3-3 2-3.5 2.1-7.3 1.3-0.8-0.4-1.7-0.8-2.5-1.3-0.2 1.4-0.2 1.4-0.5 2.8-1.7 3.6-2.3 3.9-5.8 5.3-3.5 1-4.4 1.1-7.8-0.4-0.6-0.5-1.3-1.1-1.9-1.7-0.4 1.7-0.7 3.3-1 5l-10 1c-0.7-1-1.3-1.9-2-3h-3l-1 3h-11c-0.4-1-0.7-1.9-1-3h-3c-0.7 1-1.3 2-2 3-3.2-0.3-6.1-0.8-9-2-1.6-3.1-1.6-3.1-2-6-0.9 0.6-1.7 1.2-2.5 1.8-3.5 1.2-3.5 1.2-5.7 0.6-2.1-1-4-1.9-5.8-3.4-1.1-3.1-1-4 0-7-0.6 0.2-1.2 0.3-1.8 0.5-2.5 0.5-4.6 0.8-7.2 0.5-2.8-1.8-4.5-4-6-7 0.1-2.9 0.1-2.9 1-5h-6c-1.3-3.3-2.7-6.6-4-10 1-1 2-1.9 3-3v-2c-1.7-0.6-3.3-1.3-5-2-0.1-1.6-0.1-3.3-0.1-4.9v-2.8c0.1-2.3 0.1-2.3 1.1-3.3h5v-4c-1.3-0.3-2.7-0.6-4-1 0.7-6.6 0.7-6.6 3-10 3.6-0.2 3.6-0.2 7 0-0.6-0.7-1.1-1.5-1.7-2.2-1.3-2.8-1.3-2.8-0.8-4.8 2-2.7 3.8-4.9 6.5-7 3.3 0.2 3.3 0.2 6 1-0.5-2.4-0.5-2.4-1-5 3.3-1.9 6.6-3.9 10-6l3 2h4c0.3-1.6 0.6-3.3 1-5 3.7-1.4 6.9-2.5 11-2 1.8 1.5 1.8 1.5 3 3 0.4-1.2 0.4-1.2 0.8-2.5 2.2-2.5 2.2-2.5 4.6-2.8zm-20 36c-3.9 5.9-5.2 12-4 19 2.5 7.7 6.7 13 14 17 9.4 4.3 20 4.3 30 0.9 7.3-3 13-8.6 17-15 1.4-6.7 1.4-13-2.1-19-5.2-7.5-12-12-20-14-13-1.8-25 0.7-34 11z" fill-rule="evenodd"/></svg>