<svg width="728" height="256" version="1.1" viewBox="0 0 728 256" xmlns="http://www.w3.org/2000/svg"><path transform="translate(158 12)" d="m0 0c1.9 0.5 3.8 1 5.7 1.4 2 0.5 4.1 1.1 6.1 1.6 4.3 1.1 8.5 2.2 13 3.2 6 1.5 12 3.1 18 4.6 13 3.2 26 6.4 38 9.6 2.7 0.7 5.4 1.4 8.1 2.1 13 3.3 26 6.5 40 9.6 1.4 0.4 1.4 0.4 3 0.7 4.4 1.1 8.9 2.1 13 3.1 19 4.3 29 13 41 28 4.7 5.8 9.5 12 14 17 3.8 4.4 7.5 8.9 11 14 5 6.4 10 12 15 18 2.2 2.4 4.4 5 6.5 7.5l1.5 1.8c0.9 1.2 1.9 2.3 2.8 3.5 1.1 1.3 2.3 2.6 3.5 3.9h2c1.1-6.5 2.3-13 3.4-20l1.2-6.9c2.2-12 4.4-25 6.4-37 0.2-1 0.3-1.9 0.5-2.9 0.7-4.4 1.5-8.9 2.2-13 0.2-1.6 0.5-3.2 0.8-4.8l0.3-2.1c0.8-4.9 1.7-9.6 5.7-13 6.1-3.6 12-3.3 19-3.3h3.7 7.7c3.9 0.1 7.8 0 12 0h7.5 3.6c4.7 0.1 8.2 0.2 13 2.2 5.8 5.9 4.6 14 4.6 22v3.6c-0.1 3.9-0.1 7.7-0.1 12v7.9c-0.1 6.4-0.1 13-0.1 19h2c17-0.1 34-0.2 50-0.2 8-0.1 16-0.1 24-0.1 7.1-0.1 14-0.1 21-0.1 3.7 0 7.5 0 11-0.1h12 3.8c8.3 0 16 1.1 22 6.4 7 8.9 7.7 17 7.8 28v3.1 6.4c0 3.3 0 6.6 0.1 9.9v6.3 3c0 8.6 0 8.6-3.3 13-2.7 1.3-4.7 1.1-7.7 1.1-1.2 0-2.4 0-3.6 0.1h-4-4.2c-3.8 0-7.6 0-11 0.1h-12c-7.6 0.1-15 0.1-23 0.2-8.6 0-17 0.1-26 0.1-18 0.2-35 0.3-53 0.4-0.3 0.8-0.7 1.6-1 2.4-1 2.6-1 2.6-2 3.6-2.4 0.1-4.7 0.1-7 0.1h-2.2c-2.4 0.1-4.8 0.1-7.3 0.1h-5-10c-4.6 0-9.1 0-14 0.1h-10-5-6.9-2.1c-2 0-2 0-5-0.3-2-3-2-3-2-7h-3.8c-4.6 0.1-9.2 0.1-14 0.1-2 0-4 0.1-6 0.1-2.9 0-5.8 0-8.7 0.1h-2.7c-6.1 0-10-1-15-5.1-4.8-4.8-8.9-9.9-13-15-1.3-1.8-2.6-3.6-3.9-5.3-0.7-0.9-1.4-1.8-2.1-2.8-3.4-4.6-6.9-9.2-10-14-5.6-7.3-11-15-17-22-0.9-1.2-1.8-2.4-2.7-3.6-0.5-0.6-1-1.3-1.5-1.9-1-1.4-2-2.7-3-4-2.9-3.9-5.6-7.7-8.2-12-0.8-1.4-0.8-1.4-1.7-2.7-1.2-1.8-2.3-3.5-3.3-5.3-4.3-6.5-9.3-7.8-16-9.2l-3-0.6c-3-0.7-6.1-1.3-9.1-1.9-1.9-0.4-3.8-0.8-5.6-1.2-5.7-1.2-11-2.3-17-3.5-2.2-0.4-4.3-0.8-6.4-1.3-4.4-0.9-8.8-1.7-13-2.6-5.5-1.1-11-2.3-17-3.4-12-2.3-23-4.6-35-6.9-3.5-0.7-7.1-1.4-11-2.2-3.7-0.7-7.4-1.4-11-2.2-1.9-0.4-3.8-0.7-5.7-1.1-8.5-1.7-8.5-1.7-17-1.6-2 1.2-2 1.2-3.2 3.1-0.7 1-0.7 1-1.5 2.1-0.5 0.7-1 1.5-1.5 2.3-1.1 1.5-2.3 3.1-3.4 4.7-0.6 0.8-1.1 1.6-1.7 2.4-2.6 3.6-5.5 7-8.3 10-4.8 5.9-9.5 12-14 18-3.2 4.4-6.5 8.7-9.9 13-0.4 0.6-0.9 1.1-1.3 1.7-2.4 3-4.8 6-7.3 9-0.5 0.6-1 1.2-1.5 1.9l-3 3.6c-2 2.4-3.3 4.2-3.8 7.4 0.6 3.2 2.2 4.9 4.5 7.3 4.5 2.2 11 1.2 16 1.3 1.3 0 2.5 0 3.8 0.1 7.5 0 12-0.6 19-4.4h4c-1.5 5.1-3.8 9.2-6.6 14-0.7 1.1-0.7 1.1-1.3 2.1-3.8 6-8.2 11-13 16-0.9 0.9-1.8 1.9-2.8 2.8-5.2 4.9-9.2 8-17 8.2-8.4-0.4-14-3.7-19-9.7-6.7-8.2-12-18-12-28l-1.8-0.9c-2.3-1.2-4.3-2.6-6.4-4.1-0.7-0.6-1.4-1.1-2.1-1.6-2.6-2.2-2.7-3.4-3.2-6.8 0.2-1.2 0.3-2.4 0.5-3.6 1.4-1 2.8-1.9 4.3-2.8 3.3-2.5 5.4-6.1 7.8-9.5 1.1-1.6 2.3-3.3 3.4-4.9 0.6-0.8 1.2-1.6 1.8-2.5 2.5-3.4 5-6.9 7.6-10 4.4-5.8 8.7-12 13-18 4.5-6.2 9.1-12 14-18 1.6-2 3.2-4.1 4.7-6.1 1.1-1.4 2.1-2.7 3.1-4 1.4-1.9 2.9-3.8 4.3-5.7 0.4-0.6 0.8-1.1 1.3-1.7 2-2.8 2.9-4.3 2.8-7.7 0.1-2.9 0.1-2.9 2-5.5 3.7-3 7.6-5.2 12-7.4l2.4-1.4c1.6-0.8 3.2-1.7 4.7-2.5 1.8-0.9 3.6-1.9 5.3-2.9l2.6-1.4c0.6-0.3 1.3-0.7 2-1.1 7.2-2.4 15 0.4 22 2.2zm-10 7.1c-1.2 1.7-2.4 3.5-3.6 5.3-0.7 1-1.3 2-2 3.1-0.5 0.8-0.9 1.7-1.4 2.6 0.3 0.6 0.6 1.3 1 2 1.8 0.4 1.8 0.4 4.1 0.6 0.9 0.1 1.8 0.2 2.7 0.3l3 0.3c1.5 0.1 1.5 0.1 3.1 0.3 3.3 0.3 6.6 0.6 9.9 1 2.2 0.2 4.5 0.4 6.7 0.6 16 1.6 32 2.9 48 3.9 0.3-0.7 0.6-1.4 1-2-8.4-2.2-17-4.4-25-6.6-3.9-1.1-7.8-2.1-12-3.1s-7.5-2-11-3c-1.4-0.3-2.8-0.7-4.3-1.1-2-0.5-4-1-6-1.6-1.1-0.3-2.3-0.6-3.4-0.9-3.4-0.8-6.8-1.3-10-1.7zm-41 28c-1.4 1.4-1.4 1.4-2.8 3.3-0.8 1-0.8 1-1.7 2.1l-1.8 2.4c-1.3 1.7-2.5 3.4-3.8 5-0.6 0.9-1.3 1.7-2 2.6-3 4-6.1 7.9-9.2 12-4 5.1-8 10-12 15-3.5 4.5-7 9-10 14-0.5 0.6-0.9 1.2-1.4 1.8-2.1 2.6-4.1 5.2-6.2 7.8-0.6 0.8-1.3 1.6-1.9 2.4-0.6 0.7-1.1 1.4-1.7 2.1-1.3 1.6-1.3 1.6-1.1 3.7 3.2 1.1 3.2 1.1 7 1 1.5-1.2 1.5-1.2 2.8-2.9 0.5-0.7 1-1.3 1.6-2 2.8-3.8 5.5-7.6 8.2-12 1.2-1.8 2.5-3.6 3.7-5.4 0.9-1.3 0.9-1.3 1.9-2.7 2.6-3.7 5.2-7.4 7.8-11 0.5-0.6 1-1.3 1.5-2 2.6-3.7 5.3-7.4 7.9-11 0.6-0.8 1.2-1.6 1.8-2.4 1.1-1.6 2.2-3.1 3.3-4.6 7-8.8 7-8.8 10-19h-2zm321 9c-0.7 2.4-1.2 4.7-1.6 7.1-0.1 0.7-0.2 1.5-0.3 2.2-0.4 2.2-0.8 4.4-1.1 6.7-0.3 1.3-0.5 2.6-0.7 4-0.7 4-1.4 8.1-2 12-0.2 0.7-0.3 1.5-0.4 2.2-0.6 3.8-1.2 7.7-1.9 12-0.6 3.9-1.2 7.8-1.9 12-0.5 3.1-1 6.1-1.5 9.2-0.2 1.4-0.4 2.9-0.7 4.3-1.8 10-1.8 10-1.9 21 3.5 3.5 9.1 2.3 14 2.3 1.1 0.1 2.2 0.1 3.4 0.1h3.2 3c2.5-0.2 2.5-0.2 4.2-2 1.7-3.3 2.1-6.5 2.5-10 0.1-0.8 0.2-1.5 0.3-2.3 0.4-2.3 0.7-4.7 1-7l1.2-9.3 0.2-2.2c0.6-3.9 1.2-6.7 4.1-9.5 3-1 5.2-1.2 8.3-1.4 1 0 2 0 3.1-0.1 1.1 0 2.1-0.1 3.3-0.1 1.6-0.1 1.6-0.1 3.2-0.1l8.1-0.3c0-7.1 0.1-14 0.1-21 0-2.4 0.1-4.8 0.1-7.2 0-3.5 0-7 0.1-10v-3.3-3-2.7c-0.2-2.3-0.2-2.3-1.6-4-2.1-1.5-3.4-1.6-6-1.6-0.8 0-1.7 0-2.6-0.1-1.3 0.1-1.3 0.1-2.7 0.1h-2.9-6-9.1-5.8c-1 0-1.9 0-2.8-0.1-0.9 0.1-1.7 0.1-2.6 0.1h-2.3c-2.6 0.5-3.4 1.1-4.9 3.4z" fill-rule="evenodd"/><path transform="translate(378 191)" d="m0 0h2.9 3.2 3.4 11 8.1c7.3-0.1 15-0.1 22-0.1h14 38 2.5 2.4 5 2.4c13 0 26 0 40-0.1h41 23 19 10c3.5-0.1 7.1 0 11 0 1.1 0 2.1-0.1 3.2-0.1 7.3 0.1 13 0.9 19 5.8 3.9 4.8 5.8 8.3 6.2 15-1 5.4-2.9 9.4-7 13-6.3 4.3-12 4.6-20 4.5-1.1 0-2.3 0.1-3.5 0.1-3.8 0-7.6 0-11-0.1-2.8 0.1-5.5 0.1-8.2 0.1h-20-16-2.3-4.7c-15 0-29 0-44-0.1-12 0-25 0-38 0.1h-44-4.7-2.3-16-20-10c-3.6 0-7.3 0-11-0.1-1.6 0.1-1.6 0.1-3.2 0.1-7.3-0.1-13-1.4-18-6.4-3.6-4.9-5.4-9-4.9-15 1.9-6.3 5.1-10 10-14 3.8-1.9 7-2.4 11-2.4zm-5.7 12c-2.5 3.8-2.5 5.6-2 10 1.7 2.8 3 4.6 6 6 1.4 0.1 2.9 0.2 4.4 0.2h2.8 3.1 3.3 11 7.9c7.8 0 16 0.1 24 0.1h11 37 9.6 2.5c13 0 26 0.1 39 0.1h40c7.5 0.1 15 0.1 22 0.1h21 7.7 10c1.5 0 1.5 0 3.1 0.1 5.9-0.1 9.3-0.6 14-4.6 1.5-3.1 1.3-5.5 1-9-2.6-3.1-4.2-4.7-8-6-1.5-0.1-3-0.1-4.5-0.1h-2.8-3.1-3.3-11-7.8c-7.1-0.1-14-0.1-21-0.1h-13-36-2.4-2.4-4.7-2.4c-13 0-26 0-38-0.1h-39-22-21-7.6c-3.5-0.1-7 0-10 0-1 0-2-0.1-3.1-0.1-5.3 0.1-9.1 0.4-14 3.4z" fill-rule="evenodd"/></svg>