<svg width="384" height="256" version="1.1" viewBox="0 0 384 256" xmlns="http://www.w3.org/2000/svg"><path transform="translate(148 59)" d="m0 0h3.7c8.8 0.1 8.8 0.1 10 1.2 0.1 3.6 0.1 3.6 0 7-0.3 0.4-0.7 0.7-1 1-1.8 0-3.5 0-5.3-0.1-11-0.9-11-0.9-22 2.6-3.1 3.7-4.7 7.9-6 12 0.6 0 1.2 0 1.9-0.1 2.8-0.1 5.7-0.2 8.6-0.3 1 0 2-0.1 3-0.2 5.3-0.1 8.7 0.2 13 3.7 1.3 1.3 2.5 2.6 3.7 3.9 0.5 0.6 1.1 1.2 1.6 1.8 1.5 1.7 2.9 3.5 4.3 5.2 0.4 0.6 0.9 1.2 1.4 1.8 4.5 5.7 6 11 5.6 18-0.1 4-0.1 5.5 1.9 9 4.3 3.6 8.8 3 14 2.9h2.6 8.3 5.6c4.5 0 9.1 0 14-0.1 0.2-0.7 0.5-1.4 0.8-2.2 0.3-1 0.7-2 1-3 0.4-1 0.7-1.9 1-2.9 3.6-8.9 11-16 20-20 10-4.3 25-4.6 36-1 11 4.8 18 11 23 22 3.1 8.6 2.3 17-1.2 25-5.2 9.9-13 16-23 20-13 3.5-27 3-38-3.6-8.6-5.8-13-12-18-21h-3.7c-4.6-0.1-9.1-0.1-14-0.2-2 0-3.9-0.1-5.9-0.1-2.9 0-5.7-0.1-8.5-0.1-0.9 0-1.8-0.1-2.7-0.1-10-0.2-19-3-26-10-3.3-3.9-6.4-7.9-9.5-12-2.7-3.5-5.5-6.9-8.3-10-4.1-5-8.1-10-12-15-0.5-0.5-0.9-1-1.3-1.5h-2c-1.3 3-2.7 6-4 9 1.2 0.9 2.3 1.7 3.5 2.6 7.5 5.6 13 12 16 21 1.1 11 0.2 20-7.3 29-8.1 8.6-16 13-28 14-14 0.3-26-2.9-36-12-6.3-6.8-9.8-14-9.9-24 0.5-10 4.4-18 12-25 7.4-5.8 16-10 26-10h2.6 2.6 2.7 6.6c0.4-0.8 0.8-1.7 1.3-2.6l4.8-9.9c0.7-1.4 1.4-2.8 2.1-4.3 1-2 2-4.1 3-6.1 0.3-0.6 0.6-1.3 0.9-1.9 6.2-12 14-14 27-13zm-74 58c-5.5 6.9-5.7 14-5 22 1.7 6.3 5.9 11 11 15 8 4.6 16 6.4 26 4.5 8.9-2.4 15-6.9 20-14 3.3-6.2 3.6-12 2-19-2.2-6.7-6.5-11-12-15-2.4 3-3.9 5.9-5.3 9.4-0.4 1.1-0.9 2.1-1.3 3.1-0.9 2.2-1.7 4.3-2.6 6.5-0.4 1-0.8 2-1.2 3.1-0.4 0.9-0.8 1.8-1.2 2.8-1.4 2.1-1.4 2.1-3.9 3.1-2.5 0-2.5 0-4.9-1.5-1.6-2.5-1.6-2.5-1.5-5 1.3-4.9 3.6-9.2 6-14l2.7-5.4c0.4-0.8 0.9-1.6 1.3-2.4 1-1.9 1-1.9 0.9-4-12-0.7-22 1.6-31 11zm158 2.8c-2.1 2.8-2.1 2.8-3.5 9.2 13-0.3 26-0.6 39-1v13h-38c2.5 7.6 6.1 12 13 15 7.6 3.6 16 3.9 25 2 8-2.9 14-7.7 18-15 2.9-6.4 3-12 1-19-2.9-6.6-8.3-11-15-14-15-5.9-29-1.7-40 10z" fill-rule="evenodd"/><path transform="translate(221 84)" d="m0 0h2.2 2.4 7.6 5.3 11 14 11 5.3 7.3 2.2c5.1 0 5.1 0 6.2 1.1 0.1 1.8 0.1 1.8 0.1 4v2.2c-0.1 1.8-0.1 1.8-1.1 2.8-1.9 0.2-3.7 0.2-5.5 0.3-1.2 0-2.4 0-3.6 0.1-1.2 0-2.5 0-3.7 0.1-23 0.2-23 0.2-45 5.8-4.3 1.3-6.8 0.1-11-2-1.1-0.8-2.3-1.5-3.4-2.2-0.6-0.4-1.2-0.7-1.8-1.1-2.4-1.5-4.5-2.9-6.5-5-0.2-2.5-0.2-2.5 0-5 1.7-1.7 3.8-1.1 6.1-1.1z" fill-rule="evenodd"/></svg>