<svg enable-background="new 0 0 450 394.7" version="1.1" viewBox="0 0 450 394.7" xmlns="http://www.w3.org/2000/svg"><style type="text/css">.st0{fill:#FFFFFF;stroke:#000000;stroke-width:0.75;stroke-linecap:round;stroke-linejoin:round;stroke-miterlimit:5.6693;}.st1{fill:#EE252C;}</style><g transform="translate(69.605 -52.017)"><path class="st0" d="m374.3 411.3c1.8 3 3.3 5.5 4.3 7.9 0.9 2.3 1.4 4.6 1.4 6.9 0 3.3-0.7 7-2.5 10-2.7 4.7-6.9 8-11.8 9.5-2.9 0.9-6.1 0.8-9.1 0.8h-404.2c-1.7 0-3 0-4.5-0.2-6.1-1-11.2-4-14.9-10.4-2-3.5-2.4-7.8-2.2-11 0.2-3.8 1.5-6.5 3.7-10.3l202.6-350.6c3.8-7 10.2-11.4 18.2-11.5 9.2 0.2 15.5 5.6 18.7 12.4l200.3 346.5z"/><path class="st1" d="m-47.8 441.7c-6.9 0-11.8-2.4-14.8-7.6-3-5.1-2.3-11.3 0.3-15.9l204.5-353.5c2.6-4.5 8-7.5 13.9-7.5 6.1 0 10.2 3.4 13.2 8.5l203.9 352.8c3.1 5 2.9 10.9 0 16s-8.7 7.3-13.9 7.3l-407.1-0.1zm34.3-35.9 337.6-0.1-168.8-292.2-168.8 292.3z"/></g><path d="m150.6 336.3v-55.3s5.3-100.8 115.1-98.8l18.1 17.5-18.8 20.4s-49.3-5.9-69.7 39.3c-4.6 10.2-6.8 21.3-6.8 32.5v44.3l-19-19-18.9 19.1z"/></svg>