<svg enable-background="new 0 0 450 394.7" version="1.1" viewBox="0 0 450 394.7" xmlns="http://www.w3.org/2000/svg"><style type="text/css">.st0{fill:#FFFFFF;stroke:#000000;stroke-width:0.75;stroke-linecap:round;stroke-linejoin:round;stroke-miterlimit:5.6693;}.st1{fill:#EE252C;}.st2{fill:#FFFFFF;}</style><g transform="translate(69.605 -52.017)"><path class="st0" d="m374.3 411.3c1.8 3 3.3 5.5 4.3 7.9 0.9 2.3 1.4 4.6 1.4 6.9 0 3.3-0.7 7-2.5 10-2.7 4.7-6.9 8-11.8 9.5-2.9 0.9-6.1 0.8-9.1 0.8h-404.2c-1.7 0-3 0-4.5-0.2-6.1-1-11.2-4-14.9-10.4-2-3.5-2.4-7.8-2.2-11 0.2-3.8 1.5-6.5 3.7-10.3l202.6-350.6c3.8-7 10.2-11.4 18.2-11.5 9.2 0.2 15.5 5.6 18.7 12.4l200.3 346.5z"/><path class="st1" d="m-47.8 441.7c-6.9 0-11.8-2.4-14.8-7.6-3-5.1-2.3-11.3 0.3-15.9l204.5-353.5c2.6-4.5 8-7.5 13.9-7.5 6.1 0 10.2 3.4 13.2 8.5l203.9 352.8c3.1 5 2.9 10.9 0 16s-8.7 7.3-13.9 7.3l-407.1-0.1zm34.3-35.9 337.6-0.1-168.8-292.2-168.8 292.3z"/></g><rect class="st2" x="94.3" y="297.5" width="35.2" height="20.5"/><path d="m128.5 298.5v18.5h-33.2v-18.5h33.2m2-2h-37.2v22.5h37.2v-22.5z"/><polygon points="65.9 348.9 87.5 311.6 146.2 311.6 146.2 348.9"/><rect class="st2" x="320.1" y="297.5" width="35.2" height="20.5"/><path d="m354.3 298.5v18.5h-33.2v-18.5h33.2m2-2h-37.2v22.5h37.2v-22.5z"/><polygon points="383.6 348.9 362 311.6 303.4 311.6 303.4 348.9"/><polygon points="145.6 313.5 258.2 200.2 242.6 185 130.4 297.5"/><rect class="st2" transform="matrix(.7071 -.7071 .7071 .7071 -151 184.44)" x="120.3" y="264.3" width="53.7" height="20.5"/><path d="m158.9 249.7 13 13-36.5 36.5-13-13 36.5-36.5m0-2.8-39.3 39.3 15.8 15.8 39.3-39.3-15.8-15.8z"/><rect class="st2" transform="matrix(.7071 -.7071 .7071 .7071 -114.14 199.71)" x="157.7" y="227.4" width="52.6" height="20.5"/><path d="m195.4 213.2 13 13-35.8 35.8-13-13 35.8-35.8m0-2.8-38.6 38.6 15.8 15.8 38.6-38.6-15.8-15.8z"/><rect class="st2" transform="matrix(.7071 -.7071 .7071 .7071 -78.261 214.57)" x="192.8" y="191.5" width="54.2" height="20.5"/><path d="m231.8 176.8 13 13-36.8 36.9-13-13 36.8-36.9m0-2.8-39.7 39.7 15.8 15.8 39.7-39.7-15.8-15.8z"/><path d="m301.5 348.7v-5l-6.7-4.6c-16.1-10.7-31 0-31 0s-7.3 7-20.7 2.1c-2.2-0.8-4.2-1.8-6.2-3-12.3-7.6-22.1-1.9-25.1 0.2-1.5 1.1-3.2 2.1-5 2.7-5 1.8-14.1 3.2-24.8-4-13.5-8.8-34.2 6.4-34.2 6.4v5.1l13.5-6.5s11.3-4.8 18.5 0c4.1 2.2 11.8 5.6 11.8 5.6s8.9 3.6 17.7-2.1c5.2-3.4 10.3-4.7 13.6-5.2 2.2-0.4 4.4 0 6.5 0.8l14.9 6.3s8 4.3 21.9-3.6 25.6-0.5 25.6-0.5l9.7 5.3z"/><path d="m301.5 339.7v-5l-6.7-4.6c-16.1-10.7-31 0-31 0s-7.3 7-20.7 2.1c-2.2-0.8-4.2-1.8-6.2-3-12.3-7.6-22.1-1.9-25.1 0.2-1.5 1.1-3.2 2.1-5 2.7-5 1.8-14.1 3.2-24.8-4-13.5-8.8-34.2 6.4-34.2 6.4v5.1l13.5-6.5s11.3-4.8 18.5 0c4.1 2.2 11.8 5.6 11.8 5.6s8.9 3.6 17.7-2.1c5.2-3.4 10.3-4.7 13.6-5.2 2.2-0.4 4.4 0 6.5 0.8l14.9 6.3s8 4.3 21.9-3.6 25.6-0.5 25.6-0.5l9.7 5.3z"/></svg>