<?xml version="1.0" encoding="utf-8"?>
<!-- Generator: Adobe Illustrator 25.2.3, SVG Export Plug-In . SVG Version: 6.00 Build 0)  -->
<svg version="1.1" xmlns="http://www.w3.org/2000/svg" xmlns:xlink="http://www.w3.org/1999/xlink" x="0px" y="0px"
	 viewBox="0 0 450 394.7" style="enable-background:new 0 0 450 394.7;" xml:space="preserve">
<style type="text/css">
	.st0{fill:#FFFFFF;stroke:#000000;stroke-width:0.75;stroke-linecap:round;stroke-linejoin:round;stroke-miterlimit:5.6693;}
	.st1{fill:#EE252C;}
	.st2{fill:#FFFFFF;}
</style>
<g id="svg48705" inkscape:version="1.0 (4035a4fb49, 2020-05-01)" xmlns:cc="http://creativecommons.org/ns#" xmlns:dc="http://purl.org/dc/elements/1.1/" xmlns:inkscape="http://www.inkscape.org/namespaces/inkscape" xmlns:rdf="http://www.w3.org/1999/02/22-rdf-syntax-ns#" xmlns:sodipodi="http://sodipodi.sourceforge.net/DTD/sodipodi-0.dtd" xmlns:svg="http://www.w3.org/2000/svg">
	
		<sodipodi:namedview  bordercolor="#666666" borderopacity="1.0" id="base" inkscape:current-layer="layer1" inkscape:cx="84.453456" inkscape:cy="367.1801" inkscape:document-rotation="0" inkscape:document-units="mm" inkscape:pageopacity="0.0" inkscape:pageshadow="2" inkscape:window-height="1030" inkscape:window-maximized="0" inkscape:window-width="1424" inkscape:window-x="192" inkscape:window-y="0" inkscape:zoom="0.7" pagecolor="#ffffff" showgrid="false">
		</sodipodi:namedview>
	<g id="layer1" transform="translate(69.60519,-52.017057)" inkscape:groupmode="layer" inkscape:label="Layer 1">
		<path id="path2818-7" sodipodi:nodetypes="cssssccssscccccc" class="st0" d="M374.3,411.3c1.8,3,3.3,5.5,4.3,7.9
			c0.9,2.3,1.4,4.6,1.4,6.9c0,3.3-0.7,7-2.5,10c-2.7,4.7-6.9,8-11.8,9.5c-2.9,0.9-6.1,0.8-9.1,0.8l-404.2,0c-1.7,0-3,0-4.5-0.2
			c-6.1-1-11.2-4-14.9-10.4c-2-3.5-2.4-7.8-2.2-11c0.2-3.8,1.5-6.5,3.7-10.3L137.1,63.9c3.8-7,10.2-11.4,18.2-11.5
			c9.2,0.2,15.5,5.6,18.7,12.4L374.3,411.3L374.3,411.3z"/>
		<path id="path2820-2" sodipodi:nodetypes="cscccccscccccc" class="st1" d="M-47.8,441.7c-6.9,0-11.8-2.4-14.8-7.6
			c-3-5.1-2.3-11.3,0.3-15.9L142.2,64.7c2.6-4.5,8-7.5,13.9-7.5c6.1,0,10.2,3.4,13.2,8.5l203.9,352.8c3.1,5,2.9,10.9,0,16
			c-2.9,5.1-8.7,7.3-13.9,7.3L-47.8,441.7z M-13.5,405.8l337.6-0.1L155.3,113.5L-13.5,405.8z"/>
	</g>
	<g id="Layer_2">
	</g>
</g>
<g id="Layer_3">
	<g>
		<g>
			<rect x="94.3" y="297.5" class="st2" width="35.2" height="20.5"/>
			<path d="M128.5,298.5V317H95.3v-18.5H128.5 M130.5,296.5h-2H95.3h-2v2V317v2h2h33.2h2v-2v-18.5V296.5L130.5,296.5z"/>
		</g>
		<polygon points="65.9,348.9 87.5,311.6 146.2,311.6 146.2,348.9 		"/>
	</g>
	<g>
		<g>
			<rect x="320.1" y="297.5" class="st2" width="35.2" height="20.5"/>
			<path d="M354.3,298.5V317h-33.2v-18.5H354.3 M356.3,296.5h-2h-33.2h-2v2V317v2h2h33.2h2v-2v-18.5V296.5L356.3,296.5z"/>
		</g>
		<polygon points="383.6,348.9 362,311.6 303.4,311.6 303.4,348.9 		"/>
	</g>
	<polygon points="145.6,313.5 258.2,200.2 242.6,185 130.4,297.5 	"/>
	<g>
		
			<rect x="120.3" y="264.3" transform="matrix(0.7071 -0.7071 0.7071 0.7071 -150.9998 184.4449)" class="st2" width="53.7" height="20.5"/>
		<path d="M158.9,249.7l13,13l-36.5,36.5l-13-13L158.9,249.7 M158.9,246.9l-1.4,1.4l-36.5,36.5l-1.4,1.4l1.4,1.4l13,13l1.4,1.4
			l1.4-1.4l36.5-36.5l1.4-1.4l-1.4-1.4l-13-13L158.9,246.9L158.9,246.9z"/>
	</g>
	<g>
		
			<rect x="157.7" y="227.4" transform="matrix(0.7071 -0.7071 0.7071 0.7071 -114.1385 199.7091)" class="st2" width="52.6" height="20.5"/>
		<path d="M195.4,213.2l13,13L172.6,262l-13-13L195.4,213.2 M195.4,210.4l-1.4,1.4l-35.8,35.8l-1.4,1.4l1.4,1.4l13,13l1.4,1.4
			l1.4-1.4l35.8-35.8l1.4-1.4l-1.4-1.4l-13-13L195.4,210.4L195.4,210.4z"/>
	</g>
	<g>
		
			<rect x="192.8" y="191.5" transform="matrix(0.7071 -0.7071 0.7071 0.7071 -78.2613 214.5723)" class="st2" width="54.2" height="20.5"/>
		<path d="M231.8,176.8l13,13L208,226.7l-13-13L231.8,176.8 M231.8,174l-1.4,1.4l-36.9,36.9l-1.4,1.4l1.4,1.4l13,13l1.4,1.4l1.4-1.4
			l36.9-36.9l1.4-1.4l-1.4-1.4l-13-13L231.8,174L231.8,174z"/>
	</g>
	<g>
		<path d="M301.5,348.7v-5l-6.7-4.6c-16.1-10.7-31,0-31,0s-7.3,7-20.7,2.1c-2.2-0.8-4.2-1.8-6.2-3c-12.3-7.6-22.1-1.9-25.1,0.2
			c-1.5,1.1-3.2,2.1-5,2.7c-5,1.8-14.1,3.2-24.8-4c-13.5-8.8-34.2,6.4-34.2,6.4v5.1l13.5-6.5c0,0,11.3-4.8,18.5,0
			c4.1,2.2,11.8,5.6,11.8,5.6s8.9,3.6,17.7-2.1c5.2-3.4,10.3-4.7,13.6-5.2c2.2-0.4,4.4,0,6.5,0.8l14.9,6.3c0,0,8,4.3,21.9-3.6
			c13.9-7.9,25.6-0.5,25.6-0.5L301.5,348.7z"/>
		<path d="M301.5,339.7v-5l-6.7-4.6c-16.1-10.7-31,0-31,0s-7.3,7-20.7,2.1c-2.2-0.8-4.2-1.8-6.2-3c-12.3-7.6-22.1-1.9-25.1,0.2
			c-1.5,1.1-3.2,2.1-5,2.7c-5,1.8-14.1,3.2-24.8-4c-13.5-8.8-34.2,6.4-34.2,6.4v5.1l13.5-6.5c0,0,11.3-4.8,18.5,0
			c4.1,2.2,11.8,5.6,11.8,5.6s8.9,3.6,17.7-2.1c5.2-3.4,10.3-4.7,13.6-5.2c2.2-0.4,4.4,0,6.5,0.8l14.9,6.3c0,0,8,4.3,21.9-3.6
			c13.9-7.9,25.6-0.5,25.6-0.5L301.5,339.7z"/>
	</g>
</g>
</svg>
