<?xml version="1.0" encoding="utf-8"?>
<!-- Generator: Adobe Illustrator 25.2.3, SVG Export Plug-In . SVG Version: 6.00 Build 0)  -->
<svg version="1.1" xmlns="http://www.w3.org/2000/svg" xmlns:xlink="http://www.w3.org/1999/xlink" x="0px" y="0px"
	 viewBox="0 0 450 394.7" style="enable-background:new 0 0 450 394.7;" xml:space="preserve">
<style type="text/css">
	.st0{fill:#FFFFFF;stroke:#000000;stroke-width:0.75;stroke-linecap:round;stroke-linejoin:round;stroke-miterlimit:5.6693;}
	.st1{fill:#EE252C;}
</style>
<g id="svg48705" inkscape:version="1.0 (4035a4fb49, 2020-05-01)" xmlns:cc="http://creativecommons.org/ns#" xmlns:dc="http://purl.org/dc/elements/1.1/" xmlns:inkscape="http://www.inkscape.org/namespaces/inkscape" xmlns:rdf="http://www.w3.org/1999/02/22-rdf-syntax-ns#" xmlns:sodipodi="http://sodipodi.sourceforge.net/DTD/sodipodi-0.dtd" xmlns:svg="http://www.w3.org/2000/svg">
	
		<sodipodi:namedview  bordercolor="#666666" borderopacity="1.0" id="base" inkscape:current-layer="layer1" inkscape:cx="84.453456" inkscape:cy="367.1801" inkscape:document-rotation="0" inkscape:document-units="mm" inkscape:pageopacity="0.0" inkscape:pageshadow="2" inkscape:window-height="1030" inkscape:window-maximized="0" inkscape:window-width="1424" inkscape:window-x="192" inkscape:window-y="0" inkscape:zoom="0.7" pagecolor="#ffffff" showgrid="false">
		</sodipodi:namedview>
	<g id="layer1" transform="translate(69.60519,-52.017057)" inkscape:groupmode="layer" inkscape:label="Layer 1">
		<path id="path2818-7" sodipodi:nodetypes="cssssccssscccccc" class="st0" d="M374.3,411.3c1.8,3,3.3,5.5,4.3,7.9
			c0.9,2.3,1.4,4.6,1.4,6.9c0,3.3-0.7,7-2.5,10c-2.7,4.7-6.9,8-11.8,9.5c-2.9,0.9-6.1,0.8-9.1,0.8l-404.2,0c-1.7,0-3,0-4.5-0.2
			c-6.1-1-11.2-4-14.9-10.4c-2-3.5-2.4-7.8-2.2-11c0.2-3.8,1.5-6.5,3.7-10.3L137.1,63.9c3.8-7,10.2-11.4,18.2-11.5
			c9.2,0.2,15.5,5.6,18.7,12.4L374.3,411.3L374.3,411.3z"/>
		<path id="path2820-2" sodipodi:nodetypes="cscccccscccccc" class="st1" d="M-47.8,441.7c-6.9,0-11.8-2.4-14.8-7.6
			c-3-5.1-2.3-11.3,0.3-15.9L142.2,64.7c2.6-4.5,8-7.5,13.9-7.5c6.1,0,10.2,3.4,13.2,8.5l203.9,352.8c3.1,5,2.9,10.9,0,16
			c-2.9,5.1-8.7,7.3-13.9,7.3L-47.8,441.7z M-13.5,405.8l337.6-0.1L155.3,113.5L-13.5,405.8z"/>
	</g>
	<g id="Layer_2">
	</g>
	<polygon points="66,346.2 135.6,229.9 177.9,229.9 177.9,346.2 	"/>
	<path d="M181.8,315.7v-9l7.8-4.9c0,0,9.8-7.4,20.6,0c11.5,9.1,20.9,1.3,20.9,1.3s10.3-9.5,22.6,0c10.2,9,21.3-2.1,21.3-2.1
		s7.8-5,15.3,0c9.8,10.2,21,2.7,21,2.7s10.4-10.7,24.1,0c9.8,7.6,21.9-2.9,21.9-2.9l4.3,6.7l-11.1,6c0,0-7.8,4.7-13.7,0
		c-8.9-7-15.7-5.9-15.7-5.9l-12.3,6.3c0,0-5.6,3.9-12.8,0c-7.2-4.3-9.9-6-9.9-6s-3.8-1.6-7.7,0c-1.6,1-9.8,5.6-9.8,5.6
		s-5.1,4.3-12.4,0.4C249,310,249,310,249,310s-5.2-5.3-14.7,0l-5.6,3.5c0,0-6.8,4.6-13.4,0c-5.7-2.9-10.3-5.2-10.3-5.2
		s-5.7-2.5-12.3,0.3L181.8,315.7z"/>
	<path d="M365.2,314.3c-1.7-0.6-7.9,2.3-7.9,2.3s-12.1,10.4-21.9,2.9c-13.7-10.7-24.1,0-24.1,0s-11.2,7.4-21-2.7
		c-7.4-5-15.3,0-15.3,0s-11.1,11.1-21.3,2.1c-12.3-9.5-22.6,0-22.6,0s-9.4,7.8-20.9-1.3c-10.8-7.4-20.6,0-20.6,0l-7.8,4.9v9
		l10.9-7.1c6.5-2.7,12.3-0.3,12.3-0.3s4.6,2.3,10.3,5.2c6.7,4.6,13.4,0,13.4,0l5.6-3.5c9.5-5.3,14.7,0,14.7,0s0,0,7.3,3.9
		c7.3,3.9,12.4-0.4,12.4-0.4s8.2-4.6,9.8-5.6c3.9-1.6,7.7,0,7.7,0s2.7,1.7,9.9,6c7.2,3.9,12.8,0,12.8,0l12.3-6.3
		c0,0,6.8-1.2,15.7,5.9c5.9,4.7,13.7,0,13.7,0l11.1-6c6.3,0,9,0.3,9,0.3L365.2,314.3z"/>
	<path d="M384.3,347.5l-7.8-13.5c-4.6-3.8-11.3-3.6-11.3-3.6c-1.7-0.6-7.9,2.3-7.9,2.3s-12.1,10.4-21.9,2.9
		c-13.7-10.7-24.1,0-24.1,0s-11.2,7.4-21-2.7c-7.4-5-15.3,0-15.3,0s-11.1,11.1-21.3,2.1c-12.3-9.5-22.6,0-22.6,0s-9.4,7.8-20.9-1.3
		c-10.8-7.4-20.6,0-20.6,0l-7.8,4.9v9l10.9-7.1c6.5-2.7,12.3-0.3,12.3-0.3s4.6,2.3,10.3,5.2c6.7,4.6,13.4,0,13.4,0l5.6-3.5
		c9.5-5.3,14.7,0,14.7,0s0,0,7.3,3.9c7.3,3.9,12.4-0.4,12.4-0.4s8.2-4.6,9.8-5.6c3.9-1.6,7.7,0,7.7,0s2.7,1.7,9.9,6
		c7.2,3.9,12.8,0,12.8,0l12.3-6.3c0,0,6.8-1.2,15.7,5.9c5.9,4.7,13.7,0,13.7,0l11.1-6c4.7,0,7.4,0.2,8.5,0.3
		C377.5,342.7,384.3,347.5,384.3,347.5z"/>
	<path d="M196.5,223.8c-5.7,0-10.3,4.6-10.3,10.3s4.6,10.3,10.3,10.3s10.3-4.6,10.3-10.3S202.2,223.8,196.5,223.8z M196.5,237.8
		c-2.1,0-3.9-1.7-3.9-3.9s1.7-3.9,3.9-3.9s3.9,1.7,3.9,3.9S198.6,237.8,196.5,237.8z"/>
	<path d="M254.5,272.5c-5.7,0-10.3,4.6-10.3,10.3s4.6,10.3,10.3,10.3s10.3-4.6,10.3-10.3S260.2,272.5,254.5,272.5z M254.5,286.5
		c-2.1,0-3.9-1.7-3.9-3.9s1.7-3.9,3.9-3.9s3.9,1.7,3.9,3.9S256.6,286.5,254.5,286.5z"/>
	<path d="M269.9,262.7l-5.2-27l-32-27.3l-25.5,1.9l-16.9-14.3l-9,8.1l-5.7,11.1l11.4,11.4c0,0,7.2-9.9,17-1.5
		c9.7,9.2,0.8,16.5,0.8,16.5l40.5,34.1c0,0,8.3-10.2,17.3-1.4s0.6,16.5,0.6,16.5l10.3,6.7l12.4-5.3l3.6-9.9L269.9,262.7z
		 M222.3,222.6l14.7-4.5l10,8.7l-8.2,9.8L222.3,222.6z M242,239.3l8.7-9.8l10.1,8.8l3.6,20.1L242,239.3z"/>
</g>
<g id="Layer_3">
</g>
</svg>
