<svg enable-background="new 0 0 450 394.7" version="1.1" viewBox="0 0 450 394.7" xmlns="http://www.w3.org/2000/svg"><style type="text/css">.st0{fill:#FFFFFF;stroke:#000000;stroke-width:0.75;stroke-linecap:round;stroke-linejoin:round;stroke-miterlimit:5.6693;}.st1{fill:#EE252C;}</style><g transform="translate(69.605 -52.017)"><path class="st0" d="m374.3 411.3c1.8 3 3.3 5.5 4.3 7.9 0.9 2.3 1.4 4.6 1.4 6.9 0 3.3-0.7 7-2.5 10-2.7 4.7-6.9 8-11.8 9.5-2.9 0.9-6.1 0.8-9.1 0.8h-404.2c-1.7 0-3 0-4.5-0.2-6.1-1-11.2-4-14.9-10.4-2-3.5-2.4-7.8-2.2-11 0.2-3.8 1.5-6.5 3.7-10.3l202.6-350.6c3.8-7 10.2-11.4 18.2-11.5 9.2 0.2 15.5 5.6 18.7 12.4l200.3 346.5z"/><path class="st1" d="m-47.8 441.7c-6.9 0-11.8-2.4-14.8-7.6-3-5.1-2.3-11.3 0.3-15.9l204.5-353.5c2.6-4.5 8-7.5 13.9-7.5 6.1 0 10.2 3.4 13.2 8.5l203.9 352.8c3.1 5 2.9 10.9 0 16s-8.7 7.3-13.9 7.3l-407.1-0.1zm34.3-35.9 337.6-0.1-168.8-292.2-168.8 292.3z"/></g><polygon points="66 346.2 135.6 229.9 177.9 229.9 177.9 346.2"/><path d="m181.8 315.7v-9l7.8-4.9s9.8-7.4 20.6 0c11.5 9.1 20.9 1.3 20.9 1.3s10.3-9.5 22.6 0c10.2 9 21.3-2.1 21.3-2.1s7.8-5 15.3 0c9.8 10.2 21 2.7 21 2.7s10.4-10.7 24.1 0c9.8 7.6 21.9-2.9 21.9-2.9l4.3 6.7-11.1 6s-7.8 4.7-13.7 0c-8.9-7-15.7-5.9-15.7-5.9l-12.3 6.3s-5.6 3.9-12.8 0c-7.2-4.3-9.9-6-9.9-6s-3.8-1.6-7.7 0c-1.6 1-9.8 5.6-9.8 5.6s-5.1 4.3-12.4 0.4l-7.2-3.9s-5.2-5.3-14.7 0l-5.6 3.5s-6.8 4.6-13.4 0c-5.7-2.9-10.3-5.2-10.3-5.2s-5.7-2.5-12.3 0.3l-10.9 7.1z"/><path d="m365.2 314.3c-1.7-0.6-7.9 2.3-7.9 2.3s-12.1 10.4-21.9 2.9c-13.7-10.7-24.1 0-24.1 0s-11.2 7.4-21-2.7c-7.4-5-15.3 0-15.3 0s-11.1 11.1-21.3 2.1c-12.3-9.5-22.6 0-22.6 0s-9.4 7.8-20.9-1.3c-10.8-7.4-20.6 0-20.6 0l-7.8 4.9v9l10.9-7.1c6.5-2.7 12.3-0.3 12.3-0.3s4.6 2.3 10.3 5.2c6.7 4.6 13.4 0 13.4 0l5.6-3.5c9.5-5.3 14.7 0 14.7 0s0 0 7.3 3.9 12.4-0.4 12.4-0.4 8.2-4.6 9.8-5.6c3.9-1.6 7.7 0 7.7 0s2.7 1.7 9.9 6c7.2 3.9 12.8 0 12.8 0l12.3-6.3s6.8-1.2 15.7 5.9c5.9 4.7 13.7 0 13.7 0l11.1-6c6.3 0 9 0.3 9 0.3l-5.5-9.3z"/><path d="m384.3 347.5-7.8-13.5c-4.6-3.8-11.3-3.6-11.3-3.6-1.7-0.6-7.9 2.3-7.9 2.3s-12.1 10.4-21.9 2.9c-13.7-10.7-24.1 0-24.1 0s-11.2 7.4-21-2.7c-7.4-5-15.3 0-15.3 0s-11.1 11.1-21.3 2.1c-12.3-9.5-22.6 0-22.6 0s-9.4 7.8-20.9-1.3c-10.8-7.4-20.6 0-20.6 0l-7.8 4.9v9l10.9-7.1c6.5-2.7 12.3-0.3 12.3-0.3s4.6 2.3 10.3 5.2c6.7 4.6 13.4 0 13.4 0l5.6-3.5c9.5-5.3 14.7 0 14.7 0s0 0 7.3 3.9 12.4-0.4 12.4-0.4 8.2-4.6 9.8-5.6c3.9-1.6 7.7 0 7.7 0s2.7 1.7 9.9 6c7.2 3.9 12.8 0 12.8 0l12.3-6.3s6.8-1.2 15.7 5.9c5.9 4.7 13.7 0 13.7 0l11.1-6c4.7 0 7.4 0.2 8.5 0.3 7.3 3 14.1 7.8 14.1 7.8z"/><path d="m196.5 223.8c-5.7 0-10.3 4.6-10.3 10.3s4.6 10.3 10.3 10.3 10.3-4.6 10.3-10.3-4.6-10.3-10.3-10.3zm0 14c-2.1 0-3.9-1.7-3.9-3.9s1.7-3.9 3.9-3.9 3.9 1.7 3.9 3.9-1.8 3.9-3.9 3.9z"/><path d="m254.5 272.5c-5.7 0-10.3 4.6-10.3 10.3s4.6 10.3 10.3 10.3 10.3-4.6 10.3-10.3-4.6-10.3-10.3-10.3zm0 14c-2.1 0-3.9-1.7-3.9-3.9s1.7-3.9 3.9-3.9 3.9 1.7 3.9 3.9-1.8 3.9-3.9 3.9z"/><path d="m269.9 262.7-5.2-27-32-27.3-25.5 1.9-16.9-14.3-9 8.1-5.7 11.1 11.4 11.4s7.2-9.9 17-1.5c9.7 9.2 0.8 16.5 0.8 16.5l40.5 34.1s8.3-10.2 17.3-1.4 0.6 16.5 0.6 16.5l10.3 6.7 12.4-5.3 3.6-9.9-19.6-19.6zm-47.6-40.1 14.7-4.5 10 8.7-8.2 9.8-16.5-14zm19.7 16.7 8.7-9.8 10.1 8.8 3.6 20.1-22.4-19.1z"/></svg>