<svg xmlns="http://www.w3.org/2000/svg" viewBox="0 0 240.32 210.84"><defs><style>.cls-1{fill:#fff;stroke:#000;stroke-linecap:round;stroke-linejoin:round;stroke-width:0.75px;}.cls-2{fill:#ef2028;}</style></defs><g id="Layer_2" data-name="Layer 2"><g id="Layer_1-2" data-name="Layer 1"><g id="Layer_2-2" data-name="Layer 2"><g id="svg48705"><g id="layer1"><path id="path2818-7" class="cls-1" d="M236.9,191.78a32.23,32.23,0,0,1,2.29,4.2,9.63,9.63,0,0,1,.75,3.67,10.5,10.5,0,0,1-1.33,5.33,10.8,10.8,0,0,1-6.29,5.06,16.37,16.37,0,0,1-4.84.42H11.91a19.27,19.27,0,0,1-2.4-.1,10.69,10.69,0,0,1-7.93-5.54A11.1,11.1,0,0,1,.41,199a11.39,11.39,0,0,1,2-5.48l108-187A10.77,10.77,0,0,1,130.05,7Z"/><path id="path2820-2" class="cls-2" d="M11.8,208c-3.67,0-6.33-1.28-7.93-4.05A8.53,8.53,0,0,1,4,195.45L113.12,6.92a8.56,8.56,0,0,1,7.4-4c3.25,0,5.43,1.81,7,4.53L236.26,195.61a8.16,8.16,0,0,1,0,8.52,8.39,8.39,0,0,1-7.4,3.88Zm18.26-19.17,180.06,0L120.09,33Z"/></g></g></g><path d="M35.38,183.41c.47-.77.95-1.54,1.4-2.33a.67.67,0,0,1,.68-.41H77s0-.08,0-.09a3,3,0,0,1-2-3.16c0-2.49,0-5,0-7.46v-.5H43.49c.11-.21.18-.39.28-.55.84-1.45,1.69-2.89,2.51-4.34a.75.75,0,0,1,.76-.45c6.41,0,12.82,0,19.23,0a8.53,8.53,0,0,0,6.76-3,8.35,8.35,0,0,0,2.06-5.55c0-.58,0-1.16,0-1.8H52.47l.65-1.14c2.09-3.65,4.2-7.29,6.27-11a1.17,1.17,0,0,1,1.23-.71c5.18.27,10.35.62,15.5,1.32,1.76.24,3.53.46,5.36.7a4,4,0,0,0-.12-.4q-3-7-6.08-14a5,5,0,0,0-3.78-3l-2.51-.5c.94-1.64,1.84-3.23,2.76-4.8a.44.44,0,0,1,.4-.17,28.75,28.75,0,0,1,3.36.77,6.56,6.56,0,0,1,4,3.84q3.52,8.2,7.09,16.41a6.92,6.92,0,0,0,2.67,3.21A5,5,0,0,1,91.85,148a19.88,19.88,0,0,1,0,3c-.09,3.47-.21,6.94-.32,10.41q-.09,3.07-.21,6.15a1.66,1.66,0,0,1-1.47,1.72l-.69.12v.59c0,2.66,0,5.32,0,8a2.69,2.69,0,0,1-1.53,2.46c-.15.08-.31.14-.51.23.1,0,.14.08.18.08h5.93a.58.58,0,0,0,.42-.12,1.75,1.75,0,0,1,1.17-.45l14.7-2.34,14-2.23,14.6-2.32L153,170.87l15.36-2.44,3.12-.49.77,4L94.52,180.6v.08h107.8a1.06,1.06,0,0,1,1.11.65c.35.73.79,1.41,1.22,2.17l-.6,0H35.38Zm53-26.8a4.3,4.3,0,0,0-8.59,0A4.35,4.35,0,0,0,84,160.93,4.27,4.27,0,0,0,88.42,156.61Z"/><path d="M95.36,169.7a1.62,1.62,0,0,1-.4-2.24Q111,132,127,96.53c.07-.15.15-.3.25-.53L131,97.65Q113.15,133.71,95.36,169.7Z"/><path d="M153.36,141.13,96.49,174.05a6.17,6.17,0,0,1-.08-1.08c0-.14.21-.29.35-.39l11.33-7.37L149.94,138l.53-.34Z"/><path d="M95.32,178.58a9.41,9.41,0,0,1,.57-1.22,1.33,1.33,0,0,1,.63-.45q10.2-3.71,20.43-7.38l30.65-11.06c.21-.08.42-.14.66-.22l1.05,3.33Z"/><path d="M169.38,151.76a10.08,10.08,0,0,0,4.34-1.46A1,1,0,0,0,174,150a7.66,7.66,0,0,0,.67-1,1.53,1.53,0,0,1,1.67-.9,2.6,2.6,0,0,0,1.7-.51,3.38,3.38,0,0,1,2.49-.32,2.37,2.37,0,0,1,2,1.62c.15.46.38.88.52,1.34.29.9.54,1.81.82,2.79-.3.18-.63.41-1,.6a4,4,0,0,0-2.33,3.19,3.74,3.74,0,0,1-.88,1.71.6.6,0,0,1-.39.18,4.26,4.26,0,0,1-.62,0,2.49,2.49,0,0,0-2,.85c-.51.63-1.07,1.21-1.64,1.79a1.4,1.4,0,0,1-.57.23c-.07,0-.17,0-.25,0a2.6,2.6,0,0,1-2.25-1.1,4,4,0,0,0-1-.61,8.63,8.63,0,0,1-1.26-.73.63.63,0,0,1,.1-1.12,1.14,1.14,0,0,0,.69-1.28c-.09-.78-.08-1.58-.17-2.37a1.33,1.33,0,0,0-.39-.75A2.29,2.29,0,0,1,169.38,151.76Z"/><path d="M176.27,172.94a23.64,23.64,0,0,1,0-3.08,21.47,21.47,0,0,1,.77-3.14c.14-.42,1.21-.79,1.64-.68a5.88,5.88,0,0,1,.75.19,1.78,1.78,0,0,0,1.62-.12,1.39,1.39,0,0,1,.73-.11,3.62,3.62,0,0,0,3.13-1,5.35,5.35,0,0,1,.5-.45c.87-.72,1.63-.47,1.9.65a14,14,0,0,1,.71,4.21.67.67,0,0,0,.25.46c.63.54,1.29,1,1.91,1.58a2.27,2.27,0,0,1,.74,2.07,1.56,1.56,0,0,1-1.09,1.31,7.79,7.79,0,0,1-2.9.94,10.54,10.54,0,0,0-1.78.19,8.78,8.78,0,0,0-1.62.6.82.82,0,0,1-.85.07,6,6,0,0,0-3.62-.55,1.52,1.52,0,0,1-.87-.3c-.32-.2-.57-.51-.89-.71A2.44,2.44,0,0,1,176.27,172.94Z"/><path d="M166.58,133.78c0,.74,0,1.48,0,2.22a1.33,1.33,0,0,1-.32,1c-.51.62-1,1.3-1.48,1.92a1.08,1.08,0,0,0-.25,1.09,1,1,0,0,1-.23,1,4,4,0,0,1-1.89,1.6c-.25.09-.42.14-.64-.06a2.18,2.18,0,0,0-2.23-.45,9.59,9.59,0,0,1-1.94.15c-.1,0-.22-.12-.31-.2a.38.38,0,0,1-.09-.18,9.11,9.11,0,0,0-3.15-4.49c-.08-.08-.19-.18-.2-.28a4.51,4.51,0,0,1,.44-2.86,1.08,1.08,0,0,1,.3-.26,4.76,4.76,0,0,0,1.65-1.37.68.68,0,0,1,.39-.21c.78-.21,1.58-.37,2.34-.61s1.72-.67,2.59-1a1.72,1.72,0,0,1,.77-.13c.87.13,1.72.35,2.58.47a2.4,2.4,0,0,1,1.63,1.3c.21.3,0,.87,0,1.31Z"/><path d="M143.79,120.49c-1.49-2.34-3-2.71-4.39-1.56a2.21,2.21,0,0,1-1.15-2.37c.08-.68.1-1.37.12-2.06a.9.9,0,0,0-.14-.48,4.64,4.64,0,0,1-.47-3.11,2.27,2.27,0,0,1,1.45-1.69,13.05,13.05,0,0,1,4.07-1c.14,0,.36,0,.42.08a2.69,2.69,0,0,0,1.77.84,2.47,2.47,0,0,1,1.09.7,4.4,4.4,0,0,0,1.37.84,1.71,1.71,0,0,1,1.12,2.34c-.24.66-.44,1.33-.65,2a1.64,1.64,0,0,0,.2,1.43,2,2,0,0,1,.07,1.46.49.49,0,0,1-.33.31,7.57,7.57,0,0,0-3.85,1.94A4.24,4.24,0,0,1,143.79,120.49Z"/><path d="M130.42,79.66a4.82,4.82,0,0,0,2.86-1.19c.45-.35.86-.74,1.3-1.1a.8.8,0,0,1,.41-.18,6.4,6.4,0,0,0,3.07-.41,4.41,4.41,0,0,0,1.37,2A15.78,15.78,0,0,1,141,81.21a.67.67,0,0,1,0,.4,2.82,2.82,0,0,1-.15.7,2.35,2.35,0,0,0,.19,2.25,2.05,2.05,0,0,1-.35,2.14.78.78,0,0,1-.79.2,14.93,14.93,0,0,0-1.62-.2c-.8,0-1.38.55-2,.9a1.42,1.42,0,0,1-1.42,0,1.14,1.14,0,0,1-.33-.39c-.22-.31-.41-.63-.64-.93a9.9,9.9,0,0,1-.86-1.1,3.26,3.26,0,0,0-1.74-1.65.57.57,0,0,1-.28-.47c0-.7.07-1.4.09-2.11a1,1,0,0,0-.12-.52A9.19,9.19,0,0,0,130.42,79.66Z"/><path d="M119.08,95.41s0-.07,0-.08a1.45,1.45,0,0,0-.74-1.84.51.51,0,0,1-.19-.4,1.07,1.07,0,0,0-.79-1.06.7.7,0,0,1-.32-.48,1.63,1.63,0,0,1,.59-1.69.83.83,0,0,0,.21-.69,2.25,2.25,0,0,1,1-2.3,9.87,9.87,0,0,1,3.86-1.58.55.55,0,0,1,.35.06c1,.48,2,1,2.93,1.47a1.18,1.18,0,0,1,.37.47c.32.58.59,1.19.93,1.76a1.27,1.27,0,0,1-.28,1.66c-.44.36-.88.71-1.28,1.11a5.29,5.29,0,0,0-1.28,2.43,4.11,4.11,0,0,1-.64,1,.34.34,0,0,1-.25.13l-4.16,0A1.4,1.4,0,0,1,119.08,95.41Z"/><path d="M154.28,152.18c1.16-.64,2.3-1.23,3.4-1.9.73-.45,1.39-1,2.08-1.51a1.5,1.5,0,0,1,1.82.41c.21.46.43.9.63,1.36s.29.61.7.66c.1,0,.21.16.26.27a4.23,4.23,0,0,1,.06,3.31,8.82,8.82,0,0,0-.77,2.94.77.77,0,0,1-.36.48,18,18,0,0,1-5.37,1.88l-.6.14c-.84.22-1.35-.25-1.18-1.1a2.47,2.47,0,0,1,.26-.78c.86-1.4.5-2.9.28-4.33-.09-.58-.7-1.08-1.07-1.62Z"/></g></g></svg>