<svg xmlns="http://www.w3.org/2000/svg" viewBox="0 0 240.34 210.86"><defs><style>.cls-1{fill:#fff;stroke:#000;stroke-linecap:round;stroke-linejoin:round;stroke-width:0.75px;}.cls-2{fill:#ef2028;}.cls-3{fill-rule:evenodd;}</style></defs><g id="Layer_2" data-name="Layer 2"><g id="Layer_1-2" data-name="Layer 1"><g id="Layer_2-2" data-name="Layer 2"><g id="svg48705"><g id="layer1"><path id="path2818-7" class="cls-1" d="M236.93,191.79a32.34,32.34,0,0,1,2.29,4.21,9.81,9.81,0,0,1,.74,3.67,10.5,10.5,0,0,1-1.33,5.33,10.81,10.81,0,0,1-6.28,5.06,16.46,16.46,0,0,1-4.85.42H11.91a19.27,19.27,0,0,1-2.4-.1,10.7,10.7,0,0,1-7.93-5.54A11.12,11.12,0,0,1,.41,199a11.39,11.39,0,0,1,2-5.48l108-187A10.77,10.77,0,0,1,130.06,7Z"/><path id="path2820-2" class="cls-2" d="M11.8,208c-3.67,0-6.33-1.28-7.93-4A8.53,8.53,0,0,1,4,195.47L113.13,6.92a8.56,8.56,0,0,1,7.4-4c3.25,0,5.43,1.81,7,4.53L236.29,195.63a8.21,8.21,0,0,1,0,8.52,8.41,8.41,0,0,1-7.4,3.88Zm18.27-19.17,180.07-.05L120.1,33Z"/></g></g></g><path id="rect33290" class="cls-3" d="M98.68,96.89a6.07,6.07,0,0,0,0,12.14h0a6.07,6.07,0,1,0,0-12.14ZM145,103.48a6.64,6.64,0,1,0,3.82,12.14l1.47.71-2.39.9,5.81,2.84-.38-2.26,3.8,1.84a1.6,1.6,0,0,0,2-.85,1.65,1.65,0,0,0-.53-2.14l-4-1.94h0l2.73-1-5.09-2.45.44,2.54h0L151,113a6.63,6.63,0,0,0-6-9.54ZM104.29,110a4,4,0,0,0-2,.68L97.2,114,81.77,134.48A3.24,3.24,0,0,0,82,138a3.1,3.1,0,0,0,3.82,1l9.48-12.37,2.07,7.49-5,9.74,1.3.67h-.06L80.48,170.13a3,3,0,0,0,1.31,3.37,3,3,0,0,0,4-.67L99,147.18h0l1.26.64,3.06-5.93,2.31,6,1.32-.51,10,26a3,3,0,0,0,3.91,1.09,3,3,0,0,0,1.66-3.21l-10-26h0l1.22-.47-4.49-10.91,1.53-9.94,4.88,4.91v8a3.06,3.06,0,0,0,3,2.61,3,3,0,0,0,3-2.61v-9a3.25,3.25,0,0,0-.87-2.15l-14.11-15a3.94,3.94,0,0,0-2.31-.69Zm41.18,9.66a6,6,0,0,0-2,.43l-17.91,14.47a2.68,2.68,0,1,0,3.63,3.94l10-8.1,1.73,4.31-3.8,12.94,2.09-.17-8.45,24.11a2.76,2.76,0,0,0,1.84,3,2.8,2.8,0,0,0,3.38-1.39L145.18,147l3-.25L157,173.18a2.82,2.82,0,0,0,3.38,1.4,2.78,2.78,0,0,0,1.84-3l-8.48-25.34,1.14-.1-5.3-11.23,2.34-7.22,2.54.87,2.36,6.12a2.72,2.72,0,0,0,3.13.2,2.83,2.83,0,0,0,1.31-2.31l-2.54-6.77a4.43,4.43,0,0,0-1.92-1.91l-9.35-4A8.94,8.94,0,0,0,145.47,119.64ZM73.32,134.15l-8.47,12.31,16.53,11.45,8.48-12.28Zm91.58,1-9.29,3.39.57,8.05,13.39-4.85Z"/></g></g></svg>