<?xml version="1.0" encoding="utf-8"?>
<!-- Generator: Adobe Illustrator 25.2.3, SVG Export Plug-In . SVG Version: 6.00 Build 0)  -->
<svg version="1.1"
	 id="svg48705" inkscape:version="1.0 (4035a4fb49, 2020-05-01)" xmlns:cc="http://creativecommons.org/ns#" xmlns:dc="http://purl.org/dc/elements/1.1/" xmlns:inkscape="http://www.inkscape.org/namespaces/inkscape" xmlns:rdf="http://www.w3.org/1999/02/22-rdf-syntax-ns#" xmlns:sodipodi="http://sodipodi.sourceforge.net/DTD/sodipodi-0.dtd" xmlns:svg="http://www.w3.org/2000/svg"
	 xmlns="http://www.w3.org/2000/svg" xmlns:xlink="http://www.w3.org/1999/xlink" x="0px" y="0px" viewBox="0 0 450 394.7"
	 style="enable-background:new 0 0 450 394.7;" xml:space="preserve">
<style type="text/css">
	.st0{fill:#FFFFFF;stroke:#000000;stroke-width:0.75;stroke-linecap:round;stroke-linejoin:round;stroke-miterlimit:5.6693;}
	.st1{fill:#EE252C;}
</style>
<sodipodi:namedview  bordercolor="#666666" borderopacity="1.0" id="base" inkscape:current-layer="layer1" inkscape:cx="84.453456" inkscape:cy="367.1801" inkscape:document-rotation="0" inkscape:document-units="mm" inkscape:pageopacity="0.0" inkscape:pageshadow="2" inkscape:window-height="1030" inkscape:window-maximized="0" inkscape:window-width="1424" inkscape:window-x="192" inkscape:window-y="0" inkscape:zoom="0.7" pagecolor="#ffffff" showgrid="false">
	</sodipodi:namedview>
<g id="layer1" transform="translate(69.60519,-52.017057)" inkscape:groupmode="layer" inkscape:label="Layer 1">
	<path id="path2818-7" sodipodi:nodetypes="cssssccssscccccc" class="st0" d="M374.3,411.3c1.8,3,3.3,5.5,4.3,7.9
		c0.9,2.3,1.4,4.6,1.4,6.9c0,3.3-0.7,7-2.5,10c-2.7,4.7-6.9,8-11.8,9.5c-2.9,0.9-6.1,0.8-9.1,0.8l-404.2,0c-1.7,0-3,0-4.5-0.2
		c-6.1-1-11.2-4-14.9-10.4c-2-3.5-2.4-7.8-2.2-11c0.2-3.8,1.5-6.5,3.7-10.3L137.1,63.9c3.8-7,10.2-11.4,18.2-11.5
		c9.2,0.2,15.5,5.6,18.7,12.4L374.3,411.3L374.3,411.3z"/>
	<path id="path2820-2" sodipodi:nodetypes="cscccccscccccc" class="st1" d="M-47.8,441.7c-6.9,0-11.8-2.4-14.8-7.6
		c-3-5.1-2.3-11.3,0.3-15.9L142.2,64.7c2.6-4.5,8-7.5,13.9-7.5c6.1,0,10.2,3.4,13.2,8.5l203.9,352.8c3.1,5,2.9,10.9,0,16
		c-2.9,5.1-8.7,7.3-13.9,7.3L-47.8,441.7z M-13.5,405.8l337.6-0.1L155.3,113.5L-13.5,405.8z"/>
</g>
<g id="Layer_2">
	<path d="M293.9,336.3V281c0,0-5.3-100.8-115.1-98.8l-18.1,17.5l18.8,20.4c0,0,49.3-5.9,69.7,39.3c4.6,10.2,6.8,21.3,6.8,32.5v44.3
		l19-19L293.9,336.3z"/>
</g>
</svg>
