<svg viewBox="0 0 242.1 212.42" xmlns="http://www.w3.org/2000/svg"><defs><style>.cls-1{fill:#fff;stroke:#000;stroke-linecap:round;stroke-linejoin:round;stroke-width:0.75px;}.cls-2{fill:#ef2028;}</style></defs><g data-name="Layer 2"><g data-name="Layer 1"><g data-name="Layer 2-2"><path class="cls-1" d="M238.67,193.18a34.21,34.21,0,0,1,2.31,4.25,9.92,9.92,0,0,1,.74,3.69,10.5,10.5,0,0,1-1.34,5.37,10.89,10.89,0,0,1-6.33,5.1,16.66,16.66,0,0,1-4.88.42H12a17.81,17.81,0,0,1-2.42-.1,10.78,10.78,0,0,1-8-5.58,11.19,11.19,0,0,1-1.17-5.88,11.41,11.41,0,0,1,2-5.52L111.22,6.55A10.85,10.85,0,0,1,131,7Z"/><path class="cls-2" d="M11.88,209.51c-3.7,0-6.38-1.29-8-4A8.61,8.61,0,0,1,4,196.89L114,7a8.63,8.63,0,0,1,7.45-4c3.27,0,5.47,1.83,7.05,4.57L238,197.05a8.29,8.29,0,0,1,0,8.59,8.46,8.46,0,0,1-7.45,3.9Zm18.4-19.31,181.4,0L121,33.22Z"/></g><path d="m165.34 138.27v0.11-0.25l0.05 0.14a1.53 1.53 0 0 0-0.35-1v0.08-0.05a4 4 0 0 0-1.14-0.91h-0.08l-0.14-0.06h-0.07l0.24 0.08a6.77 6.77 0 0 0-1.74-0.6h0.11-0.11a11.17 11.17 0 0 0-2.38-0.23h0.3-0.31v-0.12l5.76-17.06h-5.73l-14.2 17.06-0.09 0.12h-0.05 0.06c-1.85-0.49-3.73-0.92-5.61-1.29l-0.39-0.09h-0.21a86.12 86.12 0 0 0-14.86-1.47h-0.57-2.69v-11.62l10-28.63h-10.14l-17.39 28.63-6.94 11.42a71.65 71.65 0 0 0-31.49 5.73c0.82 0.35 1.65 0.68 2.48 1h0.1l0.13 0.06 0.52 0.18c1.49 0.55 3 1.06 4.51 1.51l0.21 0.06a71.6 71.6 0 0 0 8.62 2l0.27 0.05h0.25c1.68 0.26 3.36 0.46 5 0.61h0.52 0.28c1.75 0.13 3.5 0.2 5.26 0.2h0.67c0.89 0 1.78 0 2.66-0.06h-0.07 0.07l6.94 11.45 17.29 28.68 0.07 0.12h10l-10-28.63v-11.49h2.74 0.49c1.16 0 2.32-0.05 3.47-0.11h0.66 0.27 0.14l1.44-0.09 0.58-0.06 1.9-0.19 0.58-0.05 1.17-0.16 0.75-0.11h0.08 0.24c1.2-0.18 2.4-0.37 3.6-0.6h0.22l0.36-0.08q2.68-0.52 5.34-1.22h0.13 0.17l0.05 0.06 14.2 17.09h5.73l-5.6-17.09v-0.07l1.15-0.06 1.12-0.18h0.06-0.06a7.2 7.2 0 0 0 1.74-0.61l-0.2 0.07h0.11l0.14-0.09a4 4 0 0 0 0.64-0.43l0.16-0.12 0.28-0.27 0.12-0.15a1.53 1.53 0 0 0 0.41-1.21zm-68.71-5.71h-0.07 0.07zm24.37 11.44m24.32-2.85z"/></g></g></svg>