<svg xmlns="http://www.w3.org/2000/svg" viewBox="0 0 242.1 212.42"><defs><style>.cls-1{fill:#fff;stroke:#000;stroke-linecap:round;stroke-linejoin:round;stroke-width:0.75px;}.cls-2{fill:#ef2028;}</style></defs><g id="Layer_2" data-name="Layer 2"><g id="Layer_1-2" data-name="Layer 1"><g id="Layer_2-2" data-name="Layer 2-2"><g id="svg48705"><g id="layer1"><path id="path2818-7" class="cls-1" d="M238.67,193.18a34.21,34.21,0,0,1,2.31,4.25,9.92,9.92,0,0,1,.74,3.69,10.5,10.5,0,0,1-1.34,5.37,10.89,10.89,0,0,1-6.33,5.1,16.66,16.66,0,0,1-4.88.42H12a17.81,17.81,0,0,1-2.42-.1,10.78,10.78,0,0,1-8-5.58,11.19,11.19,0,0,1-1.17-5.88,11.41,11.41,0,0,1,2-5.52L111.22,6.55A10.85,10.85,0,0,1,131,7Z"/><path id="path2820-2" class="cls-2" d="M11.88,209.51c-3.7,0-6.38-1.29-8-4A8.61,8.61,0,0,1,4,196.89L114,7a8.63,8.63,0,0,1,7.45-4c3.27,0,5.47,1.83,7.05,4.57L238,197.05a8.29,8.29,0,0,1,0,8.59,8.46,8.46,0,0,1-7.45,3.9Zm18.4-19.31,181.4,0L121,33.22Z"/></g></g></g><path d="M165.34,138.27l0,.11v-.09h0v-.16l.05.14a1.53,1.53,0,0,0-.35-1l0,.08,0-.05h0l0,0,0,0a4,4,0,0,0-1.14-.91l0,0-.08,0h0l-.14-.06h0l-.07,0,.24.08a6.77,6.77,0,0,0-1.74-.6l.11,0-.11,0h0a11.17,11.17,0,0,0-2.38-.23l.3,0h-.31l0-.12h0l5.76-17.06h-5.73l-14.2,17.06h0l-.09.12h0l-.05,0h.06c-1.85-.49-3.73-.92-5.61-1.29l-.39-.09h0l-.21,0a86.12,86.12,0,0,0-14.86-1.47h-.57c-.9,0-1.79,0-2.69,0v0h0V121.11h0l10-28.63H121l-17.39,28.63h0l-6.94,11.42h0a71.65,71.65,0,0,0-31.49,5.73h0l0,0h0c.82.35,1.65.68,2.48,1l.1,0,.13.06h0l.52.18c1.49.55,3,1.06,4.51,1.51h0l.21.06h0a71.6,71.6,0,0,0,8.62,2l.27.05h0l.25,0c1.68.26,3.36.46,5,.61l.52,0h.28c1.75.13,3.5.2,5.26.2H94c.89,0,1.78,0,2.66-.06l-.07,0h.07l6.94,11.45h0L120.89,184l.07.12h10l-10-28.63V144c.91,0,1.82,0,2.74,0h.49c1.16,0,2.32-.05,3.47-.11l.66,0h0l.27,0h.14l1.44-.09h0l.58-.06,1.9-.19.58-.05h0l1.17-.16.75-.11h.08l.24,0c1.2-.18,2.4-.37,3.6-.6l.22,0h0l.36-.08q2.68-.52,5.34-1.22l.13,0,.17,0,.05.06,0,0h0l14.2,17.09h5.73l-5.6-17.09h0l0,0,0-.07,1.15-.06h0l1.12-.18h0l.06,0-.06,0a7.2,7.2,0,0,0,1.74-.61l-.2.07h0l0,0,.11,0h0l.14-.09a4,4,0,0,0,.64-.43l.16-.12h0l.28-.27h0l.12-.15h0v0A1.53,1.53,0,0,0,165.34,138.27Zm-68.71-5.71h-.07l.07,0ZM121,144Zm24.32-2.85h0Z"/></g></g></svg>