<svg xmlns="http://www.w3.org/2000/svg" viewBox="0 0 240.33 210.87"><defs><style>.cls-1,.cls-3{fill:#fff;}.cls-1{stroke:#000;stroke-linecap:round;stroke-linejoin:round;stroke-width:0.75px;}.cls-2{fill:#ef2028;}</style></defs><g id="Layer_2" data-name="Layer 2"><g id="Layer_1-2" data-name="Layer 1"><g id="Layer_2-2" data-name="Layer 2-2"><g id="svg48705"><g id="layer1"><path id="path2818-7" class="cls-1" d="M236.92,191.77a31.81,31.81,0,0,1,2.29,4.21,9.66,9.66,0,0,1,.74,3.67,10.43,10.43,0,0,1-1.33,5.33,10.76,10.76,0,0,1-6.28,5.06,16.46,16.46,0,0,1-4.85.42H11.9a17.52,17.52,0,0,1-2.4-.1,10.67,10.67,0,0,1-7.93-5.54A11.22,11.22,0,0,1,.4,199a11.43,11.43,0,0,1,2-5.48l108-187A10.77,10.77,0,0,1,130.05,7Z"/><path id="path2820-2" class="cls-2" d="M11.79,208c-3.67,0-6.33-1.28-7.93-4A8.55,8.55,0,0,1,4,195.45L113.12,6.9a8.6,8.6,0,0,1,7.4-4c3.25,0,5.43,1.81,7,4.53L236.28,195.61a8.21,8.21,0,0,1,0,8.52,8.38,8.38,0,0,1-7.4,3.88Zm18.27-19.17,180.07-.05L120.09,33Z"/></g></g></g><path d="M106.27,121.3l.25.18.08,0a3.38,3.38,0,0,1,.54.17q10.92,4.71,21.82,9.45l21.15,9.17,13.4,5.81,13.4,5.81,5.18,2.24c.22.09.36.21.33.47a.27.27,0,0,0,.08.17,2.63,2.63,0,0,1,.64,1.09,5.05,5.05,0,0,1,.34,1.92.83.83,0,0,0,0,.15v.73a.53.53,0,0,0,0,.17,10.6,10.6,0,0,1-.34,2.09,15.34,15.34,0,0,1-1.6,4.07,7.56,7.56,0,0,1-1.67,2.1,4.18,4.18,0,0,1-1.37.84,4.06,4.06,0,0,1-.57.12l0,0c-.15.26-.25.3-.53.24l-1.71-.41-11.6-2.81L154,162.71l-12-2.91-10.49-2.54-12-2.9-10.49-2.54-11.17-2.7a.38.38,0,0,1-.15-.05.59.59,0,0,0-.43-.1c-.07,0-.15-.05-.21-.09a.91.91,0,0,1-.17-.17l-7.86-7.86L84.07,136l-4.84-4.85L75,126.92l-.24-.23a1.87,1.87,0,0,0,0,.21,2.35,2.35,0,0,0,0,.26v58.31c0,.12,0,.23,0,.35H70.42V126.16c.11,0,.22,0,.34,0h3.62c.05-.29.25-.35.5-.38l1-.14,4.64-.65,4.63-.66,4.63-.65,4.6-.66,5-.7,6.26-.89c.16,0,.32-.06.48-.09Zm-9.8,26.09c0-.1.06-.17.07-.23l.39-2q.58-2.74,1.32-5.44c.74-2.71,1.59-5.39,2.58-8,.63-1.67,1.28-3.33,2-5,.52-1.2,1.1-2.37,1.65-3.55.14-.31.29-.61.46-1l-29.39,4.16Zm1.32,1,11,2.67a83.92,83.92,0,0,1,8.15-24.3l-10.44-4.53A94.19,94.19,0,0,0,97.79,148.38Zm29.64-17.1a68.09,68.09,0,0,0-3.32,7.22,73.31,73.31,0,0,0-2.51,7.5,72.36,72.36,0,0,0-1.68,7.73L131,156.41a61.49,61.49,0,0,1,2.52-10.62,58.58,58.58,0,0,1,4.38-10Zm25.81,30.5a38.49,38.49,0,0,1,5.63-16.87l-10.49-4.55-.62,1.12a48.87,48.87,0,0,0-4,9.64,54.47,54.47,0,0,0-1.58,7.25,2.89,2.89,0,0,0-.05.73ZM181,154.5l-11.42-4.95a24,24,0,0,0-4.21,8.74,22.11,22.11,0,0,0-.83,6.22l12.09,2.92a.85.85,0,0,0-.06-.13,5.27,5.27,0,0,1-.62-1.84,8.27,8.27,0,0,1,0-2.58c.13-.62.21-1.24.38-1.84a15.53,15.53,0,0,1,1.29-3.2,9.72,9.72,0,0,1,1.29-1.89,5,5,0,0,1,1.59-1.25Z"/><path class="cls-3" d="M96.47,147.39l-20.94-21,29.39-4.16c-.17.35-.32.65-.46,1-.55,1.18-1.13,2.35-1.65,3.55-.7,1.65-1.35,3.31-2,5-1,2.64-1.84,5.32-2.58,8q-.73,2.7-1.32,5.44l-.39,2C96.53,147.22,96.5,147.29,96.47,147.39Z"/><path class="cls-3" d="M97.79,148.38a94.19,94.19,0,0,1,8.74-26.16L117,126.75a83.92,83.92,0,0,0-8.15,24.3Z"/><path class="cls-3" d="M127.43,131.28l10.46,4.53a58.58,58.58,0,0,0-4.38,10A61.49,61.49,0,0,0,131,156.41l-11.07-2.68A72.36,72.36,0,0,1,121.6,146a73.31,73.31,0,0,1,2.51-7.5A68.09,68.09,0,0,1,127.43,131.28Z"/><path class="cls-3" d="M153.24,161.78l-11.1-2.68a2.89,2.89,0,0,1,.05-.73,54.47,54.47,0,0,1,1.58-7.25,48.87,48.87,0,0,1,4-9.64l.62-1.12,10.49,4.55A38.49,38.49,0,0,0,153.24,161.78Z"/><path class="cls-3" d="M181,154.5l-.46.2a5,5,0,0,0-1.59,1.25,9.72,9.72,0,0,0-1.29,1.89,15.53,15.53,0,0,0-1.29,3.2c-.17.6-.25,1.22-.38,1.84a8.27,8.27,0,0,0,0,2.58,5.27,5.27,0,0,0,.62,1.84.85.85,0,0,1,.06.13l-12.09-2.92a22.11,22.11,0,0,1,.83-6.22,24,24,0,0,1,4.21-8.74Z"/></g></g></svg>