<svg viewBox="0 0 240.33 210.87" xmlns="http://www.w3.org/2000/svg"><defs><style>.cls-1{fill:#fff;stroke:#000;stroke-linecap:round;stroke-linejoin:round;stroke-width:0.75px;}.cls-2{fill:#ef2028;}.cls-3{fill:#1d1d1b;}</style></defs><g data-name="Layer 2"><g data-name="Layer 1"><g data-name="Layer 2-2"><path class="cls-1" d="M236.92,191.77a31.81,31.81,0,0,1,2.29,4.21,9.66,9.66,0,0,1,.74,3.67,10.43,10.43,0,0,1-1.33,5.33,10.76,10.76,0,0,1-6.28,5.06,16.46,16.46,0,0,1-4.85.42H11.9a17.52,17.52,0,0,1-2.4-.1,10.67,10.67,0,0,1-7.93-5.54A11.22,11.22,0,0,1,.4,199a11.43,11.43,0,0,1,2-5.48l108-187A10.77,10.77,0,0,1,130.05,7Z"/><path class="cls-2" d="M11.79,208c-3.67,0-6.33-1.28-7.93-4A8.55,8.55,0,0,1,4,195.45L113.12,6.9a8.6,8.6,0,0,1,7.4-4c3.25,0,5.43,1.81,7,4.53L236.28,195.61a8.21,8.21,0,0,1,0,8.52,8.38,8.38,0,0,1-7.4,3.88Zm18.27-19.17,180.07-.05L120.09,33Z"/></g><path class="cls-3" d="M114.26,145.63a1.22,1.22,0,0,0-1.28-.39l-.11,0-8.26,2.59V100.16a.36.36,0,0,0-.36-.36H92.9a.36.36,0,0,0-.36.36v47.72l-8.21-2.57a.37.37,0,0,0-.14-.07,1.21,1.21,0,0,0-1.45,1.63l0,.1,15.48,29.88a.38.38,0,0,0,.32.2.37.37,0,0,0,.32-.19L114.4,147a.42.42,0,0,0,0-.1A1.23,1.23,0,0,0,114.26,145.63Z"/><path class="cls-3" d="m157 129.87a0.3 0.3 0 0 0-0.12-0.13l-15.48-29.74h-0.06-0.05-0.29l-15.42 29.79-0.07 0.09a1.21 1.21 0 0 0 1.09 1.76h0.23 0.1l8.36-2.61v47.69a0.36 0.36 0 0 0 0.36 0.36h11.34a0.36 0.36 0 0 0 0.36-0.36v-47.72l8.38 2.61h0.11 0.25a1.21 1.21 0 0 0 1.09-1.76z"/></g></g></svg>