<svg xmlns="http://www.w3.org/2000/svg" viewBox="0 0 240.33 210.87"><defs><style>.cls-1{fill:#fff;stroke:#000;stroke-linecap:round;stroke-linejoin:round;stroke-width:0.75px;}.cls-2{fill:#ef2028;}.cls-3{fill:#1d1d1b;}</style></defs><g id="Layer_2" data-name="Layer 2"><g id="Layer_1-2" data-name="Layer 1"><g id="Layer_2-2" data-name="Layer 2-2"><g id="svg48705"><g id="layer1"><path id="path2818-7" class="cls-1" d="M236.92,191.77a31.81,31.81,0,0,1,2.29,4.21,9.66,9.66,0,0,1,.74,3.67,10.43,10.43,0,0,1-1.33,5.33,10.76,10.76,0,0,1-6.28,5.06,16.46,16.46,0,0,1-4.85.42H11.9a17.52,17.52,0,0,1-2.4-.1,10.67,10.67,0,0,1-7.93-5.54A11.22,11.22,0,0,1,.4,199a11.43,11.43,0,0,1,2-5.48l108-187A10.77,10.77,0,0,1,130.05,7Z"/><path id="path2820-2" class="cls-2" d="M11.79,208c-3.67,0-6.33-1.28-7.93-4A8.55,8.55,0,0,1,4,195.45L113.12,6.9a8.6,8.6,0,0,1,7.4-4c3.25,0,5.43,1.81,7,4.53L236.28,195.61a8.21,8.21,0,0,1,0,8.52,8.38,8.38,0,0,1-7.4,3.88Zm18.27-19.17,180.07-.05L120.09,33Z"/></g></g></g><path class="cls-3" d="M135.78,82.3v0h0c0-.46,0-.91-.06-1.36h0a15.61,15.61,0,0,0-.85-3.88l0-.08h0l0-.06a15.5,15.5,0,0,0-3.52-5.55l-.09-.1-.1-.1a15.57,15.57,0,0,0-5.54-3.51l-.07,0h0l-.08,0a15.73,15.73,0,0,0-5.25-.9h0q-.69,0-1.35.06h0a15.38,15.38,0,0,0-3.73.79l-.26.08h0l-.25.11a15.52,15.52,0,0,0-3.2,1.69l-.16.09h0l-.14.11c-.31.23-.62.47-.91.71l0,0h0l0,0c-.28.24-.55.49-.82.75l-.14.13-.14.14c-.24.26-.48.51-.7.78l-.09.1,0,.07a14.44,14.44,0,0,0-1.4,2l-.12.17h0l-.16.31-.25.48-.22.41-.14.36c-.11.26-.22.52-.32.78l0,.13h0l0,.14c-.08.24-.15.47-.22.71l-.15.44h0l-.3,1.35h0l-.18,1.32,0,.72c0,.22,0,.43,0,.65h0v0h0l11.33,65.32.06.69.18.69.15.31.11.23,0,.09h0l.09.14,0,.06.24.4h0l.1.1.39.41h0l.57.45h0l.6.33h0l.66.21h0l.27.05.42.07h.72l.23,0,.33-.05.13,0h0l.19-.06.11,0,.36-.12h0l.64-.33.31-.26.15-.13.08-.06h0l0,0c.13-.13.26-.27.38-.41l.07-.07h0l0-.08a4.76,4.76,0,0,0,.31-.47l0-.05h0l0,0a4.23,4.23,0,0,0,.49-2h0L135.78,82.3Z"/><path class="cls-3" d="M120.17,157.53a9.84,9.84,0,0,0-6.43,2.37h0l0,0a9.59,9.59,0,0,0-1.45,1.54h0a9.25,9.25,0,0,0-1,1.71l-.08.13-.06.15a11,11,0,0,0-.55,1.62l-.08.27h0l-.18,1.08-.06,1,.06,1.09.18,1.05h0l.3,1h0l.39,1h0l.51,1h0l.61.88h0l.12.14.57.7h0l.78.72h0l.87.66.9.54h0l.56.27.43.21h0l.09,0,.93.3,1,.24h0l1,.12h1.08l1.08-.12h0l1.06-.24h0l1-.33h0l.49-.24.47-.24h0l.27-.15.1-.06.56-.33h0l.43-.33.26-.21.15-.12h0l.11-.1.41-.38.27-.24h0l.16-.2a9.14,9.14,0,0,0,.93-1.2l.23-.32h0l.17-.35a8.5,8.5,0,0,0,.63-1.37l.1-.23h0l.06-.23a9.55,9.55,0,0,0,.39-1.87h0a9.46,9.46,0,0,0,.06-1.07h0A9.94,9.94,0,0,0,120.17,157.53Z"/></g></g></svg>