<svg width="450" height="394.75" version="1.1" viewBox="0 0 119.06 104.45" xmlns="http://www.w3.org/2000/svg"><g transform="translate(-82.255 -64.221)"><g transform="matrix(.26458 0 0 .26458 100.68 50.456)"><path class="st0" d="m374.3 411.3c1.8 3 3.3 5.5 4.3 7.9 0.9 2.3 1.4 4.6 1.4 6.9 0 3.3-0.7 7-2.5 10-2.7 4.7-6.9 8-11.8 9.5-2.9 0.9-6.1 0.8-9.1 0.8h-404.2c-1.7 0-3 0-4.5-0.2-6.1-1-11.2-4-14.9-10.4-2-3.5-2.4-7.8-2.2-11 0.2-3.8 1.5-6.5 3.7-10.3l202.6-350.6c3.8-7 10.2-11.4 18.2-11.5 9.2 0.2 15.5 5.6 18.7 12.4z"/><path class="st1" d="m-47.8 441.7c-6.9 0-11.8-2.4-14.8-7.6-3-5.1-2.3-11.3 0.3-15.9l204.5-353.5c2.6-4.5 8-7.5 13.9-7.5 6.1 0 10.2 3.4 13.2 8.5l203.9 352.8c3.1 5 2.9 10.9 0 16s-8.7 7.3-13.9 7.3zm34.3-35.9 337.6-0.1-168.8-292.2z"/></g><path d="m120.9 153.9 4.8683-4.8683 4.9742 4.9742v-21.034l8.2815 5.7944c6.694 4.7096 15.928-0.0794 15.928-8.2815v-21.061l-5.08-5.08-5.08 5.08v20.981l-8.3873-5.8738c-6.5088-4.6038-15.505 0.0529-15.505 8.0433z" stroke-width=".26458"/></g><style type="text/css">.st0{fill:#FFFFFF;stroke:#000000;stroke-width:0.75;stroke-linecap:round;stroke-linejoin:round;stroke-miterlimit:5.6693;}.st1{fill:#EE252C;}</style></svg>