<svg viewBox="0 0 240.33 210.87" xmlns="http://www.w3.org/2000/svg"><defs><style>.cls-1{fill:#fff;stroke:#000;stroke-linecap:round;stroke-linejoin:round;stroke-width:0.75px;}.cls-2{fill:#ef2028;}.cls-3{fill:#171714;}</style></defs><g data-name="Layer 2"><g data-name="Layer 1"><g data-name="Layer 2-2"><path class="cls-1" d="M236.92,191.77a31.81,31.81,0,0,1,2.29,4.21,9.66,9.66,0,0,1,.74,3.67,10.43,10.43,0,0,1-1.33,5.33,10.76,10.76,0,0,1-6.28,5.06,16.46,16.46,0,0,1-4.85.42H11.9a17.52,17.52,0,0,1-2.4-.1,10.67,10.67,0,0,1-7.93-5.54A11.22,11.22,0,0,1,.4,199a11.43,11.43,0,0,1,2-5.48l108-187A10.77,10.77,0,0,1,130.05,7Z"/><path class="cls-2" d="M11.79,208c-3.67,0-6.33-1.28-7.93-4A8.55,8.55,0,0,1,4,195.45L113.12,6.9a8.6,8.6,0,0,1,7.4-4c3.25,0,5.43,1.81,7,4.53L236.28,195.61a8.21,8.21,0,0,1,0,8.52,8.38,8.38,0,0,1-7.4,3.88Zm18.27-19.17,180.07-.05L120.09,33Z"/></g><path class="cls-3" d="m82.66 121.42v2.47h5.11l0.33-2.47v-0.09l1-1.35 0.29-0.51 0.79-1.35 0.09-0.18 2-1.54 1-1.17h0.44l0.76 0.1 1.87 0.36 0.11 0.05 1.75 0.79 1.87 0.84 1.44 0.18 1.44 0.15 4.09-0.15 2.61-1h0.08l1-0.84 0.19-0.18 0.56-0.51 1.35-1.21 0.84-0.84 2.74-0.33 1.86 0.33 0.09 0.08 1.27 1.13 2 1.86 2.35 1.33 4.09-0.18h3.22l1.68-1.17 1.21-1.2 1.65-0.66 0.69-0.29 0.54-0.23 0.87 0.07 1 0.08 1.53 1 2 1 1 0.51h5.08l0.32-0.07 2.06-0.44 1.38-1 0.29-0.22 0.38-0.29 0.39-0.52 0.12-0.15 0.11-0.15 0.4-0.54 0.2-0.28 1.11-1.53 0.36-3.89v-0.16-0.35l-0.15-2-1.83-3.4-0.36-0.66-1-0.66h-0.05l-1.32-0.84-4.57-0.7-3.73 0.18-0.72 0.52-1.18 0.84-3.21 0.18-0.78-0.18-1.59-0.33-1.66-1.08-0.18-0.13-1-0.6-0.09-0.06-2.24-0.58-1.62-0.33-4.57 0.33-0.39 0.27-0.36 0.24-0.94 0.65-2.7 0.18-4-0.17h-0.09l-1.54-0.84-3.58-2.54-1.89-0.84-3.91-0.16h-4.76l-0.33 0.15-1.71 0.85-0.25 0.14h-0.08l-2.71 2.37-0.18 0.18-0.51 0.66v0.07l-1 1.29-0.14 0.18-0.07 0.1-1 1.25-0.36 5.45-1.68 1.35-2.25 3.06-0.77 1.06-0.81 1.11-0.4 0.53-0.87 1.2-0.19 0.9-0.11 0.45-0.33 1.54v0.18l-0.72 1.8-0.48 1.5z"/><polygon class="cls-3" points="170.37 136.34 142.34 136.34 142.34 136.34 142.34 140.25 170.37 140.25 170.37 136.34"/><path class="cls-3" d="M147.93,166.06v-1.5h17.69v-5.45h0V150.6h-8.84V140.25H142.34V150.6h0v8.51H67.53v5.45h0v1.5H61.94v4.27h5.25a5.28,5.28,0,0,0-1.51,3.39l0,.07h0v.09a5.23,5.23,0,0,0,.13,1.36l0,.09h0l0,.12a3.38,3.38,0,0,0,.13.42l.07.21h0l.09.18c.07.15.15.3.23.45l0,.06h0l0,0a5.25,5.25,0,0,0,.71.92l.22.24h0l.21.15a5.16,5.16,0,0,0,1.06.68l0,0h0l.06,0c.12,0,.24.11.37.15l.3.13h0l.25,0h0l.43.08h0l.5,0h.56a5.63,5.63,0,0,0,1.09-.17l.15,0h0l.15-.06A5.32,5.32,0,0,0,74.44,178l0,0h0l0,0a5.23,5.23,0,0,0,.92-1.11l0,0h0l0,0a4.62,4.62,0,0,0,.33-.67,5.27,5.27,0,0,0-1.13-5.73H82a8.35,8.35,0,0,0,.15,1v0h0v.05A9.88,9.88,0,0,0,84.37,176l.15.2h0l.24.23.36.35.18.17h0l.11.09a10.45,10.45,0,0,0,1.51,1.05l.15.09h0l.16.08a10.17,10.17,0,0,0,1.78.71l.08,0h0l.17,0c.21.06.43.11.65.15l.23.06h0l1,.12h1.08l.39-.05.19,0,.51,0h0l.23-.06c.22,0,.44-.09.65-.15l.17,0h0l.08,0a9.77,9.77,0,0,0,1.77-.71l.17-.08h0l.14-.09A9.4,9.4,0,0,0,98.1,177l.11-.08.11-.11a9.77,9.77,0,0,0,3.22-6.48h3.89l0,.15c0,.29.07.58.12.86v0h0v.05a9.71,9.71,0,0,0,1.58,3.68l.12.21h0l.29.35.1.13.3.36h0l.24.23c.12.12.24.24.37.35l.17.17h0l.17.14,0,0,.36.28.28.22h0l.3.19.38.23.21.13,0,0h0l.17.08a9.77,9.77,0,0,0,1.77.71l.08,0h0l.17,0c.21.06.43.11.65.15l.23.06h0l1,.12h1.09l.38-.05.2,0,.5,0h0l.23-.06c.22,0,.44-.09.65-.15l.17,0h0l.08,0a10.17,10.17,0,0,0,1.78-.71l.16-.08h0l.14-.09a9.82,9.82,0,0,0,5-7.73h3.88l0,.15a8.1,8.1,0,0,0,.13.86v0h0l0,.05a9.77,9.77,0,0,0,.51,1.72l.1.3h0l.13.23,0,.05a8.61,8.61,0,0,0,.81,1.38l.13.21h0l.29.36.1.11.3.37h0l.24.23c.12.12.24.24.37.35l.17.17h0l.17.14,0,0,.36.28.28.22h0l.3.19.37.22.19.12.08,0h0l.09,0,.1.05.59.27.18.08h0l.17.06.53.19.32.12h0l1,.24h0l1.09.12h1.08l.39-.05.18,0,.51,0h0l.23-.06c.22,0,.44-.09.65-.15l.17,0h0l.08,0a9.83,9.83,0,0,0,7.05-8.61h7.64c-.14.15-.28.3-.4.45l-.11.12h0l-.18.28s0,0,0,.08l-.2.31h0l-.3.69h0l-.06.22c0,.09-.06.19-.08.28l-.07.25,0,.2c0,.15,0,.3-.06.46v.9h0l0,.22.11.54h0l0,.13c0,.13.08.27.13.4l.07.22h0l.33.69h0l.45.63h0l.54.57h0l.12.09.48.36h0l.08.05q.28.18.57.33l0,0h0l0,0,.37.15.3.13h0l.29,0h0l.43.08h0a3.13,3.13,0,0,0,.44,0l.11,0h.44a4.46,4.46,0,0,0,1.16-.18l.14,0h0l.14-.06a5.28,5.28,0,0,0,2.09-8.73h12.08v-4.27Z"/><path class="cls-3" d="m67.56 148.05v0.66l0.09 1.35 0.21 1.32 0.3 1.3 0.42 1.29 0.51 1.23 0.61 1.21 0.69 1.14h70.38v-19.04h-3.55l-1.68-2.2h-28.06l-1.69 2.2h-17.51l1.87-8v-4.24h-9.87v4.24l1.87 8h-11.76l-0.69 1.14-0.61 1.21-0.51 1.26-0.42 1.26-0.3 1.3-0.21 1.32-0.09 1.35v0.67z"/></g></g></svg>