<svg viewBox="0 0 1186.3 637.83" xmlns="http://www.w3.org/2000/svg"><defs><style>.cls-1{fill:#fff;}.cls-2{fill:#ef2028;}.cls-3{fill:#1d1d1b;}</style></defs><g data-name="Layer 2"><g data-name="Layer 1"><polygon class="cls-1" points="23.89 119.43 2.73 36.77 78.37 2.64 593.2 247.76 1106.9 2.65 1183.6 36.77 1163.4 121.12 744.33 318.26 1157.6 516.66 1183.6 601.06 1106.9 635.18 592.61 390.21 78.37 635.19 2.73 601.06 23.89 518.4 441.31 320.11"/><polygon class="cls-1" points="72.17 113.39 103.93 48.77 593.14 270.02 1087.5 38.5 1113.8 123.88 692.12 317.47 1118.2 519.44 1084.2 602.11 591.82 367.51 95.17 599.33 72.17 519.44 482.92 318.92"/><path class="cls-2" d="m1172.1 594.59-4.16-16.19-12.6-49.25-0.53-2.26-0.28-1.21-434.36-206.82 434.36-206.86 0.52-2.17 0.29-1.18 12.6-49.26 4.16-16.18-64.63-29.83-62.44 29.86-34 16.18-110.62 52.58-307.18 146.39-307.29-146.39-110.64-52.58-34-16.18-62.42-29.83-64.63 29.83 4.16 16.18 12.62 49.26 0.27 0.94 0.66 2.41 434.22 206.83-434.24 206.82-0.33 1.25-0.6 2.22-12.6 49.25-4.16 16.19 64.63 29.71 62.43-29.71 34-16.19 103.59-49.25 314.33-149.71 314.23 149.71 103.57 49.25 34 16.19 62.43 29.71zm-515.4-215.15-63.47-30.29-63.58 30.29-314.35 149.71-103.47 49.25-23.47-49.25 7-3.46 434.29-206.83-434.24-206.86-6.23-3-0.82-0.39 23.47-49.19 110.64 52.58 307.18 146.39 63.58 30.29 63.47-30.29 307.33-146.39 110.52-52.61 23.48 49.29-7 3.35-434.33 206.83 434.24 206.83 7 3.46-23.47 49.25-103.44-49.25z"/><path class="cls-3" d="m745.58 320.24a1.39 1.39 0 0 1-0.6-2.64l418.17-199.08a1.39 1.39 0 1 1 1.19 2.51l-418.17 199.08a1.37 1.37 0 0 1-0.59 0.13z"/><path class="cls-3" d="M440.71,320.24a1.44,1.44,0,0,1-.6-.13L22,121a1.39,1.39,0,0,1,1.19-2.51L441.31,317.6a1.39,1.39,0,0,1,.65,1.85A1.37,1.37,0,0,1,440.71,320.24Z"/><path class="cls-3" d="M1163.75,519.44a1.41,1.41,0,0,1-.6-.13L745,320.11a1.39,1.39,0,0,1,1.19-2.51l418.17,199.2a1.39,1.39,0,0,1-.59,2.64Z"/><path class="cls-3" d="m1107.4 637.83a1.46 1.46 0 0 1-0.6-0.14l-514.23-245a1.39 1.39 0 1 1 1.19-2.51l514.24 245a1.39 1.39 0 0 1 0.65 1.85 1.37 1.37 0 0 1-1.25 0.8z"/><path class="cls-3" d="M79,637.83a1.36,1.36,0,0,1-.58-.13L.81,602A1.39,1.39,0,0,1,2,599.46l77.57,35.72a1.39,1.39,0,0,1-.58,2.65Z"/><path class="cls-3" d="m22.55 519.44a1.39 1.39 0 0 1-0.6-2.64l418.16-199.2a1.39 1.39 0 0 1 1.2 2.51l-418.17 199.2a1.37 1.37 0 0 1-0.59 0.13z"/><path class="cls-3" d="M1.39,602.11a1.41,1.41,0,0,1-.35-.05,1.38,1.38,0,0,1-1-1.68L21.2,517.71a1.39,1.39,0,0,1,2.69.69L2.73,601.06A1.39,1.39,0,0,1,1.39,602.11Z"/><path class="cls-3" d="m79 637.83a1.39 1.39 0 0 1-0.59-2.64l514.24-245a1.39 1.39 0 1 1 1.19 2.51l-514.24 245a1.42 1.42 0 0 1-0.6 0.13z"/><path class="cls-3" d="m1107.4 637.83a1.39 1.39 0 0 1-0.58-2.65l77.46-35.72a1.39 1.39 0 1 1 1.16 2.52l-77.48 35.72a1.33 1.33 0 0 1-0.56 0.13z"/><path class="cls-3" d="m1184.9 602.11a1.39 1.39 0 0 1-1.34-1.05l-21.16-82.66a1.39 1.39 0 1 1 2.69-0.69l21.16 82.67a1.38 1.38 0 0 1-1 1.68 1.41 1.41 0 0 1-0.35 0.05z"/><path class="cls-3" d="M593.21,247.76A1.41,1.41,0,0,1,592,247a1.38,1.38,0,0,1,.66-1.85L1106.84.13a1.39,1.39,0,0,1,1.2,2.51l-514.24,245A1.38,1.38,0,0,1,593.21,247.76Z"/><path class="cls-3" d="M1.39,38.5a1.39,1.39,0,0,1-.58-2.65L78.38.13a1.39,1.39,0,0,1,1.16,2.52L2,38.37A1.36,1.36,0,0,1,1.39,38.5Z"/><path class="cls-3" d="M22.54,121.16a1.38,1.38,0,0,1-1.34-1L0,37.46a1.39,1.39,0,0,1,2.69-.69l21.16,82.66a1.38,1.38,0,0,1-1.35,1.73Z"/><path class="cls-3" d="M593.2,247.76a1.38,1.38,0,0,1-.59-.14L78.37,2.64A1.38,1.38,0,0,1,77.71.79,1.4,1.4,0,0,1,79.56.13l514.24,245a1.39,1.39,0,0,1,.66,1.85A1.41,1.41,0,0,1,593.2,247.76Z"/><path class="cls-3" d="M1184.9,38.5a1.36,1.36,0,0,1-.58-.13L1106.86,2.65a1.4,1.4,0,0,1-.68-1.84A1.38,1.38,0,0,1,1108,.13l77.46,35.72a1.39,1.39,0,0,1-.58,2.65Z"/><path class="cls-3" d="m1163.8 121.16a1.38 1.38 0 0 1-1.35-1.73l21.16-82.66a1.39 1.39 0 0 1 2.69 0.69l-21.16 82.66a1.38 1.38 0 0 1-1.34 1.04z"/></g></g></svg>