<svg viewBox="0 0 1186.3 834.3" xmlns="http://www.w3.org/2000/svg"><defs><style>.cls-1{fill:#fff;}.cls-2{fill:#ef2028;}.cls-3{fill:#1d1d1b;}</style></defs><g data-name="Layer 2"><g data-name="Layer 1"><polygon class="cls-1" points="23.89 119.43 2.73 36.77 78.37 2.64 593.2 247.76 1106.9 2.65 1183.6 36.77 1163.4 121.12 744.33 318.26 1157.6 516.66 1183.6 601.06 1106.9 635.18 592.61 390.21 78.37 635.19 2.73 601.06 23.89 518.4 441.31 320.11"/><polygon class="cls-1" points="72.17 113.39 103.93 48.77 593.14 270.02 1087.5 38.5 1113.8 123.88 692.12 317.47 1118.2 519.44 1084.2 602.11 591.82 367.51 95.17 599.33 72.17 519.44 482.92 318.92"/><path class="cls-2" d="m1172.1 594.59-4.16-16.19-12.6-49.25-0.53-2.26-0.28-1.21-434.36-206.82 434.36-206.86 0.52-2.17 0.29-1.18 12.6-49.26 4.16-16.18-64.63-29.83-62.44 29.86-34 16.18-110.62 52.58-307.18 146.39-307.29-146.39-110.64-52.58-34-16.18-62.42-29.83-64.63 29.83 4.16 16.18 12.62 49.26 0.27 0.94 0.66 2.41 434.22 206.83-434.24 206.82-0.33 1.25-0.6 2.22-12.6 49.25-4.16 16.19 64.63 29.71 62.43-29.71 34-16.19 103.59-49.25 314.33-149.71 314.23 149.71 103.57 49.25 34 16.19 62.43 29.71zm-515.4-215.15-63.47-30.29-63.58 30.29-314.35 149.71-103.47 49.25-23.47-49.25 7-3.46 434.29-206.83-434.24-206.86-6.23-3-0.82-0.39 23.47-49.19 110.64 52.58 307.18 146.39 63.58 30.29 63.47-30.29 307.33-146.39 110.52-52.61 23.48 49.29-7 3.35-434.33 206.83 434.24 206.83 7 3.46-23.47 49.25-103.44-49.25z"/><path class="cls-3" d="m745.58 320.24a1.39 1.39 0 0 1-0.6-2.64l418.17-199.08a1.39 1.39 0 1 1 1.19 2.51l-418.17 199.08a1.37 1.37 0 0 1-0.59 0.13z"/><path class="cls-3" d="M440.71,320.24a1.44,1.44,0,0,1-.6-.13L22,121a1.39,1.39,0,0,1,1.19-2.51L441.31,317.6a1.39,1.39,0,0,1,.65,1.85A1.37,1.37,0,0,1,440.71,320.24Z"/><path class="cls-3" d="M1163.75,519.44a1.41,1.41,0,0,1-.6-.13L745,320.11a1.39,1.39,0,0,1,1.19-2.51l418.17,199.2a1.39,1.39,0,0,1-.59,2.64Z"/><path class="cls-3" d="m1107.4 637.83a1.46 1.46 0 0 1-0.6-0.14l-514.23-245a1.39 1.39 0 1 1 1.19-2.51l514.24 245a1.39 1.39 0 0 1 0.65 1.85 1.37 1.37 0 0 1-1.25 0.8z"/><path class="cls-3" d="M79,637.83a1.36,1.36,0,0,1-.58-.13L.81,602A1.39,1.39,0,0,1,2,599.46l77.57,35.72a1.39,1.39,0,0,1-.58,2.65Z"/><path class="cls-3" d="m22.55 519.44a1.39 1.39 0 0 1-0.6-2.64l418.16-199.2a1.39 1.39 0 0 1 1.2 2.51l-418.17 199.2a1.37 1.37 0 0 1-0.59 0.13z"/><path class="cls-3" d="M1.39,602.11a1.41,1.41,0,0,1-.35-.05,1.38,1.38,0,0,1-1-1.68L21.2,517.71a1.39,1.39,0,0,1,2.69.69L2.73,601.06A1.39,1.39,0,0,1,1.39,602.11Z"/><path class="cls-3" d="m79 637.83a1.39 1.39 0 0 1-0.59-2.64l514.24-245a1.39 1.39 0 1 1 1.19 2.51l-514.24 245a1.42 1.42 0 0 1-0.6 0.13z"/><path class="cls-3" d="m1107.4 637.83a1.39 1.39 0 0 1-0.58-2.65l77.46-35.72a1.39 1.39 0 1 1 1.16 2.52l-77.48 35.72a1.33 1.33 0 0 1-0.56 0.13z"/><path class="cls-3" d="m1184.9 602.11a1.39 1.39 0 0 1-1.34-1.05l-21.16-82.66a1.39 1.39 0 1 1 2.69-0.69l21.16 82.67a1.38 1.38 0 0 1-1 1.68 1.41 1.41 0 0 1-0.35 0.05z"/><path class="cls-3" d="M593.21,247.76A1.41,1.41,0,0,1,592,247a1.38,1.38,0,0,1,.66-1.85L1106.84.13a1.39,1.39,0,0,1,1.2,2.51l-514.24,245A1.38,1.38,0,0,1,593.21,247.76Z"/><path class="cls-3" d="M1.39,38.5a1.39,1.39,0,0,1-.58-2.65L78.38.13a1.39,1.39,0,0,1,1.16,2.52L2,38.37A1.36,1.36,0,0,1,1.39,38.5Z"/><path class="cls-3" d="M22.54,121.16a1.38,1.38,0,0,1-1.34-1L0,37.46a1.39,1.39,0,0,1,2.69-.69l21.16,82.66a1.38,1.38,0,0,1-1.35,1.73Z"/><path class="cls-3" d="M593.2,247.76a1.38,1.38,0,0,1-.59-.14L78.37,2.64A1.38,1.38,0,0,1,77.71.79,1.4,1.4,0,0,1,79.56.13l514.24,245a1.39,1.39,0,0,1,.66,1.85A1.41,1.41,0,0,1,593.2,247.76Z"/><path class="cls-3" d="M1184.9,38.5a1.36,1.36,0,0,1-.58-.13L1106.86,2.65a1.4,1.4,0,0,1-.68-1.84A1.38,1.38,0,0,1,1108,.13l77.46,35.72a1.39,1.39,0,0,1-.58,2.65Z"/><path class="cls-3" d="m1163.8 121.16a1.38 1.38 0 0 1-1.35-1.73l21.16-82.66a1.39 1.39 0 0 1 2.69 0.69l-21.16 82.66a1.38 1.38 0 0 1-1.34 1.04z"/><polygon class="cls-1" points="2.01 795.92 23.93 714.87 593.8 444 1162.4 714.87 1183.5 797.53 1106.8 831.64 592.61 586.69 79.58 831.64"/><polygon class="cls-1" points="110.26 784.72 72.17 721.41 593.2 470.03 1118.2 720.32 1074.5 795.8 595.19 559.39"/><polygon class="cls-2" points="593.2 454.88 529.62 485.17 656.67 485.17"/><polygon class="cls-2" points="656.67 575.92 656.67 575.92 642.68 569.22 593.2 545.63 543.61 569.22 529.62 575.92 529.62 575.92 215.3 725.51 278.88 725.51 593.2 575.92 593.2 575.92 1011 774.87 1074.5 774.87"/><polygon class="cls-2" points="529.62 485.17 31.95 722.16 31.95 722.16 31.51 723.77 31.03 725.51 18.43 774.87 18.43 774.87 14.26 791.06 14.27 791.06 78.89 820.77 141.31 791.06 141.31 791.06 175.3 774.88 175.3 774.88 278.88 725.51 215.3 725.51 111.83 774.87 111.83 774.87 88.37 725.51 95.42 722.16 95.42 722.16 593.2 485.17 593.2 485.17"/><polygon class="cls-2" points="1167.9 774.87 1167.9 774.87 1155.3 725.51 1155.3 725.51 1154.8 723.39 1154.5 722.16 1154.4 722.16 656.67 485.17 593.2 485.17 593.2 485.17 1090.9 722.16 1090.9 722.16 1097.9 725.51 1097.9 725.51 1074.5 774.87 1011 774.87 1045 791.06 1107.4 820.77 1172 791.06"/><path class="cls-3" d="m1107.4 834.3a1.42 1.42 0 0 1-0.6-0.14l-514.2-245a1.39 1.39 0 0 1 1.19-2.51l514.2 245a1.39 1.39 0 0 1 0.66 1.85 1.41 1.41 0 0 1-1.25 0.8z"/><path class="cls-3" d="M1163.7,715.92a1.46,1.46,0,0,1-.6-.14L592.61,444a1.38,1.38,0,1,1,1.19-2.5l570.5,271.78a1.4,1.4,0,0,1,.66,1.85A1.41,1.41,0,0,1,1163.7,715.92Z"/><path class="cls-3" d="M79,834.29a1.39,1.39,0,0,1-.6-2.64l514.2-245a1.39,1.39,0,0,1,1.19,2.51l-514.2,245A1.4,1.4,0,0,1,79,834.29Z"/><path class="cls-3" d="M22.59,715.92a1.39,1.39,0,0,1-.6-2.64L592.61,441.5a1.38,1.38,0,1,1,1.19,2.5L23.18,715.78A1.38,1.38,0,0,1,22.59,715.92Z"/><path class="cls-3" d="m1107.4 834.29a1.39 1.39 0 0 1-0.58-2.65l77.45-35.72a1.39 1.39 0 0 1 1.16 2.53l-77.44 35.72a1.51 1.51 0 0 1-0.59 0.12z"/><path class="cls-3" d="M1.43,798.57a1.32,1.32,0,0,1-.34,0,1.39,1.39,0,0,1-1-1.69l21.15-82.65a1.39,1.39,0,0,1,2.69.68L2.78,797.53A1.39,1.39,0,0,1,1.43,798.57Z"/><path class="cls-3" d="M79,834.29a1.51,1.51,0,0,1-.58-.12L.85,798.45A1.39,1.39,0,0,1,2,795.92l77.57,35.72a1.39,1.39,0,0,1-.58,2.65Z"/><path class="cls-3" d="m1184.9 798.57a1.37 1.37 0 0 1-1.34-1l-21.16-82.66a1.39 1.39 0 0 1 2.69-0.68l21.15 82.65a1.38 1.38 0 0 1-1 1.69 1.32 1.32 0 0 1-0.34 0z"/></g></g></svg>