<svg enable-background="new 0 0 440 600" version="1.1" viewBox="0 0 440 600" xmlns="http://www.w3.org/2000/svg"><style type="text/css">.st0{fill:#FFFFFF;stroke:#000000;stroke-width:3;}</style><g transform="translate(1483.3 -986.53)"><g transform="translate(-108.37 1759.9)"><rect class="st0" x="-1362.9" y="-757.1" width="161.3" height="569.7"/><rect class="st0" x="-1106.9" y="-757.1" width="161.3" height="569.7"/><path d="m578.7 298.2v13.6 13.6-13.6-13.6z"/><path d="m-1717-395.3z"/><path d="m-1720-395.3z"/><path d="m-2402.7-1137.9z"/><path d="m-2405.6-1137.9z"/><path d="m-1707.5-211.3z"/><path d="m-1710.5-211.3z"/><path d="m-1202.6-646.1v97l-159.9-114.9v-94.2l159.9 112.1z"/><path d="m-1202.6-369.2-159.9-114.8v-94.2l159.9 112.1v96.9z"/><path d="m-1202.6-187.2-159.9-114.8v-94.2l159.9 112.1v96.9z"/><path d="m-1106.5-646.1v97l159.9-114.9v-94.2l-159.9 112.1z"/><path d="m-1106.5-369.2 159.9-114.8v-94.2l-159.9 112.1v96.9z"/><path d="m-1106.5-187.2 159.9-114.8v-94.2l-159.9 112.1v96.9z"/></g></g></svg>