<svg width="1380" height="240" version="1.1" xmlns="http://www.w3.org/2000/svg"><g transform="translate(2722.8 -669.62)"><g transform="translate(-108.37 1759.9)"><g><rect x="578.74" y="298.17" width="0" height="27.202" rx="249.48" ry="27.202" color="#000000"/><path d="m-1717-395.33z"/><path d="m-1720-395.27"/><path d="m-1707.5-211.32z"/><path d="m-1710.5-211.26"/><path d="m-2402.7-1137.9z"/><path d="m-2405.6-1137.9"/></g><g transform="translate(14,-8)"><g fill-rule="evenodd"><path d="m-2344.4-961.83c-0.01-61.312 0.1186-111.81 0.2737-112.21 0.2554-0.6658 4.4722-0.7345 45.071-0.7345h44.789v112.21 112.21h-45.063-45.063l-0.01-111.48h-2e-4z"/><path d="m-2434.4-961.83c-0.01-61.312 0.1186-111.81 0.2737-112.21 0.2554-0.6658 4.4722-0.7345 45.071-0.7345h44.789v112.21 112.21h-45.063-45.063l-0.01-111.48h-2e-4z" fill="#ff0"/><path d="m-2524.4-961.83c-0.01-61.312 0.1186-111.81 0.2737-112.21 0.2554-0.6658 4.4722-0.7345 45.071-0.7345h44.789v112.21 112.21h-45.063-45.063l-0.01-111.48h-2e-4z"/><path d="m-2614.4-961.83c-0.01-61.312 0.1186-111.81 0.2737-112.21 0.2554-0.6658 4.4722-0.7345 45.071-0.7345h44.789v112.21 112.21h-45.063-45.063l-0.01-111.48h-2e-4z" fill="#ff0"/><path d="m-2254.4-961.83c-0.01-61.312 0.1186-111.81 0.2737-112.21 0.2554-0.6658 4.4722-0.7345 45.071-0.7345h44.789v112.21 112.21h-45.063-45.063l-0.01-111.48h-2e-4z" fill="#ff0"/><path d="m-2164.4-961.83c-0.01-61.312 0.1186-111.81 0.2737-112.21 0.2554-0.6658 4.4722-0.7345 45.071-0.7345h44.789v112.21 112.21h-45.063-45.063l-0.01-111.48h-2e-4z"/><path d="m-2074.4-961.83c-0.01-61.312 0.1186-111.81 0.2737-112.21 0.2554-0.6658 4.4722-0.7345 45.071-0.7345h44.789v112.21 112.21h-45.063-45.063l-0.01-111.48h-2e-4z" fill="#ff0" stroke="#000" stroke-width=".1"/><path d="m-1984.4-961.83c-0.01-61.312 0.1186-111.81 0.2737-112.21 0.2554-0.6658 4.4722-0.7345 45.071-0.7345h44.789v112.21 112.21h-45.063-45.063l-0.01-111.48h-2e-4z" stroke="#000" stroke-width=".1"/><path d="m-1624.4-961.83c-0.01-61.312 0.1186-111.81 0.2737-112.21 0.2554-0.6658 4.4722-0.7345 45.071-0.7345h44.789v112.21 112.21h-45.063-45.063l-0.01-111.48h-2e-4z"/><path d="m-1714.4-961.83c-0.01-61.312 0.1186-111.81 0.2737-112.21 0.2554-0.6658 4.4722-0.7345 45.071-0.7345h44.789v112.21 112.21h-45.063-45.063l-0.01-111.48h-2e-4z" fill="#ff0"/><path d="m-1804.4-961.83c-0.01-61.312 0.1186-111.81 0.2737-112.21 0.2554-0.6658 4.4722-0.7345 45.071-0.7345h44.789v112.21 112.21h-45.063-45.063l-0.01-111.48h-2e-4z"/><path d="m-1894.4-961.83c-0.01-61.312 0.1186-111.81 0.2737-112.21 0.2554-0.6658 4.4722-0.7345 45.071-0.7345h44.789v112.21 112.21h-45.063-45.063l-0.01-111.48h-2e-4z" fill="#ff0"/><path d="m-1534.4-961.83c-0.01-61.312 0.1186-111.81 0.2737-112.21 0.2554-0.6658 4.4722-0.7345 45.071-0.7345h44.789v112.21 112.21h-45.063-45.063l-0.01-111.48h-2e-4z" fill="#ff0"/><path d="m-1444.4-961.83c-0.01-61.312 0.1186-111.81 0.2737-112.21 0.2554-0.6658 4.4722-0.7345 45.071-0.7345h44.789v112.21 112.21h-45.063-45.063l-0.01-111.48h-2e-4z"/><path d="m-1354.4-961.83c-0.01-61.312 0.1186-111.81 0.2737-112.21 0.2554-0.6658 4.4722-0.7345 45.071-0.7345h44.789v112.21 112.21h-45.063-45.063l-0.01-111.48h-2e-4z" fill="#ff0" stroke="#000" stroke-width=".1"/></g></g></g></g></svg>