<svg enable-background="new 0 0 380.8 381.5" version="1.1" viewBox="0 0 380.8 381.5" xmlns="http://www.w3.org/2000/svg"><style type="text/css">.st0{fill:none;}.st1{fill:#1F1F1F;}.st2{fill:#FFFFFF;stroke:#000000;stroke-miterlimit:5.9672;}.st3{fill-rule:evenodd;clip-rule:evenodd;fill:#EF2028;}</style><g transform="translate(2758.3 -1114.4)"><g transform="translate(-108.37 1759.9)"><path d="m578.7 298.2v13.6 13.6-13.6-13.6z"/><path d="m-1717-395.3z"/><path d="m-1720-395.3z"/><path d="m-1707.5-211.3z"/><path d="m-1710.5-211.3z"/><g transform="matrix(1.4918 0 0 1.4918 -542.15 -2509.6)"><path class="st0" d="m-1166.8 1249.6h-236.9c-5.1 0-9.2 6-9.2 13.5v228.8c0 7.5 4.1 13.5 9.2 13.5h236.9c5.1 0 9.2-6 9.2-13.5v-228.8c0-7.5-4.1-13.5-9.2-13.5z"/><g transform="translate(-2021.5 -286.01)"><g transform="translate(-98.072 1157.6)"></g></g><path class="st1" d="m-1164.2 1499.4h-242.8v-243.5h242.8v243.5z"/><path class="st2" d="m-1164.2 1499.4h-242.8v-243.5h242.8v243.5z"/><g transform="matrix(-3.8591 0 0 -3.8591 -1166.4 1258.7)"><path class="st3" d="M2.4,0.7h23.7l30.6-31.5L26.1-62.3H2.4l31,31.5"/></g></g></g></g></svg>