<svg enable-background="new 0 0 600 200" version="1.1" viewBox="0 0 600 200" xmlns="http://www.w3.org/2000/svg"><style type="text/css">.st0{fill-rule:evenodd;clip-rule:evenodd;fill:#EF2028;}.st1{fill-rule:evenodd;clip-rule:evenodd;fill:#FFFFFF;}</style><g transform="translate(2850.5 -768.69)"><g transform="translate(-108.37 1759.9)"><path d="m578.7 298.2v13.6 13.6-13.6-13.6z"/><path d="m-1717-395.3z"/><path d="m-1720-395.3z"/><path d="m-1707.5-211.3z"/><path d="m-1710.5-211.3z"/><g transform="matrix(1.4918 0 0 1.4918 -542.15 -2509.6)"><g transform="translate(-2021.5 -286.01)"><g transform="translate(-98.072 1157.6)"></g></g><path class="st0" d="m-1474.8 1017.8v134.1h402.2v-134.1h-402.2z"/><path class="st1" d="m-1340.7 1017.8-67 67 67 67h67l-67-67 67-67h-67zm134.1 0-67 67 67 67h67l-67-67 67-67h-67zm134 0-67 67 67 67v-134z"/><path class="st1" d="m-1474.8 1017.8-67 67 67 67h67l-67-67 67-67h-67zm134.1 0-67 67 67 67h67l-67-67 67-67h-67zm134.1 0-67 67 67 67v-134z"/></g></g></g></svg>