<svg enable-background="new 0 0 300 409" version="1.1" viewBox="0 0 300 409" xmlns="http://www.w3.org/2000/svg"><style type="text/css">.st0{fill:#EF2028;}.st1{fill:#FFFFFF;}</style><path class="st0" d="M8,11.1h110v388.3H8V11.1z"/><path class="st1" d="M8.7,10.4v92.6l109,78.3V86.8L8.7,10.4z"/><path class="st1" d="M8.7,229.6v92.6l109,78.3V306L8.7,229.6z"/><path d="M7,399.4V11.1c0-0.5,0.5-1,1-1h110c0.5,0,1,0.5,1,1v388.3c0,0.5-0.5,1-1,1H8C7.5,400.5,7,400,7,399.4z M117,12.1H9v386.3   H117V12.1z"/><path class="st0" d="M182.8,11.1h110v388.3h-110V11.1z"/><path class="st1" d="M183,181.2l109-78.3V10.4L183,86.8V181.2z"/><path class="st1" d="M183,400.5l109-78.3v-92.6L183,306V400.5z"/><path d="m292.7 400.5h-110c-0.5 0-1-0.5-1-1v-388.4c0-0.5 0.5-1 1-1h110c0.5 0 1 0.5 1 1v388.3c0.1 0.6-0.4 1.1-1 1.1zm-108.9-2.1h107.9v-386.3h-107.9v386.3z"/></svg>