<svg width="250" height="171" fill-rule="evenodd" version="1.1" viewBox="0 0 250 171" xmlns="http://www.w3.org/2000/svg"><g fill-rule="evenodd"><path transform="translate(139,16)" d="m0 0 7 6 101 101v32l-7-6-101-101z" fill="#FCE917"/><path transform="translate(140,3)" d="m0 0h21l7 8 79 79v33l-7-6-101-101v-12z" fill="#040400"/><path transform="translate(89,3)" d="m0 0h21l1 1v12l-107 107h-1v-33l85-85z" fill="#040400"/><path transform="translate(110,17)" d="m0 0h1v31l-107 107h-1v-31z" fill="#FCE917"/><path transform="translate(139,48)" d="m0 0 7 6 101 101v12h-22l-86-86z" fill="#040400"/><path transform="translate(110,49)" d="m0 0h1v32l-86 86h-22v-11z" fill="#040400"/><path transform="translate(161,4)" d="m0 0h32l54 54v32l-7-6-79-79z" fill="#FCEA17"/><path transform="translate(57,4)" d="m0 0h32l-6 7-79 79h-1v-32z" fill="#FCEA17"/><path transform="translate(139,81)" d="m0 0 7 6 79 79v1h-32l-52-52v-2h-2z" fill="#FBE817"/><path transform="translate(110,82)" d="m0 0h1v31h-2l-2 4-50 50h-31l6-7z" fill="#FBE817"/><path transform="translate(193,3)" d="m0 0h32l22 22v33l-7-6-47-47z" fill="#070600"/><path transform="translate(25,3)" d="m0 0h32l-2 4-51 51h-1v-33z" fill="#070600"/><path transform="translate(139,113)" d="m0 0h2l7 8 45 45v1h-33l-7-8-12-12-2-1z" fill="#040400"/><path transform="translate(109,113)" d="m0 0h2v33l-8 7-12 12-1 2h-33l6-7 45-45z" fill="#040400"/><path transform="translate(139,146)" d="m0 0 4 2 17 17v2h-21z" fill="#F6E417"/><path transform="translate(109,146)" d="m0 0h2v21h-21l2-4z" fill="#F6E417"/><path transform="translate(226,4)" d="m0 0h21v21l-7-6-14-14z" fill="#FBE817"/><path transform="translate(3,4)" d="m0 0h21l-6 7-14 14h-1z" fill="#FCE917"/><path transform="translate(110,48)" d="m0 0" fill="#040400"/><path transform="translate(110,16)" d="m0 0" fill="#FCE917"/><path transform="translate(110,81)" d="m0 0" fill="#FBE817"/></g></svg>