<svg enable-background="new 0 0 220 150" version="1.1" viewBox="0 0 220 150" xmlns="http://www.w3.org/2000/svg" xmlns:ns1="http://www.w3.org/1999/xlink"><style type="text/css">.st0{fill:#FEEB18;}.st1{clip-path:url(#h);}.st2{clip-path:url(#f);}.st3{clip-path:url(#d);}.st4{clip-path:url(#b);}.st5{clip-path:url(#p);}.st6{clip-path:url(#n);}.st7{clip-path:url(#l);}.st8{clip-path:url(#j);}</style><path class="st0" d="M2.8,3.4h94.5v143.2H2.8V3.4z"/><defs><rect id="i" x="2.8" y="3.4" width="48.2" height="48.6"/></defs><clipPath id="h"><use xlink:href="#i"/></clipPath><g class="st1"><path d="M2.8,51.3V22.4l18.9-19h28.7L2.8,51.3z"/></g><defs><rect id="g" x="49" y="98" width="48.3" height="48.6"/></defs><clipPath id="f"><use xlink:href="#g"/></clipPath><g class="st2"><path d="m97.3 99v28.8l-18.7 18.8h-28.7l47.4-47.6z"/></g><defs><rect id="e" x="2.8" y="3.4" width="94.5" height="105.6"/></defs><clipPath id="d"><use xlink:href="#e"/></clipPath><g class="st3"><path d="M97.3,13.7L2.8,108.6V79.8l76-76.4h18.4"/></g><defs><rect id="c" x="2.8" y="42" width="94.5" height="104.6"/></defs><clipPath id="b"><use xlink:href="#c"/></clipPath><g class="st4"><path d="M21.9,146.6l-19.2-0.1v-9.5l94.5-94.9V71L21.9,146.6z"/></g><path class="st0" d="M217.2,146.6h-94.5V3.4h94.5V146.6z"/><defs><rect id="a" x="169" y="3.4" width="48.2" height="48.6"/></defs><clipPath id="p"><use xlink:href="#a"/></clipPath><g class="st5"><path d="m217.2 51.3v-28.9l-18.9-19h-28.7l47.6 47.9z"/></g><defs><rect id="o" x="122.7" y="98" width="48.3" height="48.6"/></defs><clipPath id="n"><use xlink:href="#o"/></clipPath><g class="st6"><path d="m122.7 99v28.8l18.7 18.8h28.7l-47.4-47.6z"/></g><defs><rect id="m" x="122.7" y="3.4" width="94.5" height="105.6"/></defs><clipPath id="l"><use xlink:href="#m"/></clipPath><g class="st7"><path d="M122.7,13.7l94.5,94.9V79.8l-76-76.4h-18.4"/></g><defs><rect id="k" x="122.7" y="42" width="94.5" height="104.6"/></defs><clipPath id="j"><use xlink:href="#k"/></clipPath><g class="st8"><path d="m198.1 146.6 19.1-0.1v-9.5l-94.5-94.9v28.9l75.4 75.6z"/></g></svg>