<svg enable-background="new 0 0 450 394.7" version="1.1" viewBox="0 0 450 394.7" xmlns="http://www.w3.org/2000/svg"><style type="text/css">.st0{fill:#FFFFFF;stroke:#000000;stroke-width:0.75;stroke-linecap:round;stroke-linejoin:round;stroke-miterlimit:5.6693;}.st1{fill:#EE252C;}</style><g transform="translate(69.605 -52.017)"><path class="st0" d="m374.3 411.3c1.8 3 3.3 5.5 4.3 7.9 0.9 2.3 1.4 4.6 1.4 6.9 0 3.3-0.7 7-2.5 10-2.7 4.7-6.9 8-11.8 9.5-2.9 0.9-6.1 0.8-9.1 0.8h-404.2c-1.7 0-3 0-4.5-0.2-6.1-1-11.2-4-14.9-10.4-2-3.5-2.4-7.8-2.2-11 0.2-3.8 1.5-6.5 3.7-10.3l202.6-350.6c3.8-7 10.2-11.4 18.2-11.5 9.2 0.2 15.5 5.6 18.7 12.4l200.3 346.5z"/><path class="st1" d="m-47.8 441.7c-6.9 0-11.8-2.4-14.8-7.6-3-5.1-2.3-11.3 0.3-15.9l204.5-353.5c2.6-4.5 8-7.5 13.9-7.5 6.1 0 10.2 3.4 13.2 8.5l203.9 352.8c3.1 5 2.9 10.9 0 16s-8.7 7.3-13.9 7.3l-407.1-0.1zm34.3-35.9 337.6-0.1-168.8-292.2-168.8 292.3z"/></g><polygon points="77.1 340.4 141.5 229.7 375.7 340.4"/><g transform="matrix(.86788 .49678 -.49678 .86788 0 0)"><path d="m272.4 95.1c3.2-0.3 5.7 0.6 7.7 2.6 2 3.4 2.7 6.8 2.4 10.3-0.2 3.6-1.7 6-4.7 7.3-6.3 1.8-10.3-0.5-11.7-6.9-1.6-7.1 0.5-11.6 6.3-13.3zm0.6 3.8c-2.7 1.2-3.7 3.7-3 7.4 0.3 2.3 1.1 4.1 2.5 5.4 4.2 1 6.1-0.8 5.7-5.1 0.3-5-1.4-7.6-5.1-7.7h-0.1 0.1-0.1zm-28.6-23.9c3.2-0.3 5.7 0.6 7.7 2.6 2 3.4 2.7 6.8 2.4 10.3-0.2 3.6-1.7 6-4.7 7.3-6.3 1.8-10.3-0.5-11.7-6.9-1.6-7.1 0.5-11.6 6.3-13.3zm0.6 3.8c-2.7 1.2-3.7 3.7-3 7.4 0.3 2.3 1.1 4.1 2.5 5.4 4.2 1 6.1-0.8 5.7-5.1 0.3-5-1.4-7.6-5.1-7.7h-0.1 0.1-0.1zm21.8-6.1c0.4-0.1 6.1 0 6.1 0l-19.2 45.2h-6.3l19.4-45.2z"/><path d="m300.5 72.3 1.8-0.1 1.3-0.1h0.4l1.7-0.1h0.3l1.2-0.1 3.2 39.1-1.3 0.1h-0.4l-1.8 0.1h-0.4-0.4-0.4l-1.7 0.1h-0.3l-1.2 0.1-0.1-0.7v-0.3-0.3l-0.1-1.3v-0.3-0.5-0.3-0.4-0.3l-0.2-2-0.1-0.8-0.1-1.4v-0.3-0.5-0.3-0.4-0.3l-0.2-2-0.1-1.7v-0.3l-0.1-1.2v-0.4-0.3l-0.2-2v-0.4-0.3l-0.1-1.8-0.1-1.3v-0.4l-0.1-1.7v-0.3l-0.1-1.2-1.7 0.1-1.1 0.1h-0.4l-1.7 0.1h-0.3l-1.2 0.1v-0.4-0.5-0.4-0.5l-0.1-1.3v-0.4l-0.1-1.7v-0.3l-0.1-1.2c2.2-0.1 4.1-0.8 5.6-1.9l0.1-0.2c0.4-0.6 0.6-1.1 0.8-1.5v-0.3l0.1-0.7 0.4-1.9-0.7-0.6z"/><path d="m338.6 68.4c10.8-0.7 17.1 4.9 18.9 17 0.9 6.4 0.1 12.2-2.5 17.3l-0.3 0.2c-0.1 0.1-0.1 0.2-0.2 0.2-0.2 0.3-0.4 0.6-0.5 0.8l-0.2 0.1c-0.4 0.5-0.8 1-1.1 1.3-5.1 3.8-10.4 4.9-16 3.3-5.8-1.9-9.4-5.9-10.8-12-1.8-5.9-1.9-11.5-0.5-16.9 1.9-6.6 6.3-10.4 13.2-11.3zm0.1 7.6c-4.6 1.9-6.5 5.5-5.7 10.8l-0.1 0.3 0.1 0.6c0 0.8 0 1.4 0.1 1.8v0.3l0.1 1.1 0.1 0.2c0.1 0.6 0.2 1.2 0.3 1.6l0.3 1.5-0.1 0.3 0.1 0.3c0.1 0.4 0.2 0.7 0.2 0.8 0.1 0.1 0.1 0.2 0.1 0.3 0.3 0.5 0.5 0.9 0.5 1.3 0.1 0.1 0.1 0.1 0.1 0.2 0.3 0.5 0.5 0.9 0.7 1.3 0.1 0.1 0.2 0.1 0.2 0.2 0.5 0.6 0.9 1.1 1.4 1.4l0.4 0.4 0.2 0.1 0.3 0.2 0.1 0.2c0.6 0.2 1 0.4 1.4 0.6 8.8 0.9 11.7-5.4 8.8-19.1-1.4-5.2-4.7-7.4-9.6-6.7z"/></g></svg>