<svg viewBox="0 0 240.33 210.87" xmlns="http://www.w3.org/2000/svg"><defs><style>.cls-1{fill:#fff;stroke:#000;stroke-linecap:round;stroke-linejoin:round;stroke-width:0.75px;}.cls-2{fill:#ef2028;}.cls-3{fill:#171714;}</style></defs><g data-name="Layer 2"><g data-name="Layer 1"><g data-name="Layer 2-2"><path class="cls-1" d="M236.92,191.77a31.81,31.81,0,0,1,2.29,4.21,9.66,9.66,0,0,1,.74,3.67,10.43,10.43,0,0,1-1.33,5.33,10.76,10.76,0,0,1-6.28,5.06,16.46,16.46,0,0,1-4.85.42H11.9a17.52,17.52,0,0,1-2.4-.1,10.67,10.67,0,0,1-7.93-5.54A11.22,11.22,0,0,1,.4,199a11.43,11.43,0,0,1,2-5.48l108-187A10.77,10.77,0,0,1,130.05,7Z"/><path class="cls-2" d="M11.79,208c-3.67,0-6.33-1.28-7.93-4A8.55,8.55,0,0,1,4,195.45L113.12,6.9a8.6,8.6,0,0,1,7.4-4c3.25,0,5.43,1.81,7,4.53L236.28,195.61a8.21,8.21,0,0,1,0,8.52,8.38,8.38,0,0,1-7.4,3.88Zm18.27-19.17,180.07-.05L120.09,33Z"/></g><path class="cls-3" d="m100.63 134.81-2.91 1.93a5.67 5.67 0 0 0 2.91-1.93z"/><path class="cls-3" d="M136.93,173.41h0a2.72,2.72,0,0,0-4.87-1.67h0a2.88,2.88,0,0,0-.45.87l0,.06h0v.08c0,.12,0,.24-.07.36v.07h0v.24h0v.27l0,.19a.5.5,0,0,0,0,.12l0,.2h0l0,.09,0,.1.06.15.06.14h0l0,0,.06.09.11.16.08.14h0l.13.15.05.06h0l.18.18h0l.21.15h0l.1.07.11.08h0l.27.12h0l.21.09h0l.3.06h0l.18.06.54,0,.15,0h0l.36-.06h0l.21-.06h0l.27-.09h0l.21-.12h0l.13-.08.11-.07h0l.18-.15h0l.12-.1.09-.08h0l.12-.16a2.7,2.7,0,0,0,.63-1.73Z"/><path class="cls-3" d="m154.45 181.92 0.13 0.05 0.19 0.08h0.13 0.12 0.42 0.21 0.06a1.51 1.51 0 0 0 0.67-0.39h0.05v-0.06a1.63 1.63 0 0 0 0.4-1.07 1.61 1.61 0 0 0-2.88-1l-0.09 0.12a1.4 1.4 0 0 0-0.16 0.38 1.57 1.57 0 0 0 0 0.23v0.06 0.29 0.12 0.15l0.06 0.14v0.09l0.05 0.12v0.05l0.05 0.07 0.21 0.21 0.11 0.08 0.12 0.09z"/><path class="cls-3" d="m174.7 180.23a2.72 2.72 0 0 0-5.25-1l-0.09 0.24v0.08a2.25 2.25 0 0 0-0.06 0.36v0.07 0.51 0.19 0.12 0.18l0.09 0.24v0.06l0.08 0.18 0.12 0.19 0.11 0.15v0.06l0.18 0.21 0.18 0.18 0.22 0.15 0.21 0.15 0.24 0.12 0.21 0.09 0.3 0.06h0.12 0.09 0.21 0.3 0.1 0.08l0.29-0.05h0.1 0.11l0.3-0.09 0.18-0.12 0.27-0.15 0.18-0.15 0.21-0.18 0.11-0.16a2.65 2.65 0 0 0 0.64-1.73z"/><path class="cls-3" d="m133.54 177.83a1.61 1.61 0 0 0-1.27 0.63l-0.09 0.12a1.47 1.47 0 0 0-0.1 0.22v0.08a1.06 1.06 0 0 0-0.05 0.23v0.37 0.12 0.15 0.1l0.06 0.12v0.06l0.06 0.12v0.06l0.05 0.07 0.29 0.29 0.24 0.15h0.09 0.06 0.15 0.12 0.42 0.21 0.12l0.15-0.06 0.11-0.07h0.05l0.07-0.07 0.12-0.11 0.05-0.07a1.48 1.48 0 0 0 0.27-0.43 1.5 1.5 0 0 0 0.12-0.6 1.61 1.61 0 0 0-1.3-1.48z"/><path class="cls-3" d="m148.86 184.22a1.61 1.61 0 0 0-3.16-0.44 1.89 1.89 0 0 0 0 0.23v0.37 0.12 0.15 0.13 0.09 0.06l0.05 0.07 0.18 0.24 0.18 0.18 0.27 0.15 0.12 0.06h0.05 0.17 0.5 0.2 0.09l0.15-0.05h0.06l0.24-0.13 0.17-0.17 0.18-0.24 0.05-0.07 0.06-0.15a1.29 1.29 0 0 0 0.08-0.28 2.48 2.48 0 0 0 0-0.27z"/><path class="cls-3" d="m124.29 178.55a2.68 2.68 0 0 0-1.79 0.68 2.72 2.72 0 0 0-0.24 0.24l-0.1 0.09-0.12 0.21v0.06l-0.11 0.18-0.18 0.48v0.06 0.18l-0.06 0.27v0.51l0.06 0.24v0.1 0.17l0.18 0.48 0.15 0.21 0.05 0.09 0.07 0.12 0.21 0.21 0.06 0.07 0.09 0.11 0.24 0.15 0.15 0.12 0.11 0.05 0.16 0.07 0.21 0.09h0.06l0.24 0.05 0.21 0.06h0.45 0.09 0.15l0.33-0.06h0.15 0.06l0.27-0.09 0.13-0.07 0.08-0.05h0.08l0.11-0.08h0.06a2.6 2.6 0 0 0 0.36-0.3 2.75 2.75 0 0 0 0.78-1.91 2.72 2.72 0 0 0-2.75-2.79z"/><path class="cls-3" d="m139.24 181.5a1.07 1.07 0 0 0-0.35-0.06h-0.09a1.54 1.54 0 0 0-0.43 0.06 1.88 1.88 0 0 0-0.3 0.12h-0.08l-0.1 0.06h-0.06a1.45 1.45 0 0 0-0.17 0.18 2.61 2.61 0 0 0-0.17 0.28l-0.06 0.11v0.15a2.23 2.23 0 0 0 0 0.23v0.37 0.15 0.15 0.1l0.05 0.1 0.1 0.17v0.07h0.06l0.11 0.11h0.06l0.1 0.07v0.05h0.08a1.57 1.57 0 0 0 0.3 0.12h0.17 0.1 0.44 0.24a1.61 1.61 0 0 0 0-3.09z"/><path class="cls-3" d="m156 183.06a1.57 1.57 0 0 0-0.9 0.28c0 0.05-0.11 0.09-0.16 0.15v0.05l-0.05 0.07-0.18 0.24-0.06 0.15v0.1 0.05 0.1 0.15 0.3 0.15 0.11 0.06 0.09l0.06 0.12 0.08 0.12v0.06l0.05 0.06 0.09 0.12 0.12 0.09 0.12 0.08 0.12 0.09 0.13 0.06 0.1 0.05 0.18 0.06h0.12 0.39 0.21a1.61 1.61 0 0 0-0.38-3.17z"/><path class="cls-3" d="m163.24 179.3a1.63 1.63 0 0 0-1.28 0.63l-0.09 0.12a1.84 1.84 0 0 0-0.17 0.38 1.89 1.89 0 0 0-0.05 0.23v0.37 0.15 0.15l0.06 0.15a0.41 0.41 0 0 0 0 0.09v0.1l0.09 0.12 0.2 0.2 0.24 0.18 0.15 0.09h0.07 0.07l0.12 0.05h0.11 0.43 0.14 0.07 0.06l0.14-0.05h0.07a1.62 1.62 0 0 0 0.43-0.31l0.05-0.06a1.64 1.64 0 0 0 0.41-1.07 1.62 1.62 0 0 0-1.32-1.52z"/><path class="cls-3" d="m160.92 183.24a1.61 1.61 0 0 0-1.54 1.17 2.23 2.23 0 0 0 0 0.23v0.07 0.29 0.14 0.12 0.07l0.06 0.15 0.06 0.09a0.1 0.1 0 0 0 0 0.05v0.06 0.05l0.12 0.11 0.09 0.12 0.15 0.1 0.09 0.09 0.18 0.06 0.12 0.06h0.18 0.12 0.13 0.17 0.07 0.21 0.12l0.14-0.06 0.12-0.06 0.15-0.09 0.12-0.1 0.12-0.12v-0.06a1.48 1.48 0 0 0 0.27-0.43 1.53 1.53 0 0 0 0.12-0.6 1.61 1.61 0 0 0-1.37-1.51z"/><path class="cls-3" d="m125.88 173.59v-0.31a1.61 1.61 0 0 0-3.16-0.44 1.89 1.89 0 0 0 0 0.23v0.4 0.14 0.09 0.06 0.09l0.06 0.15 0.07 0.09v0.05 0.06l0.12 0.12 0.09 0.12 0.15 0.09 0.12 0.09 0.15 0.06 0.12 0.06h0.18 0.07 0.3 0.09 0.19 0.12l0.15-0.06 0.12-0.06 0.15-0.09 0.12-0.09 0.12-0.12v-0.06a1.52 1.52 0 0 0 0.28-0.43 1.55 1.55 0 0 0 0.39-0.24z"/><path class="cls-3" d="m157.69 150.06a5.72 5.72 0 0 0 1.55 3.13z"/><polygon class="cls-3" points="116.19 125.39 116.2 125.39 116.2 125.39"/><path class="cls-3" d="m160.43 156.16a4.33 4.33 0 0 0-0.45-1.87 4.11 4.11 0 0 0-0.75-1l-0.48-0.53v-0.07l-0.11-0.15-0.22-0.36-0.3-0.63-0.05-0.13-0.19-0.53-0.09-0.42v-0.08-0.19l-1.89-13-0.09-0.66-0.09-0.64-0.09-0.57-0.06-0.24v-0.18a5.66 5.66 0 0 0-2.93-4.17 84.15 84.15 0 0 0-22.81-8.25q-2.81-0.57-5.66-1h-0.2a84.22 84.22 0 0 0-9.13-0.7h-0.06-0.62-0.11-0.12l-0.44 0.08h-0.16l-0.33 0.13-0.44 0.14h-0.06l-0.66 0.3-0.63 0.42-0.54 0.45-0.09 0.09-0.39 0.48-0.19 0.12-0.1 0.12-0.84 1.05-0.46 0.57-0.51 0.67-0.09 0.12-0.11 0.14-0.07 0.1-0.27 0.33-0.33 0.39-0.39 0.51-6.16 7.81-0.48 0.51-0.24 0.21-0.3 0.27-0.6 0.4-0.63 0.33-0.66 0.21h-0.12a3 3 0 0 0-0.45 0.18h-0.06l-0.13 0.08-0.23 0.12-0.26 0.14-0.27 0.21-0.24 0.18-0.11 0.12-0.16 0.18-0.18 0.18-0.27 0.39-0.09 0.15-0.27 0.54-0.18 0.63v0.11l-0.21 0.9-0.18 0.78 0.9 0.24 4.21 1.14 4.57 1.23 0.18 0.06-0.3 1.29-0.33 1.45v0.2l-0.07 0.28-0.15 0.71-3.63-1-0.44-0.12-0.49-0.12-5.32-1.42-0.33 1.42v0.13 0.11l-0.21 1-1.36 5.74-0.06 0.36-0.18 0.72v0.24 0.24l0.06 0.24 0.09 0.24 0.12 0.21 0.18 0.18h0.05l0.16 0.11 0.13 0.08h0.08l0.54 0.21-0.09 0.39-0.66 1.98-0.3 1.17-1.56 5.8 11.51 3.09h-55.31v11.37h71v-11.34h-15.55l0.81-3.09 1.54-5.8 0.66 0.18 10 2.64 27.07 7.16-0.39 1.44-0.1 0.4-0.08 0.29-0.06 0.24v0.05l-0.05 0.16v0.13 0.1l-1.62 6.07 4.33 1.18 7.33 2 0.51-2 0.3-1.18 1.62-6.07 0.48 0.06h0.36a1.37 1.37 0 0 0 0.66-0.19h0.06l0.09-0.07a1.45 1.45 0 0 0 0.22-0.21h0.05a1.53 1.53 0 0 0 0.21-0.4l0.11-0.32 0.13-0.37 0.45-1.44 2.16-7.16-9.88-2.64 0.06-0.18 0.36-1.17 0.51-1.75 0.17-0.5 0.1-0.31 0.31 0.09 0.35 0.09 2.4 0.63 6.52 1.75 0.3 0.09v-0.09l0.54-1.75v-0.14l0.06-0.23 0.06-0.26v-0.11a4.67 4.67 0 0 0 0-0.52zm-7.92-25.5v0.05h-0.06l-0.09-0.05zm-3.08 3.65 0.06 0.05-0.12-0.08zm-36.31-7.81 0.12-0.09 0.39-0.3 0.14-0.08a4.71 4.71 0 0 0-0.91 0.76zm-9.86 21.88m-1.47 20.85zm35.46-16.74-0.05 0.18-0.15 0.55-0.12 0.51-0.16 0.54-0.15 0.6-0.18 0.63-0.18 0.66-0.12 0.45-0.06 0.24-0.15 0.57-0.45 1.75-6.48-1.75-1.41-0.36h-0.09l-0.84-0.21-0.29-0.08h-0.13l-0.42-0.11h-0.16l-0.64-0.17-0.78-0.21-0.84-0.24-0.9-0.24-0.93-0.24-0.68-0.18-0.22-0.06-2.74-0.72-1.35-0.36 1.5-5.74 0.27-1 3.64 1 1.23 0.33 5.14 1.38 0.53 0.14 0.52 0.13 1.56 0.42 2.5 0.66 2.4 0.63 0.17 0.05 1.22 0.35zm-32.89-15h0.1-0.11l0.18-0.21 0.24-0.3 0.18-0.24 0.18-0.21 0.09-0.13 0.15-0.2 0.33-0.39 0.19-0.27 0.17-0.22 0.42-0.51 6.19-7.81 0.15-0.17a1.83 1.83 0 0 0-0.13 0.16 4.09 4.09 0 0 1 3.47-1.61h0.16 0.06a2.8 2.8 0 0 1 0.66 0.17l30.12 7.91a3.59 3.59 0 0 1 0.58 0.09 5.91 5.91 0 0 1 0.81 0.28l0.26 0.07h0.05l0.09 0.07-0.1-0.06v0.06a4.41 4.41 0 0 1 2.38 3.78l1.77 12.34v0.07 0.16a158.79 158.79 0 0 0-48.64-12.83zm48.5 12.79 0.2 0.05z"/></g></g></svg>