<svg viewBox="0 0 240.33 210.87" xmlns="http://www.w3.org/2000/svg"><defs><style>.cls-1{fill:#fff;stroke:#000;stroke-linecap:round;stroke-linejoin:round;stroke-width:0.75px;}.cls-2{fill:#ef2028;}.cls-3{fill:#171714;}</style></defs><g data-name="Layer 2"><g data-name="Layer 1"><g data-name="Layer 2-2"><path class="cls-1" d="M236.92,191.77a31.81,31.81,0,0,1,2.29,4.21,9.66,9.66,0,0,1,.74,3.67,10.43,10.43,0,0,1-1.33,5.33,10.76,10.76,0,0,1-6.28,5.06,16.46,16.46,0,0,1-4.85.42H11.9a17.52,17.52,0,0,1-2.4-.1,10.67,10.67,0,0,1-7.93-5.54A11.22,11.22,0,0,1,.4,199a11.43,11.43,0,0,1,2-5.48l108-187A10.77,10.77,0,0,1,130.05,7Z"/><path class="cls-2" d="M11.79,208c-3.67,0-6.33-1.28-7.93-4A8.55,8.55,0,0,1,4,195.45L113.12,6.9a8.6,8.6,0,0,1,7.4-4c3.25,0,5.43,1.81,7,4.53L236.28,195.61a8.21,8.21,0,0,1,0,8.52,8.38,8.38,0,0,1-7.4,3.88Zm18.27-19.17,180.07-.05L120.09,33Z"/></g><path class="cls-3" d="m151.3 152.11-5.42-3.11 2-0.4 1.46-0.29-0.47-2.45v-0.16l-0.33-1.65-8.41 1.65-2.89-1.7-7.39-4.28a10 10 0 0 0 0-3l10.26-5.95 8.41 1.67 0.33-1.67v-0.12-0.06l0.07-0.36 0.08-0.23 0.35-1.86-3.51-0.68 4.82-2.79 0.6-0.36-3.53-6.1-5.42 3.14 1.14-3.38-1.93-0.68-0.19-0.07-2-0.66-0.24 0.66-0.06 0.21-0.18 0.54-1.16 3.38-1.12 3.36-4.82 2.79-1.2 0.68-3.22 1.82-0.4 0.24-0.61 0.36c-0.2-0.16-0.4-0.31-0.61-0.45l-0.19-0.14-0.15-0.08a10 10 0 0 0-1.64-0.82h-0.05v-11.89l5.63-6.43-0.16-0.16h-0.05l-3.08-2.69-2.34 2.69v-6.25h-7.06v6.25l-2.36-2.69-3.06 2.69-0.23 0.21 5.65 6.43v11.83l-0.2 0.09-0.55 0.25-0.18 0.08-0.84 0.47-0.34 0.25-0.47 0.35-0.62-0.36-0.42-0.23-3.23-1.86-1.2-0.68-4.82-2.79-1.12-3.36-1.05-3.14-0.09-0.24-0.24-0.75v-0.13l-0.19-0.53-0.19 0.07-1.81 0.59-0.57 0.2-1.59 0.55 0.09 0.24 1 3.14-5.42-3.14-3.57 6.14 0.6 0.36 4.85 2.79-3.5 0.68 0.36 1.86v0.24l0.08 0.36v0.14l0.33 1.67 8.4-1.67 10.3 5.95v0.35l-0.07 0.64v1 0.29l0.09 0.69-7.31 4.34-2.91 1.65-8.4-1.65-0.33 1.65v0.06 0.15l-0.12 0.57-0.37 1.88 3.45 0.69-5.45 3.11 3.52 6.11 5.48-3.12-1.14 3.38 2.16 0.72 0.89 0.31 1.11 0.38 0.2-0.58v-0.11l0.24-0.72 1.14-3.38 1-3 0.12-0.33 4.82-2.78 0.7-0.4 0.5-0.29 3.23-1.88 0.67-0.37 0.38-0.2 0.17 0.12 0.64 0.45 0.34 0.2 0.52 0.3 0.93 0.42v11.86l-5.62 6.47 0.23 0.2 3.06 2.7 2.36-2.7v6.26h7.06v-6.26l2.34 2.7 3.08-2.7 0.21-0.2-5.63-6.47v-11.85l0.9-0.42 0.13-0.07 0.48-0.27 0.29-0.16 0.65-0.46 0.15-0.11 4.24 2.45 0.49 0.28 0.71 0.41 4.82 2.78 0.12 0.33 1 3 1.07 3.14 0.09 0.24 0.24 0.72 0.24 0.69 2-0.69 0.9-0.31 1.22-0.41v-0.08-0.16l-1.08-3.14 5.42 3.14 3.53-6.12zm-21.45-15.38z"/></g></g></svg>