<svg width="158.75mm" height="139.25mm" version="1.1" viewBox="0 0 158.75 139.25" xmlns="http://www.w3.org/2000/svg"><g transform="translate(69.605 -52.017)"><path d="m86.996 178.77c0.63664 1.0626 1.1775 1.9366 1.5252 2.7972 0.32816 0.81234 0.48096 1.617 0.4905 2.4187 0.01386 1.1629-0.25761 2.4525-0.87972 3.5287-0.95851 1.6582-2.4435 2.8165-4.1457 3.337-1.0198 0.31178-2.1386 0.28378-3.21 0.28412l-142.59-0.0131c-0.58845 2.5e-4 -1.0668 0.015-1.5969-0.0682-2.1539-0.33802-3.961-1.419-5.2536-3.6519-0.70612-1.2198-0.8632-2.7395-0.7882-3.8811 0.088-1.3392 0.53035-2.2921 1.3019-3.6268l71.483-123.7c1.3285-2.4726 3.5997-4.0235 6.4188-4.0478 3.2287 0.05353 5.4603 1.9857 6.6064 4.3725l70.642 122.25z" fill="#fff" stroke="#000" stroke-linecap="round" stroke-linejoin="round" stroke-miterlimit="2" stroke-width=".26458"/><path d="m-0.75696 118.88c-1.3213 9e-3 -2.5294 0.0528-3.9604 0.18609-2.2201 0.20709-5.0883 0.6453-6.6669 1.0662-1.2707 0.33882-1.8315 1.4238-1.8315 1.4238l-3.5951 8.062s-0.31709 0.46908-0.50389 0.6804c-0.11795 0.13341-0.38664 0.36831-0.38664 0.36831s-0.50751 0.29205-0.6977 0.50786c-0.2239 0.25418-0.48937 0.89073-0.48937 0.89073l-0.07655 1.7068 0.14535 2.0141 0.13374 5.009c3.37e-4 0.56163 0.35223 1.0133 0.91379 1.0128h0.12016l-0.0039 3.4873h0.0039v0.18324c0 0.75858 0.6108 1.3695 1.3692 1.3695h3.662c0.75844 0 1.3683-0.61094 1.3683-1.3695v-2.3009l0.0021-1.3589h13.248l-0.84694 1.8997s-0.3171 0.46812-0.5039 0.67942c-0.11795 0.13336-0.38761 0.36833-0.38761 0.36831 0 0-0.50654 0.29207-0.69673 0.50787-0.22389 0.25418-0.48936 0.8917-0.48936 0.8917l-0.076545 1.7068 0.14439 2.0131 0.13469 5.009c3.4694e-4 0.56162 0.35127 1.0133 0.91282 1.0128h0.12016l-0.003596 3.4873h0.003596v0.18325c0 0.75857 0.61079 1.3695 1.3692 1.3695h3.662c0.75844 0 1.3692-0.61094 1.3692-1.3695v-2.3009l4.964e-4 -1.3589h13.34l-0.78976 1.7708s-0.3171 0.46911-0.50389 0.68041c-0.11795 0.13334-0.38762 0.3683-0.38762 0.3683s-0.50654 0.29206-0.69673 0.50787c-0.2239 0.25417-0.48936 0.89072-0.48936 0.89072l-0.07655 1.7068 0.14439 2.0141 0.1347 5.009c3.38e-4 0.56161 0.35127 1.0133 0.91282 1.0128h0.12016l-0.0036 3.4873h0.0036v0.18324c0 0.75857 0.61079 1.3686 1.3692 1.3686h3.662c0.75845 0 1.3692-0.60998 1.3692-1.3686v-2.3009l4.96e-4 -1.3589h20.662v3.7761c0 0.69189 0.55729 1.2484 1.2491 1.2484h3.8868c0.69179 0 1.2481-0.55649 1.2481-1.2484v-3.8585h0.02129c0.56157 0 0.94704-0.30289 0.94674-0.86455l0.15504-5.0846 0.10175-2.0965s0.05723-0.87698 0.0135-1.3123c-0.01837-0.18305-0.11531-0.53987-0.11531-0.53987s-0.14414-0.39129-0.26842-0.5544c-0.22582-0.29637-0.80526-0.68718-0.80526-0.68718s-0.35486-0.24649-0.49614-0.39059c-0.24166-0.24654-0.60274-0.8442-0.60274-0.8442l-3.2395-7.4563s-0.38774-1.3804-2.0069-1.8561c-1.7446-0.51264-4.5944-0.89336-6.9489-1.0594-1.3339-0.094-2.2046-0.11779-3.3073-0.11048-0.10334 5e-4 -0.20119 8e-3 -0.3033 8e-3 4.94e-4 -0.17668-0.0025-0.34862-0.01557-0.48075-0.01837-0.18306-0.1153-0.53984-0.1153-0.53984s-0.14415-0.39035-0.26842-0.55345c-0.22582-0.29638-0.80527-0.68815-0.80527-0.68815s-0.35487-0.24553-0.49614-0.38963c-0.24167-0.24654-0.60274-0.84517-0.60274-0.84517l-3.2395-7.4563s-0.38774-1.3804-2.0069-1.8561c-1.7446-0.51265-4.5944-0.89337-6.9489-1.0594-1.3339-0.094-2.2046-0.11785-3.3073-0.11048-0.05344 3.6e-4 -0.10385 4e-3 -0.15697 4e-3 0.0039-0.21824 0.0039-0.4413-0.01256-0.60481-0.01837-0.18311-0.11532-0.53985-0.11532-0.53985s-0.1451-0.3913-0.26938-0.5544c-0.22583-0.29639-0.8043-0.68718-0.8043-0.68718s-0.35487-0.2465-0.49614-0.39061c-0.24167-0.24654-0.60368-0.84419-0.60371-0.84419l-3.2385-7.4563s-0.38775-1.3804-2.0069-1.8561c-1.7446-0.51265-4.5954-0.89337-6.9499-1.0594-1.3339-0.094-2.2036-0.11787-3.3063-0.1105zm0.067826 2.4163c1.4586-8e-3 4.003 0.17575 5.9886 0.42355 0.93093 0.11617 2.7695 0.49722 2.7695 0.49722s0.36077 0.10716 0.67638 0.2898c0.14596 0.0845 0.27572 0.21885 0.36823 0.3053 0.10698 0.1001 0.24924 0.27435 0.34594 0.43421 0.10464 0.17304 0.15892 0.32857 0.15892 0.32857l2.7181 6.489s-2.0302-0.38197-4.6116-0.6455c-2.7229-0.27802-6.0595-0.43783-8.2716-0.43907-2.2558 0-5.6647 0.19851-8.4335 0.47881-2.5902 0.26217-5.3442 0.72886-5.3442 0.72886l2.8741-6.6121s0.09526-0.2457 0.25486-0.46911c0.11478-0.16066 0.27863-0.29515 0.39439-0.39059 0.10625-0.0876 0.26689-0.1931 0.43122-0.26751 0.21722-0.0985 0.42928-0.15411 0.42928-0.15411s2.5867-0.44063 4.8636-0.72693c1.5241-0.19173 3.2244-0.26442 4.3878-0.27041zm-14.714 12.876c1.0519 0 1.9051 0.86124 1.9051 1.9239-1e-5 1.0626-0.85324 1.9249-1.9051 1.9249-1.0518 4e-5 -1.9041-0.86223-1.9041-1.9249 0-1.0627 0.8523-1.9239 1.9041-1.9239zm4.0312 0.64163h16.833c-0.48923 0.40557-0.71708 0.84129-0.71708 0.84129l-1.6754 3.7587h-10.641c-2.1047 0-3.7996-1.6942-3.7996-3.7994zm28.643 0.58153c1.4586-8e-3 4.003 0.17574 5.9886 0.42356 0.93093 0.11615 2.7705 0.49721 2.7705 0.49721s0.35981 0.10716 0.67542 0.2898c0.14596 0.0844 0.27572 0.21982 0.36822 0.30628 0.10698 0.1001 0.24924 0.27436 0.34595 0.43421 0.10464 0.17306 0.1599 0.3276 0.1599 0.3276l2.7172 6.489s-2.0302-0.38196-4.6116-0.6455c-2.7229-0.27802-6.0595-0.43785-8.2716-0.43907-2.2559 0-5.6647 0.19851-8.4335 0.47882-2.5902 0.26218-5.3432 0.72885-5.3432 0.72885l2.8732-6.6121s0.095241-0.2457 0.25485-0.46911c0.11478-0.16066 0.27863-0.29515 0.39439-0.3906 0.10625-0.0876 0.26785-0.19211 0.43219-0.26653 0.21722-0.0985 0.42831-0.15412 0.42831-0.15412s2.5876-0.44162 4.8645-0.72788c1.5241-0.19174 3.2235-0.26444 4.3868-0.27042zm-14.714 12.876c1.0519 0 1.9051 0.8622 1.9051 1.9249-1.49e-5 1.0627-0.85324 1.924-1.9051 1.9239-1.0519 4e-5 -1.9041-0.86126-1.9041-1.9239 0-1.0627 0.85229-1.9249 1.9041-1.9249zm4.0321 0.64163h16.84c-0.38766 0.36364-0.57561 0.71335-0.57561 0.71335l-1.7326 3.8866h-10.733c-2.1047 0-3.7986-1.6942-3.7986-3.7994zm28.791 0.45263c1.4586-8e-3 4.003 0.17668 5.9886 0.42452 0.93093 0.11609 2.7705 0.49721 2.7705 0.49721s0.35981 0.1071 0.67542 0.28979c0.14598 0.0844 0.27573 0.21886 0.36823 0.30533 0.107 0.10016 0.24924 0.27434 0.34595 0.43421 0.10464 0.17312 0.15988 0.32857 0.15988 0.32857l2.7172 6.489s-2.0302-0.382-4.6116-0.64552c-2.7228-0.27801-6.0595-0.43882-8.2716-0.44002-2.2559 0-5.6647 0.19946-8.4335 0.47977-2.5902 0.26217-5.3432 0.72885-5.3432 0.72885l2.8732-6.6121s0.09524-0.2457 0.25485-0.46912c0.11478-0.16074 0.27864-0.29516 0.3944-0.39059 0.10625-0.0876 0.26785-0.19311 0.43219-0.26752 0.21722-0.0985 0.42831-0.15416 0.42831-0.15416s2.5876-0.44067 4.8645-0.72694c1.5241-0.19174 3.2235-0.26539 4.3868-0.27138zm-14.714 12.877c1.0519 0 1.9051 0.86125 1.9051 1.9239-1.5e-5 1.0626-0.85324 1.9239-1.9051 1.9239-1.0519 3e-5 -1.9041-0.86126-1.9041-1.9239 0-1.0627 0.85229-1.9239 1.9041-1.9239zm28.953 0c1.0519 0 1.9041 0.86125 1.9041 1.9239-9e-6 1.0626-0.85228 1.9239-1.9041 1.9239-1.0519 3e-5 -1.9051-0.86126-1.9051-1.9239 2e-5 -1.0627 0.85325-1.9239 1.9051-1.9239zm-24.921 0.64162h20.859v0.80058c0 2.1052-1.6959 3.7994-3.8005 3.7994h-13.26c-2.1047 0-3.7986-1.6942-3.7986-3.7994z" fill-rule="evenodd"/><path d="m-61.919 189.5c-2.4384-9e-3 -4.1639-0.84162-5.2332-2.6888-1.0407-1.7978-0.82222-3.9718 0.10617-5.5947l72.162-124.73c0.90904-1.5725 2.8064-2.6607 4.8867-2.6613 2.1375-5.34e-4 3.5915 1.1983 4.6396 3.0088l71.921 124.45c1.0847 1.7797 1.0246 3.859-0.0061 5.6395-1.0395 1.7983-3.0733 2.567-4.8925 2.5676zm12.105-12.674 119.11-0.03-59.544-103.07z" fill="#ee252c" stroke-width=".26458"/></g></svg>