<svg width="158.75mm" height="139.25mm" version="1.1" viewBox="0 0 158.75 139.25" xmlns="http://www.w3.org/2000/svg"><g transform="translate(-132.83 -88.172)"><path d="m289.43 214.93c0.63664 1.0626 1.1775 1.9366 1.5252 2.7972 0.32815 0.81234 0.48093 1.617 0.4905 2.4187 0.0131 1.1629-0.25761 2.4525-0.87973 3.5287-0.95851 1.6582-2.4435 2.8165-4.1457 3.3369-1.0198 0.31177-2.1386 0.28379-3.21 0.28413l-142.59-0.0131c-0.58844 2.4e-4 -1.0668 0.015-1.5969-0.0681-2.1539-0.33802-3.961-1.419-5.2536-3.6519-0.70614-1.2198-0.8632-2.7395-0.78821-3.8811 0.088-1.3392 0.53036-2.292 1.3019-3.6268l71.483-123.7c1.3285-2.4726 3.5997-4.0235 6.4188-4.0478 3.2287 0.05355 5.4603 1.9857 6.6064 4.3725l70.642 122.25z" fill="#fff" stroke="#000" stroke-linecap="round" stroke-linejoin="round" stroke-miterlimit="2" stroke-width=".26458"/><path d="m140.52 225.65c-2.4384-9e-3 -4.1639-0.84163-5.2332-2.6888-1.0407-1.7978-0.82223-3.9718 0.10609-5.5947l72.162-124.73c0.90904-1.5725 2.8064-2.6607 4.8867-2.6613 2.1375-6.59e-4 3.5914 1.1983 4.6396 3.0088l71.921 124.45c1.0847 1.7797 1.0246 3.859-6e-3 5.6395-1.0395 1.7983-3.0733 2.567-4.8925 2.5676zm12.105-12.674 119.11-0.0299-59.544-103.07z" fill="#ee252c" stroke-width=".26458"/><path d="m190.57 173.81-7.3674 5.1695 7.3674 5.1502 7.3867-5.1502zm0 10.32h-3.7431l-0.8113 0.91106h-13.031l-1.6245 1.8018v17.828h-1.9011v2.416h7.1933c0.22762 1.3492 1.3934 2.3715 2.809 2.3715h0.0851c1.4156 0 2.5805-1.0223 2.8081-2.3715h1.903c0.22761 1.3492 1.3924 2.3715 2.8081 2.3715h0.0397c1.4156 0 2.5805-1.0223 2.8081-2.3715h38.231c0.22759 1.3492 1.3934 2.3715 2.809 2.3715h0.0436c1.4156 0 2.5814-1.0223 2.809-2.3715h1.931c0.22761 1.3492 1.3925 2.3715 2.8081 2.3715h0.0754c1.4156 0 2.5814-1.0223 2.809-2.3715h12.234v-2.416l-1.9011-9.9e-4v-18.005l-1.8024-1.6239h-11.703l-0.99018-0.91109zm0-9.7655 6.5947 4.6153-6.5947 4.6153-6.5947-4.6153zm-18.457 12.835h6.6537v9.4879h-6.6537zm7.5839 0h8.3372v17.292h-8.3372zm10.239 0h10.04v9.4879h-10.04zm10.991 0h10.04v9.4879h-10.04zm10.991 0h10.06v9.4879h-10.06zm11.665 0h8.3372v17.292h-8.3372zm9.2288 0h8.3372v17.292h-8.3372zm9.2878 0h8.9116v9.4879h-8.9116z" fill-rule="evenodd" style="paint-order:stroke fill markers"/></g></svg>