<svg enable-background="new 0 0 450 394.7" version="1.1" viewBox="0 0 450 394.7" xmlns="http://www.w3.org/2000/svg"><style type="text/css">.st0{fill:#FFFFFF;stroke:#000000;stroke-width:0.75;stroke-linecap:round;stroke-linejoin:round;stroke-miterlimit:5.6693;}.st1{fill:#EE252C;}</style><g transform="translate(69.605 -52.017)"><path class="st0" d="m374.3 411.3c1.8 3 3.3 5.5 4.3 7.9 0.9 2.3 1.4 4.6 1.4 6.9 0 3.3-0.7 7-2.5 10-2.7 4.7-6.9 8-11.8 9.5-2.9 0.9-6.1 0.8-9.1 0.8h-404.2c-1.7 0-3 0-4.5-0.2-6.1-1-11.2-4-14.9-10.4-2-3.5-2.4-7.8-2.2-11 0.2-3.8 1.5-6.5 3.7-10.3l202.6-350.6c3.8-7 10.2-11.4 18.2-11.5 9.2 0.2 15.5 5.6 18.7 12.4l200.3 346.5z"/><path class="st1" d="m-47.8 441.7c-6.9 0-11.8-2.4-14.8-7.6-3-5.1-2.3-11.3 0.3-15.9l204.5-353.5c2.6-4.5 8-7.5 13.9-7.5 6.1 0 10.2 3.4 13.2 8.5l203.9 352.8c3.1 5 2.9 10.9 0 16s-8.7 7.3-13.9 7.3l-407.1-0.1zm34.3-35.9 337.6-0.1-168.8-292.2-168.8 292.3z"/></g><polygon points="375.7 340.4 311.3 229.7 77.1 340.4"/><g transform="matrix(.86788 .49678 -.49678 .86788 0 0)"><path d="m273.3 157.9c1.8-2.6 4-4.1 6.8-4.4 3.8 0.6 7 2.2 9.5 4.7 2.7 2.4 3.6 5.2 2.7 8.3-2.6 6.1-6.9 7.6-12.8 4.8-6.5-3.4-8.6-7.9-6.2-13.4zm3.3 1.9c-0.8 2.8 0.5 5.2 3.8 7 2 1.2 3.9 1.7 5.8 1.4 3.4-2.6 3.3-5.2-0.4-7.7-3.7-3.3-6.8-3.6-9.2-0.7zm-36.6 7.1c1.8-2.6 4-4.1 6.8-4.4 3.8 0.6 7 2.2 9.5 4.7 2.7 2.4 3.6 5.2 2.7 8.3-2.6 6.1-6.9 7.6-12.8 4.8-6.4-3.4-8.5-7.8-6.2-13.4zm3.3 1.9c-0.8 2.8 0.5 5.2 3.8 7 2 1.2 3.9 1.7 5.8 1.4 3.4-2.6 3.3-5.2-0.4-7.7-3.7-3.3-6.7-3.6-9.2-0.7zm9-20.7c0.2-0.4 3.8-4.7 3.8-4.7l23 43.4-4 4.9-22.8-43.6z"/><path d="m273.3 121.7 1-1.5 0.8-1.1 0.2-0.3 1-1.4 0.2-0.3 0.7-1 32.3 22.2-0.8 1.1-1.8 2.7-1 1.4-0.2 0.3-0.7 1-1.2-0.8-1.1-0.8-0.3-0.2-0.4-0.3-0.9-0.6-1.7-1.2-0.7-0.5-1.5-1-0.4-0.3-0.9-0.6-1.7-1.2-1.4-1-0.3-0.2-1-0.7-0.6-0.4-1.7-1.2-2.1-1.4-1.1-0.8-0.3-0.2-1.4-1-0.3-0.2-1-0.7-1 1.4-0.8 1.2-1 1.4-0.2 0.3-0.7 1-0.3-0.2-0.4-0.3-0.3-0.2-0.4-0.3-1.1-0.8-0.3-0.2-1.4-1-0.3-0.2-1-0.7c1.3-1.8 2-3.7 2.1-5.6l-0.1-0.2c-0.2-0.6-0.4-1.2-0.7-1.6l-0.3-0.2-0.5-0.6-1.2-1.5 0.2 0.5z"/><path d="m294.4 89.7c6.2-8.8 14.6-10.1 25.1-4 5.5 3.3 9.5 7.6 11.8 12.9v0.4c0.1 0.1 0.1 0.2 0.1 0.3 0.1 0.4 0.2 0.7 0.3 0.9v0.2c0.2 0.7 0.3 1.2 0.3 1.6-0.2 6.3-2.7 11.1-7.5 14.5-5.1 3.3-10.5 3.6-16.1 0.8-5.7-2.4-10.2-5.8-13.4-10.2-4.1-5.8-4.3-11.6-0.6-17.4zm5.9 4.7c-1.4 4.7 0.2 8.5 4.8 11.2l0.2 0.3 0.5 0.3c0.6 0.5 1.1 0.8 1.5 1.1l1.2 0.8h0.2c0.5 0.4 1 0.6 1.4 0.8l1.3 0.8 0.2 0.3 0.3 0.1c0.4 0.2 0.6 0.3 0.7 0.4 0.1 0 0.2 0 0.3 0.1 0.5 0.1 1 0.2 1.3 0.4h0.2c0.6 0.1 1 0.2 1.4 0.3 0.1-0.1 0.2-0.1 0.3-0.1 0.8 0 1.4 0 2-0.2l0.6-0.2 0.2-0.1 0.3-0.1h0.2c0.5-0.3 0.9-0.6 1.3-0.7 6.3-6.2 3.2-12.5-9.2-18.9-4.9-2.1-8.7-0.9-11.2 3.4z"/></g></svg>