<?xml version="1.0" encoding="UTF-8" standalone="no"?>
<svg
   xmlns:dc="http://purl.org/dc/elements/1.1/"
   xmlns:cc="http://creativecommons.org/ns#"
   xmlns:rdf="http://www.w3.org/1999/02/22-rdf-syntax-ns#"
   xmlns:svg="http://www.w3.org/2000/svg"
   xmlns="http://www.w3.org/2000/svg"
   xmlns:sodipodi="http://sodipodi.sourceforge.net/DTD/sodipodi-0.dtd"
   xmlns:inkscape="http://www.inkscape.org/namespaces/inkscape"
   width="132.21841mm"
   height="25.064844mm"
   viewBox="0 0 132.21842 25.064844"
   version="1.1"
   id="svg41547"
   inkscape:version="1.0 (4035a4fb49, 2020-05-01)"
   sodipodi:docname="Turkey_road_sign_B-6a.svg">
  <defs
     id="defs41541" />
  <sodipodi:namedview
     id="base"
     pagecolor="#ffffff"
     bordercolor="#666666"
     borderopacity="1.0"
     inkscape:pageopacity="0.0"
     inkscape:pageshadow="2"
     inkscape:zoom="6.30343"
     inkscape:cx="448.47351"
     inkscape:cy="62.068375"
     inkscape:document-units="mm"
     inkscape:current-layer="g59921"
     inkscape:document-rotation="0"
     showgrid="false"
     inkscape:window-width="1920"
     inkscape:window-height="1001"
     inkscape:window-x="-9"
     inkscape:window-y="-9"
     inkscape:window-maximized="1" />
  <metadata
     id="metadata41544">
    <rdf:RDF>
      <cc:Work
         rdf:about="">
        <dc:format>image/svg+xml</dc:format>
        <dc:type
           rdf:resource="http://purl.org/dc/dcmitype/StillImage" />
        <dc:title></dc:title>
      </cc:Work>
    </rdf:RDF>
  </metadata>
  <g
     inkscape:label="Layer 1"
     inkscape:groupmode="layer"
     id="layer1"
     transform="translate(-158.36602,-69.325)">
    <g
       style="opacity:1"
       id="g59921">
      <path
         sodipodi:nodetypes="ccccccc"
         id="path59923"
         d="m 158.41602,69.375 v 24.964844 h 119.5957 L 290.51367,81.849609 278.01172,69.375 h -0.0781 z"
         style="color:#000000;font-style:normal;font-variant:normal;font-weight:normal;font-stretch:normal;font-size:medium;line-height:normal;font-family:sans-serif;font-variant-ligatures:normal;font-variant-position:normal;font-variant-caps:normal;font-variant-numeric:normal;font-variant-alternates:normal;font-variant-east-asian:normal;font-feature-settings:normal;font-variation-settings:normal;text-indent:0;text-align:start;text-decoration:none;text-decoration-line:none;text-decoration-style:solid;text-decoration-color:#000000;letter-spacing:normal;word-spacing:normal;text-transform:none;writing-mode:lr-tb;direction:ltr;text-orientation:mixed;dominant-baseline:auto;baseline-shift:baseline;text-anchor:start;white-space:normal;shape-padding:0;shape-margin:0;inline-size:0;clip-rule:nonzero;display:inline;overflow:visible;visibility:visible;isolation:auto;mix-blend-mode:normal;color-interpolation:sRGB;color-interpolation-filters:linearRGB;solid-color:#000000;solid-opacity:1;vector-effect:none;fill:#231f20;fill-opacity:1;fill-rule:evenodd;stroke:none;stroke-width:0.1;stroke-linecap:square;stroke-linejoin:miter;stroke-miterlimit:2;stroke-dasharray:none;stroke-dashoffset:0;stroke-opacity:1;paint-order:stroke fill markers;color-rendering:auto;image-rendering:auto;shape-rendering:auto;text-rendering:auto;enable-background:accumulate;stop-color:#000000;stop-opacity:1" />
      <path
         id="path59925"
         d="M 277.93383,69.562608 H 158.60309 v 24.589266 h 119.33074 l 12.31501,-12.301551 z"
         style="color:#000000;font-style:normal;font-variant:normal;font-weight:normal;font-stretch:normal;font-size:medium;line-height:normal;font-family:sans-serif;font-variant-ligatures:normal;font-variant-position:normal;font-variant-caps:normal;font-variant-numeric:normal;font-variant-alternates:normal;font-variant-east-asian:normal;font-feature-settings:normal;font-variation-settings:normal;text-indent:0;text-align:start;text-decoration:none;text-decoration-line:none;text-decoration-style:solid;text-decoration-color:#000000;letter-spacing:normal;word-spacing:normal;text-transform:none;writing-mode:lr-tb;direction:ltr;text-orientation:mixed;dominant-baseline:auto;baseline-shift:baseline;text-anchor:start;white-space:normal;shape-padding:0;shape-margin:0;inline-size:0;clip-rule:nonzero;display:inline;overflow:visible;visibility:visible;isolation:auto;mix-blend-mode:normal;color-interpolation:sRGB;color-interpolation-filters:linearRGB;solid-color:#000000;solid-opacity:1;vector-effect:none;fill:#ffffff;fill-opacity:1;fill-rule:evenodd;stroke:none;stroke-width:0.374;stroke-linecap:square;stroke-linejoin:miter;stroke-miterlimit:2;stroke-dasharray:none;stroke-dashoffset:0;stroke-opacity:1;paint-order:stroke fill markers;color-rendering:auto;image-rendering:auto;shape-rendering:auto;text-rendering:auto;enable-background:accumulate;stop-color:#000000;stop-opacity:1" />
    </g>
    <path
       id="rect48890"
       style="opacity:1;fill:#000000;stroke-width:0.259673;stroke-linecap:square;stroke-linejoin:miter;stroke-miterlimit:10;stroke-dasharray:none"
       d="m 168.64526,75.801331 1.69847,4.440929 v 0.994399 l -3.36142,0.252963 -1.1884,-1.69703 H 165.075 l 0.51217,1.874163 -0.48265,0.16153 c -0.0142,0.0021 -0.0223,0.01069 -0.0227,0.02103 -3.4e-4,0.01136 0.004,0.02159 0.0229,0.02515 l 0.48248,0.160013 -0.51217,1.874248 h 0.71892 l 1.18815,-1.697033 3.36167,0.252712 v 0.994653 l -1.69847,4.439659 h 0.8834 l 3.90362,-5.432703 h 3.97405 c 0.34094,0 0.61541,-0.274483 0.61541,-0.615418 0,-0.340942 -0.27447,-0.615417 -0.61541,-0.615417 h -3.97405 L 169.5287,75.80137 Z" />
    <path
       d="m 164.09977,70.891493 c -2.30716,0 -4.16461,1.857447 -4.16461,4.164603 v 13.596588 c 0,2.307156 1.85745,4.164602 4.16461,4.164602 h 107.12421 6.14484 L 288.36867,81.850514 277.36882,70.891493 h -6.14484 z m -0.0202,1.597319 h 109.74368 l 5.42706,9.361702 -5.42706,9.379272 H 164.07961 c -1.41875,0 -2.56109,-1.141827 -2.56109,-2.560566 V 75.049896 c 0,-1.418738 1.14234,-2.561084 2.56109,-2.561084 z"
       style="opacity:1;fill:#000000;stroke:none;stroke-width:1.5605;stroke-opacity:1"
       id="rect59026" />
    <g
       transform="matrix(0.35277777,0,0,-0.35277777,117.03804,278.85554)"
       id="g59169">
      <path
         sodipodi:nodetypes="cccccccc"
         style="font-style:normal;font-variant:normal;font-weight:normal;font-stretch:normal;font-size:12px;font-family:'Highway Gothic Expanded';-inkscape-font-specification:'Highway Gothic Expanded, ';writing-mode:lr-tb;opacity:1;fill:#000000;fill-opacity:1;fill-rule:nonzero;stroke:none;stroke-width:0.237122"
         d="m 267.34226,564.01415 -7.12405,-17.72068 h -4.43452 l -7.10656,17.72068 h 4.22937 l 5.09445,-12.68197 5.09154,12.68197 z"
         id="path59139" />
      <path
         sodipodi:nodetypes="cccccccccc"
         d="m 315.66813,569.67536 v -3.88693 h 3.87221 v 3.88693 z m 0,-5.85513 v -17.52617 h 3.87221 v 17.52617 z"
         style="font-style:normal;font-variant:normal;font-weight:normal;font-stretch:normal;font-size:122.83px;line-height:1.15;font-family:'Highway Gothic Wide';-inkscape-font-specification:'Highway Gothic Wide';text-align:center;letter-spacing:3.26px;text-anchor:middle;opacity:1;fill:#000000;fill-opacity:1;stroke-width:0.261153"
         id="path59141" />
      <path
         id="path59143"
         style="font-style:normal;font-variant:normal;font-weight:normal;font-stretch:normal;font-size:122.83px;line-height:1.15;font-family:'Highway Gothic Wide';-inkscape-font-specification:'Highway Gothic Wide';text-align:center;letter-spacing:3.26px;text-anchor:middle;opacity:1;fill:#000000;fill-opacity:1;stroke-width:0.263759"
         d="m 425.72132,564.01801 v -17.7 h 3.9108 v 17.7 z"
         sodipodi:nodetypes="ccccc" />
      <path
         sodipodi:nodetypes="cccasasasssscasaaasccssssccssscsssc"
         id="path59145"
         style="font-style:normal;font-variant:normal;font-weight:normal;font-stretch:normal;font-size:46.5314px;line-height:1.15;font-family:'Highway Gothic Wide';-inkscape-font-specification:'Highway Gothic Wide';opacity:1;fill:#000000;fill-opacity:1;stroke:none;stroke-width:0.133942;stroke-opacity:1"
         d="m 240.92451,546.73728 -3.99776,1.7e-4 v 0.44476 c 0,0 -2.24676,-0.80676 -3.42262,-0.89599 -1.4305,-0.10857 -2.92339,-0.0168 -4.28005,0.44927 -1.08821,0.37356 -2.20878,0.94401 -3.18959,1.62288 -0.4631,0.32052 -0.87801,0.67725 -1.24764,1.13954 -0.42358,0.53008 -0.65565,1.24447 -0.66839,1.92295 -0.017,0.89514 0.17722,1.88488 0.78547,2.56844 1.24821,1.40249 3.10422,2.34082 5.00081,2.80063 0.71533,0.17319 1.42016,0.25086 2.12416,0.32795 0.74326,0.0818 1.8702,-0.0367 2.81501,-0.26069 1.12838,-0.26787 2.02102,-0.65968 2.02102,-0.65968 0,0 0.10275,0.65181 0.05,0.9722 -0.0792,0.49153 -0.31622,1.07824 -0.54374,1.39156 -0.55933,0.7701 -1.57129,1.12935 -2.47802,1.41896 -0.32362,0.10335 -0.67484,0.0876 -1.01444,0.0994 -0.41864,0.0149 -0.83851,-0.006 -1.25598,-0.0391 -0.67522,-0.0542 -1.47066,-0.15811 -2.01481,-0.26843 -1.86373,-0.37756 -2.89335,-0.94871 -2.89335,-0.94871 l -1.61693,3.60499 c 0,0 1.30698,0.6281 3.11142,1.08333 1.41822,0.35792 3.23418,0.57637 4.35282,0.51968 2.12638,-0.10828 4.2733,-0.57585 5.79632,-1.88761 1.52315,-1.31169 2.5653,-3.09512 2.5653,-5.18928 z m -4.13922,4.9394 c 0,0 -0.73718,0.59254 -1.72101,0.98227 -0.86219,0.34167 -1.92903,0.48729 -2.64632,0.48247 -0.6631,-0.006 -1.80107,-0.21927 -2.6035,-0.54372 -0.98625,-0.39857 -1.58205,-0.92102 -1.58205,-0.92102 0,0 0.50908,-0.50168 1.42242,-0.879 0.86341,-0.35663 2.11161,-0.59008 2.84229,-0.59069 0.72045,-5.2e-4 1.74874,0.15972 2.60648,0.50928 0.94149,0.38395 1.68169,0.96041 1.68169,0.96041 z" />
      <path
         sodipodi:nodetypes="ccccc"
         d="m 300.587,570.60901 0.006,-24.31495 h 3.87214 l -0.006,24.31495 z"
         style="font-style:normal;font-variant:normal;font-weight:normal;font-stretch:normal;font-size:122.83px;line-height:1.15;font-family:'Highway Gothic Wide';-inkscape-font-specification:'Highway Gothic Wide';text-align:center;letter-spacing:3.26px;text-anchor:middle;opacity:1;fill:#000000;fill-opacity:1;stroke-width:0.261153"
         id="path59147" />
      <path
         d="m 361.69449,546.31309 h -3.96536 l 2e-5,9.1245 c 0,0 -0.25803,1.76678 -0.80044,2.4215 -0.40129,0.4844 -0.86385,1.01897 -1.4528,1.40834 -0.85135,0.56302 -1.87464,0.88461 -2.58403,0.83086 -0.33597,-0.0246 -0.7009,-0.017 -1.04252,-0.0827 -0.85751,-0.16829 -1.67447,-0.54148 -2.29614,-1.1142 -0.50059,-0.46087 -1.10899,-1.28493 -1.40512,-2.09844 -0.2941,-0.80808 -0.27762,-1.60674 -0.27762,-1.60674 v -8.88342 h -3.93232 v 9.12457 c 0,0 -0.0456,0.72932 -0.32873,1.50347 -0.21694,0.59107 -0.62372,1.20844 -0.96079,1.54758 -0.44731,0.4504 -0.96672,0.88053 -1.56394,1.16336 -0.68953,0.32686 -1.47251,0.47148 -2.20555,0.45918 -0.83707,-0.0152 -1.71176,-0.27892 -2.44941,-0.73988 -0.40319,-0.25196 -0.74444,-0.58807 -1.06525,-0.91422 -0.34904,-0.35502 -0.72747,-0.98921 -0.95165,-1.58591 -0.23706,-0.63121 -0.31,-1.21625 -0.31,-1.21625 l -0.0224,-9.3419 h -3.90592 v 17.25961 h 3.9059 v -1.03088 c 0,0 0.77416,0.56673 1.83805,0.96419 1.06877,0.3993 2.4293,0.62926 3.3247,0.5512 1.04987,-0.0912 2.68572,-0.35363 3.90386,-1.02463 1.64014,-0.90352 2.74493,-2.26458 2.74493,-2.26458 0,0 0.60359,0.67462 0.94704,0.96693 0.56932,0.48455 1.29148,1.01853 1.83236,1.29283 1.21858,0.61813 2.59916,1.03878 3.96546,1.03878 1.55385,0 3.14135,-0.44465 4.50944,-1.18132 1.14391,-0.61578 2.12573,-1.56053 2.90012,-2.6035 0.60426,-0.81364 1.02608,-1.76723 1.29035,-2.75333 0.2447,-0.91324 0.28461,-1.68537 0.28461,-1.68537 z"
         style="font-style:normal;font-variant:normal;font-weight:normal;font-stretch:normal;font-size:30px;line-height:1.15;font-family:'Highway Gothic Wide';-inkscape-font-specification:'Highway Gothic Wide';opacity:1;fill:#000000;fill-opacity:1;stroke-width:0.178081"
         id="path59149"
         sodipodi:nodetypes="cccssssssccccsssssssccccccssscasaaascc" />
      <path
         sodipodi:nodetypes="ccccccccccccc"
         id="path59151"
         style="font-style:normal;font-variant:normal;font-weight:normal;font-stretch:normal;font-size:30px;line-height:1.15;font-family:'Highway Gothic Wide';-inkscape-font-specification:'Highway Gothic Wide';text-align:center;text-anchor:middle;opacity:1;fill:#000000;fill-opacity:1;stroke:none;stroke-width:0.176024;stroke-opacity:1"
         d="m 214.88736,546.29175 -4.35824,-0.006 v 9.7458 h -10.70241 v -9.74532 h -4.384 V 570.645 h 4.38384 v -9.73512 h 10.70255 v 9.73512 h 4.36326 z" />
      <path
         d="m 289.65931,546.74856 -4.03909,1.7e-4 v 0.44936 c 0,0 -2.27,-0.81509 -3.45803,-0.90524 -1.4453,-0.10969 -2.95359,-0.0169 -4.32429,0.4539 -1.09947,0.37743 -2.23164,0.9538 -3.22257,1.63967 -0.46792,0.32382 -0.88709,0.68426 -1.26055,1.15132 -0.42796,0.53557 -0.66243,1.25734 -0.67531,1.94282 -0.0171,0.9044 0.17905,1.9044 0.7936,2.59503 1.2611,1.417 3.13632,2.36502 5.05252,2.82958 0.72273,0.17498 1.43484,0.25346 2.14613,0.33135 0.75093,0.0827 1.88952,-0.0371 2.84409,-0.26339 1.14007,-0.27065 2.04193,-0.6665 2.04193,-0.6665 0,0 0.10382,0.65854 0.0504,0.98222 -0.0799,0.49662 -0.3195,1.08944 -0.54939,1.40597 -0.56508,0.77807 -1.58753,1.14105 -2.50363,1.43362 -0.32698,0.10445 -0.68184,0.0885 -1.02494,0.10037 -0.42296,0.0149 -0.84717,-0.006 -1.26896,-0.0395 -0.68221,-0.0547 -1.48588,-0.15974 -2.03564,-0.2712 -1.88301,-0.38146 -2.92327,-0.95854 -2.92327,-0.95854 l -1.63366,3.64229 c 0,0 1.32051,0.63459 3.14359,1.09451 1.43291,0.36164 3.26762,0.58237 4.39783,0.52506 2.14839,-0.10937 4.31751,-0.58179 5.85626,-1.9071 1.53889,-1.32527 2.59184,-3.12714 2.59184,-5.24297 z m -4.18204,4.99049 c 0,0 -0.74478,0.59868 -1.7388,0.99245 -0.87109,0.34519 -1.94897,0.49232 -2.67367,0.48745 -0.66995,-0.006 -1.8197,-0.22156 -2.63042,-0.54937 -0.99645,-0.4027 -1.59841,-0.93053 -1.59841,-0.93053 0,0 0.51434,-0.50685 1.43711,-0.88809 0.87234,-0.3603 2.13347,-0.59618 2.87168,-0.59679 0.7279,-5.4e-4 1.76685,0.16136 2.63344,0.51454 0.95123,0.38793 1.69907,0.97034 1.69907,0.97034 z"
         style="font-style:normal;font-variant:normal;font-weight:normal;font-stretch:normal;font-size:46.5314px;line-height:1.15;font-family:'Highway Gothic Wide';-inkscape-font-specification:'Highway Gothic Wide';opacity:1;fill:#000000;fill-opacity:1;stroke:none;stroke-width:0.135327;stroke-opacity:1"
         id="path59153"
         sodipodi:nodetypes="cccasasasssscasaaasccssssccssscsssc" />
      <path
         sodipodi:nodetypes="cccasasasssscasaaasccssssccssscsssc"
         id="path59155"
         style="font-style:normal;font-variant:normal;font-weight:normal;font-stretch:normal;font-size:46.5314px;line-height:1.15;font-family:'Highway Gothic Wide';-inkscape-font-specification:'Highway Gothic Wide';opacity:1;fill:#000000;fill-opacity:1;stroke:none;stroke-width:0.134023;stroke-opacity:1"
         d="m 386.38264,546.75508 -4.00012,1.7e-4 v 0.4449 c 0,0 -2.24802,-0.80718 -3.42461,-0.89645 -1.43132,-0.10864 -2.92502,-0.0168 -4.28251,0.44958 -1.08878,0.37372 -2.21002,0.94452 -3.19137,1.62375 -0.46341,0.32074 -0.87854,0.67768 -1.24842,1.14022 -0.42386,0.5304 -0.65601,1.24522 -0.66878,1.92414 -0.0171,0.89563 0.17736,1.886 0.78588,2.57002 1.24901,1.4033 3.10607,2.34216 5.00373,2.80225 0.71574,0.17334 1.42099,0.25103 2.12538,0.32821 0.74371,0.0822 1.8713,-0.0369 2.81669,-0.26094 1.12904,-0.268 2.02211,-0.66003 2.02211,-0.66003 0,0 0.1029,0.65225 0.0501,0.97273 -0.0796,0.49186 -0.31643,1.07895 -0.54407,1.3924 -0.55961,0.77057 -1.57223,1.13011 -2.47945,1.41986 -0.32376,0.10345 -0.67525,0.088 -1.01508,0.0996 -0.41886,0.0148 -0.83896,-0.006 -1.25667,-0.0394 -0.67561,-0.0544 -1.47148,-0.1582 -2.01598,-0.26858 -1.86474,-0.37776 -2.89495,-0.94927 -2.89495,-0.94927 l -1.61792,3.60712 c 0,0 1.30777,0.62849 3.11318,1.084 1.41909,0.35812 3.23611,0.57674 4.35537,0.51995 2.12766,-0.10828 4.27581,-0.57616 5.79969,-1.88871 1.52401,-1.31244 2.56681,-3.09698 2.56681,-5.19236 z m -4.14166,4.9423 c 0,0 -0.73762,0.59291 -1.72203,0.98289 -0.86265,0.34189 -1.93008,0.48758 -2.64777,0.48274 -0.66353,-0.006 -1.80218,-0.21944 -2.60503,-0.54411 -0.98682,-0.39878 -1.58296,-0.92152 -1.58296,-0.92152 0,0 0.50937,-0.502 1.42322,-0.87952 0.8639,-0.35681 2.11281,-0.59044 2.84393,-0.59105 0.72085,-5.4e-4 1.74976,0.15978 2.608,0.50962 0.94201,0.38417 1.68264,0.96095 1.68264,0.96095 z" />
      <path
         sodipodi:nodetypes="accccsssssssccccccssaaa"
         id="path59157"
         style="font-style:normal;font-variant:normal;font-weight:normal;font-stretch:normal;font-size:30px;line-height:1.15;font-family:'Highway Gothic Wide';-inkscape-font-specification:'Highway Gothic Wide';opacity:1;fill:#000000;fill-opacity:1;stroke-width:0.176675"
         d="m 414.56741,557.1975 c 0.19205,-0.64902 0.2463,-2.01553 0.2463,-2.01553 v -8.86918 h -3.9259 v 9.10964 c 0,0 -0.0444,0.72805 -0.32815,1.50102 -0.21663,0.59015 -0.62278,1.20646 -0.95908,1.54502 -0.4467,0.44965 -0.96532,0.87901 -1.56145,1.16143 -0.68838,0.32613 -1.47016,0.47069 -2.20197,0.45847 -0.83583,-0.0145 -1.70891,-0.27846 -2.44547,-0.73875 -0.40245,-0.25148 -0.74316,-0.5871 -1.06341,-0.91276 -0.34848,-0.35443 -0.72632,-0.98748 -0.95013,-1.58333 -0.23671,-0.63011 -0.30948,-1.21415 -0.30948,-1.21415 l -0.0235,-9.32659 h -3.8995 v 17.23115 h 3.8995 v -1.02911 c 0,0 0.77292,0.56573 1.83507,0.96256 1.06704,0.39864 2.42536,0.62824 3.31933,0.55031 1.04805,-0.0915 2.70182,-0.41084 3.89734,-1.02297 1.05411,-0.53974 2.00759,-1.33069 2.74062,-2.26083 0.81411,-1.03303 1.35663,-2.28522 1.72985,-3.5464 z" />
    </g>
  </g>
</svg>
