<svg width="132.22mm" height="25.065mm" version="1.1" viewBox="0 0 132.22 25.065" xmlns="http://www.w3.org/2000/svg"><g transform="translate(-158.37 -69.325)"><g fill-rule="evenodd" shape-rendering="auto"><path d="m158.42 69.375v24.965h119.6l12.502-12.49-12.502-12.475h-0.0781z" color="#000000" color-rendering="auto" dominant-baseline="auto" enable-background="accumulate" fill="#231f20" image-rendering="auto" solid-color="#000000" stop-color="#000000" style="font-feature-settings:normal;font-variant-alternates:normal;font-variant-caps:normal;font-variant-east-asian:normal;font-variant-ligatures:normal;font-variant-numeric:normal;font-variant-position:normal;font-variation-settings:normal;inline-size:0;isolation:auto;mix-blend-mode:normal;paint-order:stroke fill markers;shape-margin:0;shape-padding:0;text-decoration-color:#000000;text-decoration-line:none;text-decoration-style:solid;text-indent:0;text-orientation:mixed;text-transform:none;white-space:normal"/><path d="m277.93 69.563h-119.33v24.589h119.33l12.315-12.302z" color="#000000" color-rendering="auto" dominant-baseline="auto" enable-background="accumulate" fill="#fff" image-rendering="auto" solid-color="#000000" stop-color="#000000" style="font-feature-settings:normal;font-variant-alternates:normal;font-variant-caps:normal;font-variant-east-asian:normal;font-variant-ligatures:normal;font-variant-numeric:normal;font-variant-position:normal;font-variation-settings:normal;inline-size:0;isolation:auto;mix-blend-mode:normal;paint-order:stroke fill markers;shape-margin:0;shape-padding:0;text-decoration-color:#000000;text-decoration-line:none;text-decoration-style:solid;text-indent:0;text-orientation:mixed;text-transform:none;white-space:normal"/></g><path d="m168.65 75.801 1.6985 4.4409v0.9944l-3.3614 0.25296-1.1884-1.697h-0.71891l0.51217 1.8742-0.48265 0.16153c-0.0142 0.0021-0.0223 0.01069-0.0227 0.02103-3.4e-4 0.01136 4e-3 0.02159 0.0229 0.02515l0.48248 0.16001-0.51217 1.8742h0.71892l1.1882-1.697 3.3617 0.25271v0.99465l-1.6985 4.4397h0.8834l3.9036-5.4327h3.974c0.34094 0 0.61541-0.27448 0.61541-0.61542 0-0.34094-0.27447-0.61542-0.61541-0.61542h-3.974l-3.9036-5.4338z" stroke-linecap="square" stroke-miterlimit="10" stroke-width=".25967"/><path d="m164.1 70.891c-2.3072 0-4.1646 1.8574-4.1646 4.1646v13.597c0 2.3072 1.8574 4.1646 4.1646 4.1646h113.27l11-10.967-11-10.959h-6.1448zm-0.0202 1.5973h109.74l5.4271 9.3617-5.4271 9.3793h-109.74c-1.4188 0-2.5611-1.1418-2.5611-2.5606v-13.619c0-1.4187 1.1423-2.5611 2.5611-2.5611z"/><g transform="matrix(.35278 0 0 -.35278 117.04 278.86)"><path d="m267.34 564.01-7.124-17.721h-4.4345l-7.1066 17.721h4.2294l5.0944-12.682 5.0915 12.682z"/><path d="m315.67 569.68v-3.8869h3.8722v3.8869zm0-5.8551v-17.526h3.8722v17.526z" stroke-width=".26115"/><path d="m425.72 564.02v-17.7h3.9108v17.7z" stroke-width=".26376"/><path d="m240.92 546.74-3.9978 1.7e-4v0.44476s-2.2468-0.80676-3.4226-0.89599c-1.4305-0.10857-2.9234-0.0168-4.28 0.44927-1.0882 0.37356-2.2088 0.94401-3.1896 1.6229-0.4631 0.32052-0.87801 0.67725-1.2476 1.1395-0.42358 0.53008-0.65565 1.2445-0.66839 1.923-0.017 0.89514 0.17722 1.8849 0.78547 2.5684 1.2482 1.4025 3.1042 2.3408 5.0008 2.8006 0.71533 0.17319 1.4202 0.25086 2.1242 0.32795 0.74326 0.0818 1.8702-0.0367 2.815-0.26069 1.1284-0.26787 2.021-0.65968 2.021-0.65968s0.10275 0.65181 0.05 0.9722c-0.0792 0.49153-0.31622 1.0782-0.54374 1.3916-0.55933 0.7701-1.5713 1.1294-2.478 1.419-0.32362 0.10335-0.67484 0.0876-1.0144 0.0994-0.41864 0.0149-0.83851-6e-3 -1.256-0.0391-0.67522-0.0542-1.4707-0.15811-2.0148-0.26843-1.8637-0.37756-2.8934-0.94871-2.8934-0.94871l-1.6169 3.605s1.307 0.6281 3.1114 1.0833c1.4182 0.35792 3.2342 0.57637 4.3528 0.51968 2.1264-0.10828 4.2733-0.57585 5.7963-1.8876 1.5232-1.3117 2.5653-3.0951 2.5653-5.1893zm-4.1392 4.9394s-0.73718 0.59254-1.721 0.98227c-0.86219 0.34167-1.929 0.48729-2.6463 0.48247-0.6631-6e-3 -1.8011-0.21927-2.6035-0.54372-0.98625-0.39857-1.582-0.92102-1.582-0.92102s0.50908-0.50168 1.4224-0.879c0.86341-0.35663 2.1116-0.59008 2.8423-0.59069 0.72045-5.2e-4 1.7487 0.15972 2.6065 0.50928 0.94149 0.38395 1.6817 0.96041 1.6817 0.96041z"/><path d="m300.59 570.61 6e-3 -24.315h3.8721l-6e-3 24.315z" stroke-width=".26115"/><path d="m361.69 546.31h-3.9654l2e-5 9.1245s-0.25803 1.7668-0.80044 2.4215c-0.40129 0.4844-0.86385 1.019-1.4528 1.4083-0.85135 0.56302-1.8746 0.88461-2.584 0.83086-0.33597-0.0246-0.7009-0.017-1.0425-0.0827-0.85751-0.16829-1.6745-0.54148-2.2961-1.1142-0.50059-0.46087-1.109-1.2849-1.4051-2.0984-0.2941-0.80808-0.27762-1.6067-0.27762-1.6067v-8.8834h-3.9323v9.1246s-0.0456 0.72932-0.32873 1.5035c-0.21694 0.59107-0.62372 1.2084-0.96079 1.5476-0.44731 0.4504-0.96672 0.88053-1.5639 1.1634-0.68953 0.32686-1.4725 0.47148-2.2056 0.45918-0.83707-0.0152-1.7118-0.27892-2.4494-0.73988-0.40319-0.25196-0.74444-0.58807-1.0652-0.91422-0.34904-0.35502-0.72747-0.98921-0.95165-1.5859-0.23706-0.63121-0.31-1.2162-0.31-1.2162l-0.0224-9.3419h-3.9059v17.26h3.9059v-1.0309s0.77416 0.56673 1.838 0.96419c1.0688 0.3993 2.4293 0.62926 3.3247 0.5512 1.0499-0.0912 2.6857-0.35363 3.9039-1.0246 1.6401-0.90352 2.7449-2.2646 2.7449-2.2646s0.60359 0.67462 0.94704 0.96693c0.56932 0.48455 1.2915 1.0185 1.8324 1.2928 1.2186 0.61813 2.5992 1.0388 3.9655 1.0388 1.5538 0 3.1414-0.44465 4.5094-1.1813 1.1439-0.61578 2.1257-1.5605 2.9001-2.6035 0.60426-0.81364 1.0261-1.7672 1.2904-2.7533 0.2447-0.91324 0.28461-1.6854 0.28461-1.6854z" stroke-width=".17808"/><path d="m214.89 546.29-4.3582-6e-3v9.7458h-10.702v-9.7453h-4.384v24.359h4.3838v-9.7351h10.703v9.7351h4.3633z"/><path d="m289.66 546.75-4.0391 1.7e-4v0.44936s-2.27-0.81509-3.458-0.90524c-1.4453-0.10969-2.9536-0.0169-4.3243 0.4539-1.0995 0.37743-2.2316 0.9538-3.2226 1.6397-0.46792 0.32382-0.88709 0.68426-1.2606 1.1513-0.42796 0.53557-0.66243 1.2573-0.67531 1.9428-0.0171 0.9044 0.17905 1.9044 0.7936 2.595 1.2611 1.417 3.1363 2.365 5.0525 2.8296 0.72273 0.17498 1.4348 0.25346 2.1461 0.33135 0.75093 0.0827 1.8895-0.0371 2.8441-0.26339 1.1401-0.27065 2.0419-0.6665 2.0419-0.6665s0.10382 0.65854 0.0504 0.98222c-0.0799 0.49662-0.3195 1.0894-0.54939 1.406-0.56508 0.77807-1.5875 1.141-2.5036 1.4336-0.32698 0.10445-0.68184 0.0885-1.0249 0.10037-0.42296 0.0149-0.84717-6e-3 -1.269-0.0395-0.68221-0.0547-1.4859-0.15974-2.0356-0.2712-1.883-0.38146-2.9233-0.95854-2.9233-0.95854l-1.6337 3.6423s1.3205 0.63459 3.1436 1.0945c1.4329 0.36164 3.2676 0.58237 4.3978 0.52506 2.1484-0.10937 4.3175-0.58179 5.8563-1.9071 1.5389-1.3253 2.5918-3.1271 2.5918-5.243zm-4.182 4.9905s-0.74478 0.59868-1.7388 0.99245c-0.87109 0.34519-1.949 0.49232-2.6737 0.48745-0.66995-6e-3 -1.8197-0.22156-2.6304-0.54937-0.99645-0.4027-1.5984-0.93053-1.5984-0.93053s0.51434-0.50685 1.4371-0.88809c0.87234-0.3603 2.1335-0.59618 2.8717-0.59679 0.7279-5.4e-4 1.7668 0.16136 2.6334 0.51454 0.95123 0.38793 1.6991 0.97034 1.6991 0.97034z"/><path d="m386.38 546.76-4.0001 1.7e-4v0.4449s-2.248-0.80718-3.4246-0.89645c-1.4313-0.10864-2.925-0.0168-4.2825 0.44958-1.0888 0.37372-2.21 0.94452-3.1914 1.6238-0.46341 0.32074-0.87854 0.67768-1.2484 1.1402-0.42386 0.5304-0.65601 1.2452-0.66878 1.9241-0.0171 0.89563 0.17736 1.886 0.78588 2.57 1.249 1.4033 3.1061 2.3422 5.0037 2.8022 0.71574 0.17334 1.421 0.25103 2.1254 0.32821 0.74371 0.0822 1.8713-0.0369 2.8167-0.26094 1.129-0.268 2.0221-0.66003 2.0221-0.66003s0.1029 0.65225 0.0501 0.97273c-0.0796 0.49186-0.31643 1.079-0.54407 1.3924-0.55961 0.77057-1.5722 1.1301-2.4794 1.4199-0.32376 0.10345-0.67525 0.088-1.0151 0.0996-0.41886 0.0148-0.83896-6e-3 -1.2567-0.0394-0.67561-0.0544-1.4715-0.1582-2.016-0.26858-1.8647-0.37776-2.895-0.94927-2.895-0.94927l-1.6179 3.6071s1.3078 0.62849 3.1132 1.084c1.4191 0.35812 3.2361 0.57674 4.3554 0.51995 2.1277-0.10828 4.2758-0.57616 5.7997-1.8887 1.524-1.3124 2.5668-3.097 2.5668-5.1924zm-4.1417 4.9423s-0.73762 0.59291-1.722 0.98289c-0.86265 0.34189-1.9301 0.48758-2.6478 0.48274-0.66353-6e-3 -1.8022-0.21944-2.605-0.54411-0.98682-0.39878-1.583-0.92152-1.583-0.92152s0.50937-0.502 1.4232-0.87952c0.8639-0.35681 2.1128-0.59044 2.8439-0.59105 0.72085-5.4e-4 1.7498 0.15978 2.608 0.50962 0.94201 0.38417 1.6826 0.96095 1.6826 0.96095z"/><path d="m414.57 557.2c0.19205-0.64902 0.2463-2.0155 0.2463-2.0155v-8.8692h-3.9259v9.1096s-0.0444 0.72805-0.32815 1.501c-0.21663 0.59015-0.62278 1.2065-0.95908 1.545-0.4467 0.44965-0.96532 0.87901-1.5614 1.1614-0.68838 0.32613-1.4702 0.47069-2.202 0.45847-0.83583-0.0145-1.7089-0.27846-2.4455-0.73875-0.40245-0.25148-0.74316-0.5871-1.0634-0.91276-0.34848-0.35443-0.72632-0.98748-0.95013-1.5833-0.23671-0.63011-0.30948-1.2142-0.30948-1.2142l-0.0235-9.3266h-3.8995v17.231h3.8995v-1.0291s0.77292 0.56573 1.8351 0.96256c1.067 0.39864 2.4254 0.62824 3.3193 0.55031 1.048-0.0915 2.7018-0.41084 3.8973-1.023 1.0541-0.53974 2.0076-1.3307 2.7406-2.2608 0.81411-1.033 1.3566-2.2852 1.7298-3.5464z" stroke-width=".17668"/></g></g></svg>