<svg width="316" height="100" version="1.1" viewBox="0 0 316 100" xmlns="http://www.w3.org/2000/svg"><g transform="translate(-599.21 -129.82)"><path d="m865.21 129.82h-266v100h266l50-50z" fill="#003e8d" fill-rule="evenodd" style="paint-order:stroke fill markers"/><g fill="#fff"><path d="m615.32 133.8c-6.7249 3e-5 -12.139 5.4139-12.139 12.139v67.721c0 6.7249 5.4139 12.139 12.139 12.139l248.25-2e-3 45.978-45.977-45.978-46.019zm-0.1323 4.0208h238.05l29.975 41.998-29.975 42h-238.05c-4.3978 0-7.9382-3.5404-7.9382-7.9382v-68.122c0-4.3978 3.5404-7.9382 7.9382-7.9382z" fill-rule="evenodd" style="paint-order:stroke fill markers"/><path d="m652.21 153.83-3.2166 2.3711 6.6896 8.9325-29.001 38.697h-3.4709v1.9908h69.982v-1.9908h-3.5618l0.0475-2e-3 -29.001-38.695 6.733-8.9325-3.2187-2.3711-6.0115 8.0002zm5.9702 35.986 9.3563 14.014h-18.671z" fill-rule="evenodd" style="paint-order:stroke fill markers"/><path d="m711.19 180.75-0.97988 10.632 3.7789 3.0326s0.94562-0.47242 2.1127-0.77521c0.94586-0.24526 2.0514-0.32543 2.8032-0.37624 0.75742-0.0512 1.5757 0.0844 2.3504 0.29148 0.5304 0.14182 1.0092 0.33757 1.476 0.5871 0.31702 0.16944 0.5981 0.32755 0.88684 0.61191 0.58976 0.58083 1.0808 1.4484 1.0481 2.3525 0 0.84958-0.26958 1.7712-0.81242 2.4393-0.27064 0.33314-0.6505 0.47574-1.0171 0.76901-1.1018 0.85713-3.1327 1.0363-4.734 0.90339-0.9609-0.0797-2.5489-0.42879-3.719-0.90752-1.5391-0.62974-2.5634-1.416-2.5634-1.416l-2.6337 3.6487s2.0361 1.3475 3.1629 1.7964c1.8046 0.71911 3.7261 1.1949 5.658 1.3974 1.0278 0.10767 2.2035 0.0168 3.0988-0.10339 0.98208-0.13176 1.7573-0.41093 2.5634-0.7256 0.90422-0.35295 1.7807-0.78529 2.5344-1.383 0.64148-0.50874 1.2217-1.124 1.6373-1.8295 0.32184-0.54628 0.65728-1.0916 0.88066-1.6972 0.25012-0.67813 0.37248-1.4208 0.44444-2.1106 0.15068-1.4432-0.27624-3.076-0.91786-4.3784-0.17816-0.36173-0.3583-0.6775-0.59742-0.97367-0.56704-0.70221-1.2313-1.3351-1.9577-1.8708-0.47008-0.3467-0.99304-0.60982-1.5298-0.85377-0.97754-0.44425-2.1869-0.79104-3.2745-0.96332-0.5908-0.0939-1.0885-0.14596-1.6352-0.12818-0.75914 0.0215-1.904 0.12524-2.8259 0.27288-0.84676 0.13544-1.5049 0.31628-1.5049 0.31628l0.36176-4.06 11.891 0.0228v-4.5004zm40.241 0c-3.2729 0-5.6135 1.4504-7.4979 3.69-1.8844 2.2157-3.1257 4.9202-3.1257 8.7734 0 3.3956 1.0758 6.1431 2.7618 8.455 1.1576 1.6001 2.6868 2.7789 4.3619 3.4502 1.1234 0.45023 2.3124 0.65859 3.4998 0.66565 2.6746 0.0178 5.2972-1.316 7.1568-3.628 1.8844-2.336 3.1443-5.2342 3.1443-9.0152 0-3.7086-1.1793-6.4187-3.0885-8.6824-1.8844-2.2878-4.1381-3.7086-7.2126-3.7086zm31.858 0c-3.2729 0-5.6135 1.4504-7.4979 3.69-1.8844 2.2157-3.1236 4.9202-3.1236 8.7734 0 3.3956 1.0738 6.1431 2.7598 8.455 1.1576 1.6001 2.6869 2.7789 4.3619 3.4502 1.1234 0.45023 2.3125 0.65859 3.4998 0.66565 2.6747 0.0178 5.2972-1.316 7.1568-3.628 1.8844-2.336 3.1443-5.2342 3.1443-9.0152 0-3.7086-1.1793-6.4187-3.0884-8.6824-1.8844-2.2878-4.1381-3.7086-7.2126-3.7086zm-31.885 4.5293c1.8596 0 3.1386 1.1205 4.1552 2.5654 0.78836 1.0938 1.3502 2.5252 1.5918 3.9732 0.0778 0.46473 0.0727 0.93819 0.0951 1.3933 0.0571 1.1058-0.20428 2.3301-0.5747 3.4275-0.12446 0.36861-0.31706 0.73791-0.50648 1.0915-0.14898 0.27803-0.30886 0.55284-0.49404 0.80829-0.41228 0.56865-0.7889 1.2016-1.3644 1.6042-0.83782 0.58609-1.4578 1.0667-2.8755 1.0667-0.9288-1e-5 -1.7653-0.18838-2.4807-0.5995-0.73594-0.423-1.3447-1.0802-1.8853-1.813-1.0662-1.469-1.7199-3.0088-1.7199-5.5857 0-2.5527 0.8109-4.2193 1.877-5.6642 1.0661-1.445 2.2976-2.2678 4.182-2.2678zm31.858 0c1.8596 0 3.1386 1.1205 4.1552 2.5654 0.78836 1.0938 1.3502 2.5252 1.5918 3.9732 0.0778 0.46473 0.0748 0.93819 0.0971 1.3933h-3e-3c0.0571 1.1058-0.20222 2.3301-0.57262 3.4275-0.12448 0.36861-0.31708 0.73791-0.50648 1.0915-0.149 0.27803-0.30888 0.55284-0.49406 0.80829-0.41224 0.56865-0.79096 1.2016-1.3665 1.6042-0.8378 0.58609-1.4577 1.0667-2.8755 1.0667-0.9288-1e-5 -1.7633-0.18838-2.4786-0.5995-0.73594-0.423-1.3467-1.0802-1.8874-1.813-1.0662-1.469-1.7199-3.0088-1.7199-5.5857 0-2.5527 0.81296-4.2193 1.8791-5.6642 1.0661-1.445 2.2955-2.2678 4.18-2.2678zm45.32 1.9908c-1.4272 0-2.8678 0.43966-4.1407 1.0853-0.565 0.28658-1.3196 0.84385-1.9142 1.3499-0.3589 0.30542-0.9902 1.0109-0.9902 1.0109s-1.1541-1.4233-2.8673-2.367c-1.2723-0.7008-2.9801-0.97307-4.0766-1.0688-0.93528-0.0815-2.3566 0.15761-3.473 0.5747-1.1113 0.41517-1.9205 1.0067-1.9205 1.0067v-1.077h-4.0786v18.028h4.0786l0.0247-9.7574s0.077-0.61209 0.32456-1.2714c0.23414-0.62338 0.62976-1.2851 0.99434-1.6558 0.33506-0.34073 0.6911-0.69194 1.1122-0.95506 0.77058-0.48156 1.6827-0.75791 2.5572-0.77315 0.76564-0.0128 1.5848 0.1384 2.305 0.47959 0.6237 0.29545 1.1658 0.74506 1.6331 1.2155 0.3518 0.35419 0.7759 0.9992 1.0026 1.6166 0.2969 0.80874 0.3452 1.5711 0.3452 1.5711v9.53h4.1055v-9.2798s-0.016-0.8325 0.2915-1.6765c0.3093-0.84947 0.945-1.7119 1.4678-2.1933 0.6495-0.59818 1.5023-0.98801 2.3979-1.1638 0.3569-0.0683 0.7386-0.0582 1.0895-0.0848 0.7411-0.056 1.8084 0.28021 2.6978 0.86823 0.6151 0.40675 1.0981 0.96371 1.5172 1.4698 0.5665 0.6838 0.8374 2.5303 0.8374 2.5303v9.53h4.1406l-0.076-9.9537s-0.042-0.80732-0.2977-1.7613c-0.276-1.0302-0.7167-2.0256-1.3478-2.8755-0.809-1.0894-1.8337-2.0752-3.0285-2.7184-1.4292-0.76939-3.0882-1.2342-4.7113-1.2342z"/></g></g></svg>