<?xml version="1.0" encoding="UTF-8" standalone="no"?>
<svg
   xmlns:dc="http://purl.org/dc/elements/1.1/"
   xmlns:cc="http://creativecommons.org/ns#"
   xmlns:rdf="http://www.w3.org/1999/02/22-rdf-syntax-ns#"
   xmlns:svg="http://www.w3.org/2000/svg"
   xmlns="http://www.w3.org/2000/svg"
   xmlns:sodipodi="http://sodipodi.sourceforge.net/DTD/sodipodi-0.dtd"
   xmlns:inkscape="http://www.inkscape.org/namespaces/inkscape"
   version="1.1"
   id="svg8427"
   width="316.00354"
   height="100"
   viewBox="0 0 316.00355 100"
   sodipodi:docname="Turkey_road_sign_B-16b.svg"
   inkscape:export-filename="C:\Users\Adinan\Documents\rect9004.png"
   inkscape:export-xdpi="96"
   inkscape:export-ydpi="96"
   inkscape:version="1.0 (4035a4fb49, 2020-05-01)">
  <metadata
     id="metadata8433">
    <rdf:RDF>
      <cc:Work
         rdf:about="">
        <dc:format>image/svg+xml</dc:format>
        <dc:type
           rdf:resource="http://purl.org/dc/dcmitype/StillImage" />
        <dc:title />
      </cc:Work>
    </rdf:RDF>
  </metadata>
  <defs
     id="defs8431" />
  <sodipodi:namedview
     inkscape:document-rotation="0"
     pagecolor="#ffffff"
     bordercolor="#666666"
     borderopacity="1"
     objecttolerance="10"
     gridtolerance="10"
     guidetolerance="10"
     inkscape:pageopacity="0"
     inkscape:pageshadow="2"
     inkscape:window-width="1920"
     inkscape:window-height="1001"
     id="namedview8429"
     showgrid="true"
     inkscape:zoom="0.5"
     inkscape:cx="-234.15567"
     inkscape:cy="285.74659"
     inkscape:window-x="-9"
     inkscape:window-y="-9"
     inkscape:window-maximized="1"
     inkscape:current-layer="g8435">
    <inkscape:grid
       type="xygrid"
       id="grid18096"
       originx="-215.91954"
       originy="-269.06847" />
  </sodipodi:namedview>
  <g
     inkscape:groupmode="layer"
     inkscape:label="Image"
     id="g8435"
     transform="translate(-599.20962,-129.82283)">
    <path
       id="rect17196"
       style="opacity:1;fill:#003e8d;fill-opacity:1;fill-rule:evenodd;stroke:none;stroke-width:1.9;stroke-linecap:square;stroke-linejoin:round;stroke-miterlimit:2;paint-order:stroke fill markers"
       d="M 865.21315,129.82283 H 599.20962 v 100 h 266.00353 l 50,-49.99999 z"
       sodipodi:nodetypes="cccccc" />
    <path
       id="rect17199"
       style="opacity:1;fill:#ffffff;fill-rule:evenodd;stroke:none;stroke-width:1.9;stroke-linecap:square;stroke-linejoin:round;stroke-miterlimit:2;paint-order:stroke fill markers"
       d="m 615.31676,133.80327 c -6.72491,3e-5 -12.13881,5.41391 -12.13881,12.13881 v 67.72061 c 0,6.72492 5.4139,12.13882 12.13881,12.13882 l 248.24619,-0.002 45.9775,-45.97741 -45.9775,-46.01877 z m -0.1323,4.02078 h 238.04649 l 29.9749,41.99798 -29.9749,42.00005 H 615.18446 c -4.39776,0 -7.93819,-3.54043 -7.93819,-7.93819 v -68.12165 c 0,-4.39776 3.54043,-7.93819 7.93819,-7.93819 z" />
    <path
       id="rect17208"
       style="opacity:1;fill:#ffffff;fill-rule:evenodd;stroke:none;stroke-width:1.9;stroke-linecap:square;stroke-linejoin:round;stroke-miterlimit:2;paint-order:stroke fill markers"
       d="m 652.21487,153.82859 -3.21662,2.37113 6.68958,8.93252 -29.00126,38.69661 h -3.4709 v 1.99075 h 69.98216 v -1.99075 h -3.56184 l 0.0475,-0.002 -29.00126,-38.69453 6.733,-8.93253 -3.2187,-2.37113 -6.01152,8.00022 z m 5.97018,35.98646 9.35632,14.0138 h -18.6713 z" />
    <path
       id="path108140"
       style="font-style:normal;font-variant:normal;font-weight:normal;font-stretch:normal;font-size:30px;line-height:1.15;font-family:'Highway Gothic Wide';-inkscape-font-specification:'Highway Gothic Wide';opacity:1;fill:#ffffff;fill-opacity:1;stroke-width:1"
       d="m 711.19107,180.75436 -0.97988,10.63179 3.77892,3.03263 c 0,0 0.94562,-0.47242 2.11272,-0.77521 0.94586,-0.24526 2.05144,-0.32543 2.80318,-0.37624 0.75742,-0.0512 1.57568,0.0844 2.35044,0.29148 0.5304,0.14182 1.00916,0.33757 1.476,0.5871 0.31702,0.16944 0.5981,0.32755 0.88684,0.61191 0.58976,0.58083 1.08084,1.4484 1.0481,2.35251 0,0.84958 -0.26958,1.77119 -0.81242,2.43934 -0.27064,0.33314 -0.6505,0.47574 -1.01708,0.76901 -1.10182,0.85713 -3.13274,1.03632 -4.73398,0.90339 -0.9609,-0.0797 -2.54892,-0.42879 -3.71896,-0.90752 -1.5391,-0.62974 -2.56336,-1.41605 -2.56336,-1.41605 l -2.63366,3.64866 c 0,0 2.03612,1.34749 3.16286,1.79644 1.80456,0.71911 3.7261,1.19492 5.65802,1.39744 1.02778,0.10767 2.20352,0.0168 3.0988,-0.10339 0.98208,-0.13176 1.75732,-0.41093 2.56338,-0.7256 0.90422,-0.35295 1.78074,-0.78529 2.53442,-1.38298 0.64148,-0.50874 1.22168,-1.12405 1.63726,-1.82951 0.32184,-0.54628 0.65728,-1.09162 0.88066,-1.6972 0.25012,-0.67813 0.37248,-1.42083 0.44444,-2.11065 0.15068,-1.44325 -0.27624,-3.07596 -0.91786,-4.37841 -0.17816,-0.36173 -0.3583,-0.6775 -0.59742,-0.97367 -0.56704,-0.70221 -1.2313,-1.33511 -1.95768,-1.87085 -0.47008,-0.3467 -0.99304,-0.60982 -1.52976,-0.85377 -0.97754,-0.44425 -2.1869,-0.79104 -3.2745,-0.96332 -0.5908,-0.0939 -1.08848,-0.14596 -1.6352,-0.12818 -0.75914,0.0215 -1.90402,0.12524 -2.8259,0.27288 -0.84676,0.13544 -1.50494,0.31628 -1.50494,0.31628 l 0.36176,-4.06005 11.89074,0.0228 v -4.50037 z m 40.24084,0 c -3.27288,0 -5.6135,1.45041 -7.49788,3.69 -1.88436,2.21566 -3.12566,4.92019 -3.12566,8.77337 0,3.3956 1.07584,6.14311 2.76184,8.45499 1.1576,1.60008 2.68682,2.77887 4.36188,3.45022 1.1234,0.45023 2.31244,0.65859 3.49982,0.66565 2.67464,0.0178 5.29718,-1.31605 7.15678,-3.628 1.88438,-2.33598 3.14426,-5.23425 3.14426,-9.01522 0,-3.70862 -1.1793,-6.41866 -3.08846,-8.6824 -1.88438,-2.28783 -4.13808,-3.70861 -7.21258,-3.70861 z m 31.85818,0 c -3.27286,0 -5.6135,1.45041 -7.49786,3.69 -1.88436,2.21566 -3.1236,4.92019 -3.1236,8.77337 0,3.3956 1.07376,6.14311 2.75976,8.45499 1.1576,1.60008 2.68686,2.77887 4.36188,3.45022 1.1234,0.45023 2.31246,0.65859 3.49982,0.66565 2.67468,0.0178 5.29718,-1.31605 7.15678,-3.628 1.88438,-2.33598 3.14426,-5.23425 3.14426,-9.01522 0,-3.70862 -1.1793,-6.41866 -3.08844,-8.6824 -1.88438,-2.28783 -4.13808,-3.70861 -7.2126,-3.70861 z m -31.88506,4.5293 c 1.85958,0 3.13858,1.12053 4.15516,2.56545 0.78836,1.09385 1.35022,2.52523 1.59176,3.97323 0.0778,0.46473 0.0727,0.93819 0.0951,1.39331 0.0571,1.10575 -0.20428,2.33008 -0.5747,3.42749 -0.12446,0.36861 -0.31706,0.73791 -0.50648,1.0915 -0.14898,0.27803 -0.30886,0.55284 -0.49404,0.80829 -0.41228,0.56865 -0.7889,1.20162 -1.36438,1.60417 -0.83782,0.58609 -1.45778,1.06668 -2.87554,1.0667 -0.9288,-1e-5 -1.76534,-0.18838 -2.48068,-0.5995 -0.73594,-0.423 -1.34468,-1.08023 -1.88532,-1.81297 -1.06616,-1.46903 -1.71994,-3.00885 -1.71994,-5.58568 0,-2.55273 0.8109,-4.21931 1.87704,-5.66422 1.06614,-1.44499 2.29762,-2.26777 4.18202,-2.26777 z m 31.85818,0 c 1.85956,0 3.13858,1.12053 4.15516,2.56545 0.78836,1.09385 1.35022,2.52523 1.59176,3.97323 0.0778,0.46473 0.0748,0.93819 0.0971,1.39331 h -0.003 c 0.0571,1.10575 -0.20222,2.33008 -0.57262,3.42749 -0.12448,0.36861 -0.31708,0.73791 -0.50648,1.0915 -0.149,0.27803 -0.30888,0.55284 -0.49406,0.80829 -0.41224,0.56865 -0.79096,1.20162 -1.36646,1.60417 -0.8378,0.58609 -1.45772,1.06668 -2.87552,1.0667 -0.9288,-1e-5 -1.76328,-0.18838 -2.4786,-0.5995 -0.73594,-0.423 -1.34674,-1.08023 -1.8874,-1.81297 -1.06616,-1.46903 -1.71994,-3.00885 -1.71994,-5.58568 0,-2.55273 0.81296,-4.21931 1.87912,-5.66422 1.06614,-1.44499 2.29554,-2.26777 4.17996,-2.26777 z m 45.32004,1.99075 c -1.4272,0 -2.8678,0.43966 -4.1407,1.0853 -0.565,0.28658 -1.3196,0.84385 -1.9142,1.34991 -0.3589,0.30542 -0.9902,1.01088 -0.9902,1.01088 0,0 -1.1541,-1.42332 -2.8673,-2.36699 -1.27232,-0.7008 -2.9801,-0.97307 -4.07658,-1.06876 -0.93528,-0.0815 -2.35662,0.15761 -3.47296,0.5747 -1.11126,0.41517 -1.92048,1.00674 -1.92048,1.00674 v -1.07703 h -4.07864 v 18.02837 h 4.07864 l 0.0247,-9.75736 c 0,0 0.077,-0.61209 0.32456,-1.27135 0.23414,-0.62338 0.62976,-1.28508 0.99434,-1.65585 0.33506,-0.34073 0.6911,-0.69194 1.11218,-0.95506 0.77058,-0.48156 1.6827,-0.75791 2.55716,-0.77315 0.76564,-0.0128 1.58476,0.1384 2.30496,0.47959 0.6237,0.29545 1.16578,0.74506 1.63312,1.21554 0.3518,0.35419 0.7759,0.9992 1.0026,1.61658 0.2969,0.80874 0.3452,1.5711 0.3452,1.5711 v 9.52996 h 4.1055 v -9.27982 c 0,0 -0.016,-0.8325 0.2915,-1.67653 0.3093,-0.84947 0.945,-1.7119 1.4678,-2.19334 0.6495,-0.59818 1.5023,-0.98801 2.3979,-1.16385 0.3569,-0.0683 0.7386,-0.0582 1.0895,-0.0848 0.7411,-0.056 1.8084,0.28021 2.6978,0.86823 0.6151,0.40675 1.0981,0.96371 1.5172,1.46981 0.5665,0.6838 0.8374,2.5303 0.8374,2.5303 v 9.52996 h 4.1406 l -0.076,-9.95374 c 0,0 -0.042,-0.80732 -0.2977,-1.7613 -0.276,-1.03019 -0.7167,-2.02559 -1.3478,-2.87551 -0.809,-1.08941 -1.8337,-2.07521 -3.0285,-2.71842 -1.4292,-0.76939 -3.0882,-1.23415 -4.7113,-1.23415 z" />
  </g>
</svg>
