<svg width="271.64" height="189.08" version="1.1" xmlns="http://www.w3.org/2000/svg"><g transform="translate(-510.78 -119.43)"><path d="m510.78 119.43h271.64v189.08h-271.64z" fill="#00408b"/><path d="m536.03 127.13h222.14c9.124 0 16.469 6.9132 16.469 15.5v142.13c0 8.5873-7.3453 15.5-16.469 15.5h-222.14c-9.124 0-16.469-6.9132-16.469-15.5v-142.13c0-8.5873 7.3453-15.5 16.469-15.5z" fill="none" stroke="#fff" stroke-linecap="round" stroke-linejoin="round" stroke-miterlimit="3.864" stroke-width="5"/><g transform="translate(3.4252 -1.3701)"><path d="m593.07 149.88h97.101v64.734h-97.101z" fill="#e30a17" stroke="#fff"/><circle transform="matrix(.080917 0 0 .080917 593.07 149.88)" cx="425" cy="400" r="200" d="m 625,400 c 0,110.45695 -89.54305,200 -200,200 -110.45695,0 -200,-89.54305 -200,-200 0,-110.45695 89.54305,-200 200,-200 110.45695,0 200,89.54305 200,200 z" fill="#fff"/><circle transform="matrix(.080917 0 0 .080917 593.07 149.88)" cx="475" cy="400" r="160" d="m 635,400 c 0,88.36556 -71.63444,160 -160,160 -88.36556,0 -160,-71.63444 -160,-160 0,-88.36556 71.63444,-160 160,-160 88.36556,0 160,71.63444 160,160 z" fill="#e30a17"/><polygon transform="matrix(.080917 0 0 .080917 593.07 149.88)" points="764.24 458.78 652.43 304.89 652.43 495.11 764.24 341.22 583.33 400" fill="#fff"/></g><g fill="#fff" aria-label="TURKIYE"><g stroke-width="1.1152"><path d="m558.34 253.42h-8.6092v24.623h-5.219v-24.623h-8.6092v-5.2636h22.437z"/><path d="m631.65 278.05h-5.9774l-4.8176-11.732h-7.9401v11.732h-5.3528v-29.887h13.739q2.9441 0 5.1298 1.249 4.5945 2.6764 4.5945 7.8955 0 5.3082-4.8176 7.9401zm-5.9774-20.742q0-1.7397-1.1598-2.7656-1.1598-1.026-3.1225-1.026h-8.4754v7.4494h8.4754q1.9627 0 3.1225-0.98135 1.1598-1.026 1.1598-2.6764z"/><path d="m669.92 278.05h-6.1112l-7.6278-15.523-5.6651 7.1371v8.3861h-5.3529v-29.887h5.3529v12.713l10.572-12.713h6.9141l-7.9401 9.769z"/><path d="m685.57 278.05h-5.3528v-29.887h5.3528z"/><path d="m726.56 248.16-12.579 17.709v12.178h-5.3528v-12.178l-12.579-17.709h6.6018l8.6984 12.178 8.6092-12.178z"/><path d="m757.81 278.05h-22.304v-29.887h21.813v5.3528h-16.371v5.5759h8.9214v5.4421h-8.9214v8.1631h16.861z"/></g><g transform="matrix(.9515 0 0 .9515 207.46 39.346)" aria-label="U"><path d="m378.41 211.08-1.9e-4 6.0109 5.7658-0.0266v-5.9842zm20.228 0v5.9842h5.7173v-5.9842zm-20.228 8.3979v19.173c0 3.9398 1.2175 7.1919 3.6519 9.7544 2.4343 2.5304 5.5412 3.7954 9.3208 3.7954 3.7796 0 6.8865-1.265 9.3208-3.7954 2.4343-2.5624 3.6519-5.8146 3.6519-9.7544v-19.173h-5.7173v19.173c0 1.6336-0.35294 3.0276-1.0576 4.1807-1.3773 2.3382-3.4431 3.5068-6.1978 3.5068-2.7226 0-4.7884-1.1686-6.1978-3.5068-0.67263-1.1531-1.0093-2.5471-1.0093-4.1807l-3.2e-4 -19.173z" fill="#fff" stroke-width="1.2011"/></g><g transform="matrix(.9515 0 0 .9515 320.03 39.021)" aria-label="U"><path d="m378.41 211.29-1.9e-4 6.0109 5.7658-0.0266v-5.9842z" fill="#fff" stroke-width="1.2011"/></g></g></g></svg>