<?xml version="1.0" encoding="UTF-8" standalone="no"?>
<!-- Created with Inkscape (http://www.inkscape.org/) -->

<svg
   xmlns:dc="http://purl.org/dc/elements/1.1/"
   xmlns:cc="http://creativecommons.org/ns#"
   xmlns:rdf="http://www.w3.org/1999/02/22-rdf-syntax-ns#"
   xmlns:svg="http://www.w3.org/2000/svg"
   xmlns="http://www.w3.org/2000/svg"
   xmlns:sodipodi="http://sodipodi.sourceforge.net/DTD/sodipodi-0.dtd"
   xmlns:inkscape="http://www.inkscape.org/namespaces/inkscape"
   width="271.64441"
   height="189.08455"
   id="svg68865"
   version="1.1"
   inkscape:version="0.92.4 (5da689c313, 2019-01-14)"
   sodipodi:docname="Turkey_road_sign_B-8a.svg">
  <defs
     id="defs68867">
    <inkscape:perspective
       sodipodi:type="inkscape:persp3d"
       inkscape:vp_x="0 : 526.18109 : 1"
       inkscape:vp_y="0 : 1000 : 0"
       inkscape:vp_z="744.09448 : 526.18109 : 1"
       inkscape:persp3d-origin="372.04724 : 350.78739 : 1"
       id="perspective68873" />
    <inkscape:perspective
       id="perspective49018"
       inkscape:persp3d-origin="0.5 : 0.33333333 : 1"
       inkscape:vp_z="1 : 0.5 : 1"
       inkscape:vp_y="0 : 1000 : 0"
       inkscape:vp_x="0 : 0.5 : 1"
       sodipodi:type="inkscape:persp3d" />
    <clipPath
       clipPathUnits="userSpaceOnUse"
       id="clipPath9316">
      <path
         d="m 0,0 189.75,0 0,276.52 L 0,276.52 0,0 z"
         id="path9318" />
    </clipPath>
    <inkscape:perspective
       id="perspective109388"
       inkscape:persp3d-origin="0.5 : 0.33333333 : 1"
       inkscape:vp_z="1 : 0.5 : 1"
       inkscape:vp_y="0 : 1000 : 0"
       inkscape:vp_x="0 : 0.5 : 1"
       sodipodi:type="inkscape:persp3d" />
    <inkscape:perspective
       id="perspective110523"
       inkscape:persp3d-origin="0.5 : 0.33333333 : 1"
       inkscape:vp_z="1 : 0.5 : 1"
       inkscape:vp_y="0 : 1000 : 0"
       inkscape:vp_x="0 : 0.5 : 1"
       sodipodi:type="inkscape:persp3d" />
    <inkscape:perspective
       id="perspective110560"
       inkscape:persp3d-origin="0.5 : 0.33333333 : 1"
       inkscape:vp_z="1 : 0.5 : 1"
       inkscape:vp_y="0 : 1000 : 0"
       inkscape:vp_x="0 : 0.5 : 1"
       sodipodi:type="inkscape:persp3d" />
    <inkscape:perspective
       id="perspective110606"
       inkscape:persp3d-origin="0.5 : 0.33333333 : 1"
       inkscape:vp_z="1 : 0.5 : 1"
       inkscape:vp_y="0 : 1000 : 0"
       inkscape:vp_x="0 : 0.5 : 1"
       sodipodi:type="inkscape:persp3d" />
    <inkscape:perspective
       id="perspective110642"
       inkscape:persp3d-origin="0.5 : 0.33333333 : 1"
       inkscape:vp_z="1 : 0.5 : 1"
       inkscape:vp_y="0 : 1000 : 0"
       inkscape:vp_x="0 : 0.5 : 1"
       sodipodi:type="inkscape:persp3d" />
    <inkscape:perspective
       id="perspective110669"
       inkscape:persp3d-origin="0.5 : 0.33333333 : 1"
       inkscape:vp_z="1 : 0.5 : 1"
       inkscape:vp_y="0 : 1000 : 0"
       inkscape:vp_x="0 : 0.5 : 1"
       sodipodi:type="inkscape:persp3d" />
    <inkscape:perspective
       id="perspective110691"
       inkscape:persp3d-origin="0.5 : 0.33333333 : 1"
       inkscape:vp_z="1 : 0.5 : 1"
       inkscape:vp_y="0 : 1000 : 0"
       inkscape:vp_x="0 : 0.5 : 1"
       sodipodi:type="inkscape:persp3d" />
    <inkscape:perspective
       id="perspective110879"
       inkscape:persp3d-origin="0.5 : 0.33333333 : 1"
       inkscape:vp_z="1 : 0.5 : 1"
       inkscape:vp_y="0 : 1000 : 0"
       inkscape:vp_x="0 : 0.5 : 1"
       sodipodi:type="inkscape:persp3d" />
    <inkscape:perspective
       id="perspective110944"
       inkscape:persp3d-origin="600 : 266.66667 : 1"
       inkscape:vp_z="1200 : 400 : 1"
       inkscape:vp_y="0 : 1000 : 0"
       inkscape:vp_x="0 : 400 : 1"
       sodipodi:type="inkscape:persp3d" />
  </defs>
  <sodipodi:namedview
     id="base"
     pagecolor="#ffffff"
     bordercolor="#666666"
     borderopacity="1.0"
     inkscape:pageopacity="0.0"
     inkscape:pageshadow="2"
     inkscape:zoom="0.3649472"
     inkscape:cx="92.54909"
     inkscape:cy="87.958495"
     inkscape:document-units="px"
     inkscape:current-layer="g110961"
     showgrid="false"
     inkscape:window-width="1600"
     inkscape:window-height="838"
     inkscape:window-x="-8"
     inkscape:window-y="-8"
     inkscape:window-maximized="1"
     showguides="true"
     inkscape:guide-bbox="true" />
  <metadata
     id="metadata68870">
    <rdf:RDF>
      <cc:Work
         rdf:about="">
        <dc:format>image/svg+xml</dc:format>
        <dc:type
           rdf:resource="http://purl.org/dc/dcmitype/StillImage" />
        <dc:title />
      </cc:Work>
    </rdf:RDF>
  </metadata>
  <g
     inkscape:label="Livello 1"
     inkscape:groupmode="layer"
     id="layer1"
     transform="translate(-510.77902,-119.43236)">
    <g
       id="g110967">
      <path
         style="fill:#00408b;fill-opacity:1;fill-rule:nonzero;stroke:none"
         d="M 510.77902,119.43236 H 782.42343 V 308.51691 H 510.77902 Z"
         id="rect108582" />
      <path
         style="fill:none;stroke:#ffffff;stroke-width:5;stroke-linecap:round;stroke-linejoin:round;stroke-miterlimit:3.86400008;stroke-dasharray:none;stroke-dashoffset:0;stroke-opacity:1"
         d="m 536.02974,127.12749 h 222.14262 c 9.12397,0 16.46926,6.91321 16.46926,15.50047 v 142.13318 c 0,8.58726 -7.34529,15.50047 -16.46926,15.50047 H 536.02974 c -9.12397,0 -16.46925,-6.91321 -16.46925,-15.50047 V 142.62796 c 0,-8.58726 7.34528,-15.50047 16.46925,-15.50047 z"
         id="rect108584" />
      <g
         transform="translate(3.425153,-1.3700612)"
         id="g110961">
        <path
           style="fill:#e30a17;stroke:#ffffff;stroke-opacity:1"
           d="m 593.06952,149.87601 h 97.10074 v 64.73382 h -97.10074 z"
           id="rect110930" />
        <circle
           d="m 625,400 c 0,110.45695 -89.54305,200 -200,200 -110.45695,0 -200,-89.54305 -200,-200 0,-110.45695 89.54305,-200 200,-200 110.45695,0 200,89.54305 200,200 z"
           id="circle110932"
           r="200"
           cy="400"
           cx="425"
           style="fill:#ffffff"
           sodipodi:cx="425"
           sodipodi:cy="400"
           sodipodi:rx="200"
           sodipodi:ry="200"
           transform="matrix(0.08091728,0,0,0.08091728,593.0695,149.87601)" />
        <circle
           d="m 635,400 c 0,88.36556 -71.63444,160 -160,160 -88.36556,0 -160,-71.63444 -160,-160 0,-88.36556 71.63444,-160 160,-160 88.36556,0 160,71.63444 160,160 z"
           id="circle110934"
           r="160"
           cy="400"
           cx="475"
           style="fill:#e30a17"
           sodipodi:cx="475"
           sodipodi:cy="400"
           sodipodi:rx="160"
           sodipodi:ry="160"
           transform="matrix(0.08091728,0,0,0.08091728,593.0695,149.87601)" />
        <polygon
           id="polygon110936"
           points="764.235,458.779 652.431,304.894 652.431,495.106 764.235,341.221 583.334,400 "
           style="fill:#ffffff"
           transform="matrix(0.08091728,0,0,0.08091728,593.0695,149.87601)" />
      </g>
      <g
         aria-label="TURKIYE"
         style="font-style:normal;font-weight:normal;font-size:44.60712051px;line-height:1.25;font-family:sans-serif;letter-spacing:0px;word-spacing:0px;fill:#ffffff;fill-opacity:1;stroke:none;stroke-width:1.11517799"
         id="text6699">
        <path
           d="m 558.34154,253.4228 h -8.60917 v 24.62313 h -5.21903 V 253.4228 h -8.60918 v -5.26364 h 22.43738 z"
           style="font-style:normal;font-variant:normal;font-weight:normal;font-stretch:normal;font-family:'Highway Gothic Wide';-inkscape-font-specification:'Highway Gothic Wide';stroke-width:1.11517799;fill:#ffffff;fill-opacity:1"
           id="path6701" />
        <path
           d="m 631.64601,278.04593 h -5.97735 l -4.81757,-11.73167 h -7.94007 v 11.73167 h -5.35285 v -29.88677 h 13.73899 q 2.94407,0 5.12982,1.249 4.59453,2.67642 4.59453,7.89546 0,5.30825 -4.81757,7.94007 z m -5.97735,-20.74231 q 0,-1.73968 -1.15979,-2.76564 -1.15978,-1.02597 -3.1225,-1.02597 h -8.47535 v 7.44939 h 8.47535 q 1.96272,0 3.1225,-0.98135 1.15979,-1.02597 1.15979,-2.67643 z"
           style="font-style:normal;font-variant:normal;font-weight:normal;font-stretch:normal;font-family:'Highway Gothic Wide';-inkscape-font-specification:'Highway Gothic Wide';stroke-width:1.11517799;fill:#ffffff;fill-opacity:1"
           id="path6705"
           inkscape:connector-curvature="0" />
        <path
           d="m 669.92449,278.04593 h -6.11118 l -7.62782,-15.52328 -5.6651,7.13714 v 8.38614 h -5.35286 v -29.88677 h 5.35286 v 12.71303 l 10.57189,-12.71303 h 6.9141 l -7.94007,9.76896 z"
           style="font-style:normal;font-variant:normal;font-weight:normal;font-stretch:normal;font-family:'Highway Gothic Wide';-inkscape-font-specification:'Highway Gothic Wide';stroke-width:1.11517799;fill:#ffffff;fill-opacity:1"
           id="path6707"
           inkscape:connector-curvature="0" />
        <path
           d="m 685.56973,278.04593 h -5.35285 v -29.88677 h 5.35285 z"
           style="font-style:normal;font-variant:normal;font-weight:normal;font-stretch:normal;font-family:'Highway Gothic Wide';-inkscape-font-specification:'Highway Gothic Wide';stroke-width:1.11517799;fill:#ffffff;fill-opacity:1"
           id="path6709"
           inkscape:connector-curvature="0" />
        <path
           d="m 726.56229,248.15916 -12.57921,17.70903 v 12.17774 h -5.35285 v -12.17774 l -12.57921,-17.70903 h 6.60185 l 8.69839,12.17774 8.60918,-12.17774 z"
           style="font-style:normal;font-variant:normal;font-weight:normal;font-stretch:normal;font-family:'Highway Gothic Wide';-inkscape-font-specification:'Highway Gothic Wide';stroke-width:1.11517799;fill:#ffffff;fill-opacity:1"
           id="path6711"
           inkscape:connector-curvature="0" />
        <path
           d="m 757.80991,278.04593 h -22.30356 v -29.88677 h 21.81288 v 5.35285 h -16.37081 v 5.57589 h 8.92142 v 5.44207 h -8.92142 v 8.1631 h 16.86149 z"
           style="font-style:normal;font-variant:normal;font-weight:normal;font-stretch:normal;font-family:'Highway Gothic Wide';-inkscape-font-specification:'Highway Gothic Wide';stroke-width:1.11517799;fill:#ffffff;fill-opacity:1"
           id="path6713"
           inkscape:connector-curvature="0" />
        <g
           aria-label="U"
           style="font-style:normal;font-weight:normal;font-size:48.04595566px;line-height:1.25;font-family:sans-serif;letter-spacing:0px;word-spacing:0px;fill:#ffffff;fill-opacity:1;stroke:none;stroke-width:1.20114887"
           id="text46787"
           transform="matrix(0.95149618,0,0,0.95149618,207.46311,39.345706)">
          <path
             id="path46789"
             style="font-style:normal;font-variant:normal;font-weight:normal;font-stretch:normal;font-family:'Highway Gothic Wide';-inkscape-font-specification:'Highway Gothic Wide';fill:#ffffff;fill-opacity:1;stroke-width:1.20114887"
             d="m 378.41155,211.08287 -1.9e-4,6.01087 5.76582,-0.0266 v -5.98425 z m 20.22778,0 v 5.98425 h 5.71729 v -5.98425 z m -20.22803,8.39787 v 19.17303 c 0,3.93976 1.21752,7.19194 3.65186,9.75439 2.43433,2.53042 5.54119,3.79541 9.32081,3.79541 3.77961,0 6.88647,-1.26499 9.32079,-3.79541 2.43433,-2.56245 3.65186,-5.81463 3.65186,-9.75439 v -19.17303 h -5.71729 v 19.17304 c 0,1.63357 -0.35294,3.02757 -1.05761,4.18067 -1.37732,2.33823 -3.44312,3.50683 -6.19775,3.50683 -2.72261,0 -4.78841,-1.1686 -6.19777,-3.50683 -0.67263,-1.1531 -1.00927,-2.5471 -1.00927,-4.18067 l -3.2e-4,-19.17304 z"
             inkscape:connector-curvature="0"
             sodipodi:nodetypes="cccccccccccscscsccscscscc" />
        </g>
        <g
           transform="matrix(0.95149618,0,0,0.95149618,320.02661,39.020618)"
           id="g6736"
           style="font-style:normal;font-weight:normal;font-size:48.04595566px;line-height:1.25;font-family:sans-serif;letter-spacing:0px;word-spacing:0px;fill:#ffffff;fill-opacity:1;stroke:none;stroke-width:1.20114887"
           aria-label="U">
          <path
             sodipodi:nodetypes="ccccc"
             inkscape:connector-curvature="0"
             d="m 378.41194,211.29316 -1.9e-4,6.01087 5.76582,-0.0266 v -5.98425 z"
             style="font-style:normal;font-variant:normal;font-weight:normal;font-stretch:normal;font-family:'Highway Gothic Wide';-inkscape-font-specification:'Highway Gothic Wide';fill:#ffffff;fill-opacity:1;stroke-width:1.20114887"
             id="path6734" />
        </g>
      </g>
    </g>
  </g>
</svg>
