<svg width="79.375mm" height="29.692mm" version="1.1" viewBox="0 0 79.375 29.692" xmlns="http://www.w3.org/2000/svg"><g transform="translate(61.487 -.448)"><path d="m-61.474 0.448h79.348c7e-3 0 0.01322 0.005985 0.01322 0.013289v29.665c0 7e-3 -0.0059 0.01328-0.01322 0.01328h-79.348c-7e-3 0-0.01329-6e-3 -0.01329-0.01328v-29.665c0-0.006991 6e-3 -0.013289 0.01329-0.013289z" fill="#00408c" fill-rule="evenodd" style="paint-order:fill markers stroke"/><path d="m-57.446 1.5087c-1.6323 0-2.9613 1.329-2.9613 2.9613v21.721c0 1.6323 1.329 2.9614 2.9613 2.9614h71.407c1.6323 0 2.9614-1.3291 2.9614-2.9614v-21.721c0-1.6323-1.3291-2.9613-2.9614-2.9613zm0 0.96038h71.407c1.1168 0 2.001 0.88407 2.001 2.0009v21.721c0 1.1168-0.8842 2.001-2.001 2.001h-71.407c-1.1168 0-2.0009-0.8842-2.0009-2.001v-21.721c0-1.1168 0.88407-2.0009 2.0009-2.0009z" color="#000000" color-rendering="auto" dominant-baseline="auto" enable-background="accumulate" fill="#fff" fill-rule="evenodd" image-rendering="auto" shape-rendering="auto" solid-color="#000000" stop-color="#000000" style="font-feature-settings:normal;font-variant-alternates:normal;font-variant-caps:normal;font-variant-east-asian:normal;font-variant-ligatures:normal;font-variant-numeric:normal;font-variant-position:normal;font-variation-settings:normal;inline-size:0;isolation:auto;mix-blend-mode:normal;paint-order:fill markers stroke;shape-margin:0;shape-padding:0;text-decoration-color:#000000;text-decoration-line:none;text-decoration-style:solid;text-indent:0;text-orientation:mixed;text-transform:none;white-space:normal"/><path d="m-48.367 5.532v1.1196h1.1152v-1.1196zm27.109 1.826v6.2405h3.1296c0.32289 0 0.64268-0.08698 0.95938-0.26085 0.28563-0.15523 0.4741-0.37561 0.64174-0.66127 0.17386-0.29184 0.26834-0.68769 0.26834-1.0044-0.0028-0.33314-0.13868-0.64575-0.29348-0.93247-0.08878-0.16432-0.35437-0.43381-0.35437-0.43381s0.39139-0.4951 0.39139-1.1161c0-0.63339-0.37417-1.2916-0.93925-1.6083-0.26078-0.14904-0.62101-0.22345-1.0805-0.22345zm-4.8731 8e-3c-0.09957-0.0021-0.19474 0.0021-0.27798 0.0021h-2.8865l0.0028 6.2309h1.1247v-2.612h1.0837l1.4604 2.6079h1.3072l-1.4901-2.6296c0.31889-0.06298 0.73772-0.26283 0.99075-0.54146 0.28501-0.31386 0.49995-0.7026 0.49995-1.1695 0-0.73097-0.28696-1.1478-0.71166-1.5051-0.2179-0.1833-0.50337-0.30735-0.79945-0.35853-0.10024-0.017202-0.20398-0.02328-0.30347-0.024582zm35.47 0c-0.099487-0.0021-0.19475 0.0021-0.27796 0.0021h-2.8865l0.00276 6.2309h1.1247v-2.612h1.0837l1.4605 2.6079h1.3071l-1.4901-2.6295c0.31888-0.06299 0.73771-0.26284 0.99076-0.54147 0.28501-0.31384 0.49995-0.70259 0.49995-1.1695 0-0.73098-0.28696-1.1478-0.71165-1.5051-0.2179-0.1833-0.50338-0.30735-0.79944-0.35853-0.10025-0.017202-0.204-0.023316-0.3035-0.024582zm-65.743 0.018414v6.2024l1.5586 6e-3s1.0987 0 1.2206-0.02398c0.06798-0.01302 0.12657-0.023 0.13029-0.02261 4e-3 0 0.01421-0.0022 0.02332-5e-3 9e-3 -4e-3 0.06269-0.01929 0.11942-0.03499 0.16242-0.04509 0.3104-0.1009 0.43992-0.16606 0.27024-0.13598 0.41988-0.24256 0.63813-0.45441 0.22259-0.2161 0.36693-0.41473 0.49619-0.68292 0.2801-0.58112 0.39954-1.5277 0.2935-2.3257-0.09508-0.71585-0.2566-1.1418-0.59962-1.5817-0.06209-0.079782-0.30793-0.31695-0.42129-0.40655-0.16558-0.13092-0.51501-0.31384-0.70289-0.36802-0.02829-0.00802-0.09318-0.027582-0.14393-0.04299-0.05079-0.015306-0.13871-0.035388-0.19546-0.044292-0.05669-0.00899-0.13007-0.021906-0.16292-0.028998-0.04379-0.00998-0.41136-0.013896-1.3768-0.016302zm21.108 0-2.4748 6.2007 1.1899 8e-3 0.4923-1.2178 2.7704-5e-3 0.51993 1.2281 1.2317-0.01352-2.4767-6.2007zm23.433 0-2.4749 6.2007 1.19 8e-3 0.4923-1.2178 2.7703-5e-3 0.51997 1.2281 1.2317-0.01352-2.4767-6.2007zm-36.504 0.014892v6.2083h1.1152v-6.2083zm43.725 0h-1.1118l-0.00802 6.2097h1.1198v-2.4906l0.46406-0.45644 2.0182 2.9449 1.3568 0.0021-2.5476-3.7163 2.5487-2.4938h-1.5985l-2.2395 2.1665zm6.2148 0v6.2083h1.1152v-6.2083zm-46.597 0 2.5407 3.7161v2.4767h1.1074v-2.4751l2.5369-3.7176h-1.3484l-1.7463 2.5551-1.745-2.555zm24.892 1.084h1.8302c0.18006 0.0123 0.3618 0.093077 0.46117 0.19858 0.12739 0.14185 0.20651 0.29093 0.2062 0.45856 0 0.20273-0.10472 0.41441-0.25223 0.55347-0.11192 0.10554-0.23791 0.1539-0.4304 0.16632h-1.815zm-8.0293 0.017202 1.7007 0.00318c0.09868 0 0.20323 0 0.30512 0.0021 0.07158 0 0.14225-0.00318 0.21022 0.014892 0.08708 0.022788 0.16448 0.054984 0.24422 0.11505 0.06939 0.052284 0.13811 0.12126 0.18034 0.20067 0.05658 0.10664 0.09208 0.23378 0.08778 0.35141-5e-3 0.14241-0.08338 0.32236-0.17655 0.43953-0.04719 0.059286-0.15556 0.14634-0.25312 0.18233-0.16683 0.061583-0.25665 0.042492-0.53156 0.043788l-1.7655 0.00802zm35.47 0 1.7007 0.00318c0.098675 0 0.20322 0 0.3051 0.0021 0.071588 0 0.14223-0.00318 0.21021 0.014892 0.087091 0.022788 0.16443 0.054984 0.24424 0.11505 0.069378 0.052284 0.1381 0.12126 0.18031 0.20067 0.056688 0.10664 0.092079 0.23378 0.087785 0.35141-5e-3 0.14241-0.08338 0.32236-0.17657 0.43953-0.04719 0.059286-0.15556 0.14634-0.25309 0.18233-0.16686 0.061583-0.25669 0.042492-0.5316 0.043788l-1.7654 0.00802zm-62.605 0.0021 0.7414 0.00402c0.81017 0.00402 0.78031 0.0021 0.98564 0.070986 0.09678 0.032694 0.28324 0.1234 0.33676 0.16381 0.14522 0.10973 0.23555 0.19749 0.31886 0.31 0.15988 0.21582 0.23665 0.42658 0.30539 0.8377 0.06349 0.37972 0.05799 0.97143-0.01187 1.2762-9e-3 0.0388-0.02359 0.10878-0.03248 0.15544-0.07109 0.37161-0.25509 0.67624-0.53646 0.88808-0.03889 0.0292-0.13164 0.08468-0.20633 0.12305-0.13042 0.06709-0.16716 0.07988-0.34762 0.12205-0.07238 0.01702-0.16333 0.01951-0.81732 0.02279l-0.73591 4e-3zm20.629 0.355 0.949 2.3784-1.9213 0.01352zm23.433 0 0.949 2.3784-1.9213 0.01352zm-8.8982 2.1181 1.9679 0.0032c0.24217 6e-3 0.43161 0.08998 0.56823 0.25148 0.14281 0.16144 0.21064 0.29661 0.2142 0.46819 4e-3 0.20086-0.08498 0.40905-0.22771 0.55809-0.13662 0.14902-0.31255 0.23055-0.55472 0.22434h-1.9568zm-23.444 6.1383v1.1252h1.1252v-1.1252zm4.355 1.8222 0.0028 6.1979h0.98701l-0.0028-6.1979zm-4.355 0.02801v6.1699h1.1352v-6.1699zm26.589 1.6737c-0.22322 0-0.51886 0.05529-0.75742 0.14443-0.27143 0.10142-0.46895 0.24598-0.46895 0.24598v-0.26298h-0.99638v4.4031h0.99638l6e-3 -2.3832s0.01868-0.14924 0.07919-0.31026c0.05728-0.15225 0.15368-0.31397 0.24274-0.40452 0.08188-0.08328 0.16887-0.16909 0.27172-0.23334 0.1882-0.11761 0.41129-0.18514 0.62488-0.1887 0.187-0.0031 0.38681 0.03389 0.56272 0.11716 0.15232 0.07218 0.28489 0.18184 0.39903 0.29673 0.08588 0.08648 0.18972 0.24399 0.24508 0.3948 0.07248 0.19752 0.08378 0.38351 0.08378 0.38351v2.3278h1.0033v-2.2662s-0.01401-0.34923-0.06299-0.51508c-0.09528-0.32227-0.23401-0.64226-0.44204-0.90623-0.18733-0.23769-0.43092-0.4398-0.70026-0.57772-0.3055-0.15642-0.72809-0.23797-0.99591-0.26134-0.0285-0.0032-0.05888-4e-3 -0.09078-4e-3zm11.188 0.0032h-0.076085c-0.17444 5e-3 -0.4265 0.04909-0.624 0.11655-0.19137 0.0654-0.33099 0.15407-0.33099 0.15407v-0.14368l-1.0006-7e-3v4.4026h1.0006l0.00396-2.6215s0.015204-0.21138 0.14769-0.41692c0.11572-0.17934 0.33879-0.3514 0.48958-0.41166 0.15333-0.06128 0.42103-0.08428 0.62836-0.0311 0.2124 0.05449 0.36263 0.18582 0.36263 0.18582l0.62075-0.78231s-0.24483-0.19712-0.57486-0.3245c-0.20515-0.07929-0.45933-0.11601-0.64686-0.12042zm-17.312 0.02758v4.495h0.99314v-4.4951zm11.396 0v4.495h0.99313v-4.4951zm8.9635 0v4.495h0.99316v-4.4951zm-24.657 0.01051c-0.20157 0-0.44919 0.02049-0.67138 0.05229-0.16408 0.02359-0.32618 0.06108-0.48669 0.1024-0.11215 0.02889-0.23166 0.04419-0.33224 0.10154-0.08469 0.04829-0.14426 0.11194-0.21598 0.19722-0.19119 0.22729-0.30147 0.63365-0.26096 0.96412 0.03477 0.28426 0.17823 0.51797 0.41803 0.75066 0.07278 0.06718 0.2146 0.1458 0.3325 0.19846 0.16705 0.07458 0.34893 0.1101 0.52394 0.16329 0.08258 0.02512 0.16538 0.04919 0.24812 0.07349 0.12875 0.03789 0.25765 0.07528 0.38651 0.11279 0.21753 0.06328 0.43649 0.12192 0.65275 0.18933 0.08588 0.0268 0.18063 0.04289 0.25598 0.08538 0.03659 0.0207 0.05899 0.05959 0.08608 0.09148 0.01608 0.0188 0.02 0.04599 0.02257 0.07068 0.0028 0.0207 6e-3 0.05349 4e-3 0.08008-0.0028 0.0267-0.02018 0.07809-0.02018 0.07809s-0.2903 0.07418-0.4384 0.09498c-0.15889 0.02229-0.35068 0.03139-0.48032 0.03139-0.4796-6e-3 -1.0313-0.06859-1.5677-0.35364l-0.4378 0.88359c0.62474 0.32578 1.2831 0.45076 2.034 0.46244 0.3245-4e-3 0.64459-0.05259 0.922-0.1098 0.10331-0.02141 0.19331-0.04879 0.2831-0.07479 0.08648-0.02501 0.17312-0.04789 0.24496-0.09728 0.14085-0.09919 0.22702-0.22445 0.2955-0.35278 0.10024-0.18791 0.14781-0.3931 0.15158-0.62125-6e-3 -0.43048-0.1509-0.64809-0.37618-0.86933-0.30644-0.30101-0.82942-0.39047-1.1917-0.49031-0.19581-0.05399-0.39681-0.11573-0.59535-0.17308-0.11337-0.0328-0.22906-0.05829-0.34028-0.09768-0.13612-0.04829-0.30422-0.06029-0.39878-0.16943-0.0373-0.04299-0.0447-0.10814-0.04379-0.16506 0-0.03118 0.0268-0.08978 0.0268-0.08978s0.56436-0.14272 0.85221-0.13918c0.48954 6e-3 1.0933 0.11042 1.4429 0.27412l0.37691-0.90635c-0.52441-0.22599-1.0836-0.34815-1.7021-0.34815z" fill="#fff"/></g></svg>