<?xml version="1.0" encoding="UTF-8" standalone="no"?>
<svg
   xmlns:dc="http://purl.org/dc/elements/1.1/"
   xmlns:cc="http://creativecommons.org/ns#"
   xmlns:rdf="http://www.w3.org/1999/02/22-rdf-syntax-ns#"
   xmlns:svg="http://www.w3.org/2000/svg"
   xmlns="http://www.w3.org/2000/svg"
   xmlns:sodipodi="http://sodipodi.sourceforge.net/DTD/sodipodi-0.dtd"
   xmlns:inkscape="http://www.inkscape.org/namespaces/inkscape"
   width="79.374992mm"
   height="29.691597mm"
   viewBox="0 0 79.374991 29.691597"
   version="1.1"
   id="svg2859"
   inkscape:version="1.0 (4035a4fb49, 2020-05-01)"
   sodipodi:docname="Turkey_road_sign_B-8b.svg">
  <defs
     id="defs2853" />
  <sodipodi:namedview
     showguides="false"
     id="base"
     pagecolor="#ffffff"
     bordercolor="#666666"
     borderopacity="1.0"
     inkscape:pageopacity="0.0"
     inkscape:pageshadow="2"
     inkscape:zoom="2.1584072"
     inkscape:cx="210.74152"
     inkscape:cy="96.066093"
     inkscape:document-units="mm"
     inkscape:current-layer="layer1"
     inkscape:document-rotation="0"
     showgrid="false"
     inkscape:window-width="1920"
     inkscape:window-height="1001"
     inkscape:window-x="-9"
     inkscape:window-y="-9"
     inkscape:window-maximized="1" />
  <metadata
     id="metadata2856">
    <rdf:RDF>
      <cc:Work
         rdf:about="">
        <dc:format>image/svg+xml</dc:format>
        <dc:type
           rdf:resource="http://purl.org/dc/dcmitype/StillImage" />
        <dc:title></dc:title>
      </cc:Work>
    </rdf:RDF>
  </metadata>
  <g
     inkscape:label="Layer 1"
     inkscape:groupmode="layer"
     id="layer1"
     transform="translate(61.48717,-0.44800066)">
    <path
       sodipodi:nodetypes="cssssssscc"
       d="m -61.47388,0.44800473 h 79.348486 c 0.007,0 0.01322,0.005985 0.01322,0.0132887 V 30.126318 c 0,0.007 -0.0059,0.01328 -0.01322,0.01328 H -61.47388 c -0.007,0 -0.01329,-0.006 -0.01329,-0.01328 V 0.46128936 c 0,-0.006991 0.006,-0.0132887 0.01329,-0.0132887 z"
       style="opacity:1;fill:#00408c;fill-opacity:1;fill-rule:evenodd;stroke:none;stroke-width:3.96874;stroke-linecap:round;stroke-opacity:0.672065;paint-order:fill markers stroke"
       id="rect10310-8" />
    <path
       sodipodi:nodetypes="ssssssssssssssssss"
       id="path10317-4"
       d="m -57.446083,1.5087459 c -1.632275,0 -2.961289,1.3290074 -2.961289,2.9612777 V 26.191256 c 0,1.632269 1.329014,2.961415 2.961289,2.961415 h 71.406934 c 1.632263,0 2.961397,-1.329146 2.961397,-2.961415 V 4.4700236 c 0,-1.6322703 -1.329134,-2.9612777 -2.961397,-2.9612777 z m 0,0.9603788 h 71.406934 c 1.116835,0 2.001031,0.8840651 2.001031,2.0008989 V 26.191256 c 0,1.116834 -0.884196,2.001038 -2.001031,2.001038 h -71.406934 c -1.116845,0 -2.000912,-0.884204 -2.000912,-2.001038 V 4.4700236 c 0,-1.1168338 0.884067,-2.0008989 2.000912,-2.0008989 z"
       style="color:#000000;font-style:normal;font-variant:normal;font-weight:normal;font-stretch:normal;font-size:medium;line-height:normal;font-family:sans-serif;font-variant-ligatures:normal;font-variant-position:normal;font-variant-caps:normal;font-variant-numeric:normal;font-variant-alternates:normal;font-variant-east-asian:normal;font-feature-settings:normal;font-variation-settings:normal;text-indent:0;text-align:start;text-decoration:none;text-decoration-line:none;text-decoration-style:solid;text-decoration-color:#000000;letter-spacing:normal;word-spacing:normal;text-transform:none;writing-mode:lr-tb;direction:ltr;text-orientation:mixed;dominant-baseline:auto;baseline-shift:baseline;text-anchor:start;white-space:normal;shape-padding:0;shape-margin:0;inline-size:0;clip-rule:nonzero;display:inline;overflow:visible;visibility:visible;opacity:1;isolation:auto;mix-blend-mode:normal;color-interpolation:sRGB;color-interpolation-filters:linearRGB;solid-color:#000000;solid-opacity:1;vector-effect:none;fill:#ffffff;fill-opacity:1;fill-rule:evenodd;stroke:none;stroke-width:3.96874;stroke-linecap:round;stroke-linejoin:miter;stroke-miterlimit:4;stroke-dasharray:none;stroke-dashoffset:0;stroke-opacity:1;paint-order:fill markers stroke;color-rendering:auto;image-rendering:auto;shape-rendering:auto;text-rendering:auto;enable-background:accumulate;stop-color:#000000;stop-opacity:1" />
    <path
       d="m -48.366942,5.5319562 v 1.119564 h 1.115172 v -1.119564 z m 27.109288,1.8259686 v 6.2405482 h 3.129608 c 0.322887,0 0.642678,-0.08698 0.959376,-0.26085 0.285633,-0.155229 0.474095,-0.375611 0.641741,-0.661266 0.173861,-0.291836 0.268339,-0.687689 0.268339,-1.00439 -0.0028,-0.333135 -0.13868,-0.645747 -0.293484,-0.932469 -0.08878,-0.164317 -0.354373,-0.433808 -0.354373,-0.433808 0,0 0.391394,-0.4950984 0.391394,-1.1160522 0,-0.6333918 -0.374173,-1.2915744 -0.939251,-1.6082628 -0.260785,-0.149037 -0.62101,-0.2234502 -1.080524,-0.2234502 z m -4.87313,0.008 c -0.09957,-0.0021 -0.194745,0.0021 -0.277979,0.0021 h -2.886514 l 0.0028,6.2309392 h 1.124684 v -2.612028 h 1.083664 l 1.460425,2.607891 h 1.307151 l -1.49007,-2.62956 c 0.318887,-0.06298 0.737718,-0.26283 0.99075,-0.541455 0.285006,-0.313856 0.499946,-0.7025963 0.499946,-1.1694653 0,-0.730968 -0.286965,-1.1478444 -0.711655,-1.5050748 -0.217897,-0.183297 -0.503372,-0.3073542 -0.79945,-0.3585312 -0.100239,-0.017202 -0.203975,-0.02328 -0.303473,-0.024582 z m 35.4697968,0 c -0.099487,-0.0021 -0.1947528,0.0021 -0.2779644,0.0021 H 6.1745252 l 0.00276,6.2309392 H 7.301954 v -2.612028 h 1.0836792 l 1.4604696,2.607891 H 11.153212 L 9.6631424,10.96531 C 9.982022,10.90232 10.400851,10.702465 10.653904,10.423837 10.938913,10.109998 11.15385,9.7212438 11.15385,9.2543869 11.15385,8.5234092 10.866886,8.1065407 10.442196,7.7493114 10.224295,7.566009 9.9388208,7.4419578 9.6427562,7.3907784 9.5425022,7.3735764 9.4387544,7.3674624 9.3392582,7.3661965 Z m -65.7433568,0.018414 v 6.2024152 l 1.558606,0.006 c 0,0 1.098726,0 1.220609,-0.02398 0.06798,-0.01302 0.126573,-0.023 0.130293,-0.02261 0.004,0 0.01421,-0.0022 0.02332,-0.005 0.009,-0.004 0.06269,-0.01929 0.119424,-0.03499 0.162424,-0.04509 0.310404,-0.100904 0.439924,-0.166061 0.270239,-0.135979 0.419878,-0.242564 0.638129,-0.45441 0.222589,-0.216099 0.36693,-0.414734 0.496186,-0.682918 0.2801,-0.581118 0.399545,-1.527692 0.293497,-2.3256532 -0.09508,-0.7158528 -0.256601,-1.1417598 -0.599624,-1.5817212 -0.06209,-0.079782 -0.307933,-0.3169488 -0.421287,-0.4065486 -0.165584,-0.130923 -0.515006,-0.3138432 -0.702894,-0.3680208 -0.02829,-0.00802 -0.09318,-0.027582 -0.143931,-0.04299 -0.05079,-0.015306 -0.138706,-0.035388 -0.195465,-0.044292 -0.05669,-0.00899 -0.130069,-0.021906 -0.162923,-0.028998 -0.04379,-0.00998 -0.411362,-0.013896 -1.376789,-0.016302 z m 21.10811,0 -2.474826,6.2006742 1.189946,0.008 0.4923,-1.217839 2.770359,-0.005 0.519933,1.228129 1.231739,-0.01352 -2.476721,-6.2006796 z m 23.433129,0 -2.47486,6.2006742 1.189985,0.008 0.492301,-1.217839 2.7703264,-0.005 0.5199654,1.228129 1.23174,-0.01352 -2.4767248,-6.2006796 z m -36.503837,0.014892 V 13.60751 h 1.115172 V 7.3992138 Z m 43.7246336,0 h -1.1117922 l -0.00802,6.2096822 h 1.1197896 v -2.490607 l 0.4640646,-0.456439 2.018163,2.944898 1.3567878,0.0021 -2.547624,-3.7163258 2.5487478,-2.4938394 h -1.5984966 l -2.2394952,2.1664818 z m 6.2147934,0 V 13.60751 H 2.6876666 V 7.3992138 Z m -46.596618,0 2.540719,3.7160732 v 2.476713 h 1.107439 V 11.11693 l 2.536851,-3.7175836 h -1.348392 l -1.746322,2.555133 -1.745034,-2.5549956 z m 24.892042,1.0840398 h 1.830231 c 0.180063,0.0123 0.361801,0.093077 0.46117,0.1985844 0.127389,0.1418478 0.206508,0.2909328 0.206205,0.4585578 0,0.2027256 -0.104725,0.414408 -0.252234,0.5534664 -0.111925,0.10554 -0.237909,0.1538976 -0.430404,0.1663164 h -1.814968 z m -8.029257,0.017202 1.70067,0.00318 c 0.09868,0 0.203229,0 0.305118,0.0021 0.07158,0 0.142248,-0.00318 0.210224,0.014892 0.08708,0.022788 0.164477,0.054984 0.244215,0.1150543 0.06939,0.052284 0.138114,0.1212594 0.180335,0.2006748 0.05658,0.1066355 0.09208,0.2337762 0.08778,0.3514121 v 0 c -0.005,0.142407 -0.08338,0.3223579 -0.176554,0.4395319 -0.04719,0.059286 -0.155558,0.1463369 -0.253124,0.182331 -0.166834,0.061583 -0.256654,0.042492 -0.531565,0.043788 l -1.765451,0.00802 z m 35.469836,0 1.7006604,0.00318 c 0.098675,0 0.2032236,0 0.3051006,0.0021 0.071588,0 0.1422336,-0.00318 0.2102076,0.014892 0.087091,0.022788 0.1644324,0.054984 0.2442378,0.1150543 0.069378,0.052284 0.1381002,0.1212594 0.1803114,0.2006748 0.056688,0.1066355 0.092079,0.2337762 0.087785,0.3514121 -0.005,0.142407 -0.08338,0.3223579 -0.176572,0.4395319 C 9.813029,9.6866037 9.704663,9.7736546 9.6071264,9.8096487 9.44027,9.8712317 9.350438,9.8521407 9.0755282,9.8534367 l -1.765443,0.00802 z m -62.605005,0.0021 0.741396,0.00402 c 0.810172,0.00402 0.780307,0.0021 0.985642,0.070986 0.09678,0.032694 0.283236,0.1234033 0.336765,0.1638102 0.145215,0.1097286 0.235546,0.197487 0.318859,0.310002 0.159884,0.2158236 0.236646,0.4265766 0.305392,0.8377038 0.06349,0.3797164 0.05799,0.9714254 -0.01187,1.2762454 -0.009,0.0388 -0.02359,0.108777 -0.03248,0.15544 -0.07109,0.371606 -0.255094,0.676238 -0.536465,0.88808 -0.03889,0.0292 -0.131639,0.08468 -0.206332,0.123053 -0.130423,0.06709 -0.167165,0.07988 -0.347624,0.122054 -0.07238,0.01702 -0.163326,0.01951 -0.81732,0.02279 l -0.735906,0.004 z m 20.629153,0.3549991 0.949003,2.3784333 -1.921272,0.01352 z m 23.433123,0 0.949003,2.3784333 -1.921259,0.01352 z m -8.89822,2.1180903 1.967887,0.0032 c 0.242173,0.006 0.431612,0.08998 0.568233,0.251476 0.142809,0.161444 0.210645,0.296614 0.2142,0.468193 0.004,0.200855 -0.08498,0.409052 -0.227708,0.55809 -0.136621,0.149015 -0.312552,0.230549 -0.554725,0.224341 h -1.956755 z m -23.444251,6.138262 v 1.125192 h 1.125195 v -1.125223 z m 4.354956,1.822205 0.0028,6.197927 h 0.987013 l -0.0028,-6.197927 z m -4.354956,0.02801 v 6.169923 h 1.135199 V 18.96414 Z m 26.588744,1.673668 c -0.223221,0 -0.518862,0.05529 -0.757419,0.144432 -0.271434,0.101425 -0.46895,0.245976 -0.46895,0.245976 v -0.262976 h -0.996384 v 4.403075 h 0.996384 l 0.006,-2.383154 c 0,0 0.01868,-0.149243 0.07919,-0.310259 0.05728,-0.152246 0.153684,-0.313973 0.242745,-0.404522 0.08188,-0.08328 0.168873,-0.169089 0.271718,-0.23334 0.188199,-0.117614 0.411289,-0.185139 0.624877,-0.188696 0.187004,-0.0031 0.386808,0.03389 0.562721,0.117164 0.152319,0.07218 0.284888,0.181839 0.399029,0.296727 0.08588,0.08648 0.189716,0.243993 0.245081,0.3948 0.07248,0.197515 0.08378,0.383514 0.08378,0.383514 v 2.327766 h 1.00326 v -2.266241 c 0,0 -0.01401,-0.349231 -0.06299,-0.515085 -0.09528,-0.322268 -0.234009,-0.642259 -0.442041,-0.906229 -0.187327,-0.23769 -0.430923,-0.439804 -0.700265,-0.577723 -0.305501,-0.156416 -0.728092,-0.237966 -0.99591,-0.261344 -0.0285,-0.0032 -0.05888,-0.004 -0.09078,-0.004 z m 11.1882254,0.0032 c -0.026808,0 -0.052392,0 -0.076085,0 -0.1744368,0.005 -0.4264986,0.04909 -0.6240024,0.116546 -0.191373,0.0654 -0.3309882,0.154071 -0.3309882,0.154071 v -0.143679 l -1.0006452,-0.007 v 4.402596 h 1.0006452 l 0.00396,-2.621519 c 0,0 0.015204,-0.211384 0.1476858,-0.416925 0.1157232,-0.179341 0.338787,-0.351395 0.4895754,-0.411663 0.1533318,-0.06128 0.421026,-0.08428 0.6283584,-0.0311 0.2123994,0.05449 0.3626328,0.185819 0.3626328,0.185819 l 0.620748,-0.782309 c 0,0 -0.244827,-0.197116 -0.574863,-0.324497 -0.2051502,-0.07929 -0.4593306,-0.116006 -0.6468582,-0.120425 z m -17.3117484,0.02758 v 4.495019 h 0.993138 v -4.49507 z m 11.396453,0 v 4.495019 h 0.993134 v -4.49507 z m 8.963461,0 v 4.495005 h 0.9931584 v -4.495056 z m -24.656831,0.01051 c -0.201566,0 -0.449193,0.02049 -0.671385,0.05229 -0.164083,0.02359 -0.32618,0.06108 -0.486692,0.102395 -0.112149,0.02889 -0.231662,0.04419 -0.332243,0.101539 -0.08469,0.04829 -0.144261,0.111936 -0.215977,0.197216 -0.191188,0.227291 -0.301469,0.63365 -0.260957,0.964125 0.03477,0.28426 0.17823,0.517968 0.418026,0.750657 0.07278,0.06718 0.214597,0.145798 0.332499,0.198465 0.167053,0.07458 0.34893,0.110097 0.523938,0.163291 0.08258,0.02512 0.165377,0.04919 0.248117,0.07349 0.128748,0.03789 0.25765,0.07528 0.386512,0.112793 0.217528,0.06328 0.436487,0.121915 0.652746,0.18933 0.08588,0.0268 0.180632,0.04289 0.255975,0.08538 0.03659,0.0207 0.05899,0.05959 0.08608,0.09148 0.01608,0.0188 0.02,0.04599 0.02257,0.07068 0.0028,0.0207 0.006,0.05349 0.004,0.08008 -0.0028,0.0267 -0.02018,0.07809 -0.02018,0.07809 0,0 -0.290304,0.07418 -0.4384,0.09498 -0.15889,0.02229 -0.350684,0.03139 -0.480325,0.03139 -0.479605,-0.006 -1.031347,-0.06859 -1.567743,-0.353643 l -0.437799,0.883594 c 0.624738,0.325779 1.283106,0.45076 2.034041,0.462439 0.324501,-0.004 0.644591,-0.05259 0.921996,-0.109795 0.103313,-0.02141 0.193306,-0.04879 0.283099,-0.07479 0.08648,-0.02501 0.173117,-0.04789 0.244962,-0.09728 0.140852,-0.09919 0.227024,-0.224449 0.295499,-0.352778 0.100244,-0.187909 0.147811,-0.393102 0.151578,-0.621251 -0.006,-0.430477 -0.1509,-0.648089 -0.37618,-0.869331 -0.306436,-0.301011 -0.829423,-0.390468 -1.191694,-0.490307 -0.195808,-0.05399 -0.396813,-0.115726 -0.595349,-0.173076 -0.113371,-0.0328 -0.229062,-0.05829 -0.340275,-0.09768 -0.136117,-0.04829 -0.304219,-0.06029 -0.398776,-0.169432 -0.0373,-0.04299 -0.0447,-0.108145 -0.04379,-0.165063 0,-0.03118 0.0268,-0.08978 0.0268,-0.08978 0,0 0.564363,-0.142718 0.852213,-0.139177 0.489537,0.006 1.09328,0.110422 1.442913,0.274118 l 0.376912,-0.906352 c -0.524412,-0.225987 -1.083617,-0.348152 -1.702053,-0.348152 z"
       style="opacity:1;fill:#ffffff;fill-opacity:1;stroke:none;stroke-width:0.0189498;stroke-opacity:1"
       id="path37133-6" />
  </g>
</svg>
