<svg width="333.92" height="84.655" version="1.1" viewBox="0 0 333.92 84.655" xmlns="http://www.w3.org/2000/svg"><defs><style>.cls-1 {        fill: #00408c;        fill-rule: evenodd;      }      .cls-2 {        fill: #fff;      }</style></defs><path d="m0.40896 0.40896v83.837h333.1v-83.837z" fill="#00408c" style="paint-order:stroke fill markers"/><g fill="#fff"><path d="m21.158 5.6923c-8.5698 0-15.469 6.8992-15.469 15.469v42.333c0 8.5698 6.8992 15.469 15.469 15.469h291.59c8.5698 0 15.469-6.8992 15.469-15.469v-42.333c0-8.5699-6.8992-15.469-15.469-15.469zm-0.08154 5.0055h291.78c5.7378 0 10.357 4.6193 10.357 10.357v42.546c0 5.7378-4.6192 10.357-10.357 10.357h-291.78c-5.7378 0-10.357-4.6193-10.357-10.357v-42.546c0-5.7378 4.6193-10.357 10.357-10.357z" stroke-miterlimit="10" stroke-width="5.365" style="paint-order:stroke fill markers"/><path d="m175.81 26.311v32.09h5.7642v-32.09z"/><g transform="matrix(1.136 0 0 1.136 -153.03 -524.42)"><path d="m249.57 513.04h-19.201v-28.238h5.0918v23.165h14.109z"/><path d="m405.49 513.03-5.4897-5.4e-4 -11.99-19.462-0.0107 19.464h-5.0719v-28.238l5.6194 0.0108 11.841 19.155 0.0108-19.165h5.0913z"/><path d="m180.43 513.03-5.4897-5.4e-4 -11.99-19.462-0.0107 19.464h-5.0719v-28.238l5.6194 0.0108 11.841 19.155 0.0108-19.165h5.0913z"/><path d="m278.99 513.04h-19.201v-28.238h5.0918v23.165h14.109z"/><path d="m219.5 513.03-5.6174 0.0616-2.3709-5.6011-12.635 0.0222-2.2452 5.5541-5.4272-0.0368 11.287-28.279h5.7136zm-9.8122-10.712-4.3283-10.847-4.4338 10.909z"/><path d="m372.19 513.03-5.6191 0.0616-2.3696-5.6011-12.628 0.0222-2.2496 5.5541-5.4291-0.0368 11.288-28.279h5.7091zm-9.8084-10.712-4.3293-10.847-4.4393 10.909z"/><path d="m333.01 513.04-5.0531 6e-3v-11.3h-12.409v11.299h-5.083l7.3e-4 -28.242h5.0829v11.287h12.409v-11.287h5.059z"/></g></g></svg>