<svg width="391.89" height="99.352" version="1.1" viewBox="0 0 391.89 99.352" xmlns="http://www.w3.org/2000/svg"><defs><style>.cls-1 {        fill: #00408c;        fill-rule: evenodd;      }      .cls-2 {        fill: #fff;      }</style></defs><path d="m0.47996 0.47996v98.392h390.93v-98.392z" fill="#00408c" style="paint-order:stroke fill markers"/><g stroke-miterlimit="10"><path d="m24.831 6.6806c-10.058 0-18.155 8.097-18.155 18.155v49.683c0 10.058 8.097 18.155 18.155 18.155h342.22c10.058 0 18.155-8.097 18.155-18.155v-49.683c0-10.058-8.097-18.155-18.155-18.155zm-0.0957 5.8745h342.44c6.734 0 12.155 5.4212 12.155 12.155v49.933c0 6.734-5.4212 12.155-12.155 12.155h-342.44c-6.734 0-12.155-5.4212-12.155-12.155v-49.933c0-6.734 5.4212-12.155 12.155-12.155z" fill="#fff" stroke-width="6.2965" style="paint-order:stroke fill markers"/><path d="m24.831 6.6806c-10.058 0-18.155 8.097-18.155 18.155v49.683c0 10.058 8.097 18.155 18.155 18.155h342.22c10.058 0 18.155-8.097 18.155-18.155v-49.683c0-10.058-8.097-18.155-18.155-18.155zm-0.0957 5.8745h342.44c6.734 0 12.155 5.4212 12.155 12.155v49.933c0 6.734-5.4212 12.155-12.155 12.155h-342.44c-6.734 0-12.155-5.4212-12.155-12.155v-49.933c0-6.734 5.4212-12.155 12.155-12.155z" fill="#fff" stroke-width="6.2965" style="paint-order:stroke fill markers"/><path d="m379.33 24.865v-0.1543c0-1.6835-0.33771-3.285-0.95117-4.7402-0.61346-1.4552-1.503-2.7648-2.6016-3.8633-1.0985-1.0985-2.4061-1.9861-3.8613-2.5996-1.4552-0.61346-3.0567-0.95312-4.7402-0.95312h-21.955l-332.64 61.869v0.2207c0 1.6835 0.33771 3.285 0.95117 4.7402s1.503 2.7628 2.6016 3.8613c1.0985 1.0985 2.4061 1.9881 3.8613 2.6016 1.4552 0.61346 3.0567 0.95117 4.7402 0.95117h21.461z" fill="#ef0311" stroke-width="1.0599" style="paint-order:stroke fill markers"/></g><g transform="matrix(1.3332 0 0 1.3332 -179.6 -615.47)" fill="#fff"><path d="m249.57 513.04h-19.201v-28.238h5.0918v23.165h14.109z"/><path d="m405.49 513.03-5.4897-5.4e-4 -11.99-19.462-0.0107 19.464h-5.0719v-28.238l5.6194 0.0108 11.841 19.155 0.0108-19.165h5.0913z"/><path d="m180.43 513.03-5.4897-5.4e-4 -11.99-19.462-0.0107 19.464h-5.0719v-28.238l5.6194 0.0108 11.841 19.155 0.0108-19.165h5.0913z"/><path d="m278.99 513.04h-19.201v-28.238h5.0918v23.165h14.109z"/><path d="m219.5 513.03-5.6174 0.0616-2.3709-5.6011-12.635 0.0222-2.2452 5.5541-5.4272-0.0368 11.287-28.279h5.7136zm-9.8122-10.712-4.3283-10.847-4.4338 10.909z"/><path d="m372.19 513.03-5.6191 0.0616-2.3696-5.6011-12.628 0.0222-2.2496 5.5541-5.4291-0.0368 11.288-28.279h5.7091zm-9.8084-10.712-4.3293-10.847-4.4393 10.909z"/><path d="m333.01 513.04-5.0531 6e-3v-11.3h-12.409v11.299h-5.083l7.3e-4 -28.242h5.0829v11.287h12.409v-11.287h5.059z"/></g><path d="m206.33 30.88v37.661h6.765v-37.661z" fill="#fff"/></svg>