<?xml version="1.0" encoding="UTF-8" standalone="no"?>
<svg
   xmlns:dc="http://purl.org/dc/elements/1.1/"
   xmlns:cc="http://creativecommons.org/ns#"
   xmlns:rdf="http://www.w3.org/1999/02/22-rdf-syntax-ns#"
   xmlns:svg="http://www.w3.org/2000/svg"
   xmlns="http://www.w3.org/2000/svg"
   xmlns:sodipodi="http://sodipodi.sourceforge.net/DTD/sodipodi-0.dtd"
   xmlns:inkscape="http://www.inkscape.org/namespaces/inkscape"
   viewBox="0 0 504.62377 235.8894"
   version="1.1"
   id="svg86372"
   sodipodi:docname="Turkey_road_sign_B-61f.svg.2022_11_13_18_24_33.1.svg"
   width="504.62378"
   height="235.8894"
   inkscape:version="1.0 (4035a4fb49, 2020-05-01)">
  <metadata
     id="metadata86376">
    <rdf:RDF>
      <cc:Work
         rdf:about="">
        <dc:format>image/svg+xml</dc:format>
        <dc:type
           rdf:resource="http://purl.org/dc/dcmitype/StillImage" />
        <dc:title />
      </cc:Work>
    </rdf:RDF>
  </metadata>
  <sodipodi:namedview
     inkscape:document-rotation="0"
     pagecolor="#ffffff"
     bordercolor="#666666"
     borderopacity="1"
     objecttolerance="10"
     gridtolerance="10"
     guidetolerance="10"
     inkscape:pageopacity="0"
     inkscape:pageshadow="2"
     inkscape:window-width="1920"
     inkscape:window-height="1001"
     id="namedview86374"
     showgrid="false"
     inkscape:zoom="0.88741533"
     inkscape:cx="62.321652"
     inkscape:cy="-80.685775"
     inkscape:window-x="-9"
     inkscape:window-y="-9"
     inkscape:window-maximized="1"
     inkscape:current-layer="svg86372" />
  <defs
     id="defs86346">
    <style
       id="style86344">
      .cls-1 {
        fill: #00408c;
        fill-rule: evenodd;
      }

      .cls-2 {
        fill: #fff;
      }
    </style>
  </defs>
  <path
     d="M 0.22400001,0.22400001 V 235.66541 H 504.39978 V 0.22400001 Z"
     style="opacity:1;fill:#00408c;fill-opacity:1;stroke:none;stroke-width:0.448;stroke-opacity:1;paint-order:stroke fill markers"
     id="rect104617" />
  <path
     id="path101889"
     d="M 161.80048,201.58586 V 176.78378"
     style="fill:#ffffff;stroke:#2e4fa8;stroke-width:0.16;stroke-linecap:round;stroke-linejoin:round;stroke-miterlimit:10;stroke-opacity:1" />
  <path
     id="path114444"
     style="color:#000000;font-style:normal;font-variant:normal;font-weight:normal;font-stretch:normal;font-size:medium;line-height:normal;font-family:sans-serif;font-variant-ligatures:normal;font-variant-position:normal;font-variant-caps:normal;font-variant-numeric:normal;font-variant-alternates:normal;font-variant-east-asian:normal;font-feature-settings:normal;font-variation-settings:normal;text-indent:0;text-align:start;text-decoration:none;text-decoration-line:none;text-decoration-style:solid;text-decoration-color:#000000;letter-spacing:normal;word-spacing:normal;text-transform:none;writing-mode:lr-tb;direction:ltr;text-orientation:mixed;dominant-baseline:auto;baseline-shift:baseline;text-anchor:start;white-space:normal;shape-padding:0;shape-margin:0;inline-size:0;clip-rule:nonzero;display:inline;overflow:visible;visibility:visible;opacity:1;isolation:auto;mix-blend-mode:normal;color-interpolation:sRGB;color-interpolation-filters:linearRGB;solid-color:#000000;solid-opacity:1;vector-effect:none;fill:#ffffff;fill-opacity:1;fill-rule:nonzero;stroke:none;stroke-width:0.16;stroke-linecap:round;stroke-linejoin:round;stroke-miterlimit:10;stroke-dasharray:none;stroke-dashoffset:0;stroke-opacity:1;color-rendering:auto;image-rendering:auto;shape-rendering:auto;text-rendering:auto;enable-background:accumulate;stop-color:#000000;stop-opacity:1"
     d="m 287.24253,166.06302 a 0.08,0.08 0 0 0 -0.0801,0.0801 v 35.43359 a 0.08,0.08 0 0 0 0,0.01 0.08,0.08 0 0 0 0.0801,0.0801 h 5.63281 0.008 a 0.08,0.08 0 0 0 0.0234,-0.004 0.08,0.08 0 0 0 0.0586,-0.0762 v -14.20313 a 0.08,0.08 0 0 0 -0.082,-0.082 0.08,0.08 0 0 0 -0.0801,0.082 v 14.1211 h -5.47851 v -35.28125 h 5.55859 a 0.08,0.08 0 0 0 0.082,-0.0801 0.08,0.08 0 0 0 -0.082,-0.0801 h -5.63086 z" />
  <g
     transform="matrix(1.3333334,0,0,1.3333334,-144.54849,-749.38815)"
     id="g113788"
     style="opacity:1;fill:#ffffff">
    <path
       id="path113790"
       style="color:#000000;font-style:normal;font-variant:normal;font-weight:normal;font-stretch:normal;font-size:medium;line-height:normal;font-family:sans-serif;font-variant-ligatures:normal;font-variant-position:normal;font-variant-caps:normal;font-variant-numeric:normal;font-variant-alternates:normal;font-variant-east-asian:normal;font-feature-settings:normal;font-variation-settings:normal;text-indent:0;text-align:start;text-decoration:none;text-decoration-line:none;text-decoration-style:solid;text-decoration-color:#000000;letter-spacing:normal;word-spacing:normal;text-transform:none;writing-mode:lr-tb;direction:ltr;text-orientation:mixed;dominant-baseline:auto;baseline-shift:baseline;text-anchor:start;white-space:normal;shape-padding:0;shape-margin:0;inline-size:0;clip-rule:nonzero;display:inline;overflow:visible;visibility:visible;isolation:auto;mix-blend-mode:normal;color-interpolation:sRGB;color-interpolation-filters:linearRGB;solid-color:#000000;solid-opacity:1;vector-effect:none;fill:#ffffff;fill-opacity:1;fill-rule:nonzero;stroke:none;stroke-width:5.283;stroke-linecap:butt;stroke-linejoin:miter;stroke-miterlimit:4;stroke-dasharray:none;stroke-dashoffset:0;stroke-opacity:1;paint-order:stroke fill markers;color-rendering:auto;image-rendering:auto;shape-rendering:auto;text-rendering:auto;enable-background:accumulate;stop-color:#000000;stop-opacity:1"
       d="m 309.18945,783.84961 v 2.64062 42.48438 h 175.2461 v -45.125 z m 2.64063,2.64062 h 169.96484 v 39.84375 H 311.83008 Z"
       transform="scale(0.74999998)" />
  </g>
  <g
     transform="matrix(1.3333334,0,0,1.3333334,-144.54849,-749.38815)"
     id="g114323"
     style="fill:#ffffff">
    <path
       transform="scale(0.74999998)"
       id="path22863"
       style="fill:#ffffff;fill-opacity:1;stroke-width:0.00328013"
       d="m 374.41797,792.29492 0.002,2.54102 0.002,2.54297 8.2539,0.004 c 4.53851,0 8.25195,0.002 8.25195,0.006 0,0.002 -3.29382,5.20219 -7.31835,11.55664 -4.02304,6.35219 -7.31876,11.55356 -7.32618,11.57031 -0.01,0.0217 0.13705,0.0215 3,0.0215 h 3.01172 l 0.0664,-0.10352 c 0.0362,-0.0565 3.33292,-5.26584 7.32617,-11.57812 l 7.25977,-11.47656 0.002,-2.54297 v -2.54102 h -11.26563 z m 1.86523,28.2207 c 0,0 -0.002,0 -0.002,0 v 0.004 c 0,0 0.002,-0.004 0.002,-0.004 z m -19.72851,-5.54492 v 5.52149 h 5.51562 v -5.52149 z" />
    <g
       id="g114332"
       style="fill:#ffffff">
      <g
         id="g114279"
         style="fill:#ffffff">
        <path
           d="m 322.49817,613.49181 c -0.63758,0.50575 -1.37766,0.87182 -2.14264,1.17048 -0.6821,0.26632 -1.33868,0.50168 -2.16972,0.61308 -0.75754,0.10166 -1.75216,0.17796 -2.62189,0.0867 -1.63461,-0.17147 -3.2601,-0.57356 -4.78696,-1.18196 -0.95344,-0.37992 -2.67759,-1.51998 -2.67759,-1.51998 l 2.22939,-3.08603 c 0,0 0.86721,0.66398 2.16938,1.19684 0.98994,0.40506 2.33305,0.70051 3.14612,0.76786 1.35489,0.11264 3.07409,-0.0406 4.00623,-0.76403 0.31019,-0.24816 0.63114,-0.36923 0.86017,-0.65102 0.45922,-0.56528 0.68729,-1.34489 0.68729,-2.06362 0.0287,-0.76511 -0.38796,-1.49905 -0.88685,-1.99046 -0.24426,-0.24059 -0.48304,-0.37437 -0.75121,-0.5179 -0.3951,-0.21108 -0.80003,-0.37615 -1.24876,-0.49613 -0.65562,-0.17525 -1.34764,-0.29075 -1.98851,-0.2474 -0.63605,0.0435 -1.5706,0.11091 -2.37095,0.31857 -0.98752,0.25638 -1.78884,0.65612 -1.78884,0.65612 l -3.19729,-2.5662 0.82947,-8.99559 13.52537,0.0169 v 3.80835 l -10.05942,-0.019 -0.30685,3.43531 c 0,0 0.55757,-0.1522 1.27391,-0.26683 0.78003,-0.1249 1.74842,-0.21368 2.39078,-0.23185 0.46258,-0.0154 0.88399,0.0308 1.38387,0.10926 0.9203,0.1457 1.94273,0.43928 2.76975,0.81517 0.45418,0.2063 0.89784,0.4278 1.29545,0.72107 0.61475,0.4533 1.17623,0.98916 1.65604,1.58332 0.20231,0.25064 0.35501,0.51729 0.50574,0.8234 0.54292,1.10192 0.9032,2.48387 0.77568,3.70503 -0.062,0.58373 -0.16474,1.21292 -0.37638,1.78664 -0.18887,0.51247 -0.4727,0.97321 -0.74496,1.43556 -0.35159,0.59677 -0.84286,1.11846 -1.38582,1.54886 z"
           style="font-style:normal;font-variant:normal;font-weight:normal;font-stretch:normal;font-size:30px;line-height:1.15;font-family:'Highway Gothic Wide';-inkscape-font-specification:'Highway Gothic Wide';opacity:1;fill:#ffffff;fill-opacity:1;stroke-width:0.153207"
           id="path108140"
           sodipodi:nodetypes="assaaccsscscsassscccccccssssaassssa" />
        <path
           sodipodi:nodetypes="scsscscscssscssscssaaass"
           id="path118995"
           style="font-style:normal;font-variant:normal;font-weight:normal;font-stretch:normal;font-size:45.8828px;line-height:1.15;font-family:'Highway Gothic Wide';-inkscape-font-specification:'Highway Gothic Wide';fill:#ffffff;fill-opacity:1;stroke-width:0.149673"
           d="m 352.58986,604.8434 c 0,3.19907 -1.06601,5.65245 -2.66046,7.62917 -1.57338,1.95604 -3.79321,3.08357 -6.05628,3.06864 -1.00458,-0.008 -2.01082,-0.18235 -2.96135,-0.56336 -1.41725,-0.56792 -2.71064,-1.56518 -3.69016,-2.9191 -1.42656,-1.95603 -2.33612,-4.28105 -2.33612,-7.15424 0,-3.26012 1.04944,-5.54756 2.64389,-7.42224 1.59433,-1.89491 3.57454,-3.12241 6.34374,-3.12241 2.6014,0 4.50886,1.20294 6.10329,3.13874 1.61536,1.91535 2.61345,4.20688 2.61345,7.3448 z m -3.79545,0.0621 c -0.0206,-0.38518 -0.0157,-0.7869 -0.0803,-1.1801 -0.20431,-1.22514 -0.68042,-2.43602 -1.34746,-3.36156 -0.86014,-1.22256 -1.9426,-2.16998 -3.51601,-2.16998 -1.59444,0 -2.63529,0.6953 -3.53739,1.91789 -0.90213,1.22262 -1.5887,2.63391 -1.5887,4.79375 0,2.18026 0.5522,3.483 1.45433,4.72602 0.45738,0.6199 0.97412,1.17497 1.59675,1.53288 0.60531,0.3479 1.31165,0.50719 2.09749,0.50719 1.19956,0 1.72449,-0.40653 2.43332,-0.90238 0.48696,-0.34063 0.80666,-0.87653 1.15546,-1.35767 0.1567,-0.21606 0.29201,-0.44772 0.41815,-0.68303 0.16023,-0.29914 0.32326,-0.61153 0.42861,-0.92354 0.31334,-0.92857 0.53395,-1.96386 0.48575,-2.89947 z" />
      </g>
      <path
         sodipodi:nodetypes="cccscssscsssssccccccssccsssssccccc"
         style="fill:#ffffff;fill-opacity:1;stroke:none;stroke-width:0.0109121;stroke-opacity:1"
         d="m 242.51366,615.32619 v -21.10502 l 4.4813,0.0113 c 3.28514,0.009 4.5356,0.0234 4.68459,0.0555 0.11181,0.024 0.36129,0.0687 0.55442,0.099 0.1931,0.0303 0.49248,0.0981 0.66526,0.15057 0.17278,0.0526 0.39309,0.11821 0.48953,0.14625 0.63933,0.18432 1.82832,0.80684 2.39179,1.25229 0.3857,0.30489 1.22215,1.11198 1.43375,1.38343 1.16717,1.49711 1.71652,2.9464 2.04025,5.3823 0.36083,2.71523 -0.0455,5.93595 -0.99873,7.9134 -0.43982,0.91254 -0.93097,1.58851 -1.68839,2.32377 -0.74262,0.7209 -1.25181,1.08348 -2.17136,1.54623 -0.44068,0.22177 -0.94416,0.41189 -1.49684,0.56525 -0.19312,0.0537 -0.37607,0.10716 -0.40654,0.1191 -0.0305,0.0113 -0.0658,0.0199 -0.0785,0.0176 -0.0113,-10e-4 -0.21224,0.0322 -0.44351,0.0764 -0.41479,0.0795 -4.15339,0.0816 -4.15339,0.0816 z m 9.05503,-3.85539 c 0.61405,-0.14329 0.73885,-0.18722 1.18271,-0.41558 0.25409,-0.13069 0.57009,-0.31908 0.70222,-0.41856 0.95744,-0.72088 1.58369,-1.75762 1.82557,-3.02209 0.0305,-0.15886 0.08,-0.3968 0.1103,-0.52895 0.2378,-1.03724 0.25666,-3.05062 0.0407,-4.34273 -0.23387,-1.39896 -0.49526,-2.11582 -1.03927,-2.85024 -0.28359,-0.38287 -0.59091,-0.68167 -1.08508,-1.05504 -0.18207,-0.13764 -0.81654,-0.44623 -1.14577,-0.55741 -0.69872,-0.23597 -0.59725,-0.22865 -3.35405,-0.24135 l -2.52245,-0.0113 v 13.53429 l 2.50397,-0.0132 c 2.22542,-0.0113 2.53485,-0.0202 2.78119,-0.0779 z"
         id="path37133" />
    </g>
  </g>
  <path
     id="path82574"
     style="font-style:normal;font-variant:normal;font-weight:normal;font-stretch:normal;font-size:122.83px;line-height:1.15;font-family:'Highway Gothic Wide';-inkscape-font-specification:'Highway Gothic Wide';text-align:center;letter-spacing:3.26px;text-anchor:middle;opacity:1;fill:#ffffff;fill-opacity:1;stroke:none;stroke-width:0.374741;stroke-opacity:1"
     d="m 40.00619,155.58209 v 6.36598 h 6.20364 v -6.36598 z m 0,10.61796 v 35.30441 h 6.20364 v -35.30441 z"
     sodipodi:nodetypes="cccccccccc" />
  <path
     sodipodi:nodetypes="cscssccccacasssaaaaacasaaasccacaaaasacc"
     id="path24247"
     style="font-style:normal;font-variant:normal;font-weight:normal;font-stretch:normal;font-size:19.6811px;line-height:1.15;font-family:'Highway Gothic Wide';-inkscape-font-specification:'Highway Gothic Wide';opacity:1;fill:#ffffff;fill-opacity:1;stroke-width:0.125836"
     d="m 83.74154,194.46364 c -0.022,1.31218 -0.29495,2.49264 -0.87155,3.57342 -0.3939,0.7382 -0.88952,1.45879 -1.69966,2.02915 -0.41336,0.28443 -0.91198,0.41556 -1.40898,0.55935 -0.51648,0.14988 -1.03445,0.30804 -1.6287,0.43014 -1.5956,0.32866 -3.4367,0.61188 -5.30306,0.63123 -4.31922,-0.0667 -8.10576,-0.78619 -11.69908,-2.65995 l 2.51798,-5.08214 c 3.08516,1.6396 6.25928,2.00062 9.01777,2.03405 0.74567,0 1.84847,-0.052 2.76225,-0.18027 0.85188,-0.1192 2.52214,-0.54626 2.52214,-0.54626 0,0 0.0992,-0.29548 0.11546,-0.44872 0.0163,-0.15268 -0.007,-0.34174 -0.0191,-0.46032 -0.0143,-0.14168 -0.0381,-0.29751 -0.13013,-0.40655 -0.15556,-0.18391 -0.28411,-0.40853 -0.49429,-0.52704 -0.43342,-0.24473 -0.97846,-0.33717 -1.47246,-0.49145 -1.244,-0.38746 -2.50333,-0.72436 -3.75449,-1.08832 -0.74125,-0.21559 -1.48255,-0.43115 -2.22316,-0.64902 -0.47593,-0.1401 -0.95227,-0.27888 -1.42691,-0.42309 -1.00676,-0.30605 -2.053,-0.5102 -3.01377,-0.93935 -0.67803,-0.30301 -1.49412,-0.75553 -1.91302,-1.14168 -1.37922,-1.33841 -2.204,-2.68244 -2.40425,-4.31744 -0.23283,-1.90083 0.40141,-4.23832 1.50113,-5.54563 0.41252,-0.49045 0.75518,-0.85658 1.24231,-1.13438 0.57861,-0.33015 1.266,-0.41759 1.91107,-0.58392 0.9233,-0.23778 1.85517,-0.45378 2.79892,-0.58914 1.27808,-0.18341 2.70259,-0.3005 3.86188,-0.3005 3.55701,0 6.77391,0.7028 9.79016,2.0025 l -2.16791,5.21304 c -2.01106,-0.9414 -5.48372,-1.5405 -8.29948,-1.57685 -1.65548,-0.0196 -4.90185,0.80076 -4.90185,0.80076 0,0 -0.15094,0.33672 -0.15367,0.516 -0.005,0.32715 0.0371,0.702 0.25151,0.94953 0.54391,0.62784 1.51053,0.69727 2.29349,0.97488 0.63972,0.22704 1.30514,0.37336 1.95722,0.56151 1.14197,0.33016 2.29785,0.6852 3.42413,0.9956 2.08373,0.57421 5.09195,1.08903 6.85467,2.82032 1.29565,1.27247 2.12705,2.5241 2.16334,5.00016 z" />
  <path
     style="font-style:normal;font-variant:normal;font-weight:normal;font-stretch:normal;font-size:12px;font-family:'Highway Gothic Expanded';-inkscape-font-specification:'Highway Gothic Expanded, ';writing-mode:lr-tb;opacity:1;fill:#ffffff;fill-opacity:1;fill-rule:nonzero;stroke:none;stroke-width:0.340997"
     d="m 107.22061,195.71634 3.3952,4.551 c -1.77341,1.31567 -3.39895,1.40494 -4.45463,1.40494 -1.97508,0 -4.02009,-1.03248 -5.24604,-2.56492 -1.19189,-1.53242 -1.69353,-2.9123 -1.6834,-4.98955 l 0.0596,-12.26076 h -5.61795 v -5.65171 h 5.61795 v -9.90733 h 5.66856 v 9.90733 h 5.65592 v 5.65171 h -5.65592 v 12.75844 c 0,0 0.0295,0.44757 0.14543,0.62869 0.22243,0.34742 0.5748,0.6733 0.97864,0.7578 0.21048,0.0441 0.56765,-0.007 0.81563,-0.0971 0.20242,-0.074 0.32093,-0.18852 0.32093,-0.18852 z"
     id="path61153"
     sodipodi:nodetypes="ccscscccccccccccassc" />
  <path
     d="m 144.64848,200.92142 -5.70581,-3e-4 v -0.63472 c 0,0 -3.2065,1.15141 -4.88482,1.27874 -2.04148,0.1549 -4.17209,0.0236 -6.10849,-0.6412 -1.55288,-0.53316 -3.1522,-1.34726 -4.55209,-2.31616 -0.66099,-0.45748 -1.25324,-0.96652 -1.7806,-1.62638 -0.60464,-0.75655 -0.93575,-1.77606 -0.95403,-2.74436 -0.0241,-1.27758 0.25295,-2.69043 1.12107,-3.66583 1.78154,-2.00174 4.43033,-3.34088 7.13725,-3.99695 1.02085,-0.24743 2.02684,-0.35811 3.0314,-0.46825 1.06097,-0.1164 2.66935,0.0517 4.01773,0.37206 1.61031,0.38247 2.8843,0.94167 2.8843,0.94167 0,0 0.14674,-0.93028 0.0729,-1.38752 -0.1132,-0.70172 -0.45128,-1.53899 -0.77603,-1.98616 -0.79825,-1.09921 -2.24254,-1.61195 -3.53666,-2.02519 -0.46194,-0.1475 -0.96312,-0.12613 -1.44778,-0.1425 -0.59749,-0.0201 -1.1968,0.007 -1.79265,0.0549 -0.96372,0.0788 -2.09888,0.2256 -2.87539,0.38293 -2.66002,0.53895 -4.12944,1.35404 -4.12944,1.35404 l -2.30766,-5.14498 c 0,0 1.86524,-0.89636 4.4405,-1.5461 2.02422,-0.51072 4.61596,-0.82266 6.21228,-0.74149 3.03496,0.15432 6.099,0.82165 8.27275,2.69387 2.17375,1.87222 3.66121,4.41728 3.66121,7.40625 z m -5.90759,-7.04945 c 0,0 -1.05232,-0.84573 -2.45616,-1.402 -1.23058,-0.48761 -2.75336,-0.69536 -3.777,-0.68869 -0.94648,0.007 -2.5704,0.31318 -3.71574,0.77605 -1.40754,0.56883 -2.25783,1.31464 -2.25783,1.31464 0,0 0.7266,0.71595 2.03019,1.25443 1.23224,0.50901 3.01357,0.84218 4.05637,0.84306 1.02816,5e-4 2.49567,-0.22786 3.71997,-0.72697 1.34366,-0.54777 2.4002,-1.37052 2.4002,-1.37052 z"
     style="font-style:normal;font-variant:normal;font-weight:normal;font-stretch:normal;font-size:46.5314px;line-height:1.15;font-family:'Highway Gothic Wide';-inkscape-font-specification:'Highway Gothic Wide';opacity:1;fill:#ffffff;fill-opacity:1;stroke:none;stroke-width:0.191164;stroke-opacity:1"
     id="path108315"
     sodipodi:nodetypes="cccasasasssscasaaasccssssccssscsssc" />
  <path
     sodipodi:nodetypes="accccsssssssccccccssaaa"
     id="path72412"
     style="font-style:normal;font-variant:normal;font-weight:normal;font-stretch:normal;font-size:30px;line-height:1.15;font-family:'Highway Gothic Wide';-inkscape-font-specification:'Highway Gothic Wide';fill:#ffffff;fill-opacity:1;stroke-width:0.254221"
     d="m 186.91278,186.0039 c 0.27636,0.93388 0.35441,2.90019 0.35441,2.90019 v 12.76205 h -5.64906 v -13.10807 c 0,0 -0.0639,-1.04761 -0.47218,-2.15984 -0.31174,-0.84917 -0.89614,-1.736 -1.38006,-2.22316 -0.64276,-0.64701 -1.389,-1.26482 -2.24678,-1.67122 -0.99052,-0.46926 -2.11547,-0.67728 -3.16847,-0.6597 -1.20269,0.0208 -2.45899,0.40068 -3.51884,1.06302 -0.57909,0.36186 -1.06935,0.8448 -1.53017,1.31338 -0.50143,0.50999 -1.04511,1.42091 -1.36716,2.2783 -0.3406,0.90666 -0.44531,1.74706 -0.44531,1.74706 l -0.0337,13.42023 h -5.61107 v -24.79425 h 5.61107 v 1.48078 c 0,0 1.11217,-0.81402 2.64053,-1.38504 1.53537,-0.57361 3.48989,-0.90398 4.77624,-0.79186 1.50807,0.13173 3.88772,0.59116 5.60797,1.47198 1.51678,0.77666 2.88878,1.91475 3.94354,3.25316 1.17144,1.48646 1.95208,3.28824 2.48911,5.10299 z" />
  <path
     sodipodi:nodetypes="acssccsccsscsaaaaaaaaaa"
     id="path24171"
     style="font-style:normal;font-variant:normal;font-weight:normal;font-stretch:normal;font-size:47.3331px;line-height:1.15;font-family:'Highway Gothic Wide';-inkscape-font-specification:'Highway Gothic Wide';fill:#ffffff;fill-opacity:1;stroke:none;stroke-width:0.256343;stroke-opacity:1"
     d="m 230.01755,188.83202 c 0,-3.52423 -1.25383,-6.53311 -3.76149,-9.02665 -2.46787,-2.49356 -5.47311,-3.74035 -9.01568,-3.74035 -2.65848,0 -5.01004,0.6866 -7.05472,2.05979 -0.007,0.005 -0.0224,-11.97495 -0.0224,-11.97495 h -5.68168 c 0,0 -0.0199,19.15793 -0.0199,22.68216 0,3.55748 0.0199,12.79476 0.0199,12.79476 h 5.68168 c 0,0 0.0224,-2.03646 0.0344,-2.02881 2.04162,1.36731 4.38877,2.05092 7.04153,2.05092 3.5426,0 6.54781,-1.24677 9.01571,-3.74035 2.50765,-2.49353 3.76149,-5.51904 3.76149,-9.07652 z m -5.79399,0.64691 c -0.15385,1.7756 -1.0892,3.58692 -2.42748,4.76395 -1.25622,1.10482 -3.05392,1.73497 -4.72625,1.68882 -1.72055,-0.0473 -3.52419,-0.80425 -4.75931,-2.003 -1.26012,-1.223 -2.08881,-3.03904 -2.18768,-4.79224 -0.0975,-1.72853 0.44171,-3.66156 1.61211,-4.93723 1.36255,-1.48508 3.55012,-2.40545 5.56509,-2.36358 1.97562,0.0411 4.06303,1.04725 5.35546,2.54202 1.1635,1.3457 1.72174,3.32898 1.56806,5.10126 z" />
  <path
     d="m 244.96504,191.68625 c -0.27974,-0.94476 -0.35853,-2.93332 -0.35853,-2.93332 v -12.90806 h 5.71374 v 13.25779 c 0,0 0.0639,1.05962 0.4775,2.18478 0.31548,0.85874 0.9062,1.7557 1.39592,2.24858 0.65014,0.65432 1.40495,1.2793 2.27251,1.69034 1.00176,0.47436 2.13936,0.68489 3.20448,0.66713 1.21651,-0.0208 2.48708,-0.40527 3.55923,-1.07507 0.58552,-0.36624 1.08157,-0.85448 1.54752,-1.32862 0.50702,-0.51575 1.05713,-1.43695 1.38292,-2.30431 0.34426,-0.91683 0.4503,-1.76681 0.4503,-1.76681 l 0.0337,-13.57381 h 5.67524 v 25.07762 h -5.67524 v -1.49776 c 0,0 -1.1248,0.82333 -2.67087,1.40104 -1.55279,0.58021 -3.52967,0.91423 -4.83063,0.80091 -1.5255,-0.13227 -3.93217,-0.59792 -5.67222,-1.48872 -1.5339,-0.78552 -2.92171,-1.93686 -3.9885,-3.29038 -1.18511,-1.50366 -1.97463,-3.32576 -2.51757,-5.16133 z"
     style="font-style:normal;font-variant:normal;font-weight:normal;font-stretch:normal;font-size:30px;line-height:1.15;font-family:'Highway Gothic Wide';-inkscape-font-specification:'Highway Gothic Wide';fill:#ffffff;fill-opacity:1;stroke-width:0.257104"
     id="path114440"
     sodipodi:nodetypes="accccsssssssccccccssaaa" />
  <path
     id="rect114461"
     style="opacity:1;fill:#ffffff;fill-opacity:1;stroke:none;stroke-width:5.283;stroke-miterlimit:4;stroke-dasharray:none;stroke-opacity:1;paint-order:stroke fill markers"
     d="m 287.32456,166.1431 v 35.36133 h 5.55859 V 166.1431 Z" />
  <path
     id="path31015"
     d="m 447.51269,201.4564 c -0.20477,-0.0225 -0.64309,-0.0719 -0.974,-0.10907 -3.65842,-0.41039 -7.52196,-2.30035 -9.62942,-4.7106 -0.90883,-1.03944 -1.61478,-2.32403 -1.9903,-3.62171 -0.36681,-1.26761 -0.38348,-1.39168 -0.38129,-2.84516 0.003,-1.52651 0.0696,-1.96467 0.48843,-3.17583 0.3,-0.86766 0.50674,-1.31729 0.89386,-1.94397 0.57456,-0.93004 1.14544,-1.61069 1.99128,-2.37411 l 0.39635,-0.35772 -0.14168,-0.15636 c -0.0781,-0.0859 -0.21757,-0.25502 -0.31037,-0.37554 -0.9382,-1.2194 -1.33426,-2.00539 -1.69899,-3.37172 -0.18845,-0.70587 -0.18845,-0.70667 -0.18764,-2.08119 v -1.37505 l 0.18712,-0.66728 c 0.32679,-1.16556 0.64735,-1.84983 1.19693,-2.55544 0.99735,-1.28043 2.31247,-2.5061 3.59911,-3.3543 0.58401,-0.385 1.96636,-1.06925 2.77873,-1.37548 3.23662,-1.22 7.06251,-1.15656 10.21365,0.16932 1.98849,0.8367 3.03289,1.52972 4.55814,3.0246 1.15335,1.13039 1.78388,1.95814 2.14151,2.8114 0.48496,1.15688 0.68568,2.15132 0.68793,3.40816 0.003,2.03155 -0.72002,3.92518 -2.15477,5.6385 l -0.22328,0.26674 0.77104,0.75718 c 1.38111,1.35624 1.93343,2.25349 2.58199,4.19476 0.25456,0.76153 0.36338,1.4068 0.4211,2.49407 0.14983,2.82774 -0.941,5.53325 -3.04896,7.56096 -0.87465,0.84137 -2.46758,1.91829 -3.61516,2.44418 -1.90477,0.87284 -3.62304,1.3811 -5.28596,1.56352 -0.29934,0.0328 -0.76344,0.0855 -1.03128,0.1168 -0.54257,0.0636 -1.66435,0.0637 -2.23448,0 z m 2.6283,-6.44486 c 0.97655,-0.14708 1.27819,-0.22684 2.32588,-0.61505 0.77543,-0.28729 1.42563,-0.63699 2.26171,-1.21637 0.51669,-0.35811 0.70082,-0.52518 0.94106,-0.85395 0.35316,-0.48328 0.58792,-1.01621 0.67302,-1.52789 0.0644,-0.38859 0.0304,-1.28352 -0.0604,-1.57483 -0.18902,-0.60674 -0.55983,-1.21312 -0.98562,-1.61118 -0.36794,-0.34398 -1.47338,-1.05344 -2.09165,-1.34246 -0.77148,-0.3606 -1.81625,-0.71348 -2.56989,-0.86798 -0.88406,-0.18124 -2.76535,-0.2071 -3.68633,-0.0507 -1.00493,0.17068 -1.73202,0.39709 -2.81648,0.87704 -0.87562,0.38752 -1.98646,1.14505 -2.41434,1.64646 -0.37336,0.43752 -0.49624,0.64443 -0.6655,1.12083 -0.1697,0.47778 -0.1977,0.65398 -0.19417,1.22266 0.005,0.85628 0.24339,1.50558 0.80136,2.18632 0.34451,0.42038 0.50007,0.54932 1.28092,1.06156 0.98184,0.64406 2.5512,1.28376 3.56936,1.4549 1.64064,0.2758 2.29316,0.29208 3.63088,0.0907 z m 0.37964,-14.97437 c 1.50687,-0.4051 2.51609,-0.99418 3.64817,-2.12927 0.76968,-0.77175 0.81455,-0.86697 0.78306,-1.66239 -0.0189,-0.43758 -0.0395,-0.52425 -0.19091,-0.74774 -0.21077,-0.31098 -1.17088,-1.25736 -1.48716,-1.4657 -0.12787,-0.0843 -0.37984,-0.25294 -0.56025,-0.37506 -0.50507,-0.34194 -1.42592,-0.72554 -2.27888,-0.94931 -0.74542,-0.19557 -0.80991,-0.20288 -1.77613,-0.20173 -0.88524,0.001 -1.07978,0.0193 -1.66152,0.15569 -1.71816,0.40283 -3.16554,1.25729 -4.2201,2.49133 -0.421,0.49259 -0.4935,0.67443 -0.4935,1.23782 0,0.57204 0.0732,0.74789 0.52451,1.25553 1.08671,1.22305 2.52425,2.07189 4.13179,2.43967 0.692,0.15832 0.77242,0.16422 1.91936,0.14125 0.924,-0.0184 1.09682,-0.0381 1.66151,-0.19011 z"
     style="fill:#ffffff;fill-opacity:1;stroke-width:0.0169157"
     sodipodi:nodetypes="ccsssssscscsccssssssssscsssssssccsssssssssssssssssssssssssssssssss" />
  <path
     sodipodi:nodetypes="csssaccssssccssscsassascsassscssscasacscss"
     id="path108150"
     style="font-style:normal;font-variant:normal;font-weight:normal;font-stretch:normal;font-size:30px;line-height:1.15;font-family:'Highway Gothic Wide';-inkscape-font-specification:'Highway Gothic Wide';fill:#ffffff;fill-opacity:1;stroke-width:0.255563"
     d="m 391.76767,170.11503 c 1.28545,-1.21473 3.01768,-1.9959 4.74714,-2.64145 2.20195,-0.8218 4.47504,-1.33971 6.63746,-1.33971 4.10014,0 7.52586,1.10319 10.3528,3.39814 0.89558,0.72697 1.93072,1.71544 2.58594,2.80548 0.71868,1.19557 1.38682,3.94833 1.38682,3.94833 l 0.007,9.769 c 0,0 -0.37018,2.85857 -1.68118,5.80415 -0.9309,2.09156 -2.6112,4.20797 -3.73867,5.46093 -2.33547,2.59544 -6.26523,4.22895 -9.60292,4.18303 -1.40304,-0.0203 -3.81432,-0.46368 -5.4678,-1.33963 -2.54455,-1.34798 -4.14559,-3.32936 -4.14559,-3.32936 l 4.89595,-4.00953 c 0,0 0.75501,1.02463 2.11387,1.6568 1.4396,0.66973 3.53117,0.92881 5.17728,0.15828 0.99433,-0.46564 2.79382,-1.95435 3.86354,-3.51348 1.39827,-2.03808 1.95622,-4.1829 1.95622,-4.1829 0,0 -1.26627,0.60847 -2.86698,1.09152 -1.46945,0.44344 -2.92856,0.60218 -4.41548,0.65154 -0.9022,0.0304 -1.5353,-0.009 -2.6995,-0.21682 -2.91728,-0.51445 -6.65687,-1.68358 -8.84694,-3.57817 -1.97002,-1.70427 -3.39325,-4.39223 -3.48314,-6.99561 -0.0969,-2.8057 1.18456,-5.852 3.22494,-7.78016 z m 3.85597,7.10506 c -0.009,0.32721 0.007,0.79672 0.12347,1.17136 0.1374,0.43806 0.4366,0.896 0.6626,1.20732 0.31742,0.43752 0.83981,0.82109 1.3814,1.14604 0.26696,0.15993 0.52294,0.31376 0.79162,0.43733 1.47751,0.68037 2.59498,1.1286 4.7475,1.1286 1.51298,0 3.03232,-0.3326 4.43446,-0.88588 0.1791,-0.0707 0.35176,-0.16329 0.52043,-0.26459 0.19999,-0.11986 0.39479,-0.25148 0.58995,-0.37345 0.28749,-0.17943 0.58693,-0.30803 0.82389,-0.5602 0.23195,-0.35172 0.70188,-0.63765 0.91283,-1.05088 0.32921,-0.64509 0.57781,-1.37911 0.49317,-2.11635 -0.0811,-0.70566 -0.46917,-1.42142 -0.92364,-1.9972 -0.37788,-0.47876 -0.97781,-0.81638 -1.43689,-1.13274 -1.36672,-0.88836 -3.12639,-1.33252 -5.27896,-1.33252 -2.15255,0 -3.89507,0.39294 -5.22763,1.1788 -1.33257,0.82002 -2.57136,2.18068 -2.6142,3.44414 z" />
  <g
     transform="matrix(2.5321665,0,0,2.5321665,1051.6122,-1102.7951)"
     style="font-size:20.4734px;line-height:1.15;font-family:'ALS Direct';-inkscape-font-specification:'ALS Direct';fill:#ffffff;fill-opacity:1;stroke:none;stroke-width:0.0148688;stroke-opacity:1"
     id="text7192"
     aria-label="2">
    <path
       sodipodi:nodetypes="ccccaassassccaassassaacccc"
       id="path7194"
       style="font-style:normal;font-variant:normal;font-weight:normal;font-stretch:normal;font-family:'Highway Gothic Wide';-inkscape-font-specification:'Highway Gothic Wide';fill:#ffffff;fill-opacity:1;stroke-width:0.0148688"
       d="m -268.29855,515.08833 -11.14837,0.004 -3.4e-4,-2.51759 7.89212,-4.62336 c 0,0 0.40631,-0.49193 0.52909,-0.7816 0.14055,-0.33162 0.24698,-0.69824 0.22175,-1.05753 -0.0387,-0.55108 -0.18529,-1.15588 -0.56348,-1.55856 -0.31998,-0.3407 -0.75563,-0.67337 -1.21586,-0.82434 -0.2924,-0.0959 -0.59093,-0.11034 -0.88746,-0.0889 -0.49219,0.0356 -1.02992,0.19226 -1.43652,0.3578 -0.32147,0.13088 -0.73662,0.41544 -1.03975,0.76014 -0.40792,0.46386 -0.66063,0.99332 -0.66063,0.99332 l -2.27862,-1.05184 c 0,0 0.48469,-0.94646 0.83255,-1.34132 0.53055,-0.60223 1.15367,-1.15428 1.86935,-1.51754 0.83667,-0.42468 1.78971,-0.71171 2.72203,-0.71682 0.11037,-6e-4 0.47608,-0.005 0.86677,0.0528 0.31189,0.0462 0.59913,0.12133 0.88806,0.21856 0.29388,0.0989 0.5763,0.21396 0.8539,0.36899 0.58173,0.32485 1.11574,0.77681 1.49607,1.30527 0.70738,0.98288 1.09003,2.26444 1.05935,3.47501 -0.0217,0.8575 -0.43351,1.68434 -0.87411,2.4203 -0.26063,0.43533 -1.01771,1.13192 -1.01771,1.13192 l -4.24876,2.47054 6.14331,0.0105 z" />
  </g>
  <g
     style="fill:#ffffff"
     transform="matrix(1.3333334,0,0,1.3333334,-144.54849,-749.38815)"
     id="g115159">
    <path
       id="path114513"
       style="opacity:1;fill:#ffffff;fill-opacity:1;stroke:none;stroke-width:3.96225;stroke-miterlimit:4;stroke-dasharray:none;stroke-opacity:1;paint-order:stroke fill markers"
       d="m 200.60302,642.90671 v 26.521 h 4.16894 v -26.521 z" />
    <path
       d="m 217.8839,661.98215 c -0.20963,-0.70796 -0.26867,-2.1981 -0.26867,-2.1981 v -9.67272 h 4.28162 v 9.93479 c 0,0 0.0479,0.79403 0.35782,1.63718 0.23641,0.6435 0.67907,1.31565 1.04604,1.68499 0.48718,0.49032 1.0528,0.95864 1.70292,1.26666 0.75067,0.35546 1.60314,0.51323 2.40129,0.49992 0.9116,-0.0156 1.86371,-0.30369 2.66713,-0.80561 0.43876,-0.27444 0.81048,-0.64031 1.15964,-0.99561 0.37994,-0.38648 0.79217,-1.07679 1.0363,-1.72675 0.25798,-0.68703 0.33744,-1.32397 0.33744,-1.32397 l 0.0253,-10.1716 h 4.25277 v 18.79205 h -4.25277 v -1.12236 c 0,0 -0.84288,0.61697 -2.00143,1.04988 -1.16359,0.43479 -2.64498,0.68508 -3.61986,0.60016 -1.14315,-0.0991 -2.9466,-0.44805 -4.25051,-1.11558 -1.14944,-0.58863 -2.1894,-1.45139 -2.9888,-2.46566 -0.88807,-1.12678 -1.4797,-2.49217 -1.88656,-3.86767 z"
       style="font-style:normal;font-variant:normal;font-weight:normal;font-stretch:normal;font-size:30px;line-height:1.15;font-family:'Highway Gothic Wide';-inkscape-font-specification:'Highway Gothic Wide';opacity:1;fill:#ffffff;fill-opacity:1;stroke-width:0.192662"
       id="path114528"
       sodipodi:nodetypes="accccsssssssccccccssaaa" />
    <path
       transform="scale(0.74999998)"
       d="m 239.67969,867.31055 a 12.637161,12.637161 0 0 0 -12.51758,12.63672 12.637161,12.637161 0 0 0 12.63867,12.63671 12.637161,12.637161 0 0 0 12.63672,-12.63671 12.637161,12.637161 0 0 0 -12.63672,-12.63672 12.637161,12.637161 0 0 0 -0.12109,0 z m 0.0742,5.41406 a 7.2233755,7.2233755 0 0 1 0.0469,0 7.2233755,7.2233755 0 0 1 7.22266,7.22266 7.2233755,7.2233755 0 0 1 -7.22266,7.22265 7.2233755,7.2233755 0 0 1 -7.22461,-7.22265 7.2233755,7.2233755 0 0 1 7.17774,-7.22266 z"
       style="opacity:1;fill:#ffffff;fill-opacity:1;stroke:none;stroke-width:4.52365;stroke-miterlimit:4;stroke-dasharray:none;stroke-opacity:1;paint-order:stroke fill markers"
       id="path114530" />
    <path
       id="path49927"
       style="font-style:normal;font-variant:normal;font-weight:normal;font-stretch:normal;font-size:30px;line-height:1.15;font-family:'Highway Gothic Wide';-inkscape-font-specification:'Highway Gothic Wide';opacity:1;fill:#ffffff;fill-opacity:1;stroke:none;stroke-width:0.2908;stroke-opacity:1"
       d="m 138.42027,643.03001 v 26.39663 h 13.23758 c 1.36578,0 2.71843,-0.36772 4.05797,-1.10317 1.20817,-0.65661 2.00555,-1.58918 2.71474,-2.79736 0.73541,-1.23446 1.13516,-2.909 1.13516,-4.24851 -0.0124,-1.4091 -0.58647,-2.7313 -1.24125,-3.94407 -0.37519,-0.695 -1.49952,-1.83451 -1.49952,-1.83451 0,0 1.65584,-2.09467 1.65584,-4.72119 0,-2.67902 -1.58296,-5.46258 -3.9731,-6.8021 -1.10315,-0.63038 -2.62648,-0.94572 -4.57008,-0.94572 z m 4.76141,4.76474 h 7.673 c 1.61334,0 2.91236,1.29865 2.91236,2.91199 0,1.61333 -1.29902,2.91236 -2.91236,2.91236 h -7.673 z m 0.0793,10.53996 h 8.37272 c 1.76328,0 3.18259,1.41967 3.18259,3.18296 0,1.76328 -1.41931,3.18257 -3.18259,3.18257 h -8.37272 z" />
  </g>
  <g
     transform="matrix(1.3333334,0,0,1.3333334,-144.54849,-749.38815)"
     id="g115193">
    <path
       transform="scale(0.74999998)"
       sodipodi:nodetypes="ssssssssssssssssss"
       d="m 167.29883,755.45312 c -9.32824,0 -16.83789,7.50966 -16.83789,16.8379 v 190.00586 c 0,9.32824 7.50965,16.83789 16.83789,16.83789 h 458.97851 c 9.32824,0 16.83789,-7.50965 16.83789,-16.83789 V 772.29102 c 0,-9.32824 -7.50965,-16.8379 -16.83789,-16.8379 z m 0.11734,5.49415 h 458.81821 c 6.31676,0 11.40039,5.08558 11.40039,11.40234 V 962.3125 c 0,6.31676 -5.08363,11.40234 -11.40039,11.40234 H 167.41617 c -6.31677,0 -11.40234,-5.08558 -11.40234,-11.40234 V 772.34961 c 0,-6.31676 5.08557,-11.40234 11.40234,-11.40234 z"
       style="opacity:1;fill:#ffffff;stroke-width:0.462128;paint-order:stroke fill markers"
       id="rect104656" />
    <g
       style="fill:#ffffff"
       id="g115186">
      <path
         sodipodi:nodetypes="csssaccssssccssscsassascsassscssscasacscss"
         id="path115161"
         style="font-style:normal;font-variant:normal;font-weight:normal;font-stretch:normal;font-size:30px;line-height:1.15;font-family:'Highway Gothic Wide';-inkscape-font-specification:'Highway Gothic Wide';fill:#ffffff;fill-opacity:1;stroke-width:0.191672"
         d="m 453.15211,666.68311 c -0.96409,0.91105 -2.26326,1.49693 -3.56036,1.98109 -1.65146,0.61635 -3.35628,1.00478 -4.97809,1.00478 -3.07511,0 -5.6444,-0.82739 -7.7646,-2.5486 -0.67169,-0.54523 -1.44804,-1.28658 -1.93946,-2.10411 -0.53901,-0.89668 -1.04011,-2.96125 -1.04011,-2.96125 l -0.005,-7.32675 c 0,0 0.27764,-2.14393 1.26089,-4.35311 0.69817,-1.56867 1.9584,-3.15598 2.804,-4.0957 1.7516,-1.94658 4.69892,-3.17171 7.20219,-3.13727 1.05228,0.0152 2.86074,0.34776 4.10085,1.00472 1.90841,1.01099 3.10919,2.49702 3.10919,2.49702 l -3.67196,3.00715 c 0,0 -0.56626,-0.76847 -1.5854,-1.2426 -1.0797,-0.5023 -2.64838,-0.69661 -3.88296,-0.11871 -0.74575,0.34923 -2.09537,1.46576 -2.89766,2.63511 -1.0487,1.52856 -1.46716,3.13717 -1.46716,3.13717 0,0 0.9497,-0.45635 2.15023,-0.81864 1.10209,-0.33258 2.19642,-0.45163 3.31161,-0.48865 0.67665,-0.0228 1.15148,0.007 2.02463,0.16261 2.18796,0.38584 4.99265,1.26269 6.6352,2.68363 1.47752,1.2782 2.54494,3.29417 2.61236,5.24671 0.0727,2.10427 -0.88842,4.389 -2.41871,5.83512 z m -2.89198,-5.32879 c 0.007,-0.24541 -0.005,-0.59754 -0.0926,-0.87852 -0.10305,-0.32855 -0.32745,-0.672 -0.49695,-0.90549 -0.23807,-0.32814 -0.62986,-0.61582 -1.03605,-0.85953 -0.20022,-0.11995 -0.39221,-0.23532 -0.59372,-0.328 -1.10813,-0.51028 -1.94623,-0.84645 -3.56062,-0.84645 -1.13474,0 -2.27424,0.24945 -3.32585,0.66441 -0.13432,0.053 -0.26382,0.12247 -0.39032,0.19844 -0.14999,0.0899 -0.29609,0.18861 -0.44246,0.28009 -0.21562,0.13457 -0.4402,0.23102 -0.61792,0.42015 -0.17396,0.26379 -0.52641,0.47824 -0.68462,0.78816 -0.24691,0.48382 -0.43336,1.03433 -0.36988,1.58726 0.0608,0.52925 0.35188,1.06607 0.69273,1.4979 0.28341,0.35907 0.73336,0.61229 1.07767,0.84956 1.02504,0.66627 2.34479,0.99939 3.95922,0.99939 1.61441,0 2.9213,-0.29471 3.92072,-0.8841 0.99943,-0.61502 1.92852,-1.63551 1.96065,-2.58311 z" />
      <path
         style="fill:#ffffff;fill-opacity:1;stroke-width:0.0126943"
         d="m 409.26685,669.66691 c -2.88918,-0.0597 -5.88788,-0.92565 -8.34115,-2.40883 -0.76092,-0.46 -1.10062,-0.70659 -1.08201,-0.78545 0.0143,-0.0609 2.5558,-3.64926 2.67817,-3.78131 0.0497,-0.0536 0.10069,-0.0324 0.3701,0.1535 1.49535,1.03211 3.53605,1.7761 5.40749,1.97149 2.1181,0.22111 4.08641,-0.0591 6.01942,-0.85666 0.15366,-0.0634 0.38226,-0.15761 0.50789,-0.20929 0.41962,-0.17259 0.95706,-0.83744 1.20785,-1.49413 0.45297,-1.18622 0.12087,-2.51386 -0.85583,-3.42068 -0.16794,-0.1559 -0.2994,-0.21996 -1.07491,-0.52374 -0.90927,-0.35617 -1.53351,-0.52461 -2.67851,-0.72282 -0.61451,-0.10637 -0.7598,-0.11443 -2.42722,-0.13445 l -1.77358,-0.0213 v -2.3811 -2.38111 l 1.5586,-5e-4 c 0.85722,0 1.73272,-0.0195 1.94557,-0.0431 1.22749,-0.13547 2.31378,-0.46819 3.47976,-1.06574 0.79008,-0.40492 0.81576,-0.42227 0.87276,-0.58918 0.14002,-0.41024 0.10884,-1.00824 -0.0744,-1.42657 -0.0756,-0.17289 -0.10742,-0.19366 -0.83487,-0.5488 -0.41591,-0.20302 -0.85991,-0.40794 -0.98668,-0.45536 -0.44268,-0.16562 -1.27136,-0.38248 -1.90458,-0.49843 -0.56902,-0.10418 -0.74525,-0.1172 -1.62705,-0.12019 -0.9039,-0.003 -1.04804,0.007 -1.67683,0.1184 -0.79397,0.14054 -1.21211,0.25486 -1.9339,0.52868 -0.69128,0.26226 -1.76803,0.83605 -2.21606,1.18093 l -0.15143,0.11654 -1.05251,-1.4417 c -0.57891,-0.79294 -1.21274,-1.66446 -1.40858,-1.93674 l -0.35599,-0.49504 0.52799,-0.35124 c 0.68655,-0.45671 1.17091,-0.73038 1.97748,-1.11728 0.59655,-0.28619 1.53396,-0.65307 1.86121,-0.72847 0.0709,-0.0163 0.28377,-0.0756 0.47294,-0.13162 0.53683,-0.15903 1.09746,-0.28055 1.60146,-0.34715 0.25428,-0.0336 0.59779,-0.0791 0.76332,-0.10125 1.20317,-0.16063 3.46771,-0.0543 4.49304,0.21102 0.0827,0.0214 0.38157,0.0878 0.66401,0.14763 0.50013,0.10584 1.52168,0.44071 2.2597,0.74066 0.59459,0.24167 1.90455,0.96323 2.54439,1.40154 0.32836,0.22491 0.40895,0.30783 0.67185,0.6912 0.93744,1.36708 1.34716,2.91945 1.21158,4.59048 -0.0581,0.71683 -0.34762,1.7738 -0.64915,2.37045 -0.17507,0.34636 -0.59926,1.00035 -0.86904,1.3397 l -0.27088,0.34075 0.30026,0.27552 c 1.2583,1.15476 2.0692,2.59427 2.43992,4.33148 0.10844,0.50815 0.1604,1.98495 0.0884,2.51525 -0.19892,1.46681 -0.86961,3.00236 -1.77984,4.07485 -0.40455,0.47666 -1.03322,1.06628 -1.39398,1.30746 -0.33313,0.22269 -0.96345,0.54683 -1.36046,0.69964 -0.14672,0.0565 -0.48068,0.19009 -0.74218,0.29695 -0.91574,0.3742 -2.68985,0.82902 -3.69511,0.94728 -1.04976,0.12351 -1.35403,0.1513 -1.78433,0.16307 -0.27194,0.007 -0.68792,0.009 -0.9244,0.004 z"
         id="path31013"
         sodipodi:nodetypes="csssssssssssscccccsssssssssscsscsssssssssssssscssssssssscc" />
    </g>
  </g>
</svg>
