<svg width="504.62" height="235.89" version="1.1" viewBox="0 0 504.62 235.89" xmlns="http://www.w3.org/2000/svg"><defs><style>.cls-1 {        fill: #00408c;        fill-rule: evenodd;      }      .cls-2 {        fill: #fff;      }</style></defs><path d="m0.224 0.224v235.44h504.18v-235.44z" fill="#00408c" style="paint-order:stroke fill markers"/><g fill="#fff"><path d="m161.8 201.59v-24.802" stroke="#2e4fa8" stroke-linecap="round" stroke-linejoin="round" stroke-miterlimit="10" stroke-width=".16"/><path d="m287.24 166.06a0.08 0.08 0 0 0-0.0801 0.0801v35.434a0.08 0.08 0 0 0 0 0.01 0.08 0.08 0 0 0 0.0801 0.0801h5.6408a0.08 0.08 0 0 0 0.0234-4e-3 0.08 0.08 0 0 0 0.0586-0.0762v-14.203a0.08 0.08 0 0 0-0.082-0.082 0.08 0.08 0 0 0-0.0801 0.082v14.121h-5.4785v-35.281h5.5586a0.08 0.08 0 0 0 0.082-0.0801 0.08 0.08 0 0 0-0.082-0.0801h-5.6309z" color="#000000" color-rendering="auto" dominant-baseline="auto" enable-background="accumulate" image-rendering="auto" shape-rendering="auto" solid-color="#000000" stop-color="#000000" style="font-feature-settings:normal;font-variant-alternates:normal;font-variant-caps:normal;font-variant-east-asian:normal;font-variant-ligatures:normal;font-variant-numeric:normal;font-variant-position:normal;font-variation-settings:normal;inline-size:0;isolation:auto;mix-blend-mode:normal;shape-margin:0;shape-padding:0;text-decoration-color:#000000;text-decoration-line:none;text-decoration-style:solid;text-indent:0;text-orientation:mixed;text-transform:none;white-space:normal"/><g transform="matrix(1.3333 0 0 1.3333 -144.55 -749.39)"><path transform="scale(.75)" d="m309.19 783.85v45.125h175.25v-45.125zm2.6406 2.6406h169.96v39.844h-169.96z" color="#000000" color-rendering="auto" dominant-baseline="auto" enable-background="accumulate" fill="#fff" image-rendering="auto" shape-rendering="auto" solid-color="#000000" stop-color="#000000" style="font-feature-settings:normal;font-variant-alternates:normal;font-variant-caps:normal;font-variant-east-asian:normal;font-variant-ligatures:normal;font-variant-numeric:normal;font-variant-position:normal;font-variation-settings:normal;inline-size:0;isolation:auto;mix-blend-mode:normal;paint-order:stroke fill markers;shape-margin:0;shape-padding:0;text-decoration-color:#000000;text-decoration-line:none;text-decoration-style:solid;text-indent:0;text-orientation:mixed;text-transform:none;white-space:normal"/></g><g transform="matrix(1.3333 0 0 1.3333 -144.55 -749.39)"><path transform="scale(.75)" d="m374.42 792.29 2e-3 2.541 2e-3 2.543 8.2539 4e-3c4.5385 0 8.252 2e-3 8.252 6e-3 0 2e-3 -3.2938 5.2022-7.3184 11.557-4.023 6.3522-7.3188 11.554-7.3262 11.57-0.01 0.0217 0.13705 0.0215 3 0.0215h3.0117l0.0664-0.10352c0.0362-0.0565 3.3329-5.2658 7.3262-11.578l7.2598-11.477 2e-3 -2.543v-2.541h-11.266zm1.8652 28.221h-2e-3v4e-3l2e-3 -4e-3zm-19.729-5.5449v5.5215h5.5156v-5.5215z" stroke-width=".0032801"/><path d="m322.5 613.49c-0.63758 0.50575-1.3777 0.87182-2.1426 1.1705-0.6821 0.26632-1.3387 0.50168-2.1697 0.61308-0.75754 0.10166-1.7522 0.17796-2.6219 0.0867-1.6346-0.17147-3.2601-0.57356-4.787-1.182-0.95344-0.37992-2.6776-1.52-2.6776-1.52l2.2294-3.086s0.86721 0.66398 2.1694 1.1968c0.98994 0.40506 2.333 0.70051 3.1461 0.76786 1.3549 0.11264 3.0741-0.0406 4.0062-0.76403 0.31019-0.24816 0.63114-0.36923 0.86017-0.65102 0.45922-0.56528 0.68729-1.3449 0.68729-2.0636 0.0287-0.76511-0.38796-1.499-0.88685-1.9905-0.24426-0.24059-0.48304-0.37437-0.75121-0.5179-0.3951-0.21108-0.80003-0.37615-1.2488-0.49613-0.65562-0.17525-1.3476-0.29075-1.9885-0.2474-0.63605 0.0435-1.5706 0.11091-2.371 0.31857-0.98752 0.25638-1.7888 0.65612-1.7888 0.65612l-3.1973-2.5662 0.82947-8.9956 13.525 0.0169v3.8084l-10.059-0.019-0.30685 3.4353s0.55757-0.1522 1.2739-0.26683c0.78003-0.1249 1.7484-0.21368 2.3908-0.23185 0.46258-0.0154 0.88399 0.0308 1.3839 0.10926 0.9203 0.1457 1.9427 0.43928 2.7698 0.81517 0.45418 0.2063 0.89784 0.4278 1.2954 0.72107 0.61475 0.4533 1.1762 0.98916 1.656 1.5833 0.20231 0.25064 0.35501 0.51729 0.50574 0.8234 0.54292 1.1019 0.9032 2.4839 0.77568 3.705-0.062 0.58373-0.16474 1.2129-0.37638 1.7866-0.18887 0.51247-0.4727 0.97321-0.74496 1.4356-0.35159 0.59677-0.84286 1.1185-1.3858 1.5489z" stroke-width=".15321"/><path d="m352.59 604.84c0 3.1991-1.066 5.6524-2.6605 7.6292-1.5734 1.956-3.7932 3.0836-6.0563 3.0686-1.0046-8e-3 -2.0108-0.18235-2.9614-0.56336-1.4172-0.56792-2.7106-1.5652-3.6902-2.9191-1.4266-1.956-2.3361-4.281-2.3361-7.1542 0-3.2601 1.0494-5.5476 2.6439-7.4222 1.5943-1.8949 3.5745-3.1224 6.3437-3.1224 2.6014 0 4.5089 1.2029 6.1033 3.1387 1.6154 1.9154 2.6134 4.2069 2.6134 7.3448zm-3.7954 0.0621c-0.0206-0.38518-0.0157-0.7869-0.0803-1.1801-0.20431-1.2251-0.68042-2.436-1.3475-3.3616-0.86014-1.2226-1.9426-2.17-3.516-2.17-1.5944 0-2.6353 0.6953-3.5374 1.9179-0.90213 1.2226-1.5887 2.6339-1.5887 4.7938 0 2.1803 0.5522 3.483 1.4543 4.726 0.45738 0.6199 0.97412 1.175 1.5968 1.5329 0.60531 0.3479 1.3116 0.50719 2.0975 0.50719 1.1996 0 1.7245-0.40653 2.4333-0.90238 0.48696-0.34063 0.80666-0.87653 1.1555-1.3577 0.1567-0.21606 0.29201-0.44772 0.41815-0.68303 0.16023-0.29914 0.32326-0.61153 0.42861-0.92354 0.31334-0.92857 0.53395-1.9639 0.48575-2.8995z" stroke-width=".14967"/><path d="m242.51 615.33v-21.105l4.4813 0.0113c3.2851 9e-3 4.5356 0.0234 4.6846 0.0555 0.11181 0.024 0.36129 0.0687 0.55442 0.099 0.1931 0.0303 0.49248 0.0981 0.66526 0.15057 0.17278 0.0526 0.39309 0.11821 0.48953 0.14625 0.63933 0.18432 1.8283 0.80684 2.3918 1.2523 0.3857 0.30489 1.2222 1.112 1.4338 1.3834 1.1672 1.4971 1.7165 2.9464 2.0402 5.3823 0.36083 2.7152-0.0455 5.936-0.99873 7.9134-0.43982 0.91254-0.93097 1.5885-1.6884 2.3238-0.74262 0.7209-1.2518 1.0835-2.1714 1.5462-0.44068 0.22177-0.94416 0.41189-1.4968 0.56525-0.19312 0.0537-0.37607 0.10716-0.40654 0.1191-0.0305 0.0113-0.0658 0.0199-0.0785 0.0176-0.0113-1e-3 -0.21224 0.0322-0.44351 0.0764-0.41479 0.0795-4.1534 0.0816-4.1534 0.0816zm9.055-3.8554c0.61405-0.14329 0.73885-0.18722 1.1827-0.41558 0.25409-0.13069 0.57009-0.31908 0.70222-0.41856 0.95744-0.72088 1.5837-1.7576 1.8256-3.0221 0.0305-0.15886 0.08-0.3968 0.1103-0.52895 0.2378-1.0372 0.25666-3.0506 0.0407-4.3427-0.23387-1.399-0.49526-2.1158-1.0393-2.8502-0.28359-0.38287-0.59091-0.68167-1.0851-1.055-0.18207-0.13764-0.81654-0.44623-1.1458-0.55741-0.69872-0.23597-0.59725-0.22865-3.354-0.24135l-2.5224-0.0113v13.534l2.504-0.0132c2.2254-0.0113 2.5348-0.0202 2.7812-0.0779z"/></g><g><path d="m40.006 155.58v6.366h6.2036v-6.366zm0 10.618v35.304h6.2036v-35.304z"/><path d="m83.742 194.46c-0.022 1.3122-0.29495 2.4926-0.87155 3.5734-0.3939 0.7382-0.88952 1.4588-1.6997 2.0292-0.41336 0.28443-0.91198 0.41556-1.409 0.55935-0.51648 0.14988-1.0344 0.30804-1.6287 0.43014-1.5956 0.32866-3.4367 0.61188-5.3031 0.63123-4.3192-0.0667-8.1058-0.78619-11.699-2.66l2.518-5.0821c3.0852 1.6396 6.2593 2.0006 9.0178 2.034 0.74567 0 1.8485-0.052 2.7622-0.18027 0.85188-0.1192 2.5221-0.54626 2.5221-0.54626s0.0992-0.29548 0.11546-0.44872c0.0163-0.15268-7e-3 -0.34174-0.0191-0.46032-0.0143-0.14168-0.0381-0.29751-0.13013-0.40655-0.15556-0.18391-0.28411-0.40853-0.49429-0.52704-0.43342-0.24473-0.97846-0.33717-1.4725-0.49145-1.244-0.38746-2.5033-0.72436-3.7545-1.0883-0.74125-0.21559-1.4826-0.43115-2.2232-0.64902-0.47593-0.1401-0.95227-0.27888-1.4269-0.42309-1.0068-0.30605-2.053-0.5102-3.0138-0.93935-0.67803-0.30301-1.4941-0.75553-1.913-1.1417-1.3792-1.3384-2.204-2.6824-2.4042-4.3174-0.23283-1.9008 0.40141-4.2383 1.5011-5.5456 0.41252-0.49045 0.75518-0.85658 1.2423-1.1344 0.57861-0.33015 1.266-0.41759 1.9111-0.58392 0.9233-0.23778 1.8552-0.45378 2.7989-0.58914 1.2781-0.18341 2.7026-0.3005 3.8619-0.3005 3.557 0 6.7739 0.7028 9.7902 2.0025l-2.1679 5.213c-2.0111-0.9414-5.4837-1.5405-8.2995-1.5768-1.6555-0.0196-4.9018 0.80076-4.9018 0.80076s-0.15094 0.33672-0.15367 0.516c-5e-3 0.32715 0.0371 0.702 0.25151 0.94953 0.54391 0.62784 1.5105 0.69727 2.2935 0.97488 0.63972 0.22704 1.3051 0.37336 1.9572 0.56151 1.142 0.33016 2.2978 0.6852 3.4241 0.9956 2.0837 0.57421 5.092 1.089 6.8547 2.8203 1.2956 1.2725 2.127 2.5241 2.1633 5.0002z" stroke-width=".12584"/><path d="m107.22 195.72 3.3952 4.551c-1.7734 1.3157-3.399 1.4049-4.4546 1.4049-1.9751 0-4.0201-1.0325-5.246-2.5649-1.1919-1.5324-1.6935-2.9123-1.6834-4.9896l0.0596-12.261h-5.618v-5.6517h5.618v-9.9073h5.6686v9.9073h5.6559v5.6517h-5.6559v12.758s0.0295 0.44757 0.14543 0.62869c0.22243 0.34742 0.5748 0.6733 0.97864 0.7578 0.21048 0.0441 0.56765-7e-3 0.81563-0.0971 0.20242-0.074 0.32093-0.18852 0.32093-0.18852z"/><path d="m144.65 200.92-5.7058-3e-4v-0.63472s-3.2065 1.1514-4.8848 1.2787c-2.0415 0.1549-4.1721 0.0236-6.1085-0.6412-1.5529-0.53316-3.1522-1.3473-4.5521-2.3162-0.66099-0.45748-1.2532-0.96652-1.7806-1.6264-0.60464-0.75655-0.93575-1.7761-0.95403-2.7444-0.0241-1.2776 0.25295-2.6904 1.1211-3.6658 1.7815-2.0017 4.4303-3.3409 7.1372-3.997 1.0208-0.24743 2.0268-0.35811 3.0314-0.46825 1.061-0.1164 2.6694 0.0517 4.0177 0.37206 1.6103 0.38247 2.8843 0.94167 2.8843 0.94167s0.14674-0.93028 0.0729-1.3875c-0.1132-0.70172-0.45128-1.539-0.77603-1.9862-0.79825-1.0992-2.2425-1.612-3.5367-2.0252-0.46194-0.1475-0.96312-0.12613-1.4478-0.1425-0.59749-0.0201-1.1968 7e-3 -1.7926 0.0549-0.96372 0.0788-2.0989 0.2256-2.8754 0.38293-2.66 0.53895-4.1294 1.354-4.1294 1.354l-2.3077-5.145s1.8652-0.89636 4.4405-1.5461c2.0242-0.51072 4.616-0.82266 6.2123-0.74149 3.035 0.15432 6.099 0.82165 8.2728 2.6939s3.6612 4.4173 3.6612 7.4062zm-5.9076-7.0494s-1.0523-0.84573-2.4562-1.402c-1.2306-0.48761-2.7534-0.69536-3.777-0.68869-0.94648 7e-3 -2.5704 0.31318-3.7157 0.77605-1.4075 0.56883-2.2578 1.3146-2.2578 1.3146s0.7266 0.71595 2.0302 1.2544c1.2322 0.50901 3.0136 0.84218 4.0564 0.84306 1.0282 5e-4 2.4957-0.22786 3.72-0.72697 1.3437-0.54777 2.4002-1.3705 2.4002-1.3705z"/><path d="m186.91 186c0.27636 0.93388 0.35441 2.9002 0.35441 2.9002v12.762h-5.6491v-13.108s-0.0639-1.0476-0.47218-2.1598c-0.31174-0.84917-0.89614-1.736-1.3801-2.2232-0.64276-0.64701-1.389-1.2648-2.2468-1.6712-0.99052-0.46926-2.1155-0.67728-3.1685-0.6597-1.2027 0.0208-2.459 0.40068-3.5188 1.063-0.57909 0.36186-1.0694 0.8448-1.5302 1.3134-0.50143 0.50999-1.0451 1.4209-1.3672 2.2783-0.3406 0.90666-0.44531 1.7471-0.44531 1.7471l-0.0337 13.42h-5.6111v-24.794h5.6111v1.4808s1.1122-0.81402 2.6405-1.385c1.5354-0.57361 3.4899-0.90398 4.7762-0.79186 1.5081 0.13173 3.8877 0.59116 5.608 1.472 1.5168 0.77666 2.8888 1.9148 3.9435 3.2532 1.1714 1.4865 1.9521 3.2882 2.4891 5.103z" stroke-width=".25422"/><path d="m230.02 188.83c0-3.5242-1.2538-6.5331-3.7615-9.0266-2.4679-2.4936-5.4731-3.7404-9.0157-3.7404-2.6585 0-5.01 0.6866-7.0547 2.0598-7e-3 5e-3 -0.0224-11.975-0.0224-11.975h-5.6817s-0.0199 19.158-0.0199 22.682c0 3.5575 0.0199 12.795 0.0199 12.795h5.6817s0.0224-2.0365 0.0344-2.0288c2.0416 1.3673 4.3888 2.0509 7.0415 2.0509 3.5426 0 6.5478-1.2468 9.0157-3.7404 2.5076-2.4935 3.7615-5.519 3.7615-9.0765zm-5.794 0.64691c-0.15385 1.7756-1.0892 3.5869-2.4275 4.764-1.2562 1.1048-3.0539 1.735-4.7262 1.6888-1.7206-0.0473-3.5242-0.80425-4.7593-2.003-1.2601-1.223-2.0888-3.039-2.1877-4.7922-0.0975-1.7285 0.44171-3.6616 1.6121-4.9372 1.3626-1.4851 3.5501-2.4054 5.5651-2.3636 1.9756 0.0411 4.063 1.0472 5.3555 2.542 1.1635 1.3457 1.7217 3.329 1.5681 5.1013z"/><path d="m244.97 191.69c-0.27974-0.94476-0.35853-2.9333-0.35853-2.9333v-12.908h5.7137v13.258s0.0639 1.0596 0.4775 2.1848c0.31548 0.85874 0.9062 1.7557 1.3959 2.2486 0.65014 0.65432 1.405 1.2793 2.2725 1.6903 1.0018 0.47436 2.1394 0.68489 3.2045 0.66713 1.2165-0.0208 2.4871-0.40527 3.5592-1.0751 0.58552-0.36624 1.0816-0.85448 1.5475-1.3286 0.50702-0.51575 1.0571-1.437 1.3829-2.3043 0.34426-0.91683 0.4503-1.7668 0.4503-1.7668l0.0337-13.574h5.6752v25.078h-5.6752v-1.4978s-1.1248 0.82333-2.6709 1.401c-1.5528 0.58021-3.5297 0.91423-4.8306 0.80091-1.5255-0.13227-3.9322-0.59792-5.6722-1.4887-1.5339-0.78552-2.9217-1.9369-3.9885-3.2904-1.1851-1.5037-1.9746-3.3258-2.5176-5.1613z" stroke-width=".2571"/><path d="m287.32 166.14v35.361h5.5586v-35.361z" style="paint-order:stroke fill markers"/><path d="m447.51 201.46c-0.20477-0.0225-0.64309-0.0719-0.974-0.10907-3.6584-0.41039-7.522-2.3004-9.6294-4.7106-0.90883-1.0394-1.6148-2.324-1.9903-3.6217-0.36681-1.2676-0.38348-1.3917-0.38129-2.8452 3e-3 -1.5265 0.0696-1.9647 0.48843-3.1758 0.3-0.86766 0.50674-1.3173 0.89386-1.944 0.57456-0.93004 1.1454-1.6107 1.9913-2.3741l0.39635-0.35772-0.14168-0.15636c-0.0781-0.0859-0.21757-0.25502-0.31037-0.37554-0.9382-1.2194-1.3343-2.0054-1.699-3.3717-0.18845-0.70587-0.18845-0.70667-0.18764-2.0812v-1.375l0.18712-0.66728c0.32679-1.1656 0.64735-1.8498 1.1969-2.5554 0.99735-1.2804 2.3125-2.5061 3.5991-3.3543 0.58401-0.385 1.9664-1.0692 2.7787-1.3755 3.2366-1.22 7.0625-1.1566 10.214 0.16932 1.9885 0.8367 3.0329 1.5297 4.5581 3.0246 1.1534 1.1304 1.7839 1.9581 2.1415 2.8114 0.48496 1.1569 0.68568 2.1513 0.68793 3.4082 3e-3 2.0316-0.72002 3.9252-2.1548 5.6385l-0.22328 0.26674 0.77104 0.75718c1.3811 1.3562 1.9334 2.2535 2.582 4.1948 0.25456 0.76153 0.36338 1.4068 0.4211 2.4941 0.14983 2.8277-0.941 5.5332-3.049 7.561-0.87465 0.84137-2.4676 1.9183-3.6152 2.4442-1.9048 0.87284-3.623 1.3811-5.286 1.5635-0.29934 0.0328-0.76344 0.0855-1.0313 0.1168-0.54257 0.0636-1.6644 0.0637-2.2345 0zm2.6283-6.4449c0.97655-0.14708 1.2782-0.22684 2.3259-0.61505 0.77543-0.28729 1.4256-0.63699 2.2617-1.2164 0.51669-0.35811 0.70082-0.52518 0.94106-0.85395 0.35316-0.48328 0.58792-1.0162 0.67302-1.5279 0.0644-0.38859 0.0304-1.2835-0.0604-1.5748-0.18902-0.60674-0.55983-1.2131-0.98562-1.6112-0.36794-0.34398-1.4734-1.0534-2.0916-1.3425-0.77148-0.3606-1.8162-0.71348-2.5699-0.86798-0.88406-0.18124-2.7654-0.2071-3.6863-0.0507-1.0049 0.17068-1.732 0.39709-2.8165 0.87704-0.87562 0.38752-1.9865 1.145-2.4143 1.6465-0.37336 0.43752-0.49624 0.64443-0.6655 1.1208-0.1697 0.47778-0.1977 0.65398-0.19417 1.2227 5e-3 0.85628 0.24339 1.5056 0.80136 2.1863 0.34451 0.42038 0.50007 0.54932 1.2809 1.0616 0.98184 0.64406 2.5512 1.2838 3.5694 1.4549 1.6406 0.2758 2.2932 0.29208 3.6309 0.0907zm0.37964-14.974c1.5069-0.4051 2.5161-0.99418 3.6482-2.1293 0.76968-0.77175 0.81455-0.86697 0.78306-1.6624-0.0189-0.43758-0.0395-0.52425-0.19091-0.74774-0.21077-0.31098-1.1709-1.2574-1.4872-1.4657-0.12787-0.0843-0.37984-0.25294-0.56025-0.37506-0.50507-0.34194-1.4259-0.72554-2.2789-0.94931-0.74542-0.19557-0.80991-0.20288-1.7761-0.20173-0.88524 1e-3 -1.0798 0.0193-1.6615 0.15569-1.7182 0.40283-3.1655 1.2573-4.2201 2.4913-0.421 0.49259-0.4935 0.67443-0.4935 1.2378 0 0.57204 0.0732 0.74789 0.52451 1.2555 1.0867 1.223 2.5242 2.0719 4.1318 2.4397 0.692 0.15832 0.77242 0.16422 1.9194 0.14125 0.924-0.0184 1.0968-0.0381 1.6615-0.19011z" stroke-width=".016916"/><path d="m391.77 170.12c1.2854-1.2147 3.0177-1.9959 4.7471-2.6414 2.202-0.8218 4.475-1.3397 6.6375-1.3397 4.1001 0 7.5259 1.1032 10.353 3.3981 0.89558 0.72697 1.9307 1.7154 2.5859 2.8055 0.71868 1.1956 1.3868 3.9483 1.3868 3.9483l7e-3 9.769s-0.37018 2.8586-1.6812 5.8042c-0.9309 2.0916-2.6112 4.208-3.7387 5.4609-2.3355 2.5954-6.2652 4.229-9.6029 4.183-1.403-0.0203-3.8143-0.46368-5.4678-1.3396-2.5446-1.348-4.1456-3.3294-4.1456-3.3294l4.896-4.0095s0.75501 1.0246 2.1139 1.6568c1.4396 0.66973 3.5312 0.92881 5.1773 0.15828 0.99433-0.46564 2.7938-1.9544 3.8635-3.5135 1.3983-2.0381 1.9562-4.1829 1.9562-4.1829s-1.2663 0.60847-2.867 1.0915c-1.4694 0.44344-2.9286 0.60218-4.4155 0.65154-0.9022 0.0304-1.5353-9e-3 -2.6995-0.21682-2.9173-0.51445-6.6569-1.6836-8.8469-3.5782-1.97-1.7043-3.3932-4.3922-3.4831-6.9956-0.0969-2.8057 1.1846-5.852 3.2249-7.7802zm3.856 7.1051c-9e-3 0.32721 7e-3 0.79672 0.12347 1.1714 0.1374 0.43806 0.4366 0.896 0.6626 1.2073 0.31742 0.43752 0.83981 0.82109 1.3814 1.146 0.26696 0.15993 0.52294 0.31376 0.79162 0.43733 1.4775 0.68037 2.595 1.1286 4.7475 1.1286 1.513 0 3.0323-0.3326 4.4345-0.88588 0.1791-0.0707 0.35176-0.16329 0.52043-0.26459 0.19999-0.11986 0.39479-0.25148 0.58995-0.37345 0.28749-0.17943 0.58693-0.30803 0.82389-0.5602 0.23195-0.35172 0.70188-0.63765 0.91283-1.0509 0.32921-0.64509 0.57781-1.3791 0.49317-2.1164-0.0811-0.70566-0.46917-1.4214-0.92364-1.9972-0.37788-0.47876-0.97781-0.81638-1.4369-1.1327-1.3667-0.88836-3.1264-1.3325-5.279-1.3325-2.1526 0-3.8951 0.39294-5.2276 1.1788-1.3326 0.82002-2.5714 2.1807-2.6142 3.4441z" stroke-width=".25556"/><g transform="matrix(2.5322 0 0 2.5322 1051.6 -1102.8)" aria-label="2"><path d="m-268.3 515.09-11.148 4e-3 -3.4e-4 -2.5176 7.8921-4.6234s0.40631-0.49193 0.52909-0.7816c0.14055-0.33162 0.24698-0.69824 0.22175-1.0575-0.0387-0.55108-0.18529-1.1559-0.56348-1.5586-0.31998-0.3407-0.75563-0.67337-1.2159-0.82434-0.2924-0.0959-0.59093-0.11034-0.88746-0.0889-0.49219 0.0356-1.0299 0.19226-1.4365 0.3578-0.32147 0.13088-0.73662 0.41544-1.0398 0.76014-0.40792 0.46386-0.66063 0.99332-0.66063 0.99332l-2.2786-1.0518s0.48469-0.94646 0.83255-1.3413c0.53055-0.60223 1.1537-1.1543 1.8694-1.5175 0.83667-0.42468 1.7897-0.71171 2.722-0.71682 0.11037-6e-4 0.47608-5e-3 0.86677 0.0528 0.31189 0.0462 0.59913 0.12133 0.88806 0.21856 0.29388 0.0989 0.5763 0.21396 0.8539 0.36899 0.58173 0.32485 1.1157 0.77681 1.4961 1.3053 0.70738 0.98288 1.09 2.2644 1.0594 3.475-0.0217 0.8575-0.43351 1.6843-0.87411 2.4203-0.26063 0.43533-1.0177 1.1319-1.0177 1.1319l-4.2488 2.4705 6.1433 0.0105z" fill="#fff" stroke-width=".014869"/></g></g><g transform="matrix(1.3333 0 0 1.3333 -144.55 -749.39)"><path d="m200.6 642.91v26.521h4.1689v-26.521z" style="paint-order:stroke fill markers"/><path d="m217.88 661.98c-0.20963-0.70796-0.26867-2.1981-0.26867-2.1981v-9.6727h4.2816v9.9348s0.0479 0.79403 0.35782 1.6372c0.23641 0.6435 0.67907 1.3156 1.046 1.685 0.48718 0.49032 1.0528 0.95864 1.7029 1.2667 0.75067 0.35546 1.6031 0.51323 2.4013 0.49992 0.9116-0.0156 1.8637-0.30369 2.6671-0.80561 0.43876-0.27444 0.81048-0.64031 1.1596-0.99561 0.37994-0.38648 0.79217-1.0768 1.0363-1.7268 0.25798-0.68703 0.33744-1.324 0.33744-1.324l0.0253-10.172h4.2528v18.792h-4.2528v-1.1224s-0.84288 0.61697-2.0014 1.0499c-1.1636 0.43479-2.645 0.68508-3.6199 0.60016-1.1432-0.0991-2.9466-0.44805-4.2505-1.1156-1.1494-0.58863-2.1894-1.4514-2.9888-2.4657-0.88807-1.1268-1.4797-2.4922-1.8866-3.8677z" stroke-width=".19266"/><path transform="scale(.75)" d="m239.68 867.31a12.637 12.637 0 0 0-12.518 12.637 12.637 12.637 0 0 0 12.639 12.637 12.637 12.637 0 0 0 12.637-12.637 12.637 12.637 0 0 0-12.637-12.637 12.637 12.637 0 0 0-0.12109 0zm0.0742 5.4141a7.2234 7.2234 0 0 1 0.0469 0 7.2234 7.2234 0 0 1 7.2227 7.2227 7.2234 7.2234 0 0 1-7.2227 7.2226 7.2234 7.2234 0 0 1-7.2246-7.2226 7.2234 7.2234 0 0 1 7.1777-7.2227z" style="paint-order:stroke fill markers"/><path d="m138.42 643.03v26.397h13.238c1.3658 0 2.7184-0.36772 4.058-1.1032 1.2082-0.65661 2.0056-1.5892 2.7147-2.7974 0.73541-1.2345 1.1352-2.909 1.1352-4.2485-0.0124-1.4091-0.58647-2.7313-1.2412-3.9441-0.37519-0.695-1.4995-1.8345-1.4995-1.8345s1.6558-2.0947 1.6558-4.7212c0-2.679-1.583-5.4626-3.9731-6.8021-1.1032-0.63038-2.6265-0.94572-4.5701-0.94572zm4.7614 4.7647h7.673c1.6133 0 2.9124 1.2986 2.9124 2.912 0 1.6133-1.299 2.9124-2.9124 2.9124h-7.673zm0.0793 10.54h8.3727c1.7633 0 3.1826 1.4197 3.1826 3.183 0 1.7633-1.4193 3.1826-3.1826 3.1826h-8.3727z"/></g></g><g transform="matrix(1.3333 0 0 1.3333 -144.55 -749.39)" fill="#fff"><path transform="scale(.75)" d="m167.3 755.45c-9.3282 0-16.838 7.5097-16.838 16.838v190.01c0 9.3282 7.5096 16.838 16.838 16.838h458.98c9.3282 0 16.838-7.5096 16.838-16.838v-190.01c0-9.3282-7.5096-16.838-16.838-16.838zm0.11734 5.4942h458.82c6.3168 0 11.4 5.0856 11.4 11.402v189.96c0 6.3168-5.0836 11.402-11.4 11.402h-458.82c-6.3168 0-11.402-5.0856-11.402-11.402v-189.96c0-6.3168 5.0856-11.402 11.402-11.402z" stroke-width=".46213" style="paint-order:stroke fill markers"/><g><path d="m453.15 666.68c-0.96409 0.91105-2.2633 1.4969-3.5604 1.9811-1.6515 0.61635-3.3563 1.0048-4.9781 1.0048-3.0751 0-5.6444-0.82739-7.7646-2.5486-0.67169-0.54523-1.448-1.2866-1.9395-2.1041-0.53901-0.89668-1.0401-2.9612-1.0401-2.9612l-5e-3 -7.3268s0.27764-2.1439 1.2609-4.3531c0.69817-1.5687 1.9584-3.156 2.804-4.0957 1.7516-1.9466 4.6989-3.1717 7.2022-3.1373 1.0523 0.0152 2.8607 0.34776 4.1008 1.0047 1.9084 1.011 3.1092 2.497 3.1092 2.497l-3.672 3.0072s-0.56626-0.76847-1.5854-1.2426c-1.0797-0.5023-2.6484-0.69661-3.883-0.11871-0.74575 0.34923-2.0954 1.4658-2.8977 2.6351-1.0487 1.5286-1.4672 3.1372-1.4672 3.1372s0.9497-0.45635 2.1502-0.81864c1.1021-0.33258 2.1964-0.45163 3.3116-0.48865 0.67665-0.0228 1.1515 7e-3 2.0246 0.16261 2.188 0.38584 4.9926 1.2627 6.6352 2.6836 1.4775 1.2782 2.5449 3.2942 2.6124 5.2467 0.0727 2.1043-0.88842 4.389-2.4187 5.8351zm-2.892-5.3288c7e-3 -0.24541-5e-3 -0.59754-0.0926-0.87852-0.10305-0.32855-0.32745-0.672-0.49695-0.90549-0.23807-0.32814-0.62986-0.61582-1.036-0.85953-0.20022-0.11995-0.39221-0.23532-0.59372-0.328-1.1081-0.51028-1.9462-0.84645-3.5606-0.84645-1.1347 0-2.2742 0.24945-3.3258 0.66441-0.13432 0.053-0.26382 0.12247-0.39032 0.19844-0.14999 0.0899-0.29609 0.18861-0.44246 0.28009-0.21562 0.13457-0.4402 0.23102-0.61792 0.42015-0.17396 0.26379-0.52641 0.47824-0.68462 0.78816-0.24691 0.48382-0.43336 1.0343-0.36988 1.5873 0.0608 0.52925 0.35188 1.0661 0.69273 1.4979 0.28341 0.35907 0.73336 0.61229 1.0777 0.84956 1.025 0.66627 2.3448 0.99939 3.9592 0.99939 1.6144 0 2.9213-0.29471 3.9207-0.8841 0.99943-0.61502 1.9285-1.6355 1.9606-2.5831z" stroke-width=".19167"/><path d="m409.27 669.67c-2.8892-0.0597-5.8879-0.92565-8.3412-2.4088-0.76092-0.46-1.1006-0.70659-1.082-0.78545 0.0143-0.0609 2.5558-3.6493 2.6782-3.7813 0.0497-0.0536 0.10069-0.0324 0.3701 0.1535 1.4954 1.0321 3.536 1.7761 5.4075 1.9715 2.1181 0.22111 4.0864-0.0591 6.0194-0.85666 0.15366-0.0634 0.38226-0.15761 0.50789-0.20929 0.41962-0.17259 0.95706-0.83744 1.2078-1.4941 0.45297-1.1862 0.12087-2.5139-0.85583-3.4207-0.16794-0.1559-0.2994-0.21996-1.0749-0.52374-0.90927-0.35617-1.5335-0.52461-2.6785-0.72282-0.61451-0.10637-0.7598-0.11443-2.4272-0.13445l-1.7736-0.0213v-4.7622l1.5586-5e-4c0.85722 0 1.7327-0.0195 1.9456-0.0431 1.2275-0.13547 2.3138-0.46819 3.4798-1.0657 0.79008-0.40492 0.81576-0.42227 0.87276-0.58918 0.14002-0.41024 0.10884-1.0082-0.0744-1.4266-0.0756-0.17289-0.10742-0.19366-0.83487-0.5488-0.41591-0.20302-0.85991-0.40794-0.98668-0.45536-0.44268-0.16562-1.2714-0.38248-1.9046-0.49843-0.56902-0.10418-0.74525-0.1172-1.627-0.12019-0.9039-3e-3 -1.048 7e-3 -1.6768 0.1184-0.79397 0.14054-1.2121 0.25486-1.9339 0.52868-0.69128 0.26226-1.768 0.83605-2.2161 1.1809l-0.15143 0.11654-1.0525-1.4417c-0.57891-0.79294-1.2127-1.6645-1.4086-1.9367l-0.35599-0.49504 0.52799-0.35124c0.68655-0.45671 1.1709-0.73038 1.9775-1.1173 0.59655-0.28619 1.534-0.65307 1.8612-0.72847 0.0709-0.0163 0.28377-0.0756 0.47294-0.13162 0.53683-0.15903 1.0975-0.28055 1.6015-0.34715 0.25428-0.0336 0.59779-0.0791 0.76332-0.10125 1.2032-0.16063 3.4677-0.0543 4.493 0.21102 0.0827 0.0214 0.38157 0.0878 0.66401 0.14763 0.50013 0.10584 1.5217 0.44071 2.2597 0.74066 0.59459 0.24167 1.9046 0.96323 2.5444 1.4015 0.32836 0.22491 0.40895 0.30783 0.67185 0.6912 0.93744 1.3671 1.3472 2.9194 1.2116 4.5905-0.0581 0.71683-0.34762 1.7738-0.64915 2.3704-0.17507 0.34636-0.59926 1.0004-0.86904 1.3397l-0.27088 0.34075 0.30026 0.27552c1.2583 1.1548 2.0692 2.5943 2.4399 4.3315 0.10844 0.50815 0.1604 1.985 0.0884 2.5152-0.19892 1.4668-0.86961 3.0024-1.7798 4.0748-0.40455 0.47666-1.0332 1.0663-1.394 1.3075-0.33313 0.22269-0.96345 0.54683-1.3605 0.69964-0.14672 0.0565-0.48068 0.19009-0.74218 0.29695-0.91574 0.3742-2.6898 0.82902-3.6951 0.94728-1.0498 0.12351-1.354 0.1513-1.7843 0.16307-0.27194 7e-3 -0.68792 9e-3 -0.9244 4e-3z" stroke-width=".012694"/></g></g></svg>