<?xml version="1.0" encoding="UTF-8" standalone="no"?>
<svg
   xmlns:dc="http://purl.org/dc/elements/1.1/"
   xmlns:cc="http://creativecommons.org/ns#"
   xmlns:rdf="http://www.w3.org/1999/02/22-rdf-syntax-ns#"
   xmlns:svg="http://www.w3.org/2000/svg"
   xmlns="http://www.w3.org/2000/svg"
   xmlns:sodipodi="http://sodipodi.sourceforge.net/DTD/sodipodi-0.dtd"
   xmlns:inkscape="http://www.inkscape.org/namespaces/inkscape"
   viewBox="0 0 333.29998 107.16523"
   version="1.1"
   id="svg86372"
   sodipodi:docname="Turkey_road_sign_B-13b.svg"
   width="333.29999"
   height="107.16523"
   inkscape:version="1.0 (4035a4fb49, 2020-05-01)">
  <metadata
     id="metadata86376">
    <rdf:RDF>
      <cc:Work
         rdf:about="">
        <dc:format>image/svg+xml</dc:format>
        <dc:type
           rdf:resource="http://purl.org/dc/dcmitype/StillImage" />
        <dc:title></dc:title>
      </cc:Work>
    </rdf:RDF>
  </metadata>
  <sodipodi:namedview
     inkscape:document-rotation="0"
     pagecolor="#ffffff"
     bordercolor="#666666"
     borderopacity="1"
     objecttolerance="10"
     gridtolerance="10"
     guidetolerance="10"
     inkscape:pageopacity="0"
     inkscape:pageshadow="2"
     inkscape:window-width="1920"
     inkscape:window-height="1001"
     id="namedview86374"
     showgrid="false"
     inkscape:zoom="16"
     inkscape:cx="-5.5233372"
     inkscape:cy="17.581377"
     inkscape:window-x="-9"
     inkscape:window-y="-9"
     inkscape:window-maximized="1"
     inkscape:current-layer="svg86372" />
  <defs
     id="defs86346">
    <style
       id="style86344">
      .cls-1 {
        fill: #00408c;
        fill-rule: evenodd;
      }

      .cls-2 {
        fill: #fff;
      }
    </style>
  </defs>
  <path
     d="M 0.1,0.1 V 107.06523 H 333.2 V 0.1 Z"
     style="opacity:1;fill:#00408c;fill-opacity:1;stroke:none;stroke-width:0.2;stroke-linejoin:round;stroke-miterlimit:4;stroke-dasharray:none;stroke-opacity:1;paint-order:stroke fill markers"
     id="rect11405" />
  <path
     d="m 15.02796,3.93457 c -6.12986,0 -11.06371,4.93516 -11.06371,11.06502 v 77.1377 c 0,6.12987 4.93385,11.06501 11.06371,11.06501 h 303.2428 c 6.12986,0 11.06501,-4.93514 11.06501,-11.06501 v -77.1377 c 0,-6.12986 -4.93515,-11.06502 -11.06501,-11.06502 z m 0.13033,3.66426 h 302.98087 c 4.19952,0 7.5801,3.38057 7.5801,7.5801 v 76.82675 c 0,4.19953 -3.38058,7.5814 -7.5801,7.5814 H 15.15829 c -4.19953,0 -7.58011,-3.38187 -7.58011,-7.5814 V 15.17893 c 0,-4.19953 3.38058,-7.5801 7.58011,-7.5801 z"
     style="fill:#ffffff;fill-opacity:1;stroke-width:0.686032"
     id="rect11471" />
  <path
     d="m 97.84724,84.10867 -3.76924,-2e-4 v -0.41929 c 0,0 -2.1182,0.76063 -3.2269,0.84473 -1.34859,0.10233 -2.75608,0.0156 -4.03526,-0.42357 -1.02583,-0.35221 -2.08233,-0.89 -3.0071,-1.53005 -0.43665,-0.30221 -0.82789,-0.63848 -1.17626,-1.07438 -0.39942,-0.49977 -0.61815,-1.17327 -0.63023,-1.81292 -0.0159,-0.84397 0.1671,-1.7773 0.74058,-2.42164 1.17689,-1.32235 2.92666,-2.20698 4.71485,-2.64039 0.67438,-0.16344 1.33893,-0.23656 2.00254,-0.30931 0.70088,-0.0769 1.76336,0.0342 2.65411,0.24578 1.06376,0.25265 1.90535,0.62206 1.90535,0.62206 0,0 0.0969,-0.61454 0.0482,-0.9166 -0.0748,-0.46355 -0.29812,-1.01664 -0.51264,-1.31205 -0.52733,-0.72613 -1.48142,-1.06484 -2.33631,-1.33783 -0.30515,-0.0974 -0.63624,-0.0833 -0.9564,-0.0941 -0.39471,-0.0133 -0.7906,0.005 -1.18423,0.0363 -0.63663,0.0521 -1.38651,0.14903 -1.89946,0.25296 -1.75722,0.35603 -2.7279,0.89448 -2.7279,0.89448 l -1.52445,-3.39877 c 0,0 1.23218,-0.59213 2.9334,-1.02135 1.33718,-0.33738 3.04929,-0.54345 4.10381,-0.48982 2.00489,0.10194 4.02899,0.54277 5.46496,1.77956 1.43597,1.23678 2.41859,2.91805 2.41859,4.89256 z m -3.90253,-4.65684 c 0,0 -0.69516,-0.5587 -1.62253,-0.92617 -0.81293,-0.32211 -1.81887,-0.45935 -2.49508,-0.45494 -0.62524,0.005 -1.698,0.20688 -2.45462,0.51265 -0.92981,0.37577 -1.49152,0.86846 -1.49152,0.86846 0,0 0.48,0.47295 1.34114,0.82867 0.81402,0.33625 1.99076,0.55634 2.67963,0.55692 0.6792,3.2e-4 1.64864,-0.15053 2.45741,-0.48023 0.88762,-0.36186 1.58557,-0.90536 1.58557,-0.90536 z"
     style="font-style:normal;font-variant:normal;font-weight:normal;font-stretch:normal;font-size:46.5314px;line-height:1.15;font-family:'Highway Gothic Wide';-inkscape-font-specification:'Highway Gothic Wide';fill:#ffffff;fill-opacity:1;stroke:none;stroke-width:0.126283;stroke-opacity:1"
     id="path108315"
     sodipodi:nodetypes="cccasasasssscasaaasccssssccssscsssc" />
  <path
     sodipodi:nodetypes="accccsssssssccccccssaaa"
     id="path72412"
     style="font-style:normal;font-variant:normal;font-weight:normal;font-stretch:normal;font-size:30px;line-height:1.15;font-family:'Highway Gothic Wide';-inkscape-font-specification:'Highway Gothic Wide';fill:#ffffff;fill-opacity:1;stroke-width:0.167938"
     d="m 122.04207,74.25419 c 0.18256,0.61691 0.23412,1.91586 0.23412,1.91586 v 8.43058 h -3.73176 v -8.65916 c 0,0 -0.0422,-0.69205 -0.31192,-1.42678 -0.20594,-0.56097 -0.59199,-1.1468 -0.91167,-1.46862 -0.4246,-0.42742 -0.91757,-0.83554 -1.48421,-1.104 -0.65433,-0.31 -1.39747,-0.44741 -2.09308,-0.4358 -0.7945,0.0138 -1.6244,0.26469 -2.32454,0.70223 -0.38255,0.23904 -0.70641,0.55807 -1.01083,0.86761 -0.33124,0.3369 -0.6904,0.93865 -0.90314,1.50504 -0.225,0.59894 -0.29417,1.15411 -0.29417,1.15411 l -0.0223,8.86537 h -3.70666 V 68.22161 h 3.70666 v 0.9782 c 0,0 0.73469,-0.53774 1.74432,-0.91496 1.01427,-0.37893 2.30542,-0.59716 3.15518,-0.5231 0.99623,0.087 2.56822,0.39052 3.70462,0.97239 1.00197,0.51306 1.90831,1.26487 2.60508,2.14903 0.77386,0.98195 1.28954,2.1722 1.64431,3.37102 z" />
  <path
     sodipodi:nodetypes="cccasasasssscasaaasccssssccssscsssc"
     id="path2939"
     style="font-style:normal;font-variant:normal;font-weight:normal;font-stretch:normal;font-size:46.5314px;line-height:1.15;font-family:'Highway Gothic Wide';-inkscape-font-specification:'Highway Gothic Wide';fill:#ffffff;fill-opacity:1;stroke:none;stroke-width:0.126283;stroke-opacity:1"
     d="m 145.75683,84.10867 -3.76925,-2e-4 v -0.41929 c 0,0 -2.11821,0.76063 -3.2269,0.84473 -1.3486,0.10233 -2.75608,0.0156 -4.03526,-0.42357 -1.02583,-0.35221 -2.08233,-0.89 -3.0071,-1.53005 -0.43665,-0.30221 -0.82789,-0.63848 -1.17626,-1.07438 -0.39942,-0.49977 -0.61815,-1.17327 -0.63023,-1.81292 -0.0159,-0.84397 0.1671,-1.7773 0.74058,-2.42164 1.17688,-1.32235 2.92666,-2.20698 4.71485,-2.64039 0.67437,-0.16344 1.33893,-0.23656 2.00253,-0.30931 0.70088,-0.0769 1.76337,0.0342 2.65411,0.24578 1.06377,0.25265 1.90536,0.62206 1.90536,0.62206 0,0 0.0969,-0.61454 0.0482,-0.9166 -0.0748,-0.46355 -0.29811,-1.01664 -0.51265,-1.31205 -0.52732,-0.72613 -1.48141,-1.06484 -2.3363,-1.33783 -0.30516,-0.0974 -0.63624,-0.0833 -0.9564,-0.0941 -0.39471,-0.0133 -0.79061,0.005 -1.18423,0.0363 -0.63663,0.0521 -1.38651,0.14903 -1.89947,0.25296 -1.75721,0.35603 -2.7279,0.89448 -2.7279,0.89448 l -1.52444,-3.39877 c 0,0 1.23218,-0.59213 2.93339,-1.02135 1.33719,-0.33738 3.04929,-0.54345 4.10382,-0.48982 2.00488,0.10194 4.02898,0.54277 5.46496,1.77956 1.43597,1.23678 2.41858,2.91805 2.41858,4.89256 z m -3.90255,-4.65684 c 0,0 -0.69516,-0.5587 -1.62253,-0.92617 -0.81292,-0.32211 -1.81886,-0.45935 -2.49508,-0.45494 -0.62524,0.005 -1.698,0.20688 -2.45461,0.51265 -0.92982,0.37577 -1.49152,0.86846 -1.49152,0.86846 0,0 0.47999,0.47295 1.34114,0.82867 0.81402,0.33625 1.99076,0.55634 2.67963,0.55692 0.6792,3.2e-4 1.64864,-0.15053 2.45741,-0.48023 0.88761,-0.36186 1.58556,-0.90536 1.58556,-0.90536 z" />
  <path
     d="m 57.48448,76.12244 c 0,-2.3281 0.82828,-4.31576 2.48483,-5.96298 1.63027,-1.64724 3.61553,-2.47088 5.95575,-2.47088 1.75618,0 3.30962,0.45357 4.66033,1.3607 0.005,0.003 0.0148,-7.91062 0.0148,-7.91062 h 3.75331 c 0,0 0.0131,12.65568 0.0131,14.98378 0,2.35006 -0.0131,8.45219 -0.0131,8.45219 h -3.75331 c 0,0 -0.0148,-1.34528 -0.0227,-1.34022 -1.34869,0.90324 -2.89922,1.35484 -4.65163,1.35484 -2.34023,0 -4.32546,-0.82363 -5.95575,-2.47088 -1.65655,-1.64721 -2.48484,-3.64587 -2.48484,-5.99593 z m 3.8275,0.42735 c 0.10163,1.17296 0.71953,2.36952 1.60359,3.14705 0.82986,0.72985 2.01742,1.14613 3.12214,1.11563 1.1366,-0.0312 2.32809,-0.53127 3.144,-1.32317 0.83244,-0.80791 1.37986,-2.00759 1.44518,-3.16575 0.0644,-1.14186 -0.2918,-2.41882 -1.06496,-3.26152 -0.9001,-0.98104 -2.34521,-1.58904 -3.67628,-1.56138 -1.30509,0.0272 -2.68404,0.69181 -3.53781,1.67926 -0.7686,0.88896 -1.13738,2.19912 -1.03586,3.36988 z"
     style="font-style:normal;font-variant:normal;font-weight:normal;font-stretch:normal;font-size:47.3331px;line-height:1.15;font-family:'Highway Gothic Wide';-inkscape-font-specification:'Highway Gothic Wide';fill:#ffffff;fill-opacity:1;stroke:none;stroke-width:0.16934;stroke-opacity:1"
     id="path2941"
     sodipodi:nodetypes="acssccsccsscsaaaaaaaaaa" />
  <path
     sodipodi:nodetypes="ccccccccccccc"
     id="path137410"
     style="font-style:normal;font-variant:normal;font-weight:normal;font-stretch:normal;font-size:30px;line-height:1.15;font-family:'Highway Gothic Wide';-inkscape-font-specification:'Highway Gothic Wide';fill:#ffffff;fill-opacity:1;stroke:none;stroke-width:0.168637;stroke-opacity:1"
     d="m 49.84979,84.45474 -4.63398,0.0508 -1.95585,-4.62045 -10.42267,0.0182 -1.85213,4.5817 -4.47707,-0.0304 9.31071,-23.32808 h 4.71328 z m -8.09437,-8.83641 -3.57055,-8.94789 -3.6576,8.99902 z" />
  <path
     d="m 157.06061,40.85086 c -0.0141,0.84446 -0.18982,1.60416 -0.5609,2.2997 -0.2535,0.47508 -0.57245,0.93882 -1.09383,1.30586 -0.26602,0.18305 -0.58691,0.26745 -0.90675,0.35998 -0.33239,0.0965 -0.66572,0.19823 -1.04816,0.27683 -0.29925,0.0616 -0.61189,0.12087 -0.93446,0.17398 -0.0193,0.003 -0.003,5.04896 -0.003,5.04896 h -3.60933 c 0,0 -0.0133,-4.86047 -0.0277,-4.86135 -2.306,-0.14455 -4.38231,-0.63227 -6.367,-1.66721 l 1.62045,-3.27066 c 1.98548,1.05512 4.02821,1.28749 5.80345,1.30903 0.47989,0 1.1896,-0.0335 1.77767,-0.11617 0.54822,-0.0766 1.62312,-0.35156 1.62312,-0.35156 0,0 0.0639,-0.19016 0.0742,-0.28881 0.0105,-0.0983 -0.005,-0.2199 -0.0124,-0.29624 -0.009,-0.0912 -0.0246,-0.19144 -0.0837,-0.2616 -0.10011,-0.11838 -0.18285,-0.26292 -0.31811,-0.3392 -0.27892,-0.15749 -0.62969,-0.217 -0.9476,-0.3163 -0.80058,-0.24931 -1.61104,-0.46617 -2.41623,-0.7004 -0.47703,-0.13873 -0.95411,-0.27749 -1.43072,-0.41767 -0.3063,-0.0903 -0.61284,-0.17949 -0.91831,-0.2723 -0.64788,-0.19697 -1.32122,-0.32832 -1.93953,-0.6045 -0.43634,-0.19501 -0.96154,-0.4862 -1.23113,-0.73473 -0.88762,-0.86132 -1.41839,-1.72629 -1.54727,-2.77851 -0.14985,-1.22329 0.25836,-2.72758 0.96606,-3.56892 0.26548,-0.31562 0.48599,-0.55127 0.7995,-0.73006 0.37237,-0.21248 0.81474,-0.26875 1.22987,-0.37578 0.5942,-0.15299 1.19391,-0.29203 1.80127,-0.37915 0.82252,-0.11804 1.73926,-0.19338 2.48534,-0.19338 2.28913,0 4.35938,0.45226 6.30052,1.28872 l -1.39517,3.35491 c -1.29426,-0.60588 -3.52909,-0.9914 -5.3412,-1.01479 -1.06538,-0.0124 -3.15461,0.51533 -3.15461,0.51533 0,0 -0.0971,0.21668 -0.0989,0.33209 -0.003,0.21085 0.0239,0.45177 0.16186,0.61103 0.35004,0.40405 0.97211,0.44877 1.47599,0.62741 0.4117,0.14581 0.83993,0.2403 1.25957,0.36137 0.73493,0.21248 1.47881,0.44096 2.20363,0.6407 1.341,0.36954 3.27695,0.70087 4.41136,1.81501 0.83382,0.81894 1.36888,1.62441 1.39224,3.2179 z"
     style="font-style:normal;font-variant:normal;font-weight:normal;font-stretch:normal;font-size:19.6811px;line-height:1.15;font-family:'Highway Gothic Wide';-inkscape-font-specification:'Highway Gothic Wide';opacity:1;fill:#ffffff;fill-opacity:1;stroke-width:0.0809827"
     id="path24250"
     sodipodi:nodetypes="cscsssccscccacasssaaaaacasaaasccacaaaasacc" />
  <path
     d="m 168.63116,22.60675 v 23.35959 h 3.67198 V 22.60675 Z"
     style="font-size:13.0452px;line-height:1.15;font-family:'Highway Gothic Wide';-inkscape-font-specification:'Highway Gothic Wide';opacity:1;fill:#ffffff;fill-opacity:1;stroke:none;stroke-width:3.48994;stroke-miterlimit:4;stroke-dasharray:none;stroke-opacity:1;paint-order:stroke fill markers"
     id="path114513" />
  <path
     id="path11592"
     style="font-size:13.0452px;line-height:1.15;font-family:'Highway Gothic Wide';-inkscape-font-specification:'Highway Gothic Wide';opacity:1;fill:#ffffff;fill-opacity:1;stroke:none;stroke-width:3.48994;stroke-miterlimit:4;stroke-dasharray:none;stroke-opacity:1;paint-order:stroke fill markers"
     d="M 56.63102,22.60675 V 45.96634 H 60.303 V 22.60675 Z" />
  <path
     d="m 72.10991,39.40832 c -0.18498,-0.62378 -0.23636,-1.93607 -0.23636,-1.93607 v -8.51969 h 3.77115 v 8.75049 c 0,0 0.0411,0.69983 0.31548,1.44199 0.20862,0.56726 0.59809,1.15888 0.9218,1.48423 0.42955,0.43161 0.92694,0.84472 1.49995,1.11561 0.66077,0.31343 1.41198,0.45217 2.11499,0.43983 0.80259,-0.0103 1.64156,-0.26719 2.3492,-0.7101 0.38639,-0.2415 0.71421,-0.56418 1.02147,-0.87658 0.33501,-0.34015 0.69777,-0.94852 0.91255,-1.52092 0.22711,-0.60527 0.29699,-1.16617 0.29699,-1.16617 l 0.0205,-8.9591 H 88.8434 V 45.50379 H 85.09763 V 44.5152 c 0,0 -0.74195,0.54363 -1.76281,0.92488 -1.02456,0.38331 -2.32977,0.60323 -3.18837,0.52821 -1.00709,-0.0822 -2.59542,-0.39461 -3.74391,-0.98243 -1.01223,-0.51895 -1.92837,-1.27839 -2.63252,-2.17172 -0.78203,-0.99271 -1.30325,-2.19515 -1.6617,-3.40664 z"
     style="font-style:normal;font-variant:normal;font-weight:normal;font-stretch:normal;font-size:30px;line-height:1.15;font-family:'Highway Gothic Wide';-inkscape-font-specification:'Highway Gothic Wide';opacity:1;fill:#ffffff;fill-opacity:1;stroke-width:0.169696"
     id="path11594"
     sodipodi:nodetypes="accccsssssssccccccssaaa" />
  <path
     d="m 199.96824,45.50791 -3.82828,-2.1e-4 v -0.42545 c 0,0 -2.15137,0.77279 -3.27747,0.85808 -1.36964,0.1038 -2.7992,0.0206 -4.09845,-0.43057 -1.04182,-0.35762 -2.11489,-0.90433 -3.05416,-1.554 -0.44291,-0.30728 -0.84061,-0.64845 -1.19463,-1.09116 -0.40592,-0.50766 -0.62789,-1.19165 -0.64023,-1.84133 -0.0205,-0.85706 0.16957,-1.80517 0.75224,-2.45956 1.19536,-1.34303 2.97257,-2.24161 4.78872,-2.68175 0.68441,-0.16648 1.35988,-0.24046 2.03391,-0.31446 0.71216,-0.0822 1.79098,0.0309 2.69561,0.24972 1.08047,0.25692 1.93527,0.632 1.93527,0.632 0,0 0.10276,-0.62378 0.0514,-0.93104 -0.0719,-0.47067 -0.30316,-1.03258 -0.52101,-1.33265 -0.5354,-0.73785 -1.50468,-1.0815 -2.37294,-1.35875 -0.31035,-0.10277 -0.64639,-0.0822 -0.97112,-0.0925 -0.40078,-0.0103 -0.80259,0.005 -1.20286,0.0411 -0.64639,0.0514 -1.40818,0.15106 -1.92919,0.25691 -1.78471,0.36173 -2.77064,0.90844 -2.77064,0.90844 l -1.54824,-3.45206 c 0,0 1.25146,-0.60118 2.97924,-1.03731 1.35813,-0.34221 3.09711,-0.55185 4.16812,-0.49738 2.03628,0.1038 4.09208,0.55082 5.55051,1.80742 1.45854,1.2562 2.45648,2.96373 2.45648,4.96917 z m -3.96362,-4.72983 c 0,0 -0.706,-0.56727 -1.64794,-0.9403 -0.8252,-0.32679 -1.84739,-0.46656 -2.53416,-0.46245 -0.63509,0.005 -1.7246,0.21068 -2.49307,0.52103 -0.9444,0.38125 -1.51485,0.88172 -1.51485,0.88172 0,0 0.4871,0.48093 1.36215,0.84163 0.82622,0.34118 2.02189,0.56521 2.72151,0.56521 0.68954,3.1e-4 1.67454,-0.15312 2.49593,-0.48813 0.90125,-0.3679 1.61043,-0.91975 1.61043,-0.91975 z"
     style="font-style:normal;font-variant:normal;font-weight:normal;font-stretch:normal;font-size:46.5314px;line-height:1.15;font-family:'Highway Gothic Wide';-inkscape-font-specification:'Highway Gothic Wide';opacity:1;fill:#ffffff;fill-opacity:1;stroke:none;stroke-width:0.12826;stroke-opacity:1"
     id="path11590"
     sodipodi:nodetypes="cccasasasssscasaaasccssssccssscsssc" />
  <path
     sodipodi:nodetypes="cscscsccscscccc"
     d="M 40.89861,22.70253 V 36.2327 c 0,1.17315 -0.19627,2.17388 -0.70291,3.00205 -0.98859,1.67928 -2.47292,2.51897 -4.45123,2.51897 -1.9553,0 -3.43912,-0.83959 -4.45124,-2.51897 -0.48299,-0.82827 -0.72449,-1.8289 -0.72449,-3.00205 V 22.70253 l -4.14028,0.009 v 13.80373 c 0,2.82951 0.87351,4.88182 2.62152,6.72212 1.74834,1.81728 3.98017,2.72521 6.69449,2.72521 2.71452,0 4.94522,-0.90741 6.69345,-2.72521 1.74823,-1.8403 2.62265,-3.89261 2.62265,-6.72212 V 22.72263 Z"
     style="font-style:normal;font-variant:normal;font-weight:normal;font-stretch:normal;font-size:19.8301px;line-height:1.15;font-family:'Highway Gothic Wide';-inkscape-font-specification:'Highway Gothic Wide';opacity:1;fill:#ffffff;fill-opacity:1;stroke:none;stroke-width:0.191019;stroke-opacity:1"
     id="path50019" />
  <path
     id="path108287"
     style="font-style:normal;font-variant:normal;font-weight:normal;font-stretch:normal;font-size:122.83px;line-height:1.15;font-family:'Highway Gothic Wide';-inkscape-font-specification:'Highway Gothic Wide';text-align:center;letter-spacing:3.26px;text-anchor:middle;opacity:1;fill:#ffffff;fill-opacity:1;stroke-width:0.242926"
     d="m 127.33642,29.19241 v 16.30326 h 3.60199 V 29.19241 Z"
     sodipodi:nodetypes="ccccc" />
  <path
     sodipodi:nodetypes="ccccccccccccc"
     id="path24540"
     style="font-size:13.0452px;line-height:1.15;font-family:'Highway Gothic Wide';-inkscape-font-specification:'Highway Gothic Wide';opacity:1;fill:#ffffff;fill-opacity:1;stroke-width:0.0262445"
     d="m 115.76597,45.4894 h -4.49769 l -5.7214,-7.62028 -1.52092,1.28188 v 6.3384 h -3.61207 V 22.87025 h 3.61207 v 11.53622 l 6.16812,-5.21344 h 5.57189 l -7.46295,6.32381 z" />
  <g
     transform="matrix(10.276439,0,0,10.276441,1296.3853,-4708.7041)"
     id="g3086"
     style="font-size:13.0452px;line-height:1.15;font-family:'Highway Gothic Wide';-inkscape-font-specification:'Highway Gothic Wide';fill:#ffffff;fill-opacity:1;stroke-width:0.0103151">
    <path
       sodipodi:nodetypes="ccccaccsssccc"
       id="path108133"
       style="font-style:normal;font-variant:normal;font-weight:normal;font-stretch:normal;font-size:30px;line-height:1.15;font-family:'Highway Gothic Wide';-inkscape-font-specification:'Highway Gothic Wide';fill:#ffffff;fill-opacity:1;stroke-width:0.0165546"
       d="m -99.774242,462.71655 h -0.412348 l -5.1e-4,-1.50513 -0.0209,-0.0109 c 0,0 -0.14085,0.0786 -0.21758,0.1011 -0.086,0.0252 -0.26642,0.0365 -0.26642,0.0365 l 5.1e-4,-0.41188 c 0,0 0.0846,-0.006 0.16987,-0.0358 0.0712,-0.0248 0.14065,-0.069 0.18166,-0.10961 0.0472,-0.0468 0.10019,-0.13133 0.12704,-0.21094 0.026,-0.0769 0.0266,-0.14973 0.0266,-0.14973 h 0.412348 z" />
    <path
       d="m -96.313098,462.71102 -1.829041,6.5e-4 -5e-5,-0.41306 1.294807,-0.75855 c 0,0 0.06666,-0.0807 0.08681,-0.12823 0.02306,-0.0544 0.04052,-0.11456 0.03637,-0.17351 -0.0066,-0.0904 -0.03037,-0.18964 -0.09245,-0.25571 -0.05251,-0.0559 -0.123969,-0.11048 -0.199475,-0.13524 -0.048,-0.0158 -0.0969,-0.0181 -0.145574,-0.0146 -0.08081,0.006 -0.169009,0.0315 -0.235718,0.0587 -0.0528,0.0215 -0.120864,0.0682 -0.170595,0.12472 -0.0669,0.0761 -0.108381,0.16297 -0.108381,0.16297 l -0.37384,-0.17257 c 0,0 0.0795,-0.15529 0.136584,-0.22007 0.087,-0.0988 0.189266,-0.18938 0.306686,-0.24898 0.137274,-0.0697 0.293645,-0.11677 0.446634,-0.11761 0.01811,-1e-4 0.07811,-6.6e-4 0.142186,0.009 0.0512,0.008 0.0983,0.0199 0.145692,0.0358 0.04823,0.0162 0.09455,0.0351 0.140097,0.0605 0.09544,0.0533 0.183054,0.12745 0.24545,0.21416 0.116052,0.16125 0.17883,0.37152 0.173797,0.57013 -0.0033,0.14069 -0.07112,0.27635 -0.143405,0.3971 -0.04276,0.0714 -0.166971,0.18571 -0.166971,0.18571 l -0.697075,0.40534 1.007899,0.002 z"
       style="font-style:normal;font-variant:normal;font-weight:normal;font-stretch:normal;font-size:20.4734px;line-height:1.15;font-family:'Highway Gothic Wide';-inkscape-font-specification:'Highway Gothic Wide';fill:#ffffff;fill-opacity:1;stroke:none;stroke-width:0.0024395;stroke-opacity:1"
       id="path7194"
       sodipodi:nodetypes="ccccaassassccaassassaacccc" />
    <path
       d="m -102.73135,466.44993 h -0.41235 l -5.1e-4,-1.50513 -0.0209,-0.0109 c 0,0 -0.14085,0.0786 -0.21757,0.1011 -0.086,0.0252 -0.26642,0.0365 -0.26642,0.0365 l 5.1e-4,-0.41188 c 0,0 0.0846,-0.006 0.16987,-0.0358 0.0712,-0.0248 0.14065,-0.069 0.18165,-0.10961 0.0472,-0.0468 0.10019,-0.13133 0.12704,-0.21094 0.026,-0.0769 0.0266,-0.14973 0.0266,-0.14973 h 0.41235 z"
       style="font-style:normal;font-variant:normal;font-weight:normal;font-stretch:normal;font-size:30px;line-height:1.15;font-family:'Highway Gothic Wide';-inkscape-font-specification:'Highway Gothic Wide';fill:#ffffff;fill-opacity:1;stroke-width:0.0165546"
       id="path3077"
       sodipodi:nodetypes="ccccaccsssccc" />
    <path
       style="fill:#ffffff;fill-opacity:1;stroke-width:0.0002667"
       d="m -97.787571,466.44816 c 2.6e-4,-8.7e-4 0.268552,-0.42428 0.595751,-0.94092 0.327178,-0.51663 0.59489,-0.93948 0.59489,-0.93967 0,-2.6e-4 -0.301908,-5.2e-4 -0.670906,-5.2e-4 l -0.670931,-2.5e-4 -1.5e-4,-0.20662 -1.7e-4,-0.20664 h 0.915933 0.915932 v 0.20664 0.20662 l -0.590324,0.93312 c -0.324668,0.51323 -0.59271,0.93689 -0.59565,0.94148 l -0.005,0.009 h -0.244843 c -0.232932,0 -0.244822,0 -0.244012,-0.002 z"
       id="path22863"
       sodipodi:nodetypes="cssscccccccsscscc" />
    <path
       sodipodi:nodetypes="csssaccssssccssscsassascsassscssscasacscss"
       id="path108147"
       style="font-style:normal;font-variant:normal;font-weight:normal;font-stretch:normal;font-size:30px;line-height:1.15;font-family:'Highway Gothic Wide';-inkscape-font-specification:'Highway Gothic Wide';fill:#ffffff;fill-opacity:1;stroke-width:0.0165943"
       d="m -99.424254,466.19191 c -0.0835,0.0788 -0.195942,0.12959 -0.308238,0.1715 -0.142976,0.0534 -0.290578,0.087 -0.431008,0.087 -0.26624,0 -0.48868,-0.0717 -0.67224,-0.22064 -0.0582,-0.0472 -0.12536,-0.11139 -0.16791,-0.18217 -0.0467,-0.0776 -0.09,-0.25637 -0.09,-0.25637 l -5.1e-4,-0.63433 c 0,0 0.024,-0.18561 0.10917,-0.37688 0.0604,-0.13581 0.16954,-0.27323 0.24274,-0.35459 0.15166,-0.16853 0.40683,-0.2746 0.62355,-0.27161 0.0911,8.8e-4 0.247702,0.0301 0.355058,0.087 0.165216,0.0875 0.269182,0.21618 0.269182,0.21618 l -0.317902,0.26036 c 0,0 -0.049,-0.0665 -0.137256,-0.10759 -0.09341,-0.0435 -0.229322,-0.0603 -0.336202,-0.0103 -0.0646,0.0303 -0.1814,0.1269 -0.25087,0.22814 -0.0908,0.13235 -0.12701,0.2716 -0.12701,0.2716 0,0 0.0823,-0.0394 0.18616,-0.0709 0.0954,-0.0288 0.19015,-0.0391 0.28669,-0.0423 0.0586,-0.002 0.0997,5.2e-4 0.1753,0.0141 0.189448,0.0334 0.432264,0.10932 0.574456,0.23234 0.127916,0.11067 0.220326,0.2852 0.226166,0.45424 0.006,0.18218 -0.0769,0.37999 -0.209396,0.50518 z m -0.250372,-0.46136 c 5.1e-4,-0.0212 -5.2e-4,-0.0517 -0.008,-0.076 -0.009,-0.0285 -0.0284,-0.0582 -0.043,-0.0784 -0.0206,-0.0285 -0.0545,-0.0533 -0.0897,-0.0744 -0.0173,-0.0105 -0.034,-0.0204 -0.0514,-0.0285 -0.0959,-0.0442 -0.168524,-0.0732 -0.308304,-0.0732 -0.0982,0 -0.19689,0.0216 -0.28793,0.0575 -0.0117,0.004 -0.0228,0.0106 -0.0338,0.0172 -0.013,0.008 -0.0256,0.0164 -0.0383,0.0242 -0.0186,0.0117 -0.0381,0.02 -0.0535,0.0364 -0.0151,0.0228 -0.0456,0.0414 -0.0592,0.0683 -0.0213,0.0419 -0.0375,0.0895 -0.0321,0.13741 0.005,0.0459 0.0305,0.0923 0.0599,0.12968 0.0245,0.0311 0.0636,0.053 0.0933,0.0736 0.0887,0.0576 0.20299,0.0866 0.34276,0.0866 0.13979,0 0.252954,-0.0254 0.339494,-0.0765 0.0866,-0.0533 0.166958,-0.1416 0.169728,-0.22365 z" />
  </g>
</svg>
