<svg width="333.3" height="107.17" version="1.1" viewBox="0 0 333.3 107.17" xmlns="http://www.w3.org/2000/svg"><defs><style>.cls-1 {        fill: #00408c;        fill-rule: evenodd;      }      .cls-2 {        fill: #fff;      }</style></defs><path d="m0.1 0.1v106.97h333.1v-106.97z" fill="#00408c" style="paint-order:stroke fill markers"/><g fill="#fff"><path d="m15.028 3.9346c-6.1299 0-11.064 4.9352-11.064 11.065v77.138c0 6.1299 4.9338 11.065 11.064 11.065h303.24c6.1299 0 11.065-4.9351 11.065-11.065v-77.138c0-6.1299-4.9352-11.065-11.065-11.065zm0.13033 3.6643h302.98c4.1995 0 7.5801 3.3806 7.5801 7.5801v76.827c0 4.1995-3.3806 7.5814-7.5801 7.5814h-302.98c-4.1995 0-7.5801-3.3819-7.5801-7.5814v-76.827c0-4.1995 3.3806-7.5801 7.5801-7.5801z" stroke-width=".68603"/><path d="m97.847 84.109-3.7692-2e-4v-0.41929s-2.1182 0.76063-3.2269 0.84473c-1.3486 0.10233-2.7561 0.0156-4.0353-0.42357-1.0258-0.35221-2.0823-0.89-3.0071-1.53-0.43665-0.30221-0.82789-0.63848-1.1763-1.0744-0.39942-0.49977-0.61815-1.1733-0.63023-1.8129-0.0159-0.84397 0.1671-1.7773 0.74058-2.4216 1.1769-1.3224 2.9267-2.207 4.7148-2.6404 0.67438-0.16344 1.3389-0.23656 2.0025-0.30931 0.70088-0.0769 1.7634 0.0342 2.6541 0.24578 1.0638 0.25265 1.9054 0.62206 1.9054 0.62206s0.0969-0.61454 0.0482-0.9166c-0.0748-0.46355-0.29812-1.0166-0.51264-1.312-0.52733-0.72613-1.4814-1.0648-2.3363-1.3378-0.30515-0.0974-0.63624-0.0833-0.9564-0.0941-0.39471-0.0133-0.7906 5e-3 -1.1842 0.0363-0.63663 0.0521-1.3865 0.14903-1.8995 0.25296-1.7572 0.35603-2.7279 0.89448-2.7279 0.89448l-1.5244-3.3988s1.2322-0.59213 2.9334-1.0214c1.3372-0.33738 3.0493-0.54345 4.1038-0.48982 2.0049 0.10194 4.029 0.54277 5.465 1.7796 1.436 1.2368 2.4186 2.918 2.4186 4.8926zm-3.9025-4.6568s-0.69516-0.5587-1.6225-0.92617c-0.81293-0.32211-1.8189-0.45935-2.4951-0.45494-0.62524 5e-3 -1.698 0.20688-2.4546 0.51265-0.92981 0.37577-1.4915 0.86846-1.4915 0.86846s0.48 0.47295 1.3411 0.82867c0.81402 0.33625 1.9908 0.55634 2.6796 0.55692 0.6792 3.2e-4 1.6486-0.15053 2.4574-0.48023 0.88762-0.36186 1.5856-0.90536 1.5856-0.90536z"/><path d="m122.04 74.254c0.18256 0.61691 0.23412 1.9159 0.23412 1.9159v8.4306h-3.7318v-8.6592s-0.0422-0.69205-0.31192-1.4268c-0.20594-0.56097-0.59199-1.1468-0.91167-1.4686-0.4246-0.42742-0.91757-0.83554-1.4842-1.104-0.65433-0.31-1.3975-0.44741-2.0931-0.4358-0.7945 0.0138-1.6244 0.26469-2.3245 0.70223-0.38255 0.23904-0.70641 0.55807-1.0108 0.86761-0.33124 0.3369-0.6904 0.93865-0.90314 1.505-0.225 0.59894-0.29417 1.1541-0.29417 1.1541l-0.0223 8.8654h-3.7067v-16.379h3.7067v0.9782s0.73469-0.53774 1.7443-0.91496c1.0143-0.37893 2.3054-0.59716 3.1552-0.5231 0.99623 0.087 2.5682 0.39052 3.7046 0.97239 1.002 0.51306 1.9083 1.2649 2.6051 2.149 0.77386 0.98195 1.2895 2.1722 1.6443 3.371z" stroke-width=".16794"/><path d="m145.76 84.109-3.7692-2e-4v-0.41929s-2.1182 0.76063-3.2269 0.84473c-1.3486 0.10233-2.7561 0.0156-4.0353-0.42357-1.0258-0.35221-2.0823-0.89-3.0071-1.53-0.43665-0.30221-0.82789-0.63848-1.1763-1.0744-0.39942-0.49977-0.61815-1.1733-0.63023-1.8129-0.0159-0.84397 0.1671-1.7773 0.74058-2.4216 1.1769-1.3224 2.9267-2.207 4.7148-2.6404 0.67437-0.16344 1.3389-0.23656 2.0025-0.30931 0.70088-0.0769 1.7634 0.0342 2.6541 0.24578 1.0638 0.25265 1.9054 0.62206 1.9054 0.62206s0.0969-0.61454 0.0482-0.9166c-0.0748-0.46355-0.29811-1.0166-0.51265-1.312-0.52732-0.72613-1.4814-1.0648-2.3363-1.3378-0.30516-0.0974-0.63624-0.0833-0.9564-0.0941-0.39471-0.0133-0.79061 5e-3 -1.1842 0.0363-0.63663 0.0521-1.3865 0.14903-1.8995 0.25296-1.7572 0.35603-2.7279 0.89448-2.7279 0.89448l-1.5244-3.3988s1.2322-0.59213 2.9334-1.0214c1.3372-0.33738 3.0493-0.54345 4.1038-0.48982 2.0049 0.10194 4.029 0.54277 5.465 1.7796 1.436 1.2368 2.4186 2.918 2.4186 4.8926zm-3.9026-4.6568s-0.69516-0.5587-1.6225-0.92617c-0.81292-0.32211-1.8189-0.45935-2.4951-0.45494-0.62524 5e-3 -1.698 0.20688-2.4546 0.51265-0.92982 0.37577-1.4915 0.86846-1.4915 0.86846s0.47999 0.47295 1.3411 0.82867c0.81402 0.33625 1.9908 0.55634 2.6796 0.55692 0.6792 3.2e-4 1.6486-0.15053 2.4574-0.48023 0.88761-0.36186 1.5856-0.90536 1.5856-0.90536z"/><path d="m57.484 76.122c0-2.3281 0.82828-4.3158 2.4848-5.963 1.6303-1.6472 3.6155-2.4709 5.9558-2.4709 1.7562 0 3.3096 0.45357 4.6603 1.3607 5e-3 3e-3 0.0148-7.9106 0.0148-7.9106h3.7533s0.0131 12.656 0.0131 14.984c0 2.3501-0.0131 8.4522-0.0131 8.4522h-3.7533s-0.0148-1.3453-0.0227-1.3402c-1.3487 0.90324-2.8992 1.3548-4.6516 1.3548-2.3402 0-4.3255-0.82363-5.9558-2.4709-1.6566-1.6472-2.4848-3.6459-2.4848-5.9959zm3.8275 0.42735c0.10163 1.173 0.71953 2.3695 1.6036 3.147 0.82986 0.72985 2.0174 1.1461 3.1221 1.1156 1.1366-0.0312 2.3281-0.53127 3.144-1.3232 0.83244-0.80791 1.3799-2.0076 1.4452-3.1658 0.0644-1.1419-0.2918-2.4188-1.065-3.2615-0.9001-0.98104-2.3452-1.589-3.6763-1.5614-1.3051 0.0272-2.684 0.69181-3.5378 1.6793-0.7686 0.88896-1.1374 2.1991-1.0359 3.3699z"/><path d="m49.85 84.455-4.634 0.0508-1.9558-4.6204-10.423 0.0182-1.8521 4.5817-4.4771-0.0304 9.3107-23.328h4.7133zm-8.0944-8.8364-3.5706-8.9479-3.6576 8.999z"/><path d="m157.06 40.851c-0.0141 0.84446-0.18982 1.6042-0.5609 2.2997-0.2535 0.47508-0.57245 0.93882-1.0938 1.3059-0.26602 0.18305-0.58691 0.26745-0.90675 0.35998-0.33239 0.0965-0.66572 0.19823-1.0482 0.27683-0.29925 0.0616-0.61189 0.12087-0.93446 0.17398-0.0193 3e-3 -3e-3 5.049-3e-3 5.049h-3.6093s-0.0133-4.8605-0.0277-4.8614c-2.306-0.14455-4.3823-0.63227-6.367-1.6672l1.6204-3.2707c1.9855 1.0551 4.0282 1.2875 5.8034 1.309 0.47989 0 1.1896-0.0335 1.7777-0.11617 0.54822-0.0766 1.6231-0.35156 1.6231-0.35156s0.0639-0.19016 0.0742-0.28881c0.0105-0.0983-5e-3 -0.2199-0.0124-0.29624-9e-3 -0.0912-0.0246-0.19144-0.0837-0.2616-0.10011-0.11838-0.18285-0.26292-0.31811-0.3392-0.27892-0.15749-0.62969-0.217-0.9476-0.3163-0.80058-0.24931-1.611-0.46617-2.4162-0.7004-0.47703-0.13873-0.95411-0.27749-1.4307-0.41767-0.3063-0.0903-0.61284-0.17949-0.91831-0.2723-0.64788-0.19697-1.3212-0.32832-1.9395-0.6045-0.43634-0.19501-0.96154-0.4862-1.2311-0.73473-0.88762-0.86132-1.4184-1.7263-1.5473-2.7785-0.14985-1.2233 0.25836-2.7276 0.96606-3.5689 0.26548-0.31562 0.48599-0.55127 0.7995-0.73006 0.37237-0.21248 0.81474-0.26875 1.2299-0.37578 0.5942-0.15299 1.1939-0.29203 1.8013-0.37915 0.82252-0.11804 1.7393-0.19338 2.4853-0.19338 2.2891 0 4.3594 0.45226 6.3005 1.2887l-1.3952 3.3549c-1.2943-0.60588-3.5291-0.9914-5.3412-1.0148-1.0654-0.0124-3.1546 0.51533-3.1546 0.51533s-0.0971 0.21668-0.0989 0.33209c-3e-3 0.21085 0.0239 0.45177 0.16186 0.61103 0.35004 0.40405 0.97211 0.44877 1.476 0.62741 0.4117 0.14581 0.83993 0.2403 1.2596 0.36137 0.73493 0.21248 1.4788 0.44096 2.2036 0.6407 1.341 0.36954 3.277 0.70087 4.4114 1.815 0.83382 0.81894 1.3689 1.6244 1.3922 3.2179z" stroke-width=".080983"/><path d="m168.63 22.607v23.36h3.672v-23.36z" style="paint-order:stroke fill markers"/><path d="m56.631 22.607v23.36h3.672v-23.36z" style="paint-order:stroke fill markers"/><path d="m72.11 39.408c-0.18498-0.62378-0.23636-1.9361-0.23636-1.9361v-8.5197h3.7712v8.7505s0.0411 0.69983 0.31548 1.442c0.20862 0.56726 0.59809 1.1589 0.9218 1.4842 0.42955 0.43161 0.92694 0.84472 1.5 1.1156 0.66077 0.31343 1.412 0.45217 2.115 0.43983 0.80259-0.0103 1.6416-0.26719 2.3492-0.7101 0.38639-0.2415 0.71421-0.56418 1.0215-0.87658 0.33501-0.34015 0.69777-0.94852 0.91255-1.5209 0.22711-0.60527 0.29699-1.1662 0.29699-1.1662l0.0205-8.9591h3.7458v16.552h-3.7458v-0.98859s-0.74195 0.54363-1.7628 0.92488c-1.0246 0.38331-2.3298 0.60323-3.1884 0.52821-1.0071-0.0822-2.5954-0.39461-3.7439-0.98243-1.0122-0.51895-1.9284-1.2784-2.6325-2.1717-0.78203-0.99271-1.3032-2.1952-1.6617-3.4066z" stroke-width=".1697"/><path d="m199.97 45.508-3.8283-2.1e-4v-0.42545s-2.1514 0.77279-3.2775 0.85808c-1.3696 0.1038-2.7992 0.0206-4.0984-0.43057-1.0418-0.35762-2.1149-0.90433-3.0542-1.554-0.44291-0.30728-0.84061-0.64845-1.1946-1.0912-0.40592-0.50766-0.62789-1.1916-0.64023-1.8413-0.0205-0.85706 0.16957-1.8052 0.75224-2.4596 1.1954-1.343 2.9726-2.2416 4.7887-2.6818 0.68441-0.16648 1.3599-0.24046 2.0339-0.31446 0.71216-0.0822 1.791 0.0309 2.6956 0.24972 1.0805 0.25692 1.9353 0.632 1.9353 0.632s0.10276-0.62378 0.0514-0.93104c-0.0719-0.47067-0.30316-1.0326-0.52101-1.3326-0.5354-0.73785-1.5047-1.0815-2.3729-1.3588-0.31035-0.10277-0.64639-0.0822-0.97112-0.0925-0.40078-0.0103-0.80259 5e-3 -1.2029 0.0411-0.64639 0.0514-1.4082 0.15106-1.9292 0.25691-1.7847 0.36173-2.7706 0.90844-2.7706 0.90844l-1.5482-3.4521s1.2515-0.60118 2.9792-1.0373c1.3581-0.34221 3.0971-0.55185 4.1681-0.49738 2.0363 0.1038 4.0921 0.55082 5.5505 1.8074 1.4585 1.2562 2.4565 2.9637 2.4565 4.9692zm-3.9636-4.7298s-0.706-0.56727-1.6479-0.9403c-0.8252-0.32679-1.8474-0.46656-2.5342-0.46245-0.63509 5e-3 -1.7246 0.21068-2.4931 0.52103-0.9444 0.38125-1.5148 0.88172-1.5148 0.88172s0.4871 0.48093 1.3622 0.84163c0.82622 0.34118 2.0219 0.56521 2.7215 0.56521 0.68954 3.1e-4 1.6745-0.15312 2.4959-0.48813 0.90125-0.3679 1.6104-0.91975 1.6104-0.91975z"/><path d="m40.899 22.703v13.53c0 1.1732-0.19627 2.1739-0.70291 3.002-0.98859 1.6793-2.4729 2.519-4.4512 2.519-1.9553 0-3.4391-0.83959-4.4512-2.519-0.48299-0.82827-0.72449-1.8289-0.72449-3.002v-13.53l-4.1403 9e-3v13.804c0 2.8295 0.87351 4.8818 2.6215 6.7221 1.7483 1.8173 3.9802 2.7252 6.6945 2.7252 2.7145 0 4.9452-0.90741 6.6934-2.7252 1.7482-1.8403 2.6226-3.8926 2.6226-6.7221v-13.793z"/><path d="m127.34 29.192v16.303h3.602v-16.303z" stroke-width=".24293"/><path d="m115.77 45.489h-4.4977l-5.7214-7.6203-1.5209 1.2819v6.3384h-3.6121v-22.619h3.6121v11.536l6.1681-5.2134h5.5719l-7.463 6.3238z" stroke-width=".026244"/><g transform="matrix(10.276 0 0 10.276 1296.4 -4708.7)" stroke-width=".010315"><path d="m-99.774 462.72h-0.41235l-5.1e-4 -1.5051-0.0209-0.0109s-0.14085 0.0786-0.21758 0.1011c-0.086 0.0252-0.26642 0.0365-0.26642 0.0365l5.1e-4 -0.41188s0.0846-6e-3 0.16987-0.0358c0.0712-0.0248 0.14065-0.069 0.18166-0.10961 0.0472-0.0468 0.10019-0.13133 0.12704-0.21094 0.026-0.0769 0.0266-0.14973 0.0266-0.14973h0.41235z" stroke-width=".016555"/><path d="m-96.313 462.71-1.829 6.5e-4 -5e-5 -0.41306 1.2948-0.75855s0.06666-0.0807 0.08681-0.12823c0.02306-0.0544 0.04052-0.11456 0.03637-0.17351-0.0066-0.0904-0.03037-0.18964-0.09245-0.25571-0.05251-0.0559-0.12397-0.11048-0.19948-0.13524-0.048-0.0158-0.0969-0.0181-0.14557-0.0146-0.08081 6e-3 -0.16901 0.0315-0.23572 0.0587-0.0528 0.0215-0.12086 0.0682-0.1706 0.12472-0.0669 0.0761-0.10838 0.16297-0.10838 0.16297l-0.37384-0.17257s0.0795-0.15529 0.13658-0.22007c0.087-0.0988 0.18927-0.18938 0.30669-0.24898 0.13727-0.0697 0.29364-0.11677 0.44663-0.11761 0.01811-1e-4 0.07811-6.6e-4 0.14219 9e-3 0.0512 8e-3 0.0983 0.0199 0.14569 0.0358 0.04823 0.0162 0.09455 0.0351 0.1401 0.0605 0.09544 0.0533 0.18305 0.12745 0.24545 0.21416 0.11605 0.16125 0.17883 0.37152 0.1738 0.57013-0.0033 0.14069-0.07112 0.27635-0.1434 0.3971-0.04276 0.0714-0.16697 0.18571-0.16697 0.18571l-0.69708 0.40534 1.0079 2e-3z"/><path d="m-102.73 466.45h-0.41235l-5.1e-4 -1.5051-0.0209-0.0109s-0.14085 0.0786-0.21757 0.1011c-0.086 0.0252-0.26642 0.0365-0.26642 0.0365l5.1e-4 -0.41188s0.0846-6e-3 0.16987-0.0358c0.0712-0.0248 0.14065-0.069 0.18165-0.10961 0.0472-0.0468 0.10019-0.13133 0.12704-0.21094 0.026-0.0769 0.0266-0.14973 0.0266-0.14973h0.41235z" stroke-width=".016555"/><path d="m-97.788 466.45c2.6e-4 -8.7e-4 0.26855-0.42428 0.59575-0.94092 0.32718-0.51663 0.59489-0.93948 0.59489-0.93967 0-2.6e-4 -0.30191-5.2e-4 -0.67091-5.2e-4l-0.67093-2.5e-4 -1.5e-4 -0.20662-1.7e-4 -0.20664h1.8319v0.41326l-0.59032 0.93312c-0.32467 0.51323-0.59271 0.93689-0.59565 0.94148l-5e-3 9e-3h-0.24484c-0.23293 0-0.24482 0-0.24401-2e-3z" stroke-width=".0002667"/><path d="m-99.424 466.19c-0.0835 0.0788-0.19594 0.12959-0.30824 0.1715-0.14298 0.0534-0.29058 0.087-0.43101 0.087-0.26624 0-0.48868-0.0717-0.67224-0.22064-0.0582-0.0472-0.12536-0.11139-0.16791-0.18217-0.0467-0.0776-0.09-0.25637-0.09-0.25637l-5.1e-4 -0.63433s0.024-0.18561 0.10917-0.37688c0.0604-0.13581 0.16954-0.27323 0.24274-0.35459 0.15166-0.16853 0.40683-0.2746 0.62355-0.27161 0.0911 8.8e-4 0.2477 0.0301 0.35506 0.087 0.16522 0.0875 0.26918 0.21618 0.26918 0.21618l-0.3179 0.26036s-0.049-0.0665-0.13726-0.10759c-0.09341-0.0435-0.22932-0.0603-0.3362-0.0103-0.0646 0.0303-0.1814 0.1269-0.25087 0.22814-0.0908 0.13235-0.12701 0.2716-0.12701 0.2716s0.0823-0.0394 0.18616-0.0709c0.0954-0.0288 0.19015-0.0391 0.28669-0.0423 0.0586-2e-3 0.0997 5.2e-4 0.1753 0.0141 0.18945 0.0334 0.43226 0.10932 0.57446 0.23234 0.12792 0.11067 0.22033 0.2852 0.22617 0.45424 6e-3 0.18218-0.0769 0.37999-0.2094 0.50518zm-0.25037-0.46136c5.1e-4 -0.0212-5.2e-4 -0.0517-8e-3 -0.076-9e-3 -0.0285-0.0284-0.0582-0.043-0.0784-0.0206-0.0285-0.0545-0.0533-0.0897-0.0744-0.0173-0.0105-0.034-0.0204-0.0514-0.0285-0.0959-0.0442-0.16852-0.0732-0.3083-0.0732-0.0982 0-0.19689 0.0216-0.28793 0.0575-0.0117 4e-3 -0.0228 0.0106-0.0338 0.0172-0.013 8e-3 -0.0256 0.0164-0.0383 0.0242-0.0186 0.0117-0.0381 0.02-0.0535 0.0364-0.0151 0.0228-0.0456 0.0414-0.0592 0.0683-0.0213 0.0419-0.0375 0.0895-0.0321 0.13741 5e-3 0.0459 0.0305 0.0923 0.0599 0.12968 0.0245 0.0311 0.0636 0.053 0.0933 0.0736 0.0887 0.0576 0.20299 0.0866 0.34276 0.0866 0.13979 0 0.25295-0.0254 0.33949-0.0765 0.0866-0.0533 0.16696-0.1416 0.16973-0.22365z" stroke-width=".016594"/></g></g></svg>