<svg width="246.11" height="246.11" version="1.1" viewBox="0 0 246.11 246.11" xmlns="http://www.w3.org/2000/svg"><defs><style>.cls-1{fill:#00408c;}.cls-1,.cls-3,.cls-4{fill-rule:evenodd;}.cls-2,.cls-3{fill:#fff;}</style></defs><g transform="translate(-378.79 32.388)"><path d="m394.64-31.888h214.42c8.5034 0 15.349 6.8457 15.349 15.349v214.42c0 8.5034-6.8457 15.349-15.349 15.349h-214.42c-8.5034 0-15.349-6.8457-15.349-15.349v-214.42c0-8.5034 6.8457-15.349 15.349-15.349z" fill="#00408c"/><path d="m394.6-27.779c-6.2278 0-11.242 5.0141-11.242 11.242v214.46c0 6.2278 5.0142 11.242 11.242 11.242h214.46c6.2278 0 11.242-5.0141 11.242-11.242v-214.46c0-6.2278-5.0142-11.242-11.242-11.242zm0 4.064h214.5c3.9523 0 7.1336 3.1814 7.1336 7.1337v214.5c0 3.9523-3.1814 7.1336-7.1336 7.1336h-214.5c-3.9523 0-7.1336-3.1814-7.1336-7.1336v-214.5c0-3.9523 3.1814-7.1337 7.1336-7.1337z" fill="#fff"/><g transform="matrix(.46935 0 0 .46935 381.05 -31.887)" data-name="Layer 1"><g data-name="Layer 1-2"></g><path class="cls-3" d="M 257.38,123.23 450.07,457 H 64.69 Z"/><polygon class="cls-4" points="164.72 371.87 129.29 438.19 91.81 438.19 136.29 371.87"/><polygon class="cls-4" points="215.38 371.87 202.82 438.19 164.72 438.19 190.25 371.87"/><polygon class="cls-4" points="347.66 371.87 383.08 438.19 420.57 438.19 376.08 371.87"/><polygon class="cls-4" points="296.99 371.87 309.56 438.19 347.66 438.19 322.12 371.87"/><polygon class="cls-4" points="270.58 371.87 275.93 438.19 237.21 438.19 242.57 371.87"/><path class="cls-4" d="m303.11 410.77c-4.39 0-8.06-2.3-10.92-6.84l-0.05-0.08-31.47-83.5-41 84-0.09 0.11c-3.37 3.77-7 5.68-10.91 5.68a15 15 0 0 1-6.76-1.76c-5.19-2.58-8.38-9.63-6.83-15.08v-0.08l47.94-97.93-2.74-10.57-26.13 26.53-0.2 0.08a11.94 11.94 0 0 1-4.42 0.86 11.15 11.15 0 0 1-8.64-4.08 11.59 11.59 0 0 1-1.76-11.93l0.06-0.14 48.29-54.81 13.52-8.15a9.67 9.67 0 0 1 4.59-1.26h0.14a9.26 9.26 0 0 1 6.05 2.59l44.81 44 0.22 0.25a5.58 5.58 0 0 1 1.69 4.07v22.24a10.67 10.67 0 0 1-10.28 8.15h-0.22a10.56 10.56 0 0 1-10.22-8.12v-16.06l-12.38-9.08-5 14.64 36.01 100.5c1.21 6-1.62 12-6.73 14.2a16.44 16.44 0 0 1-6.57 1.57zm-53.31-178.1a17.64 17.64 0 1 1 17.64-17.67 17.66 17.66 0 0 1-17.64 17.67z"/><path class="cls-2" d="m249.8 198.39a16.64 16.64 0 1 1-16.65 16.61 16.64 16.64 0 0 1 16.65-16.64m15.76 34.43h0.12a8.36 8.36 0 0 1 5.3 2.23l44.88 44.09a4.84 4.84 0 0 1 1.61 3.58v22.06a9.65 9.65 0 0 1-9.3 7.35h-0.17a9.58 9.58 0 0 1-9.29-7.39v-16.29l-13.89-10.19-5.58 16.26 36.15 100.71c1.17 5.78-1.62 11.11-6.16 13.1a15.52 15.52 0 0 1-6.17 1.44c-3.54 0-7.1-1.65-10.07-6.37l-32.25-85.57-41.94 86c-3.49 3.9-6.91 5.35-10.17 5.35a14.25 14.25 0 0 1-6.31-1.65c-4.56-2.27-7.83-8.63-6.32-13.92l48.06-98.17-3.28-12.64-27.22 27.64a10.88 10.88 0 0 1-4.05 0.79 10.11 10.11 0 0 1-7.86-3.72 10.56 10.56 0 0 1-1.63-10.89l48.14-54.59 13.33-8.09a8.54 8.54 0 0 1 4.07-1.12m-15.76-36.4a18.64 18.64 0 1 0 18.64 18.61 18.67 18.67 0 0 0-18.64-18.64zm15.76 34.43a10.42 10.42 0 0 0-5.09 1.4l-13.35 8.1-0.26 0.16-0.2 0.23-48.09 54.58-0.2 0.23-0.13 0.28a12.6 12.6 0 0 0 1.91 13 12.12 12.12 0 0 0 9.41 4.45 12.91 12.91 0 0 0 4.79-0.93l0.39-0.15 0.3-0.31 24.74-25.12 2.21 8.5-47.74 97.51-0.07 0.16-0.05 0.18c-1.71 6 1.66 13.42 7.35 16.25a16 16 0 0 0 7.2 1.86c4.16 0 8.09-2 11.66-6l0.18-0.2 0.12-0.25 39.92-81.82 30.61 81.23 0.07 0.19 0.11 0.17c3 4.84 7 7.3 11.76 7.3a17.48 17.48 0 0 0 7-1.61c5.54-2.43 8.61-8.88 7.31-15.32v-0.14l-0.05-0.14-35.96-100.11 4.47-13 10.88 8v15.5l0.07 0.26a11.55 11.55 0 0 0 11.17 8.87h0.17a11.69 11.69 0 0 0 11.26-9v-22.41a6.57 6.57 0 0 0-1.93-4.7l-0.15-0.17-0.06-0.08-0.07-0.06-44.82-44a10.35 10.35 0 0 0-6.73-2.87h-0.15z"/></g></g></svg>