<svg width="246.11" height="246.11" version="1.1" viewBox="0 0 246.11 246.11" xmlns="http://www.w3.org/2000/svg"><defs><style>.cls-1{fill:#00408c;}.cls-1,.cls-3,.cls-4{fill-rule:evenodd;}.cls-2,.cls-3{fill:#fff;}</style><style>.cls-1{fill:#00408c;}.cls-1,.cls-3,.cls-4{fill-rule:evenodd;}.cls-2,.cls-3{fill:#fff;}</style></defs><g transform="translate(-378.79 32.388)"><path d="m394.64-31.888h214.42c8.5034 0 15.349 6.8457 15.349 15.349v214.42c0 8.5034-6.8457 15.349-15.349 15.349h-214.42c-8.5034 0-15.349-6.8457-15.349-15.349v-214.42c0-8.5034 6.8457-15.349 15.349-15.349z" fill="#00408c"/><path d="m394.6-27.779c-6.2278 0-11.242 5.0141-11.242 11.242v214.46c0 6.2278 5.0142 11.242 11.242 11.242h214.46c6.2278 0 11.242-5.0141 11.242-11.242v-214.46c0-6.2278-5.0142-11.242-11.242-11.242zm0 4.064h214.5c3.9523 0 7.1336 3.1814 7.1336 7.1337v214.5c0 3.9523-3.1814 7.1336-7.1336 7.1336h-214.5c-3.9523 0-7.1336-3.1814-7.1336-7.1336v-214.5c0-3.9523 3.1814-7.1337 7.1336-7.1337z" fill="#fff"/><g transform="matrix(.46935 0 0 .46935 381.05 -31.887)" data-name="Layer 1"><g data-name="Layer 1-2"></g><path class="cls-3" d="M 257.38,123.23 450.07,457 H 64.69 Z"/><polygon class="cls-4" points="164.72 371.87 129.29 438.19 91.81 438.19 136.29 371.87"/><polygon class="cls-4" points="215.38 371.87 202.82 438.19 164.72 438.19 190.25 371.87"/><polygon class="cls-4" points="347.66 371.87 383.08 438.19 420.57 438.19 376.08 371.87"/><polygon class="cls-4" points="296.99 371.87 309.56 438.19 347.66 438.19 322.12 371.87"/><polygon class="cls-4" points="270.58 371.87 275.93 438.19 237.21 438.19 242.57 371.87"/><polygon class="cls-4" points="327.48 287.74 315.05 282.09 322.96 279.26 326.58 281.07"/><path class="cls-4" d="m285.74 401.42a7.76 7.76 0 0 1-2.09-0.3 7.43 7.43 0 0 1-4.94-9.52l16.15-47.21h-4.32l8.49-28-2.81-4.81-20 15.31a6.7405 6.7405 0 0 1-8.43-10.52l37.05-30.93h10.16l23.2 10.81 5 13.84a6.88 6.88 0 0 1-4.49 8.92 6.76 6.76 0 0 1-2 0.3 6.86 6.86 0 0 1-6.37-4.29l-3.5-8.59-2-1.08-4.61 12.91 11.56 24.2h-2.79l15.59 47.67a7 7 0 0 1-3.95 8.64 7 7 0 0 1-9.34-4.23l-17-50.54h-3.7l-17.85 52.39a7.4 7.4 0 0 1-7 5z"/><path class="cls-2" d="m314.77 286.44 22.62 10.56 4.85 13.45a5.8891 5.8891 0 0 1-11 4.21l-3.64-8.92-3.34-1.8-5.14 14.4 11.05 23.14h-2.57l16 49a6 6 0 0 1-3.38 7.4 6 6 0 0 1-8-3.62l-17.22-51.26h-5.14l-18.07 53.07a6.43 6.43 0 0 1-6.08 4.35 6.51 6.51 0 0 1-1.79-0.26 6.42 6.42 0 0 1-4.28-8.24l16.6-48.53h-4.38l8.23-27.13-3.6-6.17-20.85 16a5.7566 5.7566 0 0 1-7.18-9l36.77-30.69h9.52m0.44-2h-10.66l-0.56 0.46-36.77 30.74a7.74 7.74 0 0 0 9.68 12.08l19.05-14.62 2 3.46-8 26.29-0.78 2.58h4.27l-15.69 45.88a8.42 8.42 0 0 0 5.61 10.81 8.51 8.51 0 0 0 2.35 0.34 8.42 8.42 0 0 0 8-5.71l17.62-51.71h2.28l16.76 49.86a8 8 0 0 0 15.19-5l-15.16-46.36h3l-1.38-2.91-10.7-22.38 4.08-11.43 0.66 0.36 3.36 8.26a7.86 7.86 0 0 0 7.3 4.91 8 8 0 0 0 2.3-0.31 7.89 7.89 0 0 0 5.14-10.21l-4.85-13.46-0.28-0.78-0.75-0.35-22.63-10.55-0.4-0.18z"/><circle cx="309.11" cy="266.8" r="12.92"/><rect transform="rotate(22.68 326.02 279.32)" x="312.62" y="275.53" width="26.74" height="7.46" rx="3.73"/><polygon class="cls-4" points="323.38 269.29 335.82 274.94 327.9 277.77 324.29 275.96"/><polygon class="cls-4" points="331.31 341.95 328.69 326.18 352.58 317.04 361.14 330.55"/><path class="cls-4" d="m214.77 266.59a13.92 13.92 0 1 1 13.92-13.92 13.94 13.94 0 0 1-13.92 13.92z"/><path class="cls-2" d="m214.77 239.75a12.92 12.92 0 1 1-12.92 12.92 12.93 12.93 0 0 1 12.92-12.92m0-2a14.92 14.92 0 1 0 14.93 14.92 14.94 14.94 0 0 0-14.93-14.92z"/><path class="cls-4" d="m257.68 401.34a7.66 7.66 0 0 1-7.13-4.94l-19.49-51.89-2.33 1.17-4.41-9.38-5.5 9.9-2.08-0.89-25.52 49.15a7.88 7.88 0 0 1-7 4.26 8.16 8.16 0 0 1-2.19-0.31 7.91 7.91 0 0 1-4.81-11.24l25.69-49.32-2.39-1.19 10.49-21-3.23-10.66-14.78 19.74a8.22 8.22 0 0 1-11.53 1.6 8.24 8.24 0 0 1-1.57-11.5l30.62-40.37 13.31-8.68h7.33l32.43 33.35v21.86a7.795 7.795 0 1 1-15.59 0v-15.6l-6.95-6.23-2.14 17.66 9.6 22.3-2.75 1.22 19 50.7a7.63 7.63 0 0 1-4.36 9.76 7.52 7.52 0 0 1-2.72 0.53z"/><path class="cls-2" d="m230.7 266.8 5.79 5.95 26.06 26.8v21.45a6.76 6.76 0 0 1-6.76 6.77 6.77 6.77 0 0 1-6.79-6.77v-16l-8.71-7.81-2.38 19.81 9.32 21.63-2.71 1.21 19.35 51.58a6.61 6.61 0 0 1-3.79 8.48 6.55 6.55 0 0 1-2.4 0.46 6.63 6.63 0 0 1-6.2-4.29l-19.88-52.95-2.4 1.2-4.81-10.21-6 10.81-2.1-0.9-25.95 50a6.89 6.89 0 0 1-6.12 3.72 6.69 6.69 0 0 1-1.91-0.28 6.89 6.89 0 0 1-4.2-9.8l26.16-50.23-2.41-1.2 10.22-20.43-3.91-12.93-16 21.29a7.22 7.22 0 0 1-10.13 1.4 7.2 7.2 0 0 1-1.38-10.09l30.51-40.24 12.92-8.41h6.61m0.84-2h-8l-0.5 0.32-12.92 8.41-0.3 0.19-0.21 0.28-30.5 40.24a9.21 9.21 0 1 0 14.69 11.1l13.63-18.13 2.53 8.38-9.86 19.72-0.89 1.79 1.79 0.9 0.58 0.29-25.22 48.42a8.92 8.92 0 0 0 5.42 12.66 9 9 0 0 0 2.47 0.35 8.87 8.87 0 0 0 7.9-4.8l25.09-48.33 0.39 0.17 1.66 0.71 0.88-1.57 4.11-7.41 3.15 6.68 0.87 1.86 1.83-0.92 0.42-0.21 19.1 50.85a8.6136 8.6136 0 1 0 16.13-6.05l-18.68-49.82 1-0.44 1.81-0.8-0.79-1.82-9.12-21.16 1.88-15.48 5.19 4.65v15.15a8.76 8.76 0 1 0 17.52 0v-22.26l-0.56-0.59-26.07-26.8-5.79-6-0.59-0.6z"/><rect transform="rotate(35 171.38 340.4)" x="150.23" y="324.57" width="42.29" height="31.63"/></g></g></svg>