<svg width="132.39mm" height="207.65mm" version="1.1" viewBox="0 0 132.39 207.65" xmlns="http://www.w3.org/2000/svg"><defs><clipPath id="a"><path d="m89.292 405.36h425.2v337.32h-425.2z"/></clipPath></defs><g transform="translate(-8.1655 5.0347)"><g transform="matrix(.99508 0 0 -.99508 -206.22 671.93)"><g clip-path="url(#a)"><g transform="translate(323.1 574.11)"><path d="m0 0c0 22.707-18.408 41.115-41.115 41.115s-41.115-18.408-41.115-41.115 18.408-41.115 41.115-41.115 41.115 18.408 41.115 41.115" fill="none"/></g><g transform="translate(313.17 574.11)"><path d="m0 0c0 17.223-13.962 31.185-31.185 31.185s-31.185-13.962-31.185-31.185 13.962-31.185 31.185-31.185 31.185 13.962 31.185 31.185" fill="none"/></g><g transform="translate(324.51 574.11)"><path d="m0 0c0 23.486-19.039 42.525-42.525 42.525s-42.525-19.039-42.525-42.525 19.039-42.525 42.525-42.525 42.525 19.039 42.525 42.525" fill="none"/></g></g></g><g transform="matrix(.99508 0 0 -.99508 134.51 190.93)"><path d="m0 0v185.19" fill="none"/></g><g transform="matrix(.99508 0 0 -.99508 14.178 6.6517)"><path d="m0 0v-185.19" fill="none"/></g><g transform="matrix(.99508 0 0 -.99508 137.35 190.93)"><path d="m0 0v185.19" fill="none"/></g><g transform="matrix(.99508 0 0 -.99508 11.372 6.6517)"><path d="m0 0v-185.19" fill="none"/></g><g transform="matrix(.99508 0 0 -.99508 -206.22 671.93)"><g><path transform="scale(1,-1)" d="m227.18-680.26c-6.4624 0-11.688 5.2251-11.688 11.688v185.2c0 6.4624 5.2251 11.688 11.688 11.688h109.57c6.4624 0 11.688-5.2251 11.688-11.688v-185.2c0-6.4624-5.2251-11.688-11.688-11.688zm0 1.4258h109.57c5.6976 0 10.262 4.5641 10.262 10.262v185.2c0 5.6976-4.5641 10.262-10.262 10.262h-109.57c-5.6976 0-10.264-4.5641-10.264-10.262v-185.2c0-5.6976 4.5661-10.262 10.264-10.262z" color="#000000" color-rendering="auto" dominant-baseline="auto" enable-background="accumulate" image-rendering="auto" shape-rendering="auto" solid-color="#000000" stop-color="#000000" style="font-feature-settings:normal;font-variant-alternates:normal;font-variant-caps:normal;font-variant-east-asian:normal;font-variant-ligatures:normal;font-variant-numeric:normal;font-variant-position:normal;font-variation-settings:normal;inline-size:0;isolation:auto;mix-blend-mode:normal;paint-order:stroke fill markers;shape-margin:0;shape-padding:0;text-decoration-color:#000000;text-decoration-line:none;text-decoration-style:solid;text-indent:0;text-orientation:mixed;text-transform:none;white-space:normal"/><path d="m227.18 679.55h109.57c6.08 0 10.975-4.8947 10.975-10.975v-185.2c0-6.08-4.8947-10.975-10.975-10.975h-109.57c-6.08 0-10.975 4.8947-10.975 10.975v185.2c0 6.08 4.8947 10.975 10.975 10.975z" color="#000000" color-rendering="auto" dominant-baseline="auto" enable-background="accumulate" fill="#fff" image-rendering="auto" shape-rendering="auto" solid-color="#000000" stop-color="#000000" style="font-feature-settings:normal;font-variant-alternates:normal;font-variant-caps:normal;font-variant-east-asian:normal;font-variant-ligatures:normal;font-variant-numeric:normal;font-variant-position:normal;font-variation-settings:normal;inline-size:0;isolation:auto;mix-blend-mode:normal;paint-order:stroke fill markers;shape-margin:0;shape-padding:0;text-decoration-color:#000000;text-decoration-line:none;text-decoration-style:solid;text-indent:0;text-orientation:mixed;text-transform:none;white-space:normal"/><path transform="matrix(.18017 0 0 -.18017 -297.52 821.85)" d="m2912.5 803.5c-26.29 0-47.459 21.159-47.459 47.449v1027.4c0 26.29 21.168 47.457 47.459 47.457h607.77c26.291 0 47.457-21.166 47.457-47.457v-1027.4c0-26.291-21.166-47.449-47.457-47.449zm-0.09 15.814h607.78c17.571 0 31.717 14.146 31.717 31.717v1027.4c0 17.571-14.146 31.717-31.717 31.717h-607.78c-17.571 0-31.717-14.146-31.717-31.717v-1027.4c0-17.571 14.146-31.717 31.717-31.717zm235.2 52.453-31.205 78.184 15.004 0.10156 6.209-15.355 34.932-0.0606 6.5547 15.486 15.531-0.16992-31.228-78.186zm-124.01 0.0586 32.105 46.955v31.295h13.992v-31.275l32.055-46.973-17.037-2e-3 -22.066 32.285-22.051-32.283zm309.7 0.0644-31.205 78.186 15.006 0.10156 6.207-15.355 34.932-0.0606 6.5547 15.486 15.531-0.16992-31.228-78.188zm-124.01 0.0586 32.105 46.957v31.295h13.992v-31.275l32.055-46.973-17.037-2e-3 -22.066 32.285-22.051-32.283zm-53.76 18.398 11.967 29.99-24.225 0.17188zm185.7 0.125 11.967 29.99-24.225 0.16993zm149.79 99.246v14.139h14.086v-14.139zm-427 2.8848v14.447l14.611 0.1191v-14.566zm-35.99 2e-3v14.467l14.496-0.1172v-14.35zm395.98 18.676c-4.004 0.027-7.5941 0.5303-11.154 1.752-4.8801 1.6745-10.076 3.6727-13.545 7.4922-3.4875 3.84-5.9336 9.0964-6.1895 14.277-0.2498 5.0515 1.6578 10.358 4.6309 14.449 2.4403 3.3585 6.2826 5.6606 10.106 7.2793 3.1437 1.3311 6.7036 1.3085 10.082 1.8008 5.907 0.8616 15.962 2.1362 19.449 3.4512 1.0263 0.3869 2.0745 1.1758 2.6778 1.9121 1.2498 1.5269 2.0063 3.6783 1.7988 5.6406-0.2495 2.36-1.5422 4.888-3.5332 6.1797-3.7744 2.4486-8.845 3.5469-13.658 3.6953-7.5195 0.2313-16.359-3.9159-20.645-9.6679l-10.892 9.0507c10.258 10.154 18.176 14.697 31.336 14.697 9.87 0 18.145-2.6347 23.602-7.3691 5.5369-4.7344 7.6791-10.308 7.8144-16.346 0.1385-6.2197-2.1553-12.526-7.291-17.18-5.0553-4.7344-15.633-5.2984-26.867-7.3848-4.6542-0.8827-8.3444-1.2118-10.832-2.6562-2.4876-1.4445-3.6031-3.8131-3.7188-6.2286-0.1166-2.4141 1.2705-4.9747 3.0996-6.5546 3.5636-3.0783 8.8059-4.2252 13.514-4.1211 6.4943 0.1429 12.409 1.404 18.371 6.5l9.1856-10.717c-7.6541-6.805-17.714-10.021-27.34-9.9532zm-188.15 0.3555c-9.8896 0-18.323 4.6027-23.832 11.158-6.0129 7.5161-8.6563 17.494-8.6563 29.678 0 11.471 2.085 20.704 7.1485 28.141 5.9337 8.6236 14.805 13.158 25.723 13.158 8.782 0 15.73-3.1014 21.822-9.0352 6.1711-5.9337 7.7422-11.521 7.7422-12.568l0.025-11.008v-13.225h-28.17v14.109h14.688v5.7754c-1.2613 3.5503-2.6263 6.021-5.791 8.3945-3.1646 2.3735-6.4417 3.3145-10.318 3.3145-6.7249 0-12.038-2.6592-15.203-8.5137-2.5317-4.5888-3.6191-10.948-3.6191-18.543 0-7.8326 1.1214-14.465 4.5234-19.449 3.4811-5.0634 8.7606-7.3711 14.299-7.3711 6.804 0 10.703 3.0966 14.896 9.1094l11.602-8.041c-4.6589-7.3113-13.194-15.084-26.881-15.084zm-308.21 1.666v78.48h39.357c4.0607 0 8.0817-1.0927 12.064-3.2793 3.5917-1.9523 5.9636-4.7263 8.0722-8.3184 2.1865-3.6702 3.375-8.6483 3.375-12.631-0.034-4.1895-1.7447-8.1208-3.6914-11.727-1.1155-2.0664-4.457-5.4531-4.457-5.4531s4.9219-6.228 4.9219-14.037c0-7.9651-4.7062-16.242-11.812-20.225-3.2798-1.8743-7.8093-2.8106-13.588-2.8106zm440.59 0-56.486 0.096v78.49l56.488-0.061v-14.057l-42.195 0.059-0.2051-18.852 26.725 0.035v-14.293l-26.725-0.035 0.2051-17.228 42.193-0.098zm122.79 0v78.414h14.086v-78.414zm-437.26 0.1016c-10.183 0-18.207 3.6364-24.07 10.91-5.8631 7.1955-9.2813 16.271-9.2813 28.785 0 11.028 2.9162 18.154 8.1622 25.662 6.0173 8.6815 14.348 13.022 24.994 13.022 9.7203 0 17.474-3.7535 23.26-11.262 5.863-7.5866 9.3808-15.377 9.3808-27.656 0-12.044-3.3606-20.964-9.3008-28.316-5.863-7.43-13.578-11.144-23.144-11.144zm76.992 0.01v78.414h53.318v-14.086h-39.18v-64.328zm-76.992 13.951c5.7861 0 10.713 3.0224 13.191 7.3867 3.2402 4.6927 5.0918 10.057 5.0918 18.348 0 7.3519-1.5821 11.19-4.0508 15.805-2.6602 4.6661-7.5977 8.6055-14.232 8.6055-5.8631 0-10.843-2.3464-14.16-7.0391-3.3174-4.7709-4.9766-9.0025-4.9766-17.371 0-8.2904 2.0499-14.003 5.3672-18.695 3.3174-4.6927 7.9064-7.0391 13.77-7.0391zm-111.96 0.1035h22.812c4.7967 0 8.6602 3.8615 8.6602 8.6582 0 4.7968-3.8635 8.6583-8.6602 8.6582h-22.812zm0.2364 31.336h24.892c5.2425 0 9.4629 4.2223 9.4629 9.4648 0 5.2426-4.2204 9.461-9.4629 9.461h-24.892z" style="paint-order:stroke fill markers"/></g><path d="m281.91 615.17a41.087 41.087 0 0 1-40.966-41.086 41.087 41.087 0 0 1 41.087-41.087 41.087 41.087 0 0 1 41.086 41.087 41.087 41.087 0 0 1-41.086 41.086 41.087 41.087 0 0 1-0.12158 0zm-0.0718-9.8906a31.196 31.196 0 0 0 0.19336 0 31.196 31.196 0 0 0 31.195-31.195 31.196 31.196 0 0 0-31.195-31.197 31.196 31.196 0 0 0-31.197 31.197 31.196 31.196 0 0 0 31.003 31.195z" fill="#f00" stroke-width=".72422"/></g><g transform="matrix(.6776 0 0 .6776 -181.95 68.329)"><path d="m310.5 128.45h-4.5202v12.788h-2.8163v-12.788l-4.4976-1e-4v-2.7939h11.834z"/><path d="m320.15 129.98c-1.6856-0.0221-3.5407 0.3788-4.9513 1.0292l1.0216 2.2778c1.1689-0.52904 2.2462-0.78293 3.8286-0.78293 1.4531 0 2.623 0.87467 2.623 1.9606v0.48933c-0.82866-0.36458-1.8244-0.57762-2.8962-0.57755-1.187 4e-5 -2.2756 0.35792-3.1522 0.79692-0.48826 0.24454-0.87762 0.5394-1.211 0.85176-0.14294 0.13375-0.30318 0.23668-0.41084 0.39685-0.28483 0.42373-0.44298 0.89214-0.44308 1.3852-1e-4 0.5059 0.16591 0.98613 0.46462 1.4185 0.0488 0.0711 0.12967 0.12218 0.1946 0.18272 0.10244 0.0953 0.19832 0.19896 0.30868 0.28499 0.38383 0.29899 0.75505 0.57229 1.2217 0.79799 0.86449 0.41813 1.872 0.74736 3.0274 0.74739 1.0716 7e-5 2.0676-0.21308 2.8962-0.57747v0.26242h2.5026v-6.7238h-7e-3c-0.0722-1.8464-1.2901-3.0081-2.6295-3.6586-0.34405-0.1671-1.5706-0.55091-2.3886-0.5614zm-0.35704 6.8904c0.0288-1.3e-4 0.0574-1.3e-4 0.0861 0 1.4872 0 2.6929 0.93031 2.6929 0.93031s-1.2058 0.93027-2.6929 0.93024c-1.4873 3e-5 -2.693-0.93024-2.693-0.93024s1.1534-0.91428 2.6069-0.93031z" stroke-width=".57386"/><g><path d="m334.15 130.07c-0.40625 1.7e-4 -0.81197 0.0208-1.2144 0.0627-0.53473 0.0559-1.0728 0.16326-1.5994 0.29665-0.33376 0.0836-0.68243 0.13234-0.96012 0.33043-0.61198 0.4352-0.80543 0.93607-1.0072 1.5049-0.14839 0.42055-0.1658 1.1046-0.12186 1.333 0.12254 0.63662 0.37146 1.3087 0.97713 1.8436 0.55542 0.4902 1.1439 0.68158 1.7341 0.8657 0.66011 0.20566 1.3247 0.38319 2.0029 0.57528 0.3996 0.11256 0.86952 0.25652 1.2978 0.38216 0.26232 0.0767 0.58833 0.15736 0.86469 0.25576 0.20374 0.072 0.38231 0.13216 0.47949 0.31512 0.0365 0.0687 0.0818 0.17439 0.0862 0.26814 5e-3 0.11018-0.0715 0.32466-0.0715 0.32466-0.98985 0.24297-1.6106 0.30165-2.1283 0.32228-0.55527 0.022-0.99191-6e-3 -1.6379-0.0867-0.8731-0.10867-2.5128-0.8083-2.5128-0.8083l-1.1055 2.2317s0.51412 0.26929 1.1905 0.50575c0.65988 0.23058 1.4751 0.42738 2.0452 0.51732 0.36013 0.0566 0.75079 0.0928 1.1542 0.11239v3.3798h2.4799v-3.4858c0.64458-0.0881 1.3418-0.22614 1.8706-0.5241 0.67245-0.379 1.093-1.2583 1.1842-2.2997 0.0936-1.0739-0.40505-1.8748-1.0112-2.4512-1.1464-1.09-2.4686-0.9723-3.7197-1.4132-0.84009-0.29602-2.429-0.61012-2.5413-0.82682-0.0461-0.0891-0.12743-0.16377-0.14721-0.26327-0.0292-0.14433-0.0458-0.3286 0.0499-0.44149 0 0 1.056-0.27067 1.5968-0.31056 0.72721-0.0536 1.4647-0.0153 2.1851 0.0975 0.33026 0.0516 0.82148 0.14686 1.2292 0.26713 0.4417 0.12913 0.78784 0.2814 0.78784 0.2814l0.95188-2.2891s-0.38334-0.16175-0.88912-0.32768c-0.48334-0.15718-1.0808-0.31696-1.4781-0.38159-0.66553-0.10798-1.3436-0.1641-2.0206-0.16377z" color="#000000" color-rendering="auto" dominant-baseline="auto" enable-background="accumulate" image-rendering="auto" shape-rendering="auto" solid-color="#000000" stop-color="#000000" style="font-feature-settings:normal;font-variant-alternates:normal;font-variant-caps:normal;font-variant-east-asian:normal;font-variant-ligatures:normal;font-variant-numeric:normal;font-variant-position:normal;font-variation-settings:normal;inline-size:0;isolation:auto;mix-blend-mode:normal;shape-margin:0;shape-padding:0;text-decoration-color:#000000;text-decoration-line:none;text-decoration-style:solid;text-indent:0;text-orientation:mixed;text-transform:none;white-space:normal"/><path d="m343.22 130.08v11.074h2.4468v-11.074z" stroke-width=".16501"/><path d="m355.61 138.57 1.4748 1.9769c-0.77034 0.57152-1.4764 0.61027-1.935 0.61027-0.85794 0-1.7463-0.44848-2.2788-1.1142-0.51774-0.66566-0.73564-1.265-0.73125-2.1674l0.026-5.3259h-2.4403v-2.455h2.4403v-4.3036h2.4623v4.3036h2.4568v2.455h-2.4568v5.5421s0.0134 0.19442 0.0632 0.2731c0.0967 0.15089 0.24969 0.29246 0.42511 0.32917 0.0913 0.0192 0.24658-3e-3 0.35428-0.0421 0.088-0.0321 0.13936-0.0818 0.13936-0.0818z"/><path d="m372.05 132.52h5.3133v2.4943l-4e-3 2.076c0 0.19755-0.29626 1.2516-1.4602 2.3707-1.149 1.1192-2.4593 1.704-4.1157 1.704-2.0593 0-3.7326-0.8553-4.8518-2.4818-0.95504-1.4027-1.3486-3.144-1.3486-5.3077 0-2.2981 0.49874-4.1797 1.6329-5.5973 1.039-1.2365 2.6299-2.1046 4.4952-2.1046 2.5816 0 4.1914 1.466 5.0702 2.845l-2.1883 1.5168c-0.79091-1.1341-1.5262-1.7185-2.8096-1.7185-1.0446 0-2.0405 0.43549-2.6971 1.3905-0.64167 0.94012-0.85327 2.1909-0.85327 3.6682 0 1.4326 0.20515 2.632 0.68266 3.4975 0.59691 1.1042 1.5993 1.606 2.8677 1.606 0.73121 0 1.349-0.17763 1.9459-0.62531 0.59692-0.44767 0.8543-0.91373 1.0922-1.5834l1.7e-4 -1.0891h-2.7704z"/><path d="m380.37 126.44v2.447h2.4377v-2.447zm0 3.6862v11.033h2.4377v-11.033z" stroke-width=".1644"/><path d="m430.4 141.16h-2.4652l2e-5 -5.6725s-0.16039-1.0984-0.49755-1.5054c-0.24952-0.30124-0.53708-0.63345-0.90321-0.87552-0.52933-0.34999-1.1654-0.5499-1.6064-0.51657-0.2088 0.015-0.43567 0.01-0.64807 0.0512-0.53308 0.10469-1.041 0.33666-1.4275 0.69267-0.31113 0.28655-0.68933 0.79891-0.87341 1.3045-0.18291 0.50235-0.17267 0.99887-0.17267 0.99887v5.5228h-2.4446v-5.6725s-0.0275-0.45336-0.20434-0.93469c-0.13486-0.36746-0.38779-0.75124-0.5972-0.96204-0.27817-0.28004-0.60111-0.54739-0.97231-0.72322-0.42864-0.20309-0.91545-0.29312-1.3711-0.28549-0.52047 9e-3 -1.0641 0.1734-1.5228 0.46001-0.25063 0.15654-0.46276 0.3656-0.66218 0.56838-0.21699 0.22068-0.45227 0.61488-0.59164 0.98592-0.14738 0.39238-0.19271 0.75605-0.19271 0.75605l-0.015 5.8076h-2.4282v-10.73h2.4282v0.64085s0.48128-0.3523 1.1427-0.59941c0.66446-0.24823 1.5103-0.39121 2.0669-0.34268 0.65261 0.057 1.6696 0.2199 2.4268 0.637 1.0197 0.56165 1.7066 1.4078 1.7066 1.4078s0.37511-0.41934 0.58867-0.60112c0.35387-0.30119 0.80288-0.63316 1.1392-0.80372 0.75757-0.38428 1.6157-0.64577 2.4652-0.64577 0.96601 0 1.9529 0.27647 2.8035 0.73439 0.71109 0.38282 1.3214 0.9701 1.8029 1.6185 0.37566 0.50586 0.63787 1.0985 0.8021 1.7117 0.15204 0.56777 0.17696 1.0477 0.17696 1.0477z" stroke-width=".11071"/><path d="m457.86 132.58-6.1166 6.1239h6.1166v2.4613l-10.417-3e-5v-2.4612l6.1166-6.1239h-6.1166v-2.4467h10.417z" stroke-width=".11071"/><path d="m402.26 130.13a5.5159 5.5159 0 0 0-5.5018 5.5155 5.5159 5.5159 0 0 0 5.5161 5.5162 5.5159 5.5159 0 0 0 3.6729-1.4013l-1.6373-1.831a3.0597 3.0597 0 0 1-2.0356 0.77592 3.0597 3.0597 0 0 1-2.7971-1.8214h8.1734a5.5159 5.5159 0 0 0 0.14138-1.2384 5.5159 5.5159 0 0 0-5.5154-5.5155 5.5159 5.5159 0 0 0-0.015 0zm0 2.4564a3.0597 3.0597 0 0 1 0.015 0 3.0597 3.0597 0 0 1 2.8074 1.8433h-5.6147a3.0597 3.0597 0 0 1 2.7896-1.8433z"/></g><path d="m390.55 130.13c-0.8446 0-1.6307 0.24047-2.2954 0.65552v-0.35591h-2.4434v10.732h2.4434v-6.1557c0-1.3487 1.0856-2.4347 2.4344-2.4347 0.59153 0 1.1323 0.20898 1.5533 0.5573l1.5118-1.9122c-0.7632-0.67632-1.7681-1.0865-2.8728-1.0865z"/><path d="m438.91 130.13a5.5159 5.5159 0 0 0-5.5018 5.5155 5.5159 5.5159 0 0 0 5.5161 5.5162 5.5159 5.5159 0 0 0 3.6729-1.4013l-1.6373-1.831a3.0597 3.0597 0 0 1-2.0356 0.77592 3.0597 3.0597 0 0 1-2.797-1.8214h8.1734a5.5159 5.5159 0 0 0 0.14137-1.2384 5.5159 5.5159 0 0 0-5.5154-5.5155 5.5159 5.5159 0 0 0-0.015 0zm0 2.4564a3.0597 3.0597 0 0 1 0.015 0 3.0597 3.0597 0 0 1 2.8074 1.8433h-5.6147a3.0597 3.0597 0 0 1 2.7896-1.8433z"/></g><g transform="translate(-.24691)"><g transform="matrix(.6776 0 0 .6776 -182 68.329)" aria-label="-"><path d="m378.29 177.09v-0.80303h2.4535v0.80303zm-31.272 0.1167c-0.2544 0-0.48443 0.10308-0.69038 0.30903-0.19383 0.19383-0.29094 0.41788-0.29094 0.6723 0 0.2544 0.0971 0.48446 0.29094 0.69041 0.20595 0.19383 0.43598 0.29093 0.69038 0.29093h0.10903c-0.0848 0.48459-0.41791 0.89636-0.99941 1.2356v0.29094c0.61786-0.15751 1.0844-0.44829 1.3994-0.87231s0.47231-0.96922 0.47231-1.6356c0-0.25442-0.10306-0.47847-0.30901-0.6723-0.19383-0.20595-0.41791-0.30903-0.67233-0.30903zm73.266 0c-0.25442 0-0.48495 0.10308-0.69091 0.30903-0.19386 0.19383-0.29043 0.41788-0.29043 0.6723 0 0.2544 0.0966 0.48446 0.29043 0.69041 0.20596 0.19383 0.43649 0.29093 0.69091 0.29093h0.10904c-0.0848 0.48459-0.41791 0.89636-0.99942 1.2356v0.29094c0.61786-0.15751 1.0839-0.44829 1.3989-0.87231 0.31499-0.42402 0.47284-0.96922 0.47284-1.6356 0-0.25442-0.10308-0.47847-0.30903-0.6723-0.19384-0.20595-0.41789-0.30903-0.67231-0.30903z" stroke-width="1.4685"/></g><g fill-opacity=".99647"><path d="m35.409 175.53c-2e-3 0-0.0041-7e-5 -0.0061 0-1.4808 2e-3 -2.8106 0.93238-3.3632 2.3495-0.0047 4e-3 -0.0085 0.0109-0.01036 0.0175l-0.11414 0.44435-0.1026 0.44715-0.0935 0.44714c-1.2e-5 0-1.2e-5 2e-3 0 2e-3l-0.07768 0.4538-0.06902 0.45379c-7e-6 0-7e-6 0 0 0l-0.06064 0.45662c-2.1e-5 0-2.1e-5 2e-3 0 2e-3l-0.04479 0.4566-0.03645 0.4566-0.02412 0.46043c-7e-6 0-7e-6 0 0 0l-0.01219 0.45939v0.46045l0.0094 0.46046 0.02148 0.45939 0.0328 0.4566 0.04486 0.46045 0.05773 0.45381 0.06654 0.45662 0.07734 0.44994 0.09071 0.451c7.46e-4 3e-3 2e-3 8e-3 0.0034 0.0111 0.20689 1.891 1.755 3.3242 3.6003 3.3296 0.0034 2e-3 0.0069 2e-3 0.01031 2e-3 1.8548 0 3.4111-1.4428 3.6118-3.3457v-0.0108c0.53387-2.5224 0.5339-5.1355 0-7.6589v-0.0106c-0.20064-1.9008-1.7551-3.3428-3.6083-3.3446-0.0014-7e-5 -2e-3 -7e-5 -0.0034 0zm0 2.0995c0.84593 0 1.5439 0.67932 1.5946 1.5522-0.0014 5e-3 -0.0014 0.0104 0 0.0154 0.51054 2.3151 0.51054 4.7198 0 7.0349-0.0014 5e-3 -0.0014 0.0104 0 0.0154-0.05075 0.8728-0.74852 1.5534-1.5942 1.5536-0.62275 0-1.1887-0.37417-1.451-0.95907-0.0014-3e-3 -0.0034-5e-3 -0.0054-9e-3l-0.10049-0.41177-0.09278-0.42753-0.08126-0.4314-0.07243-0.43418-0.05983-0.437-0.04479-0.43698-0.03645-0.44083-0.02412-0.437-0.01219-0.4398v-0.44083l0.01219-0.44014 0.02412-0.43982 0.03645-0.44081 0.04479-0.43702 0.05983-0.43416 0.07243-0.43421 0.08126-0.43418 0.09278-0.42753 0.10082-0.41284c2e-3 -2e-3 0.0041-5e-3 0.0054-8e-3 0.26231-0.58493 0.82803-0.95731 1.451-0.95731z"/><path d="m46.292 175.53c-0.92591 0-1.8518 0.3627-2.5599 1.0883-1.4086 1.4442-1.4322 3.785-0.06017 5.2602-1.3233 1.6533-1.5751 3.9417-0.67649 5.8471v2e-3l7.45e-4 2e-3s7.45e-4 2e-3 0.0014 2e-3c0.0084 0.0172 0.0168 0.0346 0.02514 0.0518 0.04702 0.10025 0.09865 0.19723 0.15337 0.29168 0.0093 0.0167 0.01707 0.0339 0.02663 0.0504 2e-3 3e-3 0.0047 6e-3 0.0088 0.01 0.65749 1.0875 1.8166 1.7654 3.0806 1.7654 1.2621 0 2.4204-0.67664 3.0781-1.7626 0.0047-3e-3 0.01002-7e-3 0.01329-0.0129 0.01843-0.032 0.03334-0.0654 0.05116-0.0977 0.02873-0.0513 0.05583-0.10358 0.08225-0.15652 0.98301-1.9343 0.75518-4.2985-0.60365-5.9945 1.3701-1.4753 1.346-3.8145-0.06193-5.2581-0.7081-0.72556-1.634-1.0883-2.5599-1.0883zm0 2.0995c0.88339 0 1.5988 0.73771 1.5988 1.6513s-0.71538 1.6527-1.5988 1.6527c-0.88241 0-1.5988-0.73911-1.5988-1.6527s0.71632-1.6513 1.5988-1.6513zm0 5.2606c0.61798 0 1.1794 0.36781 1.444 0.94502 0.46791 0.95312 0.4659 2.0794-0.0034 3.0284-0.26598 0.57195-0.82492 0.93768-1.4401 0.93768-0.5405 0-1.0391-0.28305-1.3323-0.74056-7.45e-4 -3e-3 -0.0014-6e-3 -0.0034-0.01-0.58821-1.0219-0.60456-2.2878-0.04838-3.3253 0.28283-0.51253 0.8082-0.83545 1.3845-0.83545z"/><path d="m58.739 180.75c-0.0014 0-0.0027-4e-5 -0.0041 0-0.94295 0-1.7896 0.59369-2.1416 1.4961-0.0027 3e-3 -0.0054 7e-3 -0.0068 0.0111l-0.07268 0.28294-0.06532 0.28474-0.05956 0.28473c-1.3e-5 0-1.3e-5 0 0 0l-0.04946 0.28895-0.04398 0.28896c-7e-6 0-7e-6 0 0 0l-0.03862 0.29077c-1.3e-5 0-1.3e-5 0 0 0l-0.02853 0.29074-0.02324 0.29073-0.01538 0.2932c-7e-6 0-7e-6 0 0 0l-0.0078 0.29252v0.2932l0.0061 0.2932 0.01368 0.29251 0.02087 0.29074 0.02853 0.2932 0.03673 0.28896 0.04235 0.29076 0.04926 0.28651 0.05773 0.28717c3.59e-4 2e-3 0.0014 5e-3 2e-3 7e-3 0.13174 1.2042 1.1175 2.1167 2.2925 2.1202h0.0068c1.181 0 2.172-0.91869 2.2999-2.1304v-7e-3c0.33994-1.6062 0.33997-3.2701 0-4.8769v-7e-3c-0.12776-1.2104-1.1176-2.1286-2.2976-2.1298-7.46e-4 -4e-5 -0.0014-4e-5 -2e-3 0zm0 1.3369c0.53866 0 0.9831 0.43257 1.0154 0.9884-7.45e-4 3e-3 -7.45e-4 7e-3 0 0.01 0.32509 1.4742 0.32509 3.0054 0 4.4796-7.45e-4 3e-3 -7.45e-4 7e-3 0 0.01-0.03232 0.55575-0.47663 0.98917-1.0152 0.98927-0.39654 0-0.75693-0.23823-0.92395-0.61068-7.45e-4 -2e-3 -2e-3 -3e-3 -0.0034-5e-3l-0.06396-0.26222-0.05909-0.27224-0.05177-0.27468-0.04614-0.27647-0.03808-0.27826-0.02853-0.27826-0.02324-0.28071-0.01538-0.27826-0.0078-0.28004v-0.28071l0.0078-0.28027 0.01538-0.28004 0.02324-0.28072 0.02853-0.27827 0.03808-0.27646 0.04614-0.27648 0.05177-0.27647 0.05909-0.27224 0.06417-0.26288c0.0014-2e-3 0.0027-3e-3 0.0034-5e-3 0.16703-0.37247 0.52726-0.60959 0.92396-0.60959z"/><path d="m65.551 180.75c-0.0014 0-0.0027-4e-5 -0.0041 0-0.94295 0-1.7896 0.59369-2.1416 1.4961-0.0027 3e-3 -0.0054 7e-3 -0.0068 0.0111l-0.07268 0.28294-0.06532 0.28474-0.05956 0.28473c-1.3e-5 0-1.3e-5 0 0 0l-0.04947 0.28895-0.04398 0.28896c-8e-6 0-8e-6 0 0 0l-0.03862 0.29077c-1.2e-5 0-1.2e-5 0 0 0l-0.02853 0.29074-0.02324 0.29073-0.01538 0.2932c-6e-6 0-6e-6 0 0 0l-0.0078 0.29252v0.2932l0.0061 0.2932 0.01368 0.29251 0.02087 0.29074 0.02853 0.2932 0.03673 0.28896 0.04235 0.29076 0.04926 0.28651 0.05773 0.28717c3.59e-4 2e-3 0.0014 5e-3 2e-3 7e-3 0.13174 1.2042 1.1175 2.1167 2.2925 2.1202h0.0068c1.181 0 2.172-0.91869 2.2999-2.1304v-7e-3c0.33994-1.6062 0.33997-3.2701 0-4.8769v-7e-3c-0.12776-1.2104-1.1176-2.1286-2.2976-2.1298-7.45e-4 -4e-5 -0.0014-4e-5 -2e-3 0zm0 1.3369c0.53866 0 0.9831 0.43257 1.0154 0.9884-7.45e-4 3e-3 -7.45e-4 7e-3 0 0.01 0.32509 1.4742 0.32509 3.0054 0 4.4796-7.45e-4 3e-3 -7.45e-4 7e-3 0 0.01-0.03232 0.55575-0.47663 0.98917-1.0152 0.98927-0.39654 0-0.75693-0.23823-0.92396-0.61068-7.46e-4 -2e-3 -2e-3 -3e-3 -0.0034-5e-3l-0.06397-0.26222-0.05909-0.27224-0.05177-0.27468-0.04615-0.27647-0.03808-0.27826-0.02853-0.27826-0.02324-0.28071-0.01538-0.27826-0.0078-0.28004v-0.28071l0.0078-0.28027 0.01538-0.28004 0.02324-0.28072 0.02853-0.27827 0.03808-0.27646 0.04615-0.27648 0.05177-0.27647 0.05909-0.27224 0.06417-0.26288c0.0014-2e-3 0.0027-3e-3 0.0034-5e-3 0.16703-0.37247 0.52726-0.60959 0.92396-0.60959z"/><path d="m108.45 180.75c-1e-3 0-3e-3 -4e-5 -4e-3 0-0.94295 0-1.7896 0.59369-2.1416 1.4961-3e-3 3e-3 -5e-3 7e-3 -7e-3 0.0111l-0.0727 0.28294-0.0653 0.28474-0.0596 0.28473c-2e-5 0-2e-5 0 0 0l-0.0495 0.28895-0.044 0.28896c-1e-5 0-1e-5 0 0 0l-0.0386 0.29077c-1e-5 0-1e-5 0 0 0l-0.0285 0.29074-0.0233 0.29073-0.0154 0.2932-8e-3 0.29252v0.2932l6e-3 0.2932 0.0137 0.29251 0.0209 0.29074 0.0285 0.2932 0.0367 0.28896 0.0423 0.29076 0.0493 0.28651 0.0577 0.28717c3.6e-4 2e-3 1e-3 5e-3 2e-3 7e-3 0.13173 1.2042 1.1175 2.1167 2.2925 2.1202h7e-3c1.181 0 2.172-0.91869 2.2999-2.1304v-7e-3c0.33994-1.6062 0.33996-3.2701 0-4.8769v-7e-3c-0.12776-1.2104-1.1176-2.1286-2.2976-2.1298-6.7e-4 -4e-5 -1e-3 -4e-5 -2e-3 0zm0 1.3369c0.53866 0 0.9831 0.43257 1.0154 0.9884-6.8e-4 3e-3 -6.8e-4 7e-3 0 0.01 0.32509 1.4742 0.32509 3.0054 0 4.4796-6.8e-4 3e-3 -6.8e-4 7e-3 0 0.01-0.0323 0.55575-0.47663 0.98917-1.0152 0.98927-0.39655 0-0.75694-0.23823-0.92396-0.61068-6.7e-4 -2e-3 -2e-3 -3e-3 -3e-3 -5e-3l-0.064-0.26222-0.0591-0.27224-0.0518-0.27468-0.0461-0.27647-0.0381-0.27826-0.0285-0.27826-0.0232-0.28071-0.0154-0.27826-8e-3 -0.28004v-0.28071l8e-3 -0.28027 0.0154-0.28004 0.0232-0.28072 0.0285-0.27827 0.0381-0.27646 0.0461-0.27648 0.0518-0.27647 0.0591-0.27224 0.0642-0.26288c1e-3 -2e-3 3e-3 -3e-3 3e-3 -5e-3 0.16702-0.37247 0.52726-0.60959 0.92396-0.60959z"/><path d="m115.27 180.75c-1e-3 0-3e-3 -4e-5 -4e-3 0-0.94295 0-1.7896 0.59369-2.1416 1.4961-3e-3 3e-3 -5e-3 7e-3 -7e-3 0.0111l-0.0727 0.28294-0.0653 0.28474-0.0596 0.28473c-1e-5 0-1e-5 0 0 0l-0.0495 0.28895-0.044 0.28896c-1e-5 0-1e-5 0 0 0l-0.0386 0.29077c-2e-5 0-2e-5 0 0 0l-0.0285 0.29074-0.0232 0.29073-0.0154 0.2932c-1e-5 0-1e-5 0 0 0l-8e-3 0.29252v0.2932l6e-3 0.2932 0.0137 0.29251 0.0209 0.29074 0.0285 0.2932 0.0367 0.28896 0.0423 0.29076 0.0493 0.28651 0.0577 0.28717c3.6e-4 2e-3 1e-3 5e-3 2e-3 7e-3 0.13174 1.2042 1.1175 2.1167 2.2925 2.1202h7e-3c1.181 0 2.172-0.91869 2.2999-2.1304v-7e-3c0.33995-1.6062 0.33997-3.2701 0-4.8769v-7e-3c-0.12776-1.2104-1.1176-2.1286-2.2976-2.1298-6.8e-4 -4e-5 -1e-3 -4e-5 -2e-3 0zm0 1.3369c0.53866 0 0.9831 0.43257 1.0154 0.9884-6.8e-4 3e-3 -6.8e-4 7e-3 0 0.01 0.32509 1.4742 0.32509 3.0054 0 4.4796-6.8e-4 3e-3 -6.8e-4 7e-3 0 0.01-0.0323 0.55575-0.47663 0.98917-1.0152 0.98927-0.39654 0-0.75693-0.23823-0.92395-0.61068-6.8e-4 -2e-3 -2e-3 -3e-3 -3e-3 -5e-3l-0.064-0.26222-0.0591-0.27224-0.0518-0.27468-0.0462-0.27647-0.0381-0.27826-0.0285-0.27826-0.0233-0.28071-0.0154-0.27826-8e-3 -0.28004v-0.28071l8e-3 -0.28027 0.0154-0.28004 0.0233-0.28072 0.0285-0.27827 0.0381-0.27646 0.0462-0.27648 0.0518-0.27647 0.0591-0.27224 0.0642-0.26288c1e-3 -2e-3 3e-3 -3e-3 3e-3 -5e-3 0.16703-0.37247 0.52726-0.60959 0.92396-0.60959z"/></g><g transform="matrix(.6776 0 0 .6776 -174.83 65.271)" fill-opacity=".99647"><g transform="matrix(.26467 0 0 .23067 361.02 200.24)" stroke-width=".28783" aria-label="1"><path d="m94.561-69.66h-11.286v-75.98h-5.0619v-10.139c4.3512-1.2375 5.7725-2.4325 8.1553-5.8234l8.1928 4e-5z" fill-opacity=".99647" stroke-width=".28783"/></g><path d="m406.23 175.78c-0.01 2.0242-0.50033 4.0846-1.9097 5.7638-1.3923 1.6792-3.3844 2.3836-5.5674 2.3836-1.5298 0-3.1926-1.0456-4.1987-1.9208l2.0945-2.151c0.80786 0.49755 1.607 1.0514 2.5868 1.0514 0.88211 0.0291 1.7736-0.34531 2.4796-0.99347 0.31185-0.28615 0.60195-0.64228 0.78177-1.0358 0.4462-0.97633 0.67346-1.9886 0.67346-3.1495 0.0195-0.99511 0.11155-1.845-0.47286-2.5292-0.56721-0.68413-1.3078-1.239-2.1844-1.239-1.1172-0.0195-2.2519 0.60135-2.6776 2.1215l-2.8091-0.32933 0.45977-11.033h9.8893v3.0048h-7.0268l-0.14357 3.6748s0.4074-0.17655 0.94046-0.29876c0.47625-0.10912 1.0566-0.16539 1.4703-0.16539 0.90155 0.0242 1.6934 0.27451 2.4162 0.64288 0.5863 0.29875 1.2264 0.67748 1.6167 1.2315 0.36714 0.52131 0.78403 1.0666 1.0314 1.6701 0.42679 1.0415 0.55638 2.1999 0.54978 3.3008z" stroke-width=".070258"/></g></g></g></svg>