<svg width="100.08mm" height="142.91mm" version="1.1" viewBox="0 0 100.08 142.91" xmlns="http://www.w3.org/2000/svg"><defs><clipPath id="a"><path d="m89.292 405.36h425.2v337.32h-425.2z"/></clipPath></defs><g transform="translate(-8.1777 5.0225)"><g transform="matrix(.75219 0 0 -.75219 -153.88 506.7)"><g clip-path="url(#a)"><g transform="translate(323.1 574.11)"><path d="m0 0c0 22.707-18.408 41.115-41.115 41.115s-41.115-18.408-41.115-41.115 18.408-41.115 41.115-41.115 41.115 18.408 41.115 41.115" fill="none"/></g><g transform="translate(313.17 574.11)"><path d="m0 0c0 17.223-13.962 31.185-31.185 31.185s-31.185-13.962-31.185-31.185 13.962-31.185 31.185-31.185 31.185 13.962 31.185 31.185" fill="none"/></g><g transform="translate(324.51 574.11)"><path d="m0 0c0 23.486-19.039 42.525-42.525 42.525s-42.525-19.039-42.525-42.525 19.039-42.525 42.525-42.525 42.525 19.039 42.525 42.525" fill="none"/></g></g><g><path transform="scale(1,-1)" d="m227.18-680.26c-6.4624 0-11.688 5.2251-11.688 11.688v166.51c0 6.4624 5.2251 11.688 11.688 11.688h109.57c6.4624 0 11.688-5.2251 11.688-11.688v-166.51c0-6.4624-5.2251-11.688-11.688-11.688zm0 1.4258h109.57c5.6976 0 10.262 4.5641 10.262 10.262v166.51c0 5.6976-4.5641 10.262-10.262 10.262h-109.57c-5.6976 0-10.264-4.5641-10.264-10.262v-166.51c0-5.6976 4.5661-10.262 10.264-10.262z" color="#000000" color-rendering="auto" dominant-baseline="auto" enable-background="accumulate" image-rendering="auto" shape-rendering="auto" solid-color="#000000" stop-color="#000000" style="font-feature-settings:normal;font-variant-alternates:normal;font-variant-caps:normal;font-variant-east-asian:normal;font-variant-ligatures:normal;font-variant-numeric:normal;font-variant-position:normal;font-variation-settings:normal;inline-size:0;isolation:auto;mix-blend-mode:normal;paint-order:stroke fill markers;shape-margin:0;shape-padding:0;text-decoration-color:#000000;text-decoration-line:none;text-decoration-style:solid;text-indent:0;text-orientation:mixed;text-transform:none;white-space:normal"/><path d="m227.18 679.55h109.57c6.08 0 10.975-4.8947 10.975-10.975v-166.51c0-6.08-4.8947-10.975-10.975-10.975h-109.57c-6.08 0-10.975 4.8947-10.975 10.975v166.51c0 6.08 4.8947 10.975 10.975 10.975z" color="#000000" color-rendering="auto" dominant-baseline="auto" enable-background="accumulate" fill="#fff" image-rendering="auto" shape-rendering="auto" solid-color="#000000" stop-color="#000000" style="font-feature-settings:normal;font-variant-alternates:normal;font-variant-caps:normal;font-variant-east-asian:normal;font-variant-ligatures:normal;font-variant-numeric:normal;font-variant-position:normal;font-variation-settings:normal;inline-size:0;isolation:auto;mix-blend-mode:normal;paint-order:stroke fill markers;shape-margin:0;shape-padding:0;text-decoration-color:#000000;text-decoration-line:none;text-decoration-style:solid;text-indent:0;text-orientation:mixed;text-transform:none;white-space:normal"/><path transform="matrix(.18017 0 0 -.18017 -297.52 821.85)" d="m2912.5 803.5c-26.29 0-47.459 21.159-47.459 47.449v923.65c0 26.29 21.168 47.457 47.459 47.457h607.77c26.291 0 47.457-21.166 47.457-47.457v-923.65c0-26.291-21.166-47.449-47.457-47.449zm-0.09 15.814h607.78c17.571 0 31.717 14.146 31.717 31.717v923.68c0 17.571-14.146 31.717-31.717 31.717h-607.78c-17.571 0-31.717-14.146-31.717-31.717v-923.68c0-17.571 14.146-31.717 31.717-31.717zm235.2 52.453-31.205 78.184 15.004 0.10156 6.209-15.355 34.932-0.0606 6.5547 15.486 15.531-0.16992-31.228-78.186zm-124.01 0.0586 32.105 46.955v31.295h13.992v-31.275l32.055-46.973-17.037-2e-3 -22.066 32.285-22.051-32.283zm309.7 0.0644-31.205 78.186 15.006 0.10156 6.207-15.355 34.932-0.0606 6.5547 15.486 15.531-0.16992-31.228-78.188zm-124.01 0.0586 32.105 46.957v31.295h13.992v-31.275l32.055-46.973-17.037-2e-3 -22.066 32.285-22.051-32.283zm-53.76 18.398 11.967 29.99-24.225 0.17188zm185.7 0.125 11.967 29.99-24.225 0.16993zm149.79 99.246v14.139h14.086v-14.139zm-427 2.8848v14.447l14.611 0.1191v-14.566zm-35.99 2e-3v14.467l14.496-0.1172v-14.35zm395.98 18.676c-4.004 0.027-7.5941 0.5303-11.154 1.752-4.8801 1.6745-10.076 3.6727-13.545 7.4922-3.4875 3.84-5.9336 9.0964-6.1895 14.277-0.2498 5.0515 1.6578 10.358 4.6309 14.449 2.4403 3.3585 6.2826 5.6606 10.106 7.2793 3.1437 1.3311 6.7036 1.3085 10.082 1.8008 5.907 0.8616 15.962 2.1362 19.449 3.4512 1.0263 0.3869 2.0745 1.1758 2.6778 1.9121 1.2498 1.5269 2.0063 3.6783 1.7988 5.6406-0.2495 2.36-1.5422 4.888-3.5332 6.1797-3.7744 2.4486-8.845 3.5469-13.658 3.6953-7.5195 0.2313-16.359-3.9159-20.645-9.6679l-10.892 9.0507c10.258 10.154 18.176 14.697 31.336 14.697 9.87 0 18.145-2.6347 23.602-7.3691 5.5369-4.7344 7.6791-10.308 7.8144-16.346 0.1385-6.2197-2.1553-12.526-7.291-17.18-5.0553-4.7344-15.633-5.2984-26.867-7.3848-4.6542-0.8827-8.3444-1.2118-10.832-2.6562-2.4876-1.4445-3.6031-3.8131-3.7188-6.2286-0.1166-2.4141 1.2705-4.9747 3.0996-6.5546 3.5636-3.0783 8.8059-4.2252 13.514-4.1211 6.4943 0.1429 12.409 1.404 18.371 6.5l9.1856-10.717c-7.6541-6.805-17.714-10.021-27.34-9.9532zm-188.15 0.3555c-9.8896 0-18.323 4.6027-23.832 11.158-6.0129 7.5161-8.6563 17.494-8.6563 29.678 0 11.471 2.085 20.704 7.1485 28.141 5.9337 8.6236 14.805 13.158 25.723 13.158 8.782 0 15.73-3.1014 21.822-9.0352 6.1711-5.9337 7.7422-11.521 7.7422-12.568l0.025-11.008v-13.225h-28.17v14.109h14.688v5.7754c-1.2613 3.5503-2.6263 6.021-5.791 8.3945-3.1646 2.3735-6.4417 3.3145-10.318 3.3145-6.7249 0-12.038-2.6592-15.203-8.5137-2.5317-4.5888-3.6191-10.948-3.6191-18.543 0-7.8326 1.1214-14.465 4.5234-19.449 3.4811-5.0634 8.7606-7.3711 14.299-7.3711 6.804 0 10.703 3.0966 14.896 9.1094l11.602-8.041c-4.6589-7.3113-13.194-15.084-26.881-15.084zm-308.21 1.666v78.48h39.357c4.0607 0 8.0817-1.0927 12.064-3.2793 3.5917-1.9523 5.9636-4.7263 8.0722-8.3184 2.1865-3.6702 3.375-8.6483 3.375-12.631-0.034-4.1895-1.7447-8.1208-3.6914-11.727-1.1155-2.0664-4.457-5.4531-4.457-5.4531s4.9219-6.228 4.9219-14.037c0-7.9651-4.7062-16.242-11.812-20.225-3.2798-1.8743-7.8093-2.8106-13.588-2.8106zm440.59 0-56.486 0.096v78.49l56.488-0.061v-14.057l-42.195 0.059-0.2051-18.852 26.725 0.035v-14.293l-26.725-0.035 0.2051-17.228 42.193-0.098zm122.79 0v78.414h14.086v-78.414zm-437.26 0.1016c-10.183 0-18.207 3.6364-24.07 10.91-5.8631 7.1955-9.2813 16.271-9.2813 28.785 0 11.028 2.9162 18.154 8.1622 25.662 6.0173 8.6815 14.348 13.022 24.994 13.022 9.7203 0 17.474-3.7535 23.26-11.262 5.863-7.5866 9.3808-15.377 9.3808-27.656 0-12.044-3.3606-20.964-9.3008-28.316-5.863-7.43-13.578-11.144-23.144-11.144zm76.992 0.01v78.414h53.318v-14.086h-39.18v-64.328zm-76.992 13.951c5.7861 0 10.713 3.0224 13.191 7.3867 3.2402 4.6927 5.0918 10.057 5.0918 18.348 0 7.3519-1.5821 11.19-4.0508 15.805-2.6602 4.6661-7.5977 8.6055-14.232 8.6055-5.8631 0-10.843-2.3464-14.16-7.0391-3.3174-4.7709-4.9766-9.0025-4.9766-17.371 0-8.2904 2.0499-14.003 5.3672-18.695 3.3174-4.6927 7.9064-7.0391 13.77-7.0391zm-111.96 0.1035h22.812c4.7967 0 8.6602 3.8615 8.6602 8.6582 0 4.7968-3.8635 8.6583-8.6602 8.6582h-22.812zm0.2364 31.336h24.892c5.2425 0 9.4629 4.2223 9.4629 9.4648 0 5.2426-4.2204 9.461-9.4629 9.461h-24.892z" style="paint-order:stroke fill markers"/></g><path transform="matrix(.18992 0 0 -.18992 215.46 680.3)" d="m349.9 342.93a216.34 216.34 0 0 0-215.7 216.33 216.34 216.34 0 0 0 216.34 216.34 216.34 216.34 0 0 0 216.33-216.34 216.34 216.34 0 0 0-216.33-216.33 216.34 216.34 0 0 0-0.63867 0zm-0.37891 52.078a164.26 164.26 0 0 1 1.0176 0 164.26 164.26 0 0 1 164.25 164.25 164.26 164.26 0 0 1-36.629 103.4l-0.22266-0.42969-230.78-230.2-0.42968-0.0723a164.26 164.26 0 0 1 102.79-36.953zm-126.54 60.764 0.1543 0.21875 230.65 230.4 0.53125 0.18946a164.26 164.26 0 0 1-103.78 36.939 164.26 164.26 0 0 1-164.26-164.26 164.26 164.26 0 0 1 36.703-103.49z" fill="#f00" stroke-width="3.8133"/></g><g transform="matrix(.75591 0 0 .75591 1.8187 -17.884)"><g transform="matrix(.6776 0 0 .6776 -182 68.329)" aria-label="-"><path d="m378.29 177.09v-0.80303h2.4535v0.80303zm-31.272 0.1167c-0.2544 0-0.48443 0.10308-0.69038 0.30903-0.19383 0.19383-0.29094 0.41788-0.29094 0.6723 0 0.2544 0.0971 0.48446 0.29094 0.69041 0.20595 0.19383 0.43598 0.29093 0.69038 0.29093h0.10903c-0.0848 0.48459-0.41791 0.89636-0.99941 1.2356v0.29094c0.61786-0.15751 1.0844-0.44829 1.3994-0.87231s0.47231-0.96922 0.47231-1.6356c0-0.25442-0.10306-0.47847-0.30901-0.6723-0.19383-0.20595-0.41791-0.30903-0.67233-0.30903zm73.266 0c-0.25442 0-0.48495 0.10308-0.69091 0.30903-0.19386 0.19383-0.29043 0.41788-0.29043 0.6723 0 0.2544 0.0966 0.48446 0.29043 0.69041 0.20596 0.19383 0.43649 0.29093 0.69091 0.29093h0.10904c-0.0848 0.48459-0.41791 0.89636-0.99942 1.2356v0.29094c0.61786-0.15751 1.0839-0.44829 1.3989-0.87231 0.31499-0.42402 0.47284-0.96922 0.47284-1.6356 0-0.25442-0.10308-0.47847-0.30903-0.6723-0.19384-0.20595-0.41789-0.30903-0.67231-0.30903z" stroke-width="1.4685"/></g><g fill-opacity=".99647"><path d="m35.409 175.53c-2e-3 0-0.0041-7e-5 -0.0061 0-1.4808 2e-3 -2.8106 0.93238-3.3632 2.3495-0.0047 4e-3 -0.0085 0.0109-0.01036 0.0175l-0.11414 0.44435-0.1026 0.44715-0.0935 0.44714c-1.2e-5 0-1.2e-5 2e-3 0 2e-3l-0.07768 0.4538-0.06902 0.45379c-7e-6 0-7e-6 0 0 0l-0.06064 0.45662c-2.1e-5 0-2.1e-5 2e-3 0 2e-3l-0.04479 0.4566-0.03645 0.4566-0.02412 0.46043c-7e-6 0-7e-6 0 0 0l-0.01219 0.45939v0.46045l0.0094 0.46046 0.02148 0.45939 0.0328 0.4566 0.04486 0.46045 0.05773 0.45381 0.06654 0.45662 0.07734 0.44994 0.09071 0.451c7.46e-4 3e-3 2e-3 8e-3 0.0034 0.0111 0.20689 1.891 1.755 3.3242 3.6003 3.3296 0.0034 2e-3 0.0069 2e-3 0.01031 2e-3 1.8548 0 3.4111-1.4428 3.6118-3.3457v-0.0108c0.53387-2.5224 0.5339-5.1355 0-7.6589v-0.0106c-0.20064-1.9008-1.7551-3.3428-3.6083-3.3446-0.0014-7e-5 -2e-3 -7e-5 -0.0034 0zm0 2.0995c0.84593 0 1.5439 0.67932 1.5946 1.5522-0.0014 5e-3 -0.0014 0.0104 0 0.0154 0.51054 2.3151 0.51054 4.7198 0 7.0349-0.0014 5e-3 -0.0014 0.0104 0 0.0154-0.05075 0.8728-0.74852 1.5534-1.5942 1.5536-0.62275 0-1.1887-0.37417-1.451-0.95907-0.0014-3e-3 -0.0034-5e-3 -0.0054-9e-3l-0.10049-0.41177-0.09278-0.42753-0.08126-0.4314-0.07243-0.43418-0.05983-0.437-0.04479-0.43698-0.03645-0.44083-0.02412-0.437-0.01219-0.4398v-0.44083l0.01219-0.44014 0.02412-0.43982 0.03645-0.44081 0.04479-0.43702 0.05983-0.43416 0.07243-0.43421 0.08126-0.43418 0.09278-0.42753 0.10082-0.41284c2e-3 -2e-3 0.0041-5e-3 0.0054-8e-3 0.26231-0.58493 0.82803-0.95731 1.451-0.95731z"/><path d="m46.292 175.53c-0.92591 0-1.8518 0.3627-2.5599 1.0883-1.4086 1.4442-1.4322 3.785-0.06017 5.2602-1.3233 1.6533-1.5751 3.9417-0.67649 5.8471v2e-3l7.45e-4 2e-3s7.45e-4 2e-3 0.0014 2e-3c0.0084 0.0172 0.0168 0.0346 0.02514 0.0518 0.04702 0.10025 0.09865 0.19723 0.15337 0.29168 0.0093 0.0167 0.01707 0.0339 0.02663 0.0504 2e-3 3e-3 0.0047 6e-3 0.0088 0.01 0.65749 1.0875 1.8166 1.7654 3.0806 1.7654 1.2621 0 2.4204-0.67664 3.0781-1.7626 0.0047-3e-3 0.01002-7e-3 0.01329-0.0129 0.01843-0.032 0.03334-0.0654 0.05116-0.0977 0.02873-0.0513 0.05583-0.10358 0.08225-0.15652 0.98301-1.9343 0.75518-4.2985-0.60365-5.9945 1.3701-1.4753 1.346-3.8145-0.06193-5.2581-0.7081-0.72556-1.634-1.0883-2.5599-1.0883zm0 2.0995c0.88339 0 1.5988 0.73771 1.5988 1.6513s-0.71538 1.6527-1.5988 1.6527c-0.88241 0-1.5988-0.73911-1.5988-1.6527s0.71632-1.6513 1.5988-1.6513zm0 5.2606c0.61798 0 1.1794 0.36781 1.444 0.94502 0.46791 0.95312 0.4659 2.0794-0.0034 3.0284-0.26598 0.57195-0.82492 0.93768-1.4401 0.93768-0.5405 0-1.0391-0.28305-1.3323-0.74056-7.45e-4 -3e-3 -0.0014-6e-3 -0.0034-0.01-0.58821-1.0219-0.60456-2.2878-0.04838-3.3253 0.28283-0.51253 0.8082-0.83545 1.3845-0.83545z"/><path d="m58.739 180.75c-0.0014 0-0.0027-4e-5 -0.0041 0-0.94295 0-1.7896 0.59369-2.1416 1.4961-0.0027 3e-3 -0.0054 7e-3 -0.0068 0.0111l-0.07268 0.28294-0.06532 0.28474-0.05956 0.28473c-1.3e-5 0-1.3e-5 0 0 0l-0.04946 0.28895-0.04398 0.28896c-7e-6 0-7e-6 0 0 0l-0.03862 0.29077c-1.3e-5 0-1.3e-5 0 0 0l-0.02853 0.29074-0.02324 0.29073-0.01538 0.2932c-7e-6 0-7e-6 0 0 0l-0.0078 0.29252v0.2932l0.0061 0.2932 0.01368 0.29251 0.02087 0.29074 0.02853 0.2932 0.03673 0.28896 0.04235 0.29076 0.04926 0.28651 0.05773 0.28717c3.59e-4 2e-3 0.0014 5e-3 2e-3 7e-3 0.13174 1.2042 1.1175 2.1167 2.2925 2.1202h0.0068c1.181 0 2.172-0.91869 2.2999-2.1304v-7e-3c0.33994-1.6062 0.33997-3.2701 0-4.8769v-7e-3c-0.12776-1.2104-1.1176-2.1286-2.2976-2.1298-7.46e-4 -4e-5 -0.0014-4e-5 -2e-3 0zm0 1.3369c0.53866 0 0.9831 0.43257 1.0154 0.9884-7.45e-4 3e-3 -7.45e-4 7e-3 0 0.01 0.32509 1.4742 0.32509 3.0054 0 4.4796-7.45e-4 3e-3 -7.45e-4 7e-3 0 0.01-0.03232 0.55575-0.47663 0.98917-1.0152 0.98927-0.39654 0-0.75693-0.23823-0.92395-0.61068-7.45e-4 -2e-3 -2e-3 -3e-3 -0.0034-5e-3l-0.06396-0.26222-0.05909-0.27224-0.05177-0.27468-0.04614-0.27647-0.03808-0.27826-0.02853-0.27826-0.02324-0.28071-0.01538-0.27826-0.0078-0.28004v-0.28071l0.0078-0.28027 0.01538-0.28004 0.02324-0.28072 0.02853-0.27827 0.03808-0.27646 0.04614-0.27648 0.05177-0.27647 0.05909-0.27224 0.06417-0.26288c0.0014-2e-3 0.0027-3e-3 0.0034-5e-3 0.16703-0.37247 0.52726-0.60959 0.92396-0.60959z"/><path d="m65.551 180.75c-0.0014 0-0.0027-4e-5 -0.0041 0-0.94295 0-1.7896 0.59369-2.1416 1.4961-0.0027 3e-3 -0.0054 7e-3 -0.0068 0.0111l-0.07268 0.28294-0.06532 0.28474-0.05956 0.28473c-1.3e-5 0-1.3e-5 0 0 0l-0.04947 0.28895-0.04398 0.28896c-8e-6 0-8e-6 0 0 0l-0.03862 0.29077c-1.2e-5 0-1.2e-5 0 0 0l-0.02853 0.29074-0.02324 0.29073-0.01538 0.2932c-6e-6 0-6e-6 0 0 0l-0.0078 0.29252v0.2932l0.0061 0.2932 0.01368 0.29251 0.02087 0.29074 0.02853 0.2932 0.03673 0.28896 0.04235 0.29076 0.04926 0.28651 0.05773 0.28717c3.59e-4 2e-3 0.0014 5e-3 2e-3 7e-3 0.13174 1.2042 1.1175 2.1167 2.2925 2.1202h0.0068c1.181 0 2.172-0.91869 2.2999-2.1304v-7e-3c0.33994-1.6062 0.33997-3.2701 0-4.8769v-7e-3c-0.12776-1.2104-1.1176-2.1286-2.2976-2.1298-7.45e-4 -4e-5 -0.0014-4e-5 -2e-3 0zm0 1.3369c0.53866 0 0.9831 0.43257 1.0154 0.9884-7.45e-4 3e-3 -7.45e-4 7e-3 0 0.01 0.32509 1.4742 0.32509 3.0054 0 4.4796-7.45e-4 3e-3 -7.45e-4 7e-3 0 0.01-0.03232 0.55575-0.47663 0.98917-1.0152 0.98927-0.39654 0-0.75693-0.23823-0.92396-0.61068-7.46e-4 -2e-3 -2e-3 -3e-3 -0.0034-5e-3l-0.06397-0.26222-0.05909-0.27224-0.05177-0.27468-0.04615-0.27647-0.03808-0.27826-0.02853-0.27826-0.02324-0.28071-0.01538-0.27826-0.0078-0.28004v-0.28071l0.0078-0.28027 0.01538-0.28004 0.02324-0.28072 0.02853-0.27827 0.03808-0.27646 0.04615-0.27648 0.05177-0.27647 0.05909-0.27224 0.06417-0.26288c0.0014-2e-3 0.0027-3e-3 0.0034-5e-3 0.16703-0.37247 0.52726-0.60959 0.92396-0.60959z"/><path d="m108.45 180.75c-1e-3 0-3e-3 -4e-5 -4e-3 0-0.94295 0-1.7896 0.59369-2.1416 1.4961-3e-3 3e-3 -5e-3 7e-3 -7e-3 0.0111l-0.0727 0.28294-0.0653 0.28474-0.0596 0.28473c-2e-5 0-2e-5 0 0 0l-0.0495 0.28895-0.044 0.28896c-1e-5 0-1e-5 0 0 0l-0.0386 0.29077c-1e-5 0-1e-5 0 0 0l-0.0285 0.29074-0.0233 0.29073-0.0154 0.2932-8e-3 0.29252v0.2932l6e-3 0.2932 0.0137 0.29251 0.0209 0.29074 0.0285 0.2932 0.0367 0.28896 0.0423 0.29076 0.0493 0.28651 0.0577 0.28717c3.6e-4 2e-3 1e-3 5e-3 2e-3 7e-3 0.13173 1.2042 1.1175 2.1167 2.2925 2.1202h7e-3c1.181 0 2.172-0.91869 2.2999-2.1304v-7e-3c0.33994-1.6062 0.33996-3.2701 0-4.8769v-7e-3c-0.12776-1.2104-1.1176-2.1286-2.2976-2.1298-6.7e-4 -4e-5 -1e-3 -4e-5 -2e-3 0zm0 1.3369c0.53866 0 0.9831 0.43257 1.0154 0.9884-6.8e-4 3e-3 -6.8e-4 7e-3 0 0.01 0.32509 1.4742 0.32509 3.0054 0 4.4796-6.8e-4 3e-3 -6.8e-4 7e-3 0 0.01-0.0323 0.55575-0.47663 0.98917-1.0152 0.98927-0.39655 0-0.75694-0.23823-0.92396-0.61068-6.7e-4 -2e-3 -2e-3 -3e-3 -3e-3 -5e-3l-0.064-0.26222-0.0591-0.27224-0.0518-0.27468-0.0461-0.27647-0.0381-0.27826-0.0285-0.27826-0.0232-0.28071-0.0154-0.27826-8e-3 -0.28004v-0.28071l8e-3 -0.28027 0.0154-0.28004 0.0232-0.28072 0.0285-0.27827 0.0381-0.27646 0.0461-0.27648 0.0518-0.27647 0.0591-0.27224 0.0642-0.26288c1e-3 -2e-3 3e-3 -3e-3 3e-3 -5e-3 0.16702-0.37247 0.52726-0.60959 0.92396-0.60959z"/><path d="m115.27 180.75c-1e-3 0-3e-3 -4e-5 -4e-3 0-0.94295 0-1.7896 0.59369-2.1416 1.4961-3e-3 3e-3 -5e-3 7e-3 -7e-3 0.0111l-0.0727 0.28294-0.0653 0.28474-0.0596 0.28473c-1e-5 0-1e-5 0 0 0l-0.0495 0.28895-0.044 0.28896c-1e-5 0-1e-5 0 0 0l-0.0386 0.29077c-2e-5 0-2e-5 0 0 0l-0.0285 0.29074-0.0232 0.29073-0.0154 0.2932c-1e-5 0-1e-5 0 0 0l-8e-3 0.29252v0.2932l6e-3 0.2932 0.0137 0.29251 0.0209 0.29074 0.0285 0.2932 0.0367 0.28896 0.0423 0.29076 0.0493 0.28651 0.0577 0.28717c3.6e-4 2e-3 1e-3 5e-3 2e-3 7e-3 0.13174 1.2042 1.1175 2.1167 2.2925 2.1202h7e-3c1.181 0 2.172-0.91869 2.2999-2.1304v-7e-3c0.33995-1.6062 0.33997-3.2701 0-4.8769v-7e-3c-0.12776-1.2104-1.1176-2.1286-2.2976-2.1298-6.8e-4 -4e-5 -1e-3 -4e-5 -2e-3 0zm0 1.3369c0.53866 0 0.9831 0.43257 1.0154 0.9884-6.8e-4 3e-3 -6.8e-4 7e-3 0 0.01 0.32509 1.4742 0.32509 3.0054 0 4.4796-6.8e-4 3e-3 -6.8e-4 7e-3 0 0.01-0.0323 0.55575-0.47663 0.98917-1.0152 0.98927-0.39654 0-0.75693-0.23823-0.92395-0.61068-6.8e-4 -2e-3 -2e-3 -3e-3 -3e-3 -5e-3l-0.064-0.26222-0.0591-0.27224-0.0518-0.27468-0.0462-0.27647-0.0381-0.27826-0.0285-0.27826-0.0233-0.28071-0.0154-0.27826-8e-3 -0.28004v-0.28071l8e-3 -0.28027 0.0154-0.28004 0.0233-0.28072 0.0285-0.27827 0.0381-0.27646 0.0462-0.27648 0.0518-0.27647 0.0591-0.27224 0.0642-0.26288c1e-3 -2e-3 3e-3 -3e-3 3e-3 -5e-3 0.16703-0.37247 0.52726-0.60959 0.92396-0.60959z"/></g><g transform="matrix(.6776 0 0 .6776 -174.83 65.271)" fill-opacity=".99647"><g transform="matrix(.26467 0 0 .23067 361.02 200.24)" stroke-width=".28783" aria-label="1"><path d="m94.561-69.66h-11.286v-75.98h-5.0619v-10.139c4.3512-1.2375 5.7725-2.4325 8.1553-5.8234l8.1928 4e-5z" fill-opacity=".99647" stroke-width=".28783"/></g><path d="m406.23 175.78c-0.01 2.0242-0.50033 4.0846-1.9097 5.7638-1.3923 1.6792-3.3844 2.3836-5.5674 2.3836-1.5298 0-3.1926-1.0456-4.1987-1.9208l2.0945-2.151c0.80786 0.49755 1.607 1.0514 2.5868 1.0514 0.88211 0.0291 1.7736-0.34531 2.4796-0.99347 0.31185-0.28615 0.60195-0.64228 0.78177-1.0358 0.4462-0.97633 0.67346-1.9886 0.67346-3.1495 0.0195-0.99511 0.11155-1.845-0.47286-2.5292-0.56721-0.68413-1.3078-1.239-2.1844-1.239-1.1172-0.0195-2.2519 0.60135-2.6776 2.1215l-2.8091-0.32933 0.45977-11.033h9.8893v3.0048h-7.0268l-0.14357 3.6748s0.4074-0.17655 0.94046-0.29876c0.47625-0.10912 1.0566-0.16539 1.4703-0.16539 0.90155 0.0242 1.6934 0.27451 2.4162 0.64288 0.5863 0.29875 1.2264 0.67748 1.6167 1.2315 0.36714 0.52131 0.78403 1.0666 1.0314 1.6701 0.42679 1.0415 0.55638 2.1999 0.54978 3.3008z" stroke-width=".070258"/></g></g><g transform="matrix(.53993 0 0 .53993 -.11923 -2.7767)"><path d="m128.52 120.27c-1.0133 7e-3 -1.9413 0.0394-3.0388 0.14134-1.7027 0.15857-3.9025 0.49538-5.1131 0.81751-0.97456 0.25939-1.4031 1.0881-1.4031 1.0881l-2.7577 6.173s-0.24293 0.35899-0.38616 0.52084c-0.0904 0.10193-0.29719 0.28282-0.29719 0.28282s-0.3899 0.22227-0.53578 0.38749c-0.17171 0.19443-0.37402 0.68228-0.37402 0.68228l-0.0586 1.3081 0.11123 1.5402 0.10309 3.8354c2.7e-4 0.42997 0.2689 0.77549 0.69955 0.77518h0.093l-4e-3 2.6707h4e-3v0.13945c0 0.58077 0.46763 1.0477 1.0493 1.0477h2.8083c0.58165 0 1.0493-0.46691 1.0493-1.0477v-1.7622l1e-3 -1.0396h15.845v2.8907c0 0.52971 0.42777 0.95687 0.95835 0.95687h2.9801c0.53057 0 0.95834-0.42716 0.95834-0.95687v-2.9532h0.016c0.43067 0 0.72604-0.23195 0.72582-0.66211l0.11925-3.892 0.0769-1.6048s0.0451-0.67202 0.0125-1.0053c-0.0142-0.14016-0.0889-0.41383-0.0889-0.41383s-0.11095-0.29884-0.20623-0.4239c-0.17317-0.22699-0.61665-0.5269-0.61665-0.5269s-0.27175-0.1883-0.38012-0.29882c-0.18532-0.18877-0.46299-0.64599-0.46299-0.64599l-2.4848-5.7088s-0.29687-1.0569-1.5386-1.4211c-1.338-0.39248-3.5237-0.6824-5.3294-0.80946-1.023-0.072-1.6896-0.0906-2.5353-0.0847zm0.0505 1.8491c1.1186-5e-3 3.0706 0.13521 4.5935 0.32502 0.71395 0.0889 2.1249 0.3793 2.1249 0.3793s0.27551 0.0823 0.51758 0.22228c0.11193 0.0644 0.21208 0.168 0.28302 0.23407 0.082 0.0764 0.19067 0.21047 0.26487 0.3332 0.0803 0.13237 0.12133 0.2504 0.12133 0.2504l2.0844 4.9679s-1.5564-0.29297-3.5361-0.49457c-2.0882-0.21284-4.6478-0.334-6.3444-0.33516-1.7301 0-4.3443 0.15078-6.4677 0.36524-1.9865 0.20081-4.0981 0.55914-4.0981 0.55914l2.2037-5.0628s0.0737-0.18829 0.19613-0.35937c0.0881-0.12293 0.21449-0.22581 0.30326-0.29884 0.0815-0.0672 0.20351-0.147 0.32954-0.20387 0.16659-0.0753 0.32954-0.11916 0.32954-0.11916s1.984-0.33789 3.7302-0.55715c1.1688-0.147 2.4721-0.20127 3.3642-0.20575zm-11.284 9.857c0.8067 0 1.4597 0.66005 1.4597 1.4736-3e-5 0.81352-0.65303 1.4736-1.4597 1.4736-0.80671 5e-5 -1.4617-0.66007-1.4618-1.4736 3e-5 -0.81359 0.65506-1.4736 1.4618-1.4736zm22.203 0c0.80671 0 1.4618 0.66005 1.4618 1.4736 0 0.81352-0.65504 1.4736-1.4618 1.4736-0.80668 5e-5 -1.4597-0.66007-1.4597-1.4736 3e-5 -0.81359 0.65305-1.4736 1.4597-1.4736zm-19.112 0.49256h15.998v0.61166c0 1.6117-1.3013 2.9089-2.9154 2.9089h-10.17c-1.6141 0-2.9134-1.2972-2.9134-2.9089zm-22.842 20.18c-1.5477 0-2.7941 1.2424-2.7941 2.7858v0.1614l2.5778 7e-3 0.08306 1.6331-2.2988 1.3384v1.3928l5.2263-3.2439v-1.2859c0-1.5434-1.2464-2.7878-2.7941-2.7878zm2.9316 4.9013c-0.0998 2e-3 -0.20623 0.0165-0.29719 0.0401-0.21709 0.0602-0.36796 0.17768-0.36796 0.17768l-4.6077 3.0482-2.695 0.43603-0.09108-0.39971-4.2053 1.0255 1.023 2.382s0.85241-0.0484 1.6821 0.21614c0.98374 0.31366 2.0113 0.98692 2.6081 1.5786 0.59674 0.59157 1.108 1.4811 1.4335 2.4668 0.28233 0.85509 0.1706 1.2738 0.4185 1.8592 0.16777 0.39551 0.38804 0.79056 0.70762 1.078 0.31135 0.28008 0.7109 0.4764 1.118 0.57531 0.05663 0.0165 0.1739 0 0.1739 0l7.3047 0.0165s-0.33245-1.306-0.22653-2.3961c0.12058-1.2402 0.71324-2.3246 1.3243-3.1128 0.5312-0.68513 1.5299-1.4811 2.5697-1.8753 1.0428-0.39538 2.1269-0.38948 2.1269-0.38948v-1.2859l-4.3812 0.85184-1.5669-1.946-3.6554 2.9553-2.784 0.545s-0.47487 0.13945-0.64292 0.30703c-0.11373 0.11326-0.20835 0.434-0.20835 0.434l-0.22228 1.0436s-1.4777-0.94301-2.0845-1.5644c-0.67194-0.68825-1.676-2.3477-1.676-2.3477l2.2886-0.37735s0.07881-0.0189 0.11538-0.0311c0.06513-0.0189 0.18594-0.0788 0.18594-0.0788l2.5414-1.6008 0.34778 0.34922 1.7549 2.7111 3.6008-2.9028-2.5212-3.2177s-0.18405-0.2336-0.42863-0.39767c-0.12152-0.0816-0.28626-0.13426-0.39424-0.15549-0.071-0.0165-0.16729-0.0189-0.26687-0.0189zm-11.227 7.467c-2.9283 0-5.3193 2.387-5.3193 5.3091s2.3911 5.309 5.3193 5.309 5.3193-2.3869 5.3193-5.309c0-2.9221-2.391-5.3091-5.3193-5.3091zm21.243 0c-2.9283 0-5.3173 2.387-5.3173 5.3091s2.389 5.309 5.3173 5.309 5.3193-2.3869 5.3193-5.309c0-2.9221-2.391-5.3091-5.3193-5.3091zm-21.243 1.6634c2.0248 0 3.6493 1.6224 3.6493 3.6457s-1.6246 3.6436-3.6493 3.6436c-2.0248 0-3.6493-1.6204-3.6493-3.6436s1.6245-3.6457 3.6493-3.6457zm21.243 0c2.0248 0 3.6493 1.6224 3.6493 3.6457s-1.6246 3.6436-3.6493 3.6436c-2.0248 0-3.6493-1.6204-3.6493-3.6436s1.6246-3.6457 3.6493-3.6457z" fill-rule="evenodd"/></g></g></svg>