<?xml version="1.0" encoding="UTF-8" standalone="no"?>
<svg
   xmlns:dc="http://purl.org/dc/elements/1.1/"
   xmlns:cc="http://creativecommons.org/ns#"
   xmlns:rdf="http://www.w3.org/1999/02/22-rdf-syntax-ns#"
   xmlns:svg="http://www.w3.org/2000/svg"
   xmlns="http://www.w3.org/2000/svg"
   xmlns:sodipodi="http://sodipodi.sourceforge.net/DTD/sodipodi-0.dtd"
   xmlns:inkscape="http://www.inkscape.org/namespaces/inkscape"
   sodipodi:docname="Turkey_road_sign_B-14e.svg"
   inkscape:version="1.0 (4035a4fb49, 2020-05-01)"
   id="svg9959"
   version="1.1"
   viewBox="0 0 77.446449 132.29167"
   height="132.29167mm"
   width="77.446449mm">
  <defs
     id="defs9953" />
  <sodipodi:namedview
     inkscape:window-maximized="0"
     inkscape:window-y="0"
     inkscape:window-x="224"
     inkscape:window-height="1030"
     inkscape:window-width="1424"
     showgrid="false"
     inkscape:document-rotation="0"
     inkscape:current-layer="layer1"
     inkscape:document-units="mm"
     inkscape:cy="350.40162"
     inkscape:cx="146.35549"
     inkscape:zoom="1.6599999"
     inkscape:pageshadow="2"
     inkscape:pageopacity="0.0"
     borderopacity="1.0"
     bordercolor="#666666"
     pagecolor="#ffffff"
     id="base" />
  <metadata
     id="metadata9956">
    <rdf:RDF>
      <cc:Work
         rdf:about="">
        <dc:format>image/svg+xml</dc:format>
        <dc:type
           rdf:resource="http://purl.org/dc/dcmitype/StillImage" />
        <dc:title></dc:title>
      </cc:Work>
    </rdf:RDF>
  </metadata>
  <g
     transform="translate(-9.0519833,-68.793793)"
     id="layer1"
     inkscape:groupmode="layer"
     inkscape:label="Layer 1">
    <path
       sodipodi:nodetypes="sssssssss"
       d="m 15.672308,69.045147 h 64.205798 c 3.528408,0 6.368973,2.835523 6.368973,6.357672 V 194.47645 c 0,3.52214 -2.840565,6.35766 -6.368973,6.35766 H 15.672308 c -3.528411,0 -6.3689707,-2.83552 -6.3689707,-6.35766 V 75.402819 c 0,-3.522149 2.8405597,-6.357672 6.3689707,-6.357672 z"
       style="opacity:1;fill:#ffffff;fill-rule:evenodd;stroke:#000000;stroke-width:0.502708;stroke-linecap:square;stroke-linejoin:round;stroke-miterlimit:2;stroke-opacity:1;paint-order:stroke fill markers"
       id="rect65516" />
    <path
       id="path65529"
       style="color:#000000;font-style:normal;font-variant:normal;font-weight:normal;font-stretch:normal;font-size:medium;line-height:normal;font-family:sans-serif;font-variant-ligatures:normal;font-variant-position:normal;font-variant-caps:normal;font-variant-numeric:normal;font-variant-alternates:normal;font-variant-east-asian:normal;font-feature-settings:normal;font-variation-settings:normal;text-indent:0;text-align:start;text-decoration:none;text-decoration-line:none;text-decoration-style:solid;text-decoration-color:#000000;letter-spacing:normal;word-spacing:normal;text-transform:none;writing-mode:lr-tb;direction:ltr;text-orientation:mixed;dominant-baseline:auto;baseline-shift:baseline;text-anchor:start;white-space:normal;shape-padding:0;shape-margin:0;inline-size:0;clip-rule:nonzero;display:inline;overflow:visible;visibility:visible;opacity:1;isolation:auto;mix-blend-mode:normal;color-interpolation:sRGB;color-interpolation-filters:linearRGB;solid-color:#000000;solid-opacity:1;vector-effect:none;fill:#000000;fill-opacity:1;fill-rule:evenodd;stroke:none;stroke-width:1.27001;stroke-linecap:square;stroke-linejoin:round;stroke-miterlimit:2;stroke-dasharray:none;stroke-dashoffset:0;stroke-opacity:1;paint-order:stroke fill markers;color-rendering:auto;image-rendering:auto;shape-rendering:auto;text-rendering:auto;enable-background:accumulate;stop-color:#000000;stop-opacity:1"
       d="m 15.831821,70.275984 c -2.917359,0 -5.298693,2.377094 -5.298693,5.289285 V 194.40999 c 0,2.91219 2.381334,5.28929 5.298693,5.28929 h 63.892723 c 2.917357,0 5.298685,-2.37711 5.298685,-5.28929 V 75.565269 c 0,-2.912191 -2.381323,-5.289285 -5.298685,-5.289285 z m 0,2.101517 h 63.892723 c 1.787194,0 3.192582,1.403736 3.192582,3.187768 V 169.58268 H 12.63838 V 75.565269 c 0,-1.784027 1.406258,-3.187768 3.193441,-3.187768 z m 44.268549,5.068612 -3.296252,8.243557 1.585152,0.01114 0.655477,-1.619117 3.689547,-0.0068 0.692322,1.632797 1.640848,-0.01799 -3.298827,-8.243556 z m -32.661819,0.01539 3.41193,4.981372 v 3.320343 h 1.487473 v -3.318633 l 3.406784,-4.983083 H 33.934242 L 31.58908,80.88705 29.245626,77.461502 Z m 19.565905,0 3.412787,4.981372 v 3.320343 h 1.486616 v -3.318633 l 3.406784,-4.983083 h -1.810497 l -2.345167,3.425548 -2.343454,-3.425548 z m -6.449423,0.006 -3.296261,8.243556 1.58515,0.01114 0.655484,-1.619115 3.689548,-0.0068 0.692324,1.632805 1.639987,-0.01799 -3.297968,-8.243552 z m 20.382466,1.938158 1.264702,3.162107 -2.559382,0.01799 z m -19.545336,0.02137 1.263839,3.162111 -2.558524,0.01799 z m 35.32145,10.436592 v 1.490817 h 1.488326 V 89.86363 Z M 27.926947,90.19634 v 1.524176 l 1.530314,-0.01291 v -1.511347 z m 3.798364,0 v 1.521613 l 1.542309,0.01291 v -1.534439 z m 37.953657,1.922756 c -0.422368,0.003 -0.801747,0.0561 -1.177298,0.184746 -0.514789,0.176323 -1.062442,0.386416 -1.428345,0.788604 -0.367887,0.40436 -0.625886,0.958105 -0.652911,1.503652 -0.02637,0.531925 0.174784,1.090766 0.488399,1.521612 0.257415,0.353639 0.662649,0.595908 1.065907,0.766365 0.331623,0.14014 0.706976,0.138021 1.063337,0.189877 0.623114,0.09071 1.684284,0.224188 2.052126,0.362653 0.108252,0.0407 0.218284,0.124306 0.281896,0.201853 0.131868,0.160781 0.212099,0.386949 0.190217,0.593596 -0.02633,0.248494 -0.162707,0.514892 -0.37272,0.650893 -0.398149,0.25785 -0.933465,0.373584 -1.441204,0.389174 -0.793208,0.02435 -1.725202,-0.412139 -2.177221,-1.017832 l -1.149026,0.952826 c 1.082061,1.069215 1.917467,1.547265 3.305679,1.547265 1.041176,0 1.913528,-0.27723 2.489122,-0.775768 0.584069,-0.498525 0.810067,-1.08516 0.824279,-1.720901 0.01459,-0.654923 -0.226838,-1.318913 -0.768585,-1.808995 -0.533276,-0.498556 -1.649359,-0.557797 -2.834424,-0.777488 -0.490959,-0.09294 -0.880617,-0.127595 -1.143019,-0.279688 -0.262414,-0.15209 -0.380209,-0.401679 -0.392435,-0.656024 -0.01227,-0.254219 0.134371,-0.523872 0.327316,-0.69025 0.3759,-0.324133 0.929155,-0.445419 1.425779,-0.434495 0.685057,0.01506 1.309246,0.148515 1.938168,0.685111 l 0.968226,-1.129023 c -0.807403,-0.716571 -1.867902,-1.054654 -2.883263,-1.047763 z m -19.86408,0.0453 c -1.04528,0 -1.93685,0.485248 -2.51911,1.176921 -0.635521,0.79299 -0.915103,1.845821 -0.915103,3.131318 0,1.210377 0.220556,2.184143 0.755731,2.968811 0.627166,0.909864 1.564754,1.388184 2.718747,1.388184 0.928205,0 1.662709,-0.32677 2.306615,-0.95283 0.652244,-0.626061 0.818122,-1.215234 0.818279,-1.325738 l 0.0031,-1.161529 v -1.395018 h -2.977509 l 5.7e-4,1.488249 h 1.551734 v 0.608987 c -0.13331,0.374576 -0.277289,0.635683 -0.611784,0.886111 -0.334489,0.250411 -0.68101,0.349826 -1.090758,0.349826 -0.71079,0 -1.272023,-0.281236 -1.606572,-0.898939 -0.267583,-0.484158 -0.383004,-1.154757 -0.383004,-1.956114 0,-0.826384 0.118544,-1.526028 0.478116,-2.051902 0.367941,-0.534248 0.92611,-0.777449 1.51146,-0.777488 0.719155,0 1.131673,0.326123 1.574874,0.960521 l 1.226133,-0.847619 c -0.492425,-0.77141 -1.3946,-1.591751 -2.841275,-1.591751 z m 13.942475,0.176203 -5.960174,0.01026 v 8.267501 l 5.960174,-0.006 v -1.48141 l -4.452133,0.0068 -0.02229,-1.98605 2.820709,0.0046 v -1.505363 l -2.820709,-0.0041 0.02229,-1.814988 4.452133,-0.01026 z m 12.95625,0.0094 v 8.268351 h 1.488326 v -8.268352 z m -59.365191,5.7e-4 v 8.267501 h 4.153951 c 0.428553,0 0.852947,-0.11519 1.273262,-0.34555 0.379109,-0.20567 0.629175,-0.497421 0.851701,-0.875844 0.230757,-0.386674 0.356442,-0.911311 0.356442,-1.330876 -0.0041,-0.441374 -0.184401,-0.855205 -0.389859,-1.235078 -0.11773,-0.217687 -0.470405,-0.574777 -0.470405,-0.574777 0,0 0.519241,-0.656149 0.519241,-1.478841 0,-0.83913 -0.496728,-1.711034 -1.246695,-2.130599 -0.346153,-0.197479 -0.82363,-0.295958 -1.433494,-0.295958 z m 21.390967,0 v 8.267511 h 5.632 V 99.133252 H 40.232863 V 92.35058 Z m -8.097122,0.03677 c -1.074695,0 -1.920902,0.382422 -2.539669,1.148688 -0.618762,0.758027 -0.980276,1.714644 -0.980216,3.03296 0,1.161744 0.308354,1.911819 0.861978,2.702801 0.635046,0.914572 1.513782,1.371932 2.637348,1.371932 1.025843,0 1.844213,-0.39535 2.454838,-1.186328 0.618762,-0.799228 0.989651,-1.619532 0.989651,-2.913215 0,-1.268861 -0.354178,-2.208749 -0.981082,-2.983346 -0.618762,-0.782743 -1.433279,-1.173492 -2.442848,-1.173492 z m -11.799518,1.454889 h 2.429135 c 0.239,0.01639 0.479927,0.123568 0.611785,0.263444 0.169093,0.187926 0.274509,0.385184 0.274187,0.60727 -4.37e-4,0.26857 -0.139263,0.549623 -0.33502,0.733865 -0.148565,0.139793 -0.316025,0.203406 -0.571517,0.219818 h -2.40857 z m 11.799518,0.01539 c 0.610626,0 1.130757,0.318567 1.392363,0.778339 0.34196,0.494363 0.537239,1.05965 0.537239,1.93302 0,0.774499 -0.167034,1.178324 -0.427563,1.664446 -0.28074,0.491559 -0.801853,0.906641 -1.502039,0.906641 -0.618759,0 -1.144247,-0.2472 -1.494325,-0.741562 -0.350101,-0.502602 -0.525238,-0.94791 -0.525238,-1.829525 0,-0.87337 0.21628,-1.475442 0.566365,-1.9698 0.3501,-0.494367 0.834439,-0.741559 1.453198,-0.741559 z m -11.800372,3.285273 2.61164,0.0046 c 0.321423,0.0083 0.573565,0.119689 0.754871,0.333574 0.189556,0.213899 0.278354,0.392789 0.283619,0.620103 0.0058,0.266131 -0.11207,0.541554 -0.301611,0.739 -0.181312,0.197444 -0.415451,0.305027 -0.736879,0.296794 H 18.85646 Z M 12.63838,170.68606 h 70.278746 v 23.72395 c 0,1.78402 -1.405388,3.18777 -3.192582,3.18777 H 15.831821 c -1.787183,0 -3.193441,-1.40375 -3.193441,-3.18777 z" />
    <path
       id="path65594"
       style="font-style:normal;font-variant:normal;font-weight:normal;font-stretch:normal;font-size:30px;line-height:1.15;font-family:'Highway Gothic Wide';-inkscape-font-specification:'Highway Gothic Wide';opacity:1;fill:#000000;fill-opacity:1;stroke:none;stroke-width:0.264583;stroke-opacity:1"
       d="m 47.617093,175.26713 v 6.31309 h 1.041061 v -6.31309 z m -17.336414,0.11285 2.544818,3.7155 v 2.47613 h 1.108745 v -2.47443 l 2.541383,-3.7172 h -1.350379 l -1.749664,2.55483 -1.74795,-2.55483 z m 12.289637,0.0693 v 6.13091 h 0.981076 v -1.71834 l 0.412998,-0.34726 1.553453,2.0656 h 1.221848 l -2.02728,-2.7028 2.02728,-1.71493 h -1.51318 l -1.675119,1.41385 v -3.12703 z m -5.566879,0.0149 v 1.04177 h 1.047057 v -1.04215 z m 3.649274,0 v 1.04177 h 1.040202 v -1.04215 z m 11.486777,1.33171 c -0.662088,0 -1.222175,0.23028 -1.681121,0.69111 -0.458938,0.46085 -0.688035,1.02143 -0.688035,1.68155 -1.7e-5,0.66635 0.232712,1.23012 0.699173,1.69096 0.474003,0.45462 1.049403,0.68169 1.726535,0.68169 0.692161,0 1.228135,-0.36835 1.510607,-0.61155 l -0.705182,-0.7869 c -0.300947,0.23664 -0.496954,0.33701 -0.805425,0.33701 -0.240759,0 -0.534495,-0.0343 -0.767727,-0.2087 -0.225708,-0.17439 -0.36198,-0.26938 -0.502963,-0.57565 h 3.510466 l 0.05827,-0.51659 c -0.0075,-0.59161 -0.15697,-1.02623 -0.540668,-1.5182 -0.383701,-0.49195 -1.031469,-0.85824 -1.813925,-0.86473 z m 15.004099,0 c -0.662087,0 -1.223029,0.23028 -1.681977,0.69111 -0.458937,0.46085 -0.688041,1.02143 -0.688041,1.68155 0,0.66635 0.233566,1.23012 0.700041,1.69096 0.473976,0.45462 1.049395,0.68169 1.726521,0.68169 0.692165,0 1.227279,-0.36835 1.509751,-0.61155 l -0.705173,-0.7869 c -0.300948,0.23664 -0.496101,0.33701 -0.804578,0.33701 -0.240758,0 -0.534494,-0.0343 -0.767727,-0.2087 -0.225702,-0.17439 -0.362836,-0.26938 -0.503818,-0.57565 h 3.511326 l 0.05827,-0.51659 c -0.0075,-0.59161 -0.157817,-1.02623 -0.541516,-1.5182 -0.383705,-0.49195 -1.030615,-0.85824 -1.813069,-0.86473 z m -5.616582,0.024 c -0.363613,0 -0.730472,0.11123 -1.054761,0.27541 -0.143953,0.0728 -0.33605,0.21516 -0.487542,0.34384 -0.09142,0.0776 -0.251915,0.2566 -0.251915,0.2566 0,0 -0.294416,-0.36131 -0.73088,-0.60129 -0.324161,-0.17821 -0.759138,-0.2477 -1.03849,-0.27198 -0.238289,-0.0206 -0.600691,0.04 -0.88511,0.14631 -0.283116,0.1056 -0.489258,0.25573 -0.489258,0.25573 v -0.27368 h -1.039348 v 4.58535 h 1.039348 l 0.006,-2.48213 c 0,0 0.01917,-0.15476 0.08226,-0.32246 0.05966,-0.15857 0.160801,-0.32734 0.253623,-0.42168 0.08536,-0.0867 0.176314,-0.17599 0.283612,-0.24291 0.196332,-0.12249 0.428404,-0.19263 0.651194,-0.19671 0.195064,-0.004 0.403447,0.0355 0.586934,0.12224 0.158895,0.0752 0.297313,0.18916 0.416429,0.30877 0.08963,0.0901 0.198455,0.2544 0.256187,0.41141 0.07536,0.20568 0.08739,0.39943 0.08739,0.39943 v 2.42397 h 1.046197 v -2.35981 c 0,0 -0.0046,-0.21302 0.07368,-0.42766 0.0788,-0.21603 0.240388,-0.43437 0.373582,-0.55682 0.165476,-0.1521 0.383595,-0.25122 0.611787,-0.29594 0.09091,-0.0173 0.187416,-0.0149 0.276753,-0.0221 0.188799,-0.0149 0.461461,0.0712 0.688041,0.22069 0.156722,0.10347 0.279624,0.24592 0.38644,0.37462 0.144253,0.17391 0.213352,0.64319 0.213352,0.64319 v 2.42398 h 1.054762 l -0.01891,-2.53175 c -8e-6,0 -0.01114,-0.20557 -0.07625,-0.44818 -0.0703,-0.26201 -0.181928,-0.51514 -0.342739,-0.73128 -0.206107,-0.27707 -0.467603,-0.52753 -0.772009,-0.69111 -0.364105,-0.19562 -0.786911,-0.3139 -1.200431,-0.3139 z m -24.523568,0.20785 -0.0068,2.35725 c -0.0019,0.52142 0.236535,1.14847 0.622066,1.58919 0.391761,0.4407 1.019818,0.79668 1.691393,0.80913 0.528577,0 1.023076,-0.11573 1.342667,-0.33015 v 0.12745 h 1.040206 v -4.55288 h -1.039394 v 2.41113 c -0.0061,0.34139 -0.196618,0.6958 -0.426704,0.90065 -0.22386,0.19864 -0.581501,0.33548 -0.879976,0.32929 -0.342005,0 -0.707099,-0.167 -0.918529,-0.37805 -0.205207,-0.21106 -0.376915,-0.59437 -0.377009,-0.88612 l -0.0012,-2.3769 z m 15.155758,0.82112 c 0.141136,-0.004 0.352576,0.0465 0.530384,0.13174 0.134984,0.0646 0.244396,0.15509 0.325599,0.22237 0.195565,0.15575 0.320454,0.43793 0.320454,0.43793 H 50.92535 c 0,0 0.148829,-0.30166 0.344445,-0.46359 0.104972,-0.0868 0.252389,-0.1838 0.42071,-0.24634 0.157434,-0.0583 0.334143,-0.0845 0.46869,-0.0821 z m 15.004098,0 c 0.141136,-0.004 0.351716,0.0465 0.529523,0.13174 0.134984,0.0646 0.24526,0.15509 0.326458,0.22237 0.195569,0.15575 0.320459,0.43793 0.320459,0.43793 h -2.411147 c 0,0 0.14883,-0.30166 0.344447,-0.46359 0.104971,-0.0868 0.252393,-0.1838 0.420714,-0.24634 0.157435,-0.0583 0.334998,-0.0845 0.469546,-0.0821 z m 4.099967,8.48816 v 1.04861 h 1.047056 v -1.04861 z m -32.119442,0.0265 v 6.31311 h 1.041063 v -6.31311 z m -18.497422,0.0539 -2.487405,6.22243 1.196148,0.009 0.495249,-1.22227 2.78473,-0.005 0.522667,1.23251 1.238133,-0.0133 -2.489976,-6.2233 z m 34.944437,0.001 v 6.28403 h 1.132739 v -2.5138 h 2.766731 v 2.51379 l 1.125889,-4.4e-4 0.0019,-6.28317 h -1.127658 v 2.51122 h -2.76673 v -2.51122 z m -34.312093,1.478 0.954514,2.38718 -1.931308,0.0133 z m 49.98452,0.0205 v 4.7282 h 1.047056 v -4.7282 z m -40.187432,0.0375 c -0.307781,-0.0149 -0.807562,0.0445 -1.197859,0.14284 -0.496528,0.12499 -0.855982,0.29766 -0.855982,0.29766 l 0.444696,0.98959 c 0,0 0.283133,-0.15624 0.796009,-0.26 0.149709,-0.0303 0.368567,-0.0593 0.554372,-0.0744 0.114888,-0.01 0.230956,-0.0149 0.34616,-0.01 0.09345,0.004 0.190262,-0.001 0.279329,0.0273 0.249515,0.0796 0.527284,0.17846 0.681193,0.39001 0.06263,0.0861 0.128069,0.24728 0.14994,0.38233 0.01426,0.0881 -0.01376,0.26685 -0.01376,0.26685 0,0 -0.246468,-0.10772 -0.556945,-0.18132 -0.259975,-0.0616 -0.57002,-0.0942 -0.774578,-0.0718 -0.19369,0.0212 -0.387525,0.043 -0.584368,0.0907 -0.521907,0.12629 -1.032591,0.38366 -1.376076,0.76892 -0.167373,0.18773 -0.220608,0.45976 -0.215929,0.70564 0.0035,0.18638 0.06763,0.38297 0.18422,0.52859 0.101678,0.12695 0.21529,0.22498 0.342736,0.31304 0.269912,0.18648 0.578851,0.34301 0.878257,0.44562 0.373352,0.12811 0.783685,0.15294 1.177299,0.12312 0.323591,-0.0245 0.941663,-0.24633 0.941663,-0.24633 v 0.12236 h 1.100181 v -2.8063 c 0,-0.57529 -0.286064,-1.06549 -0.705173,-1.42582 -0.419125,-0.36035 -1.010266,-0.48861 -1.595435,-0.51831 z m 12.283634,0 c -0.307781,-0.0149 -0.807561,0.0445 -1.197859,0.14284 -0.496528,0.12499 -0.855981,0.29766 -0.855981,0.29766 l 0.444696,0.98959 c 0,0 0.283132,-0.15624 0.796009,-0.26 0.149708,-0.0303 0.368567,-0.0593 0.554372,-0.0744 0.114887,-0.01 0.230956,-0.0149 0.34616,-0.01 0.09345,0.004 0.190261,-0.001 0.279329,0.0273 0.249516,0.0796 0.527283,0.17846 0.681191,0.39001 0.06263,0.0861 0.12807,0.24728 0.149941,0.38233 0.01426,0.0881 -0.01376,0.26685 -0.01376,0.26685 0,0 -0.246467,-0.10772 -0.556944,-0.18132 -0.259975,-0.0616 -0.57002,-0.0942 -0.774578,-0.0718 -0.193689,0.0212 -0.387526,0.043 -0.584368,0.0907 -0.521909,0.12629 -1.032592,0.38366 -1.376077,0.76892 -0.167373,0.18773 -0.220607,0.45976 -0.215929,0.70564 0.0035,0.18638 0.06764,0.38297 0.18422,0.52859 0.101679,0.12695 0.21529,0.22498 0.342736,0.31304 0.269912,0.18648 0.578852,0.34301 0.878257,0.44562 0.373352,0.12811 0.783685,0.15294 1.177299,0.12312 0.323591,-0.0245 0.941663,-0.24633 0.941663,-0.24633 v 0.12236 h 1.10018 v -2.8063 c 0,-0.57529 -0.28606,-1.06549 -0.705172,-1.42582 -0.419125,-0.36035 -1.010266,-0.48861 -1.595435,-0.51831 z m -16.030588,0.0133 c -0.182833,0.005 -0.446759,0.0518 -0.653769,0.12237 -0.200575,0.0683 -0.347018,0.16072 -0.347018,0.16072 v -0.15046 l -1.048773,-0.006 v 4.6059 h 1.048773 l 0.0046,-2.74213 c 0,0 0.01609,-0.22202 0.15508,-0.43708 0.121324,-0.18768 0.355227,-0.36719 0.513246,-0.43024 0.160735,-0.0641 0.440754,-0.0882 0.658053,-0.0326 0.222631,0.0569 0.38044,0.19416 0.38044,0.19416 l 0.650337,-0.81853 c 0,0 -0.256459,-0.2063 -0.60236,-0.33958 -0.245784,-0.0947 -0.559274,-0.13091 -0.758299,-0.12578 z m 21.321565,0 c -0.182832,0.005 -0.447621,0.0518 -0.654624,0.12237 -0.200575,0.0683 -0.347018,0.16072 -0.347018,0.16072 v -0.15046 l -1.048772,-0.006 v 4.6059 h 1.048772 l 0.0041,-2.74213 c 0,0 0.01609,-0.22202 0.155098,-0.43708 0.121323,-0.18768 0.355219,-0.36719 0.513245,-0.43024 0.160733,-0.0641 0.440755,-0.0882 0.658051,-0.0326 0.222632,0.0569 0.380442,0.19416 0.380442,0.19416 l 0.650338,-0.81853 c 0,0 -0.256459,-0.2063 -0.60236,-0.33958 -0.245786,-0.0947 -0.55842,-0.13091 -0.757445,-0.12578 z m 20.399607,0 c -0.182832,0.005 -0.447615,0.0518 -0.654624,0.12237 -0.200575,0.0683 -0.347017,0.16072 -0.347017,0.16072 v -0.14962 l -1.048773,-0.009 v 4.60589 h 1.048773 l 0.004,-2.74215 c 0,0 0.01609,-0.22116 0.15508,-0.43622 0.121324,-0.18765 0.355226,-0.36803 0.513246,-0.43106 0.160735,-0.0641 0.440754,-0.0882 0.658053,-0.0326 0.222632,0.0569 0.38044,0.19414 0.38044,0.19414 l 0.650341,-0.81853 c 0,0 -0.256462,-0.20629 -0.602364,-0.33957 -0.245783,-0.0947 -0.558415,-0.13092 -0.757445,-0.12578 z m -18.324338,0.006 v 4.7034 h 1.041055 v -4.70353 z m -14.204672,0.005 c -0.368412,0 -0.690506,0.0783 -0.985366,0.21556 -0.249409,0.11599 -0.480973,0.27202 -0.684613,0.47728 -0.444375,0.44789 -0.684607,0.98509 -0.684607,1.66614 0,0.68105 0.249655,1.2234 0.694037,1.67129 0.226252,0.22493 0.475907,0.40069 0.75659,0.5192 0.12091,0.0509 0.247585,0.0915 0.380428,0.12061 0.0012,2.9e-4 0.0019,1.10163 0.0019,1.10165 h 1.047056 c 0,0 -0.0019,-1.10292 0,-1.10336 0.503114,-0.11111 0.949606,-0.3874 1.321245,-0.82454 l -0.816569,-0.65602 c -0.355944,0.37069 -0.581502,0.44746 -0.992219,0.47812 -0.183496,0 -0.388497,-0.0327 -0.568084,-0.11211 -0.169666,-0.0751 -0.31549,-0.19381 -0.426703,-0.31304 -0.222195,-0.24543 -0.341877,-0.50585 -0.341877,-0.88012 0,-0.38042 0.137671,-0.65708 0.359869,-0.89637 0.22892,-0.24544 0.601097,-0.40372 0.957947,-0.40372 0.41072,0.0184 0.749864,0.17984 1.011067,0.48497 l 0.819996,-0.65774 c -0.452089,-0.56447 -1.129474,-0.88783 -1.849915,-0.88783 z m 39.176366,0 c -0.368413,0 -0.690506,0.0783 -0.985367,0.21556 -0.249411,0.11599 -0.480975,0.27202 -0.684612,0.47728 -0.444382,0.44789 -0.684614,0.98509 -0.684614,1.66614 0,0.68105 0.249656,1.2234 0.694042,1.67129 0.226247,0.22493 0.475918,0.40069 0.756583,0.5192 0.120923,0.0509 0.247587,0.0915 0.380438,0.12061 0.0014,2.9e-4 0.0019,1.10163 0.0019,1.10165 h 1.047057 c 0,0 -0.0019,-1.10292 0,-1.10336 0.503111,-0.11111 0.949599,-0.3874 1.321245,-0.82454 l -0.817424,-0.65602 c -0.355944,0.37069 -0.580642,0.44746 -0.991368,0.47812 -0.183487,0 -0.388496,-0.0327 -0.568083,-0.11211 -0.169663,-0.0751 -0.315482,-0.19381 -0.426702,-0.31304 -0.222194,-0.24543 -0.342736,-0.50585 -0.342736,-0.88012 0,-0.38042 0.137688,-0.65708 0.359876,-0.89637 0.228915,-0.24544 0.601955,-0.40372 0.958794,-0.40372 0.410729,0.0184 0.749004,0.17984 1.010219,0.48497 l 0.819991,-0.65774 c -0.452091,-0.56447 -1.128609,-0.88783 -1.849057,-0.88783 z m -11.807237,0.0923 c -0.299861,-0.0149 -0.786765,0.0437 -1.16701,0.13936 -0.483752,0.12187 -0.83456,0.28996 -0.83456,0.28996 l 0.433561,0.96481 c 0,0 0.276618,-0.15294 0.776294,-0.25404 0.145862,-0.0294 0.358782,-0.0571 0.539809,-0.0718 0.111933,-0.01 0.224496,-0.0149 0.336734,-0.01 0.09105,0.004 0.184846,-0.001 0.271623,0.0265 0.243095,0.0774 0.514954,0.17363 0.664903,0.37976 0.061,0.0839 0.124378,0.24133 0.145663,0.37292 0.01392,0.0857 -0.01376,0.26002 -0.01376,0.26002 0,0 -0.239039,-0.10522 -0.54152,-0.17706 -0.253298,-0.06 -0.555579,-0.0911 -0.754877,-0.0693 -0.188707,0.0206 -0.378034,0.0417 -0.569799,0.0881 -0.508476,0.12299 -1.006297,0.3739 -1.340951,0.74925 -0.163105,0.18292 -0.21402,0.44726 -0.209919,0.68682 0.0035,0.18156 0.06549,0.37303 0.179077,0.51492 0.09907,0.12362 0.209998,0.21954 0.334169,0.30534 0.262962,0.18168 0.563415,0.33367 0.85512,0.43364 0.36375,0.12437 0.763814,0.14963 1.147309,0.12061 0.315265,-0.0238 0.917676,-0.2395 0.917676,-0.2395 v 0.11886 h 1.071905 v -2.73443 c 0,-0.56048 -0.279716,-1.03798 -0.688041,-1.38905 -0.408339,-0.35106 -0.983354,-0.47652 -1.553454,-0.50549 z m -32.854603,2.87473 c 0.197368,-0.001 0.491046,0.0388 0.728307,0.13258 0.270674,0.1071 0.473833,0.27028 0.473833,0.27028 0,0 -0.203621,0.15808 -0.462695,0.26345 -0.236045,0.096 -0.518937,0.14052 -0.717171,0.14036 -0.201061,-2e-4 -0.544703,-0.0646 -0.782291,-0.16254 -0.251355,-0.1036 -0.391574,-0.24119 -0.391574,-0.24119 0,0 0.163885,-0.14368 0.435267,-0.25318 0.220837,-0.0891 0.533841,-0.14847 0.716324,-0.14962 z m 12.283633,0 c 0.197369,-0.001 0.491047,0.0388 0.728309,0.13258 0.270672,0.1071 0.473832,0.27028 0.473832,0.27028 0,0 -0.203621,0.15808 -0.462694,0.26345 -0.236046,0.096 -0.518938,0.14052 -0.717171,0.14036 -0.201061,-2e-4 -0.544704,-0.0646 -0.782292,-0.16254 -0.251353,-0.1036 -0.391573,-0.24119 -0.391573,-0.24119 0,0 0.163885,-0.14368 0.435267,-0.25318 0.220836,-0.0891 0.533841,-0.14847 0.716322,-0.14962 z m 20.531558,0.0403 c 0.192291,-0.001 0.478307,0.0378 0.709467,0.1291 0.2637,0.10422 0.46183,0.26259 0.46183,0.26259 0,0 -0.198293,0.15476 -0.450692,0.25745 -0.229979,0.0935 -0.506045,0.13622 -0.69918,0.13606 -0.195888,-1.8e-4 -0.530266,-0.0627 -0.761729,-0.15824 -0.244878,-0.10097 -0.381297,-0.23522 -0.381297,-0.23522 0,0 0.15974,-0.1397 0.424137,-0.24633 0.215142,-0.0867 0.519671,-0.14432 0.697464,-0.14548 z" />
    <path
       style="color:#000000;font-style:normal;font-variant:normal;font-weight:normal;font-stretch:normal;font-size:medium;line-height:normal;font-family:sans-serif;font-variant-ligatures:normal;font-variant-position:normal;font-variant-caps:normal;font-variant-numeric:normal;font-variant-alternates:normal;font-variant-east-asian:normal;font-feature-settings:normal;font-variation-settings:normal;text-indent:0;text-align:start;text-decoration:none;text-decoration-line:none;text-decoration-style:solid;text-decoration-color:#000000;letter-spacing:normal;word-spacing:normal;text-transform:none;writing-mode:lr-tb;direction:ltr;text-orientation:mixed;dominant-baseline:auto;baseline-shift:baseline;text-anchor:start;white-space:normal;shape-padding:0;shape-margin:0;inline-size:0;clip-rule:nonzero;display:inline;overflow:visible;visibility:visible;opacity:1;isolation:auto;mix-blend-mode:normal;color-interpolation:sRGB;color-interpolation-filters:linearRGB;solid-color:#000000;solid-opacity:1;vector-effect:none;fill:#ed232a;fill-opacity:1;fill-rule:evenodd;stroke:none;stroke-width:1.69334;stroke-linecap:square;stroke-linejoin:round;stroke-miterlimit:2;stroke-dasharray:none;stroke-dashoffset:0;stroke-opacity:1;paint-order:stroke fill markers;color-rendering:auto;image-rendering:auto;shape-rendering:auto;text-rendering:auto;enable-background:accumulate;stop-color:#000000;stop-opacity:1"
       d="m 47.715059,106.27392 c -13.329867,0 -24.135641,10.78702 -24.135578,24.09323 -6.3e-5,13.30621 10.805711,24.09308 24.135578,24.09328 13.330072,5e-5 24.136165,-10.78687 24.136144,-24.09328 2.1e-5,-13.30637 -10.806072,-24.0933 -24.136144,-24.09323 z m -0.05282,5.85058 c 0.01426,-3e-5 0.02749,-3e-5 0.04089,0 10.091081,4e-5 18.271585,8.166 18.271644,18.23922 -5.9e-5,10.07322 -8.180563,18.23918 -18.271644,18.23923 -10.091233,-5e-5 -18.271749,-8.16601 -18.271771,-18.23923 0,-10.05732 8.155643,-18.21675 18.230861,-18.23922 z"
       id="path10402" />
    <path
       id="path8789"
       style="font-style:normal;font-variant:normal;font-weight:normal;font-stretch:normal;font-size:46.3825px;line-height:1.15;font-family:'Highway Gothic Wide';-inkscape-font-specification:'Highway Gothic Wide';opacity:1;fill:#000000;fill-opacity:1;stroke:none;stroke-width:0.409067;stroke-opacity:1"
       d="m 36.416097,159.84145 -1.99e-4,1.79876 h -1.02201 v 1.02636 h 1.02201 l -0.01089,2.2264 c -0.0019,0.37717 0.08993,0.62755 0.306746,0.90578 0.222995,0.27825 0.594404,0.46614 0.953666,0.46614 0.192016,0 0.487794,-0.0169 0.810369,-0.25573 l -0.617779,-0.82623 c 0,0 -0.02141,0.0209 -0.05827,0.0343 -0.0451,0.0165 -0.109917,0.026 -0.148233,0.018 -0.07346,-0.0149 -0.137538,-0.0747 -0.178024,-0.1377 -0.02117,-0.0329 -0.02673,-0.11373 -0.02673,-0.11373 v -2.31705 h 1.029062 v -1.02638 h -1.029104 v -1.79873 z m 7.062154,0.01 c -0.772137,0 -1.430938,0.35892 -1.861053,0.86987 -0.469463,0.58578 -0.676043,1.36316 -0.676043,2.31277 0,0.89409 0.163337,1.61341 0.558659,2.19303 0.463285,0.67213 1.155978,1.02553 2.008426,1.02553 0.685662,0 1.22775,-0.24146 1.703396,-0.70391 0.481816,-0.46247 0.604804,-0.89772 0.604928,-0.97935 l 0.0019,-0.85788 v -1.03066 H 43.61894 v 1.09994 h 1.147304 v 0.4499 c -0.09847,0.27669 -0.205312,0.46932 -0.452406,0.65431 -0.247089,0.18498 -0.502753,0.2583 -0.805427,0.2583 -0.525068,0 -0.940486,-0.20744 -1.187581,-0.66372 -0.197656,-0.35764 -0.281899,-0.85354 -0.281899,-1.44549 0,-0.61045 0.08739,-1.12716 0.353014,-1.51561 0.271796,-0.39465 0.684066,-0.57479 1.116466,-0.57479 0.531237,0 0.835334,0.2413 1.162728,0.70993 l 0.905679,-0.62611 c -0.363748,-0.56983 -1.02975,-1.17606 -2.098395,-1.17606 z m -25.844048,0.10348 v 1.10934 l 1.789936,4.4e-4 v 5.07887 h 1.120742 v -5.07975 h 1.797646 v -1.10935 z m 12.774599,1.54471 c -0.217062,0 -0.483874,0.0214 -0.723171,0.0557 -0.176696,0.0253 -0.350651,0.0658 -0.52353,0.11035 -0.120772,0.0312 -0.249824,0.0478 -0.358154,0.10935 -0.09121,0.0519 -0.15498,0.12049 -0.232203,0.21213 -0.205891,0.24434 -0.324621,0.68053 -0.281044,1.03579 0.03749,0.30557 0.191602,0.55728 0.44984,0.80741 0.07844,0.0722 0.231224,0.15625 0.358155,0.21298 0.179885,0.0801 0.376166,0.11898 0.564662,0.17619 0.08887,0.027 0.177359,0.0527 0.266472,0.0786 0.138665,0.0407 0.277634,0.0811 0.416427,0.12149 0.234254,0.0681 0.470551,0.13127 0.703467,0.20357 0.09249,0.0288 0.193893,0.0457 0.275042,0.0916 0.03943,0.0221 0.06354,0.0641 0.09254,0.0983 0.01719,0.0204 0.02251,0.0497 0.02485,0.0761 0.0019,0.0221 0.0063,0.0579 0.0035,0.0864 -0.003,0.0287 -0.02141,0.0837 -0.02141,0.0837 0,0 -0.313472,0.0795 -0.472974,0.10185 -0.171087,0.024 -0.377048,0.0333 -0.516674,0.0333 -0.516467,-0.006 -1.111198,-0.0733 -1.688823,-0.37976 l -0.471265,0.94939 c 0.577413,0.30057 1.181599,0.44293 1.852485,0.48497 0.0041,2.5e-4 0.0078,1.41128 0.0078,1.41128 h 1.050486 c 0,0 -0.0053,-1.46485 5.7e-4,-1.46603 0.09383,-0.0149 0.185419,-0.0326 0.272475,-0.0504 0.111257,-0.0228 0.207459,-0.0523 0.304178,-0.0804 0.09304,-0.027 0.186512,-0.0519 0.263905,-0.10523 0.151681,-0.1066 0.245,-0.24093 0.318743,-0.3789 0.107926,-0.20199 0.158712,-0.42276 0.162807,-0.668 -0.0068,-0.46278 -0.162692,-0.69619 -0.405284,-0.93401 -0.330032,-0.32356 -0.892546,-0.4204 -1.282687,-0.52772 -0.210879,-0.0579 -0.427961,-0.12387 -0.641773,-0.18561 -0.122087,-0.0353 -0.246106,-0.0629 -0.36587,-0.10523 -0.146592,-0.0519 -0.327447,-0.0649 -0.429279,-0.18218 -0.04005,-0.0462 -0.04832,-0.11586 -0.04714,-0.17707 4.38e-4,-0.0334 0.02826,-0.0966 0.02826,-0.0966 0,0 0.607711,-0.15375 0.917675,-0.14963 0.527183,0.006 1.177767,0.11837 1.554306,0.29425 l 0.405278,-0.97421 c -0.56472,-0.24292 -1.166805,-0.37378 -1.832777,-0.37378 z m 3.032352,0 v 4.73675 h 1.048769 v -4.73675 z m -8.412435,0.005 c -0.29826,-0.0149 -0.782813,0.0434 -1.161022,0.13853 -0.481168,0.12112 -0.829413,0.28823 -0.829413,0.28823 l 0.430985,0.95969 c 0,0 0.274153,-0.15178 0.771155,-0.25233 0.145083,-0.0293 0.357179,-0.0573 0.53724,-0.0718 0.111319,-0.009 0.223386,-0.0149 0.335022,-0.01 0.09056,0.004 0.184452,-1.3e-4 0.270759,0.0273 0.241795,0.0771 0.51148,0.17216 0.660626,0.37718 0.06067,0.0835 0.123689,0.23948 0.1448,0.37037 0.01376,0.0852 -0.01376,0.25915 -0.01376,0.25915 0,0 -0.237226,-0.10498 -0.538093,-0.17618 -0.251937,-0.0598 -0.553221,-0.0911 -0.751448,-0.0693 -0.187694,0.0205 -0.375629,0.041 -0.566377,0.0872 -0.505763,0.12236 -1.000372,0.37249 -1.333235,0.74582 -0.16221,0.18194 -0.213746,0.44514 -0.209067,0.68342 0.0035,0.18058 0.06524,0.37123 0.178224,0.51232 0.09852,0.12312 0.208962,0.21747 0.332447,0.30279 0.26156,0.18071 0.560701,0.33249 0.850841,0.43194 0.3618,0.12424 0.759876,0.14863 1.141307,0.11986 0.313584,-0.0238 0.912534,-0.23864 0.912534,-0.23864 v 0.11887 h 1.06591 v -2.7199 c 0,-0.55748 -0.277617,-1.03216 -0.683755,-1.38134 -0.406149,-0.34921 -0.978688,-0.47414 -1.545737,-0.50293 z m -0.03855,2.89953 c 0.191261,-0.001 0.475253,0.0374 0.705179,0.12827 0.262291,0.10373 0.459268,0.26173 0.459262,0.26173 0,0 -0.197917,0.15359 -0.448979,0.25575 -0.228749,0.093 -0.502803,0.13539 -0.694897,0.13506 -0.194841,-1.7e-4 -0.527212,-0.0624 -0.757443,-0.1574 -0.243567,-0.10047 -0.379583,-0.23351 -0.379583,-0.23351 0,0 0.158579,-0.13936 0.421564,-0.24547 0.213998,-0.0865 0.51806,-0.14334 0.694897,-0.14451 z"
       sodipodi:nodetypes="cccccccscccsccccccccscscsccccccccsscscsccsscccccccccsscssscccscccscccscccsccccccscsscsccccccsscccccssccsscssscsscsssscscccsssscscscscsc" />
    <path
       id="path82574-5"
       style="font-style:normal;font-variant:normal;font-weight:normal;font-stretch:normal;font-size:122.83px;line-height:1.15;font-family:'Highway Gothic Wide';-inkscape-font-specification:'Highway Gothic Wide';text-align:center;letter-spacing:3.26px;text-anchor:middle;opacity:1;fill:#000000;fill-opacity:1;stroke-width:0.392995"
       d="m 46.740545,159.85173 v 1.04862 h 1.046202 v -1.04862 z m 8.864854,1.55753 c -0.66209,0 -1.22217,0.23112 -1.681121,0.69195 -0.458939,0.46085 -0.688897,1.02144 -0.688897,1.68155 0,0.66635 0.233564,1.22927 0.700039,1.69011 0.473978,0.45461 1.049397,0.68255 1.726523,0.68255 0.692165,0 1.228133,-0.36836 1.510604,-0.61155 l -0.705173,-0.78775 c -0.300947,0.23663 -0.496955,0.33699 -0.805431,0.33699 -0.240761,0 -0.534497,-0.0334 -0.767728,-0.20783 -0.225704,-0.1744 -0.361981,-0.27026 -0.502963,-0.57649 h 3.510471 l 0.05827,-0.51662 c -0.0075,-0.59161 -0.156955,-1.02622 -0.540661,-1.51818 -0.383699,-0.49197 -1.03147,-0.85825 -1.813923,-0.86473 z m 15.004094,0 c -0.662087,0 -1.223029,0.23112 -1.68198,0.69195 -0.458933,0.46085 -0.688041,1.02144 -0.688041,1.68155 0,0.66635 0.232718,1.22927 0.699185,1.69011 0.473985,0.45461 1.050251,0.68255 1.727386,0.68255 0.692157,0 1.22728,-0.36836 1.509751,-0.61155 l -0.705183,-0.78775 c -0.300949,0.23663 -0.4961,0.33699 -0.804568,0.33699 -0.240759,0 -0.534497,-0.0334 -0.767728,-0.20783 -0.225712,-0.1744 -0.362837,-0.27026 -0.503816,-0.57649 h 3.511316 l 0.05738,-0.51662 c -0.0075,-0.59161 -0.156954,-1.02622 -0.540664,-1.51818 -0.3837,-0.49197 -1.030616,-0.85825 -1.813065,-0.86473 z m -19.4151,0.0196 c -0.182833,0.005 -0.446763,0.0518 -0.653771,0.12237 -0.200575,0.0683 -0.347018,0.16088 -0.347018,0.16088 v -0.15046 l -1.048772,-0.006 v 4.60589 h 1.048772 l 0.0041,-2.74302 c 0,0 0.01525,-0.22113 0.154235,-0.43619 0.121323,-0.18768 0.355219,-0.3672 0.513244,-0.43023 0.160735,-0.0641 0.441609,-0.0882 0.658907,-0.0327 0.222632,0.0569 0.380441,0.19416 0.380441,0.19416 l 0.650337,-0.81855 c 0,0 -0.257319,-0.20627 -0.603214,-0.33955 -0.245791,-0.0947 -0.558421,-0.13093 -0.757443,-0.1258 z m -4.453848,0.001 v 4.72821 h 1.046202 v -4.72821 z m 18.252369,0.004 c -0.36362,0 -0.730471,0.11211 -1.054767,0.27626 -0.143955,0.0728 -0.336045,0.21428 -0.487538,0.34299 -0.09142,0.0776 -0.252766,0.25746 -0.252766,0.25746 0,0 -0.293562,-0.36218 -0.73003,-0.60216 -0.324157,-0.1782 -0.759134,-0.24771 -1.038485,-0.27199 -0.238295,-0.0206 -0.600696,0.04 -0.885116,0.14632 -0.283106,0.1056 -0.489255,0.25658 -0.489255,0.25658 v -0.2737 h -1.039345 v 4.58451 h 1.039345 l 0.006,-2.48126 c 0,0 0.01917,-0.15559 0.08226,-0.32332 0.05966,-0.15857 0.160801,-0.32733 0.253622,-0.42167 0.08535,-0.0867 0.176318,-0.176 0.28361,-0.24292 0.196323,-0.12249 0.428411,-0.19264 0.651201,-0.19671 0.195064,-0.004 0.403447,0.0355 0.586933,0.12224 0.158894,0.0752 0.297313,0.18916 0.41642,0.30877 0.08965,0.0901 0.197608,0.25439 0.255341,0.41142 0.07536,0.20567 0.08739,0.39942 0.08739,0.39942 v 2.42397 h 1.047056 v -2.35981 c 0,0 -0.0046,-0.21217 0.07368,-0.42682 0.07879,-0.21601 0.240385,-0.43521 0.373581,-0.55765 0.165477,-0.1521 0.383586,-0.25121 0.611782,-0.29594 0.09091,-0.0171 0.187412,-0.0149 0.276758,-0.0221 0.1888,-0.0149 0.461461,0.0719 0.688042,0.2215 0.156722,0.10347 0.279619,0.24508 0.386434,0.37378 0.144254,0.17391 0.213349,0.64322 0.213349,0.64322 v 2.42396 h 1.05477 l -0.01882,-2.53175 c 0,0 -0.01114,-0.20471 -0.07625,-0.44732 -0.0703,-0.26201 -0.181929,-0.51515 -0.342739,-0.7313 -0.206106,-0.27705 -0.467608,-0.52836 -0.772014,-0.69196 -0.364104,-0.19562 -0.786906,-0.3139 -1.200427,-0.3139 z m 8.881133,0.11986 v 1.01868 h 2.552521 l -2.552521,2.55058 v 1.02551 h 4.345879 v -1.02551 h -2.551663 l 2.551663,-2.55058 v -1.01868 z m -18.248942,0.90921 c 0.141136,-0.004 0.351714,0.0467 0.529525,0.13175 0.134985,0.0646 0.245255,0.15508 0.326456,0.22239 0.195568,0.15574 0.320457,0.43878 0.320457,0.43878 l -2.410291,-4.5e-4 c 0,0 0.148846,-0.30167 0.344452,-0.46358 0.104971,-0.0868 0.252388,-0.18382 0.420709,-0.24635 0.157435,-0.0583 0.334137,-0.0845 0.468692,-0.0821 z m 15.004095,0 c 0.141136,-0.004 0.351716,0.0467 0.529525,0.13175 0.134984,0.0646 0.244397,0.15508 0.3256,0.22239 0.195564,0.15574 0.321313,0.43878 0.321313,0.43878 l -2.411139,-4.5e-4 c 0,0 0.148829,-0.30167 0.344445,-0.46358 0.104971,-0.0868 0.252385,-0.18382 0.420704,-0.24635 0.157436,-0.0583 0.335006,-0.0845 0.469552,-0.0821 z" />
  </g>
</svg>
