<svg width="77.446mm" height="132.29mm" version="1.1" viewBox="0 0 77.446 132.29" xmlns="http://www.w3.org/2000/svg"><g transform="translate(-9.052 -68.794)"><path d="m15.672 69.045h64.206c3.5284 0 6.369 2.8355 6.369 6.3577v119.07c0 3.5221-2.8406 6.3577-6.369 6.3577h-64.206c-3.5284 0-6.369-2.8355-6.369-6.3577v-119.07c0-3.5221 2.8406-6.3577 6.369-6.3577z" fill="#fff" fill-rule="evenodd" stroke="#000" stroke-linecap="square" stroke-linejoin="round" stroke-miterlimit="2" stroke-width=".50271" style="paint-order:stroke fill markers"/><g><path d="m15.832 70.276c-2.9174 0-5.2987 2.3771-5.2987 5.2893v118.84c0 2.9122 2.3813 5.2893 5.2987 5.2893h63.893c2.9174 0 5.2987-2.3771 5.2987-5.2893v-118.84c0-2.9122-2.3813-5.2893-5.2987-5.2893zm0 2.1015h63.893c1.7872 0 3.1926 1.4037 3.1926 3.1878v94.017h-70.279v-94.017c0-1.784 1.4063-3.1878 3.1934-3.1878zm44.269 5.0686-3.2963 8.2436 1.5852 0.01114 0.65548-1.6191 3.6895-0.0068 0.69232 1.6328 1.6408-0.01799-3.2988-8.2436zm-32.662 0.01539 3.4119 4.9814v3.3203h1.4875v-3.3186l3.4068-4.9831h-1.8105l-2.3452 3.4255-2.3435-3.4255zm19.566 0 3.4128 4.9814v3.3203h1.4866v-3.3186l3.4068-4.9831h-1.8105l-2.3452 3.4255-2.3435-3.4255zm-6.4494 6e-3 -3.2963 8.2436 1.5852 0.01114 0.65548-1.6191 3.6895-0.0068 0.69232 1.6328 1.64-0.01799-3.298-8.2436zm20.382 1.9382 1.2647 3.1621-2.5594 0.01799zm-19.545 0.02137 1.2638 3.1621-2.5585 0.01799zm35.321 10.437v1.4908h1.4883v-1.4908zm-48.787 0.33272v1.5242l1.5303-0.01291v-1.5113zm3.7984 0v1.5216l1.5423 0.01291v-1.5344zm37.954 1.9228c-0.42237 3e-3 -0.80175 0.0561-1.1773 0.18475-0.51479 0.17632-1.0624 0.38642-1.4283 0.7886-0.36789 0.40436-0.62589 0.9581-0.65291 1.5037-0.02637 0.53192 0.17478 1.0908 0.4884 1.5216 0.25742 0.35364 0.66265 0.59591 1.0659 0.76636 0.33162 0.14014 0.70698 0.13802 1.0633 0.18988 0.62311 0.09071 1.6843 0.22419 2.0521 0.36265 0.10825 0.0407 0.21828 0.12431 0.2819 0.20185 0.13187 0.16078 0.2121 0.38695 0.19022 0.5936-0.02633 0.24849-0.16271 0.51489-0.37272 0.65089-0.39815 0.25785-0.93346 0.37358-1.4412 0.38917-0.79321 0.02435-1.7252-0.41214-2.1772-1.0178l-1.149 0.95283c1.0821 1.0692 1.9175 1.5473 3.3057 1.5473 1.0412 0 1.9135-0.27723 2.4891-0.77577 0.58407-0.49852 0.81007-1.0852 0.82428-1.7209 0.01459-0.65492-0.22684-1.3189-0.76858-1.809-0.53328-0.49856-1.6494-0.5578-2.8344-0.77749-0.49096-0.09294-0.88062-0.1276-1.143-0.27969-0.26241-0.15209-0.38021-0.40168-0.39244-0.65602-0.01227-0.25422 0.13437-0.52387 0.32732-0.69025 0.3759-0.32413 0.92916-0.44542 1.4258-0.4345 0.68506 0.01506 1.3092 0.14852 1.9382 0.68511l0.96823-1.129c-0.8074-0.71657-1.8679-1.0547-2.8833-1.0478zm-19.864 0.0453c-1.0453 0-1.9368 0.48525-2.5191 1.1769-0.63552 0.79299-0.9151 1.8458-0.9151 3.1313 0 1.2104 0.22056 2.1841 0.75573 2.9688 0.62717 0.90986 1.5648 1.3882 2.7187 1.3882 0.9282 0 1.6627-0.32677 2.3066-0.95283 0.65224-0.62606 0.81812-1.2152 0.81828-1.3257l0.0031-1.1615v-1.395h-2.9775l5.7e-4 1.4882h1.5517v0.60899c-0.13331 0.37458-0.27729 0.63568-0.61178 0.88611-0.33449 0.25041-0.68101 0.34983-1.0908 0.34983-0.71079 0-1.272-0.28124-1.6066-0.89894-0.26758-0.48416-0.383-1.1548-0.383-1.9561 0-0.82638 0.11854-1.526 0.47812-2.0519 0.36794-0.53425 0.92611-0.77745 1.5115-0.77749 0.71916 0 1.1317 0.32612 1.5749 0.96052l1.2261-0.84762c-0.49242-0.77141-1.3946-1.5918-2.8413-1.5918zm13.942 0.1762-5.9602 0.01026v8.2675l5.9602-6e-3v-1.4814l-4.4521 0.0068-0.02229-1.986 2.8207 0.0046v-1.5054l-2.8207-0.0041 0.02229-1.815 4.4521-0.01026zm12.956 0.0094v8.2684h1.4883v-8.2684zm-59.365 5.7e-4v8.2675h4.154c0.42855 0 0.85295-0.11519 1.2733-0.34555 0.37911-0.20567 0.62918-0.49742 0.8517-0.87584 0.23076-0.38667 0.35644-0.91131 0.35644-1.3309-0.0041-0.44137-0.1844-0.8552-0.38986-1.2351-0.11773-0.21769-0.4704-0.57478-0.4704-0.57478s0.51924-0.65615 0.51924-1.4788c0-0.83913-0.49673-1.711-1.2467-2.1306-0.34615-0.19748-0.82363-0.29596-1.4335-0.29596zm21.391 0v8.2675h5.632v-1.4848h-4.1385v-6.7827zm-8.0971 0.03677c-1.0747 0-1.9209 0.38242-2.5397 1.1487-0.61876 0.75803-0.98028 1.7146-0.98022 3.033 0 1.1617 0.30835 1.9118 0.86198 2.7028 0.63505 0.91457 1.5138 1.3719 2.6373 1.3719 1.0258 0 1.8442-0.39535 2.4548-1.1863 0.61876-0.79923 0.98965-1.6195 0.98965-2.9132 0-1.2689-0.35418-2.2087-0.98108-2.9833-0.61876-0.78274-1.4333-1.1735-2.4428-1.1735zm-11.8 1.4549h2.4291c0.239 0.01639 0.47993 0.12357 0.61178 0.26344 0.16909 0.18793 0.27451 0.38518 0.27419 0.60727-4.37e-4 0.26857-0.13926 0.54962-0.33502 0.73386-0.14856 0.13979-0.31602 0.20341-0.57152 0.21982h-2.4086zm11.8 0.01539c0.61063 0 1.1308 0.31857 1.3924 0.77834 0.34196 0.49436 0.53724 1.0596 0.53724 1.933 0 0.7745-0.16703 1.1783-0.42756 1.6644-0.28074 0.49156-0.80185 0.90664-1.502 0.90664-0.61876 0-1.1442-0.2472-1.4943-0.74156-0.3501-0.5026-0.52524-0.94791-0.52524-1.8295 0-0.87337 0.21628-1.4754 0.56636-1.9698 0.3501-0.49437 0.83444-0.74156 1.4532-0.74156zm-11.8 3.2853 2.6116 0.0046c0.32142 0.0083 0.57356 0.11969 0.75487 0.33357 0.18956 0.2139 0.27835 0.39279 0.28362 0.6201 0.0058 0.26613-0.11207 0.54155-0.30161 0.739-0.18131 0.19744-0.41545 0.30503-0.73688 0.29679h-2.5971zm-6.2035 73.543h70.279v23.724c0 1.784-1.4054 3.1878-3.1926 3.1878h-63.893c-1.7872 0-3.1934-1.4038-3.1934-3.1878z" color="#000000" color-rendering="auto" dominant-baseline="auto" enable-background="accumulate" fill-rule="evenodd" image-rendering="auto" shape-rendering="auto" solid-color="#000000" stop-color="#000000" style="font-feature-settings:normal;font-variant-alternates:normal;font-variant-caps:normal;font-variant-east-asian:normal;font-variant-ligatures:normal;font-variant-numeric:normal;font-variant-position:normal;font-variation-settings:normal;inline-size:0;isolation:auto;mix-blend-mode:normal;paint-order:stroke fill markers;shape-margin:0;shape-padding:0;text-decoration-color:#000000;text-decoration-line:none;text-decoration-style:solid;text-indent:0;text-orientation:mixed;text-transform:none;white-space:normal"/><path d="m47.617 175.27v6.3131h1.0411v-6.3131zm-17.336 0.11285 2.5448 3.7155v2.4761h1.1087v-2.4744l2.5414-3.7172h-1.3504l-1.7497 2.5548-1.748-2.5548zm12.29 0.0693v6.1309h0.98108v-1.7183l0.413-0.34726 1.5535 2.0656h1.2218l-2.0273-2.7028 2.0273-1.7149h-1.5132l-1.6751 1.4138v-3.127zm-5.5669 0.0149v1.0418h1.0471v-1.0422zm3.6493 0v1.0418h1.0402v-1.0422zm11.487 1.3317c-0.66209 0-1.2222 0.23028-1.6811 0.69111-0.45894 0.46085-0.68804 1.0214-0.68804 1.6816-1.7e-5 0.66635 0.23271 1.2301 0.69917 1.691 0.474 0.45462 1.0494 0.68169 1.7265 0.68169 0.69216 0 1.2281-0.36835 1.5106-0.61155l-0.70518-0.7869c-0.30095 0.23664-0.49695 0.33701-0.80542 0.33701-0.24076 0-0.5345-0.0343-0.76773-0.2087-0.22571-0.17439-0.36198-0.26938-0.50296-0.57565h3.5105l0.05827-0.51659c-0.0075-0.59161-0.15697-1.0262-0.54067-1.5182-0.3837-0.49195-1.0315-0.85824-1.8139-0.86473zm15.004 0c-0.66209 0-1.223 0.23028-1.682 0.69111-0.45894 0.46085-0.68804 1.0214-0.68804 1.6816 0 0.66635 0.23357 1.2301 0.70004 1.691 0.47398 0.45462 1.0494 0.68169 1.7265 0.68169 0.69216 0 1.2273-0.36835 1.5098-0.61155l-0.70517-0.7869c-0.30095 0.23664-0.4961 0.33701-0.80458 0.33701-0.24076 0-0.53449-0.0343-0.76773-0.2087-0.2257-0.17439-0.36284-0.26938-0.50382-0.57565h3.5113l0.05827-0.51659c-0.0075-0.59161-0.15782-1.0262-0.54152-1.5182-0.3837-0.49195-1.0306-0.85824-1.8131-0.86473zm-5.6166 0.024c-0.36361 0-0.73047 0.11123-1.0548 0.27541-0.14395 0.0728-0.33605 0.21516-0.48754 0.34384-0.09142 0.0776-0.25192 0.2566-0.25192 0.2566s-0.29442-0.36131-0.73088-0.60129c-0.32416-0.17821-0.75914-0.2477-1.0385-0.27198-0.23829-0.0206-0.60069 0.04-0.88511 0.14631-0.28312 0.1056-0.48926 0.25573-0.48926 0.25573v-0.27368h-1.0393v4.5854h1.0393l6e-3 -2.4821s0.01917-0.15476 0.08226-0.32246c0.05966-0.15857 0.1608-0.32734 0.25362-0.42168 0.08536-0.0867 0.17631-0.17599 0.28361-0.24291 0.19633-0.12249 0.4284-0.19263 0.65119-0.19671 0.19506-4e-3 0.40345 0.0355 0.58693 0.12224 0.1589 0.0752 0.29731 0.18916 0.41643 0.30877 0.08963 0.0901 0.19846 0.2544 0.25619 0.41141 0.07536 0.20568 0.08739 0.39943 0.08739 0.39943v2.424h1.0462v-2.3598s-0.0046-0.21302 0.07368-0.42766c0.0788-0.21603 0.24039-0.43437 0.37358-0.55682 0.16548-0.1521 0.3836-0.25122 0.61179-0.29594 0.09091-0.0173 0.18742-0.0149 0.27675-0.0221 0.1888-0.0149 0.46146 0.0712 0.68804 0.22069 0.15672 0.10347 0.27962 0.24592 0.38644 0.37462 0.14425 0.17391 0.21335 0.64319 0.21335 0.64319v2.424h1.0548l-0.01891-2.5318c-8e-6 0-0.01114-0.20557-0.07625-0.44818-0.0703-0.26201-0.18193-0.51514-0.34274-0.73128-0.20611-0.27707-0.4676-0.52753-0.77201-0.69111-0.3641-0.19562-0.78691-0.3139-1.2004-0.3139zm-24.524 0.20785-0.0068 2.3572c-0.0019 0.52142 0.23654 1.1485 0.62207 1.5892 0.39176 0.4407 1.0198 0.79668 1.6914 0.80913 0.52858 0 1.0231-0.11573 1.3427-0.33015v0.12745h1.0402v-4.5529h-1.0394v2.4111c-0.0061 0.34139-0.19662 0.6958-0.4267 0.90065-0.22386 0.19864-0.5815 0.33548-0.87998 0.32929-0.342 0-0.7071-0.167-0.91853-0.37805-0.20521-0.21106-0.37692-0.59437-0.37701-0.88612l-0.0012-2.3769zm15.156 0.82112c0.14114-4e-3 0.35258 0.0465 0.53038 0.13174 0.13498 0.0646 0.2444 0.15509 0.3256 0.22237 0.19556 0.15575 0.32045 0.43793 0.32045 0.43793h-2.4103s0.14883-0.30166 0.34444-0.46359c0.10497-0.0868 0.25239-0.1838 0.42071-0.24634 0.15743-0.0583 0.33414-0.0845 0.46869-0.0821zm15.004 0c0.14114-4e-3 0.35172 0.0465 0.52952 0.13174 0.13498 0.0646 0.24526 0.15509 0.32646 0.22237 0.19557 0.15575 0.32046 0.43793 0.32046 0.43793h-2.4111s0.14883-0.30166 0.34445-0.46359c0.10497-0.0868 0.25239-0.1838 0.42071-0.24634 0.15744-0.0583 0.335-0.0845 0.46955-0.0821zm4.1 8.4882v1.0486h1.0471v-1.0486zm-32.119 0.0265v6.3131h1.0411v-6.3131zm-18.497 0.0539-2.4874 6.2224 1.1961 9e-3 0.49525-1.2223 2.7847-5e-3 0.52267 1.2325 1.2381-0.0133-2.49-6.2233zm34.944 1e-3v6.284h1.1327v-2.5138h2.7667v2.5138l1.1259-4.4e-4 0.0019-6.2832h-1.1277v2.5112h-2.7667v-2.5112zm-34.312 1.478 0.95451 2.3872-1.9313 0.0133zm49.985 0.0205v4.7282h1.0471v-4.7282zm-40.187 0.0375c-0.30778-0.0149-0.80756 0.0445-1.1979 0.14284-0.49653 0.12499-0.85598 0.29766-0.85598 0.29766l0.4447 0.98959s0.28313-0.15624 0.79601-0.26c0.14971-0.0303 0.36857-0.0593 0.55437-0.0744 0.11489-0.01 0.23096-0.0149 0.34616-0.01 0.09345 4e-3 0.19026-1e-3 0.27933 0.0273 0.24952 0.0796 0.52728 0.17846 0.68119 0.39001 0.06263 0.0861 0.12807 0.24728 0.14994 0.38233 0.01426 0.0881-0.01376 0.26685-0.01376 0.26685s-0.24647-0.10772-0.55694-0.18132c-0.25998-0.0616-0.57002-0.0942-0.77458-0.0718-0.19369 0.0212-0.38752 0.043-0.58437 0.0907-0.52191 0.12629-1.0326 0.38366-1.3761 0.76892-0.16737 0.18773-0.22061 0.45976-0.21593 0.70564 0.0035 0.18638 0.06763 0.38297 0.18422 0.52859 0.10168 0.12695 0.21529 0.22498 0.34274 0.31304 0.26991 0.18648 0.57885 0.34301 0.87826 0.44562 0.37335 0.12811 0.78368 0.15294 1.1773 0.12312 0.32359-0.0245 0.94166-0.24633 0.94166-0.24633v0.12236h1.1002v-2.8063c0-0.57529-0.28606-1.0655-0.70517-1.4258-0.41912-0.36035-1.0103-0.48861-1.5954-0.51831zm12.284 0c-0.30778-0.0149-0.80756 0.0445-1.1979 0.14284-0.49653 0.12499-0.85598 0.29766-0.85598 0.29766l0.4447 0.98959s0.28313-0.15624 0.79601-0.26c0.14971-0.0303 0.36857-0.0593 0.55437-0.0744 0.11489-0.01 0.23096-0.0149 0.34616-0.01 0.09345 4e-3 0.19026-1e-3 0.27933 0.0273 0.24952 0.0796 0.52728 0.17846 0.68119 0.39001 0.06263 0.0861 0.12807 0.24728 0.14994 0.38233 0.01426 0.0881-0.01376 0.26685-0.01376 0.26685s-0.24647-0.10772-0.55694-0.18132c-0.25998-0.0616-0.57002-0.0942-0.77458-0.0718-0.19369 0.0212-0.38753 0.043-0.58437 0.0907-0.52191 0.12629-1.0326 0.38366-1.3761 0.76892-0.16737 0.18773-0.22061 0.45976-0.21593 0.70564 0.0035 0.18638 0.06764 0.38297 0.18422 0.52859 0.10168 0.12695 0.21529 0.22498 0.34274 0.31304 0.26991 0.18648 0.57885 0.34301 0.87826 0.44562 0.37335 0.12811 0.78368 0.15294 1.1773 0.12312 0.32359-0.0245 0.94166-0.24633 0.94166-0.24633v0.12236h1.1002v-2.8063c0-0.57529-0.28606-1.0655-0.70517-1.4258-0.41912-0.36035-1.0103-0.48861-1.5954-0.51831zm-16.031 0.0133c-0.18283 5e-3 -0.44676 0.0518-0.65377 0.12237-0.20058 0.0683-0.34702 0.16072-0.34702 0.16072v-0.15046l-1.0488-6e-3v4.6059h1.0488l0.0046-2.7421s0.01609-0.22202 0.15508-0.43708c0.12132-0.18768 0.35523-0.36719 0.51325-0.43024 0.16074-0.0641 0.44075-0.0882 0.65805-0.0326 0.22263 0.0569 0.38044 0.19416 0.38044 0.19416l0.65034-0.81853s-0.25646-0.2063-0.60236-0.33958c-0.24578-0.0947-0.55927-0.13091-0.7583-0.12578zm21.322 0c-0.18283 5e-3 -0.44762 0.0518-0.65462 0.12237-0.20058 0.0683-0.34702 0.16072-0.34702 0.16072v-0.15046l-1.0488-6e-3v4.6059h1.0488l0.0041-2.7421s0.01609-0.22202 0.1551-0.43708c0.12132-0.18768 0.35522-0.36719 0.51324-0.43024 0.16073-0.0641 0.44076-0.0882 0.65805-0.0326 0.22263 0.0569 0.38044 0.19416 0.38044 0.19416l0.65034-0.81853s-0.25646-0.2063-0.60236-0.33958c-0.24579-0.0947-0.55842-0.13091-0.75744-0.12578zm20.4 0c-0.18283 5e-3 -0.44762 0.0518-0.65462 0.12237-0.20058 0.0683-0.34702 0.16072-0.34702 0.16072v-0.14962l-1.0488-9e-3v4.6059h1.0488l4e-3 -2.7422s0.01609-0.22116 0.15508-0.43622c0.12132-0.18765 0.35523-0.36803 0.51325-0.43106 0.16074-0.0641 0.44075-0.0882 0.65805-0.0326 0.22263 0.0569 0.38044 0.19414 0.38044 0.19414l0.65034-0.81853s-0.25646-0.20629-0.60236-0.33957c-0.24578-0.0947-0.55842-0.13092-0.75744-0.12578zm-18.324 6e-3v4.7034h1.0411v-4.7035zm-14.205 5e-3c-0.36841 0-0.69051 0.0783-0.98537 0.21556-0.24941 0.11599-0.48097 0.27202-0.68461 0.47728-0.44438 0.44789-0.68461 0.98509-0.68461 1.6661s0.24966 1.2234 0.69404 1.6713c0.22625 0.22493 0.47591 0.40069 0.75659 0.5192 0.12091 0.0509 0.24758 0.0915 0.38043 0.12061 0.0012 2.9e-4 0.0019 1.1016 0.0019 1.1016h1.0471s-0.0019-1.1029 0-1.1034c0.50311-0.11111 0.94961-0.3874 1.3212-0.82454l-0.81657-0.65602c-0.35594 0.37069-0.5815 0.44746-0.99222 0.47812-0.1835 0-0.3885-0.0327-0.56808-0.11211-0.16967-0.0751-0.31549-0.19381-0.4267-0.31304-0.2222-0.24543-0.34188-0.50585-0.34188-0.88012 0-0.38042 0.13767-0.65708 0.35987-0.89637 0.22892-0.24544 0.6011-0.40372 0.95795-0.40372 0.41072 0.0184 0.74986 0.17984 1.0111 0.48497l0.82-0.65774c-0.45209-0.56447-1.1295-0.88783-1.8499-0.88783zm39.176 0c-0.36841 0-0.69051 0.0783-0.98537 0.21556-0.24941 0.11599-0.48098 0.27202-0.68461 0.47728-0.44438 0.44789-0.68461 0.98509-0.68461 1.6661s0.24966 1.2234 0.69404 1.6713c0.22625 0.22493 0.47592 0.40069 0.75658 0.5192 0.12092 0.0509 0.24759 0.0915 0.38044 0.12061 0.0014 2.9e-4 0.0019 1.1016 0.0019 1.1016h1.0471s-0.0019-1.1029 0-1.1034c0.50311-0.11111 0.9496-0.3874 1.3212-0.82454l-0.81742-0.65602c-0.35594 0.37069-0.58064 0.44746-0.99137 0.47812-0.18349 0-0.3885-0.0327-0.56808-0.11211-0.16966-0.0751-0.31548-0.19381-0.4267-0.31304-0.22219-0.24543-0.34274-0.50585-0.34274-0.88012 0-0.38042 0.13769-0.65708 0.35988-0.89637 0.22892-0.24544 0.60196-0.40372 0.95879-0.40372 0.41073 0.0184 0.749 0.17984 1.0102 0.48497l0.81999-0.65774c-0.45209-0.56447-1.1286-0.88783-1.8491-0.88783zm-11.807 0.0923c-0.29986-0.0149-0.78676 0.0437-1.167 0.13936-0.48375 0.12187-0.83456 0.28996-0.83456 0.28996l0.43356 0.96481s0.27662-0.15294 0.77629-0.25404c0.14586-0.0294 0.35878-0.0571 0.53981-0.0718 0.11193-0.01 0.2245-0.0149 0.33673-0.01 0.09105 4e-3 0.18485-1e-3 0.27162 0.0265 0.2431 0.0774 0.51495 0.17363 0.6649 0.37976 0.061 0.0839 0.12438 0.24133 0.14566 0.37292 0.01392 0.0857-0.01376 0.26002-0.01376 0.26002s-0.23904-0.10522-0.54152-0.17706c-0.2533-0.06-0.55558-0.0911-0.75488-0.0693-0.18871 0.0206-0.37803 0.0417-0.5698 0.0881-0.50848 0.12299-1.0063 0.3739-1.341 0.74925-0.1631 0.18292-0.21402 0.44726-0.20992 0.68682 0.0035 0.18156 0.06549 0.37303 0.17908 0.51492 0.09907 0.12362 0.21 0.21954 0.33417 0.30534 0.26296 0.18168 0.56342 0.33367 0.85512 0.43364 0.36375 0.12437 0.76381 0.14963 1.1473 0.12061 0.31526-0.0238 0.91768-0.2395 0.91768-0.2395v0.11886h1.0719v-2.7344c0-0.56048-0.27972-1.038-0.68804-1.389-0.40834-0.35106-0.98335-0.47652-1.5535-0.50549zm-32.855 2.8747c0.19737-1e-3 0.49105 0.0388 0.72831 0.13258 0.27067 0.1071 0.47383 0.27028 0.47383 0.27028s-0.20362 0.15808-0.4627 0.26345c-0.23604 0.096-0.51894 0.14052-0.71717 0.14036-0.20106-2e-4 -0.5447-0.0646-0.78229-0.16254-0.25136-0.1036-0.39157-0.24119-0.39157-0.24119s0.16388-0.14368 0.43527-0.25318c0.22084-0.0891 0.53384-0.14847 0.71632-0.14962zm12.284 0c0.19737-1e-3 0.49105 0.0388 0.72831 0.13258 0.27067 0.1071 0.47383 0.27028 0.47383 0.27028s-0.20362 0.15808-0.46269 0.26345c-0.23605 0.096-0.51894 0.14052-0.71717 0.14036-0.20106-2e-4 -0.5447-0.0646-0.78229-0.16254-0.25135-0.1036-0.39157-0.24119-0.39157-0.24119s0.16388-0.14368 0.43527-0.25318c0.22084-0.0891 0.53384-0.14847 0.71632-0.14962zm20.532 0.0403c0.19229-1e-3 0.47831 0.0378 0.70947 0.1291 0.2637 0.10422 0.46183 0.26259 0.46183 0.26259s-0.19829 0.15476-0.45069 0.25745c-0.22998 0.0935-0.50604 0.13622-0.69918 0.13606-0.19589-1.8e-4 -0.53027-0.0627-0.76173-0.15824-0.24488-0.10097-0.3813-0.23522-0.3813-0.23522s0.15974-0.1397 0.42414-0.24633c0.21514-0.0867 0.51967-0.14432 0.69746-0.14548z"/><path d="m47.715 106.27c-13.33 0-24.136 10.787-24.136 24.093-6.3e-5 13.306 10.806 24.093 24.136 24.093 13.33 5e-5 24.136-10.787 24.136-24.093 2.1e-5 -13.306-10.806-24.093-24.136-24.093zm-0.05282 5.8506c0.01426-3e-5 0.02749-3e-5 0.04089 0 10.091 4e-5 18.272 8.166 18.272 18.239-5.9e-5 10.073-8.1806 18.239-18.272 18.239-10.091-5e-5 -18.272-8.166-18.272-18.239 0-10.057 8.1556-18.217 18.231-18.239z" color="#000000" color-rendering="auto" dominant-baseline="auto" enable-background="accumulate" fill="#ed232a" fill-rule="evenodd" image-rendering="auto" shape-rendering="auto" solid-color="#000000" stop-color="#000000" style="font-feature-settings:normal;font-variant-alternates:normal;font-variant-caps:normal;font-variant-east-asian:normal;font-variant-ligatures:normal;font-variant-numeric:normal;font-variant-position:normal;font-variation-settings:normal;inline-size:0;isolation:auto;mix-blend-mode:normal;paint-order:stroke fill markers;shape-margin:0;shape-padding:0;text-decoration-color:#000000;text-decoration-line:none;text-decoration-style:solid;text-indent:0;text-orientation:mixed;text-transform:none;white-space:normal"/><path d="m36.416 159.84-1.99e-4 1.7988h-1.022v1.0264h1.022l-0.01089 2.2264c-0.0019 0.37717 0.08993 0.62755 0.30675 0.90578 0.223 0.27825 0.5944 0.46614 0.95367 0.46614 0.19202 0 0.48779-0.0169 0.81037-0.25573l-0.61778-0.82623s-0.02141 0.0209-0.05827 0.0343c-0.0451 0.0165-0.10992 0.026-0.14823 0.018-0.07346-0.0149-0.13754-0.0747-0.17802-0.1377-0.02117-0.0329-0.02673-0.11373-0.02673-0.11373v-2.317h1.0291v-1.0264h-1.0291v-1.7987zm7.0622 0.01c-0.77214 0-1.4309 0.35892-1.8611 0.86987-0.46946 0.58578-0.67604 1.3632-0.67604 2.3128 0 0.89409 0.16334 1.6134 0.55866 2.193 0.46328 0.67213 1.156 1.0255 2.0084 1.0255 0.68566 0 1.2278-0.24146 1.7034-0.70391 0.48182-0.46247 0.6048-0.89772 0.60493-0.97935l0.0019-0.85788v-1.0307h-2.1995v1.0999h1.1473v0.4499c-0.09847 0.27669-0.20531 0.46932-0.45241 0.65431-0.24709 0.18498-0.50275 0.2583-0.80543 0.2583-0.52507 0-0.94049-0.20744-1.1876-0.66372-0.19766-0.35764-0.2819-0.85354-0.2819-1.4455 0-0.61045 0.08739-1.1272 0.35301-1.5156 0.2718-0.39465 0.68407-0.57479 1.1165-0.57479 0.53124 0 0.83533 0.2413 1.1627 0.70993l0.90568-0.62611c-0.36375-0.56983-1.0298-1.1761-2.0984-1.1761zm-25.844 0.10348v1.1093l1.7899 4.4e-4v5.0789h1.1207v-5.0798h1.7976v-1.1094zm12.775 1.5447c-0.21706 0-0.48387 0.0214-0.72317 0.0557-0.1767 0.0253-0.35065 0.0658-0.52353 0.11035-0.12077 0.0312-0.24982 0.0478-0.35815 0.10935-0.09121 0.0519-0.15498 0.12049-0.2322 0.21213-0.20589 0.24434-0.32462 0.68053-0.28104 1.0358 0.03749 0.30557 0.1916 0.55728 0.44984 0.80741 0.07844 0.0722 0.23122 0.15625 0.35816 0.21298 0.17988 0.0801 0.37617 0.11898 0.56466 0.17619 0.08887 0.027 0.17736 0.0527 0.26647 0.0786 0.13866 0.0407 0.27763 0.0811 0.41643 0.12149 0.23425 0.0681 0.47055 0.13127 0.70347 0.20357 0.09249 0.0288 0.19389 0.0457 0.27504 0.0916 0.03943 0.0221 0.06354 0.0641 0.09254 0.0983 0.01719 0.0204 0.02251 0.0497 0.02485 0.0761 0.0019 0.0221 0.0063 0.0579 0.0035 0.0864-3e-3 0.0287-0.02141 0.0837-0.02141 0.0837s-0.31347 0.0795-0.47297 0.10185c-0.17109 0.024-0.37705 0.0333-0.51667 0.0333-0.51647-6e-3 -1.1112-0.0733-1.6888-0.37976l-0.47126 0.94939c0.57741 0.30057 1.1816 0.44293 1.8525 0.48497 0.0041 2.5e-4 0.0078 1.4113 0.0078 1.4113h1.0505s-0.0053-1.4648 5.7e-4 -1.466c0.09383-0.0149 0.18542-0.0326 0.27248-0.0504 0.11126-0.0228 0.20746-0.0523 0.30418-0.0804 0.09304-0.027 0.18651-0.0519 0.2639-0.10523 0.15168-0.1066 0.245-0.24093 0.31874-0.3789 0.10793-0.20199 0.15871-0.42276 0.16281-0.668-0.0068-0.46278-0.16269-0.69619-0.40528-0.93401-0.33003-0.32356-0.89255-0.4204-1.2827-0.52772-0.21088-0.0579-0.42796-0.12387-0.64177-0.18561-0.12209-0.0353-0.24611-0.0629-0.36587-0.10523-0.14659-0.0519-0.32745-0.0649-0.42928-0.18218-0.04005-0.0462-0.04832-0.11586-0.04714-0.17707 4.38e-4 -0.0334 0.02826-0.0966 0.02826-0.0966s0.60771-0.15375 0.91768-0.14963c0.52718 6e-3 1.1778 0.11837 1.5543 0.29425l0.40528-0.97421c-0.56472-0.24292-1.1668-0.37378-1.8328-0.37378zm3.0324 0v4.7368h1.0488v-4.7368zm-8.4124 5e-3c-0.29826-0.0149-0.78281 0.0434-1.161 0.13853-0.48117 0.12112-0.82941 0.28823-0.82941 0.28823l0.43098 0.95969s0.27415-0.15178 0.77116-0.25233c0.14508-0.0293 0.35718-0.0573 0.53724-0.0718 0.11132-9e-3 0.22339-0.0149 0.33502-0.01 0.09056 4e-3 0.18445-1.3e-4 0.27076 0.0273 0.2418 0.0771 0.51148 0.17216 0.66063 0.37718 0.06067 0.0835 0.12369 0.23948 0.1448 0.37037 0.01376 0.0852-0.01376 0.25915-0.01376 0.25915s-0.23723-0.10498-0.53809-0.17618c-0.25194-0.0598-0.55322-0.0911-0.75145-0.0693-0.18769 0.0205-0.37563 0.041-0.56638 0.0872-0.50576 0.12236-1.0004 0.37249-1.3332 0.74582-0.16221 0.18194-0.21375 0.44514-0.20907 0.68342 0.0035 0.18058 0.06524 0.37123 0.17822 0.51232 0.09852 0.12312 0.20896 0.21747 0.33245 0.30279 0.26156 0.18071 0.5607 0.33249 0.85084 0.43194 0.3618 0.12424 0.75988 0.14863 1.1413 0.11986 0.31358-0.0238 0.91253-0.23864 0.91253-0.23864v0.11887h1.0659v-2.7199c0-0.55748-0.27762-1.0322-0.68376-1.3813-0.40615-0.34921-0.97869-0.47414-1.5457-0.50293zm-0.03855 2.8995c0.19126-1e-3 0.47525 0.0374 0.70518 0.12827 0.26229 0.10373 0.45927 0.26173 0.45926 0.26173 0 0-0.19792 0.15359-0.44898 0.25575-0.22875 0.093-0.5028 0.13539-0.6949 0.13506-0.19484-1.7e-4 -0.52721-0.0624-0.75744-0.1574-0.24357-0.10047-0.37958-0.23351-0.37958-0.23351s0.15858-0.13936 0.42156-0.24547c0.214-0.0865 0.51806-0.14334 0.6949-0.14451z"/><path d="m46.741 159.85v1.0486h1.0462v-1.0486zm8.8649 1.5575c-0.66209 0-1.2222 0.23112-1.6811 0.69195-0.45894 0.46085-0.6889 1.0214-0.6889 1.6816 0 0.66635 0.23356 1.2293 0.70004 1.6901 0.47398 0.45461 1.0494 0.68255 1.7265 0.68255 0.69216 0 1.2281-0.36836 1.5106-0.61155l-0.70517-0.78775c-0.30095 0.23663-0.49696 0.33699-0.80543 0.33699-0.24076 0-0.5345-0.0334-0.76773-0.20783-0.2257-0.1744-0.36198-0.27026-0.50296-0.57649h3.5105l0.05827-0.51662c-0.0075-0.59161-0.15696-1.0262-0.54066-1.5182-0.3837-0.49197-1.0315-0.85825-1.8139-0.86473zm15.004 0c-0.66209 0-1.223 0.23112-1.682 0.69195-0.45893 0.46085-0.68804 1.0214-0.68804 1.6816 0 0.66635 0.23272 1.2293 0.69918 1.6901 0.47398 0.45461 1.0503 0.68255 1.7274 0.68255 0.69216 0 1.2273-0.36836 1.5098-0.61155l-0.70518-0.78775c-0.30095 0.23663-0.4961 0.33699-0.80457 0.33699-0.24076 0-0.5345-0.0334-0.76773-0.20783-0.22571-0.1744-0.36284-0.27026-0.50382-0.57649h3.5113l0.05738-0.51662c-0.0075-0.59161-0.15695-1.0262-0.54066-1.5182-0.3837-0.49197-1.0306-0.85825-1.8131-0.86473zm-19.415 0.0196c-0.18283 5e-3 -0.44676 0.0518-0.65377 0.12237-0.20058 0.0683-0.34702 0.16088-0.34702 0.16088v-0.15046l-1.0488-6e-3v4.6059h1.0488l0.0041-2.743s0.01525-0.22113 0.15424-0.43619c0.12132-0.18768 0.35522-0.3672 0.51324-0.43023 0.16074-0.0641 0.44161-0.0882 0.65891-0.0327 0.22263 0.0569 0.38044 0.19416 0.38044 0.19416l0.65034-0.81855s-0.25732-0.20627-0.60321-0.33955c-0.24579-0.0947-0.55842-0.13093-0.75744-0.1258zm-4.4538 1e-3v4.7282h1.0462v-4.7282zm18.252 4e-3c-0.36362 0-0.73047 0.11211-1.0548 0.27626-0.14396 0.0728-0.33604 0.21428-0.48754 0.34299-0.09142 0.0776-0.25277 0.25746-0.25277 0.25746s-0.29356-0.36218-0.73003-0.60216c-0.32416-0.1782-0.75913-0.24771-1.0385-0.27199-0.2383-0.0206-0.6007 0.04-0.88512 0.14632-0.28311 0.1056-0.48926 0.25658-0.48926 0.25658v-0.2737h-1.0393v4.5845h1.0393l6e-3 -2.4813s0.01917-0.15559 0.08226-0.32332c0.05966-0.15857 0.1608-0.32733 0.25362-0.42167 0.08535-0.0867 0.17632-0.176 0.28361-0.24292 0.19632-0.12249 0.42841-0.19264 0.6512-0.19671 0.19506-4e-3 0.40345 0.0355 0.58693 0.12224 0.15889 0.0752 0.29731 0.18916 0.41642 0.30877 0.08965 0.0901 0.19761 0.25439 0.25534 0.41142 0.07536 0.20567 0.08739 0.39942 0.08739 0.39942v2.424h1.0471v-2.3598s-0.0046-0.21217 0.07368-0.42682c0.07879-0.21601 0.24038-0.43521 0.37358-0.55765 0.16548-0.1521 0.38359-0.25121 0.61178-0.29594 0.09091-0.0171 0.18741-0.0149 0.27676-0.0221 0.1888-0.0149 0.46146 0.0719 0.68804 0.2215 0.15672 0.10347 0.27962 0.24508 0.38643 0.37378 0.14425 0.17391 0.21335 0.64322 0.21335 0.64322v2.424h1.0548l-0.01882-2.5318s-0.01114-0.20471-0.07625-0.44732c-0.0703-0.26201-0.18193-0.51515-0.34274-0.7313-0.20611-0.27705-0.46761-0.52836-0.77201-0.69196-0.3641-0.19562-0.78691-0.3139-1.2004-0.3139zm8.8811 0.11986v1.0187h2.5525l-2.5525 2.5506v1.0255h4.3459v-1.0255h-2.5517l2.5517-2.5506v-1.0187zm-18.249 0.90921c0.14114-4e-3 0.35171 0.0467 0.52952 0.13175 0.13498 0.0646 0.24526 0.15508 0.32646 0.22239 0.19557 0.15574 0.32046 0.43878 0.32046 0.43878l-2.4103-4.5e-4s0.14885-0.30167 0.34445-0.46358c0.10497-0.0868 0.25239-0.18382 0.42071-0.24635 0.15744-0.0583 0.33414-0.0845 0.46869-0.0821zm15.004 0c0.14114-4e-3 0.35172 0.0467 0.52952 0.13175 0.13498 0.0646 0.2444 0.15508 0.3256 0.22239 0.19556 0.15574 0.32131 0.43878 0.32131 0.43878l-2.4111-4.5e-4s0.14883-0.30167 0.34444-0.46358c0.10497-0.0868 0.25238-0.18382 0.4207-0.24635 0.15744-0.0583 0.33501-0.0845 0.46955-0.0821z" stroke-width=".393"/></g></g></svg>