<?xml version="1.0" encoding="UTF-8" standalone="no"?>
<svg
   xmlns:dc="http://purl.org/dc/elements/1.1/"
   xmlns:cc="http://creativecommons.org/ns#"
   xmlns:rdf="http://www.w3.org/1999/02/22-rdf-syntax-ns#"
   xmlns:svg="http://www.w3.org/2000/svg"
   xmlns="http://www.w3.org/2000/svg"
   xmlns:sodipodi="http://sodipodi.sourceforge.net/DTD/sodipodi-0.dtd"
   xmlns:inkscape="http://www.inkscape.org/namespaces/inkscape"
   sodipodi:docname="Turkey_road_sign_B-14f.svg"
   inkscape:version="1.0 (4035a4fb49, 2020-05-01)"
   id="svg9959"
   version="1.1"
   viewBox="0 0 77.445999 121.4474"
   height="121.4474mm"
   width="77.445999mm">
  <defs
     id="defs9953" />
  <sodipodi:namedview
     inkscape:window-maximized="0"
     inkscape:window-y="0"
     inkscape:window-x="224"
     inkscape:window-height="1030"
     inkscape:window-width="1424"
     showgrid="false"
     inkscape:document-rotation="0"
     inkscape:current-layer="layer1"
     inkscape:document-units="mm"
     inkscape:cy="381.11953"
     inkscape:cx="312.64672"
     inkscape:zoom="0.58689861"
     inkscape:pageshadow="2"
     inkscape:pageopacity="0.0"
     borderopacity="1.0"
     bordercolor="#666666"
     pagecolor="#ffffff"
     id="base" />
  <metadata
     id="metadata9956">
    <rdf:RDF>
      <cc:Work
         rdf:about="">
        <dc:format>image/svg+xml</dc:format>
        <dc:type
           rdf:resource="http://purl.org/dc/dcmitype/StillImage" />
        <dc:title></dc:title>
      </cc:Work>
    </rdf:RDF>
  </metadata>
  <g
     transform="translate(77.516238,-69.882863)"
     id="layer1"
     inkscape:groupmode="layer"
     inkscape:label="Layer 1">
    <path
       id="path9217"
       style="opacity:1;fill:#ffffff;fill-rule:evenodd;stroke:#000000;stroke-width:0.502707;stroke-linecap:square;stroke-linejoin:round;stroke-miterlimit:2;stroke-opacity:1;paint-order:stroke fill markers"
       d="m -70.895951,70.134217 h 64.2054246 c 3.5283876,0 6.36893495,2.836138 6.36893495,6.359051 V 184.71985 c 0,3.52293 -2.84054735,6.35906 -6.36893495,6.35906 H -70.895951 c -3.528389,0 -6.368933,-2.83613 -6.368933,-6.35906 V 76.493268 c 0,-3.522913 2.840544,-6.359051 6.368933,-6.359051 z"
       sodipodi:nodetypes="sssssssss" />
    <path
       d="m -70.736441,71.365322 c -2.917339,0 -5.29866,2.377609 -5.29866,5.290433 V 184.6534 c 0,2.91282 2.381321,5.29044 5.29866,5.29044 h 63.8923521 c 2.917341,0 5.298655,-2.37763 5.298655,-5.29044 V 76.655755 c 0,-2.912824 -2.381309,-5.290433 -5.298655,-5.290433 z m 0,2.101973 h 63.8923521 c 1.7871829,0 3.192563,1.404041 3.192563,3.18846 V 159.82069 H -73.929863 V 76.655755 c 0,-1.784415 1.406253,-3.18846 3.193422,-3.18846 z m 44.268294,5.069712 -3.296234,8.24535 1.585142,0.01109 0.655473,-1.619469 3.689526,-0.0068 0.692319,1.633153 1.640838,-0.01799 -3.298808,-8.245349 z m -32.661631,0.0154 3.411913,4.982456 v 3.321064 h 1.487463 v -3.319358 l 3.406764,-4.984166 h -1.810487 l -2.345148,3.426295 -2.34344,-3.426295 z m 19.565791,0 3.412767,4.982456 v 3.321064 h 1.486609 v -3.319358 l 3.406765,-4.984166 h -1.810489 l -2.345151,3.426295 -2.343441,-3.426295 z m -6.449385,0.006 -3.29624,8.24535 1.58514,0.01109 0.655481,-1.619469 3.689526,-0.0068 0.692319,1.633158 1.639979,-0.01799 -3.29795,-8.245344 z m 20.382349,1.93858 1.264694,3.162793 -2.559368,0.018 z m -19.545224,0.02137 1.263832,3.162798 -2.558507,0.01799 z m 35.3212453,10.438861 v 1.491141 h 1.4883168 v -1.491182 z m -48.7863813,0.332747 v 1.524507 l 1.530303,-0.01291 v -1.511676 z m 3.798341,0 v 1.521944 l 1.5423,0.01291 v -1.534774 z m 37.953437,1.923174 c -0.422366,0.003 -0.801744,0.05612 -1.177291,0.184786 -0.514787,0.176362 -1.062437,0.3865 -1.428337,0.788776 -0.367884,0.404448 -0.625884,0.958314 -0.652907,1.503978 -0.02636,0.53204 0.174781,1.091 0.488394,1.52194 0.257416,0.35372 0.662646,0.59604 1.065903,0.76653 0.33162,0.14018 0.706971,0.13806 1.063331,0.18992 0.623109,0.0907 1.684273,0.22424 2.052113,0.36273 0.108256,0.0407 0.218284,0.12433 0.281894,0.2019 0.131867,0.16082 0.212098,0.38703 0.190216,0.59373 -0.02633,0.24855 -0.162707,0.515 -0.372718,0.65103 -0.398145,0.257911 -0.933459,0.373671 -1.441196,0.389261 -0.793201,0.0243 -1.725191,-0.412231 -2.177209,-1.018051 l -1.149017,0.953031 c 1.082054,1.06945 1.917455,1.5476 3.305661,1.5476 1.041167,0 1.913515,-0.27729 2.489105,-0.77594 0.584066,-0.49863 0.810062,-1.085391 0.824276,-1.721271 0.01459,-0.65507 -0.226839,-1.3192 -0.768583,-1.80939 -0.533273,-0.49866 -1.649349,-0.55792 -2.834406,-0.77766 -0.490956,-0.093 -0.880613,-0.12762 -1.143011,-0.27974 -0.262412,-0.15213 -0.380208,-0.40177 -0.392435,-0.65617 -0.01227,-0.25428 0.13437,-0.523988 0.327314,-0.6904 0.375898,-0.324204 0.929151,-0.445517 1.425771,-0.434591 0.685055,0.01506 1.309238,0.148548 1.938157,0.68526 l 0.968221,-1.129269 c -0.807398,-0.716702 -1.86789,-1.054858 -2.883246,-1.047966 z m -19.863967,0.04531 c -1.045272,0 -1.936835,0.485354 -2.519094,1.177177 -0.635517,0.793163 -0.915096,1.846223 -0.915096,3.132003 0,1.21064 0.220553,2.18461 0.755725,2.969451 0.627163,0.91007 1.564744,1.38849 2.718732,1.38849 0.928199,0 1.662698,-0.32685 2.306603,-0.95304 0.652238,-0.6262 0.818115,-1.215501 0.818272,-1.326031 l 0.0032,-1.16178 v -1.39532 h -2.977493 l 5.7e-4,1.48858 h 1.551725 v 0.60912 c -0.133309,0.37465 -0.277288,0.63582 -0.611781,0.886301 -0.334486,0.25046 -0.681006,0.3499 -1.09075,0.3499 -0.710785,0 -1.272017,-0.2813 -1.606561,-0.899131 -0.267583,-0.48427 -0.383002,-1.15501 -0.383002,-1.95654 0,-0.82657 0.118536,-1.52636 0.478111,-2.05235 0.367939,-0.534367 0.926105,-0.77762 1.511452,-0.777659 0.719149,0 1.131666,0.326193 1.574863,0.960729 l 1.226129,-0.847803 c -0.492425,-0.771577 -1.394594,-1.592097 -2.841259,-1.592097 z m 13.942395,0.176242 -5.960139,0.01026 v 8.269309 l 5.960139,-0.006 v -1.48174 l -4.452107,0.007 -0.02228,-1.986481 2.820692,0.005 v -1.50569 l -2.820692,-0.004 0.02228,-1.815391 4.452107,-0.01026 z m 12.9561753,0.0094 v 8.270149 h 1.4883168 v -8.270151 z m -59.3648453,5.7e-4 v 8.269299 h 4.153926 c 0.428551,0 0.852941,-0.11521 1.273256,-0.34563 0.379106,-0.20571 0.62917,-0.49753 0.851695,-0.87603 0.230756,-0.38676 0.356441,-0.911511 0.356441,-1.331171 -0.0041,-0.44147 -0.184401,-0.85539 -0.389858,-1.23534 -0.117723,-0.21774 -0.470402,-0.57491 -0.470402,-0.57491 0,0 0.519239,-0.65629 0.519239,-1.47916 0,-0.839309 -0.496724,-1.711402 -1.246689,-2.131058 -0.346151,-0.1975 -0.823624,-0.296 -1.433486,-0.296 z m 21.390842,0 v 8.269309 h 5.631967 v -1.48515 h -4.138502 v -6.784148 z m -8.097073,0.0368 c -1.074689,0 -1.920892,0.382506 -2.539657,1.148938 -0.618758,0.758191 -0.980268,1.71501 -0.98021,3.03362 0,1.16199 0.308352,1.91223 0.861973,2.703391 0.635042,0.91477 1.513773,1.37222 2.637334,1.37222 1.025835,0 1.844201,-0.39543 2.454823,-1.18658 0.618758,-0.799401 0.989646,-1.619881 0.989646,-2.913851 0,-1.26914 -0.354176,-2.209225 -0.981077,-2.983991 -0.618758,-0.782913 -1.433269,-1.173747 -2.442832,-1.173747 z m -11.79945,1.455206 h 2.429121 c 0.238997,0.01639 0.479925,0.123599 0.61178,0.263501 0.169092,0.187967 0.274509,0.385261 0.274187,0.607401 -4.39e-4,0.26863 -0.139261,0.54974 -0.33502,0.73402 -0.148564,0.13983 -0.316021,0.20345 -0.571513,0.21987 h -2.408555 z m 11.79945,0.0154 c 0.610622,0 1.130748,0.318637 1.392353,0.778512 0.341958,0.49447 0.537237,1.05988 0.537237,1.93344 0,0.77467 -0.167033,1.17858 -0.427562,1.66481 -0.280737,0.49166 -0.801848,0.906841 -1.502028,0.906841 -0.618758,0 -1.144243,-0.247261 -1.494319,-0.741731 -0.350099,-0.50271 -0.525233,-0.94811 -0.525233,-1.82992 0,-0.87356 0.216278,-1.47576 0.56636,-1.97023 0.350099,-0.494476 0.834434,-0.741722 1.453192,-0.741722 z m -11.800304,3.285992 2.611626,0.005 c 0.321419,0.008 0.57356,0.11971 0.754866,0.33365 0.189553,0.21395 0.278351,0.39287 0.283615,0.62024 0.0058,0.26619 -0.112069,0.54167 -0.301609,0.73916 -0.18131,0.197491 -0.415447,0.305091 -0.736872,0.296861 h -2.597061 z m -6.203481,62.686221 h 70.2783371 v 23.72911 c 0,1.78441 -1.4053801,3.18846 -3.192563,3.18846 H -70.736441 c -1.787169,0 -3.193422,-1.40405 -3.193422,-3.18846 z"
       style="color:#000000;font-style:normal;font-variant:normal;font-weight:normal;font-stretch:normal;font-size:medium;line-height:normal;font-family:sans-serif;font-variant-ligatures:normal;font-variant-position:normal;font-variant-caps:normal;font-variant-numeric:normal;font-variant-alternates:normal;font-variant-east-asian:normal;font-feature-settings:normal;font-variation-settings:normal;text-indent:0;text-align:start;text-decoration:none;text-decoration-line:none;text-decoration-style:solid;text-decoration-color:#000000;letter-spacing:normal;word-spacing:normal;text-transform:none;writing-mode:lr-tb;direction:ltr;text-orientation:mixed;dominant-baseline:auto;baseline-shift:baseline;text-anchor:start;white-space:normal;shape-padding:0;shape-margin:0;inline-size:0;clip-rule:nonzero;display:inline;overflow:visible;visibility:visible;opacity:1;isolation:auto;mix-blend-mode:normal;color-interpolation:sRGB;color-interpolation-filters:linearRGB;solid-color:#000000;solid-opacity:1;vector-effect:none;fill:#000000;fill-opacity:1;fill-rule:evenodd;stroke:none;stroke-width:1.27;stroke-linecap:square;stroke-linejoin:round;stroke-miterlimit:2;stroke-dasharray:none;stroke-dashoffset:0;stroke-opacity:1;paint-order:stroke fill markers;color-rendering:auto;image-rendering:auto;shape-rendering:auto;text-rendering:auto;enable-background:accumulate;stop-color:#000000;stop-opacity:1"
       id="path9219"
       sodipodi:nodetypes="ssssssssssssccsscccccccccccccccccccccccccccccccccccccccccccccccccccccccccccccssssssssssssccscsccscssccsscscsccccccccsscscsccssccccccccccccccccccccscccscscsccccccccscscscscscccsscccscscscsssccccccccccssssc" />
    <path
       d="m -38.951282,165.80556 v 6.31447 h 1.041056 v -6.31447 z m -17.336312,0.1129 2.544803,3.7163 v 2.4767 h 1.108737 v -2.47498 l 2.54137,-3.71802 h -1.350374 l -1.749652,2.55538 -1.74794,-2.55538 z m 12.289563,0.0694 v 6.13225 h 0.981071 v -1.71872 l 0.412996,-0.34732 1.553444,2.06604 h 1.22184 l -2.027267,-2.7034 2.027267,-1.71528 h -1.51317 l -1.67511,1.41415 v -3.12772 z m -5.566847,0.0149 v 1.042 h 1.047052 v -1.042 z m 3.649255,0 v 1.042 h 1.040196 v -1.042 z m 11.486711,1.33201 c -0.662084,0 -1.222168,0.23033 -1.681111,0.69126 -0.458939,0.46094 -0.688031,1.02164 -0.688031,1.68192 -1.9e-5,0.66647 0.232709,1.23038 0.699168,1.69133 0.473998,0.4547 1.049396,0.68183 1.726524,0.68183 0.692156,0 1.228129,-0.36843 1.510598,-0.61169 l -0.705177,-0.78706 c -0.300947,0.23669 -0.496951,0.33708 -0.805421,0.33708 -0.240757,0 -0.534492,-0.0343 -0.767721,-0.20874 -0.225709,-0.17444 -0.361979,-0.26945 -0.50296,-0.57577 h 3.510444 l 0.05826,-0.51672 c -0.0075,-0.59174 -0.156953,-1.02644 -0.540664,-1.51852 -0.3837,-0.49207 -1.031465,-0.85843 -1.813913,-0.86492 z m 15.004011,0 c -0.662084,0 -1.223022,0.23033 -1.681967,0.69126 -0.458937,0.46094 -0.688038,1.02164 -0.688038,1.68192 0,0.66647 0.233563,1.23038 0.700036,1.69133 0.473975,0.4547 1.04939,0.68183 1.726512,0.68183 0.692162,0 1.227273,-0.36843 1.509743,-0.61169 l -0.705169,-0.78706 c -0.300947,0.23669 -0.496099,0.33708 -0.804574,0.33708 -0.240757,0 -0.534493,-0.0343 -0.767723,-0.20874 -0.225702,-0.17444 -0.362834,-0.26945 -0.503814,-0.57577 h 3.511305 l 0.05827,-0.51672 c -0.0075,-0.59174 -0.157816,-1.02644 -0.541512,-1.51852 -0.383705,-0.49207 -1.030609,-0.85843 -1.813059,-0.86492 z m -5.61655,0.024 c -0.363612,0 -0.730469,0.11125 -1.054755,0.27547 -0.143954,0.0728 -0.336047,0.2152 -0.487538,0.34392 -0.09143,0.0776 -0.251915,0.25665 -0.251915,0.25665 0,0 -0.294414,-0.36138 -0.730875,-0.60141 -0.324161,-0.17825 -0.759135,-0.24776 -1.038484,-0.27205 -0.238288,-0.0207 -0.600688,0.0401 -0.885106,0.14635 -0.283114,0.10562 -0.489254,0.25579 -0.489254,0.25579 v -0.27376 h -1.039342 v 4.58637 h 1.039342 l 0.006,-2.48269 c 0,0 0.01917,-0.15479 0.08226,-0.32252 0.05966,-0.1586 0.1608,-0.32739 0.25362,-0.42176 0.08536,-0.0867 0.176313,-0.17604 0.283611,-0.24296 0.19633,-0.12251 0.428401,-0.19268 0.65119,-0.19677 0.195064,-0.003 0.403446,0.0356 0.586931,0.12234 0.158894,0.0752 0.297311,0.18919 0.416426,0.30883 0.08963,0.0901 0.198454,0.25445 0.256187,0.41149 0.07536,0.20573 0.0874,0.39953 0.0874,0.39953 v 2.42451 h 1.046192 v -2.36035 c 0,0 -0.0046,-0.21304 0.07368,-0.42774 0.07879,-0.21608 0.240385,-0.43447 0.373578,-0.55693 0.165475,-0.15214 0.383593,-0.25127 0.611782,-0.29602 0.09093,-0.0172 0.187417,-0.0149 0.276755,-0.0222 0.188798,-0.0149 0.461458,0.0712 0.688037,0.22073 0.156721,0.10347 0.279621,0.24598 0.386436,0.37471 0.144269,0.17394 0.213352,0.64334 0.213352,0.64334 v 2.4245 h 1.054754 l -0.0189,-2.53229 c -8e-6,0 -0.01111,-0.20563 -0.07625,-0.44829 -0.07032,-0.26205 -0.181928,-0.51524 -0.342737,-0.73145 -0.206105,-0.27711 -0.4676,-0.52762 -0.772006,-0.69125 -0.364101,-0.19567 -0.786906,-0.31397 -1.200423,-0.31397 z m -24.523427,0.2079 -0.0068,2.35776 c -0.0018,0.52153 0.236534,1.14872 0.622063,1.58953 0.391758,0.44081 1.01981,0.79686 1.691383,0.80931 0.528572,0 1.023068,-0.11572 1.342657,-0.33023 v 0.12748 h 1.040202 v -4.55385 h -1.039342 v 2.41166 c -0.0061,0.34148 -0.196619,0.69596 -0.426702,0.90084 -0.22386,0.19868 -0.581498,0.33556 -0.879971,0.32937 -0.342003,0 -0.707094,-0.16704 -0.918523,-0.37814 -0.205207,-0.21109 -0.376914,-0.59449 -0.377006,-0.88629 l -0.0012,-2.37744 z m 15.155672,0.82129 c 0.141135,-0.003 0.352573,0.0465 0.530381,0.13178 0.134984,0.0646 0.244394,0.15512 0.325596,0.22243 0.195563,0.15578 0.320453,0.43803 0.320453,0.43803 h -2.410267 c 0,0 0.148828,-0.30175 0.344443,-0.46369 0.104972,-0.0869 0.252385,-0.18386 0.420706,-0.24639 0.157434,-0.0583 0.334142,-0.0844 0.468688,-0.0821 z m 15.004011,0 c 0.141135,-0.003 0.351714,0.0465 0.529517,0.13178 0.134984,0.0646 0.245259,0.15512 0.326459,0.22243 0.195568,0.15578 0.320455,0.43803 0.320455,0.43803 h -2.411131 c 0,0 0.148829,-0.30175 0.344444,-0.46369 0.104972,-0.0869 0.252392,-0.18386 0.420713,-0.24639 0.157434,-0.0583 0.334994,-0.0844 0.469543,-0.0821 z m 4.099942,8.49 v 1.04885 h 1.047051 v -1.04885 z m -32.119254,0.0265 v 6.31446 h 1.041055 v -6.31446 z m -18.497315,0.054 -2.487393,6.22379 1.196145,0.008 0.495245,-1.22252 2.784711,-0.005 0.522667,1.23279 1.238125,-0.0133 -2.489961,-6.22465 z m 34.944233,0.001 v 6.28539 h 1.132733 v -2.51432 h 2.766715 v 2.51432 l 1.125881,-4.3e-4 0.0018,-6.28453 h -1.127597 v 2.51176 h -2.766783 v -2.51176 z m -34.311892,1.47831 0.954508,2.38771 -1.931297,0.0132 z m 49.984228,0.0205 v 4.72924 h 1.047051 v -4.72924 z m -40.187199,0.0376 c -0.307778,-0.0149 -0.807556,0.0445 -1.19785,0.14287 -0.496525,0.12499 -0.855978,0.29771 -0.855978,0.29771 l 0.444694,0.98982 c 0,0 0.283131,-0.15628 0.796005,-0.26008 0.149707,-0.0303 0.368565,-0.0593 0.554369,-0.0745 0.114888,-0.01 0.230954,-0.0149 0.346156,-0.01 0.09345,0.003 0.19026,-0.001 0.279329,0.0273 0.249513,0.0795 0.52728,0.17849 0.681186,0.3901 0.06263,0.0861 0.12807,0.24732 0.14994,0.38241 0.01426,0.0881 -0.01376,0.26691 -0.01376,0.26691 0,0 -0.246468,-0.10777 -0.556944,-0.18136 -0.259973,-0.0616 -0.570016,-0.0942 -0.774572,-0.0719 -0.193688,0.0212 -0.387522,0.0431 -0.584364,0.0907 -0.521905,0.12632 -1.032585,0.38375 -1.376068,0.7691 -0.167373,0.18777 -0.220609,0.45985 -0.215928,0.70579 0.0035,0.18641 0.06763,0.38305 0.184217,0.5287 0.101673,0.12698 0.215291,0.22503 0.342736,0.31311 0.269911,0.18652 0.578848,0.34308 0.878251,0.44572 0.373351,0.12814 0.783679,0.15297 1.177292,0.12317 0.32359,-0.0245 0.941657,-0.24639 0.941657,-0.24639 v 0.12235 h 1.100175 v -2.80691 c 0,-0.5754 -0.286061,-1.06571 -0.70517,-1.42613 -0.419122,-0.36042 -1.01026,-0.4887 -1.595424,-0.51843 z m 12.283565,0 c -0.30778,-0.0149 -0.807557,0.0445 -1.197852,0.14287 -0.496526,0.12499 -0.855978,0.29771 -0.855978,0.29771 l 0.444694,0.98982 c 0,0 0.283131,-0.15628 0.796005,-0.26008 0.149707,-0.0303 0.368565,-0.0593 0.554368,-0.0745 0.114888,-0.01 0.230955,-0.0149 0.346156,-0.01 0.09345,0.003 0.190261,-0.001 0.27933,0.0273 0.249513,0.0795 0.52728,0.17849 0.681188,0.3901 0.06262,0.0861 0.128069,0.24732 0.149939,0.38241 0.01426,0.0881 -0.01376,0.26691 -0.01376,0.26691 0,0 -0.246467,-0.10777 -0.556943,-0.18136 -0.259973,-0.0616 -0.570016,-0.0942 -0.774571,-0.0719 -0.19369,0.0212 -0.387524,0.0431 -0.584365,0.0907 -0.521905,0.12632 -1.032585,0.38375 -1.376069,0.7691 -0.167372,0.18777 -0.220608,0.45985 -0.215927,0.70579 0.0035,0.18641 0.06763,0.38305 0.184218,0.5287 0.101673,0.12698 0.21529,0.22503 0.342734,0.31311 0.269911,0.18652 0.578849,0.34308 0.878252,0.44572 0.37335,0.12814 0.783679,0.15297 1.177292,0.12317 0.32359,-0.0245 0.941658,-0.24639 0.941658,-0.24639 v 0.12235 h 1.100174 v -2.80691 c 0,-0.5754 -0.286061,-1.06571 -0.705171,-1.42613 -0.419119,-0.36042 -1.010258,-0.4887 -1.595423,-0.51843 z m -16.030495,0.0132 c -0.182832,0.005 -0.44676,0.0518 -0.653767,0.12235 -0.200572,0.0684 -0.347016,0.16074 -0.347016,0.16074 v -0.15048 l -1.048765,-0.007 v 4.60689 h 1.048765 l 0.0046,-2.74275 c 0,0 0.01608,-0.22205 0.155096,-0.43717 0.121322,-0.1877 0.355223,-0.36725 0.513242,-0.43031 0.160734,-0.0641 0.440753,-0.0882 0.658048,-0.0326 0.222632,0.057 0.38044,0.1942 0.38044,0.1942 l 0.650333,-0.81871 c 0,0 -0.256457,-0.20634 -0.602356,-0.33964 -0.245783,-0.0947 -0.559272,-0.13095 -0.758294,-0.12582 z m 21.32144,0 c -0.182831,0.005 -0.447619,0.0518 -0.654621,0.12235 -0.200572,0.0684 -0.347015,0.16074 -0.347015,0.16074 v -0.15048 l -1.048765,-0.007 v 4.60689 h 1.048765 l 0.0041,-2.74275 c 0,0 0.01608,-0.22205 0.155096,-0.43717 0.121322,-0.1877 0.355218,-0.36725 0.513242,-0.43031 0.160734,-0.0641 0.440753,-0.0882 0.658048,-0.0326 0.222631,0.057 0.380434,0.1942 0.380434,0.1942 l 0.650339,-0.81871 c 0,0 -0.256457,-0.20634 -0.602356,-0.33964 -0.245783,-0.0947 -0.558418,-0.13095 -0.75744,-0.12582 z m 20.399489,0 c -0.182833,0.005 -0.447614,0.0518 -0.654622,0.12235 -0.200573,0.0684 -0.347015,0.16074 -0.347015,0.16074 v -0.14965 l -1.048765,-0.008 v 4.60688 h 1.048765 l 0.004,-2.74274 c 0,0 0.01608,-0.2212 0.15508,-0.4363 0.121321,-0.1877 0.355224,-0.36814 0.513241,-0.43118 0.160734,-0.0641 0.440753,-0.0882 0.658048,-0.0326 0.222632,0.057 0.38044,0.1942 0.38044,0.1942 l 0.650337,-0.81872 c 0,0 -0.256459,-0.20633 -0.60236,-0.33963 -0.245781,-0.0947 -0.558411,-0.13095 -0.75744,-0.12582 z m -18.324234,0.007 v 4.7044 h 1.04105 v -4.7044 z m -14.204589,0.005 c -0.368407,0 -0.6905,0.0783 -0.985358,0.2156 -0.24941,0.11605 -0.480971,0.27208 -0.684609,0.47736 -0.444374,0.44801 -0.684604,0.98532 -0.684604,1.66653 0,0.68119 0.249655,1.22366 0.694032,1.67164 0.226252,0.22498 0.475907,0.40078 0.756585,0.5193 0.120907,0.051 0.247584,0.0915 0.380429,0.12068 0.0012,2.9e-4 0.0018,1.10189 0.0018,1.10189 h 1.047052 c 0,0 -0.0018,-1.10316 0,-1.10361 0.503111,-0.11108 0.9496,-0.38747 1.321237,-0.8247 l -0.816564,-0.65618 c -0.355944,0.37079 -0.581499,0.44757 -0.992215,0.47823 -0.183492,0 -0.388493,-0.0326 -0.568079,-0.11208 -0.169666,-0.0752 -0.315489,-0.19387 -0.426702,-0.31312 -0.222192,-0.24548 -0.341875,-0.50595 -0.341875,-0.88031 0,-0.38049 0.13767,-0.65724 0.359868,-0.89657 0.228919,-0.24548 0.601093,-0.4038 0.957942,-0.4038 0.410715,0.0184 0.749859,0.17989 1.011061,0.48507 l 0.819992,-0.65788 c -0.452089,-0.5646 -1.129469,-0.88801 -1.849905,-0.88801 z m 39.176139,0 c -0.368409,0 -0.690504,0.0783 -0.98536,0.2156 -0.24941,0.11605 -0.480973,0.27208 -0.684608,0.47736 -0.44438,0.44801 -0.684612,0.98532 -0.684612,1.66653 0,0.68119 0.249655,1.22366 0.69404,1.67164 0.226246,0.22498 0.475914,0.40078 0.756579,0.5193 0.120924,0.051 0.247584,0.0915 0.380435,0.12068 0.0013,2.9e-4 0.0018,1.10189 0.0018,1.10189 h 1.047053 c 0,0 -0.0018,-1.10316 0,-1.10361 0.5031073,-0.11108 0.9495934,-0.38747 1.3212374,-0.8247 l -0.8174188,-0.65618 c -0.3559416,0.37079 -0.5806396,0.44757 -0.9913626,0.47823 -0.183486,0 -0.388495,-0.0326 -0.568079,-0.11208 -0.169662,-0.0752 -0.315482,-0.19387 -0.4267,-0.31312 -0.222194,-0.24548 -0.342734,-0.50595 -0.342734,-0.88031 0,-0.38049 0.137686,-0.65724 0.359873,-0.89657 0.228912,-0.24548 0.601952,-0.4038 0.95879,-0.4038 0.410726,0.0184 0.748998,0.17989 1.0102126,0.48507 l 0.8199855,-0.65788 c -0.4520888,-0.5646 -1.1286011,-0.88801 -1.8490461,-0.88801 z m -11.807167,0.0924 c -0.299859,-0.0149 -0.786763,0.0437 -1.167004,0.13939 -0.483749,0.12185 -0.834555,0.29003 -0.834555,0.29003 l 0.433558,0.96501 c 0,0 0.276617,-0.15297 0.776291,-0.25409 0.14586,-0.0295 0.35878,-0.0571 0.539805,-0.0719 0.11192,-0.01 0.224495,-0.0149 0.336732,-0.01 0.09105,0.003 0.184845,-0.001 0.271621,0.0265 0.243095,0.0775 0.514953,0.17368 0.664899,0.37984 0.061,0.0839 0.124372,0.2414 0.145662,0.373 0.01393,0.0857 -0.01376,0.26008 -0.01376,0.26008 0,0 -0.239038,-0.10529 -0.541517,-0.17709 -0.253296,-0.0601 -0.555576,-0.091 -0.754873,-0.0694 -0.188706,0.0207 -0.378031,0.0417 -0.569796,0.0881 -0.508473,0.12301 -1.006291,0.37398 -1.340944,0.74942 -0.163088,0.18295 -0.214019,0.44736 -0.209917,0.68698 0.0035,0.18161 0.06549,0.37312 0.179077,0.51501 0.09907,0.12367 0.209997,0.2196 0.334165,0.30541 0.262961,0.18172 0.563414,0.33375 0.855117,0.43374 0.363746,0.12433 0.76381,0.14966 1.147302,0.12068 0.315261,-0.0238 0.91767,-0.23955 0.91767,-0.23955 v 0.11887 h 1.071899 v -2.73504 c 0,-0.5606 -0.279715,-1.0382 -0.688037,-1.38934 -0.408337,-0.35114 -0.983347,-0.47662 -1.553446,-0.50561 z m -32.854414,2.87536 c 0.197369,-0.001 0.491045,0.0387 0.728304,0.1326 0.270672,0.10711 0.473831,0.27036 0.473831,0.27036 0,0 -0.203621,0.1581 -0.462694,0.26349 -0.236042,0.096 -0.518932,0.14055 -0.717167,0.14039 -0.201058,-1.8e-4 -0.5447,-0.0646 -0.782287,-0.16257 -0.251351,-0.10364 -0.391571,-0.24124 -0.391571,-0.24124 0,0 0.163884,-0.1437 0.435266,-0.25324 0.220834,-0.0891 0.533837,-0.1485 0.716318,-0.14966 z m 12.283564,0 c 0.197368,-0.001 0.491044,0.0387 0.728304,0.1326 0.270671,0.10711 0.47383,0.27036 0.47383,0.27036 0,0 -0.203622,0.1581 -0.462694,0.26349 -0.236042,0.096 -0.518932,0.14055 -0.717167,0.14039 -0.201058,-1.8e-4 -0.544698,-0.0646 -0.782287,-0.16257 -0.251351,-0.10364 -0.391571,-0.24124 -0.391571,-0.24124 0,0 0.163884,-0.1437 0.435266,-0.25324 0.220836,-0.0891 0.533837,-0.1485 0.716319,-0.14966 z m 20.531437,0.0402 c 0.192291,-0.001 0.478305,0.0377 0.709464,0.12912 0.263696,0.1043 0.461826,0.26265 0.461826,0.26265 0,0 -0.198292,0.15479 -0.450687,0.25751 -0.22998,0.0935 -0.506044,0.13625 -0.699177,0.13609 -0.195888,-1.7e-4 -0.530263,-0.0627 -0.761726,-0.15827 -0.244877,-0.10099 -0.381295,-0.23526 -0.381295,-0.23526 0,0 0.159739,-0.13973 0.424135,-0.24639 0.215142,-0.0867 0.519669,-0.1442 0.69746,-0.14552 z"
       style="font-style:normal;font-variant:normal;font-weight:normal;font-stretch:normal;font-size:30px;line-height:1.15;font-family:'Highway Gothic Wide';-inkscape-font-specification:'Highway Gothic Wide';opacity:1;fill:#000000;fill-opacity:1;stroke:none;stroke-width:0.264582;stroke-opacity:1"
       id="path9225" />
    <path
       d="m -38.811319,107.56461 c -13.417969,0 -24.295227,10.86077 -24.295164,24.25788 -6.3e-5,13.39709 10.877195,24.25759 24.295164,24.25786 13.418067,7e-5 24.295578,-10.86063 24.295553,-24.25786 2.5e-5,-13.39727 -10.877486,-24.25796 -24.295553,-24.25788 z m -0.05299,5.89023 c 0.01393,-3e-5 0.02767,-3e-5 0.04094,0 10.157811,3e-5 18.392198,8.22213 18.392233,18.36422 -2.5e-5,4.37697 -1.53602,8.39432 -4.096089,11.54943 l -25.876997,-25.81268 c 3.151846,-2.5544 7.165049,-4.09119 11.539729,-4.10097 z m -14.234351,6.78747 25.862809,25.83514 c -3.163015,2.56568 -7.194502,4.10529 -11.587361,4.10531 -10.157816,-3e-5 -18.392225,-8.22168 -18.39229,-18.3637 1.8e-5,-4.38873 1.543693,-8.41731 4.116842,-11.57675 z"
       style="color:#000000;font-style:normal;font-variant:normal;font-weight:normal;font-stretch:normal;font-size:medium;line-height:normal;font-family:sans-serif;font-variant-ligatures:normal;font-variant-position:normal;font-variant-caps:normal;font-variant-numeric:normal;font-variant-alternates:normal;font-variant-east-asian:normal;font-feature-settings:normal;font-variation-settings:normal;text-indent:0;text-align:start;text-decoration:none;text-decoration-line:none;text-decoration-style:solid;text-decoration-color:#000000;letter-spacing:normal;word-spacing:normal;text-transform:none;writing-mode:lr-tb;direction:ltr;text-orientation:mixed;dominant-baseline:auto;baseline-shift:baseline;text-anchor:start;white-space:normal;shape-padding:0;shape-margin:0;inline-size:0;clip-rule:nonzero;display:inline;overflow:visible;visibility:visible;opacity:1;isolation:auto;mix-blend-mode:normal;color-interpolation:sRGB;color-interpolation-filters:linearRGB;solid-color:#000000;solid-opacity:1;vector-effect:none;fill:#ed232a;fill-opacity:1;fill-rule:evenodd;stroke:none;stroke-width:1.69334;stroke-linecap:square;stroke-linejoin:round;stroke-miterlimit:2;stroke-dasharray:none;stroke-dashoffset:0;stroke-opacity:1;paint-order:stroke fill markers;color-rendering:auto;image-rendering:auto;shape-rendering:auto;text-rendering:auto;enable-background:accumulate;stop-color:#000000;stop-opacity:1"
       id="path82352-0" />
    <path
       id="rect18972"
       style="font-size:30px;line-height:1.15;font-family:'ALS Direct';-inkscape-font-specification:'ALS Direct';opacity:1;fill:#000000;fill-opacity:1;fill-rule:evenodd;stroke:none;stroke-width:2.69998;stroke-linecap:round;stroke-linejoin:round;stroke-miterlimit:10"
       d="m -30.173879,121.83712 c -0.429451,0.003 -0.822728,0.0167 -1.287822,0.0599 -0.721594,0.0672 -1.653864,0.20994 -2.16693,0.34646 -0.413017,0.10993 -0.594644,0.46113 -0.594644,0.46113 l -1.168721,2.61612 c 0,0 -0.10295,0.15214 -0.163652,0.22073 -0.03832,0.0432 -0.125947,0.11986 -0.125947,0.11986 0,0 -0.165244,0.0942 -0.227065,0.16422 -0.07277,0.0824 -0.158512,0.28915 -0.158512,0.28915 l -0.02481,0.55438 0.04714,0.65275 0.04369,1.62545 c 1.11e-4,0.18222 0.11396,0.32865 0.296467,0.32852 h 0.03943 l -0.0018,1.13183 h 0.0018 v 0.0591 c 0,0.24613 0.198182,0.44401 0.444694,0.44401 h 1.190144 c 0.246507,0 0.444694,-0.19788 0.444694,-0.44401 v -0.62366 -0.12317 l 4.39e-4,-0.44058 h 6.715002 v 1.22507 c 0,0.22449 0.181288,0.40552 0.406148,0.40552 h 1.262965 c 0.224855,0 0.406143,-0.18103 0.406143,-0.40552 v -1.25159 h 0.0068 c 0.182516,0 0.307691,-0.0983 0.307598,-0.2806 l 0.05054,-1.64941 0.0326,-0.68013 c 0,0 0.01913,-0.2848 0.0053,-0.42605 -0.006,-0.0594 -0.03769,-0.17538 -0.03769,-0.17538 0,0 -0.04702,-0.12665 -0.0874,-0.17965 -0.07339,-0.0962 -0.261333,-0.2233 -0.261333,-0.2233 0,0 -0.11517,-0.0798 -0.161098,-0.12664 -0.07854,-0.08 -0.196213,-0.27377 -0.196213,-0.27377 l -1.053043,-2.41937 c 0,0 -0.125815,-0.44793 -0.652056,-0.60227 -0.567044,-0.16633 -1.493352,-0.2892 -2.258615,-0.34305 -0.433538,-0.0305 -0.716052,-0.0384 -1.074468,-0.0359 z m 0.02141,0.78365 c 0.474067,-0.002 1.301343,0.0573 1.946721,0.13774 0.302575,0.0377 0.90054,0.16075 0.90054,0.16075 0,0 0.116761,0.0349 0.219348,0.0942 0.04744,0.0273 0.08988,0.0712 0.119945,0.0992 0.03475,0.0324 0.08081,0.0892 0.112252,0.14121 0.03404,0.0561 0.05142,0.10612 0.05142,0.10612 l 0.883393,2.1054 c 0,0 -0.659587,-0.12416 -1.498603,-0.2096 -0.884982,-0.0902 -1.969739,-0.14155 -2.688739,-0.14204 -0.733202,0 -1.841106,0.0639 -2.741017,0.15479 -0.841862,0.0851 -1.736794,0.23696 -1.736794,0.23696 l 0.93395,-2.14561 c 0,0 0.03124,-0.0798 0.08312,-0.1523 0.03734,-0.0521 0.0909,-0.0957 0.128517,-0.12665 0.03452,-0.0285 0.08625,-0.0623 0.13966,-0.0864 0.0706,-0.0319 0.139659,-0.0505 0.139659,-0.0505 0,0 0.840811,-0.1432 1.580856,-0.23612 0.495356,-0.0623 1.047661,-0.0853 1.425771,-0.0872 z m -4.781986,4.17742 c 0.341882,0 0.618624,0.27973 0.618636,0.62453 -1.2e-5,0.34477 -0.276754,0.62452 -0.618636,0.6245 -0.341882,2e-5 -0.619483,-0.27973 -0.619494,-0.6245 1.1e-5,-0.3448 0.277612,-0.62453 0.619494,-0.62453 z m 9.40974,0 c 0.341883,0 0.619491,0.27973 0.619491,0.62453 0,0.34477 -0.277608,0.62452 -0.619491,0.6245 -0.341874,2e-5 -0.618623,-0.27973 -0.618636,-0.6245 1.3e-5,-0.3448 0.276762,-0.62453 0.618636,-0.62453 z m -8.099646,0.20875 h 6.780124 v 0.25922 c 0,0.68301 -0.551484,1.23278 -1.235552,1.23278 h -4.309876 c -0.684071,0 -1.234696,-0.54977 -1.234696,-1.23278 z m -9.680506,8.55246 c -0.655906,0 -1.184135,0.52652 -1.18414,1.18061 v 0.0684 l 1.092465,0.003 0.03515,0.6921 -0.974221,0.56721 v 0.59028 l 2.214913,-1.37477 v -0.54498 c 0,-0.65409 -0.528234,-1.18145 -1.184142,-1.18145 z m 1.242412,2.07718 c -0.04235,0.001 -0.08735,0.007 -0.125947,0.017 -0.09204,0.0255 -0.155942,0.0753 -0.155942,0.0753 l -1.95273,1.29181 -1.142156,0.18479 -0.03855,-0.1694 -1.782217,0.43461 0.433557,1.00949 c 0,0 0.361247,-0.0205 0.712885,0.0916 0.416916,0.13293 0.852374,0.41826 1.105317,0.66902 0.252901,0.25071 0.469588,0.62771 0.607498,1.04541 0.119647,0.36239 0.07228,0.53986 0.177358,0.78792 0.07106,0.16762 0.164447,0.33504 0.299894,0.45684 0.131949,0.1187 0.301273,0.2019 0.473829,0.24382 0.02404,0.007 0.07368,0 0.07368,0 l 3.095745,0.007 c 0,0 -0.140887,-0.5535 -0.09597,-1.01548 0.05112,-0.52561 0.302275,-0.98519 0.561229,-1.31919 0.225129,-0.29036 0.648385,-0.62771 1.089031,-0.79475 0.441922,-0.16756 0.901392,-0.16506 0.901392,-0.16506 v -0.54495 l -1.85676,0.36101 -0.664044,-0.8247 -1.549155,1.25247 -1.17986,0.23097 c 0,0 -0.201252,0.0591 -0.272473,0.13012 -0.04825,0.048 -0.08826,0.18393 -0.08826,0.18393 l -0.09424,0.4423 c 0,0 -0.62624,-0.39965 -0.883399,-0.66301 -0.284769,-0.29168 -0.710312,-0.99496 -0.710312,-0.99496 l 0.969933,-0.15992 c 0,0 0.03339,-0.008 0.04885,-0.0132 0.02756,-0.008 0.07883,-0.0334 0.07883,-0.0334 l 1.077035,-0.67843 0.147386,0.148 0.743727,1.14895 1.526024,-1.23022 -1.068472,-1.36367 c 0,0 -0.07795,-0.099 -0.18165,-0.16853 -0.05153,-0.0346 -0.121321,-0.0569 -0.167081,-0.0659 -0.03006,-0.007 -0.07088,-0.008 -0.113097,-0.008 z m -4.757997,3.1645 c -1.240996,0 -2.254327,1.0116 -2.254327,2.24998 0,1.23838 1.013331,2.24997 2.254327,2.24997 1.241002,0 2.254326,-1.01157 2.254326,-2.24997 0,-1.23838 -1.013324,-2.24998 -2.254326,-2.24998 z m 9.002753,0 c -1.241002,0 -2.253474,1.0116 -2.253474,2.24998 0,1.23838 1.012472,2.24997 2.253474,2.24997 1.241002,0 2.254325,-1.01157 2.254325,-2.24997 0,-1.23838 -1.013323,-2.24998 -2.254325,-2.24998 z m -9.002753,0.70493 c 0.858088,0 1.546582,0.68758 1.546582,1.54505 0,0.85747 -0.688494,1.54418 -1.546582,1.54418 -0.858094,0 -1.546583,-0.68671 -1.546583,-1.54418 0,-0.85747 0.688489,-1.54505 1.546583,-1.54505 z m 9.002753,0 c 0.858088,0 1.546581,0.68758 1.546581,1.54505 0,0.85747 -0.688493,1.54418 -1.546581,1.54418 -0.858095,0 -1.546584,-0.68671 -1.546584,-1.54418 0,-0.85747 0.688489,-1.54505 1.546584,-1.54505 z" />
  </g>
</svg>
