<svg width="77.446mm" height="121.45mm" version="1.1" viewBox="0 0 77.446 121.45" xmlns="http://www.w3.org/2000/svg"><g transform="translate(77.516 -69.883)"><path d="m-70.896 70.134h64.205c3.5284 0 6.3689 2.8361 6.3689 6.3591v108.23c0 3.5229-2.8405 6.3591-6.3689 6.3591h-64.205c-3.5284 0-6.3689-2.8361-6.3689-6.3591v-108.23c0-3.5229 2.8405-6.3591 6.3689-6.3591z" fill="#fff" fill-rule="evenodd" stroke="#000" stroke-linecap="square" stroke-linejoin="round" stroke-miterlimit="2" stroke-width=".50271" style="paint-order:stroke fill markers"/><g><path d="m-70.736 71.365c-2.9173 0-5.2987 2.3776-5.2987 5.2904v108c0 2.9128 2.3813 5.2904 5.2987 5.2904h63.892c2.9173 0 5.2987-2.3776 5.2987-5.2904v-108c0-2.9128-2.3813-5.2904-5.2987-5.2904zm0 2.102h63.892c1.7872 0 3.1926 1.404 3.1926 3.1885v83.165h-70.278v-83.165c0-1.7844 1.4063-3.1885 3.1934-3.1885zm44.268 5.0697-3.2962 8.2454 1.5851 0.01109 0.65547-1.6195 3.6895-0.0068 0.69232 1.6332 1.6408-0.01799-3.2988-8.2453zm-32.662 0.0154 3.4119 4.9825v3.3211h1.4875v-3.3194l3.4068-4.9842h-1.8105l-2.3451 3.4263-2.3434-3.4263zm19.566 0 3.4128 4.9825v3.3211h1.4866v-3.3194l3.4068-4.9842h-1.8105l-2.3452 3.4263-2.3434-3.4263zm-6.4494 6e-3 -3.2962 8.2454 1.5851 0.01109 0.65548-1.6195 3.6895-0.0068 0.69232 1.6332 1.64-0.01799-3.298-8.2453zm20.382 1.9386 1.2647 3.1628-2.5594 0.018zm-19.545 0.02137 1.2638 3.1628-2.5585 0.01799zm35.321 10.439v1.4911h1.4883v-1.4912zm-48.786 0.33275v1.5245l1.5303-0.01291v-1.5117zm3.7983 0v1.5219l1.5423 0.01291v-1.5348zm37.953 1.9232c-0.42237 3e-3 -0.80174 0.05612-1.1773 0.18479-0.51479 0.17636-1.0624 0.3865-1.4283 0.78878-0.36788 0.40445-0.62588 0.95831-0.65291 1.504-0.02636 0.53204 0.17478 1.091 0.48839 1.5219 0.25742 0.35372 0.66265 0.59604 1.0659 0.76653 0.33162 0.14018 0.70697 0.13806 1.0633 0.18992 0.62311 0.0907 1.6843 0.22424 2.0521 0.36273 0.10826 0.0407 0.21828 0.12433 0.28189 0.2019 0.13187 0.16082 0.2121 0.38703 0.19022 0.59373-0.02633 0.24855-0.16271 0.515-0.37272 0.65103-0.39814 0.25791-0.93346 0.37367-1.4412 0.38926-0.7932 0.0243-1.7252-0.41223-2.1772-1.0181l-1.149 0.95303c1.0821 1.0694 1.9175 1.5476 3.3057 1.5476 1.0412 0 1.9135-0.27729 2.4891-0.77594 0.58407-0.49863 0.81006-1.0854 0.82428-1.7213 0.01459-0.65507-0.22684-1.3192-0.76858-1.8094-0.53327-0.49866-1.6493-0.55792-2.8344-0.77766-0.49096-0.093-0.88061-0.12762-1.143-0.27974-0.26241-0.15213-0.38021-0.40177-0.39244-0.65617-0.01227-0.25428 0.13437-0.52399 0.32731-0.6904 0.3759-0.3242 0.92915-0.44552 1.4258-0.43459 0.68506 0.01506 1.3092 0.14855 1.9382 0.68526l0.96822-1.1293c-0.8074-0.7167-1.8679-1.0549-2.8832-1.048zm-19.864 0.04531c-1.0453 0-1.9368 0.48535-2.5191 1.1772-0.63552 0.79316-0.9151 1.8462-0.9151 3.132 0 1.2106 0.22055 2.1846 0.75572 2.9695 0.62716 0.91007 1.5647 1.3885 2.7187 1.3885 0.9282 0 1.6627-0.32685 2.3066-0.95304 0.65224-0.6262 0.81812-1.2155 0.81827-1.326l0.0032-1.1618v-1.3953h-2.9775l5.7e-4 1.4886h1.5517v0.60912c-0.13331 0.37465-0.27729 0.63582-0.61178 0.8863-0.33449 0.25046-0.68101 0.3499-1.0908 0.3499-0.71078 0-1.272-0.2813-1.6066-0.89913-0.26758-0.48427-0.383-1.155-0.383-1.9565 0-0.82657 0.11854-1.5264 0.47811-2.0524 0.36794-0.53437 0.9261-0.77762 1.5115-0.77766 0.71915 0 1.1317 0.32619 1.5749 0.96073l1.2261-0.8478c-0.49242-0.77158-1.3946-1.5921-2.8413-1.5921zm13.942 0.17624-5.9601 0.01026v8.2693l5.9601-6e-3v-1.4817l-4.4521 7e-3 -0.02228-1.9865 2.8207 5e-3v-1.5057l-2.8207-4e-3 0.02228-1.8154 4.4521-0.01026zm12.956 0.0094v8.2701h1.4883v-8.2702zm-59.365 5.7e-4v8.2693h4.1539c0.42855 0 0.85294-0.11521 1.2733-0.34563 0.37911-0.20571 0.62917-0.49753 0.8517-0.87603 0.23076-0.38676 0.35644-0.91151 0.35644-1.3312-0.0041-0.44147-0.1844-0.85539-0.38986-1.2353-0.11772-0.21774-0.4704-0.57491-0.4704-0.57491s0.51924-0.65629 0.51924-1.4792c0-0.83931-0.49672-1.7114-1.2467-2.1311-0.34615-0.1975-0.82362-0.296-1.4335-0.296zm21.391 0v8.2693h5.632v-1.4852h-4.1385v-6.7841zm-8.0971 0.0368c-1.0747 0-1.9209 0.38251-2.5397 1.1489-0.61876 0.75819-0.98027 1.715-0.98021 3.0336 0 1.162 0.30835 1.9122 0.86197 2.7034 0.63504 0.91477 1.5138 1.3722 2.6373 1.3722 1.0258 0 1.8442-0.39543 2.4548-1.1866 0.61876-0.7994 0.98965-1.6199 0.98965-2.9139 0-1.2691-0.35418-2.2092-0.98108-2.984-0.61876-0.78291-1.4333-1.1737-2.4428-1.1737zm-11.799 1.4552h2.4291c0.239 0.01639 0.47992 0.1236 0.61178 0.2635 0.16909 0.18797 0.27451 0.38526 0.27419 0.6074-4.39e-4 0.26863-0.13926 0.54974-0.33502 0.73402-0.14856 0.13983-0.31602 0.20345-0.57151 0.21987h-2.4086zm11.799 0.0154c0.61062 0 1.1307 0.31864 1.3924 0.77851 0.34196 0.49447 0.53724 1.0599 0.53724 1.9334 0 0.77467-0.16703 1.1786-0.42756 1.6648-0.28074 0.49166-0.80185 0.90684-1.502 0.90684-0.61876 0-1.1442-0.24726-1.4943-0.74173-0.3501-0.50271-0.52523-0.94811-0.52523-1.8299 0-0.87356 0.21628-1.4758 0.56636-1.9702 0.3501-0.49448 0.83443-0.74172 1.4532-0.74172zm-11.8 3.286 2.6116 5e-3c0.32142 8e-3 0.57356 0.11971 0.75487 0.33365 0.18955 0.21395 0.27835 0.39287 0.28362 0.62024 0.0058 0.26619-0.11207 0.54167-0.30161 0.73916-0.18131 0.19749-0.41545 0.30509-0.73687 0.29686h-2.5971zm-6.2035 62.686h70.278v23.729c0 1.7844-1.4054 3.1885-3.1926 3.1885h-63.892c-1.7872 0-3.1934-1.404-3.1934-3.1885z" color="#000000" color-rendering="auto" dominant-baseline="auto" enable-background="accumulate" fill-rule="evenodd" image-rendering="auto" shape-rendering="auto" solid-color="#000000" stop-color="#000000" style="font-feature-settings:normal;font-variant-alternates:normal;font-variant-caps:normal;font-variant-east-asian:normal;font-variant-ligatures:normal;font-variant-numeric:normal;font-variant-position:normal;font-variation-settings:normal;inline-size:0;isolation:auto;mix-blend-mode:normal;paint-order:stroke fill markers;shape-margin:0;shape-padding:0;text-decoration-color:#000000;text-decoration-line:none;text-decoration-style:solid;text-indent:0;text-orientation:mixed;text-transform:none;white-space:normal"/><path d="m-38.951 165.81v6.3145h1.0411v-6.3145zm-17.336 0.1129 2.5448 3.7163v2.4767h1.1087v-2.475l2.5414-3.718h-1.3504l-1.7497 2.5554-1.7479-2.5554zm12.29 0.0694v6.1322h0.98107v-1.7187l0.413-0.34732 1.5534 2.066h1.2218l-2.0273-2.7034 2.0273-1.7153h-1.5132l-1.6751 1.4142v-3.1277zm-5.5668 0.0149v1.042h1.0471v-1.042zm3.6493 0v1.042h1.0402v-1.042zm11.487 1.332c-0.66208 0-1.2222 0.23033-1.6811 0.69126-0.45894 0.46094-0.68803 1.0216-0.68803 1.6819-1.9e-5 0.66647 0.23271 1.2304 0.69917 1.6913 0.474 0.4547 1.0494 0.68183 1.7265 0.68183 0.69216 0 1.2281-0.36843 1.5106-0.61169l-0.70518-0.78706c-0.30095 0.23669-0.49695 0.33708-0.80542 0.33708-0.24076 0-0.53449-0.0343-0.76772-0.20874-0.22571-0.17444-0.36198-0.26945-0.50296-0.57577h3.5104l0.05826-0.51672c-0.0075-0.59174-0.15695-1.0264-0.54066-1.5185-0.3837-0.49207-1.0315-0.85843-1.8139-0.86492zm15.004 0c-0.66208 0-1.223 0.23033-1.682 0.69126-0.45894 0.46094-0.68804 1.0216-0.68804 1.6819 0 0.66647 0.23356 1.2304 0.70004 1.6913 0.47398 0.4547 1.0494 0.68183 1.7265 0.68183 0.69216 0 1.2273-0.36843 1.5097-0.61169l-0.70517-0.78706c-0.30095 0.23669-0.4961 0.33708-0.80457 0.33708-0.24076 0-0.53449-0.0343-0.76772-0.20874-0.2257-0.17444-0.36283-0.26945-0.50381-0.57577h3.5113l0.05827-0.51672c-0.0075-0.59174-0.15782-1.0264-0.54151-1.5185-0.3837-0.49207-1.0306-0.85843-1.8131-0.86492zm-5.6166 0.024c-0.36361 0-0.73047 0.11125-1.0548 0.27547-0.14395 0.0728-0.33605 0.2152-0.48754 0.34392-0.09143 0.0776-0.25192 0.25665-0.25192 0.25665s-0.29441-0.36138-0.73088-0.60141c-0.32416-0.17825-0.75914-0.24776-1.0385-0.27205-0.23829-0.0207-0.60069 0.0401-0.88511 0.14635-0.28311 0.10562-0.48925 0.25579-0.48925 0.25579v-0.27376h-1.0393v4.5864h1.0393l6e-3 -2.4827s0.01917-0.15479 0.08226-0.32252c0.05966-0.1586 0.1608-0.32739 0.25362-0.42176 0.08536-0.0867 0.17631-0.17604 0.28361-0.24296 0.19633-0.12251 0.4284-0.19268 0.65119-0.19677 0.19506-3e-3 0.40345 0.0356 0.58693 0.12234 0.15889 0.0752 0.29731 0.18919 0.41643 0.30883 0.08963 0.0901 0.19845 0.25445 0.25619 0.41149 0.07536 0.20573 0.0874 0.39953 0.0874 0.39953v2.4245h1.0462v-2.3604s-0.0046-0.21304 0.07368-0.42774c0.07879-0.21608 0.24038-0.43447 0.37358-0.55693 0.16548-0.15214 0.38359-0.25127 0.61178-0.29602 0.09093-0.0172 0.18742-0.0149 0.27676-0.0222 0.1888-0.0149 0.46146 0.0712 0.68804 0.22073 0.15672 0.10347 0.27962 0.24598 0.38644 0.37471 0.14427 0.17394 0.21335 0.64334 0.21335 0.64334v2.4245h1.0548l-0.0189-2.5323c-8e-6 0-0.01111-0.20563-0.07625-0.44829-0.07032-0.26205-0.18193-0.51524-0.34274-0.73145-0.2061-0.27711-0.4676-0.52762-0.77201-0.69125-0.3641-0.19567-0.78691-0.31397-1.2004-0.31397zm-24.523 0.2079-0.0068 2.3578c-0.0018 0.52153 0.23653 1.1487 0.62206 1.5895 0.39176 0.44081 1.0198 0.79686 1.6914 0.80931 0.52857 0 1.0231-0.11572 1.3427-0.33023v0.12748h1.0402v-4.5538h-1.0393v2.4117c-0.0061 0.34148-0.19662 0.69596-0.4267 0.90084-0.22386 0.19868-0.5815 0.33556-0.87997 0.32937-0.342 0-0.70709-0.16704-0.91852-0.37814-0.20521-0.21109-0.37691-0.59449-0.37701-0.88629l-0.0012-2.3774zm15.156 0.82129c0.14114-3e-3 0.35257 0.0465 0.53038 0.13178 0.13498 0.0646 0.24439 0.15512 0.3256 0.22243 0.19556 0.15578 0.32045 0.43803 0.32045 0.43803h-2.4103s0.14883-0.30175 0.34444-0.46369c0.10497-0.0869 0.25238-0.18386 0.42071-0.24639 0.15743-0.0583 0.33414-0.0844 0.46869-0.0821zm15.004 0c0.14114-3e-3 0.35171 0.0465 0.52952 0.13178 0.13498 0.0646 0.24526 0.15512 0.32646 0.22243 0.19557 0.15578 0.32046 0.43803 0.32046 0.43803h-2.4111s0.14883-0.30175 0.34444-0.46369c0.10497-0.0869 0.25239-0.18386 0.42071-0.24639 0.15743-0.0583 0.33499-0.0844 0.46954-0.0821zm4.0999 8.49v1.0488h1.0471v-1.0488zm-32.119 0.0265v6.3145h1.0411v-6.3145zm-18.497 0.054-2.4874 6.2238 1.1961 8e-3 0.49524-1.2225 2.7847-5e-3 0.52267 1.2328 1.2381-0.0133-2.49-6.2246zm34.944 1e-3v6.2854h1.1327v-2.5143h2.7667v2.5143l1.1259-4.3e-4 0.0018-6.2845h-1.1276v2.5118h-2.7668v-2.5118zm-34.312 1.4783 0.95451 2.3877-1.9313 0.0132zm49.984 0.0205v4.7292h1.0471v-4.7292zm-40.187 0.0376c-0.30778-0.0149-0.80756 0.0445-1.1978 0.14287-0.49652 0.12499-0.85598 0.29771-0.85598 0.29771l0.44469 0.98982s0.28313-0.15628 0.796-0.26008c0.14971-0.0303 0.36856-0.0593 0.55437-0.0745 0.11489-0.01 0.23095-0.0149 0.34616-0.01 0.09345 3e-3 0.19026-1e-3 0.27933 0.0273 0.24951 0.0795 0.52728 0.17849 0.68119 0.3901 0.06263 0.0861 0.12807 0.24732 0.14994 0.38241 0.01426 0.0881-0.01376 0.26691-0.01376 0.26691s-0.24647-0.10777-0.55694-0.18136c-0.25997-0.0616-0.57002-0.0942-0.77457-0.0719-0.19369 0.0212-0.38752 0.0431-0.58436 0.0907-0.5219 0.12632-1.0326 0.38375-1.3761 0.7691-0.16737 0.18777-0.22061 0.45985-0.21593 0.70579 0.0035 0.18641 0.06763 0.38305 0.18422 0.5287 0.10167 0.12698 0.21529 0.22503 0.34274 0.31311 0.26991 0.18652 0.57885 0.34308 0.87825 0.44572 0.37335 0.12814 0.78368 0.15297 1.1773 0.12317 0.32359-0.0245 0.94166-0.24639 0.94166-0.24639v0.12235h1.1002v-2.8069c0-0.5754-0.28606-1.0657-0.70517-1.4261-0.41912-0.36042-1.0103-0.4887-1.5954-0.51843zm12.284 0c-0.30778-0.0149-0.80756 0.0445-1.1979 0.14287-0.49653 0.12499-0.85598 0.29771-0.85598 0.29771l0.44469 0.98982s0.28313-0.15628 0.796-0.26008c0.14971-0.0303 0.36856-0.0593 0.55437-0.0745 0.11489-0.01 0.23096-0.0149 0.34616-0.01 0.09345 3e-3 0.19026-1e-3 0.27933 0.0273 0.24951 0.0795 0.52728 0.17849 0.68119 0.3901 0.06262 0.0861 0.12807 0.24732 0.14994 0.38241 0.01426 0.0881-0.01376 0.26691-0.01376 0.26691s-0.24647-0.10777-0.55694-0.18136c-0.25997-0.0616-0.57002-0.0942-0.77457-0.0719-0.19369 0.0212-0.38752 0.0431-0.58436 0.0907-0.5219 0.12632-1.0326 0.38375-1.3761 0.7691-0.16737 0.18777-0.22061 0.45985-0.21593 0.70579 0.0035 0.18641 0.06763 0.38305 0.18422 0.5287 0.10167 0.12698 0.21529 0.22503 0.34273 0.31311 0.26991 0.18652 0.57885 0.34308 0.87825 0.44572 0.37335 0.12814 0.78368 0.15297 1.1773 0.12317 0.32359-0.0245 0.94166-0.24639 0.94166-0.24639v0.12235h1.1002v-2.8069c0-0.5754-0.28606-1.0657-0.70517-1.4261-0.41912-0.36042-1.0103-0.4887-1.5954-0.51843zm-16.03 0.0132c-0.18283 5e-3 -0.44676 0.0518-0.65377 0.12235-0.20057 0.0684-0.34702 0.16074-0.34702 0.16074v-0.15048l-1.0488-7e-3v4.6069h1.0488l0.0046-2.7428s0.01608-0.22205 0.1551-0.43717c0.12132-0.1877 0.35522-0.36725 0.51324-0.43031 0.16073-0.0641 0.44075-0.0882 0.65805-0.0326 0.22263 0.057 0.38044 0.1942 0.38044 0.1942l0.65033-0.81871s-0.25646-0.20634-0.60236-0.33964c-0.24578-0.0947-0.55927-0.13095-0.75829-0.12582zm21.321 0c-0.18283 5e-3 -0.44762 0.0518-0.65462 0.12235-0.20057 0.0684-0.34702 0.16074-0.34702 0.16074v-0.15048l-1.0488-7e-3v4.6069h1.0488l0.0041-2.7428s0.01608-0.22205 0.1551-0.43717c0.12132-0.1877 0.35522-0.36725 0.51324-0.43031 0.16073-0.0641 0.44075-0.0882 0.65805-0.0326 0.22263 0.057 0.38043 0.1942 0.38043 0.1942l0.65034-0.81871s-0.25646-0.20634-0.60236-0.33964c-0.24578-0.0947-0.55842-0.13095-0.75744-0.12582zm20.399 0c-0.18283 5e-3 -0.44761 0.0518-0.65462 0.12235-0.20057 0.0684-0.34702 0.16074-0.34702 0.16074v-0.14965l-1.0488-8e-3v4.6069h1.0488l4e-3 -2.7427s0.01608-0.2212 0.15508-0.4363c0.12132-0.1877 0.35522-0.36814 0.51324-0.43118 0.16073-0.0641 0.44075-0.0882 0.65805-0.0326 0.22263 0.057 0.38044 0.1942 0.38044 0.1942l0.65034-0.81872s-0.25646-0.20633-0.60236-0.33963c-0.24578-0.0947-0.55841-0.13095-0.75744-0.12582zm-18.324 7e-3v4.7044h1.041v-4.7044zm-14.205 5e-3c-0.36841 0-0.6905 0.0783-0.98536 0.2156-0.24941 0.11605-0.48097 0.27208-0.68461 0.47736-0.44437 0.44801-0.6846 0.98532-0.6846 1.6665 0 0.68119 0.24966 1.2237 0.69403 1.6716 0.22625 0.22498 0.47591 0.40078 0.75658 0.5193 0.12091 0.051 0.24758 0.0915 0.38043 0.12068 0.0012 2.9e-4 0.0018 1.1019 0.0018 1.1019h1.0471s-0.0018-1.1032 0-1.1036c0.50311-0.11108 0.9496-0.38747 1.3212-0.8247l-0.81656-0.65618c-0.35594 0.37079-0.5815 0.44757-0.99222 0.47823-0.18349 0-0.38849-0.0326-0.56808-0.11208-0.16967-0.0752-0.31549-0.19387-0.4267-0.31312-0.22219-0.24548-0.34188-0.50595-0.34188-0.88031 0-0.38049 0.13767-0.65724 0.35987-0.89657 0.22892-0.24548 0.60109-0.4038 0.95794-0.4038 0.41072 0.0184 0.74986 0.17989 1.0111 0.48507l0.81999-0.65788c-0.45209-0.5646-1.1295-0.88801-1.8499-0.88801zm39.176 0c-0.36841 0-0.6905 0.0783-0.98536 0.2156-0.24941 0.11605-0.48097 0.27208-0.68461 0.47736-0.44438 0.44801-0.68461 0.98532-0.68461 1.6665 0 0.68119 0.24966 1.2237 0.69404 1.6716 0.22625 0.22498 0.47591 0.40078 0.75658 0.5193 0.12092 0.051 0.24758 0.0915 0.38044 0.12068 0.0013 2.9e-4 0.0018 1.1019 0.0018 1.1019h1.0471s-0.0018-1.1032 0-1.1036c0.50311-0.11108 0.94959-0.38747 1.3212-0.8247l-0.81742-0.65618c-0.35594 0.37079-0.58064 0.44757-0.99136 0.47823-0.18349 0-0.3885-0.0326-0.56808-0.11208-0.16966-0.0752-0.31548-0.19387-0.4267-0.31312-0.22219-0.24548-0.34273-0.50595-0.34273-0.88031 0-0.38049 0.13769-0.65724 0.35987-0.89657 0.22891-0.24548 0.60195-0.4038 0.95879-0.4038 0.41073 0.0184 0.749 0.17989 1.0102 0.48507l0.81999-0.65788c-0.45209-0.5646-1.1286-0.88801-1.849-0.88801zm-11.807 0.0924c-0.29986-0.0149-0.78676 0.0437-1.167 0.13939-0.48375 0.12185-0.83456 0.29003-0.83456 0.29003l0.43356 0.96501s0.27662-0.15297 0.77629-0.25409c0.14586-0.0295 0.35878-0.0571 0.5398-0.0719 0.11192-0.01 0.2245-0.0149 0.33673-0.01 0.09105 3e-3 0.18484-1e-3 0.27162 0.0265 0.2431 0.0775 0.51495 0.17368 0.6649 0.37984 0.061 0.0839 0.12437 0.2414 0.14566 0.373 0.01393 0.0857-0.01376 0.26008-0.01376 0.26008s-0.23904-0.10529-0.54152-0.17709c-0.2533-0.0601-0.55558-0.091-0.75487-0.0694-0.18871 0.0207-0.37803 0.0417-0.5698 0.0881-0.50847 0.12301-1.0063 0.37398-1.3409 0.74942-0.16309 0.18295-0.21402 0.44736-0.20992 0.68698 0.0035 0.18161 0.06549 0.37312 0.17908 0.51501 0.09907 0.12367 0.21 0.2196 0.33416 0.30541 0.26296 0.18172 0.56341 0.33375 0.85512 0.43374 0.36375 0.12433 0.76381 0.14966 1.1473 0.12068 0.31526-0.0238 0.91767-0.23955 0.91767-0.23955v0.11887h1.0719v-2.735c0-0.5606-0.27972-1.0382-0.68804-1.3893-0.40834-0.35114-0.98335-0.47662-1.5534-0.50561zm-32.854 2.8754c0.19737-1e-3 0.49104 0.0387 0.7283 0.1326 0.27067 0.10711 0.47383 0.27036 0.47383 0.27036s-0.20362 0.1581-0.46269 0.26349c-0.23604 0.096-0.51893 0.14055-0.71717 0.14039-0.20106-1.8e-4 -0.5447-0.0646-0.78229-0.16257-0.25135-0.10364-0.39157-0.24124-0.39157-0.24124s0.16388-0.1437 0.43527-0.25324c0.22083-0.0891 0.53384-0.1485 0.71632-0.14966zm12.284 0c0.19737-1e-3 0.49104 0.0387 0.7283 0.1326 0.27067 0.10711 0.47383 0.27036 0.47383 0.27036s-0.20362 0.1581-0.46269 0.26349c-0.23604 0.096-0.51893 0.14055-0.71717 0.14039-0.20106-1.8e-4 -0.5447-0.0646-0.78229-0.16257-0.25135-0.10364-0.39157-0.24124-0.39157-0.24124s0.16388-0.1437 0.43527-0.25324c0.22084-0.0891 0.53384-0.1485 0.71632-0.14966zm20.531 0.0402c0.19229-1e-3 0.4783 0.0377 0.70946 0.12912 0.2637 0.1043 0.46183 0.26265 0.46183 0.26265s-0.19829 0.15479-0.45069 0.25751c-0.22998 0.0935-0.50604 0.13625-0.69918 0.13609-0.19589-1.7e-4 -0.53026-0.0627-0.76173-0.15827-0.24488-0.10099-0.3813-0.23526-0.3813-0.23526s0.15974-0.13973 0.42414-0.24639c0.21514-0.0867 0.51967-0.1442 0.69746-0.14552z"/><path d="m-38.811 107.56c-13.418 0-24.295 10.861-24.295 24.258-6.3e-5 13.397 10.877 24.258 24.295 24.258 13.418 7e-5 24.296-10.861 24.296-24.258 2.5e-5 -13.397-10.877-24.258-24.296-24.258zm-0.05299 5.8902c0.01393-3e-5 0.02767-3e-5 0.04094 0 10.158 3e-5 18.392 8.2221 18.392 18.364-2.5e-5 4.377-1.536 8.3943-4.0961 11.549l-25.877-25.813c3.1518-2.5544 7.165-4.0912 11.54-4.101zm-14.234 6.7875 25.863 25.835c-3.163 2.5657-7.1945 4.1053-11.587 4.1053-10.158-3e-5 -18.392-8.2217-18.392-18.364 1.8e-5 -4.3887 1.5437-8.4173 4.1168-11.577z" color="#000000" color-rendering="auto" dominant-baseline="auto" enable-background="accumulate" fill="#ed232a" fill-rule="evenodd" image-rendering="auto" shape-rendering="auto" solid-color="#000000" stop-color="#000000" style="font-feature-settings:normal;font-variant-alternates:normal;font-variant-caps:normal;font-variant-east-asian:normal;font-variant-ligatures:normal;font-variant-numeric:normal;font-variant-position:normal;font-variation-settings:normal;inline-size:0;isolation:auto;mix-blend-mode:normal;paint-order:stroke fill markers;shape-margin:0;shape-padding:0;text-decoration-color:#000000;text-decoration-line:none;text-decoration-style:solid;text-indent:0;text-orientation:mixed;text-transform:none;white-space:normal"/><path d="m-30.174 121.84c-0.42945 3e-3 -0.82273 0.0167-1.2878 0.0599-0.72159 0.0672-1.6539 0.20994-2.1669 0.34646-0.41302 0.10993-0.59464 0.46113-0.59464 0.46113l-1.1687 2.6161s-0.10295 0.15214-0.16365 0.22073c-0.03832 0.0432-0.12595 0.11986-0.12595 0.11986s-0.16524 0.0942-0.22706 0.16422c-0.07277 0.0824-0.15851 0.28915-0.15851 0.28915l-0.02481 0.55438 0.04714 0.65275 0.04369 1.6254c1.11e-4 0.18222 0.11396 0.32865 0.29647 0.32852h0.03943l-0.0018 1.1318h0.0018v0.0591c0 0.24613 0.19818 0.44401 0.44469 0.44401h1.1901c0.24651 0 0.44469-0.19788 0.44469-0.44401v-0.74683l4.39e-4 -0.44058h6.715v1.2251c0 0.22449 0.18129 0.40552 0.40615 0.40552h1.263c0.22486 0 0.40614-0.18103 0.40614-0.40552v-1.2516h0.0068c0.18252 0 0.30769-0.0983 0.3076-0.2806l0.05054-1.6494 0.0326-0.68013s0.01913-0.2848 0.0053-0.42605c-6e-3 -0.0594-0.03769-0.17538-0.03769-0.17538s-0.04702-0.12665-0.0874-0.17965c-0.07339-0.0962-0.26133-0.2233-0.26133-0.2233s-0.11517-0.0798-0.1611-0.12664c-0.07854-0.08-0.19621-0.27377-0.19621-0.27377l-1.053-2.4194s-0.12582-0.44793-0.65206-0.60227c-0.56704-0.16633-1.4934-0.2892-2.2586-0.34305-0.43354-0.0305-0.71605-0.0384-1.0745-0.0359zm0.02141 0.78365c0.47407-2e-3 1.3013 0.0573 1.9467 0.13774 0.30258 0.0377 0.90054 0.16075 0.90054 0.16075s0.11676 0.0349 0.21935 0.0942c0.04744 0.0273 0.08988 0.0712 0.11994 0.0992 0.03475 0.0324 0.08081 0.0892 0.11225 0.14121 0.03404 0.0561 0.05142 0.10612 0.05142 0.10612l0.88339 2.1054s-0.65959-0.12416-1.4986-0.2096c-0.88498-0.0902-1.9697-0.14155-2.6887-0.14204-0.7332 0-1.8411 0.0639-2.741 0.15479-0.84186 0.0851-1.7368 0.23696-1.7368 0.23696l0.93395-2.1456s0.03124-0.0798 0.08312-0.1523c0.03734-0.0521 0.0909-0.0957 0.12852-0.12665 0.03452-0.0285 0.08625-0.0623 0.13966-0.0864 0.0706-0.0319 0.13966-0.0505 0.13966-0.0505s0.84081-0.1432 1.5809-0.23612c0.49536-0.0623 1.0477-0.0853 1.4258-0.0872zm-4.782 4.1774c0.34188 0 0.61862 0.27973 0.61864 0.62453-1.2e-5 0.34477-0.27675 0.62452-0.61864 0.6245-0.34188 2e-5 -0.61948-0.27973-0.61949-0.6245 1.1e-5 -0.3448 0.27761-0.62453 0.61949-0.62453zm9.4097 0c0.34188 0 0.61949 0.27973 0.61949 0.62453 0 0.34477-0.27761 0.62452-0.61949 0.6245-0.34187 2e-5 -0.61862-0.27973-0.61864-0.6245 1.3e-5 -0.3448 0.27676-0.62453 0.61864-0.62453zm-8.0996 0.20875h6.7801v0.25922c0 0.68301-0.55148 1.2328-1.2356 1.2328h-4.3099c-0.68407 0-1.2347-0.54977-1.2347-1.2328zm-9.6805 8.5525c-0.65591 0-1.1841 0.52652-1.1841 1.1806v0.0684l1.0925 3e-3 0.03515 0.6921-0.97422 0.56721v0.59028l2.2149-1.3748v-0.54498c0-0.65409-0.52823-1.1814-1.1841-1.1814zm1.2424 2.0772c-0.04235 1e-3 -0.08735 7e-3 -0.12595 0.017-0.09204 0.0255-0.15594 0.0753-0.15594 0.0753l-1.9527 1.2918-1.1422 0.18479-0.03855-0.1694-1.7822 0.43461 0.43356 1.0095s0.36125-0.0205 0.71288 0.0916c0.41692 0.13293 0.85237 0.41826 1.1053 0.66902 0.2529 0.25071 0.46959 0.62771 0.6075 1.0454 0.11965 0.36239 0.07228 0.53986 0.17736 0.78792 0.07106 0.16762 0.16445 0.33504 0.29989 0.45684 0.13195 0.1187 0.30127 0.2019 0.47383 0.24382 0.02404 7e-3 0.07368 0 0.07368 0l3.0957 7e-3s-0.14089-0.5535-0.09597-1.0155c0.05112-0.52561 0.30228-0.98519 0.56123-1.3192 0.22513-0.29036 0.64838-0.62771 1.089-0.79475 0.44192-0.16756 0.90139-0.16506 0.90139-0.16506v-0.54495l-1.8568 0.36101-0.66404-0.8247-1.5492 1.2525-1.1799 0.23097s-0.20125 0.0591-0.27247 0.13012c-0.04825 0.048-0.08826 0.18393-0.08826 0.18393l-0.09424 0.4423s-0.62624-0.39965-0.8834-0.66301c-0.28477-0.29168-0.71031-0.99496-0.71031-0.99496l0.96993-0.15992s0.03339-8e-3 0.04885-0.0132c0.02756-8e-3 0.07883-0.0334 0.07883-0.0334l1.077-0.67843 0.14739 0.148 0.74373 1.149 1.526-1.2302-1.0685-1.3637s-0.07795-0.099-0.18165-0.16853c-0.05153-0.0346-0.12132-0.0569-0.16708-0.0659-0.03006-7e-3 -0.07088-8e-3 -0.1131-8e-3zm-4.758 3.1645c-1.241 0-2.2543 1.0116-2.2543 2.25s1.0133 2.25 2.2543 2.25c1.241 0 2.2543-1.0116 2.2543-2.25 0-1.2384-1.0133-2.25-2.2543-2.25zm9.0028 0c-1.241 0-2.2535 1.0116-2.2535 2.25s1.0125 2.25 2.2535 2.25 2.2543-1.0116 2.2543-2.25c0-1.2384-1.0133-2.25-2.2543-2.25zm-9.0028 0.70493c0.85809 0 1.5466 0.68758 1.5466 1.545s-0.68849 1.5442-1.5466 1.5442c-0.85809 0-1.5466-0.68671-1.5466-1.5442s0.68849-1.545 1.5466-1.545zm9.0028 0c0.85809 0 1.5466 0.68758 1.5466 1.545s-0.68849 1.5442-1.5466 1.5442c-0.8581 0-1.5466-0.68671-1.5466-1.5442s0.68849-1.545 1.5466-1.545z" fill-rule="evenodd"/></g></g></svg>