<svg width="105.83mm" height="105.83mm" version="1.1" viewBox="0 0 105.83 105.83" xmlns="http://www.w3.org/2000/svg"><g transform="translate(-17.498 137)" fill-rule="evenodd"><path d="m24.178-137h92.474c3.7005 0 6.6795 2.9791 6.6795 6.6796v92.474c0 3.7005-2.9791 6.6796-6.6795 6.6796h-92.474c-3.7005 0-6.6796-2.9791-6.6796-6.6796v-92.474c0-3.7005 2.9791-6.6796 6.6796-6.6796z" fill="#00408c" style="paint-order:stroke fill markers"/><path d="m24.129-135.23c-2.6966 0-4.8675 2.1708-4.8675 4.8675v92.57c0 2.6966 2.1709 4.8675 4.8675 4.8675h92.57c2.6966 0 4.8675-2.1709 4.8675-4.8675v-92.57c0-2.6966-2.1709-4.8675-4.8675-4.8675zm6e-4 1.7629h92.569c1.7197 0 3.1046 1.385 3.1046 3.1046v92.569c0 1.7197-1.3849 3.1037-3.1046 3.1037h-92.569c-1.7197 0-3.1037-1.384-3.1037-3.1037v-92.569c0-1.7197 1.384-3.1046 3.1037-3.1046z" fill="#fff" style="paint-order:stroke fill markers"/><path d="m42.179-119.36v70.546h12.712v-28.207h31.026v28.207h12.713v-70.546h-12.713v28.226h-31.026v-28.226z" fill="#fff" style="paint-order:stroke fill markers"/></g></svg>