<svg width="317.81mm" height="106.15mm" version="1.1" viewBox="0 0 317.81 106.15" xmlns="http://www.w3.org/2000/svg"><g transform="translate(-17.151 -152.09)"><path d="m30.765 152.25c-7.4552 0-13.457 6.0018-13.457 13.457v78.918c0 7.4552 6.0018 13.457 13.457 13.457h290.59c7.4552 0 13.457-6.0018 13.457-13.457v-78.918c0-7.4551-6.0018-13.457-13.457-13.457z" fill="#00408c"/><path d="m30.876 155.64c-5.638 0-10.178 4.5402-10.178 10.178v78.718c0 5.638 4.5402 10.177 10.178 10.177h290.41c5.638 0 10.177-4.5386 10.177-10.177v-78.718c0-5.638-4.5386-10.178-10.177-10.178zm-0.03942 3.3609h290.46c3.7674 0 6.8008 3.0334 6.8008 6.8008v78.715c0 3.7674-3.0334 6.7991-6.8008 6.7991h-290.46c-3.7674 0-6.8008-3.0318-6.8008-6.7991v-78.715c0-3.7674 3.0334-6.8008 6.8008-6.8008zm215.95 13.557v11.845h-209.15v41.514h209.15v11.841l67.758-32.599z" fill="#fff"/><path d="m185.68 189.17v3.922l3.9286-0.0321v-3.8906zm9.7546 0v3.9171l3.9617 0.0321v-3.9485zm-98.409 5.0773-15.339 0.0254v21.317l15.341-0.0159v-3.8179l-11.46 0.0159-0.05617-5.1203 7.259 0.01v-3.8807l-7.259-0.0127 0.05617-4.679 11.459-0.0254zm13.563 0.17356-3.8113 0.01-0.0248 21.283 3.8377-3e-3v-8.5351l1.59-1.5652 6.9185 10.093 4.6492 0.0127-8.7283-12.744 8.7349-8.5481h-5.479l-7.6755 7.4259zm43.522 0.035 8.7101 12.741v8.4903h3.7964v-8.4853l8.6985-12.744h-4.6244l-5.9864 8.7596-5.983-8.7596zm-96.201 2e-3v3.8493h6.1962v17.617h3.8807v-17.617h6.226v-3.8493zm152.47 0.0464v21.291h3.8229l8e-3 -14.675 9.0406 14.673h4.1385v-21.289h-3.8377l-8e-3 14.45-8.9283-14.442zm-17.726 0.3058c-2.7604 0-4.9341 0.98509-6.5235 2.9568-1.5894 1.9505-2.5172 4.4105-2.5172 7.8028 0 2.9893 0.79102 4.9211 2.2131 6.9565 1.6312 2.3534 3.8904 3.5303 6.7764 3.5303 2.635 0 4.7352-1.0173 6.3036-3.0527 1.5893-2.0565 2.5436-4.1684 2.5436-7.4969 0-3.265-0.91186-5.6825-2.5221-7.6755-1.5893-2.0141-3.6807-3.0212-6.2739-3.0212zm0 3.7849c1.5684 0 2.9046 0.81845 3.5766 2.0015 0.87835 1.2721 1.3801 2.7259 1.3801 4.9732 0 1.9929-0.42824 3.0347-1.0974 4.2856-0.72111 1.2648-2.0607 2.332-3.8592 2.332-1.5893 0-2.9385-0.63523-3.8377-1.9073-0.89926-1.2933-1.3487-2.4418-1.3487-4.7103 0-2.2473 0.55521-3.7954 1.4544-5.0674 0.89926-1.2721 2.1426-1.9073 3.732-1.9073z"/></g></svg>