<?xml version="1.0" encoding="UTF-8" standalone="no"?>
<svg
   xmlns:dc="http://purl.org/dc/elements/1.1/"
   xmlns:cc="http://creativecommons.org/ns#"
   xmlns:rdf="http://www.w3.org/1999/02/22-rdf-syntax-ns#"
   xmlns:svg="http://www.w3.org/2000/svg"
   xmlns="http://www.w3.org/2000/svg"
   xmlns:sodipodi="http://sodipodi.sourceforge.net/DTD/sodipodi-0.dtd"
   xmlns:inkscape="http://www.inkscape.org/namespaces/inkscape"
   version="1.1"
   id="svg8427"
   width="246.114"
   height="246.114"
   viewBox="0 0 246.114 246.114"
   sodipodi:docname="Turkey_road_sign_B-16b.svg"
   inkscape:export-filename="C:\Users\Adinan\Documents\rect9004.png"
   inkscape:export-xdpi="96"
   inkscape:export-ydpi="96"
   inkscape:version="1.0 (4035a4fb49, 2020-05-01)">
  <metadata
     id="metadata8433">
    <rdf:RDF>
      <cc:Work
         rdf:about="">
        <dc:format>image/svg+xml</dc:format>
        <dc:type
           rdf:resource="http://purl.org/dc/dcmitype/StillImage" />
        <dc:title />
      </cc:Work>
    </rdf:RDF>
  </metadata>
  <defs
     id="defs8431" />
  <sodipodi:namedview
     inkscape:document-rotation="0"
     pagecolor="#ffffff"
     bordercolor="#666666"
     borderopacity="1"
     objecttolerance="10"
     gridtolerance="10"
     guidetolerance="10"
     inkscape:pageopacity="0"
     inkscape:pageshadow="2"
     inkscape:window-width="1920"
     inkscape:window-height="1001"
     id="namedview8429"
     showgrid="false"
     inkscape:zoom="7.7360707"
     inkscape:cx="186.41881"
     inkscape:cy="42.898509"
     inkscape:window-x="-9"
     inkscape:window-y="-9"
     inkscape:window-maximized="1"
     inkscape:current-layer="g8435">
    <inkscape:grid
       type="xygrid"
       id="grid18096"
       originx="4.4999999"
       originy="-106.85811" />
  </sodipodi:namedview>
  <g
     inkscape:groupmode="layer"
     inkscape:label="Image"
     id="g8435"
     transform="translate(-378.7901,32.387531)">
    <path
       id="rect31055"
       style="opacity:1;fill:#00408c;fill-opacity:1;stroke:none;stroke-width:1;stroke-miterlimit:4;stroke-dasharray:none;stroke-opacity:1"
       d="m 394.63914,-31.887531 h 214.41592 c 8.50336,0 15.34904,6.845671 15.34904,15.349043 V 197.87743 c 0,8.50337 -6.84568,15.34904 -15.34904,15.34904 H 394.63914 c -8.50337,0 -15.34904,-6.84567 -15.34904,-15.34904 V -16.538488 c 0,-8.503372 6.84567,-15.349043 15.34904,-15.349043 z" />
    <path
       sodipodi:nodetypes="ssssssssssssssssss"
       d="m 394.59573,-27.779431 c -6.22781,0 -11.24197,5.014126 -11.24197,11.241972 V 197.91926 c 0,6.22784 5.01416,11.24197 11.24197,11.24197 h 214.45675 c 6.22781,0 11.24198,-5.01413 11.24198,-11.24197 V -16.537459 c 0,-6.227846 -5.01417,-11.241972 -11.24198,-11.241972 z m 0,4.063994 h 214.50108 c 3.95226,0 7.13365,3.181352 7.13365,7.133652 V 197.91926 c 0,3.95226 -3.18139,7.13365 -7.13365,7.13365 H 394.59573 c -3.95226,0 -7.13362,-3.18139 -7.13362,-7.13365 V -16.581785 c 0,-3.9523 3.18136,-7.133652 7.13362,-7.133652 z"
       style="opacity:1;fill:#ffffff;stroke:none;stroke-width:1450.46"
       id="rect31058" />
    <path
       id="rect58340"
       style="opacity:1;fill:#ffffff;stroke-width:6.18152;stroke-linecap:square;stroke-linejoin:round;stroke-miterlimit:10;stroke-dasharray:none"
       d="m 501.74738,-11.635548 c -3.15318,0.01705 -4.11703,1.14071 -6.6099,4.1613 l -55.25412,66.952257 c -2.37944,4.16241 -0.27581,7.44346 1.00092,8.71822 1.27424,1.27222 3.03491,2.0564 4.98607,2.0564 l 40.46923,-10.11626 -5.0841,74.657031 h 41.1728 l -5.08573,-74.659571 40.53979,10.1188 c 0.94929,0.23656 3.99177,-0.67745 5.39647,-2.49806 0.99962,-1.29535 1.6229,-2.93801 1.61379,-4.54589 -0.0157,-1.54133 -0.55993,-3.06475 -1.59627,-4.34029 -12.45921,-15.33567 -55.28335,-67.079004 -55.28335,-67.079004 -1.44742,-1.917437 -3.34798,-3.434853 -6.2656,-3.424933 z" />
    <g
       transform="translate(3.56928)"
       id="g49819">
      <path
         d="m 412.39528,147.78305 h 171.76509 c 3.0062,0 5.42636,2.42016 5.42636,5.42636 v 33.00582 c 0,3.00621 -2.42016,5.42637 -5.42636,5.42637 H 412.39528 c -3.00621,0 -5.42637,-2.42016 -5.42637,-5.42637 v -33.00582 c 0,-3.0062 2.42016,-5.42636 5.42637,-5.42636 z"
         style="opacity:0.999883;fill:#ffffff;fill-opacity:1;fill-rule:evenodd;stroke:none;stroke-width:1.02608;stroke-linecap:round;stroke-linejoin:round;stroke-miterlimit:0.1;stroke-dasharray:none;stroke-opacity:1"
         id="rect17990" />
      <path
         sodipodi:nodetypes="ccccccccccscscscscsscssscscs"
         id="path82564"
         style="font-style:normal;font-variant:normal;font-weight:normal;font-stretch:normal;font-size:122.83px;line-height:1.15;font-family:'Highway Gothic Wide';-inkscape-font-specification:'Highway Gothic Wide';text-align:center;letter-spacing:3.26px;text-anchor:middle;fill:#000000;fill-opacity:1;stroke-width:0.784348"
         d="m 537.81069,153.71416 3.90304,-5e-5 v 3.86392 l -3.90309,0.0315 z m 13.62548,3.92169 -3.93475,-0.0315 v -3.89006 h 3.93475 z m 2.03843,12.30452 c 0,3.30638 -0.94677,5.40387 -2.52553,7.44668 -1.55794,2.02175 -3.64566,3.03259 -6.26306,3.03259 -2.86667,0 -5.11013,-1.1688 -6.73043,-3.50646 -1.41254,-2.02174 -2.19748,-3.94024 -2.19748,-6.90963 0,-3.36958 0.92047,-5.81337 2.49924,-7.75088 1.57875,-1.95854 3.73913,-2.93782 6.48117,-2.93782 2.57585,0 4.65314,1.00031 6.2319,3.00102 1.59948,1.97963 2.50419,4.3813 2.50419,7.6245 z m -3.81292,0.0632 c 0,-2.23234 -0.49874,-3.67676 -1.37119,-4.94038 -0.66749,-1.17516 -1.994,-1.98914 -3.55198,-1.98914 -1.57876,0 -2.81474,0.63179 -3.70798,1.89536 -0.89324,1.26361 -1.44483,2.80182 -1.44483,5.03416 0,2.25339 0.4466,3.39289 1.33988,4.67754 0.89319,1.26357 2.23417,1.89534 3.81293,1.89534 1.78647,0 3.11597,-1.06064 3.83229,-2.31708 0.66475,-1.24254 1.09088,-2.27622 1.09088,-4.2558 z" />
      <g
         aria-label="Y"
         id="text17994"
         style="font-style:normal;font-variant:normal;font-weight:normal;font-stretch:normal;font-size:30px;line-height:1.15;font-family:'Highway Gothic Wide';-inkscape-font-specification:'Highway Gothic Wide';fill:#000000;fill-opacity:1;stroke-width:0.75"
         transform="matrix(1.0333624,0,0,1.0735689,-54.35606,-293.86547)">
        <path
           d="m 565.17882,421.88038 -8.44689,11.91437 v 7.93268 h -3.68715 l 3e-5,-7.93768 -8.46,-11.91 4.47928,10e-4 5.81072,8.18871 5.81433,-8.18917 z"
           style="font-style:normal;font-variant:normal;font-weight:normal;font-stretch:normal;font-family:'Highway Gothic Wide';-inkscape-font-specification:'Highway Gothic Wide';fill:#000000;fill-opacity:1;stroke-width:0.75"
           id="path17996"
           sodipodi:nodetypes="cccccccccc" />
      </g>
      <path
         d="m 578.56674,180.35837 h -4.15897 l -9.08353,-14.74454 -0.008,14.74553 -3.84247,-5e-5 v -21.39259 l 4.25722,0.008 8.97073,14.51207 0.008,-14.51939 h 3.85712 z"
         style="font-style:normal;font-variant:normal;font-weight:normal;font-stretch:normal;font-size:30px;line-height:1.15;font-family:'Highway Gothic Wide';-inkscape-font-specification:'Highway Gothic Wide';fill:#000000;fill-opacity:1;stroke-width:0.798232"
         id="path18021"
         sodipodi:nodetypes="ccccccccccc" />
      <path
         sodipodi:nodetypes="ccccccccccccc"
         id="path82556"
         style="font-style:normal;font-variant:normal;font-weight:normal;font-stretch:normal;font-size:122.83px;line-height:1.15;font-family:'Highway Gothic Wide';-inkscape-font-specification:'Highway Gothic Wide';text-align:center;letter-spacing:3.26px;text-anchor:middle;fill:#000000;fill-opacity:1;stroke-width:0.822436"
         d="m 481.27866,180.3595 -4.64622,-0.008 -6.91152,-10.08458 -1.58882,1.56302 v 8.5289 h -3.83513 l 0.0262,-21.26485 h 3.80739 l 0.008,7.41966 7.66944,-7.41936 h 5.47374 l -8.72789,8.54024 z" />
      <path
         sodipodi:nodetypes="ccccccccccccc"
         id="path49967"
         style="font-style:normal;font-variant:normal;font-weight:normal;font-stretch:normal;font-size:30px;line-height:1.15;font-family:'Highway Gothic Wide';-inkscape-font-specification:'Highway Gothic Wide';fill:#000000;fill-opacity:1;stroke-width:0.788296"
         d="m 455.85654,180.34148 -15.20396,0.0172 v -21.12635 l 15.2038,-0.0266 v 3.78383 l -11.35692,0.0266 -0.0555,4.63745 7.19338,0.009 v 3.84688 l -7.19338,-0.009 0.0555,5.07436 11.35708,-0.0172 z" />
      <g
         aria-label="T"
         id="text18072"
         style="font-size:30px;line-height:1.15;font-family:'ALS Direct';-inkscape-font-specification:'ALS Direct';fill:#000000;fill-opacity:1;stroke-width:0.75"
         transform="matrix(1.0679875,0,0,1.0679875,119.18234,-343.73608)">
        <path
           d="m 294.81734,474.48971 h -5.72732 v 16.20325 h -3.5684 v -16.20313 l -5.69866,-1.3e-4 v -3.54 l 14.99438,10e-6 z"
           style="font-style:normal;font-variant:normal;font-weight:normal;font-stretch:normal;font-family:'Highway Gothic Wide';-inkscape-font-specification:'Highway Gothic Wide';fill:#000000;fill-opacity:1;stroke-width:0.75"
           id="path18075"
           sodipodi:nodetypes="ccccccccc" />
      </g>
    </g>
  </g>
</svg>
