<svg width="246.11" height="246.11" version="1.1" viewBox="0 0 246.11 246.11" xmlns="http://www.w3.org/2000/svg"><g transform="translate(-378.79 32.388)"><path d="m394.64-31.888h214.42c8.5034 0 15.349 6.8457 15.349 15.349v214.42c0 8.5034-6.8457 15.349-15.349 15.349h-214.42c-8.5034 0-15.349-6.8457-15.349-15.349v-214.42c0-8.5034 6.8457-15.349 15.349-15.349z" fill="#00408c"/><path d="m394.6-27.779c-6.2278 0-11.242 5.0141-11.242 11.242v214.46c0 6.2278 5.0142 11.242 11.242 11.242h214.46c6.2278 0 11.242-5.0141 11.242-11.242v-214.46c0-6.2278-5.0142-11.242-11.242-11.242zm0 4.064h214.5c3.9523 0 7.1336 3.1814 7.1336 7.1337v214.5c0 3.9523-3.1814 7.1336-7.1336 7.1336h-214.5c-3.9523 0-7.1336-3.1814-7.1336-7.1336v-214.5c0-3.9523 3.1814-7.1337 7.1336-7.1337z" fill="#fff"/><path d="m501.75-11.636c-3.1532 0.01705-4.117 1.1407-6.6099 4.1613l-55.254 66.952c-2.3794 4.1624-0.27581 7.4435 1.0009 8.7182 1.2742 1.2722 3.0349 2.0564 4.9861 2.0564l40.469-10.116-5.0841 74.657h41.173l-5.0857-74.66 40.54 10.119c0.94929 0.23656 3.9918-0.67745 5.3965-2.4981 0.99962-1.2954 1.6229-2.938 1.6138-4.5459-0.0157-1.5413-0.55993-3.0648-1.5963-4.3403-12.459-15.336-55.283-67.079-55.283-67.079-1.4474-1.9174-3.348-3.4349-6.2656-3.4249z" fill="#fff" stroke-linecap="square" stroke-linejoin="round" stroke-miterlimit="10" stroke-width="6.1815"/><g transform="translate(3.5693)"><path d="m412.4 147.78h171.77c3.0062 0 5.4264 2.4202 5.4264 5.4264v33.006c0 3.0062-2.4202 5.4264-5.4264 5.4264h-171.77c-3.0062 0-5.4264-2.4202-5.4264-5.4264v-33.006c0-3.0062 2.4202-5.4264 5.4264-5.4264z" fill="#fff" fill-rule="evenodd" opacity=".99988"/><g><path d="m537.81 153.71 3.903-5e-5v3.8639l-3.9031 0.0315zm13.625 3.9217-3.9348-0.0315v-3.8901h3.9348zm2.0384 12.305c0 3.3064-0.94677 5.4039-2.5255 7.4467-1.5579 2.0218-3.6457 3.0326-6.2631 3.0326-2.8667 0-5.1101-1.1688-6.7304-3.5065-1.4125-2.0217-2.1975-3.9402-2.1975-6.9096 0-3.3696 0.92047-5.8134 2.4992-7.7509 1.5788-1.9585 3.7391-2.9378 6.4812-2.9378 2.5758 0 4.6531 1.0003 6.2319 3.001 1.5995 1.9796 2.5042 4.3813 2.5042 7.6245zm-3.8129 0.0632c0-2.2323-0.49874-3.6768-1.3712-4.9404-0.66749-1.1752-1.994-1.9891-3.552-1.9891-1.5788 0-2.8147 0.63179-3.708 1.8954-0.89324 1.2636-1.4448 2.8018-1.4448 5.0342 0 2.2534 0.4466 3.3929 1.3399 4.6775 0.89319 1.2636 2.2342 1.8953 3.8129 1.8953 1.7865 0 3.116-1.0606 3.8323-2.3171 0.66475-1.2425 1.0909-2.2762 1.0909-4.2558z" stroke-width=".78435"/><g transform="matrix(1.0334 0 0 1.0736 -54.356 -293.87)" stroke-width=".75" aria-label="Y"><path d="m565.18 421.88-8.4469 11.914v7.9327h-3.6872l3e-5 -7.9377-8.46-11.91 4.4793 1e-3 5.8107 8.1887 5.8143-8.1892z" stroke-width=".75"/></g><path d="m578.57 180.36h-4.159l-9.0835-14.745-8e-3 14.746-3.8425-5e-5v-21.393l4.2572 8e-3 8.9707 14.512 8e-3 -14.519h3.8571z" stroke-width=".79823"/><path d="m481.28 180.36-4.6462-8e-3 -6.9115-10.085-1.5888 1.563v8.5289h-3.8351l0.0262-21.265h3.8074l8e-3 7.4197 7.6694-7.4194h5.4737l-8.7279 8.5402z" stroke-width=".82244"/><path d="m455.86 180.34-15.204 0.0172v-21.126l15.204-0.0266v3.7838l-11.357 0.0266-0.0555 4.6374 7.1934 9e-3v3.8469l-7.1934-9e-3 0.0555 5.0744 11.357-0.0172z" stroke-width=".7883"/><g transform="matrix(1.068 0 0 1.068 119.18 -343.74)" stroke-width=".75" aria-label="T"><path d="m294.82 474.49h-5.7273v16.203h-3.5684v-16.203l-5.6987-1.3e-4v-3.54l14.994 1e-5z" stroke-width=".75"/></g></g></g></g></svg>