<svg xmlns="http://www.w3.org/2000/svg" viewBox="0 0 399.57 255.12"><defs><style>.cls-1{fill:#006a50;}.cls-2{fill:#fff;}.cls-3{fill:#d40000;}.cls-4{fill-rule:evenodd;}</style></defs><g id="Layer_2" data-name="Layer 2"><g id="Layer_1-2" data-name="Layer 1"><rect class="cls-1" width="399.57" height="255.12"/><rect class="cls-1" x="8.43" y="8.52" width="153.18" height="238.08" rx="16.08"/><path class="cls-2" d="M145.53,249.1h-121A18.61,18.61,0,0,1,5.93,230.52V24.6A18.61,18.61,0,0,1,24.51,6h121A18.61,18.61,0,0,1,164.11,24.6V230.52A18.61,18.61,0,0,1,145.53,249.1ZM24.51,11A13.59,13.59,0,0,0,10.93,24.6V230.52A13.59,13.59,0,0,0,24.51,244.1h121a13.59,13.59,0,0,0,13.58-13.58V24.6A13.59,13.59,0,0,0,145.53,11Z"/><rect class="cls-1" x="172.7" y="8.52" width="218.41" height="238.08" rx="19.2"/><path class="cls-2" d="M371.91,249.1h-180a21.73,21.73,0,0,1-21.7-21.71V27.72A21.73,21.73,0,0,1,191.9,6h180a21.73,21.73,0,0,1,21.7,21.7V227.39A21.73,21.73,0,0,1,371.91,249.1ZM191.9,11a16.72,16.72,0,0,0-16.7,16.7V227.39a16.72,16.72,0,0,0,16.7,16.71h180a16.72,16.72,0,0,0,16.7-16.71V27.72A16.72,16.72,0,0,0,371.91,11Z"/><polygon class="cls-2" points="82.2 21.25 73.68 21.25 65.58 68.03 80.31 68.03 82.2 21.25"/><polygon class="cls-2" points="87.87 21.25 96.36 21.25 104.46 68.03 89.73 68.03 87.87 21.25"/><polygon class="cls-2" points="63.36 80.78 79.8 80.78 73.68 233.87 36.84 233.87 63.36 80.78"/><polygon class="cls-2" points="90.24 80.78 106.68 80.78 133.2 233.87 96.36 233.87 90.24 80.78"/><polygon class="cls-2" points="22.65 70.88 147.39 70.88 147.39 76.55 128.97 76.55 131.79 94.97 117.63 94.97 120.45 76.55 49.59 76.55 52.44 94.97 38.25 94.97 41.1 76.55 22.65 76.55 22.65 70.88"/><path id="path2367" class="cls-2" d="M274.29,77.64a42,42,0,1,1-42-42A42,42,0,0,1,274.29,77.64Z"/><path d="M232.31,119.83a42.2,42.2,0,1,1,29.83-12.36A41.91,41.91,0,0,1,232.31,119.83Zm0-83.95a41.76,41.76,0,1,0,41.76,41.76A41.8,41.8,0,0,0,232.31,35.88Z"/><path id="path2954" class="cls-3" d="M273.09,77.64a40.78,40.78,0,1,1-40.78-40.78A40.78,40.78,0,0,1,273.09,77.64Z"/><path id="path2956" class="cls-2" d="M262.54,77.64a30.23,30.23,0,1,1-30.23-30.23A30.22,30.22,0,0,1,262.54,77.64Z"/><g id="g1922"><path id="path2798" class="cls-4" d="M233.9,63.16a1.58,1.58,0,0,0-.76.18l-2.94,1.54a1.67,1.67,0,0,0-.62.56L222.33,76a1.84,1.84,0,0,0,.39,2.49,1.65,1.65,0,0,0,2.37-.41L229.28,72,230.82,76,221.5,95.82a1.85,1.85,0,0,0,.07,1.82,1.65,1.65,0,0,0,3-.24l8.39-17.77L240.3,96.9A1.7,1.7,0,0,0,241.68,98a1.67,1.67,0,0,0,1.56-.74,1.87,1.87,0,0,0,.16-1.79l-7.94-18.55a1.78,1.78,0,0,0-.23-.43l1.12-6.35L239.07,73l.38,4.21a1.78,1.78,0,0,0,1,1.54,1.64,1.64,0,0,0,1.74-.16,1.82,1.82,0,0,0,.69-1.69l-.41-4.87A1.86,1.86,0,0,0,242,71l-6.83-7.28a1.64,1.64,0,0,0-1.22-.53Z"/><path d="M223,98.55a1.78,1.78,0,0,1-1.51-.86,2,2,0,0,1-.07-1.9L230.72,76l-1.47-3.88-4.09,5.94a1.75,1.75,0,0,1-1.17.76,1.73,1.73,0,0,1-1.32-.33,1.93,1.93,0,0,1-.41-2.61l7.25-10.53a1.73,1.73,0,0,1,.65-.58l2.94-1.54a1.72,1.72,0,0,1,.79-.2h0a1.79,1.79,0,0,1,1.28.57L242,70.92a1.92,1.92,0,0,1,.5,1.14l.41,4.87a1.9,1.9,0,0,1-.73,1.76,1.7,1.7,0,0,1-1.82.18,1.88,1.88,0,0,1-1-1.62L239,73.07l-2.59-2.79-1.08,6.15a2.43,2.43,0,0,1,.22.42l7.94,18.55a2,2,0,0,1-.17,1.87,1.75,1.75,0,0,1-1.64.78,1.8,1.8,0,0,1-1.45-1.12l-7.3-17.09-8.3,17.6a1.8,1.8,0,0,1-1.49,1.11Zm6.3-26.75,1.61,4.25,0,0-9.32,19.78a1.77,1.77,0,0,0,.07,1.74,1.59,1.59,0,0,0,1.48.78,1.64,1.64,0,0,0,1.35-1l8.46-18,7.45,17.45a1.63,1.63,0,0,0,1.31,1,1.6,1.6,0,0,0,1.48-.71,1.75,1.75,0,0,0,.15-1.7l-7.94-18.56a1.44,1.44,0,0,0-.22-.4l0,0v0l1.14-6.52L239.16,73l.37,4.24a1.71,1.71,0,0,0,.91,1.48,1.55,1.55,0,0,0,1.65-.16,1.75,1.75,0,0,0,.66-1.61l-.41-4.87a1.68,1.68,0,0,0-.46-1l-6.82-7.28a1.6,1.6,0,0,0-1.16-.51h0a1.5,1.5,0,0,0-.71.18L230.24,65a1.5,1.5,0,0,0-.59.53L222.4,76a1.75,1.75,0,0,0,.37,2.37,1.55,1.55,0,0,0,1.19.3A1.59,1.59,0,0,0,225,78Z"/><path id="path1892" class="cls-4" d="M233.86,59.92a3.18,3.18,0,1,1-3.17-3.33A3.25,3.25,0,0,1,233.86,59.92Z"/><path d="M230.69,63.29a3.38,3.38,0,1,1,3.22-3.37A3.31,3.31,0,0,1,230.69,63.29Zm0-6.65a3.28,3.28,0,1,0,3.12,3.28A3.21,3.21,0,0,0,230.69,56.64Z"/></g><path id="path2367-2" data-name="path2367" class="cls-2" d="M373.72,77.64a42.19,42.19,0,1,1-42.19-42.19A42.19,42.19,0,0,1,373.72,77.64Z"/><path d="M331.53,120a42.4,42.4,0,1,1,30-12.42A42.11,42.11,0,0,1,331.53,120Zm0-84.38a42,42,0,1,0,42,42A42,42,0,0,0,331.53,35.66Z"/><path id="path2954-2" data-name="path2954" class="cls-3" d="M372.52,77.64a41,41,0,1,1-41-41A41,41,0,0,1,372.52,77.64Z"/><path id="path2956-2" data-name="path2956" class="cls-2" d="M361.92,77.64a30.39,30.39,0,1,1-30.39-30.39A30.4,30.4,0,0,1,361.92,77.64Z"/><path id="path2053" class="cls-4" d="M323.58,63.85a1.78,1.78,0,0,0-.91.22,1.31,1.31,0,0,0-.56.63,2.27,2.27,0,0,0,.08,1.48,5.33,5.33,0,0,0,.74,1.46l-3.54,6.08a8.57,8.57,0,1,0,.89.54l1.21-2.09,9.79,7.89a1.51,1.51,0,0,0-.18.81l.07,1.58a1.56,1.56,0,0,0,1.61,1.46l5.86-.3A8.57,8.57,0,1,0,343,73.69L340.75,70,342,67.84a2.58,2.58,0,0,1,.48,0c1.75,1.68,2.38-.15,1.71-1.63a1.11,1.11,0,0,0-1-.36,15.74,15.74,0,0,0-3.92.52.33.33,0,0,0-.28.32.33.33,0,0,0,.24.34c.56.19,1.12.42,1.7.58l-1.27,2.14H322.85l1.1-1.87a.51.51,0,0,0,0-.53,7.62,7.62,0,0,1-.75-1.52,1.72,1.72,0,0,1-.1-.79.18.18,0,0,1,.1-.11.76.76,0,0,1,.41-.08h4.65a.52.52,0,1,0,0-1Zm-1.29,6.95h16.79L334,79.33l-1.28-.1a.61.61,0,0,0-.19,0,1.37,1.37,0,0,0-.52.13l-10-8.1.29-.46Zm17.86.2,1.94,3.2a8.63,8.63,0,0,0-3.61,5.43l-3.33-.23Zm-24.74,3.13a7.18,7.18,0,0,1,3.3.8l-3,5.23-.24,0a1.19,1.19,0,0,0-1.19,1.19,1.2,1.2,0,1,0,2.39,0,1.19,1.19,0,0,0-.13-.53l3.08-5.32a7.17,7.17,0,1,1-4.17-1.34Zm31.48,0a7.18,7.18,0,1,1-6.82,9.42l6.13-.31h.21a1.54,1.54,0,0,0,1.53-1.53,1.51,1.51,0,0,0-1-1.42l-3.27-5.41a7.14,7.14,0,0,1,3.2-.75Zm-4.08,1.28,2.86,4.72-5.79-.4A7.27,7.27,0,0,1,342.81,75.41Z"/><path d="M346.89,90.37a9.09,9.09,0,0,1-8.61-6.25l-5.47.28a2,2,0,0,1-2.13-1.92l-.08-1.59a2.16,2.16,0,0,1,.08-.67l-9.05-7.3-.7,1.21a9.07,9.07,0,1,1-1.73-1l3.15-5.42a5.36,5.36,0,0,1-.63-1.33,2.68,2.68,0,0,1-.07-1.8,1.75,1.75,0,0,1,.77-.89,2.35,2.35,0,0,1,1.16-.29h4.65a1,1,0,0,1,0,2h-4.67c0,.08,0,.19.08.32a6.77,6.77,0,0,0,.7,1.41,1,1,0,0,1,0,1l-.67,1.13h15.71l.8-1.36-.59-.21-.51-.19a.84.84,0,0,1,.08-1.62,16.33,16.33,0,0,1,4-.52,1.6,1.6,0,0,1,1.39.55l0,0,0,0c.5,1.12.38,2.33-.29,2.8-.33.23-1,.47-2.08-.48l-1,1.66,1.84,3a9.06,9.06,0,1,1,3.73,17.32ZM339,83.1l.11.38a8.07,8.07,0,1,0,7.77-10.25,8,8,0,0,0-3.69.9l-.41.21L340.17,70l1.6-2.71.32,0h.13a1.51,1.51,0,0,1,.45.05l.11,0,.08.08c.52.5.86.57.95.5s.29-.81,0-1.52c-.07-.07-.2-.13-.57-.13a15.21,15.21,0,0,0-3.32.39l.06,0c.37.13.76.27,1.13.37l.62.18L340,70.28H322l1.53-2.61h0v0l-3.92,6.74-.42-.22a8.09,8.09,0,1,0,.84.51l-.38-.26,1.73-3,10.56,8.52-.19.36a1,1,0,0,0-.13.54l.08,1.59a1,1,0,0,0,1.09,1ZM323.58,64.34a1.41,1.41,0,0,0-.67.16.78.78,0,0,0-.33.37,1.76,1.76,0,0,0,.08,1.15,4.83,4.83,0,0,0,.62,1.26l0,0A7.11,7.11,0,0,1,322.7,66a2,2,0,0,1-.09-1.12.66.66,0,0,1,.32-.36,1.23,1.23,0,0,1,.65-.14h4.65a0,0,0,0,0,0,0s0,0,0,0ZM346.89,89a7.66,7.66,0,0,1-7.29-5.28l-.2-.61,6.8-.34h.21a1.05,1.05,0,0,0,1-1,1,1,0,0,0-.67-1l-.16-.06-3.63-6,.48-.24a7.59,7.59,0,0,1,3.42-.81,7.68,7.68,0,0,1,0,15.35Zm-6.12-5a6.69,6.69,0,1,0,6.12-9.39,6.57,6.57,0,0,0-2.49.48l2.9,4.8a2,2,0,0,1-.89,3.84h-.2Zm-25.36,5a7.68,7.68,0,1,1,3.52-14.49l.46.24-3.47,6-.41-.08-.08,0a.7.7,0,0,0-.7.7.7.7,0,1,0,1.4,0,.6.6,0,0,0-.07-.3l-.12-.24,3.48-6,.45.32A7.67,7.67,0,0,1,315.41,89Zm0-14.36a6.71,6.71,0,1,0,4.31,1.59l-2.67,4.62a1.61,1.61,0,0,1,.07.49,1.69,1.69,0,1,1-1.72-1.69L318,75.15A6.64,6.64,0,0,0,315.41,74.62Zm31.17,6.06-7.31-.49.13-.57A7.66,7.66,0,0,1,342.53,75l.43-.3Zm-6.06-1.4,4.23.29-2.08-3.44A6.71,6.71,0,0,0,340.52,79.28Zm-1.64.88-4.57-.32,5.84-9.8,2.6,4.31-.39.26A8.14,8.14,0,0,0,339,79.73ZM336,79l2.11.15a9.1,9.1,0,0,1,3.34-5L340.16,72Zm-4,1-10.62-8.57.66-1.06H340l-5.66,9.53-1.58-.12h-.13a1,1,0,0,0-.33.09Zm.68-1.21h.13l1,.08,4.45-7.51H322.84l9.3,7.5a1.78,1.78,0,0,1,.39-.07Z"/><path id="path2367-3" data-name="path2367" class="cls-2" d="M274.74,177.13a42.43,42.43,0,1,1-42.43-42.43A42.43,42.43,0,0,1,274.74,177.13Z"/><path d="M232.31,219.78a42.64,42.64,0,1,1,30.16-12.49A42.37,42.37,0,0,1,232.31,219.78Zm0-84.86a42.22,42.22,0,1,0,42.22,42.21A42.26,42.26,0,0,0,232.31,134.92Z"/><path id="path2954-3" data-name="path2954" class="cls-3" d="M273.54,177.13a41.23,41.23,0,1,1-41.23-41.22A41.23,41.23,0,0,1,273.54,177.13Z"/><path id="path2956-3" data-name="path2956" class="cls-2" d="M262.87,177.13a30.56,30.56,0,1,1-30.56-30.56A30.57,30.57,0,0,1,262.87,177.13Z"/><path id="path3887" d="M241.3,159.2a1.59,1.59,0,1,0,1.51,1.67,1.59,1.59,0,0,0-1.51-1.67Zm.77,3.79a.49.49,0,0,0-.22,0,2.08,2.08,0,0,0-1.15.19s-5.83,2-5.88,2a1.15,1.15,0,0,0-.67,1.66,1,1,0,0,0,1.32.62l2.94-1c.5-.23.47.27.47.27s-.1,1.24-.06,1.24c0,.4-.36.33-.36.33s-3.57-.22-3.53-.17a.94.94,0,0,0-1,1s-.33,6.75-.33,6.7c-.05,1,1.1.8,1.1.9a1.18,1.18,0,0,0,1.34-.93l.23-4.67a.39.39,0,0,1,.42-.38s5.51.32,5.51.27a.69.69,0,0,0,.74-.66s.35-6.26.3-6.26a1,1,0,0,0-1.13-1.09Zm17.73,9.31h-.1s-22.53-1.05-22.52-1.1a.6.6,0,0,0-.69.61l-.14,2.83a2.1,2.1,0,0,0,.2,1.12l1.22,5.3-11.06-.54.55,1.85,13.18.64a8.51,8.51,0,0,0-.11.9,6.73,6.73,0,1,0,13.41-.25l6.72.33.08-1.64-3.54-.17c1.08-3.13,2-6.29,3.12-9.41.21-.44-.14-.48-.32-.48Zm-18.16,10.78,3.52.17a2.08,2.08,0,0,0-.25.89,2.14,2.14,0,1,0,4.28.21,2.3,2.3,0,0,0-.16-.91l3.5.17a4.84,4.84,0,0,1,0,.85,5.52,5.52,0,1,1-11-.54,6,6,0,0,1,.11-.84Z"/><path d="M247.06,191.11h-.35a6.87,6.87,0,0,1-6.52-7.19,7.11,7.11,0,0,1,.08-.75l-13.11-.64-.64-2.14,11.07.54-1.17-5.1a2.34,2.34,0,0,1-.21-1.18l.14-2.83a.88.88,0,0,1,.22-.55.78.78,0,0,1,.61-.19h.14c1.46.1,15.06.75,22.37,1.09h.13a.48.48,0,0,1,.45.19.46.46,0,0,1,0,.48c-.58,1.68-1.14,3.4-1.68,5.06-.44,1.37-.9,2.78-1.37,4.16l3.49.18-.09,1.92-6.7-.33a6.5,6.5,0,0,1,0,.76,6.87,6.87,0,0,1-6.85,6.53Zm-19.69-8.87,13.24.65,0,.16a7.66,7.66,0,0,0-.11.87,6.58,6.58,0,0,0,11,5.2,6.52,6.52,0,0,0,2.15-4.55,5.38,5.38,0,0,0,0-.89v-.16l6.74.33.06-1.35-3.58-.18.06-.18c.49-1.44,1-2.91,1.43-4.34.54-1.66,1.1-3.38,1.69-5.07h0c.05-.1.07-.18,0-.22s-.09-.06-.23-.06h-.11l-11.24-.53c-9.23-.44-10.93-.53-11.28-.58h0a.51.51,0,0,0-.4.12.52.52,0,0,0-.14.35l-.14,2.84a2,2,0,0,0,.18,1l0,0v0l1.26,5.49-11-.54Zm19.69,7.63h-.29a5.67,5.67,0,0,1-5.39-5.94,5.16,5.16,0,0,1,.13-.87l0-.12,3.86.19-.11.2a2,2,0,0,0-.23.83,2,2,0,0,0,4,.19,2.08,2.08,0,0,0-.15-.84l-.09-.21,3.85.19v.12a4.85,4.85,0,0,1,0,.87,5.66,5.66,0,0,1-5.64,5.4Zm-5.3-6.64a4.76,4.76,0,0,0-.09.7,5.38,5.38,0,1,0,10.75.53,5.45,5.45,0,0,0,0-.71l-3.17-.15a2.18,2.18,0,0,1,.1.76,2.28,2.28,0,1,1-4.56-.23,2.26,2.26,0,0,1,.17-.75Zm-7-6.37h-.25v0h0c-.3,0-1.11-.11-1.06-1h0c0-.07,0-.16,0-.29l.31-6.42a1.24,1.24,0,0,1,.35-.81,1.14,1.14,0,0,1,.85-.28h0c.25,0,1,0,3.53.17h0a.2.2,0,0,0,.13,0,.22.22,0,0,0,.06-.14,8.11,8.11,0,0,1,.06-1.28s0-.13-.05-.16a.28.28,0,0,0-.22,0l-3,1A1.14,1.14,0,0,1,234,167a.77.77,0,0,1-.15-.43,1.28,1.28,0,0,1,.89-1.46h0l5.83-2a2.23,2.23,0,0,1,1.18-.2.88.88,0,0,1,.26,0,1.51,1.51,0,0,1,1,.4,1.1,1.1,0,0,1,.26.83h0c0,.28,0,1.37-.3,6.27a.82.82,0,0,1-.89.79h0c-.26,0-1.25,0-5.51-.27a.24.24,0,0,0-.27.25l-.23,4.68A1.33,1.33,0,0,1,234.76,176.86Zm0-.29a1,1,0,0,0,1.15-.81l.23-4.66a.53.53,0,0,1,.16-.37.58.58,0,0,1,.4-.14c1.92.11,4.76.27,5.37.28v0h.14a.53.53,0,0,0,.59-.52c.13-2.21.3-5.47.31-6.13h0v-.14a.87.87,0,0,0-.19-.63,1.25,1.25,0,0,0-.8-.31H242v0h-.14a2.09,2.09,0,0,0-1.07.17h0c-4.8,1.69-5.7,2-5.89,2h0a1,1,0,0,0-.66.63,1.22,1.22,0,0,0,0,.76h0l0,.08a.88.88,0,0,0,1.14.54l2.93-1a.49.49,0,0,1,.5,0,.5.5,0,0,1,.18.41c0,.43-.07.9-.08,1.1h0V168a.46.46,0,0,1-.17.38.48.48,0,0,1-.35.08c-1-.06-2.53-.15-3.18-.17l0,0-.35,0a.85.85,0,0,0-.65.19.93.93,0,0,0-.25.62c0,.07-.33,6.67-.33,6.71,0,.57.4.67.81.71Zm6.51-14h-.09a1.73,1.73,0,0,1,.17-3.46,1.67,1.67,0,0,1,1.2.57,1.73,1.73,0,0,1,.45,1.25,1.69,1.69,0,0,1-.57,1.2A1.72,1.72,0,0,1,241.22,162.53Zm0-3.19a1.45,1.45,0,0,0-.07,2.9,1.42,1.42,0,0,0,1-.37,1.44,1.44,0,0,0,.1-2.05,1.42,1.42,0,0,0-1-.48v0Z"/><path id="path3885" d="M206.18,168.41c-.34.1.06.93.06.93.45.85-.24,1-.24,1a.89.89,0,0,0-.56,1.4,19.85,19.85,0,0,1-.29,4.32c-.65,1.55,1.28,2,1.33,2,1.94,0,1.55-1.24,1.5-1.24a2,2,0,0,1,.2-1.7c.59-.89,1.55,0,1.5,0a5.24,5.24,0,0,1,1,1.59,7,7,0,0,0,1.35,1.79c-.25,1.79.29,2.19.34,2.19a.51.51,0,0,1-.19.85c-2.09,1.34-2.59,2.44-2.54,2.44-.85,1.39-.16,1.64-.21,1.69a1.53,1.53,0,0,1,.26,1.25c.3,1.94,1.2,2.63,1.24,2.58-.19,1.34.4,1.65.35,1.65.25.35.59-.1.59-.1A4.52,4.52,0,0,1,213,189.3c.65-.55-.73-.9-.78-.9-.1-.5-.4-.64-.4-.59-.5-.5-.6-.9-.55-.85-1-1.79.5-2.49.5-2.49,2.24-1.34,2.84-.39,2.89-.35,1.39,1,2.13,4.57,2.18,4.57a1.23,1.23,0,0,1-.14,1.3c-.75.69-.65,1.15-.6,1.15-.35.9,1.88.14,2,.14.6-.09.2-.5.16-.5-.5-.34,0-.69-.05-.69a1.52,1.52,0,0,1,.4-.74,11.75,11.75,0,0,1-1.54-6.07c-.1-.75.59-.26.64-.26,2.19.74,5.18-.6,5.08-.55,2.39-.5,1.44,1.26,1.49,1.26a7,7,0,0,0-.9,2.43,3.2,3.2,0,0,0-1.19,1.54s-1,1.6-1,1.6c-.8.84-.61,1.24-.61,1.29,0,.6.61.3.66.3.45-.45,1.73-.3,1.78-.35.3-.35-.14-.74-.09-.74.65-.25,1.24-1.75,1.29-1.75a3.12,3.12,0,0,1,2.09-2,1.86,1.86,0,0,1,0-1.14c.1-1,1-.56,1.09-.5,2.74.39,2.84,4.32,2.89,4.32a1.32,1.32,0,0,1-.4,1.16,1.43,1.43,0,0,0-.59,1.19s2.33.05,2.33,0c-.35-.79-.14-1.24-.1-1.19.4-.15.26-.75.26-.75s-.16-.55-.16-.5a4.76,4.76,0,0,1-.44-2.59c.3-1.64-.65-1.93-.65-1.89a4.46,4.46,0,0,1-1.05-1.4,4.17,4.17,0,0,1,.05-1.93,1.48,1.48,0,0,0-.05-.61c-.05-.52.1-.63.26-.63a.77.77,0,0,1,.34.15,1.69,1.69,0,0,1,.2,1.09c0,.75.79,1.2.9,1.93.3,2.14,2.54,2.85,2.54,2.94,1,.55.79-.59.79-.59a1.74,1.74,0,0,0-.69-1.55,1.35,1.35,0,0,1-.71-.85l-.64-1.82c-1-4.66-3.08-4.7-3-4.7a9.45,9.45,0,0,1-2.14-.74,3.81,3.81,0,0,0-3.49-.4,7.29,7.29,0,0,1-1.84.05c-3.13-.89-4.48-.11-4.53-.15-1.49.29-3.48-2.34-3.43-2.39-3.09-3.29-5.57-3-5.57-3a.91.91,0,0,1-1.06-.24,9.79,9.79,0,0,1-.88-.8.6.6,0,0,0-.37-.08Z"/><path d="M216.54,191.72a.68.68,0,0,1-.53-.16.39.39,0,0,1-.07-.4c-.06-.18,0-.64.61-1.23a.26.26,0,0,1,.07-.11c.1-.12.32-.38.09-1.07a2.15,2.15,0,0,1-.09-.31c-.23-.84-.93-3.41-2-4.2h0l0,0c-.21-.25-.88-.7-2.7.39h0a1.48,1.48,0,0,0-.7.81,1.9,1.9,0,0,0,.26,1.48l-.11.09.05.1a.11.11,0,0,0,.07-.12,2,2,0,0,0,.48.7.87.87,0,0,1,.46.62c.25.06.83.26.95.59.05.13.05.32-.2.53l0,0a4.59,4.59,0,0,0-1,1.64v0a.74.74,0,0,1-.49.29h0a.41.41,0,0,1-.33-.19v0a1.91,1.91,0,0,1-.38-1.63A4,4,0,0,1,209.6,187h0v-.11h.1l-.08,0a1.57,1.57,0,0,0-.26-1.12l0-.05c-.14-.16-.48-.6.23-1.78a6.61,6.61,0,0,1,2.58-2.49l0,0c.06,0,.21-.1.24-.24a.42.42,0,0,0-.09-.35.52.52,0,0,1-.11-.1c-.15-.17-.48-.73-.29-2.17l-.08-.07a6.31,6.31,0,0,1-1.24-1.67.79.79,0,0,1-.08-.16,4.51,4.51,0,0,0-.94-1.42l-.11-.11a1,1,0,0,0-.65-.24.65.65,0,0,0-.52.33l0,0a1.87,1.87,0,0,0-.17,1.52.73.73,0,0,1,.08.37.93.93,0,0,1-.33.72,2.09,2.09,0,0,1-1.38.37,2.25,2.25,0,0,1-1.4-.82,1.32,1.32,0,0,1-.07-1.3c0-.07,0-.2.05-.42a15.9,15.9,0,0,0,.25-3.81,1.38,1.38,0,0,1-.17-.46,1,1,0,0,1,.78-1.13l.06,0c.16-.08.44-.23.13-.81-.05-.11-.3-.67-.17-1a.28.28,0,0,1,.2-.17h0a.67.67,0,0,1,.47.08l0,.14.09.05a.12.12,0,0,0,0-.13s.24.21.42.37l.45.39,0,0a.75.75,0,0,0,.86.21l0,0c.27-.11,2.77-.11,5.72,3l.09.1,0,0c.29.45,2,2.46,3.24,2.22h.06l0,0a7.86,7.86,0,0,1,4.47.17,1.55,1.55,0,0,1,.26,0,5.61,5.61,0,0,0,1.54-.06h0a3.85,3.85,0,0,1,3.57.43l0,0a12.38,12.38,0,0,0,2,.68c.27,0,2.16.43,3.14,4.8l.64,1.84a1.26,1.26,0,0,0,.64.75l.05,0a1.85,1.85,0,0,1,.72,1.64c0,.11.07.6-.22.8s-.45.11-.79-.08l-.08,0v0l-.11-.06a4.06,4.06,0,0,1-2.42-2.93,2.08,2.08,0,0,0-.43-.85,2.06,2.06,0,0,1-.47-1.1,1.34,1.34,0,0,1,0-.2,1.26,1.26,0,0,0-.16-.8.58.58,0,0,0-.25-.09s-.05,0-.06,0-.08.12-.05.44a1.63,1.63,0,0,1,.05.66c0,.11,0,.23-.05.35a3,3,0,0,0,0,1.52h0a4.24,4.24,0,0,0,1,1.3.78.78,0,0,1,.26.13c.27.2.69.72.47,1.93a4.53,4.53,0,0,0,.41,2.45,3.62,3.62,0,0,1,.19.57c.06.27.06.75-.33.91a1.59,1.59,0,0,0,.16,1l0,0v.09l0,0c-.05.06-.09.09-2.43,0h-.13v-.13a1.54,1.54,0,0,1,.62-1.3l0-.05a1.05,1.05,0,0,0,.33-1h0s0-.1,0-.17c-.37-3.07-1.69-3.89-2.74-4h0l0,0a.78.78,0,0,0-.6-.07.56.56,0,0,0-.25.48h-.12l.1.06a2,2,0,0,0,0,1l0,.14-.14,0a3,3,0,0,0-2,1.95l0,.09h0l-.06.13a4.14,4.14,0,0,1-1.1,1.53.62.62,0,0,1,0,.78c-.06.07-.12.06-.35.07s-1.15,0-1.44.29l0,0h-.07a.72.72,0,0,1-.64,0,.48.48,0,0,1-.15-.42c-.08-.39.13-.85.63-1.39a18.28,18.28,0,0,1,1-1.56,3.36,3.36,0,0,1,1.2-1.56,7.19,7.19,0,0,1,.89-2.42l0-.07c.06-.18.22-.63,0-.88s-.65-.26-1.34-.12-3.15,1.23-5.16.56l-.1,0c-.24-.12-.32-.12-.34-.1s-.05.08,0,.25v0a11.68,11.68,0,0,0,1.52,6l.06.1-.09.08a1.61,1.61,0,0,0-.35.64.14.14,0,0,1-.06.13.38.38,0,0,0-.11.24.37.37,0,0,0,.15.2.53.53,0,0,1,.24.37c0,.12,0,.33-.44.4h0l-.14,0A5.93,5.93,0,0,1,216.54,191.72Zm-.33-.72h.09l-.07.2c0,.05,0,.13,0,.17s.44.15,1.64-.18l.21-.05a.3.3,0,0,0,.2-.08s0-.1-.07-.13h0l0,0a.56.56,0,0,1-.28-.4.61.61,0,0,1,.17-.46,1.84,1.84,0,0,1,.36-.71,12.14,12.14,0,0,1-1.51-6v0c0-.1,0-.37.14-.5s.5,0,.65.08l0,0h0c2,.68,4.67-.41,5-.54l.12-.05,0,0c.76-.15,1.26-.07,1.52.22a1.11,1.11,0,0,1,.08,1.05h.09l-.17.23a7,7,0,0,0-.87,2.36v.07l-.05,0a3.33,3.33,0,0,0-1.15,1.46v0l0,0-.87,1.37h.1l-.23.24c-.3.33-.65.79-.57,1.15a.43.43,0,0,1,0,.05c0,.07,0,.17,0,.21s.18,0,.37,0h0a2.65,2.65,0,0,1,1.61-.35h.16c.1-.15,0-.32-.1-.47s-.08-.13,0-.21l0-.07h.06c.44-.19.88-1.07,1.07-1.45l.12-.23a3.33,3.33,0,0,1,2-2.06,2.23,2.23,0,0,1,.08-1.09.75.75,0,0,1,.48-.7,1.06,1.06,0,0,1,.8.11c1.14.18,2.57,1.07,2.95,4.29v.08l0,.06a1.32,1.32,0,0,1-.24,1.05h.15L230,190a1.29,1.29,0,0,0-.53.94c.68,0,1.61,0,2,0-.24-.66-.12-1.1,0-1.19a.09.09,0,0,1,.07,0c.24-.12.14-.56.14-.56-.05-.2-.12-.42-.14-.47h0a4.82,4.82,0,0,1-.46-2.68c.18-1-.14-1.5-.36-1.66v.1l-.24-.2a4.62,4.62,0,0,1-1.09-1.45,3.33,3.33,0,0,1,0-1.66c0-.12,0-.24.05-.35a1.73,1.73,0,0,0,0-.53l.12-.05h-.14a.85.85,0,0,1,.13-.68.36.36,0,0,1,.27-.11.89.89,0,0,1,.43.17l0,0,0,0a1.62,1.62,0,0,1,.22,1,1,1,0,0,0,0,.17,1.78,1.78,0,0,0,.43.95,2.37,2.37,0,0,1,.47,1,3.77,3.77,0,0,0,2.27,2.72,1.14,1.14,0,0,1,.22.13c.22.12.39.15.47.09s.12-.4.09-.54v0a1.57,1.57,0,0,0-.61-1.41l0,0a1.45,1.45,0,0,1-.75-.92l-.65-1.83c-.95-4.25-2.7-4.56-2.9-4.59h-.13v0c-.65-.17-1.17-.35-1.43-.44a2.12,2.12,0,0,1-.68-.32,3.57,3.57,0,0,0-3.28-.37l-.08,0a5.43,5.43,0,0,1-1.62.06h-.17l0,0-.07,0a7.53,7.53,0,0,0-4.34-.19.34.34,0,0,1-.15,0c-1.55.27-3.43-2.19-3.56-2.43v0c-2.67-2.82-5-3-5.37-2.94h0a1,1,0,0,1-1.2-.28l-.44-.38-.45-.4a.44.44,0,0,0-.23,0h0s0,0,0,0a1.34,1.34,0,0,0,.17.71c.28.53.2.93-.23,1.17v0l-.1,0a.8.8,0,0,0-.59.49.88.88,0,0,0,.07.63h0l0,.12a15.45,15.45,0,0,1-.24,3.94c0,.19-.05.37-.05.4h-.11l.1.07a1.1,1.1,0,0,0,0,1,2,2,0,0,0,1.22.75c.67,0,1.13-.16,1.31-.47a.67.67,0,0,0,.08-.51l0-.06a2.1,2.1,0,0,1,.2-1.84h0a.92.92,0,0,1,1.22-.36,1.51,1.51,0,0,1,.51.35,4.51,4.51,0,0,1,1,1.5l0,0h0l0,.09a6.15,6.15,0,0,0,1.19,1.61c.14.13.17.16.17.23v0c-.21,1.51.16,2,.24,2h0l0,.06a.76.76,0,0,1,.16.62.53.53,0,0,1-.08.17h.09l-.22.14-.16.11h0a7.55,7.55,0,0,0-2.4,2.18h0l-.13.21c-.64,1.06-.35,1.37-.25,1.48a.27.27,0,0,1,.06.1,1.77,1.77,0,0,1,.27,1.31,3.87,3.87,0,0,0,1.07,2.39l.23-.24-.06.43a1.76,1.76,0,0,0,.28,1.51.16.16,0,0,1,0,.06c.05.06.08,0,.09,0s.19-.1.24-.16a4.57,4.57,0,0,1,1.13-1.78h0q.15-.12.12-.21c-.06-.21-.67-.41-.82-.44h-.11l0-.11a.89.89,0,0,0-.12-.32v0l-.24-.24a3.37,3.37,0,0,1-.86-2.6,1.78,1.78,0,0,1,.84-1c2-1.19,2.8-.62,3.05-.32h0c1.19.86,1.91,3.48,2.14,4.35,0,.07,0,.13.05.18h0l0,.1a1.3,1.3,0,0,1-.07,1.28l0,0-.15.14A1.6,1.6,0,0,0,216.21,191Z"/><path id="path2367-4" data-name="path2367" class="cls-2" d="M374.31,177.49a42.79,42.79,0,1,1-42.78-42.79A42.78,42.78,0,0,1,374.31,177.49Z"/><path d="M331.53,220.49a43,43,0,1,1,30.41-12.59A42.72,42.72,0,0,1,331.53,220.49Zm0-85.57a42.57,42.57,0,1,0,42.57,42.57A42.62,42.62,0,0,0,331.53,134.92Z"/><path id="path2954-4" data-name="path2954" class="cls-3" d="M373.1,177.49a41.57,41.57,0,1,1-41.57-41.57A41.57,41.57,0,0,1,373.1,177.49Z"/><path id="path2956-4" data-name="path2956" class="cls-2" d="M362.35,177.49a30.82,30.82,0,1,1-30.82-30.82A30.82,30.82,0,0,1,362.35,177.49Z"/><path id="path3759" d="M316,180.53a5.55,5.55,0,1,0,5.51,5.52A5.54,5.54,0,0,0,316,180.53Zm0,3.28a2.24,2.24,0,1,1-2.24,2.24A2.22,2.22,0,0,1,316,183.81Z"/><path d="M316,191.83a5.76,5.76,0,1,1,5.73-5.78A5.79,5.79,0,0,1,316,191.83Zm0-11.09a5.33,5.33,0,1,0,5.3,5.31A5.34,5.34,0,0,0,316,180.74Zm0,7.76a2.45,2.45,0,1,1,2.45-2.45A2.46,2.46,0,0,1,316,188.5Zm0-4.47a2,2,0,0,0-2,2,2,2,0,0,0,2,2,2,2,0,1,0,0-4Z"/><path id="path3761" d="M339.08,161.66a2.21,2.21,0,1,1,2.21,2.22,2.21,2.21,0,0,1-2.21-2.22"/><path d="M341.29,164.09a2.43,2.43,0,1,1,2.43-2.43A2.43,2.43,0,0,1,341.29,164.09Zm0-4.42a2,2,0,1,0,2,2A2,2,0,0,0,341.29,159.67Z"/><path id="path3763" d="M344.9,174.13a8.85,8.85,0,1,0,8.85,8.85A8.84,8.84,0,0,0,344.9,174.13Zm0,5.47a3.4,3.4,0,0,1,3.44,3.38,3.45,3.45,0,0,1-3.44,3.43,3.41,3.41,0,0,1-3.38-3.43A3.36,3.36,0,0,1,344.9,179.6Z"/><path d="M344.9,192A9.07,9.07,0,1,1,354,183,9.07,9.07,0,0,1,344.9,192Zm0-17.7a8.64,8.64,0,1,0,8.64,8.64A8.65,8.65,0,0,0,344.9,174.34Zm0,12.28a3.62,3.62,0,0,1-3.59-3.64,3.56,3.56,0,0,1,3.59-3.6,3.62,3.62,0,1,1,0,7.24Zm0-6.81a3.13,3.13,0,0,0-3.16,3.17,3.19,3.19,0,1,0,3.16-3.17Z"/><path id="path3765" d="M331.55,170.44l.09,9.81h-22l-.06-9.81"/><polygon points="331.86 180.47 309.44 180.47 309.37 170.44 309.8 170.44 309.86 180.03 331.43 180.03 331.34 170.44 331.77 170.44 331.86 180.47"/><path id="path3767" d="M331.27,180.74l.52,2.39H321.52a6.6,6.6,0,0,0-2.18-2.39"/><path d="M332.06,183.35H321.37l-.05-.14a6.27,6.27,0,0,0-2.1-2.29l.23-.37a6.81,6.81,0,0,1,2.2,2.37h9.88l-.47-2.14.42-.09Z"/><path id="path3769" d="M342.12,164.51a1.77,1.77,0,0,1,1.95,2s0,5.81,0,5.81.07,1-1.32,1.2c0,0-6.14,1.35-6.14,1.35a.73.73,0,0,0-.6.49s-1.73,6.34-1.73,6.34-.18,1-1.42.71a1.16,1.16,0,0,1-.94-1.57s1.69-6.9,1.69-6.9a2.06,2.06,0,0,1,1.72-1.62l4.16-.82s.38-.11.26-.41c0,0-.63-1.76-.63-1.76s-.19-.31-.6-.08c0,0-4.13,2-4.13,2a1.13,1.13,0,0,1-1.53-.52,1.32,1.32,0,0,1,.44-1.84s7.35-4.05,7.35-4.05a3,3,0,0,1,1.47-.3"/><path d="M333.29,182.63a2.25,2.25,0,0,1-.49-.06h0a1.46,1.46,0,0,1-.94-.58,1.62,1.62,0,0,1-.15-1.25l.09-.39v0c.27-1.05,1.05-4.28,1.58-6.53a2.31,2.31,0,0,1,1.9-1.78h0l4.13-.82a.25.25,0,0,0,.12-.08.13.13,0,0,0,0,0v0c-.06-.17-.39-1.1-.61-1.69,0,0-.12-.09-.31,0h0c-.11.07-.3.17-.65.34l-1.42.69-2.06,1a1.68,1.68,0,0,1-1.15.05,1.2,1.2,0,0,1-.68-.68l-.13-.31h0a1.43,1.43,0,0,1,.65-1.8h0c.17-.1,1.13-.64,7.36-4.06a3,3,0,0,1,1.55-.32,2,2,0,0,1,2.18,2.16v.22h0c0,.76,0,3.63,0,5.59h0c0,.14,0,1.18-1.49,1.42h-.09c-.56.11-3.84.84-6.05,1.33h0a.51.51,0,0,0-.41.34h0c0,.22-.33,1.23-1.72,6.32a1.18,1.18,0,0,1-1.2.93Zm-.36-.47a1,1,0,0,0,.82-.08.8.8,0,0,0,.32-.47v0c.46-1.66,1.63-6,1.72-6.3h0v0a1,1,0,0,1,.77-.64l3.06-.68,2.11-.47,1-.19h0c1.18-.19,1.13-1,1.13-1h0c0-4.37,0-5.49,0-5.82h0a1.72,1.72,0,0,0-.54-1.39,1.68,1.68,0,0,0-.68-.32l-.52,0a2.66,2.66,0,0,0-1.35.27c-1.95,1.07-7,3.83-7.32,4l0,0a1,1,0,0,0-.39,1.5l0,.08a.91.91,0,0,0,1.24.4c1.49-.72,3.7-1.8,4.06-2l.06,0a.63.63,0,0,1,.88.15l0,0c.47,1.27.6,1.64.63,1.76h0a.48.48,0,0,1,0,.39.61.61,0,0,1-.39.3h0c-3.39.68-4,.8-4.17.82h0a1.81,1.81,0,0,0-1.55,1.43v0l-.82,3.44-.58,2.38c-.15.63-.23.93-.28,1.07h0a1.15,1.15,0,0,0,.09.92,1.05,1.05,0,0,0,.67.4Z"/><path id="path3682" d="M345,170.79a9,9,0,0,0-9.23,8.85c13.08-.12,1.61.43,18.45,0a9,9,0,0,0-9.22-8.85Z"/><path d="M345.4,180a20.87,20.87,0,0,1-2.14-.07,73.1,73.1,0,0,0-7.53-.09h-.22v-.22a9.44,9.44,0,0,1,18.87,0v.21h-.21C349.31,180,346.81,180,345.4,180Zm-6.3-.61c2.94,0,3.63.06,4.2.11.9.08,1.6.14,10.65-.09a8.84,8.84,0,0,0-9-8.42h0a8.85,8.85,0,0,0-9,8.41Z"/></g></g></svg>