<svg xmlns="http://www.w3.org/2000/svg" viewBox="0 0 402 600"><defs><style>.cls-1{fill:#006a50;}.cls-2{fill:#fff;}.cls-3{fill:#d40000;}</style></defs><g id="Layer_2" data-name="Layer 2"><g id="Layer_1-2" data-name="Layer 1"><rect class="cls-1" width="402" height="600"/><rect class="cls-1" x="12.27" y="13.32" width="377.46" height="573.36" rx="30.04"/><polygon class="cls-2" points="194.21 43.99 173.69 43.99 154.18 156.63 189.66 156.63 194.21 43.99"/><polygon class="cls-2" points="207.86 43.99 228.31 43.99 247.82 156.63 212.34 156.63 207.86 43.99"/><polygon class="cls-2" points="148.84 187.33 188.43 187.33 173.69 556.01 84.97 556.01 148.84 187.33"/><polygon class="cls-2" points="213.57 187.33 253.16 187.33 317.03 556.01 228.31 556.01 213.57 187.33"/><polygon class="cls-2" points="50.8 163.49 351.2 163.49 351.2 177.14 306.84 177.14 313.63 221.5 279.53 221.5 286.32 177.14 115.68 177.14 122.54 221.5 88.37 221.5 95.23 177.14 50.8 177.14 50.8 163.49"/><path class="cls-3" d="M389.73,43.36a30.13,30.13,0,0,0-30-30H359L12.27,553.91v2.73a30.13,30.13,0,0,0,30,30H45L389.73,49.28Z"/><path class="cls-2" d="M359.69,590.68H42.31a34.08,34.08,0,0,1-34-34V43.36a34.08,34.08,0,0,1,34-34H359.69a34.08,34.08,0,0,1,34,34V556.64A34.08,34.08,0,0,1,359.69,590.68ZM42.31,17.32a26.07,26.07,0,0,0-26,26V556.64a26.07,26.07,0,0,0,26,26H359.69a26.07,26.07,0,0,0,26-26V43.36a26.07,26.07,0,0,0-26-26Z"/></g></g></svg>