<?xml version="1.0" encoding="UTF-8" standalone="no"?>
<svg
   xmlns:dc="http://purl.org/dc/elements/1.1/"
   xmlns:cc="http://creativecommons.org/ns#"
   xmlns:rdf="http://www.w3.org/1999/02/22-rdf-syntax-ns#"
   xmlns:svg="http://www.w3.org/2000/svg"
   xmlns="http://www.w3.org/2000/svg"
   xmlns:sodipodi="http://sodipodi.sourceforge.net/DTD/sodipodi-0.dtd"
   xmlns:inkscape="http://www.inkscape.org/namespaces/inkscape"
   sodipodi:docname="B20.svg"
   inkscape:version="1.0 (4035a4fb49, 2020-05-01)"
   id="svg15567"
   version="1.1"
   viewBox="0 0 105.83333 105.83334"
   height="105.83334mm"
   width="105.83333mm">
  <defs
     id="defs15561" />
  <sodipodi:namedview
     inkscape:window-maximized="1"
     inkscape:window-y="-9"
     inkscape:window-x="-9"
     inkscape:window-height="1001"
     inkscape:window-width="1920"
     showgrid="false"
     inkscape:document-rotation="0"
     inkscape:current-layer="layer1"
     inkscape:document-units="mm"
     inkscape:cy="490.78645"
     inkscape:cx="-338.10873"
     inkscape:zoom="0.35"
     inkscape:pageshadow="2"
     inkscape:pageopacity="0.0"
     borderopacity="1.0"
     bordercolor="#666666"
     pagecolor="#ffffff"
     id="base" />
  <metadata
     id="metadata15564">
    <rdf:RDF>
      <cc:Work
         rdf:about="">
        <dc:format>image/svg+xml</dc:format>
        <dc:type
           rdf:resource="http://purl.org/dc/dcmitype/StillImage" />
        <dc:title />
      </cc:Work>
    </rdf:RDF>
  </metadata>
  <g
     transform="translate(-162.8869,-17.744044)"
     id="layer1"
     inkscape:groupmode="layer"
     inkscape:label="Layer 1">
    <path
       id="rect15514"
       style="opacity:1;fill:#00408c;fill-opacity:1;fill-rule:evenodd;stroke:none;stroke-width:0.635;stroke-linecap:square;stroke-linejoin:round;paint-order:stroke fill markers"
       d="m 167.25259,17.744044 h 97.10196 c 2.4186,0 4.36568,1.947099 4.36568,4.36569 v 97.101946 c 0,2.4186 -1.94708,4.3657 -4.36568,4.3657 h -97.10196 c -2.41858,0 -4.36569,-1.9471 -4.36569,-4.3657 V 22.109734 c 0,-2.418591 1.94711,-4.36569 4.36569,-4.36569 z" />
    <path
       id="rect15525"
       style="opacity:1;fill:#ffffff;fill-opacity:1;fill-rule:evenodd;stroke:none;stroke-width:0.635;stroke-linecap:square;stroke-linejoin:round;paint-order:stroke fill markers"
       d="m 167.26751,18.92263 c -1.7711,0 -3.197,1.425899 -3.197,3.19699 v 97.07694 c 0,1.77109 1.4259,3.19698 3.197,3.19698 h 97.07692 c 1.7711,0 3.197,-1.42589 3.197,-3.19698 V 22.11962 c 0,-1.771091 -1.4259,-3.19699 -3.197,-3.19699 z m 0.0328,1.16917 h 97.00888 c 1.14072,0 2.05881,0.918685 2.05881,2.059418 v 97.007672 c 0,1.14073 -0.91809,2.05941 -2.05881,2.05941 h -97.00888 c -1.14073,0 -2.0588,-0.91868 -2.0588,-2.05941 V 22.151218 c 0,-1.140733 0.91807,-2.059418 2.0588,-2.059418 z" />
    <path
       id="path96871"
       style="font-size:30px;line-height:1.15;font-family:'ALS Direct';-inkscape-font-specification:'ALS Direct';opacity:1;fill:#ffffff;fill-opacity:1;fill-rule:evenodd;stroke:none;stroke-width:0.2;stroke-linecap:round;stroke-linejoin:round;stroke-miterlimit:10;stroke-opacity:1"
       d="m 216.17333,39.620883 c -2.94536,0.01949 -5.63869,0.116558 -8.82855,0.413567 -4.94901,0.461555 -11.34301,1.439339 -14.86186,2.377244 -2.83261,0.755149 -4.08283,3.172118 -4.08283,3.172118 l -8.01314,17.969433 c 0,0 -0.70699,1.044003 -1.12336,1.514944 -0.26293,0.297341 -0.86232,0.8213 -0.86232,0.8213 0,0 -1.13058,0.651155 -1.55454,1.132159 -0.49909,0.566448 -1.09111,1.985672 -1.09111,1.985672 l -0.17012,3.804182 0.32265,4.48762 0.29917,11.163286 c 6.7e-4,1.2517 0.78375,2.258 2.03555,2.257027 h 0.26838 l -0.007,7.7726 h 0.007 v 0.407727 c 0,1.690648 1.36118,3.051818 3.05184,3.051818 h 8.16274 c 1.6907,0 3.05187,-1.36117 3.05187,-3.051818 v -4.282274 -0.846226 l 0.003,-3.028387 h 46.05795 v 8.416447 c 0,1.541988 1.24282,2.783478 2.78494,2.783478 h 8.66284 c 1.54211,0 2.78344,-1.24149 2.78347,-2.783478 v -8.59832 h 0.0469 c 1.2518,0 2.111,-0.676754 2.11034,-1.928514 l 0.34608,-11.33044 0.22586,-4.672406 c 0,0 0.12792,-1.955416 0.0307,-2.925672 -0.0409,-0.408104 -0.25665,-1.202597 -0.25665,-1.202597 0,0 -0.32279,-0.871299 -0.5998,-1.234797 -0.5034,-0.66053 -1.79357,-1.532522 -1.79357,-1.532522 0,0 -0.79087,-0.548503 -1.10577,-0.869656 -0.53872,-0.549466 -1.3448,-1.883094 -1.3448,-1.883094 L 243.5088,46.364033 c 0,0 -0.86513,-3.076907 -4.47438,-4.137134 -3.88901,-1.142514 -10.24254,-1.989716 -15.49101,-2.359668 -2.9734,-0.209564 -4.91266,-0.262805 -7.37079,-0.246348 z m 0.15104,5.383629 c 3.25139,-0.01663 8.92207,0.392174 13.34838,0.944439 2.07518,0.258907 6.17558,1.108725 6.17558,1.108725 0,0 0.80262,0.238246 1.50614,0.6453 0.32538,0.188164 0.61503,0.489263 0.82125,0.681936 0.23847,0.223093 0.55581,0.611586 0.7714,0.967865 0.23325,0.385646 0.35489,0.730375 0.35489,0.730375 l 6.05826,14.462958 c 0,0 -4.52604,-0.851329 -10.28038,-1.438662 -6.06964,-0.619602 -13.50752,-0.976956 -18.43876,-0.979656 -5.02862,0 -12.62752,0.44294 -18.79949,1.067669 -5.77391,0.584311 -11.91119,1.624947 -11.91119,1.624947 l 6.40581,-14.737256 c 0,0 0.21176,-0.54626 0.56756,-1.044162 0.25588,-0.358085 0.62189,-0.658433 0.87992,-0.87116 0.23687,-0.195286 0.5957,-0.429484 0.96204,-0.595353 0.48421,-0.219493 0.95618,-0.343219 0.95618,-0.343219 0,0 5.76656,-0.983936 10.84209,-1.621953 3.39742,-0.427323 7.18706,-0.589438 9.78032,-0.602793 z m -32.79904,28.698636 c 2.34476,0 4.2456,1.919814 4.24562,4.288214 -2e-5,2.3683 -1.90086,4.288193 -4.24562,4.288113 -2.34476,8e-5 -4.24559,-1.919813 -4.24561,-4.288113 1e-5,-2.3684 1.90085,-4.288214 4.24561,-4.288214 z m 64.53776,0 c 2.34476,0 4.24558,1.919814 4.24562,4.288214 -4e-5,2.3683 -1.90086,4.288193 -4.24562,4.288113 -2.34477,8e-5 -4.2456,-1.919813 -4.24563,-4.288113 3e-5,-2.3684 1.90086,-4.288214 4.24563,-4.288214 z m -55.55084,1.429874 h 46.49792 v 1.783313 c 0,4.69172 -3.77906,8.467827 -8.47069,8.467827 h -29.55946 c -4.69167,0 -8.46777,-3.776107 -8.46777,-8.467827 z"
       sodipodi:nodetypes="ccsccsccccccccccssssccccsssccscccscscsccssccscscsccscsccssccccssssssssssccssssc" />
  </g>
</svg>
