<?xml version="1.0" encoding="UTF-8" standalone="no"?>
<svg
   xmlns:dc="http://purl.org/dc/elements/1.1/"
   xmlns:cc="http://creativecommons.org/ns#"
   xmlns:rdf="http://www.w3.org/1999/02/22-rdf-syntax-ns#"
   xmlns:svg="http://www.w3.org/2000/svg"
   xmlns="http://www.w3.org/2000/svg"
   xmlns:sodipodi="http://sodipodi.sourceforge.net/DTD/sodipodi-0.dtd"
   xmlns:inkscape="http://www.inkscape.org/namespaces/inkscape"
   width="105.83333mm"
   height="105.83334mm"
   viewBox="0 0 105.83333 105.83334"
   version="1.1"
   id="svg15567"
   inkscape:version="1.0 (4035a4fb49, 2020-05-01)"
   sodipodi:docname="B21.svg">
  <defs
     id="defs15561" />
  <sodipodi:namedview
     id="base"
     pagecolor="#ffffff"
     bordercolor="#666666"
     borderopacity="1.0"
     inkscape:pageopacity="0.0"
     inkscape:pageshadow="2"
     inkscape:zoom="0.35"
     inkscape:cx="712.69759"
     inkscape:cy="1028.0472"
     inkscape:document-units="mm"
     inkscape:current-layer="layer1"
     inkscape:document-rotation="0"
     showgrid="false"
     inkscape:window-width="1424"
     inkscape:window-height="1030"
     inkscape:window-x="128"
     inkscape:window-y="0"
     inkscape:window-maximized="0" />
  <metadata
     id="metadata15564">
    <rdf:RDF>
      <cc:Work
         rdf:about="">
        <dc:format>image/svg+xml</dc:format>
        <dc:type
           rdf:resource="http://purl.org/dc/dcmitype/StillImage" />
        <dc:title />
      </cc:Work>
    </rdf:RDF>
  </metadata>
  <g
     inkscape:label="Layer 1"
     inkscape:groupmode="layer"
     id="layer1"
     transform="translate(78.660719,3.0654828)">
    <path
       id="path15533"
       style="opacity:1;fill:#00408c;fill-opacity:1;fill-rule:evenodd;stroke:none;stroke-width:0.635;stroke-linecap:square;stroke-linejoin:round;paint-order:stroke fill markers"
       d="M -74.295024,-3.0654828 H 22.80693 c 2.418585,0 4.365683,1.9470993 4.365683,4.3656908 v 97.10195 c 0,2.418582 -1.947098,4.365702 -4.365683,4.365702 h -97.101954 c -2.418597,0 -4.365695,-1.94712 -4.365695,-4.365702 V 1.300208 c 0,-2.4185915 1.947098,-4.3656908 4.365695,-4.3656908 z" />
    <path
       id="path15535"
       style="opacity:1;fill:#ffffff;fill-opacity:1;fill-rule:evenodd;stroke:none;stroke-width:0.635;stroke-linecap:square;stroke-linejoin:round;paint-order:stroke fill markers"
       d="m -74.280125,-1.8868958 c -1.771086,0 -3.19699,1.42589837 -3.19699,3.1969886 V 98.387025 c 0,1.771095 1.425904,3.197005 3.19699,3.197005 h 97.076942 c 1.771085,0 3.196989,-1.42591 3.196989,-3.197005 V 1.3100928 c 0,-1.77109023 -1.425904,-3.1969886 -3.196989,-3.1969886 z m 0.03281,1.16917023 h 97.008869 c 1.140742,0 2.05881,0.91868389 2.05881,2.05941667 V 98.349351 c 0,1.14074 -0.918068,2.059409 -2.05881,2.059409 h -97.008868 c -1.14073,0 -2.05881,-0.918669 -2.05881,-2.059409 V 1.3416911 c 0,-1.14073278 0.91808,-2.05941667 2.058809,-2.05941667 z" />
    <path
       id="path15559"
       style="font-size:30px;line-height:1.15;font-family:'ALS Direct';-inkscape-font-specification:'ALS Direct';opacity:1;fill:#ffffff;fill-opacity:1;fill-rule:evenodd;stroke:none;stroke-width:0.2;stroke-linecap:round;stroke-linejoin:round;stroke-miterlimit:10;stroke-opacity:1"
       d="m -25.316628,18.794961 c -2.945353,0.01949 -5.638682,0.116558 -8.828546,0.413567 -4.949001,0.461556 -11.342992,1.43934 -14.861857,2.377244 -2.832605,0.755151 -4.082815,3.17212 -4.082815,3.17212 l -8.013159,17.969432 c 0,0 -0.706979,1.044004 -1.123362,1.514943 -0.262925,0.297342 -0.862318,0.821301 -0.862318,0.821301 0,0 -1.130583,0.651155 -1.554539,1.132157 -0.499086,0.56645 -1.091106,1.985672 -1.091106,1.985672 l -0.17011,3.804185 0.322639,4.487614 0.299167,11.163289 c 8.67e-4,1.2517 0.783766,2.258007 2.035564,2.257033 h 0.268369 l -0.0071,7.7726 h 0.0071 v 0.40772 c 0,1.690647 1.361181,3.05182 3.051857,3.05182 h 8.162726 c 1.690698,0 3.051868,-1.361173 3.051868,-3.05182 v -4.282273 -0.84622 l 0.0023,-3.028393 h 46.0579484 v 8.416453 c 0,1.54198 1.2428247,2.783467 2.78494534,2.783467 H 8.7958123 c 1.5421097,0 2.7834397,-1.241487 2.7834637,-2.783467 v -8.598327 h 0.04692 c 1.25182,0 2.11101,-0.676746 2.110352,-1.928513 l 0.346087,-11.330435 0.22586,-4.672417 c 0,0 0.127917,-1.955407 0.03069,-2.925664 -0.04092,-0.408104 -0.256645,-1.2026 -0.256645,-1.2026 0,0 -0.322803,-0.871296 -0.599817,-1.234793 -0.50339,-0.660531 -1.793569,-1.532525 -1.793569,-1.532525 0,0 -0.790869,-0.548502 -1.10577,-0.869654 C 10.044672,43.489011 9.238575,42.155382 9.238575,42.155382 L 2.0189937,25.538111 c 0,0 -0.8651406,-3.076905 -4.4743866,-4.137133 -3.8890106,-1.142512 -10.2425381,-1.989716 -15.4910011,-2.359668 -2.973399,-0.209565 -4.912666,-0.262805 -7.370798,-0.246349 z m 0.151048,5.383631 c 3.251388,-0.01664 8.922079,0.392173 13.348394,0.944438 2.0751678,0.258906 6.1755745,1.108724 6.1755745,1.108724 0,0 0.8026053,0.238246 1.5061259,0.6453 0.3253907,0.188165 0.6150334,0.489264 0.8212667,0.681936 0.2384547,0.223093 0.5558013,0.611588 0.771384,0.967863 0.2332567,0.38565 0.3548947,0.730378 0.3548947,0.730378 l 6.0582646,14.462954 c 0,0 -4.52603332,-0.851328 -10.2803913,-1.438658 -6.0696361,-0.619607 -13.5075081,-0.976959 -18.4387541,-0.979659 -5.028623,0 -12.627504,0.442943 -18.799492,1.067671 -5.773914,0.584313 -11.911189,1.624948 -11.911189,1.624948 l 6.405822,-14.737256 c 0,0 0.211748,-0.546263 0.567548,-1.044162 0.255882,-0.358086 0.621888,-0.658435 0.879922,-0.871161 0.236867,-0.195286 0.5957,-0.429485 0.962037,-0.595354 0.484211,-0.219492 0.956181,-0.343219 0.956181,-0.343219 0,0 5.766563,-0.983934 10.842095,-1.621952 3.397415,-0.427323 7.187071,-0.589438 9.780317,-0.602791 z m -32.799043,28.698633 c 2.344773,0 4.245598,1.919818 4.245621,4.288211 -2.3e-5,2.368302 -1.900848,4.288198 -4.245621,4.288114 -2.344749,8.4e-5 -4.245587,-1.919812 -4.24561,-4.288114 2.3e-5,-2.368393 1.900861,-4.288211 4.24561,-4.288211 z m 64.537766,0 c 2.3447493,0 4.245575,1.919818 4.24561,4.288211 -3.5e-5,2.368302 -1.9008607,4.288198 -4.24561,4.288114 -2.3447613,8.4e-5 -4.2455986,-1.919812 -4.245622,-4.288114 2.34e-5,-2.368393 1.9008607,-4.288211 4.245622,-4.288211 z m -55.550847,1.429878 h 46.4979344 v 1.783311 c 0,4.691717 -3.7790733,8.467826 -8.4707004,8.467826 h -29.559461 c -4.691674,0 -8.467773,-3.776109 -8.467773,-8.467826 z"
       sodipodi:nodetypes="ccsccsccccccccccssssccccsssccscccscscsccssccscscsccscsccssccccssssssssssccssssc" />
    <path
       sodipodi:nodetypes="ccccssccccssc"
       d="m 16.335386,-0.71787961 -0.195062,0.16954146 -92.285409,92.28904915 -0.161031,0.187174 v 6.421313 c 0,1.14074 0.91808,2.059422 2.058811,2.059422 h 6.523402 l 0.114183,-0.12579 92.283597,-92.2829817 0.146449,-0.167114 V 1.3415336 c 0,-1.14072815 -0.918081,-2.05941321 -2.05881,-2.05941321 z"
       style="opacity:1;fill:#ee252c;fill-opacity:1;fill-rule:evenodd;stroke:none;stroke-width:0.635;stroke-linecap:square;stroke-linejoin:round;paint-order:stroke fill markers"
       id="rect15537" />
  </g>
</svg>
