<svg width="105.83mm" height="105.83mm" version="1.1" viewBox="0 0 105.83 105.83" xmlns="http://www.w3.org/2000/svg"><g transform="translate(78.661 3.0655)" fill-rule="evenodd"><path d="m-74.295-3.0655h97.102c2.4186 0 4.3657 1.9471 4.3657 4.3657v97.102c0 2.4186-1.9471 4.3657-4.3657 4.3657h-97.102c-2.4186 0-4.3657-1.9471-4.3657-4.3657v-97.102c0-2.4186 1.9471-4.3657 4.3657-4.3657z" fill="#00408c" style="paint-order:stroke fill markers"/><path d="m-74.28-1.8869c-1.7711 0-3.197 1.4259-3.197 3.197v97.077c0 1.7711 1.4259 3.197 3.197 3.197h97.077c1.7711 0 3.197-1.4259 3.197-3.197v-97.077c0-1.7711-1.4259-3.197-3.197-3.197zm0.03281 1.1692h97.009c1.1407 0 2.0588 0.91868 2.0588 2.0594v97.008c0 1.1407-0.91807 2.0594-2.0588 2.0594h-97.009c-1.1407 0-2.0588-0.91867-2.0588-2.0594v-97.008c0-1.1407 0.91808-2.0594 2.0588-2.0594z" fill="#fff" style="paint-order:stroke fill markers"/><path d="m-25.317 18.795c-2.9454 0.01949-5.6387 0.11656-8.8285 0.41357-4.949 0.46156-11.343 1.4393-14.862 2.3772-2.8326 0.75515-4.0828 3.1721-4.0828 3.1721l-8.0132 17.969s-0.70698 1.044-1.1234 1.5149c-0.26292 0.29734-0.86232 0.8213-0.86232 0.8213s-1.1306 0.65116-1.5545 1.1322c-0.49909 0.56645-1.0911 1.9857-1.0911 1.9857l-0.17011 3.8042 0.32264 4.4876 0.29917 11.163c8.67e-4 1.2517 0.78377 2.258 2.0356 2.257h0.26837l-0.0071 7.7726h0.0071v0.40772c0 1.6906 1.3612 3.0518 3.0519 3.0518h8.1627c1.6907 0 3.0519-1.3612 3.0519-3.0518v-5.1285l0.0023-3.0284h46.058v8.4165c0 1.542 1.2428 2.7835 2.7849 2.7835h8.6629c1.5421 0 2.7834-1.2415 2.7835-2.7835v-8.5983h0.04692c1.2518 0 2.111-0.67675 2.1104-1.9285l0.34609-11.33 0.22586-4.6724s0.12792-1.9554 0.03069-2.9257c-0.04092-0.4081-0.25664-1.2026-0.25664-1.2026s-0.3228-0.8713-0.59982-1.2348c-0.50339-0.66053-1.7936-1.5325-1.7936-1.5325s-0.79087-0.5485-1.1058-0.86965c-0.53871-0.54947-1.3448-1.8831-1.3448-1.8831l-7.2196-16.617s-0.86514-3.0769-4.4744-4.1371c-3.889-1.1425-10.243-1.9897-15.491-2.3597-2.9734-0.20956-4.9127-0.2628-7.3708-0.24635zm0.15105 5.3836c3.2514-0.01664 8.9221 0.39217 13.348 0.94444 2.0752 0.25891 6.1756 1.1087 6.1756 1.1087s0.80261 0.23825 1.5061 0.6453c0.32539 0.18816 0.61503 0.48926 0.82127 0.68194 0.23845 0.22309 0.5558 0.61159 0.77138 0.96786 0.23326 0.38565 0.35489 0.73038 0.35489 0.73038l6.0583 14.463s-4.526-0.85133-10.28-1.4387c-6.0696-0.61961-13.508-0.97696-18.439-0.97966-5.0286 0-12.628 0.44294-18.799 1.0677-5.7739 0.58431-11.911 1.6249-11.911 1.6249l6.4058-14.737s0.21175-0.54626 0.56755-1.0442c0.25588-0.35809 0.62189-0.65844 0.87992-0.87116 0.23687-0.19529 0.5957-0.42948 0.96204-0.59535 0.48421-0.21949 0.95618-0.34322 0.95618-0.34322s5.7666-0.98393 10.842-1.622c3.3974-0.42732 7.1871-0.58944 9.7803-0.60279zm-32.799 28.699c2.3448 0 4.2456 1.9198 4.2456 4.2882-2.3e-5 2.3683-1.9008 4.2882-4.2456 4.2881-2.3447 8.4e-5 -4.2456-1.9198-4.2456-4.2881 2.3e-5 -2.3684 1.9009-4.2882 4.2456-4.2882zm64.538 0c2.3447 0 4.2456 1.9198 4.2456 4.2882-3.5e-5 2.3683-1.9009 4.2882-4.2456 4.2881-2.3448 8.4e-5 -4.2456-1.9198-4.2456-4.2881 2.34e-5 -2.3684 1.9009-4.2882 4.2456-4.2882zm-55.551 1.4299h46.498v1.7833c0 4.6917-3.7791 8.4678-8.4707 8.4678h-29.559c-4.6917 0-8.4678-3.7761-8.4678-8.4678z" fill="#fff"/><path d="m16.335-0.71788-0.19506 0.16954-92.285 92.289-0.16103 0.18717v6.4213c0 1.1407 0.91808 2.0594 2.0588 2.0594h6.5234l0.11418-0.12579 92.284-92.283 0.14645-0.16711v-6.4912c0-1.1407-0.91808-2.0594-2.0588-2.0594z" fill="#ee252c" style="paint-order:stroke fill markers"/></g></svg>