<svg width="158.75mm" height="158.75mm" version="1.1" viewBox="0 0 158.75 158.75" xmlns="http://www.w3.org/2000/svg"><g transform="translate(-66.651 190.92)" fill-rule="evenodd" stroke-linecap="square" stroke-linejoin="round"><path d="m76.552-190.92h138.95c5.4852 0 9.9011 4.4159 9.9011 9.901v138.95c0 5.4852-4.4159 9.901-9.9011 9.901h-138.95c-5.4852 0-9.9011-4.4158-9.9011-9.901v-138.95c0-5.4851 4.4159-9.901 9.9011-9.901z" fill="#00408c" stroke-width=".635" style="paint-order:stroke fill markers"/><path d="m76.62-188.29c-4.0625 0-7.3334 3.2695-7.3334 7.332v138.8c0 4.0624 3.2709 7.3333 7.3334 7.3333h138.8c4.0625 0 7.3334-3.2709 7.3334-7.3333v-138.8c0-4.0624-3.2709-7.332-7.3334-7.332zm-0.02329 2.6446h138.86c2.5798 0 4.656 2.0776 4.656 4.6573v138.85c0 2.5797-2.0762 4.656-4.656 4.656h-138.86c-2.5798 0-4.6574-2.0763-4.6574-4.656v-138.85c0-2.5797 2.0776-4.6573 4.6574-4.6573zm16.499 21.188v105.85h105.85v-105.85z" fill="#fff" stroke-width=".635" style="paint-order:stroke fill markers"/><path d="m114.54-151.86v80.647h32.453c10.876 0 20.739-6.0897 26.565-15.84 3.7321-6.246 5.6426-15.045 5.6426-22.417v-4.1324c0-9.7239-2.5834-18.754-7.5794-25.49-5.8934-7.9455-14.972-12.768-24.628-12.768zm15.123 15.143h16.632c4.5239 0 10.003 2.1141 13.397 6.8374 2.7876 3.8795 4.4435 10.909 4.4435 16.861v2.9968c0 6.5849-1.7255 13.141-4.5674 17.044-3.261 4.4789-8.5866 6.6543-13.273 6.6543h-16.632z" stroke-width=".635" style="paint-order:stroke fill markers"/></g></svg>