<?xml version="1.0" encoding="UTF-8" standalone="no"?>
<svg
   xmlns:dc="http://purl.org/dc/elements/1.1/"
   xmlns:cc="http://creativecommons.org/ns#"
   xmlns:rdf="http://www.w3.org/1999/02/22-rdf-syntax-ns#"
   xmlns:svg="http://www.w3.org/2000/svg"
   xmlns="http://www.w3.org/2000/svg"
   xmlns:sodipodi="http://sodipodi.sourceforge.net/DTD/sodipodi-0.dtd"
   xmlns:inkscape="http://www.inkscape.org/namespaces/inkscape"
   sodipodi:docname="B20.svg"
   inkscape:version="1.0 (4035a4fb49, 2020-05-01)"
   id="svg15567"
   version="1.1"
   viewBox="0 0 158.74999 158.74999"
   height="158.75002mm"
   width="158.75mm">
  <defs
     id="defs15561" />
  <sodipodi:namedview
     inkscape:window-maximized="1"
     inkscape:window-y="-9"
     inkscape:window-x="-9"
     inkscape:window-height="1001"
     inkscape:window-width="1920"
     showgrid="false"
     inkscape:document-rotation="0"
     inkscape:current-layer="layer1"
     inkscape:document-units="mm"
     inkscape:cy="523.10848"
     inkscape:cx="-96.767015"
     inkscape:zoom="0.49497475"
     inkscape:pageshadow="2"
     inkscape:pageopacity="0.0"
     borderopacity="1.0"
     bordercolor="#666666"
     pagecolor="#ffffff"
     id="base" />
  <metadata
     id="metadata15564">
    <rdf:RDF>
      <cc:Work
         rdf:about="">
        <dc:format>image/svg+xml</dc:format>
        <dc:type
           rdf:resource="http://purl.org/dc/dcmitype/StillImage" />
        <dc:title />
      </cc:Work>
    </rdf:RDF>
  </metadata>
  <g
     transform="translate(-66.650637,190.91615)"
     id="layer1"
     inkscape:groupmode="layer"
     inkscape:label="Layer 1">
    <path
       id="rect8907"
       style="opacity:1;fill:#00408c;fill-opacity:1;fill-rule:evenodd;stroke-width:0.635;stroke-linecap:square;stroke-linejoin:round;paint-order:stroke fill markers"
       d="M 76.551768,-190.91615 H 215.4995 c 5.48524,0 9.90113,4.41586 9.90113,9.90099 v 138.948044 c 0,5.485156 -4.41589,9.900975 -9.90113,9.900975 H 76.551768 c -5.485224,0 -9.901131,-4.415819 -9.901131,-9.900975 V -181.01516 c 0,-5.48513 4.415907,-9.90099 9.901131,-9.90099 z" />
    <path
       id="rect27758"
       style="opacity:1;fill:#ffffff;fill-opacity:1;fill-rule:evenodd;stroke-width:0.635;stroke-linecap:square;stroke-linejoin:round;paint-order:stroke fill markers"
       d="m 76.6196,-188.28882 c -4.062492,0 -7.333438,3.26953 -7.333438,7.33196 v 138.799752 c 0,4.062421 3.270946,7.333324 7.333438,7.333324 h 138.80332 c 4.06249,0 7.33343,-3.270903 7.33343,-7.333324 V -180.95686 c 0,-4.06243 -3.27094,-7.33196 -7.33343,-7.33196 z m -0.02329,2.64456 H 215.4543 c 2.5798,0 4.65605,2.07761 4.65605,4.65731 v 138.853075 c 0,2.579725 -2.07625,4.655985 -4.65605,4.655985 H 76.596349 c -2.579765,0 -4.657407,-2.07626 -4.657407,-4.655985 V -180.98695 c 0,-2.5797 2.077642,-4.65731 4.657407,-4.65731 z m 16.4992,21.18771 V -58.610936 H 198.94282 V -164.45655 Z" />
    <path
       id="rect27742"
       style="opacity:1;fill:#000000;fill-rule:evenodd;stroke-width:0.634997;stroke-linecap:square;stroke-linejoin:round;paint-order:stroke fill markers"
       d="m 114.54453,-151.86007 v 2.39382 12.74962 50.394244 13.454436 1.65461 h 32.45277 c 10.87581,0 20.73924,-6.089729 26.56513,-15.840021 3.7321,-6.246005 5.64258,-15.044649 5.64258,-22.417129 v -4.13244 c 0,-9.72393 -2.58345,-18.75388 -7.57938,-25.48962 -5.89337,-7.94554 -14.97172,-12.76752 -24.62833,-12.76752 z m 15.12305,15.14344 h 16.63177 c 4.52393,0 10.00295,2.1141 13.39686,6.83735 2.78764,3.87952 4.44354,10.90937 4.44354,16.86139 v 2.99679 c 0,6.58491 -1.72549,13.141081 -4.56743,17.044448 -3.26097,4.478857 -8.58657,6.654266 -13.27297,6.654266 h -16.63177 z" />
  </g>
</svg>
