<?xml version="1.0" encoding="UTF-8" standalone="no"?>
<svg
   xmlns:dc="http://purl.org/dc/elements/1.1/"
   xmlns:cc="http://creativecommons.org/ns#"
   xmlns:rdf="http://www.w3.org/1999/02/22-rdf-syntax-ns#"
   xmlns:svg="http://www.w3.org/2000/svg"
   xmlns="http://www.w3.org/2000/svg"
   xmlns:sodipodi="http://sodipodi.sourceforge.net/DTD/sodipodi-0.dtd"
   xmlns:inkscape="http://www.inkscape.org/namespaces/inkscape"
   inkscape:version="1.0 (4035a4fb49, 2020-05-01)"
   sodipodi:docname="Turkey_road_sign_B-54.svg"
   viewBox="0 0 200 300.93024"
   height="300.93024"
   width="200"
   id="svg887"
   version="1.1">
  <metadata
     id="metadata893">
    <rdf:RDF>
      <cc:Work
         rdf:about="">
        <dc:format>image/svg+xml</dc:format>
        <dc:type
           rdf:resource="http://purl.org/dc/dcmitype/StillImage" />
        <dc:title />
      </cc:Work>
    </rdf:RDF>
  </metadata>
  <defs
     id="defs891">
    <clipPath
       clipPathUnits="userSpaceOnUse"
       id="clipPath425797">
      <path
         d="M 0,0 H 261.24 V 366.15 H 0 Z"
         id="path425795" />
    </clipPath>
  </defs>
  <sodipodi:namedview
     inkscape:current-layer="g895"
     inkscape:window-maximized="1"
     inkscape:window-y="-9"
     inkscape:window-x="-9"
     inkscape:cy="109.36721"
     inkscape:cx="103.61395"
     inkscape:zoom="1.3906878"
     showgrid="false"
     id="namedview889"
     inkscape:window-height="1001"
     inkscape:window-width="1920"
     inkscape:pageshadow="2"
     inkscape:pageopacity="0"
     guidetolerance="10"
     gridtolerance="10"
     objecttolerance="10"
     borderopacity="1"
     bordercolor="#666666"
     pagecolor="#ffffff"
     inkscape:document-rotation="0" />
  <g
     transform="translate(-741.91044,353.5771)"
     id="g895"
     inkscape:label="Image"
     inkscape:groupmode="layer">
    <path
       d="m 753.68851,-353.5771 h 176.44387 c 6.52506,0 11.77806,5.25301 11.77806,11.77804 v 277.374163 c 0,6.525031 -5.253,11.778035 -11.77806,11.778035 H 753.68851 c -6.52507,0 -11.77807,-5.253004 -11.77807,-11.778035 V -341.79906 c 0,-6.52503 5.253,-11.77804 11.77807,-11.77804 z"
       style="opacity:0.999883;fill:#00408c;fill-opacity:1;fill-rule:evenodd;stroke-width:178.791;stroke-linecap:round;stroke-linejoin:round;stroke-miterlimit:0.1"
       id="rect90889" />
    <path
       id="path90896"
       d="m 754.42277,-350.15262 c -5.0711,0 -9.20545,4.13435 -9.20545,9.20546 v 275.523568 c 0,5.071107 4.13435,9.205458 9.20545,9.205458 h 174.88668 c 5.0711,0 9.20429,-4.134345 9.20429,-9.205458 V -340.94716 c 0,-5.07111 -4.13319,-9.20546 -9.20429,-9.20546 z m 0,3.3034 h 174.88668 c 3.29843,0 5.90206,2.60363 5.90206,5.90206 v 275.523568 c 0,3.298421 -2.60363,5.902058 -5.90206,5.902058 H 754.42277 c -3.29842,0 -5.90205,-2.603631 -5.90205,-5.902058 V -340.94716 c 0,-3.29843 2.60363,-5.90206 5.90205,-5.90206 z"
       style="color:#000000;font-style:normal;font-variant:normal;font-weight:normal;font-stretch:normal;font-size:medium;line-height:normal;font-family:sans-serif;font-variant-ligatures:normal;font-variant-position:normal;font-variant-caps:normal;font-variant-numeric:normal;font-variant-alternates:normal;font-variant-east-asian:normal;font-feature-settings:normal;font-variation-settings:normal;text-indent:0;text-align:start;text-decoration:none;text-decoration-line:none;text-decoration-style:solid;text-decoration-color:#000000;letter-spacing:normal;word-spacing:normal;text-transform:none;writing-mode:lr-tb;direction:ltr;text-orientation:mixed;dominant-baseline:auto;baseline-shift:baseline;text-anchor:start;white-space:normal;shape-padding:0;shape-margin:0;inline-size:0;clip-rule:nonzero;display:inline;overflow:visible;visibility:visible;opacity:0.999883;isolation:auto;mix-blend-mode:normal;color-interpolation:sRGB;color-interpolation-filters:linearRGB;solid-color:#000000;solid-opacity:1;vector-effect:none;fill:#ffffff;fill-opacity:1;fill-rule:evenodd;stroke:none;stroke-width:5.3;stroke-linecap:round;stroke-linejoin:round;stroke-miterlimit:0.1;stroke-dasharray:none;stroke-dashoffset:0;stroke-opacity:1;color-rendering:auto;image-rendering:auto;shape-rendering:auto;text-rendering:auto;enable-background:accumulate;stop-color:#000000;stop-opacity:1" />
    <path
       sodipodi:nodetypes="ccaccscacacsscscaccaccccssscssscsscsssccssscsscsssscssscacssssascc"
       d="m 761.92602,-116.097 h 3.91765 c 0,0 1.12098,3.24586 1.94042,4.74559 0.90102,1.64904 3.23869,4.61426 3.23869,4.61426 l -2.89403,3.07667 c 0,0 -0.80756,-1.02205 -1.8097,-0.47419 -1.02608,0.56095 -0.93275,1.47797 -0.93275,1.47797 0,0 0.26634,1.46525 0.65223,2.0815 0.98324,1.57018 4.0456,3.810929 4.0456,3.810929 0,0 3.44032,3.27897 4.93167,5.120625 1.78034,2.198532 4.75528,7.029622 4.75528,7.029622 0,0 0.95361,1.040549 2.17402,1.418609 0.48162,0.149198 1.1729,0.190077 1.77481,0.06554 0.74523,-0.154187 1.36095,-0.502161 1.36095,-0.502161 0,0 0.0756,-0.762296 0.10452,-1.271369 0.0194,-0.342761 0.0262,-1.150063 0.0262,-1.150063 0,0 -0.0387,-0.151287 -0.0155,-0.221624 0.0235,-0.07131 0.1462,-0.171347 0.1462,-0.171347 l 2.06729,-2.029333 c 0,0 3.91253,1.519631 5.7388,2.539835 1.5085,0.842691 4.27182,2.936489 4.27182,2.936489 l -0.71785,4.559682 h -1.43656 v 0.633458 c 0,0 0.65564,0.462765 1.31985,1.394968 0.47922,0.672584 0.98624,1.738929 1.14408,2.34429 0.16916,0.648729 0.18086,1.743854 0.0647,2.58045 -0.11327,0.815591 -0.35244,1.381125 -0.35244,1.381125 0,0 -0.37809,0.985365 -1.02632,1.863616 -0.44138,0.597996 -1.06807,1.101939 -1.55133,1.384744 -0.78593,0.459933 -2.20052,0.822356 -3.33618,0.914732 -1.05003,0.08541 -1.85527,-0.08264 -1.85527,-0.08264 0,0 -0.77277,-0.160391 -1.14257,-0.294246 -1.02573,-0.371273 -2.53753,-1.218775 -3.63294,-1.774481 -0.73826,-0.37452 -1.31745,-0.571411 -1.31745,-0.571411 0,0 -2.2397,-0.768881 -4.95684,-1.175756 -2.60754,-0.390473 -5.65171,-0.424462 -7.72171,-0.203079 -1.69032,0.180769 -4.21564,0.693213 -6.28235,1.456099 -2.50096,0.92317 -4.41174,2.104554 -4.41174,2.104554 l -1.02276,-1.658144 c 0,0 1.7214,-1.277804 4.40507,-2.283223 2.25025,-0.843048 5.3274,-1.419416 7.17421,-1.620069 2.08957,-0.227028 5.21624,-0.252038 7.88775,0.137491 3.03153,0.442023 5.49376,1.322599 5.49376,1.322599 0,0 0.9031,0.313913 1.9416,0.848194 0.92469,0.475738 1.94532,1.158992 2.70784,1.443417 0.37491,0.139844 1.16127,0.304086 1.16127,0.304086 0,0 0.57874,0.0884 1.3327,0.04842 0.47613,-0.02524 1.00713,-0.125367 1.4821,-0.24378 0.28738,-0.07164 0.56352,-0.134541 0.76816,-0.235647 0.2492,-0.123112 0.63757,-0.306604 0.8972,-0.570582 0.53968,-0.54872 0.89496,-1.267359 0.89496,-1.267359 0,0 0.33716,-0.551057 0.47238,-1.314161 0.13425,-0.757595 0.0672,-1.725163 -0.1121,-2.301264 -0.15817,-0.508178 -0.60873,-1.311575 -1.08916,-1.81708 -0.58876,-0.619505 -1.20772,-0.894237 -1.20772,-0.894237 0,0 -2.31592,0.594703 -3.50069,0.718709 -1.24209,0.130008 -3.74658,0.0228 -3.74658,0.0228 0,0 -10.4177,-1.710398 -19.19576,-11.613766 -2.39377,-2.700644 -4.46561,-6.146582 -5.79585,-9.140619 -1.7771,-3.999832 -1.75153,-4.780752 -2.40671,-7.237162 -0.2649,-0.99313 -0.63862,-1.99437 -0.61342,-3.02191 0.0193,-0.78401 0.0847,-1.72782 0.3059,-2.55739 0.18887,-0.70849 0.66011,-1.56597 0.86067,-2.02432 0.51312,-1.17264 2.62401,-2.80358 2.62401,-2.80358 z"
       style="opacity:0.999883;fill:#ffffff;fill-opacity:1;fill-rule:evenodd;stroke:none;stroke-width:5.3;stroke-linecap:round;stroke-linejoin:round;stroke-miterlimit:0.1;stroke-dasharray:none;stroke-opacity:1"
       id="rect92001" />
    <path
       d="m 775.2227,-320.13342 h 132.88778 v 133.50308 H 775.2227 Z"
       style="opacity:0.999883;fill:#ffffff;fill-opacity:1;fill-rule:evenodd;stroke:none;stroke-width:5.3;stroke-linecap:round;stroke-linejoin:round;stroke-miterlimit:0.1;stroke-dasharray:none;stroke-opacity:1"
       id="rect92004" />
    <path
       d="m 746.99549,-124.88875 h 189.43124 v 3.29869 H 746.99549 Z"
       style="opacity:0.999883;fill:#ffffff;fill-opacity:1;fill-rule:evenodd;stroke:none;stroke-width:5.30001;stroke-linecap:round;stroke-linejoin:round;stroke-miterlimit:0.1;stroke-dasharray:none;stroke-opacity:1"
       id="rect92007" />
    <g
       aria-label="1"
       id="text108131"
       style="font-size:30px;line-height:1.15;font-family:'ALS Direct';-inkscape-font-specification:'ALS Direct';fill:#ffffff;fill-opacity:1;stroke-width:0.799743"
       transform="matrix(1.250403,0,0,1.250403,688.70231,-915.40521)">
      <path
         d="m 119.29915,669.70527 -3.60942,10e-6 -0.006,-13.17428 -0.1828,-0.0951 c 0,0 -1.2327,0.68775 -1.90431,0.88494 -0.7528,0.22103 -2.33196,0.31948 -2.33196,0.31948 l 0.004,-3.6052 c 0,0 0.74079,-0.0541 1.48683,-0.31341 0.62301,-0.21656 1.23112,-0.60409 1.59012,-0.95939 0.41341,-0.40915 0.87672,-1.14956 1.11167,-1.84635 0.22707,-0.67342 0.23274,-1.31066 0.23274,-1.31066 l 3.60942,-10e-6 z"
         style="font-style:normal;font-variant:normal;font-weight:normal;font-stretch:normal;font-family:'Highway Gothic Wide';-inkscape-font-specification:'Highway Gothic Wide';fill:#ffffff;fill-opacity:1;stroke-width:0.799743"
         id="path108133"
         sodipodi:nodetypes="ccccaccsssccc" />
    </g>
    <g
       transform="matrix(1.250403,0,0,1.250403,720.70231,-915.40521)"
       style="font-size:30px;line-height:1.15;font-family:'ALS Direct';-inkscape-font-specification:'ALS Direct';fill:#ffffff;fill-opacity:1;stroke-width:0.799743"
       id="g28305"
       aria-label="1">
      <path
         sodipodi:nodetypes="ccccaccsssccc"
         id="path28303"
         style="font-style:normal;font-variant:normal;font-weight:normal;font-stretch:normal;font-family:'Highway Gothic Wide';-inkscape-font-specification:'Highway Gothic Wide';fill:#ffffff;fill-opacity:1;stroke-width:0.799743"
         d="m 119.29915,669.70527 -3.60942,10e-6 -0.006,-13.17428 -0.1828,-0.0951 c 0,0 -1.2327,0.68775 -1.90431,0.88494 -0.7528,0.22103 -2.33196,0.31948 -2.33196,0.31948 l 0.004,-3.6052 c 0,0 0.74079,-0.0541 1.48683,-0.31341 0.62301,-0.21656 1.23112,-0.60409 1.59012,-0.95939 0.41341,-0.40915 0.87672,-1.14956 1.11167,-1.84635 0.22707,-0.67342 0.23274,-1.31066 0.23274,-1.31066 l 3.60942,-10e-6 z" />
    </g>
    <g
       style="display:inline;stroke-width:1.12197"
       id="g26580"
       transform="matrix(0.89128663,0,0,0.89128663,1698.6796,-77.286913)">
      <circle
         style="fill:#cc0000;stroke-width:0.19983"
         transform="scale(-1,1)"
         cx="960.12329"
         cy="-197.85583"
         r="60.556194"
         id="circle26558" />
      <circle
         style="fill:#ffffff;stroke-width:0.19983"
         transform="scale(-1,1)"
         cx="975.9339"
         cy="-197.85583"
         r="49.869804"
         id="circle26560" />
    </g>
    <g
       transform="matrix(1.8022467,0,0,1.8022467,1391.8693,-1006.3606)"
       style="font-size:20.4734px;line-height:1.15;font-family:'ALS Direct';-inkscape-font-specification:'ALS Direct';fill:#ffffff;fill-opacity:1;stroke:none;stroke-width:0.0817652;stroke-opacity:1"
       id="text7192"
       aria-label="2">
      <path
         sodipodi:nodetypes="ccccaassassccaassassaacccc"
         id="path7194"
         style="font-style:normal;font-variant:normal;font-weight:normal;font-stretch:normal;font-family:'Highway Gothic Wide';-inkscape-font-specification:'Highway Gothic Wide';fill:#ffffff;fill-opacity:1;stroke-width:0.0817652"
         d="m -268.29855,515.08833 -11.14837,0.004 -3.4e-4,-2.51759 7.89212,-4.62336 c 0,0 0.40631,-0.49193 0.52909,-0.7816 0.14055,-0.33162 0.24698,-0.69824 0.22175,-1.05753 -0.0387,-0.55108 -0.18529,-1.15588 -0.56348,-1.55856 -0.31998,-0.3407 -0.75563,-0.67337 -1.21586,-0.82434 -0.2924,-0.0959 -0.59093,-0.11034 -0.88746,-0.0889 -0.49219,0.0356 -1.02992,0.19226 -1.43652,0.3578 -0.32147,0.13088 -0.73662,0.41544 -1.03975,0.76014 -0.40792,0.46386 -0.66063,0.99332 -0.66063,0.99332 l -2.27862,-1.05184 c 0,0 0.48469,-0.94646 0.83255,-1.34132 0.53055,-0.60223 1.15367,-1.15428 1.86935,-1.51754 0.83667,-0.42468 1.78971,-0.71171 2.72203,-0.71682 0.11037,-6e-4 0.47608,-0.005 0.86677,0.0528 0.31189,0.0462 0.59913,0.12133 0.88806,0.21856 0.29388,0.0989 0.5763,0.21396 0.8539,0.36899 0.58173,0.32485 1.11574,0.77681 1.49607,1.30527 0.70738,0.98288 1.09003,2.26444 1.05935,3.47501 -0.0217,0.8575 -0.43351,1.68434 -0.87411,2.4203 -0.26063,0.43533 -1.01771,1.13192 -1.01771,1.13192 l -4.24876,2.47054 6.14331,0.0105 z" />
    </g>
  </g>
</svg>
