<svg width="200" height="300.93" version="1.1" viewBox="0 0 200 300.93" xmlns="http://www.w3.org/2000/svg"><g transform="translate(-741.91 353.58)"><path d="m753.69-353.58h176.44c6.5251 0 11.778 5.253 11.778 11.778v277.37c0 6.525-5.253 11.778-11.778 11.778h-176.44c-6.5251 0-11.778-5.253-11.778-11.778v-277.37c0-6.525 5.253-11.778 11.778-11.778z" fill="#00408c" fill-rule="evenodd" opacity=".99988" stroke-linecap="round" stroke-linejoin="round" stroke-miterlimit=".1" stroke-width="178.79"/><g fill="#fff"><g fill-rule="evenodd"><path d="m754.42-350.15c-5.0711 0-9.2054 4.1344-9.2054 9.2055v275.52c0 5.0711 4.1344 9.2055 9.2054 9.2055h174.89c5.0711 0 9.2043-4.1343 9.2043-9.2055v-275.52c0-5.0711-4.1332-9.2055-9.2043-9.2055zm0 3.3034h174.89c3.2984 0 5.9021 2.6036 5.9021 5.9021v275.52c0 3.2984-2.6036 5.9021-5.9021 5.9021h-174.89c-3.2984 0-5.902-2.6036-5.902-5.9021v-275.52c0-3.2984 2.6036-5.9021 5.902-5.9021z" color="#000000" color-rendering="auto" dominant-baseline="auto" enable-background="accumulate" image-rendering="auto" opacity=".99988" shape-rendering="auto" solid-color="#000000" stop-color="#000000" style="font-feature-settings:normal;font-variant-alternates:normal;font-variant-caps:normal;font-variant-east-asian:normal;font-variant-ligatures:normal;font-variant-numeric:normal;font-variant-position:normal;font-variation-settings:normal;inline-size:0;isolation:auto;mix-blend-mode:normal;shape-margin:0;shape-padding:0;text-decoration-color:#000000;text-decoration-line:none;text-decoration-style:solid;text-indent:0;text-orientation:mixed;text-transform:none;white-space:normal"/><path d="m761.93-116.1h3.9176s1.121 3.2459 1.9404 4.7456c0.90102 1.649 3.2387 4.6143 3.2387 4.6143l-2.894 3.0767s-0.80756-1.022-1.8097-0.47419c-1.0261 0.56095-0.93275 1.478-0.93275 1.478s0.26634 1.4652 0.65223 2.0815c0.98324 1.5702 4.0456 3.8109 4.0456 3.8109s3.4403 3.279 4.9317 5.1206c1.7803 2.1985 4.7553 7.0296 4.7553 7.0296s0.95361 1.0405 2.174 1.4186c0.48162 0.1492 1.1729 0.19008 1.7748 0.06554 0.74523-0.15419 1.361-0.50216 1.361-0.50216s0.0756-0.7623 0.10452-1.2714c0.0194-0.34276 0.0262-1.1501 0.0262-1.1501s-0.0387-0.15129-0.0155-0.22162c0.0235-0.07131 0.1462-0.17135 0.1462-0.17135l2.0673-2.0293s3.9125 1.5196 5.7388 2.5398c1.5085 0.84269 4.2718 2.9365 4.2718 2.9365l-0.71785 4.5597h-1.4366v0.63346s0.65564 0.46276 1.3198 1.395c0.47922 0.67258 0.98624 1.7389 1.1441 2.3443 0.16916 0.64873 0.18086 1.7439 0.0647 2.5804-0.11327 0.81559-0.35244 1.3811-0.35244 1.3811s-0.37809 0.98536-1.0263 1.8636c-0.44138 0.598-1.0681 1.1019-1.5513 1.3847-0.78593 0.45993-2.2005 0.82236-3.3362 0.91473-1.05 0.08541-1.8553-0.08264-1.8553-0.08264s-0.77277-0.16039-1.1426-0.29425c-1.0257-0.37127-2.5375-1.2188-3.6329-1.7745-0.73826-0.37452-1.3174-0.57141-1.3174-0.57141s-2.2397-0.76888-4.9568-1.1758c-2.6075-0.39047-5.6517-0.42446-7.7217-0.20308-1.6903 0.18077-4.2156 0.69321-6.2824 1.4561-2.501 0.92317-4.4117 2.1046-4.4117 2.1046l-1.0228-1.6581s1.7214-1.2778 4.4051-2.2832c2.2502-0.84305 5.3274-1.4194 7.1742-1.6201 2.0896-0.22703 5.2162-0.25204 7.8878 0.13749 3.0315 0.44202 5.4938 1.3226 5.4938 1.3226s0.9031 0.31391 1.9416 0.84819c0.92469 0.47574 1.9453 1.159 2.7078 1.4434 0.37491 0.13984 1.1613 0.30409 1.1613 0.30409s0.57874 0.0884 1.3327 0.04842c0.47613-0.02524 1.0071-0.12537 1.4821-0.24378 0.28738-0.07164 0.56352-0.13454 0.76816-0.23565 0.2492-0.12311 0.63757-0.3066 0.8972-0.57058 0.53968-0.54872 0.89496-1.2674 0.89496-1.2674s0.33716-0.55106 0.47238-1.3142c0.13425-0.7576 0.0672-1.7252-0.1121-2.3013-0.15817-0.50818-0.60873-1.3116-1.0892-1.8171-0.58876-0.6195-1.2077-0.89424-1.2077-0.89424s-2.3159 0.5947-3.5007 0.71871c-1.2421 0.13001-3.7466 0.0228-3.7466 0.0228s-10.418-1.7104-19.196-11.614c-2.3938-2.7006-4.4656-6.1466-5.7958-9.1406-1.7771-3.9998-1.7515-4.7808-2.4067-7.2372-0.2649-0.99313-0.63862-1.9944-0.61342-3.0219 0.0193-0.78401 0.0847-1.7278 0.3059-2.5574 0.18887-0.70849 0.66011-1.566 0.86067-2.0243 0.51312-1.1726 2.624-2.8036 2.624-2.8036z" opacity=".99988"/><path d="m775.22-320.13h132.89v133.5h-132.89z" opacity=".99988"/><path d="m747-124.89h189.43v3.2987h-189.43z" opacity=".99988"/></g><g transform="matrix(1.2504 0 0 1.2504 688.7 -915.41)" stroke-width=".79974" aria-label="1"><path d="m119.3 669.71-3.6094 1e-5 -6e-3 -13.174-0.1828-0.0951s-1.2327 0.68775-1.9043 0.88494c-0.7528 0.22103-2.332 0.31948-2.332 0.31948l4e-3 -3.6052s0.74079-0.0541 1.4868-0.31341c0.62301-0.21656 1.2311-0.60409 1.5901-0.95939 0.41341-0.40915 0.87672-1.1496 1.1117-1.8464 0.22707-0.67342 0.23274-1.3107 0.23274-1.3107l3.6094-1e-5z" fill="#fff" stroke-width=".79974"/></g><g transform="matrix(1.2504 0 0 1.2504 720.7 -915.41)" stroke-width=".79974" aria-label="1"><path d="m119.3 669.71-3.6094 1e-5 -6e-3 -13.174-0.1828-0.0951s-1.2327 0.68775-1.9043 0.88494c-0.7528 0.22103-2.332 0.31948-2.332 0.31948l4e-3 -3.6052s0.74079-0.0541 1.4868-0.31341c0.62301-0.21656 1.2311-0.60409 1.5901-0.95939 0.41341-0.40915 0.87672-1.1496 1.1117-1.8464 0.22707-0.67342 0.23274-1.3107 0.23274-1.3107l3.6094-1e-5z" fill="#fff" stroke-width=".79974"/></g></g><g transform="matrix(.89129 0 0 .89129 1698.7 -77.287)" stroke-width=".19983"><circle transform="scale(-1,1)" cx="960.12" cy="-197.86" r="60.556" fill="#c00"/><circle transform="scale(-1,1)" cx="975.93" cy="-197.86" r="49.87" fill="#fff"/></g><g transform="matrix(1.8022 0 0 1.8022 1391.9 -1006.4)" fill="#fff" aria-label="2"><path d="m-268.3 515.09-11.148 4e-3 -3.4e-4 -2.5176 7.8921-4.6234s0.40631-0.49193 0.52909-0.7816c0.14055-0.33162 0.24698-0.69824 0.22175-1.0575-0.0387-0.55108-0.18529-1.1559-0.56348-1.5586-0.31998-0.3407-0.75563-0.67337-1.2159-0.82434-0.2924-0.0959-0.59093-0.11034-0.88746-0.0889-0.49219 0.0356-1.0299 0.19226-1.4365 0.3578-0.32147 0.13088-0.73662 0.41544-1.0398 0.76014-0.40792 0.46386-0.66063 0.99332-0.66063 0.99332l-2.2786-1.0518s0.48469-0.94646 0.83255-1.3413c0.53055-0.60223 1.1537-1.1543 1.8694-1.5175 0.83667-0.42468 1.7897-0.71171 2.722-0.71682 0.11037-6e-4 0.47608-5e-3 0.86677 0.0528 0.31189 0.0462 0.59913 0.12133 0.88806 0.21856 0.29388 0.0989 0.5763 0.21396 0.8539 0.36899 0.58173 0.32485 1.1157 0.77681 1.4961 1.3053 0.70738 0.98288 1.09 2.2644 1.0594 3.475-0.0217 0.8575-0.43351 1.6843-0.87411 2.4203-0.26063 0.43533-1.0177 1.1319-1.0177 1.1319l-4.2488 2.4705 6.1433 0.0105z" fill="#fff" stroke-width=".081765"/></g></g></svg>