<svg width="200.26" height="203.17" version="1.1" viewBox="0 0 200.26 203.17" xmlns="http://www.w3.org/2000/svg"><g transform="translate(-608.68 87.64)"><path d="m641.85-54.556h132.89v133.5h-132.89z" fill="#fff" fill-rule="evenodd" opacity=".99988"/><path d="m621.75-87.64h174.12c7.24 0 13.069 5.8286 13.069 13.069v177.03c0 7.24-5.8286 13.069-13.069 13.069h-174.12c-7.24 0-13.069-5.8286-13.069-13.069v-177.03c0-7.24 5.8286-13.069 13.069-13.069z" fill="#00408c" fill-rule="evenodd" opacity=".99988" stroke-linecap="round" stroke-linejoin="round" stroke-miterlimit=".1" stroke-width="3.0807"/><path d="m620.53 111.68c-4.0805-0.52402-7.3252-3.8063-7.8372-7.928-0.10693-0.86065-0.10693-178.51 0-179.37 0.22056-1.7753 0.90983-3.3604 2.0664-4.7518 1.2862-1.5474 2.9868-2.5679 5.1476-3.0888 0.52041-0.12547 3.9488-0.13139 88.707-0.15295 62.697-0.0159 87.974 4e-5 88.46 0.0554 4.2013 0.47809 7.4877 3.735 8.0099 7.9382 0.10693 0.86065 0.10693 178.51 0 179.37-0.51767 4.1667-3.7671 7.4162-7.9339 7.9339-0.76909 0.0956-175.87 0.0897-176.62-6e-3zm176.98-3.0781c2.2433-0.5995 3.905-2.3038 4.4914-4.527l0.16411-0.6496v-178.71l-0.16473-0.6496c-0.57134-2.2531-2.2692-3.9589-4.5-4.5211l-0.67645-0.17047h-87.704c-83.337 0-88.124 7e-3 -88.655 0.1252-1.1948 0.26629-2.2004 0.81638-3.0552 1.6712-0.82489 0.82489-1.3709 1.8007-1.6678 2.9806-0.11655 0.46313-0.1251 5.6963-0.14616 89.379-0.0148 58.875 2e-3 89.131 0.0498 89.609 0.0951 0.95178 0.23251 1.4527 0.61355 2.2375 0.88952 1.832 2.7146 3.1064 4.8037 3.3541 0.25803 0.0306 40.014 0.0515 88.346 0.0467l87.487-9e-3z" fill="#fff" stroke-width=".087081"/><path d="m641.85-54.556h132.89v133.5h-132.89z" fill="#fff" fill-rule="evenodd" opacity=".99988"/><path d="m677.76-41.726 30.51-6.8444h30.114v18.236h-13.169l-0.0167 7.6304h13.188v11.56h-11.153s-1.0756 0.34124-1.4254 0.74839c-0.40547 0.47197-0.60921 1.7647-0.60921 1.7647v12.542l2.831 3.7487v62.952h-19.728v-62.952l2.7706-3.7487v-12.516s0.0455-0.38712-0.0334-0.72794c-0.0922-0.40256-0.32414-0.78588-0.5426-1.0406-0.37211-0.43364-1.5315-0.77096-1.5315-0.77096h-31.204v-11.56h33.311l0.0208-7.6304-33.331-5e-5z" fill-rule="evenodd" opacity=".99988"/></g></svg>