<?xml version="1.0" encoding="UTF-8" standalone="no"?>
<svg
   xmlns:dc="http://purl.org/dc/elements/1.1/"
   xmlns:cc="http://creativecommons.org/ns#"
   xmlns:rdf="http://www.w3.org/1999/02/22-rdf-syntax-ns#"
   xmlns:svg="http://www.w3.org/2000/svg"
   xmlns="http://www.w3.org/2000/svg"
   xmlns:sodipodi="http://sodipodi.sourceforge.net/DTD/sodipodi-0.dtd"
   xmlns:inkscape="http://www.inkscape.org/namespaces/inkscape"
   version="1.1"
   id="svg8427"
   width="200.25716"
   height="203.16643"
   viewBox="0 0 200.25716 203.16643"
   sodipodi:docname="Turkey_road_sign_B-16b.svg"
   inkscape:export-filename="C:\Users\Adinan\Documents\rect9004.png"
   inkscape:export-xdpi="96"
   inkscape:export-ydpi="96"
   inkscape:version="1.0 (4035a4fb49, 2020-05-01)">
  <metadata
     id="metadata8433">
    <rdf:RDF>
      <cc:Work
         rdf:about="">
        <dc:format>image/svg+xml</dc:format>
        <dc:type
           rdf:resource="http://purl.org/dc/dcmitype/StillImage" />
        <dc:title />
      </cc:Work>
    </rdf:RDF>
  </metadata>
  <defs
     id="defs8431" />
  <sodipodi:namedview
     inkscape:document-rotation="0"
     pagecolor="#ffffff"
     bordercolor="#666666"
     borderopacity="1"
     objecttolerance="10"
     gridtolerance="10"
     guidetolerance="10"
     inkscape:pageopacity="0"
     inkscape:pageshadow="2"
     inkscape:window-width="1920"
     inkscape:window-height="1001"
     id="namedview8429"
     showgrid="true"
     inkscape:zoom="1.5696782"
     inkscape:cx="-94.20189"
     inkscape:cy="156.34833"
     inkscape:window-x="-9"
     inkscape:window-y="-9"
     inkscape:window-maximized="1"
     inkscape:current-layer="g8435">
    <inkscape:grid
       type="xygrid"
       id="grid18096"
       originx="-225.39187"
       originy="-51.60556" />
  </sodipodi:namedview>
  <g
     inkscape:groupmode="layer"
     inkscape:label="Image"
     id="g8435"
     transform="translate(-608.68197,87.640082)">
    <path
       id="rect92004"
       style="opacity:0.999883;fill:#ffffff;fill-opacity:1;fill-rule:evenodd;stroke:none;stroke-width:5.3;stroke-linecap:round;stroke-linejoin:round;stroke-miterlimit:0.1;stroke-dasharray:none;stroke-opacity:1"
       d="M 641.84828,-54.555932 H 774.73606 V 78.947149 H 641.84828 Z" />
    <path
       id="rect9000-2"
       style="opacity:0.999883;fill:#00408c;fill-opacity:1;fill-rule:evenodd;stroke-width:3.0807;stroke-linecap:round;stroke-linejoin:round;stroke-miterlimit:0.1"
       d="m 621.75051,-87.640082 h 174.12008 c 7.23997,0 13.06854,5.82857 13.06854,13.06854 V 102.45781 c 0,7.23998 -5.82857,13.06854 -13.06854,13.06854 H 621.75051 c -7.23997,0 -13.06854,-5.82856 -13.06854,-13.06854 V -74.571542 c 0,-7.23997 5.82857,-13.06854 13.06854,-13.06854 z" />
    <path
       style="fill:#ffffff;fill-opacity:1;stroke-width:0.0870807"
       d="m 620.53274,111.67852 c -4.08048,-0.52402 -7.32515,-3.80626 -7.83723,-7.92797 -0.10693,-0.86065 -0.10693,-178.505412 0,-179.366072 0.22056,-1.77533 0.90983,-3.36035 2.06635,-4.75175 1.28619,-1.5474 2.98684,-2.56787 5.14764,-3.08883 0.52041,-0.12547 3.94884,-0.13139 88.70673,-0.15295 62.69734,-0.0159 87.9737,4e-5 88.45995,0.0554 4.20133,0.47809 7.48768,3.73503 8.00987,7.93815 0.10693,0.86065 0.10693,178.505422 0,179.366072 -0.51767,4.16674 -3.76713,7.41621 -7.93388,7.93388 -0.76909,0.0956 -175.87498,0.0897 -176.61943,-0.006 z m 176.97843,-3.07807 c 2.24328,-0.5995 3.90502,-2.30377 4.49137,-4.52699 l 0.16411,-0.6496 v -89.356342 -89.35634 l -0.16473,-0.6496 c -0.57134,-2.25306 -2.26919,-3.95891 -4.49999,-4.5211 l -0.67645,-0.17047 h -87.704 c -83.33657,0 -88.12356,0.007 -88.65495,0.1252 -1.19475,0.26629 -2.20037,0.81638 -3.05521,1.67121 -0.82489,0.82489 -1.37088,1.80066 -1.66782,2.98065 -0.11655,0.46313 -0.1251,5.69627 -0.14616,89.37911 -0.0148,58.874541 0.002,89.130882 0.0498,89.608972 0.0951,0.95178 0.23251,1.45274 0.61355,2.23751 0.88952,1.83205 2.71455,3.10636 4.80367,3.35413 0.25803,0.0306 40.01367,0.0515 88.34584,0.0467 l 87.48748,-0.009 z"
       id="path9038-5"
       sodipodi:nodetypes="sssssscssssssscccsscssssssssscs" />
    <path
       d="M 641.84828,-54.555932 H 774.73606 V 78.947149 H 641.84828 Z"
       style="opacity:0.999883;fill:#ffffff;fill-opacity:1;fill-rule:evenodd;stroke:none;stroke-width:5.3;stroke-linecap:round;stroke-linejoin:round;stroke-miterlimit:0.1;stroke-dasharray:none;stroke-opacity:1"
       id="path34692" />
    <path
       sodipodi:nodetypes="cccccccccaccccccccssccccccc"
       d="m 677.76043,-41.725672 30.50995,-6.84443 h 30.11449 v 18.23566 h -13.16931 l -0.0167,7.63039 h 13.18778 v 11.5605 h -11.15322 c 0,0 -1.0756,0.34124 -1.42535,0.74839 -0.40547,0.47197 -0.60921,1.76474 -0.60921,1.76474 v 12.54216 l 2.83095,3.7487 V 70.612059 H 708.30215 V 7.660438 l 2.77064,-3.7487 v -12.51584 c 0,0 0.0455,-0.38712 -0.0334,-0.72794 -0.0922,-0.40256 -0.32414,-0.78588 -0.5426,-1.04055 -0.37211,-0.43364 -1.53147,-0.77096 -1.53147,-0.77096 h -31.20419 v -11.5605 h 33.31075 l 0.0208,-7.63039 -33.33074,-5e-5 z"
       style="opacity:0.999883;fill:#000000;fill-opacity:1;fill-rule:evenodd;stroke:none;stroke-width:2;stroke-linecap:round;stroke-linejoin:round;stroke-miterlimit:0.1;stroke-opacity:1"
       id="rect33645" />
  </g>
</svg>
