<?xml version="1.0" encoding="UTF-8" standalone="no"?>
<svg
   xmlns:dc="http://purl.org/dc/elements/1.1/"
   xmlns:cc="http://creativecommons.org/ns#"
   xmlns:rdf="http://www.w3.org/1999/02/22-rdf-syntax-ns#"
   xmlns:svg="http://www.w3.org/2000/svg"
   xmlns="http://www.w3.org/2000/svg"
   xmlns:sodipodi="http://sodipodi.sourceforge.net/DTD/sodipodi-0.dtd"
   xmlns:inkscape="http://www.inkscape.org/namespaces/inkscape"
   version="1.1"
   id="svg8427"
   width="200.25716"
   height="203.16643"
   viewBox="0 0 200.25716 203.16643"
   sodipodi:docname="Turkey_road_sign_B-16b.svg"
   inkscape:export-filename="C:\Users\Adinan\Documents\rect9004.png"
   inkscape:export-xdpi="96"
   inkscape:export-ydpi="96"
   inkscape:version="1.0 (4035a4fb49, 2020-05-01)">
  <metadata
     id="metadata8433">
    <rdf:RDF>
      <cc:Work
         rdf:about="">
        <dc:format>image/svg+xml</dc:format>
        <dc:type
           rdf:resource="http://purl.org/dc/dcmitype/StillImage" />
        <dc:title />
      </cc:Work>
    </rdf:RDF>
  </metadata>
  <defs
     id="defs8431" />
  <sodipodi:namedview
     inkscape:document-rotation="0"
     pagecolor="#ffffff"
     bordercolor="#666666"
     borderopacity="1"
     objecttolerance="10"
     gridtolerance="10"
     guidetolerance="10"
     inkscape:pageopacity="0"
     inkscape:pageshadow="2"
     inkscape:window-width="1920"
     inkscape:window-height="1001"
     id="namedview8429"
     showgrid="true"
     inkscape:zoom="3.1393564"
     inkscape:cx="110.85808"
     inkscape:cy="97.954667"
     inkscape:window-x="-9"
     inkscape:window-y="-9"
     inkscape:window-maximized="1"
     inkscape:current-layer="g8435">
    <inkscape:grid
       type="xygrid"
       id="grid18096"
       originx="-225.39187"
       originy="-51.60556" />
  </sodipodi:namedview>
  <g
     inkscape:groupmode="layer"
     inkscape:label="Image"
     id="g8435"
     transform="translate(-608.68197,87.640082)">
    <path
       id="rect92004"
       style="opacity:0.999883;fill:#ffffff;fill-opacity:1;fill-rule:evenodd;stroke:none;stroke-width:5.3;stroke-linecap:round;stroke-linejoin:round;stroke-miterlimit:0.1;stroke-dasharray:none;stroke-opacity:1"
       d="M 641.84828,-54.555932 H 774.73606 V 78.947149 H 641.84828 Z" />
    <path
       sodipodi:nodetypes="sssssssss"
       id="rect9000-2"
       style="opacity:0.999883;fill:#00408c;fill-opacity:1;fill-rule:evenodd;stroke-width:3.0807;stroke-linecap:round;stroke-linejoin:round;stroke-miterlimit:0.1"
       d="m 621.75093,-87.640298 h 174.12008 c 7.23997,0 13.06854,5.82857 13.06854,13.06854 V 102.45759 c 0,7.23998 -5.82857,13.06854 -13.06854,13.06854 H 621.75093 c -7.23997,0 -13.06854,-5.82856 -13.06854,-13.06854 V -74.571758 c 0,-7.23997 5.82857,-13.06854 13.06854,-13.06854 z" />
    <path
       style="fill:#ffffff;fill-opacity:1;stroke-width:0.0870807"
       d="m 620.53274,111.67852 c -4.08048,-0.52402 -7.32515,-3.80626 -7.83723,-7.92797 -0.10693,-0.86065 -0.10693,-178.505412 0,-179.366072 0.22056,-1.77533 0.90983,-3.36035 2.06635,-4.75175 1.28619,-1.5474 2.98684,-2.56787 5.14764,-3.08883 0.52041,-0.12547 3.94884,-0.13139 88.70673,-0.15295 62.69734,-0.0159 87.9737,4e-5 88.45995,0.0554 4.20133,0.47809 7.48768,3.73503 8.00987,7.93815 0.10693,0.86065 0.10693,178.505422 0,179.366072 -0.51767,4.16674 -3.76713,7.41621 -7.93388,7.93388 -0.76909,0.0956 -175.87498,0.0897 -176.61943,-0.006 z m 176.97843,-3.07807 c 2.24328,-0.5995 3.90502,-2.30377 4.49137,-4.52699 l 0.16411,-0.6496 v -89.356342 -89.35634 l -0.16473,-0.6496 c -0.57134,-2.25306 -2.26919,-3.95891 -4.49999,-4.5211 l -0.67645,-0.17047 h -87.704 c -83.33657,0 -88.12356,0.007 -88.65495,0.1252 -1.19475,0.26629 -2.20037,0.81638 -3.05521,1.67121 -0.82489,0.82489 -1.37088,1.80066 -1.66782,2.98065 -0.11655,0.46313 -0.1251,5.69627 -0.14616,89.37911 -0.0148,58.874541 0.002,89.130882 0.0498,89.608972 0.0951,0.95178 0.23251,1.45274 0.61355,2.23751 0.88952,1.83205 2.71455,3.10636 4.80367,3.35413 0.25803,0.0306 40.01367,0.0515 88.34584,0.0467 l 87.48748,-0.009 z"
       id="path9038-5"
       sodipodi:nodetypes="sssssscssssssscccsscssssssssscs" />
    <path
       d="M 641.84828,-54.555932 H 774.73606 V 78.947149 H 641.84828 Z"
       style="opacity:0.999883;fill:#ffffff;fill-opacity:1;fill-rule:evenodd;stroke:none;stroke-width:5.3;stroke-linecap:round;stroke-linejoin:round;stroke-miterlimit:0.1;stroke-dasharray:none;stroke-opacity:1"
       id="path34692" />
    <path
       sodipodi:nodetypes="ccaccscacacsscscaccaccccssscssscsscsssccssscsscsssscssscacssssascc"
       d="m 672.65134,-49.10072 h 9.45707 c 0,0 2.706,7.835389 4.6841,11.455684 2.17503,3.980723 7.81808,11.138658 7.81808,11.138658 l -6.98608,7.426971 c 0,0 -1.94942,-2.467192 -4.36855,-1.144678 -2.47692,1.354113 -2.25163,3.567767 -2.25163,3.567767 0,0 0.64294,3.53706 1.57446,5.024666 2.37351,3.7903579 9.76594,9.1994456 9.76594,9.1994456 0,0 8.30481,7.9153158 11.90487,12.3610049 4.29768,5.3071775 11.47908,16.9692555 11.47908,16.9692555 0,0 2.30198,2.511848 5.248,3.424471 1.16262,0.360158 2.83134,0.458839 4.28433,0.158211 1.79896,-0.372202 3.28529,-1.212199 3.28529,-1.212199 0,0 0.18249,-1.840155 0.2523,-3.069039 0.0468,-0.827412 0.0633,-2.776211 0.0633,-2.776211 0,0 -0.0934,-0.365201 -0.0374,-0.534992 0.0567,-0.17214 0.35292,-0.413625 0.35292,-0.413625 l 4.99037,-4.898737 c 0,0 9.4447,3.668334 13.85325,6.13107 3.64147,2.034226 10.31202,7.088579 10.31202,7.088579 l -1.73286,11.006909 h -3.4678 v 1.529145 c 0,0 1.58269,1.117098 3.18607,3.367402 1.15682,1.623594 2.38074,4.197713 2.76176,5.659033 0.40835,1.566009 0.43659,4.209601 0.15619,6.229114 -0.27343,1.968807 -0.85078,3.333986 -0.85078,3.333986 0,0 -0.91269,2.378636 -2.4775,4.498702 -1.06547,1.443541 -2.57828,2.660041 -3.74485,3.342722 -1.89721,1.110262 -5.31198,1.985138 -8.05342,2.208131 -2.53474,0.206176 -4.47856,-0.19949 -4.47856,-0.19949 0,0 -1.86544,-0.387178 -2.75812,-0.7103 -2.47608,-0.896239 -6.12551,-2.942079 -8.76979,-4.283533 -1.78213,-0.904078 -3.18027,-1.379366 -3.18027,-1.379366 0,0 -5.40656,-1.856051 -11.96564,-2.838232 -6.29451,-0.942588 -13.64302,-1.024636 -18.63993,-0.490226 -4.08037,0.43637 -10.1764,1.673391 -15.16537,3.514971 -6.03722,2.228499 -10.64978,5.080318 -10.64978,5.080318 l -2.4689,-4.0027 c 0,0 4.15539,-3.084573 10.63368,-5.511619 5.43202,-2.035087 12.86015,-3.426419 17.31828,-3.910788 5.04415,-0.548038 12.59182,-0.608411 19.04075,0.331898 7.318,1.067028 13.26174,3.192707 13.26174,3.192707 0,0 2.18005,0.757774 4.68695,2.04751 2.23217,1.148414 4.69593,2.797765 6.53663,3.484356 0.90502,0.337579 2.80326,0.734053 2.80326,0.734053 0,0 1.39706,0.213394 3.21709,0.116884 1.14936,-0.06093 2.43118,-0.302631 3.57774,-0.588476 0.69372,-0.172936 1.36032,-0.324777 1.85431,-0.568843 0.60156,-0.297188 1.53907,-0.740131 2.16581,-1.377365 1.30277,-1.32459 2.1604,-3.059359 2.1604,-3.059359 0,0 0.81389,-1.330232 1.14031,-3.172337 0.32407,-1.828808 0.16222,-4.164482 -0.27061,-5.555169 -0.38181,-1.226724 -1.46945,-3.166095 -2.62919,-4.386367 -1.42125,-1.495463 -2.91539,-2.158656 -2.91539,-2.158656 0,0 -5.59055,1.435592 -8.45054,1.734938 -2.99836,0.313834 -9.04411,0.05504 -9.04411,0.05504 0,0 -25.14796,-4.128839 -46.33788,-28.035214 -5.77847,-6.519258 -10.77982,-14.8376284 -13.99097,-22.0651262 -4.28986,-9.6554508 -4.22813,-11.5405638 -5.80971,-17.4702488 -0.63946,-2.397381 -1.54161,-4.814338 -1.48078,-7.294783 0.0466,-1.892572 0.20446,-4.170895 0.73843,-6.173447 0.45593,-1.71027 1.59349,-3.780196 2.07763,-4.886636 1.23865,-2.830711 6.33427,-6.767742 6.33427,-6.767742 z"
       style="opacity:0.999883;fill:#000000;fill-opacity:1;fill-rule:evenodd;stroke:none;stroke-width:5.3;stroke-linecap:round;stroke-linejoin:round;stroke-miterlimit:0.1;stroke-dasharray:none;stroke-opacity:1"
       id="rect92001" />
  </g>
</svg>
