<svg width="200.26" height="203.17" version="1.1" viewBox="0 0 200.26 203.17" xmlns="http://www.w3.org/2000/svg"><g transform="translate(-608.68 87.64)"><path d="m641.85-54.556h132.89v133.5h-132.89z" fill="#fff" fill-rule="evenodd" opacity=".99988"/><path d="m621.75-87.64h174.12c7.24 0 13.069 5.8286 13.069 13.069v177.03c0 7.24-5.8286 13.069-13.069 13.069h-174.12c-7.24 0-13.069-5.8286-13.069-13.069v-177.03c0-7.24 5.8286-13.069 13.069-13.069z" fill="#00408c" fill-rule="evenodd" opacity=".99988" stroke-linecap="round" stroke-linejoin="round" stroke-miterlimit=".1" stroke-width="3.0807"/><path d="m620.53 111.68c-4.0805-0.52402-7.3252-3.8063-7.8372-7.928-0.10693-0.86065-0.10693-178.51 0-179.37 0.22056-1.7753 0.90983-3.3604 2.0664-4.7518 1.2862-1.5474 2.9868-2.5679 5.1476-3.0888 0.52041-0.12547 3.9488-0.13139 88.707-0.15295 62.697-0.0159 87.974 4e-5 88.46 0.0554 4.2013 0.47809 7.4877 3.735 8.0099 7.9382 0.10693 0.86065 0.10693 178.51 0 179.37-0.51767 4.1667-3.7671 7.4162-7.9339 7.9339-0.76909 0.0956-175.87 0.0897-176.62-6e-3zm176.98-3.0781c2.2433-0.5995 3.905-2.3038 4.4914-4.527l0.16411-0.6496v-178.71l-0.16473-0.6496c-0.57134-2.2531-2.2692-3.9589-4.5-4.5211l-0.67645-0.17047h-87.704c-83.337 0-88.124 7e-3 -88.655 0.1252-1.1948 0.26629-2.2004 0.81638-3.0552 1.6712-0.82489 0.82489-1.3709 1.8007-1.6678 2.9806-0.11655 0.46313-0.1251 5.6963-0.14616 89.379-0.0148 58.875 2e-3 89.131 0.0498 89.609 0.0951 0.95178 0.23251 1.4527 0.61355 2.2375 0.88952 1.832 2.7146 3.1064 4.8037 3.3541 0.25803 0.0306 40.014 0.0515 88.346 0.0467l87.487-9e-3z" fill="#fff" stroke-width=".087081"/><path d="m641.85-54.556h132.89v133.5h-132.89z" fill="#fff" fill-rule="evenodd" opacity=".99988"/><path d="m672.65-49.101h9.4571s2.706 7.8354 4.6841 11.456c2.175 3.9807 7.8181 11.139 7.8181 11.139l-6.9861 7.427s-1.9494-2.4672-4.3686-1.1447c-2.4769 1.3541-2.2516 3.5678-2.2516 3.5678s0.64294 3.5371 1.5745 5.0247c2.3735 3.7904 9.7659 9.1994 9.7659 9.1994s8.3048 7.9153 11.905 12.361c4.2977 5.3072 11.479 16.969 11.479 16.969s2.302 2.5118 5.248 3.4245c1.1626 0.36016 2.8313 0.45884 4.2843 0.15821 1.799-0.3722 3.2853-1.2122 3.2853-1.2122s0.18249-1.8402 0.2523-3.069c0.0468-0.82741 0.0633-2.7762 0.0633-2.7762s-0.0934-0.3652-0.0374-0.53499c0.0567-0.17214 0.35292-0.41362 0.35292-0.41362l4.9904-4.8987s9.4447 3.6683 13.853 6.1311c3.6415 2.0342 10.312 7.0886 10.312 7.0886l-1.7329 11.007h-3.4678v1.5291s1.5827 1.1171 3.1861 3.3674c1.1568 1.6236 2.3807 4.1977 2.7618 5.659 0.40835 1.566 0.43659 4.2096 0.15619 6.2291-0.27343 1.9688-0.85078 3.334-0.85078 3.334s-0.91269 2.3786-2.4775 4.4987c-1.0655 1.4435-2.5783 2.66-3.7448 3.3427-1.8972 1.1103-5.312 1.9851-8.0534 2.2081-2.5347 0.20618-4.4786-0.19949-4.4786-0.19949s-1.8654-0.38718-2.7581-0.7103c-2.4761-0.89624-6.1255-2.9421-8.7698-4.2835-1.7821-0.90408-3.1803-1.3794-3.1803-1.3794s-5.4066-1.8561-11.966-2.8382c-6.2945-0.94259-13.643-1.0246-18.64-0.49023-4.0804 0.43637-10.176 1.6734-15.165 3.515-6.0372 2.2285-10.65 5.0803-10.65 5.0803l-2.4689-4.0027s4.1554-3.0846 10.634-5.5116c5.432-2.0351 12.86-3.4264 17.318-3.9108 5.0442-0.54804 12.592-0.60841 19.041 0.3319 7.318 1.067 13.262 3.1927 13.262 3.1927s2.18 0.75777 4.687 2.0475c2.2322 1.1484 4.6959 2.7978 6.5366 3.4844 0.90502 0.33758 2.8033 0.73405 2.8033 0.73405s1.3971 0.21339 3.2171 0.11688c1.1494-0.06093 2.4312-0.30263 3.5777-0.58848 0.69372-0.17294 1.3603-0.32478 1.8543-0.56884 0.60156-0.29719 1.5391-0.74013 2.1658-1.3774 1.3028-1.3246 2.1604-3.0594 2.1604-3.0594s0.81389-1.3302 1.1403-3.1723c0.32407-1.8288 0.16222-4.1645-0.27061-5.5552-0.38181-1.2267-1.4694-3.1661-2.6292-4.3864-1.4212-1.4955-2.9154-2.1587-2.9154-2.1587s-5.5906 1.4356-8.4505 1.7349c-2.9984 0.31383-9.0441 0.05504-9.0441 0.05504s-25.148-4.1288-46.338-28.035c-5.7785-6.5193-10.78-14.838-13.991-22.065-4.2899-9.6555-4.2281-11.541-5.8097-17.47-0.63946-2.3974-1.5416-4.8143-1.4808-7.2948 0.0466-1.8926 0.20446-4.1709 0.73843-6.1734 0.45593-1.7103 1.5935-3.7802 2.0776-4.8866 1.2386-2.8307 6.3343-6.7677 6.3343-6.7677z" fill-rule="evenodd" opacity=".99988"/></g></svg>