<svg xmlns="http://www.w3.org/2000/svg" viewBox="0 0 519.66 527.21"><defs><style>.cls-1{fill:#00408c;fill-rule:evenodd;}.cls-2,.cls-3{fill:#fff;}.cls-3{stroke:#000;stroke-miterlimit:10;stroke-width:3px;}</style></defs><title>Asset 13</title><g id="Layer_2" data-name="Layer 2"><g id="Layer_1-2" data-name="Layer 1"><g id="Layer_1-2-2" data-name="Layer 1-2"><g id="g8435"><path id="rect9000" class="cls-1" d="M33.91,0H485.75a33.84,33.84,0,0,1,33.91,33.77V493.3a33.84,33.84,0,0,1-33.77,33.91h-452A33.84,33.84,0,0,1,0,493.44V33.91A33.84,33.84,0,0,1,33.77,0Z"/><path id="path9038" class="cls-2" d="M30.75,517.22a23.65,23.65,0,0,1-20.33-20.54c-.28-2.23-.28-463.21,0-465.45A23.45,23.45,0,0,1,15.78,18.9a24.09,24.09,0,0,1,13.35-8c1.36-.32,10.25-.33,230.17-.39,162.7,0,228.29,0,229.56.14a23.55,23.55,0,0,1,20.78,20.6c.27,2.24.27,463.22,0,465.45a23.59,23.59,0,0,1-20.59,20.58c-2,.26-456.38.24-458.32,0Zm459.26-8a16.31,16.31,0,0,0,11.65-11.75l.42-1.69V32.05l-.42-1.68A16,16,0,0,0,490,18.64l-1.76-.47H260.64c-216.22,0-228.68,0-230.06.34a15.87,15.87,0,0,0-7.93,4.35,16.23,16.23,0,0,0-4.33,7.73C18,31.79,18,45.37,18,262.52c0,152.78,0,231.29.12,232.53a14.75,14.75,0,0,0,1.6,5.81,15.92,15.92,0,0,0,12.46,8.7c.67.08,103.83.13,229.25.12h227Z"/></g></g><rect class="cls-2" x="84.86" y="88.63" width="349.94" height="349.94"/><path d="M354.36,252.53l-22.51,10.82a1.32,1.32,0,0,1-1.05,0l-102.89-42a1.38,1.38,0,0,0-.49-.1h-9.17A1.3,1.3,0,0,1,217,220V203.19c0-11.88-27.12-13.17-38-8.32l-32.62,14.57a29.45,29.45,0,0,0-17.43,26.88v55.29a1.29,1.29,0,0,0,1.63,1.25l16.49-4.4a1.28,1.28,0,0,0,1-1.25V265.47a1.3,1.3,0,0,1,1.75-1.21l152.13,56.82a1.31,1.31,0,0,1,.85,1.22v28.25a1.3,1.3,0,0,0,1.82,1.19l15.79-7a1.3,1.3,0,0,0,.77-1.19v-36.1a1.28,1.28,0,0,1,.77-1.18l47.44-21.31a1.3,1.3,0,0,1,1.83,1.19v28.36a1.3,1.3,0,0,0,1.71,1.23l15.79-5.26a1.3,1.3,0,0,0,.89-1.23V262.87a1.3,1.3,0,0,1,.14-.58C396.79,248.36,365.54,247.15,354.36,252.53ZM196.83,227.29l-23.43,11.8a10.45,10.45,0,0,0-4.64,14h0a1.29,1.29,0,0,1-1.61,1.79l-18.8-7a1.28,1.28,0,0,1-.85-1.21V242.3a1.3,1.3,0,0,1,.74-1.17l47.45-22.51a1.3,1.3,0,0,1,1.86,1.17v6.34A1.3,1.3,0,0,1,196.83,227.29Z"/><path class="cls-3" d="M177.89,263.6s-17.66-15.3-1-26.24,41.9-15.54,51.34-12.73S330.31,265,330.31,265l-6.52,1.7a27.91,27.91,0,0,0-20.86,28.45l.83,16.07Z"/></g></g></svg>