<svg xmlns="http://www.w3.org/2000/svg" viewBox="0 0 519.66 527.21"><defs><style>.cls-1{fill:#00408c;fill-rule:evenodd;}.cls-2{fill:#fff;}</style></defs><title>Asset 14</title><g id="Layer_2" data-name="Layer 2"><g id="Layer_1-2" data-name="Layer 1"><g id="Layer_1-2-2" data-name="Layer 1-2"><g id="g8435"><path id="rect9000" class="cls-1" d="M33.91,0H485.75a33.84,33.84,0,0,1,33.91,33.77V493.3a33.84,33.84,0,0,1-33.77,33.91h-452A33.84,33.84,0,0,1,0,493.44V33.91A33.84,33.84,0,0,1,33.77,0Z"/><path id="path9038" class="cls-2" d="M30.75,517.22a23.65,23.65,0,0,1-20.33-20.54c-.28-2.23-.28-463.21,0-465.45A23.45,23.45,0,0,1,15.78,18.9a24.09,24.09,0,0,1,13.35-8c1.36-.32,10.25-.33,230.17-.39,162.7,0,228.29,0,229.56.14a23.55,23.55,0,0,1,20.78,20.6c.27,2.24.27,463.22,0,465.45a23.59,23.59,0,0,1-20.59,20.58c-2,.26-456.38.24-458.32,0Zm459.26-8a16.31,16.31,0,0,0,11.65-11.75l.42-1.69V32.05l-.42-1.68A16,16,0,0,0,490,18.64l-1.76-.47H260.64c-216.22,0-228.68,0-230.06.34a15.87,15.87,0,0,0-7.93,4.35,16.23,16.23,0,0,0-4.33,7.73C18,31.79,18,45.37,18,262.52c0,152.78,0,231.29.12,232.53a14.75,14.75,0,0,0,1.6,5.81,15.92,15.92,0,0,0,12.46,8.7c.67.08,103.83.13,229.25.12h227Z"/></g></g><rect class="cls-2" x="84.86" y="88.63" width="349.94" height="349.94"/><path id="path3814" d="M137,392.74a17.34,17.34,0,0,1-8.41-15c0-6.82,2.34-11.37,9.26-18,3-2.84,28.69-25.71,57.18-50.83s51.66-46,51.49-46.5c-1-2.79-14.15-16.73-17.76-18.87-4.21-2.5-4.67-2.55-16.66-1.89-25.63,1.43-40.16-3.43-56.94-19-17-15.84-25.52-33.8-25.53-54.12,0-9.86,1.71-17.3,5.45-23.68,2.07-3.54,4-5.15,9.28-7.75,6-3,7.72-3.32,17.93-3.71,13.34-.51,20.3.94,32.44,6.74,19.15,9.17,35.14,27.12,41.45,46.58,1.45,4.46,1.82,9.23,1.89,24.29.08,15.72.36,19.15,1.78,21.32,2,3.07,18.78,18.5,20.11,18.5.5,0,4.76-3.34,9.45-7.42,9.84-8.57,11.5-11.79,9.72-18.84-2.92-11.63-.65-20.72,7.31-29.21,3.76-4,79.78-61.58,82.88-62.77a2.29,2.29,0,0,1,2.34.82c.82,1-6.15,7.86-30.12,29.58-17.16,15.55-33.35,30.18-36,32.52l-4.8,4.25,2,2,2,2.05,35.67-32.93c33.08-30.54,35.78-32.8,37.32-31.26s-.82,4.13-32.57,35.9c-30.32,30.32-34.08,34.43-32.87,35.89s5.19-2.17,35.84-32.81C378,148.8,382.82,144.38,384,145.73s-1,4-14.82,19c-54.05,58.45-49.87,53.56-47.67,55.77,2,2,2,2,3.88,0,1.05-1.09,15.76-17.28,32.7-36,22.67-25,31.08-33.69,31.91-32.86a3.75,3.75,0,0,1,1.13,2c0,1.89-61.25,82-65.13,85.13-7.8,6.39-15.81,8-27.65,5.42-4.13-.89-5.66-.8-8.38.5-3.27,1.55-16.46,15.77-16.46,17.74,0,.55,25,23.06,55.49,50s56.61,50.61,58,52.55c3.34,4.7,4.1,13.72,1.59,19-4.1,8.63-15.6,12.29-24.44,7.78-4.71-2.4-6.94-4.81-62.76-68-22.43-25.41-41.11-46.19-41.53-46.19S237.5,302,211.15,331.85c-48.05,54.42-53.42,60.16-58,61.9-4.29,1.64-12.66,1.11-16.15-1Z"/></g></g></svg>