<svg width="400.1" height="400.1" version="1.1" viewBox="0 0 105.86 105.86" xmlns="http://www.w3.org/2000/svg"><g transform="translate(-80.415 -73.766)"><path d="m87.049 73.779c-3.6314 0-6.621 2.9895-6.621 6.621v92.593c0 3.6314 2.9901 6.6197 6.621 6.6197h92.593c3.6308 0 6.6197-2.9889 6.6197-6.6197v-92.593c0-3.6308-2.9883-6.621-6.6197-6.621z" color="#000000" fill="#00408c" style="paint-order:stroke fill markers"/><g stroke-linecap="square"><path d="m87.049 75.648c-2.6036 0-4.7517 2.149-4.7517 4.7526v92.593c0 2.6035 2.1481 4.7508 4.7517 4.7508h92.593c2.6035 0 4.7508-2.1472 4.7508-4.7508v-92.593c0-2.6035-2.1472-4.7526-4.7508-4.7526zm-6.22e-4 1.654h92.594c1.716 0 3.0977 1.3816 3.0977 3.0977v92.593c0 1.7161-1.3816 3.0977-3.0977 3.0977h-92.594c-1.716 0-3.0967-1.3816-3.0967-3.0977v-92.593c0-1.716 1.3807-3.0977 3.0967-3.0977z" color="#000000" fill="#fff" stroke-width="3.7369" style="-inkscape-stroke:none;paint-order:stroke fill markers"/><path d="m156.29 87.974v14.102h-68.738v12.273h39.657v58.143h12.254v-58.143h16.826v14.102h15.782v-40.477z" fill="#fff" stroke-width="2.945" style="paint-order:stroke fill markers"/><rect x="157.97" y="89.67" width="12.423" height="37.082" fill="#ef1a23" stroke-width="1.8925" style="paint-order:stroke fill markers"/></g></g></svg>