<?xml version="1.0" encoding="UTF-8" standalone="no"?>
<!-- Created with Inkscape (http://www.inkscape.org/) -->

<svg
   width="400.10001"
   height="400.10001"
   viewBox="0 0 105.85979 105.85979"
   version="1.1"
   id="svg5962"
   xml:space="preserve"
   inkscape:version="1.2.2 (732a01da63, 2022-12-09)"
   sodipodi:docname="6665.svg"
   xmlns:inkscape="http://www.inkscape.org/namespaces/inkscape"
   xmlns:sodipodi="http://sodipodi.sourceforge.net/DTD/sodipodi-0.dtd"
   xmlns="http://www.w3.org/2000/svg"
   xmlns:svg="http://www.w3.org/2000/svg"><sodipodi:namedview
     id="namedview5964"
     pagecolor="#ffffff"
     bordercolor="#000000"
     borderopacity="0.25"
     inkscape:showpageshadow="2"
     inkscape:pageopacity="0.0"
     inkscape:pagecheckerboard="0"
     inkscape:deskcolor="#d1d1d1"
     inkscape:document-units="px"
     showgrid="false"
     inkscape:zoom="1.0129245"
     inkscape:cx="-77.991992"
     inkscape:cy="364.78533"
     inkscape:window-width="1920"
     inkscape:window-height="991"
     inkscape:window-x="-9"
     inkscape:window-y="-9"
     inkscape:window-maximized="1"
     inkscape:current-layer="layer1" /><defs
     id="defs5959" /><g
     inkscape:label="Layer 1"
     inkscape:groupmode="layer"
     id="layer1"
     transform="translate(-80.414946,-73.765694)"><path
       style="color:#000000;opacity:1;fill:#00408c;stroke:none;stroke-width:0.0264583;stroke-linecap:square;stroke-dasharray:none;stroke-opacity:1;paint-order:stroke fill markers;fill-opacity:1"
       d="m 87.049136,73.778923 c -3.631436,0 -6.620961,2.989537 -6.620961,6.620961 v 92.592636 c 0,3.63142 2.990108,6.61974 6.620961,6.61974 h 92.592634 c 3.63084,0 6.61974,-2.9889 6.61974,-6.61974 V 80.399884 c 0,-3.630846 -2.98832,-6.620961 -6.61974,-6.620961 z"
       id="path5882"
       sodipodi:nodetypes="sssssssss" /><path
       id="path5884"
       style="color:#000000;opacity:1;fill:#ffffff;stroke-width:3.73687;stroke-linecap:square;-inkscape-stroke:none;paint-order:stroke fill markers"
       d="m 87.049136,75.6476 c -2.603551,0 -4.751681,2.149045 -4.751681,4.752589 v 92.592631 c 0,2.60354 2.14813,4.75076 4.751681,4.75076 h 92.592634 c 2.60354,0 4.75076,-2.14722 4.75076,-4.75076 V 80.400189 c 0,-2.603544 -2.14722,-4.752589 -4.75076,-4.752589 z m -6.22e-4,1.654022 h 92.593536 c 1.71604,0 3.09766,1.381609 3.09766,3.097659 V 172.9919 c 0,1.71606 -1.38162,3.09767 -3.09766,3.09767 H 87.048226 c -1.716048,0 -3.096744,-1.38161 -3.096744,-3.09767 V 80.399281 c 0,-1.71605 1.380696,-3.097659 3.096744,-3.097659 z" /><path
       id="rect5068"
       style="opacity:1;fill:#ffffff;stroke-width:2.94499;stroke-linecap:square;paint-order:stroke fill markers"
       d="M 156.29049,87.973551 V 102.07557 H 87.552812 v 12.27312 h 39.657438 v 58.14319 h 12.254 v -58.14319 h 16.82624 v 14.10203 h 15.78156 V 87.973551 Z" /><rect
       style="opacity:1;fill:#ef1a23;stroke-width:1.89249;stroke-linecap:square;paint-order:stroke fill markers;fill-opacity:1"
       id="rect5129"
       width="12.42336"
       height="37.081966"
       x="157.96942"
       y="89.670235" /></g></svg>
