<svg xmlns="http://www.w3.org/2000/svg" viewBox="0 0 513.7 521.17"><defs><style>.cls-1{fill:#00408c;fill-rule:evenodd;}.cls-2{fill:#fff;}</style></defs><title>Asset 16</title><g id="Layer_2" data-name="Layer 2"><g id="Layer_1-2" data-name="Layer 1"><g id="Layer_1-2-2" data-name="Layer 1-2"><g id="g8435"><path id="rect9000" class="cls-1" d="M33.52,0H480.18A33.44,33.44,0,0,1,513.7,33.38V487.65a33.45,33.45,0,0,1-33.38,33.52H33.52A33.46,33.46,0,0,1,0,487.79V33.52A33.46,33.46,0,0,1,33.38,0Z"/><path id="path9038" class="cls-2" d="M30.4,511.3A23.4,23.4,0,0,1,10.3,491C10,488.78,10,33.08,10.3,30.88a23.19,23.19,0,0,1,5.3-12.2,23.81,23.81,0,0,1,13.2-7.92c1.34-.32,10.13-.33,227.53-.39,160.83,0,225.68,0,226.93.14A23.29,23.29,0,0,1,503.8,30.88c.27,2.2.27,457.9,0,460.11a23.34,23.34,0,0,1-20.35,20.35c-2,.25-451.16.23-453.07,0Zm454-7.9a16.11,16.11,0,0,0,11.52-11.61l.42-1.67V31.68L495.91,30a15.81,15.81,0,0,0-11.55-11.6L482.63,18h-225c-213.74,0-226,0-227.42.34a15.66,15.66,0,0,0-7.84,4.29,16,16,0,0,0-4.28,7.65c-.3,1.19-.32,14.61-.37,229.28,0,151,0,228.64.12,229.86a14.73,14.73,0,0,0,1.58,5.74,15.73,15.73,0,0,0,12.32,8.6c.66.08,102.64.13,226.63.12H482.82Z"/></g></g><rect class="cls-2" x="83.89" y="87.62" width="345.93" height="345.93"/><path d="M346.29,308c49.09-17,46.92-72.61,46.92-72.61l-2.78-13a7.06,7.06,0,0,0-8-5.5l-22.63,3.46V203.89H151.3c0,75.74,10.27,100.48,32.86,138.06H120.48a27.25,27.25,0,0,0,27.25,27.25h216A27.25,27.25,0,0,0,390.94,342H327.21C332.61,330.87,339.94,320.76,346.29,308Zm32.55-75.85s7.49,27.63-25.53,58.88h0c3.91-11.92,6.54-26.27,6.54-44.74V234.16Z"/></g></g></svg>