<svg xmlns="http://www.w3.org/2000/svg" viewBox="0 0 1566.81 1589.57"><defs><style>.cls-1{fill:#00408c;fill-rule:evenodd;}.cls-2{fill:#fff;}</style></defs><g id="Layer_2" data-name="Layer 2"><g id="Layer_1-2" data-name="Layer 1"><g id="Layer_2-2" data-name="Layer 2"><g id="Layer_1-2-2" data-name="Layer 1-2"><g id="Layer_1-2-2-2" data-name="Layer 1-2-2"><g id="g8435"><path id="rect9000" class="cls-1" d="M102.25,0h1362.3a102.06,102.06,0,0,1,102.26,101.81V1487.32A102.25,102.25,0,0,1,1465,1589.57H102.25A102,102,0,0,1,0,1487.8V102.25A102,102,0,0,1,101.77,0h.48Z"/><path id="path9038" class="cls-2" d="M92.71,1559.44a71.33,71.33,0,0,1-61.35-61.93c-.68-6.71-.68-1396.62.07-1403.34A70.59,70.59,0,0,1,47.72,57,72.55,72.55,0,0,1,87.83,32.82c4.09-1,30.92-1,694-1.19,490.53,0,688.29,0,692.11.41a71.06,71.06,0,0,1,62.68,62.13c.82,6.82.82,1396.63,0,1403.34a71.21,71.21,0,0,1-62.1,62.07c-6.1.75-1376,.68-1381.87,0Zm1384.69-24.06a49.18,49.18,0,0,0,35.11-35.41l1.3-5.12V96.63l-1.3-5.08A48.15,48.15,0,0,0,1477.3,56.2L1472,54.77H785.84c-651.92,0-689.48,0-693.64,1.06A47.43,47.43,0,0,0,68.34,68.92,48.65,48.65,0,0,0,55.28,92.23c-.92,3.61-1,44.55-1.12,699.3,0,460.65,0,697.33.34,701.07a45.05,45.05,0,0,0,4.84,17.52,48,48,0,0,0,37.49,26.25c2,.24,313.06.37,691.23.34H1472.6Z"/></g></g><rect class="cls-2" x="255.83" y="267.22" width="1055.1" height="1055.1"/></g></g><path d="M478.1,458h170l-.09-.67a65.76,65.76,0,0,0-2.73-15.7h0a65.65,65.65,0,0,0-113.88-22.23l-.2.2h0l-.31.43c-1.26,1.6-2.46,3.27-3.58,5l-.35.5-.06.1-.5.74-.47.9a65.69,65.69,0,0,0-5.6,12.2l-.43,1H478.1v1.13h0v7.91h0V458Z"/><path d="M931.85,483.44h0l2.26,7.63h0l3.11,7.34h0l3.94,6.49h0l5.08,6.22h0l5.64,5.36h0L958.4,521h0l2,1,5.07,2.64h0l7.33,2.54h0l7.62,1.7,2.84.2,5.07.36h0v-.28h.14V414.26h-.17a57.22,57.22,0,0,0-29.72,8.38l-.18.09h0l-.24.16,0,0a56,56,0,0,0-4.82,3.36l-1.42,1h0l-1.6,1.52c-.95.85-1.88,1.73-2.77,2.63l-1.28,1.22h0l-1.17,1.43c-.73.84-1.43,1.7-2.12,2.58l-1.79,2.2h0L939,442.35l-1.81,3-3.11,7.34h0l-2.26,7.63h0l-.85,7.63h0v7.9h0Z"/><path d="M1127.81,529.47l-.14-.51.42.36a151.2,151.2,0,0,0-84.81-102.26l-.17-.09h0l-.19-.08A151.35,151.35,0,0,0,1007.56,416l-.32-.08h0l-.3,0q-5.29-.92-10.7-1.45l-1.41-.2h0v.57h0v3.95h0v3.67h0v10.17h0v22h0v9h0v30.77h0v11.3h0v11.58h0v12.14h133Z"/><path d="M671.51,549.51l15,173.94h0l.11,1,.45,4h0l.12,1.9.17,2.9.11.89.44,3.63h0l.1,1.54.18,2.7h0l.29,3.67h0l.28,2.82h0l.12,1,.16,1.3h0v1.41h0l1.41,14.12.29,2.54,14.11-2.54,72-14.12,2.95-.87,1.85-.54h0l4.51-2.25h0l3.67-2.82h0l1.66-1.81.33-.36,1.4-1.51h0l.7-1.18a24.67,24.67,0,0,0,1.6-2.66l.24-.4h0l.08-.21a26.4,26.4,0,0,0,2.46-7.94l.28-1.17h0l-.06-1a26.41,26.41,0,0,0-.06-4.26l-.16.21v0h0L781.64,549.51h0l-36.42-11.29-9.88-3.39h0l-5.65-1.69h0L729,533l1-.12a48.14,48.14,0,0,0-39.87,4.95l.71-.09-.94.51-18.35,11.29Z"/><polygon points="390.28 1179.47 390.28 1179.47 390.28 1179.47 419.08 1179.47 419.08 829.34 419.08 829.34 419.08 829.34 409.48 829.34 390.28 829.34 390.28 1179.47"/><path d="M833.15,1132l-.12.08h0l-65.51-118h0l-20-35.86h0l-3.39-11L707.66,851.64h0L681.4,768.91l-.28-5.36h0l-4.8-55.06h0L662.48,551.77l-.22-2.23-.06-.59h0l-.22-.11,0,0h.36a89,89,0,0,0-45-11.13l-.78,0-.66.07q-4.44.16-8.85.77h-.14a89.17,89.17,0,0,0-35.48,13h.34l-.39.22L430.66,708.49h0l-51.73,57.63-.19-.17a38.93,38.93,0,0,0-7.51,16.54l-.15.54-.07.77a37.78,37.78,0,0,0-.47,5.2l0,.24h0v.22a41.3,41.3,0,0,0,.21,4.45l.07,1.54h0l.47,2.08c.14.72.3,1.44.49,2.15l.45,2h0l.19.48.55,1.37q.38,1,.81,2l.7,1.75h0l3.11,5.38h0l2.1,2.55,1.85,2.24h0l.42.42.71.72h0l1.85,1.56,1.81,1.53h0l.85.57h0l4.24,2.54.84.57h0l4.8,2h.86l5.36,1.41h.56L406,829l3.47.35,3.77-.36,2.16-.2h.28l5.64-1.41h.29l5.08-2h0l.85-.56h0l4.24-2.54h0l.84-.57h0l2.51-2,1.44-1.12h0l.85-1.14h0l2.82-3.21,1.41-1.58h0l3.11-3.71,1.4-1.67h0l2.13-2.36,2.95-3.28h0l3.78-4.38,1.59-1.84h0l3.82-4.43,1.54-1.77h0l4.77-5.54.59-.68,5.36-5.93h0l5.08-5.65h0l1.59-1.78,2.94-3.3h0l50.54-57.88h0l8.19,55.06h0l-1.13,5.37h0l-16.37,82.72h0L500.4,967.13,464,1148.69h0l.56,7.07h0l1.7,6.48h0l2.54,6.5h0l3.39,6.21h0l1.9,2.26,2.62,3.11h0l2.76,2.6,2.32,2.2h0l.76.49,4.88,3.18h0l2.35,1.12c.72.37,1.45.72,2.2,1l1.94.93h0l.44.14,1.37.42c1,.36,2.1.68,3.18,1l1.5.46h0l1.79.3c.69.13,1.38.24,2.09.34l2.87.48h7.06l1.35-.22a46.44,46.44,0,0,0,12.16-2.88h.07a46.39,46.39,0,0,0,11.08-6.13l1-.63,1.23-1.16a47.22,47.22,0,0,0,3.71-3.5l.14-.14h0l.12-.15a46.63,46.63,0,0,0,11.93-24.06l.09-.36h0l0-.42a47,47,0,0,0,.53-6.65l28.52-181.55h0l18.07-115.49h0l45.18,115.49,4.24,11h0L667.84,1014h0l63.82,118h0l3.67,6.77h0l3.95,7.06h0l3.67,7.05h0l3.95,7.07h0l3.67,6.78h0l3.39,6.48h0l3.11,5.93h0l1.41,2.54h0l2.83,2.54h0l2.54,2.26h0l1.34.85q1.62,1.18,3.33,2.22l1.26.89h0l3.37,1.69h0l2.83,1.13h0l1,.28a45.29,45.29,0,0,0,5.47,1.53l.59.16h0l.67.08a44.68,44.68,0,0,0,6,.7l.4.07.41,0a47.69,47.69,0,0,0,6.43-.26h.22l.33-.07a45,45,0,0,0,12.33-3.33l.89-.27h0l.93-.56a44.25,44.25,0,0,0,5.41-3.09,45.91,45.91,0,0,0,5.12-4l.4-.29h0l.39-.44a45.09,45.09,0,0,0,3.8-4l.61-.61h0l.65-1a45,45,0,0,0,3.07-4.61l.24-.36h0l.11-.26A45.28,45.28,0,0,0,833.15,1132Z"/><path d="M1196.49,799.71l.22-.58h0l.14-.86a29.22,29.22,0,0,0,.58-3.65l.13-.86h0V716.67h0V691.83h0L1175,670.08l-115.2-112.94h0l-2.82-2.83h0l-.22-.12.52,0a56.31,56.31,0,0,0-67.74,2.72h0l-.36.25h0L889.78,670.08l-19.2,21.75h0l-55.91,63.53h0l-.88,1.29c-.52.69-1,1.4-1.47,2.12l-.75,1.1h0L809,765h0l-.63,2.56-.78,3.09-.56,5.64h0l.56,5.64h0l.37,1.45,1,4.2h0l2.26,5.08h0l3.39,4.8h0l2,2,2,2h0l2.19,1.55,2.6,1.84h0l5.08,2.26h.28l5.08,1.7h.3L839,809h1.69l4.79-.28h0l3.18-1,2.19-.69h.28l5.08-2.26h0l2.54-3.39h0l2.44-2.84,1-1.11h0l1-1.22,2.94-3.58h0l4.23-5.08h0l.13-.16,4.67-5.49h0l3.06-3.83,1.46-1.81h0l1.25-1.48,3.55-4.16,2.57-3.22,2-2.43h0l4.24-5.09h0l4-4.51h0l52.52-63.53h0l-35,275.3h35.58l-41.79,195.4h0l.25,1.18,1.15,5.31h0l.79,1.59q.39,1,.84,2.07l.91,2.27.29.44.52.77c.37.67.76,1.32,1.16,2l1.41,2.48h0l1.29,1.3c.42.51.86,1,1.31,1.51l1.92,2.27h0l.08.07,1.32,1.06h0l.67.57,3,2.54h0l1.69.84h0L931,1193h0l2,.84h0l1.55.52,2.68.89,2.54.57h0l3.94.84h7.63l2.3-.34,3.35-.5h0l1-.42c1.18-.3,2.35-.66,3.5-1.07l.38-.11,1.29-.38h0l.87-.52a39.34,39.34,0,0,0,4.43-2.27l.64-.32h0l1-.6.42-.24h0l2.59-2,1.36-1.07h0l1-1a39.92,39.92,0,0,0,10.1-15.28h0l.12-.78.13-.75h0l.16-.93,1-5.56h0l37-195.4h33l52.52,186.93h0l1.69,6.21h0l1.69,6.21h0l0,.16,1.65,6.06h0l.28.84h0l1.31,2.47q.61,1.27,1.32,2.49l.2.4h0l.25.37a33.37,33.37,0,0,0,2.07,3l.78,1.14h0l.57.57h0l.36.36a37.32,37.32,0,0,0,3,3l.64.64h0l.55.56h0l1.13.71a38,38,0,0,0,3.7,2.43l.25.25h0l1.17.52a36.91,36.91,0,0,0,3.75,1.67l.16.07h0l.56.28h0l1.26.34c1.06.33,2.13.61,3.22.84l.88.24h.3a35.92,35.92,0,0,0,6.4.56h.16a35.73,35.73,0,0,0,9.48-1.33c1-.26,1.88-.57,2.79-.91l.07,0,.06,0A36,36,0,0,0,1184,1154l-.26.07v0h0l-57.88-186.93h39.81l-70-275.3h0L1090,670.08l23.43,21.75h0l26.26,24.84v77.09h0l.13.81a29.16,29.16,0,0,0,.6,3.76l.12.79h0l.37,1.1c.18.59.37,1.16.58,1.73l.75,2.25h0v0L1145,809h0l3.67,4.23h0l4.23,3.39h0l3.69,1.74,1.1.52h0l5.37,1.69,5.37.57,4.15-.42,1.49-.14h0l2.74-.92c.56-.17,1.12-.35,1.67-.55l.67-.23h0l.39-.18c.89-.37,1.75-.78,2.59-1.22l1.82-.86h0l4.51-3.39,3.67-4.23h0l.58-1.09.14-.27A28.94,28.94,0,0,0,1196.49,799.71Z"/><path d="M614.14,518.2l.05,0h0l.15-.08c1.25-.7,2.48-1.44,3.68-2.21l3.23-1.94h0l6.2-5.36h0l.8-.89A65.47,65.47,0,0,0,648,464.3H516.88c0,.08,0,.15,0,.22h-.11l.24,1.75a65.45,65.45,0,0,0,4.58,19.14l1.11,3.11h0l3.95,7.05h0l4.8,6.78,1.3,1.43,4.34,4.79h0l6.49,5.36h0l3.28,2c1.16.75,2.34,1.46,3.55,2.13l.22.13h0l.13.07q2.25,1.23,4.6,2.3l2.61,1.3h0l7.9,2.54h0l8.19,1.7,1.89.06,2.39.09c1.11.07,2.24.11,3.36.12l.55,0,.41,0c1.34,0,2.67-.05,4-.13l2.06-.07,2-.07,7.9-1.7h0l.93-.29c2-.54,3.91-1.16,5.81-1.87l1.17-.38h0l1-.47A66.41,66.41,0,0,0,614.14,518.2Z"/></g></g></svg>