<svg viewBox="0 0 1566.8 1589.6" xmlns="http://www.w3.org/2000/svg"><defs><style>.cls-1{fill:#00408c;fill-rule:evenodd;}.cls-2{fill:#fff;}</style></defs><g data-name="Layer 2"><g data-name="Layer 1"><g data-name="Layer 2"><g data-name="Layer 1-2"><g data-name="Layer 1-2-2"><path class="cls-1" d="M102.25,0h1362.3a102.06,102.06,0,0,1,102.26,101.81V1487.32A102.25,102.25,0,0,1,1465,1589.57H102.25A102,102,0,0,1,0,1487.8V102.25A102,102,0,0,1,101.77,0h.48Z"/><path class="cls-2" d="M92.71,1559.44a71.33,71.33,0,0,1-61.35-61.93c-.68-6.71-.68-1396.62.07-1403.34A70.59,70.59,0,0,1,47.72,57,72.55,72.55,0,0,1,87.83,32.82c4.09-1,30.92-1,694-1.19,490.53,0,688.29,0,692.11.41a71.06,71.06,0,0,1,62.68,62.13c.82,6.82.82,1396.63,0,1403.34a71.21,71.21,0,0,1-62.1,62.07c-6.1.75-1376,.68-1381.87,0Zm1384.69-24.06a49.18,49.18,0,0,0,35.11-35.41l1.3-5.12V96.63l-1.3-5.08A48.15,48.15,0,0,0,1477.3,56.2L1472,54.77H785.84c-651.92,0-689.48,0-693.64,1.06A47.43,47.43,0,0,0,68.34,68.92,48.65,48.65,0,0,0,55.28,92.23c-.92,3.61-1,44.55-1.12,699.3,0,460.65,0,697.33.34,701.07a45.05,45.05,0,0,0,4.84,17.52,48,48,0,0,0,37.49,26.25c2,.24,313.06.37,691.23.34H1472.6Z"/></g><rect class="cls-2" x="255.83" y="267.22" width="1055.1" height="1055.1"/></g></g><path d="M478.1,458h170l-.09-.67a65.76,65.76,0,0,0-2.73-15.7h0a65.65,65.65,0,0,0-113.88-22.23l-.2.2h0l-.31.43c-1.26,1.6-2.46,3.27-3.58,5l-.35.5-.06.1-.5.74-.47.9a65.69,65.69,0,0,0-5.6,12.2l-.43,1H478.1v1.13h0v7.91h0V458Z"/><path d="m931.85 483.44 2.26 7.63 3.11 7.34 3.94 6.49 5.08 6.22 5.64 5.36 6.52 4.52 2 1 5.07 2.64 7.33 2.54 7.62 1.7 2.84 0.2 5.07 0.36v-0.28h0.14v-114.9h-0.17a57.22 57.22 0 0 0-29.72 8.38l-0.18 0.09-0.24 0.16a56 56 0 0 0-4.82 3.36l-1.42 1-1.6 1.52c-0.95 0.85-1.88 1.73-2.77 2.63l-1.28 1.22-1.17 1.43c-0.73 0.84-1.43 1.7-2.12 2.58l-1.79 2.2-2.19 3.52-1.81 3-3.11 7.34-2.26 7.63-0.85 7.63v7.9z"/><path d="m1127.8 529.47-0.14-0.51 0.42 0.36a151.2 151.2 0 0 0-84.81-102.26l-0.17-0.09-0.19-0.08a151.35 151.35 0 0 0-35.36-10.89l-0.32-0.08h-0.3q-5.29-0.92-10.7-1.45l-1.41-0.2v115.15h133z"/><path d="M671.51,549.51l15,173.94h0l.11,1,.45,4h0l.12,1.9.17,2.9.11.89.44,3.63h0l.1,1.54.18,2.7h0l.29,3.67h0l.28,2.82h0l.12,1,.16,1.3h0v1.41h0l1.41,14.12.29,2.54,14.11-2.54,72-14.12,2.95-.87,1.85-.54h0l4.51-2.25h0l3.67-2.82h0l1.66-1.81.33-.36,1.4-1.51h0l.7-1.18a24.67,24.67,0,0,0,1.6-2.66l.24-.4h0l.08-.21a26.4,26.4,0,0,0,2.46-7.94l.28-1.17h0l-.06-1a26.41,26.41,0,0,0-.06-4.26l-.16.21v0h0L781.64,549.51h0l-36.42-11.29-9.88-3.39h0l-5.65-1.69h0L729,533l1-.12a48.14,48.14,0,0,0-39.87,4.95l.71-.09-.94.51-18.35,11.29Z"/><polygon points="390.28 1179.5 390.28 1179.5 390.28 1179.5 419.08 1179.5 419.08 829.34 419.08 829.34 419.08 829.34 409.48 829.34 390.28 829.34"/><path d="m833.15 1132-0.12 0.08-65.51-118-20-35.86-3.39-11-36.47-115.58-26.26-82.73-0.28-5.36-4.8-55.06-13.84-156.72-0.22-2.23-0.06-0.59-0.22-0.11h0.36a89 89 0 0 0-45-11.13h-0.78l-0.66 0.07q-4.44 0.16-8.85 0.77h-0.14a89.17 89.17 0 0 0-35.48 13h0.34l-0.39 0.22-140.72 156.72-51.73 57.63-0.19-0.17a38.93 38.93 0 0 0-7.51 16.54l-0.15 0.54-0.07 0.77a37.78 37.78 0 0 0-0.47 5.2v0.24 0.22a41.3 41.3 0 0 0 0.21 4.45l0.07 1.54 0.47 2.08c0.14 0.72 0.3 1.44 0.49 2.15l0.45 2 0.19 0.48 0.55 1.37q0.38 1 0.81 2l0.7 1.75 3.11 5.38 2.1 2.55 1.85 2.24 0.42 0.42 0.71 0.72 1.85 1.56 1.81 1.53 0.85 0.57 4.24 2.54 0.84 0.57 4.8 2h0.86l5.36 1.41h0.56l2.16 0.23 3.47 0.35 3.77-0.36 2.16-0.2h0.28l5.64-1.41h0.29l5.08-2 0.85-0.56 4.24-2.54 0.84-0.57 2.51-2 1.44-1.12 0.85-1.14 2.82-3.21 1.41-1.58 3.11-3.71 1.4-1.67 2.13-2.36 2.95-3.28 3.78-4.38 1.59-1.84 3.82-4.43 1.54-1.77 4.77-5.54 0.59-0.68 5.36-5.93 5.08-5.65 1.59-1.78 2.94-3.3 50.54-57.88 8.19 55.06-1.13 5.37-16.37 82.72-23.13 115.52-36.4 181.56 0.56 7.07 1.7 6.48 2.54 6.5 3.39 6.21 1.9 2.26 2.62 3.11 2.76 2.6 2.32 2.2 0.76 0.49 4.88 3.18 2.35 1.12c0.72 0.37 1.45 0.72 2.2 1l1.94 0.93 0.44 0.14 1.37 0.42c1 0.36 2.1 0.68 3.18 1l1.5 0.46 1.79 0.3c0.69 0.13 1.38 0.24 2.09 0.34l2.87 0.48h7.06l1.35-0.22a46.44 46.44 0 0 0 12.16-2.88h0.07a46.39 46.39 0 0 0 11.08-6.13l1-0.63 1.23-1.16a47.22 47.22 0 0 0 3.71-3.5l0.14-0.14 0.12-0.15a46.63 46.63 0 0 0 11.93-24.06l0.09-0.36v-0.42a47 47 0 0 0 0.53-6.65l28.52-181.55 18.07-115.49 45.18 115.49 4.24 11 14.2 35.87 63.82 118 3.67 6.77 3.95 7.06 3.67 7.05 3.95 7.07 3.67 6.78 3.39 6.48 3.11 5.93 1.41 2.54 2.83 2.54 2.54 2.26 1.34 0.85q1.62 1.18 3.33 2.22l1.26 0.89 3.37 1.69 2.83 1.13 1 0.28a45.29 45.29 0 0 0 5.47 1.53l0.59 0.16 0.67 0.08a44.68 44.68 0 0 0 6 0.7l0.4 0.07h0.41a47.69 47.69 0 0 0 6.43-0.26h0.22l0.33-0.07a45 45 0 0 0 12.33-3.33l0.89-0.27 0.93-0.56a44.25 44.25 0 0 0 5.41-3.09 45.91 45.91 0 0 0 5.12-4l0.4-0.29 0.39-0.44a45.09 45.09 0 0 0 3.8-4l0.61-0.61 0.65-1a45 45 0 0 0 3.07-4.61l0.24-0.36 0.11-0.26a45.28 45.28 0 0 0 1.7-40.93z"/><path d="m1196.5 799.71 0.22-0.58 0.14-0.86a29.22 29.22 0 0 0 0.58-3.65l0.13-0.86v-101.93l-22.56-21.75-115.2-112.94-2.82-2.83-0.22-0.12h0.52a56.31 56.31 0 0 0-67.74 2.72l-0.36 0.25-99.4 112.92-19.2 21.75-55.91 63.53-0.88 1.29c-0.52 0.69-1 1.4-1.47 2.12l-0.75 1.1-2.57 5.13-0.63 2.56-0.78 3.09-0.56 5.64 0.56 5.64 0.37 1.45 1 4.2 2.26 5.08 3.39 4.8 4 4 2.19 1.55 2.6 1.84 5.08 2.26h0.28l5.08 1.7h0.3l4.86 0.19h1.69l4.79-0.28 3.18-1 2.19-0.69h0.28l5.08-2.26 2.54-3.39 2.44-2.84 1-1.11 1-1.22 2.94-3.58 4.23-5.08 0.13-0.16 4.67-5.49 3.06-3.83 1.46-1.81 1.25-1.48 3.55-4.16 2.57-3.22 2-2.43 4.24-5.09 4-4.51 52.52-63.53-35 275.3h35.58l-41.79 195.4 0.25 1.18 1.15 5.31 0.79 1.59q0.39 1 0.84 2.07l0.91 2.27 0.29 0.44 0.52 0.77c0.37 0.67 0.76 1.32 1.16 2l1.41 2.48 1.29 1.3c0.42 0.51 0.86 1 1.31 1.51l1.92 2.27 0.08 0.07 1.32 1.06 0.67 0.57 3 2.54 1.69 0.84 3.8 2.19 2 0.84 1.55 0.52 2.68 0.89 2.54 0.57 3.94 0.84h7.63l2.3-0.34 3.35-0.5 1-0.42c1.18-0.3 2.35-0.66 3.5-1.07l0.38-0.11 1.29-0.38 0.87-0.52a39.34 39.34 0 0 0 4.43-2.27l0.64-0.32 1-0.6 0.42-0.24 2.59-2 1.36-1.07 1-1a39.92 39.92 0 0 0 10.1-15.28l0.12-0.78 0.13-0.75 0.16-0.93 1-5.56 37-195.4h33l52.52 186.93 3.38 12.42v0.16l1.65 6.06 0.28 0.84 1.31 2.47q0.61 1.27 1.32 2.49l0.2 0.4 0.25 0.37a33.37 33.37 0 0 0 2.07 3l0.78 1.14 0.93 0.93a37.32 37.32 0 0 0 3 3l0.64 0.64 0.55 0.56 1.13 0.71a38 38 0 0 0 3.7 2.43l0.25 0.25 1.17 0.52a36.91 36.91 0 0 0 3.75 1.67l0.16 0.07 0.56 0.28 1.26 0.34c1.06 0.33 2.13 0.61 3.22 0.84l0.88 0.24h0.3a35.92 35.92 0 0 0 6.4 0.56h0.16a35.73 35.73 0 0 0 9.48-1.33c1-0.26 1.88-0.57 2.79-0.91h0.07 0.06a36 36 0 0 0 22.8-40.2l-0.26 0.07-57.88-186.93h39.81l-70-275.3-5.67-21.76 23.43 21.75 26.26 24.84v77.09l0.13 0.81a29.16 29.16 0 0 0 0.6 3.76l0.12 0.79 0.37 1.1c0.18 0.59 0.37 1.16 0.58 1.73l0.75 2.25 2.76 4.8 3.67 4.23 4.23 3.39 3.69 1.74 1.1 0.52 5.37 1.69 5.37 0.57 4.15-0.42 1.49-0.14 2.74-0.92c0.56-0.17 1.12-0.35 1.67-0.55l0.67-0.23 0.39-0.18c0.89-0.37 1.75-0.78 2.59-1.22l1.82-0.86 4.51-3.39 3.67-4.23 0.58-1.09 0.14-0.27a28.94 28.94 0 0 0 3.64-7.93z"/><path d="m614.14 518.2h0.05l0.15-0.08c1.25-0.7 2.48-1.44 3.68-2.21l3.23-1.94 6.2-5.36 0.8-0.89a65.47 65.47 0 0 0 19.75-43.42h-131.12v0.22h-0.11l0.24 1.75a65.45 65.45 0 0 0 4.58 19.14l1.11 3.11 3.95 7.05 4.8 6.78 1.3 1.43 4.34 4.79 6.49 5.36 3.28 2c1.16 0.75 2.34 1.46 3.55 2.13l0.22 0.13 0.13 0.07q2.25 1.23 4.6 2.3l2.61 1.3 7.9 2.54 8.19 1.7 1.89 0.06 2.39 0.09c1.11 0.07 2.24 0.11 3.36 0.12h0.55 0.41c1.34 0 2.67-0.05 4-0.13l2.06-0.07 2-0.07 7.9-1.7 0.93-0.29c2-0.54 3.91-1.16 5.81-1.87l1.17-0.38 1-0.47a66.41 66.41 0 0 0 6.61-3.19z"/></g></g></svg>