<svg xmlns="http://www.w3.org/2000/svg" viewBox="0 0 700.267 700.283">
  <defs>
    <style>
      .cls-1 {
        fill: #fff;
      }

      .cls-2 {
        fill: #ff0;
      }
    </style>
  </defs>
  <g id="Layer_2" data-name="Layer 2">
    <g id="Layer_1-2" data-name="Layer 1">
      <g>
        <g>
          <path class="cls-1" d="M350.134,691.783a8.553,8.553,0,0,1-6.03-2.5L10.989,356.172a8.548,8.548,0,0,1,0-12.06L344.1,11a8.527,8.527,0,0,1,12.06,0L689.278,344.112a8.546,8.546,0,0,1,0,12.06L356.164,689.286A8.555,8.555,0,0,1,350.134,691.783Z"/>
          <path d="M350.134,17a.027.027,0,0,1,.019.008L683.267,350.122a.027.027,0,0,1,0,.039L350.153,683.275a.027.027,0,0,1-.019.008.032.032,0,0,1-.02-.008L17,350.161a.027.027,0,0,1,0-.039L350.114,17.008a.032.032,0,0,1,.02-.008m0-17a17.05,17.05,0,0,0-12.04,4.987L4.979,338.1a17.048,17.048,0,0,0,0,24.081L338.094,695.3a17.027,17.027,0,0,0,24.08,0L695.288,362.182a17.047,17.047,0,0,0,0-24.081L362.174,4.987A17.054,17.054,0,0,0,350.134,0Z"/>
        </g>
        <rect class="cls-2" x="181.866" y="181.874" width="336.535" height="336.535" transform="translate(-145.036 350.136) rotate(-45)"/>
      </g>
    </g>
  </g>
</svg>
