<svg xmlns="http://www.w3.org/2000/svg" viewBox="0 0 700.267 700.283">
  <defs>
    <style>
      .cls-1 {
        fill: #fff;
      }

      .cls-2 {
        fill: #ff0;
      }
    </style>
  </defs>
  <g id="Layer_2" data-name="Layer 2">
    <g id="Layer_1-2" data-name="Layer 1">
      <g>
        <rect class="cls-1" x="114.559" y="114.567" width="471.149" height="471.149" rx="0.028" transform="translate(-145.036 350.136) rotate(-45)"/>
        <rect class="cls-2" x="181.866" y="181.874" width="336.535" height="336.535" transform="translate(-145.036 350.136) rotate(-45)"/>
        <rect x="113.874" y="300.745" width="473.505" height="100.071" transform="translate(-145.343 350.671) rotate(-45)"/>
        <path d="M350.133,17a.028.028,0,0,1,.02.008L683.267,350.122a.027.027,0,0,1,0,.039L350.153,683.275a.028.028,0,0,1-.02.008.027.027,0,0,1-.019-.008L17,350.161a.027.027,0,0,1,0-.039L350.114,17.008a.027.027,0,0,1,.019-.008m0-17a17.054,17.054,0,0,0-12.04,4.987L4.979,338.1a17.047,17.047,0,0,0,0,24.081L338.093,695.3a17.029,17.029,0,0,0,24.081,0L695.288,362.182a17.047,17.047,0,0,0,0-24.081L362.174,4.987A17.054,17.054,0,0,0,350.133,0Z"/>
      </g>
    </g>
  </g>
</svg>
