<svg viewBox="0 0 700.27 700.28" xmlns="http://www.w3.org/2000/svg"><defs><style>.cls-1 {        fill: #fff;      }      .cls-2 {        fill: #ff0;      }</style></defs><g data-name="Layer 2"><g data-name="Layer 1"><rect class="cls-1" transform="translate(-145.04 350.14) rotate(-45)" x="114.56" y="114.57" width="471.15" height="471.15" rx=".028"/><rect class="cls-2" transform="translate(-145.04 350.14) rotate(-45)" x="181.87" y="181.87" width="336.54" height="336.54"/><rect transform="translate(-145.34 350.67) rotate(-45)" x="113.87" y="300.74" width="473.5" height="100.07"/><path d="M350.133,17a.028.028,0,0,1,.02.008L683.267,350.122a.027.027,0,0,1,0,.039L350.153,683.275a.028.028,0,0,1-.02.008.027.027,0,0,1-.019-.008L17,350.161a.027.027,0,0,1,0-.039L350.114,17.008a.027.027,0,0,1,.019-.008m0-17a17.054,17.054,0,0,0-12.04,4.987L4.979,338.1a17.047,17.047,0,0,0,0,24.081L338.093,695.3a17.029,17.029,0,0,0,24.081,0L695.288,362.182a17.047,17.047,0,0,0,0-24.081L362.174,4.987A17.054,17.054,0,0,0,350.133,0Z"/></g></g></svg>