<svg enable-background="new 0 0 300 451.4" version="1.1" viewBox="0 0 300 451.4" xmlns="http://www.w3.org/2000/svg"><style type="text/css">.st0{fill-rule:evenodd;clip-rule:evenodd;fill:#00408C;}.st1{fill-rule:evenodd;clip-rule:evenodd;fill:#FFFFFF;}.st2{fill:#FFFFFF;}.st3{fill:#EF131E;}.st4{fill:#00408C;}</style><path class="st0" d="m17.7 0h264.7c9.7 0 17.6 7.9 17.7 17.6v0.1 416.1c0 9.7-7.8 17.6-17.6 17.7h-0.1-264.7c-9.7 0-17.6-7.9-17.7-17.6v-0.1-416.1c0-9.8 7.9-17.7 17.7-17.7-0.1 0-0.1 0 0 0z"/><path class="st1" d="m18.8 5.1c-7.7 0.1-13.8 6.2-13.8 13.8v413.3c0 7.6 6.2 13.8 13.8 13.8h262.3c7.6 0 13.8-6.2 13.8-13.8v-413.3c0-7.6-6.2-13.8-13.8-13.8h-262.3zm0 5h262.3c4.8 0 8.8 3.9 8.9 8.7v0.1 413.3c0 4.8-3.9 8.8-8.7 8.9h-0.1-262.4c-4.8 0-8.8-3.9-8.9-8.7v-0.1-413.4c0-4.8 3.9-8.8 8.7-8.9 0.1 0.1 0.1 0.1 0.2 0.1z"/><path class="st1" d="m30 356.2h5.9c0.8 2.4 1.8 4.8 2.9 7.1 1.5 2.4 3.1 4.7 4.9 6.9l-4.3 4.6s-1.2-1.5-2.7-0.7c-0.9 0.4-1.4 1.3-1.4 2.2 0.2 1.1 0.5 2.1 1 3.1 1.5 2.4 6.1 5.7 6.1 5.7s5.2 4.9 7.4 7.7c2.7 3.3 7.1 10.5 7.1 10.5 0.9 1 2 1.7 3.3 2.1 0.9 0.2 1.8 0.3 2.7 0.1 0.7-0.2 1.4-0.4 2-0.8 0 0 0.1-1.1 0.2-1.9v-1.7c-0.1-0.2 0-0.5 0.2-0.6l3.1-3s5.9 2.3 8.6 3.8c2.3 1.3 6.4 4.4 6.4 4.4l-1.1 6.8h-2.3v1c0.8 0.6 1.4 1.3 2 2.1 0.7 1.1 1.3 2.3 1.7 3.5 0.3 1.3 0.3 2.6 0.1 3.9-0.1 0.7-0.3 1.4-0.5 2.1-0.4 1-0.9 1.9-1.5 2.8-0.6 0.8-1.4 1.5-2.3 2.1-1.6 0.8-3.3 1.2-5 1.4-0.9 0.1-1.9 0-2.8-0.1-0.6-0.1-1.2-0.3-1.7-0.4-1.9-0.8-3.7-1.7-5.4-2.7-0.6-0.3-1.3-0.6-2-0.9-2.4-0.8-4.9-1.4-7.4-1.8-3.8-0.5-7.7-0.6-11.6-0.3-3.2 0.4-6.4 1.1-9.4 2.2-2.3 0.9-4.5 1.9-6.6 3.2l-1.5-2.5c2-1.4 4.3-2.6 6.6-3.4 3.5-1.2 7.1-2 10.8-2.4 3.9-0.4 7.9-0.3 11.8 0.2 2.8 0.4 5.6 1.1 8.2 2 1 0.4 2 0.8 2.9 1.3 1.4 0.7 2.9 1.7 4.1 2.2 0.6 0.2 1.2 0.3 1.7 0.5 0.7 0.1 1.3 0.1 2 0.1 0.8-0.1 1.5-0.2 2.2-0.4 0.4-0.1 0.8-0.2 1.2-0.4 0.5-0.2 0.9-0.5 1.3-0.9 0.5-0.6 1-1.2 1.3-1.9 0.3-0.6 0.6-1.3 0.7-2 0.2-1.1 0.1-2.3-0.2-3.5-0.4-1-0.9-1.9-1.6-2.7-0.5-0.6-1.1-1-1.8-1.3-1.7 0.5-3.5 0.8-5.3 1.1-1.9 0.1-3.7 0.1-5.6 0 0 0-15.6-2.6-28.8-17.4-3.6-4.1-6.5-8.7-8.7-13.7-1.6-3.5-2.8-7.1-3.6-10.9-0.5-1.5-0.8-3-0.9-4.5 0-1.3 0.2-2.6 0.5-3.8 0.4-1 0.8-2.1 1.3-3 0.8-1.8 3.9-4.2 3.9-4.2l-0.1-2.9z"/><path class="st1" d="M50,50.2h199.3v200.3H50V50.2z"/><path class="st1" d="M7.6,343h284.1v4.9H7.6V343z"/><path class="st2" d="m34.7 298.3v-23h6.7v23c0.1 3.1-0.8 6-2.6 8.5-3.3 4.7-9 7.1-14.7 6.2-3-0.5-5.8-1.9-7.9-4.1l4.7-4.8c1.2 1.2 2.7 2 4.3 2.2 1.5 0.2 3.1 0.1 4.5-0.5s2.7-1.6 3.6-2.8c0.9-1.4 1.4-3 1.4-4.7z"/><path class="st2" d="m66.1 298.4v-1.4c0-1-0.4-2-1-2.8s-1.6-1.4-2.6-1.5c-0.5-0.1-1-0.1-1.6-0.2-0.6 0-1.2-0.1-1.7-0.1-3 0-6 0.7-8.8 2l-2.1-5.6c3.4-1.6 7.1-2.3 10.9-2.3 0.7 0 1.4 0 2.2 0.1s1.5 0.1 2.1 0.2c4.9 0.9 8.5 5.2 8.6 10.2v15.4h-6v-0.8c-2.2 1-4.5 1.5-6.9 1.5-3.7 0-7.2-1.2-10.1-3.5-2.6-2-3-5.7-1-8.3 0.3-0.4 0.6-0.7 1-1 2.8-2.3 6.4-3.5 10.1-3.5 2.4 0 4.8 0.6 6.9 1.6zm-13.3 6.6c3.8 3 9 3 12.8 0-3.7-3-9-3-12.8 0z"/><path class="st2" d="m79 287.2h5.9v1.6c2-1.5 4.5-2.3 7-2.3 2.3-0.1 4.7 0.5 6.7 1.6 2.1 1.2 3.8 2.8 5.1 4.8 1.4 2.2 2.1 4.7 2 7.3v13h-5.9v-13c0-2-0.8-4-2.2-5.4-2.8-2.9-7.4-3-10.3-0.2l-0.2 0.2c-1.4 1.4-2.2 3.4-2.2 5.4v13h-5.9v-26z"/><path class="st2" d="m133 313.2v-2.3c-2.1 1.4-4.5 2.2-7 2.3-2.3 0-4.7-0.5-6.7-1.6-2.1-1.1-3.8-2.7-5.1-4.7-2.7-4.3-2.7-9.8 0-14.1 2.5-4 7-6.4 11.8-6.3 2.5 0 4.9 0.8 7 2.3v-13.4h5.9v37.8h-5.9zm-13-18.5c-2.5 3-2.5 7.3 0 10.2 3 3.1 8 3.1 11.1 0.1l0.1-0.1c2.5-3 2.5-7.3 0-10.2-1.4-1.6-3.4-2.5-5.5-2.3-2.3-0.2-4.3 0.7-5.7 2.3z"/><path class="st2" d="m165.4 298.4v-1.4c0-1-0.4-2-1-2.8s-1.6-1.4-2.6-1.5c-0.5-0.1-1-0.1-1.6-0.2-0.6 0-1.2-0.1-1.7-0.1-3 0-6 0.7-8.8 2l-2.1-5.6c3.4-1.6 7.1-2.3 10.9-2.3 0.7 0 1.4 0 2.2 0.1s1.5 0.1 2.1 0.2c4.9 0.9 8.5 5.2 8.6 10.2v15.4h-6v-0.8c-2.2 1-4.5 1.5-6.9 1.5-3.7 0-7.2-1.2-10.1-3.5-2.6-2-3-5.7-1-8.3 0.3-0.4 0.6-0.7 1-1 2.8-2.3 6.4-3.5 10.1-3.5 2.4 0 4.8 0.6 6.9 1.6zm-13.3 6.6c3.8 3 9.1 3 12.8 0-3.7-3-9-3-12.8 0z"/><path class="st2" d="m178.2 313.2v-26h5.9v0.9c2.1-1.2 4.5-1.7 6.8-1.5 2.4 0.2 4.7 1.1 6.5 2.6l-3.7 4.6c-0.9-0.7-2-1.2-3.1-1.3-2.2-0.2-4.3 0.8-5.5 2.7-0.7 1-1 2.1-1 3.3v14.9h-5.9z"/><path class="st2" d="m210.5 288.7c5.7-3.8 13.4-2.6 17.8 2.7 1.8-2.3 4.2-3.9 7.1-4.6 2.6-0.6 5.3-0.5 7.8 0.4s4.7 2.5 6.3 4.6c1.8 2.3 2.7 5.1 2.6 8v13.4h-5.9v-13.4c0-4.1-3.3-7.4-7.4-7.4-2 0-3.9 0.8-5.3 2.2s-2.2 3.3-2.1 5.2v13.4h-6v-13.4c0-4.1-3.3-7.4-7.4-7.4s-7.4 3.3-7.4 7.4v13.4h-5.9v-26h5.9v1.5z"/><path class="st2" d="m277.9 298.4v-1.4c0-2.1-1.5-4-3.6-4.4-0.5-0.1-1-0.1-1.6-0.2-0.6 0-1.2-0.1-1.7-0.1-3 0-6 0.7-8.8 2l-2.1-5.6c3.4-1.6 7.1-2.3 10.9-2.3 0.7 0 1.4 0 2.2 0.1s1.5 0.1 2.1 0.2c4.9 0.9 8.5 5.2 8.6 10.2v15.4h-6v-0.8c-2.2 1-4.5 1.5-6.9 1.5-3.7 0-7.2-1.2-10.1-3.5-2.6-2-3-5.7-1-8.3 0.3-0.4 0.6-0.7 1-1 2.8-2.3 6.4-3.5 10.1-3.5 2.4 0.1 4.8 0.7 6.9 1.7zm-13.3 6.6c3.8 3 9.1 3 12.8 0-3.7-3-9-3-12.8 0z"/><polygon class="st3" points="75.3 227.5 149.7 77.9 224.7 227"/><polygon class="st4" points="115.6 202 150.2 134.1 184.4 202"/><path class="st2" d="m145.7 418.5h-8.1v-34.6h-5.8v-7c3.4-0.7 5.8-2.3 7.3-4.7h6.6v46.3z"/><path class="st2" d="m184 418.5h-8.1v-34.6h-5.8v-7c3.4-0.7 5.8-2.3 7.3-4.7h6.6v46.3z"/><path class="st2" d="m243.6 418.5h-37.3c0.9-12.1 7.2-20.6 18.9-25.5 3-1.2 5.5-2.4 7.5-3.6 1.9-1.2 2.8-2.5 2.7-4.1 0-1.5-0.8-2.8-2.3-3.8s-3.9-1.6-7.1-1.6c-4.8 0.1-9.1 2.1-12.8 5.8l-6.7-5.4c5.6-5.7 12-8.6 19.3-8.7 5.4 0 9.8 1.3 13 4s4.8 5.9 4.8 9.7c0 3.3-0.9 5.9-2.6 7.8s-4.9 3.9-9.7 6c-7.6 3.6-12.1 7.4-13.6 11.2h25.9v8.2z"/></svg>