<?xml version="1.0" encoding="utf-8"?>
<!-- Generator: Adobe Illustrator 26.0.0, SVG Export Plug-In . SVG Version: 6.00 Build 0)  -->
<svg version="1.1" id="Layer_1" xmlns="http://www.w3.org/2000/svg" xmlns:xlink="http://www.w3.org/1999/xlink" x="0px" y="0px"
	 viewBox="0 0 300 451.4" style="enable-background:new 0 0 300 451.4;" xml:space="preserve">
<style type="text/css">
	.st0{fill-rule:evenodd;clip-rule:evenodd;fill:#00408C;}
	.st1{fill-rule:evenodd;clip-rule:evenodd;fill:#FFFFFF;}
	.st2{fill:#FFFFFF;}
	.st3{fill:#EF131E;}
	.st4{fill:#00408C;}
</style>
<g id="Layer_2_00000060737445306119034630000001867321010366898609_">
	<g id="Layer_1-2">
		<g>
			<g id="g895">
				<path id="rect90889" class="st0" d="M17.7,0h264.7c9.7,0,17.6,7.9,17.7,17.6c0,0,0,0.1,0,0.1v416.1c0,9.7-7.8,17.6-17.6,17.7
					c0,0-0.1,0-0.1,0H17.7c-9.7,0-17.6-7.9-17.7-17.6c0,0,0-0.1,0-0.1V17.7C0,7.9,7.9,0,17.7,0C17.6,0,17.6,0,17.7,0z"/>
				<path id="path90896" class="st1" d="M18.8,5.1C11.1,5.2,5,11.3,5,18.9v413.3c0,7.6,6.2,13.8,13.8,13.8h262.3
					c7.6,0,13.8-6.2,13.8-13.8V18.9c0-7.6-6.2-13.8-13.8-13.8H18.8z M18.8,10.1h262.3c4.8,0,8.8,3.9,8.9,8.7c0,0,0,0.1,0,0.1v413.3
					c0,4.8-3.9,8.8-8.7,8.9c0,0-0.1,0-0.1,0H18.8c-4.8,0-8.8-3.9-8.9-8.7c0,0,0-0.1,0-0.1V18.9c0-4.8,3.9-8.8,8.7-8.9
					C18.7,10.1,18.7,10.1,18.8,10.1z"/>
				<path id="rect92001" class="st1" d="M30,356.2h5.9c0.8,2.4,1.8,4.8,2.9,7.1c1.5,2.4,3.1,4.7,4.9,6.9l-4.3,4.6
					c0,0-1.2-1.5-2.7-0.7c-0.9,0.4-1.4,1.3-1.4,2.2c0.2,1.1,0.5,2.1,1,3.1c1.5,2.4,6.1,5.7,6.1,5.7s5.2,4.9,7.4,7.7
					c2.7,3.3,7.1,10.5,7.1,10.5c0.9,1,2,1.7,3.3,2.1c0.9,0.2,1.8,0.3,2.7,0.1c0.7-0.2,1.4-0.4,2-0.8c0,0,0.1-1.1,0.2-1.9
					c0-0.5,0-1.7,0-1.7c-0.1-0.2,0-0.5,0.2-0.6l3.1-3c0,0,5.9,2.3,8.6,3.8c2.3,1.3,6.4,4.4,6.4,4.4l-1.1,6.8H80v1
					c0.8,0.6,1.4,1.3,2,2.1c0.7,1.1,1.3,2.3,1.7,3.5c0.3,1.3,0.3,2.6,0.1,3.9c-0.1,0.7-0.3,1.4-0.5,2.1c-0.4,1-0.9,1.9-1.5,2.8
					c-0.6,0.8-1.4,1.5-2.3,2.1c-1.6,0.8-3.3,1.2-5,1.4c-0.9,0.1-1.9,0-2.8-0.1c-0.6-0.1-1.2-0.3-1.7-0.4c-1.9-0.8-3.7-1.7-5.4-2.7
					c-0.6-0.3-1.3-0.6-2-0.9c-2.4-0.8-4.9-1.4-7.4-1.8c-3.8-0.5-7.7-0.6-11.6-0.3c-3.2,0.4-6.4,1.1-9.4,2.2
					c-2.3,0.9-4.5,1.9-6.6,3.2l-1.5-2.5c2-1.4,4.3-2.6,6.6-3.4c3.5-1.2,7.1-2,10.8-2.4c3.9-0.4,7.9-0.3,11.8,0.2
					c2.8,0.4,5.6,1.1,8.2,2c1,0.4,2,0.8,2.9,1.3c1.4,0.7,2.9,1.7,4.1,2.2c0.6,0.2,1.2,0.3,1.7,0.5c0.7,0.1,1.3,0.1,2,0.1
					c0.8-0.1,1.5-0.2,2.2-0.4c0.4-0.1,0.8-0.2,1.2-0.4c0.5-0.2,0.9-0.5,1.3-0.9c0.5-0.6,1-1.2,1.3-1.9c0.3-0.6,0.6-1.3,0.7-2
					c0.2-1.1,0.1-2.3-0.2-3.5c-0.4-1-0.9-1.9-1.6-2.7c-0.5-0.6-1.1-1-1.8-1.3c-1.7,0.5-3.5,0.8-5.3,1.1c-1.9,0.1-3.7,0.1-5.6,0
					c0,0-15.6-2.6-28.8-17.4c-3.6-4.1-6.5-8.7-8.7-13.7c-1.6-3.5-2.8-7.1-3.6-10.9c-0.5-1.5-0.8-3-0.9-4.5c0-1.3,0.2-2.6,0.5-3.8
					c0.4-1,0.8-2.1,1.3-3c0.8-1.8,3.9-4.2,3.9-4.2L30,356.2z"/>
				<path id="rect92004" class="st1" d="M50,50.2h199.3v200.3H50V50.2z"/>
				<path id="rect92007" class="st1" d="M7.6,343h284.1v4.9H7.6V343z"/>
			</g>
			<g>
				<path class="st2" d="M34.7,298.3v-23h6.7v23c0.1,3.1-0.8,6-2.6,8.5c-3.3,4.7-9,7.1-14.7,6.2c-3-0.5-5.8-1.9-7.9-4.1l4.7-4.8
					c1.2,1.2,2.7,2,4.3,2.2c1.5,0.2,3.1,0.1,4.5-0.5c1.4-0.6,2.7-1.6,3.6-2.8C34.2,301.6,34.7,300,34.7,298.3z"/>
				<path class="st2" d="M66.1,298.4V297c0-1-0.4-2-1-2.8c-0.6-0.8-1.6-1.4-2.6-1.5c-0.5-0.1-1-0.1-1.6-0.2c-0.6,0-1.2-0.1-1.7-0.1
					c-3,0-6,0.7-8.8,2l-2.1-5.6c3.4-1.6,7.1-2.3,10.9-2.3c0.7,0,1.4,0,2.2,0.1s1.5,0.1,2.1,0.2c4.9,0.9,8.5,5.2,8.6,10.2v15.4h-6
					v-0.8c-2.2,1-4.5,1.5-6.9,1.5c-3.7,0-7.2-1.2-10.1-3.5c-2.6-2-3-5.7-1-8.3c0.3-0.4,0.6-0.7,1-1c2.8-2.3,6.4-3.5,10.1-3.5
					C61.6,296.8,64,297.4,66.1,298.4z M52.8,305c3.8,3,9,3,12.8,0C61.9,302,56.6,302,52.8,305z"/>
				<path class="st2" d="M79,287.2h5.9v1.6c2-1.5,4.5-2.3,7-2.3c2.3-0.1,4.7,0.5,6.7,1.6c2.1,1.2,3.8,2.8,5.1,4.8
					c1.4,2.2,2.1,4.7,2,7.3v13h-5.9v-13c0-2-0.8-4-2.2-5.4c-2.8-2.9-7.4-3-10.3-0.2c-0.1,0.1-0.1,0.1-0.2,0.2
					c-1.4,1.4-2.2,3.4-2.2,5.4v13H79V287.2z"/>
				<path class="st2" d="M133,313.2v-2.3c-2.1,1.4-4.5,2.2-7,2.3c-2.3,0-4.7-0.5-6.7-1.6c-2.1-1.1-3.8-2.7-5.1-4.7
					c-2.7-4.3-2.7-9.8,0-14.1c2.5-4,7-6.4,11.8-6.3c2.5,0,4.9,0.8,7,2.3v-13.4h5.9v37.8H133z M120,294.7c-2.5,3-2.5,7.3,0,10.2
					c3,3.1,8,3.1,11.1,0.1c0,0,0,0,0.1-0.1c2.5-3,2.5-7.3,0-10.2c-1.4-1.6-3.4-2.5-5.5-2.3h0C123.4,292.2,121.4,293.1,120,294.7z"/>
				<path class="st2" d="M165.4,298.4V297c0-1-0.4-2-1-2.8c-0.6-0.8-1.6-1.4-2.6-1.5c-0.5-0.1-1-0.1-1.6-0.2c-0.6,0-1.2-0.1-1.7-0.1
					c-3,0-6,0.7-8.8,2l-2.1-5.6c3.4-1.6,7.1-2.3,10.9-2.3c0.7,0,1.4,0,2.2,0.1s1.5,0.1,2.1,0.2c4.9,0.9,8.5,5.2,8.6,10.2v15.4h-6
					v-0.8c-2.2,1-4.5,1.5-6.9,1.5c-3.7,0-7.2-1.2-10.1-3.5c-2.6-2-3-5.7-1-8.3c0.3-0.4,0.6-0.7,1-1c2.8-2.3,6.4-3.5,10.1-3.5
					C160.9,296.8,163.3,297.4,165.4,298.4z M152.1,305c3.8,3,9.1,3,12.8,0C161.2,302,155.9,302,152.1,305z"/>
				<path class="st2" d="M178.2,313.2v-26h5.9v0.9c2.1-1.2,4.5-1.7,6.8-1.5c2.4,0.2,4.7,1.1,6.5,2.6l-3.7,4.6
					c-0.9-0.7-2-1.2-3.1-1.3c-2.2-0.2-4.3,0.8-5.5,2.7c-0.7,1-1,2.1-1,3.3v14.9H178.2z"/>
				<path class="st2" d="M210.5,288.7c5.7-3.8,13.4-2.6,17.8,2.7c1.8-2.3,4.2-3.9,7.1-4.6c2.6-0.6,5.3-0.5,7.8,0.4
					c2.5,0.9,4.7,2.5,6.3,4.6c1.8,2.3,2.7,5.1,2.6,8v13.4h-5.9v-13.4c0-4.1-3.3-7.4-7.4-7.4c-2,0-3.9,0.8-5.3,2.2
					c-1.4,1.4-2.2,3.3-2.1,5.2v13.4h-6v-13.4c0-4.1-3.3-7.4-7.4-7.4c-4.1,0-7.4,3.3-7.4,7.4v13.4h-5.9v-26h5.9V288.7z"/>
				<path class="st2" d="M277.9,298.4V297c0-2.1-1.5-4-3.6-4.4c-0.5-0.1-1-0.1-1.6-0.2c-0.6,0-1.2-0.1-1.7-0.1c-3,0-6,0.7-8.8,2
					l-2.1-5.6c3.4-1.6,7.1-2.3,10.9-2.3c0.7,0,1.4,0,2.2,0.1s1.5,0.1,2.1,0.2c4.9,0.9,8.5,5.2,8.6,10.2v15.4h-6v-0.8
					c-2.2,1-4.5,1.5-6.9,1.5c-3.7,0-7.2-1.2-10.1-3.5c-2.6-2-3-5.7-1-8.3c0.3-0.4,0.6-0.7,1-1c2.8-2.3,6.4-3.5,10.1-3.5
					C273.4,296.8,275.8,297.4,277.9,298.4z M264.6,305c3.8,3,9.1,3,12.8,0C273.7,302,268.4,302,264.6,305z"/>
			</g>
			<g>
				<polygon class="st3" points="75.3,227.5 149.7,77.9 224.7,227 				"/>
				<polygon class="st4" points="115.6,202 150.2,134.1 184.4,202 				"/>
			</g>
		</g>
	</g>
	<g>
		<path class="st2" d="M145.7,418.5h-8.1v-34.6h-5.8v-7c3.4-0.7,5.8-2.3,7.3-4.7h6.6V418.5z"/>
		<path class="st2" d="M184,418.5h-8.1v-34.6h-5.8v-7c3.4-0.7,5.8-2.3,7.3-4.7h6.6V418.5z"/>
		<path class="st2" d="M243.6,418.5h-37.3c0.9-12.1,7.2-20.6,18.9-25.5c3-1.2,5.5-2.4,7.5-3.6c1.9-1.2,2.8-2.5,2.7-4.1
			c0-1.5-0.8-2.8-2.3-3.8c-1.5-1-3.9-1.6-7.1-1.6c-4.8,0.1-9.1,2.1-12.8,5.8l-6.7-5.4c5.6-5.7,12-8.6,19.3-8.7c5.4,0,9.8,1.3,13,4
			c3.2,2.7,4.8,5.9,4.8,9.7c0,3.3-0.9,5.9-2.6,7.8c-1.7,1.9-4.9,3.9-9.7,6c-7.6,3.6-12.1,7.4-13.6,11.2h25.9V418.5z"/>
	</g>
</g>
</svg>
