<svg enable-background="new 0 0 300 451.4" version="1.1" viewBox="0 0 300 451.4" xmlns="http://www.w3.org/2000/svg"><style type="text/css">.st0{fill-rule:evenodd;clip-rule:evenodd;fill:#00408C;}.st1{fill-rule:evenodd;clip-rule:evenodd;fill:#FFFFFF;}.st2{fill:#FFFFFF;}</style><path class="st0" d="m17.7 0h264.7c9.7 0 17.6 7.9 17.7 17.6v0.1 416.1c0 9.7-7.8 17.6-17.6 17.7h-0.1-264.7c-9.7 0-17.6-7.9-17.7-17.6v-0.1-416.1c0-9.8 7.9-17.7 17.7-17.7-0.1 0-0.1 0 0 0z"/><path class="st1" d="m18.8 5.1c-7.7 0.1-13.8 6.2-13.8 13.8v413.3c0 7.6 6.2 13.8 13.8 13.8h262.3c7.6 0 13.8-6.2 13.8-13.8v-413.3c0-7.6-6.2-13.8-13.8-13.8h-262.3zm0 5h262.3c4.8 0 8.8 3.9 8.9 8.7v0.1 413.3c0 4.8-3.9 8.8-8.7 8.9h-0.1-262.4c-4.8 0-8.8-3.9-8.9-8.7v-0.1-413.4c0-4.8 3.9-8.8 8.7-8.9 0.1 0.1 0.1 0.1 0.2 0.1z"/><path class="st1" d="m30 356.2h5.9c0.8 2.4 1.8 4.8 2.9 7.1 1.5 2.4 3.1 4.7 4.9 6.9l-4.3 4.6s-1.2-1.5-2.7-0.7c-0.9 0.4-1.4 1.3-1.4 2.2 0.2 1.1 0.5 2.1 1 3.1 1.5 2.4 6.1 5.7 6.1 5.7s5.2 4.9 7.4 7.7c2.7 3.3 7.1 10.5 7.1 10.5 0.9 1 2 1.7 3.3 2.1 0.9 0.2 1.8 0.3 2.7 0.1 0.7-0.2 1.4-0.4 2-0.8 0 0 0.1-1.1 0.2-1.9v-1.7c-0.1-0.2 0-0.5 0.2-0.6l3.1-3s5.9 2.3 8.6 3.8c2.3 1.3 6.4 4.4 6.4 4.4l-1.1 6.8h-2.3v1c0.8 0.6 1.4 1.3 2 2.1 0.7 1.1 1.3 2.3 1.7 3.5 0.3 1.3 0.3 2.6 0.1 3.9-0.1 0.7-0.3 1.4-0.5 2.1-0.4 1-0.9 1.9-1.5 2.8-0.6 0.8-1.4 1.5-2.3 2.1-1.6 0.8-3.3 1.2-5 1.4-0.9 0.1-1.9 0-2.8-0.1-0.6-0.1-1.2-0.3-1.7-0.4-1.9-0.8-3.7-1.7-5.4-2.7-0.6-0.3-1.3-0.6-2-0.9-2.4-0.8-4.9-1.4-7.4-1.8-3.8-0.5-7.7-0.6-11.6-0.3-3.2 0.4-6.4 1.1-9.4 2.2-2.3 0.9-4.5 1.9-6.6 3.2l-1.5-2.5c2-1.4 4.3-2.6 6.6-3.4 3.5-1.2 7.1-2 10.8-2.4 3.9-0.4 7.9-0.3 11.8 0.2 2.8 0.4 5.6 1.1 8.2 2 1 0.4 2 0.8 2.9 1.3 1.4 0.7 2.9 1.7 4.1 2.2 0.6 0.2 1.2 0.3 1.7 0.5 0.7 0.1 1.3 0.1 2 0.1 0.8-0.1 1.5-0.2 2.2-0.4 0.4-0.1 0.8-0.2 1.2-0.4 0.5-0.2 0.9-0.5 1.3-0.9 0.5-0.6 1-1.2 1.3-1.9 0.3-0.6 0.6-1.3 0.7-2 0.2-1.1 0.1-2.3-0.2-3.5-0.4-1-0.9-1.9-1.6-2.7-0.5-0.6-1.1-1-1.8-1.3-1.7 0.5-3.5 0.8-5.3 1.1-1.9 0.1-3.7 0.1-5.6 0 0 0-15.6-2.6-28.8-17.4-3.6-4.1-6.5-8.7-8.7-13.7-1.6-3.5-2.8-7.1-3.6-10.9-0.5-1.5-0.8-3-0.9-4.5 0-1.3 0.2-2.6 0.5-3.8 0.4-1 0.8-2.1 1.3-3 0.8-1.8 3.9-4.2 3.9-4.2l-0.1-2.9z"/><path class="st1" d="M50,50.2h199.3v200.3H50V50.2z"/><path class="st1" d="M7.6,343h284.1v4.9H7.6V343z"/><path class="st2" d="m217.1 229.8v-1.5-91-1.6c-0.2-2.3-1.9-4.3-4.1-4.9-2.2-0.7-4.6 0.1-5.9 2.1-0.7 0.9-1.3 1.9-2 2.9-16 22.9-32 45.9-48 68.8-0.2 0.3-0.3 0.6-0.5 0.9h45.9v9.6h-55.9v14.7h70.5zm-20.8-99h-1.7-36c-1.1-0.1-2.2 0.5-2.9 1.4-11.2 12.9-22.5 25.8-33.7 38.7-0.5 0.8-1.5 1.1-2.4 0.7-8.8-3.4-17.7-6.6-26.6-9.9-3.8-1.4-8.1 0.6-9.5 4.4-0.1 0.4-0.3 0.8-0.3 1.2-0.6 3.4-0.1 6.9 1.3 10.1 0.4 1 1.2 1.7 2.1 2.1 13.7 5.9 27.4 11.9 41.1 17.9 0.6 0.4 1.4 0.2 1.8-0.4 4-4.4 8.1-8.8 12.2-13.2 1.5-1.7 3.1-3.3 4.9-5.2v23.4h0.2l49.5-71.2zm4.9-31.1-41.6 4.8c0.3 5 2.4 9.6 5.9 13.2 8.3 8.5 22 8.7 30.5 0.4 1.6-1.6 2.9-3.4 4-5.3 0.6-0.8 0.9-1.8 1.1-2.8 0.1-3.4 0.1-6.8 0.1-10.3zm-46.5-32.4c2.2 7.2 4.2 14.2 6.3 21.2h40.5c0-1.5-0.1-3 0-4.4 0.1-0.9-0.3-1.3-1.1-1.6-9.9-3.2-19.7-6.5-29.5-9.8-5.3-1.7-10.6-3.5-16.2-5.4zm-1.6 32.4 48.3-3.7v-2.6h-1.5-37.7c-1.5-0.1-3.1 0.5-4.1 1.6-1.4 1.5-3.1 3-5 4.7z"/><path d="m217.1 229.8h-70.5v-14.7h55.9v-9.6h-45.9c0.1-0.3 0.3-0.6 0.5-0.9 16-22.9 32-45.9 48-68.8 0.7-1 1.3-1.9 2-2.9 1.3-1.9 3.7-2.8 5.9-2.1 2.3 0.6 3.9 2.6 4.1 4.9v1.6 91 1.5z"/><path d="m196.3 130.8-49.5 71h-0.2v-23.4c-1.8 1.9-3.3 3.6-4.9 5.2-4.1 4.4-8.1 8.8-12.2 13.2-0.4 0.6-1.2 0.8-1.8 0.4-13.7-6-27.4-12-41.1-17.9-1-0.4-1.7-1.1-2.1-2.1-1.5-3.1-1.9-6.7-1.3-10.1 0.7-4 4.6-6.7 8.6-6l1.2 0.3c8.9 3.3 17.7 6.6 26.6 9.9 0.8 0.5 1.9 0.2 2.4-0.7 11.2-12.9 22.5-25.8 33.7-38.7 0.7-0.9 1.8-1.4 2.9-1.4 12 0.1 24 0 36 0l1.7 0.3z"/><path d="m201.2 99.7c0 3.5 0.1 6.9-0.1 10.3-0.2 1-0.6 1.9-1.1 2.8-5.6 10.5-18.6 14.5-29.2 9-2-1-3.8-2.4-5.3-4-3.5-3.5-5.6-8.2-5.9-13.2l41.6-4.9z"/><path d="m154.7 67.3c5.6 1.9 10.9 3.6 16.2 5.4 9.8 3.3 19.7 6.5 29.5 9.8 0.9 0.3 1.2 0.7 1.1 1.6-0.1 1.4 0 2.9 0 4.4h-40.5c-2.1-6.9-4.2-13.9-6.3-21.2z"/><path d="m153.1 99.7c1.9-1.7 3.5-3.1 5-4.7 1-1.1 2.6-1.7 4.1-1.6 12.6 0.1 25.1 0 37.7 0h1.5v2.6l-48.3 3.7z"/><path class="st2" d="m166.3 412.8h-7.1v-30.1h-5v-6.1c2.9-0.6 5-2 6.4-4.1h5.8v40.3z"/><path class="st2" d="m188.3 412.8h-7.1v-30.1h-5v-6.1c2.9-0.6 5-2 6.4-4.1h5.8v40.3z"/><path class="st2" d="m228.9 412.8h-32.4c0.8-10.5 6.3-17.9 16.4-22.2 2.6-1.1 4.8-2.1 6.5-3.1s2.5-2.2 2.3-3.6c0-1.3-0.7-2.4-2-3.3s-3.4-1.4-6.2-1.4c-4.2 0.1-7.9 1.8-11.2 5l-5.8-4.7c4.8-5 10.4-7.5 16.8-7.6 4.7 0 8.5 1.2 11.3 3.5s4.2 5.2 4.2 8.4c0 2.8-0.8 5.1-2.3 6.8s-4.3 3.4-8.5 5.2c-6.6 3.2-10.5 6.4-11.8 9.8h22.6v7.2z"/><path class="st2" d="m97 302h-14.8v20.3h-9.2v-51.6h23.7c3.4 0 6.3 0.7 8.9 2.2 5.3 3.1 7.9 7.6 7.9 13.6 0 6.5-2.6 11.1-7.9 13.9-2.6 1-5.5 1.6-8.6 1.6zm7.2-15.6c0-2-0.7-3.6-2-4.8s-3.1-1.8-5.4-1.8h-14.6v12.9h14.6c2.3 0 4.1-0.6 5.4-1.7 1.3-1.2 2-2.7 2-4.6z"/><path class="st2" d="m154.4 303.4c0 5.4-1.6 10.1-4.8 13.9s-7.1 5.8-11.7 5.8-8.5-1.9-11.7-5.8-4.8-8.5-4.8-13.9c0-5.5 1.6-10.2 4.8-14 3.2-3.9 7.1-5.8 11.7-5.8s8.5 1.9 11.7 5.8 4.8 8.5 4.8 14zm-8.9 0c0-3.1-0.7-5.6-2.1-7.6s-3.2-3-5.4-3c-2.3 0-4.2 1-5.5 3-1.4 2-2.1 4.5-2.1 7.5s0.7 5.6 2.1 7.6 3.2 3 5.5 3c2.2 0 4-1 5.4-3 1.4-1.9 2.1-4.4 2.1-7.5z"/><path class="st2" d="m171 322.2h-9.2v-47.8l9.2-4.6v52.4z"/><path class="st2" d="m189.9 274.3c0 1.3-0.5 2.5-1.4 3.4s-2 1.4-3.2 1.4c-1.3 0-2.4-0.4-3.3-1.3s-1.3-2-1.3-3.5c0-1.2 0.4-2.3 1.3-3.2s2-1.3 3.3-1.3c1.2 0 2.3 0.4 3.2 1.3s1.4 1.9 1.4 3.2zm0 10.3v37.7h-9.2v-37.7h9.2z"/><path class="st2" d="m229 311.5c-0.1 3.4-1.5 6.1-4.3 8.3-2.8 2.1-6.5 3.2-11.1 3.3-6.1-0.1-11.7-1.6-16.8-4.5l4.2-8c4.4 2.5 8.5 3.8 12.4 3.8 2.5 0 4.2-0.3 5.2-0.9 0.9-0.6 1.4-1.5 1.4-2.5 0-1.1-0.5-2-1.4-2.5-0.9-0.6-2.8-1.1-5.6-1.6-5.6-1-9.5-2.5-11.4-4.5-2-2-2.9-4.2-2.9-6.5-0.1-3.3 1.2-6.1 3.8-8.4s6.2-3.5 10.6-3.5c5 0 9.9 1.4 14.5 4.1l-3.8 7.5c-3.2-1.8-6.7-2.8-10.5-3-2.3 0.1-3.8 0.3-4.5 0.8-0.8 0.5-1.2 1.1-1.2 2-0.1 0.8 0.3 1.4 1.1 1.8s2.3 0.8 4.6 1.1c5.3 0.7 9.3 2.1 11.8 4.3 2.6 2.1 3.9 5.1 3.9 8.9z"/></svg>