<?xml version="1.0" encoding="utf-8"?>
<!-- Generator: Adobe Illustrator 26.0.0, SVG Export Plug-In . SVG Version: 6.00 Build 0)  -->
<svg version="1.1" id="Layer_1" xmlns="http://www.w3.org/2000/svg" xmlns:xlink="http://www.w3.org/1999/xlink" x="0px" y="0px"
	 viewBox="0 0 300 451.4" style="enable-background:new 0 0 300 451.4;" xml:space="preserve">
<style type="text/css">
	.st0{fill-rule:evenodd;clip-rule:evenodd;fill:#00408C;}
	.st1{fill-rule:evenodd;clip-rule:evenodd;fill:#FFFFFF;}
	.st2{fill:#FFFFFF;}
</style>
<g id="Layer_2_00000085937455952226194560000015316204299569336733_">
	<g id="Layer_1-2">
		<g>
			<g id="g895">
				<path id="rect90889" class="st0" d="M17.7,0h264.7c9.7,0,17.6,7.9,17.7,17.6c0,0,0,0.1,0,0.1v416.1c0,9.7-7.8,17.6-17.6,17.7
					c0,0-0.1,0-0.1,0H17.7c-9.7,0-17.6-7.9-17.7-17.6c0,0,0-0.1,0-0.1V17.7C0,7.9,7.9,0,17.7,0C17.6,0,17.6,0,17.7,0z"/>
				<path id="path90896" class="st1" d="M18.8,5.1C11.1,5.2,5,11.3,5,18.9v413.3c0,7.6,6.2,13.8,13.8,13.8h262.3
					c7.6,0,13.8-6.2,13.8-13.8V18.9c0-7.6-6.2-13.8-13.8-13.8H18.8z M18.8,10.1h262.3c4.8,0,8.8,3.9,8.9,8.7c0,0,0,0.1,0,0.1v413.3
					c0,4.8-3.9,8.8-8.7,8.9c0,0-0.1,0-0.1,0H18.8c-4.8,0-8.8-3.9-8.9-8.7c0,0,0-0.1,0-0.1V18.9c0-4.8,3.9-8.8,8.7-8.9
					C18.7,10.1,18.7,10.1,18.8,10.1z"/>
				<path id="rect92001" class="st1" d="M30,356.2h5.9c0.8,2.4,1.8,4.8,2.9,7.1c1.5,2.4,3.1,4.7,4.9,6.9l-4.3,4.6
					c0,0-1.2-1.5-2.7-0.7c-0.9,0.4-1.4,1.3-1.4,2.2c0.2,1.1,0.5,2.1,1,3.1c1.5,2.4,6.1,5.7,6.1,5.7s5.2,4.9,7.4,7.7
					c2.7,3.3,7.1,10.5,7.1,10.5c0.9,1,2,1.7,3.3,2.1c0.9,0.2,1.8,0.3,2.7,0.1c0.7-0.2,1.4-0.4,2-0.8c0,0,0.1-1.1,0.2-1.9
					c0-0.5,0-1.7,0-1.7c-0.1-0.2,0-0.5,0.2-0.6l3.1-3c0,0,5.9,2.3,8.6,3.8c2.3,1.3,6.4,4.4,6.4,4.4l-1.1,6.8H80v1
					c0.8,0.6,1.4,1.3,2,2.1c0.7,1.1,1.3,2.3,1.7,3.5c0.3,1.3,0.3,2.6,0.1,3.9c-0.1,0.7-0.3,1.4-0.5,2.1c-0.4,1-0.9,1.9-1.5,2.8
					c-0.6,0.8-1.4,1.5-2.3,2.1c-1.6,0.8-3.3,1.2-5,1.4c-0.9,0.1-1.9,0-2.8-0.1c-0.6-0.1-1.2-0.3-1.7-0.4c-1.9-0.8-3.7-1.7-5.4-2.7
					c-0.6-0.3-1.3-0.6-2-0.9c-2.4-0.8-4.9-1.4-7.4-1.8c-3.8-0.5-7.7-0.6-11.6-0.3c-3.2,0.4-6.4,1.1-9.4,2.2
					c-2.3,0.9-4.5,1.9-6.6,3.2l-1.5-2.5c2-1.4,4.3-2.6,6.6-3.4c3.5-1.2,7.1-2,10.8-2.4c3.9-0.4,7.9-0.3,11.8,0.2
					c2.8,0.4,5.6,1.1,8.2,2c1,0.4,2,0.8,2.9,1.3c1.4,0.7,2.9,1.7,4.1,2.2c0.6,0.2,1.2,0.3,1.7,0.5c0.7,0.1,1.3,0.1,2,0.1
					c0.8-0.1,1.5-0.2,2.2-0.4c0.4-0.1,0.8-0.2,1.2-0.4c0.5-0.2,0.9-0.5,1.3-0.9c0.5-0.6,1-1.2,1.3-1.9c0.3-0.6,0.6-1.3,0.7-2
					c0.2-1.1,0.1-2.3-0.2-3.5c-0.4-1-0.9-1.9-1.6-2.7c-0.5-0.6-1.1-1-1.8-1.3c-1.7,0.5-3.5,0.8-5.3,1.1c-1.9,0.1-3.7,0.1-5.6,0
					c0,0-15.6-2.6-28.8-17.4c-3.6-4.1-6.5-8.7-8.7-13.7c-1.6-3.5-2.8-7.1-3.6-10.9c-0.5-1.5-0.8-3-0.9-4.5c0-1.3,0.2-2.6,0.5-3.8
					c0.4-1,0.8-2.1,1.3-3c0.8-1.8,3.9-4.2,3.9-4.2L30,356.2z"/>
				<path id="rect92004" class="st1" d="M50,50.2h199.3v200.3H50V50.2z"/>
				<path id="rect92007" class="st1" d="M7.6,343h284.1v4.9H7.6V343z"/>
			</g>
			<g>
				<path class="st2" d="M217.1,229.8v-1.5c0-30.3,0-60.6,0-91c0-0.5,0-1,0-1.6c-0.2-2.3-1.9-4.3-4.1-4.9c-2.2-0.7-4.6,0.1-5.9,2.1
					c-0.7,0.9-1.3,1.9-2,2.9c-16,22.9-32,45.9-48,68.8c-0.2,0.3-0.3,0.6-0.5,0.9h45.9v9.6h-55.9v14.7L217.1,229.8z M196.3,130.8
					h-1.7c-12,0-24,0-36,0c-1.1-0.1-2.2,0.5-2.9,1.4c-11.2,12.9-22.5,25.8-33.7,38.7c-0.5,0.8-1.5,1.1-2.4,0.7
					c-8.8-3.4-17.7-6.6-26.6-9.9c-3.8-1.4-8.1,0.6-9.5,4.4c-0.1,0.4-0.3,0.8-0.3,1.2c-0.6,3.4-0.1,6.9,1.3,10.1
					c0.4,1,1.2,1.7,2.1,2.1c13.7,5.9,27.4,11.9,41.1,17.9c0.6,0.4,1.4,0.2,1.8-0.4c4-4.4,8.1-8.8,12.2-13.2c1.5-1.7,3.1-3.3,4.9-5.2
					v23.4l0.2,0L196.3,130.8z M201.2,99.7l-41.6,4.8c0.3,5,2.4,9.6,5.9,13.2c8.3,8.5,22,8.7,30.5,0.4c1.6-1.6,2.9-3.4,4-5.3
					c0.6-0.8,0.9-1.8,1.1-2.8C201.2,106.6,201.2,103.2,201.2,99.7L201.2,99.7z M154.7,67.3c2.2,7.2,4.2,14.2,6.3,21.2h40.5
					c0-1.5-0.1-3,0-4.4c0.1-0.9-0.3-1.3-1.1-1.6c-9.9-3.2-19.7-6.5-29.5-9.8C165.6,71,160.3,69.2,154.7,67.3z M153.1,99.7l48.3-3.7
					v-2.6h-1.5c-12.6,0-25.1,0-37.7,0c-1.5-0.1-3.1,0.5-4.1,1.6C156.7,96.5,155,98,153.1,99.7z"/>
				<path d="M217.1,229.8h-70.5v-14.7h55.9v-9.6h-45.9c0.1-0.3,0.3-0.6,0.5-0.9c16-22.9,32-45.9,48-68.8c0.7-1,1.3-1.9,2-2.9
					c1.3-1.9,3.7-2.8,5.9-2.1c2.3,0.6,3.9,2.6,4.1,4.9c0,0.5,0,1,0,1.6c0,30.3,0,60.6,0,91L217.1,229.8z"/>
				<path d="M196.3,130.8l-49.5,71l-0.2,0v-23.4c-1.8,1.9-3.3,3.6-4.9,5.2c-4.1,4.4-8.1,8.8-12.2,13.2c-0.4,0.6-1.2,0.8-1.8,0.4
					c-13.7-6-27.4-12-41.1-17.9c-1-0.4-1.7-1.1-2.1-2.1c-1.5-3.1-1.9-6.7-1.3-10.1c0.7-4,4.6-6.7,8.6-6c0.4,0.1,0.8,0.2,1.2,0.3
					c8.9,3.3,17.7,6.6,26.6,9.9c0.8,0.5,1.9,0.2,2.4-0.7c11.2-12.9,22.5-25.8,33.7-38.7c0.7-0.9,1.8-1.4,2.9-1.4c12,0.1,24,0,36,0
					L196.3,130.8z"/>
				<path d="M201.2,99.7c0,3.5,0.1,6.9-0.1,10.3c-0.2,1-0.6,1.9-1.1,2.8c-5.6,10.5-18.6,14.5-29.2,9c-2-1-3.8-2.4-5.3-4
					c-3.5-3.5-5.6-8.2-5.9-13.2L201.2,99.7z"/>
				<path d="M154.7,67.3c5.6,1.9,10.9,3.6,16.2,5.4c9.8,3.3,19.7,6.5,29.5,9.8c0.9,0.3,1.2,0.7,1.1,1.6c-0.1,1.4,0,2.9,0,4.4H161
					C158.9,81.6,156.8,74.6,154.7,67.3z"/>
				<path d="M153.1,99.7c1.9-1.7,3.5-3.1,5-4.7c1-1.1,2.6-1.7,4.1-1.6c12.6,0.1,25.1,0,37.7,0h1.5V96L153.1,99.7z"/>
			</g>
		</g>
	</g>
</g>
<g>
	<path class="st2" d="M166.3,412.8h-7.1v-30.1h-5v-6.1c2.9-0.6,5-2,6.4-4.1h5.8V412.8z"/>
	<path class="st2" d="M188.3,412.8h-7.1v-30.1h-5v-6.1c2.9-0.6,5-2,6.4-4.1h5.8V412.8z"/>
	<path class="st2" d="M228.9,412.8h-32.4c0.8-10.5,6.3-17.9,16.4-22.2c2.6-1.1,4.8-2.1,6.5-3.1c1.7-1,2.5-2.2,2.3-3.6
		c0-1.3-0.7-2.4-2-3.3c-1.3-0.9-3.4-1.4-6.2-1.4c-4.2,0.1-7.9,1.8-11.2,5l-5.8-4.7c4.8-5,10.4-7.5,16.8-7.6c4.7,0,8.5,1.2,11.3,3.5
		c2.8,2.3,4.2,5.2,4.2,8.4c0,2.8-0.8,5.1-2.3,6.8c-1.5,1.7-4.3,3.4-8.5,5.2c-6.6,3.2-10.5,6.4-11.8,9.8h22.6V412.8z"/>
</g>
<g>
	<path class="st2" d="M97,302H82.2v20.3h-9.2v-51.6h23.7c3.4,0,6.3,0.7,8.9,2.2c5.3,3.1,7.9,7.6,7.9,13.6c0,6.5-2.6,11.1-7.9,13.9
		C103,301.4,100.1,302,97,302z M104.2,286.4c0-2-0.7-3.6-2-4.8c-1.3-1.2-3.1-1.8-5.4-1.8H82.2v12.9h14.6c2.3,0,4.1-0.6,5.4-1.7
		C103.5,289.8,104.2,288.3,104.2,286.4z"/>
	<path class="st2" d="M154.4,303.4c0,5.4-1.6,10.1-4.8,13.9c-3.2,3.8-7.1,5.8-11.7,5.8c-4.6,0-8.5-1.9-11.7-5.8
		c-3.2-3.9-4.8-8.5-4.8-13.9c0-5.5,1.6-10.2,4.8-14c3.2-3.9,7.1-5.8,11.7-5.8c4.6,0,8.5,1.9,11.7,5.8
		C152.8,293.3,154.4,297.9,154.4,303.4z M145.5,303.4c0-3.1-0.7-5.6-2.1-7.6c-1.4-2-3.2-3-5.4-3c-2.3,0-4.2,1-5.5,3
		c-1.4,2-2.1,4.5-2.1,7.5c0,3,0.7,5.6,2.1,7.6c1.4,2,3.2,3,5.5,3c2.2,0,4-1,5.4-3C144.8,309,145.5,306.5,145.5,303.4z"/>
	<path class="st2" d="M171,322.2h-9.2v-47.8l9.2-4.6V322.2z"/>
	<path class="st2" d="M189.9,274.3c0,1.3-0.5,2.5-1.4,3.4s-2,1.4-3.2,1.4c-1.3,0-2.4-0.4-3.3-1.3c-0.9-0.9-1.3-2-1.3-3.5
		c0-1.2,0.4-2.3,1.3-3.2c0.9-0.9,2-1.3,3.3-1.3c1.2,0,2.3,0.4,3.2,1.3C189.4,272,189.9,273,189.9,274.3z M189.9,284.6v37.7h-9.2
		v-37.7H189.9z"/>
	<path class="st2" d="M229,311.5c-0.1,3.4-1.5,6.1-4.3,8.3c-2.8,2.1-6.5,3.2-11.1,3.3c-6.1-0.1-11.7-1.6-16.8-4.5l4.2-8
		c4.4,2.5,8.5,3.8,12.4,3.8c2.5,0,4.2-0.3,5.2-0.9c0.9-0.6,1.4-1.5,1.4-2.5c0-1.1-0.5-2-1.4-2.5c-0.9-0.6-2.8-1.1-5.6-1.6
		c-5.6-1-9.5-2.5-11.4-4.5c-2-2-2.9-4.2-2.9-6.5c-0.1-3.3,1.2-6.1,3.8-8.4c2.6-2.3,6.2-3.5,10.6-3.5c5,0,9.9,1.4,14.5,4.1l-3.8,7.5
		c-3.2-1.8-6.7-2.8-10.5-3c-2.3,0.1-3.8,0.3-4.5,0.8c-0.8,0.5-1.2,1.1-1.2,2c-0.1,0.8,0.3,1.4,1.1,1.8c0.8,0.4,2.3,0.8,4.6,1.1
		c5.3,0.7,9.3,2.1,11.8,4.3C227.7,304.7,229,307.7,229,311.5z"/>
</g>
</svg>
