<?xml version="1.0" encoding="utf-8"?>
<!-- Generator: Adobe Illustrator 26.0.0, SVG Export Plug-In . SVG Version: 6.00 Build 0)  -->
<svg version="1.1" id="Layer_1" xmlns="http://www.w3.org/2000/svg" xmlns:xlink="http://www.w3.org/1999/xlink" x="0px" y="0px"
	 viewBox="0 0 298 448.1" style="enable-background:new 0 0 298 448.1;" xml:space="preserve">
<style type="text/css">
	.st0{fill:#D40000;}
	.st1{fill:#FFFFFF;}
	.st2{fill:#E32320;}
	.st3{fill:#F9F9F9;}
	.st4{fill:#F5F5F5;}
	.st5{fill:#EBEB00;}
	.st6{fill-rule:evenodd;clip-rule:evenodd;}
</style>
<g id="Layer_2_00000074427965674793002520000015432027209714180751_">
	<g id="Layer_1-2">
		<g>
			<g>
				<path class="st0" d="M18.2,0h261.6C289.8,0,298,8.1,298,18.2v411.7c0,10.1-8.1,18.2-18.2,18.2H18.2C8.1,448.1,0,440,0,429.9
					V18.2C0,8.1,8.1,0,18.2,0z"/>
				<rect x="24.9" y="24.9" class="st1" width="248.3" height="397.2"/>
				<rect x="21.2" y="325.3" class="st0" width="257.7" height="5"/>
			</g>
			<g>
				<path d="M124.3,37.2c1.1,0.5,2.3,0.3,3.5,0.4c8.1,0.7,16,2.6,23.5,5.7c3.7,1.5,7.5,2.7,11.2,4.1c0.5,0.3,1.2,0.1,1.5-0.4
					c1.8-1.8,3.7-3.4,5.7-4.9c0.4-0.3,0.9-0.4,1.4-0.4c5.6,0.3,11.2,1.4,16.7,2.3c3.2,0.4,6.4,1.2,9.5,2.3c0.6,0.2,1.2,0.5,1.6,1
					c1,1,2.1,2,3,3.1c1.5,1.9,3.6,3.3,6,3.9c0.8,0.2,1.4,0.7,1.9,1.3c1.7,1.9,3.4,3.8,5.1,5.7c0.4,0.4,0.6,1,0.5,1.6
					c-0.4,2-0.8,4-1.1,6c-0.1,0.5-0.4,1-0.8,1.4c-1.3,1.1-2.6,2.3-3.9,3.4c-0.5,0.3-0.7,0.9-0.6,1.4c0.1,2,0.2,3.9,0.3,5.9
					c0,0.6-0.2,1.2-0.6,1.7c-1.7,2.4-4,3.3-6.9,3.7c-9.7,1.2-19.1,3.6-28.7,5.5c-1.4,0.3-2.5,1.3-3.7,1.9c-4.3,2.1-8,5.1-11.9,7.8
					c-0.6,0.4-0.6,1-0.6,1.5c0,12.8,0,25.6,0,38.4c0,7.6,0,15.3,0,22.9c-2.5-3.3-4.8-6.7-7.4-9.9c-0.9-0.9-1.6-1.9-2.2-3
					c0-2.4,0-4.9,0-7.3c0-7.6-0.1-15.1,0-22.7c0.1-4.1-0.4-8.2-1.3-12.2c-0.8-3.3-1.3-6.7-1.9-10c-0.1-0.9-0.5-1.8-1.1-2.6
					c-0.8-0.9-1.6-1.9-2.3-2.9c-0.6-0.9-1.6-1.4-2.7-1.4c-6.7-0.6-13.5-1.1-20.1-2.4c-2.5-0.5-4.8-1.5-7.2-2.2
					c-0.2-0.1-0.4-0.2-0.6-0.4c-0.2-0.2-0.4-0.4-0.6-0.6c-1.1-1.4-2.8-2.5-3.2-4.1c-0.2-1.7-0.2-3.5,0.2-5.2c0.1-1-0.2-1.2-1.1-1.1
					C102,77,98.4,76,94.7,74.9c-1.6-0.3-2.8-1.6-3.1-3.1c-0.8-2.2-0.8-4.7,0.1-6.9c1.5-4,3.2-7.8,5.1-11.6c1-1.9,2.8-3.4,4.1-5.1
					c0.2-0.3,0.5-0.2,0.8-0.2c2.2-0.3,4.4-0.6,6.5-0.8c0.6,0,1-0.4,1.1-1c0.5-1.6,1-3.3,1.5-4.9c0.1-0.6,0.6-1,1.1-1.2
					c2.9-1.4,5.9-2.3,9.1-2.7c0.1,0,0.2-0.1,0.3-0.2L124.3,37.2z M158,93.4c1.8-0.8,3.6-1.7,5.4-2.5c0.1-0.1,0.2-0.2,0.3-0.3
					c0.3-2.5,0.7-5,1-7.7c-2.2,1-4.2,2-6.1,2.9c-0.4,0.2-0.6,0.6-0.5,1C158,88.9,158,91.1,158,93.4z M120.8,61.2
					c-0.1,0.1-0.2,0.1-0.3,0.2c-1.3,1.1-2.7,2.1-4,3.2c-0.4,0.3-0.2,0.5,0,0.8c1.1,1.8,2.2,3.6,3.3,5.4c0.3,0.6,0.5,0.5,0.9,0
					c1.3-1.6,2.7-3.2,4-4.8c0.4-0.4,0.3-0.7-0.1-1.1c-1.2-1.1-2.3-2.3-3.4-3.4C121.1,61.5,121,61.3,120.8,61.2z M185.3,68.3l8,4.6
					l-3.7-7.7L185.3,68.3z M150.4,94.5c1.2-3.1,2.2-5.9,3.4-8.9c-0.8,0.4-1.6,0.7-2.5,0.9c-1.2,0.2-1.6,1.1-1.9,2.1
					c-0.4,0.9-0.7,1.9-1,2.9c0,0.1,0.1,0.3,0.2,0.4C149.2,92.7,149.8,93.5,150.4,94.5z M151.6,78.5c0.2,0.7,0.4,1.3,0.6,2
					c0.3,1,2.8,1.6,3.4,0.8c0.8-0.8,1.4-1.8,1.9-2.8L151.6,78.5z"/>
				<path d="M108.9,315.5c0-0.4-0.1-0.9-0.1-1.3c0-11.6,0-23.3,0-34.9c0-1,0.2-1.4,1.3-1.3c2,0.1,2,0,2.6,2c2,6.8,4.1,13.6,6.1,20.4
					c0.1,0.3,0.2,0.6,0.5,0.8V300c0-7,0-13.9,0-20.9c0-0.9,0.2-1.2,1.1-1.1c2.5,0.1,2.5,0,2.5,2.5c0,11.2,0,22.5,0,33.7
					c0,0.5,0.1,1-0.4,1.3h-2.9c0-0.2,0-0.4-0.1-0.6c-2.2-7.3-4.4-14.6-6.6-22c0-0.4-0.2-0.7-0.5-0.9c0,7.4,0,14.7,0,22.1
					c0,0.5,0.1,1.1-0.5,1.4H108.9z"/>
				<path d="M64.8,315.5c0-5.5,0-11,0-16.5c0-6.6,0-13.2,0-19.8c0-1,0.3-1.2,1.2-1.2c2.1,0.1,2.1,0,2.7,2c2,6.8,4,13.5,6.1,20.3
					c0.1,0.3,0.2,0.6,0.5,0.8v-1.3c0-6.9,0-13.8,0-20.7c0-0.9,0.3-1.1,1.1-1.1c2.4,0,2.4,0,2.4,2.5c0,11.2,0,22.4,0,33.6
					c0,0.5,0.1,1.1-0.5,1.4h-2.9c0-0.3,0-0.6-0.1-0.9c-2.2-7.2-4.3-14.4-6.5-21.6c-0.1-0.3-0.1-0.8-0.5-0.9c0,7.5,0,14.9,0,22.4
					c0,0.5-0.2,0.9-0.6,1.1L64.8,315.5z"/>
				<path d="M169.6,315.5c0-5.2,0-10.5,0-15.7c0-6.9,0-13.8,0-20.7c0-0.8,0.2-1.1,1-1.1c2.5,0,2.5,0,2.5,2.5c0,4.1,0,8.2,0,12.2
					c0,1,0.3,1.3,1.3,1.2c1.6-0.1,3.1-0.1,4.7,0c0.8,0,1-0.2,1-1c0-4.6,0-9.1,0-13.7c0-1,0.2-1.3,1.2-1.3c2.4,0.1,2.4,0,2.4,2.3
					c0,11.6,0,23.3,0,34.9l-3.5,0c0-5.6,0-11.1,0-16.7c0-1-0.3-1.2-1.2-1.2c-1.5,0.1-3,0.1-4.6,0c-1-0.1-1.2,0.3-1.2,1.2
					c0,5.2,0,10.4,0,15.6c0,0.6,0,1.1-0.6,1.3L169.6,315.5z"/>
				<path d="M213.3,315.5c0-0.4-0.1-0.9-0.1-1.3c0-11.6,0-23.3,0-34.9c0-1.1,0.3-1.3,1.3-1.3c2.2,0.1,2.2,0,2.2,2.2v10.6
					c0.5-0.2,0.5-0.6,0.7-0.9c1.7-3.7,3.4-7.3,5-11c0.3-0.7,0.6-1,1.4-0.9c0.9,0.1,1.8,0,2.9,0c-1.1,2.4-2.1,4.7-3.2,7
					c-0.7,1.6-1.4,3.3-2.3,4.9c-0.7,1.3-0.8,2.8-0.3,4.2c2.1,7,4.2,14.1,6.2,21.1l-3.6,0.1c-0.3-0.3-0.3-0.7-0.4-1.1
					c-1.5-5.2-3.1-10.5-4.6-15.7c-0.1-0.4-0.1-0.9-0.5-1.3c-1.3,2.4-1.3,2.4-1.3,5c0,4,0,8,0,12c0,0.5,0,1-0.5,1.3L213.3,315.5z"/>
				<path d="M36.5,315.5c0-0.4-0.1-0.9-0.1-1.3c0-2.1-0.1-4.2,0-6.2c0.3-5.1-0.5-10.3-2.2-15.2c-1.5-4.5-2.6-9.1-4-13.7
					c-0.3-0.8-0.3-1.2,0.8-1.2c2.6,0.1,2.6,0,3.3,2.6c1.2,4.2,2.4,8.5,3.9,12.7c0.6-2.1,1.2-4.2,1.8-6.2c0.8-2.7,1.6-5.4,2.3-8.2
					c0.2-0.7,0.5-0.9,1.2-0.9c0.9,0.1,1.8,0,2.8,0c-0.5,1.8-1,3.6-1.5,5.3c-1.6,5.4-3.1,10.7-4.7,16.1c-0.2,0.7-0.3,1.4-0.3,2.1
					c0,4.2,0,8.5,0,12.7c0,0.5,0,1-0.5,1.3L36.5,315.5z"/>
				<path d="M141.3,315.5c0-0.5-0.1-0.9-0.1-1.4c0-10.6,0-21.2,0-31.8c0-1-0.2-1.4-1.2-1.2c-0.5,0.1-1.1-0.1-1.7,0
					c-1.2,0.2-1.7-0.2-1.6-1.5c0.1-1.5,0-1.6,1.6-1.6c3.3,0,6.6,0,9.9,0c0.8,0,1,0.2,1,1c0,2.1,0,2.1-2,2.1c-2.5,0-2.5,0-2.5,2.5
					c0,10.2,0,20.4,0,30.6c0,0.5,0.1,1.1-0.5,1.4H141.3z"/>
				<path d="M205.1,315.5c0-1,0-1.9,0-2.9c0-11.2,0-22.3,0-33.5c0-1,0.3-1.2,1.2-1.2c2.4,0.1,2.4,0,2.4,2.4c0,11.2,0,22.5,0,33.7
					c0,0.6,0,1.1-0.6,1.4H205.1z"/>
				<path d="M264.7,315.2c0-12,0-24,0-36c0-1,0.3-1.3,1.2-1.2c0.8,0.1,1.6,0,2.4,0.1v37.2L264.7,315.2z"/>
				<path d="M268.2,273.8c-0.3-0.1-0.3,0.2-0.5,0.4c-0.7,0.7-1.9,0.6-2.6-0.1c-0.7-0.7-0.6-1.9,0.1-2.6c0,0,0,0,0,0
					c0.8-0.6,1.9-0.6,2.6,0.2c0.1,0.1,0.3,0.3,0.4,0.4V273.8z"/>
				<path d="M200.8,315.2l0,0.3h-12.5v-0.2L200.8,315.2z"/>
				<path d="M231.1,315.5v-0.2l12.4-0.1l0,0.3L231.1,315.5z"/>
				<path d="M47.6,315.2l0.1,0.3h-3.8l0.1-0.3C45.2,315.3,46.4,315.3,47.6,315.2z"/>
				<path d="M56.9,315.5l0-0.2l3.5,0l0,0.3L56.9,315.5z"/>
				<path d="M104.8,315.2l0,0.3h-3.6l0-0.3L104.8,315.2z"/>
				<path d="M179.9,315.5l0-0.3l3.5,0l0,0.3L179.9,315.5z"/>
				<path d="M223.6,315.5c0-0.1,0-0.1,0-0.2l3.6-0.1l0,0.3L223.6,315.5z"/>
				<path d="M264.7,315.2l3.6,0.1c-0.7,0.5-1.4,0.1-2.2,0.2c-0.5,0-1,0-1.4,0L264.7,315.2z"/>
				<path class="st0" d="M147.5,151.5c0.6,1.1,1.3,2.1,2.2,3c2.6,3.2,4.9,6.6,7.4,9.9l3.6,5.5c1.4-1.5,2.7-3.2,3.9-4.9
					c-0.2,2.5-0.2,4.9,0,7.4c0.3,2.3,0.8,4.5,1.6,6.6c0.3,0.7,0.6,0.8,1.3,0.6c2.1-0.5,3.6-2.2,3.9-4.3c1.8,2.8,3,5.9,3.6,9.1
					c0.4,2.8,0.5,5.6,0.2,8.4c-0.2,3.8,1.2,7.6,3.8,10.4c0.5,0.6,0.8,0.6,1.4,0.1c6.5-5.8,8.4-16.3,4.1-23.9
					c-2.4-3.9-3.8-8.4-4.2-13c0-0.9,0.1-1,0.9-0.6c5.1,2.5,9.8,5.7,13.9,9.6c0.6,0.7,1.6,0.8,2.4,0.5c1.5-0.6,2.7-1.6,3.6-2.9
					c0,2.8,0.5,5.6,1.3,8.2c1.4,4,3.7,7.6,6.8,10.4c0.8,0.8,1.9,1,2.9,0.6c1.2-0.5,2.2-1.2,3.1-2.2c-0.2,1-0.4,1.9-0.6,2.9
					c-0.9,4.9-0.5,10,1.1,14.8c3.1,9.4,4.1,19.1,2,28.8c-2.2,10.3-11.5,18.1-22,19.2c-12.3,1.3-23.7-6.5-27-18.4
					c-0.4-1.5-0.7-3.1-0.8-4.7c3.1,1.3,6.1,2.7,9.2,4c0.6,0.2,0.7,0.7,0.8,1.2c1.2,6.3,7.2,10.4,13.5,9.3c0.5-0.1,1-0.2,1.5-0.4
					c3.2-1.1,3.5-1.4,3.4-4.7v-0.2c4.8-1.6,7.7-4.9,8.4-9.9c0.4-3.2,0.4-6.4,0.1-9.6c-0.8-8.8-4.2-17.1-9.8-23.9
					c-0.5-0.6-0.7-0.5-1.1,0.1c-1.3,2.2-2.2,4.6-2.9,7.1c-1,4-2.9,7.6-5.4,10.8c-1.1,1.4-2.7,2.4-3.8,3.8c-3.1,3.9-3.6,8.2-1.9,12.7
					c-0.4-0.2-0.8-0.3-1.2-0.5c-21.2-9.9-42.5-19.7-63.7-29.6c-1.5-0.6-3-1.3-4.4-2.2c-1.1-1.7-2.4-3.2-3.5-5
					c-3.7-6.1-5.4-13.2-4.9-20.2c1,1.5,2.2,2.9,3.6,4c3,2.5,6.8,3.7,10.7,3.6c0.5,0,0.9,0.2,1.2,0.6c0.9,1.2,2.3,1.9,3.8,1.9
					c0.6,0,0.9-0.1,0.9-0.8c0.2-3.2,0.4-6.4,0.9-9.5c0.1-0.4,0-0.9,0.4-1.3c2.6,7.4,6,14.5,10.1,21.1c0.2-2.1,0.4-4,0.5-5.8
					c0.8-8.1,2.7-16,5.5-23.6c0.1-0.4,0.4-0.7,0.7-0.9c5.4-3.4,7.1-8.7,4.8-14.7c0-0.1,0-0.2,0-0.4l0-0.1
					C146.5,150,146.8,150.9,147.5,151.5z"/>
				<path class="st0" d="M152.7,225.7c-0.3,0-0.6,0-1,0c-23.7,0-47.3,0-71,0h-1.1c0.1-0.5,0.4-0.9,0.8-1.3c2.4-3,4.6-6.1,6.5-9.5
					c0.4-0.6,0.7-0.8,1.3-0.3c2,1.3,4.1,2.6,6.3,4c0.8-5.9,1.7-11.6,2.5-17.4c0.1,0.1,0.3,0.1,0.4,0.2c14.2,6.2,28.4,12.4,42.5,18.6
					C144.3,222,148.5,223.9,152.7,225.7z"/>
				<path d="M152.7,225.7c-4.2-1.9-8.4-3.8-12.6-5.6c-14.2-6.2-28.3-12.4-42.5-18.6c-0.1-0.1-0.3-0.1-0.4-0.2
					c-5.7-2.5-11.3-5-17-7.5c-0.3-0.1-1.2,0-0.8-0.9c0.3-0.8,0.7-0.7,1.4-0.4c19.4,8.6,38.9,17.1,58.3,25.6c13,5.7,26,11.4,39,17.1
					c0.6,0.3,1,0.5,1.4-0.4c0.4-0.9-0.1-1.1-0.7-1.3c-32.1-14.4-64.2-28.7-96.3-43.1c-0.4-0.2-0.8-0.4-1.2-0.6
					c1.3-2.4,1.3-2.4,3.6-1.3c8.3,3.9,16.6,7.7,24.9,11.6c0.3,0.1,0.6,0.4,1,0.3c1.4,0.9,2.9,1.6,4.4,2.2
					c21.2,9.9,42.4,19.7,63.7,29.6c0.4,0.2,0.8,0.3,1.2,0.5c0.4,0.4,0.7,0,1.1-0.2c4.1-1.7,8.7-0.8,11.9,2.3c1.8,1.8,3,4.2,3.4,6.7
					v0.2c0,3.4-0.2,3.7-3.4,4.7c-6.1,2-12.6-1.3-14.6-7.3c-0.2-0.5-0.3-1-0.4-1.5c-0.1-0.5-0.2-1-0.8-1.2c-3.1-1.3-6.1-2.7-9.2-4
					L152.7,225.7z"/>
				<path d="M60.4,315.2l-3.5,0c-0.5-2.8-1-5.6-1.5-8.3c-0.1-0.8-0.3-1.1-1.2-1.1c-1.4,0.1-2.7,0.1-4.1,0c-0.8,0-1,0.2-1.1,1
					c-0.4,2.8-0.9,5.6-1.4,8.4c-1.2,0.2-2.5,0.2-3.7,0c1.3-7.7,2.7-15.4,4-23.1c0.8-4.4,1.5-8.7,2.2-13.1c0.1-0.7,0.4-1,1.2-1
					c2.5,0.1,2.5,0,3,2.4c1.9,11.1,3.9,22.2,5.8,33.3C60.3,314.2,60.1,314.8,60.4,315.2z M52.3,289.1l-0.2,0
					c-0.7,4.2-1.5,8.3-2.2,12.4c-0.1,0.6-0.1,0.9,0.7,0.9c1.1-0.1,2.2,0,3.2,0c0.6,0,0.8-0.1,0.7-0.7
					C53.7,297.5,53,293.3,52.3,289.1z"/>
				<path d="M86.5,296.5c0,4,0.2,8.1,0.9,12.1c0.3,2.1,1.3,3.2,2.9,3.2c1.6,0.1,2.9-1,3-2.6c0-0.1,0-0.2,0-0.2c0-2.7,0-5.4,0-8
					c0-0.6-0.3-0.7-0.8-0.7c-2.3-0.1-2.2-0.1-2.3-2.3c0-1,0.3-1.3,1.3-1.2c1.5,0.1,3,0,4.4,0c0.7,0,0.9,0.1,0.9,0.9
					c0,3.9,0,7.8,0,11.6c-0.2,3.6-3.2,6.4-6.8,6.2c-3-0.1-5.6-2.4-6.1-5.4c-1.2-7.4-1.4-15-0.6-22.4c0.1-1.8,0.4-3.5,0.8-5.2
					c0.9-3.1,3.9-5.1,7.2-4.6c3,0.4,5.4,2.9,5.6,6c0.1,2.2,0.1,2.1-2,2.2c-1.2,0.1-1.6-0.2-1.6-1.5c0.2-1.6-1-3.1-2.6-3.2
					c-1.6-0.2-3.1,1-3.2,2.6c0,0,0,0.1,0,0.1C86.8,287.9,86.4,292.2,86.5,296.5z"/>
				<path d="M246.4,307.8c0-2,0-2,1.9-2c1.6,0,1.6,0,1.6,1.6c0,2.7,1.2,4.3,3.4,4.3c1.9,0.1,3.4-1.4,3.5-3.3c0-0.2,0-0.5,0-0.7
					c-0.6-3.9-2.3-7.5-5-10.4c-3.3-3.5-5.1-8.2-5-13c0.1-3.7,3.2-6.7,6.9-6.6c3.4,0.1,6.2,2.6,6.6,6c0.3,2.9,0,3.2-2.9,2.9
					c-0.5,0-0.6-0.2-0.6-0.7c0-0.6,0-1.1,0-1.7c-0.2-1.7-1.7-3-3.4-3c-1.8,0.1-3.2,1.7-3,3.5c0.1,3.9,1.6,7.6,4.3,10.4
					c3.4,3.6,5.4,8.2,5.8,13.1c0.3,3.1-2.3,6.2-5.5,6.9c-3.2,0.7-6.5-1-7.9-4C246.6,310.1,246.4,308.9,246.4,307.8z"/>
				<path d="M153.3,296.7c0-5.8,0-11.6,0-17.4c0-1.1,0.3-1.3,1.3-1.3c3.4,0.1,6.7,0,10.1,0c0.8,0,1.1,0.1,1.1,1c0,2.5,0,2.5-2.5,2.5
					c-1.8,0-3.7,0-5.5,0c-0.7,0-0.9,0.1-0.9,0.8c0,3.6,0,7.1,0,10.7c0,0.7,0.2,0.9,0.9,0.9c1.4,0,2.9,0,4.3,0c0.6,0,0.8,0.1,0.8,0.8
					c0.1,2.7,0.1,2.7-2.6,2.7c-1.1,0-2.6-0.5-3.2,0.2c-0.5,0.6-0.2,2-0.2,3.1c0,3.2,0,6.5,0,9.7c0,1,0.2,1.3,1.2,1.3
					c2.2-0.1,4.5,0,6.7,0c0.7,0,1,0.1,1,0.9c0,2.7,0,2.7-2.6,2.7c-2.9,0-5.8,0-8.6,0c-1,0-1.2-0.3-1.2-1.3
					C153.4,308.3,153.3,302.5,153.3,296.7z"/>
				<path d="M243.5,315.2l-12.4,0.1c0-3.7,0-7.4,0-11.2c0-8.3,0-16.6,0-24.8c0-1.1,0.3-1.3,1.3-1.3c3.4,0.1,6.8,0,10.2,0
					c0.8,0,1,0.2,1,1c0,2.6,0,2.6-2.5,2.6c-1.8,0-3.6,0-5.4,0c-0.7,0-1.1,0.1-1,1c0,3.5,0,7,0,10.6c0,0.7,0.2,0.9,0.9,0.9
					c1.4,0,2.8,0,4.2,0c0.7,0,1,0.1,1,0.9c0,2.6,0,2.6-2.5,2.6c-1.1,0-2.6-0.5-3.2,0.2c-0.7,0.7-0.2,2.2-0.2,3.3c0,3.2,0,6.4,0,9.6
					c0,0.9,0.2,1.2,1.2,1.2c2.3-0.1,4.6,0,6.8,0c0.8,0,1.1,0.2,1,1C243.4,313.5,243.5,314.4,243.5,315.2z"/>
				<path d="M200.8,315.2l-12.4,0.1c0-3.8,0-7.5,0-11.3c0-8.2,0-16.5,0-24.7c0-0.9,0.1-1.3,1.2-1.3c2.3,0.1,2.4,0,2.4,2.4
					c0,10,0,20,0,30c0,1,0.2,1.4,1.3,1.3c2.3-0.1,4.6,0,6.8,0c0.7,0,0.9,0.2,0.9,0.9C200.7,313.5,200.8,314.3,200.8,315.2z"/>
				<path d="M104.8,315.2l-3.5,0c0-12.1,0-24.2,0-36.3c0-0.8,0.2-0.9,0.9-0.9c2.6,0,2.6,0,2.6,2.6
					C104.8,292.1,104.8,303.7,104.8,315.2z"/>
				<path d="M208.7,272.9c0,1-0.9,1.8-1.9,1.7c0,0,0,0,0,0c-1,0-1.7-0.8-1.7-1.8c0,0,0,0,0,0c0-0.9,0.7-1.7,1.6-1.8
					c0.1,0,0.1,0,0.2,0C207.9,271.1,208.7,271.9,208.7,272.9C208.7,272.9,208.7,272.9,208.7,272.9z"/>
				<path class="st2" d="M145.6,149.5l-0.2-0.1l0.1-0.1L145.6,149.5L145.6,149.5z"/>
				<path class="st3" d="M158,93.4c0-2.3,0-4.5,0-6.7c-0.1-0.4,0.2-0.8,0.5-1c2-0.9,3.9-1.9,6.1-2.9c-0.4,2.7-0.7,5.2-1,7.7
					c0,0.2-0.1,0.3-0.3,0.3C161.5,91.7,159.8,92.6,158,93.4z"/>
				<path class="st3" d="M120.8,61.2c0.1,0.1,0.3,0.3,0.4,0.4c1.1,1.1,2.2,2.3,3.4,3.4c0.4,0.4,0.4,0.6,0.1,1.1
					c-1.4,1.6-2.7,3.2-4,4.8c-0.4,0.5-0.6,0.5-0.9,0c-1.1-1.8-2.2-3.6-3.3-5.4c-0.2-0.3-0.4-0.5,0-0.8c1.4-1.1,2.7-2.1,4-3.2
					C120.6,61.3,120.7,61.3,120.8,61.2z"/>
				<path class="st4" d="M185.3,68.3l4.3-3.1l3.7,7.7L185.3,68.3z"/>
				<path class="st3" d="M150.4,94.5c-0.7-1-1.2-1.8-1.7-2.6c-0.1-0.1-0.2-0.3-0.2-0.4c0.2-1,0.6-2,1-2.9c0.3-1,0.7-1.8,1.9-2.1
					c0.8-0.2,1.7-0.5,2.5-0.9C152.7,88.6,151.6,91.4,150.4,94.5z"/>
				<path class="st4" d="M151.6,78.5h5.9c-0.5,1-1.2,1.9-1.9,2.8c-0.7,0.8-3.1,0.2-3.4-0.8C152,79.9,151.8,79.2,151.6,78.5z"/>
				<path class="st5" d="M196.5,241.6c-0.4-2.5-1.6-4.9-3.4-6.7c-3.2-3-7.8-3.9-11.9-2.3c-0.3,0.1-0.6,0.6-1.1,0.2
					c-1.7-4.6-1.2-8.9,1.9-12.7c1.1-1.4,2.6-2.4,3.8-3.8c2.6-3.2,4.4-6.9,5.4-10.8c0.7-2.5,1.6-4.8,2.9-7.1c0.4-0.6,0.6-0.7,1.1-0.1
					c5.6,6.8,9,15.1,9.8,23.9c0.3,3.2,0.3,6.4-0.1,9.6C204.1,236.7,201.3,240,196.5,241.6z"/>
			</g>
			<g>
				<path id="rect92001" class="st6" d="M50.3,337.8h5.9c0.8,2.4,1.8,4.8,2.9,7.1c1.5,2.4,3.1,4.7,4.9,6.9l-4.3,4.6
					c0,0-1.2-1.5-2.7-0.7c-0.9,0.4-1.4,1.3-1.4,2.2c0.2,1.1,0.5,2.1,1,3.1c1.5,2.4,6.1,5.7,6.1,5.7s5.2,4.9,7.4,7.7
					C72.6,377.8,77,385,77,385c0.9,1,2,1.7,3.3,2.1c0.9,0.2,1.8,0.3,2.7,0.1c0.7-0.2,1.4-0.4,2-0.8c0,0,0.1-1.1,0.2-1.9
					c0-0.5,0-1.7,0-1.7c0-0.1,0-0.2,0-0.3c0.1-0.1,0.1-0.2,0.2-0.3l3.1-3c0,0,5.9,2.3,8.6,3.8c2.3,1.3,6.4,4.4,6.4,4.4l-1.1,6.8
					h-2.2v1c0.8,0.6,1.4,1.3,2,2.1c0.7,1.1,1.3,2.3,1.7,3.5c0.3,1.3,0.3,2.6,0.1,3.9c-0.1,0.7-0.3,1.4-0.5,2.1
					c-0.4,1-0.9,1.9-1.5,2.8c-0.6,0.8-1.4,1.5-2.3,2.1c-1.6,0.8-3.3,1.2-5,1.4c-0.9,0.1-1.9,0-2.8-0.1c-0.6-0.1-1.2-0.3-1.7-0.4
					c-1.9-0.8-3.7-1.7-5.4-2.7c-0.6-0.3-1.3-0.6-2-0.9c-2.4-0.8-4.9-1.4-7.4-1.8c-3.8-0.5-7.7-0.6-11.6-0.3
					c-3.2,0.4-6.4,1.1-9.4,2.2c-2.3,0.9-4.5,1.9-6.6,3.2l-1.5-2.5c2-1.4,4.3-2.6,6.6-3.4c3.5-1.2,7.1-2,10.8-2.4
					c3.9-0.4,7.9-0.3,11.8,0.2c2.8,0.4,5.6,1.1,8.2,2c1,0.4,2,0.8,2.9,1.3c1.4,0.7,2.9,1.7,4.1,2.2c0.6,0.2,1.2,0.3,1.7,0.5
					c0.7,0.1,1.3,0.1,2,0.1c0.8-0.1,1.5-0.2,2.2-0.4c0.4-0.1,0.8-0.2,1.2-0.4c0.5-0.2,0.9-0.5,1.3-0.9c0.5-0.6,1-1.2,1.3-1.9
					c0.3-0.6,0.6-1.3,0.7-2c0.2-1.1,0.1-2.3-0.2-3.5c-0.4-1-0.9-1.9-1.6-2.7c-0.5-0.6-1.1-1-1.8-1.3c-1.7,0.5-3.5,0.8-5.3,1.1
					c-1.9,0.1-3.7,0.1-5.6,0c0,0-15.6-2.6-28.8-17.4c-3.6-4.1-6.5-8.7-8.7-13.7c-1.6-3.5-2.8-7.1-3.6-10.9c-0.5-1.5-0.8-3-0.9-4.5
					c0-1.3,0.2-2.6,0.5-3.8c0.4-1,0.8-2.1,1.3-3c0.8-1.8,3.9-4.2,3.9-4.2L50.3,337.8z"/>
			</g>
		</g>
	</g>
</g>
<g>
	<path d="M155.7,396.1h-7.2v-30.6h-5.1v-6.2c3-0.6,5.1-2,6.5-4.1h5.9V396.1z"/>
	<path d="M189.5,396.1h-7.2v-30.6h-5.1v-6.2c3-0.6,5.1-2,6.5-4.1h5.9V396.1z"/>
	<path d="M242.2,396.1h-32.9c0.8-10.7,6.4-18.2,16.7-22.6c2.7-1.1,4.9-2.2,6.6-3.2s2.5-2.2,2.4-3.6c0-1.3-0.7-2.5-2-3.4
		s-3.4-1.4-6.3-1.4c-4.3,0.1-8.1,1.8-11.3,5.1l-5.9-4.8c4.9-5,10.6-7.6,17.1-7.7c4.8,0,8.6,1.2,11.5,3.6c2.8,2.4,4.3,5.2,4.3,8.6
		c0,2.9-0.8,5.2-2.3,6.9c-1.5,1.7-4.4,3.4-8.6,5.3c-6.7,3.2-10.7,6.5-12,9.9h22.9V396.1z"/>
</g>
</svg>
