<svg enable-background="new 0 0 298 448.1" version="1.1" viewBox="0 0 298 448.1" xmlns="http://www.w3.org/2000/svg"><style type="text/css">.st0{fill:#D40000;}.st1{fill:#FFFFFF;}.st2{fill:#E32320;}.st3{fill:#F9F9F9;}.st4{fill:#F5F5F5;}.st5{fill:#EBEB00;}.st6{fill-rule:evenodd;clip-rule:evenodd;}</style><path class="st0" d="M18.2,0h261.6C289.8,0,298,8.1,298,18.2v411.7c0,10.1-8.1,18.2-18.2,18.2H18.2C8.1,448.1,0,440,0,429.9      V18.2C0,8.1,8.1,0,18.2,0z"/><rect class="st1" x="24.9" y="24.9" width="248.3" height="397.2"/><rect class="st0" x="21.2" y="325.3" width="257.7" height="5"/><path d="m124.3 37.2c1.1 0.5 2.3 0.3 3.5 0.4 8.1 0.7 16 2.6 23.5 5.7 3.7 1.5 7.5 2.7 11.2 4.1 0.5 0.3 1.2 0.1 1.5-0.4 1.8-1.8 3.7-3.4 5.7-4.9 0.4-0.3 0.9-0.4 1.4-0.4 5.6 0.3 11.2 1.4 16.7 2.3 3.2 0.4 6.4 1.2 9.5 2.3 0.6 0.2 1.2 0.5 1.6 1 1 1 2.1 2 3 3.1 1.5 1.9 3.6 3.3 6 3.9 0.8 0.2 1.4 0.7 1.9 1.3 1.7 1.9 3.4 3.8 5.1 5.7 0.4 0.4 0.6 1 0.5 1.6-0.4 2-0.8 4-1.1 6-0.1 0.5-0.4 1-0.8 1.4-1.3 1.1-2.6 2.3-3.9 3.4-0.5 0.3-0.7 0.9-0.6 1.4 0.1 2 0.2 3.9 0.3 5.9 0 0.6-0.2 1.2-0.6 1.7-1.7 2.4-4 3.3-6.9 3.7-9.7 1.2-19.1 3.6-28.7 5.5-1.4 0.3-2.5 1.3-3.7 1.9-4.3 2.1-8 5.1-11.9 7.8-0.6 0.4-0.6 1-0.6 1.5v38.4 22.9c-2.5-3.3-4.8-6.7-7.4-9.9-0.9-0.9-1.6-1.9-2.2-3v-7.3c0-7.6-0.1-15.1 0-22.7 0.1-4.1-0.4-8.2-1.3-12.2-0.8-3.3-1.3-6.7-1.9-10-0.1-0.9-0.5-1.8-1.1-2.6-0.8-0.9-1.6-1.9-2.3-2.9-0.6-0.9-1.6-1.4-2.7-1.4-6.7-0.6-13.5-1.1-20.1-2.4-2.5-0.5-4.8-1.5-7.2-2.2-0.2-0.1-0.4-0.2-0.6-0.4l-0.6-0.6c-1.1-1.4-2.8-2.5-3.2-4.1-0.2-1.7-0.2-3.5 0.2-5.2 0.1-1-0.2-1.2-1.1-1.1-3.4 0.6-7-0.4-10.7-1.5-1.6-0.3-2.8-1.6-3.1-3.1-0.8-2.2-0.8-4.7 0.1-6.9 1.5-4 3.2-7.8 5.1-11.6 1-1.9 2.8-3.4 4.1-5.1 0.2-0.3 0.5-0.2 0.8-0.2 2.2-0.3 4.4-0.6 6.5-0.8 0.6 0 1-0.4 1.1-1 0.5-1.6 1-3.3 1.5-4.9 0.1-0.6 0.6-1 1.1-1.2 2.9-1.4 5.9-2.3 9.1-2.7 0.1 0 0.2-0.1 0.3-0.2h3zm33.7 56.2c1.8-0.8 3.6-1.7 5.4-2.5l0.3-0.3c0.3-2.5 0.7-5 1-7.7-2.2 1-4.2 2-6.1 2.9-0.4 0.2-0.6 0.6-0.5 1-0.1 2.1-0.1 4.3-0.1 6.6zm-37.2-32.2c-0.1 0.1-0.2 0.1-0.3 0.2-1.3 1.1-2.7 2.1-4 3.2-0.4 0.3-0.2 0.5 0 0.8 1.1 1.8 2.2 3.6 3.3 5.4 0.3 0.6 0.5 0.5 0.9 0 1.3-1.6 2.7-3.2 4-4.8 0.4-0.4 0.3-0.7-0.1-1.1-1.2-1.1-2.3-2.3-3.4-3.4-0.1 0-0.2-0.2-0.4-0.3zm64.5 7.1 8 4.6-3.7-7.7-4.3 3.1zm-34.9 26.2c1.2-3.1 2.2-5.9 3.4-8.9-0.8 0.4-1.6 0.7-2.5 0.9-1.2 0.2-1.6 1.1-1.9 2.1-0.4 0.9-0.7 1.9-1 2.9 0 0.1 0.1 0.3 0.2 0.4 0.6 0.8 1.2 1.6 1.8 2.6zm1.2-16c0.2 0.7 0.4 1.3 0.6 2 0.3 1 2.8 1.6 3.4 0.8 0.8-0.8 1.4-1.8 1.9-2.8h-5.9z"/><path d="m108.9 315.5c0-0.4-0.1-0.9-0.1-1.3v-34.9c0-1 0.2-1.4 1.3-1.3 2 0.1 2 0 2.6 2 2 6.8 4.1 13.6 6.1 20.4 0.1 0.3 0.2 0.6 0.5 0.8v-1.2-20.9c0-0.9 0.2-1.2 1.1-1.1 2.5 0.1 2.5 0 2.5 2.5v33.7c0 0.5 0.1 1-0.4 1.3h-2.9c0-0.2 0-0.4-0.1-0.6-2.2-7.3-4.4-14.6-6.6-22 0-0.4-0.2-0.7-0.5-0.9v22.1c0 0.5 0.1 1.1-0.5 1.4h-3z"/><path d="m64.8 315.5v-16.5-19.8c0-1 0.3-1.2 1.2-1.2 2.1 0.1 2.1 0 2.7 2 2 6.8 4 13.5 6.1 20.3 0.1 0.3 0.2 0.6 0.5 0.8v-1.3-20.7c0-0.9 0.3-1.1 1.1-1.1 2.4 0 2.4 0 2.4 2.5v33.6c0 0.5 0.1 1.1-0.5 1.4h-2.9c0-0.3 0-0.6-0.1-0.9-2.2-7.2-4.3-14.4-6.5-21.6-0.1-0.3-0.1-0.8-0.5-0.9v22.4c0 0.5-0.2 0.9-0.6 1.1l-2.9-0.1z"/><path d="m169.6 315.5v-15.7-20.7c0-0.8 0.2-1.1 1-1.1 2.5 0 2.5 0 2.5 2.5v12.2c0 1 0.3 1.3 1.3 1.2 1.6-0.1 3.1-0.1 4.7 0 0.8 0 1-0.2 1-1v-13.7c0-1 0.2-1.3 1.2-1.3 2.4 0.1 2.4 0 2.4 2.3v34.9h-3.5v-16.7c0-1-0.3-1.2-1.2-1.2-1.5 0.1-3 0.1-4.6 0-1-0.1-1.2 0.3-1.2 1.2v15.6c0 0.6 0 1.1-0.6 1.3l-3 0.2z"/><path d="m213.3 315.5c0-0.4-0.1-0.9-0.1-1.3v-34.9c0-1.1 0.3-1.3 1.3-1.3 2.2 0.1 2.2 0 2.2 2.2v10.6c0.5-0.2 0.5-0.6 0.7-0.9 1.7-3.7 3.4-7.3 5-11 0.3-0.7 0.6-1 1.4-0.9 0.9 0.1 1.8 0 2.9 0-1.1 2.4-2.1 4.7-3.2 7-0.7 1.6-1.4 3.3-2.3 4.9-0.7 1.3-0.8 2.8-0.3 4.2 2.1 7 4.2 14.1 6.2 21.1l-3.6 0.1c-0.3-0.3-0.3-0.7-0.4-1.1-1.5-5.2-3.1-10.5-4.6-15.7-0.1-0.4-0.1-0.9-0.5-1.3-1.3 2.4-1.3 2.4-1.3 5v12c0 0.5 0 1-0.5 1.3h-2.9z"/><path d="m36.5 315.5c0-0.4-0.1-0.9-0.1-1.3 0-2.1-0.1-4.2 0-6.2 0.3-5.1-0.5-10.3-2.2-15.2-1.5-4.5-2.6-9.1-4-13.7-0.3-0.8-0.3-1.2 0.8-1.2 2.6 0.1 2.6 0 3.3 2.6 1.2 4.2 2.4 8.5 3.9 12.7 0.6-2.1 1.2-4.2 1.8-6.2 0.8-2.7 1.6-5.4 2.3-8.2 0.2-0.7 0.5-0.9 1.2-0.9 0.9 0.1 1.8 0 2.8 0-0.5 1.8-1 3.6-1.5 5.3-1.6 5.4-3.1 10.7-4.7 16.1-0.2 0.7-0.3 1.4-0.3 2.1v12.7c0 0.5 0 1-0.5 1.3l-2.8 0.1z"/><path d="m141.3 315.5c0-0.5-0.1-0.9-0.1-1.4v-31.8c0-1-0.2-1.4-1.2-1.2-0.5 0.1-1.1-0.1-1.7 0-1.2 0.2-1.7-0.2-1.6-1.5 0.1-1.5 0-1.6 1.6-1.6h9.9c0.8 0 1 0.2 1 1 0 2.1 0 2.1-2 2.1-2.5 0-2.5 0-2.5 2.5v30.6c0 0.5 0.1 1.1-0.5 1.4h-2.9z"/><path d="m205.1 315.5v-2.9-33.5c0-1 0.3-1.2 1.2-1.2 2.4 0.1 2.4 0 2.4 2.4v33.7c0 0.6 0 1.1-0.6 1.4h-3z"/><path d="m264.7 315.2v-36c0-1 0.3-1.3 1.2-1.2 0.8 0.1 1.6 0 2.4 0.1v37.2l-3.6-0.1z"/><path d="m268.2 273.8c-0.3-0.1-0.3 0.2-0.5 0.4-0.7 0.7-1.9 0.6-2.6-0.1s-0.6-1.9 0.1-2.6c0.8-0.6 1.9-0.6 2.6 0.2l0.4 0.4v1.7z"/><path d="m200.8 315.2v0.3h-12.5v-0.2l12.5-0.1z"/><path d="m231.1 315.5v-0.2l12.4-0.1v0.3h-12.4z"/><path d="m47.6 315.2 0.1 0.3h-3.8l0.1-0.3c1.2 0.1 2.4 0.1 3.6 0z"/><path d="m56.9 315.5v-0.2h3.5v0.3l-3.5-0.1z"/><path d="m104.8 315.2v0.3h-3.6v-0.3h3.6z"/><path d="m179.9 315.5v-0.3h3.5v0.3h-3.5z"/><path d="m223.6 315.5v-0.2l3.6-0.1v0.3h-3.6z"/><path d="m264.7 315.2 3.6 0.1c-0.7 0.5-1.4 0.1-2.2 0.2h-1.4v-0.3z"/><path class="st0" d="m147.5 151.5c0.6 1.1 1.3 2.1 2.2 3 2.6 3.2 4.9 6.6 7.4 9.9l3.6 5.5c1.4-1.5 2.7-3.2 3.9-4.9-0.2 2.5-0.2 4.9 0 7.4 0.3 2.3 0.8 4.5 1.6 6.6 0.3 0.7 0.6 0.8 1.3 0.6 2.1-0.5 3.6-2.2 3.9-4.3 1.8 2.8 3 5.9 3.6 9.1 0.4 2.8 0.5 5.6 0.2 8.4-0.2 3.8 1.2 7.6 3.8 10.4 0.5 0.6 0.8 0.6 1.4 0.1 6.5-5.8 8.4-16.3 4.1-23.9-2.4-3.9-3.8-8.4-4.2-13 0-0.9 0.1-1 0.9-0.6 5.1 2.5 9.8 5.7 13.9 9.6 0.6 0.7 1.6 0.8 2.4 0.5 1.5-0.6 2.7-1.6 3.6-2.9 0 2.8 0.5 5.6 1.3 8.2 1.4 4 3.7 7.6 6.8 10.4 0.8 0.8 1.9 1 2.9 0.6 1.2-0.5 2.2-1.2 3.1-2.2-0.2 1-0.4 1.9-0.6 2.9-0.9 4.9-0.5 10 1.1 14.8 3.1 9.4 4.1 19.1 2 28.8-2.2 10.3-11.5 18.1-22 19.2-12.3 1.3-23.7-6.5-27-18.4-0.4-1.5-0.7-3.1-0.8-4.7 3.1 1.3 6.1 2.7 9.2 4 0.6 0.2 0.7 0.7 0.8 1.2 1.2 6.3 7.2 10.4 13.5 9.3 0.5-0.1 1-0.2 1.5-0.4 3.2-1.1 3.5-1.4 3.4-4.7v-0.2c4.8-1.6 7.7-4.9 8.4-9.9 0.4-3.2 0.4-6.4 0.1-9.6-0.8-8.8-4.2-17.1-9.8-23.9-0.5-0.6-0.7-0.5-1.1 0.1-1.3 2.2-2.2 4.6-2.9 7.1-1 4-2.9 7.6-5.4 10.8-1.1 1.4-2.7 2.4-3.8 3.8-3.1 3.9-3.6 8.2-1.9 12.7-0.4-0.2-0.8-0.3-1.2-0.5-21.2-9.9-42.5-19.7-63.7-29.6-1.5-0.6-3-1.3-4.4-2.2-1.1-1.7-2.4-3.2-3.5-5-3.7-6.1-5.4-13.2-4.9-20.2 1 1.5 2.2 2.9 3.6 4 3 2.5 6.8 3.7 10.7 3.6 0.5 0 0.9 0.2 1.2 0.6 0.9 1.2 2.3 1.9 3.8 1.9 0.6 0 0.9-0.1 0.9-0.8 0.2-3.2 0.4-6.4 0.9-9.5 0.1-0.4 0-0.9 0.4-1.3 2.6 7.4 6 14.5 10.1 21.1 0.2-2.1 0.4-4 0.5-5.8 0.8-8.1 2.7-16 5.5-23.6 0.1-0.4 0.4-0.7 0.7-0.9 5.4-3.4 7.1-8.7 4.8-14.7v-0.4-0.1c1.2 0.5 1.5 1.4 2.2 2z"/><path class="st0" d="m152.7 225.7h-1-71-1.1c0.1-0.5 0.4-0.9 0.8-1.3 2.4-3 4.6-6.1 6.5-9.5 0.4-0.6 0.7-0.8 1.3-0.3 2 1.3 4.1 2.6 6.3 4 0.8-5.9 1.7-11.6 2.5-17.4 0.1 0.1 0.3 0.1 0.4 0.2 14.2 6.2 28.4 12.4 42.5 18.6 4.4 2 8.6 3.9 12.8 5.7z"/><path d="m152.7 225.7c-4.2-1.9-8.4-3.8-12.6-5.6-14.2-6.2-28.3-12.4-42.5-18.6-0.1-0.1-0.3-0.1-0.4-0.2-5.7-2.5-11.3-5-17-7.5-0.3-0.1-1.2 0-0.8-0.9 0.3-0.8 0.7-0.7 1.4-0.4 19.4 8.6 38.9 17.1 58.3 25.6l39 17.1c0.6 0.3 1 0.5 1.4-0.4s-0.1-1.1-0.7-1.3c-32.1-14.4-64.2-28.7-96.3-43.1l-1.2-0.6c1.3-2.4 1.3-2.4 3.6-1.3 8.3 3.9 16.6 7.7 24.9 11.6 0.3 0.1 0.6 0.4 1 0.3 1.4 0.9 2.9 1.6 4.4 2.2 21.2 9.9 42.4 19.7 63.7 29.6 0.4 0.2 0.8 0.3 1.2 0.5 0.4 0.4 0.7 0 1.1-0.2 4.1-1.7 8.7-0.8 11.9 2.3 1.8 1.8 3 4.2 3.4 6.7v0.2c0 3.4-0.2 3.7-3.4 4.7-6.1 2-12.6-1.3-14.6-7.3-0.2-0.5-0.3-1-0.4-1.5s-0.2-1-0.8-1.2c-3.1-1.3-6.1-2.7-9.2-4l-15.4-6.7z"/><path d="m60.4 315.2h-3.5c-0.5-2.8-1-5.6-1.5-8.3-0.1-0.8-0.3-1.1-1.2-1.1-1.4 0.1-2.7 0.1-4.1 0-0.8 0-1 0.2-1.1 1-0.4 2.8-0.9 5.6-1.4 8.4-1.2 0.2-2.5 0.2-3.7 0 1.3-7.7 2.7-15.4 4-23.1 0.8-4.4 1.5-8.7 2.2-13.1 0.1-0.7 0.4-1 1.2-1 2.5 0.1 2.5 0 3 2.4 1.9 11.1 3.9 22.2 5.8 33.3 0.2 0.5 0 1.1 0.3 1.5zm-8.1-26.1h-0.2c-0.7 4.2-1.5 8.3-2.2 12.4-0.1 0.6-0.1 0.9 0.7 0.9 1.1-0.1 2.2 0 3.2 0 0.6 0 0.8-0.1 0.7-0.7-0.8-4.2-1.5-8.4-2.2-12.6z"/><path d="m86.5 296.5c0 4 0.2 8.1 0.9 12.1 0.3 2.1 1.3 3.2 2.9 3.2 1.6 0.1 2.9-1 3-2.6v-0.2-8c0-0.6-0.3-0.7-0.8-0.7-2.3-0.1-2.2-0.1-2.3-2.3 0-1 0.3-1.3 1.3-1.2 1.5 0.1 3 0 4.4 0 0.7 0 0.9 0.1 0.9 0.9v11.6c-0.2 3.6-3.2 6.4-6.8 6.2-3-0.1-5.6-2.4-6.1-5.4-1.2-7.4-1.4-15-0.6-22.4 0.1-1.8 0.4-3.5 0.8-5.2 0.9-3.1 3.9-5.1 7.2-4.6 3 0.4 5.4 2.9 5.6 6 0.1 2.2 0.1 2.1-2 2.2-1.2 0.1-1.6-0.2-1.6-1.5 0.2-1.6-1-3.1-2.6-3.2-1.6-0.2-3.1 1-3.2 2.6v0.1c-0.7 3.8-1.1 8.1-1 12.4z"/><path d="m246.4 307.8c0-2 0-2 1.9-2 1.6 0 1.6 0 1.6 1.6 0 2.7 1.2 4.3 3.4 4.3 1.9 0.1 3.4-1.4 3.5-3.3v-0.7c-0.6-3.9-2.3-7.5-5-10.4-3.3-3.5-5.1-8.2-5-13 0.1-3.7 3.2-6.7 6.9-6.6 3.4 0.1 6.2 2.6 6.6 6 0.3 2.9 0 3.2-2.9 2.9-0.5 0-0.6-0.2-0.6-0.7v-1.7c-0.2-1.7-1.7-3-3.4-3-1.8 0.1-3.2 1.7-3 3.5 0.1 3.9 1.6 7.6 4.3 10.4 3.4 3.6 5.4 8.2 5.8 13.1 0.3 3.1-2.3 6.2-5.5 6.9s-6.5-1-7.9-4c-0.5-1-0.7-2.2-0.7-3.3z"/><path d="m153.3 296.7v-17.4c0-1.1 0.3-1.3 1.3-1.3 3.4 0.1 6.7 0 10.1 0 0.8 0 1.1 0.1 1.1 1 0 2.5 0 2.5-2.5 2.5h-5.5c-0.7 0-0.9 0.1-0.9 0.8v10.7c0 0.7 0.2 0.9 0.9 0.9h4.3c0.6 0 0.8 0.1 0.8 0.8 0.1 2.7 0.1 2.7-2.6 2.7-1.1 0-2.6-0.5-3.2 0.2-0.5 0.6-0.2 2-0.2 3.1v9.7c0 1 0.2 1.3 1.2 1.3 2.2-0.1 4.5 0 6.7 0 0.7 0 1 0.1 1 0.9 0 2.7 0 2.7-2.6 2.7h-8.6c-1 0-1.2-0.3-1.2-1.3 0-5.7-0.1-11.5-0.1-17.3z"/><path d="m243.5 315.2-12.4 0.1v-11.2-24.8c0-1.1 0.3-1.3 1.3-1.3 3.4 0.1 6.8 0 10.2 0 0.8 0 1 0.2 1 1 0 2.6 0 2.6-2.5 2.6h-5.4c-0.7 0-1.1 0.1-1 1v10.6c0 0.7 0.2 0.9 0.9 0.9h4.2c0.7 0 1 0.1 1 0.9 0 2.6 0 2.6-2.5 2.6-1.1 0-2.6-0.5-3.2 0.2-0.7 0.7-0.2 2.2-0.2 3.3v9.6c0 0.9 0.2 1.2 1.2 1.2 2.3-0.1 4.6 0 6.8 0 0.8 0 1.1 0.2 1 1-0.5 0.6-0.4 1.5-0.4 2.3z"/><path d="m200.8 315.2-12.4 0.1v-11.3-24.7c0-0.9 0.1-1.3 1.2-1.3 2.3 0.1 2.4 0 2.4 2.4v30c0 1 0.2 1.4 1.3 1.3 2.3-0.1 4.6 0 6.8 0 0.7 0 0.9 0.2 0.9 0.9-0.3 0.9-0.2 1.7-0.2 2.6z"/><path d="m104.8 315.2h-3.5v-36.3c0-0.8 0.2-0.9 0.9-0.9 2.6 0 2.6 0 2.6 2.6v34.6z"/><path d="m208.7 272.9c0 1-0.9 1.8-1.9 1.7-1 0-1.7-0.8-1.7-1.8 0-0.9 0.7-1.7 1.6-1.8h0.2c1 0.1 1.8 0.9 1.8 1.9z"/><path class="st2" d="m145.6 149.5-0.2-0.1 0.1-0.1 0.1 0.2z"/><path class="st3" d="m158 93.4v-6.7c-0.1-0.4 0.2-0.8 0.5-1 2-0.9 3.9-1.9 6.1-2.9-0.4 2.7-0.7 5.2-1 7.7 0 0.2-0.1 0.3-0.3 0.3-1.8 0.9-3.5 1.8-5.3 2.6z"/><path class="st3" d="m120.8 61.2 0.4 0.4c1.1 1.1 2.2 2.3 3.4 3.4 0.4 0.4 0.4 0.6 0.1 1.1-1.4 1.6-2.7 3.2-4 4.8-0.4 0.5-0.6 0.5-0.9 0-1.1-1.8-2.2-3.6-3.3-5.4-0.2-0.3-0.4-0.5 0-0.8 1.4-1.1 2.7-2.1 4-3.2 0.1-0.2 0.2-0.2 0.3-0.3z"/><path class="st4" d="m185.3 68.3 4.3-3.1 3.7 7.7-8-4.6z"/><path class="st3" d="m150.4 94.5c-0.7-1-1.2-1.8-1.7-2.6-0.1-0.1-0.2-0.3-0.2-0.4 0.2-1 0.6-2 1-2.9 0.3-1 0.7-1.8 1.9-2.1 0.8-0.2 1.7-0.5 2.5-0.9-1.2 3-2.3 5.8-3.5 8.9z"/><path class="st4" d="m151.6 78.5h5.9c-0.5 1-1.2 1.9-1.9 2.8-0.7 0.8-3.1 0.2-3.4-0.8-0.2-0.6-0.4-1.3-0.6-2z"/><path class="st5" d="m196.5 241.6c-0.4-2.5-1.6-4.9-3.4-6.7-3.2-3-7.8-3.9-11.9-2.3-0.3 0.1-0.6 0.6-1.1 0.2-1.7-4.6-1.2-8.9 1.9-12.7 1.1-1.4 2.6-2.4 3.8-3.8 2.6-3.2 4.4-6.9 5.4-10.8 0.7-2.5 1.6-4.8 2.9-7.1 0.4-0.6 0.6-0.7 1.1-0.1 5.6 6.8 9 15.1 9.8 23.9 0.3 3.2 0.3 6.4-0.1 9.6-0.8 4.9-3.6 8.2-8.4 9.8z"/><path class="st6" d="m50.3 337.8h5.9c0.8 2.4 1.8 4.8 2.9 7.1 1.5 2.4 3.1 4.7 4.9 6.9l-4.3 4.6s-1.2-1.5-2.7-0.7c-0.9 0.4-1.4 1.3-1.4 2.2 0.2 1.1 0.5 2.1 1 3.1 1.5 2.4 6.1 5.7 6.1 5.7s5.2 4.9 7.4 7.7c2.5 3.4 6.9 10.6 6.9 10.6 0.9 1 2 1.7 3.3 2.1 0.9 0.2 1.8 0.3 2.7 0.1 0.7-0.2 1.4-0.4 2-0.8 0 0 0.1-1.1 0.2-1.9v-1.7-0.3c0.1-0.1 0.1-0.2 0.2-0.3l3.1-3s5.9 2.3 8.6 3.8c2.3 1.3 6.4 4.4 6.4 4.4l-1.1 6.8h-2.2v1c0.8 0.6 1.4 1.3 2 2.1 0.7 1.1 1.3 2.3 1.7 3.5 0.3 1.3 0.3 2.6 0.1 3.9-0.1 0.7-0.3 1.4-0.5 2.1-0.4 1-0.9 1.9-1.5 2.8-0.6 0.8-1.4 1.5-2.3 2.1-1.6 0.8-3.3 1.2-5 1.4-0.9 0.1-1.9 0-2.8-0.1-0.6-0.1-1.2-0.3-1.7-0.4-1.9-0.8-3.7-1.7-5.4-2.7-0.6-0.3-1.3-0.6-2-0.9-2.4-0.8-4.9-1.4-7.4-1.8-3.8-0.5-7.7-0.6-11.6-0.3-3.2 0.4-6.4 1.1-9.4 2.2-2.3 0.9-4.5 1.9-6.6 3.2l-1.5-2.5c2-1.4 4.3-2.6 6.6-3.4 3.5-1.2 7.1-2 10.8-2.4 3.9-0.4 7.9-0.3 11.8 0.2 2.8 0.4 5.6 1.1 8.2 2 1 0.4 2 0.8 2.9 1.3 1.4 0.7 2.9 1.7 4.1 2.2 0.6 0.2 1.2 0.3 1.7 0.5 0.7 0.1 1.3 0.1 2 0.1 0.8-0.1 1.5-0.2 2.2-0.4 0.4-0.1 0.8-0.2 1.2-0.4 0.5-0.2 0.9-0.5 1.3-0.9 0.5-0.6 1-1.2 1.3-1.9 0.3-0.6 0.6-1.3 0.7-2 0.2-1.1 0.1-2.3-0.2-3.5-0.4-1-0.9-1.9-1.6-2.7-0.5-0.6-1.1-1-1.8-1.3-1.7 0.5-3.5 0.8-5.3 1.1-1.9 0.1-3.7 0.1-5.6 0 0 0-15.6-2.6-28.8-17.4-3.6-4.1-6.5-8.7-8.7-13.7-1.6-3.5-2.8-7.1-3.6-10.9-0.5-1.5-0.8-3-0.9-4.5 0-1.3 0.2-2.6 0.5-3.8 0.4-1 0.8-2.1 1.3-3 0.8-1.8 3.9-4.2 3.9-4.2v-3z"/><path d="m155.7 396.1h-7.2v-30.6h-5.1v-6.2c3-0.6 5.1-2 6.5-4.1h5.9v40.9z"/><path d="m189.5 396.1h-7.2v-30.6h-5.1v-6.2c3-0.6 5.1-2 6.5-4.1h5.9v40.9z"/><path d="m242.2 396.1h-32.9c0.8-10.7 6.4-18.2 16.7-22.6 2.7-1.1 4.9-2.2 6.6-3.2s2.5-2.2 2.4-3.6c0-1.3-0.7-2.5-2-3.4s-3.4-1.4-6.3-1.4c-4.3 0.1-8.1 1.8-11.3 5.1l-5.9-4.8c4.9-5 10.6-7.6 17.1-7.7 4.8 0 8.6 1.2 11.5 3.6 2.8 2.4 4.3 5.2 4.3 8.6 0 2.9-0.8 5.2-2.3 6.9s-4.4 3.4-8.6 5.3c-6.7 3.2-10.7 6.5-12 9.9h22.9v7.3z"/></svg>