<?xml version="1.0" encoding="UTF-8" standalone="no"?>
<svg
   xmlns:dc="http://purl.org/dc/elements/1.1/"
   xmlns:cc="http://creativecommons.org/ns#"
   xmlns:rdf="http://www.w3.org/1999/02/22-rdf-syntax-ns#"
   xmlns:svg="http://www.w3.org/2000/svg"
   xmlns="http://www.w3.org/2000/svg"
   xmlns:sodipodi="http://sodipodi.sourceforge.net/DTD/sodipodi-0.dtd"
   xmlns:inkscape="http://www.inkscape.org/namespaces/inkscape"
   sodipodi:docname="B-43.svg"
   inkscape:version="1.0 (4035a4fb49, 2020-05-01)"
   id="svg47496"
   version="1.1"
   viewBox="0 0 105.85006 158.75"
   height="158.75mm"
   width="105.85006mm">
  <defs
     id="defs47490" />
  <sodipodi:namedview
     inkscape:window-maximized="1"
     inkscape:window-y="-9"
     inkscape:window-x="-9"
     inkscape:window-height="1001"
     inkscape:window-width="1920"
     showgrid="false"
     inkscape:document-rotation="0"
     inkscape:current-layer="layer1"
     inkscape:document-units="mm"
     inkscape:cy="414.61767"
     inkscape:cx="52.446703"
     inkscape:zoom="0.98994949"
     inkscape:pageshadow="2"
     inkscape:pageopacity="0.0"
     borderopacity="1.0"
     bordercolor="#666666"
     pagecolor="#ffffff"
     id="base" />
  <metadata
     id="metadata47493">
    <rdf:RDF>
      <cc:Work
         rdf:about="">
        <dc:format>image/svg+xml</dc:format>
        <dc:type
           rdf:resource="http://purl.org/dc/dcmitype/StillImage" />
        <dc:title></dc:title>
      </cc:Work>
    </rdf:RDF>
  </metadata>
  <g
     transform="translate(193.82336,-2.966688)"
     id="layer1"
     inkscape:groupmode="layer"
     inkscape:label="Layer 1">
    <path
       id="rect36502-8"
       style="opacity:1;fill:#00408c;fill-opacity:1;fill-rule:evenodd;stroke:none;stroke-width:0.502707;stroke-linecap:square;stroke-linejoin:round;stroke-miterlimit:2;paint-order:stroke fill markers"
       d="m -187.11827,2.966688 h 92.43988 c 3.714626,0 6.705086,2.9904633 6.705086,6.7050815 V 155.01161 c 0,3.71461 -2.99046,6.70508 -6.705086,6.70508 h -92.43988 c -3.71463,0 -6.70509,-2.99047 -6.70509,-6.70508 V 9.6717695 c 0,-3.7146182 2.99046,-6.7050815 6.70509,-6.7050815 z" />
    <path
       id="rect36504-8"
       style="opacity:1;fill:#ffffff;fill-rule:evenodd;stroke:none;stroke-width:0.502707;stroke-linecap:square;stroke-linejoin:round;stroke-miterlimit:2;paint-order:stroke fill markers"
       d="m -187.1335,4.7514352 c -2.71162,0 -4.8949,2.182383 -4.8949,4.8939934 V 155.10642 c 0,2.7116 2.18328,4.8949 4.8949,4.8949 h 92.497407 c 2.711598,0 4.893983,-2.1833 4.893983,-4.8949 V 9.6454286 c 0,-2.7116104 -2.182385,-4.8939934 -4.893983,-4.8939934 z m -0.10934,1.7516271 h 92.63865 c 1.699583,0 3.067649,1.3680524 3.067631,3.0676325 V 155.06539 c 0,1.69961 -1.368048,3.06855 -3.067631,3.06855 h -92.63865 c -1.69959,0 -3.06764,-1.36894 -3.06764,-3.06855 V 9.5706948 c 0,-1.6995801 1.36805,-3.0676325 3.06764,-3.0676325 z m 10.80142,14.1160327 v 70.533663 h 70.5528 V 20.619095 Z m 4.03457,93.552745 c -1.0951,-0.0182 -2.19722,0.16261 -3.20707,0.54317 -0.50694,0.19108 -1.36898,0.61826 -1.73341,0.85851 -0.80287,0.52927 -1.62412,1.29437 -2.24649,2.09339 -0.34294,0.4403 -0.54248,0.86663 -0.7464,1.59396 l -0.11657,0.41649 -0.0455,0.85851 c -4.5e-4,0.85772 0.0447,0.85821 0.16226,1.29868 0.22761,0.85261 0.47447,1.3425 1.05991,2.10341 0.0579,0.0751 0.1455,0.18059 0.19412,0.23423 l 0.0884,0.0984 -0.24789,0.22237 c -0.52783,0.47637 -0.88365,0.90151 -1.24218,1.48187 -0.24158,0.39106 -0.37057,0.67155 -0.55776,1.213 -0.26134,0.7558 -0.30389,1.02966 -0.30531,1.98221 -0.001,0.90699 0.008,0.98431 0.23788,1.77533 0.23431,0.80977 0.67504,1.61155 1.24218,2.26016 1.31508,1.50405 3.72565,2.68305 6.00857,2.93914 0.20648,0.0231 0.4801,0.0543 0.60789,0.0685 l 9.1e-4,-9.3e-4 c 0.35578,0.0399 1.05583,0.0397 1.39439,0 0.16719,-0.0196 0.45665,-0.0525 0.64342,-0.0728 1.03768,-0.11393 2.1096,-0.43051 3.29821,-0.97516 0.71612,-0.32817 1.70981,-1.00059 2.2556,-1.52563 1.31541,-1.26531 1.99644,-2.95352 1.90293,-4.71808 -0.036,-0.67848 -0.10373,-1.08049 -0.26247,-1.55569 -0.40473,-1.21139 -0.74945,-1.77202 -1.61128,-2.61834 l -0.4812,-0.47208 0.1395,-0.16684 c 0.89532,-1.06914 1.34565,-2.25012 1.34425,-3.51785 -10e-4,-0.78427 -0.12661,-1.40518 -0.42925,-2.12708 -0.22316,-0.53247 -0.61633,-1.04901 -1.33604,-1.75438 -0.95177,-0.93282 -1.60349,-1.36532 -2.84436,-1.88743 -0.98317,-0.41369 -2.07184,-0.63073 -3.16696,-0.64888 z m 28.08988,0 c -1.09509,-0.0182 -2.19629,0.16261 -3.20614,0.54317 -0.50694,0.19108 -1.3699,0.61826 -1.73433,0.85851 -0.80288,0.52927 -1.6232,1.29437 -2.24557,2.09339 -0.34297,0.4403 -0.5434,0.86663 -0.74732,1.59396 l -0.11676,0.41649 -0.0455,0.85851 c -4.7e-4,0.85772 0.0447,0.85821 0.16225,1.29868 0.2276,0.85261 0.47446,1.3425 1.05991,2.10341 0.0578,0.0751 0.14533,0.18059 0.19412,0.23423 l 0.0884,0.0984 -0.24697,0.22237 c -0.52783,0.47637 -0.88457,0.90151 -1.2431,1.48187 -0.24158,0.39106 -0.37055,0.67155 -0.55776,1.213 -0.26132,0.7558 -0.30299,1.02966 -0.30439,1.98221 -0.001,0.90699 0.008,0.98431 0.23787,1.77533 0.23432,0.80977 0.67505,1.61155 1.24219,2.26016 1.31508,1.50405 3.72565,2.68305 6.00858,2.93914 0.20647,0.0231 0.48009,0.0543 0.60788,0.0685 v -9.3e-4 c 0.35576,0.0399 1.05582,0.0397 1.39437,0 0.16719,-0.0196 0.45663,-0.0525 0.64341,-0.0728 1.03769,-0.11393 2.10961,-0.43051 3.29821,-0.97516 0.71613,-0.32817 1.71073,-1.00059 2.25653,-1.52563 1.3154,-1.26531 1.99551,-2.95352 1.90201,-4.71808 -0.036,-0.67848 -0.10373,-1.08049 -0.26248,-1.55569 -0.40473,-1.21139 -0.74945,-1.77202 -1.61128,-2.61834 l -0.48119,-0.47208 0.1395,-0.16684 c 0.89531,-1.06914 1.34566,-2.25012 1.34425,-3.51785 -0.001,-0.78427 -0.12663,-1.40518 -0.42923,-2.12708 -0.22319,-0.53247 -0.61635,-1.04901 -1.33606,-1.75438 -0.95178,-0.93282 -1.60349,-1.36532 -2.84435,-1.88743 -0.98318,-0.41369 -2.07186,-0.63073 -3.16697,-0.64888 z m 35.32334,0 c -1.09511,-0.0182 -2.19721,0.16261 -3.20706,0.54317 -0.50694,0.19108 -1.36988,0.61826 -1.73432,0.85851 -0.80288,0.52927 -1.62322,1.29437 -2.24558,2.09339 -0.34295,0.4403 -0.54339,0.86663 -0.74732,1.59396 l -0.11658,0.41649 -0.0446,0.85851 c -4.6e-4,0.85772 0.0437,0.85821 0.16137,1.29868 0.22761,0.85261 0.47539,1.3425 1.06083,2.10341 0.0578,0.0751 0.14444,0.18059 0.19321,0.23423 l 0.0884,0.0984 -0.24697,0.22237 c -0.52783,0.47637 -0.88457,0.90151 -1.2431,1.48187 -0.24156,0.39106 -0.37055,0.67155 -0.55774,1.213 -0.26134,0.7558 -0.303,1.02966 -0.30439,1.98221 -0.001,0.90699 0.008,0.98431 0.23786,1.77533 0.23432,0.80977 0.67504,1.61155 1.24218,2.26016 1.31508,1.50405 3.72566,2.68305 6.00859,2.93914 0.20646,0.0231 0.48008,0.0543 0.60787,0.0685 v -9.3e-4 c 0.35577,0.0399 1.05583,0.0397 1.39438,0 0.16719,-0.0196 0.45662,-0.0525 0.64343,-0.0728 1.03767,-0.11393 2.1105,-0.43051 3.2991,-0.97516 0.71612,-0.32817 1.70982,-1.00059 2.25561,-1.52563 1.31542,-1.26531 1.99643,-2.95352 1.90292,-4.71808 -0.036,-0.67848 -0.10458,-1.08049 -0.26338,-1.55569 -0.40471,-1.21139 -0.74945,-1.77202 -1.61129,-2.61834 l -0.48119,-0.47208 0.1395,-0.16684 c 0.8953,-1.06914 1.34655,-2.25012 1.34515,-3.51785 -10e-4,-0.78427 -0.12663,-1.40518 -0.42924,-2.12708 -0.22317,-0.53247 -0.61725,-1.04901 -1.33697,-1.75438 -0.95177,-0.93282 -1.60349,-1.36532 -2.84435,-1.88743 -0.98316,-0.41369 -2.07094,-0.63073 -3.16606,-0.64888 z m -63.54537,3.97536 c 0.60296,-9.4e-4 0.64308,0.003 1.10822,0.12574 0.53227,0.13968 1.10655,0.37901 1.42172,0.59239 0.11252,0.0762 0.2702,0.18167 0.34997,0.23422 0.19736,0.12998 0.79624,0.72004 0.92774,0.91408 0.0945,0.1395 0.10759,0.19356 0.1194,0.46661 0.0196,0.49636 -0.008,0.55647 -0.4885,1.03805 -0.70644,0.70831 -1.33625,1.07597 -2.27656,1.32876 -0.35238,0.0948 -0.46054,0.10704 -1.03712,0.11851 -0.7157,0.0141 -0.7657,0.0106 -1.19753,-0.0884 -1.00311,-0.22949 -1.90012,-0.75876 -2.57824,-1.52195 -0.28166,-0.3168 -0.32716,-0.42681 -0.32716,-0.78378 0,-0.35157 0.0453,-0.46544 0.30802,-0.77282 0.65808,-0.77007 1.56076,-1.3025 2.63294,-1.55388 0.36299,-0.0852 0.48469,-0.097 1.0371,-0.0975 z m 28.08989,0 c 0.60295,-9.4e-4 0.64309,0.003 1.10822,0.12574 0.53227,0.13968 1.10747,0.37901 1.42263,0.59239 0.11252,0.0762 0.26929,0.18167 0.34906,0.23422 0.19735,0.12998 0.79713,0.72004 0.92866,0.91408 0.0945,0.1395 0.1067,0.19356 0.11851,0.46661 0.0196,0.49636 -0.008,0.55647 -0.4885,1.03805 -0.70643,0.70831 -1.33626,1.07597 -2.27656,1.32876 -0.35237,0.0948 -0.45962,0.10704 -1.03623,0.11851 -0.71569,0.0141 -0.76658,0.0106 -1.19842,-0.0884 -1.00311,-0.22949 -1.90013,-0.75876 -2.57824,-1.52195 -0.28166,-0.3168 -0.32717,-0.42681 -0.32717,-0.78378 0,-0.35157 0.0453,-0.46544 0.30804,-0.77282 0.65808,-0.77007 1.56167,-1.3025 2.63382,-1.55388 0.36302,-0.0852 0.48381,-0.097 1.03621,-0.0975 z m 35.32334,0 c 0.60295,-9.4e-4 0.64307,0.003 1.10822,0.12574 0.53227,0.13968 1.10654,0.37901 1.42171,0.59239 0.11252,0.0762 0.27021,0.18167 0.34996,0.23422 0.19737,0.12998 0.79625,0.72004 0.92776,0.91408 0.0945,0.1395 0.10759,0.19356 0.1194,0.46661 0.0196,0.49636 -0.008,0.55647 -0.4885,1.03805 -0.70644,0.70831 -1.33627,1.07597 -2.27656,1.32876 -0.35239,0.0948 -0.46054,0.10704 -1.03713,0.11851 -0.71571,0.0141 -0.76571,0.0106 -1.19752,-0.0884 -1.00311,-0.22949 -1.90013,-0.75876 -2.57825,-1.52195 -0.28166,-0.3168 -0.32808,-0.42681 -0.32808,-0.78378 0,-0.35157 0.0453,-0.46544 0.30804,-0.77282 0.65808,-0.77007 1.56167,-1.3025 2.63382,-1.55388 0.36301,-0.0852 0.48472,-0.097 1.03713,-0.0975 z m -63.32117,7.95249 c 0.43428,0.005 0.86518,0.0383 1.14101,0.0949 0.47027,0.0964 1.1226,0.31632 1.604,0.54134 0.38581,0.18035 1.07547,0.62289 1.30507,0.83753 0.2657,0.2484 0.49722,0.62755 0.61516,1.00615 0.0566,0.18177 0.0776,0.73997 0.0374,0.98244 -0.0531,0.31929 -0.19885,0.65169 -0.41922,0.95328 -0.1499,0.20516 -0.26538,0.30968 -0.58782,0.53314 -0.52174,0.36155 -0.92691,0.5799 -1.41078,0.75917 -0.6538,0.24224 -0.84241,0.29189 -1.4518,0.38369 -0.83475,0.12574 -1.24186,0.11568 -2.26563,-0.0564 -0.63536,-0.10687 -1.61469,-0.50581 -2.22736,-0.90772 -0.48728,-0.31964 -0.58429,-0.40022 -0.79927,-0.66255 -0.34816,-0.42478 -0.49706,-0.82997 -0.50033,-1.36431 -0.002,-0.35486 0.0159,-0.46465 0.12116,-0.76281 0.10564,-0.29727 0.18258,-0.4269 0.41557,-0.69992 0.26699,-0.31289 0.96008,-0.78529 1.50649,-1.02709 0.67672,-0.29951 1.13,-0.44124 1.7571,-0.54773 0.28735,-0.0489 0.72496,-0.0688 1.15924,-0.063 z m 28.08989,0 c 0.43428,0.005 0.86609,0.0383 1.14192,0.0949 0.47028,0.0964 1.12168,0.31632 1.60309,0.54134 0.38581,0.18035 1.07637,0.62289 1.30596,0.83753 0.26572,0.2484 0.49633,0.62755 0.61426,1.00615 0.0566,0.18177 0.0784,0.73997 0.0382,0.98244 -0.0531,0.31929 -0.19976,0.65169 -0.42014,0.95328 -0.14991,0.20516 -0.26448,0.30968 -0.58692,0.53314 -0.52173,0.36155 -0.92783,0.5799 -1.41168,0.75917 -0.65382,0.24224 -0.84242,0.29189 -1.45181,0.38369 -0.83473,0.12574 -1.24184,0.11568 -2.26564,-0.0564 -0.63535,-0.10687 -1.61466,-0.50581 -2.22736,-0.90772 -0.48726,-0.31964 -0.58427,-0.40022 -0.79925,-0.66255 -0.34818,-0.42478 -0.49617,-0.82997 -0.49943,-1.36431 -0.002,-0.35486 0.0141,-0.46465 0.12028,-0.76281 0.10563,-0.29727 0.18258,-0.4269 0.41556,-0.69992 0.267,-0.31289 0.96006,-0.78529 1.50648,-1.02709 0.67672,-0.29951 1.13094,-0.44124 1.75801,-0.54773 0.28737,-0.0489 0.72406,-0.0688 1.15834,-0.063 z m 35.32242,0 c 0.43429,0.005 0.86609,0.0383 1.14192,0.0949 0.47028,0.0964 1.12259,0.31632 1.604,0.54134 0.38582,0.18035 1.07545,0.62289 1.30508,0.83753 0.2657,0.2484 0.49722,0.62755 0.61515,1.00615 0.0566,0.18177 0.0776,0.73997 0.0374,0.98244 -0.0531,0.31929 -0.19976,0.65169 -0.42014,0.95328 -0.14991,0.20516 -0.26447,0.30968 -0.58691,0.53314 -0.52173,0.36155 -0.92782,0.5799 -1.41169,0.75917 -0.6538,0.24224 -0.8415,0.29189 -1.45089,0.38369 -0.83474,0.12574 -1.24275,0.11568 -2.26654,-0.0564 -0.63536,-0.10687 -1.6147,-0.50581 -2.22736,-0.90772 -0.48727,-0.31964 -0.58429,-0.40022 -0.79928,-0.66255 -0.34816,-0.42478 -0.49615,-0.82997 -0.49941,-1.36431 -0.002,-0.35486 0.0159,-0.46465 0.12116,-0.76281 0.10564,-0.29727 0.18169,-0.4269 0.41466,-0.69992 0.267,-0.31289 0.96008,-0.78529 1.50647,-1.02709 0.67673,-0.29951 1.13094,-0.44124 1.75802,-0.54773 0.28736,-0.0489 0.72407,-0.0688 1.15833,-0.063 z m -17.56826,5.65863 a 2.1803442,2.1803442 0 0 0 -2.14806,2.18088 2.1803442,2.1803442 0 0 0 2.18088,2.17997 2.1803442,2.1803442 0 0 0 2.17995,-2.17997 2.1803442,2.1803442 0 0 0 -2.17995,-2.18088 2.1803442,2.1803442 0 0 0 -0.0328,0 z" />
    <path
       id="path119092-0"
       style="font-style:normal;font-variant:normal;font-weight:normal;font-stretch:normal;font-size:30px;line-height:1.15;font-family:'Highway Gothic Wide';-inkscape-font-specification:'Highway Gothic Wide';opacity:1;fill:#000000;fill-opacity:1;stroke:none;stroke-width:0.264583;stroke-opacity:1"
       d="m -139.05206,29.422812 c 0,0 -10e-4,2.9857 -0.005,2.981967 -0.50918,-0.341954 -1.09416,-0.513095 -1.7562,-0.513095 -0.88222,0 -1.631,0.310445 -2.24559,0.931407 -0.62447,0.620982 -0.93687,1.370692 -0.93687,2.248321 h 9.3e-4 c 0,0.885906 0.31239,1.639201 0.93687,2.260168 0.61458,0.620967 1.36248,0.931412 2.24468,0.931412 0.6606,0 1.24504,-0.169851 1.75346,-0.510362 0.003,-0.0019 0.008,0.504893 0.008,0.504893 h 1.41535 c 0,0 0.005,-2.300205 0.005,-3.186111 0,-0.877629 -0.005,-5.6486 -0.005,-5.6486 z m -20.3971,0.0019 c -0.14056,-0.0019 -0.27429,0.0029 -0.39189,0.0029 h -4.07833 l 0.007,8.803722 h 1.58852 v -3.691003 l 1.53107,9.35e-4 2.06331,3.684622 h 1.84642 l -2.10706,-3.715607 c 0.45058,-0.08901 1.04242,-0.37191 1.39984,-0.765542 0.40267,-0.443421 0.7063,-0.99266 0.7063,-1.65229 0,-1.032785 -0.40612,-1.621466 -1.00614,-2.126199 -0.30785,-0.259094 -0.71079,-0.434416 -1.12917,-0.506717 -0.14162,-0.02459 -0.28868,-0.0328 -0.42924,-0.03462 z m -2.86624,1.599434 2.40326,0.0064 c 0.1395,0 0.2871,5.6e-5 0.43107,0.0064 0.1012,0.0019 0.20106,-0.006 0.29711,0.02007 0.12293,0.03206 0.2318,0.07836 0.34448,0.163132 0.098,0.07382 0.19558,0.171191 0.2552,0.283432 0.0802,0.150646 0.13015,0.330498 0.12398,0.496688 l 0.003,-0.0055 c -0.007,0.201261 -0.1171,0.455079 -0.24879,0.620636 -0.0667,0.08379 -0.22038,0.206846 -0.35816,0.257912 -0.23574,0.08779 -0.36258,0.05575 -0.75098,0.06197 l -2.49437,0.01093 z m 11.65263,0.875817 c -0.39913,-0.0203 -1.04683,0.0564 -1.55294,0.184094 -0.64393,0.162461 -1.11004,0.387328 -1.11004,0.387328 l 0.57688,1.286837 c 0,0 0.36746,-0.20427 1.03257,-0.339025 0.19415,-0.03932 0.47809,-0.07599 0.71906,-0.09569 0.14903,-0.01234 0.29809,-0.01877 0.44748,-0.01376 0.12116,0.0042 0.24631,-0.0014 0.36182,0.03556 0.32356,0.103331 0.68533,0.231869 0.88493,0.506715 0.0811,0.111812 0.16578,0.321233 0.19412,0.49669 0.0183,0.114333 -0.0182,0.346317 -0.0182,0.346317 0,0 -0.31824,-0.1395 -0.72088,-0.235128 -0.33714,-0.08009 -0.73995,-0.122041 -1.00523,-0.09296 -0.25117,0.02753 -0.50301,0.0557 -0.75825,0.117561 -0.67683,0.164031 -1.33899,0.49834 -1.78444,0.998851 -0.21705,0.243885 -0.28673,0.597379 -0.2807,0.916824 0.005,0.242118 0.0876,0.497085 0.23879,0.686252 0.13191,0.165002 0.27945,0.292082 0.44472,0.406468 0.35003,0.242257 0.75002,0.445399 1.13831,0.578711 0.48417,0.166252 1.01788,0.199113 1.52833,0.160397 0.41965,-0.03187 1.22032,-0.319888 1.22032,-0.319888 v 0.159481 h 1.4281 v -3.647257 c 0,-0.747354 -0.3724,-1.382842 -0.91592,-1.850965 -0.54352,-0.468132 -1.30994,-0.634914 -2.06879,-0.673495 z m 29.0605,0.0127 c -0.88706,0 -1.63545,0.308514 -2.24651,0.925943 -0.61105,0.617426 -0.91682,1.367458 -0.91682,2.248321 0,0.872626 0.30577,1.617228 0.91682,2.23465 0.61106,0.617425 1.35945,0.925937 2.24651,0.925937 0.87716,0 1.62174,-0.308512 2.23282,-0.925937 0.62091,-0.617422 0.93139,-1.362024 0.93139,-2.23465 0,-0.880863 -0.31048,-1.630895 -0.93139,-2.248321 -0.61108,-0.617429 -1.35566,-0.925943 -2.23282,-0.925943 z m -12.86201,0.01729 1.79992,4.212297 0.9214,2.128022 -0.33084,0.598762 c 2e-5,0 -0.0516,0.09574 -0.15043,0.173167 -0.0649,0.05096 -0.16754,0.09107 -0.22875,0.09934 -0.0781,0.01058 -0.18871,0.006 -0.28253,-0.03738 -0.10775,-0.04985 -0.19412,-0.140346 -0.19412,-0.140346 l -1.18022,1.051709 c 0,0 0.27044,0.318769 0.66438,0.508538 0.35302,0.170062 0.81476,0.214321 1.11551,0.194115 0.27378,-0.01843 0.67362,-0.146077 0.96878,-0.342667 0.31603,-0.210495 0.51766,-0.490312 0.51766,-0.490312 l 3.40483,-7.955247 h -1.52652 l -1.98494,4.627878 -1.98768,-4.627878 z m -6.36493,1.398937 c 0.5018,-0.01037 1.04685,0.218923 1.38618,0.588738 0.29143,0.317662 0.42622,0.798971 0.40191,1.229421 -0.0246,0.436612 -0.23121,0.889312 -0.54499,1.193882 -0.30758,0.298517 -0.75721,0.486619 -1.18567,0.498508 -0.41648,0.01146 -0.86371,-0.145955 -1.17658,-0.421046 -0.33325,-0.293109 -0.56592,-0.743494 -0.60422,-1.185674 -0.0383,-0.441338 0.10034,-0.935312 0.39004,-1.270435 0.32184,-0.372253 0.84131,-0.62308 1.33333,-0.633394 z m 19.18501,0 c 0.41409,-0.01146 0.85913,0.143838 1.17018,0.417402 0.33138,0.291438 0.56338,0.740556 0.60148,1.180211 0.0381,0.438828 -0.10013,0.929935 -0.38823,1.263142 -0.32,0.370119 -0.83684,0.618709 -1.32602,0.628833 -0.49892,0.01037 -1.04059,-0.217376 -1.37799,-0.585089 -0.28978,-0.31587 -0.42332,-0.794133 -0.39916,-1.22213 0.0246,-0.434112 0.22934,-0.883775 0.54135,-1.18659 0.30582,-0.296828 0.75236,-0.484067 1.17839,-0.495779 z m -29.0696,2.457021 c 0.25596,-0.0019 0.63557,0.05031 0.94325,0.172249 0.35102,0.139094 0.61517,0.349961 0.61517,0.349961 0,0 -0.26463,0.206613 -0.60059,0.343583 -0.30613,0.124792 -0.6734,0.182467 -0.93048,0.182274 -0.26075,-2.15e-4 -0.70623,-0.08416 -1.01435,-0.211436 -0.32595,-0.134632 -0.50763,-0.314421 -0.50763,-0.314421 0,0 0.21309,-0.185858 0.56503,-0.328085 0.2864,-0.115744 0.69296,-0.192732 0.9296,-0.194122 z m 11.35553,13.063412 c -0.21059,-0.0029 -0.41257,0.0037 -0.58874,0.0037 h -6.10883 l 0.007,13.188264 h 2.37955 v -5.52921 l 2.2939,0.0019 3.09132,5.520098 h 2.76689 l -3.1558,-5.566627 c 0.67498,-0.133362 1.56152,-0.556797 2.09705,-1.146488 0.60321,-0.664251 1.05808,-1.487074 1.05808,-2.47525 0,-1.547203 -0.60667,-2.429045 -1.50557,-3.185196 -0.46118,-0.388058 -1.06569,-0.65094 -1.69239,-0.759165 -0.2122,-0.03683 -0.43192,-0.04908 -0.64249,-0.05194 z m -21.77782,0.01006 v 2.373177 h 3.82132 v 10.8643 h 2.39233 V 51.232558 h 3.84045 v -2.373177 z m 29.90988,0 v 2.373177 h 3.82131 v 10.8643 h 2.39233 V 51.232558 h 3.84045 v -2.373177 z m -12.42913,2.390494 3.59987,0.0072 c 0.20893,0 0.42958,6.2e-5 0.64525,0.0064 0.15166,0.0023 0.30183,-0.0074 0.44565,0.03098 0.18428,0.04805 0.34793,0.116361 0.51675,0.24333 0.14691,0.110647 0.2926,0.256569 0.38185,0.424695 0.11993,0.225688 0.19525,0.494687 0.18591,0.743668 l 0.002,-0.0029 c -0.0106,0.301509 -0.1764,0.682472 -0.37365,0.930496 -0.0998,0.125444 -0.3285,0.309391 -0.53497,0.385505 -0.3531,0.130928 -0.54373,0.08673 -1.12553,0.09296 l -3.73657,0.01729 z m 5.78531,19.611515 -2.64203,0.02095 V 84.10979 h 2.37956 l 0.008,-9.111758 4.48937,7.328233 4.49481,-7.340994 0.005,9.124519 h 2.37046 l 9.3e-4,-13.227452 -2.6393,-0.02007 -4.2287,6.891692 z m -8.17853,0.04009 -9.50728,0.01641 v 13.211051 h 2.36406 l 0.007,-5.539238 4.2369,0.0064 v -2.405968 l -4.2369,-0.0064 0.0357,-2.89994 7.10129,-0.01641 z" />
  </g>
</svg>
