<svg width="105.85mm" height="158.75mm" version="1.1" viewBox="0 0 105.85 158.75" xmlns="http://www.w3.org/2000/svg"><g transform="translate(193.82 -2.9667)"><path d="m-187.12 2.9667h92.44c3.7146 0 6.7051 2.9905 6.7051 6.7051v145.34c0 3.7146-2.9905 6.7051-6.7051 6.7051h-92.44c-3.7146 0-6.7051-2.9905-6.7051-6.7051v-145.34c0-3.7146 2.9905-6.7051 6.7051-6.7051z" fill="#00408c" fill-rule="evenodd" style="paint-order:stroke fill markers"/><path d="m-187.13 4.7514c-2.7116 0-4.8949 2.1824-4.8949 4.894v145.46c0 2.7116 2.1833 4.8949 4.8949 4.8949h92.497c2.7116 0 4.894-2.1833 4.894-4.8949v-145.46c0-2.7116-2.1824-4.894-4.894-4.894zm-0.10934 1.7516h92.639c1.6996 0 3.0676 1.3681 3.0676 3.0676v145.49c0 1.6996-1.368 3.0686-3.0676 3.0686h-92.639c-1.6996 0-3.0676-1.3689-3.0676-3.0686v-145.49c0-1.6996 1.368-3.0676 3.0676-3.0676zm10.801 14.116v70.534h70.553v-70.534zm4.0346 93.553c-1.0951-0.0182-2.1972 0.16261-3.2071 0.54317-0.50694 0.19108-1.369 0.61826-1.7334 0.85851-0.80287 0.52927-1.6241 1.2944-2.2465 2.0934-0.34294 0.4403-0.54248 0.86663-0.7464 1.594l-0.11657 0.41649-0.0455 0.85851c-4.5e-4 0.85772 0.0447 0.85821 0.16226 1.2987 0.22761 0.85261 0.47447 1.3425 1.0599 2.1034 0.0579 0.0751 0.1455 0.18059 0.19412 0.23423l0.0884 0.0984-0.24789 0.22237c-0.52783 0.47637-0.88365 0.90151-1.2422 1.4819-0.24158 0.39106-0.37057 0.67155-0.55776 1.213-0.26134 0.7558-0.30389 1.0297-0.30531 1.9822-1e-3 0.90699 8e-3 0.98431 0.23788 1.7753 0.23431 0.80977 0.67504 1.6116 1.2422 2.2602 1.3151 1.504 3.7256 2.683 6.0086 2.9391 0.20648 0.0231 0.4801 0.0543 0.60789 0.0685l9.1e-4 -9.3e-4c0.35578 0.0399 1.0558 0.0397 1.3944 0 0.16719-0.0196 0.45665-0.0525 0.64342-0.0728 1.0377-0.11393 2.1096-0.43051 3.2982-0.97516 0.71612-0.32817 1.7098-1.0006 2.2556-1.5256 1.3154-1.2653 1.9964-2.9535 1.9029-4.7181-0.036-0.67848-0.10373-1.0805-0.26247-1.5557-0.40473-1.2114-0.74945-1.772-1.6113-2.6183l-0.4812-0.47208 0.1395-0.16684c0.89532-1.0691 1.3456-2.2501 1.3442-3.5178-1e-3 -0.78427-0.12661-1.4052-0.42925-2.1271-0.22316-0.53247-0.61633-1.049-1.336-1.7544-0.95177-0.93282-1.6035-1.3653-2.8444-1.8874-0.98317-0.41369-2.0718-0.63073-3.167-0.64888zm28.09 0c-1.0951-0.0182-2.1963 0.16261-3.2061 0.54317-0.50694 0.19108-1.3699 0.61826-1.7343 0.85851-0.80288 0.52927-1.6232 1.2944-2.2456 2.0934-0.34297 0.4403-0.5434 0.86663-0.74732 1.594l-0.11676 0.41649-0.0455 0.85851c-4.7e-4 0.85772 0.0447 0.85821 0.16225 1.2987 0.2276 0.85261 0.47446 1.3425 1.0599 2.1034 0.0578 0.0751 0.14533 0.18059 0.19412 0.23423l0.0884 0.0984-0.24697 0.22237c-0.52783 0.47637-0.88457 0.90151-1.2431 1.4819-0.24158 0.39106-0.37055 0.67155-0.55776 1.213-0.26132 0.7558-0.30299 1.0297-0.30439 1.9822-1e-3 0.90699 8e-3 0.98431 0.23787 1.7753 0.23432 0.80977 0.67505 1.6116 1.2422 2.2602 1.3151 1.504 3.7256 2.683 6.0086 2.9391 0.20647 0.0231 0.48009 0.0543 0.60788 0.0685v-9.3e-4c0.35576 0.0399 1.0558 0.0397 1.3944 0 0.16719-0.0196 0.45663-0.0525 0.64341-0.0728 1.0377-0.11393 2.1096-0.43051 3.2982-0.97516 0.71613-0.32817 1.7107-1.0006 2.2565-1.5256 1.3154-1.2653 1.9955-2.9535 1.902-4.7181-0.036-0.67848-0.10373-1.0805-0.26248-1.5557-0.40473-1.2114-0.74945-1.772-1.6113-2.6183l-0.48119-0.47208 0.1395-0.16684c0.89531-1.0691 1.3457-2.2501 1.3442-3.5178-1e-3 -0.78427-0.12663-1.4052-0.42923-2.1271-0.22319-0.53247-0.61635-1.049-1.3361-1.7544-0.95178-0.93282-1.6035-1.3653-2.8444-1.8874-0.98318-0.41369-2.0719-0.63073-3.167-0.64888zm35.323 0c-1.0951-0.0182-2.1972 0.16261-3.2071 0.54317-0.50694 0.19108-1.3699 0.61826-1.7343 0.85851-0.80288 0.52927-1.6232 1.2944-2.2456 2.0934-0.34295 0.4403-0.54339 0.86663-0.74732 1.594l-0.11658 0.41649-0.0446 0.85851c-4.6e-4 0.85772 0.0437 0.85821 0.16137 1.2987 0.22761 0.85261 0.47539 1.3425 1.0608 2.1034 0.0578 0.0751 0.14444 0.18059 0.19321 0.23423l0.0884 0.0984-0.24697 0.22237c-0.52783 0.47637-0.88457 0.90151-1.2431 1.4819-0.24156 0.39106-0.37055 0.67155-0.55774 1.213-0.26134 0.7558-0.303 1.0297-0.30439 1.9822-1e-3 0.90699 8e-3 0.98431 0.23786 1.7753 0.23432 0.80977 0.67504 1.6116 1.2422 2.2602 1.3151 1.504 3.7257 2.683 6.0086 2.9391 0.20646 0.0231 0.48008 0.0543 0.60787 0.0685v-9.3e-4c0.35577 0.0399 1.0558 0.0397 1.3944 0 0.16719-0.0196 0.45662-0.0525 0.64343-0.0728 1.0377-0.11393 2.1105-0.43051 3.2991-0.97516 0.71612-0.32817 1.7098-1.0006 2.2556-1.5256 1.3154-1.2653 1.9964-2.9535 1.9029-4.7181-0.036-0.67848-0.10458-1.0805-0.26338-1.5557-0.40471-1.2114-0.74945-1.772-1.6113-2.6183l-0.48119-0.47208 0.1395-0.16684c0.8953-1.0691 1.3466-2.2501 1.3452-3.5178-1e-3 -0.78427-0.12663-1.4052-0.42924-2.1271-0.22317-0.53247-0.61725-1.049-1.337-1.7544-0.95177-0.93282-1.6035-1.3653-2.8444-1.8874-0.98316-0.41369-2.0709-0.63073-3.1661-0.64888zm-63.545 3.9754c0.60296-9.4e-4 0.64308 3e-3 1.1082 0.12574 0.53227 0.13968 1.1066 0.37901 1.4217 0.59239 0.11252 0.0762 0.2702 0.18167 0.34997 0.23422 0.19736 0.12998 0.79624 0.72004 0.92774 0.91408 0.0945 0.1395 0.10759 0.19356 0.1194 0.46661 0.0196 0.49636-8e-3 0.55647-0.4885 1.038-0.70644 0.70831-1.3362 1.076-2.2766 1.3288-0.35238 0.0948-0.46054 0.10704-1.0371 0.11851-0.7157 0.0141-0.7657 0.0106-1.1975-0.0884-1.0031-0.22949-1.9001-0.75876-2.5782-1.522-0.28166-0.3168-0.32716-0.42681-0.32716-0.78378 0-0.35157 0.0453-0.46544 0.30802-0.77282 0.65808-0.77007 1.5608-1.3025 2.6329-1.5539 0.36299-0.0852 0.48469-0.097 1.0371-0.0975zm28.09 0c0.60295-9.4e-4 0.64309 3e-3 1.1082 0.12574 0.53227 0.13968 1.1075 0.37901 1.4226 0.59239 0.11252 0.0762 0.26929 0.18167 0.34906 0.23422 0.19735 0.12998 0.79713 0.72004 0.92866 0.91408 0.0945 0.1395 0.1067 0.19356 0.11851 0.46661 0.0196 0.49636-8e-3 0.55647-0.4885 1.038-0.70643 0.70831-1.3363 1.076-2.2766 1.3288-0.35237 0.0948-0.45962 0.10704-1.0362 0.11851-0.71569 0.0141-0.76658 0.0106-1.1984-0.0884-1.0031-0.22949-1.9001-0.75876-2.5782-1.522-0.28166-0.3168-0.32717-0.42681-0.32717-0.78378 0-0.35157 0.0453-0.46544 0.30804-0.77282 0.65808-0.77007 1.5617-1.3025 2.6338-1.5539 0.36302-0.0852 0.48381-0.097 1.0362-0.0975zm35.323 0c0.60295-9.4e-4 0.64307 3e-3 1.1082 0.12574 0.53227 0.13968 1.1065 0.37901 1.4217 0.59239 0.11252 0.0762 0.27021 0.18167 0.34996 0.23422 0.19737 0.12998 0.79625 0.72004 0.92776 0.91408 0.0945 0.1395 0.10759 0.19356 0.1194 0.46661 0.0196 0.49636-8e-3 0.55647-0.4885 1.038-0.70644 0.70831-1.3363 1.076-2.2766 1.3288-0.35239 0.0948-0.46054 0.10704-1.0371 0.11851-0.71571 0.0141-0.76571 0.0106-1.1975-0.0884-1.0031-0.22949-1.9001-0.75876-2.5782-1.522-0.28166-0.3168-0.32808-0.42681-0.32808-0.78378 0-0.35157 0.0453-0.46544 0.30804-0.77282 0.65808-0.77007 1.5617-1.3025 2.6338-1.5539 0.36301-0.0852 0.48472-0.097 1.0371-0.0975zm-63.321 7.9525c0.43428 5e-3 0.86518 0.0383 1.141 0.0949 0.47027 0.0964 1.1226 0.31632 1.604 0.54134 0.38581 0.18035 1.0755 0.62289 1.3051 0.83753 0.2657 0.2484 0.49722 0.62755 0.61516 1.0062 0.0566 0.18177 0.0776 0.73997 0.0374 0.98244-0.0531 0.31929-0.19885 0.65169-0.41922 0.95328-0.1499 0.20516-0.26538 0.30968-0.58782 0.53314-0.52174 0.36155-0.92691 0.5799-1.4108 0.75917-0.6538 0.24224-0.84241 0.29189-1.4518 0.38369-0.83475 0.12574-1.2419 0.11568-2.2656-0.0564-0.63536-0.10687-1.6147-0.50581-2.2274-0.90772-0.48728-0.31964-0.58429-0.40022-0.79927-0.66255-0.34816-0.42478-0.49706-0.82997-0.50033-1.3643-2e-3 -0.35486 0.0159-0.46465 0.12116-0.76281 0.10564-0.29727 0.18258-0.4269 0.41557-0.69992 0.26699-0.31289 0.96008-0.78529 1.5065-1.0271 0.67672-0.29951 1.13-0.44124 1.7571-0.54773 0.28735-0.0489 0.72496-0.0688 1.1592-0.063zm28.09 0c0.43428 5e-3 0.86609 0.0383 1.1419 0.0949 0.47028 0.0964 1.1217 0.31632 1.6031 0.54134 0.38581 0.18035 1.0764 0.62289 1.306 0.83753 0.26572 0.2484 0.49633 0.62755 0.61426 1.0062 0.0566 0.18177 0.0784 0.73997 0.0382 0.98244-0.0531 0.31929-0.19976 0.65169-0.42014 0.95328-0.14991 0.20516-0.26448 0.30968-0.58692 0.53314-0.52173 0.36155-0.92783 0.5799-1.4117 0.75917-0.65382 0.24224-0.84242 0.29189-1.4518 0.38369-0.83473 0.12574-1.2418 0.11568-2.2656-0.0564-0.63535-0.10687-1.6147-0.50581-2.2274-0.90772-0.48726-0.31964-0.58427-0.40022-0.79925-0.66255-0.34818-0.42478-0.49617-0.82997-0.49943-1.3643-2e-3 -0.35486 0.0141-0.46465 0.12028-0.76281 0.10563-0.29727 0.18258-0.4269 0.41556-0.69992 0.267-0.31289 0.96006-0.78529 1.5065-1.0271 0.67672-0.29951 1.1309-0.44124 1.758-0.54773 0.28737-0.0489 0.72406-0.0688 1.1583-0.063zm35.322 0c0.43429 5e-3 0.86609 0.0383 1.1419 0.0949 0.47028 0.0964 1.1226 0.31632 1.604 0.54134 0.38582 0.18035 1.0754 0.62289 1.3051 0.83753 0.2657 0.2484 0.49722 0.62755 0.61515 1.0062 0.0566 0.18177 0.0776 0.73997 0.0374 0.98244-0.0531 0.31929-0.19976 0.65169-0.42014 0.95328-0.14991 0.20516-0.26447 0.30968-0.58691 0.53314-0.52173 0.36155-0.92782 0.5799-1.4117 0.75917-0.6538 0.24224-0.8415 0.29189-1.4509 0.38369-0.83474 0.12574-1.2428 0.11568-2.2665-0.0564-0.63536-0.10687-1.6147-0.50581-2.2274-0.90772-0.48727-0.31964-0.58429-0.40022-0.79928-0.66255-0.34816-0.42478-0.49615-0.82997-0.49941-1.3643-2e-3 -0.35486 0.0159-0.46465 0.12116-0.76281 0.10564-0.29727 0.18169-0.4269 0.41466-0.69992 0.267-0.31289 0.96008-0.78529 1.5065-1.0271 0.67673-0.29951 1.1309-0.44124 1.758-0.54773 0.28736-0.0489 0.72407-0.0688 1.1583-0.063zm-17.568 5.6586a2.1803 2.1803 0 0 0-2.1481 2.1809 2.1803 2.1803 0 0 0 2.1809 2.18 2.1803 2.1803 0 0 0 2.18-2.18 2.1803 2.1803 0 0 0-2.18-2.1809 2.1803 2.1803 0 0 0-0.0328 0z" fill="#fff" fill-rule="evenodd" style="paint-order:stroke fill markers"/><path d="m-139.05 29.423s-1e-3 2.9857-5e-3 2.982c-0.50918-0.34195-1.0942-0.5131-1.7562-0.5131-0.88222 0-1.631 0.31044-2.2456 0.93141-0.62447 0.62098-0.93687 1.3707-0.93687 2.2483h9.3e-4c0 0.88591 0.31239 1.6392 0.93687 2.2602 0.61458 0.62097 1.3625 0.93141 2.2447 0.93141 0.6606 0 1.245-0.16985 1.7535-0.51036 3e-3 -0.0019 8e-3 0.50489 8e-3 0.50489h1.4154s5e-3 -2.3002 5e-3 -3.1861c0-0.87763-5e-3 -5.6486-5e-3 -5.6486zm-20.397 0.0019c-0.14056-0.0019-0.27429 0.0029-0.39189 0.0029h-4.0783l7e-3 8.8037h1.5885v-3.691l1.5311 9.35e-4 2.0633 3.6846h1.8464l-2.1071-3.7156c0.45058-0.08901 1.0424-0.37191 1.3998-0.76554 0.40267-0.44342 0.7063-0.99266 0.7063-1.6523 0-1.0328-0.40612-1.6215-1.0061-2.1262-0.30785-0.25909-0.71079-0.43442-1.1292-0.50672-0.14162-0.02459-0.28868-0.0328-0.42924-0.03462zm-2.8662 1.5994 2.4033 0.0064c0.1395 0 0.2871 5.6e-5 0.43107 0.0064 0.1012 0.0019 0.20106-6e-3 0.29711 0.02007 0.12293 0.03206 0.2318 0.07836 0.34448 0.16313 0.098 0.07382 0.19558 0.17119 0.2552 0.28343 0.0802 0.15065 0.13015 0.3305 0.12398 0.49669l3e-3 -0.0055c-7e-3 0.20126-0.1171 0.45508-0.24879 0.62064-0.0667 0.08379-0.22038 0.20685-0.35816 0.25791-0.23574 0.08779-0.36258 0.05575-0.75098 0.06197l-2.4944 0.01093zm11.653 0.87582c-0.39913-0.0203-1.0468 0.0564-1.5529 0.18409-0.64393 0.16246-1.11 0.38733-1.11 0.38733l0.57688 1.2868s0.36746-0.20427 1.0326-0.33902c0.19415-0.03932 0.47809-0.07599 0.71906-0.09569 0.14903-0.01234 0.29809-0.01877 0.44748-0.01376 0.12116 0.0042 0.24631-0.0014 0.36182 0.03556 0.32356 0.10333 0.68533 0.23187 0.88493 0.50672 0.0811 0.11181 0.16578 0.32123 0.19412 0.49669 0.0183 0.11433-0.0182 0.34632-0.0182 0.34632s-0.31824-0.1395-0.72088-0.23513c-0.33714-0.08009-0.73995-0.12204-1.0052-0.09296-0.25117 0.02753-0.50301 0.0557-0.75825 0.11756-0.67683 0.16403-1.339 0.49834-1.7844 0.99885-0.21705 0.24388-0.28673 0.59738-0.2807 0.91682 5e-3 0.24212 0.0876 0.49708 0.23879 0.68625 0.13191 0.165 0.27945 0.29208 0.44472 0.40647 0.35003 0.24226 0.75002 0.4454 1.1383 0.57871 0.48417 0.16625 1.0179 0.19911 1.5283 0.1604 0.41965-0.03187 1.2203-0.31989 1.2203-0.31989v0.15948h1.4281v-3.6473c0-0.74735-0.3724-1.3828-0.91592-1.851-0.54352-0.46813-1.3099-0.63491-2.0688-0.6735zm29.06 0.0127c-0.88706 0-1.6354 0.30851-2.2465 0.92594-0.61105 0.61743-0.91682 1.3675-0.91682 2.2483 0 0.87263 0.30577 1.6172 0.91682 2.2346 0.61106 0.61742 1.3594 0.92594 2.2465 0.92594 0.87716 0 1.6217-0.30851 2.2328-0.92594 0.62091-0.61742 0.93139-1.362 0.93139-2.2346 0-0.88086-0.31048-1.6309-0.93139-2.2483-0.61108-0.61743-1.3557-0.92594-2.2328-0.92594zm-12.862 0.01729 1.7999 4.2123 0.9214 2.128-0.33084 0.59876c2e-5 0-0.0516 0.09574-0.15043 0.17317-0.0649 0.05096-0.16754 0.09107-0.22875 0.09934-0.0781 0.01058-0.18871 6e-3 -0.28253-0.03738-0.10775-0.04985-0.19412-0.14035-0.19412-0.14035l-1.1802 1.0517s0.27044 0.31877 0.66438 0.50854c0.35302 0.17006 0.81476 0.21432 1.1155 0.19412 0.27378-0.01843 0.67362-0.14608 0.96878-0.34267 0.31603-0.2105 0.51766-0.49031 0.51766-0.49031l3.4048-7.9552h-1.5265l-1.9849 4.6279-1.9877-4.6279zm-6.3649 1.3989c0.5018-0.01037 1.0468 0.21892 1.3862 0.58874 0.29143 0.31766 0.42622 0.79897 0.40191 1.2294-0.0246 0.43661-0.23121 0.88931-0.54499 1.1939-0.30758 0.29852-0.75721 0.48662-1.1857 0.49851-0.41648 0.01146-0.86371-0.14596-1.1766-0.42105-0.33325-0.29311-0.56592-0.74349-0.60422-1.1857-0.0383-0.44134 0.10034-0.93531 0.39004-1.2704 0.32184-0.37225 0.84131-0.62308 1.3333-0.63339zm19.185 0c0.41409-0.01146 0.85913 0.14384 1.1702 0.4174 0.33138 0.29144 0.56338 0.74056 0.60148 1.1802 0.0381 0.43883-0.10013 0.92994-0.38823 1.2631-0.32 0.37012-0.83684 0.61871-1.326 0.62883-0.49892 0.01037-1.0406-0.21738-1.378-0.58509-0.28978-0.31587-0.42332-0.79413-0.39916-1.2221 0.0246-0.43411 0.22934-0.88378 0.54135-1.1866 0.30582-0.29683 0.75236-0.48407 1.1784-0.49578zm-29.07 2.457c0.25596-0.0019 0.63557 0.05031 0.94325 0.17225 0.35102 0.13909 0.61517 0.34996 0.61517 0.34996s-0.26463 0.20661-0.60059 0.34358c-0.30613 0.12479-0.6734 0.18247-0.93048 0.18227-0.26075-2.15e-4 -0.70623-0.08416-1.0144-0.21144-0.32595-0.13463-0.50763-0.31442-0.50763-0.31442s0.21309-0.18586 0.56503-0.32808c0.2864-0.11574 0.69296-0.19273 0.9296-0.19412zm11.356 13.063c-0.21059-0.0029-0.41257 0.0037-0.58874 0.0037h-6.1088l7e-3 13.188h2.3796v-5.5292l2.2939 0.0019 3.0913 5.5201h2.7669l-3.1558-5.5666c0.67498-0.13336 1.5615-0.5568 2.097-1.1465 0.60321-0.66425 1.0581-1.4871 1.0581-2.4752 0-1.5472-0.60667-2.429-1.5056-3.1852-0.46118-0.38806-1.0657-0.65094-1.6924-0.75916-0.2122-0.03683-0.43192-0.04908-0.64249-0.05194zm-21.778 0.01006v2.3732h3.8213v10.864h2.3923v-10.864h3.8404v-2.3732zm29.91 0v2.3732h3.8213v10.864h2.3923v-10.864h3.8404v-2.3732zm-12.429 2.3905 3.5999 0.0072c0.20893 0 0.42958 6.2e-5 0.64525 0.0064 0.15166 0.0023 0.30183-0.0074 0.44565 0.03098 0.18428 0.04805 0.34793 0.11636 0.51675 0.24333 0.14691 0.11065 0.2926 0.25657 0.38185 0.4247 0.11993 0.22569 0.19525 0.49469 0.18591 0.74367l2e-3 -0.0029c-0.0106 0.30151-0.1764 0.68247-0.37365 0.9305-0.0998 0.12544-0.3285 0.30939-0.53497 0.3855-0.3531 0.13093-0.54373 0.08673-1.1255 0.09296l-3.7366 0.01729zm5.7853 19.612-2.642 0.02095v13.227h2.3796l8e-3 -9.1118 4.4894 7.3282 4.4948-7.341 5e-3 9.1245h2.3705l9.3e-4 -13.227-2.6393-0.02007-4.2287 6.8917zm-8.1785 0.04009-9.5073 0.01641v13.211h2.3641l7e-3 -5.5392 4.2369 0.0064v-2.406l-4.2369-0.0064 0.0357-2.8999 7.1013-0.01641z"/></g></svg>