<svg xmlns="http://www.w3.org/2000/svg" viewBox="0 0 345.94 350.97">
  <defs>
    <style>
      .cls-1 {
        fill: #00408c;
        fill-rule: evenodd;
      }

      .cls-2 {
        fill: #fff;
      }
    </style>
  </defs>
  <g id="Layer_2" data-name="Layer 2">
    <g id="Layer_1-2" data-name="Layer 1">
      <g>
        <g id="Layer_2-2" data-name="Layer 2">
          <g id="Layer_1-2-2" data-name="Layer 1-2">
            <g id="Layer_1-2-2-2" data-name="Layer 1-2-2">
              <g id="g8435">
                <path id="rect9000" class="cls-1" d="M22.573,0H323.367A22.519,22.519,0,0,1,345.94,22.466V328.4a22.526,22.526,0,0,1-22.479,22.573H22.573A22.532,22.532,0,0,1,0,328.491V22.573A22.533,22.533,0,0,1,22.479,0Z"/>
                <path id="path9038" class="cls-2" d="M20.472,344.324A15.76,15.76,0,0,1,6.936,330.653c-.2-1.5-.2-308.376,0-309.857a15.612,15.612,0,0,1,3.57-8.216A16.035,16.035,0,0,1,19.4,7.246c.9-.215,6.822-.222,153.225-.262,108.307,0,151.979,0,152.821.094A15.684,15.684,0,0,1,339.273,20.8c.182,1.481.182,308.362,0,309.85a15.718,15.718,0,0,1-13.7,13.7c-1.347.168-303.824.155-305.11,0ZM326.208,339a10.848,10.848,0,0,0,7.758-7.819l.283-1.124V21.334L333.96,20.2a10.649,10.649,0,0,0-7.778-7.812l-1.165-.269H173.5c-143.938,0-152.194,0-153.151.229a10.535,10.535,0,0,0-5.279,2.889,10.774,10.774,0,0,0-2.883,5.151c-.2.8-.215,9.839-.249,154.4,0,101.688,0,153.973.081,154.794a9.925,9.925,0,0,0,1.064,3.866,10.6,10.6,0,0,0,8.3,5.791c.444.054,69.12.088,152.619.081h151.15Z"/>
              </g>
            </g>
            <rect class="cls-2" x="56.494" y="59.006" width="232.959" height="232.959"/>
          </g>
        </g>
        <g>
          <path class="cls-2" d="M105.378,254.4v14.567h8.176v-6.395h26.285V242.153h26.295V221.659h26.3V201.174H218.8V180.717H245.1V160.293h18.048v-8.054H236.8v20.32h-26.23V193.05H184.2v20.484H157.916v20.46h-26.4v20.4ZM163.36,142.791l.253-.031c.272.441.547.881.815,1.325,3.68,6.086,7.375,12.164,11.02,18.272a1.219,1.219,0,0,0,1.623.655A7.4,7.4,0,0,0,181.6,152.2c-6.757-10.663-13.186-21.536-19.688-32.359a12.06,12.06,0,0,0-19.1-2.423,8.607,8.607,0,0,0-2.839,6.724c.18,3.711,0,7.439.073,11.157a2.262,2.262,0,0,1-1.3,2.261c-6.094,3.667-12.152,7.394-18.22,11.1-.365.223-.716.47-1.03.677.879,5.343,7.3,8,11.339,4.917a20.632,20.632,0,0,1,1.831-1.141c2.372-1.444,4.746-2.886,7.355-4.471v13.006H163.36Zm-23.291,89.122a12.226,12.226,0,0,0,9.269-3.373,9.512,9.512,0,0,0,3.247-7.377c-.14-13.675-.06-27.352-.06-41.028v-1.3a1.972,1.972,0,0,1,.561,1.021c1.135,4.2,2.256,8.4,3.414,12.6a3.623,3.623,0,0,0,.771,1.568q8.517,8.53,17.117,16.978a1.245,1.245,0,0,0,1.169.108,8.9,8.9,0,0,0,4.328-6.582,6.284,6.284,0,0,0-1.955-6.054c-3.662-3.335-7.083-6.936-10.578-10.452a2.838,2.838,0,0,1-.825-1.383c-.7-4.134-1.322-8.281-1.98-12.423-.4-2.51-.818-5.017-1.221-7.485H140.069Zm4.284-121.246a11.472,11.472,0,1,0-11.433-11.5A11.342,11.342,0,0,0,144.353,110.667Z"/>
          <path d="M105.378,254.4h26.14v-20.4h26.4v-20.46H184.2V193.05h26.374V172.559H236.8v-20.32h26.35v8.054H245.1v20.424H218.8v20.457H192.432v20.485h-26.3v20.494H139.839v20.416H113.554v6.395h-8.176Z"/>
          <path d="M163.36,142.791v18.863H140.022V148.648c-2.609,1.585-4.983,3.027-7.355,4.471a20.632,20.632,0,0,0-1.831,1.141c-4.041,3.082-10.46.426-11.339-4.917.314-.207.665-.454,1.03-.677,6.068-3.711,12.126-7.438,18.22-11.1a2.262,2.262,0,0,0,1.3-2.261c-.077-3.718.107-7.446-.073-11.157a8.607,8.607,0,0,1,2.839-6.724,12.06,12.06,0,0,1,19.1,2.423c6.5,10.823,12.931,21.7,19.688,32.359a7.4,7.4,0,0,1-4.526,10.811,1.219,1.219,0,0,1-1.623-.655c-3.645-6.108-7.34-12.186-11.02-18.272-.268-.444-.543-.884-.815-1.325Z"/>
          <path d="M140.069,231.913V166.732h23.257c.4,2.468.823,4.975,1.221,7.485.658,4.142,1.282,8.289,1.98,12.423a2.838,2.838,0,0,0,.825,1.383c3.5,3.516,6.916,7.117,10.578,10.452a6.284,6.284,0,0,1,1.955,6.054,8.9,8.9,0,0,1-4.328,6.582,1.245,1.245,0,0,1-1.169-.108q-8.6-8.448-17.117-16.978a3.623,3.623,0,0,1-.771-1.568c-1.158-4.193-2.279-8.4-3.414-12.6a1.972,1.972,0,0,0-.561-1.021v1.3c0,13.676-.08,27.353.06,41.028a9.512,9.512,0,0,1-3.247,7.377A12.226,12.226,0,0,1,140.069,231.913Z"/>
          <path d="M144.353,110.667a11.472,11.472,0,1,1,.092-22.943,11.472,11.472,0,1,1-.092,22.943Z"/>
        </g>
      </g>
    </g>
  </g>
</svg>
