<svg xmlns="http://www.w3.org/2000/svg" viewBox="0 0 345.94 350.97">
  <defs>
    <style>
      .cls-1 {
        fill: #00408c;
        fill-rule: evenodd;
      }

      .cls-2 {
        fill: #fff;
      }
    </style>
  </defs>
  <g id="Layer_2" data-name="Layer 2">
    <g id="Layer_1-2" data-name="Layer 1">
      <g>
        <g id="Layer_2-2" data-name="Layer 2">
          <g id="Layer_1-2-2" data-name="Layer 1-2">
            <g id="Layer_1-2-2-2" data-name="Layer 1-2-2">
              <g id="g8435">
                <path id="rect9000" class="cls-1" d="M22.573,0H323.367A22.519,22.519,0,0,1,345.94,22.466V328.4a22.526,22.526,0,0,1-22.479,22.573H22.573A22.532,22.532,0,0,1,0,328.491V22.573A22.533,22.533,0,0,1,22.479,0Z"/>
                <path id="path9038" class="cls-2" d="M20.472,344.324A15.76,15.76,0,0,1,6.936,330.653c-.2-1.5-.2-308.376,0-309.857a15.612,15.612,0,0,1,3.57-8.216A16.035,16.035,0,0,1,19.4,7.246c.9-.215,6.822-.222,153.225-.262,108.307,0,151.979,0,152.821.094A15.684,15.684,0,0,1,339.273,20.8c.182,1.481.182,308.362,0,309.85a15.718,15.718,0,0,1-13.7,13.7c-1.347.168-303.824.155-305.11,0ZM326.208,339a10.848,10.848,0,0,0,7.758-7.819l.283-1.124V21.334L333.96,20.2a10.649,10.649,0,0,0-7.778-7.812l-1.165-.269H173.5c-143.938,0-152.194,0-153.151.229a10.535,10.535,0,0,0-5.279,2.889,10.774,10.774,0,0,0-2.883,5.151c-.2.8-.215,9.839-.249,154.4,0,101.688,0,153.973.081,154.794a9.925,9.925,0,0,0,1.064,3.866,10.6,10.6,0,0,0,8.3,5.791c.444.054,69.12.088,152.619.081h151.15Z"/>
              </g>
            </g>
            <rect class="cls-2" x="56.494" y="59.006" width="232.959" height="232.959"/>
          </g>
        </g>
        <g>
          <path class="cls-2" d="M187.3,249.809a48.488,48.488,0,0,0,53.063-34.31c5.672-20.075-2.369-39.466-14.763-49.559a3.786,3.786,0,0,0-.092.461c-.3,4.384-.55,8.772-.912,13.152a6.518,6.518,0,0,0,1.043,4.156,33.841,33.841,0,0,1,5.055,17.753c.048,12.367-4.866,22.42-14.694,29.914a34.929,34.929,0,0,1-25.128,7.1A36.477,36.477,0,0,1,157.8,199.943c.076-1.275.2-2.548.3-3.823a.422.422,0,0,0-.4.221c-3.367,5.1-6.746,10.2-10.082,15.323a1.92,1.92,0,0,0-.15,1.328A45.018,45.018,0,0,0,152.8,226.4a47.421,47.421,0,0,0,26.124,21.222q.882.3,1.765.594l-.086.253L74.94,227.355v40.279H275.4l.027-.209Zm-58.283-22.467c.187-.278.3-.439.405-.6q12.557-18.939,25.094-37.888a2.118,2.118,0,0,1,2.029-1.078q29.52.04,59.039.02h1.71c.052-1.007.085-1.839.139-2.669q1.75-27.281,3.527-54.557a7.256,7.256,0,0,1,.649-2.5,15.476,15.476,0,1,0-16.4,8.765c.46.063.913.176,1.463.283-.347,5.693-.688,11.294-1.036,17.006H158.413V167.8h46.366c-.143,2.1-.279,4.111-.421,6.21h-1.535q-26.94,0-53.88-.013a1.794,1.794,0,0,0-1.74.907q-9.513,14.482-19.1,28.914c-.763,1.153-1.544,2.3-2.369,3.518L112.884,197.4l-8.052,11.065Z"/>
          <path d="M187.3,249.809l88.13,17.616-.027.209H74.94V227.355L180.6,248.468l.086-.253q-.882-.3-1.765-.594A47.421,47.421,0,0,1,152.8,226.4a45.018,45.018,0,0,1-5.33-13.407,1.92,1.92,0,0,1,.15-1.328c3.336-5.124,6.715-10.22,10.082-15.323a.422.422,0,0,1,.4-.221c-.1,1.275-.228,2.548-.3,3.823a36.477,36.477,0,0,0,33.073,38.533,34.929,34.929,0,0,0,25.128-7.1c9.828-7.494,14.742-17.547,14.694-29.914a33.841,33.841,0,0,0-5.055-17.753,6.518,6.518,0,0,1-1.043-4.156c.362-4.38.614-8.768.912-13.152a3.786,3.786,0,0,1,.092-.461c12.394,10.093,20.435,29.484,14.763,49.559A48.488,48.488,0,0,1,187.3,249.809Z"/>
          <path d="M129.017,227.342l-24.185-18.874,8.052-11.065,12.846,9.934c.825-1.223,1.606-2.365,2.369-3.518q9.566-14.448,19.1-28.914a1.794,1.794,0,0,1,1.74-.907q26.94.025,53.88.013h1.535c.142-2.1.278-4.107.421-6.21H158.413V154.126h47.228c.348-5.712.689-11.313,1.036-17.006-.55-.107-1-.22-1.463-.283a15.451,15.451,0,1,1,16.4-8.765,7.256,7.256,0,0,0-.649,2.5q-1.8,27.276-3.527,54.557c-.054.83-.087,1.662-.139,2.669h-1.71q-29.519,0-59.039-.02a2.118,2.118,0,0,0-2.029,1.078Q142,207.815,129.422,226.74C129.314,226.9,129.2,227.064,129.017,227.342Z"/>
        </g>
      </g>
    </g>
  </g>
</svg>
