<svg xmlns="http://www.w3.org/2000/svg" viewBox="0 0 345.94 350.97">
  <defs>
    <style>
      .cls-1, .cls-3 {
        fill: #00408c;
      }

      .cls-1 {
        fill-rule: evenodd;
      }

      .cls-2 {
        fill: #fff;
      }
    </style>
  </defs>
  <g id="Layer_2" data-name="Layer 2">
    <g id="Layer_1-2" data-name="Layer 1">
      <g>
        <g id="Layer_2-2" data-name="Layer 2">
          <g id="Layer_1-2-2" data-name="Layer 1-2">
            <g id="Layer_1-2-2-2" data-name="Layer 1-2-2">
              <g id="g8435">
                <path id="rect9000" class="cls-1" d="M22.573,0H323.367A22.519,22.519,0,0,1,345.94,22.466V328.4a22.526,22.526,0,0,1-22.479,22.573H22.573A22.532,22.532,0,0,1,0,328.491V22.573A22.533,22.533,0,0,1,22.479,0Z"/>
                <path id="path9038" class="cls-2" d="M20.472,344.324A15.76,15.76,0,0,1,6.936,330.653c-.2-1.5-.2-308.376,0-309.857a15.612,15.612,0,0,1,3.57-8.216A16.035,16.035,0,0,1,19.4,7.246c.9-.215,6.822-.222,153.225-.262,108.307,0,151.979,0,152.821.094A15.684,15.684,0,0,1,339.273,20.8c.182,1.481.182,308.362,0,309.85a15.718,15.718,0,0,1-13.7,13.7c-1.347.168-303.824.155-305.11,0ZM326.208,339a10.848,10.848,0,0,0,7.758-7.819l.283-1.124V21.334L333.96,20.2a10.649,10.649,0,0,0-7.778-7.812l-1.165-.269H173.5c-143.938,0-152.194,0-153.151.229a10.535,10.535,0,0,0-5.279,2.889,10.774,10.774,0,0,0-2.883,5.151c-.2.8-.215,9.839-.249,154.4,0,101.688,0,153.973.081,154.794a9.925,9.925,0,0,0,1.064,3.866,10.6,10.6,0,0,0,8.3,5.791c.444.054,69.12.088,152.619.081h151.15Z"/>
              </g>
            </g>
            <rect class="cls-2" x="56.494" y="59.006" width="232.959" height="232.959"/>
          </g>
        </g>
        <g>
          <path class="cls-2" d="M100.824,225.744c5.421-.106,10.136-2.035,14.736-4.323,4.647-2.312,9.226-4.769,13.922-6.975,6.587-3.095,13.325-3.46,20.053-.413,3.889,1.761,7.681,3.735,11.562,5.514,3.334,1.527,6.666,3.1,10.116,4.319,5.653,2,11.226,1.129,16.547-1.31,4.753-2.18,9.371-4.65,14.105-6.873,3.774-1.772,7.667-3.218,11.952-3.1a27.9,27.9,0,0,1,11.241,3.078c4.974,2.367,9.886,4.865,14.875,7.2a46.32,46.32,0,0,0,5.09,1.717c.092-.529.15-.76.171-1a59.252,59.252,0,0,0-.4-14.821c-2.969-18.452-12.379-32.714-28.029-42.867a6.8,6.8,0,0,0-3.114-.957c-7.814-.544-15.634-.987-23.451-1.484a4.838,4.838,0,0,1-3.755-2.077,5.114,5.114,0,0,1,2.2-7.785,38.281,38.281,0,0,0,23.234-38.177A37.75,37.75,0,0,0,198.97,89.335a18.031,18.031,0,0,0-4.842-3.485,45.9,45.9,0,0,0-15.166-3.25,54.01,54.01,0,0,0-31.8,8.033,5.807,5.807,0,0,0-2.991,4.507c-.564,5.2-1.088,10.412-1.654,15.616a4.132,4.132,0,0,1-.451,1.576c-3.155,5.515-6.364,11-9.5,16.525a9.871,9.871,0,0,0-1.077,3.013c-.53,2.85.47,4.061,3.366,4.437,3.208.416,6.408.9,9.611,1.354.524.075,1.044.177,1.567.266l-.01.249-7.542,2.091a2.222,2.222,0,0,0-.065.452c.238,2.265.491,4.529.721,6.8a4.663,4.663,0,0,0,5.089,4.591c3.16.006,6.321-.029,9.48.012a5.145,5.145,0,0,1,5.064,4.934,5.249,5.249,0,0,1-4.3,5.184c-7.909,1.383-15.8,2.874-23.736,4.091a16.133,16.133,0,0,0-10.013,5.31,69.622,69.622,0,0,0-11.04,15.325,123.24,123.24,0,0,0-5.532,12.972,62.066,62.066,0,0,0-3.294,17.13C100.668,219.919,100.824,222.8,100.824,225.744Zm168.368,30.9c-.579.243-1.007.434-1.442.605-3.378,1.322-6.707,2.795-10.15,3.921a22.988,22.988,0,0,1-12.855.753,51.314,51.314,0,0,1-10.547-4.175c-3.786-1.886-7.551-3.823-11.409-5.551-4.078-1.826-8.41-2.825-12.832-1.743a55.075,55.075,0,0,0-9.212,3.27c-4.92,2.188-9.666,4.767-14.593,6.939a19.192,19.192,0,0,1-13.112,1.174,58.142,58.142,0,0,1-8.406-3.065c-5.084-2.312-10.011-4.974-15.111-7.246-4.86-2.165-10.021-3-15.175-1.28a110.06,110.06,0,0,0-11.119,4.692c-4.419,2.037-8.7,4.38-13.155,6.329a23.894,23.894,0,0,1-13.948,1.621A66.115,66.115,0,0,1,82,258.458c-.941-.4-1.889-.776-2.866-1.178a2.389,2.389,0,0,0-.137.478c-.008,3.4-.033,6.8.021,10.2a1.387,1.387,0,0,0,.767.975c3.528,1.377,7.051,2.781,10.634,4a28.506,28.506,0,0,0,23.42-1.819c5.207-2.525,10.324-5.24,15.551-7.723a24.944,24.944,0,0,1,10.262-2.555,26.614,26.614,0,0,1,11.973,2.973c4.725,2.239,9.369,4.648,14.088,6.9a28.577,28.577,0,0,0,11.348,3.1c4.406.155,8.426-1.209,12.312-3.053,4.723-2.241,9.372-4.643,14.1-6.863a23.89,23.89,0,0,1,9.454-2.37c4.418-.142,8.41,1.322,12.29,3.145,4.515,2.122,8.929,4.458,13.442,6.585a24.571,24.571,0,0,0,14.548,2.346c5.476-.857,10.454-3.1,15.43-5.37a.986.986,0,0,0,.53-.669C269.2,263.972,269.192,260.387,269.192,256.642ZM78.98,231.394c0,3.542.029,6.9-.021,10.257a1.319,1.319,0,0,0,1.009,1.489c3.979,1.425,7.9,3.039,11.926,4.3a26.549,26.549,0,0,0,12.543.935,44.113,44.113,0,0,0,12.183-4.514c4.249-2.125,8.451-4.349,12.744-6.38a25.7,25.7,0,0,1,10.03-2.558c4.69-.181,8.953,1.413,13.1,3.353,5.385,2.523,10.67,5.266,16.1,7.679a21.107,21.107,0,0,0,12.17,1.7c4.279-.706,8.135-2.526,11.964-4.429,5.07-2.52,9.958-5.436,15.491-6.93a18.975,18.975,0,0,1,7.934-.52c4.41.676,8.379,2.533,12.314,4.5,3.569,1.787,7.112,3.635,10.746,5.283a24,24,0,0,0,13.877,2.141c5.515-.865,10.534-3.11,15.549-5.385a.984.984,0,0,0,.532-.672c.034-3.582.023-7.164.023-10.912-.743.307-1.32.56-1.908.787-3.271,1.267-6.5,2.648-9.827,3.764a22.615,22.615,0,0,1-16.941-.65c-4.732-2.124-9.35-4.5-14.023-6.752-3.68-1.775-7.436-3.324-11.568-3.665-5.054-.417-9.592,1.336-14.014,3.456-4.284,2.055-8.48,4.3-12.791,6.292-5.169,2.391-10.6,3.528-16.164,1.683a115.086,115.086,0,0,1-10.931-4.528c-4.219-1.9-8.314-4.086-12.565-5.908a20.1,20.1,0,0,0-10.545-1.61c-4.907.628-9.329,2.643-13.686,4.864-4.444,2.266-8.889,4.545-13.429,6.606a24.709,24.709,0,0,1-12.488,2.15,42.984,42.984,0,0,1-10.678-2.537C84.784,233.678,81.982,232.542,78.98,231.394Z"/>
          <path d="M100.824,225.744c0-2.946-.156-5.825.033-8.681a62.066,62.066,0,0,1,3.294-17.13,123.24,123.24,0,0,1,5.532-12.972,69.622,69.622,0,0,1,11.04-15.325,16.133,16.133,0,0,1,10.013-5.31c7.935-1.217,15.827-2.708,23.736-4.091a5.249,5.249,0,0,0,4.3-5.184,5.145,5.145,0,0,0-5.064-4.934c-3.159-.041-6.32-.006-9.48-.012a4.663,4.663,0,0,1-5.089-4.591c-.23-2.266-.483-4.53-.721-6.8a2.222,2.222,0,0,1,.065-.452l7.542-2.091.01-.249c-.523-.089-1.043-.191-1.567-.266-3.2-.458-6.4-.938-9.611-1.354-2.9-.376-3.9-1.587-3.366-4.437a9.871,9.871,0,0,1,1.077-3.013c3.133-5.527,6.342-11.01,9.5-16.525a4.132,4.132,0,0,0,.451-1.576c.566-5.2,1.09-10.412,1.654-15.616a5.807,5.807,0,0,1,2.991-4.507,54.01,54.01,0,0,1,31.8-8.033,45.9,45.9,0,0,1,15.166,3.25,18.031,18.031,0,0,1,4.842,3.485,37.75,37.75,0,0,1,12.911,26.078,38.281,38.281,0,0,1-23.234,38.177,5.114,5.114,0,0,0-2.2,7.785,4.838,4.838,0,0,0,3.755,2.077c7.817.5,15.637.94,23.451,1.484a6.8,6.8,0,0,1,3.114.957c15.65,10.153,25.06,24.415,28.029,42.867a59.252,59.252,0,0,1,.4,14.821c-.021.235-.079.466-.171,1a46.32,46.32,0,0,1-5.09-1.717c-4.989-2.332-9.9-4.83-14.875-7.2a27.9,27.9,0,0,0-11.241-3.078c-4.285-.119-8.178,1.327-11.952,3.1-4.734,2.223-9.352,4.693-14.105,6.873-5.321,2.439-10.894,3.311-16.547,1.31-3.45-1.221-6.782-2.792-10.116-4.319-3.881-1.779-7.673-3.753-11.562-5.514-6.728-3.047-13.466-2.682-20.053.413-4.7,2.206-9.275,4.663-13.922,6.975C110.96,223.709,106.245,225.638,100.824,225.744Z"/>
          <path class="cls-3" d="M269.192,256.642c0,3.745.01,7.33-.023,10.916a.986.986,0,0,1-.53.669c-4.976,2.268-9.954,4.513-15.43,5.37a24.571,24.571,0,0,1-14.548-2.346c-4.513-2.127-8.927-4.463-13.442-6.585-3.88-1.823-7.872-3.287-12.29-3.145a23.89,23.89,0,0,0-9.454,2.37c-4.733,2.22-9.382,4.622-14.1,6.863-3.886,1.844-7.906,3.208-12.312,3.053a28.577,28.577,0,0,1-11.348-3.1c-4.719-2.251-9.363-4.66-14.088-6.9a26.614,26.614,0,0,0-11.973-2.973,24.944,24.944,0,0,0-10.262,2.555c-5.227,2.483-10.344,5.2-15.551,7.723a28.506,28.506,0,0,1-23.42,1.819c-3.583-1.224-7.106-2.628-10.634-4a1.387,1.387,0,0,1-.767-.975c-.054-3.4-.029-6.8-.021-10.2a2.389,2.389,0,0,1,.137-.478c.977.4,1.925.783,2.866,1.178a66.115,66.115,0,0,0,14.129,4.428,23.894,23.894,0,0,0,13.948-1.621c4.455-1.949,8.736-4.292,13.155-6.329a110.06,110.06,0,0,1,11.119-4.692c5.154-1.721,10.315-.885,15.175,1.28,5.1,2.272,10.027,4.934,15.111,7.246a58.142,58.142,0,0,0,8.406,3.065,19.192,19.192,0,0,0,13.112-1.174c4.927-2.172,9.673-4.751,14.593-6.939a55.075,55.075,0,0,1,9.212-3.27c4.422-1.082,8.754-.083,12.832,1.743,3.858,1.728,7.623,3.665,11.409,5.551a51.314,51.314,0,0,0,10.547,4.175,22.988,22.988,0,0,0,12.855-.753c3.443-1.126,6.772-2.6,10.15-3.921C268.185,257.076,268.613,256.885,269.192,256.642Z"/>
          <path class="cls-3" d="M78.98,231.394c3,1.148,5.8,2.284,8.653,3.291a42.984,42.984,0,0,0,10.678,2.537,24.709,24.709,0,0,0,12.488-2.15c4.54-2.061,8.985-4.34,13.429-6.606,4.357-2.221,8.779-4.236,13.686-4.864a20.1,20.1,0,0,1,10.545,1.61c4.251,1.822,8.346,4.006,12.565,5.908a115.086,115.086,0,0,0,10.931,4.528c5.563,1.845,10.995.708,16.164-1.683,4.311-2,8.507-4.237,12.791-6.292,4.422-2.12,8.96-3.873,14.014-3.456,4.132.341,7.888,1.89,11.568,3.665,4.673,2.254,9.291,4.628,14.023,6.752a22.615,22.615,0,0,0,16.941.65c3.322-1.116,6.556-2.5,9.827-3.764.588-.227,1.165-.48,1.908-.787,0,3.748.011,7.33-.023,10.912a.984.984,0,0,1-.532.672c-5.015,2.275-10.034,4.52-15.549,5.385a24,24,0,0,1-13.877-2.141c-3.634-1.648-7.177-3.5-10.746-5.283-3.935-1.969-7.9-3.826-12.314-4.5a18.975,18.975,0,0,0-7.934.52c-5.533,1.494-10.421,4.41-15.491,6.93-3.829,1.9-7.685,3.723-11.964,4.429a21.107,21.107,0,0,1-12.17-1.7c-5.432-2.413-10.717-5.156-16.1-7.679-4.142-1.94-8.405-3.534-13.095-3.353a25.7,25.7,0,0,0-10.03,2.558c-4.293,2.031-8.5,4.255-12.744,6.38a44.113,44.113,0,0,1-12.183,4.514,26.549,26.549,0,0,1-12.543-.935c-4.029-1.26-7.947-2.874-11.926-4.3a1.319,1.319,0,0,1-1.009-1.489C79.009,238.294,78.98,234.936,78.98,231.394Z"/>
        </g>
      </g>
    </g>
  </g>
</svg>
