<svg xmlns="http://www.w3.org/2000/svg" viewBox="0 0 349.082 523.5">
  <defs>
    <style>
      .cls-1 {
        fill: #00408c;
      }

      .cls-2 {
        fill: none;
        stroke: #fff;
        stroke-miterlimit: 10;
        stroke-width: 9px;
      }

      .cls-3 {
        fill: #fff;
      }

      .cls-4 {
        fill: #ef0b18;
      }
    </style>
  </defs>
  <g id="Layer_2" data-name="Layer 2">
    <g id="Layer_1-2" data-name="Layer 1">
      <g>
        <rect class="cls-1" width="349.082" height="523.5" rx="29.789"/>
        <rect class="cls-2" x="14.657" y="13.053" width="319.769" height="496.718" rx="15.929"/>
        <g>
          <path d="M243.59,47.662c-.245.2-.409.309-.547.447Q231.882,59.174,220.749,70.27a2.6,2.6,0,0,0-.594,1.692q-.032,81.237-.054,162.473a38.731,38.731,0,0,1-1.072,9,41.729,41.729,0,0,1-65.271,24.16c-11.136-8.056-16.923-19.273-17.185-32.973-.294-15.394-.06-30.8-.086-46.2a1.483,1.483,0,0,1,1.03-1.6,52.185,52.185,0,0,0,14.659-9.65c15.831-15,22-33.359,18.018-54.795a55.188,55.188,0,0,0-17.769-31.354,57.454,57.454,0,0,0-40.576-15.262,55.279,55.279,0,0,0-21.074,4.484,57.081,57.081,0,0,0-29.087,26.673,55.777,55.777,0,0,0-5.569,38.217c3.967,19.1,14.9,33,32.49,41.543a1.842,1.842,0,0,1,1.244,1.962q-.055,22.379-.016,44.758A88.927,88.927,0,0,0,93,257.191a87.453,87.453,0,0,0,21.92,38.262c3.738,3.83,7.756,7.4,11.354,11.352a109.922,109.922,0,0,1,22.884,38.885,115.748,115.748,0,0,1,5.171,22.733,139,139,0,0,1,.676,17.941q-.06,44.519-.014,89.037c0,.5.066,1.008.107,1.611h1.66q21.54,0,43.079,0c1.974,0,1.893.279,1.893-1.852V386.48c0-.4,0-.8-.014-1.2a105.953,105.953,0,0,1,1.095-20.2,111.977,111.977,0,0,1,6.834-25.111,109.337,109.337,0,0,1,27.178-39.758,94.84,94.84,0,0,0,18.6-23.027,84.808,84.808,0,0,0,11.325-41.618c.139-54.518.053-109.036.069-163.554a2.568,2.568,0,0,0-.805-2q-10.8-10.748-21.565-21.538C244.2,48.22,243.933,47.983,243.59,47.662Z"/>
          <path class="cls-3" d="M243.59,47.662c.343.321.61.558.862.81Q255.23,59.245,266.017,70.01a2.568,2.568,0,0,1,.805,2c-.016,54.518.07,109.036-.069,163.554a84.808,84.808,0,0,1-11.325,41.618,94.84,94.84,0,0,1-18.6,23.027,109.337,109.337,0,0,0-27.178,39.758,111.977,111.977,0,0,0-6.834,25.111,105.953,105.953,0,0,0-1.095,20.2c.016.4.014.8.014,1.2v88.677c0,2.131.081,1.851-1.893,1.852q-21.54.009-43.079,0H155.1c-.041-.6-.107-1.107-.107-1.611q-.007-44.519.014-89.037a139,139,0,0,0-.676-17.941,115.748,115.748,0,0,0-5.171-22.733,109.922,109.922,0,0,0-22.884-38.885c-3.6-3.954-7.616-7.522-11.354-11.352A87.453,87.453,0,0,1,93,257.191,88.927,88.927,0,0,1,89.837,233.4q-.048-22.378.016-44.758a1.842,1.842,0,0,0-1.244-1.962c-17.593-8.548-28.523-22.442-32.49-41.543a55.777,55.777,0,0,1,5.569-38.217A57.081,57.081,0,0,1,90.775,80.251a55.279,55.279,0,0,1,21.074-4.484,57.454,57.454,0,0,1,40.576,15.262,55.188,55.188,0,0,1,17.769,31.354c3.981,21.436-2.187,39.792-18.018,54.8a52.185,52.185,0,0,1-14.659,9.65,1.483,1.483,0,0,0-1.03,1.6c.026,15.4-.208,30.8.086,46.2.262,13.7,6.049,24.917,17.185,32.973a41.729,41.729,0,0,0,65.271-24.16,38.731,38.731,0,0,0,1.072-9q.087-81.235.054-162.473a2.6,2.6,0,0,1,.594-1.692q11.109-11.118,22.294-22.161C243.181,47.971,243.345,47.861,243.59,47.662ZM113.307,78.778a55.192,55.192,0,1,0,55.117,56.1C168.906,103.732,143.557,78.6,113.307,78.778Z"/>
          <path class="cls-4" d="M113.307,78.778c30.25-.176,55.6,24.954,55.117,56.1a55.219,55.219,0,1,1-55.117-56.1Zm43.525,40.607h-1.444q-42.175,0-84.35-.024c-1.183,0-1.574.271-1.566,1.52q.083,13.078.005,26.157c-.005,1.124.257,1.495,1.447,1.493q42.294-.05,84.589-.028c.424,0,.848-.039,1.319-.062Z"/>
          <path class="cls-3" d="M156.832,119.385v29.056c-.471.023-.895.062-1.319.062q-42.294,0-84.589.028c-1.19,0-1.452-.369-1.447-1.493q.066-13.079-.005-26.157c-.008-1.249.383-1.521,1.566-1.52q42.176.046,84.35.024Z"/>
        </g>
      </g>
    </g>
  </g>
</svg>
