<?xml version="1.0" encoding="UTF-8" standalone="no"?>
<svg
   xmlns:dc="http://purl.org/dc/elements/1.1/"
   xmlns:cc="http://creativecommons.org/ns#"
   xmlns:rdf="http://www.w3.org/1999/02/22-rdf-syntax-ns#"
   xmlns:svg="http://www.w3.org/2000/svg"
   xmlns="http://www.w3.org/2000/svg"
   xmlns:sodipodi="http://sodipodi.sourceforge.net/DTD/sodipodi-0.dtd"
   xmlns:inkscape="http://www.inkscape.org/namespaces/inkscape"
   inkscape:version="1.0 (4035a4fb49, 2020-05-01)"
   inkscape:export-ydpi="96"
   inkscape:export-xdpi="96"
   inkscape:export-filename="C:\Users\Adinan\Documents\rect9004.png"
   sodipodi:docname="Turkey_road_sign_B-49b.svg"
   viewBox="0 0 200.97603 301.30484"
   height="301.30484"
   width="200.97603"
   id="svg8427"
   version="1.1">
  <metadata
     id="metadata8433">
    <rdf:RDF>
      <cc:Work
         rdf:about="">
        <dc:format>image/svg+xml</dc:format>
        <dc:type
           rdf:resource="http://purl.org/dc/dcmitype/StillImage" />
        <dc:title></dc:title>
      </cc:Work>
    </rdf:RDF>
  </metadata>
  <defs
     id="defs8431" />
  <sodipodi:namedview
     inkscape:current-layer="g8435"
     inkscape:window-maximized="1"
     inkscape:window-y="-9"
     inkscape:window-x="-9"
     inkscape:cy="206.43527"
     inkscape:cx="146.30739"
     inkscape:zoom="1.5696782"
     showgrid="true"
     id="namedview8429"
     inkscape:window-height="1001"
     inkscape:window-width="1920"
     inkscape:pageshadow="2"
     inkscape:pageopacity="0"
     guidetolerance="10"
     gridtolerance="10"
     objecttolerance="10"
     borderopacity="1"
     bordercolor="#666666"
     pagecolor="#ffffff"
     inkscape:document-rotation="0">
    <inkscape:grid
       originy="-51.60556"
       originx="-425.39187"
       id="grid18096"
       type="xygrid" />
  </sodipodi:namedview>
  <g
     transform="translate(-808.68197,87.640082)"
     id="g8435"
     inkscape:label="Image"
     inkscape:groupmode="layer">
    <path
       id="path8656"
       style="fill:#00408c;fill-opacity:1;fill-rule:evenodd;stroke-width:0.364999;stroke-linecap:round;stroke-miterlimit:10;paint-order:stroke fill markers"
       d="m 821.34033,-87.640082 h 175.65935 c 7.01272,0 12.65832,5.645621 12.65832,12.658353 V 201.00641 c 0,7.01274 -5.6456,12.65836 -12.65832,12.65836 H 821.34033 c -7.01273,0 -12.65836,-5.64562 -12.65836,-12.65836 V -74.981729 c 0,-7.012732 5.64563,-12.658353 12.65836,-12.658353 z" />
    <path
       id="path8668"
       style="color:#000000;font-style:normal;font-variant:normal;font-weight:normal;font-stretch:normal;font-size:medium;line-height:normal;font-family:sans-serif;font-variant-ligatures:normal;font-variant-position:normal;font-variant-caps:normal;font-variant-numeric:normal;font-variant-alternates:normal;font-variant-east-asian:normal;font-feature-settings:normal;font-variation-settings:normal;text-indent:0;text-align:start;text-decoration:none;text-decoration-line:none;text-decoration-style:solid;text-decoration-color:#000000;letter-spacing:normal;word-spacing:normal;text-transform:none;writing-mode:lr-tb;direction:ltr;text-orientation:mixed;dominant-baseline:auto;baseline-shift:baseline;text-anchor:start;white-space:normal;shape-padding:0;shape-margin:0;inline-size:0;clip-rule:nonzero;display:inline;overflow:visible;visibility:visible;opacity:1;isolation:auto;mix-blend-mode:normal;color-interpolation:sRGB;color-interpolation-filters:linearRGB;solid-color:#000000;solid-opacity:1;vector-effect:none;fill:#ffffff;fill-opacity:1;fill-rule:evenodd;stroke:none;stroke-width:3.8;stroke-linecap:round;stroke-linejoin:miter;stroke-miterlimit:10;stroke-dasharray:none;stroke-dashoffset:0;stroke-opacity:1;paint-order:stroke fill markers;color-rendering:auto;image-rendering:auto;shape-rendering:auto;text-rendering:auto;enable-background:accumulate;stop-color:#000000;stop-opacity:1"
       d="m 821.045,-83.886595 c -4.75316,0 -8.62591,3.872752 -8.62591,8.625909 V 201.2738 c 0,4.75316 3.87275,8.62591 8.62591,8.62591 h 176.22878 c 4.75312,0 8.62432,-3.87275 8.62432,-8.62591 V -75.260686 c 0,-4.753157 -3.8712,-8.625909 -8.62432,-8.625909 z m 0,2.928444 h 176.22878 c 3.18262,0 5.69892,2.514875 5.69892,5.697465 V 201.2738 c 0,3.18259 -2.5163,5.69746 -5.69892,5.69746 H 821.045 c -3.18259,0 -5.69746,-2.51487 -5.69746,-5.69746 V -75.260686 c 0,-3.18259 2.51487,-5.697465 5.69746,-5.697465 z m 0.30533,3.799316 c -1.38261,0 -2.49678,1.11268 -2.49678,2.495269 v 24.802309 l 0.48732,-0.163944 c -10e-6,-7.7e-4 -10e-6,-0.0023 0,-0.0031 l 0.6257,-0.200039 c 0.003,-7.7e-4 0.007,-4.77e-4 0.0105,-0.0015 l 0.60916,-0.17297 c 0.002,-3.1e-5 0.004,-3.1e-5 0.006,0 l 0.60915,-0.148905 c 0.003,-7.7e-4 0.007,-0.0023 0.0105,-0.0031 l 0.62569,-0.120327 c 0.003,-9.2e-5 0.007,-9.2e-5 0.0105,0 l 0.60916,-0.08422 c 0.002,-7.7e-4 0.004,-0.0023 0.006,-0.0031 l 0.63021,-0.06769 c 0.005,-2.23e-4 0.011,-2.23e-4 0.0166,0 l 0.60765,-0.01656 -0.006,0.0031 c 0.005,-1.85e-4 0.0103,-1.85e-4 0.015,0 l 0.67684,0.03311 c 0.003,-9.3e-5 0.007,-9.3e-5 0.0105,0 l 0.67834,0.06769 c 0.002,6.39e-4 0.004,4.77e-4 0.006,0.0015 l 0.69339,0.100774 c 0.004,5.39e-4 0.009,0.0023 0.0136,0.0031 l 0.67834,0.153417 c 0.002,7.71e-4 0.005,0.0023 0.008,0.0031 l 0.67834,0.17297 c 0.003,-7e-5 0.006,-7e-5 0.009,0 l 0.67833,0.200046 c 0.003,7.7e-4 0.007,0.0023 0.0105,0.0031 l 0.67834,0.236148 c 7.7e-4,7.7e-4 0.002,0.0023 0.003,0.0031 l 0.67834,0.255693 c 7.7e-4,-8e-6 0.004,-8e-6 0.005,0 l 0.69489,0.269231 c 0.003,0.0023 0.006,0.0054 0.009,0.0077 l 0.67835,0.305325 c 7.7e-4,-8e-6 0.002,-8e-6 0.003,0 l 1.35517,0.627207 c 0.003,0.0023 0.006,0.0039 0.009,0.0062 l 1.35518,0.693381 1.37172,0.694883 1.35669,0.693382 1.35367,0.675338 1.34916,0.642239 0.67232,0.28277 0.66932,0.270733 0.67233,0.25118 0.67081,0.218097 0.65428,0.20305 0.66781,0.165446 0.66932,0.135366 0.66781,0.09777 0.64976,0.06769 0.66481,0.02102 0.6633,-0.02102 0.64525,-0.06769 0.67082,-0.09777 0.66782,-0.135366 0.6678,-0.165446 0.67083,-0.20305 0.67082,-0.218097 0.65577,-0.249679 0.67534,-0.272234 0.67232,-0.28277 1.34917,-0.642239 1.35367,-0.67684 1.37022,-0.69188 1.35517,-0.694883 v -0.0031 l 1.35669,-0.678341 v -0.0015 l 1.35217,-0.645251 c 0.003,-7.7e-4 0.006,-0.0023 0.009,-0.0031 l 0.69789,-0.303823 c 0.003,-7.7e-4 0.007,-0.0023 0.0105,-0.0031 l 0.67834,-0.26773 c -10e-6,-7.7e-4 -10e-6,-0.0023 0,-0.0031 l 0.67834,-0.255693 c 0.002,-7.7e-4 0.005,-0.0023 0.008,-0.0031 l 0.67834,-0.236148 c 0.002,-7.7e-4 0.004,-0.0023 0.006,-0.0031 l 0.67833,-0.200046 c 0.004,-7.7e-4 0.008,-0.0023 0.012,-0.0031 l 0.69338,-0.17297 c 0.002,-7.31e-4 0.005,-0.0023 0.008,-0.0031 l 0.67684,-0.153417 c 0.005,-5.62e-4 0.011,1.15e-4 0.0166,0 l 0.67834,-0.100774 c 0.003,-4.31e-4 0.007,-0.0015 0.0105,-0.0015 l 0.67834,-0.06769 c 0.003,-9.3e-5 0.007,-9.3e-5 0.0105,0 l 0.67684,-0.03311 c 0.007,-3.7e-4 0.0139,-3.7e-4 0.021,0 l 0.67383,0.03311 c 0.003,-7e-5 0.006,-7e-5 0.009,0 l 0.67834,0.06769 c 0.002,3e-4 0.005,7.7e-4 0.008,0.0015 l 0.6979,0.100774 c 0.004,-1.54e-4 0.009,-1.54e-4 0.0136,0 l 0.67383,0.153417 c 0.002,7.7e-4 0.005,0.0023 0.008,0.0031 l 0.68285,0.17297 c 0.002,6.47e-4 0.004,4.78e-4 0.006,0.0015 l 0.67383,0.200046 c 0.003,7.7e-4 0.007,0.0023 0.0105,0.0031 l 0.68135,0.236141 c 0.002,7.7e-4 0.005,0.0023 0.008,0.0031 l 0.69338,0.255693 c 0.004,0.0023 0.008,0.0038 0.012,0.0062 l 0.67835,0.288783 0.67533,0.28277 c 0.003,0.0023 0.007,0.0038 0.0106,0.0062 l 1.35518,0.645251 c 0.002,6.39e-4 0.005,0.0023 0.008,0.0031 l 1.35067,0.678342 v 0.0015 l 1.37172,0.694891 1.35667,0.712933 1.35217,0.67232 1.34616,0.625698 0.67383,0.282769 0.67383,0.270733 0.67082,0.251188 0.67232,0.218089 0.65428,0.20305 0.66781,0.165446 0.66932,0.135374 0.66781,0.09776 0.64525,0.06915 0.66782,0.01956 0.66631,-0.01956 0.66329,-0.06915 0.64827,-0.09776 0.66931,-0.135374 0.67232,-0.165446 0.66782,-0.183497 0.66781,-0.23614 0.67383,-0.251181 0.65729,-0.272242 0.67382,-0.282769 1.34616,-0.6272 1.37172,-0.670818 1.35368,-0.712933 1.35517,-0.694891 v -0.0015 l 1.35217,-0.678342 c 0.002,-7.31e-4 0.004,-0.0023 0.006,-0.0031 l 1.37172,-0.645251 c 0.002,-0.0023 0.005,-0.0038 0.008,-0.0062 l 0.68136,-0.28277 0.67231,-0.288783 c 0.003,-0.0023 0.007,-0.0039 0.0106,-0.0062 l 0.68134,-0.255693 c 0.003,-7.7e-4 0.007,-0.0023 0.0106,-0.0031 l 0.67684,-0.219592 c -10e-6,-7.7e-4 -10e-6,-0.0023 0,-0.0031 l 0.67819,-0.216187 c 0.004,-7.7e-4 0.009,-0.0023 0.0136,-0.0031 l 0.69489,-0.17297 c 0.003,-7.7e-4 0.007,-0.0038 0.0106,-0.0046 l 0.67683,-0.132356 0.67685,-0.120326 c 0.005,-7.7e-4 0.011,-0.0023 0.0166,-0.0031 l 0.67382,-0.06769 c 0.004,-1.24e-4 0.008,-1.24e-4 0.012,0 l 0.67684,-0.03311 v -0.0046 c 0.006,-3.15e-4 0.0131,-3.15e-4 0.0196,0 l 0.67683,0.03311 c 0.004,-1.23e-4 0.008,-1.23e-4 0.012,0 l 0.69489,0.06769 c 0.005,7.7e-4 0.0103,0.0023 0.015,0.0031 l 0.68286,0.120327 0.68135,0.132363 c 0.003,0.0023 0.007,0.0023 0.0106,0.0046 l 0.67683,0.172969 c 0.004,7.71e-4 0.008,0.0023 0.012,0.0031 l 0.67834,0.216588 c 0,7.7e-4 0,0.0023 0,0.0031 l 0.67383,0.219591 c 0.003,7.7e-4 0.006,0.0039 0.009,0.0046 l 0.69789,0.255693 0.0106,0.0062 0.67834,0.288784 0.67383,0.284271 c 0.002,7.7e-4 0.004,0.0023 0.006,0.0031 l 1.35668,0.645251 1.37173,0.678342 1.35968,0.69489 1.35368,0.712934 1.34766,0.672319 1.34916,0.625698 0.67383,0.284279 0.67081,0.285773 0.67233,0.234639 0.66932,0.237642 0.67082,0.183497 0.65578,0.165453 0.66781,0.135367 0.66781,0.09626 0.6648,0.06769 0.64376,0.02102 0.66631,-0.02102 0.66329,-0.06769 0.65428,-0.09626 0.66931,-0.135367 0.67083,-0.150414 0.6648,-0.195525 0.67233,-0.240653 0.67082,-0.234639 0.67081,-0.285773 0.67383,-0.284279 1.34917,-0.625698 1.35217,-0.672319 1.35367,-0.697894 1.35066,-0.70993 c 0.002,-3.7e-4 0.004,3.08e-4 0.006,0 l 1.35519,-0.678342 c 0.003,-6.9e-5 0.008,-6.9e-5 0.0105,0 l 1.37624,-0.645251 0.009,-0.0062 0.67834,-0.28277 c 0,-7.7e-4 0,-0.0023 0,-0.0031 l 0.67834,-0.273744 0.67383,-0.272242 c 0.004,-7.7e-4 0.009,-0.0038 0.0136,-0.0046 l 0.67834,-0.219591 c 0.003,-7.7e-4 0.005,-0.0023 0.008,-0.0031 l 0.6979,-0.200046 c -2e-5,-7.7e-4 -2e-5,-0.0023 0,-0.0031 l 0.67383,-0.188009 c 0.005,-0.0031 0.0109,-0.0039 0.0166,-0.0062 l 0.67835,-0.132363 c 0.003,-7e-5 0.006,-7e-5 0.009,0 l 0.67834,-0.103785 c 0.002,-3.1e-5 0.005,-3.1e-5 0.008,0 l 0.67833,-0.08423 c 0.006,-2.7e-4 0.0121,-2.7e-4 0.018,0 l 0.67834,-0.01656 c 0.003,-9.2e-5 0.007,-9.2e-5 0.0105,0 l 0.67834,0.01656 c 0.006,-3.08e-4 0.0131,-3.08e-4 0.0196,0 l 0.6979,0.08423 c 0.003,-6.2e-5 0.006,-6.2e-5 0.009,0 l 0.67684,0.103785 c 0.003,-7e-5 0.006,-7e-5 0.009,0 l 0.6768,0.132363 c 0,0.0023 0.01,0.0031 0.015,0.0062 l 0.6739,0.188009 c 0,7.7e-4 0,0.0023 0,0.0031 l 0.6783,0.200046 c 0,7.7e-4 0.01,0.0023 0.01,0.0031 l 0.6933,0.239144 c 0,7.7e-4 0.01,0.0038 0.01,0.0046 l 0.6784,0.252689 v 0.0015 l 0.6784,0.273744 c 0,7.7e-4 0.01,0.0023 0.01,0.0031 l 0.6768,0.305325 1.3551,0.625698 c 0,6.39e-4 0.01,4.77e-4 0.01,0.0015 l 1.3793,0.679851 c 0,6.16e-4 0.01,0.0023 0.01,0.0031 l 1.3522,0.709931 1.3536,0.697894 1.3507,0.672319 1.3522,0.627208 0.6738,0.303823 0.6723,0.264719 0.6708,0.254191 0.6709,0.218089 0.6708,0.198537 0.6543,0.166956 0.6678,0.133864 0.6633,0.102276 0.6678,0.04813 0.6468,0.03458 0.6648,-0.03458 0.6677,-0.04813 0.6483,-0.102276 0.6694,-0.133864 0.6678,-0.166956 0.6723,-0.198537 0.6693,-0.218089 0.6723,-0.254191 0.6739,-0.264719 0.6722,-0.303823 1.3508,-0.627208 1.3476,-0.672319 1.3537,-0.697894 1.3567,-0.709931 v -0.0031 l 1.3566,-0.678342 0.01,-0.0031 1.3763,-0.625698 0.6738,-0.305325 0.011,-0.0031 0.6784,-0.273743 c 0,-3.9e-5 0,-3.9e-5 0.01,0 l 0.6768,-0.252682 c 0,-7.7e-4 0,-0.0023 0,-0.0031 l 0.6768,-0.239151 c 0.01,-0.0023 0.01,-0.0023 0.012,-0.0046 l 0.6949,-0.198537 c 0,-0.0023 0.01,-0.0038 0.01,-0.0062 l 0.6784,-0.168457 0.011,-0.0031 0.6783,-0.151908 c 0.01,-7.7e-4 0.01,-0.0023 0.014,-0.0031 l 0.6768,-0.103785 c 0.01,-4.55e-4 0.01,2.31e-4 0.012,0 l 0.6784,-0.06915 c 0,-9.3e-5 0.01,-9.3e-5 0.011,0 l 0.6768,-0.03157 c 0.01,-2.31e-4 0.011,-2.31e-4 0.017,0 l 0.4933,0.01656 c 0.01,-1.23e-4 0.01,-1.23e-4 0.012,0 l 0.4889,0.03612 c 0,-8.4e-5 0.01,-8.4e-5 0.011,0 l 0.4933,0.06315 c 0,7.7e-4 0,0.0023 0,0.0031 l 0.4106,0.05714 v -24.006653 c 0,-1.382597 -1.1142,-2.495269 -2.4968,-2.495269 z m 45.79628,35.070674 -0.65878,0.03157 -0.66632,0.06615 -0.66931,0.120327 -0.66781,0.133864 -0.68436,0.183497 -0.67383,0.201548 -0.66932,0.219599 -0.67232,0.248169 -0.67383,0.287282 c 10e-6,7.71e-4 10e-6,0.0023 0,0.0031 l -0.69338,0.287274 -1.34465,0.636233 -1.35367,0.676832 -1.35367,0.69188 -1.37173,0.714435 c 10e-6,7.7e-4 10e-6,0.0039 0,0.0046 l -1.35668,0.678341 c -0.002,7.24e-4 -0.005,4.78e-4 -0.008,0.0015 l -1.35518,0.625698 -0.009,0.0031 -0.67834,0.288784 c -0.002,4.6e-5 -0.004,4.6e-5 -0.006,0 l -0.67684,0.269231 -0.6618,0.255693 -0.008,0.0062 -0.67683,0.237642 c -0.005,7.71e-4 -0.0103,0.0023 -0.015,0.0031 l -0.67684,0.184999 c -0.003,5.3e-5 -0.005,5.3e-5 -0.008,0 l -0.67834,0.172969 c -0.003,4.09e-4 -0.006,0.0015 -0.009,0.0015 l -0.67834,0.132363 c -0.003,6.9e-5 -0.006,6.9e-5 -0.009,0 l -0.67684,0.105286 c -0.004,7.7e-4 -0.008,4.78e-4 -0.012,0.0015 l -0.65879,0.06469 c -0.004,1.54e-4 -0.009,1.54e-4 -0.0136,0 l -0.67834,0.01956 c -0.005,1.85e-4 -0.0103,1.85e-4 -0.015,0 h -0.008 l -0.66933,-0.01956 c -0.004,1.54e-4 -0.009,1.54e-4 -0.0135,0 l -0.6618,-0.06469 c -0.003,-5.93e-4 -0.007,-4.78e-4 -0.0105,-0.0015 l -0.67684,-0.105286 c -0.003,9.2e-5 -0.007,9.2e-5 -0.0106,0 l -0.67834,-0.132363 c -0.003,-2.47e-4 -0.007,-7.7e-4 -0.0105,-0.0015 l -0.67834,-0.172969 c -0.003,6.9e-5 -0.006,6.9e-5 -0.009,0 l -0.6618,-0.184999 c -0.004,-0.0023 -0.008,-0.0039 -0.012,-0.0062 l -0.67834,-0.23614 c -0.003,7.7e-5 -0.006,7.7e-5 -0.009,0 l -0.67683,-0.257195 c -2e-5,-7.7e-4 -2e-5,-0.0023 0,-0.0031 l -0.67684,-0.269231 c -0.002,-6.32e-4 -0.005,-0.0023 -0.008,-0.0031 l -0.67834,-0.288784 c -0.002,-7.7e-4 -0.004,-0.0023 -0.006,-0.0031 l -1.35519,-0.625698 c -0.002,-6.39e-4 -0.005,-4.77e-4 -0.008,-0.0015 l -1.35668,-0.679851 -1.35066,-0.714435 -1.36872,-0.690371 -1.35367,-0.678341 -1.35067,-0.639236 -0.67383,-0.285781 -0.69338,-0.287274 -0.67232,-0.25118 -0.66781,-0.234639 -0.66932,-0.201548 -0.66781,-0.165446 -0.67233,-0.133865 -0.68285,-0.120326 -0.66481,-0.06615 -0.66329,-0.03157 -0.59712,0.03157 -0.62119,0.05267 -0.59562,0.08122 -0.61818,0.135367 -0.60313,0.133865 -0.60163,0.166947 -0.62119,0.201548 -0.60615,0.219599 -0.009,0.0031 v 6.276534 l 0.48131,-0.160941 c 7.7e-4,-7.7e-4 0.002,-0.0023 0.003,-0.0031 l 0.6257,-0.200046 c 0.003,-7.62e-4 0.006,-4.77e-4 0.009,-0.0015 l 0.60916,-0.17297 0.008,-0.0031 0.60915,-0.148905 c 0.003,-4.31e-4 0.007,-0.0015 0.0105,-0.0015 l 0.62569,-0.120327 c 0.004,-1.23e-4 0.008,-1.23e-4 0.012,0 l 0.60915,-0.08423 0.006,-0.0031 0.63022,-0.06769 c 0.005,-2.31e-4 0.011,-2.31e-4 0.0166,0 l 0.60765,-0.01656 -0.006,0.0015 c 0.004,-1.54e-4 0.009,-1.54e-4 0.0136,0 l 0.67683,0.03311 c 0.004,-1.23e-4 0.008,-1.23e-4 0.012,0 l 0.67834,0.06769 c 0.003,7.7e-4 0.007,0.0023 0.0105,0.0031 l 0.69338,0.100774 c 0.004,-1.54e-4 0.009,-1.54e-4 0.0136,0 l 0.67835,0.153417 c 0.002,7.7e-4 0.004,0.0023 0.006,0.0031 l 0.67834,0.17146 c 0.003,7.7e-4 0.005,0.0039 0.008,0.0046 l 0.67834,0.200046 c 0.003,7.7e-4 0.007,0.0023 0.0105,0.0031 l 0.67834,0.236141 c 7.7e-4,7.7e-4 0.002,0.0023 0.003,0.0031 l 0.67834,0.255693 c 7.7e-4,-8e-6 0.002,-8e-6 0.003,0 l 0.69489,0.269231 0.009,0.0062 0.67834,0.305333 h 0.003 l 1.35668,0.628701 c 0.004,0.0023 0.007,0.0054 0.0106,0.0077 l 1.35518,0.693381 1.37173,0.694883 1.35668,0.693382 1.35367,0.675338 1.34916,0.642239 0.67233,0.28277 0.66931,0.270733 0.67233,0.25118 0.67082,0.218097 0.65427,0.20305 0.66782,0.165446 0.66931,0.135366 0.66781,0.09777 0.64976,0.06615 0.66481,0.02102 0.6633,-0.02102 0.64525,-0.06615 0.67082,-0.09777 0.66782,-0.135366 0.66781,-0.165446 0.67082,-0.20305 0.67082,-0.218097 0.65578,-0.249679 0.67533,-0.272234 0.67232,-0.28277 1.34917,-0.642239 1.35367,-0.67684 1.37022,-0.69188 1.35518,-0.694883 c -1e-5,-7.7e-4 -1e-5,-0.0038 0,-0.0046 l 1.35668,-0.678341 c -10e-6,-7.71e-4 -10e-6,-0.0023 0,-0.0031 l 1.35217,-0.64525 0.006,-0.0031 0.69789,-0.303823 0.009,-0.0031 0.67835,-0.267729 c -1e-5,-7.7e-4 -1e-5,-0.0023 0,-0.0031 l 0.67834,-0.255693 0.009,-0.0031 0.67834,-0.23614 c 0.002,-7.7e-4 0.005,-0.0023 0.008,-0.0031 l 0.67834,-0.200038 c 0.004,-7.7e-4 0.008,-0.0023 0.012,-0.0031 l 0.69339,-0.17297 c 0.002,-3.69e-4 0.004,-0.0015 0.006,-0.0015 l 0.67683,-0.153417 c 0.005,-0.0023 0.011,-0.0038 0.0166,-0.0046 l 0.67834,-0.09927 c 0.003,-8.5e-5 0.007,-8.5e-5 0.0106,0 l 0.67834,-0.06769 c 0.003,-9.2e-5 0.007,-9.2e-5 0.0105,0 l 0.67684,-0.03458 c 0.007,-3.54e-4 0.0141,-3.54e-4 0.021,0 l 0.67383,0.03458 c 0.003,-6.9e-5 0.006,-6.9e-5 0.009,0 l 0.67834,0.06769 c 0.003,-8.5e-5 0.007,-8.5e-5 0.0105,0 l 0.6979,0.09927 c 0.004,7.71e-4 0.009,0.0023 0.0136,0.0031 l 0.67383,0.153417 c 0.003,6.16e-4 0.008,4.78e-4 0.0105,0.0015 l 0.68285,0.17297 c 0.002,-3.8e-5 0.004,-3.8e-5 0.006,0 l 0.67383,0.200039 c 0.003,7.7e-4 0.007,0.0038 0.0106,0.0046 l 0.68135,0.236141 c 0.002,7.7e-4 0.004,0.0023 0.006,0.0031 l 0.69338,0.255693 c 0.003,0.0023 0.007,0.0038 0.0106,0.0062 l 0.67834,0.288783 0.67684,0.28277 c 0.003,7.7e-4 0.007,0.0023 0.0105,0.0031 l 1.35517,0.645251 c 0.002,0.0023 0.005,0.0023 0.008,0.0046 l 1.35217,0.678342 1.37172,0.696384 1.35518,0.712942 1.35367,0.672319 1.34465,0.625698 0.67383,0.281268 0.67382,0.272235 0.67083,0.25118 0.67383,0.216588 0.65427,0.203057 0.66782,0.166948 0.66781,0.135366 0.66931,0.09626 0.64526,0.06915 0.6678,0.01956 0.66632,-0.01956 0.66178,-0.06915 0.64827,-0.09626 0.67081,-0.135366 0.67084,-0.166948 0.6678,-0.183505 0.66933,-0.23614 0.67383,-0.249671 0.65727,-0.273744 0.67383,-0.281268 1.34616,-0.628701 1.37021,-0.669316 1.35368,-0.712942 1.35668,-0.696384 1.35066,-0.678342 c 0.003,-0.0023 0.006,-0.0023 0.009,-0.0046 l 1.37172,-0.645251 0.009,-0.0031 0.68136,-0.28277 0.67232,-0.288783 c 0.003,-0.0023 0.007,-0.0039 0.0106,-0.0062 l 0.68135,-0.255693 c 0.003,-7.7e-4 0.007,-0.0023 0.0105,-0.0031 l 0.67684,-0.221093 c -10e-6,-7.7e-4 -10e-6,-0.0023 0,-0.0031 l 0.67834,-0.216588 c 0.004,-7.7e-4 0.009,-0.0023 0.0136,-0.0031 l 0.69489,-0.17297 c 0.003,-0.0023 0.007,-0.0023 0.0106,-0.0046 l 0.67684,-0.132355 0.67684,-0.120327 c 0.005,-7.7e-4 0.011,-0.0023 0.0166,-0.0031 l 0.67382,-0.06769 c 0.003,-9.3e-5 0.007,-9.3e-5 0.0105,0 l 0.67534,-0.03311 -0.002,-0.0031 c 0.006,-3.09e-4 0.0131,-3.09e-4 0.0196,0 l 0.67684,0.03311 c 0.003,-9.2e-5 0.007,-9.2e-5 0.0105,0 l 0.69639,0.06769 c 0.005,7.7e-4 0.0103,0.0023 0.015,0.0031 l 0.68286,0.120326 0.67834,0.132363 c 0.003,0.0023 0.007,0.0039 0.0106,0.0062 l 0.67682,0.17297 c 0.004,-1.23e-4 0.008,-1.23e-4 0.012,0 l 0.67834,0.216588 c 3e-5,0.0023 3e-5,0.0038 0,0.0062 l 0.67383,0.219599 c 0.003,0.0023 0.006,0.0023 0.009,0.0046 l 0.69789,0.255693 c 0.003,0.0023 0.008,0.0023 0.0106,0.0046 l 0.67834,0.288784 0.67383,0.284271 c 0.002,7.7e-4 0.004,0.0023 0.006,0.0031 l 1.35669,0.645251 c 0,7.7e-4 0,0.0023 0,0.0031 l 1.37172,0.678342 1.35968,0.69489 1.35369,0.712934 1.34766,0.67232 1.34766,0.625698 0.67382,0.284271 0.67081,0.28578 0.67383,0.234631 0.66783,0.23765 0.67081,0.183497 0.65729,0.165446 0.66781,0.135366 0.66631,0.09777 0.6648,0.06769 0.64525,0.02102 0.66481,-0.02102 0.6633,-0.06769 0.65427,-0.09777 0.67081,-0.135366 0.67084,-0.150406 0.66329,-0.195534 0.67383,-0.240653 0.67082,-0.234631 0.67082,-0.28578 0.67382,-0.284271 1.34918,-0.625698 1.35216,-0.67232 1.35367,-0.697894 1.35066,-0.70993 c 0.002,-3.1e-5 0.004,-3.1e-5 0.006,0 l 1.35518,-0.678342 0.0106,-0.0031 1.37623,-0.645251 c 0.003,-0.0023 0.006,-0.0023 0.009,-0.0046 l 0.67834,-0.282769 c 0,-7.71e-4 0,-0.0023 0,-0.0031 l 0.67835,-0.273744 0.67382,-0.272234 c 0.004,-0.0023 0.009,-0.0023 0.0136,-0.0046 l 0.67834,-0.219599 c 0.003,-0.0023 0.006,-0.0038 0.009,-0.0062 l 0.69789,-0.200047 c 0,-7.7e-4 0,-0.0023 0,-0.0031 l 0.67383,-0.18801 c 0.005,-0.0023 0.0109,-0.0038 0.0166,-0.0062 l 0.67834,-0.132356 c 0.002,-3.8e-5 0.005,-3.8e-5 0.008,0 l 0.67834,-0.103785 c 0.003,-6.9e-5 0.006,-6.9e-5 0.009,0 l 0.67834,-0.08423 c 0.006,-2.69e-4 0.0121,-2.69e-4 0.018,0 l 0.67834,-0.01656 c 0.003,-7e-5 0.006,-7e-5 0.009,0 l 0.67834,0.01656 c 0.006,-3.08e-4 0.0131,-3.08e-4 0.0196,0 l 0.69789,0.08423 c 0.003,-6.9e-5 0.006,-6.9e-5 0.009,0 l 0.67684,0.103785 c 0.003,-6.9e-5 0.006,-6.9e-5 0.009,0 l 0.67682,0.132356 c 0,0.0023 0.01,0.0038 0.015,0.0062 l 0.6738,0.18801 c 0,7.7e-4 0,0.0023 0,0.0031 l 0.6784,0.200047 c 0,0.0023 0.01,0.0038 0.01,0.0062 l 0.6934,0.239152 c 0,7.7e-4 0.01,0.0023 0.01,0.0031 l 0.6783,0.252682 0.6784,0.273744 c 0,7.7e-4 0.01,0.0023 0.01,0.0031 l 0.6768,0.305326 1.3551,0.625698 c 0,2.69e-4 0.01,7.7e-4 0.01,0.0015 l 1.3748,0.678341 c 0,6.16e-4 0.01,4.85e-4 0.01,0.0015 l 1.3522,0.709931 1.3536,0.697894 1.3507,0.672327 1.3521,0.6272 0.6739,0.303823 0.6723,0.264719 0.6708,0.254191 0.6709,0.21809 0.6708,0.198536 0.6543,0.166956 0.6678,0.133865 0.6633,0.102275 0.6678,0.04813 0.6467,0.03458 0.6648,-0.03458 0.6678,-0.04813 0.6483,-0.102275 0.6693,-0.133865 0.6678,-0.166956 0.6724,-0.198536 0.6693,-0.21809 0.6723,-0.254191 0.6739,-0.264719 0.6723,-0.303823 1.3506,-0.6272 1.3477,-0.672327 1.3536,-0.697894 1.3567,-0.709931 v -0.0015 l 1.3567,-0.678341 c 0,-3.77e-4 0.01,-0.0015 0.01,-0.0015 l 1.3763,-0.625698 0.6738,-0.305326 0.01,-0.0031 0.6784,-0.273913 c 0,-3.78e-4 0.01,3e-4 0.01,0 l 0.6768,-0.252682 c 0,-7.7e-4 0,-0.0023 0,-0.0031 l 0.6768,-0.239151 c 0.01,-0.0023 0.01,-0.0038 0.012,-0.0062 l 0.695,-0.200046 0.01,-0.0031 0.6783,-0.168458 0.01,-0.0031 0.6769,-0.151908 c 0.01,-7.7e-4 0.01,-0.0023 0.015,-0.0031 l 0.6768,-0.103785 c 0,-7.7e-4 0.01,-4.78e-4 0.011,-0.0015 l 0.6783,-0.06915 c 0,-9.3e-5 0.01,-9.3e-5 0.011,0 l 0.6768,-0.03157 c 0.01,-3.16e-4 0.013,-3.16e-4 0.019,0 l 0.4934,0.01656 c 0,-9.3e-5 0.01,-9.3e-5 0.011,0 l 0.4888,0.03612 c 0,-9.2e-5 0.01,-9.2e-5 0.011,0 l 0.4934,0.06315 c 0,7.7e-4 0,0.0023 0,0.0031 l 0.4226,0.05868 v -5.572625 c -0.094,-0.01918 -0.1614,-0.101336 -0.1624,-0.197036 v -0.553502 l -0.3174,-0.05568 -0.4843,-0.06615 -0.4783,-0.03612 -0.4783,-0.01656 -0.6663,0.03612 -0.6678,0.06915 -0.6663,0.09776 -0.6694,0.150406 -0.6693,0.166956 -0.6858,0.201548 -0.6708,0.233129 -0.6738,0.25269 -0.6709,0.269231 -0.6678,0.302322 -1.3748,0.643741 -1.3506,0.672327 -1.3537,0.697894 -1.3567,0.693381 c 0,7.7e-4 0,0.0023 0,0.0031 l -1.3145,0.678341 c 0,4.31e-4 -0.01,0.0015 -0.011,0.0015 l -1.3552,0.642248 c 0,3.69e-4 -0.01,-3.01e-4 -0.01,0 l -0.6784,0.288783 -0.01,0.0031 -0.6768,0.272242 -0.01,0.0031 -0.6783,0.25269 c 0,4.08e-4 -0.01,0.0015 -0.011,0.0015 l -0.6784,0.221101 c 0,4.31e-4 -0.01,0.0015 -0.011,0.0015 l -0.6768,0.204559 -0.01,0.0031 -0.6784,0.16845 -0.01,0.0031 -0.6783,0.135366 c 0,7.71e-4 -0.01,0.0023 -0.011,0.0031 l -0.6618,0.09926 c 0,7.7e-4 -0.01,0.0023 -0.011,0.0031 l -0.6768,0.06769 c -0.01,1.84e-4 -0.01,1.84e-4 -0.015,0 l -0.6768,0.01656 c 0,3.8e-5 -0.01,3.8e-5 -0.01,0 l -0.6573,-0.01656 c -0.01,2.69e-4 -0.012,2.69e-4 -0.018,0 l -0.6784,-0.06769 c 0,-7.7e-4 -0.01,-0.0023 -0.011,-0.0031 l -0.6783,-0.09926 c 0,-7.7e-4 -0.01,-0.0023 -0.011,-0.0031 l -0.6783,-0.135366 c 0,-7.7e-4 -0.01,-0.0023 -0.01,-0.0031 l -0.6618,-0.16845 c 0,-7.7e-4 -0.01,-0.0023 -0.01,-0.0031 l -0.6769,-0.204559 c 0,-2.93e-4 -0.01,-7.7e-4 -0.01,-0.0015 l -0.6783,-0.221101 c 0,-3e-4 -0.01,-7.7e-4 -0.01,-0.0015 l -0.6783,-0.25269 c 0,-7.7e-4 -0.01,-0.0023 -0.01,-0.0031 l -0.6784,-0.272242 c 0,-7.7e-4 0,-0.0023 0,-0.0031 l -0.6783,-0.288783 c 0,-3.01e-4 0,3.69e-4 -0.01,0 l -1.3567,-0.642248 v -0.0015 l -1.3567,-0.678341 c 0,-7.7e-4 0,-0.0023 0,-0.0031 l -1.3552,-0.693381 -1.3566,-0.697894 -1.3672,-0.691879 -1.3522,-0.624189 -0.6739,-0.302322 -0.6708,-0.269231 -0.6723,-0.25269 -0.6874,-0.233129 -0.6708,-0.201548 -0.6693,-0.166956 -0.66782,-0.150406 -0.66631,-0.09776 -0.68586,-0.06915 -0.66029,-0.03612 -0.6618,0.03612 -0.66781,0.06915 -0.66631,0.09776 -0.66781,0.150406 -0.66781,0.166956 -0.69038,0.201548 -0.66931,0.233129 -0.67383,0.25269 -0.67233,0.269231 -0.67383,0.302322 -1.36721,0.624189 -1.35217,0.691879 -1.34916,0.697894 -1.35668,0.693381 c 2e-5,7.7e-4 2e-5,0.0023 0,0.0031 l -1.35517,0.678341 c -0.003,4.08e-4 -0.008,0.0015 -0.0105,0.0015 l -1.35518,0.625698 -0.67684,0.305333 -0.009,0.0062 -0.67834,0.272235 -0.67684,0.252689 c -0.003,7.7e-4 -0.007,0.0039 -0.0105,0.0046 l -0.67834,0.219591 -0.009,0.0031 -0.67684,0.204559 c -0.003,7.7e-4 -0.007,4.7e-4 -0.0105,0.0015 l -0.67683,0.168458 c -0.004,7.7e-4 -0.008,0.0023 -0.012,0.0031 l -0.67835,0.136876 c -0.003,9.2e-5 -0.007,9.2e-5 -0.0105,0 l -0.6618,0.100774 c -0.004,7.7e-4 -0.009,0.0023 -0.0135,0.0031 l -0.67984,0.05267 c -0.002,4.6e-5 -0.005,4.6e-5 -0.008,0 l -0.66029,0.03157 c -0.0119,0.0023 -0.024,0.0031 -0.0361,0.0031 l -0.65579,-0.03458 c -0.002,4.6e-5 -0.005,4.6e-5 -0.008,0 l -0.67834,-0.05113 c -0.004,-7.7e-4 -0.009,-0.0023 -0.0135,-0.0031 l -0.67834,-0.09927 c -0.003,-7.7e-4 -0.006,-0.0023 -0.009,-0.0031 l -0.67834,-0.135366 c -0.003,-7.7e-4 -0.007,-0.0023 -0.0105,-0.0031 l -0.6618,-0.168458 c -0.003,-6.16e-4 -0.006,-4.77e-4 -0.009,-0.0015 l -0.67834,-0.204559 c -0.002,4.6e-5 -0.005,4.6e-5 -0.008,0 l -0.67683,-0.2211 c -0.003,-6.16e-4 -0.006,-0.0023 -0.009,-0.0031 l -0.67834,-0.252689 c -0.003,-0.0023 -0.006,-0.0023 -0.009,-0.0046 l -0.67534,-0.272234 c -0.003,-7.7e-4 -0.006,-0.0023 -0.009,-0.0031 l -0.67834,-0.305325 -1.35518,-0.625698 c -0.002,-3.08e-4 -0.004,-7.7e-4 -0.006,-0.0015 l -1.35217,-0.678342 c -1e-5,-7.7e-4 -1e-5,-0.0023 0,-0.0031 l -1.35969,-0.69188 -1.35367,-0.714435 -1.36872,-0.67684 -1.35066,-0.624196 -0.67082,-0.300813 -0.66932,-0.270733 -0.69338,-0.251188 -0.66781,-0.23614 -0.67684,-0.201548 -0.66781,-0.180486 -0.6618,-0.133865 -0.67533,-0.102275 -0.67984,-0.08573 -0.66782,-0.01656 -0.65728,0.01656 -0.6618,0.08573 -0.66931,0.102275 -0.66782,0.133865 -0.68435,0.180486 -0.67535,0.201548 -0.6663,0.23614 -0.67609,0.251442 -0.66781,0.267722 -0.67834,0.303824 -1.36721,0.624196 -1.34766,0.67684 -1.35367,0.711424 -1.35518,0.694891 c 10e-6,7.7e-4 10e-6,0.0023 0,0.0031 l -1.37624,0.678342 c -0.002,3.85e-4 -0.005,0.0015 -0.008,0.0015 l -1.35066,0.625698 -0.67684,0.305325 -0.009,0.0031 -0.6618,0.272234 c -0.003,0.0023 -0.007,0.0039 -0.0106,0.0062 l -1.35668,0.472281 c -0.003,7.7e-4 -0.007,0.0023 -0.0105,0.0031 l -0.67684,0.204559 c -0.003,6.9e-5 -0.006,6.9e-5 -0.009,0 l -0.67684,0.168457 c -0.003,7.7e-4 -0.007,0.0023 -0.0105,0.0031 l -0.67835,0.136875 c -0.004,0.0023 -0.009,0.0023 -0.0136,0.0046 l -0.65729,0.08422 c -0.003,7.7e-5 -0.008,7.7e-5 -0.0105,0 l -0.68135,0.06769 c -0.004,1.54e-4 -0.009,1.54e-4 -0.0136,0 l -0.67383,0.01656 c -0.003,9.2e-5 -0.007,9.2e-5 -0.0105,0 l -0.67834,-0.01956 c -0.004,1.54e-4 -0.009,1.54e-4 -0.0136,0 l -0.66179,-0.06469 c -0.003,7.7e-5 -0.006,7.7e-5 -0.009,0 l -0.67833,-0.08422 c -0.005,-7.7e-4 -0.0111,-0.0023 -0.0166,-0.0046 l -0.67684,-0.135366 c -0.003,-7.7e-4 -0.007,-0.0023 -0.0106,-0.0031 l -0.67684,-0.168458 c -0.004,-5.62e-4 -0.008,-0.0023 -0.012,-0.0031 l -0.66179,-0.204559 c -0.002,-7.7e-4 -0.004,-0.0023 -0.006,-0.0031 l -1.35668,-0.472281 c -0.004,-0.0023 -0.0107,-0.0038 -0.015,-0.0062 l -1.35519,-0.577567 c -0.002,-7.7e-4 -0.004,-0.0023 -0.006,-0.0031 l -1.35217,-0.625698 c -0.002,-6.31e-4 -0.005,-4.77e-4 -0.008,-0.0015 l -1.35517,-0.678341 c -2e-5,-7.7e-4 -2e-5,-0.0023 0,-0.0031 l -1.35819,-0.693381 -1.37022,-0.714435 -1.34765,-0.675331 -1.35067,-0.640738 -1.34766,-0.573054 -0.68436,-0.248177 -0.67232,-0.219599 -0.67383,-0.204551 -0.67083,-0.180494 -0.6678,-0.133865 -0.68587,-0.120319 -0.66481,-0.06615 z m -0.005,15.076921 -0.66029,0.03157 -0.66631,0.06615 -0.66781,0.120327 -0.66932,0.133864 -0.68436,0.183497 -0.67382,0.201548 -0.66932,0.219591 -0.67082,0.248177 -0.67383,0.287282 c 10e-6,7.7e-4 10e-6,0.0023 0,0.0031 l -0.69338,0.287282 -1.34465,0.637727 -1.35367,0.675338 -1.35367,0.693381 -1.37173,0.714436 v 0.0015 l -1.35668,0.678341 c -0.002,7.16e-4 -0.004,0.0023 -0.006,0.0031 l -1.35518,0.625698 -0.009,0.0031 -0.67834,0.288784 c -0.003,4.6e-5 -0.006,4.6e-5 -0.009,0 l -0.67684,0.269231 -0.66029,0.255693 c -0.002,0.0023 -0.005,0.0038 -0.008,0.0062 l -0.67683,0.237642 c -0.005,0.0023 -0.0103,0.0038 -0.015,0.0046 l -0.67684,0.185007 c -0.002,3.8e-5 -0.004,3.8e-5 -0.006,0 l -0.67835,0.172969 c -0.003,7e-5 -0.008,7e-5 -0.0105,0 l -0.67834,0.132356 c -0.003,7.7e-4 -0.007,0.0023 -0.0105,0.0031 l -0.67533,0.105287 c -0.004,7.7e-4 -0.008,4.77e-4 -0.012,0.0015 l -0.65879,0.06469 c -0.004,1.46e-4 -0.009,1.46e-4 -0.0136,0 l -0.67985,0.01956 c -0.005,1.85e-4 -0.0103,1.85e-4 -0.015,0 h -0.006 l -0.66932,-0.01956 c -0.004,1.46e-4 -0.009,1.46e-4 -0.0135,0 l -0.6618,-0.06469 c -0.004,-5.62e-4 -0.008,-4.77e-4 -0.012,-0.0015 l -0.67683,-0.105287 c -0.003,-7.7e-4 -0.006,-0.0023 -0.009,-0.0031 l -0.67834,-0.132356 c -0.003,9.3e-5 -0.007,9.3e-5 -0.0106,0 l -0.67834,-0.172969 c -0.002,3.8e-5 -0.005,3.8e-5 -0.008,0 l -0.6618,-0.185007 c -0.004,-0.0023 -0.008,-0.0054 -0.012,-0.0077 l -0.67834,-0.23614 c -0.003,6.9e-5 -0.006,6.9e-5 -0.009,0 l -0.67683,-0.257202 c -2e-5,-7.71e-4 -2e-5,-0.0023 0,-0.0031 l -0.67684,-0.269231 c -0.002,3.1e-5 -0.004,3.1e-5 -0.006,0 l -0.67834,-0.288784 c -0.002,-7.7e-4 -0.005,-0.0023 -0.008,-0.0031 l -1.35669,-0.625698 c -0.003,-6.16e-4 -0.006,-4.78e-4 -0.009,-0.0015 l -1.35668,-0.678342 -1.35066,-0.714443 -1.36872,-0.691872 -1.35367,-0.67684 -1.35067,-0.640738 -0.67383,-0.285772 -0.69338,-0.287282 -0.67232,-0.251181 -0.66781,-0.234638 -0.66932,-0.200047 -0.66781,-0.166947 -0.67233,-0.133865 -0.68285,-0.120327 -0.66481,-0.06615 -0.66329,-0.03157 -0.59712,0.03157 -0.62119,0.05267 -0.59562,0.08122 -0.61818,0.135367 -0.60313,0.133864 -0.60163,0.166956 -0.62119,0.20154 -0.60615,0.219599 c -7.7e-4,7.01e-4 -0.002,4.77e-4 -0.003,0.0015 v 6.109586 l 0.48883,-0.163945 c 7.7e-4,-7.7e-4 0.002,-0.0023 0.003,-0.0031 l 0.6257,-0.200039 0.009,-0.0031 0.60915,-0.17297 c 0.002,-3.7e-4 0.004,-0.0015 0.006,-0.0015 l 0.60915,-0.148905 c 0.003,-7.7e-4 0.007,-0.0023 0.0105,-0.0031 l 0.6257,-0.120327 c 0.003,-9.2e-5 0.009,-9.2e-5 0.012,0 l 0.60915,-0.08422 0.006,-0.0031 0.63021,-0.06769 c 0.005,-2.23e-4 0.011,-2.23e-4 0.0166,0 l 0.60765,-0.01656 -0.0136,0.0015 c 0.005,-1.85e-4 0.0103,-1.85e-4 0.015,0 l 0.67684,0.03311 c 0.003,-9.2e-5 0.007,-9.2e-5 0.0105,0 l 0.67834,0.06769 c 0.003,5.93e-4 0.007,4.78e-4 0.0105,0.0015 l 0.69338,0.100774 c 0.004,7.7e-4 0.009,0.0038 0.0136,0.0046 l 0.67834,0.153417 c 0.002,3.08e-4 0.004,-3.69e-4 0.006,0 l 0.67834,0.17297 c 0.002,7.7e-4 0.005,0.0023 0.008,0.0031 l 0.67834,0.200046 c 0.003,7.7e-4 0.007,0.0023 0.0106,0.0031 l 0.67834,0.236148 c 7.7e-4,7.7e-4 0.002,0.0023 0.003,0.0031 l 0.67834,0.255693 c 7.7e-4,-8e-6 0.002,-8e-6 0.003,0 l 0.69489,0.269231 0.009,0.0062 0.67834,0.305332 c 7.7e-4,-7e-6 0.002,-7e-6 0.003,0 l 1.35668,0.62871 c 0.003,0.0023 0.006,0.0038 0.009,0.0062 l 1.35518,0.693382 1.37172,0.694883 1.35668,0.693381 1.35367,0.675338 1.34917,0.64224 0.67232,0.282769 0.66932,0.270733 0.67232,0.25118 0.67083,0.218097 0.65427,0.20305 0.66781,0.165446 0.66932,0.135366 0.66781,0.09777 0.64976,0.06769 0.66481,0.02102 0.6633,-0.02102 0.64525,-0.06769 0.67082,-0.09777 0.66781,-0.135366 0.66782,-0.165446 0.67081,-0.20305 0.67083,-0.218097 0.65578,-0.249679 0.67533,-0.272234 0.67232,-0.282769 1.34916,-0.64224 1.35367,-0.67684 1.37023,-0.691879 1.35518,-0.694883 1.35668,-0.678342 c -2e-5,-7.7e-4 -2e-5,-0.0023 0,-0.0031 l 1.35217,-0.645251 c 0.002,-7.7e-4 0.005,-0.0023 0.008,-0.0031 l 0.69789,-0.303831 c 0.003,-7.71e-4 0.007,-0.0023 0.0106,-0.0031 l 0.67833,-0.267729 c -1e-5,-7.7e-4 -1e-5,-0.0023 0,-0.0031 l 0.67834,-0.2557 c 0.002,-7.7e-4 0.005,-0.0023 0.008,-0.0031 l 0.67834,-0.23614 0.009,-0.0031 0.67834,-0.200039 c 0.003,-7.7e-4 0.007,-0.0023 0.0106,-0.0031 l 0.69339,-0.17297 c 0.002,-7.7e-4 0.005,-0.0023 0.008,-0.0031 l 0.67684,-0.153409 c 0.005,-7.7e-4 0.011,-0.0023 0.0165,-0.0031 l 0.67834,-0.100774 c 0.003,-9.2e-5 0.007,-9.2e-5 0.0105,0 l 0.67835,-0.06769 c 0.003,-9.3e-5 0.007,-9.3e-5 0.0105,0 l 0.67683,-0.03311 c 0.007,-3.62e-4 0.0141,-3.62e-4 0.021,0 l 0.67383,0.03311 c 0.003,-7e-5 0.006,-7e-5 0.009,0 l 0.67834,0.06769 c 0.003,-9.2e-5 0.007,-9.2e-5 0.0106,0 l 0.6979,0.100774 c 0.004,-1.54e-4 0.009,-1.54e-4 0.0136,0 l 0.67383,0.153418 c 0.002,7.7e-4 0.005,0.0023 0.008,0.0031 l 0.68285,0.17297 c 0.002,6.47e-4 0.004,0.0023 0.006,0.0031 l 0.67383,0.200047 c 0.003,7.7e-4 0.007,0.0023 0.0105,0.0031 l 0.68136,0.23614 c 0.002,7.7e-4 0.004,0.0023 0.006,0.0031 l 0.69338,0.255693 c 0.004,0.0023 0.008,0.0038 0.012,0.0062 l 0.67834,0.288784 0.67683,0.282769 c 0.003,0.0023 0.007,0.0039 0.0106,0.0062 l 1.35519,0.645251 c 0.002,6.47e-4 0.004,4.77e-4 0.006,0.0015 l 1.35217,0.678341 c 0,7.71e-4 0,0.0023 0,0.0031 l 1.37172,0.69489 1.35518,0.712934 1.35367,0.67232 1.34465,0.625698 0.67383,0.282769 0.67383,0.270733 0.67082,0.251188 0.67383,0.218089 0.65427,0.20305 0.66781,0.165446 0.66782,0.135374 0.66931,0.09626 0.64525,0.06769 0.66782,0.02102 0.6663,-0.02102 0.6618,-0.06769 0.64826,-0.09626 0.67082,-0.135374 0.67082,-0.165446 0.66781,-0.183497 0.66932,-0.236141 0.67383,-0.25118 0.65729,-0.272242 0.67382,-0.282769 1.34615,-0.6272 1.37022,-0.670818 1.35368,-0.712934 1.35668,-0.69489 c -10e-6,-7.7e-4 -10e-6,-0.0023 0,-0.0031 l 1.35067,-0.678341 c 0.003,-7.62e-4 0.006,-4.77e-4 0.009,-0.0015 l 1.37172,-0.645251 c 0.002,-0.0023 0.005,-0.0038 0.008,-0.0062 l 0.68135,-0.282769 0.67232,-0.288784 c 0.003,-0.0023 0.007,-0.0038 0.0105,-0.0062 l 0.68136,-0.255693 c 0.003,-7.7e-4 0.007,-0.0023 0.0105,-0.0031 l 0.67683,-0.219591 c -10e-6,-7.7e-4 -10e-6,-0.0023 0,-0.0031 l 0.67834,-0.216588 c 0.004,-7.7e-4 0.009,-0.0038 0.0136,-0.0046 l 0.69489,-0.17297 c 0.003,-0.0023 0.007,-0.0023 0.0105,-0.0046 l 0.67684,-0.132355 0.67684,-0.120327 c 0.005,-7.7e-4 0.011,-0.0015 0.0165,-0.0015 l 0.67383,-0.06769 c 0.003,-9.2e-5 0.007,-9.2e-5 0.0105,0 l 0.67684,-0.03311 c 0.007,-3.54e-4 0.0141,-3.54e-4 0.021,0 l 0.67684,0.03311 c 0.003,-9.2e-5 0.007,-9.2e-5 0.0106,0 l 0.69639,0.06769 c 0.005,5.08e-4 0.0103,4.77e-4 0.015,0.0015 l 0.68285,0.120327 0.67834,0.132355 c 0.003,0.0023 0.007,0.0023 0.0105,0.0046 l 0.67684,0.17297 c 0.004,7.7e-4 0.008,0.0038 0.012,0.0046 l 0.67834,0.216588 c 10e-6,7.7e-4 10e-6,0.0023 0,0.0031 l 0.67383,0.219591 c 0.003,7.7e-4 0.007,0.0023 0.0105,0.0031 l 0.69789,0.255693 0.009,0.0062 0.67834,0.288784 0.67383,0.284271 c 0.002,7.7e-4 0.005,0.0023 0.008,0.0031 l 1.35669,0.645251 1.37172,0.678342 v 0.0031 l 1.3597,0.694883 1.35366,0.712934 1.34766,0.672327 1.34766,0.625698 0.67383,0.284271 0.67081,0.285773 0.67383,0.234638 0.66782,0.237642 0.67082,0.183497 0.65728,0.165454 0.66782,0.135367 0.6663,0.09776 0.66481,0.06769 0.64525,0.0211 0.66481,-0.0211 0.66329,-0.06769 0.65428,-0.09776 0.67083,-0.135367 0.67081,-0.150406 0.6633,-0.195534 0.67383,-0.240653 0.67082,-0.234638 0.67082,-0.285773 0.67383,-0.284271 1.34916,-0.625698 1.35217,-0.672327 1.35367,-0.697894 1.35067,-0.709923 c 0.002,-7.24e-4 0.004,-0.0023 0.006,-0.0031 l 1.35518,-0.678342 c 0.003,-4.08e-4 0.006,2.7e-4 0.009,0 l 1.37623,-0.645251 0.009,-0.0062 0.67834,-0.28277 0.67834,-0.273743 0.67383,-0.272243 c 0.004,-0.0023 0.009,-0.0054 0.0136,-0.0077 l 0.67834,-0.219598 c 0.002,-7.7e-4 0.005,-0.0023 0.008,-0.0031 l 0.69789,-0.200046 c -10e-6,-7.7e-4 -10e-6,-0.0023 0,-0.0031 l 0.67383,-0.18801 c 0.005,-0.0023 0.011,-0.0046 0.0166,-0.0062 l 0.67834,-0.132355 c 0.002,-4.6e-5 0.005,-4.6e-5 0.008,0 l 0.67829,-0.103616 c 0.002,-7.31e-4 0.005,-4.77e-4 0.008,-0.0015 l 0.67834,-0.08423 c 0.006,-2.62e-4 0.012,-2.62e-4 0.018,0 l 0.67834,-0.01656 c 0.003,-7e-5 0.006,-7e-5 0.009,0 l 0.67834,0.01656 c 0.006,-3.08e-4 0.0131,-3.08e-4 0.0196,0 l 0.6979,0.08423 c 0.003,6.16e-4 0.006,4.77e-4 0.009,0.0015 l 0.67683,0.103785 c 0.003,-7.7e-5 0.006,-7.7e-5 0.009,0 l 0.6768,0.132356 c 0,7.7e-4 0.01,0.0038 0.015,0.0062 l 0.6739,0.18801 c 0,7.7e-4 0,0.0023 0,0.0031 l 0.6783,0.200047 c 0,7.7e-4 0.01,0.0023 0.01,0.0031 l 0.6933,0.239151 c 0,7.71e-4 0.01,0.0023 0.01,0.0031 l 0.6784,0.252682 c 0,0.0023 0,0.0023 0,0.0046 l 0.6784,0.272242 c 0,0.0023 0.01,0.0039 0.01,0.0062 l 0.6768,0.305325 1.3551,0.625699 c 0,-3.9e-5 0.01,-3.9e-5 0.01,0 l 1.3748,0.678341 c 0,7.7e-4 0.01,0.0023 0.01,0.0031 l 1.3522,0.709923 1.3537,0.697894 1.3506,0.672327 1.3521,0.6272 0.6739,0.303831 0.6723,0.264711 0.6709,0.254191 0.6708,0.218097 0.6708,0.198537 0.6543,0.166956 0.6678,0.133857 0.6633,0.102283 0.6678,0.04813 0.6467,0.03458 0.6648,-0.03458 0.6679,-0.04813 0.6482,-0.102283 0.6693,-0.133857 0.6678,-0.166956 0.6724,-0.198537 0.6693,-0.218097 0.6723,-0.254191 0.6738,-0.264711 0.6724,-0.303831 1.3506,-0.6272 1.3477,-0.672327 1.3537,-0.697894 1.3566,-0.709923 c 0,-7.7e-4 0,-0.0023 0,-0.0031 l 1.3567,-0.678341 c 0,-3.9e-5 0.01,-3.9e-5 0.01,0 l 1.3763,-0.625699 0.6738,-0.305325 c 0,-0.0023 0.01,-0.0038 0.011,-0.0062 l 0.6783,-0.272242 c 0,-0.0023 0.01,-0.0023 0.01,-0.0046 l 0.6768,-0.252682 c 0,-7.7e-4 0,-0.0023 0,-0.0031 l 0.6769,-0.239151 c 0,-7.7e-4 0.01,-0.0023 0.012,-0.0031 l 0.6949,-0.200047 0.01,-0.0031 0.6783,-0.168449 c 0,-4.7e-5 0.01,-4.7e-5 0.01,0 l 0.6768,-0.151916 c 0.01,-7.7e-4 0.01,-0.0023 0.014,-0.0031 l 0.6769,-0.103778 c 0,-7.7e-4 0.01,-0.0023 0.012,-0.0031 l 0.6783,-0.06915 c 0,-9.3e-5 0.01,-9.3e-5 0.011,0 l 0.6769,-0.03157 c 0.01,-2.62e-4 0.012,-2.62e-4 0.018,0 l 0.4933,0.01656 c 0,-9.2e-5 0.01,-9.2e-5 0.011,0 l 0.4889,0.03612 c 0,-9.2e-5 0.01,-9.2e-5 0.011,0 l 0.4933,0.06315 c 0,7.7e-4 0,0.0023 0,0.0031 l 0.4196,0.05868 v -5.40567 c -0.1,-0.01425 -0.1738,-0.09939 -0.1744,-0.200046 v -0.553502 l -0.3174,-0.05568 -0.4843,-0.06615 -0.4783,-0.03612 -0.4783,-0.01656 -0.6664,0.03612 -0.6677,0.06915 -0.6664,0.09776 -0.6692,0.150414 -0.6694,0.166948 -0.6859,0.201548 -0.6708,0.233137 -0.6738,0.252682 -0.6708,0.269231 -0.6679,0.302322 -1.3746,0.643749 -1.3507,0.672319 -1.3537,0.697894 -1.3552,0.693381 -1.3145,0.679851 c 0,7.7e-4 -0.01,0.0023 -0.011,0.0031 l -1.3552,0.642248 c 0,3.77e-4 -0.01,-3.01e-4 -0.01,0 l -0.6784,0.288783 c 0,7.7e-4 -0.01,0.0039 -0.01,0.0046 l -0.6768,0.272234 c 0,0.0023 -0.01,0.0023 -0.01,0.0046 l -0.6783,0.25269 c 0,6.9e-5 -0.01,6.9e-5 -0.01,0 l -0.6784,0.2211 c 0,7.7e-4 -0.01,0.0023 -0.011,0.0031 l -0.6768,0.204559 c 0,4.09e-4 -0.01,0.0015 -0.01,0.0015 l -0.6783,0.168457 -0.01,0.0031 -0.6784,0.135367 c 0,7.7e-4 -0.01,0.0023 -0.011,0.0031 l -0.6618,0.09927 c 0,7.7e-4 -0.01,0.0023 -0.011,0.0031 l -0.6768,0.06769 c -0.01,1.85e-4 -0.01,1.85e-4 -0.015,0 l -0.6769,0.01656 c 0,3.9e-5 -0.01,3.9e-5 -0.01,0 l -0.6572,-0.01656 c -0.01,2.62e-4 -0.012,2.62e-4 -0.018,0 l -0.6784,-0.06769 c 0,-7.71e-4 -0.01,-0.0023 -0.01,-0.0031 l -0.6783,-0.09927 c 0,-7.7e-4 -0.01,-0.0023 -0.011,-0.0031 l -0.6784,-0.135367 c 0,-7.7e-4 -0.01,-0.0023 -0.01,-0.0031 l -0.6618,-0.168457 c 0,-2.7e-4 -0.01,-7.7e-4 -0.01,-0.0015 l -0.6738,-0.204559 c 0,-7.7e-4 -0.01,-0.0023 -0.01,-0.0031 l -0.6783,-0.2211 c 0,3e-5 0,3e-5 -0.01,0 l -0.6784,-0.25269 c 0,-7.7e-4 -0.01,-0.0023 -0.01,-0.0031 l -0.6784,-0.272235 c 0,-7.7e-4 0,-0.0023 0,-0.0031 l -0.6783,-0.288784 c 0,-6.31e-4 -0.01,-0.0023 -0.01,-0.0031 l -1.3566,-0.642248 v -0.0015 l -1.3568,-0.678341 c 0,-7.7e-4 0,-0.0023 0,-0.0031 l -1.3551,-0.693381 -1.3567,-0.697894 -1.3672,-0.69188 -1.3522,-0.624188 -0.6738,-0.302322 -0.6709,-0.269231 -0.6722,-0.252682 -0.6874,-0.233137 -0.6708,-0.201548 -0.6694,-0.166948 -0.66777,-0.150414 -0.66631,-0.09776 -0.68586,-0.06915 -0.66029,-0.03612 -0.6618,0.03612 -0.66781,0.06915 -0.66631,0.09776 -0.66781,0.150414 -0.66781,0.166948 -0.69037,0.201548 -0.66932,0.233137 -0.67383,0.252682 -0.67233,0.269231 -0.67383,0.302322 -1.36721,0.624188 -1.35217,0.69188 -1.34915,0.697894 -1.35669,0.693381 c 10e-6,7.7e-4 10e-6,0.0023 0,0.0031 l -1.35518,0.678341 c -0.003,7.63e-4 -0.006,4.78e-4 -0.009,0.0015 l -1.35517,0.625698 -0.67684,0.305333 c -0.003,0.0023 -0.006,0.0039 -0.009,0.0062 l -0.67834,0.272235 c 0,7.7e-4 0,0.0023 0,0.0031 l -0.67684,0.25269 c -0.003,7.7e-4 -0.007,0.0023 -0.0105,0.0031 l -0.67834,0.219599 c -0.003,0.0023 -0.006,0.0023 -0.009,0.0046 l -0.67684,0.204552 c -0.003,4.31e-4 -0.007,0.0015 -0.0105,0.0015 l -0.67684,0.168457 c -0.003,7.7e-4 -0.007,0.0023 -0.0105,0.0031 l -0.67834,0.136876 c -0.003,9.3e-5 -0.007,9.3e-5 -0.0105,0 l -0.66179,0.100774 c -0.004,7.7e-4 -0.009,0.0023 -0.0136,0.0031 l -0.67985,0.05268 c -0.003,6.9e-5 -0.008,6.9e-5 -0.0106,0 l -0.66029,0.03157 c -0.0114,0.0023 -0.023,0.0031 -0.0346,0.0031 l -0.65578,-0.03311 c -0.002,4.6e-5 -0.004,4.6e-5 -0.006,0 l -0.67834,-0.05113 c -0.004,-7.7e-4 -0.009,-0.0023 -0.0136,-0.0031 l -0.67834,-0.09926 c -0.003,-7.7e-4 -0.007,-0.0023 -0.0105,-0.0031 l -0.67834,-0.135366 c -0.003,-0.0023 -0.007,-0.0023 -0.0106,-0.0046 l -0.66179,-0.168458 c -0.002,-7.7e-4 -0.005,-0.0023 -0.008,-0.0031 l -0.67834,-0.204551 c -0.003,6.9e-5 -0.006,6.9e-5 -0.009,0 l -0.66574,-0.221101 c -0.003,-7.7e-4 -0.007,-0.0023 -0.0105,-0.0031 l -0.67835,-0.252682 c -0.002,-7.7e-4 -0.005,-0.0023 -0.008,-0.0031 l -0.67684,-0.272243 c -0.003,-7.7e-4 -0.007,-0.0023 -0.0105,-0.0031 l -0.67834,-0.305333 -1.35517,-0.625698 c -0.002,-7.7e-4 -0.004,-0.0039 -0.006,-0.0046 l -1.35217,-0.678341 -1.3597,-0.693389 -1.35367,-0.714436 -1.36721,-0.67533 -1.35067,-0.624196 -0.67081,-0.302322 -0.67082,-0.269231 -0.69188,-0.252682 -0.66782,-0.234639 -0.67683,-0.20305 -0.66781,-0.180493 -0.6618,-0.133857 -0.67683,-0.100774 -0.67985,-0.08573 -0.66781,-0.01656 -0.65729,0.01656 -0.66029,0.08573 -0.66931,0.100774 -0.66932,0.133857 -0.68285,0.181995 -0.67534,0.201548 -0.66631,0.234639 -0.67683,0.252682 -0.66781,0.267729 -0.67835,0.303824 -1.36721,0.622687 -1.34765,0.676839 -1.35367,0.712934 -1.35669,0.694891 -1.37623,0.678341 -0.006,0.0046 -1.35067,0.625698 -0.67684,0.305333 c -0.003,7.7e-4 -0.007,0.0023 -0.0105,0.0031 l -0.66179,0.272243 -0.009,0.0062 -1.35669,0.472281 c -0.003,0.0023 -0.007,0.0023 -0.0106,0.0046 l -0.67684,0.204559 c -0.003,6.9e-5 -0.006,6.9e-5 -0.009,0 l -0.67683,0.168457 c -0.003,7.7e-4 -0.007,0.0023 -0.0105,0.0031 l -0.67834,0.136868 c -0.005,0.0023 -0.0103,0.0046 -0.015,0.0062 l -0.65729,0.08423 c -0.002,3.9e-5 -0.005,3.9e-5 -0.008,0 l -0.68134,0.06769 c -0.004,1.54e-4 -0.009,1.54e-4 -0.0136,0 l -0.67383,0.01656 c -0.003,9.3e-5 -0.007,9.3e-5 -0.0106,0 l -0.67834,-0.01956 c -0.005,1.85e-4 -0.0103,1.85e-4 -0.015,0 l -0.6618,-0.06469 c -0.002,3.1e-5 -0.004,3.1e-5 -0.006,0 l -0.67834,-0.08423 c -0.006,-7.7e-4 -0.0121,-0.0039 -0.018,-0.0062 l -0.67685,-0.135366 c -0.003,-7.7e-4 -0.007,-0.0023 -0.0105,-0.0031 l -0.67592,-0.169096 c -0.004,-7.7e-4 -0.008,-0.0023 -0.012,-0.0031 l -0.66179,-0.204559 c -0.002,-7.7e-4 -0.005,-0.0023 -0.008,-0.0031 l -1.35668,-0.47228 c -0.004,-0.0023 -0.009,-0.0039 -0.0136,-0.0062 l -1.35518,-0.577568 c -0.002,-7.7e-4 -0.005,-0.0023 -0.008,-0.0031 l -1.35217,-0.625698 c -0.002,-6.32e-4 -0.004,-0.0023 -0.006,-0.0031 l -1.35517,-0.678342 c -2e-5,-7.7e-4 -2e-5,-0.0023 0,-0.0031 l -1.3597,-0.693381 -1.37022,-0.714436 -1.34766,-0.675338 -1.34916,-0.640738 -1.34765,-0.573055 -0.68586,-0.248169 -0.67233,-0.219599 -0.67383,-0.204551 -0.67081,-0.180494 -0.66632,-0.133864 -0.68736,-0.120327 -0.66481,-0.06615 z m 22.00623,24.075837 A 51.50859,100.07263 0 0 0 837.63946,97.13718 51.50859,100.07263 0 0 0 889.14825,197.20977 51.50859,100.07263 0 0 0 938.801,123.75793 l 43.91618,0.0451 v -10.02771 h -4.3528 l 4.3528,-16.67273 -2.0305,-13.36828 -20.651,-0.04813 -22.81096,-22.467975 a 51.50859,100.07263 0 0 0 -48.0764,-64.153607 z" />
    <path
       id="path8626"
       style="fill:#000000;fill-opacity:0.995951;fill-rule:evenodd;stroke:none;stroke-width:3.79999;stroke-linecap:round;stroke-miterlimit:10;stroke-dasharray:none;stroke-opacity:0.48583;paint-order:stroke fill markers"
       d="m 889.10566,0.179627 a 48.716663,97.107448 0 0 0 -48.71721,97.108043 48.716663,97.107448 0 0 0 48.71721,97.10804 48.716663,97.107448 0 0 0 47.2748,-73.64135 h 43.18522 v -3.91362 h -24.20972 c 3.84342,-0.96365 6.71872,-4.45275 6.71872,-8.56424 0,-4.84353 -3.9857,-8.83349 -8.85,-8.83348 -4.86435,-1e-5 -8.84551,3.98995 -8.84551,8.83348 0,4.11149 2.87294,7.60059 6.71572,8.56424 h -61.51244 c 3.84365,-0.96345 6.71874,-4.45255 6.71874,-8.56424 0,-4.84353 -3.98418,-8.83349 -8.84852,-8.83348 -4.86435,-1e-5 -8.84701,3.98995 -8.84701,8.83348 0,4.11169 2.87415,7.60081 6.71724,8.56424 h -35.43167 a 40.286048,80.433961 0 0 1 -1.20778,-19.54856 40.286048,80.433961 0 0 1 40.28533,-80.433787 40.286048,80.433961 0 0 1 36.61388,46.880732 h 9.24108 A 48.716663,97.107448 0 0 0 889.10566,0.179627 Z m 18.77094,71.458934 -19.12139,15.144599 -23.59453,1.67705 -2.9074,8.72518 4.8657,9.64118 9.78255,1.52062 c 0,0 0.099,-3.80033 2.26516,-6.56381 1.06891,-1.36369 2.55844,-2.49524 4.22044,-3.17814 1.37424,-0.56469 2.91706,-0.8006 3.97981,-0.80468 1.13519,-0.004 2.68148,0.17399 4.11668,0.79717 1.70421,0.73999 3.2919,2.04123 4.38891,3.46691 2.01437,2.6179 2.05306,6.21487 2.05306,6.21487 h 44.8397 c 0,0 0.13492,-3.7649 2.25913,-6.49764 0.92984,-1.19625 2.29986,-2.32214 3.72863,-2.99612 1.51908,-0.71656 3.10489,-0.94395 4.30015,-0.9551 1.14316,-0.0108 2.78008,0.0893 4.26708,0.74302 1.6992,0.747 3.2427,2.13612 4.3272,3.50903 2.1013,2.65993 2.0848,6.19681 2.0848,6.19681 l 13.2509,-1.00623 2.6276,-10.42329 -1.5086,-10.06683 h -19.1785 L 943.60456,71.638561 Z m 0.55952,3.266868 H 920.5139 V 86.78316 h -26.67038 z m 14.98517,0 h 11.90932 l 7.99419,11.877731 h -19.90351 z m -35.96862,29.440901 c 2.18554,0 3.91815,1.72217 3.91813,3.93017 0,2.20797 -1.73259,3.93467 -3.91813,3.93467 -2.18553,2e-5 -3.91663,-1.7267 -3.91663,-3.93467 0,-2.208 1.7311,-3.93016 3.91663,-3.93017 z m 65.77201,0 c 2.18552,0 3.9196,1.72217 3.9196,3.93017 0,2.20797 -1.73408,3.93467 -3.9196,3.93467 -2.18555,2e-5 -3.91664,-1.7267 -3.91664,-3.93467 0,-2.208 1.73109,-3.93016 3.91664,-3.93017 z m -102.78896,16.40803 h 77.06764 a 40.286048,80.433961 0 0 1 -38.53458,56.97161 40.286048,80.433961 0 0 1 -38.53306,-56.97161 z" />
  </g>
</svg>
