<svg width="200.98" height="301.3" version="1.1" viewBox="0 0 200.98 301.3" xmlns="http://www.w3.org/2000/svg"><g transform="translate(-808.68 87.64)" fill-rule="evenodd"><path d="m821.34-87.64h175.66c7.0127 0 12.658 5.6456 12.658 12.658v275.99c0 7.0127-5.6456 12.658-12.658 12.658h-175.66c-7.0127 0-12.658-5.6456-12.658-12.658v-275.99c0-7.0127 5.6456-12.658 12.658-12.658z" fill="#00408c" stroke-linecap="round" stroke-miterlimit="10" stroke-width=".365" style="paint-order:stroke fill markers"/><path d="m821.04-83.887c-4.7532 0-8.6259 3.8728-8.6259 8.6259v276.53c0 4.7532 3.8728 8.6259 8.6259 8.6259h176.23c4.7531 0 8.6243-3.8728 8.6243-8.6259v-276.53c0-4.7532-3.8712-8.6259-8.6243-8.6259zm0 2.9284h176.23c3.1826 0 5.6989 2.5149 5.6989 5.6975v276.53c0 3.1826-2.5163 5.6975-5.6989 5.6975h-176.23c-3.1826 0-5.6975-2.5149-5.6975-5.6975v-276.53c0-3.1826 2.5149-5.6975 5.6975-5.6975zm0.30533 3.7993c-1.3826 0-2.4968 1.1127-2.4968 2.4953v24.802l0.48732-0.16394c-1e-5 -7.7e-4 -1e-5 -0.0023 0-0.0031l0.6257-0.20004c3e-3 -7.7e-4 7e-3 -4.77e-4 0.0105-0.0015l0.60916-0.17297c2e-3 -3.1e-5 4e-3 -3.1e-5 6e-3 0l0.60915-0.1489c3e-3 -7.7e-4 7e-3 -0.0023 0.0105-0.0031l0.62569-0.12033c3e-3 -9.2e-5 7e-3 -9.2e-5 0.0105 0l0.60916-0.08422c2e-3 -7.7e-4 4e-3 -0.0023 6e-3 -0.0031l0.63021-0.06769c5e-3 -2.23e-4 0.011-2.23e-4 0.0166 0l0.60765-0.01656-6e-3 0.0031c5e-3 -1.85e-4 0.0103-1.85e-4 0.015 0l0.67684 0.03311c3e-3 -9.3e-5 7e-3 -9.3e-5 0.0105 0l0.67834 0.06769c2e-3 6.39e-4 4e-3 4.77e-4 6e-3 0.0015l0.69339 0.10077c4e-3 5.39e-4 9e-3 0.0023 0.0136 0.0031l0.67834 0.15342c2e-3 7.71e-4 5e-3 0.0023 8e-3 0.0031l0.67834 0.17297c3e-3 -7e-5 6e-3 -7e-5 9e-3 0l0.67833 0.20005c3e-3 7.7e-4 7e-3 0.0023 0.0105 0.0031l0.67834 0.23615c7.7e-4 7.7e-4 2e-3 0.0023 3e-3 0.0031l0.67834 0.25569c7.7e-4 -8e-6 4e-3 -8e-6 5e-3 0l0.69489 0.26923c3e-3 0.0023 6e-3 0.0054 9e-3 0.0077l0.67835 0.30532c7.7e-4 -8e-6 2e-3 -8e-6 3e-3 0l1.3552 0.62721c3e-3 0.0023 6e-3 0.0039 9e-3 0.0062l1.3552 0.69338 1.3717 0.69488 1.3567 0.69338 1.3537 0.67534 1.3492 0.64224 0.67232 0.28277 0.66932 0.27073 0.67233 0.25118 0.67081 0.2181 0.65428 0.20305 0.66781 0.16545 0.66932 0.13537 0.66781 0.09777 0.64976 0.06769 0.66481 0.02102 0.6633-0.02102 0.64525-0.06769 0.67082-0.09777 0.66782-0.13537 0.6678-0.16545 0.67083-0.20305 0.67082-0.2181 0.65577-0.24968 0.67534-0.27223 0.67232-0.28277 1.3492-0.64224 1.3537-0.67684 1.3702-0.69188 1.3552-0.69488v-0.0031l1.3567-0.67834v-0.0015l1.3522-0.64525c3e-3 -7.7e-4 6e-3 -0.0023 9e-3 -0.0031l0.69789-0.30382c3e-3 -7.7e-4 7e-3 -0.0023 0.0105-0.0031l0.67834-0.26773c-1e-5 -7.7e-4 -1e-5 -0.0023 0-0.0031l0.67834-0.25569c2e-3 -7.7e-4 5e-3 -0.0023 8e-3 -0.0031l0.67834-0.23615c2e-3 -7.7e-4 4e-3 -0.0023 6e-3 -0.0031l0.67833-0.20005c4e-3 -7.7e-4 8e-3 -0.0023 0.012-0.0031l0.69338-0.17297c2e-3 -7.31e-4 5e-3 -0.0023 8e-3 -0.0031l0.67684-0.15342c5e-3 -5.62e-4 0.011 1.15e-4 0.0166 0l0.67834-0.10077c3e-3 -4.31e-4 7e-3 -0.0015 0.0105-0.0015l0.67834-0.06769c3e-3 -9.3e-5 7e-3 -9.3e-5 0.0105 0l0.67684-0.03311c7e-3 -3.7e-4 0.0139-3.7e-4 0.021 0l0.67383 0.03311c3e-3 -7e-5 6e-3 -7e-5 9e-3 0l0.67834 0.06769c2e-3 3e-4 5e-3 7.7e-4 8e-3 0.0015l0.6979 0.10077c4e-3 -1.54e-4 9e-3 -1.54e-4 0.0136 0l0.67383 0.15342c2e-3 7.7e-4 5e-3 0.0023 8e-3 0.0031l0.68285 0.17297c2e-3 6.47e-4 4e-3 4.78e-4 6e-3 0.0015l0.67383 0.20005c3e-3 7.7e-4 7e-3 0.0023 0.0105 0.0031l0.68135 0.23614c2e-3 7.7e-4 5e-3 0.0023 8e-3 0.0031l0.69338 0.25569c4e-3 0.0023 8e-3 0.0038 0.012 0.0062l0.67835 0.28878 0.67533 0.28277c3e-3 0.0023 7e-3 0.0038 0.0106 0.0062l1.3552 0.64525c2e-3 6.39e-4 5e-3 0.0023 8e-3 0.0031l1.3507 0.67834v0.0015l1.3717 0.69489 1.3567 0.71293 1.3522 0.67232 1.3462 0.6257 0.67383 0.28277 0.67383 0.27073 0.67082 0.25119 0.67232 0.21809 0.65428 0.20305 0.66781 0.16545 0.66932 0.13537 0.66781 0.09776 0.64525 0.06915 0.66782 0.01956 0.66631-0.01956 0.66329-0.06915 0.64827-0.09776 0.66931-0.13537 0.67232-0.16545 0.66782-0.1835 0.66781-0.23614 0.67383-0.25118 0.65729-0.27224 0.67382-0.28277 1.3462-0.6272 1.3717-0.67082 1.3537-0.71293 1.3552-0.69489v-0.0015l1.3522-0.67834c2e-3 -7.31e-4 4e-3 -0.0023 6e-3 -0.0031l1.3717-0.64525c2e-3 -0.0023 5e-3 -0.0038 8e-3 -0.0062l0.68136-0.28277 0.67231-0.28878c3e-3 -0.0023 7e-3 -0.0039 0.0106-0.0062l0.68134-0.25569c3e-3 -7.7e-4 7e-3 -0.0023 0.0106-0.0031l0.67684-0.21959c-1e-5 -7.7e-4 -1e-5 -0.0023 0-0.0031l0.67819-0.21619c4e-3 -7.7e-4 9e-3 -0.0023 0.0136-0.0031l0.69489-0.17297c3e-3 -7.7e-4 7e-3 -0.0038 0.0106-0.0046l0.67683-0.13236 0.67685-0.12033c5e-3 -7.7e-4 0.011-0.0023 0.0166-0.0031l0.67382-0.06769c4e-3 -1.24e-4 8e-3 -1.24e-4 0.012 0l0.67684-0.03311v-0.0046c6e-3 -3.15e-4 0.0131-3.15e-4 0.0196 0l0.67683 0.03311c4e-3 -1.23e-4 8e-3 -1.23e-4 0.012 0l0.69489 0.06769c5e-3 7.7e-4 0.0103 0.0023 0.015 0.0031l0.68286 0.12033 0.68135 0.13236c3e-3 0.0023 7e-3 0.0023 0.0106 0.0046l0.67683 0.17297c4e-3 7.71e-4 8e-3 0.0023 0.012 0.0031l0.67834 0.21659v0.0031l0.67383 0.21959c3e-3 7.7e-4 6e-3 0.0039 9e-3 0.0046l0.69789 0.25569 0.0106 0.0062 0.67834 0.28878 0.67383 0.28427c2e-3 7.7e-4 4e-3 0.0023 6e-3 0.0031l1.3567 0.64525 1.3717 0.67834 1.3597 0.69489 1.3537 0.71293 1.3477 0.67232 1.3492 0.6257 0.67383 0.28428 0.67081 0.28577 0.67233 0.23464 0.66932 0.23764 0.67082 0.1835 0.65578 0.16545 0.66781 0.13537 0.66781 0.09626 0.6648 0.06769 0.64376 0.02102 0.66631-0.02102 0.66329-0.06769 0.65428-0.09626 0.66931-0.13537 0.67083-0.15041 0.6648-0.19552 0.67233-0.24065 0.67082-0.23464 0.67081-0.28577 0.67383-0.28428 1.3492-0.6257 1.3522-0.67232 1.3537-0.69789 1.3507-0.70993c2e-3 -3.7e-4 4e-3 3.08e-4 6e-3 0l1.3552-0.67834c3e-3 -6.9e-5 8e-3 -6.9e-5 0.0105 0l1.3762-0.64525 9e-3 -0.0062 0.67834-0.28277v-0.0031l0.67834-0.27374 0.67383-0.27224c4e-3 -7.7e-4 9e-3 -0.0038 0.0136-0.0046l0.67834-0.21959c3e-3 -7.7e-4 5e-3 -0.0023 8e-3 -0.0031l0.6979-0.20005c-2e-5 -7.7e-4 -2e-5 -0.0023 0-0.0031l0.67383-0.18801c5e-3 -0.0031 0.0109-0.0039 0.0166-0.0062l0.67835-0.13236c3e-3 -7e-5 6e-3 -7e-5 9e-3 0l0.67834-0.10378c2e-3 -3.1e-5 5e-3 -3.1e-5 8e-3 0l0.67833-0.08423c6e-3 -2.7e-4 0.0121-2.7e-4 0.018 0l0.67834-0.01656c3e-3 -9.2e-5 7e-3 -9.2e-5 0.0105 0l0.67834 0.01656c6e-3 -3.08e-4 0.0131-3.08e-4 0.0196 0l0.6979 0.08423c3e-3 -6.2e-5 6e-3 -6.2e-5 9e-3 0l0.67684 0.10378c3e-3 -7e-5 6e-3 -7e-5 9e-3 0l0.6768 0.13236c0 0.0023 0.01 0.0031 0.015 0.0062l0.6739 0.18801v0.0031l0.6783 0.20005c0 7.7e-4 0.01 0.0023 0.01 0.0031l0.6933 0.23914c0 7.7e-4 0.01 0.0038 0.01 0.0046l0.6784 0.25269v0.0015l0.6784 0.27374c0 7.7e-4 0.01 0.0023 0.01 0.0031l0.6768 0.30532 1.3551 0.6257c0 6.39e-4 0.01 4.77e-4 0.01 0.0015l1.3793 0.67985c0 6.16e-4 0.01 0.0023 0.01 0.0031l1.3522 0.70993 1.3536 0.69789 1.3507 0.67232 1.3522 0.62721 0.6738 0.30382 0.6723 0.26472 0.6708 0.25419 0.6709 0.21809 0.6708 0.19854 0.6543 0.16696 0.6678 0.13386 0.6633 0.10228 0.6678 0.04813 0.6468 0.03458 0.6648-0.03458 0.6677-0.04813 0.6483-0.10228 0.6694-0.13386 0.6678-0.16696 0.6723-0.19854 0.6693-0.21809 0.6723-0.25419 0.6739-0.26472 0.6722-0.30382 1.3508-0.62721 1.3476-0.67232 1.3537-0.69789 1.3567-0.70993v-0.0031l1.3566-0.67834 0.01-0.0031 1.3763-0.6257 0.6738-0.30532 0.011-0.0031 0.6784-0.27374c0-3.9e-5 0-3.9e-5 0.01 0l0.6768-0.25268v-0.0031l0.6768-0.23915c0.01-0.0023 0.01-0.0023 0.012-0.0046l0.6949-0.19854c0-0.0023 0.01-0.0038 0.01-0.0062l0.6784-0.16846 0.011-0.0031 0.6783-0.15191c0.01-7.7e-4 0.01-0.0023 0.014-0.0031l0.6768-0.10378c0.01-4.55e-4 0.01 2.31e-4 0.012 0l0.6784-0.06915c0-9.3e-5 0.01-9.3e-5 0.011 0l0.6768-0.03157c0.01-2.31e-4 0.011-2.31e-4 0.017 0l0.4933 0.01656c0.01-1.23e-4 0.01-1.23e-4 0.012 0l0.4889 0.03612c0-8.4e-5 0.01-8.4e-5 0.011 0l0.4933 0.06315v0.0031l0.4106 0.05714v-24.007c0-1.3826-1.1142-2.4953-2.4968-2.4953zm45.796 35.071-0.65878 0.03157-0.66632 0.06615-0.66931 0.12033-0.66781 0.13386-0.68436 0.1835-0.67383 0.20155-0.66932 0.2196-0.67232 0.24817-0.67383 0.28728c1e-5 7.71e-4 1e-5 0.0023 0 0.0031l-0.69338 0.28727-1.3446 0.63623-1.3537 0.67683-1.3537 0.69188-1.3717 0.71444c1e-5 7.7e-4 1e-5 0.0039 0 0.0046l-1.3567 0.67834c-2e-3 7.24e-4 -5e-3 4.78e-4 -8e-3 0.0015l-1.3552 0.6257-9e-3 0.0031-0.67834 0.28878c-2e-3 4.6e-5 -4e-3 4.6e-5 -6e-3 0l-0.67684 0.26923-0.6618 0.25569-8e-3 0.0062-0.67683 0.23764c-5e-3 7.71e-4 -0.0103 0.0023-0.015 0.0031l-0.67684 0.185c-3e-3 5.3e-5 -5e-3 5.3e-5 -8e-3 0l-0.67834 0.17297c-3e-3 4.09e-4 -6e-3 0.0015-9e-3 0.0015l-0.67834 0.13236c-3e-3 6.9e-5 -6e-3 6.9e-5 -9e-3 0l-0.67684 0.10529c-4e-3 7.7e-4 -8e-3 4.78e-4 -0.012 0.0015l-0.65879 0.06469c-4e-3 1.54e-4 -9e-3 1.54e-4 -0.0136 0l-0.67834 0.01956c-5e-3 1.85e-4 -0.0103 1.85e-4 -0.015 0h-8e-3l-0.66933-0.01956c-4e-3 1.54e-4 -9e-3 1.54e-4 -0.0135 0l-0.6618-0.06469c-3e-3 -5.93e-4 -7e-3 -4.78e-4 -0.0105-0.0015l-0.67684-0.10529c-3e-3 9.2e-5 -7e-3 9.2e-5 -0.0106 0l-0.67834-0.13236c-3e-3 -2.47e-4 -7e-3 -7.7e-4 -0.0105-0.0015l-0.67834-0.17297c-3e-3 6.9e-5 -6e-3 6.9e-5 -9e-3 0l-0.6618-0.185c-4e-3 -0.0023-8e-3 -0.0039-0.012-0.0062l-0.67834-0.23614c-3e-3 7.7e-5 -6e-3 7.7e-5 -9e-3 0l-0.67683-0.2572c-2e-5 -7.7e-4 -2e-5 -0.0023 0-0.0031l-0.67684-0.26923c-2e-3 -6.32e-4 -5e-3 -0.0023-8e-3 -0.0031l-0.67834-0.28878c-2e-3 -7.7e-4 -4e-3 -0.0023-6e-3 -0.0031l-1.3552-0.6257c-2e-3 -6.39e-4 -5e-3 -4.77e-4 -8e-3 -0.0015l-1.3567-0.67985-1.3507-0.71444-1.3687-0.69037-1.3537-0.67834-1.3507-0.63924-0.67383-0.28578-0.69338-0.28727-0.67232-0.25118-0.66781-0.23464-0.66932-0.20155-0.66781-0.16545-0.67233-0.13386-0.68285-0.12033-0.66481-0.06615-0.66329-0.03157-0.59712 0.03157-0.62119 0.05267-0.59562 0.08122-0.61818 0.13537-0.60313 0.13386-0.60163 0.16695-0.62119 0.20155-0.60615 0.2196-9e-3 0.0031v6.2765l0.48131-0.16094c7.7e-4 -7.7e-4 2e-3 -0.0023 3e-3 -0.0031l0.6257-0.20005c3e-3 -7.62e-4 6e-3 -4.77e-4 9e-3 -0.0015l0.60916-0.17297 8e-3 -0.0031 0.60915-0.1489c3e-3 -4.31e-4 7e-3 -0.0015 0.0105-0.0015l0.62569-0.12033c4e-3 -1.23e-4 8e-3 -1.23e-4 0.012 0l0.60915-0.08423 6e-3 -0.0031 0.63022-0.06769c5e-3 -2.31e-4 0.011-2.31e-4 0.0166 0l0.60765-0.01656-6e-3 0.0015c4e-3 -1.54e-4 9e-3 -1.54e-4 0.0136 0l0.67683 0.03311c4e-3 -1.23e-4 8e-3 -1.23e-4 0.012 0l0.67834 0.06769c3e-3 7.7e-4 7e-3 0.0023 0.0105 0.0031l0.69338 0.10077c4e-3 -1.54e-4 9e-3 -1.54e-4 0.0136 0l0.67835 0.15342c2e-3 7.7e-4 4e-3 0.0023 6e-3 0.0031l0.67834 0.17146c3e-3 7.7e-4 5e-3 0.0039 8e-3 0.0046l0.67834 0.20005c3e-3 7.7e-4 7e-3 0.0023 0.0105 0.0031l0.67834 0.23614c7.7e-4 7.7e-4 2e-3 0.0023 3e-3 0.0031l0.67834 0.25569c7.7e-4 -8e-6 2e-3 -8e-6 3e-3 0l0.69489 0.26923 9e-3 0.0062 0.67834 0.30533h3e-3l1.3567 0.6287c4e-3 0.0023 7e-3 0.0054 0.0106 0.0077l1.3552 0.69338 1.3717 0.69488 1.3567 0.69338 1.3537 0.67534 1.3492 0.64224 0.67233 0.28277 0.66931 0.27073 0.67233 0.25118 0.67082 0.2181 0.65427 0.20305 0.66782 0.16545 0.66931 0.13537 0.66781 0.09777 0.64976 0.06615 0.66481 0.02102 0.6633-0.02102 0.64525-0.06615 0.67082-0.09777 0.66782-0.13537 0.66781-0.16545 0.67082-0.20305 0.67082-0.2181 0.65578-0.24968 0.67533-0.27223 0.67232-0.28277 1.3492-0.64224 1.3537-0.67684 1.3702-0.69188 1.3552-0.69488c-1e-5 -7.7e-4 -1e-5 -0.0038 0-0.0046l1.3567-0.67834c-1e-5 -7.71e-4 -1e-5 -0.0023 0-0.0031l1.3522-0.64525 6e-3 -0.0031 0.69789-0.30382 9e-3 -0.0031 0.67835-0.26773c-1e-5 -7.7e-4 -1e-5 -0.0023 0-0.0031l0.67834-0.25569 9e-3 -0.0031 0.67834-0.23614c2e-3 -7.7e-4 5e-3 -0.0023 8e-3 -0.0031l0.67834-0.20004c4e-3 -7.7e-4 8e-3 -0.0023 0.012-0.0031l0.69339-0.17297c2e-3 -3.69e-4 4e-3 -0.0015 6e-3 -0.0015l0.67683-0.15342c5e-3 -0.0023 0.011-0.0038 0.0166-0.0046l0.67834-0.09927c3e-3 -8.5e-5 7e-3 -8.5e-5 0.0106 0l0.67834-0.06769c3e-3 -9.2e-5 7e-3 -9.2e-5 0.0105 0l0.67684-0.03458c7e-3 -3.54e-4 0.0141-3.54e-4 0.021 0l0.67383 0.03458c3e-3 -6.9e-5 6e-3 -6.9e-5 9e-3 0l0.67834 0.06769c3e-3 -8.5e-5 7e-3 -8.5e-5 0.0105 0l0.6979 0.09927c4e-3 7.71e-4 9e-3 0.0023 0.0136 0.0031l0.67383 0.15342c3e-3 6.16e-4 8e-3 4.78e-4 0.0105 0.0015l0.68285 0.17297c2e-3 -3.8e-5 4e-3 -3.8e-5 6e-3 0l0.67383 0.20004c3e-3 7.7e-4 7e-3 0.0038 0.0106 0.0046l0.68135 0.23614c2e-3 7.7e-4 4e-3 0.0023 6e-3 0.0031l0.69338 0.25569c3e-3 0.0023 7e-3 0.0038 0.0106 0.0062l0.67834 0.28878 0.67684 0.28277c3e-3 7.7e-4 7e-3 0.0023 0.0105 0.0031l1.3552 0.64525c2e-3 0.0023 5e-3 0.0023 8e-3 0.0046l1.3522 0.67834 1.3717 0.69638 1.3552 0.71294 1.3537 0.67232 1.3446 0.6257 0.67383 0.28127 0.67382 0.27224 0.67083 0.25118 0.67383 0.21659 0.65427 0.20306 0.66782 0.16695 0.66781 0.13537 0.66931 0.09626 0.64526 0.06915 0.6678 0.01956 0.66632-0.01956 0.66178-0.06915 0.64827-0.09626 0.67081-0.13537 0.67084-0.16695 0.6678-0.1835 0.66933-0.23614 0.67383-0.24967 0.65727-0.27374 0.67383-0.28127 1.3462-0.6287 1.3702-0.66932 1.3537-0.71294 1.3567-0.69638 1.3507-0.67834c3e-3 -0.0023 6e-3 -0.0023 9e-3 -0.0046l1.3717-0.64525 9e-3 -0.0031 0.68136-0.28277 0.67232-0.28878c3e-3 -0.0023 7e-3 -0.0039 0.0106-0.0062l0.68135-0.25569c3e-3 -7.7e-4 7e-3 -0.0023 0.0105-0.0031l0.67684-0.22109c-1e-5 -7.7e-4 -1e-5 -0.0023 0-0.0031l0.67834-0.21659c4e-3 -7.7e-4 9e-3 -0.0023 0.0136-0.0031l0.69489-0.17297c3e-3 -0.0023 7e-3 -0.0023 0.0106-0.0046l0.67684-0.13236 0.67684-0.12033c5e-3 -7.7e-4 0.011-0.0023 0.0166-0.0031l0.67382-0.06769c3e-3 -9.3e-5 7e-3 -9.3e-5 0.0105 0l0.67534-0.03311-2e-3 -0.0031c6e-3 -3.09e-4 0.0131-3.09e-4 0.0196 0l0.67684 0.03311c3e-3 -9.2e-5 7e-3 -9.2e-5 0.0105 0l0.69639 0.06769c5e-3 7.7e-4 0.0103 0.0023 0.015 0.0031l0.68286 0.12033 0.67834 0.13236c3e-3 0.0023 7e-3 0.0039 0.0106 0.0062l0.67682 0.17297c4e-3 -1.23e-4 8e-3 -1.23e-4 0.012 0l0.67834 0.21659c3e-5 0.0023 3e-5 0.0038 0 0.0062l0.67383 0.2196c3e-3 0.0023 6e-3 0.0023 9e-3 0.0046l0.69789 0.25569c3e-3 0.0023 8e-3 0.0023 0.0106 0.0046l0.67834 0.28878 0.67383 0.28427c2e-3 7.7e-4 4e-3 0.0023 6e-3 0.0031l1.3567 0.64525v0.0031l1.3717 0.67834 1.3597 0.69489 1.3537 0.71293 1.3477 0.67232 1.3477 0.6257 0.67382 0.28427 0.67081 0.28578 0.67383 0.23463 0.66783 0.23765 0.67081 0.1835 0.65729 0.16545 0.66781 0.13537 0.66631 0.09777 0.6648 0.06769 0.64525 0.02102 0.66481-0.02102 0.6633-0.06769 0.65427-0.09777 0.67081-0.13537 0.67084-0.15041 0.66329-0.19553 0.67383-0.24065 0.67082-0.23463 0.67082-0.28578 0.67382-0.28427 1.3492-0.6257 1.3522-0.67232 1.3537-0.69789 1.3507-0.70993c2e-3 -3.1e-5 4e-3 -3.1e-5 6e-3 0l1.3552-0.67834 0.0106-0.0031 1.3762-0.64525c3e-3 -0.0023 6e-3 -0.0023 9e-3 -0.0046l0.67834-0.28277v-0.0031l0.67835-0.27374 0.67382-0.27223c4e-3 -0.0023 9e-3 -0.0023 0.0136-0.0046l0.67834-0.2196c3e-3 -0.0023 6e-3 -0.0038 9e-3 -0.0062l0.69789-0.20005v-0.0031l0.67383-0.18801c5e-3 -0.0023 0.0109-0.0038 0.0166-0.0062l0.67834-0.13236c2e-3 -3.8e-5 5e-3 -3.8e-5 8e-3 0l0.67834-0.10378c3e-3 -6.9e-5 6e-3 -6.9e-5 9e-3 0l0.67834-0.08423c6e-3 -2.69e-4 0.0121-2.69e-4 0.018 0l0.67834-0.01656c3e-3 -7e-5 6e-3 -7e-5 9e-3 0l0.67834 0.01656c6e-3 -3.08e-4 0.0131-3.08e-4 0.0196 0l0.69789 0.08423c3e-3 -6.9e-5 6e-3 -6.9e-5 9e-3 0l0.67684 0.10378c3e-3 -6.9e-5 6e-3 -6.9e-5 9e-3 0l0.67682 0.13236c0 0.0023 0.01 0.0038 0.015 0.0062l0.6738 0.18801v0.0031l0.6784 0.20005c0 0.0023 0.01 0.0038 0.01 0.0062l0.6934 0.23915c0 7.7e-4 0.01 0.0023 0.01 0.0031l0.6783 0.25268 0.6784 0.27374c0 7.7e-4 0.01 0.0023 0.01 0.0031l0.6768 0.30533 1.3551 0.6257c0 2.69e-4 0.01 7.7e-4 0.01 0.0015l1.3748 0.67834c0 6.16e-4 0.01 4.85e-4 0.01 0.0015l1.3522 0.70993 1.3536 0.69789 1.3507 0.67233 1.3521 0.6272 0.6739 0.30382 0.6723 0.26472 0.6708 0.25419 0.6709 0.21809 0.6708 0.19854 0.6543 0.16696 0.6678 0.13386 0.6633 0.10228 0.6678 0.04813 0.6467 0.03458 0.6648-0.03458 0.6678-0.04813 0.6483-0.10228 0.6693-0.13386 0.6678-0.16696 0.6724-0.19854 0.6693-0.21809 0.6723-0.25419 0.6739-0.26472 0.6723-0.30382 1.3506-0.6272 1.3477-0.67233 1.3536-0.69789 1.3567-0.70993v-0.0015l1.3567-0.67834c0-3.77e-4 0.01-0.0015 0.01-0.0015l1.3763-0.6257 0.6738-0.30533 0.01-0.0031 0.6784-0.27391c0-3.78e-4 0.01 3e-4 0.01 0l0.6768-0.25268v-0.0031l0.6768-0.23915c0.01-0.0023 0.01-0.0038 0.012-0.0062l0.695-0.20005 0.01-0.0031 0.6783-0.16846 0.01-0.0031 0.6769-0.15191c0.01-7.7e-4 0.01-0.0023 0.015-0.0031l0.6768-0.10378c0-7.7e-4 0.01-4.78e-4 0.011-0.0015l0.6783-0.06915c0-9.3e-5 0.01-9.3e-5 0.011 0l0.6768-0.03157c0.01-3.16e-4 0.013-3.16e-4 0.019 0l0.4934 0.01656c0-9.3e-5 0.01-9.3e-5 0.011 0l0.4888 0.03612c0-9.2e-5 0.01-9.2e-5 0.011 0l0.4934 0.06315v0.0031l0.4226 0.05868v-5.5726c-0.094-0.01918-0.1614-0.10134-0.1624-0.19704v-0.5535l-0.3174-0.05568-0.4843-0.06615-0.4783-0.03612-0.4783-0.01656-0.6663 0.03612-0.6678 0.06915-0.6663 0.09776-0.6694 0.15041-0.6693 0.16696-0.6858 0.20155-0.6708 0.23313-0.6738 0.25269-0.6709 0.26923-0.6678 0.30232-1.3748 0.64374-1.3506 0.67233-1.3537 0.69789-1.3567 0.69338v0.0031l-1.3145 0.67834c0 4.31e-4 -0.01 0.0015-0.011 0.0015l-1.3552 0.64225c0 3.69e-4 -0.01-3.01e-4 -0.01 0l-0.6784 0.28878-0.01 0.0031-0.6768 0.27224-0.01 0.0031-0.6783 0.25269c0 4.08e-4 -0.01 0.0015-0.011 0.0015l-0.6784 0.2211c0 4.31e-4 -0.01 0.0015-0.011 0.0015l-0.6768 0.20456-0.01 0.0031-0.6784 0.16845-0.01 0.0031-0.6783 0.13537c0 7.71e-4 -0.01 0.0023-0.011 0.0031l-0.6618 0.09926c0 7.7e-4 -0.01 0.0023-0.011 0.0031l-0.6768 0.06769c-0.01 1.84e-4 -0.01 1.84e-4 -0.015 0l-0.6768 0.01656c0 3.8e-5 -0.01 3.8e-5 -0.01 0l-0.6573-0.01656c-0.01 2.69e-4 -0.012 2.69e-4 -0.018 0l-0.6784-0.06769c0-7.7e-4 -0.01-0.0023-0.011-0.0031l-0.6783-0.09926c0-7.7e-4 -0.01-0.0023-0.011-0.0031l-0.6783-0.13537c0-7.7e-4 -0.01-0.0023-0.01-0.0031l-0.6618-0.16845c0-7.7e-4 -0.01-0.0023-0.01-0.0031l-0.6769-0.20456c0-2.93e-4 -0.01-7.7e-4 -0.01-0.0015l-0.6783-0.2211c0-3e-4 -0.01-7.7e-4 -0.01-0.0015l-0.6783-0.25269c0-7.7e-4 -0.01-0.0023-0.01-0.0031l-0.6784-0.27224v-0.0031l-0.6783-0.28878c0-3.01e-4 0 3.69e-4 -0.01 0l-1.3567-0.64225v-0.0015l-1.3567-0.67834v-0.0031l-1.3552-0.69338-1.3566-0.69789-1.3672-0.69188-1.3522-0.62419-0.6739-0.30232-0.6708-0.26923-0.6723-0.25269-0.6874-0.23313-0.6708-0.20155-0.6693-0.16696-0.66782-0.15041-0.66631-0.09776-0.68586-0.06915-0.66029-0.03612-0.6618 0.03612-0.66781 0.06915-0.66631 0.09776-0.66781 0.15041-0.66781 0.16696-0.69038 0.20155-0.66931 0.23313-0.67383 0.25269-0.67233 0.26923-0.67383 0.30232-1.3672 0.62419-1.3522 0.69188-1.3492 0.69789-1.3567 0.69338c2e-5 7.7e-4 2e-5 0.0023 0 0.0031l-1.3552 0.67834c-3e-3 4.08e-4 -8e-3 0.0015-0.0105 0.0015l-1.3552 0.6257-0.67684 0.30533-9e-3 0.0062-0.67834 0.27224-0.67684 0.25269c-3e-3 7.7e-4 -7e-3 0.0039-0.0105 0.0046l-0.67834 0.21959-9e-3 0.0031-0.67684 0.20456c-3e-3 7.7e-4 -7e-3 4.7e-4 -0.0105 0.0015l-0.67683 0.16846c-4e-3 7.7e-4 -8e-3 0.0023-0.012 0.0031l-0.67835 0.13688c-3e-3 9.2e-5 -7e-3 9.2e-5 -0.0105 0l-0.6618 0.10077c-4e-3 7.7e-4 -9e-3 0.0023-0.0135 0.0031l-0.67984 0.05267c-2e-3 4.6e-5 -5e-3 4.6e-5 -8e-3 0l-0.66029 0.03157c-0.0119 0.0023-0.024 0.0031-0.0361 0.0031l-0.65579-0.03458c-2e-3 4.6e-5 -5e-3 4.6e-5 -8e-3 0l-0.67834-0.05113c-4e-3 -7.7e-4 -9e-3 -0.0023-0.0135-0.0031l-0.67834-0.09927c-3e-3 -7.7e-4 -6e-3 -0.0023-9e-3 -0.0031l-0.67834-0.13537c-3e-3 -7.7e-4 -7e-3 -0.0023-0.0105-0.0031l-0.6618-0.16846c-3e-3 -6.16e-4 -6e-3 -4.77e-4 -9e-3 -0.0015l-0.67834-0.20456c-2e-3 4.6e-5 -5e-3 4.6e-5 -8e-3 0l-0.67683-0.2211c-3e-3 -6.16e-4 -6e-3 -0.0023-9e-3 -0.0031l-0.67834-0.25269c-3e-3 -0.0023-6e-3 -0.0023-9e-3 -0.0046l-0.67534-0.27223c-3e-3 -7.7e-4 -6e-3 -0.0023-9e-3 -0.0031l-0.67834-0.30532-1.3552-0.6257c-2e-3 -3.08e-4 -4e-3 -7.7e-4 -6e-3 -0.0015l-1.3522-0.67834c-1e-5 -7.7e-4 -1e-5 -0.0023 0-0.0031l-1.3597-0.69188-1.3537-0.71444-1.3687-0.67684-1.3507-0.6242-0.67082-0.30081-0.66932-0.27073-0.69338-0.25119-0.66781-0.23614-0.67684-0.20155-0.66781-0.18049-0.6618-0.13386-0.67533-0.10228-0.67984-0.08573-0.66782-0.01656-0.65728 0.01656-0.6618 0.08573-0.66931 0.10228-0.66782 0.13386-0.68435 0.18049-0.67535 0.20155-0.6663 0.23614-0.67609 0.25144-0.66781 0.26772-0.67834 0.30382-1.3672 0.6242-1.3477 0.67684-1.3537 0.71142-1.3552 0.69489c1e-5 7.7e-4 1e-5 0.0023 0 0.0031l-1.3762 0.67834c-2e-3 3.85e-4 -5e-3 0.0015-8e-3 0.0015l-1.3507 0.6257-0.67684 0.30532-9e-3 0.0031-0.6618 0.27223c-3e-3 0.0023-7e-3 0.0039-0.0106 0.0062l-1.3567 0.47228c-3e-3 7.7e-4 -7e-3 0.0023-0.0105 0.0031l-0.67684 0.20456c-3e-3 6.9e-5 -6e-3 6.9e-5 -9e-3 0l-0.67684 0.16846c-3e-3 7.7e-4 -7e-3 0.0023-0.0105 0.0031l-0.67835 0.13688c-4e-3 0.0023-9e-3 0.0023-0.0136 0.0046l-0.65729 0.08422c-3e-3 7.7e-5 -8e-3 7.7e-5 -0.0105 0l-0.68135 0.06769c-4e-3 1.54e-4 -9e-3 1.54e-4 -0.0136 0l-0.67383 0.01656c-3e-3 9.2e-5 -7e-3 9.2e-5 -0.0105 0l-0.67834-0.01956c-4e-3 1.54e-4 -9e-3 1.54e-4 -0.0136 0l-0.66179-0.06469c-3e-3 7.7e-5 -6e-3 7.7e-5 -9e-3 0l-0.67833-0.08422c-5e-3 -7.7e-4 -0.0111-0.0023-0.0166-0.0046l-0.67684-0.13537c-3e-3 -7.7e-4 -7e-3 -0.0023-0.0106-0.0031l-0.67684-0.16846c-4e-3 -5.62e-4 -8e-3 -0.0023-0.012-0.0031l-0.66179-0.20456c-2e-3 -7.7e-4 -4e-3 -0.0023-6e-3 -0.0031l-1.3567-0.47228c-4e-3 -0.0023-0.0107-0.0038-0.015-0.0062l-1.3552-0.57757c-2e-3 -7.7e-4 -4e-3 -0.0023-6e-3 -0.0031l-1.3522-0.6257c-2e-3 -6.31e-4 -5e-3 -4.77e-4 -8e-3 -0.0015l-1.3552-0.67834c-2e-5 -7.7e-4 -2e-5 -0.0023 0-0.0031l-1.3582-0.69338-1.3702-0.71444-1.3476-0.67533-1.3507-0.64074-1.3477-0.57305-0.68436-0.24818-0.67232-0.2196-0.67383-0.20455-0.67083-0.18049-0.6678-0.13386-0.68587-0.12032-0.66481-0.06615zm-5e-3 15.077-0.66029 0.03157-0.66631 0.06615-0.66781 0.12033-0.66932 0.13386-0.68436 0.1835-0.67382 0.20155-0.66932 0.21959-0.67082 0.24818-0.67383 0.28728c1e-5 7.7e-4 1e-5 0.0023 0 0.0031l-0.69338 0.28728-1.3446 0.63773-1.3537 0.67534-1.3537 0.69338-1.3717 0.71444v0.0015l-1.3567 0.67834c-2e-3 7.16e-4 -4e-3 0.0023-6e-3 0.0031l-1.3552 0.6257-9e-3 0.0031-0.67834 0.28878c-3e-3 4.6e-5 -6e-3 4.6e-5 -9e-3 0l-0.67684 0.26923-0.66029 0.25569c-2e-3 0.0023-5e-3 0.0038-8e-3 0.0062l-0.67683 0.23764c-5e-3 0.0023-0.0103 0.0038-0.015 0.0046l-0.67684 0.18501c-2e-3 3.8e-5 -4e-3 3.8e-5 -6e-3 0l-0.67835 0.17297c-3e-3 7e-5 -8e-3 7e-5 -0.0105 0l-0.67834 0.13236c-3e-3 7.7e-4 -7e-3 0.0023-0.0105 0.0031l-0.67533 0.10529c-4e-3 7.7e-4 -8e-3 4.77e-4 -0.012 0.0015l-0.65879 0.06469c-4e-3 1.46e-4 -9e-3 1.46e-4 -0.0136 0l-0.67985 0.01956c-5e-3 1.85e-4 -0.0103 1.85e-4 -0.015 0h-6e-3l-0.66932-0.01956c-4e-3 1.46e-4 -9e-3 1.46e-4 -0.0135 0l-0.6618-0.06469c-4e-3 -5.62e-4 -8e-3 -4.77e-4 -0.012-0.0015l-0.67683-0.10529c-3e-3 -7.7e-4 -6e-3 -0.0023-9e-3 -0.0031l-0.67834-0.13236c-3e-3 9.3e-5 -7e-3 9.3e-5 -0.0106 0l-0.67834-0.17297c-2e-3 3.8e-5 -5e-3 3.8e-5 -8e-3 0l-0.6618-0.18501c-4e-3 -0.0023-8e-3 -0.0054-0.012-0.0077l-0.67834-0.23614c-3e-3 6.9e-5 -6e-3 6.9e-5 -9e-3 0l-0.67683-0.2572c-2e-5 -7.71e-4 -2e-5 -0.0023 0-0.0031l-0.67684-0.26923c-2e-3 3.1e-5 -4e-3 3.1e-5 -6e-3 0l-0.67834-0.28878c-2e-3 -7.7e-4 -5e-3 -0.0023-8e-3 -0.0031l-1.3567-0.6257c-3e-3 -6.16e-4 -6e-3 -4.78e-4 -9e-3 -0.0015l-1.3567-0.67834-1.3507-0.71444-1.3687-0.69187-1.3537-0.67684-1.3507-0.64074-0.67383-0.28577-0.69338-0.28728-0.67232-0.25118-0.66781-0.23464-0.66932-0.20005-0.66781-0.16695-0.67233-0.13386-0.68285-0.12033-0.66481-0.06615-0.66329-0.03157-0.59712 0.03157-0.62119 0.05267-0.59562 0.08122-0.61818 0.13537-0.60313 0.13386-0.60163 0.16696-0.62119 0.20154-0.60615 0.2196c-7.7e-4 7.01e-4 -2e-3 4.77e-4 -3e-3 0.0015v6.1096l0.48883-0.16394c7.7e-4 -7.7e-4 2e-3 -0.0023 3e-3 -0.0031l0.6257-0.20004 9e-3 -0.0031 0.60915-0.17297c2e-3 -3.7e-4 4e-3 -0.0015 6e-3 -0.0015l0.60915-0.1489c3e-3 -7.7e-4 7e-3 -0.0023 0.0105-0.0031l0.6257-0.12033c3e-3 -9.2e-5 9e-3 -9.2e-5 0.012 0l0.60915-0.08422 6e-3 -0.0031 0.63021-0.06769c5e-3 -2.23e-4 0.011-2.23e-4 0.0166 0l0.60765-0.01656-0.0136 0.0015c5e-3 -1.85e-4 0.0103-1.85e-4 0.015 0l0.67684 0.03311c3e-3 -9.2e-5 7e-3 -9.2e-5 0.0105 0l0.67834 0.06769c3e-3 5.93e-4 7e-3 4.78e-4 0.0105 0.0015l0.69338 0.10077c4e-3 7.7e-4 9e-3 0.0038 0.0136 0.0046l0.67834 0.15342c2e-3 3.08e-4 4e-3 -3.69e-4 6e-3 0l0.67834 0.17297c2e-3 7.7e-4 5e-3 0.0023 8e-3 0.0031l0.67834 0.20005c3e-3 7.7e-4 7e-3 0.0023 0.0106 0.0031l0.67834 0.23615c7.7e-4 7.7e-4 2e-3 0.0023 3e-3 0.0031l0.67834 0.25569c7.7e-4 -8e-6 2e-3 -8e-6 3e-3 0l0.69489 0.26923 9e-3 0.0062 0.67834 0.30533c7.7e-4 -7e-6 2e-3 -7e-6 3e-3 0l1.3567 0.62871c3e-3 0.0023 6e-3 0.0038 9e-3 0.0062l1.3552 0.69338 1.3717 0.69488 1.3567 0.69338 1.3537 0.67534 1.3492 0.64224 0.67232 0.28277 0.66932 0.27073 0.67232 0.25118 0.67083 0.2181 0.65427 0.20305 0.66781 0.16545 0.66932 0.13537 0.66781 0.09777 0.64976 0.06769 0.66481 0.02102 0.6633-0.02102 0.64525-0.06769 0.67082-0.09777 0.66781-0.13537 0.66782-0.16545 0.67081-0.20305 0.67083-0.2181 0.65578-0.24968 0.67533-0.27223 0.67232-0.28277 1.3492-0.64224 1.3537-0.67684 1.3702-0.69188 1.3552-0.69488 1.3567-0.67834c-2e-5 -7.7e-4 -2e-5 -0.0023 0-0.0031l1.3522-0.64525c2e-3 -7.7e-4 5e-3 -0.0023 8e-3 -0.0031l0.69789-0.30383c3e-3 -7.71e-4 7e-3 -0.0023 0.0106-0.0031l0.67833-0.26773c-1e-5 -7.7e-4 -1e-5 -0.0023 0-0.0031l0.67834-0.2557c2e-3 -7.7e-4 5e-3 -0.0023 8e-3 -0.0031l0.67834-0.23614 9e-3 -0.0031 0.67834-0.20004c3e-3 -7.7e-4 7e-3 -0.0023 0.0106-0.0031l0.69339-0.17297c2e-3 -7.7e-4 5e-3 -0.0023 8e-3 -0.0031l0.67684-0.15341c5e-3 -7.7e-4 0.011-0.0023 0.0165-0.0031l0.67834-0.10077c3e-3 -9.2e-5 7e-3 -9.2e-5 0.0105 0l0.67835-0.06769c3e-3 -9.3e-5 7e-3 -9.3e-5 0.0105 0l0.67683-0.03311c7e-3 -3.62e-4 0.0141-3.62e-4 0.021 0l0.67383 0.03311c3e-3 -7e-5 6e-3 -7e-5 9e-3 0l0.67834 0.06769c3e-3 -9.2e-5 7e-3 -9.2e-5 0.0106 0l0.6979 0.10077c4e-3 -1.54e-4 9e-3 -1.54e-4 0.0136 0l0.67383 0.15342c2e-3 7.7e-4 5e-3 0.0023 8e-3 0.0031l0.68285 0.17297c2e-3 6.47e-4 4e-3 0.0023 6e-3 0.0031l0.67383 0.20005c3e-3 7.7e-4 7e-3 0.0023 0.0105 0.0031l0.68136 0.23614c2e-3 7.7e-4 4e-3 0.0023 6e-3 0.0031l0.69338 0.25569c4e-3 0.0023 8e-3 0.0038 0.012 0.0062l0.67834 0.28878 0.67683 0.28277c3e-3 0.0023 7e-3 0.0039 0.0106 0.0062l1.3552 0.64525c2e-3 6.47e-4 4e-3 4.77e-4 6e-3 0.0015l1.3522 0.67834v0.0031l1.3717 0.69489 1.3552 0.71293 1.3537 0.67232 1.3446 0.6257 0.67383 0.28277 0.67383 0.27073 0.67082 0.25119 0.67383 0.21809 0.65427 0.20305 0.66781 0.16545 0.66782 0.13537 0.66931 0.09626 0.64525 0.06769 0.66782 0.02102 0.6663-0.02102 0.6618-0.06769 0.64826-0.09626 0.67082-0.13537 0.67082-0.16545 0.66781-0.1835 0.66932-0.23614 0.67383-0.25118 0.65729-0.27224 0.67382-0.28277 1.3462-0.6272 1.3702-0.67082 1.3537-0.71293 1.3567-0.69489c-1e-5 -7.7e-4 -1e-5 -0.0023 0-0.0031l1.3507-0.67834c3e-3 -7.62e-4 6e-3 -4.77e-4 9e-3 -0.0015l1.3717-0.64525c2e-3 -0.0023 5e-3 -0.0038 8e-3 -0.0062l0.68135-0.28277 0.67232-0.28878c3e-3 -0.0023 7e-3 -0.0038 0.0105-0.0062l0.68136-0.25569c3e-3 -7.7e-4 7e-3 -0.0023 0.0105-0.0031l0.67683-0.21959c-1e-5 -7.7e-4 -1e-5 -0.0023 0-0.0031l0.67834-0.21659c4e-3 -7.7e-4 9e-3 -0.0038 0.0136-0.0046l0.69489-0.17297c3e-3 -0.0023 7e-3 -0.0023 0.0105-0.0046l0.67684-0.13236 0.67684-0.12033c5e-3 -7.7e-4 0.011-0.0015 0.0165-0.0015l0.67383-0.06769c3e-3 -9.2e-5 7e-3 -9.2e-5 0.0105 0l0.67684-0.03311c7e-3 -3.54e-4 0.0141-3.54e-4 0.021 0l0.67684 0.03311c3e-3 -9.2e-5 7e-3 -9.2e-5 0.0106 0l0.69639 0.06769c5e-3 5.08e-4 0.0103 4.77e-4 0.015 0.0015l0.68285 0.12033 0.67834 0.13236c3e-3 0.0023 7e-3 0.0023 0.0105 0.0046l0.67684 0.17297c4e-3 7.7e-4 8e-3 0.0038 0.012 0.0046l0.67834 0.21659c1e-5 7.7e-4 1e-5 0.0023 0 0.0031l0.67383 0.21959c3e-3 7.7e-4 7e-3 0.0023 0.0105 0.0031l0.69789 0.25569 9e-3 0.0062 0.67834 0.28878 0.67383 0.28427c2e-3 7.7e-4 5e-3 0.0023 8e-3 0.0031l1.3567 0.64525 1.3717 0.67834v0.0031l1.3597 0.69488 1.3537 0.71293 1.3477 0.67233 1.3477 0.6257 0.67383 0.28427 0.67081 0.28577 0.67383 0.23464 0.66782 0.23764 0.67082 0.1835 0.65728 0.16545 0.66782 0.13537 0.6663 0.09776 0.66481 0.06769 0.64525 0.0211 0.66481-0.0211 0.66329-0.06769 0.65428-0.09776 0.67083-0.13537 0.67081-0.15041 0.6633-0.19553 0.67383-0.24065 0.67082-0.23464 0.67082-0.28577 0.67383-0.28427 1.3492-0.6257 1.3522-0.67233 1.3537-0.69789 1.3507-0.70992c2e-3 -7.24e-4 4e-3 -0.0023 6e-3 -0.0031l1.3552-0.67834c3e-3 -4.08e-4 6e-3 2.7e-4 9e-3 0l1.3762-0.64525 9e-3 -0.0062 0.67834-0.28277 0.67834-0.27374 0.67383-0.27224c4e-3 -0.0023 9e-3 -0.0054 0.0136-0.0077l0.67834-0.2196c2e-3 -7.7e-4 5e-3 -0.0023 8e-3 -0.0031l0.69789-0.20005c-1e-5 -7.7e-4 -1e-5 -0.0023 0-0.0031l0.67383-0.18801c5e-3 -0.0023 0.011-0.0046 0.0166-0.0062l0.67834-0.13236c2e-3 -4.6e-5 5e-3 -4.6e-5 8e-3 0l0.67829-0.10362c2e-3 -7.31e-4 5e-3 -4.77e-4 8e-3 -0.0015l0.67834-0.08423c6e-3 -2.62e-4 0.012-2.62e-4 0.018 0l0.67834-0.01656c3e-3 -7e-5 6e-3 -7e-5 9e-3 0l0.67834 0.01656c6e-3 -3.08e-4 0.0131-3.08e-4 0.0196 0l0.6979 0.08423c3e-3 6.16e-4 6e-3 4.77e-4 9e-3 0.0015l0.67683 0.10378c3e-3 -7.7e-5 6e-3 -7.7e-5 9e-3 0l0.6768 0.13236c0 7.7e-4 0.01 0.0038 0.015 0.0062l0.6739 0.18801v0.0031l0.6783 0.20005c0 7.7e-4 0.01 0.0023 0.01 0.0031l0.6933 0.23915c0 7.71e-4 0.01 0.0023 0.01 0.0031l0.6784 0.25268v0.0046l0.6784 0.27224c0 0.0023 0.01 0.0039 0.01 0.0062l0.6768 0.30532 1.3551 0.6257c0-3.9e-5 0.01-3.9e-5 0.01 0l1.3748 0.67834c0 7.7e-4 0.01 0.0023 0.01 0.0031l1.3522 0.70992 1.3537 0.69789 1.3506 0.67233 1.3521 0.6272 0.6739 0.30383 0.6723 0.26471 0.6709 0.25419 0.6708 0.2181 0.6708 0.19854 0.6543 0.16696 0.6678 0.13386 0.6633 0.10228 0.6678 0.04813 0.6467 0.03458 0.6648-0.03458 0.6679-0.04813 0.6482-0.10228 0.6693-0.13386 0.6678-0.16696 0.6724-0.19854 0.6693-0.2181 0.6723-0.25419 0.6738-0.26471 0.6724-0.30383 1.3506-0.6272 1.3477-0.67233 1.3537-0.69789 1.3566-0.70992v-0.0031l1.3567-0.67834c0-3.9e-5 0.01-3.9e-5 0.01 0l1.3763-0.6257 0.6738-0.30532c0-0.0023 0.01-0.0038 0.011-0.0062l0.6783-0.27224c0-0.0023 0.01-0.0023 0.01-0.0046l0.6768-0.25268v-0.0031l0.6769-0.23915c0-7.7e-4 0.01-0.0023 0.012-0.0031l0.6949-0.20005 0.01-0.0031 0.6783-0.16845c0-4.7e-5 0.01-4.7e-5 0.01 0l0.6768-0.15192c0.01-7.7e-4 0.01-0.0023 0.014-0.0031l0.6769-0.10378c0-7.7e-4 0.01-0.0023 0.012-0.0031l0.6783-0.06915c0-9.3e-5 0.01-9.3e-5 0.011 0l0.6769-0.03157c0.01-2.62e-4 0.012-2.62e-4 0.018 0l0.4933 0.01656c0-9.2e-5 0.01-9.2e-5 0.011 0l0.4889 0.03612c0-9.2e-5 0.01-9.2e-5 0.011 0l0.4933 0.06315v0.0031l0.4196 0.05868v-5.4057c-0.1-0.01425-0.1738-0.09939-0.1744-0.20005v-0.5535l-0.3174-0.05568-0.4843-0.06615-0.4783-0.03612-0.4783-0.01656-0.6664 0.03612-0.6677 0.06915-0.6664 0.09776-0.6692 0.15041-0.6694 0.16695-0.6859 0.20155-0.6708 0.23314-0.6738 0.25268-0.6708 0.26923-0.6679 0.30232-1.3746 0.64375-1.3507 0.67232-1.3537 0.69789-1.3552 0.69338-1.3145 0.67985c0 7.7e-4 -0.01 0.0023-0.011 0.0031l-1.3552 0.64225c0 3.77e-4 -0.01-3.01e-4 -0.01 0l-0.6784 0.28878c0 7.7e-4 -0.01 0.0039-0.01 0.0046l-0.6768 0.27223c0 0.0023-0.01 0.0023-0.01 0.0046l-0.6783 0.25269c0 6.9e-5 -0.01 6.9e-5 -0.01 0l-0.6784 0.2211c0 7.7e-4 -0.01 0.0023-0.011 0.0031l-0.6768 0.20456c0 4.09e-4 -0.01 0.0015-0.01 0.0015l-0.6783 0.16846-0.01 0.0031-0.6784 0.13537c0 7.7e-4 -0.01 0.0023-0.011 0.0031l-0.6618 0.09927c0 7.7e-4 -0.01 0.0023-0.011 0.0031l-0.6768 0.06769c-0.01 1.85e-4 -0.01 1.85e-4 -0.015 0l-0.6769 0.01656c0 3.9e-5 -0.01 3.9e-5 -0.01 0l-0.6572-0.01656c-0.01 2.62e-4 -0.012 2.62e-4 -0.018 0l-0.6784-0.06769c0-7.71e-4 -0.01-0.0023-0.01-0.0031l-0.6783-0.09927c0-7.7e-4 -0.01-0.0023-0.011-0.0031l-0.6784-0.13537c0-7.7e-4 -0.01-0.0023-0.01-0.0031l-0.6618-0.16846c0-2.7e-4 -0.01-7.7e-4 -0.01-0.0015l-0.6738-0.20456c0-7.7e-4 -0.01-0.0023-0.01-0.0031l-0.6783-0.2211c0 3e-5 0 3e-5 -0.01 0l-0.6784-0.25269c0-7.7e-4 -0.01-0.0023-0.01-0.0031l-0.6784-0.27224v-0.0031l-0.6783-0.28878c0-6.31e-4 -0.01-0.0023-0.01-0.0031l-1.3566-0.64225v-0.0015l-1.3568-0.67834v-0.0031l-1.3551-0.69338-1.3567-0.69789-1.3672-0.69188-1.3522-0.62419-0.6738-0.30232-0.6709-0.26923-0.6722-0.25268-0.6874-0.23314-0.6708-0.20155-0.6694-0.16695-0.66777-0.15041-0.66631-0.09776-0.68586-0.06915-0.66029-0.03612-0.6618 0.03612-0.66781 0.06915-0.66631 0.09776-0.66781 0.15041-0.66781 0.16695-0.69037 0.20155-0.66932 0.23314-0.67383 0.25268-0.67233 0.26923-0.67383 0.30232-1.3672 0.62419-1.3522 0.69188-1.3492 0.69789-1.3567 0.69338c1e-5 7.7e-4 1e-5 0.0023 0 0.0031l-1.3552 0.67834c-3e-3 7.63e-4 -6e-3 4.78e-4 -9e-3 0.0015l-1.3552 0.6257-0.67684 0.30533c-3e-3 0.0023-6e-3 0.0039-9e-3 0.0062l-0.67834 0.27224v0.0031l-0.67684 0.25269c-3e-3 7.7e-4 -7e-3 0.0023-0.0105 0.0031l-0.67834 0.2196c-3e-3 0.0023-6e-3 0.0023-9e-3 0.0046l-0.67684 0.20455c-3e-3 4.31e-4 -7e-3 0.0015-0.0105 0.0015l-0.67684 0.16846c-3e-3 7.7e-4 -7e-3 0.0023-0.0105 0.0031l-0.67834 0.13688c-3e-3 9.3e-5 -7e-3 9.3e-5 -0.0105 0l-0.66179 0.10077c-4e-3 7.7e-4 -9e-3 0.0023-0.0136 0.0031l-0.67985 0.05268c-3e-3 6.9e-5 -8e-3 6.9e-5 -0.0106 0l-0.66029 0.03157c-0.0114 0.0023-0.023 0.0031-0.0346 0.0031l-0.65578-0.03311c-2e-3 4.6e-5 -4e-3 4.6e-5 -6e-3 0l-0.67834-0.05113c-4e-3 -7.7e-4 -9e-3 -0.0023-0.0136-0.0031l-0.67834-0.09926c-3e-3 -7.7e-4 -7e-3 -0.0023-0.0105-0.0031l-0.67834-0.13537c-3e-3 -0.0023-7e-3 -0.0023-0.0106-0.0046l-0.66179-0.16846c-2e-3 -7.7e-4 -5e-3 -0.0023-8e-3 -0.0031l-0.67834-0.20455c-3e-3 6.9e-5 -6e-3 6.9e-5 -9e-3 0l-0.66574-0.2211c-3e-3 -7.7e-4 -7e-3 -0.0023-0.0105-0.0031l-0.67835-0.25268c-2e-3 -7.7e-4 -5e-3 -0.0023-8e-3 -0.0031l-0.67684-0.27224c-3e-3 -7.7e-4 -7e-3 -0.0023-0.0105-0.0031l-0.67834-0.30533-1.3552-0.6257c-2e-3 -7.7e-4 -4e-3 -0.0039-6e-3 -0.0046l-1.3522-0.67834-1.3597-0.69339-1.3537-0.71444-1.3672-0.67533-1.3507-0.6242-0.67081-0.30232-0.67082-0.26923-0.69188-0.25268-0.66782-0.23464-0.67683-0.20305-0.66781-0.18049-0.6618-0.13386-0.67683-0.10077-0.67985-0.08573-0.66781-0.01656-0.65729 0.01656-0.66029 0.08573-0.66931 0.10077-0.66932 0.13386-0.68285 0.182-0.67534 0.20155-0.66631 0.23464-0.67683 0.25268-0.66781 0.26773-0.67835 0.30382-1.3672 0.62269-1.3476 0.67684-1.3537 0.71293-1.3567 0.69489-1.3762 0.67834-6e-3 0.0046-1.3507 0.6257-0.67684 0.30533c-3e-3 7.7e-4 -7e-3 0.0023-0.0105 0.0031l-0.66179 0.27224-9e-3 0.0062-1.3567 0.47228c-3e-3 0.0023-7e-3 0.0023-0.0106 0.0046l-0.67684 0.20456c-3e-3 6.9e-5 -6e-3 6.9e-5 -9e-3 0l-0.67683 0.16846c-3e-3 7.7e-4 -7e-3 0.0023-0.0105 0.0031l-0.67834 0.13687c-5e-3 0.0023-0.0103 0.0046-0.015 0.0062l-0.65729 0.08423c-2e-3 3.9e-5 -5e-3 3.9e-5 -8e-3 0l-0.68134 0.06769c-4e-3 1.54e-4 -9e-3 1.54e-4 -0.0136 0l-0.67383 0.01656c-3e-3 9.3e-5 -7e-3 9.3e-5 -0.0106 0l-0.67834-0.01956c-5e-3 1.85e-4 -0.0103 1.85e-4 -0.015 0l-0.6618-0.06469c-2e-3 3.1e-5 -4e-3 3.1e-5 -6e-3 0l-0.67834-0.08423c-6e-3 -7.7e-4 -0.0121-0.0039-0.018-0.0062l-0.67685-0.13537c-3e-3 -7.7e-4 -7e-3 -0.0023-0.0105-0.0031l-0.67592-0.1691c-4e-3 -7.7e-4 -8e-3 -0.0023-0.012-0.0031l-0.66179-0.20456c-2e-3 -7.7e-4 -5e-3 -0.0023-8e-3 -0.0031l-1.3567-0.47228c-4e-3 -0.0023-9e-3 -0.0039-0.0136-0.0062l-1.3552-0.57757c-2e-3 -7.7e-4 -5e-3 -0.0023-8e-3 -0.0031l-1.3522-0.6257c-2e-3 -6.32e-4 -4e-3 -0.0023-6e-3 -0.0031l-1.3552-0.67834c-2e-5 -7.7e-4 -2e-5 -0.0023 0-0.0031l-1.3597-0.69338-1.3702-0.71444-1.3477-0.67534-1.3492-0.64074-1.3476-0.57306-0.68586-0.24817-0.67233-0.2196-0.67383-0.20455-0.67081-0.18049-0.66632-0.13386-0.68736-0.12033-0.66481-0.06615zm22.006 24.076a51.509 100.07 0 0 0-51.508 100.07 51.509 100.07 0 0 0 51.509 100.07 51.509 100.07 0 0 0 49.653-73.452l43.916 0.0451v-10.028h-4.3528l4.3528-16.673-2.0305-13.368-20.651-0.04813-22.811-22.468a51.509 100.07 0 0 0-48.076-64.154z" color="#000000" color-rendering="auto" dominant-baseline="auto" enable-background="accumulate" fill="#fff" image-rendering="auto" shape-rendering="auto" solid-color="#000000" stop-color="#000000" style="font-feature-settings:normal;font-variant-alternates:normal;font-variant-caps:normal;font-variant-east-asian:normal;font-variant-ligatures:normal;font-variant-numeric:normal;font-variant-position:normal;font-variation-settings:normal;inline-size:0;isolation:auto;mix-blend-mode:normal;paint-order:stroke fill markers;shape-margin:0;shape-padding:0;text-decoration-color:#000000;text-decoration-line:none;text-decoration-style:solid;text-indent:0;text-orientation:mixed;text-transform:none;white-space:normal"/><path d="m889.11 0.17963a48.717 97.107 0 0 0-48.717 97.108 48.717 97.107 0 0 0 48.717 97.108 48.717 97.107 0 0 0 47.275-73.641h43.185v-3.9136h-24.21c3.8434-0.96365 6.7187-4.4528 6.7187-8.5642 0-4.8435-3.9857-8.8335-8.85-8.8335-4.8644-1e-5 -8.8455 3.99-8.8455 8.8335 0 4.1115 2.8729 7.6006 6.7157 8.5642h-61.512c3.8436-0.96345 6.7187-4.4526 6.7187-8.5642 0-4.8435-3.9842-8.8335-8.8485-8.8335-4.8644-1e-5 -8.847 3.99-8.847 8.8335 0 4.1117 2.8742 7.6008 6.7172 8.5642h-35.432a40.286 80.434 0 0 1-1.2078-19.549 40.286 80.434 0 0 1 40.285-80.434 40.286 80.434 0 0 1 36.614 46.881h9.2411a48.717 97.107 0 0 0-45.718-63.559zm18.771 71.459-19.121 15.145-23.595 1.677-2.9074 8.7252 4.8657 9.6412 9.7826 1.5206s0.099-3.8003 2.2652-6.5638c1.0689-1.3637 2.5584-2.4952 4.2204-3.1781 1.3742-0.56469 2.9171-0.8006 3.9798-0.80468 1.1352-4e-3 2.6815 0.17399 4.1167 0.79717 1.7042 0.73999 3.2919 2.0412 4.3889 3.4669 2.0144 2.6179 2.0531 6.2149 2.0531 6.2149h44.84s0.13492-3.7649 2.2591-6.4976c0.92984-1.1962 2.2999-2.3221 3.7286-2.9961 1.5191-0.71656 3.1049-0.94395 4.3002-0.9551 1.1432-0.0108 2.7801 0.0893 4.2671 0.74302 1.6992 0.747 3.2427 2.1361 4.3272 3.509 2.1013 2.6599 2.0848 6.1968 2.0848 6.1968l13.251-1.0062 2.6276-10.423-1.5086-10.067h-19.178l-15.319-15.145zm0.55952 3.2669h12.078v11.878h-26.67zm14.985 0h11.909l7.9942 11.878h-19.904zm-35.969 29.441c2.1855 0 3.9182 1.7222 3.9181 3.9302 0 2.208-1.7326 3.9347-3.9181 3.9347-2.1855 2e-5 -3.9166-1.7267-3.9166-3.9347 0-2.208 1.7311-3.9302 3.9166-3.9302zm65.772 0c2.1855 0 3.9196 1.7222 3.9196 3.9302 0 2.208-1.7341 3.9347-3.9196 3.9347-2.1856 2e-5 -3.9166-1.7267-3.9166-3.9347 0-2.208 1.7311-3.9302 3.9166-3.9302zm-102.79 16.408h77.068a40.286 80.434 0 0 1-38.535 56.972 40.286 80.434 0 0 1-38.533-56.972z" fill-opacity=".99595" style="paint-order:stroke fill markers"/></g></svg>