<svg xmlns="http://www.w3.org/2000/svg" viewBox="0 0 689.23 688.285">
  <defs>
    <style>
      .cls-1 {
        fill: #00408c;
      }

      .cls-1, .cls-2 {
        fill-rule: evenodd;
      }

      .cls-2, .cls-3 {
        fill: #fff;
      }
    </style>
  </defs>
  <g id="Layer_2" data-name="Layer 2">
    <g id="Layer_1-2" data-name="Layer 1">
      <g id="Layer_2-2" data-name="Layer 2">
        <g id="Layer_1-2-2" data-name="Layer 1-2">
          <g id="Layer_2-2-2" data-name="Layer 2-2">
            <g id="Layer_1-2-2-2" data-name="Layer 1-2-2">
              <g id="g895">
                <path id="rect90889" class="cls-1" d="M40.592,0H648.643a40.5,40.5,0,0,1,40.586,40.409h0V647.693a40.5,40.5,0,0,1-40.4,40.592H40.592A40.5,40.5,0,0,1,0,647.9V40.592A40.5,40.5,0,0,1,40.4,0h.189Z"/>
                <path id="path90896" class="cls-2" d="M43.118,11.8A31.788,31.788,0,0,0,11.4,43.525V644.27A31.793,31.793,0,0,0,43.118,676H645.8a31.786,31.786,0,0,0,31.721-31.728V43.525A31.78,31.78,0,0,0,645.8,11.8Zm0,11.385H645.8a20.172,20.172,0,0,1,20.343,20V644.27a20.177,20.177,0,0,1-20.011,20.343H43.118a20.171,20.171,0,0,1-20.337-20.005h0V43.525A20.166,20.166,0,0,1,42.774,23.188h.344Z"/>
                <g>
                  <path class="cls-3" d="M182.733,598.423,90.522,414c1.138-.62,1.912,0,2.665.283q19.989,7.455,39.958,14.965,7.966,2.99,15.93,5.988c.737.276,1.5.481,2.14.683a1.651,1.651,0,0,0,.345-.175.561.561,0,0,0,.1-.214,1.412,1.412,0,0,0,.046-.233c.011-.079.018-.159.023-.239s0-.16.007-.24l0-.24c0-.08,0-.16,0-.24v-.96q0-170.391,0-340.782v-.48c0-.08,0-.16,0-.24s0-.16,0-.24,0-.16,0-.24,0-.16.006-.24.01-.159.016-.239.008-.16.021-.239.039-.155.061-.232a1.041,1.041,0,0,1,.071-.228,3.466,3.466,0,0,1,.313-.359h61.065c.124.131.185.185.233.248a1.015,1.015,0,0,1,.119.2,1.3,1.3,0,0,1,.069.23,2.067,2.067,0,0,1,.043.235c.011.079.017.159.021.239.007.16.012.319.016.479,0,.08,0,.16,0,.24s0,.16,0,.24c0,.16,0,.32,0,.48q0,170.991,0,341.983c0,.079,0,.159,0,.239s0,.16,0,.24,0,.16.009.24a1.884,1.884,0,0,0,.027.238,1.164,1.164,0,0,0,.067.227c.03.071.074.135.262.47l60.333-22.562a2.705,2.705,0,0,1,.393.315c.039.061.079.166.052.219q-45.51,91.209-91.038,182.409C183.683,596.959,183.359,597.407,182.733,598.423Z"/>
                  <path class="cls-3" d="M598.584,274.669,537.7,251.9c-.188,6.136-.069,11.863-.091,17.586-.021,5.76,0,11.519,0,17.279V598.151H475.644c-.1-6.43-.032-12.8-.044-19.16-.013-6.4,0-12.8,0-19.2V251.969c-1.214.4-2.085.657-2.933.974q-25.486,9.526-50.966,19.066c-1.8.672-3.585,1.364-5.389,2.013-.565.2-1.169.3-2.358.6l92.2-184.409a3.472,3.472,0,0,1,.511-.035.332.332,0,0,1,.207.1,13.168,13.168,0,0,1,.744,1.212q45.548,91.143,91.074,182.3C598.746,273.894,598.659,274.08,598.584,274.669Z"/>
                </g>
              </g>
            </g>
          </g>
        </g>
      </g>
    </g>
  </g>
</svg>
