<svg width="200" height="199.73" version="1.1" viewBox="0 0 200 199.73" xmlns="http://www.w3.org/2000/svg"><g transform="translate(-741.91 353.58)" fill-rule="evenodd"><path d="m753.69-353.58h176.44c6.5251 0 11.778 5.253 11.778 11.778v176.17c0 6.525-5.253 11.778-11.778 11.778h-176.44c-6.5251 0-11.778-5.253-11.778-11.778v-176.17c0-6.525 5.253-11.778 11.778-11.778z" fill="#00408c" opacity=".99988" stroke-linecap="round" stroke-linejoin="round" stroke-miterlimit=".1" stroke-width="178.79"/><path d="m754.42-350.15c-5.0711 0-9.2054 4.1344-9.2054 9.2055v174.32c0 5.0711 4.1344 9.2054 9.2054 9.2054h174.89c5.0711 0 9.2043-4.1343 9.2043-9.2054v-174.32c0-5.0711-4.1332-9.2055-9.2043-9.2055zm0 3.3034h174.89c3.2984 0 5.9021 2.6036 5.9021 5.9021v174.32c0 3.2984-2.6036 5.902-5.9021 5.902h-174.89c-3.2984 0-5.902-2.6036-5.902-5.902v-174.32c0-3.2984 2.6036-5.9021 5.902-5.9021z" color="#000000" color-rendering="auto" dominant-baseline="auto" enable-background="accumulate" fill="#fff" image-rendering="auto" opacity=".99988" shape-rendering="auto" solid-color="#000000" stop-color="#000000" style="font-feature-settings:normal;font-variant-alternates:normal;font-variant-caps:normal;font-variant-east-asian:normal;font-variant-ligatures:normal;font-variant-numeric:normal;font-variant-position:normal;font-variation-settings:normal;inline-size:0;isolation:auto;mix-blend-mode:normal;shape-margin:0;shape-padding:0;text-decoration-color:#000000;text-decoration-line:none;text-decoration-style:solid;text-indent:0;text-orientation:mixed;text-transform:none;white-space:normal"/><path d="m791.77-289.68s0.4897-5.6239 3.707-12.985c2.3536-5.3841 6.3013-11.765 11.912-17.218 4.7909-4.6558 12.374-8.9388 19.842-11.466 5.3135-1.7983 10.748-2.5646 14.269-2.5894 4.8552-0.0344 11.669 0.50265 17.991 2.5984 8.1477 2.7008 15.863 7.6551 21.548 13.79 5.7255 6.1788 9.43 13.646 11.398 19.593 1.8664 5.6416 2.141 9.9299 2.141 9.9299v86.343l-20.134 0.16728v-82.717s0.92144-8.4205-5.8075-16.342c-2.2926-2.6992-5.3986-6.4387-9.141-8.6443-5.4525-3.2135-11.849-4.3919-15.676-4.4747-3.6124-0.0782-9.4379 0.58751-14.54 3.007-4.1474 1.9665-7.6694 5.3623-10.327 8.2785-6.7196 7.3737-7.4462 15.573-7.4462 15.573v59.567h16.648l-26.604 53.356-26.561-53.356h16.607z" fill="#fff" opacity=".99988"/></g></svg>