<svg width="200" height="301.07" version="1.1" viewBox="0 0 200 301.07" xmlns="http://www.w3.org/2000/svg"><defs><clipPath id="a"><path d="m0 0h360v534.27h-360z"/></clipPath><clipPath><path d="m0 0h130.97v109.2h-130.97z"/></clipPath></defs><g transform="translate(-742.38 353.16)" fill="#fff"><g transform="matrix(2.1822 0 0 2.1822 510.66 -1516.4)" stroke-width=".45825" aria-label="1"><path d="m119.3 669.71-3.6094 1e-5 -6e-3 -13.174-0.1828-0.0951s-1.2327 0.68775-1.9043 0.88494c-0.7528 0.22103-2.332 0.31948-2.332 0.31948l4e-3 -3.6052s0.74079-0.0541 1.4868-0.31341c0.62301-0.21656 1.2311-0.60409 1.5901-0.95939 0.41341-0.40915 0.87672-1.1496 1.1117-1.8464 0.22707-0.67342 0.23274-1.3107 0.23274-1.3107l3.6094-1e-5z" fill="#fff" stroke-width=".45825"/></g><g transform="matrix(.98331 0 0 -.98214 616.93 -10.271)" clip-path="url(#a)"><g transform="matrix(2.1794 0 0 -2.182 -421.27 1506)" stroke-width=".46663" aria-label="5"><path d="m294.15 667.46c-0.61562 0.48821-1.33 0.84171-2.0686 1.13-0.65842 0.25703-1.2924 0.48418-2.0946 0.5918-0.7313 0.0981-1.6915 0.17179-2.531 0.0838-1.5781-0.16551-3.1474-0.55368-4.6214-1.1411-0.9204-0.36676-2.5848-1.4674-2.5848-1.4674l2.1522-2.9791s0.83719 0.641 2.0944 1.1554c0.95571 0.39105 2.2522 0.67622 3.0371 0.74134 1.3079 0.10853 2.9676-0.0377 3.8676-0.73772 0.29944-0.23955 0.60927-0.3563 0.83034-0.62841 0.44339-0.54576 0.66356-1.2982 0.66356-1.9922 0.0269-0.73849-0.3745-1.4471-0.85623-1.9215-0.23583-0.23226-0.46629-0.36147-0.72523-0.49987-0.38135-0.20384-0.77229-0.36325-1.2055-0.47909-0.63286-0.16921-1.301-0.28071-1.9197-0.23882-0.61402 0.0416-1.5162 0.1072-2.2888 0.30765-0.95333 0.24734-1.7268 0.63342-1.7268 0.63342l-3.0868-2.4774 0.80093-8.6844 13.057 0.0157v3.6765l-9.7112-0.018-0.29623 3.3164s0.53824-0.14692 1.2299-0.25761c0.75303-0.12051 1.6879-0.20629 2.308-0.22383 0.44654-0.0126 0.85341 0.0289 1.336 0.10535 0.88837 0.14068 1.8754 0.42405 2.6739 0.78692 0.4384 0.19923 0.86658 0.41303 1.2505 0.69621 0.59334 0.4376 1.1355 0.95484 1.5987 1.5284 0.19535 0.24191 0.34261 0.49941 0.48816 0.79487 0.52409 1.0639 0.87199 2.398 0.74891 3.5769-0.0588 0.56348-0.15906 1.1709-0.3633 1.7248-0.18239 0.49466-0.45643 0.93951-0.71931 1.3858-0.33946 0.57621-0.81368 1.0798-1.3377 1.4953z" fill="#fff" stroke-width=".46663"/></g><g transform="matrix(2.1548 0 0 -2.1574 -522.5 1551.6)" stroke-width=".47196" aria-label="6"><path d="m371.31 695.75c-0.75571 0.71415-1.7741 1.1734-2.7909 1.5529-1.2945 0.48315-2.6309 0.78764-3.9022 0.78764-2.4105 0-4.4245-0.64858-6.0865-1.9978-0.52648-0.4274-1.135-1.0085-1.5203-1.6494-0.42251-0.70287-0.81532-2.3212-0.81532-2.3212l-4e-3 -5.7433s0.21761-1.6806 0.98837-3.4123c0.54728-1.2296 1.5351-2.4739 2.198-3.2105 1.373-1.5259 3.6834-2.4862 5.6456-2.4592 0.82484 0.0113 2.2424 0.27261 3.2145 0.78758 1.496 0.7925 2.4372 1.9574 2.4372 1.9574l-2.8784 2.3572s-0.44387-0.60239-1.2427-0.97405c-0.84633-0.39375-2.076-0.54605-3.0438-0.0929-0.58457 0.27373-1.6425 1.149-2.2714 2.0656-0.82205 1.1982-1.1501 2.4591-1.1501 2.4591s0.74444-0.35772 1.6855-0.6417c0.8639-0.26071 1.7217-0.35403 2.5959-0.38304 0.53042-0.0176 0.90262 7e-3 1.587 0.12753 1.7151 0.30244 3.9136 0.98979 5.2012 2.1036 1.1582 1.002 1.9949 2.5822 2.0478 4.1128 0.0569 1.6495-0.69639 3.4404-1.896 4.574zm-2.267-4.1771c6e-3 -0.19244-4e-3 -0.46837-0.0726-0.68863-0.0806-0.25756-0.25668-0.52676-0.38954-0.70981-0.18667-0.25722-0.49374-0.48271-0.81214-0.67374-0.15686-0.0941-0.30744-0.18439-0.4654-0.25714-0.86863-0.39999-1.5256-0.6635-2.7911-0.6635-0.88946 0-1.7827 0.19555-2.607 0.52083-0.10547 0.0416-0.2068 0.096-0.30598 0.15543-0.11757 0.0704-0.23208 0.14792-0.34682 0.21953-0.16906 0.10551-0.34505 0.18103-0.48438 0.32934-0.13629 0.20678-0.4126 0.37488-0.53664 0.61782-0.19365 0.37928-0.33967 0.81078-0.28996 1.2442 0.0476 0.41486 0.27585 0.83568 0.54303 1.1742 0.22215 0.28145 0.57486 0.47994 0.84477 0.66593 0.8035 0.52228 1.838 0.78341 3.1035 0.78341 1.2655 0 2.29-0.231 3.0734-0.69301 0.78341-0.4821 1.5117-1.282 1.5369-2.0248z" fill="#fff" stroke-width=".47196"/></g><g transform="matrix(3.8734 0 0 3.878 -822.12 -884.84)" stroke-width=".08802"><g transform="matrix(3.3694,0,0,1.2278,160.91,266.86)"><path d="m26.569 41.809h12.471c0.86234 0 1.5566-1.9052 1.5566-4.2716v-55.837c0-2.3665-0.69423-4.2716-1.5566-4.2716h-12.471c-0.86234 0-1.5566 1.9052-1.5566 4.2716v55.837c0 2.3665 0.69423 4.2716 1.5566 4.2716z" fill="#00408c" fill-rule="evenodd" opacity=".99988"/><g fill="#fff"><path d="m26.583 40.734c-0.65201 0-1.1831-1.4574-1.1831-3.2467v-55.767c0-1.7893 0.53109-3.2467 1.1831-3.2467h12.44c0.65201 0 1.1831 1.4575 1.1831 3.2467v55.767c0 1.7893-0.53109 3.2467-1.1831 3.2467zm0-1.0706h12.44c0.4427 0 0.79356-0.96127 0.79356-2.1762v-55.767c0-1.2149-0.35086-2.1762-0.79356-2.1762h-12.44c-0.4427 0-0.79298 0.96126-0.79298 2.1762v55.767c0 1.2149 0.35028 2.1762 0.79298 2.1762z" color="#000000" color-rendering="auto" dominant-baseline="auto" enable-background="accumulate" fill-rule="evenodd" image-rendering="auto" opacity=".99988" shape-rendering="auto" solid-color="#000000" stop-color="#000000" style="font-feature-settings:normal;font-variant-alternates:normal;font-variant-caps:normal;font-variant-east-asian:normal;font-variant-ligatures:normal;font-variant-numeric:normal;font-variant-position:normal;font-variation-settings:normal;inline-size:0;isolation:auto;mix-blend-mode:normal;shape-margin:0;shape-padding:0;text-decoration-color:#000000;text-decoration-line:none;text-decoration-style:solid;text-indent:0;text-orientation:mixed;text-transform:none;white-space:normal"/><path d="m28.135-12.587v-3.499c0-0.30338-0.01852-0.56217-0.06621-0.77634-0.09321-0.43426-0.23303-0.65143-0.41946-0.65143-0.18426 0-0.32408 0.21717-0.41946 0.65143-0.04553 0.21417-0.06828 0.47296-0.06828 0.77634v3.499l-0.39016-3e-3v-3.5697c0-0.7317 0.0823-1.2624 0.24704-1.7384 0.16475-0.46994 0.37507-0.70476 0.63086-0.70476 0.25579 0 0.46601 0.23482 0.63076 0.70476 0.16474 0.47592 0.24714 1.0067 0.24714 1.7384v3.5669z"/><path d="m34.305-15.829c0.01155-0.10701 0.01481-0.33234 0.01481-0.33234v-1.4625h-0.2359v1.5021s-0.0027 0.12005-0.01971 0.24751c-0.013 0.0973-0.03742 0.19894-0.05763 0.25475-0.02683 0.0741-0.058 0.14496-0.09382 0.19153-0.04136 0.0538-0.08834 0.0776-0.13231 0.0756-0.05022-3e-3 -0.10268-0.0459-0.14694-0.12181-0.02419-0.0415-0.04465-0.0968-0.0639-0.15052-0.02095-0.0585-0.04364-0.16283-0.05709-0.26107-0.01422-0.1039-0.01858-0.20021-0.01858-0.20021l-0.0012-1.5379h-0.23431v2.8413h0.23431v-0.1697s0.04644 0.0933 0.11026 0.15872c0.06412 0.0657 0.14573 0.1036 0.19945 0.0907 0.06298-0.0151 0.16235-0.0677 0.23418-0.16867 0.06334-0.089 0.12063-0.21942 0.16468-0.3728 0.04892-0.17034 0.08152-0.37683 0.10394-0.58479z" stroke-width=".12908"/><path d="m30.033-17.607v4.0211l0.31113-3e-3c0.22808-1e-3 0.3149-5e-3 0.32524-0.0106 0.0077-5e-3 0.02508-0.013 0.03849-0.0189 0.01338-6e-3 0.03419-0.0187 0.04619-0.0287 0.01202-0.01 0.0273-0.0226 0.03398-0.0278 0.04439-0.0351 0.12694-0.15372 0.16606-0.2386 0.02677-0.0582 0.08485-0.21186 0.09954-0.26358 0.08103-0.28524 0.11917-0.56135 0.14165-1.0255 0.02505-0.51733-0.0032-1.131-0.06934-1.5077-0.03054-0.17385-0.06464-0.30264-0.11722-0.44274-0.05156-0.13734-0.08691-0.20642-0.15075-0.29459-0.0306-0.0423-0.06555-0.0785-0.10392-0.1077-0.01341-0.0102-0.02612-0.0204-0.02823-0.0227-0.0021-3e-3 -0.0046-4e-3 -0.0054-3e-3 -8.84e-4 2e-4 -0.01472-7e-3 -0.03079-0.0146-0.02879-0.0151-0.28836-0.0156-0.28836-0.0156zm0.62867 0.73455c0.04263 0.0273 0.0513 0.0357 0.08211 0.0792 0.01763 0.0249 0.03958 0.0608 0.04875 0.0797 0.06647 0.13734 0.10996 0.33487 0.12675 0.57579 0.0021 0.0302 0.0055 0.0756 0.0077 0.10077 0.0165 0.19762 0.01781 0.58123 3e-3 0.82741-0.01623 0.26655-0.03439 0.40313-0.07216 0.54305-0.01968 0.073-0.04102 0.12988-0.07533 0.20101-0.01264 0.0262-0.05669 0.085-0.07955 0.10621-0.04851 0.045-0.04147 0.0436-0.23286 0.046l-0.17513 3e-3v-2.5786l0.17385 3e-3c0.1545 3e-3 0.17598 4e-3 0.19309 0.0148z"/><path d="m32.724-16.169c0-0.41026-0.051-0.75534-0.15299-1.0352-0.102-0.2799-0.22784-0.41985-0.37752-0.41985-0.14704 0-0.27221 0.14187-0.37553 0.4256-0.102 0.28373-0.15299 0.6269-0.15299 1.0295 0 0.40643 0.051 0.7496 0.15299 1.0295 0.10199 0.2799 0.22717 0.41985 0.37553 0.41985 0.14836 0 0.27353-0.13995 0.37553-0.41985 0.10332-0.27991 0.15498-0.62308 0.15498-1.0295zm-0.23944-0.0124c0 0.21856-0.03693 0.44953-0.09256 0.5914-0.05563 0.1457-0.13036 0.22028-0.20188 0.22028-0.07285 0-0.15053-0.0852-0.20484-0.23087-0.05431-0.14187-0.08424-0.34681-0.08424-0.56537 0-0.22239 0.03344-0.44021 0.08775-0.58209 0.05431-0.13802 0.13411-0.23001 0.20696-0.23001 0.07153 0 0.14191 0.081 0.19754 0.22286 0.05563 0.14569 0.09128 0.35908 0.09128 0.5738zm-0.46791 1.7061h-0.23457v0.6471h0.23457zm0.58731 0h-0.23615v0.6471h0.23615z"/><path d="m25.781-10.239h14.103v-0.51277h-14.103z" fill-rule="evenodd" opacity=".99988"/><path d="m34.885-14.682h0.23566l1.5e-4 -1.4711c2.3e-5 -0.18055 0.03861-0.41769 0.08481-0.5483 0.0476-0.13061 0.1298-0.2343 0.2068-0.2343 0.06719-4e-3 0.14766 0.0811 0.19805 0.20406 0.0518 0.12677 0.09465 0.34613 0.09605 0.55742v1.4922h0.23409l2e-6 -2.8178h-0.23409v0.0787c-0.07195-0.13277-0.18333-0.20405-0.30232-0.20405-0.15118 8e-3 -0.29251 0.22802-0.3807 0.50077-0.08679 0.27275-0.14051 0.66093-0.14016 0.98362zm0.23566 0.32265h-0.23566v0.6448h0.23566zm0.82002 0h-0.23409v0.6448h0.23409z"/><path d="m37.779-14.682h0.23566l1.5e-4 -1.4711c2.3e-5 -0.18055 0.03861-0.41769 0.08481-0.5483 0.0476-0.13061 0.12981-0.2343 0.2068-0.2343 0.06719-4e-3 0.14766 0.0811 0.19805 0.20406 0.05179 0.12677 0.09465 0.34613 0.09605 0.55742v1.4922h0.23409v-2.8178h-0.23409v0.0787c-0.07195-0.13277-0.18333-0.20405-0.30232-0.20405-0.15119 8e-3 -0.29251 0.22802-0.3807 0.50077-0.08679 0.27275-0.14051 0.66093-0.14016 0.98362zm0.23566 0.32265h-0.23566v0.6448h0.23566zm0.82002 0h-0.23409v0.6448h0.23409z"/><path d="m37.331-16.785c-9.11e-4 -0.15043-0.01232-0.28576-0.03641-0.40966-0.01645-0.0846-0.03716-0.16723-0.071-0.23262-0.01727-0.0326-0.0381-0.0476-0.05886-0.0641-0.02157-0.0171-0.04321-0.0353-0.06804-0.0493-0.01943-0.011-0.03972-0.0215-0.06066-0.031-0.0012-7.5e-4 -3.12e-4 -0.89941-3.12e-4 -0.89941h-0.23429s-9.25e-4 0.86583-0.0018 0.86599c-0.14969 0.0258-0.28446 0.11263-0.4133 0.29699l0.1052 0.58263c0.12888-0.18796 0.26148-0.22935 0.37672-0.23319 0.03115 0 0.07722 6e-3 0.11539 0.0207 0.03559 0.0137 0.10536 0.0626 0.10536 0.0626s0.0041 0.0338 0.0048 0.0515c6.12e-4 0.0175-3.12e-4 0.0392-7.61e-4 0.0528-6.12e-4 0.0162-0.0016 0.0341-0.0054 0.0466-0.0065 0.0211-0.01186 0.0468-0.02065 0.0604-0.01811 0.028-0.04087 0.0387-0.06151 0.0563-0.05197 0.0444-0.10458 0.083-0.15684 0.12477-0.03097 0.0247-0.06194 0.0494-0.09287 0.0744-0.01988 0.016-0.03978 0.0319-0.05961 0.0485-0.04206 0.0351-0.08576 0.0585-0.1259 0.10768-0.02833 0.0347-0.06242 0.0866-0.07992 0.13089-0.05762 0.15343-0.09207 0.30751-0.10044 0.49495-0.0097 0.21792 0.01677 0.48589 0.06271 0.63575 0.01723 0.0562 0.03155 0.0982 0.0519 0.13006 0.02417 0.0378 0.05289 0.0479 0.07984 0.0669 0.03857 0.0272 0.0775 0.052 0.11692 0.0675 0.05339 0.021 0.1129 0.0344 0.16133 0.0344 0.1486 0 0.28298-0.0806 0.40898-0.22957l-0.09056-0.59763c-0.08401 0.10793-0.22908 0.17661-0.34671 0.18078-0.06916 2e-3 -0.20477-0.0918-0.20477-0.0918s-0.0063-0.0386-0.0064-0.0592c-3.13e-4 -0.0375 0.0015-0.0805 0.0105-0.10885 0.02272-0.072 0.0631-0.0799 0.09581-0.11176 0.02672-0.026 0.05452-0.0428 0.08176-0.0644 0.04771-0.0378 0.09599-0.0785 0.14304-0.11413 0.08705-0.0658 0.21271-0.12484 0.28635-0.32332 0.05413-0.14589 0.08886-0.28937 0.09037-0.57323z"/><path d="m30.565 37.516v-8.021s-0.49976 0.0462-1.0073-0.37462c-0.4194-0.34775-0.83185-1.0973-1.0795-1.7168-0.21904-0.54798-0.4949-1.5714-0.63908-2.5544-0.16902-1.1523-0.18825-2.2358-0.18825-2.2358l-0.0078-8.5209s0.02342-0.63638 0.06347-0.93297c0.04044-0.2995 0.1752-0.82919 0.1752-0.82919l2.6833-12.8v-7.6165l2.7259 2e-4 0.0023 17.896-0.0023 13.296s0.01173 0.20644 0.04474 0.39951c0.02322 0.13578 0.06354 0.25773 0.08915 0.32797 0.02988 0.082 0.08574 0.1663 0.1361 0.21306 0.0489 0.0454 0.09275 0.0544 0.09275 0.0544l0.29371-0.0134s0.18551-0.15393 0.24359-0.34813c0.05659-0.18922 0.07494-0.70502 0.07494-0.70502v-9.1953s0.0022-0.33178 0.01957-0.48854c0.02382-0.21531 0.1136-0.59874 0.1136-0.59874l0.79838-3.7885s0.02106-0.15066 0.02853-0.22718c6e-3 -0.0612 0.01186-0.18591 0.01186-0.18591l0.0031-16.637 2.7261-2e-4v45.602h-2.732l0.0026-7.125s-0.04825-0.36897-0.09043-0.50706c-0.04711-0.1542-0.17738-0.36985-0.17738-0.36985l-1.3469-0.0286s-0.16929 0.1588-0.22129 0.31259c-0.05872 0.17364-0.11086 0.6693-0.11086 0.6693l0.0018 7.0486zm-6e-5 -13.491v-13.817l-0.84489 3.9904s-0.06607 0.35682-0.08636 0.56584c-0.02308 0.23786-0.04374 0.77481-0.04374 0.77481l0.0031 6.5342s0.11505 1.1054 0.22996 1.4393c0.11621 0.33776 0.4634 0.57587 0.4634 0.57587z" fill-rule="evenodd" opacity=".99988"/></g><path d="m31.83 36.981v-7.5294h0.19912v7.5294zm4.6762-3.2117v-2.1511h0.19911v2.1511zm4.62e-4 -6.4378v-2.1547h0.19868v2.1547zm-2.6311 0.26486-3.571-0.0119s-0.37039-0.0173-0.75342-0.46052c-0.2785-0.32225-0.56344-0.99056-0.7182-1.452-0.17658-0.52643-0.36941-1.5171-0.45562-2.3646-0.07321-0.71984-0.05347-1.3518-0.05347-1.3518v-4.295h-0.48953l0.78038-4.2962 0.78081 4.2962h-0.48692v4.295s-8e-3 0.43342 0.04348 0.93775c0.06256 0.61328 0.196 1.3471 0.32563 1.7288 0.12307 0.36235 0.32469 0.80642 0.54344 1.0416 0.25493 0.27401 0.52083 0.31019 0.52083 0.31019l3.5762 4e-3s0.0987-7e-3 0.19694-0.11573c0.1048-0.11655 0.21156-0.34119 0.27346-0.52137 0.0504-0.14674 0.10674-0.42783 0.13651-0.66812 0.02851-0.23013 0.0313-0.42234 0.0313-0.42234l0.0031-2.2943v-7.6404s-0.01253-0.42615 0.0035-0.63233c0.0124-0.15977 0.07043-0.45097 0.07043-0.45097l0.8169-3.8786s0.04285-0.19679 0.05782-0.30304c0.0126-0.0894 0.02652-0.27798 0.02652-0.27798v-5.9116h0.58169v5.8281s0.0065 0.46571-0.01173 0.69079c-8e-3 0.0986-0.04174 0.28037-0.04174 0.28037l-0.82212 3.9049s-0.05611 0.30887-0.07478 0.47245c-0.01028 0.0901-0.01999 0.27799-0.01999 0.27799v9.9346s-0.0088 0.42778-0.06826 0.92224c-0.0566 0.47067-0.1614 1.0017-0.25955 1.279-0.10449 0.29522-0.2754 0.69426-0.45953 0.88884-0.23781 0.25129-0.48301 0.2565-0.48301 0.2565zm2.6311-6.7086v-2.1594l0.19868 0.0107v2.1332zm-4.6766 1.347v-11.013h0.19912v11.013zm4.6766-7.7931v-2.1428h0.19868v2.1428zm-4.6766-6.4294-8.98e-4 -2.1439h0.20085l-8.98e-4 2.1439zm4.6766 0v-2.1439h0.19868v2.1439zm-4.6766-6.439v-2.1535h0.19912v2.1535zm4.6766 0v-2.1535h0.19868v2.1535zm-4.6766-6.439-0.0083-2.1535h0.21259l-0.0048 2.1535zm4.8753 0-0.19868-4e-3v-2.1499h0.19868z" fill="#000" fill-rule="evenodd" opacity=".99988"/></g><g transform="matrix(3.0132,0,0,2.584,321.21,556.61)"><g transform="scale(.54974 .65932)" stroke-width=".08802"></g></g></g></g></g></svg>