<?xml version="1.0" encoding="UTF-8" standalone="no"?>
<svg
   xmlns:dc="http://purl.org/dc/elements/1.1/"
   xmlns:cc="http://creativecommons.org/ns#"
   xmlns:rdf="http://www.w3.org/1999/02/22-rdf-syntax-ns#"
   xmlns:svg="http://www.w3.org/2000/svg"
   xmlns="http://www.w3.org/2000/svg"
   xmlns:sodipodi="http://sodipodi.sourceforge.net/DTD/sodipodi-0.dtd"
   xmlns:inkscape="http://www.inkscape.org/namespaces/inkscape"
   version="1.1"
   id="svg887"
   width="200"
   height="301.06854"
   viewBox="0 0 200 301.06855"
   sodipodi:docname="Turkey_road_sign_B-53b.svg"
   inkscape:version="1.0 (4035a4fb49, 2020-05-01)">
  <metadata
     id="metadata893">
    <rdf:RDF>
      <cc:Work
         rdf:about="">
        <dc:format>image/svg+xml</dc:format>
        <dc:type
           rdf:resource="http://purl.org/dc/dcmitype/StillImage" />
        <dc:title></dc:title>
      </cc:Work>
    </rdf:RDF>
  </metadata>
  <defs
     id="defs891">
    <clipPath
       id="clipPath425797"
       clipPathUnits="userSpaceOnUse">
      <path
         id="path425795"
         d="M 0,0 H 261.24 V 366.15 H 0 Z" />
    </clipPath>
    <clipPath
       id="clipPath36119"
       clipPathUnits="userSpaceOnUse">
      <path
         id="path36117"
         d="M 0,0 H 360 V 534.27 H 0 Z" />
    </clipPath>
    <clipPath
       id="clipPath36119-9"
       clipPathUnits="userSpaceOnUse">
      <path
         id="path36117-4"
         d="M 0,0 H 360 V 534.27 H 0 Z" />
    </clipPath>
    <clipPath
       clipPathUnits="userSpaceOnUse"
       id="clipPath36119-7">
      <path
         d="M 0,0 H 360 V 534.27 H 0 Z"
         id="path36117-7" />
    </clipPath>
    <clipPath
       clipPathUnits="userSpaceOnUse"
       id="clipPath36119-9-2">
      <path
         d="M 0,0 H 360 V 534.27 H 0 Z"
         id="path36117-4-6" />
    </clipPath>
    <clipPath
       clipPathUnits="userSpaceOnUse"
       id="clipPath855">
      <path
         d="m 302.81,35.279 h 18.15 v 13.8 h -18.15 z"
         clip-rule="evenodd"
         id="path853" />
    </clipPath>
    <clipPath
       clipPathUnits="userSpaceOnUse"
       id="clipPath863">
      <path
         d="m 302.81,35.28 h 18.144 v 13.8 H 302.81 Z"
         clip-rule="evenodd"
         id="path861" />
    </clipPath>
    <clipPath
       clipPathUnits="userSpaceOnUse"
       id="clipPath875">
      <path
         d="m 302.81,35.28 h 18.144 v 13.8 H 302.81 Z"
         clip-rule="evenodd"
         id="path873" />
    </clipPath>
    <clipPath
       clipPathUnits="userSpaceOnUse"
       id="clipPath1023">
      <path
         d="m 71.911,483.91 h 499.65 v 41.4 H 71.911 Z"
         clip-rule="evenodd"
         id="path1021" />
    </clipPath>
    <clipPath
       clipPathUnits="userSpaceOnUse"
       id="clipPath1031">
      <path
         d="m 79.704,483.91 h 210.98 v 41.4 H 79.704 Z"
         clip-rule="evenodd"
         id="path1029" />
    </clipPath>
    <clipPath
       clipPathUnits="userSpaceOnUse"
       id="clipPath1039">
      <path
         d="m 79.704,483.91 h 210.98 v 41.4 H 79.704 Z"
         clip-rule="evenodd"
         id="path1037" />
    </clipPath>
    <clipPath
       clipPathUnits="userSpaceOnUse"
       id="clipPath1051">
      <path
         d="m 79.704,483.91 h 210.98 v 41.4 H 79.704 Z"
         clip-rule="evenodd"
         id="path1049" />
    </clipPath>
    <clipPath
       clipPathUnits="userSpaceOnUse"
       id="clipPath1059">
      <path
         d="m 79.704,483.91 h 210.98 v 41.4 H 79.704 Z"
         clip-rule="evenodd"
         id="path1057" />
    </clipPath>
    <clipPath
       clipPathUnits="userSpaceOnUse"
       id="clipPath1071">
      <path
         d="m 79.704,483.91 h 210.98 v 41.4 H 79.704 Z"
         clip-rule="evenodd"
         id="path1069" />
    </clipPath>
    <clipPath
       clipPathUnits="userSpaceOnUse"
       id="clipPath1083">
      <path
         d="m 79.704,483.91 h 210.98 v 41.4 H 79.704 Z"
         clip-rule="evenodd"
         id="path1081" />
    </clipPath>
    <clipPath
       clipPathUnits="userSpaceOnUse"
       id="clipPath1095">
      <path
         d="m 79.704,483.91 h 210.98 v 41.4 H 79.704 Z"
         clip-rule="evenodd"
         id="path1093" />
    </clipPath>
    <clipPath
       clipPathUnits="userSpaceOnUse"
       id="clipPath1103">
      <path
         d="m 79.704,483.91 h 210.98 v 41.4 H 79.704 Z"
         clip-rule="evenodd"
         id="path1101" />
    </clipPath>
    <clipPath
       clipPathUnits="userSpaceOnUse"
       id="clipPath1115">
      <path
         d="m 79.704,483.91 h 210.98 v 41.4 H 79.704 Z"
         clip-rule="evenodd"
         id="path1113" />
    </clipPath>
    <clipPath
       clipPathUnits="userSpaceOnUse"
       id="clipPath1127">
      <path
         d="m 79.704,483.91 h 210.98 v 41.4 H 79.704 Z"
         clip-rule="evenodd"
         id="path1125" />
    </clipPath>
    <clipPath
       clipPathUnits="userSpaceOnUse"
       id="clipPath1135">
      <path
         d="m 79.704,483.91 h 210.98 v 41.4 H 79.704 Z"
         clip-rule="evenodd"
         id="path1133" />
    </clipPath>
    <clipPath
       clipPathUnits="userSpaceOnUse"
       id="clipPath1143">
      <path
         d="m 79.704,483.91 h 210.98 v 41.4 H 79.704 Z"
         clip-rule="evenodd"
         id="path1141" />
    </clipPath>
    <clipPath
       clipPathUnits="userSpaceOnUse"
       id="clipPath1151">
      <path
         d="m 79.704,483.91 h 210.98 v 41.4 H 79.704 Z"
         clip-rule="evenodd"
         id="path1149" />
    </clipPath>
    <clipPath
       clipPathUnits="userSpaceOnUse"
       id="clipPath1163">
      <path
         d="m 79.704,483.91 h 210.98 v 41.4 H 79.704 Z"
         clip-rule="evenodd"
         id="path1161" />
    </clipPath>
    <clipPath
       clipPathUnits="userSpaceOnUse"
       id="clipPath1175">
      <path
         d="m 79.704,483.91 h 210.98 v 41.4 H 79.704 Z"
         clip-rule="evenodd"
         id="path1173" />
    </clipPath>
    <clipPath
       clipPathUnits="userSpaceOnUse"
       id="clipPath1187">
      <path
         d="m 79.704,483.91 h 210.98 v 41.4 H 79.704 Z"
         clip-rule="evenodd"
         id="path1185" />
    </clipPath>
    <clipPath
       clipPathUnits="userSpaceOnUse"
       id="clipPath1195">
      <path
         d="m 290.69,483.91 h 273.07 v 41.4 H 290.69 Z"
         clip-rule="evenodd"
         id="path1193" />
    </clipPath>
    <clipPath
       clipPathUnits="userSpaceOnUse"
       id="clipPath1203">
      <path
         d="m 290.69,483.91 h 273.07 v 41.4 H 290.69 Z"
         clip-rule="evenodd"
         id="path1201" />
    </clipPath>
    <clipPath
       clipPathUnits="userSpaceOnUse"
       id="clipPath1211">
      <path
         d="m 290.69,483.91 h 273.07 v 41.4 H 290.69 Z"
         clip-rule="evenodd"
         id="path1209" />
    </clipPath>
    <clipPath
       clipPathUnits="userSpaceOnUse"
       id="clipPath1223">
      <path
         d="m 290.69,483.91 h 273.07 v 41.4 H 290.69 Z"
         clip-rule="evenodd"
         id="path1221" />
    </clipPath>
    <clipPath
       clipPathUnits="userSpaceOnUse"
       id="clipPath1235">
      <path
         d="m 290.69,483.91 h 273.07 v 41.4 H 290.69 Z"
         clip-rule="evenodd"
         id="path1233" />
    </clipPath>
    <clipPath
       clipPathUnits="userSpaceOnUse"
       id="clipPath1247">
      <path
         d="m 290.69,483.91 h 273.07 v 41.4 H 290.69 Z"
         clip-rule="evenodd"
         id="path1245" />
    </clipPath>
    <clipPath
       clipPathUnits="userSpaceOnUse"
       id="clipPath1255">
      <path
         d="m 290.69,483.91 h 273.07 v 41.4 H 290.69 Z"
         clip-rule="evenodd"
         id="path1253" />
    </clipPath>
    <clipPath
       clipPathUnits="userSpaceOnUse"
       id="clipPath1263">
      <path
         d="m 290.69,483.91 h 273.07 v 41.4 H 290.69 Z"
         clip-rule="evenodd"
         id="path1261" />
    </clipPath>
    <clipPath
       clipPathUnits="userSpaceOnUse"
       id="clipPath1271">
      <path
         d="m 290.69,483.91 h 273.07 v 41.4 H 290.69 Z"
         clip-rule="evenodd"
         id="path1269" />
    </clipPath>
    <clipPath
       clipPathUnits="userSpaceOnUse"
       id="clipPath1283">
      <path
         d="m 290.69,483.91 h 273.07 v 41.4 H 290.69 Z"
         clip-rule="evenodd"
         id="path1281" />
    </clipPath>
    <clipPath
       clipPathUnits="userSpaceOnUse"
       id="clipPath1295">
      <path
         d="m 290.69,483.91 h 273.07 v 41.4 H 290.69 Z"
         clip-rule="evenodd"
         id="path1293" />
    </clipPath>
    <clipPath
       clipPathUnits="userSpaceOnUse"
       id="clipPath1307">
      <path
         d="m 290.69,483.91 h 273.07 v 41.4 H 290.69 Z"
         clip-rule="evenodd"
         id="path1305" />
    </clipPath>
    <clipPath
       clipPathUnits="userSpaceOnUse"
       id="clipPath1315">
      <path
         d="m 290.69,483.91 h 273.07 v 41.4 H 290.69 Z"
         clip-rule="evenodd"
         id="path1313" />
    </clipPath>
    <clipPath
       clipPathUnits="userSpaceOnUse"
       id="clipPath1323">
      <path
         d="m 290.69,483.91 h 273.07 v 41.4 H 290.69 Z"
         clip-rule="evenodd"
         id="path1321" />
    </clipPath>
    <clipPath
       clipPathUnits="userSpaceOnUse"
       id="clipPath1331">
      <path
         d="m 290.69,483.91 h 273.07 v 41.4 H 290.69 Z"
         clip-rule="evenodd"
         id="path1329" />
    </clipPath>
    <clipPath
       clipPathUnits="userSpaceOnUse"
       id="clipPath1343">
      <path
         d="m 290.69,483.91 h 273.07 v 41.4 H 290.69 Z"
         clip-rule="evenodd"
         id="path1341" />
    </clipPath>
    <clipPath
       clipPathUnits="userSpaceOnUse"
       id="clipPath1353">
      <path
         d="M 0,0 H 470.4 V 170.78 H 0 Z"
         id="path1351" />
    </clipPath>
    <clipPath
       clipPathUnits="userSpaceOnUse"
       id="clipPath88909">
      <path
         d="M 0,0 H 130.97 V 109.2 H 0 Z"
         id="path88907" />
    </clipPath>
    <clipPath
       clipPathUnits="userSpaceOnUse"
       id="clipPath99589">
      <path
         d="M 0,0 H 148.5 V 113.02 H 0 Z"
         id="path99587" />
    </clipPath>
    <clipPath
       id="clipPath1353-2"
       clipPathUnits="userSpaceOnUse">
      <path
         id="path1351-4"
         d="M 0,0 H 470.4 V 170.78 H 0 Z" />
    </clipPath>
    <clipPath
       id="clipPath88909-1"
       clipPathUnits="userSpaceOnUse">
      <path
         id="path88907-9"
         d="M 0,0 H 130.97 V 109.2 H 0 Z" />
    </clipPath>
  </defs>
  <sodipodi:namedview
     inkscape:document-rotation="0"
     pagecolor="#ffffff"
     bordercolor="#666666"
     borderopacity="1"
     objecttolerance="10"
     gridtolerance="10"
     guidetolerance="10"
     inkscape:pageopacity="0"
     inkscape:pageshadow="2"
     inkscape:window-width="1920"
     inkscape:window-height="1001"
     id="namedview889"
     showgrid="false"
     inkscape:zoom="0.34767195"
     inkscape:cx="-919.18496"
     inkscape:cy="212.30051"
     inkscape:window-x="-9"
     inkscape:window-y="-9"
     inkscape:window-maximized="1"
     inkscape:current-layer="g895" />
  <g
     inkscape:groupmode="layer"
     inkscape:label="Image"
     id="g895"
     transform="translate(-742.38137,353.16002)">
    <g
       transform="matrix(2.1822115,0,0,2.1822115,510.65876,-1516.3579)"
       style="font-size:30px;line-height:1.15;font-family:'ALS Direct';-inkscape-font-specification:'ALS Direct';fill:#ffffff;fill-opacity:1;stroke-width:0.458251"
       id="text108131"
       aria-label="1">
      <path
         sodipodi:nodetypes="ccccaccsssccc"
         id="path108133"
         style="font-style:normal;font-variant:normal;font-weight:normal;font-stretch:normal;font-family:'Highway Gothic Wide';-inkscape-font-specification:'Highway Gothic Wide';fill:#ffffff;fill-opacity:1;stroke-width:0.458251"
         d="m 119.29915,669.70527 -3.60942,10e-6 -0.006,-13.17428 -0.1828,-0.0951 c 0,0 -1.2327,0.68775 -1.90431,0.88494 -0.7528,0.22103 -2.33196,0.31948 -2.33196,0.31948 l 0.004,-3.6052 c 0,0 0.74079,-0.0541 1.48683,-0.31341 0.62301,-0.21656 1.23112,-0.60409 1.59012,-0.95939 0.41341,-0.40915 0.87672,-1.14956 1.11167,-1.84635 0.22707,-0.67342 0.23274,-1.31066 0.23274,-1.31066 l 3.60942,-10e-6 z" />
    </g>
    <g
       transform="matrix(0.9833059,0,0,-0.98213516,616.9265,-10.270614)"
       style="fill:#ffffff;fill-opacity:1;stroke-width:0.144072"
       clip-path="url(#clipPath36119-7)"
       id="g36115">
      <g
         aria-label="5"
         id="text108138"
         style="font-size:30px;line-height:1.15;font-family:'ALS Direct';-inkscape-font-specification:'ALS Direct';fill:#ffffff;fill-opacity:1;stroke-width:0.466626"
         transform="matrix(2.1794307,0,0,-2.1820286,-421.27087,1505.9663)">
        <path
           d="m 294.15474,667.46347 c -0.61562,0.48821 -1.33001,0.84171 -2.0686,1.13003 -0.65842,0.25703 -1.29241,0.48418 -2.09457,0.5918 -0.7313,0.0981 -1.6915,0.17179 -2.53104,0.0838 -1.57807,-0.16551 -3.14739,-0.55368 -4.62139,-1.14106 -0.9204,-0.36676 -2.58485,-1.46744 -2.58485,-1.46744 l 2.15222,-2.97912 c 0,0 0.83719,0.641 2.09436,1.15539 0.95571,0.39105 2.25225,0.67622 3.03714,0.74134 1.30794,0.10853 2.96756,-0.0377 3.86756,-0.73772 0.29944,-0.23955 0.60927,-0.3563 0.83034,-0.62841 0.44339,-0.54576 0.66356,-1.29824 0.66356,-1.99222 0.0269,-0.73849 -0.3745,-1.44707 -0.85623,-1.92151 -0.23583,-0.23226 -0.46629,-0.36147 -0.72523,-0.49987 -0.38135,-0.20384 -0.77229,-0.36325 -1.20552,-0.47909 -0.63286,-0.16921 -1.301,-0.28071 -1.91969,-0.23882 -0.61402,0.0416 -1.5162,0.1072 -2.28882,0.30765 -0.95333,0.24734 -1.72677,0.63342 -1.72677,0.63342 l -3.08679,-2.47741 0.80093,-8.68437 13.05705,0.0157 v 3.67652 l -9.71124,-0.018 -0.29623,3.31636 c 0,0 0.53824,-0.14692 1.2299,-0.25761 0.75303,-0.12051 1.6879,-0.20629 2.30801,-0.22383 0.44654,-0.0126 0.85341,0.0289 1.33599,0.10535 0.88837,0.14068 1.87541,0.42405 2.6739,0.78692 0.4384,0.19923 0.86658,0.41303 1.25054,0.69621 0.59334,0.4376 1.13551,0.95484 1.59869,1.52843 0.19535,0.24191 0.34261,0.49941 0.48816,0.79487 0.52409,1.06387 0.87199,2.39799 0.74891,3.57686 -0.0588,0.56348 -0.15906,1.17092 -0.3633,1.72483 -0.18239,0.49466 -0.45643,0.93951 -0.71931,1.38575 -0.33946,0.57621 -0.81368,1.07975 -1.33768,1.4953 z"
           style="font-style:normal;font-variant:normal;font-weight:normal;font-stretch:normal;font-family:'Highway Gothic Wide';-inkscape-font-specification:'Highway Gothic Wide';fill:#ffffff;fill-opacity:1;stroke-width:0.466626"
           id="path108140"
           sodipodi:nodetypes="assaaccsscscsassscccccccssssaassssa" />
      </g>
      <g
         aria-label="6"
         id="text108145"
         style="font-size:30px;line-height:1.15;font-family:'ALS Direct';-inkscape-font-specification:'ALS Direct';fill:#ffffff;fill-opacity:1;stroke-width:0.471956"
         transform="matrix(2.1548143,0,0,-2.1573829,-522.50003,1551.6432)">
        <path
           d="m 371.30575,695.75376 c -0.75571,0.71415 -1.7741,1.1734 -2.79089,1.55291 -1.29452,0.48315 -2.63089,0.78764 -3.9022,0.78764 -2.41048,0 -4.42449,-0.64858 -6.08648,-1.9978 -0.52648,-0.4274 -1.13504,-1.00852 -1.52026,-1.64935 -0.42251,-0.70287 -0.81532,-2.32124 -0.81532,-2.32124 l -0.004,-5.74326 c 0,0 0.21761,-1.68058 0.98837,-3.4123 0.54728,-1.22963 1.53513,-2.4739 2.19798,-3.21051 1.37303,-1.52586 3.68337,-2.48622 5.64564,-2.45923 0.82484,0.0113 2.24245,0.27261 3.21453,0.78758 1.49595,0.7925 2.43722,1.95736 2.43722,1.95736 l -2.87838,2.35723 c 0,0 -0.44387,-0.60239 -1.24273,-0.97405 -0.84633,-0.39375 -2.07601,-0.54605 -3.04376,-0.0929 -0.58457,0.27373 -1.64251,1.14895 -2.2714,2.06559 -0.82205,1.19818 -1.15006,2.45914 -1.15006,2.45914 0,0 0.74444,-0.35772 1.68551,-0.6417 0.8639,-0.26071 1.7217,-0.35403 2.59588,-0.38304 0.53042,-0.0176 0.90262,0.007 1.58704,0.12753 1.71511,0.30244 3.91365,0.98979 5.20118,2.10363 1.1582,1.00195 1.99491,2.58221 2.04775,4.11275 0.0569,1.64949 -0.69639,3.44043 -1.89597,4.57402 z m -2.26695,-4.17712 c 0.006,-0.19244 -0.004,-0.46837 -0.0726,-0.68863 -0.0806,-0.25756 -0.25668,-0.52676 -0.38954,-0.70981 -0.18667,-0.25722 -0.49374,-0.48271 -0.81214,-0.67374 -0.15686,-0.0941 -0.30744,-0.18439 -0.4654,-0.25714 -0.86863,-0.39999 -1.5256,-0.6635 -2.7911,-0.6635 -0.88946,0 -1.78271,0.19555 -2.60703,0.52083 -0.10547,0.0416 -0.2068,0.096 -0.30598,0.15543 -0.11757,0.0704 -0.23208,0.14792 -0.34682,0.21953 -0.16906,0.10551 -0.34505,0.18103 -0.48438,0.32934 -0.13629,0.20678 -0.4126,0.37488 -0.53664,0.61782 -0.19365,0.37928 -0.33967,0.81078 -0.28996,1.24422 0.0476,0.41486 0.27585,0.83568 0.54303,1.17417 0.22215,0.28145 0.57486,0.47994 0.84477,0.66593 0.8035,0.52228 1.838,0.78341 3.1035,0.78341 1.26551,0 2.28996,-0.231 3.07337,-0.69301 0.78341,-0.4821 1.51172,-1.28205 1.5369,-2.02485 z"
           style="font-style:normal;font-variant:normal;font-weight:normal;font-stretch:normal;font-family:'Highway Gothic Wide';-inkscape-font-specification:'Highway Gothic Wide';fill:#ffffff;fill-opacity:1;stroke-width:0.471956"
           id="path108147"
           sodipodi:nodetypes="csssaccssssccssscsassascsassscssscasacscss" />
      </g>
      <g
         style="fill:#ffffff;fill-opacity:1;stroke-width:0.08802"
         id="g841"
         inkscape:label="TrafikIsaretleriElKitabi2015"
         transform="matrix(3.8734203,0,0,3.8780376,-822.12479,-884.8383)">
        <g
           style="stroke-width:0.08802"
           id="g1345"
           transform="matrix(3.3694,0,0,1.2278,160.91,266.86)">
          <path
             sodipodi:nodetypes="sssssssss"
             id="rect114402-3"
             style="opacity:0.999883;fill:#00408c;fill-opacity:1;fill-rule:evenodd;stroke:none;stroke-width:0.213249;stroke-linecap:square"
             d="m 26.568833,41.809005 h 12.471395 c 0.862344,0 1.556574,-1.90516 1.556574,-4.27165 v -55.83723 c 0,-2.366485 -0.69423,-4.271639 -1.556574,-4.271639 H 26.568833 c -0.862344,0 -1.556577,1.905154 -1.556577,4.271639 v 55.83723 c 0,2.36649 0.694233,4.27165 1.556577,4.27165 z" />
          <path
             sodipodi:nodetypes="ssssssssssssssssss"
             style="color:#000000;font-style:normal;font-variant:normal;font-weight:normal;font-stretch:normal;font-size:medium;line-height:normal;font-family:sans-serif;font-variant-ligatures:normal;font-variant-position:normal;font-variant-caps:normal;font-variant-numeric:normal;font-variant-alternates:normal;font-variant-east-asian:normal;font-feature-settings:normal;font-variation-settings:normal;text-indent:0;text-align:start;text-decoration:none;text-decoration-line:none;text-decoration-style:solid;text-decoration-color:#000000;letter-spacing:normal;word-spacing:normal;text-transform:none;writing-mode:lr-tb;direction:ltr;text-orientation:mixed;dominant-baseline:auto;baseline-shift:baseline;text-anchor:start;white-space:normal;shape-padding:0;shape-margin:0;inline-size:0;clip-rule:nonzero;display:inline;overflow:visible;visibility:visible;opacity:0.999883;isolation:auto;mix-blend-mode:normal;color-interpolation:sRGB;color-interpolation-filters:linearRGB;solid-color:#000000;solid-opacity:1;vector-effect:none;fill:#ffffff;fill-opacity:1;fill-rule:evenodd;stroke:none;stroke-width:0.226161;stroke-linecap:square;stroke-linejoin:miter;stroke-miterlimit:4;stroke-dasharray:none;stroke-dashoffset:0;stroke-opacity:1;color-rendering:auto;image-rendering:auto;shape-rendering:auto;text-rendering:auto;enable-background:accumulate;stop-color:#000000;stop-opacity:1"
             d="m 26.583191,40.734105 c -0.652006,0 -1.183098,-1.45745 -1.183098,-3.24673 v -55.76698 c 0,-1.78927 0.531092,-3.246723 1.183098,-3.246723 h 12.439621 c 0.652007,0 1.183098,1.457453 1.183098,3.246723 v 55.76698 c 0,1.78928 -0.531091,3.24673 -1.183098,3.24673 z m 0,-1.07058 h 12.439621 c 0.442699,0 0.793563,-0.96127 0.793563,-2.17615 v -55.76698 c 0,-1.214885 -0.350864,-2.17615 -0.793563,-2.17615 H 26.583191 c -0.442699,0 -0.792984,0.961265 -0.792984,2.17615 v 55.76698 c 0,1.21488 0.350285,2.17615 0.792984,2.17615 z"
             id="path114410-8" />
          <path
             id="path50019-4-7"
             style="font-style:normal;font-variant:normal;font-weight:normal;font-stretch:normal;font-size:19.8301px;line-height:1.15;font-family:'Highway Gothic Wide';-inkscape-font-specification:'Highway Gothic Wide';display:inline;fill:#ffffff;fill-opacity:1;stroke:none;stroke-width:0.147898;stroke-opacity:1"
             d="m 28.134975,-12.587335 v -3.49899 c 0,-0.30338 -0.01852,-0.56217 -0.06621,-0.77634 -0.09321,-0.43426 -0.233032,-0.65143 -0.41946,-0.65143 -0.184259,0 -0.324081,0.21717 -0.419463,0.65143 -0.04553,0.21417 -0.06828,0.47296 -0.06828,0.77634 v 3.49899 l -0.390161,-0.003 v -3.56973 c 0,-0.7317 0.0823,-1.26245 0.247044,-1.73837 0.164747,-0.46994 0.375066,-0.70476 0.63086,-0.70476 0.255793,0 0.466006,0.23482 0.630756,0.70476 0.164745,0.47592 0.247145,1.00667 0.247142,1.73837 v 3.56688 z"
             sodipodi:nodetypes="cscscsccscscccc" />
          <path
             d="m 34.304975,-15.828965 c 0.01155,-0.10701 0.01481,-0.33234 0.01481,-0.33234 v -1.46248 h -0.235897 v 1.50214 c 0,0 -0.0027,0.12005 -0.01971,0.24751 -0.013,0.0973 -0.03742,0.19894 -0.05763,0.25475 -0.02683,0.0741 -0.058,0.14496 -0.09382,0.19153 -0.04136,0.0538 -0.08834,0.0776 -0.132312,0.0756 -0.05022,-0.003 -0.102682,-0.0459 -0.146943,-0.12181 -0.02419,-0.0415 -0.04465,-0.0968 -0.0639,-0.15052 -0.02095,-0.0585 -0.04364,-0.16283 -0.05709,-0.26107 -0.01422,-0.1039 -0.01858,-0.20021 -0.01858,-0.20021 l -0.0012,-1.53791 h -0.234312 v 2.84133 h 0.234312 v -0.1697 c 0,0 0.04644,0.0933 0.110263,0.15872 0.06412,0.0657 0.145733,0.1036 0.199448,0.0907 0.06298,-0.0151 0.162347,-0.0677 0.234181,-0.16867 0.06334,-0.089 0.12063,-0.21942 0.164677,-0.3728 0.04892,-0.17034 0.08152,-0.37683 0.103941,-0.58479 z"
             style="font-style:normal;font-variant:normal;font-weight:normal;font-stretch:normal;font-size:30px;line-height:1.15;font-family:'Highway Gothic Wide';-inkscape-font-specification:'Highway Gothic Wide';display:inline;fill:#ffffff;fill-opacity:1;stroke-width:0.129085"
             id="path72412-8"
             sodipodi:nodetypes="accccsssssssccccccssaaaa" />
          <path
             id="path37133-5-1"
             d="m 30.033461,-17.606645 v 4.02106 l 0.311127,-0.003 c 0.228079,-10e-4 0.314895,-0.005 0.325242,-0.0106 0.0077,-0.005 0.02508,-0.013 0.03849,-0.0189 0.01338,-0.006 0.03419,-0.0187 0.04619,-0.0287 0.01202,-0.01 0.0273,-0.0226 0.03398,-0.0278 0.04439,-0.0351 0.126936,-0.15372 0.166056,-0.2386 0.02677,-0.0582 0.08485,-0.21186 0.09954,-0.26358 0.08103,-0.28524 0.119173,-0.56135 0.141648,-1.02546 0.02505,-0.51733 -0.0032,-1.13096 -0.06934,-1.50773 -0.03054,-0.17385 -0.06464,-0.30264 -0.117223,-0.44274 -0.05156,-0.13734 -0.08691,-0.20642 -0.150751,-0.29459 -0.0306,-0.0423 -0.06555,-0.0785 -0.10392,-0.1077 -0.01341,-0.0102 -0.02612,-0.0204 -0.02823,-0.0227 -0.0021,-0.003 -0.0046,-0.004 -0.0054,-0.003 -8.84e-4,2e-4 -0.01472,-0.007 -0.03079,-0.0146 -0.02879,-0.0151 -0.288364,-0.0156 -0.288364,-0.0156 z m 0.62867,0.73455 c 0.04263,0.0273 0.0513,0.0357 0.08211,0.0792 0.01763,0.0249 0.03958,0.0608 0.04875,0.0797 0.06647,0.13734 0.109955,0.33487 0.126746,0.57579 0.0021,0.0302 0.0055,0.0756 0.0077,0.10077 0.0165,0.19762 0.01781,0.58123 0.003,0.82741 -0.01623,0.26655 -0.03439,0.40313 -0.07216,0.54305 -0.01968,0.073 -0.04102,0.12988 -0.07533,0.20101 -0.01264,0.0262 -0.05669,0.085 -0.07955,0.10621 -0.04851,0.045 -0.04147,0.0436 -0.232863,0.046 l -0.175132,0.003 v -2.57864 l 0.17385,0.003 c 0.154502,0.003 0.175984,0.004 0.193091,0.0148 z"
             style="display:inline;fill:#ffffff;fill-opacity:1;stroke:none;stroke-width:0.00924521;stroke-opacity:1"
             sodipodi:nodetypes="cccscssscsssssccccccssccsssssccccc" />
          <path
             sodipodi:nodetypes="ssscssscsccscscscsccccccccccc"
             id="path60189-3-0"
             d="m 32.723911,-16.169275 c 0,-0.41026 -0.051,-0.75534 -0.152992,-1.03525 -0.101998,-0.2799 -0.227836,-0.41985 -0.377515,-0.41985 -0.147035,0 -0.272209,0.14187 -0.37553,0.4256 -0.101997,0.28373 -0.152994,0.6269 -0.152994,1.0295 0,0.40643 0.051,0.7496 0.152994,1.02951 0.101994,0.2799 0.227171,0.41985 0.37553,0.41985 0.148356,0 0.273532,-0.13995 0.375527,-0.41985 0.10332,-0.27991 0.15498,-0.62308 0.15498,-1.02951 z m -0.239435,-0.0124 c 0,0.21856 -0.03693,0.44953 -0.09256,0.5914 -0.05563,0.1457 -0.130355,0.22028 -0.201885,0.22028 -0.07285,0 -0.150534,-0.0852 -0.204843,-0.23087 -0.05431,-0.14187 -0.08424,-0.34681 -0.08424,-0.56537 0,-0.22239 0.03344,-0.44021 0.08775,-0.58209 0.05431,-0.13802 0.134109,-0.23001 0.206965,-0.23001 0.07153,0 0.141907,0.081 0.19754,0.22286 0.05563,0.14569 0.09128,0.35908 0.09128,0.5738 z m -0.467914,1.70613 h -0.234573 v 0.6471 h 0.234573 z m 0.587313,0 h -0.236153 v 0.6471 h 0.236153 z"
             style="font-style:normal;font-variant:normal;font-weight:normal;font-stretch:normal;font-size:12px;font-family:'Highway Gothic Expanded';-inkscape-font-specification:'Highway Gothic Expanded, ';writing-mode:lr-tb;display:inline;fill:#ffffff;fill-opacity:1;fill-rule:nonzero;stroke:none;stroke-width:0.172113" />
          <path
             sodipodi:nodetypes="ccccc"
             d="m 25.781173,-10.239415 h 14.103233 v -0.51277 H 25.781173 Z"
             style="opacity:0.999883;fill:#ffffff;fill-opacity:1;fill-rule:evenodd;stroke:none;stroke-width:0.226159;stroke-linecap:square;stroke-miterlimit:4;stroke-dasharray:none;stroke-opacity:0.771429"
             id="rect114412" />
          <path
             sodipodi:nodetypes="ccscccccccccccsccccccccccc"
             style="font-style:normal;font-variant:normal;font-weight:normal;font-stretch:normal;font-size:12px;font-family:'Highway Gothic Expanded';-inkscape-font-specification:'Highway Gothic Expanded, ';writing-mode:lr-tb;fill:#ffffff;fill-opacity:1;fill-rule:nonzero;stroke:none;stroke-width:0.172112;stroke-opacity:1"
             d="m 34.884917,-14.682165 h 0.235665 l 1.5e-4,-1.4711 c 2.3e-5,-0.18055 0.03861,-0.41769 0.08481,-0.5483 0.0476,-0.13061 0.129805,-0.2343 0.206798,-0.2343 0.06719,-0.004 0.147655,0.0811 0.198048,0.20406 0.0518,0.12677 0.09465,0.34613 0.09605,0.55742 v 1.49222 h 0.234091 l 2e-6,-2.81785 h -0.234092 v 0.0787 c -0.07195,-0.13277 -0.183333,-0.20405 -0.302323,-0.20405 -0.151185,0.008 -0.292512,0.22802 -0.380703,0.50077 -0.08679,0.27275 -0.140509,0.66093 -0.140156,0.98362 z m 0.235665,0.32265 h -0.235665 v 0.6448 h 0.235665 z m 0.820019,0 h -0.234092 v 0.6448 h 0.234092 z"
             id="path60257-8" />
          <path
             id="path114429"
             d="m 37.778692,-14.682165 h 0.235665 l 1.5e-4,-1.4711 c 2.3e-5,-0.18055 0.03861,-0.41769 0.08481,-0.5483 0.0476,-0.13061 0.129806,-0.2343 0.206798,-0.2343 0.06719,-0.004 0.147655,0.0811 0.198049,0.20406 0.05179,0.12677 0.09465,0.34613 0.09605,0.55742 v 1.49222 h 0.234092 v -2.81785 h -0.234092 v 0.0787 c -0.07195,-0.13277 -0.183334,-0.20405 -0.302323,-0.20405 -0.151186,0.008 -0.292513,0.22802 -0.380704,0.50077 -0.08679,0.27275 -0.140508,0.66093 -0.140156,0.98362 z m 0.235665,0.32265 h -0.235665 v 0.6448 h 0.235665 z m 0.820019,0 h -0.234092 v 0.6448 h 0.234092 z"
             style="font-style:normal;font-variant:normal;font-weight:normal;font-stretch:normal;font-size:12px;font-family:'Highway Gothic Expanded';-inkscape-font-specification:'Highway Gothic Expanded, ';writing-mode:lr-tb;fill:#ffffff;fill-opacity:1;fill-rule:nonzero;stroke:none;stroke-width:0.172112;stroke-opacity:1"
             sodipodi:nodetypes="ccscccccccccccsccccccccccc" />
          <path
             d="m 37.331132,-16.785025 c -9.11e-4,-0.15043 -0.01232,-0.28576 -0.03641,-0.40966 -0.01645,-0.0846 -0.03716,-0.16723 -0.071,-0.23262 -0.01727,-0.0326 -0.0381,-0.0476 -0.05886,-0.0641 -0.02157,-0.0171 -0.04321,-0.0353 -0.06804,-0.0493 -0.01943,-0.011 -0.03972,-0.0215 -0.06066,-0.031 -0.0012,-7.5e-4 -3.12e-4,-0.89941 -3.12e-4,-0.89941 h -0.234292 c 0,0 -9.25e-4,0.86583 -0.0018,0.86599 -0.149687,0.0258 -0.284464,0.11263 -0.413296,0.29699 l 0.105198,0.58263 c 0.128881,-0.18796 0.26148,-0.22935 0.376716,-0.23319 0.03115,0 0.07722,0.006 0.115393,0.0207 0.03559,0.0137 0.10536,0.0626 0.10536,0.0626 0,0 0.0041,0.0338 0.0048,0.0515 6.12e-4,0.0175 -3.12e-4,0.0392 -7.61e-4,0.0528 -6.12e-4,0.0162 -0.0016,0.0341 -0.0054,0.0466 -0.0065,0.0211 -0.01186,0.0468 -0.02065,0.0604 -0.01811,0.028 -0.04087,0.0387 -0.06151,0.0563 -0.05197,0.0444 -0.104577,0.083 -0.156842,0.12477 -0.03097,0.0247 -0.06194,0.0494 -0.09287,0.0744 -0.01988,0.016 -0.03978,0.0319 -0.05961,0.0485 -0.04206,0.0351 -0.08576,0.0585 -0.125899,0.10768 -0.02833,0.0347 -0.06242,0.0866 -0.07992,0.13089 -0.05762,0.15343 -0.09207,0.30751 -0.100438,0.49495 -0.0097,0.21792 0.01677,0.48589 0.06271,0.63575 0.01723,0.0562 0.03155,0.0982 0.0519,0.13006 0.02417,0.0378 0.05289,0.0479 0.07984,0.0669 0.03857,0.0272 0.0775,0.052 0.116924,0.0675 0.05339,0.021 0.1129,0.0344 0.161329,0.0344 0.148595,0 0.28298,-0.0806 0.408983,-0.22957 l -0.09056,-0.59763 c -0.08401,0.10793 -0.229082,0.17661 -0.346709,0.18078 -0.06916,0.002 -0.204774,-0.0918 -0.204774,-0.0918 0,0 -0.0063,-0.0386 -0.0064,-0.0592 -3.13e-4,-0.0375 0.0015,-0.0805 0.0105,-0.10885 0.02272,-0.072 0.0631,-0.0799 0.09581,-0.11176 0.02672,-0.026 0.05452,-0.0428 0.08176,-0.0644 0.04771,-0.0378 0.09599,-0.0785 0.143043,-0.11413 0.08705,-0.0658 0.212714,-0.12484 0.286351,-0.32332 0.05413,-0.14589 0.08886,-0.28937 0.09037,-0.57323 z"
             style="font-style:normal;font-variant:normal;font-weight:normal;font-stretch:normal;font-size:19.6811px;line-height:1.15;font-family:'Highway Gothic Wide';-inkscape-font-specification:'Highway Gothic Wide';fill:#ffffff;fill-opacity:1;stroke:none;stroke-width:0.0635134;stroke-opacity:1"
             id="path24250"
             sodipodi:nodetypes="cscsssccscccacasssaaaaacasaaasccacaaaasacc" />
          <path
             id="rect122599-5"
             style="opacity:0.999883;fill:#ffffff;fill-opacity:1;fill-rule:evenodd;stroke:none;stroke-width:0.097589;stroke-linecap:round;stroke-miterlimit:10;stroke-opacity:1"
             d="m 30.564641,37.516345 v -8.02097 c 0,0 -0.499758,0.0462 -1.007313,-0.37462 -0.419403,-0.34775 -0.831852,-1.09729 -1.079483,-1.71682 -0.219036,-0.54798 -0.494905,-1.57143 -0.639082,-2.55435 -0.169025,-1.15233 -0.188246,-2.23579 -0.188246,-2.23579 l -0.0078,-8.52087 c 0,0 0.02342,-0.63638 0.06347,-0.93297 0.04044,-0.2995 0.175205,-0.82919 0.175205,-0.82919 L 30.564663,-0.46960514 V -8.0861351 l 2.725948,2e-4 0.0023,17.89614 -0.0023,13.2964601 c 0,0 0.01173,0.20644 0.04474,0.39951 0.02322,0.13578 0.06354,0.25773 0.08915,0.32797 0.02988,0.082 0.08574,0.1663 0.136104,0.21306 0.0489,0.0454 0.09275,0.0544 0.09275,0.0544 l 0.293714,-0.0134 c 0,0 0.185512,-0.15393 0.24359,-0.34813 0.05659,-0.18922 0.07494,-0.70502 0.07494,-0.70502 v -9.1953 c 0,0 0.0022,-0.33178 0.01957,-0.48854 0.02382,-0.21531 0.113605,-0.59874 0.113605,-0.59874 l 0.79838,-3.7884801 c 0,0 0.02106,-0.15066 0.02853,-0.22718 0.006,-0.0612 0.01186,-0.18591 0.01186,-0.18591 l 0.0031,-16.63678 2.726104,-2e-4 V 37.516405 h -2.731962 l 0.0026,-7.12497 c 0,0 -0.04825,-0.36897 -0.09043,-0.50706 -0.04711,-0.1542 -0.177378,-0.36985 -0.177378,-0.36985 l -1.346851,-0.0286 c 0,0 -0.169289,0.1588 -0.221287,0.31259 -0.05872,0.17364 -0.110862,0.6693 -0.110862,0.6693 l 0.0018,7.04862 z m -6e-5,-13.49061 v -13.81719 l -0.844891,3.99035 c 0,0 -0.06607,0.35682 -0.08636,0.56584 -0.02308,0.23786 -0.04374,0.77481 -0.04374,0.77481 l 0.0031,6.53422 c 0,0 0.11505,1.10537 0.229959,1.43934 0.116214,0.33776 0.463402,0.57587 0.463402,0.57587 z"
             sodipodi:nodetypes="ccsssccsccccccsssccaccaccsccccccsccsccccccsccscc" />
          <path
             id="rect122602-8"
             style="opacity:0.999883;fill:#000000;fill-opacity:1;fill-rule:evenodd;stroke:none;stroke-width:0.097589;stroke-linecap:round;stroke-miterlimit:10;stroke-opacity:1"
             d="m 31.829982,36.980945 v -7.52943 h 0.199117 v 7.52943 z m 4.676163,-3.21173 v -2.15109 h 0.199106 v 2.15109 z m 4.62e-4,-6.43777 v -2.15467 h 0.198682 v 2.15467 z m -2.631115,0.26486 -3.57103,-0.0119 c 0,0 -0.370394,-0.0173 -0.753422,-0.46052 -0.278502,-0.32225 -0.56344,-0.99056 -0.718205,-1.45196 -0.176576,-0.52643 -0.369412,-1.51711 -0.455617,-2.36465 -0.07321,-0.71984 -0.05347,-1.35175 -0.05347,-1.35175 v -4.29503 h -0.489531 l 0.780375,-4.29622 0.780808,4.29622 h -0.486918 v 4.29503 c 0,0 -0.008,0.43342 0.04348,0.93775 0.06256,0.61328 0.196001,1.3471 0.325628,1.72875 0.123071,0.36235 0.32469,0.80642 0.543435,1.04155 0.254927,0.27401 0.520831,0.31019 0.520831,0.31019 l 3.576245,0.004 c 0,0 0.0987,-0.007 0.196942,-0.11573 0.104796,-0.11655 0.211562,-0.34119 0.273458,-0.52137 0.0504,-0.14674 0.106742,-0.42783 0.136511,-0.66812 0.02851,-0.23013 0.0313,-0.42234 0.0313,-0.42234 l 0.0031,-2.29426 v -7.64038 c 0,0 -0.01253,-0.42615 0.0035,-0.63233 0.0124,-0.15977 0.07043,-0.45097 0.07043,-0.45097 l 0.816896,-3.8786401 c 0,0 0.04285,-0.19679 0.05782,-0.30304 0.0126,-0.0894 0.02652,-0.27798 0.02652,-0.27798 v -5.91163 h 0.581694 v 5.8281 c 0,0 0.0065,0.46571 -0.01173,0.69079 -0.008,0.0986 -0.04174,0.28037 -0.04174,0.28037 l -0.822117,3.9048701 c 0,0 -0.05611,0.30887 -0.07478,0.47245 -0.01028,0.0901 -0.01999,0.27799 -0.01999,0.27799 v 7.64038 2.29426 c 0,0 -0.0088,0.42778 -0.06826,0.92224 -0.0566,0.47067 -0.161399,1.00166 -0.259546,1.27896 -0.10449,0.29522 -0.275396,0.69426 -0.459529,0.88884 -0.237809,0.25129 -0.483006,0.2565 -0.483006,0.2565 z m 2.631098,-6.7086 v -2.15945 l 0.198681,0.0107 v 2.13319 z m -4.676597,1.34697 v -11.01317 h 0.199116 v 11.01317 z m 4.676597,-7.79309 v -2.14275 h 0.198681 v 2.14275 z m -4.676597,-6.4294201 -8.98e-4,-2.14394 h 0.200854 l -8.98e-4,2.14394 z m 4.676597,0 v -2.14394 h 0.198681 v 2.14394 z m -4.676608,-6.43897 v -2.15348004 h 0.199117 V 1.5731949 Z m 4.676597,0 V -0.58028514 H 36.70526 V 1.5731949 Z m -4.676597,-6.43897 -0.0083,-2.15347 h 0.212592 l -0.0048,2.15347 z m 4.875278,0 -0.198681,-0.004 v -2.1499 h 0.198681 z"
             sodipodi:nodetypes="cccccccccccccccccssscccccccsssccscscccsccsccccsccscccsssccccccccccccccccccccccccccccccccccccccccccccccc" />
        </g>
        <g
           style="stroke-width:0.08802"
           id="g88901"
           transform="matrix(3.0132,0,0,2.584,321.21,556.61)">
          <g
             style="stroke-width:0.08802"
             id="g88903"
             transform="scale(0.54974,0.65932)">
            <g
               style="stroke-width:0.08802"
               id="g88905"
               clip-path="url(#clipPath88909-1)" />
          </g>
        </g>
      </g>
    </g>
  </g>
</svg>
