<?xml version="1.0" encoding="UTF-8" standalone="no"?>
<svg
   xmlns:dc="http://purl.org/dc/elements/1.1/"
   xmlns:cc="http://creativecommons.org/ns#"
   xmlns:rdf="http://www.w3.org/1999/02/22-rdf-syntax-ns#"
   xmlns:svg="http://www.w3.org/2000/svg"
   xmlns="http://www.w3.org/2000/svg"
   xmlns:sodipodi="http://sodipodi.sourceforge.net/DTD/sodipodi-0.dtd"
   xmlns:inkscape="http://www.inkscape.org/namespaces/inkscape"
   version="1.1"
   id="svg887"
   width="200"
   height="301.06851"
   viewBox="0 0 200 301.06852"
   sodipodi:docname="Turkey_road_sign_B-53c.svg"
   inkscape:version="1.0 (4035a4fb49, 2020-05-01)">
  <metadata
     id="metadata893">
    <rdf:RDF>
      <cc:Work
         rdf:about="">
        <dc:format>image/svg+xml</dc:format>
        <dc:type
           rdf:resource="http://purl.org/dc/dcmitype/StillImage" />
        <dc:title></dc:title>
      </cc:Work>
    </rdf:RDF>
  </metadata>
  <defs
     id="defs891">
    <clipPath
       id="clipPath425797"
       clipPathUnits="userSpaceOnUse">
      <path
         id="path425795"
         d="M 0,0 H 261.24 V 366.15 H 0 Z" />
    </clipPath>
    <clipPath
       id="clipPath36119"
       clipPathUnits="userSpaceOnUse">
      <path
         id="path36117"
         d="M 0,0 H 360 V 534.27 H 0 Z" />
    </clipPath>
    <clipPath
       id="clipPath36119-9"
       clipPathUnits="userSpaceOnUse">
      <path
         id="path36117-4"
         d="M 0,0 H 360 V 534.27 H 0 Z" />
    </clipPath>
    <clipPath
       clipPathUnits="userSpaceOnUse"
       id="clipPath36119-7">
      <path
         d="M 0,0 H 360 V 534.27 H 0 Z"
         id="path36117-7" />
    </clipPath>
    <clipPath
       clipPathUnits="userSpaceOnUse"
       id="clipPath36119-9-2">
      <path
         d="M 0,0 H 360 V 534.27 H 0 Z"
         id="path36117-4-6" />
    </clipPath>
    <clipPath
       clipPathUnits="userSpaceOnUse"
       id="clipPath855">
      <path
         d="m 302.81,35.279 h 18.15 v 13.8 h -18.15 z"
         clip-rule="evenodd"
         id="path853" />
    </clipPath>
    <clipPath
       clipPathUnits="userSpaceOnUse"
       id="clipPath863">
      <path
         d="m 302.81,35.28 h 18.144 v 13.8 H 302.81 Z"
         clip-rule="evenodd"
         id="path861" />
    </clipPath>
    <clipPath
       clipPathUnits="userSpaceOnUse"
       id="clipPath875">
      <path
         d="m 302.81,35.28 h 18.144 v 13.8 H 302.81 Z"
         clip-rule="evenodd"
         id="path873" />
    </clipPath>
    <clipPath
       clipPathUnits="userSpaceOnUse"
       id="clipPath1023">
      <path
         d="m 71.911,483.91 h 499.65 v 41.4 H 71.911 Z"
         clip-rule="evenodd"
         id="path1021" />
    </clipPath>
    <clipPath
       clipPathUnits="userSpaceOnUse"
       id="clipPath1031">
      <path
         d="m 79.704,483.91 h 210.98 v 41.4 H 79.704 Z"
         clip-rule="evenodd"
         id="path1029" />
    </clipPath>
    <clipPath
       clipPathUnits="userSpaceOnUse"
       id="clipPath1039">
      <path
         d="m 79.704,483.91 h 210.98 v 41.4 H 79.704 Z"
         clip-rule="evenodd"
         id="path1037" />
    </clipPath>
    <clipPath
       clipPathUnits="userSpaceOnUse"
       id="clipPath1051">
      <path
         d="m 79.704,483.91 h 210.98 v 41.4 H 79.704 Z"
         clip-rule="evenodd"
         id="path1049" />
    </clipPath>
    <clipPath
       clipPathUnits="userSpaceOnUse"
       id="clipPath1059">
      <path
         d="m 79.704,483.91 h 210.98 v 41.4 H 79.704 Z"
         clip-rule="evenodd"
         id="path1057" />
    </clipPath>
    <clipPath
       clipPathUnits="userSpaceOnUse"
       id="clipPath1071">
      <path
         d="m 79.704,483.91 h 210.98 v 41.4 H 79.704 Z"
         clip-rule="evenodd"
         id="path1069" />
    </clipPath>
    <clipPath
       clipPathUnits="userSpaceOnUse"
       id="clipPath1083">
      <path
         d="m 79.704,483.91 h 210.98 v 41.4 H 79.704 Z"
         clip-rule="evenodd"
         id="path1081" />
    </clipPath>
    <clipPath
       clipPathUnits="userSpaceOnUse"
       id="clipPath1095">
      <path
         d="m 79.704,483.91 h 210.98 v 41.4 H 79.704 Z"
         clip-rule="evenodd"
         id="path1093" />
    </clipPath>
    <clipPath
       clipPathUnits="userSpaceOnUse"
       id="clipPath1103">
      <path
         d="m 79.704,483.91 h 210.98 v 41.4 H 79.704 Z"
         clip-rule="evenodd"
         id="path1101" />
    </clipPath>
    <clipPath
       clipPathUnits="userSpaceOnUse"
       id="clipPath1115">
      <path
         d="m 79.704,483.91 h 210.98 v 41.4 H 79.704 Z"
         clip-rule="evenodd"
         id="path1113" />
    </clipPath>
    <clipPath
       clipPathUnits="userSpaceOnUse"
       id="clipPath1127">
      <path
         d="m 79.704,483.91 h 210.98 v 41.4 H 79.704 Z"
         clip-rule="evenodd"
         id="path1125" />
    </clipPath>
    <clipPath
       clipPathUnits="userSpaceOnUse"
       id="clipPath1135">
      <path
         d="m 79.704,483.91 h 210.98 v 41.4 H 79.704 Z"
         clip-rule="evenodd"
         id="path1133" />
    </clipPath>
    <clipPath
       clipPathUnits="userSpaceOnUse"
       id="clipPath1143">
      <path
         d="m 79.704,483.91 h 210.98 v 41.4 H 79.704 Z"
         clip-rule="evenodd"
         id="path1141" />
    </clipPath>
    <clipPath
       clipPathUnits="userSpaceOnUse"
       id="clipPath1151">
      <path
         d="m 79.704,483.91 h 210.98 v 41.4 H 79.704 Z"
         clip-rule="evenodd"
         id="path1149" />
    </clipPath>
    <clipPath
       clipPathUnits="userSpaceOnUse"
       id="clipPath1163">
      <path
         d="m 79.704,483.91 h 210.98 v 41.4 H 79.704 Z"
         clip-rule="evenodd"
         id="path1161" />
    </clipPath>
    <clipPath
       clipPathUnits="userSpaceOnUse"
       id="clipPath1175">
      <path
         d="m 79.704,483.91 h 210.98 v 41.4 H 79.704 Z"
         clip-rule="evenodd"
         id="path1173" />
    </clipPath>
    <clipPath
       clipPathUnits="userSpaceOnUse"
       id="clipPath1187">
      <path
         d="m 79.704,483.91 h 210.98 v 41.4 H 79.704 Z"
         clip-rule="evenodd"
         id="path1185" />
    </clipPath>
    <clipPath
       clipPathUnits="userSpaceOnUse"
       id="clipPath1195">
      <path
         d="m 290.69,483.91 h 273.07 v 41.4 H 290.69 Z"
         clip-rule="evenodd"
         id="path1193" />
    </clipPath>
    <clipPath
       clipPathUnits="userSpaceOnUse"
       id="clipPath1203">
      <path
         d="m 290.69,483.91 h 273.07 v 41.4 H 290.69 Z"
         clip-rule="evenodd"
         id="path1201" />
    </clipPath>
    <clipPath
       clipPathUnits="userSpaceOnUse"
       id="clipPath1211">
      <path
         d="m 290.69,483.91 h 273.07 v 41.4 H 290.69 Z"
         clip-rule="evenodd"
         id="path1209" />
    </clipPath>
    <clipPath
       clipPathUnits="userSpaceOnUse"
       id="clipPath1223">
      <path
         d="m 290.69,483.91 h 273.07 v 41.4 H 290.69 Z"
         clip-rule="evenodd"
         id="path1221" />
    </clipPath>
    <clipPath
       clipPathUnits="userSpaceOnUse"
       id="clipPath1235">
      <path
         d="m 290.69,483.91 h 273.07 v 41.4 H 290.69 Z"
         clip-rule="evenodd"
         id="path1233" />
    </clipPath>
    <clipPath
       clipPathUnits="userSpaceOnUse"
       id="clipPath1247">
      <path
         d="m 290.69,483.91 h 273.07 v 41.4 H 290.69 Z"
         clip-rule="evenodd"
         id="path1245" />
    </clipPath>
    <clipPath
       clipPathUnits="userSpaceOnUse"
       id="clipPath1255">
      <path
         d="m 290.69,483.91 h 273.07 v 41.4 H 290.69 Z"
         clip-rule="evenodd"
         id="path1253" />
    </clipPath>
    <clipPath
       clipPathUnits="userSpaceOnUse"
       id="clipPath1263">
      <path
         d="m 290.69,483.91 h 273.07 v 41.4 H 290.69 Z"
         clip-rule="evenodd"
         id="path1261" />
    </clipPath>
    <clipPath
       clipPathUnits="userSpaceOnUse"
       id="clipPath1271">
      <path
         d="m 290.69,483.91 h 273.07 v 41.4 H 290.69 Z"
         clip-rule="evenodd"
         id="path1269" />
    </clipPath>
    <clipPath
       clipPathUnits="userSpaceOnUse"
       id="clipPath1283">
      <path
         d="m 290.69,483.91 h 273.07 v 41.4 H 290.69 Z"
         clip-rule="evenodd"
         id="path1281" />
    </clipPath>
    <clipPath
       clipPathUnits="userSpaceOnUse"
       id="clipPath1295">
      <path
         d="m 290.69,483.91 h 273.07 v 41.4 H 290.69 Z"
         clip-rule="evenodd"
         id="path1293" />
    </clipPath>
    <clipPath
       clipPathUnits="userSpaceOnUse"
       id="clipPath1307">
      <path
         d="m 290.69,483.91 h 273.07 v 41.4 H 290.69 Z"
         clip-rule="evenodd"
         id="path1305" />
    </clipPath>
    <clipPath
       clipPathUnits="userSpaceOnUse"
       id="clipPath1315">
      <path
         d="m 290.69,483.91 h 273.07 v 41.4 H 290.69 Z"
         clip-rule="evenodd"
         id="path1313" />
    </clipPath>
    <clipPath
       clipPathUnits="userSpaceOnUse"
       id="clipPath1323">
      <path
         d="m 290.69,483.91 h 273.07 v 41.4 H 290.69 Z"
         clip-rule="evenodd"
         id="path1321" />
    </clipPath>
    <clipPath
       clipPathUnits="userSpaceOnUse"
       id="clipPath1331">
      <path
         d="m 290.69,483.91 h 273.07 v 41.4 H 290.69 Z"
         clip-rule="evenodd"
         id="path1329" />
    </clipPath>
    <clipPath
       clipPathUnits="userSpaceOnUse"
       id="clipPath1343">
      <path
         d="m 290.69,483.91 h 273.07 v 41.4 H 290.69 Z"
         clip-rule="evenodd"
         id="path1341" />
    </clipPath>
    <clipPath
       clipPathUnits="userSpaceOnUse"
       id="clipPath1353">
      <path
         d="M 0,0 H 470.4 V 170.78 H 0 Z"
         id="path1351" />
    </clipPath>
    <clipPath
       clipPathUnits="userSpaceOnUse"
       id="clipPath88909">
      <path
         d="M 0,0 H 130.97 V 109.2 H 0 Z"
         id="path88907" />
    </clipPath>
    <clipPath
       clipPathUnits="userSpaceOnUse"
       id="clipPath99589">
      <path
         d="M 0,0 H 148.5 V 113.02 H 0 Z"
         id="path99587" />
    </clipPath>
    <clipPath
       id="clipPath1353-2"
       clipPathUnits="userSpaceOnUse">
      <path
         id="path1351-4"
         d="M 0,0 H 470.4 V 170.78 H 0 Z" />
    </clipPath>
    <clipPath
       id="clipPath88909-1"
       clipPathUnits="userSpaceOnUse">
      <path
         id="path88907-9"
         d="M 0,0 H 130.97 V 109.2 H 0 Z" />
    </clipPath>
  </defs>
  <sodipodi:namedview
     inkscape:document-rotation="0"
     pagecolor="#ffffff"
     bordercolor="#666666"
     borderopacity="1"
     objecttolerance="10"
     gridtolerance="10"
     guidetolerance="10"
     inkscape:pageopacity="0"
     inkscape:pageshadow="2"
     inkscape:window-width="1920"
     inkscape:window-height="1001"
     id="namedview889"
     showgrid="false"
     inkscape:zoom="0.34767195"
     inkscape:cx="-560.32024"
     inkscape:cy="538.28751"
     inkscape:window-x="-9"
     inkscape:window-y="-9"
     inkscape:window-maximized="1"
     inkscape:current-layer="g895" />
  <g
     inkscape:groupmode="layer"
     inkscape:label="Image"
     id="g895"
     transform="translate(-383.51665,679.14702)">
    <path
       d="m 403.49235,-679.14702 h 160.0483 c 11.0667,0 19.976,8.90927 19.976,19.97589 v 261.11675 c 0,11.0666 -8.9093,19.97586 -19.976,19.97586 h -160.0483 c -11.0666,0 -19.9757,-8.90926 -19.9757,-19.97586 v -261.11675 c 0,-11.06662 8.9091,-19.97589 19.9757,-19.97589 z"
       style="opacity:1;fill:#00408c;fill-opacity:1;fill-rule:evenodd;stroke:none;stroke-width:1.652;stroke-linecap:square"
       id="path54742"
       sodipodi:nodetypes="sssssssss" />
    <path
       sodipodi:nodetypes="ccsssccsccccccsssccsssccccccsccsccccccsccssscc"
       d="m 511.69685,-659.07435 v 37.50916 c 0,0 6.4136,-0.21624 12.9271,1.75191 5.3823,1.62624 10.6753,5.13139 13.8532,8.02849 2.8109,2.5626 6.3513,7.34864 8.2015,11.94517 2.169,5.38871 2.4158,10.45547 2.4158,10.45547 l 0.1,39.84686 c 0,0 -0.3005,2.976 -0.8147,4.36295 -0.5188,1.40057 -2.2484,3.87759 -2.2484,3.87759 l -34.4345,59.85957 v 35.61785 l -34.9827,-8.9e-4 -0.028,-83.68934 0.028,-57.32399 c 0,0 -0.1514,-0.96538 -0.5742,-1.86826 -0.2979,-0.63498 -0.8155,-1.20524 -1.1443,-1.53372 -0.3833,-0.38326 -1.1003,-0.7777 -1.7465,-0.99637 -0.6276,-0.21224 -1.1903,-0.25452 -1.1903,-0.25452 l -16.0522,0.0628 c 0,0 -0.7359,0.20396 -1.3912,0.5338 -0.6541,0.32945 -1.2274,0.78465 -1.6114,1.21779 -0.3805,0.429 -0.8104,1.21664 -1.0575,1.89987 -0.2485,0.69001 -0.3148,1.27349 -0.3148,1.27349 l 0.057,140.67815 -34.985,9.1e-4 v -213.25496 h 35.0604 l -0.034,33.31917 c 0,0 0.6193,1.72542 1.1606,2.37118 0.6045,0.72114 2.2761,1.72957 2.2761,1.72957 l 17.2846,0.13397 c 0,0 2.1724,-0.74259 2.8397,-1.46176 0.7535,-0.81204 1.4228,-3.12995 1.4228,-3.12995 l -0.029,-32.9621 z m -3e-4,67.94518 v 65.75695 l 10.8427,-18.66044 c 0,0 0.8478,-1.66864 1.1083,-2.64612 0.2962,-1.11232 0.5613,-3.6233 0.5613,-3.6233 l -0.04,-31.69899 c 0,0 -0.054,-1.07333 -0.5044,-2.34947 -0.5116,-1.45011 -1.4729,-3.17236 -2.3407,-4.06361 -1.558,-1.59999 -3.8604,-2.43719 -6.0493,-2.87911 -1.1704,-0.23623 -3.5782,0.16397 -3.5782,0.16397 z"
       style="opacity:1;fill:#ffffff;fill-opacity:1;fill-rule:evenodd;stroke:none;stroke-width:0.755999;stroke-linecap:round;stroke-miterlimit:10;stroke-opacity:1"
       id="path53384" />
    <path
       sodipodi:nodetypes="cccccccccccccccccccccccccccccccccccccccccccccccccccccccccccaccsssccssscccccccsssccaccacccccccccccc"
       d="m 492.96435,-657.06567 v 10.03707 h 2.4883 v -10.03707 z m -60.0716,0.49656 v 35.11013 h 2.5552 v -35.11013 z m 60.0716,29.63132 v 10.01473 h 2.5552 l -0.029,-9.95894 z m -60.0665,15.16046 v 10.01533 h 2.5495 v -10.01533 z m 60.063,24.17082 v 51.49808 h 2.4944 v -51.49808 z m -57.5135,5.93429 h -2.4947 v 10.07445 h 2.4947 z m -2.4947,30.06171 -0.054,10.07055 h 2.5497 v -10.07055 z m 0,30.113 -0.054,10.07051 h 2.5497 l 0.054,-10.07051 z m 60.0082,0 v 10.07051 h 2.4944 v -10.07051 z m 0,30.16295 v 10.02032 h 2.494 v -10.02043 z m -60.0608,-6.9e-4 v 10.02124 h 2.5495 v -10.02124 z m 67.565,5.63013 v 22.11017 h 7.5039 v -22.11049 c 0,0 0.16,-2.38952 0.5085,-3.52457 0.4579,-1.49659 2.045,-4.22661 2.045,-4.22661 l 26.0656,-44.97231 c 0,0 0.7816,-1.23932 1.4512,-2.71128 0.5376,-1.18159 0.9498,-2.5131 1.2294,-3.47379 0.3254,-1.1178 0.753,-2.69474 0.9581,-4.17853 0.24,-1.73788 0.2314,-3.31085 0.2314,-3.31085 v -32.48671 c 0,0 0.054,-2.95352 -0.9207,-6.25988 -1.1089,-3.75576 -3.3796,-8.04373 -5.5317,-10.35803 -2.0816,-2.23875 -5.85,-5.31485 -9.5607,-6.85294 -4.739,-1.96426 -9.3058,-2.09974 -9.3058,-2.09974 h -45.8851 v -6.26946 l -20.0156,10.01533 20.0156,10.07446 v -6.30885 l 46.4741,0.0391 c 0,0 3.4696,0.36932 6.8272,1.99297 2.5415,1.22892 4.9059,3.47804 6.2993,5.10611 1.3069,1.52678 2.6755,4.2099 3.3736,6.68814 0.7356,2.61139 0.7659,4.98165 0.7659,4.98165 v 31.73753 c 0,0 -0.378,3.2292 -0.8053,4.79137 -0.4136,1.51241 -1.6894,4.38998 -1.6894,4.38998 l -28.3248,48.92143 c 0,0 -1.2295,2.4324 -1.5152,3.74999 -0.3213,1.48218 -0.1942,4.54565 -0.1942,4.54565 z m -67.565,24.46616 v 10.03794 h 2.5495 v -10.02121 z m 60.063,0.0171 v 10.02121 h 2.4944 v -10.02121 z"
       style="opacity:1;fill:#000000;fill-opacity:1;fill-rule:evenodd;stroke:none;stroke-width:0.756002;stroke-linecap:round;stroke-miterlimit:10;stroke-opacity:1"
       id="path54708" />
    <path
       sodipodi:nodetypes="cc"
       d="m 455.75265,-595.35458 v 64.97143"
       style="display:inline;opacity:1;mix-blend-mode:normal;fill:#000000;fill-opacity:1;stroke:none;stroke-width:0.0964457;stroke-linecap:butt;stroke-linejoin:round;stroke-miterlimit:10;stroke-dasharray:none;stroke-opacity:1"
       id="path54756" />
    <path
       sodipodi:nodetypes="ccccc"
       d="m 393.38405,-435.74822 h 180.9899 v 2.39789 h -180.9899 z"
       style="display:inline;opacity:0.999883;mix-blend-mode:normal;fill:#ffffff;fill-opacity:1;fill-rule:evenodd;stroke:none;stroke-width:1.752;stroke-linecap:square;stroke-miterlimit:4;stroke-dasharray:none;stroke-opacity:0.771429"
       id="path54760" />
    <path
       sodipodi:nodetypes="ccscccccccccccsccccccccccc"
       style="font-style:normal;font-variant:normal;font-weight:normal;font-stretch:normal;font-size:12px;font-family:'Highway Gothic Expanded';-inkscape-font-specification:'Highway Gothic Expanded, ';writing-mode:lr-tb;display:inline;opacity:1;mix-blend-mode:normal;fill:#ffffff;fill-opacity:1;fill-rule:nonzero;stroke:none;stroke-width:1.33333;stroke-opacity:1"
       d="m 510.21425,-414.9722 h 3.0246 v 6.87944 c 2e-4,0.84434 0.4953,1.95326 1.088,2.56406 0.611,0.61082 1.666,1.09569 2.6541,1.09569 0.8624,0.0171 1.8947,-0.37938 2.5415,-0.95424 0.6647,-0.59282 1.2149,-1.61867 1.2326,-2.60673 v -6.97822 h 3.0042 v 13.17737 h -3.0042 v -0.36824 c -0.9233,0.62091 -2.3527,0.95424 -3.8795,0.95424 -1.9405,-0.036 -3.7541,-1.06633 -4.8859,-2.34179 -1.1138,-1.27551 -1.8031,-3.09075 -1.7985,-4.59979 z m 3.0246,-1.50881 h -3.0246 v -3.01537 h 3.0246 z m 10.5233,0 h -3.004 v -3.01537 h 3.004 z"
       id="path54762" />
    <path
       id="path54764"
       d="m 547.35075,-414.9722 h 3.0246 v 6.87944 c 3e-4,0.84434 0.4956,1.95326 1.0883,2.56406 0.6111,0.61082 1.666,1.09569 2.6541,1.09569 0.8621,0.0171 1.8947,-0.37938 2.5415,-0.95424 0.6647,-0.59282 1.2146,-1.61867 1.2326,-2.60673 v -6.97822 h 3.0042 v 13.17737 h -3.0042 v -0.36824 c -0.9233,0.62091 -2.3527,0.95424 -3.8798,0.95424 -1.9402,-0.036 -3.7538,-1.06633 -4.8856,-2.34179 -1.1138,-1.27551 -1.8031,-3.09075 -1.7985,-4.59979 z m 3.0246,-1.50881 h -3.0246 v -3.01537 h 3.0246 z m 10.5233,0 h -3.004 v -3.01537 h 3.004 z"
       style="font-style:normal;font-variant:normal;font-weight:normal;font-stretch:normal;font-size:12px;font-family:'Highway Gothic Expanded';-inkscape-font-specification:'Highway Gothic Expanded, ';writing-mode:lr-tb;display:inline;opacity:1;mix-blend-mode:normal;fill:#ffffff;fill-opacity:1;fill-rule:nonzero;stroke:none;stroke-width:1.33333;stroke-opacity:1"
       sodipodi:nodetypes="ccscccccccccccsccccccccccc" />
    <path
       d="m 541.60735,-405.13841 c 0,0.70346 -0.1571,1.33633 -0.4673,1.91576 -0.2114,0.39574 -0.477,0.78204 -0.9112,1.0878 -0.2229,0.15226 -0.4891,0.22282 -0.7553,0.29989 -0.2771,0.0803 -0.5548,0.16511 -0.8733,0.23052 -0.2485,0.0514 -0.5096,0.10055 -0.7784,0.14512 -0.029,0.003 0,4.20598 0,4.20598 h -3.0068 c 0,0 0,-4.04896 -0.029,-4.0497 -1.9207,-0.12055 -3.6504,-0.52672 -5.3038,-1.38884 l 1.3498,-2.72462 c 1.6539,0.879 3.3556,1.07256 4.8344,1.0905 0.3999,0 0.9912,-0.0286 1.4811,-0.0965 0.4565,-0.064 1.3521,-0.29286 1.3521,-0.29286 0,0 0.054,-0.15825 0.063,-0.24081 0,-0.082 0,-0.1831 0,-0.24681 0,-0.076 -0.029,-0.15968 -0.069,-0.21767 -0.083,-0.0988 -0.1514,-0.21909 -0.2656,-0.28251 -0.2314,-0.13112 -0.5245,-0.18082 -0.7896,-0.26338 -0.6667,-0.20795 -1.342,-0.38832 -2.0127,-0.58345 -0.3974,-0.11569 -0.7947,-0.2311 -1.1918,-0.34793 -0.2542,-0.0751 -0.5104,-0.1494 -0.765,-0.22681 -0.5396,-0.16397 -1.1006,-0.27337 -1.6156,-0.50359 -0.3637,-0.16225 -0.801,-0.40503 -1.0255,-0.61204 -0.7396,-0.71754 -1.1818,-1.43809 -1.2892,-2.31462 -0.1257,-1.01905 0.2142,-2.27217 0.805,-2.97303 0.2199,-0.26281 0.4047,-0.45925 0.6658,-0.60819 0.3103,-0.17683 0.6788,-0.22396 1.0247,-0.31303 0.495,-0.1274 0.9944,-0.24309 1.5005,-0.31585 0.685,-0.0983 1.4489,-0.16111 2.0702,-0.16111 1.907,0 3.6316,0.37675 5.2487,1.07356 l -1.1621,2.79475 c -1.0784,-0.5047 -2.94,-0.82586 -4.4497,-0.84537 -0.8872,-0.0114 -2.6277,0.42931 -2.6277,0.42931 0,0 -0.08,0.18053 -0.083,0.27651 0,0.1754 0.029,0.37636 0.1343,0.50902 0.2916,0.33661 0.8098,0.37386 1.2295,0.52266 0.343,0.12169 0.6998,0.19996 1.0492,0.30103 0.6124,0.17682 1.232,0.36735 1.8359,0.53375 1.1169,0.30785 2.7297,0.58382 3.6747,1.51198 0.6947,0.6822 1.1403,1.35318 1.1597,2.68063 z"
       style="font-style:normal;font-variant:normal;font-weight:normal;font-stretch:normal;font-size:19.6811px;line-height:1.15;font-family:'Highway Gothic Wide';-inkscape-font-specification:'Highway Gothic Wide';display:inline;opacity:1;mix-blend-mode:normal;fill:#ffffff;fill-opacity:1;stroke:none;stroke-width:0.492027;stroke-opacity:1"
       id="path54766"
       sodipodi:nodetypes="cscsssccscccacasssaaaaacasaaasccacaaaasacc" />
    <path
       id="path54744"
       d="m 403.67655,-674.12037 c -8.3671,0 -15.1829,6.81562 -15.1829,15.18297 v 260.78821 c 0,8.36734 6.8158,15.18297 15.1829,15.18297 h 159.6407 c 8.3672,0 15.183,-6.81563 15.183,-15.18297 V -658.9374 c 0,-8.36735 -6.8158,-15.18297 -15.183,-15.18297 z m 0,5.00645 h 159.6407 c 5.6812,0 10.184,4.49526 10.184,10.17652 v 260.78821 c 0,5.68128 -4.5028,10.17655 -10.184,10.17655 h -159.6407 c -5.6811,0 -10.1765,-4.49527 -10.1765,-10.17655 V -658.9374 c 0,-5.68126 4.4954,-10.17652 10.1765,-10.17652 z"
       style="color:#000000;font-style:normal;font-variant:normal;font-weight:normal;font-stretch:normal;font-size:medium;line-height:normal;font-family:sans-serif;font-variant-ligatures:normal;font-variant-position:normal;font-variant-caps:normal;font-variant-numeric:normal;font-variant-alternates:normal;font-variant-east-asian:normal;font-feature-settings:normal;font-variation-settings:normal;text-indent:0;text-align:start;text-decoration:none;text-decoration-line:none;text-decoration-style:solid;text-decoration-color:#000000;letter-spacing:normal;word-spacing:normal;text-transform:none;writing-mode:lr-tb;direction:ltr;text-orientation:mixed;dominant-baseline:auto;baseline-shift:baseline;text-anchor:start;white-space:normal;shape-padding:0;shape-margin:0;inline-size:0;clip-rule:nonzero;display:inline;overflow:visible;visibility:visible;opacity:1;isolation:auto;mix-blend-mode:normal;color-interpolation:sRGB;color-interpolation-filters:linearRGB;solid-color:#000000;solid-opacity:1;vector-effect:none;fill:#ffffff;fill-opacity:1;fill-rule:evenodd;stroke:none;stroke-width:1.75203;stroke-linecap:square;stroke-linejoin:miter;stroke-miterlimit:4;stroke-dasharray:none;stroke-dashoffset:0;stroke-opacity:1;color-rendering:auto;image-rendering:auto;shape-rendering:auto;text-rendering:auto;enable-background:accumulate;stop-color:#000000;stop-opacity:1"
       sodipodi:nodetypes="ssssssssssssssssss" />
    <path
       clip-path="none"
       sodipodi:nodetypes="cscscsccscscccc"
       d="m 423.59115,-424.76849 v 16.36265 c 0,1.41874 -0.2371,2.62896 -0.8498,3.63047 -1.1961,2.03079 -2.9906,3.04636 -5.3829,3.04636 -2.3647,0 -4.1589,-1.01557 -5.383,-3.04636 -0.5844,-1.00151 -0.8764,-2.21173 -0.8764,-3.63047 v -16.36265 l -5.0069,0.0114 v 16.69344 c 0,3.42177 1.056,5.90373 3.1702,8.12934 2.1144,2.19761 4.8133,3.29573 8.0961,3.29573 3.2827,0 5.9802,-1.09812 8.0946,-3.29573 2.1142,-2.22561 3.1717,-4.70757 3.1717,-8.12934 v -16.6801 z"
       style="font-style:normal;font-variant:normal;font-weight:normal;font-stretch:normal;font-size:19.8301px;line-height:1.15;font-family:'Highway Gothic Wide';-inkscape-font-specification:'Highway Gothic Wide';opacity:1;fill:#ffffff;fill-opacity:1;stroke:none;stroke-width:1.14574;stroke-opacity:1"
       id="path54746" />
    <path
       clip-path="none"
       sodipodi:nodetypes="accccsssssssccccccssaaaa"
       id="path54748"
       style="font-style:normal;font-variant:normal;font-weight:normal;font-stretch:normal;font-size:30px;line-height:1.15;font-family:'Highway Gothic Wide';-inkscape-font-specification:'Highway Gothic Wide';opacity:1;fill:#ffffff;fill-opacity:1;stroke-width:0.999999"
       d="m 502.77205,-409.60937 c 0.1486,0.50047 0.1885,1.55417 0.1885,1.55417 v 6.83917 h -3.0273 v -7.02461 c 0,0 -0.034,-0.56141 -0.2543,-1.15746 -0.1657,-0.45502 -0.4802,-0.93032 -0.7395,-1.19133 -0.3443,-0.34659 -0.7442,-0.67783 -1.2038,-0.89562 -0.531,-0.25138 -1.1338,-0.36298 -1.6982,-0.35347 -0.6445,0.0114 -1.3178,0.21481 -1.8857,0.56966 -0.3105,0.19396 -0.573,0.45265 -0.8201,0.70386 -0.2685,0.27337 -0.5599,0.76144 -0.7327,1.22089 -0.1828,0.48588 -0.2371,0.93621 -0.2371,0.93621 l -0.028,7.1919 h -3.0069 v -13.28718 h 3.0069 v 0.79358 c 0,0 0.5961,-0.43625 1.4151,-0.74225 0.8227,-0.30737 1.8702,-0.48447 2.5595,-0.42434 0.8084,0.0706 2.0836,0.3165 3.0054,0.78881 0.813,0.4162 1.548,1.02608 2.1133,1.74333 0.6278,0.79661 1.046,1.76219 1.334,2.73474 z" />
    <path
       clip-path="none"
       sodipodi:nodetypes="cccscssscsssssccccccssccsssssccccc"
       style="opacity:1;fill:#ffffff;fill-opacity:1;stroke:none;stroke-width:0.071621;stroke-opacity:1"
       d="m 447.95485,-401.29619 v -18.80409 l 3.9926,0.0114 c 2.9271,0.009 4.0412,0.0229 4.174,0.0494 0.1,0.0229 0.3219,0.0608 0.4939,0.0883 0.1714,0.0257 0.4388,0.0877 0.5927,0.13397 0.1543,0.0469 0.3505,0.10541 0.4362,0.13026 0.5696,0.16425 1.6291,0.71888 2.131,1.11577 0.3437,0.27195 1.089,0.99075 1.2775,1.23261 1.0401,1.33391 1.5294,2.6251 1.8179,4.79544 0.3214,2.41925 -0.04,5.28885 -0.8898,7.05075 -0.3919,0.81301 -0.8295,1.41529 -1.5043,2.07044 -0.6618,0.64227 -1.1155,0.96532 -1.9347,1.37761 -0.3928,0.19767 -0.8413,0.36718 -1.3338,0.50364 -0.1713,0.0477 -0.335,0.0957 -0.3622,0.10626 -0.028,0.0114 -0.06,0.02 -0.068,0.0143 0,-0.001 -0.1886,0.0306 -0.3951,0.0683 -0.3693,0.0708 -3.7007,0.0728 -3.7007,0.0728 z m 8.0678,-3.43508 c 0.5473,-0.12768 0.6584,-0.16682 1.0538,-0.37021 0.2256,-0.11654 0.5079,-0.28422 0.6255,-0.37286 0.8533,-0.64225 1.4112,-1.56597 1.6269,-2.6926 0.028,-0.1414 0.071,-0.35345 0.097,-0.47125 0.2114,-0.92416 0.2285,-2.71806 0.037,-3.86928 -0.2085,-1.24649 -0.4413,-1.88519 -0.9261,-2.53955 -0.2514,-0.34124 -0.5264,-0.60733 -0.9666,-0.93998 -0.1629,-0.12254 -0.7276,-0.3976 -1.021,-0.49667 -0.6224,-0.21024 -0.5322,-0.20367 -2.9885,-0.2151 l -2.2473,-0.0114 v 12.05874 l 2.231,-0.0114 c 1.9827,-0.0114 2.2584,-0.02 2.4781,-0.0694 z"
       id="path54750" />
    <path
       clip-path="none"
       style="font-style:normal;font-variant:normal;font-weight:normal;font-stretch:normal;font-size:12px;font-family:'Highway Gothic Expanded';-inkscape-font-specification:'Highway Gothic Expanded, ';writing-mode:lr-tb;opacity:1;fill:#ffffff;fill-opacity:1;fill-rule:nonzero;stroke:none;stroke-width:1.33333"
       d="m 482.48185,-408.01792 c 0,1.91856 -0.6544,3.53229 -1.9633,4.84126 -1.3089,1.3089 -2.9237,1.96337 -4.8447,1.96337 -1.8868,0 -3.4933,-0.66341 -4.8194,-1.99028 -1.3088,-1.32685 -1.9633,-2.93164 -1.9633,-4.81435 0,-1.90064 0.6545,-3.50541 1.9633,-4.81437 1.3089,-1.30891 2.9155,-1.96338 4.8194,-1.96338 1.9039,0 3.5104,0.65447 4.8193,1.96338 1.326,1.30896 1.9887,2.91373 1.9887,4.81437 z m -3.0725,0.058 c 0,-1.02208 -0.4742,-2.10215 -1.1881,-2.76561 -0.7138,-0.68135 -1.6728,-1.03011 -2.5909,-1.03011 -0.9349,0 -1.9316,0.39832 -2.6286,1.07967 -0.697,0.66344 -1.0812,1.62182 -1.0812,2.64384 0,1.03999 0.4291,2.05864 1.1261,2.72208 0.697,0.64547 1.7211,1.07564 2.656,1.07564 0.9181,0 1.8211,-0.37858 2.5352,-1.04216 0.7139,-0.68135 1.1715,-1.67923 1.1715,-2.68335 z m -6.0051,-7.97853 h -3.0102 v -3.02605 h 3.0102 z m 7.5374,0 h -3.0309 v -3.02605 h 3.0309 z"
       id="path54752"
       sodipodi:nodetypes="ssscssscsscscscscscccccccccc" />
  </g>
</svg>
