<svg width="200" height="301.07" version="1.1" viewBox="0 0 200 301.07" xmlns="http://www.w3.org/2000/svg"><g transform="translate(-383.52 679.15)"><g fill-rule="evenodd"><path d="m403.49-679.15h160.05c11.067 0 19.976 8.9093 19.976 19.976v261.12c0 11.067-8.9093 19.976-19.976 19.976h-160.05c-11.067 0-19.976-8.9093-19.976-19.976v-261.12c0-11.067 8.9091-19.976 19.976-19.976z" fill="#00408c"/><path d="m511.7-659.07v37.509s6.4136-0.21624 12.927 1.7519c5.3823 1.6262 10.675 5.1314 13.853 8.0285 2.8109 2.5626 6.3513 7.3486 8.2015 11.945 2.169 5.3887 2.4158 10.455 2.4158 10.455l0.1 39.847s-0.3005 2.976-0.8147 4.363c-0.5188 1.4006-2.2484 3.8776-2.2484 3.8776l-34.434 59.86v35.618l-34.983-8.9e-4 -0.028-83.689 0.028-57.324s-0.1514-0.96538-0.5742-1.8683c-0.2979-0.63498-0.8155-1.2052-1.1443-1.5337-0.3833-0.38326-1.1003-0.7777-1.7465-0.99637-0.6276-0.21224-1.1903-0.25452-1.1903-0.25452l-16.052 0.0628s-0.7359 0.20396-1.3912 0.5338c-0.6541 0.32945-1.2274 0.78465-1.6114 1.2178-0.3805 0.429-0.8104 1.2166-1.0575 1.8999-0.2485 0.69001-0.3148 1.2735-0.3148 1.2735l0.057 140.68-34.985 9.1e-4v-213.25h35.06l-0.034 33.319s0.6193 1.7254 1.1606 2.3712c0.6045 0.72114 2.2761 1.7296 2.2761 1.7296l17.285 0.13397s2.1724-0.74259 2.8397-1.4618c0.7535-0.81204 1.4228-3.13 1.4228-3.13l-0.029-32.962zm-3e-4 67.945v65.757l10.843-18.66s0.8478-1.6686 1.1083-2.6461c0.2962-1.1123 0.5613-3.6233 0.5613-3.6233l-0.04-31.699s-0.054-1.0733-0.5044-2.3495c-0.5116-1.4501-1.4729-3.1724-2.3407-4.0636-1.558-1.6-3.8604-2.4372-6.0493-2.8791-1.1704-0.23623-3.5782 0.16397-3.5782 0.16397z" fill="#fff"/><path d="m492.96-657.07v10.037h2.4883v-10.037zm-60.072 0.49656v35.11h2.5552v-35.11zm60.072 29.631v10.015h2.5552l-0.029-9.9589zm-60.066 15.16v10.015h2.5495v-10.015zm60.063 24.171v51.498h2.4944v-51.498zm-57.514 5.9343h-2.4947v10.074h2.4947zm-2.4947 30.062-0.054 10.071h2.5497v-10.071zm0 30.113-0.054 10.071h2.5497l0.054-10.071zm60.008 0v10.071h2.4944v-10.071zm0 30.163v10.02h2.494v-10.02zm-60.061-6.9e-4v10.021h2.5495v-10.021zm67.565 5.6301v22.11h7.5039v-22.11s0.16-2.3895 0.5085-3.5246c0.4579-1.4966 2.045-4.2266 2.045-4.2266l26.066-44.972s0.7816-1.2393 1.4512-2.7113c0.5376-1.1816 0.9498-2.5131 1.2294-3.4738 0.3254-1.1178 0.753-2.6947 0.9581-4.1785 0.24-1.7379 0.2314-3.3108 0.2314-3.3108v-32.487s0.054-2.9535-0.9207-6.2599c-1.1089-3.7558-3.3796-8.0437-5.5317-10.358-2.0816-2.2388-5.85-5.3148-9.5607-6.8529-4.739-1.9643-9.3058-2.0997-9.3058-2.0997h-45.885v-6.2695l-20.016 10.015 20.016 10.074v-6.3088l46.474 0.0391s3.4696 0.36932 6.8272 1.993c2.5415 1.2289 4.9059 3.478 6.2993 5.1061 1.3069 1.5268 2.6755 4.2099 3.3736 6.6881 0.7356 2.6114 0.7659 4.9816 0.7659 4.9816v31.738s-0.378 3.2292-0.8053 4.7914c-0.4136 1.5124-1.6894 4.39-1.6894 4.39l-28.325 48.921s-1.2295 2.4324-1.5152 3.75c-0.3213 1.4822-0.1942 4.5456-0.1942 4.5456zm-67.565 24.466v10.038h2.5495v-10.021zm60.063 0.0171v10.021h2.4944v-10.021z"/></g><path d="m455.75-595.35v64.971" style="mix-blend-mode:normal"/><g fill="#fff"><path d="m393.38-435.75h180.99v2.3979h-180.99z" fill-rule="evenodd" opacity=".99988" style="mix-blend-mode:normal"/><path d="m510.21-414.97h3.0246v6.8794c2e-4 0.84434 0.4953 1.9533 1.088 2.5641 0.611 0.61082 1.666 1.0957 2.6541 1.0957 0.8624 0.0171 1.8947-0.37938 2.5415-0.95424 0.6647-0.59282 1.2149-1.6187 1.2326-2.6067v-6.9782h3.0042v13.177h-3.0042v-0.36824c-0.9233 0.62091-2.3527 0.95424-3.8795 0.95424-1.9405-0.036-3.7541-1.0663-4.8859-2.3418-1.1138-1.2755-1.8031-3.0908-1.7985-4.5998zm3.0246-1.5088h-3.0246v-3.0154h3.0246zm10.523 0h-3.004v-3.0154h3.004z" style="mix-blend-mode:normal"/><path d="m547.35-414.97h3.0246v6.8794c3e-4 0.84434 0.4956 1.9533 1.0883 2.5641 0.6111 0.61082 1.666 1.0957 2.6541 1.0957 0.8621 0.0171 1.8947-0.37938 2.5415-0.95424 0.6647-0.59282 1.2146-1.6187 1.2326-2.6067v-6.9782h3.0042v13.177h-3.0042v-0.36824c-0.9233 0.62091-2.3527 0.95424-3.8798 0.95424-1.9402-0.036-3.7538-1.0663-4.8856-2.3418-1.1138-1.2755-1.8031-3.0908-1.7985-4.5998zm3.0246-1.5088h-3.0246v-3.0154h3.0246zm10.523 0h-3.004v-3.0154h3.004z" style="mix-blend-mode:normal"/><path d="m541.61-405.14c0 0.70346-0.1571 1.3363-0.4673 1.9158-0.2114 0.39574-0.477 0.78204-0.9112 1.0878-0.2229 0.15226-0.4891 0.22282-0.7553 0.29989-0.2771 0.0803-0.5548 0.16511-0.8733 0.23052-0.2485 0.0514-0.5096 0.10055-0.7784 0.14512-0.029 3e-3 0 4.206 0 4.206h-3.0068s0-4.049-0.029-4.0497c-1.9207-0.12055-3.6504-0.52672-5.3038-1.3888l1.3498-2.7246c1.6539 0.879 3.3556 1.0726 4.8344 1.0905 0.3999 0 0.9912-0.0286 1.4811-0.0965 0.4565-0.064 1.3521-0.29286 1.3521-0.29286s0.054-0.15825 0.063-0.24081v-0.24681c0-0.076-0.029-0.15968-0.069-0.21767-0.083-0.0988-0.1514-0.21909-0.2656-0.28251-0.2314-0.13112-0.5245-0.18082-0.7896-0.26338-0.6667-0.20795-1.342-0.38832-2.0127-0.58345-0.3974-0.11569-0.7947-0.2311-1.1918-0.34793-0.2542-0.0751-0.5104-0.1494-0.765-0.22681-0.5396-0.16397-1.1006-0.27337-1.6156-0.50359-0.3637-0.16225-0.801-0.40503-1.0255-0.61204-0.7396-0.71754-1.1818-1.4381-1.2892-2.3146-0.1257-1.019 0.2142-2.2722 0.805-2.973 0.2199-0.26281 0.4047-0.45925 0.6658-0.60819 0.3103-0.17683 0.6788-0.22396 1.0247-0.31303 0.495-0.1274 0.9944-0.24309 1.5005-0.31585 0.685-0.0983 1.4489-0.16111 2.0702-0.16111 1.907 0 3.6316 0.37675 5.2487 1.0736l-1.1621 2.7948c-1.0784-0.5047-2.94-0.82586-4.4497-0.84537-0.8872-0.0114-2.6277 0.42931-2.6277 0.42931s-0.08 0.18053-0.083 0.27651c0 0.1754 0.029 0.37636 0.1343 0.50902 0.2916 0.33661 0.8098 0.37386 1.2295 0.52266 0.343 0.12169 0.6998 0.19996 1.0492 0.30103 0.6124 0.17682 1.232 0.36735 1.8359 0.53375 1.1169 0.30785 2.7297 0.58382 3.6747 1.512 0.6947 0.6822 1.1403 1.3532 1.1597 2.6806z" style="mix-blend-mode:normal"/><path d="m403.68-674.12c-8.3671 0-15.183 6.8156-15.183 15.183v260.79c0 8.3673 6.8158 15.183 15.183 15.183h159.64c8.3672 0 15.183-6.8156 15.183-15.183v-260.79c0-8.3674-6.8158-15.183-15.183-15.183zm0 5.0064h159.64c5.6812 0 10.184 4.4953 10.184 10.177v260.79c0 5.6813-4.5028 10.177-10.184 10.177h-159.64c-5.6811 0-10.176-4.4953-10.176-10.177v-260.79c0-5.6813 4.4954-10.177 10.176-10.177z" color="#000000" color-rendering="auto" dominant-baseline="auto" enable-background="accumulate" fill-rule="evenodd" image-rendering="auto" shape-rendering="auto" solid-color="#000000" stop-color="#000000" style="font-feature-settings:normal;font-variant-alternates:normal;font-variant-caps:normal;font-variant-east-asian:normal;font-variant-ligatures:normal;font-variant-numeric:normal;font-variant-position:normal;font-variation-settings:normal;inline-size:0;isolation:auto;mix-blend-mode:normal;shape-margin:0;shape-padding:0;text-decoration-color:#000000;text-decoration-line:none;text-decoration-style:solid;text-indent:0;text-orientation:mixed;text-transform:none;white-space:normal"/><path d="m423.59-424.77v16.363c0 1.4187-0.2371 2.629-0.8498 3.6305-1.1961 2.0308-2.9906 3.0464-5.3829 3.0464-2.3647 0-4.1589-1.0156-5.383-3.0464-0.5844-1.0015-0.8764-2.2117-0.8764-3.6305v-16.363l-5.0069 0.0114v16.693c0 3.4218 1.056 5.9037 3.1702 8.1293 2.1144 2.1976 4.8133 3.2957 8.0961 3.2957 3.2827 0 5.9802-1.0981 8.0946-3.2957 2.1142-2.2256 3.1717-4.7076 3.1717-8.1293v-16.68z"/><path d="m502.77-409.61c0.1486 0.50047 0.1885 1.5542 0.1885 1.5542v6.8392h-3.0273v-7.0246s-0.034-0.56141-0.2543-1.1575c-0.1657-0.45502-0.4802-0.93032-0.7395-1.1913-0.3443-0.34659-0.7442-0.67783-1.2038-0.89562-0.531-0.25138-1.1338-0.36298-1.6982-0.35347-0.6445 0.0114-1.3178 0.21481-1.8857 0.56966-0.3105 0.19396-0.573 0.45265-0.8201 0.70386-0.2685 0.27337-0.5599 0.76144-0.7327 1.2209-0.1828 0.48588-0.2371 0.93621-0.2371 0.93621l-0.028 7.1919h-3.0069v-13.287h3.0069v0.79358s0.5961-0.43625 1.4151-0.74225c0.8227-0.30737 1.8702-0.48447 2.5595-0.42434 0.8084 0.0706 2.0836 0.3165 3.0054 0.78881 0.813 0.4162 1.548 1.0261 2.1133 1.7433 0.6278 0.79661 1.046 1.7622 1.334 2.7347z"/><path d="m447.95-401.3v-18.804l3.9926 0.0114c2.9271 9e-3 4.0412 0.0229 4.174 0.0494 0.1 0.0229 0.3219 0.0608 0.4939 0.0883 0.1714 0.0257 0.4388 0.0877 0.5927 0.13397 0.1543 0.0469 0.3505 0.10541 0.4362 0.13026 0.5696 0.16425 1.6291 0.71888 2.131 1.1158 0.3437 0.27195 1.089 0.99075 1.2775 1.2326 1.0401 1.3339 1.5294 2.6251 1.8179 4.7954 0.3214 2.4192-0.04 5.2888-0.8898 7.0508-0.3919 0.81301-0.8295 1.4153-1.5043 2.0704-0.6618 0.64227-1.1155 0.96532-1.9347 1.3776-0.3928 0.19767-0.8413 0.36718-1.3338 0.50364-0.1713 0.0477-0.335 0.0957-0.3622 0.10626-0.028 0.0114-0.06 0.02-0.068 0.0143 0-1e-3 -0.1886 0.0306-0.3951 0.0683-0.3693 0.0708-3.7007 0.0728-3.7007 0.0728zm8.0678-3.4351c0.5473-0.12768 0.6584-0.16682 1.0538-0.37021 0.2256-0.11654 0.5079-0.28422 0.6255-0.37286 0.8533-0.64225 1.4112-1.566 1.6269-2.6926 0.028-0.1414 0.071-0.35345 0.097-0.47125 0.2114-0.92416 0.2285-2.7181 0.037-3.8693-0.2085-1.2465-0.4413-1.8852-0.9261-2.5396-0.2514-0.34124-0.5264-0.60733-0.9666-0.93998-0.1629-0.12254-0.7276-0.3976-1.021-0.49667-0.6224-0.21024-0.5322-0.20367-2.9885-0.2151l-2.2473-0.0114v12.059l2.231-0.0114c1.9827-0.0114 2.2584-0.02 2.4781-0.0694z"/><path d="m482.48-408.02c0 1.9186-0.6544 3.5323-1.9633 4.8413-1.3089 1.3089-2.9237 1.9634-4.8447 1.9634-1.8868 0-3.4933-0.66341-4.8194-1.9903-1.3088-1.3268-1.9633-2.9316-1.9633-4.8144 0-1.9006 0.6545-3.5054 1.9633-4.8144 1.3089-1.3089 2.9155-1.9634 4.8194-1.9634s3.5104 0.65447 4.8193 1.9634c1.326 1.309 1.9887 2.9137 1.9887 4.8144zm-3.0725 0.058c0-1.0221-0.4742-2.1022-1.1881-2.7656-0.7138-0.68135-1.6728-1.0301-2.5909-1.0301-0.9349 0-1.9316 0.39832-2.6286 1.0797-0.697 0.66344-1.0812 1.6218-1.0812 2.6438 0 1.04 0.4291 2.0586 1.1261 2.7221 0.697 0.64547 1.7211 1.0756 2.656 1.0756 0.9181 0 1.8211-0.37858 2.5352-1.0422 0.7139-0.68135 1.1715-1.6792 1.1715-2.6834zm-6.0051-7.9785h-3.0102v-3.026h3.0102zm7.5374 0h-3.0309v-3.026h3.0309z"/></g></g></svg>