<?xml version="1.0" encoding="UTF-8"?>
<svg xmlns="http://www.w3.org/2000/svg" xmlns:xlink="http://www.w3.org/1999/xlink" width="99pt" height="150pt" viewBox="0 0 99 150" version="1.1">
<defs>
<clipPath id="clip1">
  <rect width="99" height="150"/>
</clipPath>
<g id="surface7" clip-path="url(#clip1)">
<path style=" stroke:none;fill-rule:evenodd;fill:rgb(100%,100%,100%);fill-opacity:1;" d="M 6.183594 1.707031 C 3.65625 1.707031 1.628906 3.75 1.628906 6.292969 L 1.628906 143.585938 C 1.628906 146.125 3.65625 148.167969 6.183594 148.167969 L 92.757812 148.167969 C 95.28125 148.167969 97.3125 146.125 97.3125 143.585938 L 97.3125 6.292969 C 97.3125 3.75 95.28125 1.707031 92.757812 1.707031 Z M 6.183594 3.402344 L 92.757812 3.402344 C 94.390625 3.402344 95.679688 4.699219 95.679688 6.34375 L 95.679688 143.636719 C 95.679688 145.277344 94.390625 146.574219 92.757812 146.574219 L 6.183594 146.574219 C 4.550781 146.574219 3.261719 145.277344 3.261719 143.636719 L 3.261719 6.34375 C 3.261719 4.699219 4.550781 3.402344 6.183594 3.402344 Z M 6.183594 3.402344 "/>
</g>
<clipPath id="clip2">
  <rect width="99" height="150"/>
</clipPath>
<g id="surface10" clip-path="url(#clip2)">
<path style=" stroke:none;fill-rule:evenodd;fill:rgb(100%,100%,100%);fill-opacity:1;" d="M 9.894531 118.367188 L 11.824219 118.367188 C 11.824219 118.367188 12.371094 119.964844 12.765625 120.710938 C 13.210938 121.507812 14.351562 123.003906 14.351562 123.003906 L 12.914062 124.546875 C 12.914062 124.546875 12.519531 124.050781 12.023438 124.300781 C 11.527344 124.597656 11.578125 125.046875 11.578125 125.046875 C 11.578125 125.046875 11.726562 125.792969 11.925781 126.09375 C 12.417969 126.890625 13.90625 127.988281 13.90625 127.988281 C 13.90625 127.988281 15.585938 129.632812 16.328125 130.527344 C 17.222656 131.625 18.707031 134.015625 18.707031 134.015625 C 18.707031 134.015625 19.199219 134.515625 19.792969 134.714844 C 20.042969 134.765625 20.390625 134.8125 20.6875 134.765625 C 21.03125 134.664062 21.378906 134.515625 21.378906 134.515625 C 21.378906 134.515625 21.429688 134.117188 21.429688 133.867188 C 21.429688 133.71875 21.429688 133.269531 21.429688 133.269531 C 21.429688 133.269531 21.429688 133.167969 21.429688 133.167969 C 21.429688 133.121094 21.476562 133.070312 21.476562 133.070312 L 22.515625 132.074219 C 22.515625 132.074219 24.449219 132.820312 25.339844 133.320312 C 26.082031 133.71875 27.46875 134.765625 27.46875 134.765625 L 27.121094 137.058594 L 26.429688 137.058594 L 26.429688 137.355469 C 26.429688 137.355469 26.773438 137.605469 27.070312 138.054688 C 27.320312 138.402344 27.566406 138.902344 27.617188 139.199219 C 27.714844 139.5 27.714844 140.046875 27.664062 140.496094 C 27.617188 140.894531 27.46875 141.191406 27.46875 141.191406 C 27.46875 141.191406 27.269531 141.691406 26.972656 142.140625 C 26.773438 142.4375 26.429688 142.6875 26.179688 142.835938 C 25.785156 143.085938 25.089844 143.234375 24.546875 143.285156 C 24.003906 143.335938 23.605469 143.234375 23.605469 143.234375 C 23.605469 143.234375 23.210938 143.136719 23.0625 143.085938 C 22.566406 142.886719 21.824219 142.488281 21.28125 142.191406 C 20.933594 141.992188 20.636719 141.890625 20.636719 141.890625 C 20.636719 141.890625 19.546875 141.492188 18.160156 141.292969 C 16.875 141.09375 15.339844 141.09375 14.351562 141.191406 C 13.507812 141.292969 12.269531 141.542969 11.230469 141.941406 C 9.992188 142.390625 9.054688 142.988281 9.054688 142.988281 L 8.558594 142.140625 C 8.558594 142.140625 9.398438 141.492188 10.738281 140.992188 C 11.875 140.59375 13.359375 140.296875 14.300781 140.195312 C 15.339844 140.097656 16.875 140.046875 18.210938 140.246094 C 19.695312 140.445312 20.933594 140.894531 20.933594 140.894531 C 20.933594 140.894531 21.378906 141.042969 21.875 141.292969 C 22.320312 141.542969 22.8125 141.890625 23.210938 141.992188 C 23.410156 142.039062 23.804688 142.140625 23.804688 142.140625 C 23.804688 142.140625 24.101562 142.191406 24.449219 142.140625 C 24.695312 142.140625 24.941406 142.089844 25.191406 142.039062 C 25.339844 141.992188 25.488281 141.992188 25.585938 141.941406 C 25.683594 141.890625 25.882812 141.789062 26.03125 141.640625 C 26.28125 141.390625 26.476562 140.992188 26.476562 140.992188 C 26.476562 140.992188 26.625 140.695312 26.726562 140.347656 C 26.773438 139.945312 26.773438 139.5 26.675781 139.199219 C 26.578125 138.949219 26.378906 138.550781 26.128906 138.300781 C 25.832031 138.003906 25.535156 137.855469 25.535156 137.855469 C 25.535156 137.855469 24.398438 138.152344 23.804688 138.203125 C 23.210938 138.253906 21.972656 138.203125 21.972656 138.203125 C 21.972656 138.203125 16.824219 137.355469 12.46875 132.421875 C 11.28125 131.078125 10.242188 129.382812 9.597656 127.886719 C 8.707031 125.894531 8.707031 125.496094 8.410156 124.300781 C 8.261719 123.800781 8.113281 123.300781 8.113281 122.804688 C 8.113281 122.40625 8.164062 121.957031 8.261719 121.507812 C 8.359375 121.160156 8.609375 120.710938 8.707031 120.511719 C 8.953125 119.914062 9.992188 119.117188 9.992188 119.117188 Z M 9.894531 118.367188 "/>
</g>
<clipPath id="clip3">
  <rect width="99" height="150"/>
</clipPath>
<g id="surface13" clip-path="url(#clip3)">
<path style=" stroke:none;fill-rule:evenodd;fill:rgb(100%,100%,100%);fill-opacity:1;" d="M 16.476562 16.707031 L 82.265625 16.707031 L 82.265625 83.234375 L 16.476562 83.234375 Z M 16.476562 16.707031 "/>
</g>
<clipPath id="clip4">
  <rect width="99" height="150"/>
</clipPath>
<g id="surface16" clip-path="url(#clip4)">
<path style=" stroke:none;fill-rule:evenodd;fill:rgb(100%,100%,100%);fill-opacity:1;" d="M 2.519531 113.984375 L 96.273438 113.984375 L 96.273438 115.628906 L 2.519531 115.628906 Z M 2.519531 113.984375 "/>
</g>
</defs>
<g id="surface1">
<path style=" stroke:none;fill-rule:evenodd;fill:rgb(0%,25.098039%,54.901961%);fill-opacity:1;" d="M 5.835938 0.0117188 L 93.152344 0.0117188 C 96.371094 0.0117188 98.996094 2.65625 98.996094 5.894531 L 98.996094 144.132812 C 98.996094 147.371094 96.371094 150.011719 93.152344 150.011719 L 5.835938 150.011719 C 2.617188 150.011719 -0.00390625 147.371094 -0.00390625 144.132812 L -0.00390625 5.894531 C -0.00390625 2.65625 2.617188 0.0117188 5.835938 0.0117188 Z M 5.835938 0.0117188 "/>
<use xlink:href="#surface7"/>
<use xlink:href="#surface10"/>
<use xlink:href="#surface13"/>
<use xlink:href="#surface16"/>
<path style=" stroke:none;fill-rule:nonzero;fill:rgb(100%,100%,100%);fill-opacity:1;" d="M 47.503906 137.351562 L 45.273438 137.351562 L 45.273438 129.125 L 45.152344 129.0625 C 45.152344 129.0625 44.40625 129.5 43.976562 129.625 C 43.480469 129.75 42.550781 129.8125 42.550781 129.8125 L 42.550781 127.566406 C 42.550781 127.566406 42.984375 127.503906 43.480469 127.378906 C 43.851562 127.257812 44.222656 127.007812 44.46875 126.757812 C 44.71875 126.507812 45.027344 126.070312 45.152344 125.636719 C 45.273438 125.199219 45.273438 124.824219 45.273438 124.824219 L 47.503906 124.824219 Z M 47.503906 137.351562 "/>
<path style=" stroke:none;fill-rule:nonzero;fill:rgb(100%,100%,100%);fill-opacity:1;" d="M 64.847656 136.171875 C 64.484375 136.476562 64.058594 136.660156 63.574219 136.84375 C 63.148438 137.027344 62.785156 137.148438 62.296875 137.210938 C 61.875 137.273438 61.265625 137.332031 60.78125 137.273438 C 59.808594 137.148438 58.898438 136.90625 57.988281 136.597656 C 57.441406 136.355469 56.410156 135.683594 56.410156 135.683594 L 57.746094 133.847656 C 57.746094 133.847656 58.230469 134.214844 59.019531 134.582031 C 59.628906 134.828125 60.417969 135.011719 60.839844 135.011719 C 61.628906 135.070312 62.664062 135.011719 63.210938 134.582031 C 63.390625 134.460938 63.574219 134.339844 63.695312 134.214844 C 63.9375 133.910156 64.121094 133.421875 64.121094 132.992188 C 64.121094 132.566406 63.875 132.136719 63.574219 131.832031 C 63.453125 131.710938 63.269531 131.585938 63.148438 131.527344 C 62.90625 131.40625 62.664062 131.28125 62.421875 131.222656 C 62.054688 131.097656 61.628906 131.039062 61.265625 131.097656 C 60.902344 131.097656 60.355469 131.160156 59.871094 131.28125 C 59.261719 131.40625 58.839844 131.648438 58.839844 131.648438 L 56.957031 130.121094 L 57.441406 124.804688 L 65.394531 124.804688 L 65.394531 127.066406 L 59.507812 127.066406 L 59.324219 129.082031 C 59.324219 129.082031 59.628906 129.019531 60.050781 128.898438 C 60.539062 128.835938 61.085938 128.777344 61.449219 128.777344 C 61.691406 128.777344 61.996094 128.777344 62.238281 128.835938 C 62.785156 128.898438 63.390625 129.082031 63.875 129.328125 C 64.121094 129.449219 64.421875 129.570312 64.667969 129.753906 C 65.03125 130 65.332031 130.367188 65.636719 130.671875 C 65.757812 130.792969 65.820312 130.976562 65.941406 131.160156 C 66.246094 131.832031 66.488281 132.625 66.367188 133.359375 C 66.304688 133.726562 66.246094 134.09375 66.121094 134.398438 C 66 134.703125 65.820312 134.949219 65.699219 135.253906 C 65.457031 135.558594 65.152344 135.867188 64.847656 136.171875 Z M 64.847656 136.171875 "/>
<path style=" stroke:none;fill-rule:nonzero;fill:rgb(100%,100%,100%);fill-opacity:1;" d="M 73.539062 126.195312 C 74.019531 125.773438 74.617188 125.46875 75.21875 125.289062 C 75.996094 124.988281 76.777344 124.804688 77.554688 124.804688 C 78.996094 124.804688 80.195312 125.167969 81.214844 126.011719 C 81.515625 126.253906 81.875 126.617188 82.113281 126.980469 C 82.355469 127.402344 82.59375 128.367188 82.59375 128.367188 L 82.59375 131.808594 C 82.59375 131.808594 82.472656 132.835938 81.996094 133.863281 C 81.695312 134.585938 81.09375 135.371094 80.675781 135.792969 C 79.835938 136.699219 78.457031 137.304688 77.316406 137.242188 C 76.835938 137.242188 75.996094 137.0625 75.398438 136.761719 C 74.496094 136.277344 73.957031 135.613281 73.957031 135.613281 L 75.699219 134.222656 C 75.699219 134.222656 75.9375 134.585938 76.417969 134.828125 C 76.898438 135.070312 77.675781 135.128906 78.214844 134.886719 C 78.574219 134.707031 79.175781 134.222656 79.59375 133.621094 C 80.074219 132.894531 80.253906 132.171875 80.253906 132.171875 C 80.253906 132.171875 79.835938 132.414062 79.234375 132.535156 C 78.695312 132.714844 78.214844 132.773438 77.675781 132.773438 C 77.375 132.773438 77.136719 132.773438 76.71875 132.714844 C 75.699219 132.535156 74.378906 132.109375 73.597656 131.445312 C 72.878906 130.84375 72.398438 129.878906 72.398438 128.972656 C 72.339844 127.945312 72.820312 126.917969 73.539062 126.195312 Z M 74.859375 128.730469 C 74.859375 128.851562 74.859375 129.03125 74.917969 129.152344 C 74.976562 129.332031 75.097656 129.453125 75.15625 129.574219 C 75.277344 129.757812 75.457031 129.878906 75.636719 129.996094 C 75.757812 130.058594 75.816406 130.117188 75.9375 130.179688 C 76.476562 130.421875 76.835938 130.601562 77.617188 130.601562 C 78.15625 130.601562 78.695312 130.480469 79.175781 130.300781 C 79.234375 130.300781 79.296875 130.238281 79.355469 130.179688 C 79.414062 130.117188 79.476562 130.117188 79.535156 130.058594 C 79.65625 129.996094 79.714844 129.9375 79.835938 129.878906 C 79.894531 129.757812 80.074219 129.636719 80.136719 129.515625 C 80.253906 129.273438 80.316406 129.03125 80.316406 128.789062 C 80.316406 128.550781 80.136719 128.308594 80.015625 128.066406 C 79.894531 127.886719 79.65625 127.765625 79.535156 127.644531 C 79.054688 127.339844 78.457031 127.160156 77.675781 127.160156 C 76.898438 127.160156 76.296875 127.28125 75.816406 127.582031 C 75.335938 127.765625 74.917969 128.246094 74.859375 128.730469 Z M 74.859375 128.730469 "/>
<path style=" stroke:none;fill-rule:nonzero;fill:rgb(100%,100%,100%);fill-opacity:1;" d="M 61.671875 94.449219 L 61.671875 102.769531 L 63.007812 102.769531 L 63.007812 94.449219 Z M 61.671875 94.449219 "/>
<path style=" stroke:none;fill-rule:nonzero;fill:rgb(100%,100%,100%);fill-opacity:1;" d="M 66.96875 94.449219 L 66.96875 102.769531 L 68.304688 102.769531 L 68.304688 94.449219 Z M 66.96875 94.449219 "/>
<path style=" stroke:none;fill-rule:nonzero;fill:rgb(100%,100%,100%);fill-opacity:1;" d="M 87.808594 96.789062 L 87.808594 102.769531 L 89.144531 102.769531 L 89.144531 96.789062 Z M 87.808594 96.789062 "/>
<path style=" stroke:none;fill-rule:nonzero;fill:rgb(100%,100%,100%);fill-opacity:1;" d="M 16.972656 102.769531 L 15.140625 102.769531 L 12.46875 98.835938 L 11.875 99.433594 L 11.875 102.769531 L 10.390625 102.769531 L 10.390625 94.449219 L 11.875 94.449219 L 11.875 97.339844 L 14.84375 94.449219 L 16.972656 94.449219 L 13.558594 97.789062 Z M 16.972656 102.769531 "/>
<path style=" stroke:none;fill-rule:nonzero;fill:rgb(100%,100%,100%);fill-opacity:1;" d="M 58.207031 99.78125 C 58.207031 100.578125 57.910156 101.277344 57.316406 101.875 C 56.722656 102.472656 56.027344 102.722656 55.238281 102.722656 C 54.394531 102.722656 53.703125 102.421875 53.15625 101.875 C 52.613281 101.324219 52.316406 100.578125 52.316406 99.78125 C 52.316406 98.933594 52.613281 98.234375 53.15625 97.6875 C 53.703125 97.140625 54.445312 96.839844 55.238281 96.839844 C 56.078125 96.839844 56.769531 97.140625 57.316406 97.6875 C 57.960938 98.234375 58.207031 98.933594 58.207031 99.78125 Z M 56.871094 99.632812 C 56.820312 99.234375 56.621094 98.785156 56.324219 98.535156 C 56.027344 98.285156 55.632812 98.136719 55.238281 98.136719 C 54.839844 98.136719 54.445312 98.335938 54.148438 98.585938 C 53.851562 98.882812 53.652344 99.28125 53.652344 99.679688 C 53.652344 100.078125 53.75 100.527344 54.050781 100.828125 C 54.347656 101.175781 54.890625 101.375 55.335938 101.375 C 55.78125 101.375 56.277344 101.125 56.574219 100.777344 C 56.769531 100.480469 56.917969 100.03125 56.871094 99.632812 Z M 56.871094 99.632812 "/>
<path style=" stroke:none;fill-rule:nonzero;fill:rgb(100%,100%,100%);fill-opacity:1;" d="M 24.746094 102.570312 L 23.410156 102.570312 L 23.410156 102.421875 C 23.410156 102.421875 22.664062 102.671875 22.269531 102.722656 C 21.773438 102.769531 21.28125 102.722656 20.835938 102.570312 C 20.488281 102.421875 20.09375 102.273438 19.746094 102.023438 C 19.597656 101.921875 19.449219 101.773438 19.347656 101.625 C 19.199219 101.425781 19.152344 101.226562 19.101562 100.976562 C 19.101562 100.679688 19.152344 100.328125 19.347656 100.128906 C 19.746094 99.679688 20.390625 99.332031 21.03125 99.183594 C 21.28125 99.132812 21.527344 99.082031 21.726562 99.082031 C 21.972656 99.035156 22.367188 99.082031 22.664062 99.183594 C 23.0625 99.28125 23.359375 99.382812 23.359375 99.382812 C 23.359375 99.382812 23.410156 99.183594 23.359375 99.035156 C 23.308594 98.882812 23.261719 98.683594 23.160156 98.585938 C 22.960938 98.335938 22.617188 98.1875 22.320312 98.085938 C 22.21875 98.035156 22.070312 98.035156 21.972656 98.035156 C 21.824219 98.035156 21.675781 98.035156 21.578125 98.035156 C 21.328125 98.035156 21.082031 98.085938 20.882812 98.136719 C 20.242188 98.285156 19.894531 98.433594 19.894531 98.433594 L 19.347656 97.238281 C 19.347656 97.238281 19.792969 97.039062 20.390625 96.890625 C 20.882812 96.789062 21.476562 96.691406 21.824219 96.691406 C 22.515625 96.742188 23.261719 96.890625 23.753906 97.339844 C 24.25 97.789062 24.597656 98.386719 24.597656 99.082031 L 24.597656 102.570312 Z M 23.359375 100.925781 C 23.359375 100.925781 23.113281 100.726562 22.765625 100.578125 C 22.46875 100.480469 22.121094 100.429688 21.875 100.429688 C 21.675781 100.429688 21.28125 100.480469 20.984375 100.628906 C 20.636719 100.777344 20.4375 100.925781 20.4375 100.925781 C 20.4375 100.925781 20.585938 101.078125 20.933594 101.226562 C 21.230469 101.324219 21.625 101.425781 21.875 101.425781 C 22.121094 101.425781 22.46875 101.375 22.765625 101.277344 C 23.113281 101.125 23.359375 100.925781 23.359375 100.925781 Z M 23.359375 100.925781 "/>
<path style=" stroke:none;fill-rule:nonzero;fill:rgb(100%,100%,100%);fill-opacity:1;" d="M 40.238281 102.570312 L 38.902344 102.570312 L 38.902344 102.421875 C 38.902344 102.421875 38.160156 102.671875 37.761719 102.722656 C 37.269531 102.769531 36.773438 102.722656 36.328125 102.570312 C 35.980469 102.421875 35.585938 102.273438 35.238281 102.023438 C 35.089844 101.921875 34.941406 101.773438 34.84375 101.625 C 34.695312 101.425781 34.644531 101.226562 34.59375 100.976562 C 34.59375 100.679688 34.644531 100.328125 34.84375 100.128906 C 35.238281 99.679688 35.882812 99.332031 36.527344 99.183594 C 36.773438 99.132812 37.019531 99.082031 37.21875 99.082031 C 37.464844 99.035156 37.863281 99.082031 38.160156 99.183594 C 38.554688 99.28125 38.851562 99.382812 38.851562 99.382812 C 38.851562 99.382812 38.902344 99.183594 38.851562 99.035156 C 38.804688 98.882812 38.753906 98.683594 38.65625 98.585938 C 38.457031 98.335938 38.109375 98.1875 37.8125 98.085938 C 37.714844 98.035156 37.566406 98.035156 37.464844 98.035156 C 37.316406 98.035156 37.167969 98.035156 37.070312 98.035156 C 36.824219 98.035156 36.574219 98.085938 36.378906 98.136719 C 35.734375 98.285156 35.386719 98.433594 35.386719 98.433594 L 34.84375 97.238281 C 34.84375 97.238281 35.289062 97.039062 35.882812 96.890625 C 36.378906 96.789062 36.972656 96.691406 37.316406 96.691406 C 38.011719 96.742188 38.753906 96.890625 39.25 97.339844 C 39.742188 97.789062 40.089844 98.386719 40.089844 99.082031 Z M 38.851562 100.925781 C 38.851562 100.925781 38.605469 100.726562 38.257812 100.578125 C 37.960938 100.480469 37.613281 100.429688 37.367188 100.429688 C 37.167969 100.429688 36.773438 100.480469 36.476562 100.628906 C 36.128906 100.777344 35.933594 100.925781 35.933594 100.925781 C 35.933594 100.925781 36.082031 101.078125 36.425781 101.226562 C 36.722656 101.324219 37.121094 101.425781 37.367188 101.425781 C 37.613281 101.425781 37.960938 101.375 38.257812 101.277344 C 38.605469 101.125 38.851562 100.925781 38.851562 100.925781 Z M 38.851562 100.925781 "/>
<path style=" stroke:none;fill-rule:nonzero;fill:rgb(100%,100%,100%);fill-opacity:1;" d="M 77.066406 102.570312 L 75.730469 102.570312 L 75.730469 102.421875 C 75.730469 102.421875 74.988281 102.671875 74.589844 102.722656 C 74.097656 102.769531 73.601562 102.722656 73.15625 102.570312 C 72.808594 102.421875 72.414062 102.273438 72.066406 102.023438 C 71.917969 101.921875 71.769531 101.773438 71.671875 101.625 C 71.523438 101.425781 71.472656 101.226562 71.421875 100.976562 C 71.421875 100.679688 71.472656 100.328125 71.671875 100.128906 C 72.066406 99.679688 72.710938 99.332031 73.355469 99.183594 C 73.601562 99.132812 73.847656 99.082031 74.046875 99.082031 C 74.292969 99.035156 74.691406 99.082031 74.988281 99.183594 C 75.382812 99.28125 75.679688 99.382812 75.679688 99.382812 C 75.679688 99.382812 75.730469 99.183594 75.679688 99.035156 C 75.628906 98.882812 75.582031 98.683594 75.480469 98.585938 C 75.285156 98.335938 74.9375 98.1875 74.640625 98.085938 C 74.542969 98.035156 74.394531 98.035156 74.292969 98.035156 C 74.144531 98.035156 73.996094 98.035156 73.898438 98.035156 C 73.652344 98.035156 73.402344 98.085938 73.207031 98.136719 C 72.5625 98.285156 72.214844 98.433594 72.214844 98.433594 L 71.671875 97.238281 C 71.671875 97.238281 72.117188 97.039062 72.710938 96.890625 C 73.207031 96.789062 73.800781 96.691406 74.144531 96.691406 C 74.839844 96.742188 75.582031 96.890625 76.078125 97.339844 C 76.570312 97.789062 76.917969 98.386719 76.917969 99.082031 L 76.917969 102.570312 Z M 75.679688 100.925781 C 75.679688 100.925781 75.433594 100.726562 75.085938 100.578125 C 74.789062 100.480469 74.441406 100.429688 74.195312 100.429688 C 73.996094 100.429688 73.601562 100.480469 73.304688 100.628906 C 72.957031 100.777344 72.761719 100.925781 72.761719 100.925781 C 72.761719 100.925781 72.910156 101.078125 73.253906 101.226562 C 73.550781 101.324219 73.949219 101.425781 74.195312 101.425781 C 74.441406 101.425781 74.789062 101.375 75.085938 101.277344 C 75.433594 101.125 75.679688 100.925781 75.679688 100.925781 Z M 75.679688 100.925781 "/>
<path style=" stroke:none;fill-rule:nonzero;fill:rgb(100%,100%,100%);fill-opacity:1;" d="M 49.792969 96.789062 L 46.625 104.316406 C 46.625 104.316406 46.425781 104.566406 46.128906 104.765625 C 45.832031 104.964844 45.484375 105.0625 45.238281 105.0625 C 44.941406 105.0625 44.542969 105.0625 44.199219 104.863281 C 43.851562 104.664062 43.554688 104.367188 43.554688 104.367188 L 44.644531 103.367188 C 44.644531 103.367188 44.742188 103.46875 44.84375 103.519531 C 44.941406 103.566406 45.039062 103.566406 45.089844 103.566406 C 45.140625 103.566406 45.238281 103.519531 45.289062 103.46875 C 45.386719 103.417969 45.4375 103.320312 45.4375 103.320312 L 45.734375 102.769531 L 44.890625 100.777344 L 43.207031 96.789062 L 44.644531 96.789062 L 46.523438 101.175781 L 48.40625 96.789062 Z M 49.792969 96.789062 "/>
<path style=" stroke:none;fill-rule:nonzero;fill:rgb(100%,100%,100%);fill-opacity:1;" d="M 32.960938 97.390625 L 32.167969 98.433594 C 32.167969 98.433594 31.972656 98.285156 31.675781 98.1875 C 31.425781 98.136719 31.03125 98.136719 30.832031 98.234375 C 30.636719 98.335938 30.339844 98.535156 30.191406 98.785156 C 29.992188 99.035156 29.992188 99.332031 29.992188 99.332031 L 29.992188 102.820312 L 28.65625 102.820312 L 28.65625 96.992188 L 29.992188 96.992188 L 29.992188 97.191406 C 29.992188 97.191406 30.191406 97.089844 30.4375 96.992188 C 30.683594 96.890625 31.03125 96.839844 31.277344 96.839844 C 31.527344 96.839844 31.921875 96.890625 32.21875 96.992188 C 32.664062 97.089844 32.960938 97.390625 32.960938 97.390625 Z M 32.960938 97.390625 "/>
<path style=" stroke:none;fill-rule:nonzero;fill:rgb(100%,100%,100%);fill-opacity:1;" d="M 85.332031 97.390625 L 84.539062 98.433594 C 84.539062 98.433594 84.34375 98.285156 84.046875 98.1875 C 83.796875 98.136719 83.402344 98.136719 83.203125 98.234375 C 83.007812 98.335938 82.710938 98.535156 82.5625 98.785156 C 82.363281 99.035156 82.363281 99.332031 82.363281 99.332031 L 82.363281 102.820312 L 81.027344 102.820312 L 81.027344 96.992188 L 82.363281 96.992188 L 82.363281 97.191406 C 82.363281 97.191406 82.5625 97.089844 82.808594 96.992188 C 83.054688 96.890625 83.402344 96.839844 83.648438 96.839844 C 83.898438 96.839844 84.292969 96.890625 84.589844 96.992188 C 84.988281 97.089844 85.332031 97.390625 85.332031 97.390625 Z M 85.332031 97.390625 "/>
<path style=" stroke:none;fill-rule:nonzero;fill:rgb(92.156863%,40%,3.137255%);fill-opacity:1;" d="M 77.5625 50.347656 C 77.5625 66.042969 64.9375 78.800781 49.347656 78.800781 C 33.753906 78.800781 21.132812 66.042969 21.132812 50.347656 C 21.132812 34.648438 33.753906 21.890625 49.347656 21.890625 C 64.9375 21.890625 77.5625 34.597656 77.5625 50.347656 "/>
<path style=" stroke:none;fill-rule:nonzero;fill:rgb(11.372549%,11.372549%,10.588235%);fill-opacity:1;" d="M 68.601562 69.980469 L 66.125 62.007812 L 50.878906 62.007812 L 51.03125 77.902344 C 50.484375 77.953125 49.941406 77.953125 49.394531 77.953125 C 48.902344 77.953125 48.355469 77.953125 47.863281 77.902344 L 48.058594 62.007812 L 32.566406 62.007812 L 30.089844 69.878906 C 27.8125 67.589844 25.933594 64.898438 24.546875 61.957031 L 30.832031 61.957031 L 31.527344 60.3125 L 66.96875 60.3125 L 67.660156 61.957031 L 74.195312 61.957031 C 72.808594 64.945312 70.878906 67.6875 68.601562 69.980469 M 44.84375 23.085938 L 36.527344 49.449219 L 48.207031 49.449219 L 48.554688 22.738281 C 48.800781 22.738281 49.097656 22.738281 49.347656 22.738281 C 49.742188 22.738281 50.136719 22.738281 50.484375 22.789062 L 50.730469 49.5 L 62.214844 49.5 L 54.097656 23.1875 C 66.917969 25.480469 76.671875 36.789062 76.671875 50.394531 C 76.671875 50.644531 76.671875 50.894531 76.671875 51.144531 L 22.023438 51.144531 C 22.023438 50.894531 22.023438 50.644531 22.023438 50.394531 C 22.023438 36.640625 31.921875 25.277344 44.84375 23.085938 M 49.394531 21.042969 C 33.40625 21.042969 20.390625 34.199219 20.390625 50.296875 C 20.390625 66.390625 33.40625 79.546875 49.394531 79.546875 C 65.382812 79.546875 78.402344 66.390625 78.402344 50.296875 C 78.402344 34.199219 65.382812 21.042969 49.394531 21.042969 "/>
<path style=" stroke:none;fill-rule:nonzero;fill:rgb(100%,100%,100%);fill-opacity:1;" d="M 39.199219 55.628906 L 41.675781 53.335938 L 42.269531 53.335938 L 42.269531 52.140625 L 39.296875 52.140625 L 39.296875 53.335938 L 39.84375 53.335938 L 37.863281 55.230469 L 37.863281 53.335938 L 38.605469 53.335938 L 38.605469 52.140625 L 35.636719 52.140625 L 35.636719 53.335938 L 36.425781 53.335938 L 36.425781 58.070312 L 35.636719 58.070312 L 35.636719 59.265625 L 38.605469 59.265625 L 38.605469 58.070312 L 37.863281 58.070312 L 37.863281 56.027344 L 39.941406 58.070312 L 39.347656 58.070312 L 39.347656 59.265625 L 42.417969 59.265625 L 42.417969 58.070312 L 41.773438 58.070312 Z M 39.199219 55.628906 "/>
<path style=" stroke:none;fill-rule:nonzero;fill:rgb(100%,100%,100%);fill-opacity:1;" d="M 47.515625 56.675781 L 50.089844 56.675781 C 49.742188 57.472656 49 57.96875 48.109375 57.96875 C 46.871094 57.96875 45.882812 56.972656 45.882812 55.679688 C 45.882812 54.382812 46.871094 53.386719 48.160156 53.386719 C 48.902344 53.386719 49.496094 53.683594 49.941406 54.28125 L 51.476562 54.28125 L 51.476562 52.089844 L 50.285156 52.089844 L 50.285156 52.6875 C 49.644531 52.140625 48.949219 51.890625 48.109375 51.890625 C 47.117188 51.890625 46.128906 52.339844 45.4375 53.035156 C 44.792969 53.734375 44.445312 54.632812 44.445312 55.628906 C 44.445312 57.671875 46.128906 59.367188 48.160156 59.367188 C 49.148438 59.367188 49.988281 58.96875 50.535156 58.269531 L 50.535156 59.265625 L 51.773438 59.265625 L 51.773438 55.429688 L 47.5625 55.429688 L 47.5625 56.675781 Z M 47.515625 56.675781 "/>
<path style=" stroke:none;fill-rule:nonzero;fill:rgb(100%,100%,100%);fill-opacity:1;" d="M 63.453125 53.335938 L 63.453125 52.140625 L 60.730469 52.140625 L 58.851562 57.023438 L 56.96875 52.140625 L 54.246094 52.140625 L 54.246094 53.335938 L 54.988281 53.335938 L 54.988281 58.070312 L 54.246094 58.070312 L 54.246094 59.265625 L 57.265625 59.265625 L 57.265625 58.070312 L 56.425781 58.070312 L 56.425781 54.28125 L 58.355469 59.265625 L 59.394531 59.265625 L 61.226562 54.28125 L 61.226562 58.070312 L 60.484375 58.070312 L 60.484375 59.265625 L 63.453125 59.265625 L 63.453125 58.070312 L 62.660156 58.070312 L 62.660156 53.335938 Z M 63.453125 53.335938 "/>
</g>
</svg>
