<svg width="99pt" height="150pt" version="1.1" viewBox="0 0 99 150" xmlns="http://www.w3.org/2000/svg" xmlns:ns1="http://www.w3.org/1999/xlink"><defs><clipPath id="h"><rect width="99" height="150"/></clipPath><g id="a" clip-path="url(#h)"><path d="m6.1836 1.707c-2.5273 0-4.5547 2.043-4.5547 4.5859v137.29c0 2.5391 2.0273 4.582 4.5547 4.582h86.574c2.5234 0 4.5547-2.043 4.5547-4.582v-137.29c0-2.543-2.0312-4.5859-4.5547-4.5859zm0 1.6953h86.574c1.6328 0 2.9219 1.2969 2.9219 2.9414v137.29c0 1.6406-1.2891 2.9375-2.9219 2.9375h-86.574c-1.6328 0-2.9219-1.2969-2.9219-2.9375v-137.29c0-1.6445 1.2891-2.9414 2.9219-2.9414z" fill="#fff" fill-rule="evenodd"/></g><clipPath id="g"><rect width="99" height="150"/></clipPath><g id="d" clip-path="url(#g)"><path d="m9.8945 118.37h1.9297s0.54688 1.5977 0.94141 2.3438c0.44531 0.79687 1.5859 2.293 1.5859 2.293l-1.4375 1.543s-0.39453-0.49609-0.89062-0.24609c-0.49609 0.29688-0.44531 0.74609-0.44531 0.74609s0.14844 0.74609 0.34766 1.0469c0.49219 0.79688 1.9805 1.8945 1.9805 1.8945s1.6797 1.6445 2.4219 2.5391c0.89453 1.0977 2.3789 3.4883 2.3789 3.4883s0.49219 0.5 1.0859 0.69922c0.25 0.050781 0.59766 0.097656 0.89453 0.050781 0.34375-0.10156 0.69141-0.25 0.69141-0.25s0.050782-0.39844 0.050782-0.64844v-0.59766-0.10156c0-0.046875 0.046874-0.097657 0.046874-0.097657l1.0391-0.99609s1.9336 0.74609 2.8242 1.2461c0.74219 0.39844 2.1289 1.4453 2.1289 1.4453l-0.34766 2.293h-0.69141v0.29688s0.34375 0.25 0.64062 0.69922c0.25 0.34766 0.49609 0.84766 0.54688 1.1445 0.097656 0.30078 0.097656 0.84766 0.046874 1.2969-0.046874 0.39844-0.19531 0.69531-0.19531 0.69531s-0.19922 0.5-0.49609 0.94922c-0.19922 0.29688-0.54297 0.54688-0.79297 0.69531-0.39453 0.25-1.0898 0.39844-1.6328 0.44922-0.54297 0.050782-0.94141-0.050781-0.94141-0.050781s-0.39453-0.097656-0.54297-0.14844c-0.49609-0.19922-1.2383-0.59766-1.7812-0.89453-0.34766-0.19922-0.64453-0.30078-0.64453-0.30078s-1.0898-0.39844-2.4766-0.59766c-1.2852-0.19922-2.8203-0.19922-3.8086-0.10156-0.84375 0.10156-2.082 0.35156-3.1211 0.75-1.2383 0.44922-2.1758 1.0469-2.1758 1.0469l-0.49609-0.84766s0.83984-0.64844 2.1797-1.1484c1.1367-0.39844 2.6211-0.69531 3.5625-0.79688 1.0391-0.097656 2.5742-0.14844 3.9102 0.050782 1.4844 0.19922 2.7227 0.64844 2.7227 0.64844s0.44531 0.14844 0.94141 0.39844c0.44531 0.25 0.9375 0.59766 1.3359 0.69922 0.19922 0.046874 0.59375 0.14844 0.59375 0.14844s0.29687 0.050781 0.64453 0c0.24609 0 0.49219-0.050781 0.74219-0.10156 0.14844-0.046874 0.29688-0.046874 0.39453-0.097656 0.097656-0.050781 0.29687-0.15234 0.44531-0.30078 0.25-0.25 0.44531-0.64844 0.44531-0.64844s0.14844-0.29688 0.25-0.64453c0.046876-0.40234 0.046876-0.84766-0.050781-1.1484-0.097656-0.25-0.29688-0.64844-0.54688-0.89844-0.29688-0.29688-0.59375-0.44531-0.59375-0.44531s-1.1367 0.29688-1.7305 0.34766-1.832 0-1.832 0-5.1484-0.84766-9.5039-5.7812c-1.1875-1.3438-2.2266-3.0391-2.8711-4.5352-0.89062-1.9922-0.89062-2.3906-1.1875-3.5859-0.14844-0.5-0.29688-1-0.29688-1.4961 0-0.39844 0.050781-0.84766 0.14844-1.2969 0.097656-0.34766 0.34766-0.79687 0.44531-0.99609 0.24609-0.59766 1.2852-1.3945 1.2852-1.3945z" fill="#fff" fill-rule="evenodd"/></g><clipPath id="f"><rect width="99" height="150"/></clipPath><g id="c" clip-path="url(#f)"><path d="m16.477 16.707h65.789v66.527h-65.789z" fill="#fff" fill-rule="evenodd"/></g><clipPath id="e"><rect width="99" height="150"/></clipPath><g id="b" clip-path="url(#e)"><path d="m2.5195 113.98h93.754v1.6445h-93.754z" fill="#fff" fill-rule="evenodd"/></g></defs><path d="m5.8359 0.011719h87.316c3.2188 0 5.8438 2.6445 5.8438 5.8828v138.24c0 3.2383-2.625 5.8789-5.8438 5.8789h-87.316c-3.2188 0-5.8398-2.6406-5.8398-5.8789v-138.24c0-3.2383 2.6211-5.8828 5.8398-5.8828z" fill="#003f8c" fill-rule="evenodd"/><use xlink:href="#a"/><use xlink:href="#d"/><use xlink:href="#c"/><use xlink:href="#b"/><g fill="#fff"><path d="m47.504 137.35h-2.2305v-8.2266l-0.12109-0.0625s-0.74609 0.4375-1.1758 0.5625c-0.49609 0.125-1.4258 0.1875-1.4258 0.1875v-2.2461s0.43359-0.0625 0.92969-0.1875c0.37109-0.12109 0.74219-0.37109 0.98828-0.62109 0.25-0.25 0.55859-0.6875 0.68359-1.1211 0.12109-0.4375 0.12109-0.8125 0.12109-0.8125h2.2305z"/><path d="m64.848 136.17c-0.36328 0.30469-0.78906 0.48828-1.2734 0.67188-0.42578 0.18359-0.78906 0.30469-1.2773 0.36719-0.42188 0.0625-1.0312 0.12109-1.5156 0.0625-0.97266-0.125-1.8828-0.36719-2.793-0.67578-0.54688-0.24219-1.5781-0.91406-1.5781-0.91406l1.3359-1.8359s0.48438 0.36719 1.2734 0.73438c0.60938 0.24609 1.3984 0.42969 1.8203 0.42969 0.78906 0.058593 1.8242 0 2.3711-0.42969 0.17969-0.12109 0.36328-0.24219 0.48437-0.36719 0.24219-0.30469 0.42578-0.79297 0.42578-1.2227 0-0.42578-0.24609-0.85547-0.54688-1.1602-0.12109-0.12109-0.30469-0.24609-0.42578-0.30469-0.24219-0.12109-0.48438-0.24609-0.72656-0.30469-0.36719-0.125-0.79297-0.18359-1.1562-0.125-0.36328 0-0.91016 0.0625-1.3945 0.18359-0.60938 0.125-1.0312 0.36719-1.0312 0.36719l-1.8828-1.5273 0.48438-5.3164h7.9531v2.2617h-5.8867l-0.18359 2.0156s0.30469-0.0625 0.72656-0.18359c0.48828-0.0625 1.0352-0.12109 1.3984-0.12109 0.24219 0 0.54688 0 0.78906 0.058594 0.54688 0.0625 1.1523 0.24609 1.6367 0.49219 0.24609 0.12109 0.54688 0.24219 0.79297 0.42578 0.36328 0.24609 0.66406 0.61328 0.96875 0.91797 0.12109 0.12109 0.18359 0.30469 0.30469 0.48828 0.30469 0.67188 0.54688 1.4648 0.42578 2.1992-0.0625 0.36719-0.12109 0.73438-0.24609 1.0391-0.12109 0.30469-0.30078 0.55078-0.42188 0.85547-0.24219 0.30469-0.54688 0.61328-0.85156 0.91797z"/><path d="m73.539 126.2c0.48047-0.42187 1.0781-0.72656 1.6797-0.90625 0.77734-0.30078 1.5586-0.48437 2.3359-0.48437 1.4414 0 2.6406 0.36328 3.6602 1.207 0.30078 0.24219 0.66016 0.60547 0.89844 0.96875 0.24219 0.42188 0.48047 1.3867 0.48047 1.3867v3.4414s-0.12109 1.0273-0.59766 2.0547c-0.30078 0.72266-0.90234 1.5078-1.3203 1.9297-0.83984 0.90625-2.2188 1.5117-3.3594 1.4492-0.48047 0-1.3203-0.17969-1.918-0.48047-0.90234-0.48438-1.4414-1.1484-1.4414-1.1484l1.7422-1.3906s0.23828 0.36328 0.71875 0.60547 1.2578 0.30078 1.7969 0.058594c0.35938-0.17969 0.96094-0.66406 1.3789-1.2656 0.48047-0.72656 0.66016-1.4492 0.66016-1.4492s-0.41797 0.24219-1.0195 0.36328c-0.53906 0.17969-1.0195 0.23828-1.5586 0.23828-0.30078 0-0.53906 0-0.95703-0.058594-1.0195-0.17969-2.3398-0.60547-3.1211-1.2695-0.71875-0.60156-1.1992-1.5664-1.1992-2.4727-0.058594-1.0273 0.42187-2.0547 1.1406-2.7773zm1.3203 2.5352c0 0.12109 0 0.30078 0.058594 0.42188 0.058593 0.17969 0.17969 0.30078 0.23828 0.42188 0.12109 0.18359 0.30078 0.30469 0.48047 0.42188 0.12109 0.0625 0.17969 0.12109 0.30078 0.18359 0.53906 0.24219 0.89844 0.42187 1.6797 0.42187 0.53906 0 1.0781-0.12109 1.5586-0.30078 0.058594 0 0.12109-0.0625 0.17969-0.12109 0.058593-0.0625 0.12109-0.0625 0.17969-0.12109 0.12109-0.0625 0.17969-0.12109 0.30078-0.17969 0.058593-0.12109 0.23828-0.24219 0.30078-0.36328 0.11719-0.24219 0.17969-0.48438 0.17969-0.72656 0-0.23828-0.17969-0.48047-0.30078-0.72266-0.12109-0.17969-0.35938-0.30078-0.48047-0.42188-0.48047-0.30469-1.0781-0.48438-1.8594-0.48438-0.77734 0-1.3789 0.12109-1.8594 0.42188-0.48047 0.18359-0.89844 0.66406-0.95703 1.1484z"/><path d="m61.672 94.449v8.3203h1.3359v-8.3203z"/><path d="m66.969 94.449v8.3203h1.3359v-8.3203z"/><path d="m87.809 96.789v5.9805h1.3359v-5.9805z"/><path d="m16.973 102.77h-1.832l-2.6719-3.9336-0.59375 0.59766v3.3359h-1.4844v-8.3203h1.4844v2.8906l2.9688-2.8906h2.1289l-3.4141 3.3398z"/><path d="m58.207 99.781c0 0.79688-0.29688 1.4961-0.89062 2.0938s-1.2891 0.84766-2.0781 0.84766c-0.84375 0-1.5352-0.30078-2.082-0.84766-0.54297-0.55078-0.83984-1.2969-0.83984-2.0938 0-0.84766 0.29688-1.5469 0.83984-2.0938 0.54688-0.54688 1.2891-0.84766 2.082-0.84766 0.83984 0 1.5312 0.30078 2.0781 0.84766 0.64453 0.54688 0.89062 1.2461 0.89062 2.0938zm-1.3359-0.14844c-0.050782-0.39844-0.25-0.84766-0.54688-1.0977s-0.69141-0.39844-1.0859-0.39844c-0.39844 0-0.79297 0.19922-1.0898 0.44922-0.29688 0.29687-0.49609 0.69531-0.49609 1.0938 0 0.39844 0.097656 0.84766 0.39844 1.1484 0.29688 0.34766 0.83984 0.54688 1.2852 0.54688 0.44531 0 0.94141-0.25 1.2383-0.59766 0.19531-0.29688 0.34375-0.74609 0.29688-1.1445z"/><path d="m24.746 102.57h-1.3359v-0.14844s-0.74609 0.25-1.1406 0.30078c-0.49609 0.046875-0.98828 0-1.4336-0.15234-0.34766-0.14844-0.74219-0.29687-1.0898-0.54687-0.14844-0.10156-0.29688-0.25-0.39844-0.39844-0.14844-0.19922-0.19531-0.39844-0.24609-0.64844 0-0.29687 0.050782-0.64844 0.24609-0.84766 0.39844-0.44922 1.043-0.79688 1.6836-0.94531 0.25-0.050782 0.49609-0.10156 0.69531-0.10156 0.24609-0.046875 0.64063 0 0.9375 0.10156 0.39844 0.097656 0.69531 0.19922 0.69531 0.19922s0.050781-0.19922 0-0.34766c-0.050781-0.15234-0.097656-0.35156-0.19922-0.44922-0.19922-0.25-0.54297-0.39844-0.83984-0.5-0.10156-0.050782-0.25-0.050782-0.34766-0.050782h-0.39453c-0.25 0-0.49609 0.050782-0.69531 0.10156-0.64062 0.14844-0.98828 0.29688-0.98828 0.29688l-0.54688-1.1953s0.44531-0.19922 1.043-0.34766c0.49219-0.10156 1.0859-0.19922 1.4336-0.19922 0.69141 0.050782 1.4375 0.19922 1.9297 0.64844 0.49609 0.44922 0.84375 1.0469 0.84375 1.7422v3.4883zm-1.3867-1.6445s-0.24609-0.19922-0.59375-0.34766c-0.29688-0.097656-0.64453-0.14844-0.89062-0.14844-0.19922 0-0.59375 0.050781-0.89062 0.19922-0.34766 0.14844-0.54688 0.29688-0.54688 0.29688s0.14844 0.15234 0.49609 0.30078c0.29688 0.097657 0.69141 0.19922 0.94141 0.19922 0.24609 0 0.59375-0.050781 0.89062-0.14844 0.34766-0.15234 0.59375-0.35156 0.59375-0.35156z"/><path d="m40.238 102.57h-1.3359v-0.14844s-0.74219 0.25-1.1406 0.30078c-0.49219 0.046875-0.98828 0-1.4336-0.15234-0.34766-0.14844-0.74219-0.29687-1.0898-0.54687-0.14844-0.10156-0.29688-0.25-0.39453-0.39844-0.14844-0.19922-0.19922-0.39844-0.25-0.64844 0-0.29687 0.050781-0.64844 0.25-0.84766 0.39453-0.44922 1.0391-0.79688 1.6836-0.94531 0.24609-0.050782 0.49219-0.10156 0.69141-0.10156 0.24609-0.046875 0.64453 0 0.94141 0.10156 0.39453 0.097656 0.69141 0.19922 0.69141 0.19922s0.050782-0.19922 0-0.34766c-0.046874-0.15234-0.097656-0.35156-0.19531-0.44922-0.19922-0.25-0.54688-0.39844-0.84375-0.5-0.097656-0.050782-0.24609-0.050782-0.34766-0.050782h-0.39453c-0.24609 0-0.49609 0.050782-0.69141 0.10156-0.64453 0.14844-0.99219 0.29688-0.99219 0.29688l-0.54297-1.1953s0.44531-0.19922 1.0391-0.34766c0.49609-0.10156 1.0898-0.19922 1.4336-0.19922 0.69531 0.050782 1.4375 0.19922 1.9336 0.64844 0.49219 0.44922 0.83984 1.0469 0.83984 1.7422zm-1.3867-1.6445s-0.24609-0.19922-0.59375-0.34766c-0.29687-0.097656-0.64453-0.14844-0.89062-0.14844-0.19922 0-0.59375 0.050781-0.89063 0.19922-0.34766 0.14844-0.54297 0.29688-0.54297 0.29688s0.14844 0.15234 0.49219 0.30078c0.29688 0.097657 0.69531 0.19922 0.94141 0.19922 0.24609 0 0.59375-0.050781 0.89062-0.14844 0.34766-0.15234 0.59375-0.35156 0.59375-0.35156z"/><path d="m77.066 102.57h-1.3359v-0.14844s-0.74219 0.25-1.1406 0.30078c-0.49219 0.046875-0.98828 0-1.4336-0.15234-0.34766-0.14844-0.74219-0.29687-1.0898-0.54687-0.14844-0.10156-0.29688-0.25-0.39453-0.39844-0.14844-0.19922-0.19922-0.39844-0.25-0.64844 0-0.29687 0.050781-0.64844 0.25-0.84766 0.39453-0.44922 1.0391-0.79688 1.6836-0.94531 0.24609-0.050782 0.49219-0.10156 0.69141-0.10156 0.24609-0.046875 0.64453 0 0.94141 0.10156 0.39453 0.097656 0.69141 0.19922 0.69141 0.19922s0.050781-0.19922 0-0.34766c-0.050782-0.15234-0.097657-0.35156-0.19922-0.44922-0.19531-0.25-0.54297-0.39844-0.83984-0.5-0.097656-0.050782-0.24609-0.050782-0.34766-0.050782h-0.39453c-0.24609 0-0.49609 0.050782-0.69141 0.10156-0.64453 0.14844-0.99219 0.29688-0.99219 0.29688l-0.54297-1.1953s0.44531-0.19922 1.0391-0.34766c0.49609-0.10156 1.0898-0.19922 1.4336-0.19922 0.69531 0.050782 1.4375 0.19922 1.9336 0.64844 0.49219 0.44922 0.83984 1.0469 0.83984 1.7422v3.4883zm-1.3867-1.6445s-0.24609-0.19922-0.59375-0.34766c-0.29688-0.097656-0.64453-0.14844-0.89063-0.14844-0.19922 0-0.59375 0.050781-0.89062 0.19922-0.34766 0.14844-0.54297 0.29688-0.54297 0.29688s0.14844 0.15234 0.49219 0.30078c0.29688 0.097657 0.69531 0.19922 0.94141 0.19922 0.24609 0 0.59375-0.050781 0.89063-0.14844 0.34766-0.15234 0.59375-0.35156 0.59375-0.35156z"/><path d="m49.793 96.789-3.168 7.5273s-0.19922 0.25-0.49609 0.44922-0.64453 0.29688-0.89062 0.29688c-0.29688 0-0.69531 0-1.0391-0.19922-0.34766-0.19922-0.64453-0.49609-0.64453-0.49609l1.0898-1s0.097657 0.10156 0.19922 0.15234c0.097656 0.046875 0.19531 0.046875 0.24609 0.046875 0.050781 0 0.14844-0.046875 0.19922-0.097656 0.097657-0.050781 0.14844-0.14844 0.14844-0.14844l0.29688-0.55078-0.84375-1.9922-1.6836-3.9883h1.4375l1.8789 4.3867 1.8828-4.3867z"/><path d="m32.961 97.391-0.79297 1.043s-0.19531-0.14844-0.49219-0.24609c-0.25-0.050781-0.64453-0.050781-0.84375 0.046875-0.19531 0.10156-0.49219 0.30078-0.64062 0.55078-0.19922 0.25-0.19922 0.54688-0.19922 0.54688v3.4883h-1.3359v-5.8281h1.3359v0.19922s0.19922-0.10156 0.44531-0.19922c0.24609-0.10156 0.59375-0.15234 0.83984-0.15234 0.25 0 0.64453 0.050781 0.94141 0.15234 0.44531 0.097656 0.74219 0.39844 0.74219 0.39844z"/><path d="m85.332 97.391-0.79297 1.043s-0.19531-0.14844-0.49219-0.24609c-0.25-0.050781-0.64453-0.050781-0.84375 0.046875-0.19531 0.10156-0.49219 0.30078-0.64062 0.55078-0.19922 0.25-0.19922 0.54688-0.19922 0.54688v3.4883h-1.3359v-5.8281h1.3359v0.19922s0.19922-0.10156 0.44531-0.19922c0.24609-0.10156 0.59375-0.15234 0.83984-0.15234 0.25 0 0.64453 0.050781 0.94141 0.15234 0.39844 0.097656 0.74219 0.39844 0.74219 0.39844z"/></g><path d="m77.562 50.348c0 15.695-12.625 28.453-28.215 28.453-15.594 0-28.215-12.758-28.215-28.453 0-15.699 12.621-28.457 28.215-28.457 15.59 0 28.215 12.707 28.215 28.457" fill="#eb6608"/><path d="m68.602 69.98-2.4766-7.9727h-15.246l0.15234 15.895c-0.54688 0.050781-1.0898 0.050781-1.6367 0.050781-0.49219 0-1.0391 0-1.5312-0.050781l0.19531-15.895h-15.492l-2.4766 7.8711c-2.2773-2.2891-4.1562-4.9805-5.543-7.9219h6.2852l0.69531-1.6445h35.441l0.69141 1.6445h6.5352c-1.3867 2.9883-3.3164 5.7305-5.5938 8.0234m-23.758-46.895-8.3164 26.363h11.68l0.34766-26.711h0.79297c0.39453 0 0.78906 0 1.1367 0.050781l0.24609 26.711h11.484l-8.1172-26.312c12.82 2.293 22.574 13.602 22.574 27.207v0.75h-54.648v-0.75c0-13.754 9.8984-25.117 22.82-27.309m4.5508-2.043c-15.988 0-29.004 13.156-29.004 29.254 0 16.094 13.016 29.25 29.004 29.25s29.008-13.156 29.008-29.25c0-16.098-13.02-29.254-29.008-29.254" fill="#1c1c1a"/><g fill="#fff"><path d="m39.199 55.629 2.4766-2.293h0.59375v-1.1953h-2.9727v1.1953h0.54688l-1.9805 1.8945v-1.8945h0.74219v-1.1953h-2.9688v1.1953h0.78906v4.7344h-0.78906v1.1953h2.9688v-1.1953h-0.74219v-2.043l2.0781 2.043h-0.59375v1.1953h3.0703v-1.1953h-0.64453z"/><path d="m47.516 56.676h2.5742c-0.34766 0.79688-1.0898 1.293-1.9805 1.293-1.2383 0-2.2266-0.99609-2.2266-2.2891 0-1.2969 0.98828-2.293 2.2773-2.293 0.74219 0 1.3359 0.29688 1.7812 0.89453h1.5352v-2.1914h-1.1914v0.59766c-0.64062-0.54688-1.3359-0.79688-2.1758-0.79688-0.99219 0-1.9805 0.44922-2.6719 1.1445-0.64453 0.69922-0.99219 1.5977-0.99219 2.5938 0 2.043 1.6836 3.7383 3.7148 3.7383 0.98828 0 1.8281-0.39844 2.375-1.0977v0.99609h1.2383v-3.8359h-4.2109v1.2461z"/><path d="m63.453 53.336v-1.1953h-2.7227l-1.8789 4.8828-1.8828-4.8828h-2.7227v1.1953h0.74219v4.7344h-0.74219v1.1953h3.0195v-1.1953h-0.83984v-3.7891l1.9297 4.9844h1.0391l1.832-4.9844v3.7891h-0.74219v1.1953h2.9688v-1.1953h-0.79297v-4.7344z"/></g></svg>