<svg width="103mm" height="30.28mm" version="1.1" viewBox="0 0 103 30.28" xmlns="http://www.w3.org/2000/svg"><g transform="translate(-178.3 -28.71)"><path d="m266.2 28.81h-87.77v30.08h87.77l15.07-15.06z" fill="#73332e" fill-rule="evenodd" style="paint-order:stroke fill markers"/><g fill="#fff"><path d="m182.5 29.81c-1.697 7e-6 -3.063 1.366-3.063 3.063v21.93c0 1.697 1.366 3.063 3.063 3.063l83.28-3.39e-4 14.06-14.04-14.06-14.02zm-0.0334 1.015h80.71l10.02 13-10.02 13.04h-80.71c-1.11 0-2.003-0.8935-2.003-2.003v-22.03c0-1.11 0.8935-2.003 2.003-2.003z" fill-rule="evenodd" style="paint-order:stroke fill markers"/><path d="m185.9 45.21s-1.506 2.018-1.506 4.525 1.506 4.525 1.506 4.525h1.284s-1.826-2.018-1.826-4.525 1.826-4.525 1.826-4.525z" stroke-width=".2717"/><path d="m242.9 45.21s1.506 2.018 1.506 4.525-1.506 4.525-1.506 4.525h-1.284s1.826-2.018 1.826-4.525-1.826-4.525-1.826-4.525z" stroke-width=".2717"/><path d="m198.2 34.82v6.253h3.136c0.3236 0 0.644-0.08711 0.9614-0.2613 0.2862-0.1556 0.4751-0.3765 0.6431-0.6627 0.1742-0.2924 0.2689-0.6892 0.2689-1.006-3e-3 -0.3338-0.1389-0.6471-0.2941-0.9344-0.0889-0.1646-0.3552-0.4346-0.3552-0.4346s0.3923-0.4962 0.3923-1.118c0-0.6347-0.375-1.294-0.9412-1.611-0.2613-0.1493-0.6222-0.224-1.083-0.224zm1.128 1.129h1.818c0.3822 0 0.69 0.3077 0.69 0.6899s-0.3078 0.6899-0.69 0.6899h-1.818zm0.0188 2.497h1.984c0.4177 0 0.754 0.3363 0.754 0.754s-0.3362 0.754-0.754 0.754h-1.984z"/><path d="m206.6 50.61c0 0.6203-0.2207 1.15-0.662 1.589-0.4343 0.4388-0.9632 0.6583-1.587 0.6583-0.4678 0-0.8817-0.1209-1.241-0.3625-2e-3 -0.0014-5e-3 2.108-5e-3 2.108h-1s-5e-3 -3.372-5e-3 -3.992c0-0.626 5e-3 -2.252 5e-3 -2.252h0.9999s5e-3 0.3584 6e-3 0.3571c0.3593-0.2406 0.7723-0.361 1.239-0.361 0.6235 0 1.152 0.2195 1.587 0.6583 0.4413 0.4388 0.662 0.9713 0.662 1.597zm-1.02-0.1138c-0.0273-0.3125-0.1917-0.6312-0.4272-0.8385-0.2211-0.1944-0.5374-0.3053-0.8318-0.2972-0.3028 0.0084-0.6202 0.1415-0.8376 0.3526-0.2217 0.2153-0.3676 0.5348-0.385 0.8434-0.0173 0.3042 0.0777 0.6444 0.2837 0.8689 0.2398 0.2614 0.6248 0.4233 0.9794 0.416 0.3477-0.0072 0.715-0.1843 0.9425-0.4474 0.2048-0.2368 0.303-0.5859 0.276-0.8977z"/><path d="m230.7 39.8c-4e-3 0.2317-0.0521 0.4402-0.1539 0.6311-0.0696 0.1304-0.1571 0.2576-0.3002 0.3583-0.073 0.05022-0.1611 0.07339-0.2488 0.09878-0.0912 0.02646-0.1827 0.0544-0.2876 0.07596-0.2818 0.05804-0.6069 0.1081-0.9365 0.1115-0.7628-0.01175-1.431-0.1388-2.066-0.4697l0.4447-0.8975c0.5448 0.2896 1.105 0.3533 1.593 0.3592 0.1317 0 0.3264-0.0092 0.4878-0.03182 0.1504-0.02106 0.4454-0.09647 0.4454-0.09647s0.0175-0.05218 0.0204-0.07924c3e-3 -0.02695-1e-3 -0.06035-4e-3 -0.08129-2e-3 -0.02501-7e-3 -0.05254-0.023-0.07179-0.0275-0.03249-0.0502-0.07215-0.0873-0.09307-0.0765-0.04323-0.1728-0.05955-0.26-0.08679-0.2197-0.06842-0.4421-0.1279-0.663-0.1922-0.1309-0.03807-0.2618-0.07614-0.3926-0.1146-0.0841-0.02473-0.1682-0.04926-0.252-0.07472-0.1778-0.05404-0.3626-0.09009-0.5322-0.1659-0.1197-0.05352-0.2639-0.1334-0.3378-0.2016-0.2436-0.2364-0.3892-0.4737-0.4246-0.7624-0.0411-0.3357 0.0709-0.7485 0.2651-0.9793 0.0728-0.08661 0.1334-0.1513 0.2194-0.2003 0.1022-0.0583 0.2236-0.07375 0.3375-0.1031 0.1631-0.04199 0.3276-0.08014 0.4943-0.104 0.2257-0.03238 0.4773-0.05307 0.682-0.05307 0.6282 0 1.196 0.1241 1.729 0.3536l-0.3829 0.9206c-0.3552-0.1662-0.9684-0.272-1.466-0.2785-0.2924-0.0035-0.8657 0.1414-0.8657 0.1414s-0.0267 0.05946-0.0272 0.09112c-1e-3 0.05777 6e-3 0.124 0.0444 0.1677 0.096 0.1109 0.2668 0.1231 0.405 0.1722 0.113 0.04009 0.2305 0.06593 0.3456 0.09916 0.2017 0.0583 0.4058 0.121 0.6047 0.1758 0.368 0.1014 0.8992 0.1923 1.211 0.4981 0.2288 0.2247 0.3756 0.4457 0.382 0.883z" stroke-width=".02222"/><path d="m194.2 52.83-1.24 0.01358-0.5232-1.236-2.788 0.0049-0.4954 1.226-1.198-0.0081 2.49-6.24h1.261zm-2.165-2.364-0.955-2.393-0.9783 2.407z"/><path d="m222.9 50.58c0-0.6203 0.2207-1.15 0.662-1.589 0.4343-0.4388 0.9632-0.6583 1.587-0.6583 0.4678 0 0.8817 0.1209 1.242 0.3625 2e-3 0.0014 5e-3 -2.108 5e-3 -2.108h1s5e-3 3.372 5e-3 3.992c0 0.626-5e-3 2.252-5e-3 2.252h-0.9999s-5e-3 -0.3584-6e-3 -0.3571c-0.3593 0.2406-0.7723 0.361-1.239 0.361-0.6235 0-1.152-0.2195-1.587-0.6583-0.4413-0.4388-0.662-0.9713-0.662-1.597zm1.02 0.1138c0.0273 0.3125 0.1916 0.6312 0.4272 0.8385 0.2211 0.1944 0.5374 0.3053 0.8318 0.2972 0.3028-0.0084 0.6202-0.1415 0.8376-0.3526 0.2218-0.2153 0.3676-0.5348 0.385-0.8434 0.0173-0.3042-0.0777-0.6444-0.2837-0.8689-0.2398-0.2614-0.6248-0.4233-0.9794-0.416-0.3477 0.0072-0.715 0.1843-0.9425 0.4474-0.2048 0.2368-0.303 0.5859-0.276 0.8977z"/><path d="m199.6 51.55c-4e-3 0.2317-0.0521 0.4402-0.1539 0.6311-0.0696 0.1304-0.1571 0.2576-0.3002 0.3583-0.073 0.05023-0.161 0.07339-0.2488 0.09878-0.0912 0.02646-0.1827 0.0544-0.2876 0.07596-0.2818 0.05804-0.6069 0.1081-0.9365 0.1115-0.7628-0.01175-1.431-0.1388-2.066-0.4697l0.4447-0.8975c0.5448 0.2895 1.105 0.3533 1.593 0.3592 0.1317 0 0.3264-0.0092 0.4878-0.03182 0.1504-0.02106 0.4454-0.09647 0.4454-0.09647s0.0175-0.05218 0.0204-0.07924c3e-3 -0.02695-1e-3 -0.06035-4e-3 -0.08129-2e-3 -0.02501-7e-3 -0.05254-0.023-0.07179-0.0275-0.03249-0.0502-0.07215-0.0873-0.09307-0.0765-0.04323-0.1728-0.05955-0.26-0.08679-0.2197-0.06842-0.4421-0.1279-0.663-0.1922-0.1309-0.03807-0.2618-0.07614-0.3926-0.1146-0.0841-0.02473-0.1682-0.04925-0.252-0.07472-0.1778-0.05404-0.3626-0.09009-0.5322-0.1659-0.1197-0.05352-0.2639-0.1334-0.3378-0.2016-0.2436-0.2364-0.3892-0.4737-0.4246-0.7624-0.0411-0.3357 0.0709-0.7485 0.2651-0.9793 0.0729-0.08661 0.1334-0.1513 0.2194-0.2003 0.1022-0.0583 0.2236-0.07374 0.3375-0.1031 0.163-0.04199 0.3276-0.08014 0.4943-0.104 0.2257-0.03239 0.4773-0.05307 0.682-0.05307 0.6282 0 1.196 0.1241 1.729 0.3536l-0.3828 0.9206c-0.3552-0.1662-0.9684-0.272-1.466-0.2785-0.2924-0.0035-0.8656 0.1414-0.8656 0.1414s-0.0267 0.05946-0.0272 0.09112c-1e-3 0.05777 7e-3 0.124 0.0444 0.1677 0.0961 0.1109 0.2668 0.1231 0.405 0.1722 0.113 0.04009 0.2305 0.06593 0.3456 0.09916 0.2017 0.0583 0.4058 0.121 0.6047 0.1758 0.368 0.1014 0.8992 0.1923 1.211 0.4981 0.2288 0.2247 0.3756 0.4457 0.382 0.883z" stroke-width=".02222"/><path d="m240.5 51.55c-4e-3 0.2317-0.0521 0.4402-0.1539 0.6311-0.0696 0.1304-0.1571 0.2576-0.3002 0.3583-0.073 0.05023-0.1611 0.07339-0.2488 0.09878-0.0912 0.02646-0.1827 0.0544-0.2876 0.07596-0.2818 0.05804-0.6069 0.1081-0.9365 0.1115-0.7628-0.01175-1.431-0.1388-2.066-0.4697l0.4447-0.8975c0.5448 0.2895 1.105 0.3533 1.593 0.3592 0.1317 0 0.3264-0.0092 0.4878-0.03182 0.1504-0.02106 0.4454-0.09647 0.4454-0.09647s0.0175-0.05218 0.0204-0.07924c3e-3 -0.02695-1e-3 -0.06035-4e-3 -0.08129-2e-3 -0.02501-7e-3 -0.05254-0.023-0.07179-0.0274-0.03249-0.0502-0.07215-0.0873-0.09307-0.0765-0.04323-0.1728-0.05955-0.26-0.08679-0.2197-0.06842-0.4421-0.1279-0.663-0.1922-0.1309-0.03807-0.2618-0.07614-0.3926-0.1146-0.084-0.02473-0.1682-0.04925-0.252-0.07472-0.1778-0.05404-0.3626-0.09009-0.5322-0.1659-0.1197-0.05352-0.2639-0.1334-0.3378-0.2016-0.2436-0.2364-0.3892-0.4737-0.4246-0.7624-0.0411-0.3357 0.0709-0.7485 0.2651-0.9793 0.0729-0.08661 0.1334-0.1513 0.2194-0.2003 0.1022-0.0583 0.2236-0.07374 0.3375-0.1031 0.163-0.04199 0.3276-0.08014 0.4943-0.104 0.2257-0.03239 0.4773-0.05307 0.682-0.05307 0.6282 0 1.196 0.1241 1.729 0.3536l-0.3828 0.9206c-0.3552-0.1662-0.9684-0.272-1.466-0.2785-0.2924-0.0035-0.8656 0.1414-0.8656 0.1414s-0.0267 0.05946-0.0272 0.09112c-1e-3 0.05777 7e-3 0.124 0.0444 0.1677 0.096 0.1109 0.2668 0.1231 0.405 0.1722 0.113 0.04009 0.2305 0.06593 0.3456 0.09916 0.2017 0.0583 0.4058 0.121 0.6047 0.1758 0.368 0.1014 0.8992 0.1923 1.211 0.4981 0.2288 0.2247 0.3756 0.4457 0.382 0.883z" stroke-width=".02222"/><path d="m207.9 36.59a2.236 2.236 0 0 0-2.23 2.235 2.236 2.236 0 0 0 2.236 2.236 2.236 2.236 0 0 0 1.489-0.568l-0.6636-0.7421a1.24 1.24 0 0 1-0.825 0.3145 1.24 1.24 0 0 1-1.134-0.7382h3.314a2.236 2.236 0 0 0 0.0574-0.502 2.236 2.236 0 0 0-2.235-2.235 2.236 2.236 0 0 0-6e-3 0zm0 0.9956a1.24 1.24 0 0 1 7e-3 0 1.24 1.24 0 0 1 1.138 0.7471h-2.276a1.24 1.24 0 0 1 1.131-0.7471z"/><path d="m211 48.35a2.236 2.236 0 0 0-2.23 2.235 2.236 2.236 0 0 0 2.236 2.236 2.236 2.236 0 0 0 1.489-0.568l-0.6636-0.7421a1.24 1.24 0 0 1-0.825 0.3145 1.24 1.24 0 0 1-1.134-0.7382h3.314a2.236 2.236 0 0 0 0.0574-0.502 2.236 2.236 0 0 0-2.235-2.235 2.236 2.236 0 0 0-6e-3 0zm0 0.9956a1.24 1.24 0 0 1 8e-3 0 1.24 1.24 0 0 1 1.138 0.7471h-2.276a1.24 1.24 0 0 1 1.131-0.7471z"/><path d="m220.2 50.09c0.0481 0.1625 0.0617 0.5047 0.0617 0.5047v2.221h-0.983v-2.281s-0.0111-0.1823-0.0822-0.3758c-0.0542-0.1478-0.1559-0.3021-0.2401-0.3868-0.1118-0.1126-0.2417-0.2201-0.391-0.2908-0.1724-0.08165-0.3681-0.1179-0.5513-0.1148-0.2093 0.0036-0.4279 0.06972-0.6123 0.185-0.1008 0.06297-0.1861 0.147-0.2663 0.2285-0.0872 0.08874-0.1819 0.2472-0.2379 0.3964-0.0593 0.1578-0.0775 0.304-0.0775 0.304l-6e-3 2.335h-0.9764v-4.314h0.9764v0.2577s0.1935-0.1416 0.4595-0.241c0.2672-0.09981 0.6073-0.1573 0.8311-0.1378 0.2624 0.02293 0.6765 0.1029 0.9758 0.2561 0.2639 0.1351 0.5027 0.3332 0.6862 0.5661 0.2038 0.2587 0.3397 0.5722 0.4331 0.888z" stroke-width=".04424"/><path d="m232.3 48.33a2.248 2.248 0 0 0-2.242 2.248 2.248 2.248 0 0 0 2.248 2.248 2.248 2.248 0 0 0 2.248-2.248 2.248 2.248 0 0 0-2.248-2.248 2.248 2.248 0 0 0-6e-3 0zm0 1.001a1.247 1.247 0 0 1 7e-3 0 1.247 1.247 0 0 1 1.247 1.247 1.247 1.247 0 0 1-1.247 1.247 1.247 1.247 0 0 1-1.247-1.247 1.247 1.247 0 0 1 1.24-1.247z"/><path d="m259.2 51.6h-1.004v1.258h-1.123v-1.259h-3.633v-1.248l3.254-3.763h1.502v3.888h1.004zm-2.127-1.124-0.01-2.576-2.236 2.573z" stroke-width=".04531"/><path d="m223.3 36.59v4.482h0.9902v-4.482z" stroke-width=".06678"/><path d="m212.7 34.85 1e-3 6.218h0.9902l-1e-3 -6.218z" stroke-width=".06678"/><g transform="matrix(.6994 0 0 .6994 283.4 -245.9)" stroke-width=".01032" aria-label="k"><path d="m-89.42 410.3h-1.768l-2.249-2.995-0.5979 0.5036v2.491h-1.42l1e-6 -8.89h1.42v4.534l2.424-2.049h2.19l-2.933 2.486z" fill="#fff" stroke-width=".01032"/></g></g></g></svg>