<?xml version="1.0" encoding="UTF-8" standalone="no"?>
<svg
   xmlns:dc="http://purl.org/dc/elements/1.1/"
   xmlns:cc="http://creativecommons.org/ns#"
   xmlns:rdf="http://www.w3.org/1999/02/22-rdf-syntax-ns#"
   xmlns:svg="http://www.w3.org/2000/svg"
   xmlns="http://www.w3.org/2000/svg"
   xmlns:sodipodi="http://sodipodi.sourceforge.net/DTD/sodipodi-0.dtd"
   xmlns:inkscape="http://www.inkscape.org/namespaces/inkscape"
   sodipodi:docname="Turkey_road_sign_B-5b.svg"
   inkscape:version="1.0 (4035a4fb49, 2020-05-01)"
   id="svg41547"
   version="1.1"
   viewBox="0 0 103.03753 30.277933"
   height="30.277933mm"
   width="103.03753mm">
  <defs
     id="defs41541" />
  <sodipodi:namedview
     inkscape:window-maximized="1"
     inkscape:window-y="-9"
     inkscape:window-x="-9"
     inkscape:window-height="1001"
     inkscape:window-width="1920"
     showgrid="false"
     inkscape:document-rotation="0"
     inkscape:current-layer="layer1"
     inkscape:document-units="mm"
     inkscape:cy="100.67864"
     inkscape:cx="104.21839"
     inkscape:zoom="1.5758575"
     inkscape:pageshadow="2"
     inkscape:pageopacity="0.0"
     borderopacity="1.0"
     bordercolor="#666666"
     pagecolor="#ffffff"
     id="base" />
  <metadata
     id="metadata41544">
    <rdf:RDF>
      <cc:Work
         rdf:about="">
        <dc:format>image/svg+xml</dc:format>
        <dc:type
           rdf:resource="http://purl.org/dc/dcmitype/StillImage" />
        <dc:title></dc:title>
      </cc:Work>
    </rdf:RDF>
  </metadata>
  <g
     transform="translate(-178.29076,-28.706271)"
     id="layer1"
     inkscape:groupmode="layer"
     inkscape:label="Layer 1">
    <path
       id="rect17196"
       style="opacity:1;fill:#73332e;fill-opacity:1;fill-rule:evenodd;stroke:none;stroke-width:0.2;stroke-linecap:square;stroke-linejoin:round;stroke-miterlimit:2;stroke-dasharray:none;stroke-opacity:1;paint-order:stroke fill markers"
       d="m 266.15679,28.806271 h -87.76603 v 30.077934 h 87.76603 l 15.0715,-15.058229 z"
       sodipodi:nodetypes="cccccc" />
    <path
       id="rect17199"
       style="opacity:1;fill:#ffffff;fill-rule:evenodd;stroke:none;stroke-width:0.507481;stroke-linecap:square;stroke-linejoin:round;stroke-miterlimit:2;paint-order:stroke fill markers"
       d="m 182.45555,29.810764 c -1.69709,7e-6 -3.06335,1.366251 -3.06335,3.06336 V 54.80604 c 0,1.697084 1.36626,3.063348 3.06335,3.063348 L 265.74036,57.869049 279.7967,43.825951 265.74036,29.81094 Z m -0.0334,1.014691 h 80.71079 l 10.01798,13.00032 -10.01798,13.039365 h -80.71079 c -1.10981,0 -2.00329,-0.893461 -2.00329,-2.003301 V 32.828746 c 0,-1.109829 0.89348,-2.003291 2.00329,-2.003291 z"
       sodipodi:nodetypes="csscccccscccssss" />
    <path
       id="rect41366"
       style="opacity:1;fill:#ffffff;stroke-width:0.271719"
       d="m 185.93499,45.209867 c 0,0 -1.50637,2.018019 -1.50637,4.524791 0,2.506769 1.50637,4.524788 1.50637,4.524788 h 1.28364 c 0,0 -1.82625,-2.018019 -1.82625,-4.524788 0,-2.506775 1.82625,-4.524791 1.82625,-4.524791 z" />
    <path
       d="m 242.90127,45.209867 c 0,0 1.50637,2.018016 1.50637,4.524791 0,2.506769 -1.50637,4.524788 -1.50637,4.524788 h -1.28364 c 0,0 1.82625,-2.018019 1.82625,-4.524788 0,-2.506775 -1.82625,-4.524791 -1.82625,-4.524791 z"
       style="opacity:1;fill:#ffffff;stroke-width:0.271719"
       id="path41373" />
    <path
       d="m 198.17535,34.81855 v 6.253428 h 3.13601 c 0.32356,0 0.64401,-0.08711 0.96135,-0.261342 0.28622,-0.155554 0.47512,-0.376484 0.64313,-0.662704 0.17421,-0.292449 0.26892,-0.689151 0.26892,-1.006482 -0.003,-0.333819 -0.13894,-0.647051 -0.29406,-0.93436 -0.0889,-0.164648 -0.35524,-0.434601 -0.35524,-0.434601 0,0 0.39227,-0.496231 0.39227,-1.118461 0,-0.634665 -0.375,-1.294098 -0.94123,-1.611432 -0.26134,-0.149342 -0.62222,-0.224046 -1.08267,-0.224046 z m 1.12799,1.12878 h 1.81775 c 0.3822,0 0.68995,0.307654 0.68995,0.689857 0,0.382203 -0.30775,0.689945 -0.68995,0.689945 h -1.81775 z m 0.0188,2.496943 h 1.98352 c 0.41772,0 0.75396,0.336325 0.75396,0.754049 0,0.417724 -0.33624,0.753956 -0.75396,0.753956 h -1.98352 z"
       style="font-style:normal;font-variant:normal;font-weight:normal;font-stretch:normal;font-size:30px;line-height:1.15;font-family:'Highway Gothic Wide';-inkscape-font-specification:'Highway Gothic Wide';opacity:1;fill:#ffffff;fill-opacity:1;stroke:none;stroke-width:0.0688912;stroke-opacity:1"
       id="path49927" />
    <path
       sodipodi:nodetypes="acssccsccsscsaaaaaaaaaa"
       id="path24097"
       style="font-style:normal;font-variant:normal;font-weight:normal;font-stretch:normal;font-size:47.3331px;line-height:1.15;font-family:'Highway Gothic Wide';-inkscape-font-specification:'Highway Gothic Wide';opacity:1;fill:#ffffff;fill-opacity:1;stroke:none;stroke-width:0.045107;stroke-opacity:1"
       d="m 206.5633,50.606401 c 0,0.62031 -0.2207,1.149823 -0.66204,1.588625 -0.43426,0.438782 -0.96318,0.658276 -1.58669,0.658276 -0.46782,0 -0.88166,-0.120875 -1.24149,-0.362521 -0.002,-0.0014 -0.005,2.107593 -0.005,2.107593 h -0.99996 c 0,0 -0.005,-3.371663 -0.005,-3.991973 0,-0.62604 0.005,-2.25176 0.005,-2.25176 h 0.99993 c 0,0 0.005,0.358447 0.006,0.357138 0.35927,-0.240615 0.77232,-0.36099 1.23919,-0.36099 0.62348,0 1.15238,0.219463 1.58668,0.658283 0.44129,0.438814 0.66198,0.971289 0.66198,1.597329 z m -1.01973,-0.11381 c -0.0273,-0.312512 -0.19166,-0.631208 -0.4272,-0.838454 -0.22109,-0.194366 -0.53743,-0.305315 -0.83177,-0.297194 -0.30279,0.0084 -0.62019,0.141531 -0.8376,0.352552 -0.22174,0.215258 -0.36759,0.534808 -0.38501,0.843354 -0.0173,0.304162 0.0777,0.644409 0.28373,0.868874 0.23978,0.261429 0.62479,0.423344 0.97939,0.415985 0.34771,-0.0072 0.71503,-0.184326 0.94251,-0.447393 0.20477,-0.236833 0.30302,-0.585868 0.27595,-0.897724 z" />
    <path
       sodipodi:nodetypes="cscssccccacasssaaaaacasaaasccacaaaasacc"
       id="path24247"
       style="font-style:normal;font-variant:normal;font-weight:normal;font-stretch:normal;font-size:19.6811px;line-height:1.15;font-family:'Highway Gothic Wide';-inkscape-font-specification:'Highway Gothic Wide';opacity:1;fill:#ffffff;fill-opacity:1;stroke-width:0.0222222"
       d="m 230.68238,39.8004 c -0.004,0.23173 -0.0521,0.440197 -0.15392,0.631053 -0.0696,0.130369 -0.15708,0.25762 -0.30015,0.358345 -0.073,0.05022 -0.16106,0.07339 -0.24882,0.09878 -0.0912,0.02646 -0.18268,0.0544 -0.28763,0.07596 -0.28177,0.05804 -0.6069,0.108059 -0.9365,0.111474 -0.76276,-0.01175 -1.43145,-0.138839 -2.06601,-0.469738 l 0.44466,-0.897491 c 0.54483,0.28955 1.10537,0.353304 1.59251,0.359205 0.13168,0 0.32643,-0.0092 0.4878,-0.03182 0.15044,-0.02106 0.4454,-0.09647 0.4454,-0.09647 0,0 0.0175,-0.05218 0.0204,-0.07924 0.003,-0.02695 -10e-4,-0.06035 -0.004,-0.08129 -0.002,-0.02501 -0.007,-0.05254 -0.023,-0.07179 -0.0275,-0.03249 -0.0502,-0.07215 -0.0873,-0.09307 -0.0765,-0.04323 -0.17279,-0.05955 -0.26003,-0.08679 -0.21968,-0.06842 -0.44208,-0.127918 -0.66303,-0.192194 -0.1309,-0.03807 -0.26181,-0.07614 -0.3926,-0.11461 -0.0841,-0.02473 -0.16817,-0.04926 -0.25199,-0.07472 -0.17779,-0.05404 -0.36255,-0.09009 -0.53222,-0.165879 -0.11974,-0.05352 -0.26386,-0.133428 -0.33783,-0.201617 -0.24357,-0.236357 -0.38922,-0.473713 -0.42459,-0.762448 -0.0411,-0.335682 0.0709,-0.748474 0.2651,-0.979346 0.0728,-0.08661 0.13336,-0.151268 0.21939,-0.200325 0.10218,-0.0583 0.22357,-0.07375 0.33748,-0.103117 0.16306,-0.04199 0.32762,-0.08014 0.49428,-0.104038 0.22571,-0.03238 0.47727,-0.05307 0.682,-0.05307 0.62816,0 1.19625,0.124111 1.72891,0.353636 l -0.38286,0.920591 c -0.35515,-0.166243 -0.96841,-0.272048 -1.46566,-0.278465 -0.29236,-0.0035 -0.86566,0.141415 -0.86566,0.141415 0,0 -0.0267,0.05946 -0.0272,0.09112 -0.001,0.05777 0.006,0.123973 0.0444,0.167682 0.096,0.110878 0.26676,0.123137 0.40502,0.172163 0.11298,0.04009 0.23049,0.06593 0.34564,0.09916 0.20167,0.0583 0.40579,0.121006 0.60469,0.175824 0.36798,0.101403 0.89922,0.192317 1.21051,0.498056 0.22881,0.224713 0.37563,0.445749 0.38205,0.883013 z" />
    <path
       d="m 194.1928,52.833466 -1.2395,0.01358 -0.52315,-1.23589 -2.78785,0.0049 -0.49542,1.225536 -1.19752,-0.0081 2.49043,-6.239895 h 1.26071 z m -2.16509,-2.363601 -0.95504,-2.393421 -0.97834,2.407098 z"
       style="font-style:normal;font-variant:normal;font-weight:normal;font-stretch:normal;font-size:30px;line-height:1.15;font-family:'Highway Gothic Wide';-inkscape-font-specification:'Highway Gothic Wide';opacity:1;fill:#ffffff;fill-opacity:1;stroke:none;stroke-width:0.0451072;stroke-opacity:1"
       id="path137410"
       sodipodi:nodetypes="ccccccccccccc" />
    <path
       d="m 222.9413,50.58032 c 0,-0.620311 0.22069,-1.149823 0.66203,-1.588626 0.43427,-0.438781 0.96318,-0.658276 1.58669,-0.658276 0.46782,0 0.88166,0.120876 1.2415,0.362521 0.002,0.0014 0.005,-2.107593 0.005,-2.107593 h 0.99996 c 0,0 0.005,3.371663 0.005,3.991974 0,0.626039 -0.005,2.251759 -0.005,2.251759 h -0.99994 c 0,0 -0.005,-0.358447 -0.006,-0.357138 -0.35927,0.240616 -0.77232,0.360991 -1.23918,0.360991 -0.62349,0 -1.15239,-0.219463 -1.58669,-0.658284 -0.44129,-0.438813 -0.66198,-0.971289 -0.66198,-1.597328 z m 1.01973,0.113809 c 0.0273,0.312512 0.19165,0.631208 0.42719,0.838454 0.2211,0.194367 0.53744,0.305316 0.83177,0.297195 0.3028,-0.0084 0.62019,-0.141531 0.8376,-0.352552 0.22175,-0.215258 0.3676,-0.534808 0.38501,-0.843355 0.0173,-0.304161 -0.0777,-0.644408 -0.28372,-0.868874 -0.23978,-0.261429 -0.6248,-0.423344 -0.97939,-0.415985 -0.34772,0.0072 -0.71504,0.184327 -0.94251,0.447393 -0.20478,0.236834 -0.30303,0.585869 -0.27595,0.897724 z"
       style="font-style:normal;font-variant:normal;font-weight:normal;font-stretch:normal;font-size:47.3331px;line-height:1.15;font-family:'Highway Gothic Wide';-inkscape-font-specification:'Highway Gothic Wide';opacity:1;fill:#ffffff;fill-opacity:1;stroke:none;stroke-width:0.045107;stroke-opacity:1"
       id="path41408"
       sodipodi:nodetypes="acssccsccsscsaaaaaaaaaa" />
    <path
       d="m 199.63886,51.548388 c -0.004,0.231729 -0.0521,0.440196 -0.15392,0.631052 -0.0696,0.130369 -0.15708,0.25762 -0.30015,0.358345 -0.073,0.05023 -0.16105,0.07339 -0.24882,0.09878 -0.0912,0.02646 -0.18268,0.0544 -0.28762,0.07596 -0.28178,0.05804 -0.60691,0.10806 -0.93651,0.111475 -0.76276,-0.01175 -1.43145,-0.138839 -2.06601,-0.469738 l 0.44466,-0.897491 c 0.54483,0.289549 1.10537,0.353303 1.59251,0.359205 0.13168,0 0.32643,-0.0092 0.4878,-0.03182 0.15044,-0.02106 0.4454,-0.09647 0.4454,-0.09647 0,0 0.0175,-0.05218 0.0204,-0.07924 0.003,-0.02695 -10e-4,-0.06035 -0.004,-0.08129 -0.002,-0.02501 -0.007,-0.05254 -0.023,-0.07179 -0.0275,-0.03249 -0.0502,-0.07215 -0.0873,-0.09307 -0.0765,-0.04323 -0.17279,-0.05955 -0.26002,-0.08679 -0.21969,-0.06842 -0.44208,-0.127917 -0.66304,-0.192193 -0.1309,-0.03807 -0.26181,-0.07614 -0.3926,-0.114611 -0.0841,-0.02473 -0.16816,-0.04925 -0.25199,-0.07472 -0.17779,-0.05404 -0.36255,-0.09009 -0.53222,-0.16588 -0.11974,-0.05352 -0.26386,-0.133428 -0.33783,-0.201616 -0.24357,-0.236358 -0.38922,-0.473714 -0.42459,-0.762448 -0.0411,-0.335682 0.0709,-0.748475 0.2651,-0.979347 0.0729,-0.08661 0.13336,-0.151267 0.21939,-0.200325 0.10218,-0.0583 0.22357,-0.07374 0.33749,-0.103117 0.16305,-0.04199 0.32761,-0.08014 0.49428,-0.104037 0.2257,-0.03239 0.47727,-0.05307 0.68199,-0.05307 0.62816,0 1.19625,0.124111 1.72891,0.353635 l -0.38284,0.920606 c -0.35515,-0.166243 -0.96841,-0.272048 -1.46566,-0.278465 -0.29236,-0.0035 -0.86565,0.141414 -0.86565,0.141414 0,0 -0.0267,0.05946 -0.0272,0.09112 -10e-4,0.05777 0.007,0.123973 0.0444,0.167683 0.0961,0.110877 0.26675,0.123137 0.40502,0.172162 0.11297,0.04009 0.23048,0.06593 0.34563,0.09916 0.20167,0.0583 0.40579,0.121006 0.6047,0.175824 0.36798,0.101403 0.89921,0.192317 1.21051,0.498056 0.2288,0.224712 0.37563,0.445748 0.38204,0.883013 z"
       style="font-style:normal;font-variant:normal;font-weight:normal;font-stretch:normal;font-size:19.6811px;line-height:1.15;font-family:'Highway Gothic Wide';-inkscape-font-specification:'Highway Gothic Wide';opacity:1;fill:#ffffff;fill-opacity:1;stroke-width:0.0222222"
       id="path24247-8"
       sodipodi:nodetypes="cscssccccacasssaaaaacasaaasccacaaaasacc" />
    <path
       sodipodi:nodetypes="cscssccccacasssaaaaacasaaasccacaaaasacc"
       id="path41425"
       style="font-style:normal;font-variant:normal;font-weight:normal;font-stretch:normal;font-size:19.6811px;line-height:1.15;font-family:'Highway Gothic Wide';-inkscape-font-specification:'Highway Gothic Wide';opacity:1;fill:#ffffff;fill-opacity:1;stroke-width:0.0222222"
       d="m 240.49052,51.548388 c -0.004,0.231729 -0.0521,0.440196 -0.15391,0.631052 -0.0696,0.130369 -0.15708,0.25762 -0.30015,0.358345 -0.073,0.05023 -0.16106,0.07339 -0.24883,0.09878 -0.0912,0.02646 -0.18268,0.0544 -0.28762,0.07596 -0.28178,0.05804 -0.60691,0.10806 -0.9365,0.111475 -0.76277,-0.01175 -1.43145,-0.138839 -2.06602,-0.469738 l 0.44466,-0.897491 c 0.54483,0.289549 1.10538,0.353303 1.59252,0.359205 0.13168,0 0.32643,-0.0092 0.4878,-0.03182 0.15044,-0.02106 0.4454,-0.09647 0.4454,-0.09647 0,0 0.0175,-0.05218 0.0204,-0.07924 0.003,-0.02695 -0.001,-0.06035 -0.004,-0.08129 -0.002,-0.02501 -0.007,-0.05254 -0.023,-0.07179 -0.0274,-0.03249 -0.0502,-0.07215 -0.0873,-0.09307 -0.0765,-0.04323 -0.1728,-0.05955 -0.26003,-0.08679 -0.21969,-0.06842 -0.44208,-0.127917 -0.66303,-0.192193 -0.1309,-0.03807 -0.26181,-0.07614 -0.3926,-0.114611 -0.084,-0.02473 -0.16817,-0.04925 -0.25199,-0.07472 -0.17779,-0.05404 -0.36256,-0.09009 -0.53222,-0.16588 -0.11974,-0.05352 -0.26386,-0.133428 -0.33784,-0.201616 -0.24356,-0.236358 -0.38922,-0.473714 -0.42458,-0.762448 -0.0411,-0.335682 0.0709,-0.748475 0.26509,-0.979347 0.0729,-0.08661 0.13337,-0.151267 0.21939,-0.200325 0.10219,-0.0583 0.22358,-0.07374 0.33749,-0.103117 0.16305,-0.04199 0.32762,-0.08014 0.49428,-0.104037 0.2257,-0.03239 0.47727,-0.05307 0.682,-0.05307 0.62816,0 1.19625,0.124111 1.72891,0.353635 l -0.38285,0.920606 c -0.35515,-0.166243 -0.9684,-0.272048 -1.46566,-0.278465 -0.29235,-0.0035 -0.86565,0.141414 -0.86565,0.141414 0,0 -0.0267,0.05946 -0.0272,0.09112 -0.001,0.05777 0.007,0.123973 0.0444,0.167683 0.096,0.110877 0.26675,0.123137 0.40502,0.172162 0.11297,0.04009 0.23048,0.06593 0.34564,0.09916 0.20166,0.0583 0.40579,0.121006 0.60469,0.175824 0.36798,0.101403 0.89922,0.192317 1.21051,0.498056 0.22881,0.224712 0.37563,0.445748 0.38204,0.883013 z" />
    <path
       id="path55558"
       style="opacity:1;fill:#ffffff;fill-opacity:1;stroke:none;stroke-width:0.161191;stroke-opacity:1"
       d="m 207.93761,36.588433 a 2.2356849,2.2356849 0 0 0 -2.22995,2.235489 2.2356849,2.2356849 0 0 0 2.23575,2.235775 2.2356849,2.2356849 0 0 0 1.48866,-0.567958 l -0.66362,-0.742114 a 1.2401331,1.2401331 0 0 1 -0.82504,0.314484 1.2401331,1.2401331 0 0 1 -1.13368,-0.73823 h 0.63255 1.32505 1.35112 0.005 a 2.2356849,2.2356849 0 0 0 0.0574,-0.501957 2.2356849,2.2356849 0 0 0 -2.23547,-2.235489 2.2356849,2.2356849 0 0 0 -0.006,0 z m 0,0.995585 a 1.2401331,1.2401331 0 0 1 0.007,0 1.2401331,1.2401331 0 0 1 1.13786,0.747105 h -2.27573 a 1.2401331,1.2401331 0 0 1 1.13067,-0.747105 z" />
    <path
       d="m 211.03579,48.345942 a 2.2356849,2.2356849 0 0 0 -2.22994,2.235489 2.2356849,2.2356849 0 0 0 2.23574,2.235775 2.2356849,2.2356849 0 0 0 1.48867,-0.567958 l -0.66362,-0.742114 a 1.2401331,1.2401331 0 0 1 -0.82505,0.314484 1.2401331,1.2401331 0 0 1 -1.13367,-0.73823 h 0.63254 1.32506 1.35112 0.005 a 2.2356849,2.2356849 0 0 0 0.0574,-0.501957 2.2356849,2.2356849 0 0 0 -2.23547,-2.235489 2.2356849,2.2356849 0 0 0 -0.006,0 z m 0,0.995584 a 1.2401331,1.2401331 0 0 1 0.008,0 1.2401331,1.2401331 0 0 1 1.13787,0.747106 h -2.27572 a 1.2401331,1.2401331 0 0 1 1.13066,-0.747106 z"
       style="opacity:1;fill:#ffffff;fill-opacity:1;stroke:none;stroke-width:0.161191;stroke-opacity:1"
       id="path41442" />
    <path
       sodipodi:nodetypes="accccsssssssccccccssaaa"
       id="path72412"
       style="font-style:normal;font-variant:normal;font-weight:normal;font-stretch:normal;font-size:30px;line-height:1.15;font-family:'Highway Gothic Wide';-inkscape-font-specification:'Highway Gothic Wide';opacity:1;fill:#ffffff;fill-opacity:1;stroke-width:0.0442365"
       d="m 220.19167,50.08629 c 0.0481,0.162503 0.0617,0.504655 0.0617,0.504655 v 2.220698 h -0.98298 v -2.280906 c 0,0 -0.0111,-0.182294 -0.0822,-0.375832 -0.0542,-0.147761 -0.15593,-0.302073 -0.24014,-0.386842 -0.11184,-0.112589 -0.2417,-0.220095 -0.39096,-0.290809 -0.17236,-0.08165 -0.36811,-0.117852 -0.55133,-0.11479 -0.20928,0.0036 -0.42788,0.06972 -0.61231,0.184972 -0.10077,0.06297 -0.18607,0.146999 -0.26626,0.22854 -0.0872,0.08874 -0.18186,0.247248 -0.2379,0.396437 -0.0593,0.15777 -0.0775,0.304003 -0.0775,0.304003 l -0.006,2.335227 h -0.97637 v -4.314395 h 0.97637 v 0.257669 c 0,0 0.19353,-0.141647 0.45948,-0.241007 0.26716,-0.09981 0.60726,-0.157304 0.8311,-0.137788 0.26242,0.02293 0.67649,0.102866 0.97583,0.256131 0.26393,0.135145 0.50267,0.333184 0.68621,0.566078 0.20384,0.258652 0.33967,0.572177 0.43312,0.887959 z" />
    <path
       id="path55472"
       style="opacity:1;fill:#ffffff;fill-opacity:1;stroke:none;stroke-width:0.162059;stroke-opacity:1"
       d="m 232.26853,48.325502 a 2.2477193,2.2477193 0 0 0 -2.24195,2.247529 2.2477193,2.2477193 0 0 0 2.24777,2.247805 2.2477193,2.2477193 0 0 0 2.24757,-2.247805 2.2477193,2.2477193 0 0 0 -2.24757,-2.247529 2.2477193,2.2477193 0 0 0 -0.006,0 z m 0,1.000943 a 1.2468086,1.2468086 0 0 1 0.007,0 1.2468086,1.2468086 0 0 1 1.24688,1.246586 1.2468086,1.2468086 0 0 1 -1.24688,1.246855 1.2468086,1.2468086 0 0 1 -1.24682,-1.246855 1.2468086,1.2468086 0 0 1 1.23959,-1.246586 z" />
    <path
       sodipodi:nodetypes="cccccccccccccccc"
       id="path15827"
       style="font-style:normal;font-variant:normal;font-weight:normal;font-stretch:normal;font-size:30px;line-height:1.15;font-family:'Highway Gothic Expanded';-inkscape-font-specification:'Highway Gothic Expanded, ';opacity:1;fill:#ffffff;fill-opacity:1;stroke-width:0.0453062"
       d="m 259.15196,51.599093 h -1.00351 v 1.258333 h -1.12307 v -1.258778 h -3.63345 v -1.247747 l 3.25437,-3.76313 h 1.50215 v 3.888257 h 1.00351 z m -2.12661,-1.123517 -0.01,-2.576272 -2.23605,2.573369 z" />
    <path
       id="path108287"
       style="font-style:normal;font-variant:normal;font-weight:normal;font-stretch:normal;font-size:122.83px;line-height:1.15;font-family:'Highway Gothic Wide';-inkscape-font-specification:'Highway Gothic Wide';text-align:center;letter-spacing:3.26px;text-anchor:middle;opacity:1;fill:#ffffff;fill-opacity:1;stroke-width:0.066779"
       d="m 223.31099,36.585582 v 4.48164 h 0.99018 v -4.48164 z"
       sodipodi:nodetypes="ccccc" />
    <path
       sodipodi:nodetypes="ccccc"
       d="m 212.69081,34.847654 0.001,6.217688 h 0.99017 l -0.001,-6.217688 z"
       style="font-style:normal;font-variant:normal;font-weight:normal;font-stretch:normal;font-size:122.83px;line-height:1.15;font-family:'Highway Gothic Wide';-inkscape-font-specification:'Highway Gothic Wide';text-align:center;letter-spacing:3.26px;text-anchor:middle;opacity:1;fill:#ffffff;fill-opacity:1;stroke-width:0.066779"
       id="path7201" />
    <g
       style="font-size:13.0452px;line-height:1.15;font-family:'Highway Gothic Wide';-inkscape-font-specification:'Highway Gothic Wide';fill:#ffffff;fill-opacity:1;stroke-width:0.0103151"
       id="text24538"
       transform="matrix(0.69938839,0,0,0.69938842,283.44443,-245.87351)"
       aria-label="k">
      <path
         sodipodi:nodetypes="ccccccccccccc"
         id="path24540"
         style="opacity:1;fill:#ffffff;fill-opacity:1;stroke-width:0.0103151"
         d="m -89.41894,410.27108 h -1.768283 l -2.248516,-2.99484 -0.597908,0.50356 v 2.49128 h -1.419501 l 10e-7,-8.89017 h 1.4195 v 4.53414 l 2.424497,-2.04922 h 2.19021 l -2.933355,2.48598 z" />
    </g>
  </g>
</svg>
