<svg width="297.93mm" height="423.61mm" version="1.1" viewBox="0 0 297.93 423.61" xmlns="http://www.w3.org/2000/svg"><g transform="translate(161.58 -19.702)"><g fill-rule="evenodd"><path d="m-145 19.702h264.78c9.1852 0 16.58 7.3945 16.58 16.58v390.45c0 9.1851-7.3945 16.58-16.58 16.58h-264.78c-9.1852 0-16.58-7.3946-16.58-16.58v-390.45c0-9.1851 7.3946-16.58 16.58-16.58z" fill="#00408c" opacity=".99988" stroke-linecap="round" stroke-linejoin="round" stroke-miterlimit=".1" stroke-width="47.305"/><path d="m21.765 57.221h63.4v92.057h-18.236l-1.74e-4 140.52-26.795-58.837-0.049838-81.681h-18.319z" fill="#ff0" opacity=".99988" stroke-linecap="round" stroke-linejoin="round" stroke-miterlimit=".1" stroke-width="47.305"/><path d="m-143.97 24.523c-7.1384 0-12.958 5.8198-12.958 12.958v387.85c0 7.1385 5.8198 12.958 12.958 12.958h262.58c7.1385 0 12.957-5.8198 12.957-12.958v-387.85c0-7.1385-5.8182-12.958-12.957-12.958zm0 4.6501h262.58c4.6431 0 8.3082 3.6651 8.3082 8.3082v387.85c0 4.6431-3.6651 8.3082-8.3082 8.3082h-262.58c-4.6431 0-8.3082-3.6651-8.3082-8.3082v-387.85c0-4.6431 3.6651-8.3082 8.3082-8.3082z" color="#000000" color-rendering="auto" dominant-baseline="auto" enable-background="accumulate" fill="#fff" image-rendering="auto" opacity=".99988" shape-rendering="auto" solid-color="#000000" stop-color="#000000" style="font-feature-settings:normal;font-variant-alternates:normal;font-variant-caps:normal;font-variant-east-asian:normal;font-variant-ligatures:normal;font-variant-numeric:normal;font-variant-position:normal;font-variation-settings:normal;inline-size:0;isolation:auto;mix-blend-mode:normal;shape-margin:0;shape-padding:0;text-decoration-color:#000000;text-decoration-line:none;text-decoration-style:solid;text-indent:0;text-orientation:mixed;text-transform:none;white-space:normal"/></g><g fill-rule="evenodd" stroke-linecap="round" stroke-linejoin="round" stroke-miterlimit=".1" stroke-width="47.305"><path d="m33.11 142.59c-2e-6 1.7624-1.4288 3.1912-3.1912 3.1912s-3.1912-1.4288-3.1912-3.1912c-3e-6 -1.7625 1.4287-3.1912 3.1912-3.1912s3.1912 1.4288 3.1912 3.1912" opacity=".99988"/><path d="m48.885 142.59c-2e-6 1.7624-1.4288 3.1912-3.1912 3.1912s-3.1912-1.4288-3.1912-3.1912c-3e-6 -1.7625 1.4287-3.1912 3.1912-3.1912s3.1912 1.4288 3.1912 3.1912" opacity=".99988"/><path d="m64.56 142.59c-2e-6 1.7624-1.4288 3.1912-3.1912 3.1912s-3.1912-1.4288-3.1912-3.1912c-3e-6 -1.7625 1.4287-3.1912 3.1912-3.1912s3.1912 1.4288 3.1912 3.1912" opacity=".99988"/><path d="m80.206 142.59c-2e-6 1.7624-1.4288 3.1912-3.1912 3.1912s-3.1912-1.4288-3.1912-3.1912c-3e-6 -1.7625 1.4287-3.1912 3.1912-3.1912s3.1912 1.4288 3.1912 3.1912" opacity=".99988"/><path d="m33.11 126.74c-2e-6 1.7624-1.4287 3.1912-3.1912 3.1912s-3.1912-1.4288-3.1912-3.1912c-3e-6 -1.7625 1.4287-3.1912 3.1912-3.1912s3.1912 1.4288 3.1912 3.1912" opacity=".99988"/><path d="m48.885 126.74c-2e-6 1.7624-1.4287 3.1912-3.1912 3.1912s-3.1912-1.4288-3.1912-3.1912c-3e-6 -1.7625 1.4287-3.1912 3.1912-3.1912s3.1912 1.4288 3.1912 3.1912" opacity=".99988"/><path d="m64.56 126.74c-2e-6 1.7624-1.4287 3.1912-3.1912 3.1912s-3.1912-1.4288-3.1912-3.1912c-3e-6 -1.7625 1.4287-3.1912 3.1912-3.1912s3.1912 1.4288 3.1912 3.1912" opacity=".99988"/><path d="m80.205 126.74c-2e-6 1.7624-1.4287 3.1912-3.1912 3.1912s-3.1912-1.4288-3.1912-3.1912c-3e-6 -1.7625 1.4287-3.1912 3.1912-3.1912s3.1912 1.4288 3.1912 3.1912" opacity=".99988"/><path d="m33.11 111.14c3e-6 1.7625-1.4287 3.1912-3.1912 3.1912s-3.1912-1.4288-3.1912-3.1912c2e-6 -1.7624 1.4287-3.1912 3.1912-3.1912s3.1912 1.4288 3.1912 3.1912" opacity=".99988"/><path d="m48.885 111.14c3e-6 1.7625-1.4287 3.1912-3.1912 3.1912s-3.1912-1.4288-3.1912-3.1912c2e-6 -1.7624 1.4287-3.1912 3.1912-3.1912s3.1912 1.4288 3.1912 3.1912" opacity=".99988"/><path d="m64.56 111.14c3e-6 1.7625-1.4287 3.1912-3.1912 3.1912s-3.1912-1.4288-3.1912-3.1912c2e-6 -1.7624 1.4287-3.1912 3.1912-3.1912s3.1912 1.4288 3.1912 3.1912" opacity=".99988"/><path d="m80.205 111.14c3e-6 1.7625-1.4287 3.1912-3.1912 3.1912s-3.1912-1.4288-3.1912-3.1912c2e-6 -1.7624 1.4287-3.1912 3.1912-3.1912s3.1912 1.4288 3.1912 3.1912" opacity=".99988"/><path d="m33.11 95.442c0 1.7625-1.4287 3.1912-3.1912 3.1912s-3.1912-1.4288-3.1912-3.1912 1.4287-3.1912 3.1912-3.1912 3.1912 1.4288 3.1912 3.1912" opacity=".99988"/><path d="m48.885 95.442c0 1.7625-1.4287 3.1912-3.1912 3.1912s-3.1912-1.4288-3.1912-3.1912 1.4287-3.1912 3.1912-3.1912 3.1912 1.4288 3.1912 3.1912" opacity=".99988"/><path d="m64.56 95.442c0 1.7625-1.4287 3.1912-3.1912 3.1912s-3.1912-1.4288-3.1912-3.1912 1.4287-3.1912 3.1912-3.1912 3.1912 1.4288 3.1912 3.1912" opacity=".99988"/><path d="m80.205 95.442c0 1.7625-1.4287 3.1912-3.1912 3.1912s-3.1912-1.4288-3.1912-3.1912 1.4287-3.1912 3.1912-3.1912 3.1912 1.4288 3.1912 3.1912" opacity=".99988"/><path d="m33.11 79.742c0 1.7625-1.4287 3.1912-3.1912 3.1912s-3.1912-1.4288-3.1912-3.1912 1.4287-3.1912 3.1912-3.1912 3.1912 1.4288 3.1912 3.1912" opacity=".99988"/><path d="m48.885 79.742c0 1.7625-1.4287 3.1912-3.1912 3.1912s-3.1912-1.4288-3.1912-3.1912 1.4287-3.1912 3.1912-3.1912 3.1912 1.4288 3.1912 3.1912" opacity=".99988"/><path d="m64.56 79.742c0 1.7625-1.4287 3.1912-3.1912 3.1912s-3.1912-1.4288-3.1912-3.1912 1.4287-3.1912 3.1912-3.1912 3.1912 1.4288 3.1912 3.1912" opacity=".99988"/><path d="m80.205 79.742c0 1.7625-1.4287 3.1912-3.1912 3.1912s-3.1912-1.4288-3.1912-3.1912 1.4287-3.1912 3.1912-3.1912 3.1912 1.4288 3.1912 3.1912" opacity=".99988"/><path d="m33.11 64.042c0 1.7625-1.4287 3.1912-3.1912 3.1912s-3.1912-1.4288-3.1912-3.1912 1.4287-3.1912 3.1912-3.1912 3.1912 1.4288 3.1912 3.1912" opacity=".99988"/><path d="m48.885 64.042c0 1.7625-1.4287 3.1912-3.1912 3.1912s-3.1912-1.4288-3.1912-3.1912 1.4287-3.1912 3.1912-3.1912 3.1912 1.4288 3.1912 3.1912" opacity=".99988"/><path d="m64.56 64.042c0 1.7625-1.4287 3.1912-3.1912 3.1912s-3.1912-1.4288-3.1912-3.1912 1.4287-3.1912 3.1912-3.1912 3.1912 1.4288 3.1912 3.1912" opacity=".99988"/><path d="m80.205 64.042c0 1.7625-1.4287 3.1912-3.1912 3.1912s-3.1912-1.4288-3.1912-3.1912 1.4287-3.1912 3.1912-3.1912 3.1912 1.4288 3.1912 3.1912" opacity=".99988"/><path d="m41.067 134.77c-2e-6 1.7624-1.4288 3.1912-3.1912 3.1912s-3.1912-1.4288-3.1912-3.1912c-3e-6 -1.7625 1.4287-3.1912 3.1912-3.1912s3.1912 1.4288 3.1912 3.1912" opacity=".99988"/><path d="m56.742 134.77c-2e-6 1.7624-1.4288 3.1912-3.1912 3.1912s-3.1912-1.4288-3.1912-3.1912c-3e-6 -1.7625 1.4287-3.1912 3.1912-3.1912s3.1912 1.4288 3.1912 3.1912" opacity=".99988"/><path d="m72.417 134.77c-2e-6 1.7624-1.4288 3.1912-3.1912 3.1912s-3.1912-1.4288-3.1912-3.1912c-3e-6 -1.7625 1.4287-3.1912 3.1912-3.1912s3.1912 1.4288 3.1912 3.1912" opacity=".99988"/><path d="m41.067 118.9c-2e-6 1.7624-1.4288 3.1912-3.1912 3.1912s-3.1912-1.4288-3.1912-3.1912c2e-6 -1.7624 1.4288-3.1912 3.1912-3.1912s3.1912 1.4288 3.1912 3.1912" opacity=".99988"/><path d="m56.742 118.9c-2e-6 1.7624-1.4288 3.1912-3.1912 3.1912s-3.1912-1.4288-3.1912-3.1912c2e-6 -1.7624 1.4288-3.1912 3.1912-3.1912s3.1912 1.4288 3.1912 3.1912" opacity=".99988"/><path d="m72.417 118.9c-2e-6 1.7624-1.4288 3.1912-3.1912 3.1912s-3.1912-1.4288-3.1912-3.1912c2e-6 -1.7624 1.4288-3.1912 3.1912-3.1912s3.1912 1.4288 3.1912 3.1912" opacity=".99988"/><path d="m41.067 103.35c3e-6 1.7625-1.4287 3.1912-3.1912 3.1912s-3.1912-1.4288-3.1912-3.1912c2e-6 -1.7624 1.4288-3.1912 3.1912-3.1912s3.1912 1.4288 3.1912 3.1912" opacity=".99988"/><path d="m56.742 103.35c3e-6 1.7625-1.4287 3.1912-3.1912 3.1912s-3.1912-1.4288-3.1912-3.1912c2e-6 -1.7624 1.4288-3.1912 3.1912-3.1912s3.1912 1.4288 3.1912 3.1912" opacity=".99988"/><path d="m72.417 103.35c3e-6 1.7625-1.4287 3.1912-3.1912 3.1912s-3.1912-1.4288-3.1912-3.1912c2e-6 -1.7624 1.4288-3.1912 3.1912-3.1912s3.1912 1.4288 3.1912 3.1912" opacity=".99988"/><path d="m41.067 87.449c0 1.7625-1.4288 3.1912-3.1912 3.1912-1.7625 0-3.1912-1.4288-3.1912-3.1912s1.4288-3.1912 3.1912-3.1912c1.7625 0 3.1912 1.4288 3.1912 3.1912" opacity=".99988"/><path d="m56.742 87.449c0 1.7625-1.4288 3.1912-3.1912 3.1912-1.7625 0-3.1912-1.4288-3.1912-3.1912s1.4288-3.1912 3.1912-3.1912c1.7625 0 3.1912 1.4288 3.1912 3.1912" opacity=".99988"/><path d="m72.417 87.449c0 1.7625-1.4288 3.1912-3.1912 3.1912-1.7625 0-3.1912-1.4288-3.1912-3.1912s1.4288-3.1912 3.1912-3.1912c1.7625 0 3.1912 1.4288 3.1912 3.1912" opacity=".99988"/><path d="m41.067 71.849c0 1.7625-1.4288 3.1912-3.1912 3.1912-1.7625 0-3.1912-1.4288-3.1912-3.1912s1.4288-3.1912 3.1912-3.1912c1.7625 0 3.1912 1.4288 3.1912 3.1912" opacity=".99988"/><path d="m56.742 71.849c0 1.7625-1.4288 3.1912-3.1912 3.1912-1.7625 0-3.1912-1.4288-3.1912-3.1912s1.4288-3.1912 3.1912-3.1912c1.7625 0 3.1912 1.4288 3.1912 3.1912" opacity=".99988"/><path d="m72.417 71.849c0 1.7625-1.4288 3.1912-3.1912 3.1912-1.7625 0-3.1912-1.4288-3.1912-3.1912s1.4288-3.1912 3.1912-3.1912c1.7625 0 3.1912 1.4288 3.1912 3.1912" opacity=".99988"/></g><path d="m-127.41 103.04-0.1383-29.484 29.56 0.13821 133.98 135.25s13.162 17.709 17.192 27.845c2.5762 6.4804 8.3444 19.274 11.168 31.052 2.7416 11.436 2.5773 21.956 2.5773 21.956l9.74e-4 13.558h-41.576s-1.5907-30.349-7.4512-44.034c-2.9201-6.8184-8.665-15.855-14.075-23.052-5.0876-6.768-17.147-18.74-17.147-18.74z" fill="#fff" fill-rule="evenodd" opacity=".99988" stroke-linecap="round" stroke-linejoin="round" stroke-miterlimit=".1" stroke-width="47.305"/><g shape-rendering="auto"><path d="m-15.521 184.8-1.1445 1.1172 8.7148 8.9219 1.1445-1.1172-8.7148-8.9219z" color="#000000" color-rendering="auto" dominant-baseline="auto" enable-background="accumulate" image-rendering="auto" solid-color="#000000" stop-color="#000000" style="font-feature-settings:normal;font-variant-alternates:normal;font-variant-caps:normal;font-variant-east-asian:normal;font-variant-ligatures:normal;font-variant-numeric:normal;font-variant-position:normal;font-variation-settings:normal;inline-size:0;isolation:auto;mix-blend-mode:normal;shape-margin:0;shape-padding:0;text-decoration-color:#000000;text-decoration-line:none;text-decoration-style:solid;text-indent:0;text-orientation:mixed;text-transform:none;white-space:normal"/><path d="m46.389 280.34-1.5977 0.0957c0.25862 4.3065 0.71069 8.8846 0.48047 12.311l1.5957 0.10742c0.24567-3.6558-0.22264-8.2528-0.47852-12.514z" color="#000000" color-rendering="auto" dominant-baseline="auto" enable-background="accumulate" image-rendering="auto" solid-color="#000000" stop-color="#000000" style="font-feature-settings:normal;font-variant-alternates:normal;font-variant-caps:normal;font-variant-east-asian:normal;font-variant-ligatures:normal;font-variant-numeric:normal;font-variant-position:normal;font-variation-settings:normal;inline-size:0;isolation:auto;mix-blend-mode:normal;shape-margin:0;shape-padding:0;text-decoration-color:#000000;text-decoration-line:none;text-decoration-style:solid;text-indent:0;text-orientation:mixed;text-transform:none;white-space:normal"/><path d="m36.564 244.06-1.4707 0.63086c1.6745 3.9052 3.373 7.7937 4.4199 11.447l1.5391-0.43945c-1.09-3.804-2.817-7.741-4.4883-11.639z" color="#000000" color-rendering="auto" dominant-baseline="auto" enable-background="accumulate" image-rendering="auto" solid-color="#000000" stop-color="#000000" style="font-feature-settings:normal;font-variant-alternates:normal;font-variant-caps:normal;font-variant-east-asian:normal;font-variant-ligatures:normal;font-variant-numeric:normal;font-variant-position:normal;font-variation-settings:normal;inline-size:0;isolation:auto;mix-blend-mode:normal;shape-margin:0;shape-padding:0;text-decoration-color:#000000;text-decoration-line:none;text-decoration-style:solid;text-indent:0;text-orientation:mixed;text-transform:none;white-space:normal"/><path d="m10.869 211.29-1.1445 1.1172 8.7148 8.9219 1.1445-1.1172-8.7148-8.9219z" color="#000000" color-rendering="auto" dominant-baseline="auto" enable-background="accumulate" image-rendering="auto" solid-color="#000000" stop-color="#000000" style="font-feature-settings:normal;font-variant-alternates:normal;font-variant-caps:normal;font-variant-east-asian:normal;font-variant-ligatures:normal;font-variant-numeric:normal;font-variant-position:normal;font-variation-settings:normal;inline-size:0;isolation:auto;mix-blend-mode:normal;shape-margin:0;shape-padding:0;text-decoration-color:#000000;text-decoration-line:none;text-decoration-style:solid;text-indent:0;text-orientation:mixed;text-transform:none;white-space:normal"/><path d="m-41.803 158.43-1.1328 1.1309 8.7324 8.7383 1.1328-1.1309-8.7324-8.7383z" color="#000000" color-rendering="auto" dominant-baseline="auto" enable-background="accumulate" image-rendering="auto" solid-color="#000000" stop-color="#000000" style="font-feature-settings:normal;font-variant-alternates:normal;font-variant-caps:normal;font-variant-east-asian:normal;font-variant-ligatures:normal;font-variant-numeric:normal;font-variant-position:normal;font-variation-settings:normal;inline-size:0;isolation:auto;mix-blend-mode:normal;shape-margin:0;shape-padding:0;text-decoration-color:#000000;text-decoration-line:none;text-decoration-style:solid;text-indent:0;text-orientation:mixed;text-transform:none;white-space:normal"/><path d="m-68.279 131.83-1.1328 1.1309 8.7344 8.7383 1.1309-1.1309-8.7324-8.7383z" color="#000000" color-rendering="auto" dominant-baseline="auto" enable-background="accumulate" image-rendering="auto" solid-color="#000000" stop-color="#000000" style="font-feature-settings:normal;font-variant-alternates:normal;font-variant-caps:normal;font-variant-east-asian:normal;font-variant-ligatures:normal;font-variant-numeric:normal;font-variant-position:normal;font-variation-settings:normal;inline-size:0;isolation:auto;mix-blend-mode:normal;shape-margin:0;shape-padding:0;text-decoration-color:#000000;text-decoration-line:none;text-decoration-style:solid;text-indent:0;text-orientation:mixed;text-transform:none;white-space:normal"/><path d="m-94.666 105.38-1.1309 1.1308 8.7324 8.7383 1.1309-1.1309z" color="#000000" color-rendering="auto" dominant-baseline="auto" enable-background="accumulate" image-rendering="auto" solid-color="#000000" stop-color="#000000" style="font-feature-settings:normal;font-variant-alternates:normal;font-variant-caps:normal;font-variant-east-asian:normal;font-variant-ligatures:normal;font-variant-numeric:normal;font-variant-position:normal;font-variation-settings:normal;inline-size:0;isolation:auto;mix-blend-mode:normal;shape-margin:0;shape-padding:0;text-decoration-color:#000000;text-decoration-line:none;text-decoration-style:solid;text-indent:0;text-orientation:mixed;text-transform:none;white-space:normal"/><path d="m-120.95 78.963-1.1309 1.1309 8.7324 8.7383 1.1309-1.1309z" color="#000000" color-rendering="auto" dominant-baseline="auto" enable-background="accumulate" image-rendering="auto" solid-color="#000000" stop-color="#000000" style="font-feature-settings:normal;font-variant-alternates:normal;font-variant-caps:normal;font-variant-east-asian:normal;font-variant-ligatures:normal;font-variant-numeric:normal;font-variant-position:normal;font-variation-settings:normal;inline-size:0;isolation:auto;mix-blend-mode:normal;shape-margin:0;shape-padding:0;text-decoration-color:#000000;text-decoration-line:none;text-decoration-style:solid;text-indent:0;text-orientation:mixed;text-transform:none;white-space:normal"/></g><g fill="#fff"><path d="m-127.41 394.33v-15.516h8.0978c9.2101 0 8.8105-0.0144 10.139 0.3659 2.9783 0.8547 5.2439 3.0898 6.1732 6.0929 0.26349 0.84884 0.40979 2.0703 0.36589 2.9587 0 0.57957-0.2048 1.5902-0.35125 2.1258-0.14641 0.40105-0.43907 1.2235-0.62933 1.6051-0.14641 0.24307-0.58543 0.96594-0.92204 1.4226-0.52687 0.73617-1.7548 1.7942-2.6329 2.2789-0.74643 0.41126-1.9333 0.86495-2.5305 0.96594-0.17575 0.0293-0.322 0.0731-0.33661 0.10241-6e-3 0.0293 1.6596 2.9798 3.7042 6.5698l3.7159 6.5271-3.233 0.0115c-2.7383 0.0115-3.2388 9.8e-4 -3.2769-0.0584 0-0.0294-1.6714-2.9615-3.6589-6.5033l-3.6149-6.4397-2.6988-9.8e-4 -2.6988-1e-3v13.009h-5.601zm16.471-3.163c1.244-0.21373 2.3358-1.2674 2.6593-2.5736 0.14642-0.50201 0.14642-1.2148 0-1.6939-0.16108-0.51956-0.322-0.81962-0.62933-1.2089-0.48297-0.60298-1.2147-1.0479-1.9143-1.1796-0.39515-0.0731-10.955-0.0877-10.949-0.0144 3e-3 0.0293 6e-3 1.5606 0.0115 3.3991l6e-3 3.3427h5.2336c4.4843 0 5.2922-0.0115 5.6361-0.0731z" stroke-width=".015703"/><path d="m-70.031 409.22-5.0965-2.9e-4v-0.56691s-2.8641 1.0284-4.3632 1.1422c-1.8235 0.13842-3.7265 0.0204-5.4561-0.57275-1.387-0.47621-2.8156-1.2034-4.066-2.0688-0.59037-0.40862-1.1194-0.86333-1.5904-1.4527-0.54007-0.67576-0.83579-1.5864-0.85214-2.4513-0.0204-1.1412 0.22586-2.4031 1.0014-3.2744 1.5913-1.7879 3.9572-2.9841 6.3751-3.5701 0.91182-0.22091 1.8104-0.31986 2.7076-0.41825 0.94767-0.10405 2.3843 0.0463 3.5887 0.33233 1.4383 0.34162 2.5763 0.84109 2.5763 0.84109s0.13115-0.83091 0.06528-1.2393c-0.10113-0.6268-0.40309-1.3747-0.69316-1.7741-0.713-0.98183-2.0031-1.4398-3.159-1.8089-0.41259-0.13173-0.86027-0.11278-1.2931-0.12735-0.53368-0.0175-1.069 6e-3 -1.6012 0.0489-0.8608 0.0703-1.8747 0.20139-2.5683 0.34204-2.376 0.48141-3.6885 1.2094-3.6885 1.2094l-2.0612-4.5956s1.6661-0.80061 3.9663-1.381c1.808-0.45616 4.123-0.73481 5.5489-0.66231 2.7108 0.13786 5.4477 0.73391 7.3893 2.4062 1.9416 1.6723 3.2702 3.9456 3.2702 6.6153zm-5.2767-6.2966s-0.93995-0.75541-2.1939-1.2523c-1.0992-0.43555-2.4593-0.6211-3.3737-0.61513-0.84538 6e-3 -2.2959 0.27978-3.3189 0.69316-1.2572 0.50809-2.0167 1.1742-2.0167 1.1742s0.64901 0.63951 1.8134 1.1205c1.1006 0.45467 2.6918 0.75226 3.6232 0.75304 0.91838 7.7e-4 2.2292-0.20342 3.3227-0.64935 1.2001-0.48926 2.1439-1.2242 2.1439-1.2242z"/><path d="m53.019 409.41-5.0965-2.9e-4v-0.56691s-2.8641 1.0284-4.3632 1.1422c-1.8235 0.13842-3.7265 0.0204-5.4561-0.57275-1.387-0.47621-2.8156-1.2034-4.066-2.0688-0.59037-0.40862-1.1194-0.86333-1.5904-1.4527-0.54007-0.67576-0.83579-1.5864-0.85214-2.4513-0.0204-1.1412 0.22586-2.4031 1.0014-3.2744 1.5913-1.7879 3.9572-2.9841 6.3751-3.5701 0.91182-0.22091 1.8104-0.31986 2.7076-0.41825 0.94767-0.10405 2.3843 0.0463 3.5887 0.33233 1.4383 0.34162 2.5763 0.84109 2.5763 0.84109s0.13115-0.83091 0.06528-1.2393c-0.10113-0.6268-0.40309-1.3747-0.69316-1.7741-0.713-0.98183-2.0031-1.4398-3.159-1.8089-0.41259-0.13173-0.86027-0.11278-1.2931-0.12735-0.53368-0.0175-1.069 6e-3 -1.6012 0.0489-0.8608 0.0703-1.8747 0.20139-2.5683 0.34204-2.376 0.48141-3.6885 1.2094-3.6885 1.2094l-2.0612-4.5956s1.6661-0.80061 3.9663-1.381c1.808-0.45616 4.123-0.73481 5.5489-0.66231 2.7108 0.13786 5.4477 0.73391 7.3893 2.4062 1.9416 1.6723 3.2702 3.9456 3.2702 6.6153zm-5.2767-6.2966s-0.93995-0.75541-2.1939-1.2523c-1.0992-0.43555-2.4593-0.6211-3.3737-0.61513-0.84538 6e-3 -2.2959 0.27978-3.3189 0.69316-1.2572 0.50809-2.0167 1.1742-2.0167 1.1742s0.64901 0.63951 1.8134 1.1205c1.1006 0.45467 2.6918 0.75226 3.6232 0.75304 0.91838 7.7e-4 2.2292-0.20342 3.3227-0.64935 1.2001-0.48926 2.1439-1.2242 2.1439-1.2242z"/><path d="m-26.943 358.11-5.0965-2.9e-4v-0.56691s-2.8641 1.0284-4.3632 1.1422c-1.8235 0.13842-3.7265 0.0204-5.4561-0.57275-1.387-0.47621-2.8156-1.2034-4.066-2.0688-0.59037-0.40862-1.1194-0.86333-1.5904-1.4527-0.54007-0.67576-0.83579-1.5864-0.85214-2.4513-0.0204-1.1412 0.22586-2.4031 1.0014-3.2744 1.5913-1.7879 3.9572-2.9841 6.3751-3.5701 0.91182-0.22091 1.8104-0.31986 2.7076-0.41825 0.94767-0.10405 2.3843 0.0463 3.5887 0.33233 1.4383 0.34162 2.5763 0.84109 2.5763 0.84109s0.13115-0.83091 0.06528-1.2393c-0.10113-0.6268-0.40309-1.3747-0.69316-1.7741-0.713-0.98183-2.0031-1.4398-3.159-1.8089-0.41259-0.13173-0.86027-0.11278-1.2931-0.12735-0.53368-0.0175-1.069 6e-3 -1.6012 0.0489-0.8608 0.0703-1.8747 0.20139-2.5683 0.34204-2.376 0.48141-3.6885 1.2094-3.6885 1.2094l-2.0612-4.5956s1.6661-0.80061 3.9663-1.381c1.808-0.45616 4.123-0.73481 5.5489-0.66231 2.7108 0.13786 5.4477 0.73391 7.3893 2.4062 1.9416 1.6723 3.2702 3.9456 3.2702 6.6153zm-5.2767-6.2966s-0.93995-0.75541-2.1939-1.2523c-1.0992-0.43555-2.4593-0.6211-3.3737-0.61513-0.84538 6e-3 -2.2959 0.27978-3.3189 0.69316-1.2572 0.50809-2.0167 1.1742-2.0167 1.1742s0.64901 0.63951 1.8134 1.1205c1.1006 0.45467 2.6918 0.75226 3.6232 0.75304 0.91838 7.7e-4 2.2292-0.20342 3.3227-0.64935 1.2001-0.48926 2.1439-1.2242 2.1439-1.2242z"/><path d="m21.953 398.58c0 3.1003-1.103 5.7472-3.309 7.9408-2.171 2.1936-4.8147 3.2904-7.9311 3.2904-2.3386 0-4.4073-0.60399-6.2061-1.812-0.00866-6e-3 -0.01732 10.534-0.01732 10.534h-4.9982s-0.01732-16.853-0.01732-19.954c0-3.1295 0.01732-11.256 0.01732-11.256h4.9982s0.020207 1.7915 0.030311 1.7848c1.796-1.2028 3.8608-1.8042 6.1944-1.8042 3.1164 0 5.7601 1.0968 7.9311 3.2904 2.206 2.1936 3.309 4.8551 3.309 7.9847zm-5.097-0.56909c-0.13539-1.562-0.95814-3.1554-2.1354-4.1908-1.1051-0.97194-2.6865-1.5263-4.1577-1.4857-1.5136 0.0419-3.1002 0.70752-4.1868 1.762-1.1085 1.0759-1.8375 2.6734-1.9245 4.2158-0.085737 1.5206 0.38853 3.2211 1.4181 4.3433 1.1986 1.3064 3.1231 2.1161 4.8956 2.0792 1.738-0.0361 3.5743-0.92125 4.7112-2.2362 1.0235-1.1838 1.5146-2.9285 1.3794-4.4876z"/><path d="m18.592 336.15v22.483h4.9674v-22.483z" stroke-width=".393"/><path d="m96.632 387.38v22.483h4.9674v-22.483z" stroke-width=".393"/><path d="m-56.55 358.63-6.7323-0.0112-10.015-14.612-2.3021 2.2648v12.358l-5.557 5.1e-4 0.0382-30.812 5.5168-3e-3 0.01123 10.751 11.113-10.75h7.9313l-12.646 12.375z" stroke-width=".42429"/><path d="m6.0357 354.6c-1.7536 2.0663-3.8594 3.3708-6.2333 3.8963-0.0086 1e-3 2.006e-4 5.2171 2.006e-4 5.2171h-4.94s-0.00212-5.2088-0.0086-5.2102c-0.62686-0.13727-1.2243-0.32834-1.7948-0.56965-1.3243-0.56014-2.504-1.3916-3.5716-2.4548-2.0968-2.1172-3.2732-4.6813-3.2732-7.9006s1.1313-5.7571 3.2282-7.8743c0.96088-0.97016 2.0558-1.7056 3.2327-2.2541 1.3913-0.64839 2.9104-1.022 4.6487-1.022 3.3994 0 6.5931 1.5293 8.7263 4.1975l-3.8693 3.109c-1.2325-1.442-2.8296-2.203-4.7676-2.29-1.6838 0-3.4428 0.7476-4.523 1.9077-1.0484 1.1311-1.6983 2.4365-1.6983 4.2347 0 1.7691 0.56625 3.0031 1.6147 4.1632 0.52475 0.56358 1.2148 1.125 2.0154 1.4802 0.84736 0.37603 1.8142 0.52959 2.6801 0.52959 1.938-0.14502 2.9991-0.50861 4.6787-2.2609z" stroke-width=".26458"/><path d="m-15.424 409.88-4.9996 3e-5 2.8e-5 -11.504s-0.32535-2.2276-1.009-3.053c-0.50605-0.61091-1.0893-1.2846-1.8318-1.7756-1.0735-0.70977-2.3635-1.1152-3.258-1.0476-0.42347 0.0319-0.88356 0.0201-1.3143 0.10375-1.0811 0.2124-2.1112 0.68278-2.8952 1.4048-0.63099 0.58116-1.398 1.6202-1.7713 2.6456-0.37094 1.0188-0.35018 2.0258-0.35018 2.0258v11.201h-4.9579v-11.504s-0.05604-0.91943-0.41442-1.8956c-0.27362-0.74526-0.78648-1.5236-1.2112-1.9511-0.56414-0.5679-1.219-1.1101-1.9719-1.4668-0.86934-0.41183-1.8566-0.59442-2.7808-0.57896-1.0556 0.0173-2.1581 0.35165-3.0883 0.93291-0.50823 0.31763-0.93849 0.74144-1.3429 1.1527-0.44006 0.44757-0.91722 1.247-1.1999 1.9995-0.29891 0.79576-0.39082 1.5333-0.39082 1.5333l-0.0296 11.778h-4.9245v-21.761h4.9245v1.2996s0.97608-0.71443 2.3174-1.2156c1.3475-0.50343 3.0629-0.79341 4.1918-0.69496 1.3236 0.11553 3.386 0.44592 4.9218 1.2919 2.0679 1.1391 3.461 2.8551 3.461 2.8551s0.76076-0.85042 1.1939-1.2191c0.71773-0.61087 1.6283-1.2841 2.3103-1.63 1.5364-0.77932 3.2769-1.3097 4.9996-1.3096 1.9592 0 3.9606 0.56065 5.6856 1.4894 1.4422 0.7764 2.68 1.9674 3.6565 3.2824 0.76185 1.026 1.2936 2.228 1.6267 3.4715 0.30842 1.1515 0.35886 2.1249 0.35886 2.1249z" stroke-width=".26458"/><path d="m55.48 352.53c-0.02048 1.1724-0.26356 2.2272-0.77874 3.1928-0.3519 0.65957-0.79474 1.3034-1.5186 1.813-0.36933 0.2539-0.81484 0.37132-1.2589 0.49979-0.46148 0.13368-0.92427 0.27497-1.4552 0.3844-0.41543 0.0857-0.8495 0.16761-1.2973 0.24162-0.02633 6e-3 -0.0059 5.0098-0.0059 5.0098h-5.011s-0.01755-4.748-0.03803-4.7493c-3.2016-0.20096-6.0842-0.87782-8.8396-2.3147l2.2498-4.5409c2.7565 1.4649 5.5926 1.7875 8.0572 1.8174 0.66624 0 1.6516-0.0468 2.468-0.16118 0.76113-0.10677 2.2535-0.48806 2.2535-0.48806s0.08863-0.26386 0.10326-0.40116c0.01463-0.13661-0.0059-0.30525-0.01755-0.4114-0.0117-0.12637-0.03422-0.2659-0.11613-0.36293-0.13895-0.16439-0.25391-0.36494-0.44162-0.47092-0.38726-0.21852-0.87425-0.30144-1.3156-0.43902-1.1115-0.34637-2.2367-0.64719-3.3546-0.97238-0.66229-0.19277-1.3246-0.38522-1.9863-0.57989-0.42523-0.1252-0.85085-0.24894-1.2749-0.37794-0.89952-0.2735-1.8344-0.4558-2.6928-0.83926-0.6058-0.27058-1.335-0.67502-1.7092-1.02-1.2323-1.1959-1.9692-2.3967-2.1482-3.8576-0.20798-1.6984 0.35869-3.7869 1.3412-4.9549 0.36857-0.43817 0.67475-0.76538 1.11-1.0136 0.517-0.29483 1.1312-0.37334 1.7075-0.52174 0.82496-0.21236 1.6576-0.40537 2.5008-0.52638 1.1419-0.16381 2.4147-0.26824 3.4505-0.26824 3.1782 0 6.0524 0.62792 8.7473 1.7892l-1.937 4.6578c-1.7969-0.84116-4.8996-1.3764-7.4155-1.4089-1.4791-0.0175-4.3797 0.7155-4.3797 0.7155s-0.13485 0.30071-0.13748 0.46104c-0.0059 0.29252 0.03305 0.62724 0.22465 0.84833 0.48599 0.56099 1.3496 0.62306 2.0492 0.87106 0.57155 0.20242 1.1661 0.33344 1.7487 0.5017 1.0203 0.29471 2.0531 0.61224 3.0594 0.88955 1.8618 0.51307 4.5496 0.97303 6.1245 2.5199 1.1576 1.137 1.9005 2.2553 1.9329 4.4676z" stroke-width=".13018"/><path d="m84.719 403.39c-0.01998 1.1476-0.25799 2.1801-0.76229 3.1254-0.34446 0.64563-0.77795 1.2758-1.4865 1.7746-0.36153 0.24855-0.79762 0.36349-1.2323 0.48925-0.45172 0.13085-0.90474 0.26916-1.4245 0.37628-1.3955 0.28753-3.0057 0.53512-4.6381 0.55202-3.7776-0.0587-7.0893-0.68758-10.232-2.3263l2.2022-4.4449c2.6983 1.434 5.4744 1.7498 7.887 1.779 0.65216 0 1.6167-0.0458 2.4159-0.15778 0.74506-0.10454 2.2059-0.47775 2.2059-0.47775s0.0868-0.25827 0.10107-0.39268c0.01436-0.13371-0.0054-0.29879-0.01713-0.40271-0.0115-0.12369-0.03345-0.26028-0.11367-0.35526-0.13601-0.16092-0.24854-0.35723-0.43229-0.46097-0.37908-0.21389-0.85578-0.29507-1.2878-0.42973-1.088-0.33905-2.1895-0.63352-3.2837-0.95185-0.6483-0.18868-1.2966-0.37708-1.9444-0.56763-0.41625-0.12255-0.83287-0.24368-1.248-0.36995-0.88052-0.26773-1.7956-0.44617-2.6359-0.82153-0.59301-0.26486-1.3068-0.66075-1.6731-0.99849-1.2063-1.1706-1.9276-2.346-2.1028-3.776-0.20358-1.6625 0.35111-3.7069 1.3129-4.8502 0.36079-0.42891 0.6605-0.7492 1.0865-0.99216 0.50608-0.2886 1.1073-0.36545 1.6714-0.51072 0.80753-0.20788 1.6225-0.3968 2.448-0.51526 1.1178-0.16034 2.3637-0.26258 3.3776-0.26258 3.111 0 5.9245 0.61467 8.5625 1.7514l-1.896 4.5594c-1.7589-0.8234-4.7961-1.3473-7.2588-1.3792-1.4479-0.0171-4.2872 0.70038-4.2872 0.70038s-0.132 0.29437-0.13458 0.4513c-0.0054 0.28634 0.03238 0.614 0.21991 0.83041 0.47572 0.54914 1.3211 0.60991 2.0059 0.85265 0.55947 0.19814 1.1414 0.3264 1.7118 0.4911 0.99877 0.28848 2.0097 0.59931 2.9948 0.87075 1.8225 0.50224 4.4534 0.95248 5.9951 2.4666 1.1332 1.113 1.8603 2.2076 1.8921 4.3732z" stroke-width=".13018"/></g></g></svg>