<?xml version="1.0" encoding="UTF-8" standalone="no"?>
<svg
   xmlns:dc="http://purl.org/dc/elements/1.1/"
   xmlns:cc="http://creativecommons.org/ns#"
   xmlns:rdf="http://www.w3.org/1999/02/22-rdf-syntax-ns#"
   xmlns:svg="http://www.w3.org/2000/svg"
   xmlns="http://www.w3.org/2000/svg"
   xmlns:sodipodi="http://sodipodi.sourceforge.net/DTD/sodipodi-0.dtd"
   xmlns:inkscape="http://www.inkscape.org/namespaces/inkscape"
   width="297.93481mm"
   height="423.61234mm"
   viewBox="0 0 297.93481 423.61233"
   version="1.1"
   id="svg247329"
   inkscape:version="1.0 (4035a4fb49, 2020-05-01)"
   sodipodi:docname="B 55a.svg">
  <defs
     id="defs247323">
    <clipPath
       id="clipPath425797"
       clipPathUnits="userSpaceOnUse">
      <path
         id="path425795"
         d="M 0,0 H 261.24 V 366.15 H 0 Z" />
    </clipPath>
  </defs>
  <sodipodi:namedview
     id="base"
     pagecolor="#ffffff"
     bordercolor="#666666"
     borderopacity="1.0"
     inkscape:pageopacity="0.0"
     inkscape:pageshadow="2"
     inkscape:zoom="0.24748737"
     inkscape:cx="700.92895"
     inkscape:cy="1503.9604"
     inkscape:document-units="mm"
     inkscape:current-layer="layer1"
     inkscape:document-rotation="0"
     showgrid="false"
     inkscape:window-width="1920"
     inkscape:window-height="1001"
     inkscape:window-x="-9"
     inkscape:window-y="-9"
     inkscape:window-maximized="1" />
  <metadata
     id="metadata247326">
    <rdf:RDF>
      <cc:Work
         rdf:about="">
        <dc:format>image/svg+xml</dc:format>
        <dc:type
           rdf:resource="http://purl.org/dc/dcmitype/StillImage" />
        <dc:title />
      </cc:Work>
    </rdf:RDF>
  </metadata>
  <g
     inkscape:label="Layer 1"
     inkscape:groupmode="layer"
     id="layer1"
     transform="translate(161.58324,-19.702164)">
    <path
       sodipodi:nodetypes="sssssssss"
       id="rect90889"
       style="opacity:0.999883;fill:#00408c;fill-opacity:1;fill-rule:evenodd;stroke-width:47.3051;stroke-linecap:round;stroke-linejoin:round;stroke-miterlimit:0.1"
       d="m -145.00354,19.702164 h 264.77541 c 9.18516,0 16.5797,7.394543 16.5797,16.579649 V 426.73486 c 0,9.1851 -7.39454,16.57965 -16.5797,16.57965 h -264.77541 c -9.18515,0 -16.5797,-7.39455 -16.5797,-16.57965 V 36.281813 c 0,-9.185106 7.39455,-16.579649 16.5797,-16.579649 z" />
    <path
       sodipodi:nodetypes="ccccccccc"
       d="M -47.250792,57.221169 H -110.65124 V 149.278 h 18.23609 l 1.8e-4,140.51811 26.795404,-58.837 0.04984,-81.68111 h 18.318936 z"
       style="opacity:0.999883;fill:#ffff00;fill-opacity:1;fill-rule:evenodd;stroke-width:47.3051;stroke-linecap:round;stroke-linejoin:round;stroke-miterlimit:0.1"
       id="rect35774" />
    <path
       sodipodi:nodetypes="ssssssssssssssssss"
       style="color:#000000;font-style:normal;font-variant:normal;font-weight:normal;font-stretch:normal;font-size:medium;line-height:normal;font-family:sans-serif;font-variant-ligatures:normal;font-variant-position:normal;font-variant-caps:normal;font-variant-numeric:normal;font-variant-alternates:normal;font-variant-east-asian:normal;font-feature-settings:normal;font-variation-settings:normal;text-indent:0;text-align:start;text-decoration:none;text-decoration-line:none;text-decoration-style:solid;text-decoration-color:#000000;letter-spacing:normal;word-spacing:normal;text-transform:none;writing-mode:lr-tb;direction:ltr;text-orientation:mixed;dominant-baseline:auto;baseline-shift:baseline;text-anchor:start;white-space:normal;shape-padding:0;shape-margin:0;inline-size:0;clip-rule:nonzero;display:inline;overflow:visible;visibility:visible;opacity:0.999883;isolation:auto;mix-blend-mode:normal;color-interpolation:sRGB;color-interpolation-filters:linearRGB;solid-color:#000000;solid-opacity:1;vector-effect:none;fill:#ffffff;fill-opacity:1;fill-rule:evenodd;stroke:none;stroke-width:1.40229;stroke-linecap:round;stroke-linejoin:round;stroke-miterlimit:0.1;stroke-dasharray:none;stroke-dashoffset:0;stroke-opacity:1;color-rendering:auto;image-rendering:auto;shape-rendering:auto;text-rendering:auto;enable-background:accumulate;stop-color:#000000;stop-opacity:1"
       d="m -143.96996,24.522721 c -7.13841,0 -12.95824,5.819825 -12.95824,12.958299 v 387.84799 c 0,7.13847 5.81983,12.9583 12.95824,12.9583 h 262.58338 c 7.13847,0 12.95669,-5.81983 12.95669,-12.9583 V 37.48102 c 0,-7.138474 -5.81822,-12.958299 -12.95669,-12.958299 z m 0,4.650092 h 262.58338 c 4.64311,0 8.3082,3.665084 8.3082,8.308207 v 387.84799 c 0,4.64312 -3.66509,8.3082 -8.3082,8.3082 h -262.58338 c -4.64307,0 -8.30816,-3.66508 -8.30816,-8.3082 V 37.48102 c 0,-4.643123 3.66509,-8.308207 8.30816,-8.308207 z"
       id="path90896" />
    <path
       id="path35778"
       style="opacity:0.999883;fill:#000000;fill-opacity:1;fill-rule:evenodd;stroke-width:47.3052;stroke-linecap:round;stroke-linejoin:round;stroke-miterlimit:0.1"
       d="m -58.59538,142.58817 c 2e-6,1.76245 1.428752,3.1912 3.191204,3.1912 1.762452,0 3.191203,-1.42875 3.191205,-3.1912 3e-6,-1.76246 -1.428749,-3.19121 -3.191205,-3.19121 -1.762456,0 -3.191207,1.42875 -3.191204,3.19121"
       sodipodi:nodetypes="csssc" />
    <path
       id="circle35780"
       style="opacity:0.999883;fill:#000000;fill-opacity:1;fill-rule:evenodd;stroke-width:47.3052;stroke-linecap:round;stroke-linejoin:round;stroke-miterlimit:0.1"
       d="m -74.370381,142.58817 c 2e-6,1.76245 1.428752,3.1912 3.191204,3.1912 1.762452,0 3.191202,-1.42875 3.191204,-3.1912 3e-6,-1.76246 -1.428748,-3.19121 -3.191204,-3.19121 -1.762456,0 -3.191207,1.42875 -3.191204,3.19121"
       sodipodi:nodetypes="csssc" />
    <path
       id="circle35782"
       style="opacity:0.999883;fill:#000000;fill-opacity:1;fill-rule:evenodd;stroke-width:47.3052;stroke-linecap:round;stroke-linejoin:round;stroke-miterlimit:0.1"
       d="m -90.04538,142.58817 c 0,1.76245 1.42875,3.1912 3.1912,3.1912 1.76246,0 3.19121,-1.42875 3.19121,-3.1912 0,-1.76246 -1.42875,-3.19121 -3.19121,-3.19121 -1.76245,0 -3.1912,1.42875 -3.1912,3.19121"
       sodipodi:nodetypes="csssc" />
    <path
       id="circle35784"
       style="opacity:0.999883;fill:#000000;fill-opacity:1;fill-rule:evenodd;stroke-width:47.3052;stroke-linecap:round;stroke-linejoin:round;stroke-miterlimit:0.1"
       d="m -105.69138,142.58817 c 0,1.76245 1.42875,3.1912 3.1912,3.1912 1.76246,0 3.19121,-1.42875 3.19121,-3.1912 0,-1.76246 -1.42875,-3.19121 -3.19121,-3.19121 -1.76245,0 -3.1912,1.42875 -3.1912,3.19121"
       sodipodi:nodetypes="csssc" />
    <path
       id="circle35786"
       style="opacity:0.999883;fill:#000000;fill-opacity:1;fill-rule:evenodd;stroke-width:47.3052;stroke-linecap:round;stroke-linejoin:round;stroke-miterlimit:0.1"
       d="m -58.59533,126.74232 c 2e-6,1.76245 1.428741,3.1912 3.191179,3.1912 1.762438,0 3.191178,-1.42875 3.19118,-3.1912 3e-6,-1.76246 -1.428738,-3.19121 -3.19118,-3.19121 -1.762442,0 -3.191182,1.42875 -3.191179,3.19121"
       sodipodi:nodetypes="csssc" />
    <path
       id="circle35788"
       style="opacity:0.999883;fill:#000000;fill-opacity:1;fill-rule:evenodd;stroke-width:47.3052;stroke-linecap:round;stroke-linejoin:round;stroke-miterlimit:0.1"
       d="m -74.370208,126.74232 c 2e-6,1.76245 1.428742,3.1912 3.19118,3.1912 1.762438,0 3.191177,-1.42875 3.191179,-3.1912 3e-6,-1.76246 -1.428737,-3.19121 -3.191179,-3.19121 -1.762442,0 -3.191183,1.42875 -3.19118,3.19121"
       sodipodi:nodetypes="csssc" />
    <path
       id="circle35790"
       style="opacity:0.999883;fill:#000000;fill-opacity:1;fill-rule:evenodd;stroke-width:47.3052;stroke-linecap:round;stroke-linejoin:round;stroke-miterlimit:0.1"
       d="m -90.04509,126.74232 c 0,1.76245 1.42874,3.1912 3.19118,3.1912 1.76244,0 3.19118,-1.42875 3.19118,-3.1912 0,-1.76246 -1.42874,-3.19121 -3.19118,-3.19121 -1.76244,0 -3.19118,1.42875 -3.19118,3.19121"
       sodipodi:nodetypes="csssc" />
    <path
       id="circle35792"
       style="opacity:0.999883;fill:#000000;fill-opacity:1;fill-rule:evenodd;stroke-width:47.3052;stroke-linecap:round;stroke-linejoin:round;stroke-miterlimit:0.1"
       d="m -105.69097,126.74232 c 0,1.76245 1.42874,3.1912 3.19118,3.1912 1.76243,0 3.19117,-1.42875 3.19118,-3.1912 0,-1.76246 -1.42874,-3.19121 -3.19118,-3.19121 -1.76245,0 -3.19119,1.42875 -3.19118,3.19121"
       sodipodi:nodetypes="csssc" />
    <path
       id="ellipse35794"
       style="opacity:0.999883;fill:#000000;fill-opacity:1;fill-rule:evenodd;stroke-width:47.3052;stroke-linecap:round;stroke-linejoin:round;stroke-miterlimit:0.1"
       d="m -58.59533,111.14231 c -3e-6,1.76246 1.428737,3.19121 3.191179,3.19121 1.762442,0 3.191183,-1.42875 3.19118,-3.19121 -2e-6,-1.76245 -1.428742,-3.1912 -3.19118,-3.1912 -1.762438,0 -3.191177,1.42875 -3.191179,3.1912"
       sodipodi:nodetypes="csssc" />
    <path
       id="ellipse35796"
       style="opacity:0.999883;fill:#000000;fill-opacity:1;fill-rule:evenodd;stroke-width:47.3052;stroke-linecap:round;stroke-linejoin:round;stroke-miterlimit:0.1"
       d="m -74.370208,111.14231 c -3e-6,1.76246 1.428738,3.19121 3.19118,3.19121 1.762442,0 3.191182,-1.42875 3.191179,-3.19121 -2e-6,-1.76245 -1.428741,-3.1912 -3.191179,-3.1912 -1.762438,0 -3.191178,1.42875 -3.19118,3.1912"
       sodipodi:nodetypes="csssc" />
    <path
       id="ellipse35798"
       style="opacity:0.999883;fill:#000000;fill-opacity:1;fill-rule:evenodd;stroke-width:47.3052;stroke-linecap:round;stroke-linejoin:round;stroke-miterlimit:0.1"
       d="m -90.04509,111.14231 c 0,1.76246 1.42874,3.19121 3.19118,3.19121 1.76244,0 3.19118,-1.42875 3.19118,-3.19121 0,-1.76245 -1.42874,-3.1912 -3.19118,-3.1912 -1.76244,0 -3.19118,1.42875 -3.19118,3.1912"
       sodipodi:nodetypes="csssc" />
    <path
       id="ellipse35800"
       style="opacity:0.999883;fill:#000000;fill-opacity:1;fill-rule:evenodd;stroke-width:47.3052;stroke-linecap:round;stroke-linejoin:round;stroke-miterlimit:0.1"
       d="m -105.69097,111.14231 c -1e-5,1.76246 1.42873,3.19121 3.19118,3.19121 1.76244,0 3.19118,-1.42875 3.19118,-3.19121 -1e-5,-1.76245 -1.42875,-3.1912 -3.19118,-3.1912 -1.76244,0 -3.19118,1.42875 -3.19118,3.1912"
       sodipodi:nodetypes="csssc" />
    <path
       id="ellipse35802"
       style="opacity:0.999883;fill:#000000;fill-opacity:1;fill-rule:evenodd;stroke-width:47.3052;stroke-linecap:round;stroke-linejoin:round;stroke-miterlimit:0.1"
       d="m -58.59533,95.442337 c 0,1.762453 1.428739,3.191204 3.191179,3.191204 1.76244,0 3.19118,-1.428751 3.19118,-3.191204 0,-1.762453 -1.42874,-3.191204 -3.19118,-3.191204 -1.76244,0 -3.191179,1.428751 -3.191179,3.191204"
       sodipodi:nodetypes="csssc" />
    <path
       id="ellipse35804"
       style="opacity:0.999883;fill:#000000;fill-opacity:1;fill-rule:evenodd;stroke-width:47.3052;stroke-linecap:round;stroke-linejoin:round;stroke-miterlimit:0.1"
       d="m -74.370208,95.442337 c 0,1.762453 1.42874,3.191204 3.19118,3.191204 1.76244,0 3.191179,-1.428751 3.191179,-3.191204 0,-1.762453 -1.428739,-3.191204 -3.191179,-3.191204 -1.76244,0 -3.19118,1.428751 -3.19118,3.191204"
       sodipodi:nodetypes="csssc" />
    <path
       id="ellipse35806"
       style="opacity:0.999883;fill:#000000;fill-opacity:1;fill-rule:evenodd;stroke-width:47.3052;stroke-linecap:round;stroke-linejoin:round;stroke-miterlimit:0.1"
       d="m -90.04509,95.442337 c 0,1.762453 1.42874,3.191204 3.19118,3.191204 1.76244,0 3.19118,-1.428751 3.19118,-3.191204 0,-1.762453 -1.42874,-3.191204 -3.19118,-3.191204 -1.76244,0 -3.19118,1.428751 -3.19118,3.191204"
       sodipodi:nodetypes="csssc" />
    <path
       id="ellipse35808"
       style="opacity:0.999883;fill:#000000;fill-opacity:1;fill-rule:evenodd;stroke-width:47.3052;stroke-linecap:round;stroke-linejoin:round;stroke-miterlimit:0.1"
       d="m -105.69097,95.442337 c 0,1.762453 1.42873,3.191204 3.19118,3.191204 1.76244,0 3.19118,-1.428751 3.19118,-3.191204 0,-1.762453 -1.42874,-3.191204 -3.19118,-3.191204 -1.76244,0 -3.19118,1.428751 -3.19118,3.191204"
       sodipodi:nodetypes="csssc" />
    <path
       id="ellipse35810"
       style="opacity:0.999883;fill:#000000;fill-opacity:1;fill-rule:evenodd;stroke-width:47.3052;stroke-linecap:round;stroke-linejoin:round;stroke-miterlimit:0.1"
       d="m -58.59533,79.742317 c 0,1.762453 1.428739,3.191204 3.191179,3.191204 1.76244,0 3.19118,-1.428751 3.19118,-3.191204 0,-1.762453 -1.42874,-3.191204 -3.19118,-3.191204 -1.76244,0 -3.191179,1.428751 -3.191179,3.191204"
       sodipodi:nodetypes="csssc" />
    <path
       id="ellipse35812"
       style="opacity:0.999883;fill:#000000;fill-opacity:1;fill-rule:evenodd;stroke-width:47.3052;stroke-linecap:round;stroke-linejoin:round;stroke-miterlimit:0.1"
       d="m -74.370208,79.742317 c 0,1.762453 1.42874,3.191204 3.19118,3.191204 1.76244,0 3.191179,-1.428751 3.191179,-3.191204 0,-1.762453 -1.428739,-3.191204 -3.191179,-3.191204 -1.76244,0 -3.19118,1.428751 -3.19118,3.191204"
       sodipodi:nodetypes="csssc" />
    <path
       id="ellipse35814"
       style="opacity:0.999883;fill:#000000;fill-opacity:1;fill-rule:evenodd;stroke-width:47.3052;stroke-linecap:round;stroke-linejoin:round;stroke-miterlimit:0.1"
       d="m -90.04509,79.742317 c 0,1.762453 1.42874,3.191204 3.19118,3.191204 1.76244,0 3.19118,-1.428751 3.19118,-3.191204 0,-1.762453 -1.42874,-3.191204 -3.19118,-3.191204 -1.76244,0 -3.19118,1.428751 -3.19118,3.191204"
       sodipodi:nodetypes="csssc" />
    <path
       id="ellipse35816"
       style="opacity:0.999883;fill:#000000;fill-opacity:1;fill-rule:evenodd;stroke-width:47.3052;stroke-linecap:round;stroke-linejoin:round;stroke-miterlimit:0.1"
       d="m -105.69097,79.742317 c 0,1.762453 1.42873,3.191204 3.19118,3.191204 1.76244,0 3.19118,-1.428751 3.19118,-3.191204 0,-1.762453 -1.42874,-3.191204 -3.19118,-3.191204 -1.76244,0 -3.19118,1.428751 -3.19118,3.191204"
       sodipodi:nodetypes="csssc" />
    <path
       id="ellipse35818"
       style="opacity:0.999883;fill:#000000;fill-opacity:1;fill-rule:evenodd;stroke-width:47.3052;stroke-linecap:round;stroke-linejoin:round;stroke-miterlimit:0.1"
       d="m -58.59533,64.042313 c 0,1.762453 1.428739,3.191204 3.191179,3.191204 1.76244,0 3.19118,-1.428751 3.19118,-3.191204 0,-1.762453 -1.42874,-3.191204 -3.19118,-3.191204 -1.76244,0 -3.191179,1.428751 -3.191179,3.191204"
       sodipodi:nodetypes="csssc" />
    <path
       id="ellipse35820"
       style="opacity:0.999883;fill:#000000;fill-opacity:1;fill-rule:evenodd;stroke-width:47.3052;stroke-linecap:round;stroke-linejoin:round;stroke-miterlimit:0.1"
       d="m -74.370208,64.042313 c 0,1.762453 1.42874,3.191204 3.19118,3.191204 1.76244,0 3.191179,-1.428751 3.191179,-3.191204 0,-1.762453 -1.428739,-3.191204 -3.191179,-3.191204 -1.76244,0 -3.19118,1.428751 -3.19118,3.191204"
       sodipodi:nodetypes="csssc" />
    <path
       id="ellipse35822"
       style="opacity:0.999883;fill:#000000;fill-opacity:1;fill-rule:evenodd;stroke-width:47.3052;stroke-linecap:round;stroke-linejoin:round;stroke-miterlimit:0.1"
       d="m -90.04509,64.042313 c 0,1.762453 1.42874,3.191204 3.19118,3.191204 1.76244,0 3.19118,-1.428751 3.19118,-3.191204 0,-1.762453 -1.42874,-3.191204 -3.19118,-3.191204 -1.76244,0 -3.19118,1.428751 -3.19118,3.191204"
       sodipodi:nodetypes="csssc" />
    <path
       id="ellipse35824"
       style="opacity:0.999883;fill:#000000;fill-opacity:1;fill-rule:evenodd;stroke-width:47.3052;stroke-linecap:round;stroke-linejoin:round;stroke-miterlimit:0.1"
       d="m -105.69097,64.042313 c 0,1.762453 1.42873,3.191204 3.19118,3.191204 1.76244,0 3.19118,-1.428751 3.19118,-3.191204 0,-1.762453 -1.42874,-3.191204 -3.19118,-3.191204 -1.76244,0 -3.19118,1.428751 -3.19118,3.191204"
       sodipodi:nodetypes="csssc" />
    <path
       id="circle35826"
       style="opacity:0.999883;fill:#000000;fill-opacity:1;fill-rule:evenodd;stroke-width:47.3052;stroke-linecap:round;stroke-linejoin:round;stroke-miterlimit:0.1"
       d="m -66.552747,134.77054 c 2e-6,1.76245 1.428753,3.1912 3.191205,3.1912 1.762452,0 3.191202,-1.42875 3.191204,-3.1912 3e-6,-1.76246 -1.428748,-3.19121 -3.191204,-3.19121 -1.762456,0 -3.191208,1.42875 -3.191205,3.19121"
       sodipodi:nodetypes="csssc" />
    <path
       id="circle35828"
       style="opacity:0.999883;fill:#000000;fill-opacity:1;fill-rule:evenodd;stroke-width:47.3052;stroke-linecap:round;stroke-linejoin:round;stroke-miterlimit:0.1"
       d="m -82.22738,134.77054 c 2e-6,1.76245 1.428752,3.1912 3.191204,3.1912 1.762452,0 3.191203,-1.42875 3.191205,-3.1912 3e-6,-1.76246 -1.428749,-3.19121 -3.191205,-3.19121 -1.762456,0 -3.191207,1.42875 -3.191204,3.19121"
       sodipodi:nodetypes="csssc" />
    <path
       id="circle35830"
       style="opacity:0.999883;fill:#000000;fill-opacity:1;fill-rule:evenodd;stroke-width:47.3052;stroke-linecap:round;stroke-linejoin:round;stroke-miterlimit:0.1"
       d="m -97.90238,134.77054 c 0,1.76245 1.42875,3.1912 3.1912,3.1912 1.76246,0 3.19121,-1.42875 3.19121,-3.1912 0,-1.76246 -1.42875,-3.19121 -3.19121,-3.19121 -1.76245,0 -3.1912,1.42875 -3.1912,3.19121"
       sodipodi:nodetypes="csssc" />
    <path
       id="circle35832"
       style="opacity:0.999883;fill:#000000;fill-opacity:1;fill-rule:evenodd;stroke-width:47.3052;stroke-linecap:round;stroke-linejoin:round;stroke-miterlimit:0.1"
       d="m -66.552747,118.89563 c 2e-6,1.76245 1.428753,3.1912 3.191205,3.1912 1.762452,0 3.191202,-1.42875 3.191204,-3.1912 -2e-6,-1.76245 -1.428752,-3.1912 -3.191204,-3.1912 -1.762452,0 -3.191203,1.42875 -3.191205,3.1912"
       sodipodi:nodetypes="csssc" />
    <path
       id="circle35834"
       style="opacity:0.999883;fill:#000000;fill-opacity:1;fill-rule:evenodd;stroke-width:47.3052;stroke-linecap:round;stroke-linejoin:round;stroke-miterlimit:0.1"
       d="m -82.22738,118.89563 c 2e-6,1.76245 1.428752,3.1912 3.191204,3.1912 1.762452,0 3.191203,-1.42875 3.191205,-3.1912 -2e-6,-1.76245 -1.428753,-3.1912 -3.191205,-3.1912 -1.762452,0 -3.191202,1.42875 -3.191204,3.1912"
       sodipodi:nodetypes="csssc" />
    <path
       id="circle35836"
       style="opacity:0.999883;fill:#000000;fill-opacity:1;fill-rule:evenodd;stroke-width:47.3052;stroke-linecap:round;stroke-linejoin:round;stroke-miterlimit:0.1"
       d="m -97.90238,118.89563 c 0,1.76245 1.42875,3.1912 3.1912,3.1912 1.76246,0 3.19121,-1.42875 3.19121,-3.1912 0,-1.76245 -1.42875,-3.1912 -3.19121,-3.1912 -1.76245,0 -3.1912,1.42875 -3.1912,3.1912"
       sodipodi:nodetypes="csssc" />
    <path
       id="circle35838"
       style="opacity:0.999883;fill:#000000;fill-opacity:1;fill-rule:evenodd;stroke-width:47.3052;stroke-linecap:round;stroke-linejoin:round;stroke-miterlimit:0.1"
       d="m -66.552747,103.34931 c -3e-6,1.76246 1.428749,3.19121 3.191205,3.19121 1.762456,0 3.191207,-1.42875 3.191204,-3.19121 -2e-6,-1.76245 -1.428752,-3.1912 -3.191204,-3.1912 -1.762452,0 -3.191203,1.42875 -3.191205,3.1912"
       sodipodi:nodetypes="csssc" />
    <path
       id="circle35840"
       style="opacity:0.999883;fill:#000000;fill-opacity:1;fill-rule:evenodd;stroke-width:47.3052;stroke-linecap:round;stroke-linejoin:round;stroke-miterlimit:0.1"
       d="m -82.22738,103.34931 c -3e-6,1.76246 1.428748,3.19121 3.191204,3.19121 1.762456,0 3.191208,-1.42875 3.191205,-3.19121 -2e-6,-1.76245 -1.428753,-3.1912 -3.191205,-3.1912 -1.762452,0 -3.191202,1.42875 -3.191204,3.1912"
       sodipodi:nodetypes="csssc" />
    <path
       id="circle35842"
       style="opacity:0.999883;fill:#000000;fill-opacity:1;fill-rule:evenodd;stroke-width:47.3052;stroke-linecap:round;stroke-linejoin:round;stroke-miterlimit:0.1"
       d="m -97.90238,103.34931 c 0,1.76246 1.42875,3.19121 3.1912,3.19121 1.76246,0 3.19121,-1.42875 3.19121,-3.19121 0,-1.76245 -1.42875,-3.1912 -3.19121,-3.1912 -1.76245,0 -3.1912,1.42875 -3.1912,3.1912"
       sodipodi:nodetypes="csssc" />
    <path
       id="circle35844"
       style="opacity:0.999883;fill:#000000;fill-opacity:1;fill-rule:evenodd;stroke-width:47.3052;stroke-linecap:round;stroke-linejoin:round;stroke-miterlimit:0.1"
       d="m -66.552747,87.449318 c 0,1.762454 1.428751,3.191204 3.191205,3.191204 1.762453,0 3.191204,-1.428751 3.191204,-3.191204 0,-1.762453 -1.428751,-3.191204 -3.191204,-3.191204 -1.762454,0 -3.191205,1.42875 -3.191205,3.191204"
       sodipodi:nodetypes="csssc" />
    <path
       id="circle35846"
       style="opacity:0.999883;fill:#000000;fill-opacity:1;fill-rule:evenodd;stroke-width:47.3052;stroke-linecap:round;stroke-linejoin:round;stroke-miterlimit:0.1"
       d="m -82.22738,87.449318 c 0,1.762453 1.428751,3.191204 3.191204,3.191204 1.762454,0 3.191205,-1.42875 3.191205,-3.191204 0,-1.762454 -1.428751,-3.191204 -3.191205,-3.191204 -1.762453,0 -3.191204,1.428751 -3.191204,3.191204"
       sodipodi:nodetypes="csssc" />
    <path
       id="circle35848"
       style="opacity:0.999883;fill:#000000;fill-opacity:1;fill-rule:evenodd;stroke-width:47.3052;stroke-linecap:round;stroke-linejoin:round;stroke-miterlimit:0.1"
       d="m -97.90238,87.449318 c 0,1.762453 1.42875,3.191204 3.1912,3.191204 1.76246,0 3.19121,-1.42875 3.19121,-3.191204 0,-1.762454 -1.42875,-3.191204 -3.19121,-3.191204 -1.76245,0 -3.1912,1.428751 -3.1912,3.191204"
       sodipodi:nodetypes="csssc" />
    <path
       id="circle35850"
       style="opacity:0.999883;fill:#000000;fill-opacity:1;fill-rule:evenodd;stroke-width:47.3052;stroke-linecap:round;stroke-linejoin:round;stroke-miterlimit:0.1"
       d="m -66.552747,71.849312 c 0,1.762454 1.428751,3.191204 3.191205,3.191204 1.762453,0 3.191204,-1.428751 3.191204,-3.191204 0,-1.762453 -1.428751,-3.191204 -3.191204,-3.191204 -1.762454,0 -3.191205,1.42875 -3.191205,3.191204"
       sodipodi:nodetypes="csssc" />
    <path
       id="circle35852"
       style="opacity:0.999883;fill:#000000;fill-opacity:1;fill-rule:evenodd;stroke-width:47.3052;stroke-linecap:round;stroke-linejoin:round;stroke-miterlimit:0.1"
       d="m -82.22738,71.849312 c 0,1.762453 1.428751,3.191204 3.191204,3.191204 1.762454,0 3.191205,-1.42875 3.191205,-3.191204 0,-1.762454 -1.428751,-3.191204 -3.191205,-3.191204 -1.762453,0 -3.191204,1.428751 -3.191204,3.191204"
       sodipodi:nodetypes="csssc" />
    <path
       id="circle35854"
       style="opacity:0.999883;fill:#000000;fill-opacity:1;fill-rule:evenodd;stroke-width:47.3052;stroke-linecap:round;stroke-linejoin:round;stroke-miterlimit:0.1"
       d="m -97.90238,71.849312 c 0,1.762453 1.42875,3.191204 3.1912,3.191204 1.76246,0 3.19121,-1.42875 3.19121,-3.191204 0,-1.762454 -1.42875,-3.191204 -3.19121,-3.191204 -1.76245,0 -3.1912,1.428751 -3.1912,3.191204"
       sodipodi:nodetypes="csssc" />
    <path
       sodipodi:nodetypes="ccccsscccsacc"
       d="m 101.92741,103.04169 0.1383,-29.483541 -29.560234,0.138212 -133.983517,135.246389 c 0,0 -13.161936,17.7086 -17.1916,27.84525 -2.57619,6.48043 -8.344419,19.27434 -11.168009,31.05188 -2.74161,11.43559 -2.57732,21.95623 -2.57732,21.95623 l -9.8e-4,13.55785 h 41.576504 c 0,0 1.590715,-30.34926 7.451216,-44.03372 2.920066,-6.81845 8.665015,-15.85524 14.074664,-23.05167 5.087564,-6.76796 17.146862,-18.73986 17.146862,-18.73986 z"
       style="opacity:0.999883;fill:#ffffff;fill-opacity:1;fill-rule:evenodd;stroke-width:47.3051;stroke-linecap:round;stroke-linejoin:round;stroke-miterlimit:0.1"
       id="rect35856" />
    <path
       style="color:#000000;font-style:normal;font-variant:normal;font-weight:normal;font-stretch:normal;font-size:medium;line-height:normal;font-family:sans-serif;font-variant-ligatures:normal;font-variant-position:normal;font-variant-caps:normal;font-variant-numeric:normal;font-variant-alternates:normal;font-variant-east-asian:normal;font-feature-settings:normal;font-variation-settings:normal;text-indent:0;text-align:start;text-decoration:none;text-decoration-line:none;text-decoration-style:solid;text-decoration-color:#000000;letter-spacing:normal;word-spacing:normal;text-transform:none;writing-mode:lr-tb;direction:ltr;text-orientation:mixed;dominant-baseline:auto;baseline-shift:baseline;text-anchor:start;white-space:normal;shape-padding:0;shape-margin:0;inline-size:0;clip-rule:nonzero;display:inline;overflow:visible;visibility:visible;opacity:1;isolation:auto;mix-blend-mode:normal;color-interpolation:sRGB;color-interpolation-filters:linearRGB;solid-color:#000000;solid-opacity:1;vector-effect:none;fill:#000000;fill-opacity:1;fill-rule:nonzero;stroke:none;stroke-width:1.6;stroke-linecap:butt;stroke-linejoin:miter;stroke-miterlimit:4;stroke-dasharray:none;stroke-dashoffset:0;stroke-opacity:1;color-rendering:auto;image-rendering:auto;shape-rendering:auto;text-rendering:auto;enable-background:accumulate;stop-color:#000000;stop-opacity:1"
       d="m -9.963998,184.80273 1.144532,1.11719 -8.714844,8.92188 -1.144531,-1.11719 z"
       id="path24514" />
    <path
       style="color:#000000;font-style:normal;font-variant:normal;font-weight:normal;font-stretch:normal;font-size:medium;line-height:normal;font-family:sans-serif;font-variant-ligatures:normal;font-variant-position:normal;font-variant-caps:normal;font-variant-numeric:normal;font-variant-alternates:normal;font-variant-east-asian:normal;font-feature-settings:normal;font-variation-settings:normal;text-indent:0;text-align:start;text-decoration:none;text-decoration-line:none;text-decoration-style:solid;text-decoration-color:#000000;letter-spacing:normal;word-spacing:normal;text-transform:none;writing-mode:lr-tb;direction:ltr;text-orientation:mixed;dominant-baseline:auto;baseline-shift:baseline;text-anchor:start;white-space:normal;shape-padding:0;shape-margin:0;inline-size:0;clip-rule:nonzero;display:inline;overflow:visible;visibility:visible;opacity:1;isolation:auto;mix-blend-mode:normal;color-interpolation:sRGB;color-interpolation-filters:linearRGB;solid-color:#000000;solid-opacity:1;vector-effect:none;fill:#000000;fill-opacity:1;fill-rule:nonzero;stroke:none;stroke-width:1.6;stroke-linecap:butt;stroke-linejoin:miter;stroke-miterlimit:4;stroke-dasharray:none;stroke-dashoffset:0;stroke-opacity:1;color-rendering:auto;image-rendering:auto;shape-rendering:auto;text-rendering:auto;enable-background:accumulate;stop-color:#000000;stop-opacity:1"
       d="m -71.874154,280.33594 1.597656,0.0957 c -0.258615,4.30646 -0.710693,8.88459 -0.480468,12.31055 l -1.595704,0.10742 c -0.245667,-3.65576 0.222641,-8.25285 0.478516,-12.51367 z"
       id="path24526" />
    <path
       style="color:#000000;font-style:normal;font-variant:normal;font-weight:normal;font-stretch:normal;font-size:medium;line-height:normal;font-family:sans-serif;font-variant-ligatures:normal;font-variant-position:normal;font-variant-caps:normal;font-variant-numeric:normal;font-variant-alternates:normal;font-variant-east-asian:normal;font-feature-settings:normal;font-variation-settings:normal;text-indent:0;text-align:start;text-decoration:none;text-decoration-line:none;text-decoration-style:solid;text-decoration-color:#000000;letter-spacing:normal;word-spacing:normal;text-transform:none;writing-mode:lr-tb;direction:ltr;text-orientation:mixed;dominant-baseline:auto;baseline-shift:baseline;text-anchor:start;white-space:normal;shape-padding:0;shape-margin:0;inline-size:0;clip-rule:nonzero;display:inline;overflow:visible;visibility:visible;opacity:1;isolation:auto;mix-blend-mode:normal;color-interpolation:sRGB;color-interpolation-filters:linearRGB;solid-color:#000000;solid-opacity:1;vector-effect:none;fill:#000000;fill-opacity:1;fill-rule:nonzero;stroke:none;stroke-width:1.6;stroke-linecap:butt;stroke-linejoin:miter;stroke-miterlimit:4;stroke-dasharray:none;stroke-dashoffset:0;stroke-opacity:1;color-rendering:auto;image-rendering:auto;shape-rendering:auto;text-rendering:auto;enable-background:accumulate;stop-color:#000000;stop-opacity:1"
       d="m -62.049935,244.0625 1.470703,0.63086 c -1.674542,3.90524 -3.373046,7.79374 -4.419922,11.44726 l -1.539062,-0.43945 c 1.08999,-3.80399 2.816964,-7.74095 4.488281,-11.63867 z"
       id="path24530" />
    <path
       style="color:#000000;font-style:normal;font-variant:normal;font-weight:normal;font-stretch:normal;font-size:medium;line-height:normal;font-family:sans-serif;font-variant-ligatures:normal;font-variant-position:normal;font-variant-caps:normal;font-variant-numeric:normal;font-variant-alternates:normal;font-variant-east-asian:normal;font-feature-settings:normal;font-variation-settings:normal;text-indent:0;text-align:start;text-decoration:none;text-decoration-line:none;text-decoration-style:solid;text-decoration-color:#000000;letter-spacing:normal;word-spacing:normal;text-transform:none;writing-mode:lr-tb;direction:ltr;text-orientation:mixed;dominant-baseline:auto;baseline-shift:baseline;text-anchor:start;white-space:normal;shape-padding:0;shape-margin:0;inline-size:0;clip-rule:nonzero;display:inline;overflow:visible;visibility:visible;opacity:1;isolation:auto;mix-blend-mode:normal;color-interpolation:sRGB;color-interpolation-filters:linearRGB;solid-color:#000000;solid-opacity:1;vector-effect:none;fill:#000000;fill-opacity:1;fill-rule:nonzero;stroke:none;stroke-width:1.6;stroke-linecap:butt;stroke-linejoin:miter;stroke-miterlimit:4;stroke-dasharray:none;stroke-dashoffset:0;stroke-opacity:1;color-rendering:auto;image-rendering:auto;shape-rendering:auto;text-rendering:auto;enable-background:accumulate;stop-color:#000000;stop-opacity:1"
       d="m -36.354623,211.29297 1.144532,1.11719 -8.714844,8.92187 -1.144531,-1.11719 z"
       id="path24534" />
    <path
       style="color:#000000;font-style:normal;font-variant:normal;font-weight:normal;font-stretch:normal;font-size:medium;line-height:normal;font-family:sans-serif;font-variant-ligatures:normal;font-variant-position:normal;font-variant-caps:normal;font-variant-numeric:normal;font-variant-alternates:normal;font-variant-east-asian:normal;font-feature-settings:normal;font-variation-settings:normal;text-indent:0;text-align:start;text-decoration:none;text-decoration-line:none;text-decoration-style:solid;text-decoration-color:#000000;letter-spacing:normal;word-spacing:normal;text-transform:none;writing-mode:lr-tb;direction:ltr;text-orientation:mixed;dominant-baseline:auto;baseline-shift:baseline;text-anchor:start;white-space:normal;shape-padding:0;shape-margin:0;inline-size:0;clip-rule:nonzero;display:inline;overflow:visible;visibility:visible;opacity:1;isolation:auto;mix-blend-mode:normal;color-interpolation:sRGB;color-interpolation-filters:linearRGB;solid-color:#000000;solid-opacity:1;vector-effect:none;fill:#000000;fill-opacity:1;fill-rule:nonzero;stroke:none;stroke-width:1.6;stroke-linecap:butt;stroke-linejoin:miter;stroke-miterlimit:4;stroke-dasharray:none;stroke-dashoffset:0;stroke-opacity:1;color-rendering:auto;image-rendering:auto;shape-rendering:auto;text-rendering:auto;enable-background:accumulate;stop-color:#000000;stop-opacity:1"
       d="m 16.317252,158.42773 1.132813,1.13086 -8.732422,8.73829 -1.132813,-1.13086 z"
       id="path24518" />
    <path
       style="color:#000000;font-style:normal;font-variant:normal;font-weight:normal;font-stretch:normal;font-size:medium;line-height:normal;font-family:sans-serif;font-variant-ligatures:normal;font-variant-position:normal;font-variant-caps:normal;font-variant-numeric:normal;font-variant-alternates:normal;font-variant-east-asian:normal;font-feature-settings:normal;font-variation-settings:normal;text-indent:0;text-align:start;text-decoration:none;text-decoration-line:none;text-decoration-style:solid;text-decoration-color:#000000;letter-spacing:normal;word-spacing:normal;text-transform:none;writing-mode:lr-tb;direction:ltr;text-orientation:mixed;dominant-baseline:auto;baseline-shift:baseline;text-anchor:start;white-space:normal;shape-padding:0;shape-margin:0;inline-size:0;clip-rule:nonzero;display:inline;overflow:visible;visibility:visible;opacity:1;isolation:auto;mix-blend-mode:normal;color-interpolation:sRGB;color-interpolation-filters:linearRGB;solid-color:#000000;solid-opacity:1;vector-effect:none;fill:#000000;fill-opacity:1;fill-rule:nonzero;stroke:none;stroke-width:1.6;stroke-linecap:butt;stroke-linejoin:miter;stroke-miterlimit:4;stroke-dasharray:none;stroke-dashoffset:0;stroke-opacity:1;color-rendering:auto;image-rendering:auto;shape-rendering:auto;text-rendering:auto;enable-background:accumulate;stop-color:#000000;stop-opacity:1"
       d="m 42.793815,131.82812 1.132812,1.13086 -8.734375,8.73829 -1.130859,-1.13086 z"
       id="path24522" />
    <path
       style="color:#000000;font-style:normal;font-variant:normal;font-weight:normal;font-stretch:normal;font-size:medium;line-height:normal;font-family:sans-serif;font-variant-ligatures:normal;font-variant-position:normal;font-variant-caps:normal;font-variant-numeric:normal;font-variant-alternates:normal;font-variant-east-asian:normal;font-feature-settings:normal;font-variation-settings:normal;text-indent:0;text-align:start;text-decoration:none;text-decoration-line:none;text-decoration-style:solid;text-decoration-color:#000000;letter-spacing:normal;word-spacing:normal;text-transform:none;writing-mode:lr-tb;direction:ltr;text-orientation:mixed;dominant-baseline:auto;baseline-shift:baseline;text-anchor:start;white-space:normal;shape-padding:0;shape-margin:0;inline-size:0;clip-rule:nonzero;display:inline;overflow:visible;visibility:visible;opacity:1;isolation:auto;mix-blend-mode:normal;color-interpolation:sRGB;color-interpolation-filters:linearRGB;solid-color:#000000;solid-opacity:1;vector-effect:none;fill:#000000;fill-opacity:1;fill-rule:nonzero;stroke:none;stroke-width:1.6;stroke-linecap:butt;stroke-linejoin:miter;stroke-miterlimit:4;stroke-dasharray:none;stroke-dashoffset:0;stroke-opacity:1;color-rendering:auto;image-rendering:auto;shape-rendering:auto;text-rendering:auto;enable-background:accumulate;stop-color:#000000;stop-opacity:1"
       d="m 69.180534,105.38477 1.130859,1.13085 -8.732422,8.73829 -1.130859,-1.13086 z"
       id="path24288"
       sodipodi:nodetypes="ccccc" />
    <path
       style="color:#000000;font-style:normal;font-variant:normal;font-weight:normal;font-stretch:normal;font-size:medium;line-height:normal;font-family:sans-serif;font-variant-ligatures:normal;font-variant-position:normal;font-variant-caps:normal;font-variant-numeric:normal;font-variant-alternates:normal;font-variant-east-asian:normal;font-feature-settings:normal;font-variation-settings:normal;text-indent:0;text-align:start;text-decoration:none;text-decoration-line:none;text-decoration-style:solid;text-decoration-color:#000000;letter-spacing:normal;word-spacing:normal;text-transform:none;writing-mode:lr-tb;direction:ltr;text-orientation:mixed;dominant-baseline:auto;baseline-shift:baseline;text-anchor:start;white-space:normal;shape-padding:0;shape-margin:0;inline-size:0;clip-rule:nonzero;display:inline;overflow:visible;visibility:visible;opacity:1;isolation:auto;mix-blend-mode:normal;color-interpolation:sRGB;color-interpolation-filters:linearRGB;solid-color:#000000;solid-opacity:1;vector-effect:none;fill:#000000;fill-opacity:1;fill-rule:nonzero;stroke:none;stroke-width:1.6;stroke-linecap:butt;stroke-linejoin:miter;stroke-miterlimit:4;stroke-dasharray:none;stroke-dashoffset:0;stroke-opacity:1;color-rendering:auto;image-rendering:auto;shape-rendering:auto;text-rendering:auto;enable-background:accumulate;stop-color:#000000;stop-opacity:1"
       d="m 95.463738,78.962891 1.13086,1.130859 -8.73242,8.738281 -1.13086,-1.130859 z"
       id="path24284"
       sodipodi:nodetypes="ccccc" />
    <path
       style="fill:#ffffff;fill-opacity:1;stroke-width:0.0157032"
       d="m -127.41289,394.32609 v -15.51621 h 8.09779 c 9.21007,0 8.81052,-0.0144 10.13942,0.3659 2.97831,0.8547 5.24387,3.08983 6.17322,6.09287 0.26349,0.84884 0.40979,2.07033 0.36589,2.95869 0,0.57957 -0.2048,1.59015 -0.35125,2.12579 -0.14641,0.40105 -0.43907,1.22354 -0.62933,1.60508 -0.14641,0.24307 -0.58543,0.96594 -0.92204,1.42256 -0.52687,0.73617 -1.75478,1.79416 -2.6329,2.27888 -0.74643,0.41126 -1.93334,0.86495 -2.53046,0.96594 -0.17575,0.0293 -0.322,0.0731 -0.33661,0.10241 -0.006,0.0293 1.65965,2.97977 3.7042,6.56983 l 3.71594,6.52712 -3.23297,0.0115 c -2.73826,0.0115 -3.2388,9.8e-4 -3.27686,-0.0584 0,-0.0294 -1.67135,-2.96148 -3.65887,-6.50328 l -3.61494,-6.43973 -2.69877,-9.8e-4 -2.69876,-0.001 v 6.50456 6.5046 h -2.79976 -2.80123 z m 16.4707,-3.16304 c 1.24402,-0.21373 2.33581,-1.2674 2.65927,-2.57361 0.14642,-0.50201 0.14642,-1.21476 0,-1.6939 -0.16108,-0.51956 -0.322,-0.81962 -0.62933,-1.2089 -0.48297,-0.60298 -1.21473,-1.04789 -1.9143,-1.17961 -0.39515,-0.0731 -10.95463,-0.0877 -10.94876,-0.0144 0.003,0.0293 0.006,1.56058 0.0115,3.39909 l 0.006,3.34271 h 5.23363 c 4.48429,0 5.29216,-0.0115 5.63611,-0.0731 z"
       id="path48769-2"
       sodipodi:nodetypes="ccsccccccccccccccccccccccccccccccscc" />
    <path
       d="m -70.031024,409.21931 -5.096454,-2.9e-4 v -0.56691 c 0,0 -2.86406,1.02843 -4.363164,1.14219 -1.823476,0.13842 -3.726544,0.0204 -5.456148,-0.57275 -1.387046,-0.47621 -2.815564,-1.20337 -4.065983,-2.06878 -0.590369,-0.40862 -1.119389,-0.86333 -1.590442,-1.4527 -0.540066,-0.67576 -0.835789,-1.58639 -0.852139,-2.45129 -0.0204,-1.14117 0.225865,-2.40313 1.001356,-3.27436 1.591286,-1.78794 3.957189,-2.9841 6.375056,-3.57009 0.911825,-0.22091 1.81039,-0.31986 2.707643,-0.41825 0.947673,-0.10405 2.384293,0.0463 3.588694,0.33233 1.438339,0.34162 2.576264,0.84109 2.576264,0.84109 0,0 0.131147,-0.83091 0.06528,-1.23931 -0.101131,-0.6268 -0.403089,-1.37466 -0.693158,-1.77408 -0.713005,-0.98183 -2.003061,-1.4398 -3.158996,-1.80891 -0.41259,-0.13173 -0.86027,-0.11278 -1.293144,-0.12735 -0.533684,-0.0175 -1.068999,0.006 -1.601225,0.0489 -0.860795,0.0703 -1.87474,0.20139 -2.568307,0.34204 -2.375957,0.48141 -3.688453,1.20944 -3.688453,1.20944 l -2.061228,-4.59555 c 0,0 1.666069,-0.80061 3.96631,-1.38098 1.80803,-0.45616 4.123019,-0.73481 5.548856,-0.66231 2.71085,0.13786 5.447667,0.73391 7.389263,2.40619 1.941626,1.67227 3.270239,3.94556 3.270239,6.61534 z m -5.27668,-6.29663 c 0,0 -0.939949,-0.75541 -2.193866,-1.25226 -1.099163,-0.43555 -2.459339,-0.6211 -3.373671,-0.61513 -0.845377,0.006 -2.295869,0.27978 -3.318908,0.69316 -1.257239,0.50809 -2.016729,1.17423 -2.016729,1.17423 0,0 0.649006,0.63951 1.813392,1.12047 1.100649,0.45467 2.691761,0.75226 3.623171,0.75304 0.918383,7.7e-4 2.22916,-0.20342 3.322727,-0.64935 1.200145,-0.48926 2.143884,-1.22416 2.143884,-1.22416 z"
       style="font-style:normal;font-variant:normal;font-weight:normal;font-stretch:normal;font-size:46.5314px;line-height:1.15;font-family:'Highway Gothic Wide';-inkscape-font-specification:'Highway Gothic Wide';fill:#ffffff;fill-opacity:1;stroke:none;stroke-width:0.198439;stroke-opacity:1"
       id="path108315"
       sodipodi:nodetypes="cccasasasssscasaaasccssssccssscsssc" />
    <path
       sodipodi:nodetypes="cccasasasssscasaaasccssssccssscsssc"
       id="path42831"
       style="font-style:normal;font-variant:normal;font-weight:normal;font-stretch:normal;font-size:46.5314px;line-height:1.15;font-family:'Highway Gothic Wide';-inkscape-font-specification:'Highway Gothic Wide';fill:#ffffff;fill-opacity:1;stroke:none;stroke-width:0.198439;stroke-opacity:1"
       d="M 53.019134,409.40829 47.92268,409.408 v -0.56691 c 0,0 -2.86406,1.02843 -4.363164,1.14219 -1.823476,0.13842 -3.726544,0.0204 -5.456148,-0.57275 -1.387046,-0.47621 -2.815564,-1.20337 -4.065983,-2.06878 -0.590369,-0.40862 -1.119389,-0.86333 -1.590442,-1.4527 -0.540066,-0.67576 -0.835789,-1.58639 -0.852139,-2.45129 -0.0204,-1.14117 0.225865,-2.40313 1.001356,-3.27436 1.591286,-1.78794 3.957189,-2.9841 6.375056,-3.57009 0.911825,-0.22091 1.81039,-0.31986 2.707643,-0.41825 0.947673,-0.10405 2.384293,0.0463 3.588694,0.33233 1.438339,0.34162 2.576264,0.84109 2.576264,0.84109 0,0 0.131147,-0.83091 0.06528,-1.23931 -0.101131,-0.6268 -0.403089,-1.37466 -0.693158,-1.77408 -0.713005,-0.98183 -2.003061,-1.4398 -3.158996,-1.80891 -0.41259,-0.13173 -0.86027,-0.11278 -1.293144,-0.12735 -0.533684,-0.0175 -1.068999,0.006 -1.601225,0.0489 -0.860795,0.0703 -1.87474,0.20139 -2.568307,0.34204 -2.375957,0.48141 -3.688453,1.20944 -3.688453,1.20944 l -2.061228,-4.59555 c 0,0 1.666069,-0.80061 3.96631,-1.38098 1.80803,-0.45616 4.123019,-0.73481 5.548856,-0.66231 2.71085,0.13786 5.447667,0.73391 7.389263,2.40619 1.941626,1.67227 3.270239,3.94556 3.270239,6.61534 z m -5.27668,-6.29663 c 0,0 -0.939949,-0.75541 -2.193866,-1.25226 -1.099163,-0.43555 -2.459339,-0.6211 -3.373671,-0.61513 -0.845377,0.006 -2.295869,0.27978 -3.318908,0.69316 -1.257239,0.50809 -2.016729,1.17423 -2.016729,1.17423 0,0 0.649006,0.63951 1.813392,1.12047 1.100649,0.45467 2.691761,0.75226 3.623171,0.75304 0.918383,7.7e-4 2.22916,-0.20342 3.322727,-0.64935 1.200145,-0.48926 2.143884,-1.22416 2.143884,-1.22416 z" />
    <path
       d="m -26.943024,358.11291 -5.096454,-2.9e-4 v -0.56691 c 0,0 -2.86406,1.02843 -4.363164,1.14219 -1.823476,0.13842 -3.726544,0.0204 -5.456148,-0.57275 -1.387046,-0.47621 -2.815564,-1.20337 -4.065983,-2.06878 -0.590369,-0.40862 -1.119389,-0.86333 -1.590442,-1.4527 -0.540066,-0.67576 -0.835789,-1.58639 -0.852139,-2.45129 -0.0204,-1.14117 0.225865,-2.40313 1.001356,-3.27436 1.591286,-1.78794 3.957189,-2.9841 6.375056,-3.57009 0.911825,-0.22091 1.81039,-0.31986 2.707643,-0.41825 0.947673,-0.10405 2.384293,0.0463 3.588694,0.33233 1.438339,0.34162 2.576264,0.84109 2.576264,0.84109 0,0 0.131147,-0.83091 0.06528,-1.23931 -0.101131,-0.6268 -0.403089,-1.37466 -0.693158,-1.77408 -0.713005,-0.98183 -2.003061,-1.4398 -3.158996,-1.80891 -0.41259,-0.13173 -0.86027,-0.11278 -1.293144,-0.12735 -0.533684,-0.0175 -1.068999,0.006 -1.601225,0.0489 -0.860795,0.0703 -1.87474,0.20139 -2.568307,0.34204 -2.375957,0.48141 -3.688453,1.20944 -3.688453,1.20944 l -2.061228,-4.59555 c 0,0 1.666069,-0.80061 3.96631,-1.38098 1.80803,-0.45616 4.123019,-0.73481 5.548856,-0.66231 2.71085,0.13786 5.447667,0.73391 7.389263,2.40619 1.941626,1.67227 3.270239,3.94556 3.270239,6.61534 z m -5.27668,-6.29663 c 0,0 -0.939949,-0.75541 -2.193866,-1.25226 -1.099163,-0.43555 -2.459339,-0.6211 -3.373671,-0.61513 -0.845377,0.006 -2.295869,0.27978 -3.318908,0.69316 -1.257239,0.50809 -2.016729,1.17423 -2.016729,1.17423 0,0 0.649006,0.63951 1.813392,1.12047 1.100649,0.45467 2.691761,0.75226 3.623171,0.75304 0.918383,7.7e-4 2.22916,-0.20342 3.322727,-0.64935 1.200145,-0.48926 2.143884,-1.22416 2.143884,-1.22416 z"
       style="font-style:normal;font-variant:normal;font-weight:normal;font-stretch:normal;font-size:46.5314px;line-height:1.15;font-family:'Highway Gothic Wide';-inkscape-font-specification:'Highway Gothic Wide';fill:#ffffff;fill-opacity:1;stroke:none;stroke-width:0.198439;stroke-opacity:1"
       id="path42833"
       sodipodi:nodetypes="cccasasasssscasaaasccssssccssscsssc" />
    <path
       sodipodi:nodetypes="acssccsccsscsaaaaaaaaaa"
       id="path24097-6"
       style="font-style:normal;font-variant:normal;font-weight:normal;font-stretch:normal;font-size:47.3331px;line-height:1.15;font-family:'Highway Gothic Wide';-inkscape-font-specification:'Highway Gothic Wide';fill:#ffffff;fill-opacity:1;stroke:none;stroke-width:0.264583;stroke-opacity:1"
       d="m 21.953213,398.57514 c 0,3.10026 -1.102998,5.7472 -3.308995,7.94079 -2.171009,2.19358 -4.814724,3.29037 -7.931144,3.29037 -2.3386433,0 -4.4073463,-0.60399 -6.2060515,-1.81198 -0.00866,-0.006 -0.01732,10.53441 -0.01732,10.53441 h -4.99820607 c 0,0 -0.0173205,-16.85333 -0.0173205,-19.95359 0,-3.12952 0.0173205,-11.25558 0.0173205,-11.25558 H 4.489702 c 0,0 0.020207,1.79149 0.030311,1.78476 1.7960205,-1.20282 3.8608264,-1.80422 6.194446,-1.80422 3.116421,0 5.760135,1.09679 7.931145,3.29038 2.205997,2.19358 3.308995,4.85514 3.308995,7.98466 z m -5.097019,-0.56909 c -0.135389,-1.56197 -0.958141,-3.15542 -2.135445,-4.19084 -1.105106,-0.97194 -2.686525,-1.52626 -4.1577,-1.48567 -1.5135517,0.0419 -3.1002251,0.70752 -4.1867691,1.76205 -1.1085121,1.07586 -1.837532,2.67344 -1.9244809,4.21575 -0.085737,1.52056 0.3885277,3.22106 1.4181449,4.34329 1.1986076,1.30642 3.1230597,2.11607 4.8956401,2.07924 1.737968,-0.0361 3.574259,-0.92125 4.711205,-2.23623 1.023526,-1.18379 1.51462,-2.92849 1.379405,-4.48759 z" />
    <path
       id="path108287"
       style="font-style:normal;font-variant:normal;font-weight:normal;font-stretch:normal;font-size:122.83px;line-height:1.15;font-family:'Highway Gothic Wide';-inkscape-font-specification:'Highway Gothic Wide';text-align:center;letter-spacing:3.26px;text-anchor:middle;fill:#ffffff;fill-opacity:1;stroke-width:0.392999"
       d="m 18.592028,336.14518 v 22.48283 H 23.5594 v -22.48283 z"
       sodipodi:nodetypes="ccccc" />
    <path
       sodipodi:nodetypes="ccccc"
       d="m 96.631808,387.38414 v 22.48283 h 4.967372 v -22.48283 z"
       style="font-style:normal;font-variant:normal;font-weight:normal;font-stretch:normal;font-size:122.83px;line-height:1.15;font-family:'Highway Gothic Wide';-inkscape-font-specification:'Highway Gothic Wide';text-align:center;letter-spacing:3.26px;text-anchor:middle;fill:#ffffff;fill-opacity:1;stroke-width:0.392999"
       id="path24138" />
    <path
       sodipodi:nodetypes="ccccccccccccc"
       id="path24141-9"
       style="font-style:normal;font-variant:normal;font-weight:normal;font-stretch:normal;font-size:122.83px;line-height:1.15;font-family:'Highway Gothic Wide';-inkscape-font-specification:'Highway Gothic Wide';text-align:center;letter-spacing:3.26px;text-anchor:middle;fill:#ffffff;fill-opacity:1;stroke-width:0.424286"
       d="m -56.550418,358.62603 -6.732257,-0.0112 -10.01463,-14.61226 -2.302141,2.26476 v 12.35811 l -5.556961,5.1e-4 0.0382,-30.81218 5.516769,-0.003 0.01123,10.7509 11.112771,-10.75042 h 7.931285 l -12.646455,12.37455 z" />
    <path
       d="m 6.035739,354.59721 c -1.7535657,2.06626 -3.8593517,3.37085 -6.2333012,3.89629 -0.0086,0.001 2.006e-4,5.21711 2.006e-4,5.21711 h -4.9400001 c 0,0 -0.00212,-5.20883 -0.0086,-5.21018 -0.6268609,-0.13727 -1.2242603,-0.32834 -1.7948061,-0.56965 -1.3243378,-0.56014 -2.5039758,-1.39163 -3.5715562,-2.45483 -2.096815,-2.11716 -3.273186,-4.68132 -3.273186,-7.90057 0,-3.21925 1.131347,-5.75713 3.228162,-7.8743 0.960883,-0.97016 2.0558333,-1.70564 3.2326913,-2.25406 1.3912857,-0.64839 2.9103622,-1.02205 4.6487376,-1.02205 3.3994014,0 6.5931163,1.52926 8.7262721,4.19748 l -3.8693253,3.109 c -1.2325427,-1.44196 -2.8296008,-2.20303 -4.767559,-2.29004 -1.6838371,0 -3.4428191,0.7476 -4.52301,1.90769 -1.0484079,1.13109 -1.6982821,2.43652 -1.6982821,4.23468 0,1.76912 0.5662469,3.0031 1.6146834,4.16319 0.5247485,0.56358 1.2148315,1.12496 2.0153953,1.48019 0.8473641,0.37603 1.814236,0.52959 2.6800566,0.52959 1.937987,-0.14502 2.9991482,-0.50861 4.6787158,-2.26086 z"
       style="font-style:normal;font-variant:normal;font-weight:normal;font-stretch:normal;font-size:91.4035px;line-height:1.15;font-family:'Highway Gothic Wide';-inkscape-font-specification:'Highway Gothic Wide';fill:#ffffff;fill-opacity:1;stroke-width:0.264583"
       id="path24166"
       sodipodi:nodetypes="csccsscssssccccscsccc" />
    <path
       d="m -15.423853,409.87721 -4.999581,3e-5 2.8e-5,-11.50418 c 0,0 -0.325352,-2.22759 -1.00905,-3.05298 -0.506049,-0.61091 -1.089267,-1.28465 -1.8318,-1.77562 -1.073516,-0.70977 -2.363484,-1.11522 -3.258001,-1.04758 -0.423474,0.0319 -0.883565,0.0201 -1.314341,0.10375 -1.081133,0.2124 -2.111165,0.68278 -2.89517,1.40484 -0.630987,0.58116 -1.398006,1.62018 -1.771327,2.64556 -0.370936,1.01879 -0.350185,2.02577 -0.350185,2.02577 v 11.20056 h -4.957878 v -11.50424 c 0,0 -0.05604,-0.91943 -0.414421,-1.89561 -0.273617,-0.74526 -0.786477,-1.52357 -1.211188,-1.9511 -0.564135,-0.5679 -1.219034,-1.1101 -1.971884,-1.46676 -0.869338,-0.41183 -1.856632,-0.59442 -2.780781,-0.57896 -1.055553,0.0173 -2.158127,0.35165 -3.088312,0.93291 -0.508233,0.31763 -0.93849,0.74144 -1.342938,1.15273 -0.440059,0.44757 -0.917222,1.24703 -1.199864,1.99951 -0.29891,0.79576 -0.390825,1.53332 -0.390825,1.53332 l -0.0296,11.7782 h -4.924539 v -21.76058 h 4.924539 v 1.29963 c 0,0 0.976083,-0.71443 2.31744,-1.21559 1.347509,-0.50343 3.062877,-0.79341 4.191836,-0.69496 1.323567,0.11553 3.386044,0.44592 4.921807,1.29186 2.06791,1.13908 3.46103,2.8551 3.46103,2.8551 0,0 0.760755,-0.85042 1.193858,-1.21906 0.717728,-0.61087 1.62831,-1.2841 2.310284,-1.63003 1.536424,-0.77932 3.276856,-1.30966 4.99961,-1.30963 1.959152,0 3.960583,0.56065 5.685637,1.48937 1.442153,0.7764 2.679984,1.96741 3.656471,3.28238 0.761846,1.02598 1.293647,2.22797 1.62673,3.47147 0.308423,1.15151 0.358864,2.12489 0.358864,2.12489 z"
       style="font-style:normal;font-variant:normal;font-weight:normal;font-stretch:normal;font-size:30px;line-height:1.15;font-family:'Highway Gothic Wide';-inkscape-font-specification:'Highway Gothic Wide';fill:#ffffff;fill-opacity:1;stroke-width:0.264583"
       id="path42828"
       sodipodi:nodetypes="cccssssssccccsssssssccccccssscasaaascc" />
    <path
       d="m 55.4799,352.5318 c -0.02048,1.17241 -0.263559,2.22715 -0.778743,3.19281 -0.351899,0.65957 -0.794742,1.30337 -1.518608,1.81297 -0.369334,0.2539 -0.814839,0.37132 -1.258882,0.49979 -0.461476,0.13368 -0.92427,0.27497 -1.455249,0.3844 -0.415434,0.0857 -0.849502,0.16761 -1.297318,0.24162 -0.02633,0.006 -0.0059,5.00977 -0.0059,5.00977 h -5.011042 c 0,0 -0.01755,-4.74805 -0.03803,-4.74931 -3.201553,-0.20096 -6.084175,-0.87782 -8.839638,-2.31467 l 2.249758,-4.54088 c 2.756546,1.46494 5.592569,1.78752 8.05724,1.81742 0.666239,0 1.651587,-0.0468 2.468035,-0.16118 0.761132,-0.10677 2.253473,-0.48806 2.253473,-0.48806 0,0 0.08863,-0.26386 0.103259,-0.40116 0.01463,-0.13661 -0.0059,-0.30525 -0.01755,-0.4114 -0.0117,-0.12637 -0.03422,-0.2659 -0.11613,-0.36293 -0.138946,-0.16439 -0.253906,-0.36494 -0.441615,-0.47092 -0.387265,-0.21852 -0.874249,-0.30144 -1.315601,-0.43902 -1.111511,-0.34637 -2.236711,-0.64719 -3.354599,-0.97238 -0.662291,-0.19277 -1.32464,-0.38522 -1.986345,-0.57989 -0.425234,-0.1252 -0.850848,-0.24894 -1.274912,-0.37794 -0.899523,-0.2735 -1.834353,-0.4558 -2.692777,-0.83926 -0.605805,-0.27058 -1.334965,-0.67502 -1.709243,-1.02004 -1.23232,-1.19587 -1.969232,-2.39669 -2.148166,-3.85756 -0.20798,-1.69839 0.358686,-3.78688 1.341226,-4.95493 0.368573,-0.43817 0.674751,-0.76538 1.109989,-1.01358 0.516997,-0.29483 1.131168,-0.37334 1.707517,-0.52174 0.82496,-0.21236 1.657555,-0.40537 2.500797,-0.52638 1.141933,-0.16381 2.414709,-0.26824 3.450516,-0.26824 3.178153,0 6.052379,0.62792 8.747349,1.78919 l -1.936968,4.65779 c -1.796881,-0.84116 -4.899622,-1.37641 -7.415455,-1.40891 -1.479147,-0.0175 -4.379729,0.7155 -4.379729,0.7155 0,0 -0.134851,0.30071 -0.137484,0.46104 -0.0059,0.29252 0.03305,0.62724 0.224654,0.84833 0.48599,0.56099 1.349621,0.62306 2.049208,0.87106 0.571551,0.20242 1.166094,0.33344 1.748703,0.5017 1.020333,0.29471 2.053098,0.61224 3.059419,0.88955 1.861791,0.51307 4.549566,0.97303 6.124543,2.51987 1.157641,1.13699 1.900491,2.25528 1.932902,4.46763 z"
       style="font-style:normal;font-variant:normal;font-weight:normal;font-stretch:normal;font-size:19.6811px;line-height:1.15;font-family:'Highway Gothic Wide';-inkscape-font-specification:'Highway Gothic Wide';fill:#ffffff;fill-opacity:1;stroke-width:0.130183"
       id="path24250"
       sodipodi:nodetypes="cscsssccscccacasssaaaaacasaaasccacaaaasacc" />
    <path
       sodipodi:nodetypes="cscssccccacasssaaaaacasaaasccacaaaasacc"
       id="path24247-2"
       style="font-style:normal;font-variant:normal;font-weight:normal;font-stretch:normal;font-size:19.6811px;line-height:1.15;font-family:'Highway Gothic Wide';-inkscape-font-specification:'Highway Gothic Wide';fill:#ffffff;fill-opacity:1;stroke-width:0.130183"
       d="m 84.7192,403.38978 c -0.01998,1.14764 -0.257989,2.18008 -0.762291,3.12535 -0.344456,0.64563 -0.777946,1.27583 -1.486518,1.77465 -0.361529,0.24855 -0.797616,0.36349 -1.232275,0.48925 -0.451725,0.13085 -0.904742,0.26916 -1.424503,0.37628 -1.395494,0.28753 -3.005738,0.53512 -4.638062,0.55202 -3.777619,-0.0587 -7.089339,-0.68758 -10.232061,-2.32634 l 2.202218,-4.44493 c 2.698303,1.43397 5.474402,1.74975 7.88699,1.77901 0.652159,0 1.616686,-0.0458 2.415881,-0.15778 0.745057,-0.10454 2.205857,-0.47775 2.205857,-0.47775 0,0 0.0868,-0.25827 0.101074,-0.39268 0.01436,-0.13371 -0.0054,-0.29879 -0.01713,-0.40271 -0.0115,-0.12369 -0.03345,-0.26028 -0.113674,-0.35526 -0.13601,-0.16092 -0.248542,-0.35723 -0.432286,-0.46097 -0.379076,-0.21389 -0.855778,-0.29507 -1.287797,-0.42973 -1.088031,-0.33905 -2.189452,-0.63352 -3.283718,-0.95185 -0.648296,-0.18868 -1.296646,-0.37708 -1.944371,-0.56763 -0.416248,-0.12255 -0.83287,-0.24368 -1.247975,-0.36995 -0.880515,-0.26773 -1.795595,-0.44617 -2.635878,-0.82153 -0.593006,-0.26486 -1.306752,-0.66075 -1.673125,-0.99849 -1.206282,-1.1706 -1.927627,-2.34604 -2.102781,-3.77604 -0.203584,-1.66251 0.35111,-3.70687 1.31289,-4.85023 0.360788,-0.42891 0.660499,-0.7492 1.086532,-0.99216 0.506077,-0.2886 1.107273,-0.36545 1.671439,-0.51072 0.807527,-0.20788 1.62253,-0.3968 2.447959,-0.51526 1.1178,-0.16034 2.363678,-0.26258 3.377598,-0.26258 3.111001,0 5.924494,0.61467 8.562521,1.75139 l -1.89604,4.55938 c -1.758913,-0.8234 -4.796096,-1.34734 -7.258765,-1.37915 -1.447893,-0.0171 -4.287184,0.70038 -4.287184,0.70038 0,0 -0.132005,0.29437 -0.134583,0.4513 -0.0054,0.28634 0.03238,0.614 0.219908,0.83041 0.47572,0.54914 1.321105,0.60991 2.005912,0.85265 0.559467,0.19814 1.141448,0.3264 1.711753,0.4911 0.998772,0.28848 2.009712,0.59931 2.994766,0.87075 1.822454,0.50224 4.453434,0.95248 5.995134,2.46663 1.133178,1.11296 1.860331,2.20763 1.892062,4.37322 z" />
  </g>
</svg>
