<svg width="280.56" height="207.54" version="1.1" viewBox="0 0 280.56 207.54" xmlns="http://www.w3.org/2000/svg"><g transform="translate(-1039.1 293.02)"><g transform="matrix(-1.2116 0 0 -1.2116 1341.9 742.5)" stroke-width=".82537" aria-label="6"><path d="m249.53 854.68h-230.79c-0.2132 0-0.38499-0.1716-0.38499-0.38471v-170.53c0-0.2132 0.1716-0.38471 0.38499-0.38471h230.79c0.21319 0 0.38496 0.17159 0.38496 0.38471v170.53c0 0.2132-0.1716 0.38471-0.38496 0.38471z" fill="#ff0" fill-rule="evenodd" opacity=".99988"/><g><path d="m234.99 850.84c6.152 0 11.163-5.0145 11.163-11.162v-141.47c0-6.1476-5.0111-11.155-11.163-11.155h-201.17c-6.152 0-11.17 5.0075-11.17 11.155v141.47c0 6.1476 5.0181 11.162 11.17 11.162zm0-3.844h-201.17c-4.0902 0-7.3234-3.2308-7.3234-7.3182v-141.47c0-4.0874 3.2331-7.3112 7.3234-7.3112h201.17c4.0902 0 7.3234 3.2238 7.3234 7.3112v141.47c0 4.0874-3.2331 7.3182-7.3234 7.3182z" color="#000000" color-rendering="auto" dominant-baseline="auto" enable-background="accumulate" fill-rule="evenodd" image-rendering="auto" opacity=".99988" shape-rendering="auto" solid-color="#000000" stop-color="#000000" style="font-feature-settings:normal;font-variant-alternates:normal;font-variant-caps:normal;font-variant-east-asian:normal;font-variant-ligatures:normal;font-variant-numeric:normal;font-variant-position:normal;font-variation-settings:normal;inline-size:0;isolation:auto;mix-blend-mode:normal;shape-margin:0;shape-padding:0;text-decoration-color:#000000;text-decoration-line:none;text-decoration-style:solid;text-indent:0;text-orientation:mixed;text-transform:none;white-space:normal"/><path d="m174.56 807.8 5.2122 8e-3 7.7534 11.313 1.7824-1.7534v-9.568l4.3023-3.9e-4 -0.0296 23.855-4.2712 2e-3 -8e-3 -8.3235-8.6037 8.3232h-6.1405l9.7908-9.5806z" stroke-width="1.3236"/><g transform="matrix(-1.1392 0 0 -1.2013 270.24 1342.7)" stroke-width=".70554" aria-label="A"><path d="m109.92 445.17-4.2106 0.0439-1.7771-3.9811-9.4704 0.0158-1.6829 3.9477-4.068-0.0263 8.46-20.1h4.2826zm-7.3548-7.6136-3.2443-7.7097-3.3234 7.7538z" stroke-width=".70554"/></g><path d="m120.37 813.93c1.172-3.3026 3.7078-5.4962 6.7123-6.1959 0.0219-5e-3 0.0525-3.7686 0.0525-3.7686h5.1244s0.0621 4.0065 0.0879 4.0153c1.5903 0.53888 2.9219 1.5187 4.0508 2.9114 1.7823 2.2278 2.6734 5.1944 2.6734 8.8996 0 3.7287-0.89113 6.6835-2.6734 8.8644-1.7823 2.1809-4.2213 3.3853-7.3168 3.3853-3.9163 0-7.6786-3.2204-8.7093-6.4923l3.9842-1.3231c0.822 2.2742 2.7124 3.5022 5.0106 3.5726 1.7823-0.0468 3.2918-0.90132 4.3002-2.4491 0.33986-0.51372 0.51723-1.2675 0.69099-1.8505 0.34178-1.1468 0.47914-2.2222 0.47914-3.637 0-2.5327-0.50152-4.7744-1.5334-6.1814-1.0553-1.3836-2.3626-1.975-4.1214-1.975-2.3451 0.0246-4.1749 1.7014-4.8192 3.4847z" stroke-width="1.2674"/><g transform="matrix(-1.1392 0 0 -1.2013 301.79 1298.8)" stroke-width=".70554" aria-label="A"><path d="m109.92 445.17-4.2106 0.0439-1.7771-3.9811-9.4704 0.0158-1.6829 3.9477-4.068-0.0263 8.46-20.1h4.2826zm-7.3548-7.6136-3.2443-7.7097-3.3234 7.7538z" stroke-width=".70554"/></g><path d="m75.694 814.8c0.03968-1.7849 0.67312-3.4326 2.31-4.8323 1.1823-1.0258 2.8121-1.7184 4.7471-2.0153 0.01916-3e-3 0.06951-3.9495 0.06951-3.9495h4.2149s-0.03366 3.9264-0.02737 3.9276c2.7593 0.41624 4.7689 1.7608 7.2365 4.2035l-3.2201 2.6759c-1.2669-1.7005-3.8802-2.9267-6.1033-2.8584-1.423 0.0438-2.9223 0.36835-4.0381 1.0923-0.58858 0.38184-0.97069 1.1296-1.0444 1.8274-0.06131 0.58015 0.16229 1.216 0.53168 1.6674 0.17817 0.21785 0.48836 0.45073 0.79176 0.56513 1.0309 0.38876 4.0035 0.76537 5.7498 1.0201 0.99877 0.1456 2.0514 0.13903 2.9808 0.5325 1.1302 0.47856 2.266 1.1593 2.9875 2.1522 0.87896 1.2096 1.4433 2.7782 1.3694 4.2716-0.07581 1.5317-0.79907 3.0858-1.8301 4.221-1.0255 1.1292-2.5615 1.7199-4.0043 2.215-1.0526 0.36118-2.1141 0.51009-3.2979 0.51808-2.8457 0.0192-5.82-0.93073-8.0828-2.9426l2.7159-3.1683c1.7626 1.5066 3.5115 1.8793 5.4314 1.9215 1.3918 0.0307 2.9413-0.30835 3.9948-1.2184 0.54077-0.46712 0.95129-1.224 0.91678-1.9378-0.03394-0.71411-0.36441-1.4143-1.0998-1.8414-0.73544-0.42703-1.8264-0.52449-3.2023-0.78547-3.3213-0.61679-6.4481-0.78303-7.9427-2.1827-1.5183-1.376-2.1966-3.2404-2.1556-5.0792z" stroke-width="1.282"/><path d="m109.24 831.79v-23.849h-4.2174v23.849z" stroke-width="1.226"/><path d="m45.978 787.9v-23.849h-4.2174v23.849z" stroke-width="1.226"/><path d="m56.739 771.06c0.04051-1.815 0.68445-3.4904 2.3489-4.9136 1.6404-1.4232 4.1279-2.2158 7.095-2.2158 3.9561 0 6.3365 1.3661 9.4202 4.4186l-3.2743 2.7209c-1.2882-1.7292-3.9455-2.976-6.206-2.9065-1.447 0.0446-2.9714 0.37454-4.1061 1.1107-0.59849 0.38827-0.98706 1.1487-1.062 1.8581-0.0624 0.58992 0.16476 1.2365 0.54063 1.6955 0.18118 0.22141 0.49657 0.45831 0.80506 0.57462 1.0483 0.39531 4.0709 0.77827 5.8466 1.0373 1.0155 0.14806 2.0858 0.14122 3.0309 0.54145 1.1492 0.48661 2.3041 1.1788 3.0378 2.1884 0.89373 1.23 1.4676 2.8249 1.3924 4.3435-0.0769 1.5575-0.81248 3.1377-1.8609 4.2921-1.0428 1.1482-2.6046 1.7489-4.0717 2.2523-1.0703 0.36725-2.1497 0.51865-3.3534 0.52681-2.8936 0.0192-5.918-0.94642-8.2189-2.9921l2.7615-3.2216c1.7923 1.5319 3.5706 1.9109 5.5228 1.9539 1.4152 0.0312 2.9908-0.31361 4.062-1.2389 0.54983-0.47497 0.96727-1.2446 0.93221-1.9704-0.03476-0.72613-0.37056-1.4381-1.1184-1.8723-0.74781-0.43422-1.8571-0.53335-3.2562-0.79868-3.3772-0.6272-6.5567-0.79622-8.0764-2.2195-1.5438-1.3991-2.2335-3.2949-2.1919-5.1646z" stroke-width="1.2943"/><g transform="matrix(-1.1392 0 0 -1.2013 206.92 1298.8)" stroke-width=".70554" aria-label="A"><path d="m109.92 445.17-4.2106 0.0439-1.7771-3.9811-9.4704 0.0158-1.6829 3.9477-4.068-0.0263 8.46-20.1h4.2826zm-7.3548-7.6136-3.2443-7.7097-3.3234 7.7538z" stroke-width=".70554"/></g><g transform="matrix(-.77073 0 0 -.7486 507.01 1255.4)" aria-label="0"><path d="m508.57 704.95c0 4.8024-1.5544 8.4854-3.8791 11.452-2.2941 2.9365-5.5308 4.6292-8.8304 4.6065-1.4648-0.01-2.932-0.27365-4.3179-0.84553-2.0665-0.85272-3.9523-2.3497-5.3804-4.382-2.08-2.9365-3.4062-6.4267-3.4062-10.74 0-4.8942 1.5302-8.3279 3.855-11.142 2.3247-2.8447 5.2119-4.6875 9.2496-4.6875 3.793 0 6.5742 1.8061 8.8989 4.712 2.3553 2.8753 3.8106 6.3152 3.8106 11.026zm-5.534 0.0918c-0.0289-0.57806-0.0215-1.1812-0.11714-1.7716-0.29789-1.8392-0.99212-3.6568-1.9647-5.0462-1.2541-1.8353-2.8324-3.2574-5.1265-3.2574-2.3247 0-3.8425 1.0438-5.1578 2.8791-1.3153 1.8353-2.3164 3.9538-2.3164 7.1961 0 3.273 0.8051 5.2286 2.1204 7.0945 0.66699 0.93068 1.4204 1.7639 2.3283 2.3011 0.88252 0.52221 1.9124 0.76154 3.0583 0.76154 1.7491 0 2.5143-0.61034 3.5479-1.3547 0.70999-0.51134 1.1762-1.3158 1.6848-2.038 0.22843-0.32444 0.42583-0.67207 0.60965-1.0253 0.23372-0.44908 0.47135-0.91823 0.62486-1.3865 0.45696-1.3939 0.77865-2.9482 0.70841-4.3527z"/></g><g transform="matrix(-.77073 0 0 -.7486 537.28 1255.4)" aria-label="0"><path d="m508.57 704.95c0 4.8024-1.5544 8.4854-3.8791 11.452-2.2941 2.9365-5.5308 4.6292-8.8304 4.6065-1.4648-0.01-2.932-0.27365-4.3179-0.84553-2.0665-0.85272-3.9523-2.3497-5.3804-4.382-2.08-2.9365-3.4062-6.4267-3.4062-10.74 0-4.8942 1.5302-8.3279 3.855-11.142 2.3247-2.8447 5.2119-4.6875 9.2496-4.6875 3.793 0 6.5742 1.8061 8.8989 4.712 2.3553 2.8753 3.8106 6.3152 3.8106 11.026zm-5.534 0.0918c-0.0289-0.57806-0.0215-1.1812-0.11714-1.7716-0.29789-1.8392-0.99212-3.6568-1.9647-5.0462-1.2541-1.8353-2.8324-3.2574-5.1265-3.2574-2.3247 0-3.8425 1.0438-5.1578 2.8791-1.3153 1.8353-2.3164 3.9538-2.3164 7.1961 0 3.273 0.8051 5.2286 2.1204 7.0945 0.66699 0.93068 1.4204 1.7639 2.3283 2.3011 0.88252 0.52221 1.9124 0.76154 3.0583 0.76154 1.7491 0 2.5143-0.61034 3.5479-1.3547 0.70999-0.51134 1.1762-1.3158 1.6848-2.038 0.22843-0.32444 0.42583-0.67207 0.60965-1.0253 0.23372-0.44908 0.47135-0.91823 0.62486-1.3865 0.45696-1.3939 0.77865-2.9482 0.70841-4.3527z"/></g><path d="m73.423 715.6h3.84v8.8359s0.24987 1.711 0.77501 2.3449c0.38868 0.4692 0.83662 0.98671 1.4069 1.3638 0.82452 0.54515 1.8153 0.85657 2.5024 0.80463 0.32527-0.0246 0.67865-0.0137 1.0095-0.0796 0.83038-0.16312 1.6215-0.52443 2.2237-1.079 0.48464-0.44635 1.0738-1.2444 1.3605-2.032 0.2849-0.78251 0.26903-1.5559 0.26903-1.5559v-8.6028h3.8079v8.836s0.04297 0.70621 0.31832 1.456c0.21019 0.57237 0.60407 1.1702 0.93027 1.4986 0.43329 0.43616 0.93632 0.85262 1.5146 1.1266 0.6677 0.31632 1.426 0.45655 2.1358 0.44468 0.81073-0.0137 1.6576-0.27013 2.372-0.71655 0.39038-0.24385 0.72085-0.56948 1.0315-0.88536 0.33802-0.34375 0.70448-0.95781 0.92159-1.5357 0.22962-0.61121 0.30018-1.1777 0.30018-1.1777l0.0219-9.0464h3.7825v16.714h-3.7824v-0.99822s-0.74973 0.54875-1.78 0.93366c-1.035 0.38668-2.3525 0.60938-3.2196 0.53379-1.0166-0.0887-2.6007-0.34251-3.7802-0.99226-1.5883-0.87488-2.6583-2.1929-2.6583-2.1929s-0.58431 0.65317-0.91697 0.93632c-0.55125 0.46917-1.2506 0.98629-1.7744 1.252-1.1801 0.59857-2.5169 1.0059-3.84 1.0059-1.5048 0-3.042-0.43064-4.3669-1.144-1.1077-0.59633-2.0584-1.5111-2.8084-2.5211-0.58516-0.78801-0.9936-1.7112-1.2494-2.6663-0.23701-0.88445-0.27568-1.6321-0.27568-1.6321z"/><g transform="matrix(-1.1646 0 0 -1.1646 521.55 1495.2)" aria-label="5"><path d="m294.15 667.46c-0.61562 0.48821-1.33 0.84171-2.0686 1.13-0.65842 0.25703-1.2924 0.48418-2.0946 0.5918-0.7313 0.0981-1.6915 0.17179-2.531 0.0838-1.5781-0.16551-3.1474-0.55368-4.6214-1.1411-0.9204-0.36676-2.5848-1.4674-2.5848-1.4674l2.1522-2.9791s0.83719 0.641 2.0944 1.1554c0.95571 0.39105 2.2522 0.67622 3.0371 0.74134 1.3079 0.10853 2.9676-0.0377 3.8676-0.73772 0.29944-0.23955 0.60927-0.3563 0.83034-0.62841 0.44339-0.54576 0.66356-1.2982 0.66356-1.9922 0.0269-0.73849-0.3745-1.4471-0.85623-1.9215-0.23583-0.23226-0.46629-0.36147-0.72523-0.49987-0.38135-0.20384-0.77229-0.36325-1.2055-0.47909-0.63286-0.16921-1.301-0.28071-1.9197-0.23882-0.61402 0.0416-1.5162 0.1072-2.2888 0.30765-0.95333 0.24734-1.7268 0.63342-1.7268 0.63342l-3.0868-2.4774 0.80093-8.6844 13.057 0.0157v3.6765l-9.7112-0.018-0.29623 3.3164s0.53824-0.14692 1.2299-0.25761c0.75303-0.12051 1.6879-0.20629 2.308-0.22383 0.44654-0.0126 0.85341 0.0289 1.336 0.10535 0.88837 0.14068 1.8754 0.42405 2.6739 0.78692 0.4384 0.19923 0.86658 0.41303 1.2505 0.69621 0.59334 0.4376 1.1355 0.95484 1.5987 1.5284 0.19535 0.24191 0.34261 0.49941 0.48816 0.79487 0.52409 1.0639 0.87199 2.398 0.74891 3.5769-0.0588 0.56348-0.15906 1.1709-0.3633 1.7248-0.18239 0.49466-0.45643 0.93951-0.71931 1.3858-0.33946 0.57621-0.81368 1.0798-1.3377 1.4953z"/></g><g transform="matrix(-1.1868 0 0 -1.1868 475.46 1330.3)" stroke-width=".69546" aria-label="M"><path d="m280.16 477.02h-3.6022l-8e-3 -13.864-6.8309 11.155-6.821-11.136-0.0152 13.845-3.6161 1e-5v-20.1l4.014-0.0312 6.4425 10.474 6.4258-10.473 4.0109 0.0304z" stroke-width=".69546"/></g><g transform="matrix(-1.1907 0 0 -1.1907 365.87 1382.1)" stroke-width=".69318" aria-label="R"><path d="m132.55 518.83h-4.1842l-4.6752-8.3485-3.4692-1e-3v8.3616h-3.6l-8e-3 -19.946h9.24c0.53297 0 1.2196-0.037 1.8614 0.074 0.94776 0.16381 1.8617 0.56079 2.5592 1.1475 1.3595 1.1436 2.2782 2.4782 2.2782 4.8182 0 1.4945-0.68799 2.739-1.6004 3.7436-0.80998 0.89192-2.1508 1.5317-3.1716 1.7335zm-3.5728-14.106c0.0136-0.37657-0.0999-0.78364-0.28127-1.125-0.13511-0.25425-0.35499-0.47526-0.57724-0.64254-0.25525-0.1921-0.50311-0.29531-0.78182-0.36804-0.21755-0.0568-0.44341-0.0444-0.67283-0.0475-0.32615-4e-3 -0.66067-6e-3 -0.97663-6e-3l-5.4444-9e-3 5e-3 4.3554 5.6513-0.0264c0.87999-4e-3 1.1679 0.0569 1.702-0.14015 0.31227-0.11519 0.65904-0.39413 0.80997-0.58393 0.29832-0.37512 0.54904-0.95093 0.56545-1.4068z"/><path d="m132.55 518.83h-4.1842l-4.6752-8.3485-3.4692-1e-3v8.3616h-3.6l-8e-3 -19.946h9.24c0.53297 0 1.2196-0.037 1.8614 0.074 0.94776 0.16381 1.8617 0.56079 2.5592 1.1475 1.3595 1.1436 2.2782 2.4782 2.2782 4.8182 0 1.4945-0.68799 2.739-1.6004 3.7436-0.80998 0.89192-2.1508 1.5317-3.1716 1.7335zm-3.5728-14.106c0.0136-0.37657-0.0999-0.78364-0.28127-1.125-0.13511-0.25425-0.35499-0.47526-0.57724-0.64254-0.25525-0.1921-0.50311-0.29531-0.78182-0.36804-0.21755-0.0568-0.44341-0.0444-0.67283-0.0475-0.32615-4e-3 -0.66067-6e-3 -0.97663-6e-3l-5.4444-9e-3 5e-3 4.3554 5.6513-0.0264c0.87999-4e-3 1.1679 0.0569 1.702-0.14015 0.31227-0.11519 0.65904-0.39413 0.80997-0.58393 0.29832-0.37512 0.54904-0.95093 0.56545-1.4068z"/></g><g transform="matrix(-1.1871 0 0 -1.1871 268.15 1379.1)" stroke-width=".69526" aria-label="R"><path d="m123.67 510.68-3.4692-1e-3 0.0266 7.1912h-3.6l-0.0196-19.984h9.24c0.53297 0 1.0361 1e-3 1.6779 0.11222 0.94776 0.16381 1.9916 0.71366 2.6892 1.3004 1.3595 1.1436 2.3922 2.6668 2.3922 5.0068 0 1.4945-0.47893 2.6208-1.3129 3.7987-0.41405 0.58486-0.93988 1.0618-1.5138 1.4674-0.44449 0.31408-0.95283 0.5352-1.4627 0.72557-0.36552 0.13646-0.74817 0.22932-1.1329 0.29431-0.30377 0.0513-0.92123 0.0743-0.92123 0.0743zm4.9783-7.7666c-0.1618-0.32959-0.48876-0.67399-0.71101-0.84127-0.25525-0.1921-0.70494-0.43367-1.099-0.54002-0.21707-0.0586-0.44341-0.0444-0.67283-0.0475-0.32615-4e-3 -0.66067-6e-3 -0.97663-6e-3l-4.9589 4e-3 -3e-3 5.5965 4.6729-3e-3c0.45799-3.4e-4 0.79261 1.1e-4 1.105-1e-3 0.28784-1e-3 0.558-1e-4 0.86072-0.0855 0.49045-0.13833 0.98934-0.3684 1.3374-0.74063 0.4267-0.45637 0.72502-1.0762 0.79595-1.6969 0.0634-0.55489-0.10486-1.137-0.35098-1.6384z" stroke-width=".69526"/></g></g></g></g></svg>