<?xml version="1.0" encoding="UTF-8" standalone="no"?>
<svg
   xmlns:dc="http://purl.org/dc/elements/1.1/"
   xmlns:cc="http://creativecommons.org/ns#"
   xmlns:rdf="http://www.w3.org/1999/02/22-rdf-syntax-ns#"
   xmlns:svg="http://www.w3.org/2000/svg"
   xmlns="http://www.w3.org/2000/svg"
   xmlns:sodipodi="http://sodipodi.sourceforge.net/DTD/sodipodi-0.dtd"
   xmlns:inkscape="http://www.inkscape.org/namespaces/inkscape"
   inkscape:version="1.0 (4035a4fb49, 2020-05-01)"
   sodipodi:docname="Turkey_road_sign_B-55c.svg"
   viewBox="0 0 280.55807 207.54259"
   height="207.54259"
   width="280.55807"
   id="svg887"
   version="1.1">
  <metadata
     id="metadata893">
    <rdf:RDF>
      <cc:Work
         rdf:about="">
        <dc:format>image/svg+xml</dc:format>
        <dc:type
           rdf:resource="http://purl.org/dc/dcmitype/StillImage" />
        <dc:title></dc:title>
      </cc:Work>
    </rdf:RDF>
  </metadata>
  <defs
     id="defs891">
    <clipPath
       clipPathUnits="userSpaceOnUse"
       id="clipPath425797">
      <path
         d="M 0,0 H 261.24 V 366.15 H 0 Z"
         id="path425795" />
    </clipPath>
  </defs>
  <sodipodi:namedview
     inkscape:current-layer="g108152"
     inkscape:window-maximized="1"
     inkscape:window-y="-9"
     inkscape:window-x="-9"
     inkscape:cy="136.312"
     inkscape:cx="176.71569"
     inkscape:zoom="2.7813756"
     showgrid="false"
     id="namedview889"
     inkscape:window-height="1001"
     inkscape:window-width="1920"
     inkscape:pageshadow="2"
     inkscape:pageopacity="0"
     guidetolerance="10"
     gridtolerance="10"
     objecttolerance="10"
     borderopacity="1"
     bordercolor="#666666"
     pagecolor="#ffffff"
     inkscape:document-rotation="0" />
  <g
     transform="translate(-1039.1137,293.0186)"
     id="g895"
     inkscape:label="Image"
     inkscape:groupmode="layer">
    <g
       transform="matrix(-1.2115809,0,0,-1.2115809,1341.9076,742.49943)"
       style="font-size:30px;line-height:1.15;font-family:'ALS Direct';-inkscape-font-specification:'ALS Direct';fill:#ffffff;fill-opacity:1;stroke-width:0.825369"
       id="g108152"
       aria-label="6">
      <path
         sodipodi:nodetypes="sssssssss"
         d="M 249.5314,854.68336 H 18.737711 c -0.213198,0 -0.384987,-0.1716 -0.384987,-0.38471 V 683.76908 c 0,-0.2132 0.171598,-0.38471 0.384987,-0.38471 H 249.5314 c 0.21319,0 0.38496,0.17159 0.38496,0.38471 v 170.52957 c 0,0.2132 -0.1716,0.38471 -0.38496,0.38471 z"
         style="opacity:0.999883;fill:#ffff00;fill-opacity:1;fill-rule:evenodd;stroke:none;stroke-width:1.40313;stroke-linecap:round;stroke-linejoin:round;stroke-miterlimit:0.1;stroke-dasharray:none;stroke-opacity:0.9"
         id="rect145708" />
      <path
         sodipodi:nodetypes="ssssssssssssssssss"
         id="path145706"
         d="m 234.98693,850.83513 c 6.15198,0 11.16305,-5.0145 11.16305,-11.16212 V 698.20724 c 0,-6.14762 -5.01107,-11.15514 -11.16305,-11.15514 H 33.821652 c -6.151971,0 -11.170026,5.00752 -11.170026,11.15514 v 141.46577 c 0,6.14762 5.018055,11.16212 11.170026,11.16212 z m 0,-3.84396 H 33.821652 c -4.090248,0 -7.323354,-3.23081 -7.323354,-7.31816 V 698.20724 c 0,-4.08735 3.233106,-7.31117 7.323354,-7.31117 H 234.98693 c 4.09025,0 7.32336,3.22382 7.32336,7.31117 v 141.46577 c 0,4.08735 -3.23311,7.31816 -7.32336,7.31816 z"
         style="color:#000000;font-style:normal;font-variant:normal;font-weight:normal;font-stretch:normal;font-size:medium;line-height:normal;font-family:sans-serif;font-variant-ligatures:normal;font-variant-position:normal;font-variant-caps:normal;font-variant-numeric:normal;font-variant-alternates:normal;font-variant-east-asian:normal;font-feature-settings:normal;font-variation-settings:normal;text-indent:0;text-align:start;text-decoration:none;text-decoration-line:none;text-decoration-style:solid;text-decoration-color:#000000;letter-spacing:normal;word-spacing:normal;text-transform:none;writing-mode:lr-tb;direction:ltr;text-orientation:mixed;dominant-baseline:auto;baseline-shift:baseline;text-anchor:start;white-space:normal;shape-padding:0;shape-margin:0;inline-size:0;clip-rule:nonzero;display:inline;overflow:visible;visibility:visible;opacity:0.999883;isolation:auto;mix-blend-mode:normal;color-interpolation:sRGB;color-interpolation-filters:linearRGB;solid-color:#000000;solid-opacity:1;vector-effect:none;fill:#000000;fill-opacity:1;fill-rule:evenodd;stroke:none;stroke-width:1.40313;stroke-linecap:round;stroke-linejoin:round;stroke-miterlimit:0.1;stroke-dasharray:none;stroke-dashoffset:0;stroke-opacity:1;color-rendering:auto;image-rendering:auto;shape-rendering:auto;text-rendering:auto;enable-background:accumulate;stop-color:#000000;stop-opacity:1" />
      <path
         d="m 174.55675,807.80045 5.21223,0.008 7.75345,11.31303 1.78235,-1.75342 v -9.56795 l 4.30229,-3.9e-4 -0.0296,23.85526 -4.27117,0.002 -0.008,-8.32353 -8.60369,8.32317 h -6.14054 l 9.79084,-9.58057 z"
         style="font-style:normal;font-variant:normal;font-weight:normal;font-stretch:normal;font-size:122.83px;line-height:1.15;font-family:'Highway Gothic Wide';-inkscape-font-specification:'Highway Gothic Wide';text-align:center;letter-spacing:3.26px;text-anchor:middle;fill:#000000;fill-opacity:1;stroke-width:1.32356"
         id="path82556-0"
         sodipodi:nodetypes="ccccccccccccc" />
      <g
         aria-label="A"
         id="text137408"
         style="font-size:30px;line-height:1.15;font-family:'ALS Direct';-inkscape-font-specification:'ALS Direct';fill:#000000;fill-opacity:1;stroke-width:0.70554"
         transform="matrix(-1.1391684,0,0,-1.2013193,270.24131,1342.7353)">
        <path
           d="m 109.92431,445.17265 -4.21058,0.0439 -1.77714,-3.98108 -9.470361,0.0158 -1.682894,3.94769 -4.068009,-0.0263 8.46,-20.1 h 4.282624 z m -7.3548,-7.61363 -3.2443,-7.7097 -3.32341,7.75376 z"
           style="font-style:normal;font-variant:normal;font-weight:normal;font-stretch:normal;font-family:'Highway Gothic Wide';-inkscape-font-specification:'Highway Gothic Wide';fill:#000000;fill-opacity:1;stroke-width:0.70554"
           id="path137410"
           sodipodi:nodetypes="ccccccccccccc" />
      </g>
      <path
         sodipodi:nodetypes="csccscsssccccsscccc"
         id="path49977"
         style="font-style:normal;font-variant:normal;font-weight:normal;font-stretch:normal;font-size:30px;line-height:1.15;font-family:'Highway Gothic Wide';-inkscape-font-specification:'Highway Gothic Wide';fill:#000000;fill-opacity:1;stroke-width:1.26737"
         d="m 120.36768,813.93488 c 1.17198,-3.30265 3.70783,-5.4962 6.7123,-6.19587 0.0219,-0.005 0.0525,-3.76856 0.0525,-3.76856 h 5.12435 c 0,0 0.0621,4.0065 0.0879,4.01526 1.59028,0.53888 2.92193,1.51868 4.05076,2.91137 1.78227,2.22782 2.6734,5.19436 2.6734,8.89959 0,3.72869 -0.89113,6.68349 -2.6734,8.86442 -1.78227,2.18094 -4.22126,3.3853 -7.31676,3.3853 -3.9163,0 -7.67856,-3.2204 -8.70928,-6.49229 l 3.9842,-1.32306 c 0.822,2.27416 2.71237,3.50222 5.01056,3.57256 1.78226,-0.0468 3.29184,-0.90132 4.30021,-2.44907 0.33986,-0.51372 0.51723,-1.26752 0.69099,-1.85052 0.34178,-1.14681 0.47914,-2.22216 0.47914,-3.63698 0,-2.5327 -0.50152,-4.77439 -1.53338,-6.18144 -1.05529,-1.38363 -2.36258,-1.97505 -4.1214,-1.97505 -2.34509,0.0246 -4.17487,1.70142 -4.81922,3.4847 z" />
      <g
         transform="matrix(-1.1391684,0,0,-1.2013193,301.79103,1298.8141)"
         style="font-size:30px;line-height:1.15;font-family:'ALS Direct';-inkscape-font-specification:'ALS Direct';fill:#000000;fill-opacity:1;stroke-width:0.70554"
         id="g137456"
         aria-label="A">
        <path
           sodipodi:nodetypes="ccccccccccccc"
           id="path137454"
           style="font-style:normal;font-variant:normal;font-weight:normal;font-stretch:normal;font-family:'Highway Gothic Wide';-inkscape-font-specification:'Highway Gothic Wide';fill:#000000;fill-opacity:1;stroke-width:0.70554"
           d="m 109.92431,445.17265 -4.21058,0.0439 -1.77714,-3.98108 -9.470361,0.0158 -1.682894,3.94769 -4.068009,-0.0263 8.46,-20.1 h 4.282624 z m -7.3548,-7.61363 -3.2443,-7.7097 -3.32341,7.75376 z" />
      </g>
      <path
         sodipodi:nodetypes="acsccsccssasssaaaaasccaaasccaa"
         id="path49919"
         style="font-style:normal;font-variant:normal;font-weight:normal;font-stretch:normal;font-size:122.83px;line-height:1.15;font-family:'Highway Gothic Wide';-inkscape-font-specification:'Highway Gothic Wide';text-align:center;letter-spacing:3.26px;text-anchor:middle;fill:#000000;fill-opacity:1;stroke-width:1.28205"
         d="m 75.693867,814.80251 c 0.03968,-1.78493 0.673119,-3.4326 2.310034,-4.83228 1.182303,-1.02582 2.812102,-1.71845 4.747083,-2.01531 0.01916,-0.003 0.06951,-3.94949 0.06951,-3.94949 h 4.21491 c 0,0 -0.03366,3.92642 -0.02737,3.9276 2.759254,0.41624 4.768923,1.76083 7.236542,4.20349 l -3.220106,2.67589 c -1.266897,-1.70054 -3.880225,-2.92674 -6.103283,-2.85835 -1.423005,0.0438 -2.922258,0.36835 -4.038139,1.09226 -0.588579,0.38184 -0.970692,1.12965 -1.044449,1.82737 -0.06131,0.58015 0.162292,1.21602 0.53168,1.66743 0.178167,0.21785 0.488357,0.45073 0.79176,0.56513 1.03093,0.38876 4.003491,0.76537 5.749824,1.02009 0.998772,0.1456 2.05135,0.13903 2.980771,0.5325 1.130194,0.47856 2.266026,1.15931 2.987477,2.1522 0.878955,1.20964 1.443286,2.77819 1.369419,4.27162 -0.07581,1.53168 -0.799067,3.08575 -1.830106,4.22104 -1.025484,1.12918 -2.561492,1.71992 -4.004285,2.21498 -1.052551,0.36118 -2.114133,0.51009 -3.297886,0.51808 -2.845656,0.0192 -5.819996,-0.93073 -8.082847,-2.94259 l 2.715876,-3.1683 c 1.762616,1.50659 3.511467,1.87929 5.431423,1.92154 1.391833,0.0307 2.941252,-0.30835 3.994788,-1.21843 0.540766,-0.46712 0.951288,-1.22404 0.916777,-1.93777 -0.03394,-0.71411 -0.364407,-1.41433 -1.099815,-1.84135 -0.735437,-0.42703 -1.826357,-0.52449 -3.202344,-0.78547 -3.321259,-0.61679 -6.448122,-0.78303 -7.942722,-2.18272 -1.518274,-1.37596 -2.196566,-3.24041 -2.155568,-5.07916 z" />
      <path
         sodipodi:nodetypes="ccccc"
         d="m 109.24253,831.78766 v -23.84913 h -4.2174 v 23.84913 z"
         style="font-style:normal;font-variant:normal;font-weight:normal;font-stretch:normal;font-size:122.83px;line-height:1.15;font-family:'Highway Gothic Wide';-inkscape-font-specification:'Highway Gothic Wide';text-align:center;letter-spacing:3.26px;text-anchor:middle;fill:#000000;fill-opacity:1;stroke-width:1.22595"
         id="path49827-7" />
      <path
         id="path137490"
         style="font-style:normal;font-variant:normal;font-weight:normal;font-stretch:normal;font-size:122.83px;line-height:1.15;font-family:'Highway Gothic Wide';-inkscape-font-specification:'Highway Gothic Wide';text-align:center;letter-spacing:3.26px;text-anchor:middle;fill:#000000;fill-opacity:1;stroke-width:1.22595"
         d="M 45.978052,787.90413 V 764.055 h -4.217373 v 23.84913 z"
         sodipodi:nodetypes="ccccc" />
      <path
         d="m 56.738924,771.06001 c 0.04051,-1.81497 0.68445,-3.49037 2.348924,-4.91362 1.640364,-1.42325 4.127907,-2.21581 7.095022,-2.21581 3.956144,0 6.336514,1.36608 9.420163,4.41856 l -3.274323,2.72094 c -1.288217,-1.72917 -3.945525,-2.97601 -6.205995,-2.90647 -1.446953,0.0446 -2.971439,0.37454 -4.106094,1.11066 -0.598486,0.38827 -0.987059,1.14866 -1.06202,1.8581 -0.0624,0.58992 0.164756,1.23649 0.54063,1.69551 0.181177,0.22141 0.496567,0.45831 0.80506,0.57462 1.048309,0.39531 4.070872,0.77827 5.846625,1.03728 1.015549,0.14806 2.085834,0.14122 3.030938,0.54145 1.149187,0.48661 2.304149,1.17883 3.037752,2.18844 0.893733,1.22998 1.467588,2.82494 1.392435,4.34348 -0.0769,1.5575 -0.812477,3.13773 -1.860868,4.29209 -1.04278,1.1482 -2.604624,1.74888 -4.071693,2.25229 -1.070257,0.36725 -2.149711,0.51865 -3.353388,0.52681 -2.89355,0.0192 -5.917974,-0.94642 -8.218894,-2.99213 l 2.761498,-3.22161 c 1.792284,1.53193 3.570555,1.91092 5.522833,1.95386 1.415233,0.0312 2.990761,-0.31361 4.062031,-1.23893 0.549826,-0.47497 0.967272,-1.24464 0.932213,-1.97039 -0.03476,-0.72613 -0.370564,-1.43814 -1.118371,-1.87234 -0.747806,-0.43422 -1.857064,-0.53335 -3.256204,-0.79868 -3.377172,-0.6272 -6.556663,-0.79622 -8.076415,-2.21947 -1.543836,-1.39912 -2.23354,-3.29493 -2.191859,-5.16464 z"
         style="font-style:normal;font-variant:normal;font-weight:normal;font-stretch:normal;font-size:122.83px;line-height:1.15;font-family:'Highway Gothic Wide';-inkscape-font-specification:'Highway Gothic Wide';text-align:center;letter-spacing:3.26px;text-anchor:middle;fill:#000000;fill-opacity:1;stroke-width:1.29432"
         id="path82572"
         sodipodi:nodetypes="acsccssasssaaaaasccaaascca" />
      <g
         aria-label="A"
         id="g118969"
         style="font-size:30px;line-height:1.15;font-family:'ALS Direct';-inkscape-font-specification:'ALS Direct';fill:#000000;fill-opacity:1;stroke-width:0.70554"
         transform="matrix(-1.1391684,0,0,-1.2013193,206.9182,1298.8141)">
        <path
           d="m 109.92431,445.17265 -4.21058,0.0439 -1.77714,-3.98108 -9.470361,0.0158 -1.682894,3.94769 -4.068009,-0.0263 8.46,-20.1 h 4.282624 z m -7.3548,-7.61363 -3.2443,-7.7097 -3.32341,7.75376 z"
           style="font-style:normal;font-variant:normal;font-weight:normal;font-stretch:normal;font-family:'Highway Gothic Wide';-inkscape-font-specification:'Highway Gothic Wide';fill:#000000;fill-opacity:1;stroke-width:0.70554"
           id="path118967"
           sodipodi:nodetypes="ccccccccccccc" />
      </g>
      <g
         style="font-size:45.8828px;line-height:1.15;font-family:'ALS Direct';-inkscape-font-specification:'ALS Direct';fill:#000000;fill-opacity:1;stroke:none;stroke-width:1.08661;stroke-opacity:1"
         id="text118993"
         transform="matrix(-0.77072714,0,0,-0.74859505,507.01228,1255.4403)"
         aria-label="0">
        <path
           sodipodi:nodetypes="scsscscscssscssscssaaass"
           id="path118995"
           style="font-style:normal;font-variant:normal;font-weight:normal;font-stretch:normal;font-family:'Highway Gothic Wide';-inkscape-font-specification:'Highway Gothic Wide';fill:#000000;fill-opacity:1;stroke:none;stroke-width:1.08661;stroke-opacity:1"
           d="m 508.57249,704.94906 c 0,4.8024 -1.55436,8.48535 -3.87909,11.45244 -2.29414,2.9365 -5.53076,4.62916 -8.83045,4.60654 -1.46482,-0.01 -2.93198,-0.27365 -4.3179,-0.84553 -2.06648,-0.85272 -3.95233,-2.34967 -5.38045,-4.38199 -2.08002,-2.9365 -3.40622,-6.42671 -3.40622,-10.7397 0,-4.89416 1.53022,-8.32791 3.85495,-11.14206 2.32472,-2.84473 5.21193,-4.6875 9.24962,-4.6875 3.79298,0 6.57417,1.80609 8.8989,4.712 2.35532,2.87532 3.81064,6.31517 3.81064,11.0258 z m -5.53397,0.0918 c -0.0289,-0.57806 -0.0215,-1.18125 -0.11714,-1.77156 -0.29789,-1.83919 -0.99212,-3.65684 -1.96468,-5.04622 -1.25414,-1.83531 -2.8324,-3.25745 -5.12654,-3.25745 -2.32473,0 -3.84246,1.04378 -5.15776,2.87909 -1.31531,1.83531 -2.31641,3.95376 -2.31641,7.19614 0,3.27297 0.8051,5.22863 2.12041,7.09453 0.66699,0.93068 1.42036,1.76388 2.32828,2.30112 0.88252,0.52221 1.9124,0.76154 3.05827,0.76154 1.74908,0 2.51433,-0.61034 3.5479,-1.35473 0.70999,-0.51134 1.17621,-1.31576 1.68475,-2.03804 0.22843,-0.32444 0.42583,-0.67207 0.60965,-1.02528 0.23372,-0.44908 0.47135,-0.91823 0.62486,-1.38647 0.45696,-1.39386 0.77865,-2.94821 0.70841,-4.35267 z" />
      </g>
      <g
         aria-label="0"
         transform="matrix(-0.77072714,0,0,-0.74859505,537.28123,1255.4403)"
         id="g119018"
         style="font-size:45.8828px;line-height:1.15;font-family:'ALS Direct';-inkscape-font-specification:'ALS Direct';fill:#000000;fill-opacity:1;stroke:none;stroke-width:1.08661;stroke-opacity:1">
        <path
           d="m 508.57249,704.94906 c 0,4.8024 -1.55436,8.48535 -3.87909,11.45244 -2.29414,2.9365 -5.53076,4.62916 -8.83045,4.60654 -1.46482,-0.01 -2.93198,-0.27365 -4.3179,-0.84553 -2.06648,-0.85272 -3.95233,-2.34967 -5.38045,-4.38199 -2.08002,-2.9365 -3.40622,-6.42671 -3.40622,-10.7397 0,-4.89416 1.53022,-8.32791 3.85495,-11.14206 2.32472,-2.84473 5.21193,-4.6875 9.24962,-4.6875 3.79298,0 6.57417,1.80609 8.8989,4.712 2.35532,2.87532 3.81064,6.31517 3.81064,11.0258 z m -5.53397,0.0918 c -0.0289,-0.57806 -0.0215,-1.18125 -0.11714,-1.77156 -0.29789,-1.83919 -0.99212,-3.65684 -1.96468,-5.04622 -1.25414,-1.83531 -2.8324,-3.25745 -5.12654,-3.25745 -2.32473,0 -3.84246,1.04378 -5.15776,2.87909 -1.31531,1.83531 -2.31641,3.95376 -2.31641,7.19614 0,3.27297 0.8051,5.22863 2.12041,7.09453 0.66699,0.93068 1.42036,1.76388 2.32828,2.30112 0.88252,0.52221 1.9124,0.76154 3.05827,0.76154 1.74908,0 2.51433,-0.61034 3.5479,-1.35473 0.70999,-0.51134 1.17621,-1.31576 1.68475,-2.03804 0.22843,-0.32444 0.42583,-0.67207 0.60965,-1.02528 0.23372,-0.44908 0.47135,-0.91823 0.62486,-1.38647 0.45696,-1.39386 0.77865,-2.94821 0.70841,-4.35267 z"
           style="font-style:normal;font-variant:normal;font-weight:normal;font-stretch:normal;font-family:'Highway Gothic Wide';-inkscape-font-specification:'Highway Gothic Wide';fill:#000000;fill-opacity:1;stroke:none;stroke-width:1.08661;stroke-opacity:1"
           id="path119016"
           sodipodi:nodetypes="scsscscscssscssscssaaass" />
      </g>
      <path
         d="m 73.42349,715.59632 h 3.840021 v 8.83593 c 0,0 0.249871,1.71095 0.775011,2.3449 0.388682,0.4692 0.836616,0.98671 1.40694,1.36378 0.82452,0.54515 1.815301,0.85657 2.50235,0.80463 0.32527,-0.0246 0.678647,-0.0137 1.009501,-0.0796 0.830376,-0.16312 1.621506,-0.52443 2.223687,-1.07902 0.484635,-0.44635 1.073761,-1.2444 1.360497,-2.03195 0.284902,-0.78251 0.269028,-1.55593 0.269028,-1.55593 v -8.60276 h 3.807946 v 8.83599 c 0,0 0.04297,0.70621 0.318319,1.45599 0.210187,0.57237 0.604069,1.17018 0.93027,1.49857 0.433292,0.43616 0.936318,0.85262 1.514552,1.12655 0.6677,0.31632 1.425988,0.45655 2.135808,0.44468 0.810726,-0.0137 1.657578,-0.27013 2.372023,-0.71655 0.390379,-0.24385 0.720849,-0.56948 1.031477,-0.88536 0.338023,-0.34375 0.704483,-0.95781 0.921594,-1.53574 0.229616,-0.61121 0.300176,-1.1777 0.300176,-1.1777 l 0.0219,-9.04643 h 3.78252 v 16.71355 h -3.78235 v -0.99822 c 0,0 -0.749726,0.54875 -1.779972,0.93366 -1.03498,0.38668 -2.352481,0.60938 -3.219613,0.53379 -1.016562,-0.0887 -2.600683,-0.34251 -3.780249,-0.99226 -1.588309,-0.87488 -2.658294,-2.1929 -2.658294,-2.1929 0,0 -0.584309,0.65317 -0.916969,0.93632 -0.551248,0.46917 -1.250641,0.98629 -1.774439,1.25198 -1.180086,0.59857 -2.516855,1.00589 -3.840049,1.00589 -1.504754,0 -3.041967,-0.43064 -4.36694,-1.14396 -1.10767,-0.59633 -2.058411,-1.51108 -2.808407,-2.52107 -0.585158,-0.78801 -0.9936,-1.71122 -1.24941,-2.66629 -0.237008,-0.88445 -0.275679,-1.63209 -0.275679,-1.63209 z"
         style="font-style:normal;font-variant:normal;font-weight:normal;font-stretch:normal;font-size:30px;line-height:1.15;font-family:'Highway Gothic Wide';-inkscape-font-specification:'Highway Gothic Wide';fill:#000000;fill-opacity:1;stroke:none;stroke-width:0.825365;stroke-opacity:1"
         id="path42828"
         sodipodi:nodetypes="cccssssssccccsssssssccccccssscasaaascc" />
      <g
         aria-label="5"
         id="text108138-6"
         style="font-size:30px;line-height:1.15;font-family:'ALS Direct';-inkscape-font-specification:'ALS Direct';fill:#000000;fill-opacity:1;stroke:none;stroke-width:0.708711;stroke-opacity:1"
         transform="matrix(-1.1646046,0,0,-1.1646047,521.55343,1495.1916)">
        <path
           d="m 294.15474,667.46347 c -0.61562,0.48821 -1.33001,0.84171 -2.0686,1.13003 -0.65842,0.25703 -1.29241,0.48418 -2.09457,0.5918 -0.7313,0.0981 -1.6915,0.17179 -2.53104,0.0838 -1.57807,-0.16551 -3.14739,-0.55368 -4.62139,-1.14106 -0.9204,-0.36676 -2.58485,-1.46744 -2.58485,-1.46744 l 2.15222,-2.97912 c 0,0 0.83719,0.641 2.09436,1.15539 0.95571,0.39105 2.25225,0.67622 3.03714,0.74134 1.30794,0.10853 2.96756,-0.0377 3.86756,-0.73772 0.29944,-0.23955 0.60927,-0.3563 0.83034,-0.62841 0.44339,-0.54576 0.66356,-1.29824 0.66356,-1.99222 0.0269,-0.73849 -0.3745,-1.44707 -0.85623,-1.92151 -0.23583,-0.23226 -0.46629,-0.36147 -0.72523,-0.49987 -0.38135,-0.20384 -0.77229,-0.36325 -1.20552,-0.47909 -0.63286,-0.16921 -1.301,-0.28071 -1.91969,-0.23882 -0.61402,0.0416 -1.5162,0.1072 -2.28882,0.30765 -0.95333,0.24734 -1.72677,0.63342 -1.72677,0.63342 l -3.08679,-2.47741 0.80093,-8.68437 13.05705,0.0157 v 3.67652 l -9.71124,-0.018 -0.29623,3.31636 c 0,0 0.53824,-0.14692 1.2299,-0.25761 0.75303,-0.12051 1.6879,-0.20629 2.30801,-0.22383 0.44654,-0.0126 0.85341,0.0289 1.33599,0.10535 0.88837,0.14068 1.87541,0.42405 2.6739,0.78692 0.4384,0.19923 0.86658,0.41303 1.25054,0.69621 0.59334,0.4376 1.13551,0.95484 1.59869,1.52843 0.19535,0.24191 0.34261,0.49941 0.48816,0.79487 0.52409,1.06387 0.87199,2.39799 0.74891,3.57686 -0.0588,0.56348 -0.15906,1.17092 -0.3633,1.72483 -0.18239,0.49466 -0.45643,0.93951 -0.71931,1.38575 -0.33946,0.57621 -0.81368,1.07975 -1.33768,1.4953 z"
           style="font-style:normal;font-variant:normal;font-weight:normal;font-stretch:normal;font-family:'Highway Gothic Wide';-inkscape-font-specification:'Highway Gothic Wide';fill:#000000;fill-opacity:1;stroke:none;stroke-width:0.708711;stroke-opacity:1"
           id="path108140-4"
           sodipodi:nodetypes="assaaccsscscsassscccccccssssaassssa" />
      </g>
      <g
         transform="matrix(-1.1867995,0,0,-1.1867995,475.4637,1330.331)"
         style="font-size:30px;line-height:1.15;font-family:'ALS Direct';-inkscape-font-specification:'ALS Direct';fill:#000000;fill-opacity:1;stroke-width:0.695455"
         id="text119055"
         aria-label="M">
        <path
           sodipodi:nodetypes="ccccccccccccc"
           id="path119057"
           style="font-style:normal;font-variant:normal;font-weight:normal;font-stretch:normal;font-family:'Highway Gothic Wide';-inkscape-font-specification:'Highway Gothic Wide';fill:#000000;fill-opacity:1;stroke-width:0.695455"
           d="m 280.15763,477.02402 h -3.60219 l -0.008,-13.86426 -6.83087,11.15482 -6.82098,-11.13588 -0.0152,13.84543 -3.61608,10e-6 v -20.1 l 4.014,-0.0312 6.44253,10.47376 6.42576,-10.47311 4.01092,0.0304 z" />
      </g>
      <g
         transform="matrix(-1.1906978,0,0,-1.1906977,365.87262,1382.0562)"
         style="font-size:30px;line-height:1.15;font-family:'ALS Direct';-inkscape-font-specification:'ALS Direct';fill:#000000;fill-opacity:1;stroke-width:0.693179"
         id="text119090"
         aria-label="R">
        <path
           sodipodi:nodetypes="cccccccssssaccsasassccsasss"
           id="path119092"
           style="font-style:normal;font-variant:normal;font-weight:normal;font-stretch:normal;font-family:'Highway Gothic Wide';-inkscape-font-specification:'Highway Gothic Wide';fill:#000000;fill-opacity:1;stroke-width:0.693179"
           d="m 132.55457,518.83314 h -4.18416 l -4.6752,-8.34853 -3.46925,-10e-4 v 8.36155 h -3.6 l -0.008,-19.94648 h 9.24 c 0.53297,0 1.21955,-0.037 1.86137,0.074 0.94776,0.16381 1.8617,0.56079 2.55923,1.14754 1.35953,1.14362 2.27825,2.4782 2.27825,4.8182 0,1.4945 -0.68799,2.73897 -1.60035,3.74363 -0.80998,0.89192 -2.15081,1.53174 -3.17163,1.73348 z m -3.57281,-14.10645 c 0.0136,-0.37657 -0.0999,-0.78364 -0.28127,-1.12497 -0.13511,-0.25425 -0.35499,-0.47526 -0.57724,-0.64254 -0.25525,-0.1921 -0.50311,-0.29531 -0.78182,-0.36804 -0.21755,-0.0568 -0.44341,-0.0444 -0.67283,-0.0475 -0.32615,-0.004 -0.66067,-0.006 -0.97663,-0.006 l -5.44439,-0.009 0.005,4.35544 5.6513,-0.0264 c 0.87999,-0.004 1.16792,0.0569 1.702,-0.14015 0.31227,-0.11519 0.65904,-0.39413 0.80997,-0.58393 0.29832,-0.37512 0.54904,-0.95093 0.56545,-1.40684 z" />
        <path
           d="m 132.55457,518.83314 h -4.18416 l -4.6752,-8.34853 -3.46925,-10e-4 v 8.36155 h -3.6 l -0.008,-19.94648 h 9.24 c 0.53297,0 1.21955,-0.037 1.86137,0.074 0.94776,0.16381 1.8617,0.56079 2.55923,1.14754 1.35953,1.14362 2.27825,2.4782 2.27825,4.8182 0,1.4945 -0.68799,2.73897 -1.60035,3.74363 -0.80998,0.89192 -2.15081,1.53174 -3.17163,1.73348 z m -3.57281,-14.10645 c 0.0136,-0.37657 -0.0999,-0.78364 -0.28127,-1.12497 -0.13511,-0.25425 -0.35499,-0.47526 -0.57724,-0.64254 -0.25525,-0.1921 -0.50311,-0.29531 -0.78182,-0.36804 -0.21755,-0.0568 -0.44341,-0.0444 -0.67283,-0.0475 -0.32615,-0.004 -0.66067,-0.006 -0.97663,-0.006 l -5.44439,-0.009 0.005,4.35544 5.6513,-0.0264 c 0.87999,-0.004 1.16792,0.0569 1.702,-0.14015 0.31227,-0.11519 0.65904,-0.39413 0.80997,-0.58393 0.29832,-0.37512 0.54904,-0.95093 0.56545,-1.40684 z"
           style="font-style:normal;font-variant:normal;font-weight:normal;font-stretch:normal;font-family:'Highway Gothic Wide';-inkscape-font-specification:'Highway Gothic Wide';fill:#000000;fill-opacity:1;stroke-width:0.693179"
           id="path119095"
           sodipodi:nodetypes="cccccccssssaccsasassccsasss" />
      </g>
      <g
         aria-label="R"
         id="g119132"
         style="font-size:30px;line-height:1.15;font-family:'ALS Direct';-inkscape-font-specification:'ALS Direct';fill:#000000;fill-opacity:1;stroke-width:0.695258"
         transform="matrix(-1.1871394,0,0,-1.1871395,268.15156,1379.1021)">
        <path
           sodipodi:nodetypes="cccccsssssaaaccasasscccssaaaa"
           id="path119130"
           style="font-style:normal;font-variant:normal;font-weight:normal;font-stretch:normal;font-family:'Highway Gothic Wide';-inkscape-font-specification:'Highway Gothic Wide';fill:#000000;fill-opacity:1;stroke-width:0.695258"
           d="m 123.66865,510.67654 -3.46925,-10e-4 0.0266,7.19125 h -3.6 L 116.6064,497.883 h 9.24 c 0.53297,0 1.03611,0.001 1.67793,0.11222 0.94776,0.16381 1.99164,0.71366 2.68917,1.30041 1.35953,1.14362 2.39218,2.66682 2.39218,5.00682 0,1.4945 -0.47893,2.62076 -1.31286,3.79869 -0.41405,0.58486 -0.93988,1.06182 -1.51381,1.46737 -0.44449,0.31408 -0.95283,0.5352 -1.46272,0.72557 -0.36552,0.13646 -0.74817,0.22932 -1.13289,0.29431 -0.30377,0.0513 -0.92123,0.0743 -0.92123,0.0743 z m 4.97834,-7.76656 c -0.1618,-0.32959 -0.48876,-0.67399 -0.71101,-0.84127 -0.25525,-0.1921 -0.70494,-0.43367 -1.09902,-0.54002 -0.21707,-0.0586 -0.44341,-0.0444 -0.67283,-0.0475 -0.32615,-0.004 -0.66067,-0.006 -0.97663,-0.006 l -4.95887,0.004 -0.003,5.59646 4.67293,-0.003 c 0.45799,-3.4e-4 0.79261,1.1e-4 1.10498,-0.001 0.28784,-10e-4 0.558,-10e-5 0.86072,-0.0855 0.49045,-0.13833 0.98934,-0.3684 1.33737,-0.74063 0.4267,-0.45637 0.72502,-1.0762 0.79595,-1.69694 0.0634,-0.55489 -0.10486,-1.137 -0.35098,-1.63835 z" />
      </g>
    </g>
  </g>
</svg>
