<svg width="228.09" height="170.17" version="1.1" viewBox="0 0 228.09 170.17" xmlns="http://www.w3.org/2000/svg"><g transform="translate(-791.68 255.66)"><g transform="matrix(-1.2116 0 0 -1.2116 1341.9 742.5)" stroke-width=".82537" aria-label="6"><path d="m453.82 823.85h-187.62c-0.17443 0-0.31559-0.14055-0.31559-0.31543v-139.82c0-0.17472 0.14082-0.31543 0.31559-0.31543h187.62c0.17443 0 0.31562 0.14055 0.31562 0.31543v139.82c0 0.17471-0.14083 0.31543-0.31562 0.31543z" fill="#ff0" fill-rule="evenodd" opacity=".99988"/><g><path d="m441.9 820.69c5.044 0 9.1527-4.1114 9.1527-9.1519v-115.99c0-5.0405-4.1086-9.1462-9.1527-9.1462h-163.33c-5.0441 0-9.1584 4.1057-9.1584 9.1462v115.99c0 5.0405 4.1143 9.1519 9.1584 9.1519zm0-3.1516h-163.33c-3.3536 0-6.0044-2.649-6.0044-6.0003v-115.99c0-3.3512 2.6508-5.9945 6.0044-5.9945h163.33c3.3536 0 6.0045 2.6432 6.0045 5.9945v115.99c0 3.3513-2.6508 6.0003-6.0045 6.0003z" color="#000000" color-rendering="auto" dominant-baseline="auto" enable-background="accumulate" fill-rule="evenodd" image-rendering="auto" opacity=".99988" shape-rendering="auto" solid-color="#000000" stop-color="#000000" style="font-feature-settings:normal;font-variant-alternates:normal;font-variant-caps:normal;font-variant-east-asian:normal;font-variant-ligatures:normal;font-variant-numeric:normal;font-variant-position:normal;font-variation-settings:normal;inline-size:0;isolation:auto;mix-blend-mode:normal;shape-margin:0;shape-padding:0;text-decoration-color:#000000;text-decoration-line:none;text-decoration-style:solid;text-indent:0;text-orientation:mixed;text-transform:none;white-space:normal"/><path d="m391.66 785.39 4.157 8e-3 6.1838 9.0227 1.4214-1.3984v-7.631l3.4314-3.1e-4 -0.0222 19.026h-3.4065l-3e-3 -6.6384-6.8646 6.6381h-4.8974l7.8087-7.641z" stroke-width="1.3236"/><g transform="matrix(-.90855 0 0 -.95811 467.97 1212)" stroke-width=".88463" aria-label="A"><path d="m109.92 445.17-4.2106 0.0439-1.7771-3.9811-9.4704 0.0158-1.6829 3.9477-4.068-0.0263 8.46-20.1h4.2826zm-7.3548-7.6136-3.2443-7.7097-3.3234 7.7538z" stroke-width=".88463"/></g><path d="m348.44 790.29c0.9347-2.6341 2.9572-4.3835 5.3534-4.9416 0.0195 0 0.0411-3.0056 0.0411-3.0056h4.0869s0.0494 3.1954 0.07 3.2023c1.2684 0.42979 2.3304 1.2112 3.2307 2.322 1.4214 1.7768 2.1322 4.1428 2.1322 7.0979 0 2.9738-0.71074 5.3304-2.1322 7.0698-1.4215 1.7394-3.3667 2.7-5.8355 2.7-3.1235 0-6.1241-2.5684-6.9461-5.1779l3.1776-1.0552c0.65558 1.8137 2.1633 2.7932 3.9962 2.8492 1.4215-0.0378 2.6254-0.71882 3.4297-1.9533 0.27109-0.40973 0.41239-1.0109 0.55108-1.4759 0.27249-0.91465 0.38201-1.7722 0.38201-2.9007 0-2.02-0.40018-3.8078-1.2229-4.93-0.84168-1.1035-1.8843-1.5752-3.2871-1.5752-1.8703 0.0194-3.3296 1.357-3.8436 2.7792z" stroke-width="1.2674"/><g transform="matrix(-.90855 0 0 -.95811 493.13 1177)" stroke-width=".88463" aria-label="A"><path d="m109.92 445.17-4.2106 0.0439-1.7771-3.9811-9.4704 0.0158-1.6829 3.9477-4.068-0.0263 8.46-20.1h4.2826zm-7.3548-7.6136-3.2443-7.7097-3.3234 7.7538z" stroke-width=".88463"/></g><path d="m312.81 790.98c0.0328-1.4235 0.53686-2.7377 1.8424-3.854 0.94295-0.81813 2.2428-1.3705 3.786-1.6073 0.0139 0 0.0555-3.15 0.0555-3.15h3.3616s-0.0289 3.1316-0.0222 3.1325c2.2006 0.33201 3.8034 1.4044 5.7715 3.3525l-2.5682 2.1342c-1.0104-1.3562-3.0946-2.3342-4.8676-2.2796-1.135 0.0347-2.3306 0.29374-3.2206 0.8711-0.46945 0.30456-0.77421 0.90098-0.83301 1.4574-0.0489 0.46276 0.12943 0.96984 0.42423 1.3298 0.14221 0.17388 0.3897 0.35951 0.63149 0.45076 0.82218 0.30998 3.193 0.61036 4.5857 0.81357 0.79654 0.1161 1.636 0.11083 2.3774 0.4247 0.90134 0.38162 1.8072 0.92459 2.3826 1.7165 0.70105 0.9647 1.1511 2.2157 1.0922 3.4068-0.0603 1.2216-0.63728 2.461-1.4596 3.3665-0.81782 0.90059-2.0429 1.3717-3.1936 1.7666-0.83943 0.28809-1.6861 0.40681-2.6302 0.41323-2.2696 0.0139-4.6418-0.74238-6.4465-2.3469l2.166-2.5269c1.4058 1.2016 2.8006 1.4988 4.3319 1.5325 1.1101 0.025 2.3458-0.24582 3.186-0.97173 0.43106-0.37254 0.75871-0.9762 0.73121-1.5455-0.0289-0.56952-0.2906-1.128-0.87718-1.4685-0.58655-0.34063-1.4566-0.41829-2.554-0.62647-2.6489-0.49192-5.1427-0.62447-6.3347-1.7408-1.2109-1.0974-1.7519-2.5844-1.7192-4.0509z" stroke-width="1.282"/><path d="m339.56 804.53v-19.021h-3.3636v19.021z" stroke-width="1.226"/><path d="m289.11 769.53v-19.021h-3.3636v19.021z" stroke-width="1.226"/><path d="m297.69 756.09c0.0328-1.4475 0.54587-2.7837 1.8734-3.9188 1.3083-1.1351 3.2922-1.7672 5.6586-1.7672 3.1553 0 5.0537 1.0895 7.5131 3.524l-2.6114 2.1701c-1.0275-1.3791-3.1468-2.3735-4.9497-2.3181-1.154 0.0358-2.3698 0.29876-3.2748 0.88585-0.47731 0.3097-0.78721 0.91606-0.84696 1.4819-0.05 0.47048 0.13139 0.98618 0.43101 1.3522 0.14444 0.17666 0.39606 0.36554 0.64208 0.45828 0.8361 0.31529 3.2467 0.62075 4.663 0.82729 0.80993 0.11805 1.6636 0.1125 2.4173 0.43179 0.91654 0.38817 1.8377 0.94023 2.4228 1.7454 0.71277 0.98101 1.1705 2.253 1.1105 3.4642-0.0614 1.2422-0.648 2.5025-1.4842 3.4232-0.83165 0.91573-2.0773 1.3947-3.2474 1.7962-0.85357 0.29293-1.7145 0.4137-2.6745 0.42023-2.3078 0.0139-4.7198-0.75488-6.555-2.3864l2.2024-2.5694c1.4295 1.2218 2.8477 1.524 4.4047 1.5583 1.1288 0.025 2.3853-0.25026 3.2397-0.98817 0.43831-0.37876 0.77148-0.99264 0.74351-1.5714-0.0289-0.57917-0.29568-1.147-0.89195-1.4933-0.59642-0.34629-1.4811-0.42532-2.597-0.637-2.6935-0.50022-5.2293-0.63502-6.4414-1.7701-1.2313-1.1159-1.7813-2.628-1.7481-4.1191z" stroke-width="1.2943"/><g transform="matrix(-.90855 0 0 -.95811 417.47 1177)" stroke-width=".88463" aria-label="A"><path d="m109.92 445.17-4.2106 0.0439-1.7771-3.9811-9.4704 0.0158-1.6829 3.9477-4.068-0.0263 8.46-20.1h4.2826zm-7.3548-7.6136-3.2443-7.7097-3.3234 7.7538z" stroke-width=".88463"/></g><g transform="matrix(-.94653 0 0 -.94653 631.65 1202.1)" stroke-width=".87198" aria-label="M"><path d="m280.16 477.02h-3.6022l-8e-3 -13.864-6.8309 11.155-6.821-11.136-0.0152 13.845-3.6161 1e-5v-20.1l4.014-0.0312 6.4425 10.474 6.4258-10.473 4.0109 0.0304z" stroke-width=".87198"/></g><g transform="matrix(-.94964 0 0 -.94964 544.24 1243.4)" stroke-width=".86913" aria-label="R"><path d="m132.55 518.83h-4.1842l-4.6752-8.3485-3.4692-1e-3v8.3616h-3.6l-8e-3 -19.946h9.24c0.53297 0 1.2196-0.037 1.8614 0.074 0.94776 0.16381 1.8617 0.56079 2.5592 1.1475 1.3595 1.1436 2.2782 2.4782 2.2782 4.8182 0 1.4945-0.68799 2.739-1.6004 3.7436-0.80998 0.89192-2.1508 1.5317-3.1716 1.7335zm-3.5728-14.106c0.0136-0.37657-0.0999-0.78364-0.28127-1.125-0.13511-0.25425-0.35499-0.47526-0.57724-0.64254-0.25525-0.1921-0.50311-0.29531-0.78182-0.36804-0.21755-0.0568-0.44341-0.0444-0.67283-0.0475-0.32615-4e-3 -0.66067-6e-3 -0.97663-6e-3l-5.4444-9e-3 5e-3 4.3554 5.6513-0.0264c0.87999-4e-3 1.1679 0.0569 1.702-0.14015 0.31227-0.11519 0.65904-0.39413 0.80997-0.58393 0.29832-0.37512 0.54904-0.95093 0.56545-1.4068z"/><path d="m132.55 518.83h-4.1842l-4.6752-8.3485-3.4692-1e-3v8.3616h-3.6l-8e-3 -19.946h9.24c0.53297 0 1.2196-0.037 1.8614 0.074 0.94776 0.16381 1.8617 0.56079 2.5592 1.1475 1.3595 1.1436 2.2782 2.4782 2.2782 4.8182 0 1.4945-0.68799 2.739-1.6004 3.7436-0.80998 0.89192-2.1508 1.5317-3.1716 1.7335zm-3.5728-14.106c0.0136-0.37657-0.0999-0.78364-0.28127-1.125-0.13511-0.25425-0.35499-0.47526-0.57724-0.64254-0.25525-0.1921-0.50311-0.29531-0.78182-0.36804-0.21755-0.0568-0.44341-0.0444-0.67283-0.0475-0.32615-4e-3 -0.66067-6e-3 -0.97663-6e-3l-5.4444-9e-3 5e-3 4.3554 5.6513-0.0264c0.87999-4e-3 1.1679 0.0569 1.702-0.14015 0.31227-0.11519 0.65904-0.39413 0.80997-0.58393 0.29832-0.37512 0.54904-0.95093 0.56545-1.4068z"/></g><g transform="matrix(-.94681 0 0 -.94681 466.3 1241)" stroke-width=".87174" aria-label="R"><path d="m123.67 510.68-3.4692-1e-3 0.0266 7.1912h-3.6l-0.0196-19.984h9.24c0.53297 0 1.0361 1e-3 1.6779 0.11222 0.94776 0.16381 1.9916 0.71366 2.6892 1.3004 1.3595 1.1436 2.3922 2.6668 2.3922 5.0068 0 1.4945-0.47893 2.6208-1.3129 3.7987-0.41405 0.58486-0.93988 1.0618-1.5138 1.4674-0.44449 0.31408-0.95283 0.5352-1.4627 0.72557-0.36552 0.13646-0.74817 0.22932-1.1329 0.29431-0.30377 0.0513-0.92123 0.0743-0.92123 0.0743zm4.9783-7.7666c-0.1618-0.32959-0.48876-0.67399-0.71101-0.84127-0.25525-0.1921-0.70494-0.43367-1.099-0.54002-0.21707-0.0586-0.44341-0.0444-0.67283-0.0475-0.32615-4e-3 -0.66067-6e-3 -0.97663-6e-3l-4.9589 4e-3 -3e-3 5.5965 4.6729-3e-3c0.45799-3.4e-4 0.79261 1.1e-4 1.105-1e-3 0.28784-1e-3 0.558-1e-4 0.86072-0.0855 0.49045-0.13833 0.98934-0.3684 1.3374-0.74063 0.4267-0.45637 0.72502-1.0762 0.79595-1.6969 0.0634-0.55489-0.10486-1.137-0.35098-1.6384z" stroke-width=".87174"/></g><path d="m401.56 732.86-3.523-3.5186 0.20221-0.20805c0.11055-0.11472 4.2643-3.949 9.2299-8.5207 4.9654-4.5718 9.0279-8.3428 9.0277-8.38 4.8e-4 -0.0383-1.6734-1.0229-3.7182-2.1903-4.2049-2.4007-4.3445-2.5004-4.4677-3.1927-0.0925-0.52025 0.0692-1.051 0.43201-1.4176 0.27109-0.2736 0.60419-0.36668 12.324-3.4551 6.6249-1.7457 12.181-3.2184 12.348-3.2728 0.40282-0.13139 0.95757-0.0722 1.345 0.14332 0.27026 0.15055 0.34464 0.23138 0.5225 0.56906 0.11388 0.21637 0.21249 0.53072 0.22026 0.69835 0.0139 0.36287-6.1458 24.687-6.3405 25.034-0.29965 0.53425-1.0464 0.85071-1.7023 0.72146-0.65002-0.12805-0.8154-0.35892-3.185-4.4418-1.1714-2.0184-2.1598-3.6697-2.1967-3.6695-0.0389-8e-4 -3.8684 4.1938-8.515 9.319-4.6467 5.1252-8.455 9.3146-8.4635 9.3097-0.0111-6e-3 -1.6008-1.5924-3.5386-3.5275z" stroke-width=".82537"/></g></g></g></svg>