<svg enable-background="new 0 0 1126.7 699.6" version="1.1" viewBox="0 0 1126.7 699.6" xmlns="http://www.w3.org/2000/svg"><style type="text/css">.st0{fill:#003E8D;}.st1{fill:#FFFFFF;}.st2{fill-rule:evenodd;clip-rule:evenodd;fill:#FFFFFF;}.st3{fill:#EF131E;}</style><rect class="st0" width="1126.7" height="699.6"/><circle class="st1" cx="394.2" cy="554.4" r="34.6"/><circle class="st1" cx="204.6" cy="219.9" r="37.1"/><path class="st1" d="m231.3 281.6v73.1l50.5 35.9c3.6 2.5 6.1 6.3 6.9 10.7 0.8 4.7-0.3 10.5-8.2 15-8.6 4.7-20.4-4.7-20.4-4.7l-27.2-16v180.3s-17.2 24.5-36.5 0v-120.8l-42.5 109s-6.3 14.9-26.1 2.1c-7.6-5-5.3-13.1-3.3-17.3 2.3-4.9 4.3-9.9 6.2-14.9l35.2-90.6v-83.2l-31.3 59.2s-6.3 13.8-22.4 6.3c-14.2-6.6-6.9-21.7-4.9-25.3l1.5-2.7 56.3-105.8 15.4-16.4c0-0.1 26.2-20.5 50.8 6.1z"/><circle class="st1" cx="548.7" cy="339.5" r="26.6"/><path class="st1" d="m527.4 412.5v167.7s15.3 17.1 30.1 0v-87.7l13.5 32.8s2.9 7 8.6 7h50.3s18.3-13 0-29.2h-39.4l-12.5-27.6v-66.3l12.8 41.7s14.9 16.7 27.9-3.7l-13.8-45.2s-14.4-29.7-41.5-31-33.9 5.2-33.9 5.2l-50.9 35s-7.8 8.1-2.1 18.3 18 6.3 18 6.3l32.9-23.3z"/><path class="st2" d="m532.2 198.5v-13h30.8l0.1-1.2c0.2-2.5 0.2-5 0.1-7.6-0.2-1-0.4-2.1-0.7-3.1-0.4-1.1-0.9-2.2-1.6-3.2-1.4-1.5-2.9-2.8-4.6-4-1-0.7-2-1.4-2.9-2.2-1.3-1.5-2.5-3.2-3.5-4.9l-18.7-43c-1.9-5.2-6.2-9.2-11.6-10.7-10.1-3-26.5-5.1-40-6.1-7.6-0.4-12.6-0.5-19-0.5-7.6 0.1-14.6 0.3-22.8 1.1-12.8 1.2-29.3 3.7-38.4 6.1-4.4 1.3-8.2 4.2-10.6 8.2l-20.7 46.5s-1.8 2.7-2.9 3.9c-0.7 0.8-2.2 2.1-2.2 2.1-1.4 0.8-2.8 1.8-4 2.9-1.1 1.6-2.1 3.3-2.8 5.1l-0.4 9.8 0.1 0.8h31v13h-30.1l0.7 26.8c0 3.2 2 5.8 5.3 5.8h0.7v20.1 1.1c0 4.3 3.5 7.9 7.9 7.9h21.1c4.3 0 7.9-3.5 7.9-7.9v-21.1h119.1v21.8c0 4 3.2 7.2 7.2 7.2h22.4c4 0 7.2-3.2 7.2-7.2v-22.2h0.1c3.2 0 5.5-1.8 5.5-5l0.8-27.2-30.5-0.1zm-42.6 5.2h-60.3v-20.9h60.3v20.9zm19.9-44c-15.7-1.6-34.9-2.5-47.7-2.5-13 0-32.6 1.1-48.6 2.8-14.9 1.5-30.8 4.2-30.8 4.2l16.6-38.2c0.4-1 0.9-1.9 1.5-2.7 0.7-0.8 1.4-1.6 2.3-2.3 0.8-0.6 1.6-1.1 2.5-1.5 0.8-0.4 1.6-0.7 2.5-0.9 0 0 14.9-2.5 28-4.2 8.4-1 16.8-1.5 25.3-1.6 11.5 0.2 23.1 1 34.5 2.4 5.4 0.7 16 2.9 16 2.9 1.4 0.4 2.7 1 3.9 1.7 0.8 0.5 1.5 1.1 2.1 1.8 0.8 0.7 1.4 1.6 2 2.5 0.4 0.6 0.7 1.2 0.9 1.9l15.7 37.4c-0.1 0-11.8-2.2-26.7-3.7z"/><rect class="st1" x="810.9" y="170.8" width="57.6" height="72.7"/><path class="st2" d="m876.3 90.6-33.2 20.5v-11.8h-50.5v43.1l-86.5 53.6h61.3v165h217.4v-165h61.8l-170.3-105.4zm83.5 246.5h-55.4v-79.9h-57.6v79.9h-55.4v-166.3l84.2-52 84.2 52v166.3z"/><rect class="st1" x="882.7" y="170.8" width="57.6" height="72.7"/><path class="st2" d="m624.8 238.7h38s-12.5 82.3 55.8 156.9 215 167 260.3 185.7l-16.2 33.9s-111.1-53.7-200.3-128.9-137.4-122.7-137.6-247.6z"/><polygon class="st3" points="35 642.6 1034.5 24.7 1079.6 36.3 1091.1 55.6 102.7 667.7 55.3 672.3 35.6 647.1"/><path class="st1" d="m1054 683.4h-982.4c-29.6 0-53.6-24-53.6-53.6v-560.7c0-29.6 24-53.6 53.6-53.6h982.4c29.6 0 53.6 24 53.6 53.6v560.6c0 29.6-24 53.6-53.6 53.7zm-982.4-650.9c-20.2 0-36.6 16.4-36.6 36.6v560.6c0 20.2 16.4 36.6 36.6 36.6h982.4c20.2 0 36.6-16.4 36.6-36.6v-560.6c0-20.2-16.4-36.6-36.6-36.6h-982.4z"/></svg>