<?xml version="1.0" encoding="utf-8"?>
<!-- Generator: Adobe Illustrator 26.0.1, SVG Export Plug-In . SVG Version: 6.00 Build 0)  -->
<svg version="1.1" id="Layer_1" xmlns="http://www.w3.org/2000/svg" xmlns:xlink="http://www.w3.org/1999/xlink" x="0px" y="0px"
	 viewBox="0 0 1126.7 699.6" style="enable-background:new 0 0 1126.7 699.6;" xml:space="preserve">
<style type="text/css">
	.st0{fill:#003E8D;}
	.st1{fill:#FFFFFF;}
	.st2{fill-rule:evenodd;clip-rule:evenodd;fill:#FFFFFF;}
	.st3{fill:#EF131E;}
</style>
<g id="Layer_2_00000003802353455486775060000002240302829517505697_">
	<g id="Layer_1-2">
		<g>
			<rect y="0" class="st0" width="1126.7" height="699.6"/>
			<g>
				<g>
					<circle class="st1" cx="394.2" cy="554.4" r="34.6"/>
					<g>
						<circle class="st1" cx="204.6" cy="219.9" r="37.1"/>
						<path class="st1" d="M231.3,281.6v73.1l50.5,35.9c3.6,2.5,6.1,6.3,6.9,10.7c0.8,4.7-0.3,10.5-8.2,15
							c-8.6,4.7-20.4-4.7-20.4-4.7l-27.2-16v180.3c0,0-17.2,24.5-36.5,0V455.1l-42.5,109c0,0-6.3,14.9-26.1,2.1
							c-7.6-5-5.3-13.1-3.3-17.3c2.3-4.9,4.3-9.9,6.2-14.9l35.2-90.6v-83.2l-31.3,59.2c0,0-6.3,13.8-22.4,6.3
							c-14.2-6.6-6.9-21.7-4.9-25.3c0.5-0.9,1-1.8,1.5-2.7l56.3-105.8l15.4-16.4C180.5,275.4,206.7,255,231.3,281.6z"/>
					</g>
					<g>
						<circle class="st1" cx="548.7" cy="339.5" r="26.6"/>
						<path class="st1" d="M527.4,412.5v167.7c0,0,15.3,17.1,30.1,0v-87.7l13.5,32.8c0,0,2.9,7,8.6,7h50.3c0,0,18.3-13,0-29.2h-39.4
							L578,475.5v-66.3l12.8,41.7c0,0,14.9,16.7,27.9-3.7l-13.8-45.2c0,0-14.4-29.7-41.5-31s-33.9,5.2-33.9,5.2l-50.9,35
							c0,0-7.8,8.1-2.1,18.3s18,6.3,18,6.3L527.4,412.5z"/>
					</g>
				</g>
				<path class="st2" d="M532.2,198.5v-13H563l0.1-1.2c0.2-2.5,0.2-5,0.1-7.6c-0.2-1-0.4-2.1-0.7-3.1c-0.4-1.1-0.9-2.2-1.6-3.2
					c-1.4-1.5-2.9-2.8-4.6-4c-1-0.7-2-1.4-2.9-2.2c-1.3-1.5-2.5-3.2-3.5-4.9l-18.7-43c-1.9-5.2-6.2-9.2-11.6-10.7
					c-10.1-3-26.5-5.1-40-6.1C472,99.1,467,99,460.6,99l0,0c-7.6,0.1-14.6,0.3-22.8,1.1c-12.8,1.2-29.3,3.7-38.4,6.1
					c-4.4,1.3-8.2,4.2-10.6,8.2l-20.7,46.5c0,0-1.8,2.7-2.9,3.9c-0.7,0.8-2.2,2.1-2.2,2.1c-1.4,0.8-2.8,1.8-4,2.9
					c-1.1,1.6-2.1,3.3-2.8,5.1l-0.4,9.8l0.1,0.8h31v13h-30.1l0.7,26.8c0,3.2,2,5.8,5.3,5.8h0.7l0,20.1h0v1.1c0,4.3,3.5,7.9,7.9,7.9
					c0,0,0,0,0,0h21.1c4.3,0,7.9-3.5,7.9-7.9c0,0,0,0,0,0V239v-7.8h119.1v21.8c0,4,3.2,7.2,7.2,7.2c0,0,0,0,0,0h22.4
					c4,0,7.2-3.2,7.2-7.2c0,0,0,0,0,0v-22.2h0.1c3.2,0,5.5-1.8,5.5-5l0.8-27.2L532.2,198.5z M489.6,203.7h-60.3v-20.9h60.3V203.7z
					 M509.5,159.7c-15.7-1.6-34.9-2.5-47.7-2.5c-13,0-32.6,1.1-48.6,2.8c-14.9,1.5-30.8,4.2-30.8,4.2L399,126c0.4-1,0.9-1.9,1.5-2.7
					c0.7-0.8,1.4-1.6,2.3-2.3c0.8-0.6,1.6-1.1,2.5-1.5c0.8-0.4,1.6-0.7,2.5-0.9c0,0,14.9-2.5,28-4.2c8.4-1,16.8-1.5,25.3-1.6l0,0
					c11.5,0.2,23.1,1,34.5,2.4c5.4,0.7,16,2.9,16,2.9c1.4,0.4,2.7,1,3.9,1.7c0.8,0.5,1.5,1.1,2.1,1.8c0.8,0.7,1.4,1.6,2,2.5
					c0.4,0.6,0.7,1.2,0.9,1.9l15.7,37.4C536.1,163.4,524.4,161.2,509.5,159.7z"/>
				<g>
					<rect x="810.9" y="170.8" class="st1" width="57.6" height="72.7"/>
					<path class="st2" d="M876.3,90.6l-33.2,20.5V99.3h-50.5v43.1L706.1,196h61.3V361h217.4V196h61.8L876.3,90.6z M959.8,337.1
						h-55.4v-79.9h-57.6v79.9h-55.4V170.8l84.2-52l84.2,52L959.8,337.1z"/>
					<rect x="882.7" y="170.8" class="st1" width="57.6" height="72.7"/>
				</g>
				<path class="st2" d="M624.8,238.7h38c0,0-12.5,82.3,55.8,156.9s215,167,260.3,185.7l-16.2,33.9c0,0-111.1-53.7-200.3-128.9
					S625,363.6,624.8,238.7z"/>
			</g>
			<polygon class="st3" points="35,642.6 1034.5,24.7 1079.6,36.3 1091.1,55.6 102.7,667.7 55.3,672.3 35.6,647.1 			"/>
			<path class="st1" d="M1054,683.4H71.6c-29.6,0-53.6-24-53.6-53.6V69.1c0-29.6,24-53.6,53.6-53.6H1054c29.6,0,53.6,24,53.6,53.6
				v560.6C1107.6,659.3,1083.6,683.3,1054,683.4z M71.6,32.5C51.4,32.5,35,48.9,35,69.1v560.6c0,20.2,16.4,36.6,36.6,36.6H1054
				c20.2,0,36.6-16.4,36.6-36.6V69.1c0-20.2-16.4-36.6-36.6-36.6L71.6,32.5z"/>
		</g>
	</g>
</g>
</svg>
