<svg viewBox="0 0 333.1 337.85" xmlns="http://www.w3.org/2000/svg"><defs><style>.cls-1 {        fill: #00408c;        fill-rule: evenodd;      }      .cls-2 {        fill: #fff;      }</style></defs><g data-name="Layer 2"><g data-name="Layer 1"><g data-name="Layer 2"><g data-name="Layer 1-2"><g data-name="Layer 2-2"><g data-name="Layer 1-2-2"><g data-name="Layer 1-2-2-2"><path class="cls-1" d="M21.73,0H311.29A21.69,21.69,0,0,1,333.1,21.57V316.12a21.73,21.73,0,0,1-21.65,21.73H21.73A21.66,21.66,0,0,1,0,316.24v0H0V21.73A21.67,21.67,0,0,1,21.61,0h.12Z"/><path class="cls-2" d="M19.71,331.45a15.16,15.16,0,0,1-13-13.16c-.14-1.43-.14-296.84,0-298.26a15.15,15.15,0,0,1,3.47-8A15.49,15.49,0,0,1,18.66,7c.88-.22,6.58-.22,147.51-.26h147.1A15.15,15.15,0,0,1,326.6,20.07c.18,1.44.18,296.84,0,298.26a15.1,15.1,0,0,1-13.21,13.18c-1.28.16-292.46.16-293.71,0ZM314,326.34a10.47,10.47,0,0,0,7.46-7.53l.26-1.08V20.55l-.26-1.09A10.24,10.24,0,0,0,314,12l-1.13-.3H167c-138.58,0-146.48,0-147.43.22a10.15,10.15,0,0,0-5.07,2.69,10.31,10.31,0,0,0-2.77,5c-.2.77-.22,9.48-.24,148.63v149a9.46,9.46,0,0,0,1.1,3.81,10.13,10.13,0,0,0,8,5.58H313Z"/></g><rect class="cls-2" x="54.38" y="56.79" width="224.26" height="224.26"/></g></g></g></g><path d="m112.67 123a11.49 11.49 0 0 0-11.67-12.39h-9.67v-3.13h49.5v3.07c-0.45 0-0.88 0.06-1.3 0.06h-9a11.51 11.51 0 0 0-11.36 11.18c0 0.39 0.07 0.78 0.11 1.27h1.26c5.52 0 11-0.1 16.56 0 3.77 0.06 6.55 2 8.53 5.16a31.36 31.36 0 0 0 2.95 4.17 170.64 170.64 0 0 0 40.42 33.52 171.75 171.75 0 0 0 45.08 18.78 166.11 166.11 0 0 0 31.42 5.05c0.32 0 0.64 0 1 0.08a1.52 1.52 0 0 1 0.37 0.16v22.02h-185.07a15 15 0 0 1-15.28-15.27c0-7.88 0.12-15.76 0-23.64a59.35 59.35 0 0 1 1.48-14.09c0.55-2.49 1.07-5 1.47-7.52 0.62-4 2.46-7.49 3.86-11.18 1.76-4.67 3.65-9.29 5.48-13.93a5 5 0 0 1 5-3.31h28.08c0.22 0 0.41-0.06 0.78-0.06zm-5.32 30.79h28.07c4.59 0 6.78-3.18 5.2-7.46l-4.82-13a5 5 0 0 0-5.36-3.73q-22.9 0-45.82 0a5.06 5.06 0 0 0-5.12 3.4c-1.86 4.59-3.69 9.19-5.41 13.82a6.13 6.13 0 0 0-0.24 3.26c0.53 2.47 2.54 3.74 5.55 3.74zm62.81 36.65v-19.43a1.64 1.64 0 0 0-0.73-1.06 186.83 186.83 0 0 1-18.35-13.69c-0.32-0.28-0.65-0.53-1.12-0.91-0.05 0.45-0.09 0.67-0.09 0.9v24.84a1.23 1.23 0 0 0 0.93 1.31c4.33 1.86 8.63 3.76 13 5.59 1.98 0.85 4.08 1.58 6.36 2.44zm21.16 7.13v-1.35-12.59a1.59 1.59 0 0 0-1-1.64c-5-2.66-9.88-5.4-14.81-8.11-0.23-0.12-0.47-0.23-0.72-0.34a1.1 1.1 0 0 0-0.11 0.29v17.62c0 0.34 0.5 0.86 0.87 1q4.4 1.59 8.83 3c2.27 0.75 4.53 1.38 6.94 2.11zm4-13.07v13.57c0 0.27 0.46 0.69 0.78 0.79 1.41 0.44 2.84 0.8 4.28 1.14 2.85 0.68 5.71 1.32 8.7 2v-11.67a1.07 1.07 0 0 0-0.55-0.76c-4.36-1.7-8.71-3.35-13.24-5.08zm-107.59-1.4a7 7 0 0 0-6.91-7 6.94 6.94 0 0 0 0 13.87 6.94 6.94 0 0 0 6.91-6.87zm46.64 0a7 7 0 0 0-6.87-7 6.94 6.94 0 0 0-0.12 13.87 7 7 0 0 0 6.99-6.83zm78.15 19.57 11 1.89v-10.11c0-0.25-0.53-0.61-0.88-0.71-2.63-0.77-5.29-1.48-7.93-2.22-0.71-0.2-1.41-0.43-2.2-0.68zm23.84 3.45v-9c0-0.25-0.49-0.65-0.81-0.72-2.77-0.59-5.55-1.11-8.33-1.65a6.12 6.12 0 0 0-0.86 0v8.25c0 1.89 0 1.93 1.92 2.18 2.6 0.37 5.26 0.65 8.08 0.98zm11-8.15-8.75-1v9.41l8.75 0.58zm9.4 0.61-7-0.41v8.9h7zm1.84 0.12v8.41h6.51v-8.41zm-142.66-78.7a17 17 0 0 1 5.5-9.26h-11.12a16.54 16.54 0 0 1 5.62 9.26z"/><path d="m66.28 222.56h9.83v-5.25h17.23v5.17h28.66v-4.84h144.8v5h-1.49-79.31a98.06 98.06 0 0 0-24.1 2.82c-5.23 1.3-10.33 3.05-15.5 4.57a8.59 8.59 0 0 1-2.34 0.41q-38.15 0-76.31 0h-1.47z"/></g></g></svg>