<svg xmlns="http://www.w3.org/2000/svg" viewBox="0 0 333.1 337.85">
  <defs>
    <style>
      .cls-1 {
        fill: #00408c;
        fill-rule: evenodd;
      }

      .cls-2 {
        fill: #fff;
      }
    </style>
  </defs>
  <g id="Layer_2" data-name="Layer 2">
    <g id="Layer_1-2" data-name="Layer 1">
      <g>
        <g id="Layer_2-2" data-name="Layer 2">
          <g id="Layer_1-2-2" data-name="Layer 1-2">
            <g id="Layer_2-2-2" data-name="Layer 2-2">
              <g id="Layer_1-2-2-2" data-name="Layer 1-2-2">
                <g id="Layer_1-2-2-2-2" data-name="Layer 1-2-2-2">
                  <g id="g8435">
                    <path id="rect9000" class="cls-1" d="M21.73,0H311.29A21.69,21.69,0,0,1,333.1,21.57V316.12a21.73,21.73,0,0,1-21.65,21.73H21.73A21.66,21.66,0,0,1,0,316.24v0H0V21.73A21.67,21.67,0,0,1,21.61,0h.12Z"/>
                    <path id="path9038" class="cls-2" d="M19.71,331.45a15.16,15.16,0,0,1-13-13.16c-.14-1.43-.14-296.84,0-298.26a15.15,15.15,0,0,1,3.47-8A15.49,15.49,0,0,1,18.66,7c.88-.22,6.58-.22,147.51-.26h147.1A15.15,15.15,0,0,1,326.6,20.07c.18,1.44.18,296.84,0,298.26a15.1,15.1,0,0,1-13.21,13.18c-1.28.16-292.46.16-293.71,0ZM314,326.34a10.47,10.47,0,0,0,7.46-7.53l.26-1.08V20.55l-.26-1.09A10.24,10.24,0,0,0,314,12l-1.13-.3H167c-138.58,0-146.48,0-147.43.22a10.15,10.15,0,0,0-5.07,2.69,10.31,10.31,0,0,0-2.77,5c-.2.77-.22,9.48-.24,148.63v149a9.46,9.46,0,0,0,1.1,3.81,10.13,10.13,0,0,0,8,5.58H313Z"/>
                  </g>
                </g>
                <rect class="cls-2" x="54.38" y="56.79" width="224.26" height="224.26"/>
              </g>
            </g>
          </g>
        </g>
        <g>
          <path d="M112.67,123A11.49,11.49,0,0,0,101,110.61c-3.2,0-6.39,0-9.67,0v-3.13h49.5v3.07c-.45,0-.88.06-1.3.06-3,0-6,0-9,0a11.51,11.51,0,0,0-11.36,11.18c0,.39.07.78.11,1.27h1.26c5.52,0,11-.1,16.56,0,3.77.06,6.55,2,8.53,5.16a31.36,31.36,0,0,0,2.95,4.17A170.64,170.64,0,0,0,189,165.91a171.75,171.75,0,0,0,45.08,18.78,166.11,166.11,0,0,0,31.42,5.05c.32,0,.64,0,1,.08a1.52,1.52,0,0,1,.37.16V212H81.8a15,15,0,0,1-15.28-15.27c0-7.88.12-15.76,0-23.64A59.35,59.35,0,0,1,68,159c.55-2.49,1.07-5,1.47-7.52.62-4,2.46-7.49,3.86-11.18,1.76-4.67,3.65-9.29,5.48-13.93a5,5,0,0,1,5-3.31c9.36,0,18.72,0,28.08,0C112.11,123.06,112.3,123,112.67,123Zm-5.32,30.79c9.36,0,18.71,0,28.07,0,4.59,0,6.78-3.18,5.2-7.46l-4.82-13a5,5,0,0,0-5.36-3.73q-22.9,0-45.82,0A5.06,5.06,0,0,0,79.5,133c-1.86,4.59-3.69,9.19-5.41,13.82a6.13,6.13,0,0,0-.24,3.26c.53,2.47,2.54,3.74,5.55,3.74Zm62.81,36.65c0-6.63,0-13,0-19.43a1.64,1.64,0,0,0-.73-1.06,186.83,186.83,0,0,1-18.35-13.69c-.32-.28-.65-.53-1.12-.91-.05.45-.09.67-.09.9,0,8.28,0,16.56,0,24.84a1.23,1.23,0,0,0,.93,1.31c4.33,1.86,8.63,3.76,13,5.59C165.78,188.84,167.88,189.57,170.16,190.43Zm21.16,7.13v-1.35c0-4.2,0-8.4,0-12.59a1.59,1.59,0,0,0-1-1.64c-5-2.66-9.88-5.4-14.81-8.11-.23-.12-.47-.23-.72-.34a1.1,1.1,0,0,0-.11.29c0,5.88,0,11.75,0,17.62,0,.34.5.86.87,1q4.4,1.59,8.83,3C186.65,196.2,188.91,196.83,191.32,197.56Zm4-13.07c0,4.55,0,9.06,0,13.57,0,.27.46.69.78.79,1.41.44,2.84.8,4.28,1.14,2.85.68,5.71,1.32,8.7,2,0-4,0-7.84,0-11.67a1.07,1.07,0,0,0-.55-.76C204.17,187.87,199.82,186.22,195.29,184.49ZM87.73,183.1a7,7,0,0,0-6.91-7,6.94,6.94,0,0,0,0,13.87A6.94,6.94,0,0,0,87.73,183.1Zm46.64,0a7,7,0,0,0-6.87-7,6.94,6.94,0,0,0-.12,13.87A7,7,0,0,0,134.37,183.14Zm78.15,19.57,11,1.89c0-3.51,0-6.81,0-10.11,0-.25-.53-.61-.88-.71-2.63-.77-5.29-1.48-7.93-2.22-.71-.2-1.41-.43-2.2-.68Zm23.84,3.45c0-3.17,0-6.08,0-9,0-.25-.49-.65-.81-.72-2.77-.59-5.55-1.11-8.33-1.65a6.12,6.12,0,0,0-.86,0V203c0,1.89,0,1.93,1.92,2.18C230.88,205.55,233.54,205.83,236.36,206.16Zm11-8.15-8.75-1v9.41l8.75.58Zm9.4.61-7-.41v8.9h7Zm1.84.12v8.41h6.51v-8.41ZM115.94,120a17,17,0,0,1,5.5-9.26H110.32A16.54,16.54,0,0,1,115.94,120Z"/>
          <path d="M66.28,222.56h9.83v-5.25H93.34v5.17H122v-4.84H266.8v5h-1.49c-26.44,0-52.88,0-79.31,0a98.06,98.06,0,0,0-24.1,2.82c-5.23,1.3-10.33,3.05-15.5,4.57a8.59,8.59,0,0,1-2.34.41q-38.15,0-76.31,0H66.28Z"/>
        </g>
      </g>
    </g>
  </g>
</svg>
