<svg viewBox="0 0 333.1 337.85" xmlns="http://www.w3.org/2000/svg"><defs><style>.cls-1 {        fill: #00408c;        fill-rule: evenodd;      }      .cls-2 {        fill: #fff;      }</style></defs><g data-name="Layer 2"><g data-name="Layer 1"><g data-name="Layer 2"><g data-name="Layer 1-2"><g data-name="Layer 2-2"><g data-name="Layer 1-2-2"><g data-name="Layer 1-2-2-2"><path class="cls-1" d="M21.73,0H311.29A21.69,21.69,0,0,1,333.1,21.57V316.12a21.73,21.73,0,0,1-21.65,21.73H21.73A21.66,21.66,0,0,1,0,316.24v0H0V21.73A21.67,21.67,0,0,1,21.61,0h.12Z"/><path class="cls-2" d="M19.71,331.45a15.16,15.16,0,0,1-13-13.16c-.14-1.43-.14-296.84,0-298.26a15.15,15.15,0,0,1,3.47-8A15.49,15.49,0,0,1,18.66,7c.88-.22,6.58-.22,147.51-.26h147.1A15.15,15.15,0,0,1,326.6,20.07c.18,1.44.18,296.84,0,298.26a15.1,15.1,0,0,1-13.21,13.18c-1.28.16-292.46.16-293.71,0ZM314,326.34a10.47,10.47,0,0,0,7.46-7.53l.26-1.08V20.55l-.26-1.09A10.24,10.24,0,0,0,314,12l-1.13-.3H167c-138.58,0-146.48,0-147.43.22a10.15,10.15,0,0,0-5.07,2.69,10.31,10.31,0,0,0-2.77,5c-.2.77-.22,9.48-.24,148.63v149a9.46,9.46,0,0,0,1.1,3.81,10.13,10.13,0,0,0,8,5.58H313Z"/></g><rect class="cls-2" x="54.38" y="56.79" width="224.26" height="224.26"/></g></g></g></g><path d="m200.36 191.3h-82.15c0.47-6.1-1.53-11.22-6.33-15a16 16 0 0 0-11.79-3.41 16.62 16.62 0 0 0-14.79 18.37h-18.69q0.6-5.79 1.21-11.59c0.41-3.85 0.81-7.71 1.23-11.65h197.31v20.51l-33.08 2.4a16.43 16.43 0 0 0-5.39-13.84 15.75 15.75 0 0 0-11.15-4.29c-9.83 0.13-17.29 8.27-16.38 18.5z"/><path d="m266.49 164.66h-174.84v-29h1.26q82.6 0 165.21 0a1.43 1.43 0 0 1 1.66 1.21c2 6.61 4 13.23 6.11 19.79 0.87 2.65 0.41 5.34 0.6 8zm-39.32-5h34.73c-0.1-0.41-0.17-0.75-0.27-1.09-1.66-5.42-3.34-10.83-5-16.26a1.37 1.37 0 0 0-1.59-1.14h-26.74-1.17zm-4 0v-18.4h-28.95v18.4zm-98.69-18.39h-28.97v18.36h28.95zm32.87 0h-28.94v18.36h28.92zm4 0v18.39h28.82v-18.42z"/><path d="m216.81 202.2a12.9 12.9 0 1 1 12.94-12.81 12.81 12.81 0 0 1-12.94 12.81zm-4.81-12.91a4.84 4.84 0 0 0 4.75 4.87 4.93 4.93 0 0 0 4.84-4.82 4.85 4.85 0 0 0-4.79-4.83 4.77 4.77 0 0 0-4.8 4.78z"/><path d="m101.69 202.2a12.9 12.9 0 1 1 12.94-12.63 12.85 12.85 0 0 1-12.94 12.63zm0.06-17.69a4.8 4.8 0 0 0-4.81 4.81 4.87 4.87 0 0 0 4.8 4.84 5 5 0 0 0 4.84-4.84 4.89 4.89 0 0 0-4.83-4.81z"/><path d="m87.9 164.67h-18.06c0.5-9.65 1-19.24 1.51-28.91h16.55zm-14.82-5h11.68v-18.41h-10.85c-0.28 6.11-0.55 12.2-0.83 18.39z"/></g></g></svg>