<svg width="98.856mm" height="29.696mm" version="1.1" viewBox="0 0 98.856 29.696" xmlns="http://www.w3.org/2000/svg"><g transform="translate(-173.41 -147.55)"><path d="m173.46 147.6v29.596h83.932l14.804-14.798-14.804-14.798z" color="#000000" color-rendering="auto" dominant-baseline="auto" fill-rule="evenodd" image-rendering="auto" shape-rendering="auto" solid-color="#000000" stop-color="#000000" style="font-feature-settings:normal;font-variant-alternates:normal;font-variant-caps:normal;font-variant-east-asian:normal;font-variant-ligatures:normal;font-variant-numeric:normal;font-variant-position:normal;font-variation-settings:normal;inline-size:0;isolation:auto;mix-blend-mode:normal;paint-order:stroke fill markers;shape-margin:0;shape-padding:0;text-decoration-color:#000000;text-decoration-line:none;text-decoration-style:solid;text-indent:0;text-orientation:mixed;text-transform:none;white-space:normal"/><path d="m173.71 147.85v29.093h83.577l14.552-14.547-14.552-14.547z" color="#000000" color-rendering="auto" dominant-baseline="auto" fill="#fff" fill-rule="evenodd" image-rendering="auto" shape-rendering="auto" solid-color="#000000" stop-color="#000000" style="font-feature-settings:normal;font-variant-alternates:normal;font-variant-caps:normal;font-variant-east-asian:normal;font-variant-ligatures:normal;font-variant-numeric:normal;font-variant-position:normal;font-variation-settings:normal;inline-size:0;isolation:auto;mix-blend-mode:normal;paint-order:stroke fill markers;shape-margin:0;shape-padding:0;text-decoration-color:#000000;text-decoration-line:none;text-decoration-style:solid;text-indent:0;text-orientation:mixed;text-transform:none;white-space:normal"/><path d="m177.83 148.76c-1.7736 0-3.2014 1.4278-3.2014 3.2014v20.862c0 1.7736 1.4277 3.2014 3.2014 3.2014h79.073l13.63-13.633-13.63-13.632h-2.7616zm0.0512 1.11h76.244l9.325 12.522-9.325 12.523h-76.244c-1.1873 0-2.143-0.95573-2.143-2.143v-20.758c0-1.1873 0.95573-2.143 2.143-2.143z" stroke-width="1.3905"/><path d="m179.48 153.04c-0.32407 0-0.58498 0.26089-0.58498 0.58497v17.553c0 0.32407 0.26091 0.58498 0.58498 0.58498h17.559c0.32408 0 0.58498-0.26091 0.58498-0.58498v-17.553c0-0.32408-0.2609-0.58497-0.58498-0.58497zm3.7946 2.0092h5.3935c2.6467 0 4.7775 2.1308 4.7775 4.7775s-2.1308 4.7775-4.7775 4.7775h-3.3409v5.4141h-2.0526v-14.791zm2.2479 2.0536c-0.0659 0-0.13059 5e-3 -0.19534 0.01v5.4322c0.0648 5e-3 0.12939 0.01 0.19534 0.01h3.1368c1.5102 0 2.7259-1.2158 2.7259-2.7259 0-1.5102-1.2158-2.7259-2.7259-2.7259z" fill="#00408c" stroke-width=".27435"/><path d="m202.98 159.71v2.0743h-2.0743v1.2289h2.0743v2.0743h1.2289v-2.0743h2.0743v-1.2289h-2.0743v-2.0743z" stroke-width=".26458"/><path d="m249.93 162.43c0 1.056-0.29405 1.726-0.79828 2.3784-0.4976 0.64573-1.1644 0.96859-2.0004 0.96859-0.91559 0-1.6321-0.37331-2.1496-1.1199-0.45117-0.64573-0.7103-1.2585-0.7103-2.2069 0-1.0762 0.30243-1.8567 0.80666-2.4756 0.50424-0.62555 1.1942-0.93832 2.07-0.93832 0.82271 0 1.4862 0.3195 1.9904 0.9585 0.51087 0.63227 0.79148 1.3993 0.79148 2.4352zm-1.2095 0.0201c0-0.71298-0.21676-1.2482-0.49541-1.6517-0.27203-0.40358-0.68525-0.55585-1.0949-0.55805-0.43033-2e-3 -0.87116 0.17028-1.1565 0.57386-0.28529 0.40358-0.4798 0.92295-0.4798 1.6359 0 0.71972 0.16099 1.1357 0.44629 1.546 0.28529 0.40358 0.76267 0.56364 1.2078 0.57006 0.4708 7e-3 0.96974-0.28283 1.2351-0.7873 0.21231-0.39685 0.3373-0.69646 0.3373-1.3287z"/><path d="m227.1 165.74-4.8207 5e-3v-6.6985l4.8206-8e-3v1.1997l-3.6009 8e-3 -0.0176 1.4704 2.2808 4e-3v1.2197l-2.2808-4e-3 0.0176 1.6089 3.601-5e-3z"/><path d="m233.91 160.24h-1.9513v5.5205h-1.2158v-5.5205l-1.9416-4e-5v-1.2061h5.1086z"/><path d="m218.59 165.78h-1.208l-2e-3 -4.6495-2.2908 3.7409-2.2875-3.7345-5e-3 4.6432h-1.2127v-6.7407l1.3461-0.0104 2.1606 3.5125 2.1549-3.5122 1.3451 0.0102z"/><path d="m236.39 159.03v6.7328h1.2112v-2.8223h1.1673l1.5907 2.8223h1.412l-1.6094-2.8551c0.91456-0.16446 1.6049-0.95913 1.6049-1.9224 0-1.0832-0.87209-1.9552-1.9552-1.9552h-2.2103zm1.2112 1.2199h2.219c0.40921 0 0.73862 0.32945 0.73862 0.73867s-0.32941 0.73867-0.73862 0.73867h-2.219z"/></g></svg>