<?xml version="1.0" encoding="UTF-8" standalone="no"?>
<svg
   xmlns:dc="http://purl.org/dc/elements/1.1/"
   xmlns:cc="http://creativecommons.org/ns#"
   xmlns:rdf="http://www.w3.org/1999/02/22-rdf-syntax-ns#"
   xmlns:svg="http://www.w3.org/2000/svg"
   xmlns="http://www.w3.org/2000/svg"
   xmlns:sodipodi="http://sodipodi.sourceforge.net/DTD/sodipodi-0.dtd"
   xmlns:inkscape="http://www.inkscape.org/namespaces/inkscape"
   sodipodi:docname="Turkey_road_sign_B-5c.svg"
   inkscape:version="1.0 (4035a4fb49, 2020-05-01)"
   id="svg41547"
   version="1.1"
   viewBox="0 0 98.856311 29.695609"
   height="29.69561mm"
   width="98.856308mm">
  <defs
     id="defs41541" />
  <sodipodi:namedview
     inkscape:window-maximized="1"
     inkscape:window-y="-9"
     inkscape:window-x="-9"
     inkscape:window-height="1001"
     inkscape:window-width="1920"
     showgrid="false"
     inkscape:document-rotation="0"
     inkscape:current-layer="g59921"
     inkscape:document-units="mm"
     inkscape:cy="-19.419688"
     inkscape:cx="200.19623"
     inkscape:zoom="1.5758575"
     inkscape:pageshadow="2"
     inkscape:pageopacity="0.0"
     borderopacity="1.0"
     bordercolor="#666666"
     pagecolor="#ffffff"
     id="base" />
  <metadata
     id="metadata41544">
    <rdf:RDF>
      <cc:Work
         rdf:about="">
        <dc:format>image/svg+xml</dc:format>
        <dc:type
           rdf:resource="http://purl.org/dc/dcmitype/StillImage" />
        <dc:title></dc:title>
      </cc:Work>
    </rdf:RDF>
  </metadata>
  <g
     transform="translate(-173.41018,-147.5536)"
     id="layer1"
     inkscape:groupmode="layer"
     inkscape:label="Layer 1">
    <g
       id="g59921"
       style="opacity:1">
      <path
         style="color:#000000;font-style:normal;font-variant:normal;font-weight:normal;font-stretch:normal;font-size:medium;line-height:normal;font-family:sans-serif;font-variant-ligatures:normal;font-variant-position:normal;font-variant-caps:normal;font-variant-numeric:normal;font-variant-alternates:normal;font-variant-east-asian:normal;font-feature-settings:normal;font-variation-settings:normal;text-indent:0;text-align:start;text-decoration:none;text-decoration-line:none;text-decoration-style:solid;text-decoration-color:#000000;letter-spacing:normal;word-spacing:normal;text-transform:none;writing-mode:lr-tb;direction:ltr;text-orientation:mixed;dominant-baseline:auto;baseline-shift:baseline;text-anchor:start;white-space:normal;shape-padding:0;shape-margin:0;inline-size:0;clip-rule:nonzero;display:inline;overflow:visible;visibility:visible;opacity:1;isolation:auto;mix-blend-mode:normal;color-interpolation:sRGB;color-interpolation-filters:linearRGB;solid-color:#000000;solid-opacity:1;vector-effect:none;fill:#000000;fill-opacity:1;fill-rule:evenodd;stroke:none;stroke-width:0.1;stroke-linecap:butt;stroke-linejoin:miter;stroke-miterlimit:4;stroke-dasharray:none;stroke-dashoffset:0;stroke-opacity:1;paint-order:stroke fill markers;color-rendering:auto;image-rendering:auto;shape-rendering:auto;text-rendering:auto;enable-background:accumulate;stop-color:#000000;stop-opacity:1"
         d="m 173.46018,147.6036 v 0.25115 29.34446 h 83.93183 l 14.80375,-14.79806 -14.80375,-14.79755 z"
         id="path50615"
         sodipodi:nodetypes="ccccccc" />
      <path
         style="color:#000000;font-style:normal;font-variant:normal;font-weight:normal;font-stretch:normal;font-size:medium;line-height:normal;font-family:sans-serif;font-variant-ligatures:normal;font-variant-position:normal;font-variant-caps:normal;font-variant-numeric:normal;font-variant-alternates:normal;font-variant-east-asian:normal;font-feature-settings:normal;font-variation-settings:normal;text-indent:0;text-align:start;text-decoration:none;text-decoration-line:none;text-decoration-style:solid;text-decoration-color:#000000;letter-spacing:normal;word-spacing:normal;text-transform:none;writing-mode:lr-tb;direction:ltr;text-orientation:mixed;dominant-baseline:auto;baseline-shift:baseline;text-anchor:start;white-space:normal;shape-padding:0;shape-margin:0;inline-size:0;clip-rule:nonzero;display:inline;overflow:visible;visibility:visible;opacity:1;isolation:auto;mix-blend-mode:normal;color-interpolation:sRGB;color-interpolation-filters:linearRGB;solid-color:#000000;solid-opacity:1;vector-effect:none;fill:#ffffff;fill-opacity:1;fill-rule:evenodd;stroke:none;stroke-width:0.502708;stroke-linecap:butt;stroke-linejoin:miter;stroke-miterlimit:4;stroke-dasharray:none;stroke-dashoffset:0;stroke-opacity:1;paint-order:stroke fill markers;color-rendering:auto;image-rendering:auto;shape-rendering:auto;text-rendering:auto;enable-background:accumulate;stop-color:#000000;stop-opacity:1"
         d="m 173.71133,147.85475 v 29.09331 h 83.57681 l 14.55205,-14.54666 -14.55205,-14.54665 z"
         id="path50617" />
      <path
         id="rect17213"
         style="opacity:1;fill:#000000;stroke-width:1.39053"
         d="m 177.83304,148.76374 c -1.77361,0 -3.20135,1.42775 -3.20135,3.20136 v 20.86229 c 0,1.77361 1.42774,3.20136 3.20135,3.20136 h 76.31162 2.76159 l 13.62955,-13.63336 -13.62955,-13.63165 h -2.76159 z m 0.0512,1.11001 h 76.24393 l 9.32504,12.52164 -9.32504,12.52283 h -76.24393 c -1.18729,0 -2.14302,-0.95573 -2.14302,-2.14302 v -20.75843 c 0,-1.18729 0.95573,-2.14302 2.14302,-2.14302 z"
         sodipodi:nodetypes="sssccccccsscccssss" />
      <path
         id="rect17262"
         style="opacity:1;fill:#00408c;fill-opacity:1;stroke-width:0.274354"
         d="m 179.481,153.04152 c -0.32407,0 -0.58498,0.26089 -0.58498,0.58497 v 17.55294 c 0,0.32407 0.26091,0.58498 0.58498,0.58498 h 17.55862 c 0.32408,0 0.58498,-0.26091 0.58498,-0.58498 v -17.55294 c 0,-0.32408 -0.2609,-0.58497 -0.58498,-0.58497 z m 3.7946,2.00918 h 1.28416 0.76843 3.34088 c 2.64672,0 4.77749,2.13076 4.77749,4.77748 0,2.64672 -2.13077,4.77749 -4.77749,4.77749 h -3.34088 v 5.41414 h -2.05259 v -5.59242 -9.19841 z m 2.24793,2.05362 c -0.0659,0 -0.13059,0.005 -0.19534,0.01 v 5.43222 c 0.0648,0.005 0.12939,0.01 0.19534,0.01 h 3.13676 c 1.51017,0 2.72593,-1.21576 2.72593,-2.72593 0,-1.51018 -1.21576,-2.72593 -2.72593,-2.72593 z" />
      <path
         id="rect17267"
         style="opacity:1;fill:#000000;stroke-width:0.264583"
         d="m 202.98499,159.70778 v 2.07429 h -2.07429 v 1.22886 h 2.07429 v 2.0743 h 1.22887 v -2.0743 h 2.07429 v -1.22886 h -2.07429 v -2.07429 z" />
      <path
         d="m 249.92654,162.42728 c 0,1.05603 -0.29405,1.72595 -0.79828,2.3784 -0.4976,0.64573 -1.1644,0.96859 -2.00037,0.96859 -0.91559,0 -1.63213,-0.37331 -2.14963,-1.11993 -0.45117,-0.64573 -0.7103,-1.25847 -0.7103,-2.20688 0,-1.07621 0.30243,-1.85673 0.80666,-2.47555 0.50424,-0.62555 1.19425,-0.93832 2.07003,-0.93832 0.82271,0 1.48617,0.3195 1.99041,0.9585 0.51087,0.63227 0.79148,1.39934 0.79148,2.43519 z m -1.20946,0.0201 c 0,-0.71298 -0.21676,-1.24816 -0.49541,-1.65174 -0.27203,-0.40358 -0.68525,-0.55585 -1.09487,-0.55805 -0.43033,-0.002 -0.87116,0.17028 -1.15646,0.57386 -0.28529,0.40358 -0.4798,0.92295 -0.4798,1.63593 0,0.71972 0.16099,1.13568 0.44629,1.54598 0.28529,0.40358 0.76267,0.56364 1.20782,0.57006 0.4708,0.007 0.96974,-0.28283 1.23513,-0.7873 0.21231,-0.39685 0.3373,-0.69646 0.3373,-1.32874 z"
         style="font-style:normal;font-variant:normal;font-weight:normal;font-stretch:normal;font-size:122.83px;line-height:1.15;font-family:'Highway Gothic Wide';-inkscape-font-specification:'Highway Gothic Wide';text-align:center;letter-spacing:3.26px;text-anchor:middle;opacity:1;fill:#000000;fill-opacity:1;stroke:none;stroke-width:0.0739627;stroke-opacity:1"
         id="path82564-1"
         sodipodi:nodetypes="scscscscsscasscscs" />
      <path
         sodipodi:nodetypes="ccccccccccccc"
         id="path49967"
         style="font-style:normal;font-variant:normal;font-weight:normal;font-stretch:normal;font-size:30px;line-height:1.15;font-family:'Highway Gothic Wide';-inkscape-font-specification:'Highway Gothic Wide';opacity:1;fill:#000000;fill-opacity:1;stroke:none;stroke-width:0.0737952;stroke-opacity:1"
         d="m 227.0974,165.73516 -4.82069,0.005 v -6.6985 l 4.82065,-0.008 v 1.19973 l -3.60092,0.008 -0.0176,1.47038 2.2808,0.004 v 1.21972 l -2.2808,-0.004 0.0176,1.60892 3.60096,-0.005 z" />
      <path
         d="m 233.90879,160.23969 h -1.95131 v 5.5205 h -1.21577 v -5.52046 l -1.94156,-4e-5 v -1.2061 h 5.10864 z"
         style="font-style:normal;font-variant:normal;font-weight:normal;font-stretch:normal;font-size:30px;line-height:1.15;font-family:'Highway Gothic Wide';-inkscape-font-specification:'Highway Gothic Wide';opacity:1;fill:#000000;fill-opacity:1;stroke:none;stroke-width:0.0754436;stroke-opacity:1"
         id="path18075"
         sodipodi:nodetypes="ccccccccc" />
      <path
         d="m 218.58556,165.78472 h -1.20802 l -0.002,-4.64951 -2.29079,3.74088 -2.28749,-3.73452 -0.005,4.64319 h -1.21269 v -6.74072 l 1.34614,-0.0104 2.16056,3.51247 2.15494,-3.51225 1.34509,0.0102 z"
         style="font-style:normal;font-variant:normal;font-weight:normal;font-stretch:normal;font-size:30px;line-height:1.15;font-family:'Highway Gothic Wide';-inkscape-font-specification:'Highway Gothic Wide';opacity:1;fill:#000000;fill-opacity:1;stroke:none;stroke-width:0.0487788;stroke-opacity:1"
         id="path119057"
         sodipodi:nodetypes="ccccccccccccc" />
      <path
         d="m 236.38973,159.03359 v 3.91047 2.82232 h 1.21115 v -2.82232 h 1.16727 l 1.59068,2.82232 h 1.21115 0.2009 l -1.60935,-2.85511 c 0.91456,-0.16446 1.60488,-0.95913 1.60488,-1.92245 0,-1.08319 -0.87209,-1.95523 -1.95525,-1.95523 h -2.21028 z m 1.21115,1.21987 h 2.21901 c 0.40921,0 0.73862,0.32945 0.73862,0.73867 0,0.40922 -0.32941,0.73867 -0.73862,0.73867 h -2.21901 z"
         style="opacity:1;fill:#000000;fill-opacity:1;stroke:none;stroke-width:0.153989;stroke-opacity:1"
         id="rect55716" />
    </g>
  </g>
</svg>
