<svg xmlns="http://www.w3.org/2000/svg" viewBox="0 0 333.1 337.85">
  <defs>
    <style>
      .cls-1 {
        fill: #00408c;
        fill-rule: evenodd;
      }

      .cls-2 {
        fill: #fff;
      }
    </style>
  </defs>
  <g id="Layer_2" data-name="Layer 2">
    <g id="Layer_1-2" data-name="Layer 1">
      <g id="Layer_2-2" data-name="Layer 2">
        <g id="Layer_1-2-2" data-name="Layer 1-2">
          <g id="Layer_2-2-2" data-name="Layer 2-2">
            <g id="Layer_1-2-2-2" data-name="Layer 1-2-2">
              <g id="Layer_1-2-2-2-2" data-name="Layer 1-2-2-2">
                <g id="g8435">
                  <path id="rect9000" class="cls-1" d="M21.73,0H311.29A21.69,21.69,0,0,1,333.1,21.57V316.12a21.73,21.73,0,0,1-21.65,21.73H21.73A21.66,21.66,0,0,1,0,316.24v0H0V21.73A21.67,21.67,0,0,1,21.61,0h.12Z"/>
                  <path id="path9038" class="cls-2" d="M19.71,331.45a15.16,15.16,0,0,1-13-13.16c-.14-1.43-.14-296.84,0-298.26a15.15,15.15,0,0,1,3.47-8A15.49,15.49,0,0,1,18.66,7c.88-.22,6.58-.22,147.51-.26h147.1A15.15,15.15,0,0,1,326.6,20.07c.18,1.44.18,296.84,0,298.26a15.1,15.1,0,0,1-13.21,13.18c-1.28.16-292.46.16-293.71,0ZM314,326.34a10.47,10.47,0,0,0,7.46-7.53l.26-1.08V20.55l-.26-1.09A10.24,10.24,0,0,0,314,12l-1.13-.3H167c-138.58,0-146.48,0-147.43.22a10.15,10.15,0,0,0-5.07,2.69,10.31,10.31,0,0,0-2.77,5c-.2.77-.22,9.48-.24,148.63v149a9.46,9.46,0,0,0,1.1,3.81,10.13,10.13,0,0,0,8,5.58H313Z"/>
                </g>
              </g>
              <rect class="cls-2" x="54.38" y="56.79" width="224.26" height="224.26"/>
            </g>
          </g>
        </g>
      </g>
      <g>
        <path class="cls-2" d="M268.08,119.28H249.43v86.46l-61.34-24.9v24.91l-61.64-24.9v24.91L65,180.89v74H268.08Zm-88.57-14a2.37,2.37,0,0,0,.31-.13c.26-.19.51-.38.76-.59a48.4,48.4,0,0,1,24.68-11.08,47.28,47.28,0,0,1,23.14,2.24A48.8,48.8,0,0,1,249,109.53a1.47,1.47,0,0,0,1.95.43c2.33-.94,4.71-1.77,7.06-2.65.39-.14.77-.31,1.18-.48-23-31.1-65-29.66-86.55-7.76Zm-91.92,7.63c25.58,23.55,64.58,20.47,86-1.38l-6.14-5.48C157,115.24,145,120.18,131.15,120.44s-26-4.21-36.7-12.9Z"/>
        <path d="M268.08,119.28V254.85H65v-74l61.44,24.87V180.85l61.64,24.9V180.84l61.34,24.9V119.28Z"/>
        <path d="M179.51,105.28l-6.91-6.21c21.54-21.9,63.51-23.34,86.55,7.76-.41.17-.79.34-1.18.48-2.35.88-4.73,1.71-7.06,2.65a1.47,1.47,0,0,1-1.95-.43A48.8,48.8,0,0,0,228.4,95.72a47.28,47.28,0,0,0-23.14-2.24,48.4,48.4,0,0,0-24.68,11.08c-.25.21-.5.4-.76.59A2.37,2.37,0,0,1,179.51,105.28Z"/>
        <path d="M87.59,112.91l6.86-5.37c10.68,8.69,22.9,13.17,36.7,12.9s25.86-5.2,36.29-14.39l6.14,5.48C152.17,133.38,113.17,136.46,87.59,112.91Z"/>
      </g>
    </g>
  </g>
</svg>
