<svg viewBox="0 0 333.1 337.85" xmlns="http://www.w3.org/2000/svg"><defs><style>.cls-1 {        fill: #00408c;        fill-rule: evenodd;      }      .cls-2 {        fill: #fff;      }</style></defs><g data-name="Layer 2"><g data-name="Layer 1"><g data-name="Layer 2"><g data-name="Layer 1-2"><g data-name="Layer 2-2"><g data-name="Layer 1-2-2"><g data-name="Layer 1-2-2-2"><path class="cls-1" d="M21.73,0H311.29A21.69,21.69,0,0,1,333.1,21.57V316.12a21.73,21.73,0,0,1-21.65,21.73H21.73A21.66,21.66,0,0,1,0,316.24v0H0V21.73A21.67,21.67,0,0,1,21.61,0h.12Z"/><path class="cls-2" d="M19.71,331.45a15.16,15.16,0,0,1-13-13.16c-.14-1.43-.14-296.84,0-298.26a15.15,15.15,0,0,1,3.47-8A15.49,15.49,0,0,1,18.66,7c.88-.22,6.58-.22,147.51-.26h147.1A15.15,15.15,0,0,1,326.6,20.07c.18,1.44.18,296.84,0,298.26a15.1,15.1,0,0,1-13.21,13.18c-1.28.16-292.46.16-293.71,0ZM314,326.34a10.47,10.47,0,0,0,7.46-7.53l.26-1.08V20.55l-.26-1.09A10.24,10.24,0,0,0,314,12l-1.13-.3H167c-138.58,0-146.48,0-147.43.22a10.15,10.15,0,0,0-5.07,2.69,10.31,10.31,0,0,0-2.77,5c-.2.77-.22,9.48-.24,148.63v149a9.46,9.46,0,0,0,1.1,3.81,10.13,10.13,0,0,0,8,5.58H313Z"/></g><rect class="cls-2" x="54.38" y="56.79" width="224.26" height="224.26"/></g></g></g></g><path d="m189.79 168.79q0 30.3 0 60.6c0 7.23-3.28 12.64-9.59 16.13a16.23 16.23 0 0 1-7.94 2h-87.73a18 18 0 0 1-17.88-17.27v-1.08-120.47a18 18 0 0 1 15.42-18.24 13.19 13.19 0 0 1 2.27-0.13q43.86 0 87.72 0a18 18 0 0 1 17.44 14.67 19.53 19.53 0 0 1 0.29 3.33q0 30.24 0 60.48zm-105.92 29.51a32 32 0 1 0 32.23-31.89 31.89 31.89 0 0 0-32.23 31.89zm90.84-77a19.67 19.67 0 1 0-19.65 19.6 19.71 19.71 0 0 0 19.65-19.61z"/><path d="M266.47,198.36H239.58v24.87H199V213.17h33.2V134h7.29v15.29h27Z"/><path d="m206.66 205.76h-7.61v-89.88h7.61z"/><path d="m223.3 205.42h-7.54v-83h7.54z"/><path d="m115.9 176.18a22.21 22.21 0 1 1-22.31 22.18 22.33 22.33 0 0 1 22.31-22.18z"/><path d="M155,131a9.63,9.63,0,0,1-9.84-9.78A9.87,9.87,0,1,1,155,131Z"/></g></g></svg>