<svg width="530.38" height="190.29" version="1.1" viewBox="0 0 530.38 190.29" xmlns="http://www.w3.org/2000/svg"><defs><style>.cls-1 {        fill: #00408c;        fill-rule: evenodd;      }      .cls-2 {        fill: #fff;      }</style></defs><path d="m0.098336 0.098336v190.09h530.18v-190.09z" fill="#00408c" fill-rule="evenodd" style="paint-order:fill markers stroke"/><path d="m12.245 4.7753c-4.1453 0-7.5225 3.3778-7.5225 7.5231v165.56c0 4.1454 3.3773 7.5236 7.5225 7.5236h505.77c4.1457 0 7.5226-3.3782 7.5226-7.5236v-165.56c0-4.1454-3.3769-7.5231-7.5226-7.5231zm0 2.5642h505.77c2.7696 0 4.9589 2.1896 4.9589 4.9589v165.56c0 2.7695-2.1893 4.9591-4.9589 4.9591h-505.77c-2.7689 0-4.9582-2.1896-4.9582-4.9591v-165.56c0-2.7693 2.1892-4.9589 4.9582-4.9589z" color="#000000" color-rendering="auto" dominant-baseline="auto" enable-background="accumulate" fill="#fff" fill-rule="evenodd" image-rendering="auto" shape-rendering="auto" solid-color="#000000" stop-color="#000000" style="font-feature-settings:normal;font-variant-alternates:normal;font-variant-caps:normal;font-variant-east-asian:normal;font-variant-ligatures:normal;font-variant-numeric:normal;font-variant-position:normal;font-variation-settings:normal;inline-size:0;isolation:auto;mix-blend-mode:normal;paint-order:fill markers stroke;shape-margin:0;shape-padding:0;text-decoration-color:#000000;text-decoration-line:none;text-decoration-style:solid;text-indent:0;text-orientation:mixed;text-transform:none;white-space:normal"/><rect x="425.35" y="50.251" width="89.753" height="89.712" fill="#fff"/><path d="m467.35 62.43c-4.0927 0-7.3889 3.2938-7.3889 7.3865v50.581c0 4.0927 3.2962 7.3865 7.3889 7.3865h36.36c4.0927 0 7.3865-3.2938 7.3865-7.3865v-50.581c2e-5 -4.0927-3.2938-7.3865-7.3865-7.3865zm6.9446 4.4284h3e-3c0.0176-5e-5 0.0352-5e-5 0.0547 0 4.6218-4.1e-4 8.3687 3.7465 8.3684 8.3685-1e-3 4.6209-3.7475 8.3662-8.3684 8.3659-4.621 3.4e-4 -8.3675-3.745-8.3685-8.3659-4.8e-4 -4.6 3.7121-8.3378 8.3119-8.3685zm0.012 4.3893c-2.1803 0.0241-3.9348 1.7987-3.935 3.9792 2.9e-4 2.1976 1.7816 3.9789 3.9792 3.9791 2.1976-2.2e-4 3.979-1.7816 3.9792-3.9791-2.1e-4 -2.1977-1.7815-3.979-3.9792-3.9792-0.0139-8e-5 -0.0292-8e-5 -0.0443 0zm-20.969 1.841v37.301h3.0637v-37.301zm-6.4365 2.7101v34.443h3.012v-34.443zm-6.2843 4.8286v6.4365h-11.26v20.254h11.26v10.357h15.784v-4.021h-12.922v-33.027zm50.056 13.268c0.0252-5e-5 0.0508-5e-5 0.0768 0 7.456-7.7e-4 13.501 6.0429 13.501 13.499-5.7e-4 7.4561-6.0454 13.5-13.501 13.499-7.455-5e-4 -13.498-6.0438-13.499-13.499 4.1e-4 -7.4253 5.9976-13.456 13.423-13.499zm-0.12734 4.2615c-5.0294 0.1004-9.0538 4.207-9.0533 9.2374 4.9e-4 5.1016 4.136 9.2369 9.2373 9.2374 5.1025 8.4e-4 9.2394-4.1349 9.2399-9.2374-4.8e-4 -5.1023-4.1374-9.2381-9.2399-9.2374-0.0616-5.7e-4 -0.122-5.7e-4 -0.18404 0z" style="paint-order:stroke fill markers"/><rect transform="scale(-1,1)" x="-104.93" y="50.251" width="89.753" height="89.712" fill="#fff"/><path d="m62.932 62.43c4.0927 0 7.3889 3.2938 7.3889 7.3865v50.581c0 4.0927-3.2962 7.3865-7.3889 7.3865h-36.36c-4.0927 0-7.3865-3.2938-7.3865-7.3865v-50.581c-1.3e-5 -4.0927 3.2938-7.3865 7.3865-7.3865zm-6.9447 4.4284h-0.0027c-0.0176-5e-5 -0.0352-5e-5 -0.05467 0-4.6219-4.1e-4 -8.3687 3.7465-8.3684 8.3685 1e-3 4.6209 3.7475 8.3662 8.3684 8.3659 4.621 3.4e-4 8.3675-3.745 8.3685-8.3659 4.8e-4 -4.6-3.7121-8.3378-8.3119-8.3685zm-0.012 4.3893c2.1803 0.0241 3.9348 1.7987 3.935 3.9792-2.93e-4 2.1976-1.7817 3.9789-3.9792 3.9791-2.1976-2.2e-4 -3.979-1.7816-3.9792-3.9791 2.14e-4 -2.1977 1.7815-3.979 3.9792-3.9792 0.01387-8e-5 0.0292-8e-5 0.04427 0zm20.969 1.841v37.301h-3.0637v-37.301zm6.4365 2.7101v34.443h-3.0121v-34.443zm6.2843 4.8286v6.4365h11.26v20.254h-11.26v10.357h-15.784v-4.021h12.922v-33.027zm-50.056 13.268c-0.0252-5e-5 -0.0508-5e-5 -0.0768 0-7.456-7.7e-4 -13.501 6.0429-13.501 13.499 5.73e-4 7.4561 6.0454 13.5 13.501 13.499 7.455-5e-4 13.498-6.0438 13.499-13.499-4.14e-4 -7.4253-5.9976-13.456-13.423-13.499zm0.12733 4.2615c5.0294 0.1004 9.0538 4.207 9.0533 9.2374-4.94e-4 5.1016-4.136 9.2369-9.2373 9.2374-5.1025 8.4e-4 -9.2394-4.1349-9.2399-9.2374 4.8e-4 -5.1023 4.1373-9.2381 9.2399-9.2374 0.0616-5.7e-4 0.122-5.7e-4 0.18404 0z" style="paint-order:stroke fill markers"/><g transform="matrix(1.0126 0 0 1.0126 114.2 -137.85)"><g transform="matrix(1.9572 0 0 1.9572 -316.07 -325.56)"><path d="m297.68 245.47a16.942 16.942 0 0 0-16.942 16.942 16.942 16.942 0 0 0 16.942 16.942 16.942 16.942 0 0 0 16.942-16.942 16.942 16.942 0 0 0-16.942-16.942z" fill="#fff" style="paint-order:stroke fill markers"/><path d="m297.48 245.89a16.524 16.524 0 0 0-16.323 16.523 16.524 16.524 0 0 0 16.523 16.523 16.524 16.524 0 0 0 16.523-16.523 16.524 16.524 0 0 0-16.523-16.523 16.524 16.524 0 0 0-0.20068 0zm0.20068 4.1162a12.406 12.406 0 0 1 12.406 12.407 12.406 12.406 0 0 1-12.406 12.406 12.406 12.406 0 0 1-12.406-12.406 12.406 12.406 0 0 1 12.406-12.407z" fill="#ef0311" style="paint-order:stroke fill markers"/></g></g><g transform="matrix(1.0126 0 0 1.0126 34.644 -137.85)"><g transform="matrix(1.9572 0 0 1.9572 -316.07 -325.56)"><path d="m297.68 245.47a16.942 16.942 0 0 0-16.942 16.942 16.942 16.942 0 0 0 16.942 16.942 16.942 16.942 0 0 0 16.942-16.942 16.942 16.942 0 0 0-16.942-16.942z" fill="#fff" style="paint-order:stroke fill markers"/><path d="m297.48 245.89a16.524 16.524 0 0 0-16.323 16.523 16.524 16.524 0 0 0 16.523 16.523 16.524 16.524 0 0 0 16.523-16.523 16.524 16.524 0 0 0-16.523-16.523 16.524 16.524 0 0 0-0.20068 0zm0.20068 4.1162a12.406 12.406 0 0 1 12.406 12.407 12.406 12.406 0 0 1-12.406 12.406 12.406 12.406 0 0 1-12.406-12.406 12.406 12.406 0 0 1 12.406-12.407z" fill="#ef0311" style="paint-order:stroke fill markers"/></g></g><g transform="matrix(1.0126 0 0 1.0126 -44.356 -137.85)"><g transform="matrix(1.9572 0 0 1.9572 -316.07 -325.56)"><path d="m297.68 245.47a16.942 16.942 0 0 0-16.942 16.942 16.942 16.942 0 0 0 16.942 16.942 16.942 16.942 0 0 0 16.942-16.942 16.942 16.942 0 0 0-16.942-16.942z" fill="#fff" style="paint-order:stroke fill markers"/><path d="m297.48 245.89a16.524 16.524 0 0 0-16.323 16.523 16.524 16.524 0 0 0 16.523 16.523 16.524 16.524 0 0 0 16.523-16.523 16.524 16.524 0 0 0-16.523-16.523 16.524 16.524 0 0 0-0.20068 0zm0.20068 4.1162a12.406 12.406 0 0 1 12.406 12.407 12.406 12.406 0 0 1-12.406 12.406 12.406 12.406 0 0 1-12.406-12.406 12.406 12.406 0 0 1 12.406-12.407z" fill="#ef0311" style="paint-order:stroke fill markers"/></g></g><g transform="matrix(1.0126 0 0 1.0126 -124.26 -137.85)"><g transform="matrix(1.9572 0 0 1.9572 -316.07 -325.56)"><path d="m297.68 245.47a16.942 16.942 0 0 0-16.942 16.942 16.942 16.942 0 0 0 16.942 16.942 16.942 16.942 0 0 0 16.942-16.942 16.942 16.942 0 0 0-16.942-16.942z" fill="#fff" style="paint-order:stroke fill markers"/><path d="m297.48 245.89a16.524 16.524 0 0 0-16.323 16.523 16.524 16.524 0 0 0 16.523 16.523 16.524 16.524 0 0 0 16.523-16.523 16.524 16.524 0 0 0-16.523-16.523 16.524 16.524 0 0 0-0.20068 0zm0.20068 4.1162a12.406 12.406 0 0 1 12.406 12.407 12.406 12.406 0 0 1-12.406 12.406 12.406 12.406 0 0 1-12.406-12.406 12.406 12.406 0 0 1 12.406-12.407z" fill="#ef0311" style="paint-order:stroke fill markers"/></g></g><g transform="matrix(1.3333 0 0 -1.3333 -142.92 856.8)" fill="#fff"><g><path d="m385.19 533.5v-14.93h32.023v14.93zm-9.2832-5.0407-2.6888-6.7898v-7.6267h1.6245s-0.0183 0.49432 0.16064 1.1256c0.14988 0.5311 0.44995 1.1539 0.90639 1.7072 0.38074 0.46159 0.95979 0.84072 1.5571 1.1068 0.61588 0.27437 1.1193 0.40861 1.7052 0.43191 0.42769 0.0169 0.86697-0.0601 1.2658-0.21545 0.80154-0.31236 1.6356-0.72492 2.1664-1.4029 0.42258-0.53983 0.70115-1.1751 0.8376-1.7127 0.147-0.57861 0.13515-1.0405 0.13515-1.0405h19.663s0.0131 0.23215 0.0609 0.57895c0.0493 0.34838 0.15604 0.75981 0.26273 1.019 0.11359 0.2764 0.32496 0.66863 0.55207 0.97852 0.14679 0.20029 0.29705 0.36869 0.40026 0.47751 0.0796 0.0841 0.13102 0.1324 0.13103 0.1324h-20.78v11.23zm0.40912-1.8563h6.1955v-4.3225h-7.9058zm2.8978-9.259c-1.8155 0-3.3018-1.4893-3.3018-3.297 0-1.8077 1.4863-3.2977 3.3018-3.2977 1.8154 1e-5 3.3024 1.49 3.3024 3.2977 0 1.8077-1.487 3.297-3.3024 3.297zm28.39 0c-1.8155 0-3.3018-1.4893-3.3018-3.297 0-1.8077 1.4863-3.2977 3.3018-3.2977 1.8155 1e-5 3.3028 1.49 3.3028 3.2977 0 1.8077-1.4873 3.297-3.3028 3.297zm2.9818-0.11462s0.27163-0.25545 0.53164-0.61026c0.22717-0.30986 0.43815-0.70244 0.55171-0.97886 0.10646-0.2592 0.21445-0.66926 0.26377-1.0177 0.0499-0.34679 0.0396-0.63236 0.0396-0.63236l5.2404 1.7052v1.534zm-31.372-1.715c0.81567-1e-5 1.4625-0.64318 1.4625-1.4673 0-0.82405-0.64682-1.4683-1.4625-1.4683-0.81569 0-1.4618 0.64422-1.4618 1.4683 0 0.82409 0.64614 1.4673 1.4618 1.4673zm28.39 0c0.81569-1e-5 1.4625-0.64318 1.4625-1.4673 0-0.82405-0.64681-1.4683-1.4625-1.4683-0.81571 0-1.4618 0.64422-1.4618 1.4683 0 0.82409 0.6461 1.4673 1.4618 1.4673z" fill-rule="evenodd"/><path d="m272.11 551.66c-0.33766 0-1.09-0.2199-1.5684-0.58399-0.32445-0.24687-0.63081-0.56622-0.95781-0.91589-1.4782-1.5808-5.3845-5.6886-5.3845-5.6886s-0.39106-0.43509-0.65762-0.51885c-0.44265-0.13906-1.2953-0.3019-1.744-0.39594-1.5037-0.31505-2.4157-0.49785-4.5082-0.9278-0.3498-0.0719-0.87621-0.14455-1.2156-0.40385-0.29162-0.22285-0.39704-0.40841-0.60947-0.91706-0.30585-0.73235-0.77543-1.7378-0.77543-1.7378v-3.3584c1e-5 -0.4338 0.349-0.7828 0.78281-0.7828h1.2393v0.0294c0 2.5545 2.0568 4.6107 4.6113 4.6107 2.5545 0 4.6107-2.0562 4.6107-4.6107v-0.0294h20.566v0.0294c0 2.5545 2.0562 4.6107 4.6107 4.6107 2.5545 0 4.6113-2.0562 4.6113-4.6107v-0.0294h2.0844c0.43381 0 0.78336 0.349 0.78336 0.7828v13.948c0 0.83074-0.66914 1.4999-1.4999 1.4999zm-0.0295-1.4302h4.4176c0.40041 0 0.72275-0.32236 0.72275-0.72276v-6.3372c0-0.4004-0.32234-0.72276-0.72275-0.72276h-8.9529c-1.4751 0-1.8924 1.6357-1.0785 2.498l3.6619 3.8794c0.57706 0.61127 1.1113 1.4053 1.9519 1.4053zm7.1959-4.1e-4h7.1641c0.4004 0 0.72276-0.32234 0.72276-0.72275v-6.3366c0-0.40041-0.32236-0.72275-0.72276-0.72275h-7.1641c-0.40043 0-0.72277 0.32234-0.72277 0.72275v6.3366c0 0.40041 0.32234 0.72275 0.72277 0.72275zm9.8468 0h7.1641c0.40041 0 0.72277-0.32234 0.72277-0.72275v-6.3366c0-0.40041-0.32236-0.72275-0.72277-0.72275h-7.1641c-0.40042 0-0.72277 0.32234-0.72277 0.72275v6.3366c0 0.40041 0.32235 0.72275 0.72277 0.72275zm-27.851-11.211a3.5733 3.5733 0 0 1-3.5243-3.573 3.5733 3.5733 0 0 1 3.573-3.5736 3.5733 3.5733 0 0 1 3.5736 3.5736 3.5733 3.5733 0 0 1-3.5736 3.573 3.5733 3.5733 0 0 1-0.0488 0zm29.788 0a3.5733 3.5733 0 0 1-3.5243-3.573 3.5733 3.5733 0 0 1 3.573-3.5736 3.5733 3.5733 0 0 1 3.5736 3.5736 3.5733 3.5733 0 0 1-3.5736 3.573 3.5733 3.5733 0 0 1-0.0488 0zm-29.74-2.4447a1.1285 1.1285 0 0 0 1.1289-1.1283 1.1285 1.1285 0 0 0-1.1289-1.1289 1.1285 1.1285 0 0 0-1.1283 1.1289 1.1285 1.1285 0 0 0 1.1283 1.1283zm29.788 0a1.1285 1.1285 0 0 0 1.1289-1.1283 1.1285 1.1285 0 0 0-1.1289-1.1289 1.1285 1.1285 0 0 0-1.1283 1.1289 1.1285 1.1285 0 0 0 1.1283 1.1283z" stroke-width="1.5772" style="paint-order:stroke fill markers"/><path d="m212.57 550.18-7.101-5.6244-8.7626-0.62284-1.0797-3.2401 1.8068-3.5805 3.6333-0.56492s0.0365 1.4112 0.84093 2.4375c0.39699 0.50645 0.95017 0.92666 1.5674 1.1803 0.51036 0.20971 1.0836 0.29754 1.4783 0.29903 0.4216 9.3e-4 0.99578-0.0645 1.5288-0.29598 0.63292-0.27483 1.2223-0.75786 1.6297-1.2873 0.74811-0.97222 0.76237-2.3084 0.76237-2.3084h16.653s0.0504 1.3982 0.83924 2.4131c0.34532 0.44427 0.85389 0.86226 1.3845 1.1126 0.56416 0.26612 1.1533 0.35078 1.5972 0.35493 0.42456 4e-3 1.0324-0.0332 1.5847-0.27602 0.63102-0.27742 1.2042-0.79335 1.607-1.3032 0.78038-0.98784 0.77422-2.3013 0.77422-2.3013l4.921 0.37357 0.97573 3.8714-0.56017 3.7383h-7.1227l-5.6888 5.6244zm0.20796-1.2132h4.4854v-4.4113h-9.905zm5.5651 0h4.4228l2.9692-4.4113h-7.392zm-13.358-9.1128c-1.8065 0-3.2855-1.482-3.2855-3.2808s1.479-3.2818 3.2855-3.2818c1.8065 0 3.2865 1.483 3.2865 3.2818s-1.48 3.2808-3.2865 3.2808zm24.427 0c-1.8065 0-3.2855-1.482-3.2855-3.2808s1.479-3.2818 3.2855-3.2818c1.8065 0 3.2865 1.483 3.2865 3.2818s-1.48 3.2808-3.2865 3.2808zm-24.427-1.8207c0.81166 0 1.4553-0.64002 1.4553-1.46s-0.64363-1.4611-1.4553-1.4611c-0.81167 0-1.4543 0.64106-1.4543 1.4611s0.64262 1.46 1.4543 1.46zm24.427 0c0.81166 0 1.4553-0.64002 1.4553-1.46s-0.64364-1.4611-1.4553-1.4611-1.4546 0.64106-1.4546 1.4611 0.64295 1.46 1.4546 1.46z" fill-rule="evenodd" opacity=".99988"/><path d="m354.92 524.68a0.30037 0.30037 0 0 1-0.043-3e-3h-34.966v-6.0913h36.724c-0.0388 0.55873 0.0568 1.1238-0.12599 1.6804-0.44315 1.3779-0.86354 2.7686-1.2836 4.157a0.30037 0.30037 0 0 1-0.30663 0.25803zm-39.273-0.0257c-0.10709-2.0311-0.21203-4.0455-0.31694-6.0724h3.7936v6.0724zm38.628-1.1323a0.28776 0.28776 0 0 0 0.28984-0.24385c0.34879-1.1405 0.70159-2.2768 1.0502-3.4153 0.0214-0.0712 0.0346-0.14278 0.0568-0.22878h-7.295l-0.0101 3.8838h5.8618a0.28776 0.28776 0 0 0 0.0443 3e-3zm-13.67-0.0172v-3.869h-6.0536v3.8629zm-24.42-3e-3h2.2789v-3.867h-2.4533v3e-3c0.0589 1.3002 0.11565 2.5795 0.17419 3.8629zm25.271 0h6.0807v-3.865h-6.0807zm-20.734-3e-3h6.0852l-3e-3 -3.8567h-6.0816zm6.9106 0h6.0786l-3e-3 -3.8567h-6.0745zm-12.468-5.6188c-0.0881-0.82759-0.17244-1.6384-0.25847-2.4471-0.0857-0.81219-0.1703-1.6236-0.25416-2.4344h3.9261a3.491 3.491 0 0 0 3.1064 3.8584 3.3607 3.3607 0 0 0 2.4767-0.71629c1.0082-0.79396 1.4283-1.8694 1.3296-3.1507h17.255c-0.19094 2.1488 1.376 3.8585 3.4408 3.8858a3.3082 3.3082 0 0 0 2.3421-0.90087 3.4511 3.4511 0 0 0 1.1318-2.907l6.9484 0.50421v4.308zm6.8622-1.7604a2.7096 2.7096 0 0 1-0.01-5.4189 2.6991 2.6991 0 0 1 2.7183 2.6526 2.7096 2.7096 0 0 1-2.7117 2.7663zm24.179 0a2.7096 2.7096 0 0 1-3e-3 -5.4189 2.6907 2.6907 0 0 1 2.7179 2.6904 2.7096 2.7096 0 0 1-2.713 2.7286zm-24.173-1.7033a1.0271 1.0271 0 0 0 1.0146-1.0104 1.0502 1.0502 0 0 0-1.0166-1.0166 1.0229 1.0229 0 0 0-1.0084 1.0166 1.0082 1.0082 0 0 0 1.0104 1.0104zm24.166 0a1.0187 1.0187 0 0 0 1.0059-1.0145 1.0355 1.0355 0 0 0-1.0166-1.0125 1.0166 1.0166 0 0 0-0.99775 1.0232 1.0019 1.0019 0 0 0 1.0084 1.0039z" stroke-width=".21005"/></g><path d="m326.93 568.26c-0.993 0-1.5881-0.83656-2.0577-1.7115l-2.4527-4.5692s-6.6457-1.475-7.1059-1.8302c-0.64439-0.49751-1.07-1.3266-1.07-2.2073v-5.7025c0-1.5096 1.2153-2.7249 2.7249-2.7249h2.0801c-2e-3 0.0536-9e-3 0.10613-9e-3 0.16022 0 2.2357 1.8264 4.0622 4.0622 4.0622 2.2357 0 4.0628-1.8265 4.0628-4.0622 0-0.0541-7e-3 -0.10664-9e-3 -0.16022h19.474c-2e-3 0.0536-8e-3 0.10614-8e-3 0.16022 0 2.2357 1.8259 4.0622 4.0616 4.0622s4.0622-1.8265 4.0622-4.0622c0-0.0541-7e-3 -0.10664-9e-3 -0.16022h2.037c0.61975 0 1.1188 0.49903 1.1188 1.1188v9.4588c0 0.20069-0.0666 0.36676-0.10925 0.54846l-1.4375 6.1132-0.0134 2e-3c-0.18399 0.8618-0.94615 1.5048-1.8644 1.5048h-22.059zm1.1345-1.4734h0.0582c5e-3 0 0.0101-5.6e-4 0.0151-5.6e-4v5.6e-4h4.1222v-5.6124h-0.51597l-7.0863-5e-3h-0.26107c-0.19928 0-0.35966 0.1604-0.35966 0.35967 0 0.0677 0.0233 0.12758 0.0555 0.18151l-5e-3 5.7e-4 1.702 3.1502c7e-3 0.0118 0.0128 0.0274 0.0191 0.0386 0.0292 0.0528 0.0531 0.0957 0.0818 0.14847 0.16334 0.29982 0.32402 0.60476 0.46388 0.84482 0.042 0.0721 0.0826 0.13914 0.12156 0.2 0.12357 0.19269 0.3117 0.33472 0.51821 0.4381 0.39882 0.19965 0.5622 0.25546 1.0706 0.25546zm5.4426 0h8.949v-5.6124h-8.949zm10.183 0h9.4818c0.21773 0 0.35731-0.17848 0.39272-0.39328l0.86051-5.2191h-10.735zm-20.587-13.702c-1.8832 0-3.4095-1.5264-3.4095-3.4095s1.5264-3.4101 3.4095-3.4101 3.4101 1.527 3.4101 3.4101-1.5269 3.4095-3.4101 3.4095zm27.583 0c-1.8832 0-3.4101-1.5264-3.4101-3.4095s1.5269-3.4101 3.4101-3.4101 3.4095 1.527 3.4095 3.4101-1.5264 3.4095-3.4095 3.4095zm-27.609-1.9266a1.4829 1.4829 0 0 0 5.6e-4 0 1.4829 1.4829 0 0 0 0.0257 0 1.4829 1.4829 0 0 0 1.4829-1.4829 1.4829 1.4829 0 0 0-9e-3 -0.16078 1.4829 1.4829 0 0 0-1.4745-1.3221 1.4829 1.4829 0 0 0-1.4739 1.3221 1.4829 1.4829 0 0 0 0 3e-3 1.4829 1.4829 0 0 0-5e-3 0.0442 1.4829 1.4829 0 0 0-9.5e-4 0.0151 1.4829 1.4829 0 0 0-2e-3 0.0471 1.4829 1.4829 0 0 0-9.5e-4 0.0516 1.4829 1.4829 0 0 0 1.4566 1.4829zm27.583 0a1.4829 1.4829 0 0 0 0.0257 0 1.4829 1.4829 0 0 0 1.4829-1.4829 1.4829 1.4829 0 0 0-9.6e-4 -0.0549 1.4829 1.4829 0 0 0-8e-3 -0.10588h5.7e-4a1.4829 1.4829 0 0 0-1.4745-1.3221 1.4829 1.4829 0 0 0-1.474 1.3221 1.4829 1.4829 0 0 0 0 3e-3 1.4829 1.4829 0 0 0-5e-3 0.0442 1.4829 1.4829 0 0 0-9.5e-4 0.0151 1.4829 1.4829 0 0 0-2e-3 0.0471 1.4829 1.4829 0 0 0-9.5e-4 0.0516 1.4829 1.4829 0 0 0 1.4572 1.4829z" stroke-width="2.1099"/><path d="m382.36 568.04c-1.1039 0-1.8354-0.98646-2.2536-1.9926l-2.7308-5.0732-2.9629-1.0467c-0.18619-0.0657-0.41441-0.12117-0.58081-0.22586-0.31972-0.20119-0.52023-0.51123-0.52023-0.91253v-7.9472c0-0.61016 0.49087-1.101 1.101-1.101h1.0014c-4e-5 8e-3 -9.7e-4 0.0153-9.7e-4 0.0232 0 2.6052 2.134 4.7398 4.7392 4.7398 2.6052 0 4.7404-2.1346 4.7404-4.7398 0-8e-3 -9.7e-4 -0.0153-9.7e-4 -0.0232h19.537c-4e-5 8e-3 -9.7e-4 0.0153-9.7e-4 0.0232 0 2.6052 2.1346 4.7398 4.7398 4.7398s4.7398-2.1346 4.7398-4.7398c0-8e-3 -9.7e-4 -0.0153-9.7e-4 -0.0232h2.1488c0.61707 0 1.1141 0.49641 1.1141 1.1135v8.1799h-26.443v9.0058h-7.6353zm1.1056-1.3841h5.0681v-6.6045h-9.0681c-0.1378 0-0.25804 0.0495-0.34645 0.13359-0.17218 0.16382-0.21076 0.42818-0.11321 0.60911l2.5672 4.7613c0.46458 0.86162 1.3594 1.1005 1.8924 1.1005zm-3.3127-13.206c-2.0354 0-3.6852-1.6504-3.6852-3.6858 0-2.0354 1.6498-3.6852 3.6852-3.6852 2.0354 0 3.6852 1.6498 3.6852 3.6852 0 2.0354-1.6498 3.6858-3.6852 3.6858zm29.014 0c-2.0354 0-3.6852-1.6504-3.6852-3.6858 0-2.0354 1.6498-3.6852 3.6852-3.6852 2.0354 0 3.6852 1.6498 3.6852 3.6852 0 2.0354-1.6498 3.6858-3.6852 3.6858zm-29.014-1.8703a1.815 1.815 0 0 0 1.8149-1.8154 1.815 1.815 0 0 0-1.8149-1.8149 1.815 1.815 0 0 0-1.8149 1.8149 1.815 1.815 0 0 0 1.8149 1.8154zm29.014 0a1.815 1.815 0 0 0 1.8148-1.8154 1.815 1.815 0 0 0-1.8148-1.8149 1.815 1.815 0 0 0-1.8149 1.8149 1.815 1.815 0 0 0 1.8149 1.8154z" style="paint-order:stroke fill markers"/></g><g transform="matrix(1.986 0 0 1.986 -205.25 -468.64)"><g transform="translate(-.84571)" fill-opacity=".99647"><path d="m292.35 255.07c-0.95221 0-1.9046 0.37314-2.633 1.1193-1.4489 1.4855-1.473 3.8932-0.0618 5.4105-1.3613 1.7005-1.6201 4.0543-0.69583 6.0141 2.1e-4 2.4e-4 1.6e-4 7.2e-4 2.3e-4 2e-3 2.3e-4 7.1e-4 2.4e-4 7.1e-4 7.2e-4 2e-3 2.6e-4 7.1e-4 7.2e-4 2e-3 2e-3 3e-3 0.01 0.0177 0.0169 0.0355 0.0269 0.0533 0.0484 0.10311 0.1014 0.20286 0.15773 0.30005 0.0106 0.0168 0.0172 0.0347 0.0283 0.0518 3e-3 4e-3 6e-3 7e-3 0.01 0.01 1.2e-4 8e-5 2.1e-4 2.8e-4 2.1e-4 2.8e-4 0.67625 1.1187 1.8685 1.816 3.1686 1.816 1.2981 0 2.4895-0.69608 3.166-1.813 6e-3 -4e-3 0.0106-9e-3 0.0131-0.0127 0.0188-0.0326 0.0343-0.0673 0.0526-0.10045 0.0297-0.0528 0.0575-0.10654 0.0846-0.16095 1.0111-1.9895 0.77679-4.4213-0.62087-6.1657 1.4092-1.5175 1.3845-3.9235-0.0637-5.4083-0.72831-0.74634-1.6806-1.1194-2.633-1.1194zm-1.8e-4 2.1594c0.90862 0 1.6444 0.75878 1.6444 1.6986 0 0.93965-0.73578 1.6998-1.6444 1.6998-0.90764 0-1.6445-0.76018-1.6445-1.6998 0-0.9398 0.73677-1.6986 1.6445-1.6986zm0 5.4109c0.63561 0 1.2131 0.3783 1.4852 0.97204 0.48131 0.98032 0.47922 2.1388-4e-3 3.1149-0.27356 0.58832-0.8484 0.96449-1.4812 0.96449-0.55593 0-1.0688-0.29109-1.3704-0.76168-7.1e-4 -4e-3 -2e-3 -7e-3 -4e-3 -0.0107-0.60499-1.0511-0.62177-2.3532-0.0497-3.4204 0.29094-0.52716 0.83131-0.85932 1.4241-0.85932z"/><path d="m306.8 264.02c-7e-3 1.3862-0.34262 2.7971-1.3078 3.947-0.95341 1.1499-2.3176 1.6323-3.8124 1.6323-1.0476 0-2.1862-0.71601-2.8752-1.3153l1.4343-1.473c0.55322 0.34072 1.1005 0.71997 1.7714 0.71997 0.60406 0.0199 1.2145-0.23648 1.698-0.68032 0.21355-0.19595 0.41219-0.43982 0.53535-0.7093 0.30554-0.66859 0.46117-1.3618 0.46117-2.1568 0.0133-0.68143 0.0764-1.2634-0.32381-1.7319-0.38842-0.46849-0.89556-0.84847-1.4959-0.84847-0.76507-0.0133-1.5421 0.4118-1.8336 1.4528l-1.9236-0.22551 0.31485-7.5551h6.7721v2.0577h-4.8119l-0.0983 2.5165s0.27897-0.12089 0.64401-0.20458c0.32614-0.0747 0.72352-0.11325 1.0068-0.11325 0.61738 0.0166 1.1596 0.18797 1.6546 0.44022 0.40149 0.20459 0.83979 0.46394 1.1071 0.84335 0.25142 0.35699 0.53691 0.7304 0.70628 1.1437 0.29227 0.71319 0.38101 1.5064 0.37649 2.2604z" stroke-width=".048112"/></g><g transform="translate(-.23386)"><g transform="translate(10.675)"><g transform="matrix(-.60555 0 0 -.71111 350.71 -144.44)" fill-opacity=".99647" stroke-width=".074372" aria-label="6"><path d="m188-567.88c0 1.74-0.73152 3.2166-2.0515 4.3966-0.62795 0.56998-1.3852 0.95286-2.1522 1.2207-0.82089 0.2867-1.6624 0.43826-2.6653 0.43826-1.94 0-3.4286-0.70662-4.7486-1.9466-1.3-1.24-1.649-2.4615-1.649-4.2615 0-1.3559 0.12864-2.699 0.47241-4.0232 0.36106-1.3908 0.95466-2.7607 1.6821-4.1028 1.42-2.64 3.7592-4.6534 5.8576-6.1602l2.121 2.2723c-1.7995 1.1984-4.0548 3.435-5.1834 5.6184 0.76304-0.18468 1.2528-0.17088 2.1128-0.17088 1.86 0 3.4586 0.97472 4.7986 2.1747 0.37451 0.33045 0.56638 0.75103 0.76802 1.1425 0.5306 1.0301 0.6374 2.1842 0.6374 3.4015zm-3.449-4e-3c0-0.45227 0.0454-1.0788-0.0971-1.668-0.10321-0.42692-0.32911-0.83234-0.62645-1.1465-0.57537-0.60794-1.5008-0.97571-2.5008-0.97571-1.14-0.02-2.0015 0.44832-2.5801 1.1032-0.25737 0.29136-0.46148 0.63232-0.54812 1.0022-0.14219 0.60701-0.0616 1.2785-0.074 1.8378 0 0.82 0.29116 1.5931 0.99116 2.1731 0.69999 0.58 1.3139 0.79936 2.3139 0.79936 0.98001 0 1.8366-0.46139 2.412-1.0549 0.53747-0.55442 0.70946-1.2705 0.70946-2.0705z" fill-opacity=".99647" stroke-width=".074372"/></g></g></g></g><g fill-opacity=".99647"><path transform="matrix(1.0126 0 0 1.0126 -44.356 -137.85)" d="m279.89 173.68c-6e-3 -2.7e-4 -0.01-1.2e-4 -0.0176 5.9e-4 -2.9291 4e-3 -5.5591 1.8442-6.6523 4.6472-0.0118 0.01-0.0196 0.0217-0.0208 0.0344l-0.22577 0.87897v1e-3l-0.20306 0.88451v1e-3l-0.18495 0.88436c-2e-5 1e-3 -2e-5 2e-3 0 4e-3l-0.15365 0.89764v5.7e-4l-0.13641 0.89756v1e-3l-0.11998 0.90322c-2e-5 1e-3 -2e-5 2e-3 0 4e-3l-0.0885 0.90302v5.5e-4l-0.072 0.9032v1e-3l-0.0493 0.91081v1e-3l-0.0227 0.90872v1e-3 0.91067 1e-3l0.0207 0.91076v1e-3l0.0431 0.9086v1e-3l0.0642 0.90318v1e-3l0.0887 0.91073v1e-3l0.11411 0.8976c-4e-5 5.5e-4 -4e-5 1e-3 0 1e-3l0.13172 0.9032v1e-3l0.15306 0.89004c-2e-5 4.7e-4 -2e-5 1e-3 0 1e-3l0.17928 0.89205c1e-3 8e-3 4e-3 0.0196 8e-3 0.0215 0.40917 3.7405 3.4714 6.5751 7.1211 6.5858 8e-3 2e-3 0.0176 4e-3 0.0207 4e-3 3.6687 0 6.747-2.8537 7.144-6.6176 1e-3 -8e-3 1e-3 -0.0176 0-0.0215 1.056-4.9892 1.056-10.158 0-15.149 1e-3 -8e-3 1e-3 -0.0176 0-0.0207-0.39681-3.7598-3.4716-6.6119-7.137-6.6156-2e-3 -1.2e-4 -6e-3 -1.2e-4 -8e-3 0zm0 4.1529c1.6733 0 3.0538 1.3436 3.1541 3.0702-2e-3 0.0118-2e-3 0.0208 0 0.0296 1.0099 4.5792 1.0099 9.3356 0 13.915-2e-3 0.0117-2e-3 0.0209 0 0.0294-0.1004 1.7264-1.4805 3.0727-3.1534 3.073-1.2318 0-2.3512-0.74008-2.87-1.897-4e-3 -8e-3 -8e-3 -0.0137-0.0137-0.0196l-0.19868-0.81442-0.18339-0.84569-0.16069-0.85323-0.14327-0.85879-0.11841-0.86439-0.0885-0.86437-0.0722-0.872-0.0491-0.86433-0.0227-0.86983v-0.87192l0.0227-0.87055 0.0491-0.87 0.0722-0.87195 0.0885-0.86432 0.11841-0.85881 0.14327-0.85879 0.16069-0.85881 0.18339-0.84566 0.19952-0.81655c6e-3 -6e-3 0.01-0.0117 0.0137-0.0196 0.51876-1.157 1.6377-1.8935 2.8701-1.8935z"/><path transform="matrix(1.0126 0 0 1.0126 -44.356 -137.85)" d="m262.06 173.68c-6e-3 -2.7e-4 -0.01-1.2e-4 -0.0176 5.9e-4 -2.9291 4e-3 -5.5591 1.8442-6.6523 4.6472-0.0118 0.01-0.0196 0.0217-0.0208 0.0344l-0.22577 0.87897v1e-3l-0.20306 0.88451v1e-3l-0.18495 0.88436c-2e-5 1e-3 -2e-5 2e-3 0 4e-3l-0.15365 0.89764v5.7e-4l-0.13641 0.89756v1e-3l-0.11998 0.90322c-2e-5 1e-3 -2e-5 2e-3 0 4e-3l-0.0885 0.90302v5.5e-4l-0.072 0.9032v1e-3l-0.0493 0.91081v1e-3l-0.0227 0.90872v1e-3 0.91067 1e-3l0.0207 0.91076v1e-3l0.0431 0.9086v1e-3l0.0642 0.90318v1e-3l0.0887 0.91073v1e-3l0.11411 0.8976c-4e-5 5.5e-4 -4e-5 1e-3 0 1e-3l0.13172 0.9032v1e-3l0.15306 0.89004c-2e-5 4.7e-4 -2e-5 1e-3 0 1e-3l0.17928 0.89205c1e-3 8e-3 4e-3 0.0196 8e-3 0.0215 0.40917 3.7405 3.4714 6.5751 7.1211 6.5858 8e-3 2e-3 0.0176 4e-3 0.0207 4e-3 3.6687 0 6.747-2.8537 7.144-6.6176 1e-3 -8e-3 1e-3 -0.0176 0-0.0215 1.056-4.9892 1.056-10.158 0-15.149 1e-3 -8e-3 1e-3 -0.0176 0-0.0207-0.39681-3.7598-3.4716-6.6119-7.137-6.6156-2e-3 -1.2e-4 -6e-3 -1.2e-4 -8e-3 0zm0 4.1529c1.6733 0 3.0538 1.3436 3.1541 3.0702-2e-3 0.0118-2e-3 0.0208 0 0.0296 1.0099 4.5792 1.0099 9.3356 0 13.915-2e-3 0.0117-2e-3 0.0209 0 0.0294-0.1004 1.7264-1.4805 3.0727-3.1534 3.073-1.2318 0-2.3512-0.74008-2.87-1.897-4e-3 -8e-3 -8e-3 -0.0137-0.0137-0.0196l-0.19868-0.81442-0.18339-0.84569-0.16069-0.85323-0.14327-0.85879-0.11841-0.86439-0.0885-0.86437-0.0722-0.872-0.0491-0.86433-0.0227-0.86983v-0.87192l0.0227-0.87055 0.0491-0.87 0.0722-0.87195 0.0885-0.86432 0.11841-0.85881 0.14327-0.85879 0.16069-0.85881 0.18339-0.84566 0.19952-0.81655c6e-3 -6e-3 0.01-0.0117 0.0137-0.0196 0.51876-1.157 1.6377-1.8935 2.8701-1.8935z"/><g transform="matrix(.35921 0 0 .31305 177.12 74.552)" stroke-width=".28783" aria-label="1"><path d="m94.288-24.799h-11.286v-75.98h-5.0619v-10.139c4.3512-1.2375 5.7725-2.4325 8.1553-5.8234l8.1928 4e-5z" fill-opacity=".99647" stroke-width=".28783"/></g><path d="m315.06 38.015c-6e-3 -2.74e-4 -0.0101-1.22e-4 -0.0178 5.97e-4 -2.966 0.0041-5.6293 1.8675-6.7362 4.7058-0.012 0.01013-0.0199 0.02197-0.0211 0.03483l-0.22862 0.89006v1e-3l-0.20562 0.89567v1e-3l-0.18728 0.89552c-2e-5 1e-3 -2e-5 2e-3 0 0.0041l-0.15559 0.90897v5.77e-4l-0.13813 0.90888v1e-3l-0.1215 0.91462c-2e-5 1e-3 -2e-5 2e-3 0 0.0041l-0.0896 0.91441v5.57e-4l-0.0729 0.9146v1e-3l-0.0499 0.9223v1e-3l-0.023 0.92018v1e-3 0.92216 1e-3l0.021 0.92225v1e-3l0.0436 0.92006v1e-3l0.065 0.91458v1e-3l0.0898 0.92222v1e-3l0.11555 0.90892c-4e-5 5.57e-4 -4e-5 1e-3 0 1e-3l0.13338 0.9146v1e-3l0.155 0.90127c-2e-5 4.76e-4 -2e-5 1e-3 0 1e-3l0.18154 0.9033c1e-3 0.0081 4e-3 0.01985 8e-3 0.02177 0.41433 3.7877 3.5152 6.6581 7.211 6.6689 8e-3 2e-3 0.0178 4e-3 0.021 4e-3 3.715 0 6.8321-2.8897 7.2342-6.7011 1e-3 -0.0081 1e-3 -0.01782 0-0.02177 1.0693-5.0522 1.0694-10.286 0-15.34 1e-3 -0.0081 1e-3 -0.01782 0-0.02096-0.40182-3.8072-3.5154-6.6954-7.2271-6.6991-2e-3 -1.21e-4 -6e-3 -1.21e-4 -8e-3 0zm0 4.2053c1.6944 0 3.0923 1.3605 3.1939 3.109-2e-3 0.01195-2e-3 0.02106 0 0.02997 1.0226 4.637 1.0226 9.4533 0 14.09-2e-3 0.01185-2e-3 0.02116 0 0.02977-0.10166 1.7482-1.4992 3.1115-3.1932 3.1118-1.2473 0-2.3809-0.74942-2.9062-1.9209-4e-3 -0.0081-8e-3 -0.01387-0.0139-0.01985l-0.20118-0.8247-0.18571-0.85636-0.16272-0.864-0.14507-0.86962-0.11991-0.8753-0.0896-0.87528-0.0731-0.883-0.0497-0.87524-0.023-0.8808v-0.88292l0.023-0.88153 0.0497-0.88098 0.0731-0.88295 0.0896-0.87522 0.11991-0.86965 0.14507-0.86963 0.16272-0.86965 0.18571-0.85633 0.20203-0.82685c6e-3 -0.0061 0.0101-0.01185 0.0139-0.01985 0.5253-1.1716 1.6584-1.9174 2.9063-1.9174z"/></g><g transform="translate(-77.752)"><g transform="matrix(.35921 0 0 .31305 191.12 74.552)" fill-opacity=".99647" stroke-width=".28783" aria-label="1"><g transform="translate(-1.9317)" fill-opacity=".99647"><path transform="matrix(2.7839 0 0 3.1943 -532.05 -238.14)" d="m235.06 38.015c-6e-3 -2.74e-4 -0.0101-1.22e-4 -0.0178 5.97e-4 -2.966 0.0041-5.6293 1.8675-6.7362 4.7058-0.012 0.01013-0.0199 0.02197-0.0211 0.03483l-0.22862 0.89006v1e-3l-0.20562 0.89567v1e-3l-0.18728 0.89552c-2e-5 1e-3 -2e-5 2e-3 0 0.0041l-0.15559 0.90897v5.77e-4l-0.13813 0.90888v1e-3l-0.1215 0.91462c-2e-5 1e-3 -2e-5 2e-3 0 0.0041l-0.0896 0.91441v5.57e-4l-0.0729 0.9146v1e-3l-0.0499 0.9223v1e-3l-0.023 0.92018v1e-3 0.92216 1e-3l0.021 0.92225v1e-3l0.0436 0.92006v1e-3l0.065 0.91458v1e-3l0.0898 0.92222v1e-3l0.11555 0.90892c-4e-5 5.57e-4 -4e-5 1e-3 0 1e-3l0.13338 0.9146v1e-3l0.155 0.90127c-2e-5 4.76e-4 -2e-5 1e-3 0 1e-3l0.18154 0.9033c1e-3 0.0081 4e-3 0.01985 8e-3 0.02177 0.41433 3.7877 3.5152 6.6581 7.211 6.6689 8e-3 2e-3 0.0178 4e-3 0.021 4e-3 3.715 0 6.8321-2.8897 7.2342-6.7011 1e-3 -0.0081 1e-3 -0.01782 0-0.02177 1.0693-5.0522 1.0694-10.286 0-15.34 1e-3 -0.0081 1e-3 -0.01782 0-0.02096-0.40182-3.8072-3.5154-6.6954-7.2271-6.6991-2e-3 -1.21e-4 -6e-3 -1.21e-4 -8e-3 0zm0 4.2053c1.6944 0 3.0923 1.3605 3.1939 3.109-2e-3 0.01195-2e-3 0.02106 0 0.02997 1.0226 4.637 1.0226 9.4533 0 14.09-2e-3 0.01185-2e-3 0.02116 0 0.02977-0.10166 1.7482-1.4992 3.1115-3.1932 3.1118-1.2473 0-2.3809-0.74942-2.9062-1.9209-4e-3 -0.0081-8e-3 -0.01387-0.0139-0.01985l-0.20118-0.8247-0.18571-0.85636-0.16272-0.864-0.14507-0.86962-0.11991-0.8753-0.0896-0.87528-0.0731-0.883-0.0497-0.87524-0.023-0.8808v-0.88292l0.023-0.88153 0.0497-0.88098 0.0731-0.88295 0.0896-0.87522 0.11991-0.86965 0.14507-0.86963 0.16272-0.86965 0.18571-0.85633 0.20203-0.82685c6e-3 -0.0061 0.0101-0.01185 0.0139-0.01985 0.5253-1.1716 1.6584-1.9174 2.9063-1.9174z"/><path transform="translate(-38.975)" d="m94.288-24.799h-11.286v-75.98h-5.0619v-10.139c4.3512-1.2375 5.7725-2.4325 8.1553-5.8234l8.1928 4e-5z" stroke-width=".28783"/><path d="m85.799-24.799h-11.286v-75.98h-5.0619v-10.139c4.3512-1.2375 5.7725-2.4325 8.1553-5.8234l8.1928 4e-5z" stroke-width=".28783"/></g></g></g></svg>