<svg width="529.46" height="227.15" version="1.1" viewBox="0 0 529.46 227.15" xmlns="http://www.w3.org/2000/svg"><defs><style>.cls-1 {        fill: #00408c;        fill-rule: evenodd;      }      .cls-2 {        fill: #fff;      }</style></defs><path d="m0.094454 0.094454v226.96h529.27v-226.96z" fill="#00408c" fill-rule="evenodd" style="paint-order:fill markers stroke"/><rect transform="scale(-1,1)" x="-117.33" y="87.195" width="90.571" height="90.531" fill="#fff" stroke-width="1.0091"/><path d="m74.949 99.486c4.1301 0 7.4563 3.3238 7.4563 7.4539v51.042c0 4.1301-3.3263 7.4539-7.4563 7.4539h-36.692c-4.13 0-7.4538-3.3238-7.4538-7.4539v-51.042c-2e-5 -4.1301 3.3238-7.4539 7.4538-7.4539zm-7.008 4.4688h-3e-3c-0.01776-5e-5 -0.03552-5e-5 -0.0552 0-4.664-4.2e-4 -8.4451 3.7806-8.4447 8.4448 1e-3 4.6631 3.7817 8.4426 8.4447 8.4422 4.6632 3.5e-4 8.4438-3.7791 8.4448-8.4422 4.84e-4 -4.642-3.746-8.4138-8.3878-8.4448zm-0.01211 4.4293c2.2001 0.0243 3.9707 1.8151 3.9709 4.0156-2.92e-4 2.2176-1.7979 4.0152-4.0155 4.0154-2.2177-2.2e-4 -4.0153-1.7978-4.0155-4.0154 2.12e-4 -2.2178 1.7978-4.0153 4.0155-4.0156 0.01403-8e-5 0.02947-8e-5 0.04471 0zm21.16 1.8578v37.641h-3.0916v-37.641zm6.4952 2.7348v34.758h-3.0395v-34.758zm6.3416 4.8726v6.4952h11.363v20.439h-11.363v10.451h-15.928v-4.0577h13.04v-33.328zm-50.512 13.389c-0.02543-5e-5 -0.05126-5e-5 -0.0775 0-7.524-7.8e-4 -13.624 6.098-13.625 13.622 5.76e-4 7.5241 6.1006 13.623 13.625 13.622 7.523-5e-4 13.622-6.0989 13.622-13.622-4.14e-4 -7.4931-6.0523-13.579-13.545-13.622zm0.1285 4.3004c5.0753 0.10132 9.1363 4.2454 9.1359 9.3216-4.95e-4 5.1481-4.1737 9.3211-9.3216 9.3217-5.1491 8.5e-4 -9.3237-4.1726-9.3242-9.3217 4.85e-4 -5.1488 4.1751-9.3224 9.3242-9.3216 0.06216-5.7e-4 0.12311-5.7e-4 0.18572 0z" style="paint-order:stroke fill markers"/><g><path d="m173.96 55.747a34.079 34.079 0 0 0-34.078 34.078 34.079 34.079 0 0 0 34.078 34.078 34.079 34.079 0 0 0 34.078-34.078 34.079 34.079 0 0 0-34.078-34.078z" fill="#fff" style="paint-order:stroke fill markers"/><path d="m173.55 56.59a33.236 33.236 0 0 0-32.832 33.236 33.236 33.236 0 0 0 33.236 33.236 33.236 33.236 0 0 0 33.236-33.236 33.236 33.236 0 0 0-33.236-33.236 33.236 33.236 0 0 0-0.40366 0zm0.40366 8.2795a24.954 24.954 0 0 1 24.953 24.956 24.954 24.954 0 0 1-24.953 24.953 24.954 24.954 0 0 1-24.953-24.953 24.954 24.954 0 0 1 24.953-24.956z" fill="#ef0311" style="paint-order:stroke fill markers"/><path d="m264.96 55.747a34.079 34.079 0 0 0-34.078 34.078 34.079 34.079 0 0 0 34.078 34.078 34.079 34.079 0 0 0 34.078-34.078 34.079 34.079 0 0 0-34.078-34.078z" fill="#fff" style="paint-order:stroke fill markers"/><path d="m264.56 56.59a33.236 33.236 0 0 0-32.832 33.236 33.236 33.236 0 0 0 33.236 33.236 33.236 33.236 0 0 0 33.236-33.236 33.236 33.236 0 0 0-33.236-33.236 33.236 33.236 0 0 0-0.40365 0zm0.40365 8.2795a24.954 24.954 0 0 1 24.953 24.956 24.954 24.954 0 0 1-24.953 24.953 24.954 24.954 0 0 1-24.953-24.953 24.954 24.954 0 0 1 24.953-24.956z" fill="#ef0311" style="paint-order:stroke fill markers"/><path d="m355.74 55.747a34.079 34.079 0 0 0-34.078 34.078 34.079 34.079 0 0 0 34.078 34.078 34.079 34.079 0 0 0 34.078-34.078 34.079 34.079 0 0 0-34.078-34.078z" fill="#fff" style="paint-order:stroke fill markers"/><path d="m355.34 56.59a33.236 33.236 0 0 0-32.832 33.236 33.236 33.236 0 0 0 33.236 33.236 33.236 33.236 0 0 0 33.236-33.236 33.236 33.236 0 0 0-33.236-33.236 33.236 33.236 0 0 0-0.40366 0zm0.40366 8.2795a24.954 24.954 0 0 1 24.953 24.956 24.954 24.954 0 0 1-24.953 24.953 24.954 24.954 0 0 1-24.953-24.953 24.954 24.954 0 0 1 24.953-24.956z" fill="#ef0311" style="paint-order:stroke fill markers"/></g><g fill-opacity=".99647"><path d="m163.36 74.967c-1.9193 0-3.8389 0.7521-5.3071 2.2561-2.9204 2.9941-2.969 7.847-0.12457 10.905-2.7438 3.4276-3.2654 8.1717-1.4025 12.122 4.2e-4 4.9e-4 3.2e-4 1e-3 4.6e-4 4e-3 4.7e-4 1e-3 4.9e-4 1e-3 1e-3 4e-3 5.3e-4 1e-3 1e-3 4e-3 4e-3 6e-3 0.0202 0.0357 0.0341 0.0716 0.0542 0.10743 0.0976 0.20783 0.20439 0.40888 0.31792 0.60478 0.0214 0.0339 0.0347 0.0699 0.057 0.10441 6e-3 8e-3 0.0121 0.0141 0.0202 0.0202 2.4e-4 1.6e-4 4.2e-4 5.7e-4 4.2e-4 5.7e-4 1.363 2.2548 3.7662 3.6603 6.3865 3.6603 2.6165 0 5.0178-1.403 6.3814-3.6543 0.0121-8e-3 0.0214-0.0181 0.0264-0.0256 0.0379-0.0657 0.0691-0.13564 0.10602-0.20246 0.0599-0.10642 0.1159-0.21474 0.17052-0.32441 2.038-4.0101 1.5657-8.9114-1.2514-12.428 2.8404-3.0586 2.7905-7.9081-0.1284-10.901-1.468-1.5043-3.3875-2.2562-5.307-2.2562zm-3.6e-4 4.3524c1.8314 0 3.3144 1.5294 3.3144 3.4236 0 1.894-1.483 3.4262-3.3144 3.4262-1.8294 0-3.3146-1.5322-3.3146-3.4262 0-1.8942 1.485-3.4236 3.3146-3.4236zm0 10.906c1.2811 0 2.4452 0.76249 2.9936 1.9592 0.97012 1.9759 0.96591 4.3108-8e-3 6.2783-0.55138 1.1858-1.71 1.944-2.9855 1.944-1.1205 0-2.1542-0.58671-2.7622-1.5352-1e-3 -8e-3 -4e-3 -0.0141-8e-3 -0.0216-1.2194-2.1186-1.2532-4.743-0.10018-6.894 0.58642-1.0625 1.6756-1.732 2.8703-1.732z"/><path d="m183.3 74.968c-0.48305 3e-3 -0.97177 0.0511-1.4606 0.14252-3.9095 0.72984-6.7416 4.1449-6.7416 8.119a0.12351 0.12351 0 0 0 3e-3 3e-3 0.13185 0.13185 0 0 0 0.13067 0.124h4.1638a0.13185 0.13185 0 0 0 0.132-0.12573 0.13185 0.13185 0 0 0 0-1e-3 0.12351 0.12351 0 0 0 1e-3 -1e-3c0-1.8498 1.3217-3.4353 3.1443-3.7664 1.8191-0.33105 3.6164 0.68514 4.2682 2.4154 0.65531 1.7339-0.0224 3.6844-1.6085 4.6366a0.12351 0.12351 0 0 0-0.0424 0.0449c-6.0478 4.0208-9.6998 10.801-9.6998 18.082v0.1228h0.25739l15.637-3e-3a0.12351 0.12351 0 0 0 1e-3 0h0.12267v-0.12147a0.12351 0.12351 0 0 0 1e-3 -1e-3v-4.321h-11.039c1.0646-4.1153 3.6003-7.6944 7.1365-10.058a0.12351 0.12351 0 0 0 1e-3 -7e-3c3.3802-2.0948 4.7896-6.3027 3.3529-10.009-1.2573-3.2433-4.3823-5.3014-7.7638-5.2745z"/><path d="m261.75 79.121c-3.2545 4.5543-8.0066 13.02-8.0802 25.699h-4.151c0.0211-9.308 2.4752-18.014 7.1753-25.669h-10.964v-4.3005l16.02-3.5e-4z" stroke-width=".099136"/><path d="m275.59 74.938c-5e-3 -2.8e-4 -0.0107-1.2e-4 -0.0184 6.3e-4 -3.0655 4e-3 -5.818 1.9301-6.9621 4.8636-0.012 0.0107-0.0205 0.0228-0.0217 0.036l-0.2363 0.9199v1e-3l-0.2125 0.9257v1e-3l-0.19356 0.92554c-3e-5 1e-3 -3e-5 3e-3 0 4e-3l-0.16082 0.93945v6e-4l-0.14276 0.93936v1e-3l-0.1256 0.94528c-1e-5 1e-3 -1e-5 1e-3 0 4e-3l-0.0927 0.94508v5.7e-4l-0.0753 0.94527v1e-3l-0.0516 0.95321v1e-3l-0.0239 0.95104v1e-3 0.95309 1e-3l0.0217 0.95317v1e-3l0.0451 0.95092v1e-3l0.0672 0.94524v1e-3l0.0928 0.95315v1e-3l0.11946 0.93938c-4e-5 5.9e-4 -4e-5 1e-3 0 1e-3l0.13786 0.94527v1e-3l0.1602 0.93149c-3e-5 5e-4 -3e-5 1e-3 0 1e-3l0.18761 0.9336c1e-3 8e-3 4e-3 0.0205 8e-3 0.0225 0.42821 3.9147 3.633 6.8813 7.4528 6.8925 8e-3 1e-3 0.0184 4e-3 0.0217 4e-3 3.8395 0 7.0612-2.9866 7.4768-6.9258 1e-3 -8e-3 1e-3 -0.0184 0-0.0224 1.1052-5.2216 1.1052-10.631 0-15.854 1e-3 -8e-3 1e-3 -0.0185 0-0.0216-0.41529-3.9349-3.6332-6.9198-7.4694-6.9236-1e-3 -1.3e-4 -7e-3 -1.3e-4 -8e-3 0zm0 4.3463c1.7512 0 3.196 1.4062 3.301 3.2132-3e-3 0.012-3e-3 0.0217 0 0.0309 1.0569 4.7925 1.0569 9.7703 0 14.563-3e-3 0.012-3e-3 0.0219 0 0.0307-0.1052 1.8068-1.5495 3.2158-3.3002 3.2162-1.2891 0-2.4608-0.77454-3.0037-1.9853-4e-3 -8e-3 -8e-3 -0.0144-0.0144-0.0205l-0.20793-0.85235-0.19193-0.88507-0.16818-0.89297-0.14993-0.89879-0.12387-0.90464-0.0927-0.90461-0.0755-0.91263-0.0513-0.90457-0.0237-0.91035v-0.91252l0.0237-0.91109 0.0513-0.91051 0.0755-0.91257 0.0927-0.90455 0.12387-0.89881 0.14993-0.89879 0.16818-0.8988 0.19193-0.88505 0.2088-0.85457c7e-3 -7e-3 0.0107-0.012 0.0144-0.0205 0.54292-1.2108 1.714-1.9817 3.0037-1.9817z"/><path d="m353.75 79.121c-3.2546 4.5543-8.0066 13.02-8.0802 25.699h-4.151c0.0211-9.308 2.4752-18.014 7.1753-25.669h-10.964v-4.3005l16.02-3.5e-4z" stroke-width=".099136"/><path d="m367.59 74.938c-5e-3 -2.8e-4 -0.0107-1.2e-4 -0.0184 6.3e-4 -3.0655 4e-3 -5.818 1.9301-6.9621 4.8636-0.012 0.0107-0.0205 0.0228-0.0217 0.036l-0.23629 0.9199v1e-3l-0.21251 0.9257v1e-3l-0.19356 0.92554c-3e-5 1e-3 -3e-5 3e-3 0 4e-3l-0.16081 0.93945v6e-4l-0.14276 0.93936v1e-3l-0.1256 0.94528c-2e-5 1e-3 -2e-5 1e-3 0 4e-3l-0.0927 0.94508v5.7e-4l-0.0753 0.94527v1e-3l-0.0516 0.95321v1e-3l-0.0239 0.95104v1e-3 0.95309 1e-3l0.0217 0.95317v1e-3l0.0451 0.95092v1e-3l0.0672 0.94524v1e-3l0.0928 0.95315v1e-3l0.11947 0.93938c-4e-5 5.9e-4 -4e-5 1e-3 0 1e-3l0.13785 0.94527v1e-3l0.1602 0.93149c-3e-5 5e-4 -3e-5 1e-3 0 1e-3l0.18761 0.9336c1e-3 8e-3 4e-3 0.0205 8e-3 0.0225 0.42822 3.9147 3.6331 6.8813 7.4528 6.8925 8e-3 1e-3 0.0184 4e-3 0.0217 4e-3 3.8395 0 7.0612-2.9866 7.4768-6.9258 1e-3 -8e-3 1e-3 -0.0184 0-0.0224 1.1051-5.2216 1.1052-10.631 0-15.854 1e-3 -8e-3 1e-3 -0.0185 0-0.0216-0.4153-3.9349-3.6332-6.9198-7.4694-6.9236-1e-3 -1.3e-4 -7e-3 -1.3e-4 -8e-3 0zm0 4.3463c1.7512 0 3.196 1.4062 3.301 3.2132-3e-3 0.012-3e-3 0.0217 0 0.0309 1.0569 4.7925 1.0569 9.7703 0 14.563-3e-3 0.012-3e-3 0.0219 0 0.0307-0.1052 1.8068-1.5495 3.2158-3.3002 3.2162-1.2891 0-2.4608-0.77454-3.0036-1.9853-4e-3 -8e-3 -8e-3 -0.0144-0.0144-0.0205l-0.20794-0.85235-0.19193-0.88507-0.16817-0.89297-0.14994-0.89879-0.12386-0.90464-0.0927-0.90461-0.0755-0.91263-0.0513-0.90457-0.0237-0.91035v-0.91252l0.0237-0.91109 0.0513-0.91051 0.0755-0.91257 0.0927-0.90455 0.12386-0.89881 0.14994-0.89879 0.16817-0.8988 0.19193-0.88505 0.2088-0.85457c7e-3 -7e-3 0.0107-0.012 0.0144-0.0205 0.54292-1.2108 1.714-1.9817 3.0037-1.9817z"/></g><path d="m11.762 4.5868c-3.9817 0-7.2256 3.2446-7.2256 7.2265v203.39c0 3.9819 3.2439 7.2267 7.2256 7.2267h505.83c3.982 0 7.2257-3.2448 7.2257-7.2267v-203.39c0-3.9819-3.2437-7.2265-7.2257-7.2265zm0 2.4631h505.83c2.6602 0 4.7631 2.1033 4.7631 4.7634v203.39c0 2.6602-2.1029 4.7635-4.7631 4.7635h-505.83c-2.6597 0-4.7626-2.1033-4.7626-4.7635v-203.39c0-2.66 2.1029-4.7634 4.7626-4.7634z" color="#000000" color-rendering="auto" dominant-baseline="auto" enable-background="accumulate" fill="#fff" fill-rule="evenodd" image-rendering="auto" shape-rendering="auto" solid-color="#000000" stop-color="#000000" style="font-feature-settings:normal;font-variant-alternates:normal;font-variant-caps:normal;font-variant-east-asian:normal;font-variant-ligatures:normal;font-variant-numeric:normal;font-variant-position:normal;font-variation-settings:normal;inline-size:0;isolation:auto;mix-blend-mode:normal;paint-order:fill markers stroke;shape-margin:0;shape-padding:0;text-decoration-color:#000000;text-decoration-line:none;text-decoration-style:solid;text-indent:0;text-orientation:mixed;text-transform:none;white-space:normal"/><rect x="412.21" y="87.195" width="90.571" height="90.531" fill="#fff" stroke-width="1.0091"/><path d="m454.59 99.486c-4.1301 0-7.4563 3.3238-7.4563 7.4539v51.042c0 4.1301 3.3263 7.4539 7.4563 7.4539h36.692c4.13 0 7.4538-3.3238 7.4538-7.4539v-51.042c2e-5 -4.1301-3.3238-7.4539-7.4538-7.4539zm7.008 4.4688h3e-3c0.0178-5e-5 0.0355-5e-5 0.0552 0 4.664-4.2e-4 8.4451 3.7806 8.4447 8.4448-1e-3 4.6631-3.7816 8.4426-8.4447 8.4422-4.6632 3.5e-4 -8.4438-3.7791-8.4448-8.4422-4.8e-4 -4.642 3.746-8.4138 8.3878-8.4448zm0.0121 4.4293c-2.2001 0.0243-3.9707 1.8151-3.9709 4.0156 2.9e-4 2.2176 1.7979 4.0152 4.0155 4.0154 2.2177-2.2e-4 4.0152-1.7978 4.0155-4.0154-2.1e-4 -2.2178-1.7978-4.0153-4.0155-4.0156-0.014-8e-5 -0.0295-8e-5 -0.0447 0zm-21.16 1.8578v37.641h3.0916v-37.641zm-6.4952 2.7348v34.758h3.0395v-34.758zm-6.3416 4.8726v6.4952h-11.363v20.439h11.363v10.451h15.928v-4.0577h-13.04v-33.328zm50.512 13.389c0.0254-5e-5 0.0513-5e-5 0.0775 0 7.524-7.8e-4 13.624 6.098 13.625 13.622-5.8e-4 7.5241-6.1006 13.623-13.625 13.622-7.523-5e-4 -13.622-6.0989-13.622-13.622 4.1e-4 -7.4931 6.0523-13.579 13.545-13.622zm-0.1285 4.3004c-5.0753 0.10132-9.1364 4.2454-9.1359 9.3216 4.9e-4 5.1481 4.1737 9.3211 9.3216 9.3217 5.1491 8.5e-4 9.3237-4.1726 9.3242-9.3217-4.8e-4 -5.1488-4.1751-9.3224-9.3242-9.3216-0.0622-5.7e-4 -0.12311-5.7e-4 -0.18572 0z" style="paint-order:stroke fill markers"/><g fill="#fff"><g><path d="m31.029 31.673c0 3.5874-0.99889 5.8632-2.7118 8.0797-1.6904 2.1936-3.9555 3.2904-6.7954 3.2904-3.1104 0-5.5445-1.2682-7.3025-3.8045-1.5326-2.1936-2.4129-4.2752-2.4129-7.497 0-3.656 1.0274-6.3075 2.7403-8.4097 1.7129-2.125 4.0569-3.1876 7.0321-3.1876 2.7948 0 5.0487 1.0854 6.7616 3.2561 1.7355 2.1479 2.6887 4.7537 2.6887 8.2726zm-4.1087 0.0685c0-2.4221-0.73632-4.2401-1.683-5.6111-0.92409-1.371-2.3278-1.8883-3.7193-1.8958-1.4619-9e-3 -2.9594 0.57848-3.9286 1.9495-0.96916 1.371-1.63 3.1354-1.63 5.5574 0 2.445 0.54693 3.858 1.5161 5.2518 0.96916 1.371 2.5909 1.9147 4.1031 1.9366 1.5993 0.0231 3.2943-0.96081 4.1958-2.6745 0.72124-1.3481 1.1458-2.3659 1.1458-4.5139z"/><path d="m54.631 28.193-2.2729 2.8645s-0.55027-0.48113-1.328-0.68052c-0.75912-0.1946-1.7391-0.1104-2.3006 0.114-0.55205 0.22061-1.3687 0.85052-1.7925 1.5073-0.48559 0.75256-0.54065 1.5266-0.54065 1.5266l-0.01373 9.5984-3.6641 3e-5v-16.12l3.6641 0.0259v0.5258s0.51123-0.32468 1.2119-0.56399c0.72311-0.24696 1.646-0.40903 2.2847-0.42684 0.69525-0.0193 1.7882 0.10933 2.6467 0.44067 1.2083 0.46644 2.1049 1.1882 2.1049 1.1882z"/><path d="m67.783 39.187 2.1885 2.9335c-1.1431 0.84805-2.1909 0.90558-2.8713 0.90558-1.2731 0-2.5912-0.66552-3.3815-1.6533-0.76827-0.98776-1.0916-1.8772-1.0851-3.2161l0.0384-7.903h-3.6212v-3.6429h3.6212v-6.386h3.6538v6.386h3.6457v3.6429h-3.6457v8.2238s0.01893 0.28848 0.09373 0.40523c0.14332 0.22393 0.37049 0.434 0.63079 0.48845 0.13561 0.0285 0.36591-4e-3 0.52573-0.0625 0.1304-0.0477 0.20688-0.12146 0.20688-0.12146z"/><path d="m91.821 42.592-3.7012-2e-4v-0.41172s-2.0799 0.74688-3.1686 0.82949c-1.3242 0.1004-2.7063 0.0152-3.9624-0.41594-1.0073-0.34584-2.0447-0.87392-2.9528-1.5024-0.42877-0.29676-0.81296-0.62694-1.155-1.055-0.3922-0.49075-0.60697-1.1521-0.61885-1.7802-0.0156-0.82872 0.16409-1.7452 0.72721-2.3779 1.1556-1.2984 2.8738-2.1671 4.6297-2.5927 0.66219-0.1605 1.3147-0.2323 1.9664-0.30374 0.68823-0.0755 1.7315 0.0335 2.6062 0.24134 1.0446 0.24811 1.871 0.61083 1.871 0.61083s0.0952-0.60345 0.04733-0.90004c-0.07347-0.45517-0.29275-0.99829-0.50339-1.2884-0.51781-0.71304-1.4547-1.0456-2.2941-1.3137-0.29963-0.0957-0.62473-0.0819-0.93911-0.0924-0.38757-0.0136-0.77633 4e-3 -1.1628 0.0357-0.62513 0.0511-1.3615 0.14634-1.8652 0.24842-1.7255 0.34958-2.6787 0.8783-2.6787 0.8783l-1.4969-3.3374s1.2099-0.58144 2.8804-1.0029c1.313-0.33129 2.9942-0.53363 4.0297-0.48097 1.9687 0.1 3.9562 0.53297 5.3663 1.7474 1.41 1.2145 2.3749 2.8654 2.3749 4.8042zm-3.8321-4.5728s-0.68261-0.5486-1.5933-0.90943c-0.79821-0.3163-1.786-0.45106-2.45-0.44673-0.61395 4e-3 -1.6673 0.20315-2.4103 0.5034-0.91305 0.36897-1.4646 0.85276-1.4646 0.85276s0.47133 0.46441 1.3169 0.81371c0.79933 0.33017 1.9548 0.54629 2.6313 0.54688 0.66693 8e-4 1.6189-0.14783 2.413-0.47158 0.8716-0.35532 1.5569-0.88901 1.5569-0.88901z"/><path d="m130.36 42.592-3.7012-2e-4v-0.41172s-2.0799 0.74688-3.1686 0.82949c-1.3242 0.1004-2.7063 0.0152-3.9624-0.41594-1.0073-0.34584-2.0447-0.87392-2.9528-1.5024-0.42877-0.29676-0.81296-0.62694-1.155-1.055-0.3922-0.49075-0.60697-1.1521-0.61885-1.7802-0.0156-0.82872 0.16409-1.7452 0.72721-2.3779 1.1556-1.2984 2.8738-2.1671 4.6297-2.5927 0.66219-0.1605 1.3148-0.2323 1.9664-0.30374 0.68823-0.0755 1.7315 0.0335 2.6062 0.24134 1.0446 0.24811 1.871 0.61083 1.871 0.61083s0.0952-0.60345 0.0473-0.90004c-0.0735-0.45517-0.29274-0.99829-0.50338-1.2884-0.51782-0.71304-1.4547-1.0456-2.2942-1.3137-0.29963-0.0957-0.62473-0.0819-0.93911-0.0924-0.38757-0.0136-0.77633 4e-3 -1.1628 0.0357-0.62513 0.0511-1.3615 0.14634-1.8652 0.24842-1.7255 0.34958-2.6786 0.8783-2.6786 0.8783l-1.4969-3.3374s1.2099-0.58144 2.8804-1.0029c1.313-0.33129 2.9942-0.53363 4.0297-0.48097 1.9687 0.1 3.9562 0.53297 5.3663 1.7474 1.41 1.2145 2.3749 2.8654 2.3749 4.8042zm-3.8321-4.5728s-0.68261-0.5486-1.5932-0.90943c-0.79821-0.3163-1.786-0.45106-2.45-0.44673-0.61395 4e-3 -1.6674 0.20315-2.4103 0.5034-0.91305 0.36897-1.4646 0.85276-1.4646 0.85276s0.47133 0.46441 1.3169 0.81371c0.79933 0.33017 1.9548 0.54629 2.6312 0.54688 0.66693 8e-4 1.6189-0.14783 2.413-0.47158 0.8716-0.35532 1.5569-0.88901 1.5569-0.88901z"/><path d="m194.27 42.592-3.7012-2e-4v-0.41172s-2.08 0.74688-3.1686 0.82949c-1.3242 0.1004-2.7063 0.0152-3.9624-0.41594-1.0073-0.34584-2.0447-0.87392-2.9528-1.5024-0.42878-0.29676-0.81296-0.62694-1.155-1.055-0.3922-0.49075-0.60698-1.1521-0.61886-1.7802-0.0156-0.82872 0.1641-1.7452 0.72722-2.3779 1.1556-1.2984 2.8738-2.1671 4.6297-2.5927 0.66218-0.1605 1.3147-0.2323 1.9664-0.30374 0.68822-0.0755 1.7315 0.0335 2.6062 0.24134 1.0446 0.24811 1.871 0.61083 1.871 0.61083s0.0952-0.60345 0.0473-0.90004c-0.0735-0.45517-0.29275-0.99829-0.50339-1.2884-0.51781-0.71304-1.4547-1.0456-2.2942-1.3137-0.29962-0.0957-0.62473-0.0819-0.9391-0.0924-0.38758-0.0136-0.77634 4e-3 -1.1628 0.0357-0.62514 0.0511-1.3615 0.14634-1.8652 0.24842-1.7255 0.34958-2.6786 0.8783-2.6786 0.8783l-1.4969-3.3374s1.2099-0.58144 2.8804-1.0029c1.313-0.33129 2.9942-0.53363 4.0297-0.48097 1.9687 0.1 3.9562 0.53297 5.3663 1.7474 1.41 1.2145 2.3749 2.8654 2.3749 4.8042zm-3.8321-4.5728s-0.68262-0.5486-1.5933-0.90943c-0.79821-0.3163-1.786-0.45106-2.45-0.44673-0.61394 4e-3 -1.6673 0.20315-2.4103 0.5034-0.91305 0.36897-1.4646 0.85276-1.4646 0.85276s0.47134 0.46441 1.3169 0.81371c0.79933 0.33017 1.9548 0.54629 2.6312 0.54688 0.66694 8e-4 1.6189-0.14783 2.413-0.47158 0.8716-0.35532 1.557-0.88901 1.557-0.88901z"/><path d="m401.09 39.187 2.1884 2.9335c-1.1431 0.84805-2.1909 0.90558-2.8713 0.90558-1.2731 0-2.5912-0.66552-3.3814-1.6533-0.76827-0.98776-1.0916-1.8772-1.0851-3.2161l0.0384-7.903h-3.6212v-3.6429h3.6212v-6.386h3.6538v6.386h3.6457v3.6429h-3.6457v8.2238s0.0189 0.28848 0.0937 0.40523c0.14332 0.22393 0.37049 0.434 0.63078 0.48845 0.13562 0.0285 0.36591-4e-3 0.52574-0.0625 0.1304-0.0477 0.20688-0.12146 0.20688-0.12146z"/><g stroke-width=".25603"><path d="m411.81 21.117v3.8108h3.7964v-3.8108zm0 5.4053v16.671h3.7964v-16.671z"/><path d="m380.04 21.117v3.8108h3.7964v-3.8108zm0 5.4053v16.671h3.7964v-16.671z"/><path d="m243.12 26.522v16.671h3.7964v-16.671z"/></g><path d="m478.19 43.07h-4.5654l-5.8053-7.7323-1.5437 1.3001v6.4322h-3.6649v-22.953h3.6649v11.707l6.2596-5.2908h5.6548l-7.5734 6.4185z" stroke-width=".026632"/><path d="m271.41 30.198-9.1894 9.2004h9.1894v3.6977l-15.649-2e-5 2e-5 -3.6977 9.1894-9.2004h-9.1894v-3.6758h15.649z" stroke-width=".16633"/><path d="m170.63 43.286h-3.7628l3e-5 -8.6584s-0.24486-1.6766-0.75946-2.2978c-0.38085-0.45979-0.8198-0.96687-1.3786-1.3364-0.80798-0.53421-1.7788-0.83934-2.4521-0.78846-0.31872 0.0241-0.66499 0.016-0.98922 0.078-0.81368 0.15974-1.5889 0.51386-2.179 1.0573-0.4749 0.43738-1.0522 1.2194-1.3332 1.9911-0.27919 0.76679-0.26357 1.5247-0.26357 1.5247v8.4299h-3.7314v-8.6584s-0.0421-0.692-0.31191-1.4267c-0.20589-0.56089-0.59192-1.1467-0.91157-1.4684-0.42458-0.42741-0.9175-0.83551-1.4841-1.1039-0.65429-0.30997-1.3974-0.44738-2.0929-0.43577-0.79444 0.0137-1.6243 0.26468-2.3244 0.70216-0.38252 0.23904-0.70634 0.55803-1.0107 0.86757-0.33123 0.33686-0.69036 0.93856-0.90308 1.5049-0.22498 0.5989-0.29415 1.154-0.29415 1.154l-0.0223 8.8646h-3.7063v-16.378h3.7063v0.97816s0.73464-0.53773 1.7442-0.91489c1.0142-0.37892 2.3052-0.59715 3.1549-0.52307 0.99613 0.0869 2.5484 0.33563 3.7043 0.97229 1.5564 0.8573 2.6049 2.1489 2.6049 2.1489s0.57255-0.64007 0.89855-0.91753c0.54016-0.45974 1.2255-0.96646 1.7388-1.2268 1.1563-0.58656 2.4663-0.98568 3.7629-0.98568 1.4745 0 2.9808 0.42198 4.2792 1.121 1.0854 0.58433 2.017 1.4808 2.752 2.4704 0.5734 0.77214 0.97362 1.6768 1.2243 2.6127 0.23216 0.86666 0.27012 1.5993 0.27012 1.5993z" stroke-width=".16898"/><path d="m516.17 43.286h-3.7629l3e-5 -8.6584s-0.24485-1.6766-0.75945-2.2978c-0.38086-0.45979-0.8198-0.96687-1.3787-1.3364-0.80797-0.53421-1.7788-0.83934-2.4521-0.78846-0.31872 0.0241-0.66498 0.016-0.98921 0.078-0.81368 0.15974-1.5889 0.51386-2.179 1.0573-0.47489 0.43738-1.0522 1.2194-1.3331 1.9911-0.27919 0.76679-0.26358 1.5247-0.26358 1.5247v8.4299h-3.7314v-8.6584s-0.0421-0.692-0.31191-1.4267c-0.20589-0.56089-0.59192-1.1467-0.91157-1.4684-0.42457-0.42741-0.91749-0.83551-1.4841-1.1039-0.6543-0.30997-1.3974-0.44738-2.0929-0.43577-0.79444 0.0137-1.6243 0.26468-2.3244 0.70216-0.38252 0.23904-0.70633 0.55803-1.0107 0.86757-0.33123 0.33686-0.69036 0.93856-0.90308 1.5049-0.22497 0.5989-0.29415 1.154-0.29415 1.154l-0.0223 8.8646h-3.7064v-16.378h3.7064v0.97816s0.73464-0.53773 1.7442-0.91489c1.0142-0.37892 2.3052-0.59715 3.1549-0.52307 0.99614 0.0869 2.5484 0.33563 3.7043 0.97229 1.5564 0.8573 2.6049 2.1489 2.6049 2.1489s0.57254-0.64007 0.89854-0.91753c0.54016-0.45974 1.2255-0.96646 1.7388-1.2268 1.1563-0.58656 2.4662-0.98568 3.7628-0.98568 1.4745 0 2.9809 0.42198 4.2792 1.121 1.0854 0.58433 2.0171 1.4808 2.752 2.4704 0.5734 0.77214 0.97363 1.6768 1.2243 2.6127 0.23216 0.86666 0.27012 1.5993 0.27012 1.5993z" stroke-width=".16898"/><path d="m102.56 20.234 0.0148 22.844h3.6379l-0.0147-22.844z" stroke-width=".24533"/><path d="m231.46 43.009-4.0872 4e-3v-9.1399h-10.037v9.1396h-4.1114l6.6e-4 -22.844h4.1113v9.1299h10.037v-9.1299h4.092z"/><path d="m301.79 24.265h-6.6268v18.748h-4.1288v-18.748l-6.5936-1.3e-4v-4.096h17.349z"/><path d="m316.22 26.484a8.3221 8.3221 0 0 0-8.3008 8.3214 8.3221 8.3221 0 0 0 8.3223 8.3224 8.3221 8.3221 0 0 0 5.5414-2.1142l-2.4703-2.7624a4.6163 4.6163 0 0 1-3.0712 1.1706 4.6163 4.6163 0 0 1-4.22-2.748h12.336a8.3221 8.3221 0 0 0 0.21373-1.8685 8.3221 8.3221 0 0 0-8.3213-8.3214 8.3221 8.3221 0 0 0-0.022 0zm0 3.706a4.6163 4.6163 0 0 1 0.028 0 4.6163 4.6163 0 0 1 4.2356 2.781h-8.4711a4.6163 4.6163 0 0 1 4.2088-2.781z"/><path d="m357.93 49.413v-7.8422c1.3212 0.89189 2.9103 1.4174 4.6242 1.4174h0.0219c4.5644-0.012 8.258-3.7163 8.2582-8.2808 2e-4 -4.5736-3.7073-8.2816-8.2808-8.2818-1.7141 5e-5 -3.303 0.52544-4.6242 1.4174v-1.4164h-3.6678v22.986zm4.654-10.108c-0.0199 4e-5 -0.0199 4e-5 -0.0299 0-2.5392 5e-5 -4.5976-2.0583-4.5976-4.5975 0-2.5391 2.0584-4.5975 4.5976-4.5974 2.539-7e-5 4.5976 2.0583 4.5974 4.5974 2e-4 2.5275-2.0401 4.5811-4.5676 4.5975z"/><path d="m345.81 38.417c-0.0143 0.85357-0.19187 1.6215-0.56695 2.3245-0.25623 0.48022-0.57863 0.94895-1.1056 1.32-0.26888 0.18501-0.59324 0.27033-0.91654 0.36385-0.33598 0.0975-0.67292 0.20039-1.0595 0.27981-1.0379 0.21379-2.2356 0.39803-3.4496 0.41062-2.8097-0.0433-5.2728-0.51143-7.6103-1.7303l1.638-3.306c2.0069 1.0666 4.0717 1.3014 5.8661 1.3232 0.48507 0 1.2024-0.0339 1.7969-0.11733 0.55413-0.0775 1.6406-0.35535 1.6406-0.35535s0.0645-0.19221 0.0751-0.29189c0.0107-0.0993-4e-3 -0.2223-0.012-0.29944-9e-3 -0.0923-0.0248-0.19355-0.0845-0.26446-0.1012-0.11973-0.1848-0.26576-0.32153-0.34284-0.28193-0.1592-0.63649-0.21934-0.95783-0.3197-0.80922-0.25204-1.6284-0.47119-2.4423-0.70795-0.4822-0.14024-0.96442-0.28047-1.4462-0.42219-0.3096-0.0912-0.61946-0.18141-0.92822-0.27524-0.6549-0.19906-1.3355-0.33186-1.9605-0.61102-0.44105-0.19712-0.97193-0.49147-1.2444-0.74267-0.8972-0.87064-1.4337-1.7449-1.564-2.8085-0.15145-1.2365 0.26112-2.757 0.97648-3.6074 0.26836-0.31904 0.49124-0.55721 0.80814-0.73793 0.37638-0.21476 0.82354-0.27163 1.2431-0.37983 0.60063-0.15468 1.2068-0.29519 1.8207-0.38324 0.8314-0.1192 1.758-0.19547 2.5122-0.19547 2.3139 0 4.4064 0.45716 6.3686 1.3026l-1.4102 3.3911c-1.3082-0.61238-3.5672-1.0021-5.3989-1.0257-1.0769-0.0133-3.1886 0.52091-3.1886 0.52091s-0.0981 0.21901-0.1 0.33562c-3e-3 0.21283 0.024 0.45667 0.1636 0.61768 0.3538 0.40842 0.9826 0.45359 1.4919 0.63416 0.41613 0.1477 0.84898 0.24287 1.2732 0.36527 0.74285 0.21476 1.4948 0.44573 2.2274 0.64765 1.3555 0.37352 3.3123 0.70842 4.459 1.8346 0.84283 0.82774 1.3837 1.6419 1.4073 3.2526z" stroke-width=".081856"/><path d="m441.76 43.037c-2.4896-0.0517-5.0736-0.79773-7.1876-2.0757-0.65567-0.39647-0.9484-0.60903-0.93235-0.67691 0.012-0.0528 2.2024-3.1446 2.3078-3.2584 0.0435-0.0465 0.0869-0.0281 0.31881 0.13227 1.2886 0.88948 3.0472 1.5306 4.6598 1.699 1.8252 0.1905 3.5213-0.0512 5.187-0.73824 0.1324-0.0549 0.32941-0.13586 0.43771-0.18033 0.36156-0.14877 0.82464-0.72165 1.0407-1.2875 0.39036-1.0223 0.1048-2.1663-0.73752-2.9477-0.14463-0.13434-0.25792-0.18957-0.92619-0.45133-0.78354-0.30692-1.3214-0.45208-2.3081-0.62288-0.52949-0.0919-0.65473-0.0989-2.0916-0.116l-1.5283-0.0184v-4.1036l1.343-3.7e-4c0.73868 0 1.4931-0.0171 1.6765-0.0375 1.0577-0.1172 1.9939-0.40358 2.9986-0.9184 0.68078-0.34895 0.70298-0.36387 0.75204-0.50775 0.12094-0.35348 0.0941-0.86881-0.0645-1.2293-0.0655-0.14901-0.0929-0.16692-0.71932-0.47282-0.35837-0.17499-0.74111-0.35156-0.85029-0.39252-0.38148-0.14267-1.0956-0.32948-1.6412-0.42946-0.49035-0.09-0.64225-0.10133-1.4021-0.10386-0.77882-3e-3 -0.90309 7e-3 -1.4449 0.1024-0.68411 0.12133-1.0444 0.21961-1.6664 0.45561-0.59563 0.22596-1.5235 0.72049-1.9096 1.0176l-0.13093 0.1008-0.90699-1.2424c-0.49889-0.68327-1.045-1.4343-1.2138-1.669l-0.30672-0.42655 0.45498-0.30268c0.59162-0.39348 1.009-0.62949 1.704-0.96276 0.51395-0.24664 1.3218-0.5628 1.6037-0.62778 0.0613-0.014 0.24463-0.0655 0.40769-0.11387 0.46252-0.13693 0.94567-0.24171 1.3799-0.29907 0.21902-0.0293 0.51516-0.0685 0.65782-0.0875 1.0366-0.13822 2.9881-0.0471 3.8717 0.18188 0.0716 0.0185 0.32882 0.0761 0.57218 0.12747 0.43095 0.0915 1.3112 0.3798 1.9473 0.63839 0.51228 0.20813 1.6412 0.82992 2.1925 1.2076 0.28292 0.1938 0.35247 0.26531 0.57892 0.5956 0.80776 1.1781 1.1608 2.5158 1.0441 3.9558-0.0503 0.61764-0.29962 1.5284-0.55952 2.0426-0.15078 0.29851-0.51633 0.86204-0.74885 1.1545l-0.23336 0.29354 0.25881 0.23749c1.0842 0.99509 1.783 2.2356 2.1025 3.7325 0.0937 0.43792 0.13818 1.7105 0.0764 2.1675-0.17152 1.264-0.74939 2.5872-1.5337 3.5114-0.34864 0.41073-0.89034 0.91882-1.2013 1.1267-0.28701 0.19185-0.83017 0.47123-1.1723 0.60279-0.1268 0.0491-0.41415 0.16385-0.63949 0.25598-0.78923 0.3224-2.3179 0.71447-3.1842 0.81624-0.90463 0.10667-1.1667 0.1308-1.5375 0.14056-0.23441 7e-3 -0.59276 8e-3 -0.79668 4e-3z" stroke-width=".010939"/><path d="m341.53 182.17v20.612h44.208v-20.612zm-12.815 6.9587-3.7119 9.3734v10.529h2.2426s-0.025-0.6824 0.22186-1.5538c0.20682-0.73322 0.62114-1.593 1.2512-2.3569 0.52565-0.63726 1.325-1.1606 2.1496-1.528 0.85022-0.37871 1.5451-0.56408 2.3541-0.59626 0.59038-0.0231 1.1968 0.083 1.7474 0.29741 1.1066 0.43125 2.258 1.0008 2.9908 1.9368 0.58339 0.74531 0.96785 1.6222 1.1562 2.3643 0.203 0.79885 0.1866 1.4365 0.1866 1.4365h27.145s0.0178-0.32044 0.0841-0.79928c0.0682-0.48088 0.21536-1.0488 0.36266-1.4067 0.15683-0.38162 0.44857-0.92309 0.76217-1.3509 0.20258-0.2765 0.41003-0.50897 0.55254-0.65921 0.10981-0.11589 0.18083-0.18271 0.18085-0.18271h-28.687v-15.503zm0.56478 2.5627h8.5529v5.9672h-10.914zm4.0004 12.782c-2.5062 0-4.5582 2.0561-4.5582 4.5516 0 2.4956 2.052 4.5525 4.5582 4.5525 2.5062-1e-5 4.5591-2.0569 4.5591-4.5525 0-2.4955-2.0529-4.5516-4.5591-4.5516zm39.192 0c-2.5063 0-4.5582 2.0561-4.5582 4.5516 0 2.4956 2.0518 4.5525 4.5582 4.5525 2.5063-1e-5 4.5595-2.0569 4.5595-4.5525 0-2.4955-2.0532-4.5516-4.5595-4.5516zm4.1164 0.15832s0.375 0.35266 0.73398 0.8424c0.31357 0.42779 0.60488 0.96974 0.76166 1.3514 0.14692 0.35784 0.29603 0.92394 0.3641 1.4048 0.0691 0.47882 0.054 0.87297 0.054 0.87297l7.2344-2.354v-2.1176zm-43.309 2.3676c1.126 2e-5 2.0189 0.88795 2.0189 2.0256 0 1.1376-0.89292 2.027-2.0189 2.027-1.1261 0-2.0181-0.88937-2.0181-2.027 0-1.1376 0.89201-2.0256 2.0181-2.0256zm39.192 0c1.1261 2e-5 2.019 0.88795 2.019 2.0256 0 1.1376-0.89292 2.027-2.019 2.027s-2.018-0.88937-2.018-2.027c0-1.1376 0.89194-2.0256 2.018-2.0256z" fill-rule="evenodd"/></g><path d="m258.92 139.15c-0.4664 0-1.5055 0.30374-2.1664 0.80664-0.44815 0.341-0.87131 0.7821-1.323 1.2651-2.0418 2.1835-7.4374 7.8575-7.4374 7.8575s-0.54016 0.60097-0.90835 0.71667c-0.61141 0.19208-1.7891 0.417-2.4089 0.5469-2.077 0.43517-3.3367 0.68766-6.227 1.2815-0.48317 0.0993-1.2103 0.19966-1.679 0.55782-0.40281 0.30782-0.54842 0.56413-0.84184 1.2667-0.42246 1.0116-1.0711 2.4003-1.0711 2.4003v4.6388c2e-5 0.5992 0.48206 1.0813 1.0813 1.0813h1.7118v-0.0406c0-3.5284 2.841-6.3686 6.3694-6.3686 3.5284 0 6.3686 2.8402 6.3686 6.3686v0.0406h28.408v-0.0406c0-3.5284 2.8402-6.3686 6.3686-6.3686 3.5284 0 6.3694 2.8402 6.3694 6.3686v0.0406h2.8792c0.5992 0 1.082-0.48206 1.082-1.0813v-19.266c0-1.1475-0.92426-2.0717-2.0717-2.0717zm-0.0408 1.9755h6.1018c0.55308 0 0.99831 0.44526 0.99831 0.99832v8.7534c0 0.55305-0.44523 0.99832-0.99831 0.99832h-12.366c-2.0374 0-2.614-2.2593-1.4896-3.4503l5.0581-5.3586c0.79707-0.84432 1.5349-1.9411 2.6961-1.9411zm9.9394 5.6e-4h9.8956c0.55306 0 0.99833 0.44524 0.99833 0.99831v8.7525c0 0.55308-0.44527 0.99831-0.99833 0.99831h-9.8956c-0.5531 0-0.99834-0.44523-0.99834-0.99831v-8.7525c0-0.55307 0.44524-0.99831 0.99834-0.99831zm13.601 0h9.8956c0.55308 0 0.99834 0.44524 0.99834 0.99831v8.7525c0 0.55308-0.44526 0.99831-0.99834 0.99831h-9.8956c-0.55308 0-0.99834-0.44523-0.99834-0.99831v-8.7525c0-0.55307 0.44526-0.99831 0.99834-0.99831zm-38.47 15.485a4.9357 4.9357 0 0 0-4.868 4.9353 4.9357 4.9357 0 0 0 4.9353 4.9361 4.9357 4.9357 0 0 0 4.9361-4.9361 4.9357 4.9357 0 0 0-4.9361-4.9353 4.9357 4.9357 0 0 0-0.0674 0zm41.146 0a4.9357 4.9357 0 0 0-4.868 4.9353 4.9357 4.9357 0 0 0 4.9353 4.9361 4.9357 4.9357 0 0 0 4.9361-4.9361 4.9357 4.9357 0 0 0-4.9361-4.9353 4.9357 4.9357 0 0 0-0.0674 0zm-41.078 3.3768a1.5588 1.5588 0 0 1 1.5593 1.5585 1.5588 1.5588 0 0 1-1.5593 1.5593 1.5588 1.5588 0 0 1-1.5585-1.5593 1.5588 1.5588 0 0 1 1.5585-1.5585zm41.146 0a1.5588 1.5588 0 0 1 1.5593 1.5585 1.5588 1.5588 0 0 1-1.5593 1.5593 1.5588 1.5588 0 0 1-1.5585-1.5593 1.5588 1.5588 0 0 1 1.5585-1.5585z" stroke-width="2.1785" style="paint-order:stroke fill markers"/><path d="m168.43 160.61-9.8084 7.7688-12.103 0.86031-1.4914 4.4755 2.4957 4.9456 5.0186 0.78031s0.0504-1.9492 1.1616-3.3668c0.54835-0.69954 1.3124-1.28 2.165-1.6303 0.70494-0.28966 1.4968-0.41098 2.042-0.41304 0.58234-1e-3 1.3754 0.0891 2.1116 0.40883 0.87423 0.37961 1.6884 1.0468 2.2511 1.7782 1.0333 1.3429 1.053 3.1885 1.053 3.1885h23.002s0.0696-1.9313 1.1592-3.3331c0.47698-0.61366 1.1794-1.191 1.9124-1.5367 0.77925-0.36759 1.593-0.48453 2.2062-0.49026 0.58643-6e-3 1.4261 0.0459 2.1889 0.38126 0.8716 0.38319 1.6634 1.0958 2.2197 1.8001 1.0779 1.3645 1.0694 3.1787 1.0694 3.1787l6.7972-0.516 1.3478-5.3474-0.77375-5.1636h-9.8384l-7.8577-7.7688zm0.28725 1.6757h6.1956v6.0931h-13.681zm7.6869 0h6.1091l4.1012 6.0931h-10.21zm-18.451 12.587c-2.4953 0-4.5382 2.047-4.5382 4.5316s2.0429 4.533 4.5382 4.533 4.5396-2.0484 4.5396-4.533-2.0443-4.5316-4.5396-4.5316zm33.74 0c-2.4953 0-4.5381 2.047-4.5381 4.5316s2.0429 4.533 4.5381 4.533c2.4953 0 4.5396-2.0484 4.5396-4.533s-2.0443-4.5316-4.5396-4.5316zm-33.74 2.5149c1.1211 0 2.0101 0.88404 2.0101 2.0167s-0.88902 2.0181-2.0101 2.0181c-1.1211 0-2.0088-0.88548-2.0088-2.0181s0.88763-2.0167 2.0088-2.0167zm33.74 0c1.1211 0 2.0102 0.88404 2.0102 2.0167s-0.88904 2.0181-2.0102 2.0181-2.0092-0.88548-2.0092-2.0181 0.88808-2.0167 2.0092-2.0167z" fill-rule="evenodd"/><path d="m291.98 193.91a0.41489 0.41489 0 0 0-0.0594 4e-3h-48.298v8.4138h50.726c-0.0536-0.77175 0.0785-1.5522-0.17402-2.3211-0.61211-1.9032-1.1928-3.8242-1.7731-5.7419a0.41489 0.41489 0 0 0-0.42353-0.35641zm-54.246 0.0355c-0.14792 2.8055-0.29287 5.5879-0.43778 8.3876h5.2399v-8.3876zm53.355 1.564a0.39748 0.39748 0 0 1 0.40035 0.33683c0.48177 1.5754 0.96908 3.1449 1.4506 4.7174 0.0296 0.0983 0.0478 0.19721 0.0785 0.316h-10.076l-0.0139-5.3646h8.0967a0.39748 0.39748 0 0 1 0.0612-4e-3zm-18.882 0.0238v5.3442h-8.3617v-5.3357zm-33.73 4e-3h3.1478v5.3413h-3.3887v-4e-3c0.0814-1.796 0.15974-3.563 0.2406-5.3357zm34.906 0h8.399v5.3385h-8.399zm-28.639 4e-3h8.4053l-4e-3 5.3272h-8.4003zm9.5454 0h8.3962l-4e-3 5.3272h-8.3906zm-17.222 7.761c-0.12169 1.1431-0.23818 2.2631-0.35701 3.3801-0.11838 1.1219-0.23523 2.2426-0.35107 3.3626h5.423a4.822 4.822 0 0 1 4.2907-5.3294 4.6421 4.6421 0 0 1 3.421 0.98939c1.3926 1.0967 1.9729 2.5821 1.8365 4.3519h23.834c-0.26374-2.968 1.9006-5.3297 4.7526-5.3674a4.5696 4.5696 0 0 1 3.2351 1.2443 4.7668 4.7668 0 0 1 1.5634 4.0154l9.5976-0.69645v-5.9505zm9.4786 2.4315a3.7427 3.7427 0 0 0-0.0138 7.485 3.7282 3.7282 0 0 0 3.7547-3.664 3.7427 3.7427 0 0 0-3.7456-3.821zm33.398 0a3.7427 3.7427 0 0 0-4e-3 7.485 3.7166 3.7166 0 0 0 3.7541-3.7161 3.7427 3.7427 0 0 0-3.7473-3.7689zm-33.389 2.3527a1.4187 1.4187 0 0 1 1.4014 1.3957 1.4507 1.4507 0 0 1-1.4042 1.4042 1.4129 1.4129 0 0 1-1.3929-1.4042 1.3926 1.3926 0 0 1 1.3956-1.3957zm33.38 0a1.4071 1.4071 0 0 1 1.3894 1.4013 1.4303 1.4303 0 0 1-1.4042 1.3986 1.4042 1.4042 0 0 1-1.3782-1.4133 1.3839 1.3839 0 0 1 1.3929-1.3866z" stroke-width=".29013"/><path d="m337.86 136.28c-1.5153 0-2.5196 1.3542-3.0935 2.7354l-3.7487 6.9641-4.0672 1.4368c-0.25563 0.0902-0.56884 0.1664-0.79727 0.31013-0.43886 0.27623-0.71413 0.70169-0.71413 1.2527v10.909c0 0.83754 0.67372 1.5114 1.5114 1.5114h1.3746c-6e-5 -0.0111-1e-3 -0.0208-1e-3 -0.0314 0-3.5764 2.9294-6.5066 6.5057-6.5066 3.5764 0 6.5073 2.9302 6.5073 6.5066 0 0.0111-1e-3 0.0209-1e-3 0.0314h26.819c-4e-5 -0.0111-1e-3 -0.0208-1e-3 -0.0314 0-3.5764 2.9303-6.5066 6.5065-6.5066 3.5762 0 6.5064 2.9302 6.5064 6.5066 0 0.0111-1e-3 0.0209-1e-3 0.0314h2.9499c0.847 0 1.5292-0.68144 1.5292-1.5285v-11.229h-36.3v-12.363h-10.481zm1.5177 1.9h6.9572v9.0663h-12.448c-0.18922 0-0.35433-0.0682-0.47559-0.1834-0.2364-0.22491-0.28937-0.58788-0.15545-0.83612l3.5241-6.5361c0.63775-1.1828 1.8661-1.5106 2.5977-1.5106zm-4.5475 18.129c-2.794 0-5.0588 2.2656-5.0588 5.0597 0 2.794 2.2648 5.0588 5.0588 5.0588 2.7941 0 5.0588-2.2648 5.0588-5.0588 0-2.7941-2.2647-5.0597-5.0588-5.0597zm39.829 0c-2.794 0-5.0588 2.2656-5.0588 5.0597 0 2.794 2.2648 5.0588 5.0588 5.0588s5.0588-2.2648 5.0588-5.0588c0-2.7941-2.2647-5.0597-5.0588-5.0597zm-39.829 2.5676a2.4916 2.4916 0 0 1 2.4914 2.4921 2.4916 2.4916 0 0 1-2.4914 2.4913 2.4916 2.4916 0 0 1-2.4913-2.4913 2.4916 2.4916 0 0 1 2.4913-2.4921zm39.829 0a2.4916 2.4916 0 0 1 2.4913 2.4921 2.4916 2.4916 0 0 1-2.4913 2.4913 2.4916 2.4916 0 0 1-2.4914-2.4913 2.4916 2.4916 0 0 1 2.4914-2.4921z" style="paint-order:stroke fill markers"/></g></svg>