<?xml version="1.0" encoding="UTF-8" standalone="no"?>
<svg
   xmlns:dc="http://purl.org/dc/elements/1.1/"
   xmlns:cc="http://creativecommons.org/ns#"
   xmlns:rdf="http://www.w3.org/1999/02/22-rdf-syntax-ns#"
   xmlns:svg="http://www.w3.org/2000/svg"
   xmlns="http://www.w3.org/2000/svg"
   xmlns:sodipodi="http://sodipodi.sourceforge.net/DTD/sodipodi-0.dtd"
   xmlns:inkscape="http://www.inkscape.org/namespaces/inkscape"
   viewBox="0 0 529.46264 227.14504"
   version="1.1"
   id="svg86372"
   sodipodi:docname="Turkey_road_sign_B-61e.svg"
   width="529.46265"
   height="227.14503"
   inkscape:version="1.0 (4035a4fb49, 2020-05-01)">
  <metadata
     id="metadata86376">
    <rdf:RDF>
      <cc:Work
         rdf:about="">
        <dc:format>image/svg+xml</dc:format>
        <dc:type
           rdf:resource="http://purl.org/dc/dcmitype/StillImage" />
        <dc:title></dc:title>
      </cc:Work>
    </rdf:RDF>
  </metadata>
  <sodipodi:namedview
     inkscape:document-rotation="0"
     pagecolor="#ffffff"
     bordercolor="#666666"
     borderopacity="1"
     objecttolerance="10"
     gridtolerance="10"
     guidetolerance="10"
     inkscape:pageopacity="0"
     inkscape:pageshadow="2"
     inkscape:window-width="1920"
     inkscape:window-height="1001"
     id="namedview86374"
     showgrid="false"
     inkscape:zoom="1.7748307"
     inkscape:cx="432.21065"
     inkscape:cy="-32.056083"
     inkscape:window-x="-9"
     inkscape:window-y="-9"
     inkscape:window-maximized="1"
     inkscape:current-layer="svg86372" />
  <defs
     id="defs86346">
    <style
       id="style86344">
      .cls-1 {
        fill: #00408c;
        fill-rule: evenodd;
      }

      .cls-2 {
        fill: #fff;
      }
    </style>
  </defs>
  <path
     id="rect845-4-3"
     style="font-size:24.9647px;line-height:97.02%;font-family:BywayEMod;-inkscape-font-specification:BywayEMod;text-align:center;text-anchor:middle;opacity:1;fill:#00408c;fill-opacity:1;fill-rule:evenodd;stroke:none;stroke-width:0.188908;stroke-linecap:round;stroke-linejoin:round;stroke-miterlimit:4;stroke-dasharray:none;stroke-opacity:1;paint-order:fill markers stroke"
     d="M 0.094454,0.094454 V 227.05058 H 529.3682 V 0.094454 Z"
     sodipodi:nodetypes="ccccc" />
  <rect
     transform="scale(-1,1)"
     style="opacity:1;fill:#ffffff;stroke-width:1.00912"
     id="rect183615"
     width="90.571289"
     height="90.530518"
     x="-117.33072"
     y="87.195442" />
  <path
     d="m 74.948513,99.485604 c 4.130073,0 7.45634,3.323806 7.45634,7.453876 v 51.04238 c 0,4.13006 -3.326267,7.45388 -7.45634,7.45388 H 38.256414 c -4.130022,0 -7.453837,-3.32382 -7.453837,-7.45388 v -51.04238 c -2e-5,-4.13007 3.323815,-7.453876 7.453837,-7.453876 z m -7.007997,4.468816 h -0.003 c -0.01776,-5e-5 -0.03552,-5e-5 -0.0552,0 -4.664009,-4.2e-4 -8.445077,3.78063 -8.444734,8.44484 10e-4,4.66307 3.781653,8.44255 8.444734,8.4422 4.663182,3.5e-4 8.443796,-3.77913 8.444825,-8.4422 4.84e-4,-4.64195 -3.746001,-8.41385 -8.387759,-8.44484 z m -0.01211,4.42929 c 2.200148,0.0243 3.970692,1.81511 3.970863,4.01555 -2.92e-4,2.2176 -1.797901,4.01519 -4.015487,4.01541 -2.217686,-2.2e-4 -4.015254,-1.79781 -4.015466,-4.01541 2.12e-4,-2.21776 1.79778,-4.01533 4.015466,-4.01555 0.01403,-8e-5 0.02947,-8e-5 0.04471,0 z m 21.160061,1.85781 v 37.64091 h -3.091606 v -37.64091 z m 6.495222,2.73481 v 34.7575 h -3.039525 v -34.7575 z m 6.341591,4.87262 v 6.49523 h 11.36275 v 20.43919 h -11.36282 v 6.39366 0.75301 3.30471 H 85.996791 v -4.05772 h 13.040194 v -33.32808 z m -50.512422,13.38924 c -0.02543,-5e-5 -0.05126,-5e-5 -0.0775,0 -7.523981,-7.8e-4 -13.62399,6.098 -13.624566,13.62198 5.76e-4,7.52411 6.100585,13.62291 13.624566,13.62205 7.522982,-5e-4 13.621518,-6.09891 13.622094,-13.62205 -4.14e-4,-7.49307 -6.052278,-13.57914 -13.54536,-13.62198 z m 0.128501,4.30036 c 5.075277,0.10132 9.136346,4.24539 9.135882,9.32162 -4.95e-4,5.14814 -4.173707,9.32111 -9.3216,9.3217 -5.149064,8.5e-4 -9.323669,-4.17264 -9.324154,-9.3217 4.85e-4,-5.1488 4.17509,-9.32238 9.324154,-9.32162 0.06216,-5.7e-4 0.123112,-5.7e-4 0.185718,0 z"
     style="opacity:1;fill:#000000;stroke:none;stroke-width:4.22989;stroke-miterlimit:4;stroke-dasharray:none;stroke-opacity:1;paint-order:stroke fill markers"
     id="path183617"
     sodipodi:nodetypes="sssssscsscsccccscccccscccccccccccccccccccccccccsccccsscscccc" />
  <path
     d="m 173.95857,55.746954 a 34.078514,34.078514 0 0 0 -34.07838,34.07839 34.078514,34.078514 0 0 0 34.07838,34.078366 34.078514,34.078514 0 0 0 34.07837,-34.078366 34.078514,34.078514 0 0 0 -34.07837,-34.07839 z"
     style="opacity:1;fill:#ffffff;fill-opacity:1;stroke:none;stroke-width:4.55159;stroke-miterlimit:4;stroke-dasharray:none;stroke-opacity:1;paint-order:stroke fill markers"
     id="path77248-3-8" />
  <path
     d="m 173.55491,56.589634 a 33.235838,33.235838 0 0 0 -32.83205,33.23571 33.235838,33.235838 0 0 0 33.23571,33.235676 33.235838,33.235838 0 0 0 33.23569,-33.235676 33.235838,33.235838 0 0 0 -33.23569,-33.23571 33.235838,33.235838 0 0 0 -0.40366,0 z m 0.40366,8.27947 a 24.953896,24.953896 0 0 1 24.95328,24.95624 24.953896,24.953896 0 0 1 -24.95328,24.953256 24.953896,24.953896 0 0 1 -24.9533,-24.953256 24.953896,24.953896 0 0 1 24.9533,-24.95624 z"
     style="opacity:1;fill:#ef0311;fill-opacity:1;stroke:none;stroke-width:4.43904;stroke-miterlimit:4;stroke-dasharray:none;stroke-opacity:1;paint-order:stroke fill markers"
     id="path77250-6-0" />
  <path
     id="path200227"
     style="opacity:1;fill:#ffffff;fill-opacity:1;stroke:none;stroke-width:4.55159;stroke-miterlimit:4;stroke-dasharray:none;stroke-opacity:1;paint-order:stroke fill markers"
     d="m 264.95882,55.746954 a 34.078514,34.078514 0 0 0 -34.07837,34.07839 34.078514,34.078514 0 0 0 34.07837,34.078366 34.078514,34.078514 0 0 0 34.07838,-34.078366 34.078514,34.078514 0 0 0 -34.07838,-34.07839 z" />
  <path
     id="path200229"
     style="opacity:1;fill:#ef0311;fill-opacity:1;stroke:none;stroke-width:4.43904;stroke-miterlimit:4;stroke-dasharray:none;stroke-opacity:1;paint-order:stroke fill markers"
     d="m 264.55517,56.589634 a 33.235838,33.235838 0 0 0 -32.83206,33.23571 33.235838,33.235838 0 0 0 33.23571,33.235676 33.235838,33.235838 0 0 0 33.2357,-33.235676 33.235838,33.235838 0 0 0 -33.2357,-33.23571 33.235838,33.235838 0 0 0 -0.40365,0 z m 0.40365,8.27947 a 24.953896,24.953896 0 0 1 24.95328,24.95624 24.953896,24.953896 0 0 1 -24.95328,24.953256 24.953896,24.953896 0 0 1 -24.95329,-24.953256 24.953896,24.953896 0 0 1 24.95329,-24.95624 z" />
  <path
     d="m 355.74083,55.746954 a 34.078514,34.078514 0 0 0 -34.07838,34.07839 34.078514,34.078514 0 0 0 34.07838,34.078366 34.078514,34.078514 0 0 0 34.07837,-34.078366 34.078514,34.078514 0 0 0 -34.07837,-34.07839 z"
     style="opacity:1;fill:#ffffff;fill-opacity:1;stroke:none;stroke-width:4.55159;stroke-miterlimit:4;stroke-dasharray:none;stroke-opacity:1;paint-order:stroke fill markers"
     id="path200237" />
  <path
     d="m 355.33717,56.589634 a 33.235838,33.235838 0 0 0 -32.83205,33.23571 33.235838,33.235838 0 0 0 33.23571,33.235676 33.235838,33.235838 0 0 0 33.23569,-33.235676 33.235838,33.235838 0 0 0 -33.23569,-33.23571 33.235838,33.235838 0 0 0 -0.40366,0 z m 0.40366,8.27947 a 24.953896,24.953896 0 0 1 24.95328,24.95624 24.953896,24.953896 0 0 1 -24.95328,24.953256 24.953896,24.953896 0 0 1 -24.9533,-24.953256 24.953896,24.953896 0 0 1 24.9533,-24.95624 z"
     style="opacity:1;fill:#ef0311;fill-opacity:1;stroke:none;stroke-width:4.43904;stroke-miterlimit:4;stroke-dasharray:none;stroke-opacity:1;paint-order:stroke fill markers"
     id="path200239" />
  <path
     sodipodi:nodetypes="scccccccccccsccccccsssssscccsccccc"
     d="m 163.3615,74.967454 c -1.91926,0 -3.8389,0.7521 -5.30713,2.25613 -2.92036,2.99411 -2.96896,7.84705 -0.12457,10.90531 -2.74383,3.42756 -3.26536,8.17172 -1.4025,12.121936 4.2e-4,4.9e-4 3.2e-4,0.001 4.6e-4,0.004 4.7e-4,0.001 4.9e-4,0.001 0.001,0.004 5.3e-4,10e-4 0.001,0.004 0.004,0.006 0.0202,0.0357 0.0341,0.0716 0.0542,0.10743 0.0976,0.20783 0.20439,0.40888 0.31792,0.60478 0.0214,0.0339 0.0347,0.0699 0.057,0.10441 0.006,0.008 0.0121,0.0141 0.0202,0.0202 2.4e-4,1.6e-4 4.2e-4,5.7e-4 4.2e-4,5.7e-4 1.36304,2.25483 3.76616,3.6603 6.38654,3.6603 2.61647,0 5.01776,-1.40301 6.38136,-3.65432 0.0121,-0.008 0.0214,-0.0181 0.0264,-0.0256 0.0379,-0.0657 0.0691,-0.13564 0.10602,-0.20246 0.0599,-0.10642 0.1159,-0.21474 0.17052,-0.32441 2.03798,-4.010056 1.56569,-8.911416 -1.25141,-12.427516 2.84042,-3.05859 2.79049,-7.90813 -0.1284,-10.90092 -1.46797,-1.50432 -3.38749,-2.25621 -5.30701,-2.25621 z m -3.6e-4,4.35243 c 1.8314,0 3.3144,1.52939 3.3144,3.42363 0,1.89395 -1.48302,3.42615 -3.3144,3.42615 -1.82943,0 -3.31455,-1.5322 -3.31455,-3.42615 0,-1.89424 1.48502,-3.42363 3.31455,-3.42363 z m 0,10.90617 c 1.28112,0 2.44518,0.76249 2.99356,1.95923 0.97012,1.97591 0.96591,4.31083 -0.008,6.27832 -0.55138,1.18581 -1.71002,1.943996 -2.98548,1.943996 -1.12053,0 -2.15422,-0.586706 -2.76216,-1.535216 -0.001,-0.008 -0.004,-0.0141 -0.008,-0.0216 -1.21941,-2.11862 -1.25323,-4.74299 -0.10018,-6.894 0.58642,-1.06254 1.67558,-1.73204 2.87032,-1.73204 z"
     style="font-size:24.9647px;line-height:97.02%;font-family:BywayEMod;-inkscape-font-specification:BywayEMod;text-align:center;text-anchor:middle;opacity:1;fill:#000000;fill-opacity:0.996466;fill-rule:nonzero;stroke:none;stroke-width:0.13116"
     id="path198241-7-4" />
  <path
     id="path39429"
     style="font-size:24.9647px;line-height:97.02%;font-family:BywayEMod;-inkscape-font-specification:BywayEMod;text-align:center;text-anchor:middle;opacity:1;fill:#000000;fill-opacity:0.996466;stroke:none;stroke-width:0.143384;stroke-linecap:round;stroke-linejoin:miter;stroke-miterlimit:10;stroke-opacity:1"
     d="m 183.29566,74.967664 c -0.48305,0.003 -0.97177,0.0511 -1.46057,0.14252 -3.90947,0.72984 -6.74164,4.14494 -6.74164,8.11902 a 0.12350931,0.12350931 0 0 0 0.003,0.003 0.13184847,0.13184847 0 0 0 0.13067,0.124 h 4.16381 a 0.13184847,0.13184847 0 0 0 0.132,-0.12573 0.13184847,0.13184847 0 0 0 0,-0.001 0.12350931,0.12350931 0 0 0 0.001,-10e-4 c 0,-1.84977 1.32173,-3.43529 3.14432,-3.76635 1.81906,-0.33105 3.61636,0.68514 4.26818,2.41539 0.65531,1.73387 -0.0224,3.6844 -1.60848,4.63659 a 0.12350931,0.12350931 0 0 0 -0.0424,0.0449 c -6.04781,4.02076 -9.6998,10.80116 -9.6998,18.081706 v 0.1228 h 0.24839 0.009 l 15.63718,-0.003 a 0.12350931,0.12350931 0 0 0 0.001,0 h 0.12267 v -0.12147 a 0.12350931,0.12350931 0 0 0 10e-4,-10e-4 v -4.32095 H 180.5661 c 1.06465,-4.115276 3.60028,-7.694436 7.1365,-10.057666 a 0.12350931,0.12350931 0 0 0 0.001,-0.007 c 3.38022,-2.09484 4.78961,-6.30273 3.35293,-10.00878 -1.25727,-3.24326 -4.38232,-5.30143 -7.76377,-5.27446 z" />
  <path
     sodipodi:nodetypes="cccccccc"
     id="path210955-9"
     style="font-style:normal;font-variant:normal;font-weight:normal;font-stretch:normal;font-size:88.293px;line-height:97.02%;font-family:'Highway Gothic Condensed';-inkscape-font-specification:'Highway Gothic Condensed, ';text-align:center;text-anchor:middle;opacity:1;fill:#000000;fill-opacity:0.996466;stroke-width:0.0991363"
     d="m 261.74594,79.121244 c -3.25454,4.55426 -8.00664,13.02019 -8.08024,25.699076 h -4.15101 c 0.0211,-9.307966 2.47523,-18.014296 7.17533,-25.668596 h -10.96368 v -4.30049 l 16.01955,-3.5e-4 z" />
  <path
     sodipodi:nodetypes="ccccccccccccccccccccccccccccccccccccccccccccccccscccccscsscccccccccccccccccccccccc"
     d="m 275.59088,74.938074 c -0.005,-2.8e-4 -0.0107,-1.2e-4 -0.0184,6.3e-4 -3.06548,0.004 -5.81802,1.93006 -6.96211,4.86362 -0.012,0.0107 -0.0205,0.0228 -0.0217,0.036 l -0.2363,0.9199 c 0,5e-4 0,0.001 0,0.001 l -0.2125,0.9257 c 0,5.8e-4 0,0.001 0,0.001 l -0.19356,0.92554 c -3e-5,0.001 -3e-5,0.003 0,0.004 l -0.16082,0.93945 c 0,1.7e-4 0,2.9e-4 0,6e-4 l -0.14276,0.93936 c 0,4.9e-4 0,0.001 0,0.001 l -0.1256,0.94528 c -1e-5,0.001 -1e-5,0.001 0,0.004 l -0.0927,0.94508 c 0,1.2e-4 0,3.1e-4 0,5.7e-4 l -0.0753,0.94527 c 0,5.9e-4 0,0.001 0,0.001 l -0.0516,0.95321 c 0,6.2e-4 0,0.001 0,0.001 l -0.0239,0.95104 c 0,5.8e-4 0,0.001 0,0.001 v 0.95309 c 0,5e-4 0,10e-4 0,10e-4 l 0.0217,0.95317 c 0,5.9e-4 0,0.001 0,0.001 l 0.0451,0.95092 c 0,5e-4 0,0.001 0,0.001 l 0.0672,0.94524 c 0,4.6e-4 0,0.001 0,0.001 l 0.0928,0.95315 c 0,6e-4 0,0.001 0,0.001 l 0.11946,0.93938 c -4e-5,5.9e-4 -4e-5,10e-4 0,10e-4 l 0.13786,0.94527 c 0,6e-4 0,0.001 0,0.001 l 0.1602,0.93149 c -3e-5,5e-4 -3e-5,0.001 0,0.001 l 0.18761,0.9336 c 10e-4,0.008 0.004,0.0205 0.008,0.0225 0.42821,3.914666 3.63305,6.881296 7.45276,6.892476 0.008,0.001 0.0184,0.004 0.0217,0.004 3.83952,0 7.0612,-2.98657 7.47675,-6.925796 10e-4,-0.008 10e-4,-0.0184 0,-0.0224 1.10515,-5.22156 1.10521,-10.63096 0,-15.85447 10e-4,-0.008 10e-4,-0.0185 0,-0.0216 -0.41529,-3.93488 -3.63321,-6.91985 -7.4694,-6.92365 -10e-4,-1.3e-4 -0.007,-1.3e-4 -0.008,0 z m 0,4.34629 c 1.75118,0 3.19602,1.40616 3.30097,3.21322 -0.003,0.012 -0.003,0.0217 0,0.0309 1.05693,4.79249 1.05693,9.77032 0,14.56282 -0.003,0.012 -0.003,0.0219 0,0.0307 -0.1052,1.80683 -1.54947,3.215796 -3.30021,3.216156 v 0 c -1.28912,0 -2.46075,-0.774536 -3.00366,-1.985336 -0.004,-0.008 -0.008,-0.0144 -0.0144,-0.0205 l -0.20793,-0.85235 -0.19193,-0.88507 -0.16818,-0.89297 -0.14993,-0.89879 -0.12387,-0.90464 -0.0927,-0.90461 -0.0755,-0.91263 -0.0513,-0.90457 -0.0237,-0.91035 v -0.91252 l 0.0237,-0.91109 0.0513,-0.91051 0.0755,-0.91257 0.0927,-0.90455 0.12387,-0.89881 0.14993,-0.89879 0.16818,-0.8988 0.19193,-0.88505 0.2088,-0.85457 c 0.007,-0.007 0.0107,-0.012 0.0144,-0.0205 0.54292,-1.21084 1.714,-1.9817 3.00372,-1.9817 z"
     style="font-size:24.9647px;line-height:97.02%;font-family:BywayEMod;-inkscape-font-specification:BywayEMod;text-align:center;text-anchor:middle;opacity:1;fill:#000000;fill-opacity:0.996466;fill-rule:nonzero;stroke:none;stroke-width:0.133293"
     id="path150165-4" />
  <path
     d="m 353.74595,79.121244 c -3.25455,4.55426 -8.00664,13.02019 -8.08024,25.699076 h -4.15102 c 0.0211,-9.307966 2.47523,-18.014296 7.17534,-25.668596 h -10.96368 v -4.30049 l 16.01954,-3.5e-4 z"
     style="font-style:normal;font-variant:normal;font-weight:normal;font-stretch:normal;font-size:88.293px;line-height:97.02%;font-family:'Highway Gothic Condensed';-inkscape-font-specification:'Highway Gothic Condensed, ';text-align:center;text-anchor:middle;opacity:1;fill:#000000;fill-opacity:0.996466;stroke-width:0.0991363"
     id="path200297"
     sodipodi:nodetypes="cccccccc" />
  <path
     id="path200299"
     style="font-size:24.9647px;line-height:97.02%;font-family:BywayEMod;-inkscape-font-specification:BywayEMod;text-align:center;text-anchor:middle;opacity:1;fill:#000000;fill-opacity:0.996466;fill-rule:nonzero;stroke:none;stroke-width:0.133293"
     d="m 367.59088,74.938074 c -0.005,-2.8e-4 -0.0107,-1.2e-4 -0.0184,6.3e-4 -3.06548,0.004 -5.81801,1.93006 -6.96211,4.86362 -0.012,0.0107 -0.0205,0.0228 -0.0217,0.036 l -0.23629,0.9199 c 0,5e-4 0,0.001 0,0.001 l -0.21251,0.9257 c 0,5.8e-4 0,0.001 0,0.001 l -0.19356,0.92554 c -3e-5,0.001 -3e-5,0.003 0,0.004 l -0.16081,0.93945 c 0,1.7e-4 0,2.9e-4 0,6e-4 l -0.14276,0.93936 c 0,4.9e-4 0,0.001 0,0.001 l -0.1256,0.94528 c -2e-5,0.001 -2e-5,0.001 0,0.004 l -0.0927,0.94508 c 0,1.2e-4 0,3.1e-4 0,5.7e-4 l -0.0753,0.94527 c 0,5.9e-4 0,0.001 0,0.001 l -0.0516,0.95321 c 0,6.2e-4 0,0.001 0,0.001 l -0.0239,0.95104 c 0,5.8e-4 0,0.001 0,0.001 v 0.95309 c 0,5e-4 0,10e-4 0,10e-4 l 0.0217,0.95317 c 0,5.9e-4 0,0.001 0,0.001 l 0.0451,0.95092 c 0,5e-4 0,0.001 0,0.001 l 0.0672,0.94524 c 0,4.6e-4 0,0.001 0,0.001 l 0.0928,0.95315 c 0,6e-4 0,0.001 0,0.001 l 0.11947,0.93938 c -4e-5,5.9e-4 -4e-5,10e-4 0,10e-4 l 0.13785,0.94527 c 0,6e-4 0,0.001 0,0.001 l 0.1602,0.93149 c -3e-5,5e-4 -3e-5,0.001 0,0.001 l 0.18761,0.9336 c 10e-4,0.008 0.004,0.0205 0.008,0.0225 0.42822,3.914666 3.63306,6.881296 7.45277,6.892476 0.008,0.001 0.0184,0.004 0.0217,0.004 3.83952,0 7.0612,-2.98657 7.47675,-6.925796 10e-4,-0.008 10e-4,-0.0184 0,-0.0224 1.10514,-5.22156 1.10521,-10.63096 0,-15.85447 10e-4,-0.008 10e-4,-0.0185 0,-0.0216 -0.4153,-3.93488 -3.63322,-6.91985 -7.4694,-6.92365 -0.001,-1.3e-4 -0.007,-1.3e-4 -0.008,0 z m 0,4.34629 c 1.75119,0 3.19603,1.40616 3.30098,3.21322 -0.003,0.012 -0.003,0.0217 0,0.0309 1.05693,4.79249 1.05693,9.77032 0,14.56282 -0.003,0.012 -0.003,0.0219 0,0.0307 -0.1052,1.80683 -1.54947,3.215796 -3.30022,3.216156 v 0 c -1.28912,0 -2.46075,-0.774536 -3.00365,-1.985336 -0.004,-0.008 -0.008,-0.0144 -0.0144,-0.0205 l -0.20794,-0.85235 -0.19193,-0.88507 -0.16817,-0.89297 -0.14994,-0.89879 -0.12386,-0.90464 -0.0927,-0.90461 -0.0755,-0.91263 -0.0513,-0.90457 -0.0237,-0.91035 v -0.91252 l 0.0237,-0.91109 0.0513,-0.91051 0.0755,-0.91257 0.0927,-0.90455 0.12386,-0.89881 0.14994,-0.89879 0.16817,-0.8988 0.19193,-0.88505 0.2088,-0.85457 c 0.007,-0.007 0.0107,-0.012 0.0144,-0.0205 0.54292,-1.21084 1.714,-1.9817 3.00373,-1.9817 z"
     sodipodi:nodetypes="ccccccccccccccccccccccccccccccccccccccccccccccccscccccscsscccccccccccccccccccccccc" />
  <path
     style="color:#000000;font-style:normal;font-variant:normal;font-weight:normal;font-stretch:normal;font-size:medium;line-height:normal;font-family:sans-serif;-inkscape-font-specification:BywayEMod;font-variant-ligatures:normal;font-variant-position:normal;font-variant-caps:normal;font-variant-numeric:normal;font-variant-alternates:normal;font-variant-east-asian:normal;font-feature-settings:normal;font-variation-settings:normal;text-indent:0;text-align:start;text-decoration:none;text-decoration-line:none;text-decoration-style:solid;text-decoration-color:#000000;letter-spacing:normal;word-spacing:normal;text-transform:none;writing-mode:lr-tb;direction:ltr;text-orientation:mixed;dominant-baseline:auto;baseline-shift:baseline;text-anchor:start;white-space:normal;shape-padding:0;shape-margin:0;inline-size:0;clip-rule:nonzero;display:inline;overflow:visible;visibility:visible;opacity:1;isolation:auto;mix-blend-mode:normal;color-interpolation:sRGB;color-interpolation-filters:linearRGB;solid-color:#000000;solid-opacity:1;vector-effect:none;fill:#ffffff;fill-opacity:1;fill-rule:evenodd;stroke:none;stroke-width:3.57403;stroke-linecap:round;stroke-linejoin:miter;stroke-miterlimit:4;stroke-dasharray:none;stroke-dashoffset:0;stroke-opacity:1;paint-order:fill markers stroke;color-rendering:auto;image-rendering:auto;shape-rendering:auto;text-rendering:auto;enable-background:accumulate;stop-color:#000000"
     d="m 11.762308,4.586804 c -3.981747,0 -7.22564,3.2446 -7.22564,7.22647 V 215.20631 c 0,3.9819 3.243893,7.22672 7.22564,7.22672 H 517.59072 c 3.98198,0 7.2257,-3.24482 7.2257,-7.22672 V 11.813274 c 0,-3.98187 -3.24372,-7.22647 -7.2257,-7.22647 z m 0,2.46312 H 517.59072 c 2.66024,0 4.76313,2.10331 4.76313,4.76335 V 215.20631 c 0,2.6602 -2.10289,4.76347 -4.76313,4.76347 H 11.762308 c -2.65968,0 -4.762627,-2.10327 -4.762627,-4.76347 V 11.813274 c 0,-2.66004 2.102947,-4.76335 4.762627,-4.76335 z"
     id="path8322-6-7"
     sodipodi:nodetypes="ssssssssssssssssss" />
  <rect
     style="opacity:1;fill:#ffffff;stroke-width:1.00912"
     id="rect132390-7"
     width="90.571289"
     height="90.530518"
     x="412.20941"
     y="87.195442" />
  <path
     d="m 454.59163,99.485604 c -4.13008,0 -7.45634,3.323806 -7.45634,7.453876 v 51.04238 c 0,4.13006 3.32626,7.45388 7.45634,7.45388 h 36.6921 c 4.13002,0 7.45383,-3.32382 7.45383,-7.45388 v -51.04238 c 2e-5,-4.13007 -3.32381,-7.453876 -7.45383,-7.453876 z m 7.00799,4.468816 h 0.003 c 0.0178,-5e-5 0.0355,-5e-5 0.0552,0 4.66401,-4.2e-4 8.44508,3.78063 8.44473,8.44484 -0.001,4.66307 -3.78165,8.44255 -8.44473,8.4422 -4.66318,3.5e-4 -8.4438,-3.77913 -8.44483,-8.4422 -4.8e-4,-4.64195 3.74601,-8.41385 8.38776,-8.44484 z m 0.0121,4.42929 c -2.20014,0.0243 -3.97069,1.81511 -3.97086,4.01555 2.9e-4,2.2176 1.7979,4.01519 4.01549,4.01541 2.21768,-2.2e-4 4.01525,-1.79781 4.01546,-4.01541 -2.1e-4,-2.21776 -1.79778,-4.01533 -4.01546,-4.01555 -0.014,-8e-5 -0.0295,-8e-5 -0.0447,0 z m -21.16006,1.85781 v 37.64091 h 3.09161 v -37.64091 z m -6.49522,2.73481 v 34.7575 h 3.03952 v -34.7575 z m -6.34159,4.87262 v 6.49523 H 416.2521 v 20.43919 h 11.36282 v 6.39366 0.75301 3.30471 h 15.92842 v -4.05772 h -13.04019 v -33.32808 z m 50.51242,13.38924 c 0.0254,-5e-5 0.0513,-5e-5 0.0775,0 7.52398,-7.8e-4 13.62399,6.098 13.62457,13.62198 -5.8e-4,7.52411 -6.10059,13.62291 -13.62457,13.62205 -7.52298,-5e-4 -13.62152,-6.09891 -13.62209,-13.62205 4.1e-4,-7.49307 6.05228,-13.57914 13.54536,-13.62198 z m -0.1285,4.30036 c -5.07528,0.10132 -9.13635,4.24539 -9.13588,9.32162 4.9e-4,5.14814 4.17371,9.32111 9.3216,9.3217 5.14906,8.5e-4 9.32367,-4.17264 9.32415,-9.3217 -4.8e-4,-5.1488 -4.17509,-9.32238 -9.32415,-9.32162 -0.0622,-5.7e-4 -0.12311,-5.7e-4 -0.18572,0 z"
     style="opacity:1;fill:#000000;stroke:none;stroke-width:4.22989;stroke-miterlimit:4;stroke-dasharray:none;stroke-opacity:1;paint-order:stroke fill markers"
     id="rect65725-3-3"
     sodipodi:nodetypes="sssssscsscsccccscccccscccccccccccccccccccccccccsccccsscscccc" />
  <path
     sodipodi:nodetypes="scscscscsscasscscs"
     id="path82564-1"
     style="font-style:normal;font-variant:normal;font-weight:normal;font-stretch:normal;font-size:122.83px;line-height:1.15;font-family:'Highway Gothic Wide';-inkscape-font-specification:'Highway Gothic Wide';text-align:center;letter-spacing:3.26px;text-anchor:middle;opacity:1;fill:#ffffff;fill-opacity:1;stroke:none;stroke-width:0.251259;stroke-opacity:1"
     d="m 31.028789,31.673214 c 0,3.58742 -0.998894,5.8632 -2.711827,8.07966 -1.6904,2.19358 -3.955547,3.29037 -6.7954,3.29037 -3.11036,0 -5.544521,-1.26817 -7.302547,-3.80449 -1.532627,-2.1936 -2.41292,-4.27516 -2.41292,-7.49699 0,-3.65597 1.027373,-6.30749 2.74032,-8.40967 1.71292,-2.12505 4.056947,-3.18757 7.032067,-3.18757 2.794787,0 5.048667,1.08537 6.761613,3.25612 1.735454,2.14788 2.688694,4.75369 2.688694,8.27257 z m -4.108654,0.0685 c 0,-2.42206 -0.73632,-4.2401 -1.68296,-5.6111 -0.924093,-1.37099 -2.327827,-1.8883 -3.719333,-1.89578 -1.461894,-0.009 -2.95944,0.57848 -3.9286,1.94947 -0.969161,1.371 -1.629961,3.13535 -1.629961,5.55741 0,2.44496 0.546934,3.858 1.516107,5.25183 0.96916,1.371 2.590854,1.91473 4.103094,1.93657 1.59932,0.0231 3.294293,-0.96081 4.19584,-2.67454 0.72124,-1.34814 1.145813,-2.36594 1.145813,-4.51386 z" />
  <path
     d="m 54.63139,28.193334 -2.272947,2.86447 c 0,0 -0.550266,-0.48113 -1.327986,-0.68052 -0.75912,-0.1946 -1.739107,-0.1104 -2.300587,0.114 -0.552054,0.22061 -1.368707,0.85052 -1.79248,1.50728 -0.485587,0.75256 -0.540654,1.52663 -0.540654,1.52663 l -0.01373,9.59841 -3.664094,3e-5 v -16.12008 l 3.664094,0.0259 v 0.5258 c 0,0 0.511227,-0.32468 1.211947,-0.56399 0.723106,-0.24696 1.646,-0.40903 2.28472,-0.42684 0.695253,-0.0193 1.78816,0.10933 2.646747,0.44067 1.208346,0.46644 2.104946,1.18822 2.104946,1.18822 z"
     style="font-size:30px;line-height:1.15;font-family:'Highway Gothic Wide';-inkscape-font-specification:'Highway Gothic Wide';opacity:1;fill:#ffffff;fill-opacity:1;stroke:none;stroke-width:0.093406;stroke-opacity:1"
     id="path108350"
     sodipodi:nodetypes="ccsssccccccsssc" />
  <path
     style="font-style:normal;font-variant:normal;font-weight:normal;font-stretch:normal;font-size:12px;font-family:'Highway Gothic Expanded';-inkscape-font-specification:'Highway Gothic Expanded, ';writing-mode:lr-tb;opacity:1;fill:#ffffff;fill-opacity:1;fill-rule:nonzero;stroke:none;stroke-width:0.219799"
     d="m 67.783257,39.186774 2.188454,2.93346 c -1.143094,0.84805 -2.190867,0.90558 -2.87132,0.90558 -1.27308,0 -2.59124,-0.66552 -3.381454,-1.65329 -0.768267,-0.98776 -1.091613,-1.87719 -1.085093,-3.21611 l 0.0384,-7.90296 H 59.05107 v -3.64293 h 3.621174 v -6.38601 h 3.6538 v 6.38601 h 3.645653 v 3.64293 h -3.645653 v 8.22375 c 0,0 0.01893,0.28848 0.09373,0.40523 0.14332,0.22393 0.370494,0.434 0.630787,0.48845 0.135613,0.0285 0.365907,-0.004 0.525733,-0.0625 0.1304,-0.0477 0.20688,-0.12146 0.20688,-0.12146 z"
     id="path61153"
     sodipodi:nodetypes="ccscscccccccccccassc" />
  <path
     sodipodi:nodetypes="cccasasasssscasaaasccssssccssscsssc"
     id="path108315"
     style="font-style:normal;font-variant:normal;font-weight:normal;font-stretch:normal;font-size:46.5314px;line-height:1.15;font-family:'Highway Gothic Wide';-inkscape-font-specification:'Highway Gothic Wide';opacity:1;fill:#ffffff;fill-opacity:1;stroke:none;stroke-width:0.124002;stroke-opacity:1"
     d="m 91.821259,42.592244 -3.701187,-2e-4 v -0.41172 c 0,0 -2.079947,0.74688 -3.168627,0.82949 -1.32424,0.1004 -2.706307,0.0152 -3.9624,-0.41594 -1.007294,-0.34584 -2.04472,-0.87392 -2.952774,-1.50242 -0.428773,-0.29676 -0.81296,-0.62694 -1.15504,-1.05498 -0.3922,-0.49075 -0.606973,-1.15207 -0.618853,-1.78019 -0.0156,-0.82872 0.164093,-1.74519 0.727213,-2.37791 1.155627,-1.29845 2.873814,-2.16712 4.62972,-2.59268 0.662187,-0.1605 1.314747,-0.2323 1.966361,-0.30374 0.688226,-0.0755 1.731533,0.0335 2.606186,0.24134 1.04456,0.24811 1.87096,0.61083 1.87096,0.61083 0,0 0.0952,-0.60345 0.04733,-0.90004 -0.07347,-0.45517 -0.292747,-0.99829 -0.503387,-1.28835 -0.517813,-0.71304 -1.45468,-1.04564 -2.294147,-1.31368 -0.299626,-0.0957 -0.624733,-0.0819 -0.939106,-0.0924 -0.387574,-0.0136 -0.776334,0.004 -1.162841,0.0357 -0.625133,0.0511 -1.36148,0.14634 -1.865173,0.24842 -1.72548,0.34958 -2.678653,0.8783 -2.678653,0.8783 l -1.496907,-3.33738 c 0,0 1.209933,-0.58144 2.880427,-1.00291 1.31304,-0.33129 2.994226,-0.53363 4.029707,-0.48097 1.968693,0.1 3.956226,0.53297 5.36628,1.74741 1.41004,1.21447 2.37492,2.86536 2.37492,4.80421 z m -3.832067,-4.57276 c 0,0 -0.682614,-0.5486 -1.593254,-0.90943 -0.798213,-0.3163 -1.785986,-0.45106 -2.45,-0.44673 -0.613947,0.004 -1.667347,0.20315 -2.41028,0.5034 -0.913053,0.36897 -1.4646,0.85276 -1.4646,0.85276 0,0 0.471333,0.46441 1.316907,0.81371 0.799333,0.33017 1.954826,0.54629 2.631253,0.54688 0.666934,8e-4 1.618867,-0.14783 2.413027,-0.47158 0.8716,-0.35532 1.556947,-0.88901 1.556947,-0.88901 z" />
  <path
     d="m 130.35559,42.592244 -3.70119,-2e-4 v -0.41172 c 0,0 -2.07994,0.74688 -3.16862,0.82949 -1.32424,0.1004 -2.70631,0.0152 -3.9624,-0.41594 -1.0073,-0.34584 -2.04472,-0.87392 -2.95278,-1.50242 -0.42877,-0.29676 -0.81296,-0.62694 -1.15504,-1.05498 -0.3922,-0.49075 -0.60697,-1.15207 -0.61885,-1.78019 -0.0156,-0.82872 0.16409,-1.74519 0.72721,-2.37791 1.15563,-1.29845 2.87382,-2.16712 4.62972,-2.59268 0.66219,-0.1605 1.31475,-0.2323 1.96636,-0.30374 0.68823,-0.0755 1.73154,0.0335 2.60619,0.24134 1.04456,0.24811 1.87096,0.61083 1.87096,0.61083 0,0 0.0952,-0.60345 0.0473,-0.90004 -0.0735,-0.45517 -0.29274,-0.99829 -0.50338,-1.28835 -0.51782,-0.71304 -1.45468,-1.04564 -2.29415,-1.31368 -0.29963,-0.0957 -0.62473,-0.0819 -0.93911,-0.0924 -0.38757,-0.0136 -0.77633,0.004 -1.16284,0.0357 -0.62513,0.0511 -1.36148,0.14634 -1.86517,0.24842 -1.72548,0.34958 -2.67865,0.8783 -2.67865,0.8783 l -1.49691,-3.33738 c 0,0 1.20993,-0.58144 2.88043,-1.00291 1.31304,-0.33129 2.99422,-0.53363 4.0297,-0.48097 1.9687,0.1 3.95623,0.53297 5.36628,1.74741 1.41004,1.21447 2.37492,2.86536 2.37492,4.80421 z m -3.83207,-4.57276 c 0,0 -0.68261,-0.5486 -1.59325,-0.90943 -0.79821,-0.3163 -1.78599,-0.45106 -2.45,-0.44673 -0.61395,0.004 -1.66735,0.20315 -2.41028,0.5034 -0.91305,0.36897 -1.4646,0.85276 -1.4646,0.85276 0,0 0.47133,0.46441 1.31691,0.81371 0.79933,0.33017 1.95482,0.54629 2.63125,0.54688 0.66693,8e-4 1.61887,-0.14783 2.41303,-0.47158 0.8716,-0.35532 1.55694,-0.88901 1.55694,-0.88901 z"
     style="font-style:normal;font-variant:normal;font-weight:normal;font-stretch:normal;font-size:46.5314px;line-height:1.15;font-family:'Highway Gothic Wide';-inkscape-font-specification:'Highway Gothic Wide';opacity:1;fill:#ffffff;fill-opacity:1;stroke:none;stroke-width:0.124002;stroke-opacity:1"
     id="path183500"
     sodipodi:nodetypes="cccasasasssscasaaasccssssccssscsssc" />
  <path
     sodipodi:nodetypes="cccasasasssscasaaasccssssccssscsssc"
     id="path183502"
     style="font-style:normal;font-variant:normal;font-weight:normal;font-stretch:normal;font-size:46.5314px;line-height:1.15;font-family:'Highway Gothic Wide';-inkscape-font-specification:'Highway Gothic Wide';opacity:1;fill:#ffffff;fill-opacity:1;stroke:none;stroke-width:0.124002;stroke-opacity:1"
     d="m 194.26671,42.592244 -3.70118,-2e-4 v -0.41172 c 0,0 -2.07995,0.74688 -3.16863,0.82949 -1.32424,0.1004 -2.70631,0.0152 -3.9624,-0.41594 -1.00729,-0.34584 -2.04472,-0.87392 -2.95277,-1.50242 -0.42878,-0.29676 -0.81296,-0.62694 -1.15504,-1.05498 -0.3922,-0.49075 -0.60698,-1.15207 -0.61886,-1.78019 -0.0156,-0.82872 0.1641,-1.74519 0.72722,-2.37791 1.15562,-1.29845 2.87381,-2.16712 4.62972,-2.59268 0.66218,-0.1605 1.31474,-0.2323 1.96636,-0.30374 0.68822,-0.0755 1.73153,0.0335 2.60618,0.24134 1.04456,0.24811 1.87096,0.61083 1.87096,0.61083 0,0 0.0952,-0.60345 0.0473,-0.90004 -0.0735,-0.45517 -0.29275,-0.99829 -0.50339,-1.28835 -0.51781,-0.71304 -1.45468,-1.04564 -2.29415,-1.31368 -0.29962,-0.0957 -0.62473,-0.0819 -0.9391,-0.0924 -0.38758,-0.0136 -0.77634,0.004 -1.16284,0.0357 -0.62514,0.0511 -1.36148,0.14634 -1.86518,0.24842 -1.72548,0.34958 -2.67865,0.8783 -2.67865,0.8783 l -1.49691,-3.33738 c 0,0 1.20994,-0.58144 2.88043,-1.00291 1.31304,-0.33129 2.99423,-0.53363 4.02971,-0.48097 1.96869,0.1 3.95622,0.53297 5.36628,1.74741 1.41004,1.21447 2.37492,2.86536 2.37492,4.80421 z m -3.83206,-4.57276 c 0,0 -0.68262,-0.5486 -1.59326,-0.90943 -0.79821,-0.3163 -1.78598,-0.45106 -2.45,-0.44673 -0.61394,0.004 -1.66734,0.20315 -2.41028,0.5034 -0.91305,0.36897 -1.4646,0.85276 -1.4646,0.85276 0,0 0.47134,0.46441 1.31691,0.81371 0.79933,0.33017 1.95483,0.54629 2.63125,0.54688 0.66694,8e-4 1.61887,-0.14783 2.41303,-0.47158 0.8716,-0.35532 1.55695,-0.88901 1.55695,-0.88901 z" />
  <path
     sodipodi:nodetypes="ccscscccccccccccassc"
     id="path183504"
     d="m 401.09366,39.186774 2.18845,2.93346 c -1.14309,0.84805 -2.19087,0.90558 -2.87132,0.90558 -1.27308,0 -2.59124,-0.66552 -3.38145,-1.65329 -0.76827,-0.98776 -1.09162,-1.87719 -1.0851,-3.21611 l 0.0384,-7.90296 h -3.62117 v -3.64293 h 3.62117 v -6.38601 h 3.6538 v 6.38601 h 3.64566 v 3.64293 h -3.64566 v 8.22375 c 0,0 0.0189,0.28848 0.0937,0.40523 0.14332,0.22393 0.37049,0.434 0.63078,0.48845 0.13562,0.0285 0.36591,-0.004 0.52574,-0.0625 0.1304,-0.0477 0.20688,-0.12146 0.20688,-0.12146 z"
     style="font-style:normal;font-variant:normal;font-weight:normal;font-stretch:normal;font-size:12px;font-family:'Highway Gothic Expanded';-inkscape-font-specification:'Highway Gothic Expanded, ';writing-mode:lr-tb;opacity:1;fill:#ffffff;fill-opacity:1;fill-rule:nonzero;stroke:none;stroke-width:0.219799" />
  <path
     sodipodi:nodetypes="cccccccccc"
     d="m 411.81231,21.116564 v 3.81084 h 3.79637 v -3.81084 z m 0,5.40532 v 16.6708 h 3.79637 v -16.6708 z"
     style="font-style:normal;font-variant:normal;font-weight:normal;font-stretch:normal;font-size:122.83px;line-height:1.15;font-family:'Highway Gothic Wide';-inkscape-font-specification:'Highway Gothic Wide';text-align:center;letter-spacing:3.26px;text-anchor:middle;opacity:1;fill:#ffffff;fill-opacity:1;stroke-width:0.256029"
     id="path82574-5" />
  <path
     id="path183521"
     style="font-style:normal;font-variant:normal;font-weight:normal;font-stretch:normal;font-size:122.83px;line-height:1.15;font-family:'Highway Gothic Wide';-inkscape-font-specification:'Highway Gothic Wide';text-align:center;letter-spacing:3.26px;text-anchor:middle;opacity:1;fill:#ffffff;fill-opacity:1;stroke-width:0.256029"
     d="m 380.04138,21.116564 v 3.81084 h 3.79637 v -3.81084 z m 0,5.40532 v 16.6708 h 3.79637 v -16.6708 z"
     sodipodi:nodetypes="cccccccccc" />
  <path
     sodipodi:nodetypes="ccccc"
     d="m 243.11808,26.521884 v 16.6708 h 3.79637 v -16.6708 z"
     style="font-style:normal;font-variant:normal;font-weight:normal;font-stretch:normal;font-size:122.83px;line-height:1.15;font-family:'Highway Gothic Wide';-inkscape-font-specification:'Highway Gothic Wide';text-align:center;letter-spacing:3.26px;text-anchor:middle;opacity:1;fill:#ffffff;fill-opacity:1;stroke-width:0.256029"
     id="path183523" />
  <path
     sodipodi:nodetypes="ccccccccccccc"
     id="path24540"
     style="font-size:13.0452px;line-height:1.15;font-family:'Highway Gothic Wide';-inkscape-font-specification:'Highway Gothic Wide';opacity:1;fill:#ffffff;fill-opacity:1;stroke-width:0.0266321"
     d="m 478.18778,43.069774 h -4.56541 l -5.80529,-7.73231 -1.5437,1.30013 v 6.43218 h -3.66491 v -22.95333 h 3.66491 v 11.70659 l 6.25965,-5.29083 h 5.65475 l -7.57343,6.41849 z" />
  <path
     d="m 271.40752,30.197634 -9.18938,9.20036 h 9.18938 v 3.6977 l -15.64938,-2e-5 2e-5,-3.69768 9.18937,-9.20036 h -9.18937 v -3.67575 h 15.64936 z"
     style="font-style:normal;font-variant:normal;font-weight:normal;font-stretch:normal;font-size:30px;line-height:1.15;font-family:'Highway Gothic';-inkscape-font-specification:'Highway Gothic';opacity:1;fill:#ffffff;fill-opacity:1;stroke-width:0.166332"
     id="path258278"
     sodipodi:nodetypes="ccccccccccc" />
  <path
     d="m 170.62943,43.285764 h -3.76285 l 3e-5,-8.65836 c 0,0 -0.24486,-1.67656 -0.75946,-2.29776 -0.38085,-0.45979 -0.8198,-0.96687 -1.37865,-1.33639 -0.80798,-0.53421 -1.77883,-0.83934 -2.45208,-0.78846 -0.31872,0.0241 -0.66499,0.016 -0.98922,0.078 -0.81368,0.15974 -1.58892,0.51386 -2.17898,1.0573 -0.4749,0.43738 -1.05218,1.2194 -1.33315,1.99112 -0.27919,0.76679 -0.26357,1.52466 -0.26357,1.52466 v 8.42989 h -3.73144 v -8.65844 c 0,0 -0.0421,-0.692 -0.31191,-1.42671 -0.20589,-0.56089 -0.59192,-1.14666 -0.91157,-1.46845 -0.42458,-0.42741 -0.9175,-0.83551 -1.4841,-1.10391 -0.65429,-0.30997 -1.39736,-0.44738 -2.0929,-0.43577 -0.79444,0.0137 -1.62427,0.26468 -2.32436,0.70216 -0.38252,0.23904 -0.70634,0.55803 -1.01072,0.86757 -0.33123,0.33686 -0.69036,0.93856 -0.90308,1.5049 -0.22498,0.5989 -0.29415,1.15401 -0.29415,1.15401 l -0.0223,8.86464 h -3.70634 v -16.37768 h 3.70634 v 0.97816 c 0,0 0.73464,-0.53773 1.74419,-0.91489 1.01419,-0.37892 2.30523,-0.59715 3.15492,-0.52307 0.99613,0.0869 2.54843,0.33563 3.70428,0.97229 1.55637,0.8573 2.60488,2.14887 2.60488,2.14887 0,0 0.57255,-0.64007 0.89855,-0.91753 0.54016,-0.45974 1.22549,-0.96646 1.73878,-1.2268 1.15634,-0.58656 2.46626,-0.98568 3.76286,-0.98568 1.47452,0 2.98085,0.42198 4.27916,1.12096 1.08543,0.58433 2.01705,1.48076 2.75199,2.47044 0.5734,0.77214 0.97362,1.6768 1.2243,2.6127 0.23216,0.86666 0.27012,1.59927 0.27012,1.59927 z"
     style="font-style:normal;font-variant:normal;font-weight:normal;font-stretch:normal;font-size:30px;line-height:1.15;font-family:'Highway Gothic Wide';-inkscape-font-specification:'Highway Gothic Wide';opacity:1;fill:#ffffff;fill-opacity:1;stroke-width:0.16898"
     id="path42828"
     sodipodi:nodetypes="cccssssssccccsssssssccccccssscasaaascc" />
  <path
     sodipodi:nodetypes="cccssssssccccsssssssccccccssscasaaascc"
     id="path183573"
     style="font-style:normal;font-variant:normal;font-weight:normal;font-stretch:normal;font-size:30px;line-height:1.15;font-family:'Highway Gothic Wide';-inkscape-font-specification:'Highway Gothic Wide';opacity:1;fill:#ffffff;fill-opacity:1;stroke-width:0.16898"
     d="m 516.17324,43.285764 h -3.76286 l 3e-5,-8.65836 c 0,0 -0.24485,-1.67656 -0.75945,-2.29776 -0.38086,-0.45979 -0.8198,-0.96687 -1.37866,-1.33639 -0.80797,-0.53421 -1.77882,-0.83934 -2.45208,-0.78846 -0.31872,0.0241 -0.66498,0.016 -0.98921,0.078 -0.81368,0.15974 -1.58892,0.51386 -2.17899,1.0573 -0.47489,0.43738 -1.05217,1.2194 -1.33314,1.99112 -0.27919,0.76679 -0.26358,1.52466 -0.26358,1.52466 v 8.42989 h -3.73144 v -8.65844 c 0,0 -0.0421,-0.692 -0.31191,-1.42671 -0.20589,-0.56089 -0.59192,-1.14666 -0.91157,-1.46845 -0.42457,-0.42741 -0.91749,-0.83551 -1.48409,-1.10391 -0.6543,-0.30997 -1.39736,-0.44738 -2.09291,-0.43577 -0.79444,0.0137 -1.62427,0.26468 -2.32436,0.70216 -0.38252,0.23904 -0.70633,0.55803 -1.01072,0.86757 -0.33123,0.33686 -0.69036,0.93856 -0.90308,1.5049 -0.22497,0.5989 -0.29415,1.15401 -0.29415,1.15401 l -0.0223,8.86464 h -3.70635 v -16.37768 h 3.70635 v 0.97816 c 0,0 0.73464,-0.53773 1.74418,-0.91489 1.01419,-0.37892 2.30523,-0.59715 3.15492,-0.52307 0.99614,0.0869 2.54843,0.33563 3.70428,0.97229 1.55638,0.8573 2.60489,2.14887 2.60489,2.14887 0,0 0.57254,-0.64007 0.89854,-0.91753 0.54016,-0.45974 1.2255,-0.96646 1.73879,-1.2268 1.15633,-0.58656 2.46625,-0.98568 3.76285,-0.98568 1.47452,0 2.98086,0.42198 4.27916,1.12096 1.08543,0.58433 2.01706,1.48076 2.75199,2.47044 0.5734,0.77214 0.97363,1.6768 1.22431,2.6127 0.23216,0.86666 0.27012,1.59927 0.27012,1.59927 z" />
  <path
     sodipodi:nodetypes="ccccc"
     d="m 102.5624,20.234454 0.0148,22.844 h 3.63792 l -0.0147,-22.844 z"
     style="font-style:normal;font-variant:normal;font-weight:normal;font-stretch:normal;font-size:122.83px;line-height:1.15;font-family:'Highway Gothic Wide';-inkscape-font-specification:'Highway Gothic Wide';text-align:center;letter-spacing:3.26px;text-anchor:middle;opacity:1;fill:#ffffff;fill-opacity:1;stroke-width:0.245328"
     id="path7201" />
  <path
     sodipodi:nodetypes="ccccccccccccc"
     id="path67101"
     style="font-style:normal;font-variant:normal;font-weight:normal;font-stretch:normal;font-size:30px;line-height:1.15;font-family:'Highway Gothic Wide';-inkscape-font-specification:'Highway Gothic Wide';text-align:center;text-anchor:middle;opacity:1;fill:#ffffff;fill-opacity:1;stroke:none;stroke-width:0.16508;stroke-opacity:1"
     d="m 231.45526,43.009244 -4.08723,0.004 v -9.13992 h -10.03709 v 9.13956 h -4.11145 l 6.6e-4,-22.84364 h 4.11131 v 9.12988 h 10.03723 v -9.12988 h 4.09204 z" />
  <path
     sodipodi:nodetypes="ccccccccc"
     id="path18075"
     style="font-style:normal;font-variant:normal;font-weight:normal;font-stretch:normal;font-size:30px;line-height:1.15;font-family:'Highway Gothic Wide';-inkscape-font-specification:'Highway Gothic Wide';opacity:1;fill:#ffffff;fill-opacity:1;stroke:none;stroke-width:0.256212;stroke-opacity:1"
     d="m 301.78991,24.265234 h -6.62681 v 18.74801 h -4.12884 v -18.74788 l -6.59362,-1.3e-4 v -4.09599 h 17.34927 z" />
  <path
     id="path55558"
     style="opacity:1;fill:#ffffff;fill-opacity:1;stroke:none;stroke-width:0.600019;stroke-opacity:1"
     d="m 316.2222,26.484004 a 8.3220993,8.3220993 0 0 0 -8.30075,8.32137 8.3220993,8.3220993 0 0 0 8.32232,8.32244 8.3220993,8.3220993 0 0 0 5.54142,-2.11417 l -2.47027,-2.76244 a 4.6162637,4.6162637 0 0 1 -3.07115,1.17063 4.6162637,4.6162637 0 0 1 -4.22,-2.74798 h 2.35462 4.93234 5.02943 0.02 a 8.3220993,8.3220993 0 0 0 0.21373,-1.86848 8.3220993,8.3220993 0 0 0 -8.3213,-8.32137 8.3220993,8.3220993 0 0 0 -0.022,0 z m 0,3.70596 a 4.6162637,4.6162637 0 0 1 0.028,0 4.6162637,4.6162637 0 0 1 4.23556,2.78103 h -8.47113 a 4.6162637,4.6162637 0 0 1 4.2088,-2.78103 z" />
  <path
     id="path55345"
     style="opacity:1;fill:#ffffff;fill-opacity:1;stroke:none;stroke-width:0.525891;stroke-opacity:1"
     d="m 357.93297,49.413164 v -7.84217 c 1.32118,0.89189 2.91028,1.41736 4.62422,1.41744 0,0 0.0199,0 0.0219,0 4.56439,-0.012 8.25801,-3.71634 8.25819,-8.28079 2e-4,-4.57364 -3.7073,-8.28157 -8.28085,-8.28177 -1.71414,5e-5 -3.30304,0.52544 -4.62422,1.41744 v -1.41642 h -3.66777 v 22.98627 z m 4.65403,-10.10804 c -0.0199,4e-5 -0.0199,4e-5 -0.0299,0 -2.5392,5e-5 -4.59758,-2.05833 -4.59758,-4.59748 0,-2.53911 2.05838,-4.59751 4.59758,-4.59744 2.539,-7e-5 4.59759,2.05833 4.59739,4.59744 2e-4,2.52753 -2.04011,4.58113 -4.56757,4.59748 z" />
  <path
     sodipodi:nodetypes="cscssccccacasssaaaaacasaaasccacaaaasacc"
     id="path24247"
     style="font-style:normal;font-variant:normal;font-weight:normal;font-stretch:normal;font-size:19.6811px;line-height:1.15;font-family:'Highway Gothic Wide';-inkscape-font-specification:'Highway Gothic Wide';opacity:1;fill:#ffffff;fill-opacity:1;stroke-width:0.0818563"
     d="m 345.81451,38.417434 c -0.0143,0.85357 -0.19187,1.62146 -0.56695,2.3245 -0.25623,0.48022 -0.57863,0.94895 -1.10563,1.31998 -0.26888,0.18501 -0.59324,0.27033 -0.91654,0.36385 -0.33598,0.0975 -0.67292,0.20039 -1.05948,0.27981 -1.03794,0.21379 -2.23558,0.39803 -3.44964,0.41062 -2.80968,-0.0433 -5.27284,-0.51143 -7.6103,-1.7303 l 1.63795,-3.30596 c 2.00692,1.06656 4.07168,1.30142 5.86609,1.32315 0.48507,0 1.20243,-0.0339 1.79686,-0.11733 0.55413,-0.0775 1.64065,-0.35535 1.64065,-0.35535 0,0 0.0645,-0.19221 0.0751,-0.29189 0.0107,-0.0993 -0.004,-0.2223 -0.012,-0.29944 -0.009,-0.0923 -0.0248,-0.19355 -0.0845,-0.26446 -0.1012,-0.11973 -0.1848,-0.26576 -0.32153,-0.34284 -0.28193,-0.1592 -0.63649,-0.21934 -0.95783,-0.3197 -0.80922,-0.25204 -1.62842,-0.47119 -2.4423,-0.70795 -0.4822,-0.14024 -0.96442,-0.28047 -1.44618,-0.42219 -0.3096,-0.0912 -0.61946,-0.18141 -0.92822,-0.27524 -0.6549,-0.19906 -1.33548,-0.33186 -1.96046,-0.61102 -0.44105,-0.19712 -0.97193,-0.49147 -1.24441,-0.74267 -0.8972,-0.87064 -1.43372,-1.74493 -1.56399,-2.80852 -0.15145,-1.23649 0.26112,-2.75703 0.97648,-3.60744 0.26836,-0.31904 0.49124,-0.55721 0.80814,-0.73793 0.37638,-0.21476 0.82354,-0.27163 1.24314,-0.37983 0.60063,-0.15468 1.2068,-0.29519 1.82071,-0.38324 0.8314,-0.1192 1.75805,-0.19547 2.51216,-0.19547 2.31387,0 4.40645,0.45716 6.36855,1.30263 l -1.41024,3.39109 c -1.30822,-0.61238 -3.56719,-1.0021 -5.39886,-1.02573 -1.07688,-0.0133 -3.18864,0.52091 -3.18864,0.52091 0,0 -0.0981,0.21901 -0.1,0.33562 -0.003,0.21283 0.024,0.45667 0.1636,0.61768 0.3538,0.40842 0.9826,0.45359 1.49194,0.63416 0.41613,0.1477 0.84898,0.24287 1.27316,0.36527 0.74285,0.21476 1.49476,0.44573 2.22741,0.64765 1.35548,0.37352 3.31232,0.70842 4.45897,1.83462 0.84283,0.82774 1.38367,1.64193 1.40728,3.25261 z" />
  <path
     style="opacity:1;fill:#ffffff;fill-opacity:1;stroke-width:0.010939"
     d="m 441.76353,43.037454 c -2.48955,-0.0517 -5.07362,-0.79773 -7.18763,-2.07573 -0.65567,-0.39647 -0.9484,-0.60903 -0.93235,-0.67691 0.012,-0.0528 2.20235,-3.14465 2.30782,-3.25845 0.0435,-0.0465 0.0869,-0.0281 0.31881,0.13227 1.28859,0.88948 3.04715,1.53056 4.65981,1.69898 1.82519,0.1905 3.52128,-0.0512 5.18699,-0.73824 0.1324,-0.0549 0.32941,-0.13586 0.43771,-0.18033 0.36156,-0.14877 0.82464,-0.72165 1.04073,-1.28753 0.39036,-1.02226 0.1048,-2.16627 -0.73752,-2.9477 -0.14463,-0.13434 -0.25792,-0.18957 -0.92619,-0.45133 -0.78354,-0.30692 -1.32142,-0.45208 -2.30808,-0.62288 -0.52949,-0.0919 -0.65473,-0.0989 -2.09161,-0.116 l -1.52827,-0.0184 v -2.05185 -2.05179 l 1.34299,-3.7e-4 c 0.73868,0 1.49312,-0.0171 1.67653,-0.0375 1.05774,-0.1172 1.99386,-0.40358 2.99864,-0.9184 0.68078,-0.34895 0.70298,-0.36387 0.75204,-0.50775 0.12094,-0.35348 0.0941,-0.86881 -0.0645,-1.22931 -0.0655,-0.14901 -0.0929,-0.16692 -0.71932,-0.47282 -0.35837,-0.17499 -0.74111,-0.35156 -0.85029,-0.39252 -0.38148,-0.14267 -1.09555,-0.32948 -1.64123,-0.42946 -0.49035,-0.09 -0.64225,-0.10133 -1.40211,-0.10386 -0.77882,-0.003 -0.90309,0.007 -1.44494,0.1024 -0.68411,0.12133 -1.04443,0.21961 -1.66643,0.45561 -0.59563,0.22596 -1.52352,0.72049 -1.90959,1.01759 l -0.13093,0.1008 -0.90699,-1.2424 c -0.49889,-0.68327 -1.04502,-1.43431 -1.21384,-1.66895 l -0.30672,-0.42655 0.45498,-0.30268 c 0.59162,-0.39348 1.00898,-0.62949 1.70405,-0.96276 0.51395,-0.24664 1.32181,-0.5628 1.60372,-0.62778 0.0613,-0.014 0.24463,-0.0655 0.40769,-0.11387 0.46252,-0.13693 0.94567,-0.24171 1.37994,-0.29907 0.21902,-0.0293 0.51516,-0.0685 0.65782,-0.0875 1.03664,-0.13822 2.98812,-0.0471 3.87166,0.18188 0.0716,0.0185 0.32882,0.0761 0.57218,0.12747 0.43095,0.0915 1.31123,0.3798 1.94726,0.63839 0.51228,0.20813 1.64118,0.82992 2.19253,1.20761 0.28292,0.1938 0.35247,0.26531 0.57892,0.5956 0.80776,1.17809 1.16083,2.51581 1.04409,3.95576 -0.0503,0.61764 -0.29962,1.52845 -0.55952,2.04261 -0.15078,0.29851 -0.51633,0.86204 -0.74885,1.15452 l -0.23336,0.29354 0.25881,0.23749 c 1.08419,0.99509 1.78295,2.23557 2.10246,3.73251 0.0937,0.43792 0.13818,1.71049 0.0764,2.1675 -0.17152,1.264 -0.74939,2.58716 -1.53368,3.51138 -0.34864,0.41073 -0.89034,0.91882 -1.2013,1.12669 -0.28701,0.19185 -0.83017,0.47123 -1.17229,0.60279 -0.1268,0.0491 -0.41415,0.16385 -0.63949,0.25598 -0.78923,0.3224 -2.31794,0.71447 -3.18419,0.81624 -0.90463,0.10667 -1.16672,0.1308 -1.53752,0.14056 -0.23441,0.007 -0.59276,0.008 -0.79668,0.004 z"
     id="path31013"
     sodipodi:nodetypes="csssssssssssscccccsssssssssscsscsssssssssssssscssssssssscc" />
  <path
     id="path61228-2-0"
     style="font-size:24.9647px;line-height:97.02%;font-family:BywayEMod;-inkscape-font-specification:BywayEMod;text-align:center;text-anchor:middle;opacity:1;fill:#ffffff;fill-opacity:1;fill-rule:evenodd;stroke:none;stroke-width:0.638958;stroke-linecap:round;stroke-linejoin:round;stroke-miterlimit:10;stroke-dasharray:none;stroke-opacity:0.87451"
     d="m 341.53176,182.16614 v 20.61156 h 44.20758 v -20.61156 z m -12.81545,6.95866 -3.71192,9.37341 v 10.52866 h 2.24258 c 0,0 -0.025,-0.6824 0.22186,-1.55383 0.20682,-0.73322 0.62114,-1.593 1.25124,-2.35687 0.52565,-0.63726 1.32496,-1.16059 2.14958,-1.52803 0.85022,-0.37871 1.54513,-0.56408 2.35407,-0.59626 0.59038,-0.0231 1.19678,0.083 1.74737,0.29741 1.10661,0.43125 2.25797,1.00081 2.99076,1.93682 0.58339,0.74531 0.96785,1.62225 1.15619,2.36428 0.203,0.79885 0.1866,1.43648 0.1866,1.43648 h 27.14544 c 0,0 0.0178,-0.32044 0.0841,-0.79928 0.0682,-0.48088 0.21536,-1.04885 0.36266,-1.40671 0.15683,-0.38162 0.44857,-0.92309 0.76217,-1.35091 0.20258,-0.2765 0.41003,-0.50897 0.55254,-0.65921 0.10981,-0.11589 0.18083,-0.18271 0.18085,-0.18271 H 339.70545 V 189.1248 Z m 0.56478,2.56269 h 8.55292 v 5.96724 h -10.91397 z m 4.00043,12.78212 c -2.50623,0 -4.55822,2.05608 -4.55822,4.55157 0,2.49563 2.05199,4.55253 4.55822,4.55253 2.5062,-1e-5 4.5591,-2.0569 4.5591,-4.55253 0,-2.49549 -2.0529,-4.55157 -4.5591,-4.55157 z m 39.19222,0 c -2.50632,0 -4.55815,2.05608 -4.55815,4.55157 0,2.49563 2.05183,4.55253 4.55815,4.55253 2.50626,-1e-5 4.55951,-2.0569 4.55951,-4.55253 0,-2.49549 -2.05325,-4.55157 -4.55951,-4.55157 z m 4.11643,0.15832 c 0,0 0.375,0.35266 0.73398,0.8424 0.31357,0.42779 0.60488,0.96974 0.76166,1.35138 0.14692,0.35784 0.29603,0.92394 0.3641,1.40485 0.0691,0.47882 0.054,0.87297 0.054,0.87297 l 7.23441,-2.35395 v -2.11765 z m -43.30865,2.36755 c 1.12601,2e-5 2.01893,0.88795 2.01893,2.0256 0,1.1376 -0.89292,2.02697 -2.01893,2.02697 -1.12606,0 -2.01807,-0.88937 -2.01807,-2.02697 0,-1.13765 0.89201,-2.0256 2.01807,-2.0256 z m 39.19222,0 c 1.12607,2e-5 2.01899,0.88795 2.01899,2.0256 0,1.1376 -0.89292,2.02697 -2.01899,2.02697 -1.12607,0 -2.01801,-0.88937 -2.01801,-2.02697 0,-1.13765 0.89194,-2.0256 2.01801,-2.0256 z" />
  <path
     id="rect82571-2-5"
     style="opacity:1;fill:#ffffff;stroke-width:2.17847;paint-order:stroke fill markers"
     d="m 258.91542,139.14822 c -0.4664,0 -1.50553,0.30374 -2.16644,0.80664 -0.44815,0.341 -0.87131,0.7821 -1.32299,1.26509 -2.04184,2.18347 -7.43738,7.85751 -7.43738,7.85751 0,0 -0.54016,0.60097 -0.90835,0.71667 -0.61141,0.19208 -1.7891,0.417 -2.40894,0.5469 -2.07705,0.43517 -3.33672,0.68766 -6.22703,1.28154 -0.48317,0.0993 -1.21028,0.19966 -1.679,0.55782 -0.40281,0.30782 -0.54842,0.56413 -0.84184,1.26671 -0.42246,1.01157 -1.07108,2.40032 -1.07108,2.40032 v 0.51872 4.12006 c 2e-5,0.5992 0.48206,1.08126 1.08127,1.08126 h 1.71185 v -0.0406 c 0,-3.52843 2.84096,-6.36862 6.3694,-6.36862 3.52842,0 6.36862,2.84019 6.36862,6.36862 v 0.0406 h 28.40763 v -0.0406 c 0,-3.52843 2.84018,-6.36862 6.3686,-6.36862 3.52844,0 6.36942,2.84019 6.36942,6.36862 v 0.0406 h 2.87916 c 0.5992,0 1.08203,-0.48206 1.08203,-1.08126 v -4.99083 -0.96783 -13.30759 c 0,-1.14747 -0.92426,-2.07173 -2.07174,-2.07173 z m -0.0408,1.97549 h 1.01322 0.42326 4.66535 c 0.55308,0 0.99831,0.44526 0.99831,0.99832 v 8.75336 c 0,0.55305 -0.44523,0.99832 -0.99831,0.99832 h -4.66535 -5.23025 -2.47079 c -2.03745,0 -2.61395,-2.25933 -1.48964,-3.45034 l 5.05811,-5.35856 c 0.79707,-0.84432 1.53494,-1.9411 2.69609,-1.9411 z m 9.93944,5.6e-4 h 9.89559 c 0.55306,0 0.99833,0.44524 0.99833,0.99831 v 8.75254 c 0,0.55308 -0.44527,0.99831 -0.99833,0.99831 h -9.89558 c -0.5531,0 -0.99834,-0.44523 -0.99834,-0.99831 v -8.75254 c 0,-0.55307 0.44524,-0.99831 0.99834,-0.99831 z m 13.60099,0 h 9.89558 c 0.55308,0 0.99834,0.44524 0.99834,0.99831 v 8.75254 c 0,0.55308 -0.44526,0.99831 -0.99834,0.99831 h -9.89558 c -0.55308,0 -0.99834,-0.44523 -0.99834,-0.99831 v -8.75254 c 0,-0.55307 0.44526,-0.99831 0.99834,-0.99831 z m -38.46995,15.48495 a 4.9357029,4.9357029 0 0 0 -4.86799,4.9353 4.9357029,4.9357029 0 0 0 4.93527,4.93607 4.9357029,4.9357029 0 0 0 4.93607,-4.93607 4.9357029,4.9357029 0 0 0 -4.93607,-4.9353 4.9357029,4.9357029 0 0 0 -0.0674,0 z m 41.14563,0 a 4.9357029,4.9357029 0 0 0 -4.868,4.9353 4.9357029,4.9357029 0 0 0 4.9353,4.93607 4.9357029,4.9357029 0 0 0 4.93607,-4.93607 4.9357029,4.9357029 0 0 0 -4.93607,-4.9353 4.9357029,4.9357029 0 0 0 -0.0674,0 z m -41.07835,3.37678 a 1.5587872,1.5587872 0 0 1 1.5593,1.55852 1.5587872,1.5587872 0 0 1 -1.5593,1.5593 1.5587872,1.5587872 0 0 1 -1.5585,-1.5593 1.5587872,1.5587872 0 0 1 1.5585,-1.55852 z m 41.14565,0 a 1.5587872,1.5587872 0 0 1 1.55928,1.55852 1.5587872,1.5587872 0 0 1 -1.55928,1.5593 1.5587872,1.5587872 0 0 1 -1.55851,-1.5593 1.5587872,1.5587872 0 0 1 1.55851,-1.55852 z" />
  <path
     id="rect71629-1-8"
     style="opacity:1;fill:#ffffff;fill-opacity:1;fill-rule:evenodd;stroke:none;stroke-width:2.44418;stroke-linecap:round;stroke-linejoin:round;stroke-miterlimit:10"
     d="m 168.42871,160.60606 -9.80842,7.76881 -12.10348,0.86031 -1.49136,4.47546 2.49573,4.94561 5.0186,0.78031 c 0,0 0.0504,-1.94919 1.16155,-3.36679 0.54835,-0.69954 1.31244,-1.27996 2.165,-1.63031 0.70494,-0.28966 1.4968,-0.41098 2.04196,-0.41304 0.58234,-0.001 1.37543,0.0891 2.11165,0.40883 0.87423,0.37961 1.68835,1.04681 2.25108,1.77815 1.03334,1.34289 1.05304,3.18854 1.05304,3.18854 h 23.00188 c 0,0 0.0696,-1.93129 1.15922,-3.33309 0.47698,-0.61366 1.17945,-1.19101 1.91238,-1.53674 0.77925,-0.36759 1.59303,-0.48453 2.20616,-0.49026 0.58643,-0.006 1.42606,0.0459 2.18887,0.38126 0.8716,0.38319 1.66337,1.09583 2.21971,1.80012 1.07791,1.36447 1.0694,3.17871 1.0694,3.17871 l 6.79719,-0.516 1.34775,-5.34744 -0.77375,-5.16363 h -9.83837 l -7.85771,-7.76881 z m 0.28725,1.67568 h 6.19559 v 6.09313 h -13.68139 z m 7.68693,0 h 6.10906 l 4.10123,6.09313 h -10.21029 z m -18.45109,12.58717 c -2.49528,0 -4.53817,2.04701 -4.53817,4.53161 0,2.4846 2.04289,4.53303 4.53817,4.53303 2.49528,0 4.53956,-2.04843 4.53956,-4.53303 0,-2.4846 -2.04428,-4.53161 -4.53956,-4.53161 z m 33.73984,0 c -2.49528,0 -4.53814,2.04701 -4.53814,4.53161 0,2.4846 2.04286,4.53303 4.53814,4.53303 2.49531,0 4.53958,-2.04843 4.53958,-4.53303 0,-2.4846 -2.04427,-4.53161 -4.53958,-4.53161 z m -33.73984,2.51493 c 1.12112,0 2.01014,0.88404 2.01014,2.01668 0,1.13264 -0.88902,2.01812 -2.01014,2.01812 -1.12114,0 -2.00877,-0.88548 -2.00877,-2.01812 0,-1.13264 0.88763,-2.01668 2.00877,-2.01668 z m 33.73984,0 c 1.12112,0 2.01016,0.88404 2.01016,2.01668 0,1.13264 -0.88904,2.01812 -2.01016,2.01812 -1.12112,0 -2.0092,-0.88548 -2.0092,-2.01812 0,-1.13264 0.88808,-2.01668 2.0092,-2.01668 z" />
  <path
     d="m 291.97893,193.91216 a 0.41488619,0.41488619 0 0 0 -0.0594,0.004 h -47.93216 -0.36534 v 8.41377 h 50.72634 c -0.0536,-0.77175 0.0785,-1.5522 -0.17402,-2.32107 -0.61211,-1.9032 -1.19278,-3.82423 -1.77307,-5.74194 a 0.41488619,0.41488619 0 0 0 -0.42353,-0.35641 z m -54.24587,0.0355 c -0.14792,2.80552 -0.29287,5.58789 -0.43778,8.38765 h 5.23994 v -8.38765 z m 53.35509,1.56396 a 0.39747838,0.39747838 0 0 1 0.40035,0.33683 c 0.48177,1.57537 0.96908,3.14492 1.45065,4.71743 0.0296,0.0983 0.0478,0.19721 0.0785,0.316 h -10.07633 l -0.0139,-5.36455 h 0.33915 7.75756 a 0.39747838,0.39747838 0 0 1 0.0612,-0.004 z m -18.88168,0.0238 v 5.34415 h -8.36167 v -5.33568 z m -33.73045,0.004 h 3.14779 v 5.34133 h -3.3887 v -0.004 c 0.0814,-1.79596 0.15974,-3.56301 0.2406,-5.33567 z m 34.9057,0 h 8.39904 v 5.33854 h -8.39904 z m -28.63904,0.004 h 8.40527 l -0.004,5.32718 h -8.40029 z m 9.54541,0 h 8.39619 l -0.004,5.32718 h -8.39056 z m -17.22199,7.761 c -0.12169,1.14312 -0.23818,2.26313 -0.35701,3.38012 -0.11838,1.12186 -0.23523,2.24264 -0.35107,3.3626 h 5.42297 a 4.821964,4.821964 0 0 1 4.29074,-5.32944 4.6420831,4.6420831 0 0 1 3.42096,0.98939 c 1.39261,1.09667 1.97288,2.58213 1.8365,4.35193 h 23.83375 c -0.26374,-2.96805 1.90061,-5.32967 4.75259,-5.36738 a 4.5695506,4.5695506 0 0 1 3.23508,1.24434 4.7668391,4.7668391 0 0 1 1.56339,4.01536 l 9.59759,-0.69645 v -5.95047 z m 9.47855,2.43154 a 3.7426794,3.7426794 0 0 0 -0.0138,7.485 3.7281728,3.7281728 0 0 0 3.75471,-3.664 3.7426794,3.7426794 0 0 0 -3.74562,-3.821 z m 33.39786,0 a 3.7426794,3.7426794 0 0 0 -0.004,7.485 3.7165676,3.7165676 0 0 0 3.75414,-3.71614 3.7426794,3.7426794 0 0 0 -3.74731,-3.76886 z m -33.38938,2.35273 a 1.4187365,1.4187365 0 0 1 1.40141,1.39568 1.4506508,1.4506508 0 0 1 -1.4042,1.4042 1.412934,1.412934 0 0 1 -1.39286,-1.4042 1.3926248,1.3926248 0 0 1 1.39565,-1.39568 z m 33.37977,0 a 1.4071315,1.4071315 0 0 1 1.38939,1.40133 1.4303417,1.4303417 0 0 1 -1.40415,1.39855 1.4042301,1.4042301 0 0 1 -1.37816,-1.41327 1.3839209,1.3839209 0 0 1 1.39292,-1.38661 z"
     id="path86261-4-9"
     style="opacity:1;fill:#ffffff;stroke-width:0.29013" />
  <path
     id="rect148209-0"
     style="opacity:1;fill:#ffffff;stroke:none;stroke-width:1.80987;paint-order:stroke fill markers"
     d="m 337.86094,136.27669 c -1.51534,0 -2.5196,1.35419 -3.0935,2.7354 l -3.74873,6.96414 -4.06715,1.43677 c -0.25563,0.0902 -0.56884,0.1664 -0.79727,0.31013 -0.43886,0.27623 -0.71413,0.70169 -0.71413,1.25269 v 10.90946 c 0,0.83754 0.67372,1.51142 1.5114,1.51142 h 1.37462 c -6e-5,-0.0111 -0.001,-0.0208 -0.001,-0.0314 0,-3.57635 2.92941,-6.50657 6.50566,-6.50657 3.57638,0 6.50729,2.93022 6.50729,6.50657 0,0.0111 -10e-4,0.0209 -10e-4,0.0314 h 4.42165 19.58559 2.81132 c -4e-5,-0.0111 -10e-4,-0.0208 -10e-4,-0.0314 0,-3.57635 2.9303,-6.50657 6.50652,-6.50657 3.57625,0 6.50644,2.93022 6.50644,6.50657 0,0.0111 -10e-4,0.0209 -10e-4,0.0314 h 2.94988 c 0.847,0 1.52923,-0.68144 1.52923,-1.52848 v -9.6995 -1.5294 h -1.52923 -18.77116 -15.99941 v -0.6271 -7.24384 -4.49169 h -4.59181 -5.88949 z m 1.51767,1.89997 h 0.52696 5.65943 0.77078 v 0.77088 7.5244 0.771 h -0.77078 -5.65943 -6.01773 c -0.18922,0 -0.35433,-0.0682 -0.47559,-0.1834 -0.2364,-0.22491 -0.28937,-0.58788 -0.15545,-0.83612 l 3.52411,-6.53611 c 0.63775,-1.18278 1.86606,-1.51064 2.5977,-1.51065 z m -4.5475,18.12852 c -2.79402,0 -5.05879,2.26559 -5.05878,5.05969 0,2.79401 2.26476,5.05882 5.05878,5.05882 2.79413,0 5.05884,-2.26481 5.05884,-5.05882 0,-2.7941 -2.26471,-5.05969 -5.05884,-5.05969 z m 39.82856,0 c -2.79404,0 -5.05883,2.26559 -5.05883,5.05969 0,2.79401 2.26479,5.05882 5.05883,5.05882 2.79404,0 5.05876,-2.26481 5.05876,-5.05882 0,-2.7941 -2.26472,-5.05969 -5.05876,-5.05969 z m -39.82856,2.56755 a 2.4915611,2.4915676 0 0 1 2.49137,2.49214 2.4915611,2.4915676 0 0 1 -2.49137,2.49128 2.4915611,2.4915676 0 0 1 -2.49129,-2.49128 2.4915611,2.4915676 0 0 1 2.49129,-2.49214 z m 39.82856,0 a 2.4915611,2.4915676 0 0 1 2.49131,2.49214 2.4915611,2.4915676 0 0 1 -2.49131,2.49128 2.4915611,2.4915676 0 0 1 -2.4914,-2.49128 2.4915611,2.4915676 0 0 1 2.4914,-2.49214 z" />
</svg>
