<?xml version="1.0" encoding="UTF-8" standalone="no"?>
<svg
   xmlns:dc="http://purl.org/dc/elements/1.1/"
   xmlns:cc="http://creativecommons.org/ns#"
   xmlns:rdf="http://www.w3.org/1999/02/22-rdf-syntax-ns#"
   xmlns:svg="http://www.w3.org/2000/svg"
   xmlns="http://www.w3.org/2000/svg"
   xmlns:sodipodi="http://sodipodi.sourceforge.net/DTD/sodipodi-0.dtd"
   xmlns:inkscape="http://www.inkscape.org/namespaces/inkscape"
   inkscape:version="1.0 (4035a4fb49, 2020-05-01)"
   height="333.20657"
   width="333.40964"
   sodipodi:docname="Turkey_road_sign_B-61f.svg"
   id="svg86372"
   version="1.1"
   viewBox="0 0 333.40963 333.20657">
  <metadata
     id="metadata86376">
    <rdf:RDF>
      <cc:Work
         rdf:about="">
        <dc:format>image/svg+xml</dc:format>
        <dc:type
           rdf:resource="http://purl.org/dc/dcmitype/StillImage" />
        <dc:title></dc:title>
      </cc:Work>
    </rdf:RDF>
  </metadata>
  <sodipodi:namedview
     inkscape:current-layer="svg86372"
     inkscape:window-maximized="1"
     inkscape:window-y="-9"
     inkscape:window-x="-9"
     inkscape:cy="330.6954"
     inkscape:cx="414.07618"
     inkscape:zoom="1.7748307"
     showgrid="false"
     id="namedview86374"
     inkscape:window-height="1001"
     inkscape:window-width="1920"
     inkscape:pageshadow="2"
     inkscape:pageopacity="0"
     guidetolerance="10"
     gridtolerance="10"
     objecttolerance="10"
     borderopacity="1"
     bordercolor="#666666"
     pagecolor="#ffffff" />
  <defs
     id="defs86346">
    <style
       id="style86344">
      .cls-1 {
        fill: #00408c;
        fill-rule: evenodd;
      }

      .cls-2 {
        fill: #fff;
      }
    </style>
  </defs>
  <path
     id="rect845"
     style="font-size:24.9647px;line-height:97.02%;font-family:BywayEMod;-inkscape-font-specification:BywayEMod;text-align:center;text-anchor:middle;opacity:1;fill:#00408c;fill-opacity:1;fill-rule:evenodd;stroke:none;stroke-width:0.448;stroke-linecap:round;stroke-linejoin:round;stroke-miterlimit:4;stroke-dasharray:none;stroke-opacity:1;paint-order:fill markers stroke"
     d="M 0.22400001,0.22400001 V 332.83586 H 333.18565 V 0.22400001 Z"
     sodipodi:nodetypes="ccccc" />
  <path
     id="rect65725"
     style="opacity:1;fill:#ffffff;stroke:none;stroke-width:4.89557;stroke-miterlimit:4;stroke-dasharray:none;stroke-opacity:1;paint-order:stroke fill markers"
     d="m 26.38271,24.754248 c -5.76724,0 -10.48471,4.717498 -10.48471,10.484703 v 87.338089 c 0,5.7672 4.71747,10.4847 10.48471,10.4847 h 280.51234 c 5.76722,0 10.48757,-4.7175 10.48757,-10.4847 V 35.238951 c 0,-5.767205 -4.72035,-10.484703 -10.48757,-10.484703 z m -0.003,2.41977 h 280.51808 c 4.46809,0 8.06494,3.596862 8.06494,8.064933 v 87.338089 c 0,4.46809 -3.59685,8.06493 -8.06494,8.06493 H 26.37977 c -4.46807,0 -8.06493,-3.59684 -8.06493,-8.06493 V 35.238951 c 0,-4.468071 3.59686,-8.064933 8.06493,-8.064933 z m 223.90305,13.563876 c -4.78,0 -8.62973,3.846864 -8.62973,8.626866 v 59.07499 c 0,4.77999 3.84973,8.62688 8.62973,8.62688 h 42.46634 c 4.77999,0 8.62687,-3.84689 8.62687,-8.62688 V 49.36476 c 1e-5,-4.780002 -3.84688,-8.626866 -8.62687,-8.626866 z m 8.11082,5.172112 a 9.7729257,9.7729257 0 0 1 0.003,0 9.7729257,9.7729257 0 0 1 0.0631,0 9.7729257,9.7729257 0 0 1 9.77368,9.773676 9.7729257,9.7729257 0 0 1 -9.77368,9.770812 9.7729257,9.7729257 0 0 1 -9.77369,-9.770812 9.7729257,9.7729257 0 0 1 9.70775,-9.773676 z m 0.0147,5.126226 a 4.6479344,4.6479344 0 0 0 -4.59584,4.64745 4.6479344,4.6479344 0 0 0 4.64745,4.64745 4.6479344,4.6479344 0 0 0 4.64744,-4.64745 4.6479344,4.6479344 0 0 0 -4.64744,-4.64745 4.6479344,4.6479344 0 0 0 -0.0517,0 z m -24.4901,2.150276 v 43.5644 h 3.57805 v -43.5644 z m -7.51735,3.165193 v 40.227182 h 3.51785 V 56.351701 Z m -75.93882,4.647435 c -1.68141,0.01174 -3.18966,0.223799 -4.68472,0.736835 -2.04934,0.703161 -4.2315,1.544042 -5.68817,3.147989 -1.46451,1.612549 -2.49274,3.819281 -2.60038,5.994937 -0.10496,2.1213 0.69826,4.34845 1.9467,6.066616 1.02477,1.410329 2.63789,2.376511 4.2432,3.056259 1.32019,0.558938 2.81594,0.550087 4.23459,0.756886 2.48057,0.361798 6.70093,0.898526 8.16528,1.450712 0.43096,0.162498 0.87351,0.493484 1.12674,0.802774 0.52503,0.6412 0.84132,1.544115 0.75402,2.368158 -0.10481,0.991019 -0.64617,2.052249 -1.48224,2.594658 -1.58498,1.028261 -3.71566,1.48901 -5.73692,1.551059 -3.15766,0.09718 -6.87039,-1.644227 -8.66988,-4.059712 l -4.57318,3.801681 c 4.30758,4.264031 7.63326,6.172688 13.15962,6.172688 4.14478,0 7.61989,-1.108232 9.91131,-3.096377 2.32512,-1.988101 3.22331,-4.328325 3.27987,-6.86365 0.0583,-2.611818 -0.90534,-5.258969 -3.06199,-7.213425 -2.1229,-1.988145 -6.5641,-2.225991 -11.28172,-3.102131 -1.95447,-0.370649 -3.50249,-0.508706 -4.5471,-1.115263 -1.04465,-0.606543 -1.51379,-1.600381 -1.56253,-2.614725 -0.049,-1.013801 0.53358,-2.088858 1.30163,-2.752341 1.49646,-1.292661 3.69686,-1.775327 5.67383,-1.731686 2.72717,0.06004 5.2115,0.589427 7.71516,2.729413 l 3.85614,-4.501231 c -3.21417,-2.857664 -7.4375,-4.207515 -11.47955,-4.180124 z m 68.59925,0.991988 v 7.517342 h -13.15103 v 23.655796 h 13.15103 v 7.399788 0.87157 3.82461 h 18.43497 v -4.69618 H 222.40392 V 61.991124 Z M 84.06751,62.35524 60.28842,62.39546 v 33.045289 l 23.77909,-0.02584 v -5.920412 l -17.76121,0.02584 -0.0888,-7.935918 11.25306,0.01717 v -6.015018 l -11.25306,-0.01718 0.0888,-7.253558 17.76121,-0.04301 z m 13.60402,0 v 33.053905 l 8.30576,0.02862 c 0,0 5.85566,-0.0015 6.50527,-0.126094 0.3622,-0.06929 0.67621,-0.122424 0.69383,-0.120369 0.02,0.0029 0.0755,-0.0088 0.1233,-0.02584 0.0477,-0.01864 0.33403,-0.10525 0.63649,-0.189214 0.86559,-0.240195 1.65505,-0.535731 2.34523,-0.88304 1.44014,-0.724739 2.23722,-1.293615 3.40028,-2.422633 1.18625,-1.151535 1.95457,-2.20908 2.64339,-3.638257 1.49293,-3.096994 2.13051,-8.141691 1.5654,-12.394139 -0.50702,-3.814995 -1.36589,-6.084349 -3.19386,-8.42905 -0.3314,-0.425138 -1.6437,-1.689938 -2.24774,-2.167465 -0.88249,-0.697627 -2.74304,-1.672396 -3.74433,-1.961047 -0.15105,-0.04389 -0.49776,-0.146792 -0.76837,-0.229362 -0.27061,-0.0822 -0.7383,-0.187732 -1.04074,-0.235087 -0.30248,-0.04756 -0.69353,-0.117286 -0.86869,-0.154821 -0.23334,-0.05035 -2.19169,-0.07516 -7.33672,-0.08881 z m 5.90607,5.960545 3.94789,0.02011 c 4.31756,0.01996 4.16095,0.0059 5.25525,0.375581 0.51561,0.174109 1.50959,0.658859 1.79476,0.874437 0.77395,0.584759 1.25312,1.051791 1.69728,1.651405 0.85201,1.150229 1.2622,2.27295 1.62846,4.463961 0.33815,2.023624 0.30935,5.178967 -0.0631,6.803436 -0.0476,0.206961 -0.12712,0.57692 -0.17489,0.825702 -0.37879,1.980365 -1.35894,3.604481 -2.85841,4.733455 -0.20696,0.155819 -0.70011,0.451883 -1.09807,0.656555 -0.69515,0.357643 -0.8904,0.426414 -1.8521,0.650815 -0.38582,0.09028 -0.87253,0.10569 -4.35788,0.123305 l -3.91921,0.02011 z m 173.94511,9.171609 a 15.76687,15.76687 0 0 1 0.0888,0 15.76687,15.76687 0 0 1 15.76863,15.76575 15.76687,15.76687 0 0 1 -15.76863,15.765746 15.76687,15.76687 0 0 1 -15.76575,-15.765746 15.76687,15.76687 0 0 1 15.67687,-15.76575 z m -0.14908,4.977144 a 10.789718,10.789718 0 0 0 -10.57357,10.788606 10.789718,10.789718 0 0 0 10.78861,10.788606 10.789718,10.789718 0 0 0 10.79147,-10.788606 10.789718,10.789718 0 0 0 -10.79147,-10.788606 10.789718,10.789718 0 0 0 -0.21504,0 z" />
  <path
     id="path43039"
     d="M 0.22401001,0.22402601 H 333.08915 V 333.08914 H 0.22401001 Z m 0,0"
     style="fill:none;stroke:#2e4fa8;stroke-width:0.234866;stroke-linecap:round;stroke-linejoin:round;stroke-miterlimit:10;stroke-opacity:1" />
  <path
     style="color:#000000;font-style:normal;font-variant:normal;font-weight:normal;font-stretch:normal;font-size:medium;line-height:normal;font-family:sans-serif;-inkscape-font-specification:BywayEMod;font-variant-ligatures:normal;font-variant-position:normal;font-variant-caps:normal;font-variant-numeric:normal;font-variant-alternates:normal;font-variant-east-asian:normal;font-feature-settings:normal;font-variation-settings:normal;text-indent:0;text-align:start;text-decoration:none;text-decoration-line:none;text-decoration-style:solid;text-decoration-color:#000000;letter-spacing:normal;word-spacing:normal;text-transform:none;writing-mode:lr-tb;direction:ltr;text-orientation:mixed;dominant-baseline:auto;baseline-shift:baseline;text-anchor:start;white-space:normal;shape-padding:0;shape-margin:0;inline-size:0;clip-rule:nonzero;display:inline;overflow:visible;visibility:visible;opacity:1;isolation:auto;mix-blend-mode:normal;color-interpolation:sRGB;color-interpolation-filters:linearRGB;solid-color:#000000;solid-opacity:1;vector-effect:none;fill:#ffffff;fill-opacity:1;fill-rule:evenodd;stroke:none;stroke-width:7.43973;stroke-linecap:round;stroke-linejoin:miter;stroke-miterlimit:4;stroke-dasharray:none;stroke-dashoffset:0;stroke-opacity:1;paint-order:fill markers stroke;color-rendering:auto;image-rendering:auto;shape-rendering:auto;text-rendering:auto;enable-background:accumulate;stop-color:#000000"
     d="m 20.5025,5.364411 c -8.28802,0 -15.04038,6.753117 -15.04038,15.040989 v 292.13504 c 0,8.28794 6.75236,15.04125 15.04038,15.04125 h 292.70777 c 8.28866,0 15.04025,-6.75334 15.04025,-15.04125 V 20.4054 c 0,-8.287872 -6.75159,-15.040989 -15.04025,-15.040989 z m 0,5.126902 h 292.70777 c 5.53755,0 9.91417,4.377462 9.91417,9.914087 v 292.13504 c 0,5.53704 -4.37662,9.91436 -9.91417,9.91436 H 20.5025 c -5.53612,0 -9.91327,-4.37732 -9.91327,-9.91436 V 20.4054 c 0,-5.536625 4.37715,-9.914087 9.91327,-9.914087 z"
     id="path8322"
     sodipodi:nodetypes="ssssssssssssssssss" />
  <g
     transform="matrix(1.9572208,0,0,1.9572208,-415.90711,-325.56151)"
     id="g77246">
    <path
       d="m 297.67647,245.46679 a 16.942453,16.942453 0 0 0 -16.94238,16.94239 16.942453,16.942453 0 0 0 16.94238,16.94238 16.942453,16.942453 0 0 0 16.94239,-16.94238 16.942453,16.942453 0 0 0 -16.94239,-16.94239 z"
       style="opacity:1;fill:#ffffff;fill-opacity:1;stroke:none;stroke-width:2.26286;stroke-miterlimit:4;stroke-dasharray:none;stroke-opacity:1;paint-order:stroke fill markers"
       id="path77215" />
    <path
       d="m 297.47579,245.88574 a 16.523508,16.523508 0 0 0 -16.32276,16.52344 16.523508,16.523508 0 0 0 16.52344,16.52343 16.523508,16.523508 0 0 0 16.52344,-16.52343 16.523508,16.523508 0 0 0 -16.52344,-16.52344 16.523508,16.523508 0 0 0 -0.20068,0 z m 0.20068,4.11621 a 12.406063,12.406063 0 0 1 12.40576,12.40723 12.406063,12.406063 0 0 1 -12.40576,12.40575 12.406063,12.406063 0 0 1 -12.40576,-12.40575 12.406063,12.406063 0 0 1 12.40576,-12.40723 z"
       style="opacity:1;fill:#ef0311;fill-opacity:1;stroke:none;stroke-width:2.20691;stroke-miterlimit:4;stroke-dasharray:none;stroke-opacity:1;paint-order:stroke fill markers"
       id="circle77217" />
  </g>
  <g
     id="g77252"
     transform="matrix(1.9572208,0,0,1.9572208,-316.0685,-325.56151)">
    <path
       id="path77248"
       style="opacity:1;fill:#ffffff;fill-opacity:1;stroke:none;stroke-width:2.26286;stroke-miterlimit:4;stroke-dasharray:none;stroke-opacity:1;paint-order:stroke fill markers"
       d="m 297.67647,245.46679 a 16.942453,16.942453 0 0 0 -16.94238,16.94239 16.942453,16.942453 0 0 0 16.94238,16.94238 16.942453,16.942453 0 0 0 16.94239,-16.94238 16.942453,16.942453 0 0 0 -16.94239,-16.94239 z" />
    <path
       id="path77250"
       style="opacity:1;fill:#ef0311;fill-opacity:1;stroke:none;stroke-width:2.20691;stroke-miterlimit:4;stroke-dasharray:none;stroke-opacity:1;paint-order:stroke fill markers"
       d="m 297.47579,245.88574 a 16.523508,16.523508 0 0 0 -16.32276,16.52344 16.523508,16.523508 0 0 0 16.52344,16.52343 16.523508,16.523508 0 0 0 16.52344,-16.52343 16.523508,16.523508 0 0 0 -16.52344,-16.52344 16.523508,16.523508 0 0 0 -0.20068,0 z m 0.20068,4.11621 a 12.406063,12.406063 0 0 1 12.40576,12.40723 12.406063,12.406063 0 0 1 -12.40576,12.40575 12.406063,12.406063 0 0 1 -12.40576,-12.40575 12.406063,12.406063 0 0 1 12.40576,-12.40723 z" />
  </g>
  <g
     id="g77232"
     transform="matrix(1.9572208,0,0,1.9572208,-509.57573,-325.56151)">
    <path
       id="path77226"
       style="opacity:1;fill:#ffffff;fill-opacity:1;stroke:none;stroke-width:2.26286;stroke-miterlimit:4;stroke-dasharray:none;stroke-opacity:1;paint-order:stroke fill markers"
       d="m 294.51335,245.46679 a 16.942453,16.942453 0 0 0 -16.94238,16.94239 16.942453,16.942453 0 0 0 16.94238,16.94238 16.942453,16.942453 0 0 0 16.94239,-16.94238 16.942453,16.942453 0 0 0 -16.94239,-16.94239 z" />
    <path
       id="path77228"
       style="opacity:1;fill:#ef0311;fill-opacity:1;stroke:none;stroke-width:2.20691;stroke-miterlimit:4;stroke-dasharray:none;stroke-opacity:1;paint-order:stroke fill markers"
       d="m 294.31267,245.88574 a 16.523508,16.523508 0 0 0 -16.32276,16.52344 16.523508,16.523508 0 0 0 16.52344,16.52343 16.523508,16.523508 0 0 0 16.52344,-16.52343 16.523508,16.523508 0 0 0 -16.52344,-16.52344 16.523508,16.523508 0 0 0 -0.20068,0 z m 0.20068,4.11621 a 12.406063,12.406063 0 0 1 12.40576,12.40723 12.406063,12.406063 0 0 1 -12.40576,12.40575 12.406063,12.406063 0 0 1 -12.40576,-12.40575 12.406063,12.406063 0 0 1 12.40576,-12.40723 z" />
  </g>
  <g
     transform="matrix(1.9572208,0,0,1.9572208,-415.90711,-325.56151)"
     id="g77330"
     style="fill:#000000">
    <g
       id="g77320"
       style="fill:#000000">
      <path
         id="path196759"
         style="font-size:24.9647px;line-height:97.02%;font-family:BywayEMod;-inkscape-font-specification:BywayEMod;text-align:center;text-anchor:middle;fill:#000000;fill-opacity:0.996466;fill-rule:nonzero;stroke:none;stroke-width:0.0650731"
         d="m 251.92202,255.07489 c -0.003,-1.4e-4 -0.005,-6e-5 -0.009,3e-4 -1.49654,0.002 -2.84031,0.94225 -3.39885,2.37439 -0.006,0.005 -0.01,0.0111 -0.0106,0.0176 l -0.11535,0.44909 c 0,2.4e-4 0,7.1e-4 0,7.1e-4 l -0.10375,0.45192 c 0,2.8e-4 0,7.1e-4 0,7.1e-4 l -0.0945,0.45184 c -10e-6,7.1e-4 -10e-6,10e-4 0,0.002 l -0.0785,0.45863 c 0,8e-5 0,1.5e-4 0,2.9e-4 l -0.0697,0.45859 c 0,2.4e-4 0,7.2e-4 0,7.2e-4 l -0.0613,0.46148 c -1e-5,7.1e-4 -1e-5,10e-4 0,0.002 l -0.0452,0.46138 c 0,6e-5 0,1.4e-4 0,2.8e-4 l -0.0368,0.46147 c 0,2.8e-4 0,7.2e-4 0,7.2e-4 l -0.0252,0.46536 c 0,2.9e-4 0,7.1e-4 0,7.1e-4 l -0.0116,0.46429 c 0,2.8e-4 0,7.1e-4 0,7.1e-4 v 0.46529 c 0,2.5e-4 0,7.1e-4 0,7.1e-4 l 0.0106,0.46533 c 0,2.9e-4 0,7.1e-4 0,7.1e-4 l 0.022,0.46423 c 0,2.5e-4 0,7.1e-4 0,7.1e-4 l 0.0328,0.46146 c 0,2.3e-4 0,7.1e-4 0,7.1e-4 l 0.0453,0.46532 c 0,2.9e-4 0,7.3e-4 0,7.3e-4 l 0.0583,0.45861 c -2e-5,2.8e-4 -2e-5,7.1e-4 0,7.1e-4 l 0.0673,0.46147 c 0,3e-4 0,7.3e-4 0,7.3e-4 l 0.0782,0.45475 c -1e-5,2.4e-4 -1e-5,7.1e-4 0,7.1e-4 l 0.0916,0.45577 c 7.3e-4,0.004 0.002,0.01 0.004,0.011 0.20906,1.91112 1.77364,3.35941 3.63839,3.36487 0.004,10e-4 0.009,0.002 0.0106,0.002 1.87443,0 3.44724,-1.45803 3.6501,-3.38114 7.3e-4,-0.004 7.3e-4,-0.009 0,-0.011 0.53953,-2.54913 0.53956,-5.18996 0,-7.74004 7.3e-4,-0.004 7.3e-4,-0.009 0,-0.0106 -0.20274,-1.92099 -1.77371,-3.37823 -3.64651,-3.38009 -0.001,-6e-5 -0.003,-6e-5 -0.004,0 z m 0,2.12183 c 0.85492,0 1.56028,0.68648 1.61152,1.56867 -10e-4,0.006 -10e-4,0.0106 0,0.0151 0.51598,2.33966 0.51598,4.7698 0,7.10947 -10e-4,0.006 -10e-4,0.0107 0,0.015 -0.0513,0.88208 -0.75644,1.56993 -1.61115,1.57011 v 0 c -0.62934,0 -1.20132,-0.37813 -1.46637,-0.96923 -0.002,-0.004 -0.004,-0.007 -0.007,-0.01 l -0.10151,-0.41611 -0.0937,-0.43209 -0.0821,-0.43594 -0.0732,-0.43878 -0.0605,-0.44164 -0.0452,-0.44163 -0.0369,-0.44553 -0.0251,-0.44161 -0.0116,-0.44442 v -0.44549 l 0.0116,-0.44479 0.0251,-0.44451 0.0369,-0.4455 0.0452,-0.44161 0.0605,-0.43879 0.0732,-0.43878 0.0821,-0.43879 0.0937,-0.43207 0.10194,-0.4172 c 0.003,-0.003 0.005,-0.006 0.007,-0.01 0.26505,-0.59113 0.83677,-0.96745 1.4664,-0.96745 z"
         sodipodi:nodetypes="ccccccccccccccccccccccccccccccccccccccccccccccccscccccscsscccccccccccccccccccccccc" />
      <g
         aria-label="6"
         transform="matrix(-0.60554503,0,0,-0.71110577,350.70915,-144.44047)"
         id="g158817"
         style="font-size:30px;line-height:1.15;font-family:'ALS Direct';-inkscape-font-specification:'ALS Direct';text-align:center;text-anchor:middle;fill:#000000;fill-opacity:0.996466;stroke-width:0.0743724">
        <path
           d="m 188.00254,-567.87523 c 0,1.74 -0.73152,3.21659 -2.05152,4.39659 -0.62795,0.56998 -1.38517,0.95286 -2.15218,1.22073 -0.82089,0.2867 -1.6624,0.43826 -2.66532,0.43826 -1.93998,0 -3.42858,-0.70662 -4.74858,-1.94662 -1.3,-1.24 -1.64896,-2.46146 -1.64896,-4.26146 0,-1.35592 0.12864,-2.69899 0.47241,-4.02318 0.36106,-1.39075 0.95466,-2.76066 1.68207,-4.10278 1.42,-2.64 3.75922,-4.65345 5.85762,-6.16015 l 2.12104,2.27231 c -1.79947,1.19838 -4.05484,3.43499 -5.1834,5.61844 0.76304,-0.18468 1.25277,-0.17088 2.11277,-0.17088 1.86,0 3.45863,0.97472 4.79863,2.17472 0.37451,0.33045 0.56638,0.75103 0.76802,1.1425 0.5306,1.03012 0.6374,2.18415 0.6374,3.40152 z m -3.44905,-0.004 c 0,-0.45227 0.0454,-1.07883 -0.0971,-1.66798 -0.10321,-0.42692 -0.32911,-0.83234 -0.62645,-1.14654 -0.57537,-0.60794 -1.50076,-0.97571 -2.50077,-0.97571 -1.13999,-0.02 -2.00154,0.44832 -2.58007,1.10321 -0.25737,0.29136 -0.46148,0.63232 -0.54812,1.00216 -0.14219,0.60701 -0.0616,1.27851 -0.074,1.83776 0,0.82 0.29116,1.59314 0.99116,2.17314 0.69999,0.58 1.31389,0.79936 2.31388,0.79936 0.98001,0 1.83659,-0.46139 2.412,-1.05494 0.53747,-0.55442 0.70946,-1.27046 0.70946,-2.07046 z"
           style="font-style:normal;font-variant:normal;font-weight:normal;font-stretch:normal;font-family:'Highway Gothic';-inkscape-font-specification:'Highway Gothic';fill:#000000;fill-opacity:0.996466;stroke-width:0.0743724"
           id="path158815"
           sodipodi:nodetypes="scsscssccccscssssscsscssas" />
      </g>
    </g>
    <path
       sodipodi:nodetypes="scccccccccccsccccccsssssscccsccccc"
       d="m 292.34825,255.07274 c -0.95221,0 -1.90461,0.37314 -2.63305,1.11934 -1.44889,1.48548 -1.473,3.89319 -0.0618,5.4105 -1.36131,1.70053 -1.62006,4.05427 -0.69583,6.01411 2.1e-4,2.4e-4 1.6e-4,7.2e-4 2.3e-4,0.002 2.3e-4,7.1e-4 2.4e-4,7.1e-4 7.2e-4,0.002 2.6e-4,7.1e-4 7.2e-4,0.002 0.002,0.003 0.01,0.0177 0.0169,0.0355 0.0269,0.0533 0.0484,0.10311 0.1014,0.20286 0.15773,0.30005 0.0106,0.0168 0.0172,0.0347 0.0283,0.0518 0.003,0.004 0.006,0.007 0.01,0.01 1.2e-4,8e-5 2.1e-4,2.8e-4 2.1e-4,2.8e-4 0.67625,1.1187 1.86852,1.816 3.16858,1.816 1.29812,0 2.48948,-0.69608 3.16601,-1.81303 0.006,-0.004 0.0106,-0.009 0.0131,-0.0127 0.0188,-0.0326 0.0343,-0.0673 0.0526,-0.10045 0.0297,-0.0528 0.0575,-0.10654 0.0846,-0.16095 1.01111,-1.98953 0.77679,-4.42126 -0.62087,-6.16572 1.40923,-1.51747 1.38446,-3.92349 -0.0637,-5.40832 -0.72831,-0.74634 -1.68065,-1.11938 -2.63299,-1.11938 z m -1.8e-4,2.15939 c 0.90862,0 1.64439,0.75878 1.64439,1.69858 0,0.93965 -0.73578,1.69983 -1.64439,1.69983 -0.90764,0 -1.64446,-0.76018 -1.64446,-1.69983 0,-0.9398 0.73677,-1.69858 1.64446,-1.69858 z m 0,5.41092 c 0.63561,0 1.21314,0.3783 1.48521,0.97204 0.48131,0.98032 0.47922,2.13875 -0.004,3.11489 -0.27356,0.58832 -0.8484,0.96449 -1.4812,0.96449 -0.55593,0 -1.06878,-0.29109 -1.3704,-0.76168 -7.1e-4,-0.004 -0.002,-0.007 -0.004,-0.0107 -0.60499,-1.05112 -0.62177,-2.35316 -0.0497,-3.42035 0.29094,-0.52716 0.83131,-0.85932 1.42406,-0.85932 z"
       style="font-size:24.9647px;line-height:97.02%;font-family:BywayEMod;-inkscape-font-specification:BywayEMod;text-align:center;text-anchor:middle;fill:#000000;fill-opacity:0.996466;fill-rule:nonzero;stroke:none;stroke-width:0.0650731"
       id="path198241" />
    <path
       id="path77298"
       style="font-size:24.9647px;line-height:97.02%;font-family:BywayEMod;-inkscape-font-specification:BywayEMod;text-align:center;text-anchor:middle;fill:#000000;fill-opacity:0.996466;fill-rule:nonzero;stroke:none;stroke-width:0.0650731"
       d="m 343.39205,255.07274 c -0.95221,0 -1.90461,0.37314 -2.63305,1.11934 -1.44889,1.48548 -1.473,3.89319 -0.0618,5.4105 -1.36131,1.70053 -1.62006,4.05427 -0.69583,6.01411 2.1e-4,2.4e-4 1.6e-4,7.2e-4 2.3e-4,0.002 2.3e-4,7.1e-4 2.4e-4,7.1e-4 7.2e-4,0.002 2.6e-4,7.1e-4 7.2e-4,0.002 0.002,0.003 0.01,0.0177 0.0169,0.0355 0.0269,0.0533 0.0484,0.10311 0.1014,0.20286 0.15773,0.30005 0.0106,0.0168 0.0172,0.0347 0.0283,0.0518 0.003,0.004 0.006,0.007 0.01,0.01 1.2e-4,8e-5 2.1e-4,2.8e-4 2.1e-4,2.8e-4 0.67625,1.1187 1.86852,1.816 3.16858,1.816 1.29812,0 2.48948,-0.69608 3.16601,-1.81303 0.006,-0.004 0.0106,-0.009 0.0131,-0.0127 0.0188,-0.0326 0.0343,-0.0673 0.0526,-0.10045 0.0297,-0.0528 0.0575,-0.10654 0.0846,-0.16095 1.01111,-1.98953 0.77679,-4.42126 -0.62087,-6.16572 1.40923,-1.51747 1.38446,-3.92349 -0.0637,-5.40832 -0.72831,-0.74634 -1.68065,-1.11938 -2.63299,-1.11938 z m -1.8e-4,2.15939 c 0.90862,0 1.64439,0.75878 1.64439,1.69858 0,0.93965 -0.73578,1.69983 -1.64439,1.69983 -0.90764,0 -1.64446,-0.76018 -1.64446,-1.69983 0,-0.9398 0.73677,-1.69858 1.64446,-1.69858 z m 0,5.41092 c 0.63561,0 1.21314,0.3783 1.48521,0.97204 0.48131,0.98032 0.47922,2.13875 -0.004,3.11489 -0.27356,0.58832 -0.8484,0.96449 -1.4812,0.96449 -0.55593,0 -1.06878,-0.29109 -1.3704,-0.76168 -7.1e-4,-0.004 -0.002,-0.007 -0.004,-0.0107 -0.60499,-1.05112 -0.62177,-2.35316 -0.0497,-3.42035 0.29094,-0.52716 0.83131,-0.85932 1.42406,-0.85932 z"
       sodipodi:nodetypes="scccccccccccsccccccsssssscccsccccc" />
    <path
       sodipodi:nodetypes="ccccccccccccccccccccccccccccccccccccccccccccccccscccccscsscccccccccccccccccccccccc"
       d="m 354.54143,255.07489 c -0.003,-1.4e-4 -0.005,-6e-5 -0.009,3e-4 -1.49654,0.002 -2.84031,0.94225 -3.39885,2.37439 -0.006,0.005 -0.01,0.0111 -0.0106,0.0176 l -0.11535,0.44909 c 0,2.4e-4 0,7.1e-4 0,7.1e-4 l -0.10375,0.45192 c 0,2.8e-4 0,7.1e-4 0,7.1e-4 l -0.0945,0.45184 c -10e-6,7.1e-4 -10e-6,10e-4 0,0.002 l -0.0785,0.45863 c 0,8e-5 0,1.5e-4 0,2.9e-4 l -0.0697,0.45859 c 0,2.4e-4 0,7.2e-4 0,7.2e-4 l -0.0613,0.46148 c -10e-6,7.1e-4 -10e-6,10e-4 0,0.002 l -0.0452,0.46138 c 0,6e-5 0,1.4e-4 0,2.8e-4 l -0.0368,0.46147 c 0,2.8e-4 0,7.2e-4 0,7.2e-4 l -0.0252,0.46536 c 0,2.9e-4 0,7.1e-4 0,7.1e-4 l -0.0116,0.46429 c 0,2.8e-4 0,7.1e-4 0,7.1e-4 v 0.46529 c 0,2.5e-4 0,7.1e-4 0,7.1e-4 l 0.0106,0.46533 c 0,2.9e-4 0,7.1e-4 0,7.1e-4 l 0.022,0.46423 c 0,2.5e-4 0,7.1e-4 0,7.1e-4 l 0.0328,0.46146 c 0,2.3e-4 0,7.1e-4 0,7.1e-4 l 0.0453,0.46532 c 0,2.9e-4 0,7.3e-4 0,7.3e-4 l 0.0583,0.45861 c -2e-5,2.8e-4 -2e-5,7.1e-4 0,7.1e-4 l 0.0673,0.46147 c 0,3e-4 0,7.3e-4 0,7.3e-4 l 0.0782,0.45475 c -10e-6,2.4e-4 -10e-6,7.1e-4 0,7.1e-4 l 0.0916,0.45577 c 7.3e-4,0.004 0.002,0.01 0.004,0.011 0.20906,1.91112 1.77364,3.35941 3.63839,3.36487 0.004,10e-4 0.009,0.002 0.0106,0.002 1.87443,0 3.44724,-1.45803 3.6501,-3.38114 7.3e-4,-0.004 7.3e-4,-0.009 0,-0.011 0.53953,-2.54913 0.53956,-5.18996 0,-7.74004 7.3e-4,-0.004 7.3e-4,-0.009 0,-0.0106 -0.20274,-1.92099 -1.77371,-3.37823 -3.64651,-3.38009 -0.001,-6e-5 -0.003,-6e-5 -0.004,0 z m 0,2.12183 c 0.85492,0 1.56028,0.68648 1.61152,1.56867 -10e-4,0.006 -10e-4,0.0106 0,0.0151 0.51598,2.33966 0.51598,4.7698 0,7.10947 -10e-4,0.006 -10e-4,0.0107 0,0.015 -0.0513,0.88208 -0.75644,1.56993 -1.61115,1.57011 v 0 c -0.62934,0 -1.20132,-0.37813 -1.46637,-0.96923 -0.002,-0.004 -0.004,-0.007 -0.007,-0.01 l -0.10151,-0.41611 -0.0937,-0.43209 -0.0821,-0.43594 -0.0732,-0.43878 -0.0605,-0.44164 -0.0452,-0.44163 -0.0369,-0.44553 -0.0251,-0.44161 -0.0116,-0.44442 v -0.44549 l 0.0116,-0.44479 0.0251,-0.44451 0.0369,-0.4455 0.0452,-0.44161 0.0605,-0.43879 0.0732,-0.43878 0.0821,-0.43879 0.0937,-0.43207 0.10194,-0.4172 c 0.003,-0.003 0.005,-0.006 0.007,-0.01 0.26505,-0.59113 0.83677,-0.96745 1.4664,-0.96745 z"
       style="font-size:24.9647px;line-height:97.02%;font-family:BywayEMod;-inkscape-font-specification:BywayEMod;text-align:center;text-anchor:middle;fill:#000000;fill-opacity:0.996466;fill-rule:nonzero;stroke:none;stroke-width:0.0650731"
       id="path77300" />
    <path
       sodipodi:nodetypes="scscccsaccccccccccscssss"
       id="path208684"
       style="font-style:normal;font-variant:normal;font-weight:normal;font-stretch:normal;font-size:30px;line-height:1.15;font-family:'Highway Gothic';-inkscape-font-specification:'Highway Gothic';text-align:center;text-anchor:middle;fill:#000000;fill-opacity:0.996466;stroke-width:0.0481119"
       d="m 306.80049,264.01652 c -0.007,1.38616 -0.34262,2.79707 -1.30775,3.94696 -0.95341,1.14989 -2.31763,1.63226 -3.81245,1.63226 -1.04757,0 -2.18624,-0.71601 -2.87525,-1.31532 l 1.43428,-1.47301 c 0.55322,0.34072 1.10048,0.71997 1.77139,0.71997 0.60406,0.0199 1.21452,-0.23648 1.69802,-0.68032 0.21355,-0.19595 0.41219,-0.43982 0.53535,-0.7093 0.30554,-0.66859 0.46117,-1.36175 0.46117,-2.15675 0.0133,-0.68143 0.0764,-1.26344 -0.32381,-1.73192 -0.38842,-0.46849 -0.89556,-0.84847 -1.49586,-0.84847 -0.76507,-0.0133 -1.54206,0.4118 -1.83363,1.45276 l -1.92363,-0.22551 0.31485,-7.55513 h 6.77209 v 2.05767 h -4.81189 l -0.0983,2.51649 c 0,0 0.27897,-0.12089 0.64401,-0.20458 0.32614,-0.0747 0.72352,-0.11325 1.00681,-0.11325 0.61738,0.0166 1.15963,0.18797 1.65459,0.44022 0.40149,0.20459 0.83979,0.46394 1.10711,0.84335 0.25142,0.35699 0.53691,0.7304 0.70628,1.14368 0.29227,0.71319 0.38101,1.50645 0.37649,2.26036 z" />
  </g>
  <g
     transform="matrix(1.9572208,0,0,1.9572208,-415.90711,-325.56151)"
     id="g86307"
     style="fill:#ffffff">
    <path
       d="m 340.97258,307.83899 v 11.50147 h 24.66835 v -11.50147 z m -7.15123,3.88302 -2.07129,5.23043 v 5.87514 h 1.25143 c 0,0 -0.0141,-0.3808 0.12375,-0.86706 0.11545,-0.40913 0.34661,-0.8889 0.69822,-1.31515 0.2933,-0.35558 0.73937,-0.64764 1.19951,-0.85264 0.47443,-0.21136 0.86221,-0.31477 1.31357,-0.33272 0.32946,-0.013 0.66786,0.0463 0.97508,0.16597 0.61746,0.24063 1.25996,0.55843 1.66884,1.08074 0.32553,0.41585 0.54012,0.90523 0.64524,1.31934 0.11324,0.44572 0.1041,0.80152 0.1041,0.80152 h 15.14748 c 0,0 0.0101,-0.17884 0.0469,-0.44599 0.038,-0.26837 0.12021,-0.58531 0.2024,-0.78499 0.0875,-0.21293 0.25032,-0.51507 0.42528,-0.75379 0.11308,-0.1543 0.22883,-0.28403 0.30833,-0.36786 0.0613,-0.0647 0.10094,-0.10199 0.10095,-0.10199 h -16.00772 v -8.65095 z m 0.31516,1.42999 h 4.77264 v 3.32981 h -6.09014 z m 2.23228,7.1326 c -1.39853,0 -2.5435,1.14729 -2.5435,2.53983 0,1.39254 1.14497,2.54036 2.5435,2.54036 1.39853,-1e-5 2.54402,-1.14782 2.54402,-2.54036 0,-1.39254 -1.14549,-2.53983 -2.54402,-2.53983 z m 21.86974,0 c -1.39853,0 -2.54349,1.14729 -2.54349,2.53983 0,1.39254 1.14496,2.54036 2.54349,2.54036 1.39853,-1e-5 2.5443,-1.14782 2.5443,-2.54036 0,-1.39254 -1.14577,-2.53983 -2.5443,-2.53983 z m 2.29705,0.0883 c 0,0 0.20924,0.19679 0.40954,0.47011 0.175,0.2387 0.33753,0.54112 0.42501,0.75406 0.082,0.19967 0.16519,0.51556 0.20319,0.78394 0.0384,0.26715 0.0304,0.48714 0.0304,0.48714 l 4.03693,-1.31356 v -1.18169 z m -24.16679,1.32117 c 0.62835,10e-6 1.12662,0.49548 1.12662,1.1303 0,0.63481 -0.49827,1.13108 -1.12662,1.13108 -0.62835,0 -1.1261,-0.49627 -1.1261,-1.13108 0,-0.63482 0.49775,-1.1303 1.1261,-1.1303 z m 21.86974,0 c 0.62836,10e-6 1.12663,0.49548 1.12663,1.1303 0,0.63481 -0.49827,1.13108 -1.12663,1.13108 -0.62837,0 -1.12609,-0.49627 -1.12609,-1.13108 0,-0.63482 0.49772,-1.1303 1.12609,-1.1303 z"
       style="font-size:24.9647px;line-height:97.02%;font-family:BywayEMod;-inkscape-font-specification:BywayEMod;text-align:center;text-anchor:middle;opacity:1;fill:#ffffff;fill-opacity:1;fill-rule:evenodd;stroke:none;stroke-width:0.356544;stroke-linecap:round;stroke-linejoin:round;stroke-miterlimit:10;stroke-dasharray:none;stroke-opacity:0.87451"
       id="path61228" />
    <path
       d="m 293.92746,295.4086 c -0.25819,0 -0.83344,0.16815 -1.19932,0.44655 -0.24809,0.18877 -0.48235,0.43297 -0.7324,0.70035 -1.13034,1.20874 -4.11726,4.34984 -4.11726,4.34984 0,0 -0.29903,0.3327 -0.50285,0.39674 -0.33848,0.10634 -0.99044,0.23085 -1.33358,0.30276 -1.14983,0.24091 -1.84717,0.38069 -3.44722,0.70945 -0.26748,0.055 -0.67,0.11053 -0.92948,0.30881 -0.22299,0.17041 -0.3036,0.31229 -0.46604,0.70123 -0.23387,0.56 -0.59294,1.32881 -0.59294,1.32881 v 0.28716 2.28082 c 10e-6,0.33171 0.26687,0.59858 0.59858,0.59858 h 0.94767 v -0.0225 c 0,-1.95331 1.57273,-3.52561 3.52604,-3.52561 1.9533,0 3.52561,1.5723 3.52561,3.52561 v 0.0225 h 15.72621 v -0.0225 c 0,-1.95331 1.5723,-3.52561 3.52561,-3.52561 1.95331,0 3.52605,1.5723 3.52605,3.52561 v 0.0225 h 1.59388 c 0.33171,0 0.599,-0.26687 0.599,-0.59858 v -2.76288 -0.53578 -7.36696 c 0,-0.63524 -0.51166,-1.1469 -1.1469,-1.1469 z m -0.0226,1.09362 h 0.56091 0.23431 2.5827 c 0.30618,0 0.55266,0.24649 0.55266,0.55266 v 4.84578 c 0,0.30617 -0.24648,0.55266 -0.55266,0.55266 h -2.5827 -2.89542 -1.3678 c -1.12792,0 -1.44707,-1.25074 -0.82466,-1.91007 l 2.80013,-2.96645 c 0.44125,-0.46742 0.84973,-1.07458 1.49253,-1.07458 z m 5.50238,3.1e-4 h 5.47812 c 0.30617,0 0.55266,0.24648 0.55266,0.55266 v 4.84532 c 0,0.30618 -0.24649,0.55266 -0.55266,0.55266 h -5.47811 c -0.30619,0 -0.55267,-0.24648 -0.55267,-0.55266 v -4.84532 c 0,-0.30618 0.24648,-0.55266 0.55267,-0.55266 z m 7.52939,0 h 5.47811 c 0.30618,0 0.55267,0.24648 0.55267,0.55266 v 4.84532 c 0,0.30618 -0.24649,0.55266 -0.55267,0.55266 h -5.47811 c -0.30618,0 -0.55267,-0.24648 -0.55267,-0.55266 v -4.84532 c 0,-0.30618 0.24649,-0.55266 0.55267,-0.55266 z m -21.29659,8.57233 a 2.7323614,2.7323614 0 0 0 -2.69488,2.73213 2.7323614,2.7323614 0 0 0 2.73212,2.73257 2.7323614,2.7323614 0 0 0 2.73257,-2.73257 2.7323614,2.7323614 0 0 0 -2.73257,-2.73213 2.7323614,2.7323614 0 0 0 -0.0373,0 z m 22.77786,0 a 2.7323614,2.7323614 0 0 0 -2.69488,2.73213 2.7323614,2.7323614 0 0 0 2.73213,2.73257 2.7323614,2.7323614 0 0 0 2.73256,-2.73257 2.7323614,2.7323614 0 0 0 -2.73256,-2.73213 2.7323614,2.7323614 0 0 0 -0.0373,0 z m -22.74062,1.86936 a 0.86293073,0.86293073 0 0 1 0.86322,0.86277 0.86293073,0.86293073 0 0 1 -0.86322,0.86322 0.86293073,0.86293073 0 0 1 -0.86277,-0.86322 0.86293073,0.86293073 0 0 1 0.86277,-0.86277 z m 22.77787,0 a 0.86293073,0.86293073 0 0 1 0.86321,0.86277 0.86293073,0.86293073 0 0 1 -0.86321,0.86322 0.86293073,0.86293073 0 0 1 -0.86278,-0.86322 0.86293073,0.86293073 0 0 1 0.86278,-0.86277 z"
       style="opacity:1;fill:#ffffff;stroke-width:1.20598;paint-order:stroke fill markers"
       id="rect82571" />
    <path
       d="m 242.94831,297.46094 -5.49124,4.34936 -6.77612,0.48164 -0.83493,2.50558 1.39723,2.7688 2.80966,0.43685 c 0,0 0.0282,-1.09125 0.65029,-1.88489 0.30699,-0.39163 0.73477,-0.71659 1.21207,-0.91272 0.39467,-0.16217 0.83798,-0.23009 1.14319,-0.23125 0.32602,-10e-4 0.77004,0.0499 1.18221,0.22889 0.48943,0.21252 0.94522,0.58605 1.26026,0.99549 0.57851,0.75182 0.58954,1.7851 0.58954,1.7851 h 12.87758 c 0,0 0.039,-1.08122 0.64899,-1.86603 0.26704,-0.34355 0.66031,-0.66678 1.07064,-0.86034 0.43627,-0.20579 0.89186,-0.27126 1.23512,-0.27447 0.32831,-0.003 0.79838,0.0257 1.22543,0.21345 0.48797,0.21453 0.93124,0.6135 1.24271,1.00779 0.60346,0.7639 0.5987,1.7796 0.5987,1.7796 l 3.8054,-0.28888 0.75453,-2.99376 -0.43318,-2.89085 h -5.508 l -4.39913,-4.34936 z m 0.16081,0.93813 h 3.4686 v 3.41123 h -7.65951 z m 4.30353,0 h 3.42014 l 2.29607,3.41123 h -5.71621 z m -10.32983,7.04691 c -1.39698,0 -2.54069,1.14602 -2.54069,2.53702 0,1.391 1.14371,2.53781 2.54069,2.53781 1.39698,0 2.54147,-1.14681 2.54147,-2.53781 0,-1.391 -1.14449,-2.53702 -2.54147,-2.53702 z m 18.88921,0 c -1.39698,0 -2.54067,1.14602 -2.54067,2.53702 0,1.391 1.14369,2.53781 2.54067,2.53781 1.39699,0 2.54148,-1.14681 2.54148,-2.53781 0,-1.391 -1.14449,-2.53702 -2.54148,-2.53702 z m -18.88921,1.40798 c 0.62766,0 1.12538,0.49493 1.12538,1.12904 0,0.63411 -0.49772,1.12984 -1.12538,1.12984 -0.62766,0 -1.1246,-0.49573 -1.1246,-1.12984 0,-0.63411 0.49694,-1.12904 1.1246,-1.12904 z m 18.88921,0 c 0.62766,0 1.12539,0.49493 1.12539,1.12904 0,0.63411 -0.49773,1.12984 -1.12539,1.12984 -0.62765,0 -1.12485,-0.49573 -1.12485,-1.12984 0,-0.63411 0.4972,-1.12904 1.12485,-1.12904 z"
       style="opacity:0.999883;fill:#ffffff;fill-opacity:1;fill-rule:evenodd;stroke:none;stroke-width:1.36837;stroke-linecap:round;stroke-linejoin:round;stroke-miterlimit:10"
       id="rect71629" />
    <path
       style="fill:#ffffff;stroke-width:0.162388"
       id="path86261"
       d="m 362.94548,288.42973 a 0.2322154,0.2322154 0 0 0 -0.0333,0.003 h -26.82803 -0.20448 v 4.70926 h 28.39197 c -0.03,-0.43195 0.0439,-0.86877 -0.0974,-1.29912 -0.34261,-1.06525 -0.66761,-2.14045 -0.9924,-3.21381 a 0.2322154,0.2322154 0 0 0 -0.23706,-0.19949 z m -30.36188,0.0199 c -0.0828,1.57028 -0.16392,3.1276 -0.24504,4.69465 h 2.93284 v -4.69465 z m 29.8633,0.87537 a 0.2224721,0.2224721 0 0 1 0.22408,0.18852 c 0.26965,0.88175 0.5424,1.76025 0.81194,2.64039 0.0166,0.0551 0.0267,0.11038 0.0439,0.17687 h -5.63981 l -0.007,-3.00259 h 0.18984 4.34197 a 0.2224721,0.2224721 0 0 1 0.0343,-0.003 z m -10.56824,0.0133 v 2.99118 h -4.6801 v -2.98643 z m -18.87923,0.003 h 1.76185 v 2.98959 h -1.89668 v -0.003 c 0.0456,-1.00521 0.0894,-1.99425 0.13466,-2.98643 z m 19.53703,0 h 4.70101 v 2.98803 h -4.70101 z m -16.02952,0.002 h 4.7045 l -0.003,2.98167 h -4.70134 z m 5.34265,0 h 4.69941 l -0.003,2.98167 h -4.69626 z m -9.6393,4.34389 c -0.0681,0.63982 -0.13332,1.2667 -0.19982,1.89189 -0.0662,0.62791 -0.13166,1.25522 -0.19649,1.88207 h 3.03527 a 2.6988949,2.6988949 0 0 1 2.40157,-2.98293 2.5982141,2.5982141 0 0 1 1.91473,0.55377 c 0.77946,0.61382 1.10425,1.44524 1.02792,2.43582 h 13.33995 c -0.14762,-1.66125 1.06379,-2.98307 2.66007,-3.00418 a 2.557617,2.557617 0 0 1 1.8107,0.69647 2.6680411,2.6680411 0 0 1 0.87504,2.24743 l 5.37185,-0.3898 v -3.33054 z m 5.30522,1.36096 a 2.09481,2.09481 0 0 0 -0.007,4.18942 2.0866906,2.0866906 0 0 0 2.10155,-2.05077 2.09481,2.09481 0 0 0 -2.09646,-2.13865 z m 18.69308,0 a 2.09481,2.09481 0 0 0 -0.003,4.18942 2.0801951,2.0801951 0 0 0 2.10122,-2.07996 2.09481,2.09481 0 0 0 -2.09739,-2.10946 z m -18.68833,1.31684 a 0.79407917,0.79407917 0 0 1 0.78438,0.78118 0.81194185,0.81194185 0 0 1 -0.78594,0.78594 0.79083141,0.79083141 0 0 1 -0.77959,-0.78594 0.77946423,0.77946423 0 0 1 0.78115,-0.78118 z m 18.68294,0 a 0.78758362,0.78758362 0 0 1 0.77766,0.78434 0.80057468,0.80057468 0 0 1 -0.78591,0.78278 0.78595974,0.78595974 0 0 1 -0.77137,-0.79102 0.77459257,0.77459257 0 0 1 0.77962,-0.7761 z" />
  </g>
</svg>
