<svg width="333.41" height="333.21" version="1.1" viewBox="0 0 333.41 333.21" xmlns="http://www.w3.org/2000/svg"><defs><style>.cls-1 {        fill: #00408c;        fill-rule: evenodd;      }      .cls-2 {        fill: #fff;      }</style></defs><path d="m0.224 0.224v332.61h332.96v-332.61z" fill="#00408c" fill-rule="evenodd" style="paint-order:fill markers stroke"/><path d="m26.383 24.754c-5.7672 0-10.485 4.7175-10.485 10.485v87.338c0 5.7672 4.7175 10.485 10.485 10.485h280.51c5.7672 0 10.488-4.7175 10.488-10.485v-87.338c0-5.7672-4.7204-10.485-10.488-10.485zm-3e-3 2.4198h280.52c4.4681 0 8.0649 3.5969 8.0649 8.0649v87.338c0 4.4681-3.5968 8.0649-8.0649 8.0649h-280.52c-4.4681 0-8.0649-3.5968-8.0649-8.0649v-87.338c0-4.4681 3.5969-8.0649 8.0649-8.0649zm223.9 13.564c-4.78 0-8.6297 3.8469-8.6297 8.6269v59.075c0 4.78 3.8497 8.6269 8.6297 8.6269h42.466c4.78 0 8.6269-3.8469 8.6269-8.6269v-59.075c1e-5 -4.78-3.8469-8.6269-8.6269-8.6269zm8.1108 5.1721a9.7729 9.7729 0 0 1 3e-3 0 9.7729 9.7729 0 0 1 0.0631 0 9.7729 9.7729 0 0 1 9.7737 9.7737 9.7729 9.7729 0 0 1-9.7737 9.7708 9.7729 9.7729 0 0 1-9.7737-9.7708 9.7729 9.7729 0 0 1 9.7078-9.7737zm0.0147 5.1262a4.6479 4.6479 0 0 0-4.5958 4.6474 4.6479 4.6479 0 0 0 4.6474 4.6474 4.6479 4.6479 0 0 0 4.6474-4.6474 4.6479 4.6479 0 0 0-4.6474-4.6474 4.6479 4.6479 0 0 0-0.0517 0zm-24.49 2.1503v43.564h3.578v-43.564zm-7.5174 3.1652v40.227h3.5178v-40.227zm-75.939 4.6474c-1.6814 0.01174-3.1897 0.2238-4.6847 0.73684-2.0493 0.70316-4.2315 1.544-5.6882 3.148-1.4645 1.6125-2.4927 3.8193-2.6004 5.9949-0.10496 2.1213 0.69826 4.3484 1.9467 6.0666 1.0248 1.4103 2.6379 2.3765 4.2432 3.0563 1.3202 0.55894 2.8159 0.55009 4.2346 0.75689 2.4806 0.3618 6.7009 0.89853 8.1653 1.4507 0.43096 0.1625 0.87351 0.49348 1.1267 0.80277 0.52503 0.6412 0.84132 1.5441 0.75402 2.3682-0.10481 0.99102-0.64617 2.0522-1.4822 2.5947-1.585 1.0283-3.7157 1.489-5.7369 1.5511-3.1577 0.09718-6.8704-1.6442-8.6699-4.0597l-4.5732 3.8017c4.3076 4.264 7.6333 6.1727 13.16 6.1727 4.1448 0 7.6199-1.1082 9.9113-3.0964 2.3251-1.9881 3.2233-4.3283 3.2799-6.8636 0.0583-2.6118-0.90534-5.259-3.062-7.2134-2.1229-1.9881-6.5641-2.226-11.282-3.1021-1.9545-0.37065-3.5025-0.50871-4.5471-1.1153-1.0446-0.60654-1.5138-1.6004-1.5625-2.6147-0.049-1.0138 0.53358-2.0889 1.3016-2.7523 1.4965-1.2927 3.6969-1.7753 5.6738-1.7317 2.7272 0.06004 5.2115 0.58943 7.7152 2.7294l3.8561-4.5012c-3.2142-2.8577-7.4375-4.2075-11.48-4.1801zm68.599 0.99199v7.5173h-13.151v23.656h13.151v12.096h18.435v-4.6962h-15.092v-38.573zm-134.99 0.36412-23.779 0.04022v33.045l23.779-0.02584v-5.9204l-17.761 0.02584-0.0888-7.9359 11.253 0.01717v-6.015l-11.253-0.01718 0.0888-7.2536 17.761-0.04301zm13.604 0v33.054l8.3058 0.02862s5.8557-0.0015 6.5053-0.12609c0.3622-0.06929 0.67621-0.12242 0.69383-0.12037 0.02 0.0029 0.0755-0.0088 0.1233-0.02584 0.0477-0.01864 0.33403-0.10525 0.63649-0.18921 0.86559-0.2402 1.655-0.53573 2.3452-0.88304 1.4401-0.72474 2.2372-1.2936 3.4003-2.4226 1.1862-1.1515 1.9546-2.2091 2.6434-3.6383 1.4929-3.097 2.1305-8.1417 1.5654-12.394-0.50702-3.815-1.3659-6.0843-3.1939-8.429-0.3314-0.42514-1.6437-1.6899-2.2477-2.1675-0.88249-0.69763-2.743-1.6724-3.7443-1.961-0.15105-0.04389-0.49776-0.14679-0.76837-0.22936-0.27061-0.0822-0.7383-0.18773-1.0407-0.23509-0.30248-0.04756-0.69353-0.11729-0.86869-0.15482-0.23334-0.05035-2.1917-0.07516-7.3367-0.08881zm5.9061 5.9605 3.9479 0.02011c4.3176 0.01996 4.161 0.0059 5.2552 0.37558 0.51561 0.17411 1.5096 0.65886 1.7948 0.87444 0.77395 0.58476 1.2531 1.0518 1.6973 1.6514 0.85201 1.1502 1.2622 2.273 1.6285 4.464 0.33815 2.0236 0.30935 5.179-0.0631 6.8034-0.0476 0.20696-0.12712 0.57692-0.17489 0.8257-0.37879 1.9804-1.3589 3.6045-2.8584 4.7335-0.20696 0.15582-0.70011 0.45188-1.0981 0.65656-0.69515 0.35764-0.8904 0.42641-1.8521 0.65082-0.38582 0.09028-0.87253 0.10569-4.3579 0.1233l-3.9192 0.02011zm173.95 9.1716a15.767 15.767 0 0 1 0.0888 0 15.767 15.767 0 0 1 15.769 15.766 15.767 15.767 0 0 1-15.769 15.766 15.767 15.767 0 0 1-15.766-15.766 15.767 15.767 0 0 1 15.677-15.766zm-0.14908 4.9771a10.79 10.79 0 0 0-10.574 10.789 10.79 10.79 0 0 0 10.789 10.789 10.79 10.79 0 0 0 10.791-10.789 10.79 10.79 0 0 0-10.791-10.789 10.79 10.79 0 0 0-0.21504 0z" fill="#fff" style="paint-order:stroke fill markers"/><path d="m0.22401 0.22403h332.87v332.87h-332.87zm0 0" fill="none" stroke="#2e4fa8" stroke-linecap="round" stroke-linejoin="round" stroke-miterlimit="10" stroke-width=".23487"/><path d="m20.502 5.3644c-8.288 0-15.04 6.7531-15.04 15.041v292.14c0 8.2879 6.7524 15.041 15.04 15.041h292.71c8.2887 0 15.04-6.7533 15.04-15.041v-292.14c0-8.2879-6.7516-15.041-15.04-15.041zm0 5.1269h292.71c5.5376 0 9.9142 4.3775 9.9142 9.9141v292.14c0 5.537-4.3766 9.9144-9.9142 9.9144h-292.71c-5.5361 0-9.9133-4.3773-9.9133-9.9144v-292.14c0-5.5366 4.3772-9.9141 9.9133-9.9141z" color="#000000" color-rendering="auto" dominant-baseline="auto" enable-background="accumulate" fill="#fff" fill-rule="evenodd" image-rendering="auto" shape-rendering="auto" solid-color="#000000" stop-color="#000000" style="font-feature-settings:normal;font-variant-alternates:normal;font-variant-caps:normal;font-variant-east-asian:normal;font-variant-ligatures:normal;font-variant-numeric:normal;font-variant-position:normal;font-variation-settings:normal;inline-size:0;isolation:auto;mix-blend-mode:normal;paint-order:fill markers stroke;shape-margin:0;shape-padding:0;text-decoration-color:#000000;text-decoration-line:none;text-decoration-style:solid;text-indent:0;text-orientation:mixed;text-transform:none;white-space:normal"/><g transform="matrix(1.9572 0 0 1.9572 -415.91 -325.56)"><path d="m297.68 245.47a16.942 16.942 0 0 0-16.942 16.942 16.942 16.942 0 0 0 16.942 16.942 16.942 16.942 0 0 0 16.942-16.942 16.942 16.942 0 0 0-16.942-16.942z" fill="#fff" style="paint-order:stroke fill markers"/><path d="m297.48 245.89a16.524 16.524 0 0 0-16.323 16.523 16.524 16.524 0 0 0 16.523 16.523 16.524 16.524 0 0 0 16.523-16.523 16.524 16.524 0 0 0-16.523-16.523 16.524 16.524 0 0 0-0.20068 0zm0.20068 4.1162a12.406 12.406 0 0 1 12.406 12.407 12.406 12.406 0 0 1-12.406 12.406 12.406 12.406 0 0 1-12.406-12.406 12.406 12.406 0 0 1 12.406-12.407z" fill="#ef0311" style="paint-order:stroke fill markers"/></g><g transform="matrix(1.9572 0 0 1.9572 -316.07 -325.56)"><path d="m297.68 245.47a16.942 16.942 0 0 0-16.942 16.942 16.942 16.942 0 0 0 16.942 16.942 16.942 16.942 0 0 0 16.942-16.942 16.942 16.942 0 0 0-16.942-16.942z" fill="#fff" style="paint-order:stroke fill markers"/><path d="m297.48 245.89a16.524 16.524 0 0 0-16.323 16.523 16.524 16.524 0 0 0 16.523 16.523 16.524 16.524 0 0 0 16.523-16.523 16.524 16.524 0 0 0-16.523-16.523 16.524 16.524 0 0 0-0.20068 0zm0.20068 4.1162a12.406 12.406 0 0 1 12.406 12.407 12.406 12.406 0 0 1-12.406 12.406 12.406 12.406 0 0 1-12.406-12.406 12.406 12.406 0 0 1 12.406-12.407z" fill="#ef0311" style="paint-order:stroke fill markers"/></g><g transform="matrix(1.9572 0 0 1.9572 -509.58 -325.56)"><path d="m294.51 245.47a16.942 16.942 0 0 0-16.942 16.942 16.942 16.942 0 0 0 16.942 16.942 16.942 16.942 0 0 0 16.942-16.942 16.942 16.942 0 0 0-16.942-16.942z" fill="#fff" style="paint-order:stroke fill markers"/><path d="m294.31 245.89a16.524 16.524 0 0 0-16.323 16.523 16.524 16.524 0 0 0 16.523 16.523 16.524 16.524 0 0 0 16.523-16.523 16.524 16.524 0 0 0-16.523-16.523 16.524 16.524 0 0 0-0.20068 0zm0.20068 4.1162a12.406 12.406 0 0 1 12.406 12.407 12.406 12.406 0 0 1-12.406 12.406 12.406 12.406 0 0 1-12.406-12.406 12.406 12.406 0 0 1 12.406-12.407z" fill="#ef0311" style="paint-order:stroke fill markers"/></g><g transform="matrix(1.9572 0 0 1.9572 -415.91 -325.56)" fill-opacity=".99647"><path d="m251.92 255.07c-3e-3 -1.4e-4 -5e-3 -6e-5 -9e-3 3e-4 -1.4965 2e-3 -2.8403 0.94225-3.3988 2.3744-6e-3 5e-3 -0.01 0.0111-0.0106 0.0176l-0.11535 0.44909v7.1e-4l-0.10375 0.45192v7.1e-4l-0.0945 0.45184c-1e-5 7.1e-4 -1e-5 1e-3 0 2e-3l-0.0785 0.45863v2.9e-4l-0.0697 0.45859v7.2e-4l-0.0613 0.46148c-1e-5 7.1e-4 -1e-5 1e-3 0 2e-3l-0.0452 0.46138v2.8e-4l-0.0368 0.46147v7.2e-4l-0.0252 0.46536v7.1e-4l-0.0116 0.46429v7.1e-4 0.46529 7.1e-4l0.0106 0.46533v7.1e-4l0.022 0.46423v7.1e-4l0.0328 0.46146v7.1e-4l0.0453 0.46532v7.3e-4l0.0583 0.45861c-2e-5 2.8e-4 -2e-5 7.1e-4 0 7.1e-4l0.0673 0.46147v7.3e-4l0.0782 0.45475c-1e-5 2.4e-4 -1e-5 7.1e-4 0 7.1e-4l0.0916 0.45577c7.3e-4 4e-3 2e-3 0.01 4e-3 0.011 0.20906 1.9111 1.7736 3.3594 3.6384 3.3649 4e-3 1e-3 9e-3 2e-3 0.0106 2e-3 1.8744 0 3.4472-1.458 3.6501-3.3811 7.3e-4 -4e-3 7.3e-4 -9e-3 0-0.011 0.53953-2.5491 0.53956-5.19 0-7.74 7.3e-4 -4e-3 7.3e-4 -9e-3 0-0.0106-0.20274-1.921-1.7737-3.3782-3.6465-3.3801-1e-3 -6e-5 -3e-3 -6e-5 -4e-3 0zm0 2.1218c0.85492 0 1.5603 0.68648 1.6115 1.5687-1e-3 6e-3 -1e-3 0.0106 0 0.0151 0.51598 2.3397 0.51598 4.7698 0 7.1095-1e-3 6e-3 -1e-3 0.0107 0 0.015-0.0513 0.88208-0.75644 1.5699-1.6112 1.5701-0.62934 0-1.2013-0.37813-1.4664-0.96923-2e-3 -4e-3 -4e-3 -7e-3 -7e-3 -0.01l-0.10151-0.41611-0.0937-0.43209-0.0821-0.43594-0.0732-0.43878-0.0605-0.44164-0.0452-0.44163-0.0369-0.44553-0.0251-0.44161-0.0116-0.44442v-0.44549l0.0116-0.44479 0.0251-0.44451 0.0369-0.4455 0.0452-0.44161 0.0605-0.43879 0.0732-0.43878 0.0821-0.43879 0.0937-0.43207 0.10194-0.4172c3e-3 -3e-3 5e-3 -6e-3 7e-3 -0.01 0.26505-0.59113 0.83677-0.96745 1.4664-0.96745z"/><g transform="matrix(-.60555 0 0 -.71111 350.71 -144.44)" stroke-width=".074372" aria-label="6"><path d="m188-567.88c0 1.74-0.73152 3.2166-2.0515 4.3966-0.62795 0.56998-1.3852 0.95286-2.1522 1.2207-0.82089 0.2867-1.6624 0.43826-2.6653 0.43826-1.94 0-3.4286-0.70662-4.7486-1.9466-1.3-1.24-1.649-2.4615-1.649-4.2615 0-1.3559 0.12864-2.699 0.47241-4.0232 0.36106-1.3908 0.95466-2.7607 1.6821-4.1028 1.42-2.64 3.7592-4.6534 5.8576-6.1602l2.121 2.2723c-1.7995 1.1984-4.0548 3.435-5.1834 5.6184 0.76304-0.18468 1.2528-0.17088 2.1128-0.17088 1.86 0 3.4586 0.97472 4.7986 2.1747 0.37451 0.33045 0.56638 0.75103 0.76802 1.1425 0.5306 1.0301 0.6374 2.1842 0.6374 3.4015zm-3.449-4e-3c0-0.45227 0.0454-1.0788-0.0971-1.668-0.10321-0.42692-0.32911-0.83234-0.62645-1.1465-0.57537-0.60794-1.5008-0.97571-2.5008-0.97571-1.14-0.02-2.0015 0.44832-2.5801 1.1032-0.25737 0.29136-0.46148 0.63232-0.54812 1.0022-0.14219 0.60701-0.0616 1.2785-0.074 1.8378 0 0.82 0.29116 1.5931 0.99116 2.1731 0.69999 0.58 1.3139 0.79936 2.3139 0.79936 0.98001 0 1.8366-0.46139 2.412-1.0549 0.53747-0.55442 0.70946-1.2705 0.70946-2.0705z" fill-opacity=".99647" stroke-width=".074372"/></g><g><path d="m292.35 255.07c-0.95221 0-1.9046 0.37314-2.633 1.1193-1.4489 1.4855-1.473 3.8932-0.0618 5.4105-1.3613 1.7005-1.6201 4.0543-0.69583 6.0141 2.1e-4 2.4e-4 1.6e-4 7.2e-4 2.3e-4 2e-3 2.3e-4 7.1e-4 2.4e-4 7.1e-4 7.2e-4 2e-3 2.6e-4 7.1e-4 7.2e-4 2e-3 2e-3 3e-3 0.01 0.0177 0.0169 0.0355 0.0269 0.0533 0.0484 0.10311 0.1014 0.20286 0.15773 0.30005 0.0106 0.0168 0.0172 0.0347 0.0283 0.0518 3e-3 4e-3 6e-3 7e-3 0.01 0.01 1.2e-4 8e-5 2.1e-4 2.8e-4 2.1e-4 2.8e-4 0.67625 1.1187 1.8685 1.816 3.1686 1.816 1.2981 0 2.4895-0.69608 3.166-1.813 6e-3 -4e-3 0.0106-9e-3 0.0131-0.0127 0.0188-0.0326 0.0343-0.0673 0.0526-0.10045 0.0297-0.0528 0.0575-0.10654 0.0846-0.16095 1.0111-1.9895 0.77679-4.4213-0.62087-6.1657 1.4092-1.5175 1.3845-3.9235-0.0637-5.4083-0.72831-0.74634-1.6806-1.1194-2.633-1.1194zm-1.8e-4 2.1594c0.90862 0 1.6444 0.75878 1.6444 1.6986 0 0.93965-0.73578 1.6998-1.6444 1.6998-0.90764 0-1.6445-0.76018-1.6445-1.6998 0-0.9398 0.73677-1.6986 1.6445-1.6986zm0 5.4109c0.63561 0 1.2131 0.3783 1.4852 0.97204 0.48131 0.98032 0.47922 2.1388-4e-3 3.1149-0.27356 0.58832-0.8484 0.96449-1.4812 0.96449-0.55593 0-1.0688-0.29109-1.3704-0.76168-7.1e-4 -4e-3 -2e-3 -7e-3 -4e-3 -0.0107-0.60499-1.0511-0.62177-2.3532-0.0497-3.4204 0.29094-0.52716 0.83131-0.85932 1.4241-0.85932z"/><path d="m343.39 255.07c-0.95221 0-1.9046 0.37314-2.633 1.1193-1.4489 1.4855-1.473 3.8932-0.0618 5.4105-1.3613 1.7005-1.6201 4.0543-0.69583 6.0141 2.1e-4 2.4e-4 1.6e-4 7.2e-4 2.3e-4 2e-3 2.3e-4 7.1e-4 2.4e-4 7.1e-4 7.2e-4 2e-3 2.6e-4 7.1e-4 7.2e-4 2e-3 2e-3 3e-3 0.01 0.0177 0.0169 0.0355 0.0269 0.0533 0.0484 0.10311 0.1014 0.20286 0.15773 0.30005 0.0106 0.0168 0.0172 0.0347 0.0283 0.0518 3e-3 4e-3 6e-3 7e-3 0.01 0.01 1.2e-4 8e-5 2.1e-4 2.8e-4 2.1e-4 2.8e-4 0.67625 1.1187 1.8685 1.816 3.1686 1.816 1.2981 0 2.4895-0.69608 3.166-1.813 6e-3 -4e-3 0.0106-9e-3 0.0131-0.0127 0.0188-0.0326 0.0343-0.0673 0.0526-0.10045 0.0297-0.0528 0.0575-0.10654 0.0846-0.16095 1.0111-1.9895 0.77679-4.4213-0.62087-6.1657 1.4092-1.5175 1.3845-3.9235-0.0637-5.4083-0.72831-0.74634-1.6806-1.1194-2.633-1.1194zm-1.8e-4 2.1594c0.90862 0 1.6444 0.75878 1.6444 1.6986 0 0.93965-0.73578 1.6998-1.6444 1.6998-0.90764 0-1.6445-0.76018-1.6445-1.6998 0-0.9398 0.73677-1.6986 1.6445-1.6986zm0 5.4109c0.63561 0 1.2131 0.3783 1.4852 0.97204 0.48131 0.98032 0.47922 2.1388-4e-3 3.1149-0.27356 0.58832-0.8484 0.96449-1.4812 0.96449-0.55593 0-1.0688-0.29109-1.3704-0.76168-7.1e-4 -4e-3 -2e-3 -7e-3 -4e-3 -0.0107-0.60499-1.0511-0.62177-2.3532-0.0497-3.4204 0.29094-0.52716 0.83131-0.85932 1.4241-0.85932z"/><path d="m354.54 255.07c-3e-3 -1.4e-4 -5e-3 -6e-5 -9e-3 3e-4 -1.4965 2e-3 -2.8403 0.94225-3.3988 2.3744-6e-3 5e-3 -0.01 0.0111-0.0106 0.0176l-0.11535 0.44909v7.1e-4l-0.10375 0.45192v7.1e-4l-0.0945 0.45184c-1e-5 7.1e-4 -1e-5 1e-3 0 2e-3l-0.0785 0.45863v2.9e-4l-0.0697 0.45859v7.2e-4l-0.0613 0.46148c-1e-5 7.1e-4 -1e-5 1e-3 0 2e-3l-0.0452 0.46138v2.8e-4l-0.0368 0.46147v7.2e-4l-0.0252 0.46536v7.1e-4l-0.0116 0.46429v7.1e-4 0.46529 7.1e-4l0.0106 0.46533v7.1e-4l0.022 0.46423v7.1e-4l0.0328 0.46146v7.1e-4l0.0453 0.46532v7.3e-4l0.0583 0.45861c-2e-5 2.8e-4 -2e-5 7.1e-4 0 7.1e-4l0.0673 0.46147v7.3e-4l0.0782 0.45475c-1e-5 2.4e-4 -1e-5 7.1e-4 0 7.1e-4l0.0916 0.45577c7.3e-4 4e-3 2e-3 0.01 4e-3 0.011 0.20906 1.9111 1.7736 3.3594 3.6384 3.3649 4e-3 1e-3 9e-3 2e-3 0.0106 2e-3 1.8744 0 3.4472-1.458 3.6501-3.3811 7.3e-4 -4e-3 7.3e-4 -9e-3 0-0.011 0.53953-2.5491 0.53956-5.19 0-7.74 7.3e-4 -4e-3 7.3e-4 -9e-3 0-0.0106-0.20274-1.921-1.7737-3.3782-3.6465-3.3801-1e-3 -6e-5 -3e-3 -6e-5 -4e-3 0zm0 2.1218c0.85492 0 1.5603 0.68648 1.6115 1.5687-1e-3 6e-3 -1e-3 0.0106 0 0.0151 0.51598 2.3397 0.51598 4.7698 0 7.1095-1e-3 6e-3 -1e-3 0.0107 0 0.015-0.0513 0.88208-0.75644 1.5699-1.6112 1.5701-0.62934 0-1.2013-0.37813-1.4664-0.96923-2e-3 -4e-3 -4e-3 -7e-3 -7e-3 -0.01l-0.10151-0.41611-0.0937-0.43209-0.0821-0.43594-0.0732-0.43878-0.0605-0.44164-0.0452-0.44163-0.0369-0.44553-0.0251-0.44161-0.0116-0.44442v-0.44549l0.0116-0.44479 0.0251-0.44451 0.0369-0.4455 0.0452-0.44161 0.0605-0.43879 0.0732-0.43878 0.0821-0.43879 0.0937-0.43207 0.10194-0.4172c3e-3 -3e-3 5e-3 -6e-3 7e-3 -0.01 0.26505-0.59113 0.83677-0.96745 1.4664-0.96745z"/></g><path d="m306.8 264.02c-7e-3 1.3862-0.34262 2.7971-1.3078 3.947-0.95341 1.1499-2.3176 1.6323-3.8124 1.6323-1.0476 0-2.1862-0.71601-2.8752-1.3153l1.4343-1.473c0.55322 0.34072 1.1005 0.71997 1.7714 0.71997 0.60406 0.0199 1.2145-0.23648 1.698-0.68032 0.21355-0.19595 0.41219-0.43982 0.53535-0.7093 0.30554-0.66859 0.46117-1.3618 0.46117-2.1568 0.0133-0.68143 0.0764-1.2634-0.32381-1.7319-0.38842-0.46849-0.89556-0.84847-1.4959-0.84847-0.76507-0.0133-1.5421 0.4118-1.8336 1.4528l-1.9236-0.22551 0.31485-7.5551h6.7721v2.0577h-4.8119l-0.0983 2.5165s0.27897-0.12089 0.64401-0.20458c0.32614-0.0747 0.72352-0.11325 1.0068-0.11325 0.61738 0.0166 1.1596 0.18797 1.6546 0.44022 0.40149 0.20459 0.83979 0.46394 1.1071 0.84335 0.25142 0.35699 0.53691 0.7304 0.70628 1.1437 0.29227 0.71319 0.38101 1.5064 0.37649 2.2604z" stroke-width=".048112"/></g><g transform="matrix(1.9572 0 0 1.9572 -415.91 -325.56)" fill="#fff"><path d="m340.97 307.84v11.501h24.668v-11.501zm-7.1512 3.883-2.0713 5.2304v5.8751h1.2514s-0.0141-0.3808 0.12375-0.86706c0.11545-0.40913 0.34661-0.8889 0.69822-1.3152 0.2933-0.35558 0.73937-0.64764 1.1995-0.85264 0.47443-0.21136 0.86221-0.31477 1.3136-0.33272 0.32946-0.013 0.66786 0.0463 0.97508 0.16597 0.61746 0.24063 1.26 0.55843 1.6688 1.0807 0.32553 0.41585 0.54012 0.90523 0.64524 1.3193 0.11324 0.44572 0.1041 0.80152 0.1041 0.80152h15.147s0.0101-0.17884 0.0469-0.44599c0.038-0.26837 0.12021-0.58531 0.2024-0.78499 0.0875-0.21293 0.25032-0.51507 0.42528-0.75379 0.11308-0.1543 0.22883-0.28403 0.30833-0.36786 0.0613-0.0647 0.10094-0.10199 0.10095-0.10199h-16.008v-8.651zm0.31516 1.43h4.7726v3.3298h-6.0901zm2.2323 7.1326c-1.3985 0-2.5435 1.1473-2.5435 2.5398s1.145 2.5404 2.5435 2.5404c1.3985-1e-5 2.544-1.1478 2.544-2.5404s-1.1455-2.5398-2.544-2.5398zm21.87 0c-1.3985 0-2.5435 1.1473-2.5435 2.5398s1.145 2.5404 2.5435 2.5404c1.3985-1e-5 2.5443-1.1478 2.5443-2.5404s-1.1458-2.5398-2.5443-2.5398zm2.297 0.0883s0.20924 0.19679 0.40954 0.47011c0.175 0.2387 0.33753 0.54112 0.42501 0.75406 0.082 0.19967 0.16519 0.51556 0.20319 0.78394 0.0384 0.26715 0.0304 0.48714 0.0304 0.48714l4.0369-1.3136v-1.1817zm-24.167 1.3212c0.62835 1e-5 1.1266 0.49548 1.1266 1.1303 0 0.63481-0.49827 1.1311-1.1266 1.1311s-1.1261-0.49627-1.1261-1.1311c0-0.63482 0.49775-1.1303 1.1261-1.1303zm21.87 0c0.62836 1e-5 1.1266 0.49548 1.1266 1.1303 0 0.63481-0.49827 1.1311-1.1266 1.1311-0.62837 0-1.1261-0.49627-1.1261-1.1311 0-0.63482 0.49772-1.1303 1.1261-1.1303z" fill-rule="evenodd"/><path d="m293.93 295.41c-0.25819 0-0.83344 0.16815-1.1993 0.44655-0.24809 0.18877-0.48235 0.43297-0.7324 0.70035-1.1303 1.2087-4.1173 4.3498-4.1173 4.3498s-0.29903 0.3327-0.50285 0.39674c-0.33848 0.10634-0.99044 0.23085-1.3336 0.30276-1.1498 0.24091-1.8472 0.38069-3.4472 0.70945-0.26748 0.055-0.67 0.11053-0.92948 0.30881-0.22299 0.17041-0.3036 0.31229-0.46604 0.70123-0.23387 0.56-0.59294 1.3288-0.59294 1.3288v2.568c1e-5 0.33171 0.26687 0.59858 0.59858 0.59858h0.94767v-0.0225c0-1.9533 1.5727-3.5256 3.526-3.5256 1.9533 0 3.5256 1.5723 3.5256 3.5256v0.0225h15.726v-0.0225c0-1.9533 1.5723-3.5256 3.5256-3.5256s3.526 1.5723 3.526 3.5256v0.0225h1.5939c0.33171 0 0.599-0.26687 0.599-0.59858v-10.666c0-0.63524-0.51166-1.1469-1.1469-1.1469zm-0.0226 1.0936h3.3779c0.30618 0 0.55266 0.24649 0.55266 0.55266v4.8458c0 0.30617-0.24648 0.55266-0.55266 0.55266h-6.8459c-1.1279 0-1.4471-1.2507-0.82466-1.9101l2.8001-2.9664c0.44125-0.46742 0.84973-1.0746 1.4925-1.0746zm5.5024 3.1e-4h5.4781c0.30617 0 0.55266 0.24648 0.55266 0.55266v4.8453c0 0.30618-0.24649 0.55266-0.55266 0.55266h-5.4781c-0.30619 0-0.55267-0.24648-0.55267-0.55266v-4.8453c0-0.30618 0.24648-0.55266 0.55267-0.55266zm7.5294 0h5.4781c0.30618 0 0.55267 0.24648 0.55267 0.55266v4.8453c0 0.30618-0.24649 0.55266-0.55267 0.55266h-5.4781c-0.30618 0-0.55267-0.24648-0.55267-0.55266v-4.8453c0-0.30618 0.24649-0.55266 0.55267-0.55266zm-21.297 8.5723a2.7324 2.7324 0 0 0-2.6949 2.7321 2.7324 2.7324 0 0 0 2.7321 2.7326 2.7324 2.7324 0 0 0 2.7326-2.7326 2.7324 2.7324 0 0 0-2.7326-2.7321 2.7324 2.7324 0 0 0-0.0373 0zm22.778 0a2.7324 2.7324 0 0 0-2.6949 2.7321 2.7324 2.7324 0 0 0 2.7321 2.7326 2.7324 2.7324 0 0 0 2.7326-2.7326 2.7324 2.7324 0 0 0-2.7326-2.7321 2.7324 2.7324 0 0 0-0.0373 0zm-22.741 1.8694a0.86293 0.86293 0 0 1 0.86322 0.86277 0.86293 0.86293 0 0 1-0.86322 0.86322 0.86293 0.86293 0 0 1-0.86277-0.86322 0.86293 0.86293 0 0 1 0.86277-0.86277zm22.778 0a0.86293 0.86293 0 0 1 0.86321 0.86277 0.86293 0.86293 0 0 1-0.86321 0.86322 0.86293 0.86293 0 0 1-0.86278-0.86322 0.86293 0.86293 0 0 1 0.86278-0.86277z" stroke-width="1.206" style="paint-order:stroke fill markers"/><path d="m242.95 297.46-5.4912 4.3494-6.7761 0.48164-0.83493 2.5056 1.3972 2.7688 2.8097 0.43685s0.0282-1.0912 0.65029-1.8849c0.30699-0.39163 0.73477-0.71659 1.2121-0.91272 0.39467-0.16217 0.83798-0.23009 1.1432-0.23125 0.32602-1e-3 0.77004 0.0499 1.1822 0.22889 0.48943 0.21252 0.94522 0.58605 1.2603 0.99549 0.57851 0.75182 0.58954 1.7851 0.58954 1.7851h12.878s0.039-1.0812 0.64899-1.866c0.26704-0.34355 0.66031-0.66678 1.0706-0.86034 0.43627-0.20579 0.89186-0.27126 1.2351-0.27447 0.32831-3e-3 0.79838 0.0257 1.2254 0.21345 0.48797 0.21453 0.93124 0.6135 1.2427 1.0078 0.60346 0.7639 0.5987 1.7796 0.5987 1.7796l3.8054-0.28888 0.75453-2.9938-0.43318-2.8908h-5.508l-4.3991-4.3494zm0.16081 0.93813h3.4686v3.4112h-7.6595zm4.3035 0h3.4201l2.2961 3.4112h-5.7162zm-10.33 7.0469c-1.397 0-2.5407 1.146-2.5407 2.537s1.1437 2.5378 2.5407 2.5378 2.5415-1.1468 2.5415-2.5378-1.1445-2.537-2.5415-2.537zm18.889 0c-1.397 0-2.5407 1.146-2.5407 2.537s1.1437 2.5378 2.5407 2.5378c1.397 0 2.5415-1.1468 2.5415-2.5378s-1.1445-2.537-2.5415-2.537zm-18.889 1.408c0.62766 0 1.1254 0.49493 1.1254 1.129s-0.49772 1.1298-1.1254 1.1298-1.1246-0.49573-1.1246-1.1298 0.49694-1.129 1.1246-1.129zm18.889 0c0.62766 0 1.1254 0.49493 1.1254 1.129s-0.49773 1.1298-1.1254 1.1298c-0.62765 0-1.1248-0.49573-1.1248-1.1298s0.4972-1.129 1.1248-1.129z" fill-rule="evenodd" opacity=".99988"/><path d="m362.95 288.43a0.23222 0.23222 0 0 0-0.0333 3e-3h-27.033v4.7093h28.392c-0.03-0.43195 0.0439-0.86877-0.0974-1.2991-0.34261-1.0652-0.66761-2.1404-0.9924-3.2138a0.23222 0.23222 0 0 0-0.23706-0.19949zm-30.362 0.0199c-0.0828 1.5703-0.16392 3.1276-0.24504 4.6946h2.9328v-4.6946zm29.863 0.87537a0.22247 0.22247 0 0 1 0.22408 0.18852c0.26965 0.88175 0.5424 1.7602 0.81194 2.6404 0.0166 0.0551 0.0267 0.11038 0.0439 0.17687h-5.6398l-7e-3 -3.0026h4.5318a0.22247 0.22247 0 0 1 0.0343-3e-3zm-10.568 0.0133v2.9912h-4.6801v-2.9864zm-18.879 3e-3h1.7618v2.9896h-1.8967v-3e-3c0.0456-1.0052 0.0894-1.9942 0.13466-2.9864zm19.537 0h4.701v2.988h-4.701zm-16.03 2e-3h4.7045l-3e-3 2.9817h-4.7013zm5.3426 0h4.6994l-3e-3 2.9817h-4.6963zm-9.6393 4.3439c-0.0681 0.63982-0.13332 1.2667-0.19982 1.8919-0.0662 0.62791-0.13166 1.2552-0.19649 1.8821h3.0353a2.6989 2.6989 0 0 1 2.4016-2.9829 2.5982 2.5982 0 0 1 1.9147 0.55377c0.77946 0.61382 1.1042 1.4452 1.0279 2.4358h13.34c-0.14762-1.6612 1.0638-2.9831 2.6601-3.0042a2.5576 2.5576 0 0 1 1.8107 0.69647 2.668 2.668 0 0 1 0.87504 2.2474l5.3718-0.3898v-3.3305zm5.3052 1.361a2.0948 2.0948 0 0 0-7e-3 4.1894 2.0867 2.0867 0 0 0 2.1016-2.0508 2.0948 2.0948 0 0 0-2.0965-2.1386zm18.693 0a2.0948 2.0948 0 0 0-3e-3 4.1894 2.0802 2.0802 0 0 0 2.1012-2.08 2.0948 2.0948 0 0 0-2.0974-2.1095zm-18.688 1.3168a0.79408 0.79408 0 0 1 0.78438 0.78118 0.81194 0.81194 0 0 1-0.78594 0.78594 0.79083 0.79083 0 0 1-0.77959-0.78594 0.77946 0.77946 0 0 1 0.78115-0.78118zm18.683 0a0.78758 0.78758 0 0 1 0.77766 0.78434 0.80057 0.80057 0 0 1-0.78591 0.78278 0.78596 0.78596 0 0 1-0.77137-0.79102 0.77459 0.77459 0 0 1 0.77962-0.7761z" stroke-width=".16239"/></g></svg>