<svg width="530.02" height="706.36" version="1.1" viewBox="0 0 530.02 706.36" xmlns="http://www.w3.org/2000/svg"><path d="m0.37194 0.37194v705.61h529.27v-705.61z" fill="#00408c" fill-rule="evenodd" style="paint-order:fill markers stroke"/><g fill="#fff"><path d="m245.66 103.11h-10.463v29.602h-6.5193v-29.602l-10.411-2.2e-4v-6.4675h27.394z"/><path d="m267.98 106.61a13.14 13.14 0 0 0-13.106 13.139 13.14 13.14 0 0 0 13.141 13.141 13.14 13.14 0 0 0 8.7496-3.3382l-3.9005-4.3618a7.2889 7.2889 0 0 1-4.8491 1.8485 7.2889 7.2889 0 0 1-6.6632-4.3391h19.48a13.14 13.14 0 0 0 0.33753-2.95 13.14 13.14 0 0 0-13.139-13.139 13.14 13.14 0 0 0-0.0345 0zm0 5.8514a7.2889 7.2889 0 0 1 0.0441 0 7.2889 7.2889 0 0 1 6.6878 4.3912h-13.376a7.2889 7.2889 0 0 1 6.6456-4.3912z"/><path d="m332.45 142.82v-12.382c2.0861 1.4081 4.5952 2.2378 7.3014 2.238h0.0345c7.207-0.0187 13.039-5.868 13.039-13.075 2.5e-4 -7.2218-5.8536-13.076-13.075-13.077-2.7067 6e-5 -5.2154 0.82955-7.3015 2.2381v-2.2364h-5.7913v36.294zm7.3487-15.96h-0.0472c-4.0092 7e-5 -7.2593-3.2499-7.2593-7.2591 0-4.0092 3.2501-7.2593 7.2593-7.2593 4.009-6e-5 7.2595 3.2501 7.2592 7.2593 3.4e-4 3.9908-3.2211 7.2332-7.2118 7.2591z"/><path d="m314.01 125.45c-0.0249 1.3476-0.30271 2.5602-0.89506 3.6704-0.40469 0.75813-0.91359 1.4982-1.7458 2.084-0.42464 0.29122-0.93674 0.42685-1.4473 0.57454-0.53053 0.15416-1.0624 0.3163-1.6728 0.44177-1.6389 0.33753-3.5299 0.62837-5.4468 0.64839-4.4365-0.0693-8.3257-0.80752-12.016-2.732l2.5862-5.2201c3.1689 1.6841 6.429 2.055 9.2623 2.0894 0.76602 0 1.8986-0.0541 2.8371-0.18555 0.87499-0.12245 2.5906-0.56111 2.5906-0.56111s0.10132-0.30303 0.11873-0.46097c0.0186-0.15602-6e-3 -0.35108-0.0186-0.47276-0.0186-0.14669-0.0392-0.30551-0.13427-0.41752-0.15912-0.18959-0.2909-0.41955-0.50759-0.54141-0.44509-0.25206-1.005-0.34626-1.5122-0.50486-1.2778-0.39782-2.5712-0.74389-3.8563-1.1177-0.76154-0.22191-1.5229-0.4431-2.2835-0.66663-0.48885-0.14514-0.97802-0.28624-1.4656-0.43462-1.034-0.31437-2.1086-0.52406-3.0954-0.96484-0.69644-0.31107-1.5346-0.77603-1.9649-1.1724-1.4166-1.3748-2.2638-2.7555-2.4695-4.4346-0.23962-1.9526 0.4123-4.3535 1.5419-5.6962 0.42368-0.50365 0.77556-0.87971 1.2759-1.1651 0.59431-0.33912 1.3003-0.42875 1.9628-0.59978 0.94846-0.2446 1.9056-0.46607 2.8748-0.60519 1.3129-0.18865 2.7759-0.30862 3.9665-0.30862 3.6536 0 6.9577 0.72186 10.056 2.0569l-2.2267 5.3544c-2.0656-0.96693-5.6325-1.5824-8.5245-1.6197-1.7003-0.0218-5.0349 0.82249-5.0349 0.82249s-0.15509 0.34583-0.15788 0.52997c-6e-3 0.3361 0.0376 0.72105 0.25951 0.97532 0.55866 0.64478 1.5515 0.71617 2.3557 1.0013 0.65706 0.23372 1.3406 0.38337 2.0102 0.57669 1.1729 0.33902 2.3603 0.70377 3.517 1.0226 2.1402 0.58993 5.2301 1.1187 7.0405 2.897 1.3309 1.3069 2.1848 2.5924 2.2221 5.1356z" stroke-width=".12925"/><path d="m213.56 190.11c-3.9309-0.083-8.011-1.2597-11.349-3.2774-1.0353-0.62601-1.4975-0.96167-1.4721-1.0688 0.0187-0.0849 3.4774-4.9654 3.6439-5.1449 0.0696-0.0749 0.138-0.0444 0.5035 0.2101 2.0346 1.4044 4.8113 2.4167 7.3576 2.6826 2.8818 0.29992 5.5598-0.0824 8.19-1.1657 0.21041-0.0883 0.52022-0.21477 0.69109-0.28438 0.57085-0.23497 1.3021-1.1394 1.6432-2.0328 0.61637-1.614 0.16535-3.4204-1.1646-4.6543-0.22843-0.21259-0.40723-0.29899-1.4624-0.71266-1.2372-0.48456-2.0864-0.71378-3.6444-0.98342-0.83592-0.14639-1.0337-0.15602-3.3025-0.18337l-2.4131-0.0311v-6.4793l2.1205-5.6e-4c1.1663 0 2.3577-0.0311 2.6472-0.0603 1.6702-0.18524 3.1483-0.63711 4.7348-1.4502 1.0749-0.55083 1.11-0.57433 1.1875-0.80164 0.19145-0.55807 0.14918-1.3717-0.10194-1.941-0.10256-0.23527-0.14763-0.26448-1.1358-0.74656-0.56571-0.27692-1.1701-0.55512-1.3425-0.6197-0.60229-0.22471-1.7299-0.52031-2.5915-0.67804-0.77413-0.14296-1.0139-0.15975-2.2139-0.16348-1.2297-6e-3 -1.426 0.0124-2.2815 0.161-1.0802 0.19207-1.6491 0.34685-2.6311 0.71931-0.9406 0.35695-2.4056 1.1378-3.0152 1.6068l-0.20761 0.15882-1.4321-1.9618c-0.78759-1.0788-1.6499-2.2648-1.9165-2.6353l-0.48431-0.67328 0.71841-0.47801c0.93429-0.62119 1.5932-0.99393 2.6907-1.52 0.81143-0.38949 2.0871-0.88867 2.5322-0.99145 0.0973-0.0249 0.38642-0.10256 0.64385-0.17964 0.73019-0.21662 1.4932-0.38162 2.1789-0.47213 0.3457-0.0466 0.81335-0.10816 1.0385-0.13924 1.6369-0.21787 4.7181-0.0755 6.1132 0.28687 0.11251 0.0311 0.51928 0.12028 0.90358 0.20233 0.68034 0.14545 2.0703 0.59974 3.0745 1.008 0.80889 0.32861 2.5915 1.3103 3.462 1.9067 0.44661 0.30551 0.55651 0.41902 0.91411 0.94035 1.2753 1.8603 1.8328 3.9724 1.6484 6.2461-0.0802 0.97516-0.473 2.4133-0.88341 3.2252-0.23807 0.47129-0.81519 1.3611-1.1825 1.8229l-0.36842 0.46358 0.40876 0.37489c1.7118 1.5713 2.815 3.5299 3.3196 5.8935 0.14887 0.69137 0.21787 2.7009 0.1209 3.4224-0.27226 1.9958-1.1832 4.0849-2.4216 5.5443-0.55051 0.64851-1.4059 1.4507-1.8969 1.7788-0.45308 0.30303-1.3107 0.74421-1.851 0.95188-0.20109 0.0786-0.65383 0.26045-1.0098 0.40404-1.2461 0.50924-3.6599 1.1282-5.0276 1.289-1.4284 0.16814-1.8421 0.2073-2.4277 0.22128-0.37007 0.0124-0.936 0.0155-1.2579 6e-3z" stroke-width=".017272"/></g><defs><style>.cls-1 {        fill: #00408c;        fill-rule: evenodd;      }      .cls-2 {        fill: #fff;      }</style></defs><g><path d="m34.04 8.9057c-13.759 0-24.97 11.214-24.97 24.974v638.41c0 13.761 11.211 24.972 24.97 24.972h462.44c13.761 0 24.97-11.211 24.97-24.972v-638.41c0-13.761-11.209-24.974-24.97-24.974zm0 8.5118h462.44c9.1936 0 16.461 7.2705 16.461 16.462v638.41c0 9.1936-7.2672 16.461-16.461 16.461h-462.44c-9.1897 0-16.459-7.2673-16.459-16.461v-638.41c0-9.1919 7.2689-16.462 16.459-16.462z" color="#000000" color-rendering="auto" dominant-baseline="auto" enable-background="accumulate" fill="#fff" fill-rule="evenodd" image-rendering="auto" shape-rendering="auto" solid-color="#000000" stop-color="#000000" style="font-feature-settings:normal;font-variant-alternates:normal;font-variant-caps:normal;font-variant-east-asian:normal;font-variant-ligatures:normal;font-variant-numeric:normal;font-variant-position:normal;font-variation-settings:normal;inline-size:0;isolation:auto;mix-blend-mode:normal;paint-order:fill markers stroke;shape-margin:0;shape-padding:0;text-decoration-color:#000000;text-decoration-line:none;text-decoration-style:solid;text-indent:0;text-orientation:mixed;text-transform:none;white-space:normal"/><path d="m106.32 422.63a52.64 52.64 0 0 0-52.64 52.64 52.64 52.64 0 0 0 52.64 52.64 52.64 52.64 0 0 0 52.64-52.64 52.64 52.64 0 0 0-52.64-52.64z" fill="#fff" style="paint-order:stroke fill markers"/><path d="m105.7 423.94a51.338 51.338 0 0 0-50.715 51.338 51.338 51.338 0 0 0 51.338 51.338 51.338 51.338 0 0 0 51.338-51.338 51.338 51.338 0 0 0-51.338-51.338 51.338 51.338 0 0 0-0.62352 0zm0.62352 12.789a38.546 38.546 0 0 1 38.545 38.549 38.546 38.546 0 0 1-38.545 38.545 38.546 38.546 0 0 1-38.545-38.545 38.546 38.546 0 0 1 38.545-38.549z" fill="#ef0311" style="paint-order:stroke fill markers"/></g><path d="m103.24 458.74c-5.0272 7.0348-12.368 20.112-12.481 39.697h-6.4119c0.03232-14.378 3.8234-27.826 11.083-39.649h-16.935v-6.6428l24.745-5.6e-4z" fill-opacity=".99647" stroke-width=".15313"/><path d="m124.63 452.28c-9e-3 -4.1e-4 -0.0155-1.9e-4 -0.028 9.6e-4 -4.7351 6e-3 -8.9869 2.9813-10.754 7.5127-0.0187 0.0155-0.0317 0.0351-0.0336 0.0556l-0.36504 1.4209v2e-3l-0.32823 1.4299v2e-3l-0.29899 1.4296c-3e-5 2e-3 -3e-5 3e-3 0 6e-3l-0.24863 1.4512v9.3e-4l-0.22067 1.451v2e-3l-0.19425 1.4602v6e-3l-0.14328 1.4598v8.7e-4l-0.11654 1.4601v2e-3l-0.0799 1.4724v2e-3l-0.037 1.469v2e-3 1.4722 2e-3l0.0336 1.4723v2e-3l0.0696 1.4689v2e-3l0.10381 1.4601v2e-3l0.14359 1.4723v2e-3l0.18461 1.451c-6e-5 9e-4 -6e-5 2e-3 0 2e-3l0.21321 1.4602v2e-3l0.24739 1.4389c-3e-5 7.8e-4 -3e-5 2e-3 0 2e-3l0.28997 1.4421c2e-3 0.0124 6e-3 0.0317 0.0124 0.0348 0.66144 6.0469 5.6118 10.629 11.512 10.647 0.0124 2e-3 0.028 6e-3 0.0336 6e-3 5.9308 0 10.907-4.6133 11.549-10.698 2e-3 -0.0124 2e-3 -0.028 0-0.0345 1.707-8.0656 1.7072-16.421 0-24.49 2e-3 -0.0124 2e-3 -0.0311 0-0.0332-0.64152-6.0781-5.6121-10.689-11.538-10.695-2e-3 -2.2e-4 -9e-3 -2.2e-4 -0.0124 0zm0 6.7136c2.705 0 4.9368 2.172 5.0989 4.9634-3e-3 0.0186-3e-3 0.0336 0 0.0479 1.6326 7.4028 1.6326 15.092 0 22.495-3e-3 0.0186-3e-3 0.0339 0 0.0472-0.16254 2.7909-2.3934 4.9674-5.0978 4.9679-1.9913 0-3.801-1.1964-4.6396-3.0667-6e-3 -0.0124-0.0124-0.0217-0.0218-0.0317l-0.32118-1.3166-0.2965-1.3672-0.25982-1.3794-0.23186-1.3883-0.19114-1.3974-0.14328-1.3974-0.11655-1.4097-0.0793-1.3973-0.0367-1.4062v-1.4096l0.0367-1.4073 0.0793-1.4065 0.11655-1.4096 0.14328-1.3972 0.19114-1.3884 0.23186-1.3883 0.25982-1.3883 0.2965-1.3671 0.32252-1.32c9e-3 -9e-3 0.0155-0.0186 0.0217-0.0317 0.83863-1.8704 2.6476-3.0611 4.6398-3.0611z" fill-opacity=".99647"/><path d="m265.08 422.63a52.64 52.64 0 0 0-52.64 52.64 52.64 52.64 0 0 0 52.64 52.64 52.64 52.64 0 0 0 52.64-52.64 52.64 52.64 0 0 0-52.64-52.64z" fill="#fff" style="paint-order:stroke fill markers"/><path d="m264.46 423.94a51.338 51.338 0 0 0-50.715 51.338 51.338 51.338 0 0 0 51.338 51.338 51.338 51.338 0 0 0 51.338-51.338 51.338 51.338 0 0 0-51.338-51.338 51.338 51.338 0 0 0-0.62352 0zm0.62352 12.789a38.546 38.546 0 0 1 38.545 38.549 38.546 38.546 0 0 1-38.545 38.545 38.546 38.546 0 0 1-38.545-38.545 38.546 38.546 0 0 1 38.545-38.549z" fill="#ef0311" style="paint-order:stroke fill markers"/><path d="m283.39 452.28c-9e-3 -4.1e-4 -0.0155-1.9e-4 -0.028 9.6e-4 -4.7351 6e-3 -8.9869 2.9813-10.754 7.5127-0.0187 0.0155-0.0317 0.0351-0.0336 0.0556l-0.36503 1.4209v2e-3l-0.32823 1.4299v2e-3l-0.29899 1.4296c-3e-5 2e-3 -3e-5 3e-3 0 6e-3l-0.24864 1.4512v9.3e-4l-0.22066 1.451v2e-3l-0.19425 1.4602v6e-3l-0.14328 1.4598v8.7e-4l-0.11655 1.4601v2e-3l-0.0799 1.4724v2e-3l-0.037 1.469v2e-3 1.4722 2e-3l0.0336 1.4723v2e-3l0.0696 1.4689v2e-3l0.1038 1.4601v2e-3l0.14359 1.4723v2e-3l0.18461 1.451c-6e-5 9e-4 -6e-5 2e-3 0 2e-3l0.21321 1.4602v2e-3l0.2474 1.4389c-3e-5 7.8e-4 -3e-5 2e-3 0 2e-3l0.28997 1.4421c2e-3 0.0124 6e-3 0.0317 0.0124 0.0348 0.66144 6.0469 5.6118 10.629 11.512 10.647 0.0124 2e-3 0.028 6e-3 0.0336 6e-3 5.9308 0 10.907-4.6133 11.549-10.698 2e-3 -0.0124 2e-3 -0.028 0-0.0345 1.7071-8.0656 1.7072-16.421 0-24.49 2e-3 -0.0124 2e-3 -0.0311 0-0.0332-0.64151-6.0781-5.6121-10.689-11.538-10.695-2e-3 -2.2e-4 -9e-3 -2.2e-4 -0.0124 0zm0 6.7136c2.705 0 4.9368 2.172 5.0989 4.9634-3e-3 0.0186-3e-3 0.0336 0 0.0479 1.6326 7.4028 1.6326 15.092 0 22.495-3e-3 0.0186-3e-3 0.0339 0 0.0472-0.16255 2.7909-2.3934 4.9674-5.0978 4.9679-1.9913 0-3.801-1.1964-4.6396-3.0667-6e-3 -0.0124-0.0124-0.0217-0.0217-0.0317l-0.32118-1.3166-0.2965-1.3672-0.25983-1.3794-0.23185-1.3883-0.19114-1.3974-0.14328-1.3974-0.11655-1.4097-0.0793-1.3973-0.0367-1.4062v-1.4096l0.0367-1.4073 0.0793-1.4065 0.11655-1.4096 0.14328-1.3972 0.19114-1.3884 0.23185-1.3883 0.25983-1.3883 0.2965-1.3671 0.32251-1.32c9e-3 -9e-3 0.0155-0.0186 0.0218-0.0317 0.83862-1.8704 2.6476-3.0611 4.6398-3.0611z" fill-opacity=".99647"/><path d="m423.59 422.63a52.64 52.64 0 0 0-52.64 52.64 52.64 52.64 0 0 0 52.64 52.64 52.64 52.64 0 0 0 52.64-52.64 52.64 52.64 0 0 0-52.64-52.64z" fill="#fff" style="paint-order:stroke fill markers"/><path d="m422.97 423.94a51.338 51.338 0 0 0-50.715 51.338 51.338 51.338 0 0 0 51.338 51.338 51.338 51.338 0 0 0 51.338-51.338 51.338 51.338 0 0 0-51.338-51.338 51.338 51.338 0 0 0-0.62352 0zm0.62352 12.789a38.546 38.546 0 0 1 38.545 38.549 38.546 38.546 0 0 1-38.545 38.545 38.546 38.546 0 0 1-38.545-38.545 38.546 38.546 0 0 1 38.545-38.549z" fill="#ef0311" style="paint-order:stroke fill markers"/><g fill-opacity=".99647"><path d="m441.9 452.28c-9e-3 -4.1e-4 -0.0155-1.9e-4 -0.028 9.6e-4 -4.7351 6e-3 -8.9869 2.9813-10.754 7.5127-0.0186 0.0155-0.0317 0.0351-0.0336 0.0556l-0.36503 1.4209v2e-3l-0.32823 1.4299v2e-3l-0.29899 1.4296c-3e-5 2e-3 -3e-5 3e-3 0 6e-3l-0.24864 1.4512v9.3e-4l-0.22066 1.451v2e-3l-0.19425 1.4602v6e-3l-0.14328 1.4598v8.7e-4l-0.11655 1.4601v2e-3l-0.0799 1.4724v2e-3l-0.037 1.469v2e-3 1.4722 2e-3l0.0336 1.4723v2e-3l0.0696 1.4689v2e-3l0.1038 1.4601v2e-3l0.14359 1.4723v2e-3l0.18461 1.451c-6e-5 9e-4 -6e-5 2e-3 0 2e-3l0.21321 1.4602v2e-3l0.2474 1.4389c-4e-5 7.8e-4 -4e-5 2e-3 0 2e-3l0.28997 1.4421c2e-3 0.0124 6e-3 0.0317 0.0124 0.0348 0.66144 6.0469 5.6118 10.629 11.512 10.647 0.0124 2e-3 0.028 6e-3 0.0336 6e-3 5.9308 0 10.907-4.6133 11.549-10.698 2e-3 -0.0124 2e-3 -0.028 0-0.0345 1.7071-8.0656 1.7072-16.421 0-24.49 2e-3 -0.0124 2e-3 -0.0311 0-0.0332-0.64152-6.0781-5.6121-10.689-11.538-10.695-2e-3 -2.2e-4 -9e-3 -2.2e-4 -0.0124 0zm0 6.7136c2.705 0 4.9368 2.172 5.0989 4.9634-3e-3 0.0186-3e-3 0.0336 0 0.0479 1.6326 7.4028 1.6326 15.092 0 22.495-3e-3 0.0186-3e-3 0.0339 0 0.0472-0.16255 2.7909-2.3934 4.9674-5.0978 4.9679-1.9913 0-3.801-1.1964-4.6396-3.0667-6e-3 -0.0124-0.0124-0.0217-0.0217-0.0317l-0.32118-1.3166-0.2965-1.3672-0.25983-1.3794-0.23185-1.3883-0.19114-1.3974-0.14328-1.3974-0.11655-1.4097-0.0793-1.3973-0.0367-1.4062v-1.4096l0.0367-1.4073 0.0793-1.4065 0.11655-1.4096 0.14328-1.3972 0.19114-1.3884 0.23185-1.3883 0.25983-1.3883 0.2965-1.3671 0.32251-1.32c9e-3 -9e-3 0.0155-0.0186 0.0218-0.0317 0.83862-1.8704 2.6476-3.0611 4.6398-3.0611z"/><path d="m262.86 480.72c-0.0218 4.4225-1.0931 8.924-4.1724 12.593-3.0418 3.6687-7.3943 5.2077-12.164 5.2077-3.3422 0-6.9751-2.2844-9.1734-4.1965l4.5761-4.6996c1.765 1.0871 3.511 2.297 5.6515 2.297 1.9272 0.0634 3.8749-0.75446 5.4175-2.1705 0.68136-0.62517 1.3151-1.4033 1.708-2.263 0.97482-2.1331 1.4714-4.3446 1.4714-6.881 0.0426-2.1742 0.24367-4.031-1.0332-5.5257-1.2392-1.4948-2.8572-2.707-4.7725-2.707-2.4409-0.0426-4.9199 1.3138-5.8501 4.635l-6.1373-0.71953 1.0045-24.104h21.606v6.565h-15.352l-0.31359 8.0288s0.89003-0.3857 2.0547-0.6527c1.0405-0.23839 2.3084-0.36134 3.2122-0.36134 1.9697 0.0528 3.6998 0.59972 5.279 1.4045 1.281 0.65273 2.6793 1.4802 3.5322 2.6907 0.80213 1.139 1.713 2.3303 2.2534 3.6489 0.93246 2.2754 1.2156 4.8063 1.2012 7.2116z" stroke-width=".1535"/><path d="m421.37 480.72c-0.0217 4.4225-1.0931 8.924-4.1724 12.593-3.0418 3.6687-7.3943 5.2077-12.164 5.2077-3.3422 0-6.9751-2.2844-9.1734-4.1965l4.5761-4.6996c1.765 1.0871 3.511 2.297 5.6515 2.297 1.9272 0.0634 3.8749-0.75446 5.4175-2.1705 0.68137-0.62517 1.3151-1.4033 1.708-2.263 0.97482-2.1331 1.4714-4.3446 1.4714-6.881 0.0426-2.1742 0.24367-4.031-1.0332-5.5257-1.2392-1.4948-2.8573-2.707-4.7725-2.707-2.4409-0.0426-4.9199 1.3138-5.8501 4.635l-6.1373-0.71953 1.0045-24.104h21.606v6.565h-15.352l-0.31359 8.0288s0.89003-0.3857 2.0547-0.6527c1.0405-0.23839 2.3084-0.36134 3.2122-0.36134 1.9697 0.0528 3.6998 0.59972 5.279 1.4045 1.281 0.65273 2.6793 1.4802 3.5322 2.6907 0.80213 1.139 1.713 2.3303 2.2534 3.6489 0.93245 2.2754 1.2156 4.8063 1.2012 7.2116z" stroke-width=".1535"/></g><path d="m383.92 255.02v93.992" fill="none" stroke="#2e4fa8" stroke-linecap="round" stroke-linejoin="round" stroke-miterlimit="10" stroke-width=".37296"/><g transform="matrix(3.108 0 0 3.108 -660.04 -470.96)" fill="#fff"><path d="m341.04 349.85v11.518h24.704v-11.518zm-7.1613 3.8885-2.0743 5.2382v5.8836h1.2532s-0.0145-0.38131 0.12405-0.86835c0.11542-0.40973 0.347-0.89024 0.69923-1.3169 0.29366-0.35622 0.74027-0.64865 1.2011-0.85389 0.47498-0.21171 0.86341-0.31545 1.3155-0.33334 0.32986-0.0138 0.66886 0.047 0.97654 0.16626 0.61852 0.24096 1.2618 0.55932 1.6713 1.0822 0.32608 0.41649 0.54087 0.90663 0.64616 1.3213 0.11332 0.44632 0.10414 0.8027 0.10414 0.8027h15.169s0.0125-0.17923 0.048-0.44657c0.0381-0.26883 0.12016-0.58631 0.20253-0.78611 0.0875-0.21333 0.25069-0.51595 0.42588-0.75508 0.11329-0.15454 0.22918-0.28427 0.30875-0.36818 0.0611-0.0649 0.10118-0.10228 0.10119-0.10228h-16.031v-8.6636zm0.31559 1.432h4.7794v3.3347h-6.0986zm2.2354 7.143c-1.4005 0-2.5472 1.149-2.5472 2.5435 0 1.3946 1.1467 2.5445 2.5472 2.5445 1.4005-1e-5 2.5478-1.1499 2.5478-2.5445 0-1.3945-1.1473-2.5435-2.5478-2.5435zm21.901 0c-1.4008 0-2.5473 1.149-2.5473 2.5435 0 1.3946 1.1466 2.5445 2.5473 2.5445 1.4004-1e-5 2.5479-1.1499 2.5479-2.5445 0-1.3945-1.1475-2.5435-2.5479-2.5435zm2.3004 0.0884s0.20929 0.19705 0.40998 0.4708c0.17533 0.2391 0.33799 0.54195 0.42568 0.75514 0.0822 0.20001 0.16542 0.51639 0.2035 0.78516 0.0385 0.26762 0.0322 0.48775 0.0322 0.48775l4.0427-1.3153v-1.1836zm-24.202 1.3231c0.62939 0 1.1282 0.49628 1.1282 1.1319 0 0.6359-0.49876 1.1327-1.1282 1.1327-0.62931 0-1.1278-0.49683-1.1278-1.1327 0-0.63561 0.49849-1.1319 1.1278-1.1319zm21.901 0c0.62922 0 1.1282 0.49628 1.1282 1.1319 0 0.6359-0.49894 1.1327-1.1282 1.1327-0.62932 0-1.1278-0.49683-1.1278-1.1327 0-0.63561 0.49846-1.1319 1.1278-1.1319z" fill-rule="evenodd"/><path d="m294.23 328.85c-0.26109 0-0.84281 0.17004-1.2128 0.45156-0.25087 0.1909-0.48776 0.43783-0.74061 0.70821-1.143 1.2223-4.1635 4.3987-4.1635 4.3987s-0.30238 0.33643-0.5085 0.4012c-0.34227 0.10753-1.0016 0.23344-1.3485 0.30616-1.1627 0.24361-1.8679 0.38496-3.4859 0.71742-0.27048 0.0556-0.67752 0.11177-0.93991 0.31227-0.2255 0.17232-0.30701 0.3158-0.47127 0.70911-0.23649 0.56628-0.5996 1.3437-0.5996 1.3437v2.5968c1e-5 0.33544 0.26986 0.60529 0.6053 0.60529h0.95831v-0.0228c0-1.9752 1.5904-3.5652 3.5656-3.5652 1.9752 0 3.5652 1.59 3.5652 3.5652v0.0228h15.903v-0.0228c0-1.9752 1.59-3.5652 3.5652-3.5652s3.5656 1.59 3.5656 3.5652v0.0228h1.6118c0.33543 0 0.60572-0.26985 0.60572-0.60529v-10.785c0-0.64236-0.5174-1.1598-1.1598-1.1598zm-0.0228 1.1059h3.4158c0.30962 0 0.55886 0.24926 0.55886 0.55886v4.9002c0 0.3096-0.24924 0.55886-0.55886 0.55886h-6.9228c-1.1406 0-1.4633-1.2648-0.83391-1.9315l2.8316-2.9998c0.4462-0.47266 0.85928-1.0866 1.5093-1.0866zm5.5642 3.1e-4h5.5396c0.3096 0 0.55887 0.24925 0.55887 0.55886v4.8997c0 0.30962-0.24927 0.55886-0.55887 0.55886h-5.5396c-0.30963 0-0.55888-0.24924-0.55888-0.55886v-4.8997c0-0.30961 0.24925-0.55886 0.55888-0.55886zm7.6139 0h5.5396c0.30962 0 0.55888 0.24925 0.55888 0.55886v4.8997c0 0.30962-0.24926 0.55886-0.55888 0.55886h-5.5396c-0.30962 0-0.55889-0.24924-0.55889-0.55886v-4.8997c0-0.30961 0.24927-0.55886 0.55889-0.55886zm-21.536 8.6686a2.763 2.763 0 0 0-2.7251 2.7628 2.763 2.763 0 0 0 2.7628 2.7632 2.763 2.763 0 0 0 2.7632-2.7632 2.763 2.763 0 0 0-2.7632-2.7628 2.763 2.763 0 0 0-0.0378 0zm23.034 0a2.763 2.763 0 0 0-2.7251 2.7628 2.763 2.763 0 0 0 2.7628 2.7632 2.763 2.763 0 0 0 2.7633-2.7632 2.763 2.763 0 0 0-2.7633-2.7628 2.763 2.763 0 0 0-0.0378 0zm-22.996 1.8904a0.87262 0.87262 0 0 1 0.87291 0.87247 0.87262 0.87262 0 0 1-0.87291 0.8729 0.87262 0.87262 0 0 1-0.87246-0.8729 0.87262 0.87262 0 0 1 0.87246-0.87247zm23.034 0a0.87262 0.87262 0 0 1 0.8729 0.87247 0.87262 0.87262 0 0 1-0.8729 0.8729 0.87262 0.87262 0 0 1-0.87246-0.8729 0.87262 0.87262 0 0 1 0.87246-0.87247z" stroke-width="1.2195" style="paint-order:stroke fill markers"/><path d="m242.88 339.57-5.4904 4.3487-6.7751 0.48157-0.83482 2.5052 1.397 2.7684 2.8092 0.4368s0.0282-1.0911 0.65019-1.8846c0.30696-0.39157 0.73466-0.71647 1.2119-0.91258 0.39461-0.16214 0.83786-0.23005 1.143-0.23121 0.32598-5.6e-4 0.76993 0.0498 1.182 0.22885 0.48935 0.21249 0.94508 0.58596 1.2601 0.99535 0.57843 0.7517 0.58946 1.7848 0.58946 1.7848h12.876s0.039-1.0811 0.6489-1.8658c0.267-0.3435 0.66022-0.66668 1.0705-0.86021 0.4362-0.20576 0.89172-0.27122 1.2349-0.27444 0.32827-4e-3 0.79827 0.0257 1.2252 0.21342 0.4879 0.2145 0.93111 0.61342 1.2425 1.0077 0.60338 0.76378 0.59861 1.7793 0.59861 1.7793l3.8048-0.28884 0.75443-2.9933-0.43313-2.8904h-5.5072l-4.3985-4.3487zm0.16079 0.93799h3.4681v3.4107h-7.6584zm4.3029 0h3.4196l2.2957 3.4107h-5.7154zm-10.328 7.0459c-1.3968 0-2.5403 1.1458-2.5403 2.5366 0 1.3908 1.1435 2.5374 2.5403 2.5374 1.3968 0 2.5411-1.1466 2.5411-2.5374 0-1.3908-1.1443-2.5366-2.5411-2.5366zm18.886 0c-1.3968 0-2.5403 1.1458-2.5403 2.5366 0 1.3908 1.1435 2.5374 2.5403 2.5374 1.3968 0 2.5411-1.1466 2.5411-2.5374 0-1.3908-1.1443-2.5366-2.5411-2.5366zm-18.886 1.4078c0.62757 0 1.1252 0.49486 1.1252 1.1289 0 0.63402-0.49764 1.1297-1.1252 1.1297-0.62758 0-1.1244-0.49566-1.1244-1.1297 0-0.63401 0.49687-1.1289 1.1244-1.1289zm18.886 0c0.62757 0 1.1252 0.49486 1.1252 1.1289 0 0.63402-0.49765 1.1297-1.1252 1.1297-0.62756 0-1.1247-0.49566-1.1247-1.1297 0-0.63401 0.49712-1.1289 1.1247-1.1289z" fill-rule="evenodd"/><path d="m312.94 356.37a0.23625 0.23625 0 0 0-0.0339 2e-3h-27.502v4.7911h28.886c-0.0305-0.43946 0.0448-0.88388-0.0991-1.3217-0.34856-1.0838-0.67922-2.1776-1.0097-3.2697a0.23625 0.23625 0 0 0-0.24117-0.20296zm-30.89 0.0202c-0.0843 1.5976-0.16677 3.182-0.2493 4.7762h2.9838v-4.7762zm30.382 0.89058a0.22634 0.22634 0 0 1 0.22799 0.19181c0.27433 0.89707 0.55183 1.7908 0.82604 2.6863 0.0169 0.0559 0.0272 0.1123 0.0448 0.17994h-5.7378l-8e-3 -3.0548h4.6106a0.22634 0.22634 0 0 1 0.0348-2e-3zm-10.752 0.0136v3.0432h-4.7615v-3.0384zm-19.207 2e-3h1.7925v3.0416h-1.9296v-2e-3c0.0464-1.0227 0.0909-2.0289 0.13701-3.0383zm19.877 0h4.7827v3.04h-4.7827zm-16.308 2e-3h4.7863l-2e-3 3.0335h-4.7834zm5.4355 0h4.7811l-2e-3 3.0335h-4.7779zm-9.8068 4.4194c-0.0693 0.65093-0.13564 1.2887-0.2033 1.9248-0.0674 0.63883-0.13395 1.277-0.19991 1.9148h3.088a2.7458 2.7458 0 0 1 2.4433-3.0348 2.6434 2.6434 0 0 1 1.948 0.5634c0.793 0.62447 1.1234 1.4704 1.0458 2.4782h13.572c-0.1502-1.6901 1.0823-3.0349 2.7063-3.0564a2.6021 2.6021 0 0 1 1.8422 0.70858 2.7144 2.7144 0 0 1 0.89026 2.2865l5.4652-0.3966v-3.3884zm5.3974 1.3846a2.1312 2.1312 0 0 0-8e-3 4.2622 2.123 2.123 0 0 0 2.1381-2.0864 2.1312 2.1312 0 0 0-2.1329-2.1758zm19.018 0a2.1312 2.1312 0 0 0-2e-3 4.2622 2.1164 2.1164 0 0 0 2.1378-2.1161 2.1312 2.1312 0 0 0-2.1339-2.1461zm-19.013 1.3397a0.80788 0.80788 0 0 1 0.79801 0.79476 0.82606 0.82606 0 0 1-0.7996 0.7996 0.80458 0.80458 0 0 1-0.79315-0.7996 0.79301 0.79301 0 0 1 0.79474-0.79476zm19.008 0a0.80127 0.80127 0 0 1 0.79117 0.79797 0.81449 0.81449 0 0 1-0.79958 0.79639 0.79962 0.79962 0 0 1-0.78477-0.80477 0.78806 0.78806 0 0 1 0.79318-0.78959z" stroke-width=".16521"/><path d="m338.76 327.09c-0.85608 0-1.4234 0.76504-1.7477 1.5454l-2.1178 3.9344-2.2977 0.8117c-0.14441 0.051-0.32136 0.094-0.45041 0.17521-0.24794 0.15606-0.40345 0.39641-0.40345 0.7077v6.1633c0 0.47316 0.38062 0.85387 0.85386 0.85387h0.77658c-3e-5 -6e-3 -5.6e-4 -0.0118-5.6e-4 -0.0178 0-2.0204 1.655-3.6759 3.6754-3.6759 2.0205 0 3.6763 1.6554 3.6763 3.6759 0 6e-3 -5.6e-4 0.0118-5.6e-4 0.0178h15.151c-2e-5 -6e-3 -5.6e-4 -0.0118-5.6e-4 -0.0178 0-2.0204 1.6555-3.6759 3.6758-3.6759s3.6758 1.6554 3.6758 3.6759c0 6e-3 -5.6e-4 0.0118-5.6e-4 0.0178h1.6665c0.47851 0 0.86394-0.38498 0.86394-0.86351v-6.3437h-20.507v-6.9842h-5.9214zm0.85741 1.0734h3.9304v5.122h-7.0324c-0.1069 0-0.20018-0.0386-0.26868-0.10361-0.13355-0.12706-0.16348-0.33212-0.0878-0.47236l1.9909-3.6926c0.36029-0.66821 1.0542-0.85344 1.4676-0.85344zm-2.5691 10.242c-1.5785 0-2.858 1.2799-2.8579 2.8585 0 1.5785 1.2795 2.858 2.8579 2.858 1.5785 0 2.858-1.2795 2.858-2.858 0-1.5785-1.2794-2.8585-2.858-2.8585zm22.501 0c-1.5785 0-2.858 1.2799-2.858 2.8585 0 1.5785 1.2795 2.858 2.858 2.858 1.5785 0 2.8579-1.2795 2.8579-2.858 0-1.5785-1.2794-2.8585-2.8579-2.8585zm-22.501 1.4505a1.4076 1.4076 0 0 1 1.4075 1.4079 1.4076 1.4076 0 0 1-1.4075 1.4074 1.4076 1.4076 0 0 1-1.4074-1.4074 1.4076 1.4076 0 0 1 1.4074-1.4079zm22.501 0a1.4076 1.4076 0 0 1 1.4075 1.4079 1.4076 1.4076 0 0 1-1.4075 1.4074 1.4076 1.4076 0 0 1-1.4075-1.4074 1.4076 1.4076 0 0 1 1.4075-1.4079z" style="paint-order:stroke fill markers"/></g><g fill="#fff"><path d="m43.014 215.38c-9.1418 0-16.617 7.4763-16.617 16.617v138.44c0 9.1415 7.4753 16.62 16.617 16.62h444.65c9.1419 0 16.622-7.4789 16.622-16.62v-138.44c0-9.1409-7.4804-16.617-16.622-16.617zm-0.0062 3.8342h444.66c7.0812 0 12.783 5.7007 12.783 12.783v138.44c0 7.0824-5.702 12.784-12.783 12.784h-444.65c-7.0799 0-12.783-5.7012-12.783-12.784v-138.44c0-7.0824 5.703-12.783 12.783-12.783zm354.91 21.499c-7.5758 0-13.678 6.0994-13.678 13.677v93.641c0 7.5748 6.1026 13.672 13.678 13.672h67.316c7.5753 0 13.673-6.0976 13.673-13.672v-93.641c3e-5 -7.5772-6.0976-13.677-13.673-13.677zm12.858 8.1999a15.491 15.491 0 0 1 6e-3 0 15.491 15.491 0 0 1 0.10878 0 15.491 15.491 0 0 1 15.493 15.491 15.491 15.491 0 0 1-15.493 15.489 15.491 15.491 0 0 1-15.493-15.489 15.491 15.491 0 0 1 15.389-15.491zm0.0342 8.125a7.3675 7.3675 0 0 0-7.2843 7.3657 7.3675 7.3675 0 0 0 7.3671 7.3694 7.3675 7.3675 0 0 0 7.366-7.3694 7.3675 7.3675 0 0 0-7.366-7.3657 7.3675 7.3675 0 0 0-0.0942 0zm-38.82 3.4094v69.053h5.672v-69.053zm-11.914 5.0159v63.765h5.5751v-63.765zm-120.37 7.3686c-2.6653 0.028-5.0562 0.35356-7.4244 1.1674-3.2497 1.1129-6.7086 2.4462-9.0176 4.9894-2.3219 2.5566-3.9513 6.0552-4.1213 9.5031-0.17467 3.3625 1.1063 6.8935 3.0862 9.6152 1.6241 2.2349 4.1794 3.7658 6.7239 4.8441 2.0936 0.88721 4.4642 0.87319 6.7133 1.1998 3.9323 0.57578 10.622 1.4268 12.943 2.2992 0.68397 0.26729 1.3858 0.78256 1.7851 1.2725 0.83287 1.0187 1.3339 2.4478 1.1952 3.7555-0.17312 1.569-1.0225 3.2528-2.3483 4.1115-2.5129 1.6297-5.891 2.3608-9.0929 2.4588-5.0065 0.15944-10.89-2.6067-13.745-6.4331l-7.2482 6.0247c6.8274 6.7584 12.099 9.7852 20.861 9.7852 6.5678 0 12.077-1.7563 15.709-4.908 3.6878-3.1518 5.1093-6.8627 5.1987-10.88 0.10412-4.1413-1.4334-8.3376-4.8535-11.436-3.364-3.1511-10.405-3.5281-17.881-4.9162-3.0982-0.5865-5.5526-0.80546-7.2097-1.7684-1.6537-0.96068-2.4-2.537-2.4758-4.1437-0.088-1.6079 0.84593-3.3117 2.0627-4.3641 2.3713-2.0486 5.861-2.8136 8.9944-2.7443 4.3234 0.10816 8.2611 0.93379 12.229 4.3278l6.1118-7.1364c-5.0932-4.5276-11.789-6.6696-18.196-6.6241zm108.74 1.57v11.918h-20.844v37.496h20.844v19.174h29.222v-7.446h-23.923v-61.142zm-213.98 0.57793-37.692 0.0737v52.383l37.692-0.05v-9.3855l-28.152 0.0503-0.14608-12.579 17.836 0.0398v-9.5365l-17.836-0.0389 0.14608-11.498 28.152-0.0799zm21.564 0v52.395l13.166 0.0541s9.2804-3e-3 10.311-0.19954c0.57304-0.11903 1.0714-0.20077 1.1002-0.19549 0.0444 6e-3 0.12742-0.0217 0.19455-0.0488 0.088-0.0426 0.52988-0.17405 1.0106-0.30054 1.3714-0.37955 2.6216-0.84854 3.7173-1.4002 2.281-1.1472 3.5447-2.0495 5.3886-3.8394 1.8802-1.8249 3.0981-3.501 4.1905-5.7679 2.3666-4.9072 3.3769-12.904 2.48-19.645-0.80173-6.0473-2.1648-9.644-5.0623-13.361-0.52382-0.67452-2.6058-2.6785-3.5626-3.437-1.3981-1.1049-4.3462-2.6507-5.9354-3.1071-0.24647-0.0817-0.78735-0.23838-1.2162-0.36335-0.42883-0.13426-1.172-0.29992-1.6506-0.37438-0.4795-0.0892-1.098-0.18151-1.376-0.2533-0.37159-0.0923-3.475-0.12339-11.631-0.14421zm9.3612 9.449 6.2578 0.0441c6.8443 0.0444 6.5963 0.0124 8.332 0.59623 0.81507 0.28283 2.3925 1.0446 2.8428 1.3865 1.2284 0.92667 1.9865 1.6649 2.6908 2.6175 1.3522 1.8234 2.0015 3.6015 2.5809 7.0757 0.53792 3.2062 0.49022 8.2084-0.11065 10.784-0.0908 0.32932-0.20264 0.9143-0.28313 1.3094-0.6023 3.1385-2.1552 5.7142-4.5331 7.502-0.32655 0.25486-1.109 0.7162-1.7404 1.0408-1.0999 0.56674-1.4105 0.67679-2.9336 1.0328-0.6123 0.14763-1.3838 0.17405-6.9099 0.20078l-6.2118 0.0441zm275.72 14.538a24.992 24.992 0 0 1 0.14608 0 24.992 24.992 0 0 1 24.995 24.99 24.992 24.992 0 0 1-24.995 24.992 24.992 24.992 0 0 1-24.99-24.992 24.992 24.992 0 0 1 24.849-24.99zm-0.24242 7.8894a17.103 17.103 0 0 0-16.76 17.1 17.103 17.103 0 0 0 17.099 17.101 17.103 17.103 0 0 0 17.106-17.101 17.103 17.103 0 0 0-17.106-17.1 17.103 17.103 0 0 0-0.33945 0z" style="paint-order:stroke fill markers"/><g><path d="m152.93 57.492c0 5.6181-1.5643 9.182-4.247 12.653-2.6472 3.4352-6.1946 5.153-10.642 5.153-4.871 0-8.683-1.9861-11.436-5.958-2.4001-3.4354-3.7787-6.6952-3.7787-11.741 0-5.7254 1.6089-9.8778 4.2914-13.17 2.6825-3.328 6.3534-4.9919 11.013-4.9919 4.3768 0 7.9065 1.6997 10.589 5.0992 2.7178 3.3635 4.2107 7.4444 4.2107 12.955zm-6.4344 0.10692c0-3.793-1.1532-6.6402-2.6355-8.7873-1.4474-2.147-3.6455-2.957-5.8248-2.9687-2.2895-0.0186-4.6347 0.90601-6.1524 3.053-1.5178 2.147-2.5526 4.9101-2.5526 8.703 0 3.829 0.85656 6.0418 2.3743 8.2248 1.5178 2.147 4.0573 2.9985 6.4256 3.0328 2.5046 0.0357 5.159-1.5046 6.5709-4.1886 1.1295-2.1111 1.7945-3.7051 1.7945-7.0689z"/><path d="m189.85 51.851-3.5888 4.5229s-0.86902-0.75975-2.0969-1.0746c-1.1986-0.30707-2.746-0.17374-3.6328 0.17995-0.87151 0.34849-2.161 1.3428-2.8302 2.3798-0.76664 1.1885-0.8536 2.4106-0.8536 2.4106l-0.0218 15.155-5.7854 7e-5v-25.453l5.7854 0.0407v0.83023s0.80721-0.51247 1.9136-0.89056c1.1419-0.38996 2.5991-0.6458 3.6075-0.67396 1.0978-0.0311 2.8234 0.17187 4.179 0.696 1.908 0.73631 3.3239 1.8759 3.3239 1.8759z"/><path d="m210.22 69.209 3.4556 4.6317c-1.805 1.339-3.4595 1.4298-4.5337 1.4298-2.0102 0-4.0916-1.0506-5.3393-2.6106-1.213-1.5595-1.7235-2.9638-1.7133-5.0779l0.0612-12.478h-5.7175v-5.752h5.7176v-10.083h5.7693v10.083h5.7563v5.752h-5.7563v12.985s0.0311 0.45535 0.14918 0.63974c0.22626 0.35366 0.58489 0.68534 0.99592 0.77134 0.21476 0.0451 0.57783-6e-3 0.83017-0.0979 0.20668-0.0768 0.32668-0.19208 0.32668-0.19208z"/><path d="m247.82 74.586-5.844-3.1e-4v-0.64991s-3.2842 1.179-5.0032 1.3095c-2.0908 0.15851-4.2731 0.0249-6.2564-0.65656-1.5905-0.54619-3.2285-1.38-4.6624-2.3724-0.67692-0.46859-1.2835-0.98979-1.8237-1.6657-0.61935-0.77481-0.95837-1.8191-0.97714-2.8108-0.0249-1.3086 0.26044-2.7556 1.1482-3.7546 1.8247-2.0503 4.5376-3.4217 7.3102-4.0937 1.0454-0.25454 2.0759-0.3669 3.1048-0.47978 1.0867-0.11903 2.7339 0.0535 4.115 0.38123 1.6493 0.3916 2.9542 0.96428 2.9542 0.96428s0.15105-0.95269 0.0762-1.421c-0.11562-0.71878-0.4621-1.5763-0.79471-2.0343-0.81771-1.1258-2.297-1.651-3.6225-2.0742-0.47294-0.15292-0.98641-0.12961-1.4827-0.1467-0.61196-0.0218-1.2258 6e-3 -1.8361 0.0566-0.98706 0.082-2.1497 0.23092-2.945 0.39244-2.7246 0.55176-4.2296 1.3867-4.2296 1.3867l-2.3634-5.2697s1.9104-0.91803 4.5479-1.5835c2.0733-0.52301 4.7278-0.84242 6.3628-0.75946 3.1085 0.1585 6.2468 0.8417 8.4731 2.7591 2.2264 1.9176 3.75 4.5243 3.75 7.5856zm-6.0508-7.2201s-1.0777-0.86632-2.5156-1.4359c-1.2604-0.49936-2.8202-0.71235-3.8685-0.70551-0.96938 6e-3 -2.6327 0.32087-3.8057 0.79487-1.4418 0.58277-2.3126 1.3465-2.3126 1.3465s0.74414 0.73326 2.0793 1.2847c1.2621 0.52136 3.0867 0.86268 4.1546 0.86349 1.0532 1e-3 2.5562-0.23341 3.8102-0.74452 1.3761-0.56111 2.4582-1.4037 2.4582-1.4037z"/><path d="m307.74 74.586-5.8438-3.1e-4v-0.64991s-3.2843 1.179-5.0033 1.3095c-2.0909 0.15851-4.2731 0.0249-6.2565-0.65656-1.5903-0.54619-3.2283-1.38-4.6622-2.3724-0.67704-0.46859-1.2838-0.98979-1.8237-1.6657-0.61936-0.77481-0.95841-1.8191-0.97721-2.8108-0.0249-1.3086 0.26045-2.7556 1.1482-3.7546 1.8247-2.0503 4.5376-3.4217 7.3102-4.0937 1.0455-0.25454 2.0758-0.3669 3.1049-0.47978 1.0866-0.11903 2.734 0.0535 4.115 0.38123 1.6494 0.3916 2.9541 0.96428 2.9541 0.96428s0.15167-0.95269 0.0761-1.421c-0.11562-0.71878-0.46216-1.5763-0.79474-2.0343-0.81756-1.1258-2.2969-1.651-3.6224-2.0742-0.47306-0.15292-0.98638-0.12961-1.4827-0.1467-0.61205-0.0218-1.2259 6e-3 -1.8362 0.0566-0.98703 0.082-2.1496 0.23092-2.945 0.39244-2.7244 0.55176-4.2294 1.3867-4.2294 1.3867l-2.3635-5.2697s1.9103-0.91803 4.5479-1.5835c2.0732-0.52301 4.7278-0.84242 6.3627-0.75946 3.1086 0.1585 6.2468 0.8417 8.4732 2.7591 2.2265 1.9176 3.7499 4.5243 3.7499 7.5856zm-6.0506-7.2201s-1.0778-0.86632-2.5157-1.4359c-1.2603-0.49936-2.82-0.71235-3.8684-0.70551-0.96947 6e-3 -2.6327 0.32087-3.8057 0.79487-1.4416 0.58277-2.3126 1.3465-2.3126 1.3465s0.74433 0.73326 2.0795 1.2847c1.262 0.52136 3.0866 0.86268 4.1546 0.86349 1.053 1e-3 2.556-0.23341 3.81-0.74452 1.3762-0.56111 2.4583-1.4037 2.4583-1.4037z"/><path d="m407.16 74.586-5.8441-3.1e-4v-0.64991s-3.284 1.179-5.003 1.3095c-2.0909 0.15851-4.2734 0.0249-6.2565-0.65656-1.5905-0.54619-3.2286-1.38-4.6623-2.3724-0.67695-0.46859-1.2836-0.98979-1.8237-1.6657-0.61936-0.77481-0.95844-1.8191-0.97718-2.8108-0.0249-1.3086 0.26045-2.7556 1.1482-3.7546 1.8247-2.0503 4.5376-3.4217 7.3103-4.0937 1.0454-0.25454 2.0757-0.3669 3.1047-0.47978 1.0866-0.11903 2.7339 0.0535 4.115 0.38123 1.6494 0.3916 2.9542 0.96428 2.9542 0.96428s0.15167-0.95269 0.0762-1.421c-0.11593-0.71878-0.46225-1.5763-0.79486-2.0343-0.81771-1.1258-2.2969-1.651-3.6225-2.0742-0.47291-0.15292-0.98626-0.12961-1.4828-0.1467-0.61177-0.0218-1.2257 6e-3 -1.8359 0.0566-0.98712 0.082-2.1497 0.23092-2.945 0.39244-2.7245 0.55176-4.2295 1.3867-4.2295 1.3867l-2.3636-5.2697s1.9105-0.91803 4.5481-1.5835c2.0732-0.52301 4.7279-0.84242 6.3629-0.75946 3.1084 0.1585 6.2467 0.8417 8.4731 2.7591 2.2263 1.9176 3.7499 4.5243 3.7499 7.5856zm-6.0506-7.2201s-1.0778-0.86632-2.5157-1.4359c-1.2605-0.49936-2.82-0.71235-3.8685-0.70551-0.96944 6e-3 -2.6326 0.32087-3.8058 0.79487-1.4416 0.58277-2.3124 1.3465-2.3124 1.3465s0.74417 0.73326 2.0792 1.2847c1.2622 0.52136 3.0865 0.86268 4.1547 0.86349 1.053 1e-3 2.5562-0.23341 3.81-0.74452 1.3762-0.56111 2.4585-1.4037 2.4585-1.4037z"/><path d="m399.9 126.67 3.4555 4.6317c-1.805 1.339-3.4593 1.4298-4.5337 1.4298-2.0102 0-4.0916-1.0507-5.3393-2.6105-1.213-1.5595-1.7235-2.9638-1.7133-5.0779l0.0612-12.478h-5.7177v-5.752h5.7177v-10.083h5.7692v10.083h5.7565v5.752h-5.7565v12.985s0.0311 0.45538 0.14949 0.63975c0.22626 0.35365 0.58495 0.68534 0.99586 0.77133 0.21538 0.0451 0.57792-6e-3 0.83023-0.0979 0.20699-0.0768 0.32671-0.19207 0.32671-0.19207z"/><g stroke-width=".40427"><path d="m416.12 98.136v6.017h5.9943v-6.017zm0 8.5347v26.322h5.9943v-26.322z"/><path d="m366.89 98.136v6.017h5.9943v-6.017zm0 8.5347v26.322h5.9943v-26.322z"/><path d="m154.19 106.67v26.322h5.9943v-26.322z"/></g><path d="m270.66 189.64h-7.0887l-9.0139-12.006-2.397 2.019v9.9868h-5.6904v-35.639h5.6904v18.177l9.7193-8.215h8.7803l-11.759 9.9659z" stroke-width=".041352"/><path d="m198.62 112.47-14.51 14.527h14.51v5.8384l-24.71-3e-5 3e-5 -5.8384 14.51-14.527h-14.51v-5.8039h24.71z" stroke-width=".26263"/><path d="m370.39 75.681h-5.9414l6e-5 -13.671s-0.38657-2.6472-1.199-3.6281c-0.60149-0.7259-1.2945-1.5265-2.1768-2.1098-1.2758-0.84375-2.8088-1.3256-3.872-1.2452-0.50318 0.0379-1.0498 0.028-1.5617 0.1237-1.2849 0.25299-2.5091 0.81137-3.4406 1.6695-0.74986 0.69065-1.6614 1.9255-2.105 3.1439-0.44083 1.2108-0.41622 2.4075-0.41622 2.4075v13.31h-5.8918v-13.671s-0.0674-1.0927-0.49246-2.2528c-0.32506-0.88549-0.93457-1.8104-1.4392-2.3186-0.67058-0.67471-1.4488-1.3192-2.3434-1.7429-1.0331-0.4896-2.2064-0.70644-3.3047-0.68807-1.2543 0.0217-2.5645 0.41793-3.67 1.1087-0.60403 0.37753-1.1151 0.88115-1.5958 1.37-0.52304 0.53165-1.09 1.4817-1.4259 2.376-0.35527 0.94567-0.46442 1.8222-0.46442 1.8222l-0.0361 13.997h-5.8522v-25.86h5.8522v1.5446s1.1599-0.84906 2.754-1.4446c1.6013-0.59838 3.6399-0.94299 4.9815-0.82595 1.573 0.13831 4.0239 0.52998 5.849 1.5352 2.4574 1.3537 4.1129 3.393 4.1129 3.393s0.90418-1.0107 1.4189-1.4487c0.85286-0.72586 1.9349-1.5261 2.7454-1.9371 1.8257-0.92618 3.8942-1.5564 5.9414-1.5564 2.3282 0 4.7066 0.66635 6.7565 1.7699 1.7138 0.92278 3.1848 2.338 4.3454 3.9008 0.90539 1.219 1.5372 2.6477 1.9331 4.1253 0.36662 1.3684 0.42648 2.5253 0.42648 2.5253z" stroke-width=".26681"/><path d="m329.64 189.98h-5.8426l3e-5 -13.444s-0.37998-2.6031-1.1793-3.5678c-0.5912-0.71375-1.2727-1.5011-2.1405-2.0747-1.2545-0.82977-2.762-1.3035-3.8074-1.2244-0.49464 0.0376-1.0322 0.028-1.536 0.12214-1.2632 0.24926-2.4671 0.79785-3.3832 1.6416-0.73743 0.67922-1.6337 1.8936-2.07 3.0916-0.43347 1.1907-0.40895 2.3674-0.40895 2.3674v13.089h-5.7941v-13.444s-0.0668-1.0747-0.48404-2.2154c-0.31984-0.8708-0.91934-1.7801-1.4156-2.2801-0.65923-0.66324-1.4246-1.297-2.3043-1.7139-1.016-0.4813-2.1696-0.69451-3.2496-0.67639-1.2337 0.0218-2.522 0.41088-3.6091 1.0902-0.59399 0.37134-1.0969 0.86657-1.5692 1.3471-0.5145 0.5228-1.0719 1.457-1.4023 2.3364-0.34949 0.93007-0.4569 1.792-0.4569 1.792l-0.0345 13.764h-5.7548v-25.43h5.7548v1.519s1.1406-0.83511 2.7081-1.4206c1.575-0.58843 3.5796-0.92748 4.8989-0.81224 1.5466 0.13706 3.9567 0.52124 5.7514 1.5098 2.4168 1.3312 4.0445 3.3363 4.0445 3.3363s0.88916-0.9939 1.3953-1.4243c0.83866-0.71409 1.9029-1.5008 2.6999-1.9048 1.7952-0.91082 3.8293-1.5306 5.8424-1.5306 2.2893 0 4.6284 0.65519 6.6441 1.7404 1.6856 0.90762 3.132 2.2992 4.2732 3.8361 0.89006 1.1986 1.5116 2.6034 1.9011 4.0564 0.36031 1.3458 0.41917 2.4834 0.41917 2.4834z" stroke-width=".26238"/><path d="m264.02 39.284 0.0249 36.07h5.7441l-0.0249-36.07z" stroke-width=".38736"/><path d="m136.47 132.7-6.4536 6e-3v-14.432h-15.848v14.431h-6.4917l1e-3 -36.069h6.4914v14.416h15.848v-14.416h6.4611z"/></g></g></svg>