<?xml version="1.0" encoding="UTF-8" standalone="no"?>
<svg
   xmlns:dc="http://purl.org/dc/elements/1.1/"
   xmlns:cc="http://creativecommons.org/ns#"
   xmlns:rdf="http://www.w3.org/1999/02/22-rdf-syntax-ns#"
   xmlns:svg="http://www.w3.org/2000/svg"
   xmlns="http://www.w3.org/2000/svg"
   xmlns:sodipodi="http://sodipodi.sourceforge.net/DTD/sodipodi-0.dtd"
   xmlns:inkscape="http://www.inkscape.org/namespaces/inkscape"
   inkscape:version="1.0 (4035a4fb49, 2020-05-01)"
   height="706.35858"
   width="530.01788"
   sodipodi:docname="Turkey_road_sign_B-61g.svg"
   id="svg86372"
   version="1.1"
   viewBox="0 0 530.01788 706.3586">
  <path
     sodipodi:nodetypes="ccccc"
     d="M 0.37193599,0.37193599 V 705.98663 H 529.64593 V 0.37193599 Z"
     style="font-size:24.9647px;line-height:97.02%;font-family:BywayEMod;-inkscape-font-specification:BywayEMod;text-align:center;text-anchor:middle;opacity:1;fill:#00408c;fill-opacity:1;fill-rule:evenodd;stroke:none;stroke-width:0.743872;stroke-linecap:round;stroke-linejoin:round;stroke-miterlimit:4;stroke-dasharray:none;stroke-opacity:1;paint-order:fill markers stroke"
     id="rect845" />
  <path
     d="m 245.66346,103.10808 h -10.46349 v 29.60208 h -6.51928 V 103.1083 l -10.41109,-2.2e-4 v -6.467504 h 27.39386 z"
     style="font-style:normal;font-variant:normal;font-weight:normal;font-stretch:normal;font-size:30px;line-height:1.15;font-family:'Highway Gothic Wide';-inkscape-font-specification:'Highway Gothic Wide';fill:#ffffff;fill-opacity:1;stroke:none;stroke-width:0.404543;stroke-opacity:1"
     id="path18075-5"
     sodipodi:nodetypes="ccccccccc" />
  <path
     d="m 267.98412,106.61139 a 13.140239,13.140221 0 0 0 -13.10648,13.13915 13.140239,13.140221 0 0 0 13.14067,13.1406 13.140239,13.140221 0 0 0 8.74957,-3.33818 l -3.90051,-4.36179 a 7.2888832,7.2888732 0 0 1 -4.84906,1.84847 7.2888832,7.2888732 0 0 1 -6.66325,-4.33908 h 3.71773 7.78802 7.94134 0.0326 a 13.140239,13.140221 0 0 0 0.33753,-2.95002 13.140239,13.140221 0 0 0 -13.13911,-13.13918 13.140239,13.140221 0 0 0 -0.0345,0 z m 0,5.85138 a 7.2888832,7.2888732 0 0 1 0.0441,0 7.2888832,7.2888732 0 0 1 6.68777,4.39123 h -13.3756 a 7.2888832,7.2888732 0 0 1 6.64557,-4.39123 z"
     style="fill:#ffffff;fill-opacity:1;stroke:none;stroke-width:0.947397;stroke-opacity:1"
     id="path55558" />
  <path
     d="m 332.44585,142.81552 v -12.38241 c 2.08614,1.4081 4.5952,2.23783 7.30141,2.23799 0,0 0.0317,0 0.0345,0 7.20699,-0.0187 13.03907,-5.86798 13.03941,-13.07487 2.5e-4,-7.22182 -5.85365,-13.07631 -13.07518,-13.07665 -2.70668,6e-5 -5.2154,0.82955 -7.3015,2.23812 v -2.23644 h -5.79131 v 36.29426 z m 7.34871,-15.96013 c -0.0323,0 -0.0323,0 -0.0472,0 -4.00919,7e-5 -7.25932,-3.24994 -7.25932,-7.2591 0,-4.0092 3.25013,-7.25933 7.25932,-7.25927 4.00901,-6e-5 7.25951,3.25007 7.25917,7.25927 3.4e-4,3.99076 -3.22113,7.23322 -7.21183,7.2591 z"
     style="fill:#ffffff;fill-opacity:1;stroke:none;stroke-width:0.830367;stroke-opacity:1"
     id="path55345" />
  <path
     d="m 314.01044,125.45367 c -0.0249,1.34765 -0.30271,2.56022 -0.89506,3.67042 -0.40469,0.75813 -0.91359,1.49823 -1.74575,2.08405 -0.42464,0.29122 -0.93674,0.42685 -1.44726,0.57454 -0.53053,0.15416 -1.0624,0.3163 -1.67284,0.44177 -1.63889,0.33753 -3.52991,0.62837 -5.44675,0.64839 -4.43648,-0.0693 -8.32573,-0.80752 -12.01639,-2.73204 l 2.58624,-5.22009 c 3.16889,1.68412 6.429,2.05496 9.26232,2.08943 0.76602,0 1.89857,-0.0541 2.83714,-0.18555 0.87499,-0.12245 2.59056,-0.56111 2.59056,-0.56111 0,0 0.10132,-0.30303 0.11873,-0.46097 0.0186,-0.15602 -0.006,-0.35108 -0.0186,-0.47276 -0.0186,-0.14669 -0.0392,-0.30551 -0.13427,-0.41752 -0.15912,-0.18959 -0.2909,-0.41955 -0.50759,-0.54141 -0.44509,-0.25206 -1.00499,-0.34626 -1.51225,-0.50486 -1.27781,-0.39782 -2.57125,-0.74389 -3.85631,-1.11766 -0.76154,-0.22191 -1.52287,-0.4431 -2.28352,-0.66663 -0.48885,-0.14514 -0.97802,-0.28624 -1.46563,-0.43462 -1.03399,-0.31437 -2.10857,-0.52406 -3.09544,-0.96484 -0.69644,-0.31107 -1.53463,-0.77603 -1.9649,-1.17242 -1.41661,-1.37478 -2.26375,-2.75546 -2.4695,-4.43455 -0.23962,-1.95255 0.4123,-4.35346 1.5419,-5.6962 0.42368,-0.50365 0.77556,-0.87971 1.27594,-1.16508 0.59431,-0.33912 1.30032,-0.42875 1.96285,-0.59978 0.94846,-0.2446 1.90559,-0.46607 2.87484,-0.60519 1.31287,-0.18865 2.77589,-0.30862 3.96649,-0.30862 3.65358,0 6.95766,0.72186 10.05582,2.05689 l -2.22674,5.35439 c -2.06565,-0.96693 -5.63249,-1.5824 -8.52452,-1.61969 -1.70034,-0.0218 -5.03489,0.82249 -5.03489,0.82249 0,0 -0.15509,0.34583 -0.15788,0.52997 -0.006,0.3361 0.0376,0.72105 0.25951,0.97532 0.55866,0.64478 1.5515,0.71617 2.35569,1.00132 0.65706,0.23372 1.3406,0.38337 2.01021,0.57669 1.17292,0.33902 2.36029,0.70377 3.51704,1.02255 2.14025,0.58993 5.23007,1.11869 7.0405,2.89697 1.33086,1.30691 2.18481,2.59237 2.22207,5.13559 z"
     style="font-style:normal;font-variant:normal;font-weight:normal;font-stretch:normal;font-size:19.6811px;line-height:1.15;font-family:'Highway Gothic Wide';-inkscape-font-specification:'Highway Gothic Wide';fill:#ffffff;fill-opacity:1;stroke-width:0.129247"
     id="path24247"
     sodipodi:nodetypes="cscssccccacasssaaaaacasaaasccacaaaasacc" />
  <path
     sodipodi:nodetypes="csssssssssssscccccsssssssssscsscsssssssssssssscssssssssscc"
     id="path31013"
     d="m 213.5604,190.11347 c -3.93087,-0.083 -8.01105,-1.25969 -11.34899,-3.27745 -1.03529,-0.62601 -1.49748,-0.96167 -1.47212,-1.0688 0.0187,-0.0849 3.47742,-4.96536 3.64391,-5.14494 0.0696,-0.0749 0.138,-0.0444 0.5035,0.2101 2.0346,1.4044 4.81133,2.4167 7.35763,2.68258 2.88183,0.29992 5.55985,-0.0824 8.19003,-1.1657 0.21041,-0.0883 0.52022,-0.21477 0.69109,-0.28438 0.57085,-0.23497 1.30212,-1.13945 1.64325,-2.03284 0.61637,-1.61403 0.16535,-3.42041 -1.16456,-4.65431 -0.22843,-0.21259 -0.40723,-0.29899 -1.46239,-0.71266 -1.23716,-0.48456 -2.08638,-0.71378 -3.64435,-0.98342 -0.83592,-0.14639 -1.03374,-0.15602 -3.30253,-0.18337 l -2.41309,-0.0311 v -3.23976 -3.2395 l 2.12047,-5.6e-4 c 1.16633,0 2.35768,-0.0311 2.64719,-0.0603 1.67016,-0.18524 3.14828,-0.63711 4.73475,-1.45018 1.07486,-0.55083 1.10995,-0.57433 1.18746,-0.80164 0.19145,-0.55807 0.14918,-1.37174 -0.10194,-1.94103 -0.10256,-0.23527 -0.14763,-0.26448 -1.13581,-0.74656 -0.56571,-0.27692 -1.17009,-0.55512 -1.34249,-0.6197 -0.60229,-0.22471 -1.72987,-0.52031 -2.59146,-0.67804 -0.77413,-0.14296 -1.01394,-0.15975 -2.21387,-0.16348 -1.2297,-0.006 -1.42597,0.0124 -2.2815,0.161 -1.08015,0.19207 -1.64909,0.34685 -2.63112,0.71931 -0.9406,0.35695 -2.40557,1.13779 -3.0152,1.60682 l -0.20761,0.15882 -1.43209,-1.96176 c -0.78759,-1.07877 -1.6499,-2.26484 -1.91654,-2.63534 l -0.48431,-0.67328 0.71841,-0.47801 c 0.93429,-0.62119 1.59324,-0.99393 2.69066,-1.51998 0.81143,-0.38949 2.08707,-0.88867 2.53216,-0.99145 0.0973,-0.0249 0.38642,-0.10256 0.64385,-0.17964 0.73019,-0.21662 1.4932,-0.38162 2.17891,-0.47213 0.3457,-0.0466 0.81335,-0.10816 1.03853,-0.13924 1.6369,-0.21787 4.71812,-0.0755 6.11316,0.28687 0.11251,0.0311 0.51928,0.12028 0.90358,0.20233 0.68034,0.14545 2.07029,0.59974 3.0745,1.00804 0.80889,0.32861 2.59146,1.31029 3.46201,1.90674 0.44661,0.30551 0.55651,0.41902 0.91411,0.94035 1.2753,1.86031 1.83281,3.97239 1.64844,6.24606 -0.0802,0.97516 -0.473,2.41328 -0.88341,3.22518 -0.23807,0.47129 -0.81519,1.36113 -1.18246,1.82289 l -0.36842,0.46358 0.40876,0.37489 c 1.71175,1.57126 2.81505,3.52991 3.3196,5.89352 0.14887,0.69137 0.21787,2.70089 0.1209,3.42244 -0.27226,1.99575 -1.18317,4.08487 -2.42158,5.54428 -0.55051,0.64851 -1.40589,1.45074 -1.89692,1.77885 -0.45308,0.30303 -1.31069,0.74421 -1.85098,0.95188 -0.20109,0.0786 -0.65383,0.26045 -1.00975,0.40404 -1.24608,0.50924 -3.65986,1.12819 -5.02762,1.28897 -1.42836,0.16814 -1.84212,0.2073 -2.42766,0.22128 -0.37007,0.0124 -0.936,0.0155 -1.25786,0.006 z"
     style="fill:#ffffff;fill-opacity:1;stroke-width:0.0172723" />
  <metadata
     id="metadata86376">
    <rdf:RDF>
      <cc:Work
         rdf:about="">
        <dc:format>image/svg+xml</dc:format>
        <dc:type
           rdf:resource="http://purl.org/dc/dcmitype/StillImage" />
        <dc:title></dc:title>
      </cc:Work>
    </rdf:RDF>
  </metadata>
  <sodipodi:namedview
     inkscape:current-layer="svg86372"
     inkscape:window-maximized="1"
     inkscape:window-y="-9"
     inkscape:window-x="-9"
     inkscape:cy="230.1414"
     inkscape:cx="-209.22659"
     inkscape:zoom="0.62749741"
     showgrid="false"
     id="namedview86374"
     inkscape:window-height="1001"
     inkscape:window-width="1920"
     inkscape:pageshadow="2"
     inkscape:pageopacity="0"
     guidetolerance="10"
     gridtolerance="10"
     objecttolerance="10"
     borderopacity="1"
     bordercolor="#666666"
     pagecolor="#ffffff"
     inkscape:document-rotation="0" />
  <defs
     id="defs86346">
    <style
       id="style86344">
      .cls-1 {
        fill: #00408c;
        fill-rule: evenodd;
      }

      .cls-2 {
        fill: #fff;
      }
    </style>
  </defs>
  <path
     style="color:#000000;font-style:normal;font-variant:normal;font-weight:normal;font-stretch:normal;font-size:medium;line-height:normal;font-family:sans-serif;-inkscape-font-specification:BywayEMod;font-variant-ligatures:normal;font-variant-position:normal;font-variant-caps:normal;font-variant-numeric:normal;font-variant-alternates:normal;font-variant-east-asian:normal;font-feature-settings:normal;font-variation-settings:normal;text-indent:0;text-align:start;text-decoration:none;text-decoration-line:none;text-decoration-style:solid;text-decoration-color:#000000;letter-spacing:normal;word-spacing:normal;text-transform:none;writing-mode:lr-tb;direction:ltr;text-orientation:mixed;dominant-baseline:auto;baseline-shift:baseline;text-anchor:start;white-space:normal;shape-padding:0;shape-margin:0;inline-size:0;clip-rule:nonzero;display:inline;overflow:visible;visibility:visible;opacity:1;isolation:auto;mix-blend-mode:normal;color-interpolation:sRGB;color-interpolation-filters:linearRGB;solid-color:#000000;solid-opacity:1;vector-effect:none;fill:#ffffff;fill-opacity:1;fill-rule:evenodd;stroke:none;stroke-width:12.3513;stroke-linecap:round;stroke-linejoin:miter;stroke-miterlimit:4;stroke-dasharray:none;stroke-dashoffset:0;stroke-opacity:1;paint-order:fill markers stroke;color-rendering:auto;image-rendering:auto;shape-rendering:auto;text-rendering:auto;enable-background:accumulate;stop-color:#000000"
     d="m 34.039991,8.905686 c -13.759433,0 -24.970018,11.21366 -24.970018,24.97418 V 672.28939 c 0,13.76105 11.210585,24.97198 24.970018,24.97198 H 496.48205 c 13.76102,0 24.97033,-11.21093 24.97033,-24.97198 V 33.879866 c 0,-13.76052 -11.20931,-24.97418 -24.97033,-24.97418 z m 0,8.5118 H 496.48205 c 9.19361,0 16.46083,7.27052 16.46083,16.46238 V 672.28939 c 0,9.1936 -7.26722,16.46092 -16.46083,16.46092 H 34.039991 c -9.189749,0 -16.458615,-7.26732 -16.458615,-16.46092 V 33.879866 c 0,-9.19186 7.268866,-16.46238 16.458615,-16.46238 z"
     id="path8322"
     sodipodi:nodetypes="ssssssssssssssssss" />
  <path
     id="path200237-1"
     style="opacity:1;fill:#ffffff;fill-opacity:1;stroke:none;stroke-width:7.0307;stroke-miterlimit:4;stroke-dasharray:none;stroke-opacity:1;paint-order:stroke fill markers"
     d="m 106.32123,422.63495 a 52.640011,52.640011 0 0 0 -52.63981,52.63981 52.640011,52.640011 0 0 0 52.63981,52.63981 52.640011,52.640011 0 0 0 52.63978,-52.63981 52.640011,52.640011 0 0 0 -52.63978,-52.63981 z" />
  <path
     id="path200239-9"
     style="opacity:1;fill:#ef0311;fill-opacity:1;stroke:none;stroke-width:6.85684;stroke-miterlimit:4;stroke-dasharray:none;stroke-opacity:1;paint-order:stroke fill markers"
     d="m 105.69771,423.93664 a 51.338355,51.338355 0 0 0 -50.714639,51.33812 51.338355,51.338355 0 0 0 51.338159,51.33813 51.338355,51.338355 0 0 0 51.3381,-51.33813 51.338355,51.338355 0 0 0 -51.3381,-51.33812 51.338355,51.338355 0 0 0 -0.62352,0 z m 0.62352,12.78903 a 38.545501,38.545501 0 0 1 38.54453,38.54909 38.545501,38.545501 0 0 1 -38.54453,38.54453 38.545501,38.545501 0 0 1 -38.54459,-38.54453 38.545501,38.545501 0 0 1 38.54459,-38.54909 z" />
  <path
     sodipodi:nodetypes="cccccccc"
     id="path200297-1"
     style="font-style:normal;font-variant:normal;font-weight:normal;font-stretch:normal;font-size:88.293px;line-height:97.02%;font-family:'Highway Gothic Condensed';-inkscape-font-specification:'Highway Gothic Condensed, ';text-align:center;text-anchor:middle;opacity:1;fill:#000000;fill-opacity:0.996466;stroke-width:0.153133"
     d="m 103.2398,458.74047 c -5.027213,7.03483 -12.367623,20.11188 -12.481313,39.69659 h -6.411935 c 0.03232,-14.37773 3.823425,-27.82615 11.083495,-39.64947 H 78.494828 v -6.64283 l 24.744882,-5.6e-4 z" />
  <path
     sodipodi:nodetypes="ccccccccccccccccccccccccccccccccccccccccccccccccscccccscsscccccccccccccccccccccccc"
     d="m 124.62561,452.27887 c -0.009,-4.1e-4 -0.0155,-1.9e-4 -0.028,9.6e-4 -4.73512,0.006 -8.98689,2.98132 -10.75415,7.51272 -0.0187,0.0155 -0.0317,0.0351 -0.0336,0.0556 l -0.36504,1.42094 c 0,7.7e-4 0,0.002 0,0.002 l -0.32823,1.42989 c 0,9e-4 0,0.002 0,0.002 l -0.29899,1.42964 c -3e-5,0.002 -3e-5,0.003 0,0.006 l -0.24863,1.45115 c 0,2.8e-4 0,4.6e-4 0,9.3e-4 l -0.22067,1.45099 c 0,7.7e-4 0,0.002 0,0.002 l -0.19425,1.46016 c 0,0.002 0,0.002 0,0.006 l -0.14328,1.45985 c 0,1.6e-4 0,4.4e-4 0,8.7e-4 l -0.11654,1.46013 c 0,9e-4 0,0.002 0,0.002 l -0.0799,1.4724 c 0,9.7e-4 0,0.002 0,0.002 l -0.037,1.46904 c 0,8.7e-4 0,0.002 0,0.002 v 1.47222 c 0,7.8e-4 0,0.002 0,0.002 l 0.0336,1.47231 c 0,9.4e-4 0,0.002 0,0.002 l 0.0696,1.46886 c 0,7.7e-4 0,0.002 0,0.002 l 0.10381,1.46006 c 0,7.2e-4 0,0.002 0,0.002 l 0.14359,1.47231 c 0,9.3e-4 0,0.002 0,0.002 l 0.18461,1.45102 c -6e-5,9e-4 -6e-5,0.002 0,0.002 l 0.21321,1.46016 c 0,9.3e-4 0,0.002 0,0.002 l 0.24739,1.43887 c -3e-5,7.8e-4 -3e-5,0.002 0,0.002 l 0.28997,1.4421 c 0.002,0.0124 0.006,0.0317 0.0124,0.0348 0.66144,6.04688 5.61185,10.62934 11.51205,10.64662 0.0124,0.002 0.028,0.006 0.0336,0.006 5.93082,0 10.90722,-4.61326 11.54914,-10.69808 0.002,-0.0124 0.002,-0.028 0,-0.0345 1.70705,-8.06556 1.70718,-16.42129 0,-24.4899 0.002,-0.0124 0.002,-0.0311 0,-0.0332 -0.64152,-6.07808 -5.61213,-10.68888 -11.53776,-10.69472 -0.002,-2.2e-4 -0.009,-2.2e-4 -0.0124,0 z m 0,6.71359 c 2.70503,0 4.9368,2.17204 5.09894,4.96337 -0.003,0.0186 -0.003,0.0336 0,0.0479 1.63259,7.40279 1.63259,15.09188 0,22.49473 -0.003,0.0186 -0.003,0.0339 0,0.0472 -0.16254,2.79093 -2.39342,4.96735 -5.09776,4.96788 v 0 c -1.99128,0 -3.80102,-1.19641 -4.63964,-3.0667 -0.006,-0.0124 -0.0124,-0.0217 -0.0218,-0.0317 l -0.32118,-1.3166 -0.2965,-1.36716 -0.25982,-1.37935 -0.23186,-1.38831 -0.19114,-1.39737 -0.14328,-1.39735 -0.11655,-1.40968 -0.0793,-1.39728 -0.0367,-1.40617 v -1.40956 l 0.0367,-1.40732 0.0793,-1.40646 0.11655,-1.40959 0.14328,-1.39722 0.19114,-1.38839 0.23186,-1.38833 0.25982,-1.38833 0.2965,-1.36711 0.32252,-1.32005 c 0.009,-0.009 0.0155,-0.0186 0.0217,-0.0317 0.83863,-1.87038 2.64759,-3.06107 4.63977,-3.06107 z"
     style="font-size:24.9647px;line-height:97.02%;font-family:BywayEMod;-inkscape-font-specification:BywayEMod;text-align:center;text-anchor:middle;opacity:1;fill:#000000;fill-opacity:0.996466;fill-rule:nonzero;stroke:none;stroke-width:0.205894"
     id="path200299-1" />
  <path
     d="m 265.08429,422.63495 a 52.640011,52.640011 0 0 0 -52.63981,52.63981 52.640011,52.640011 0 0 0 52.63981,52.63981 52.640011,52.640011 0 0 0 52.63978,-52.63981 52.640011,52.640011 0 0 0 -52.63978,-52.63981 z"
     style="opacity:1;fill:#ffffff;fill-opacity:1;stroke:none;stroke-width:7.0307;stroke-miterlimit:4;stroke-dasharray:none;stroke-opacity:1;paint-order:stroke fill markers"
     id="path281016" />
  <path
     d="m 264.46077,423.93664 a 51.338355,51.338355 0 0 0 -50.71464,51.33812 51.338355,51.338355 0 0 0 51.33816,51.33813 51.338355,51.338355 0 0 0 51.3381,-51.33813 51.338355,51.338355 0 0 0 -51.3381,-51.33812 51.338355,51.338355 0 0 0 -0.62352,0 z m 0.62352,12.78903 a 38.545501,38.545501 0 0 1 38.54453,38.54909 38.545501,38.545501 0 0 1 -38.54453,38.54453 38.545501,38.545501 0 0 1 -38.54459,-38.54453 38.545501,38.545501 0 0 1 38.54459,-38.54909 z"
     style="opacity:1;fill:#ef0311;fill-opacity:1;stroke:none;stroke-width:6.85684;stroke-miterlimit:4;stroke-dasharray:none;stroke-opacity:1;paint-order:stroke fill markers"
     id="path281018" />
  <path
     id="path281022"
     style="font-size:24.9647px;line-height:97.02%;font-family:BywayEMod;-inkscape-font-specification:BywayEMod;text-align:center;text-anchor:middle;opacity:1;fill:#000000;fill-opacity:0.996466;fill-rule:nonzero;stroke:none;stroke-width:0.205894"
     d="m 283.38867,452.27887 c -0.009,-4.1e-4 -0.0155,-1.9e-4 -0.028,9.6e-4 -4.73513,0.006 -8.9869,2.98132 -10.75415,7.51272 -0.0187,0.0155 -0.0317,0.0351 -0.0336,0.0556 l -0.36503,1.42094 c 0,7.7e-4 0,0.002 0,0.002 l -0.32823,1.42989 c 0,9e-4 0,0.002 0,0.002 l -0.29899,1.42964 c -3e-5,0.002 -3e-5,0.003 0,0.006 l -0.24864,1.45115 c 0,2.8e-4 0,4.6e-4 0,9.3e-4 l -0.22066,1.45099 c 0,7.7e-4 0,0.002 0,0.002 l -0.19425,1.46016 c 0,0.002 0,0.002 0,0.006 l -0.14328,1.45985 c 0,1.6e-4 0,4.4e-4 0,8.7e-4 l -0.11655,1.46013 c 0,9e-4 0,0.002 0,0.002 l -0.0799,1.4724 c 0,9.7e-4 0,0.002 0,0.002 l -0.037,1.46904 c 0,8.7e-4 0,0.002 0,0.002 v 1.47222 c 0,7.8e-4 0,0.002 0,0.002 l 0.0336,1.47231 c 0,9.4e-4 0,0.002 0,0.002 l 0.0696,1.46886 c 0,7.7e-4 0,0.002 0,0.002 l 0.1038,1.46006 c 0,7.2e-4 0,0.002 0,0.002 l 0.14359,1.47231 c 0,9.3e-4 0,0.002 0,0.002 l 0.18461,1.45102 c -6e-5,9e-4 -6e-5,0.002 0,0.002 l 0.21321,1.46016 c 0,9.3e-4 0,0.002 0,0.002 l 0.2474,1.43887 c -3e-5,7.8e-4 -3e-5,0.002 0,0.002 l 0.28997,1.4421 c 0.002,0.0124 0.006,0.0317 0.0124,0.0348 0.66144,6.04688 5.61185,10.62934 11.51206,10.64662 0.0124,0.002 0.028,0.006 0.0336,0.006 5.93082,0 10.90721,-4.61326 11.54913,-10.69808 0.002,-0.0124 0.002,-0.028 0,-0.0345 1.70706,-8.06556 1.70718,-16.42129 0,-24.4899 0.002,-0.0124 0.002,-0.0311 0,-0.0332 -0.64151,-6.07808 -5.61213,-10.68888 -11.53776,-10.69472 -0.002,-2.2e-4 -0.009,-2.2e-4 -0.0124,0 z m 0,6.71359 c 2.70502,0 4.9368,2.17204 5.09894,4.96337 -0.003,0.0186 -0.003,0.0336 0,0.0479 1.63259,7.40279 1.63259,15.09188 0,22.49473 -0.003,0.0186 -0.003,0.0339 0,0.0472 -0.16255,2.79093 -2.39342,4.96735 -5.09776,4.96788 v 0 c -1.99128,0 -3.80102,-1.19641 -4.63965,-3.0667 -0.006,-0.0124 -0.0124,-0.0217 -0.0217,-0.0317 l -0.32118,-1.3166 -0.2965,-1.36716 -0.25983,-1.37935 -0.23185,-1.38831 -0.19114,-1.39737 -0.14328,-1.39735 -0.11655,-1.40968 -0.0793,-1.39728 -0.0367,-1.40617 v -1.40956 l 0.0367,-1.40732 0.0793,-1.40646 0.11655,-1.40959 0.14328,-1.39722 0.19114,-1.38839 0.23185,-1.38833 0.25983,-1.38833 0.2965,-1.36711 0.32251,-1.32005 c 0.009,-0.009 0.0155,-0.0186 0.0218,-0.0317 0.83862,-1.87038 2.64759,-3.06107 4.63977,-3.06107 z"
     sodipodi:nodetypes="ccccccccccccccccccccccccccccccccccccccccccccccccscccccscsscccccccccccccccccccccccc" />
  <path
     id="path281024"
     style="opacity:1;fill:#ffffff;fill-opacity:1;stroke:none;stroke-width:7.0307;stroke-miterlimit:4;stroke-dasharray:none;stroke-opacity:1;paint-order:stroke fill markers"
     d="m 423.59094,422.63495 a 52.640011,52.640011 0 0 0 -52.63981,52.63981 52.640011,52.640011 0 0 0 52.63981,52.63981 52.640011,52.640011 0 0 0 52.63978,-52.63981 52.640011,52.640011 0 0 0 -52.63978,-52.63981 z" />
  <path
     id="path281026"
     style="opacity:1;fill:#ef0311;fill-opacity:1;stroke:none;stroke-width:6.85684;stroke-miterlimit:4;stroke-dasharray:none;stroke-opacity:1;paint-order:stroke fill markers"
     d="m 422.96742,423.93664 a 51.338355,51.338355 0 0 0 -50.71464,51.33812 51.338355,51.338355 0 0 0 51.33816,51.33813 51.338355,51.338355 0 0 0 51.33809,-51.33813 51.338355,51.338355 0 0 0 -51.33809,-51.33812 51.338355,51.338355 0 0 0 -0.62352,0 z m 0.62352,12.78903 a 38.545501,38.545501 0 0 1 38.54453,38.54909 38.545501,38.545501 0 0 1 -38.54453,38.54453 38.545501,38.545501 0 0 1 -38.54459,-38.54453 38.545501,38.545501 0 0 1 38.54459,-38.54909 z" />
  <path
     sodipodi:nodetypes="ccccccccccccccccccccccccccccccccccccccccccccccccscccccscsscccccccccccccccccccccccc"
     d="m 441.89532,452.27887 c -0.009,-4.1e-4 -0.0155,-1.9e-4 -0.028,9.6e-4 -4.73512,0.006 -8.98689,2.98132 -10.75414,7.51272 -0.0186,0.0155 -0.0317,0.0351 -0.0336,0.0556 l -0.36503,1.42094 c 0,7.7e-4 0,0.002 0,0.002 l -0.32823,1.42989 c 0,9e-4 0,0.002 0,0.002 l -0.29899,1.42964 c -3e-5,0.002 -3e-5,0.003 0,0.006 l -0.24864,1.45115 c 0,2.8e-4 0,4.6e-4 0,9.3e-4 l -0.22066,1.45099 c 0,7.7e-4 0,0.002 0,0.002 l -0.19425,1.46016 c 0,0.002 0,0.002 0,0.006 l -0.14328,1.45985 c 0,1.6e-4 0,4.4e-4 0,8.7e-4 l -0.11655,1.46013 c 0,9e-4 0,0.002 0,0.002 l -0.0799,1.4724 c 0,9.7e-4 0,0.002 0,0.002 l -0.037,1.46904 c 0,8.7e-4 0,0.002 0,0.002 v 1.47222 c 0,7.8e-4 0,0.002 0,0.002 l 0.0336,1.47231 c 0,9.4e-4 0,0.002 0,0.002 l 0.0696,1.46886 c 0,7.7e-4 0,0.002 0,0.002 l 0.1038,1.46006 c 0,7.2e-4 0,0.002 0,0.002 l 0.14359,1.47231 c 0,9.3e-4 0,0.002 0,0.002 l 0.18461,1.45102 c -6e-5,9e-4 -6e-5,0.002 0,0.002 l 0.21321,1.46016 c 0,9.3e-4 0,0.002 0,0.002 l 0.2474,1.43887 c -4e-5,7.8e-4 -4e-5,0.002 0,0.002 l 0.28997,1.4421 c 0.002,0.0124 0.006,0.0317 0.0124,0.0348 0.66144,6.04688 5.61185,10.62934 11.51206,10.64662 0.0124,0.002 0.028,0.006 0.0336,0.006 5.93082,0 10.90721,-4.61326 11.54913,-10.69808 0.002,-0.0124 0.002,-0.028 0,-0.0345 1.70706,-8.06556 1.70718,-16.42129 0,-24.4899 0.002,-0.0124 0.002,-0.0311 0,-0.0332 -0.64152,-6.07808 -5.61213,-10.68888 -11.53776,-10.69472 -0.002,-2.2e-4 -0.009,-2.2e-4 -0.0124,0 z m 0,6.71359 c 2.70502,0 4.93679,2.17204 5.09894,4.96337 -0.003,0.0186 -0.003,0.0336 0,0.0479 1.63259,7.40279 1.63259,15.09188 0,22.49473 -0.003,0.0186 -0.003,0.0339 0,0.0472 -0.16255,2.79093 -2.39342,4.96735 -5.09776,4.96788 v 0 c -1.99128,0 -3.80102,-1.19641 -4.63965,-3.0667 -0.006,-0.0124 -0.0124,-0.0217 -0.0217,-0.0317 l -0.32118,-1.3166 -0.2965,-1.36716 -0.25983,-1.37935 -0.23185,-1.38831 -0.19114,-1.39737 -0.14328,-1.39735 -0.11655,-1.40968 -0.0793,-1.39728 -0.0367,-1.40617 v -1.40956 l 0.0367,-1.40732 0.0793,-1.40646 0.11655,-1.40959 0.14328,-1.39722 0.19114,-1.38839 0.23185,-1.38833 0.25983,-1.38833 0.2965,-1.36711 0.32251,-1.32005 c 0.009,-0.009 0.0155,-0.0186 0.0218,-0.0317 0.83862,-1.87038 2.64759,-3.06107 4.63977,-3.06107 z"
     style="font-size:24.9647px;line-height:97.02%;font-family:BywayEMod;-inkscape-font-specification:BywayEMod;text-align:center;text-anchor:middle;opacity:1;fill:#000000;fill-opacity:0.996466;fill-rule:nonzero;stroke:none;stroke-width:0.205894"
     id="path281030" />
  <path
     sodipodi:nodetypes="scscccsaccccccccccscssss"
     id="path208684"
     style="font-style:normal;font-variant:normal;font-weight:normal;font-stretch:normal;font-size:30px;line-height:1.15;font-family:'Highway Gothic';-inkscape-font-specification:'Highway Gothic';text-align:center;text-anchor:middle;opacity:1;fill:#000000;fill-opacity:0.996466;stroke-width:0.153499"
     d="m 262.86262,480.71779 c -0.0218,4.42252 -1.09314,8.92399 -4.17236,12.59267 -3.04181,3.66868 -7.39431,5.20769 -12.16353,5.20769 -3.34225,0 -6.97513,-2.28443 -9.1734,-4.19651 l 4.57606,-4.6996 c 1.76499,1.08708 3.51101,2.29704 5.65154,2.29704 1.92722,0.0634 3.8749,-0.75446 5.41748,-2.17051 0.68136,-0.62517 1.3151,-1.40329 1.70804,-2.26304 0.97482,-2.1331 1.47138,-4.34461 1.47138,-6.881 0.0426,-2.17415 0.24367,-4.03101 -1.03315,-5.52566 -1.23921,-1.49475 -2.85725,-2.70705 -4.77251,-2.70705 -2.44091,-0.0426 -4.91989,1.31384 -5.85014,4.63502 l -6.13728,-0.71953 1.00449,-24.10442 h 21.6062 v 6.56498 h -15.35221 l -0.31359,8.02876 c 0,0 0.89003,-0.3857 2.05468,-0.6527 1.04052,-0.23839 2.30835,-0.36134 3.21218,-0.36134 1.96974,0.0528 3.69976,0.59972 5.27896,1.40453 1.28095,0.65273 2.67929,1.48017 3.53218,2.69069 0.80213,1.13898 1.71299,2.3303 2.25337,3.64886 0.93246,2.27544 1.21559,4.80632 1.20117,7.21165 z" />
  <path
     d="m 421.36926,480.71779 c -0.0217,4.42252 -1.09313,8.92399 -4.17236,12.59267 -3.0418,3.66868 -7.3943,5.20769 -12.16352,5.20769 -3.34225,0 -6.97513,-2.28443 -9.1734,-4.19651 l 4.57606,-4.6996 c 1.76498,1.08708 3.51101,2.29704 5.65154,2.29704 1.92722,0.0634 3.87489,-0.75446 5.41747,-2.17051 0.68137,-0.62517 1.31511,-1.40329 1.70805,-2.26304 0.97482,-2.1331 1.47138,-4.34461 1.47138,-6.881 0.0426,-2.17415 0.24367,-4.03101 -1.03315,-5.52566 -1.23921,-1.49475 -2.85726,-2.70705 -4.77251,-2.70705 -2.44091,-0.0426 -4.91989,1.31384 -5.85014,4.63502 l -6.13729,-0.71953 1.0045,-24.10442 h 21.6062 v 6.56498 h -15.35221 l -0.31359,8.02876 c 0,0 0.89003,-0.3857 2.05468,-0.6527 1.04051,-0.23839 2.30835,-0.36134 3.21218,-0.36134 1.96974,0.0528 3.69976,0.59972 5.27896,1.40453 1.28095,0.65273 2.67929,1.48017 3.53218,2.69069 0.80213,1.13898 1.71299,2.3303 2.25337,3.64886 0.93245,2.27544 1.21559,4.80632 1.20117,7.21165 z"
     style="font-style:normal;font-variant:normal;font-weight:normal;font-stretch:normal;font-size:30px;line-height:1.15;font-family:'Highway Gothic';-inkscape-font-specification:'Highway Gothic';text-align:center;text-anchor:middle;opacity:1;fill:#000000;fill-opacity:0.996466;stroke-width:0.153499"
     id="path281047"
     sodipodi:nodetypes="scscccsaccccccccccscssss" />
  <path
     id="path226843"
     d="m 383.92209,255.01843 v 93.99189"
     style="fill:none;stroke:#2e4fa8;stroke-width:0.372957;stroke-linecap:round;stroke-linejoin:round;stroke-miterlimit:10;stroke-opacity:1" />
  <g
     transform="matrix(3.1079735,0,0,3.1079735,-660.04135,-470.96048)"
     id="g280990">
    <path
       id="path61228-2-0-4"
       style="font-size:24.9647px;line-height:97.02%;font-family:BywayEMod;-inkscape-font-specification:BywayEMod;text-align:center;text-anchor:middle;opacity:1;fill:#ffffff;fill-opacity:1;fill-rule:evenodd;stroke:none;stroke-width:0.357057;stroke-linecap:round;stroke-linejoin:round;stroke-miterlimit:10;stroke-dasharray:none;stroke-opacity:0.87451"
       d="m 341.0386,349.84874 v 11.5182 h 24.70409 v -11.5182 z m -7.1613,3.88852 -2.07433,5.23825 v 5.88356 h 1.25315 c 0,0 -0.0145,-0.38131 0.12405,-0.86835 0.11542,-0.40973 0.347,-0.89024 0.69923,-1.31694 0.29366,-0.35622 0.74027,-0.64865 1.20112,-0.85389 0.47498,-0.21171 0.86341,-0.31545 1.31551,-0.33334 0.32986,-0.0138 0.66886,0.047 0.97654,0.16626 0.61852,0.24096 1.26175,0.55932 1.67127,1.08222 0.32608,0.41649 0.54087,0.90663 0.64616,1.32134 0.11332,0.44632 0.10414,0.8027 0.10414,0.8027 h 15.16933 c 0,0 0.0125,-0.17923 0.048,-0.44657 0.0381,-0.26883 0.12016,-0.58631 0.20253,-0.78611 0.0875,-0.21333 0.25069,-0.51595 0.42588,-0.75508 0.11329,-0.15454 0.22918,-0.28427 0.30875,-0.36818 0.0611,-0.0649 0.10118,-0.10228 0.10119,-0.10228 h -16.03111 v -8.66359 z m 0.31559,1.43201 h 4.77935 v 3.33469 h -6.09865 z m 2.23545,7.14296 c -1.40048,0 -2.54719,1.14905 -2.54719,2.54354 0,1.39457 1.14671,2.54447 2.54719,2.54447 1.40052,-10e-6 2.54778,-1.1499 2.54778,-2.54447 0,-1.39449 -1.14726,-2.54354 -2.54778,-2.54354 z m 21.9014,0 c -1.40076,0 -2.54732,1.14905 -2.54732,2.54354 0,1.39457 1.14656,2.54447 2.54732,2.54447 1.40042,-10e-6 2.54793,-1.1499 2.54793,-2.54447 0,-1.39449 -1.14751,-2.54354 -2.54793,-2.54354 z m 2.30037,0.0884 c 0,0 0.20929,0.19705 0.40998,0.4708 0.17533,0.2391 0.33799,0.54195 0.42568,0.75514 0.0822,0.20001 0.16542,0.51639 0.2035,0.78516 0.0385,0.26762 0.0322,0.48775 0.0322,0.48775 l 4.04274,-1.3153 v -1.18355 z m -24.20177,1.32309 c 0.62939,0 1.12815,0.49628 1.12815,1.13189 0,0.6359 -0.49876,1.13273 -1.12815,1.13273 -0.62931,0 -1.1278,-0.49683 -1.1278,-1.13273 0,-0.63561 0.49849,-1.13189 1.1278,-1.13189 z m 21.9014,0 c 0.62922,0 1.12816,0.49628 1.12816,1.13189 0,0.6359 -0.49894,1.13273 -1.12816,1.13273 -0.62932,0 -1.12778,-0.49683 -1.12778,-1.13273 0,-0.63561 0.49846,-1.13189 1.12778,-1.13189 z" />
    <g
       id="g280982">
      <path
         d="m 294.23054,328.85451 c -0.26109,0 -0.84281,0.17004 -1.21279,0.45156 -0.25087,0.1909 -0.48776,0.43783 -0.74061,0.70821 -1.14304,1.22232 -4.16351,4.39869 -4.16351,4.39869 0,0 -0.30238,0.33643 -0.5085,0.4012 -0.34227,0.10753 -1.00155,0.23344 -1.34854,0.30616 -1.16274,0.24361 -1.86792,0.38496 -3.48594,0.71742 -0.27048,0.0556 -0.67752,0.11177 -0.93991,0.31227 -0.2255,0.17232 -0.30701,0.3158 -0.47127,0.70911 -0.23649,0.56628 -0.5996,1.34371 -0.5996,1.34371 v 0.29039 2.30644 c 1e-5,0.33544 0.26986,0.60529 0.6053,0.60529 h 0.95831 v -0.0228 c 0,-1.97524 1.59039,-3.5652 3.56564,-3.5652 1.97523,0 3.5652,1.58996 3.5652,3.5652 v 0.0228 h 15.9028 v -0.0228 c 0,-1.97524 1.58995,-3.5652 3.56519,-3.5652 1.97524,0 3.56564,1.58996 3.56564,3.5652 v 0.0228 h 1.61178 c 0.33543,0 0.60572,-0.26985 0.60572,-0.60529 v -2.7939 -0.5418 -7.44969 c 0,-0.64236 -0.5174,-1.15977 -1.15977,-1.15977 z m -0.0228,1.1059 h 0.56721 0.23695 2.61169 c 0.30962,0 0.55886,0.24926 0.55886,0.55886 v 4.9002 c 0,0.3096 -0.24924,0.55886 -0.55886,0.55886 h -2.61169 -2.92794 -1.38316 c -1.14058,0 -1.46331,-1.26479 -0.83391,-1.93152 l 2.83156,-2.99976 c 0.4462,-0.47266 0.85928,-1.08664 1.50929,-1.08664 z m 5.56417,3.1e-4 h 5.53963 c 0.3096,0 0.55887,0.24925 0.55887,0.55886 v 4.89974 c 0,0.30962 -0.24927,0.55886 -0.55887,0.55886 h -5.53962 c -0.30963,0 -0.55888,-0.24924 -0.55888,-0.55886 v -4.89974 c 0,-0.30961 0.24925,-0.55886 0.55888,-0.55886 z m 7.61394,0 h 5.53961 c 0.30962,0 0.55888,0.24925 0.55888,0.55886 v 4.89974 c 0,0.30962 -0.24926,0.55886 -0.55888,0.55886 h -5.53961 c -0.30962,0 -0.55889,-0.24924 -0.55889,-0.55886 v -4.89974 c 0,-0.30961 0.24927,-0.55886 0.55889,-0.55886 z m -21.53576,8.66859 a 2.7630426,2.7630426 0 0 0 -2.72514,2.76282 2.7630426,2.7630426 0 0 0 2.7628,2.76324 2.7630426,2.7630426 0 0 0 2.76325,-2.76324 2.7630426,2.7630426 0 0 0 -2.76325,-2.76282 2.7630426,2.7630426 0 0 0 -0.0378,0 z m 23.03362,0 a 2.7630426,2.7630426 0 0 0 -2.72514,2.76282 2.7630426,2.7630426 0 0 0 2.76281,2.76324 2.7630426,2.7630426 0 0 0 2.76326,-2.76324 2.7630426,2.7630426 0 0 0 -2.76326,-2.76282 2.7630426,2.7630426 0 0 0 -0.0378,0 z m -22.99596,1.89035 a 0.8726205,0.8726205 0 0 1 0.87291,0.87247 0.8726205,0.8726205 0 0 1 -0.87291,0.8729 0.8726205,0.8726205 0 0 1 -0.87246,-0.8729 0.8726205,0.8726205 0 0 1 0.87246,-0.87247 z m 23.03363,0 a 0.8726205,0.8726205 0 0 1 0.8729,0.87247 0.8726205,0.8726205 0 0 1 -0.8729,0.8729 0.8726205,0.8726205 0 0 1 -0.87246,-0.8729 0.8726205,0.8726205 0 0 1 0.87246,-0.87247 z"
         style="opacity:1;fill:#ffffff;stroke-width:1.21952;paint-order:stroke fill markers"
         id="rect82571-2-5-8" />
      <path
         d="m 242.88157,339.57046 -5.49044,4.34872 -6.77511,0.48157 -0.83482,2.50522 1.39703,2.76838 2.80924,0.4368 c 0,0 0.0282,-1.0911 0.65019,-1.88463 0.30696,-0.39157 0.73466,-0.71647 1.2119,-0.91258 0.39461,-0.16214 0.83786,-0.23005 1.14302,-0.23121 0.32598,-5.6e-4 0.76993,0.0498 1.18204,0.22885 0.48935,0.21249 0.94508,0.58596 1.26007,0.99535 0.57843,0.7517 0.58946,1.78484 0.58946,1.78484 h 12.87567 c 0,0 0.039,-1.08107 0.6489,-1.86576 0.267,-0.3435 0.66022,-0.66668 1.07049,-0.86021 0.4362,-0.20576 0.89172,-0.27122 1.23493,-0.27444 0.32827,-0.004 0.79827,0.0257 1.22525,0.21342 0.4879,0.2145 0.93111,0.61342 1.24253,1.00766 0.60338,0.76378 0.59861,1.77933 0.59861,1.77933 l 3.80484,-0.28884 0.75443,-2.99332 -0.43313,-2.89043 h -5.50718 l -4.39848,-4.34872 z m 0.16079,0.93799 h 3.46807 v 3.41073 h -7.65837 z m 4.30287,0 h 3.41965 l 2.29574,3.41073 h -5.71539 z m -10.32829,7.04588 c -1.39678,0 -2.54032,1.14585 -2.54032,2.53664 0,1.3908 1.14354,2.53744 2.54032,2.53744 1.39677,0 2.5411,-1.14664 2.5411,-2.53744 0,-1.39079 -1.14433,-2.53664 -2.5411,-2.53664 z m 18.88643,0 c -1.39678,0 -2.5403,1.14585 -2.5403,2.53664 0,1.3908 1.14352,2.53744 2.5403,2.53744 1.39679,0 2.5411,-1.14664 2.5411,-2.53744 0,-1.39079 -1.14431,-2.53664 -2.5411,-2.53664 z m -18.88643,1.40777 c 0.62757,0 1.12521,0.49486 1.12521,1.12887 0,0.63402 -0.49764,1.12968 -1.12521,1.12968 -0.62758,0 -1.12445,-0.49566 -1.12445,-1.12968 0,-0.63401 0.49687,-1.12887 1.12445,-1.12887 z m 18.88643,0 c 0.62757,0 1.12522,0.49486 1.12522,1.12887 0,0.63402 -0.49765,1.12968 -1.12522,1.12968 -0.62756,0 -1.12468,-0.49566 -1.12468,-1.12968 0,-0.63401 0.49712,-1.12887 1.12468,-1.12887 z"
         style="opacity:1;fill:#ffffff;fill-opacity:1;fill-rule:evenodd;stroke:none;stroke-width:1.36817;stroke-linecap:round;stroke-linejoin:round;stroke-miterlimit:10"
         id="rect71629-1-8-7" />
      <path
         style="opacity:1;fill:#ffffff;stroke-width:0.165211"
         id="path86261-4-9-0"
         d="m 312.93691,356.37296 a 0.23625201,0.23625201 0 0 0 -0.0339,0.002 h -27.29436 -0.20804 v 4.79112 h 28.88552 c -0.0305,-0.43946 0.0448,-0.88388 -0.0991,-1.32171 -0.34856,-1.08375 -0.67922,-2.17765 -1.00966,-3.26967 a 0.23625201,0.23625201 0 0 0 -0.24117,-0.20296 z m -30.88967,0.0202 c -0.0843,1.59758 -0.16677,3.18196 -0.2493,4.77624 h 2.98383 v -4.77624 z m 30.38241,0.89058 a 0.22633934,0.22633934 0 0 1 0.22799,0.19181 c 0.27433,0.89707 0.55183,1.79083 0.82604,2.68628 0.0169,0.0559 0.0272,0.1123 0.0448,0.17994 h -5.73784 l -0.008,-3.05478 h 0.19312 4.41745 a 0.22633934,0.22633934 0 0 1 0.0348,-0.002 z m -10.75193,0.0136 v 3.04317 h -4.76146 v -3.03835 z m -19.20741,0.002 h 1.79247 v 3.04155 h -1.92965 v -0.002 c 0.0464,-1.02269 0.0909,-2.02892 0.13701,-3.03834 z m 19.87663,0 h 4.78274 v 3.03996 h -4.78274 z m -16.30816,0.002 h 4.78628 l -0.002,3.03351 h -4.78345 z m 5.43552,0 h 4.78111 l -0.002,3.03351 h -4.77791 z m -9.80685,4.41942 c -0.0693,0.65093 -0.13564,1.2887 -0.2033,1.92476 -0.0674,0.63883 -0.13395,1.27705 -0.19991,1.91479 h 3.08805 a 2.74581,2.74581 0 0 1 2.44331,-3.03478 2.643379,2.643379 0 0 1 1.94802,0.5634 c 0.793,0.62447 1.12344,1.47036 1.04578,2.47815 h 13.57185 c -0.1502,-1.69012 1.08227,-3.03492 2.70629,-3.05639 a 2.6020763,2.6020763 0 0 1 1.84218,0.70858 2.7144198,2.7144198 0 0 1 0.89026,2.2865 l 5.46523,-0.3966 v -3.38841 z m 5.39745,1.3846 a 2.1312243,2.1312243 0 0 0 -0.008,4.26225 2.1229637,2.1229637 0 0 0 2.13808,-2.08643 2.1312243,2.1312243 0 0 0 -2.1329,-2.17582 z m 19.018,0 a 2.1312243,2.1312243 0 0 0 -0.002,4.26225 2.1163552,2.1163552 0 0 0 2.13775,-2.11611 2.1312243,2.1312243 0 0 0 -2.13386,-2.14614 z m -19.01317,1.33974 a 0.80788266,0.80788266 0 0 1 0.79801,0.79476 0.82605587,0.82605587 0 0 1 -0.7996,0.7996 0.80457848,0.80457848 0 0 1 -0.79315,-0.7996 0.79301365,0.79301365 0 0 1 0.79474,-0.79476 z m 19.00771,0 a 0.8012743,0.8012743 0 0 1 0.79117,0.79797 0.81449111,0.81449111 0 0 1 -0.79958,0.79639 0.79962217,0.79962217 0 0 1 -0.78477,-0.80477 0.78805734,0.78805734 0 0 1 0.79318,-0.78959 z" />
    </g>
    <path
       id="rect148209-0-6"
       style="opacity:1;fill:#ffffff;stroke:none;stroke-width:1.02248;paint-order:stroke fill markers"
       d="m 338.76427,327.09242 c -0.85608,0 -1.42344,0.76504 -1.74766,1.54536 l -2.11784,3.93436 -2.29772,0.8117 c -0.14441,0.051 -0.32136,0.094 -0.45041,0.17521 -0.24794,0.15606 -0.40345,0.39641 -0.40345,0.7077 v 6.16327 c 0,0.47316 0.38062,0.85387 0.85386,0.85387 h 0.77658 c -3e-5,-0.006 -5.6e-4,-0.0118 -5.6e-4,-0.0178 0,-2.02044 1.65496,-3.67586 3.67536,-3.67586 2.02046,0 3.67627,1.65542 3.67627,3.67586 0,0.006 -5.6e-4,0.0118 -5.6e-4,0.0178 h 2.49799 11.06483 1.58824 c -2e-5,-0.006 -5.6e-4,-0.0118 -5.6e-4,-0.0178 0,-2.02044 1.65546,-3.67586 3.67584,-3.67586 2.02038,0 3.67579,1.65542 3.67579,3.67586 0,0.006 -5.6e-4,0.0118 -5.6e-4,0.0178 h 1.66652 c 0.47851,0 0.86394,-0.38498 0.86394,-0.86351 v -5.4797 -0.86403 h -0.86394 -10.60471 -9.03882 v -0.35428 -4.09239 -2.53756 h -2.59413 -3.32725 z m 0.85741,1.07338 h 0.2977 3.19728 0.43544 v 0.4355 4.25089 0.43557 h -0.43544 -3.19728 -3.3997 c -0.1069,0 -0.20018,-0.0386 -0.26868,-0.10361 -0.13355,-0.12706 -0.16348,-0.33212 -0.0878,-0.47236 l 1.99093,-3.69255 c 0.36029,-0.66821 1.05423,-0.85344 1.46757,-0.85344 z m -2.5691,10.24165 c -1.57847,0 -2.85795,1.27994 -2.85794,2.85846 0,1.57847 1.27947,2.85796 2.85794,2.85796 1.57853,0 2.85797,-1.27949 2.85797,-2.85796 0,-1.57852 -1.27944,-2.85846 -2.85797,-2.85846 z m 22.50102,0 c -1.57848,0 -2.85796,1.27994 -2.85796,2.85846 0,1.57847 1.27948,2.85796 2.85796,2.85796 1.57849,0 2.85794,-1.27949 2.85794,-2.85796 0,-1.57852 -1.27945,-2.85846 -2.85794,-2.85846 z m -22.50102,1.45054 a 1.4076,1.4076037 0 0 1 1.40749,1.40792 1.4076,1.4076037 0 0 1 -1.40749,1.40744 1.4076,1.4076037 0 0 1 -1.40745,-1.40744 1.4076,1.4076037 0 0 1 1.40745,-1.40792 z m 22.50102,0 a 1.4076,1.4076037 0 0 1 1.40746,1.40792 1.4076,1.4076037 0 0 1 -1.40746,1.40744 1.4076,1.4076037 0 0 1 -1.4075,-1.40744 1.4076,1.4076037 0 0 1 1.4075,-1.40792 z" />
  </g>
  <path
     d="m 43.014141,215.38496 c -9.141763,0 -16.617061,7.4763 -16.617061,16.61719 v 138.44141 c 0,9.14149 7.475298,16.62042 16.617061,16.62042 H 487.65982 c 9.14186,0 16.62225,-7.47893 16.62225,-16.62042 V 232.00215 c 0,-9.14089 -7.48039,-16.61719 -16.62225,-16.61719 z m -0.0062,3.83415 H 487.6634 c 7.0812,0 12.78315,5.70068 12.78315,12.78304 v 138.44141 c 0,7.08239 -5.70195,12.78363 -12.78315,12.78363 H 43.008702 c -7.079902,0 -12.782878,-5.70124 -12.782878,-12.78363 V 232.00215 c 0,-7.08236 5.702976,-12.78304 12.782878,-12.78304 z m 354.912469,21.49947 c -7.57584,0 -13.67844,6.0994 -13.67844,13.67658 v 93.64125 c 0,7.57485 6.1026,13.67247 13.67844,13.67247 h 67.31607 c 7.57528,0 13.67284,-6.09762 13.67284,-13.67247 v -93.64125 c 3e-5,-7.57718 -6.09756,-13.67658 -13.67284,-13.67658 z m 12.85806,8.19989 a 15.491192,15.491192 0 0 1 0.006,0 15.491192,15.491192 0 0 1 0.10878,0 15.491192,15.491192 0 0 1 15.49269,15.4907 15.491192,15.491192 0 0 1 -15.49269,15.48865 15.491192,15.491192 0 0 1 -15.49331,-15.48865 15.491192,15.491192 0 0 1 15.38869,-15.4907 z m 0.0342,8.12502 a 7.3674959,7.3674962 0 0 0 -7.28428,7.36568 7.3674959,7.3674962 0 0 0 7.36708,7.36944 7.3674959,7.3674962 0 0 0 7.36602,-7.36944 7.3674959,7.3674962 0 0 0 -7.36602,-7.36568 7.3674959,7.3674962 0 0 0 -0.0942,0 z m -38.81965,3.40945 v 69.05268 h 5.67202 v -69.05268 z m -11.91395,5.0159 v 63.76477 h 5.57509 v -63.76477 z m -120.37321,7.3686 c -2.66527,0.028 -5.0562,0.35356 -7.42445,1.16738 -3.2497,1.11288 -6.70862,2.4462 -9.01757,4.98936 -2.32193,2.55656 -3.95129,6.05517 -4.12129,9.50312 -0.17467,3.36252 1.10628,6.89352 3.08615,9.61524 1.6241,2.23494 4.17942,3.76583 6.72388,4.84414 2.0936,0.88721 4.4642,0.87319 6.71332,1.19984 3.93233,0.57578 10.62221,1.42678 12.94297,2.29921 0.68397,0.26729 1.38575,0.78256 1.7851,1.27247 0.83287,1.01873 1.33388,2.44784 1.19523,3.75552 -0.17312,1.56903 -1.02252,3.25281 -2.34832,4.11151 -2.51289,1.62973 -5.89101,2.36081 -9.09291,2.45875 -5.00654,0.15944 -10.89028,-2.60666 -13.74464,-6.4331 l -7.2482,6.02474 c 6.82738,6.75838 12.0986,9.78518 20.86085,9.78518 6.56776,0 12.07715,-1.75626 15.70866,-4.90796 3.68776,-3.15177 5.10926,-6.86266 5.1987,-10.88008 0.10412,-4.14132 -1.43336,-8.33764 -4.85353,-11.43589 -3.36401,-3.15108 -10.40494,-3.52814 -17.88064,-4.91619 -3.09821,-0.5865 -5.55261,-0.80546 -7.20969,-1.7684 -1.65372,-0.96068 -2.40001,-2.53695 -2.47575,-4.14368 -0.088,-1.60788 0.84593,-3.3117 2.0627,-4.36412 2.37129,-2.04859 5.86095,-2.81356 8.99435,-2.74431 4.32341,0.10816 8.26109,0.93379 12.22854,4.32779 l 6.11183,-7.13644 c -5.09325,-4.52757 -11.78864,-6.66961 -18.19588,-6.62408 z m 108.73709,1.56996 v 11.91756 H 327.5991 v 37.49639 h 20.84385 v 11.72816 1.38407 6.06198 h 29.22203 v -7.44605 H 353.74164 V 274.4074 Z m -213.97991,0.57793 -37.692353,0.0737 v 52.38306 l 37.692353,-0.05 v -9.38549 l -28.15227,0.0503 -0.14608,-12.57934 17.83623,0.0398 v -9.53647 l -17.83623,-0.0389 0.14608,-11.49786 28.15227,-0.0799 z m 21.56427,0 v 52.39515 l 13.166,0.0541 c 0,0 9.28041,-0.003 10.31111,-0.19954 0.57304,-0.11903 1.07138,-0.20077 1.10016,-0.19549 0.0444,0.006 0.12742,-0.0217 0.19455,-0.0488 0.088,-0.0426 0.52988,-0.17405 1.01059,-0.30054 1.37137,-0.37955 2.62161,-0.84854 3.71733,-1.40021 2.281,-1.14721 3.54467,-2.04946 5.38863,-3.83943 1.8802,-1.82488 3.09809,-3.50095 4.19048,-5.76794 2.36663,-4.90721 3.37691,-12.90396 2.48004,-19.64481 -0.80173,-6.04731 -2.16476,-9.64401 -5.06233,-13.36106 -0.52382,-0.67452 -2.60582,-2.67848 -3.56258,-3.43701 -1.39806,-1.10489 -4.34615,-2.65073 -5.93535,-3.10714 -0.24647,-0.0817 -0.78735,-0.23838 -1.21622,-0.36335 -0.42883,-0.13426 -1.17201,-0.29992 -1.65064,-0.37438 -0.4795,-0.0892 -1.09799,-0.18151 -1.37596,-0.2533 -0.37159,-0.0923 -3.47503,-0.12339 -11.63051,-0.14421 z m 9.36122,9.44901 6.25781,0.0441 c 6.84432,0.0444 6.59627,0.0124 8.33201,0.59623 0.81507,0.28283 2.39249,1.04462 2.84283,1.38653 1.2284,0.92667 1.98646,1.66491 2.69085,2.6175 1.35222,1.82342 2.00151,3.60146 2.58087,7.07568 0.53792,3.20625 0.49022,8.20837 -0.11065,10.78355 -0.0908,0.32932 -0.20264,0.9143 -0.28313,1.30936 -0.6023,3.13846 -2.1552,5.71419 -4.53311,7.50202 -0.32655,0.25486 -1.10899,0.7162 -1.7404,1.0408 -1.09994,0.56674 -1.41049,0.67679 -2.93356,1.03278 -0.6123,0.14763 -1.38385,0.17405 -6.90986,0.20078 l -6.21178,0.0441 z m 275.72315,14.53823 a 24.992351,24.992351 0 0 1 0.14608,0 24.992351,24.992351 0 0 1 24.99457,24.98991 24.992351,24.992351 0 0 1 -24.99457,24.9915 24.992351,24.992351 0 0 1 -24.98988,-24.9915 24.992351,24.992351 0 0 1 24.84887,-24.98991 z m -0.24242,7.88941 a 17.102926,17.102926 0 0 0 -16.75996,17.1005 17.102926,17.102926 0 0 0 17.09941,17.10082 17.102926,17.102926 0 0 0 17.10554,-17.10082 17.102926,17.102926 0 0 0 -17.10554,-17.1005 17.102926,17.102926 0 0 0 -0.33945,0 z"
     style="opacity:1;fill:#ffffff;stroke:none;stroke-width:7.76092;stroke-miterlimit:4;stroke-dasharray:none;stroke-opacity:1;paint-order:stroke fill markers"
     id="rect65725" />
  <path
     d="m 152.92781,57.491946 c 0,5.61807 -1.5643,9.18201 -4.24695,12.65312 -2.64725,3.43521 -6.19459,5.15296 -10.64189,5.15296 -4.87097,0 -8.68305,-1.98612 -11.43622,-5.95799 -2.40007,-3.43542 -3.77874,-6.69519 -3.77874,-11.74074 0,-5.72535 1.60894,-9.87776 4.29143,-13.16985 2.68249,-3.32799 6.35338,-4.9919 11.01264,-4.9919 4.3768,0 7.90653,1.69966 10.58902,5.09922 2.7178,3.36354 4.21071,7.4444 4.21071,12.95518 z m -6.43437,0.10692 c 0,-3.79297 -1.15319,-6.64025 -2.63547,-8.7873 -1.44735,-2.14699 -3.64553,-2.95702 -5.82478,-2.96874 -2.28946,-0.0186 -4.63473,0.90601 -6.15242,3.053 -1.51775,2.14695 -2.55258,4.91007 -2.55258,8.70304 0,3.82899 0.85656,6.0418 2.37434,8.22475 1.51775,2.14702 4.05727,2.99848 6.42555,3.03276 2.50462,0.0357 5.15905,-1.50463 6.57088,-4.18861 1.12946,-2.11106 1.79448,-3.70511 1.79448,-7.0689 z"
     style="font-style:normal;font-variant:normal;font-weight:normal;font-stretch:normal;font-size:122.83px;line-height:1.15;font-family:'Highway Gothic Wide';-inkscape-font-specification:'Highway Gothic Wide';text-align:center;letter-spacing:3.26px;text-anchor:middle;fill:#ffffff;fill-opacity:1;stroke:none;stroke-width:0.393491;stroke-opacity:1"
     id="path82564-1-2"
     sodipodi:nodetypes="scscscscsscasscscs" />
  <path
     sodipodi:nodetypes="ccsssccccccsssc"
     id="path108350-6"
     style="font-size:30px;line-height:1.15;font-family:'Highway Gothic Wide';-inkscape-font-specification:'Highway Gothic Wide';fill:#ffffff;fill-opacity:1;stroke:none;stroke-width:0.147485;stroke-opacity:1"
     d="m 189.85309,51.850546 -3.58884,4.52294 c 0,0 -0.86902,-0.75975 -2.09686,-1.07455 -1.19865,-0.30707 -2.74602,-0.17374 -3.63275,0.17995 -0.87151,0.34849 -2.16104,1.3428 -2.83019,2.3798 -0.76664,1.18852 -0.8536,2.41064 -0.8536,2.41064 l -0.0218,15.15547 -5.78537,7e-5 v -25.45288 l 5.78537,0.0407 v 0.83023 c 0,0 0.80721,-0.51247 1.91364,-0.89056 1.1419,-0.38996 2.59911,-0.6458 3.60752,-0.67396 1.09783,-0.0311 2.82341,0.17187 4.17898,0.696 1.90799,0.73631 3.32389,1.87591 3.32389,1.87591 z" />
  <path
     sodipodi:nodetypes="ccscscccccccccccassc"
     id="path61153-3"
     d="m 210.21902,69.208826 3.45556,4.63172 c -1.80501,1.33904 -3.45948,1.42982 -4.53372,1.42982 -2.01021,0 -4.09155,-1.05065 -5.33931,-2.61057 -1.21298,-1.55946 -1.72353,-2.96383 -1.71327,-5.07787 l 0.0612,-12.47842 h -5.71752 v -5.75199 h 5.71765 v -10.08339 h 5.7693 v 10.08339 h 5.75631 v 5.75199 h -5.75631 v 12.98502 c 0,0 0.0311,0.45535 0.14918,0.63974 0.22626,0.35366 0.58489,0.68534 0.99592,0.77134 0.21476,0.0451 0.57783,-0.006 0.83017,-0.0979 0.20668,-0.0768 0.32668,-0.19208 0.32668,-0.19208 z"
     style="font-style:normal;font-variant:normal;font-weight:normal;font-stretch:normal;font-size:12px;font-family:'Highway Gothic Expanded';-inkscape-font-specification:'Highway Gothic Expanded, ';writing-mode:lr-tb;fill:#ffffff;fill-opacity:1;fill-rule:nonzero;stroke:none;stroke-width:0.347049" />
  <path
     d="m 247.82447,74.585806 -5.84405,-3.1e-4 v -0.64991 c 0,0 -3.28422,1.17901 -5.00321,1.30951 -2.0908,0.15851 -4.27306,0.0249 -6.25642,-0.65656 -1.59047,-0.54619 -3.22847,-1.38 -4.66239,-2.37241 -0.67692,-0.46859 -1.28353,-0.98979 -1.82367,-1.66572 -0.61935,-0.77481 -0.95837,-1.81912 -0.97714,-2.81078 -0.0249,-1.30862 0.26044,-2.7556 1.14821,-3.75459 1.82472,-2.05033 4.53764,-3.42173 7.3102,-4.09367 1.04536,-0.25454 2.07588,-0.3669 3.10477,-0.47978 1.08667,-0.11903 2.7339,0.0535 4.11505,0.38123 1.64931,0.3916 2.95416,0.96428 2.95416,0.96428 0,0 0.15105,-0.95269 0.0762,-1.421 -0.11562,-0.71878 -0.4621,-1.5763 -0.79471,-2.03432 -0.81771,-1.12581 -2.29695,-1.65105 -3.62247,-2.0742 -0.47294,-0.15292 -0.98641,-0.12961 -1.48272,-0.1467 -0.61196,-0.0218 -1.22582,0.006 -1.83613,0.0566 -0.98706,0.082 -2.14966,0.23092 -2.94499,0.39244 -2.72458,0.55176 -4.22958,1.38671 -4.22958,1.38671 l -2.36337,-5.26966 c 0,0 1.91041,-0.91803 4.54793,-1.58351 2.0733,-0.52301 4.72782,-0.84242 6.3628,-0.75946 3.10853,0.1585 6.24675,0.8417 8.47311,2.75913 2.2264,1.91756 3.74999,4.52428 3.74999,7.58563 z m -6.05079,-7.22007 c 0,0 -1.07772,-0.86632 -2.51559,-1.43589 -1.26044,-0.49936 -2.82015,-0.71235 -3.86853,-0.70551 -0.96938,0.006 -2.63267,0.32087 -3.80568,0.79487 -1.44176,0.58277 -2.31255,1.34653 -2.31255,1.34653 0,0 0.74414,0.73326 2.07929,1.28474 1.26212,0.52136 3.08666,0.86268 4.15462,0.86349 1.05317,0.001 2.55618,-0.23341 3.81019,-0.74452 1.37612,-0.56111 2.45825,-1.40371 2.45825,-1.40371 z"
     style="font-style:normal;font-variant:normal;font-weight:normal;font-stretch:normal;font-size:46.5314px;line-height:1.15;font-family:'Highway Gothic Wide';-inkscape-font-specification:'Highway Gothic Wide';fill:#ffffff;fill-opacity:1;stroke:none;stroke-width:0.195795;stroke-opacity:1"
     id="path108315-7"
     sodipodi:nodetypes="cccasasasssscasaaasccssssccssscsssc" />
  <path
     sodipodi:nodetypes="cccasasasssscasaaasccssssccssscsssc"
     id="path183500-5"
     style="font-style:normal;font-variant:normal;font-weight:normal;font-stretch:normal;font-size:46.5314px;line-height:1.15;font-family:'Highway Gothic Wide';-inkscape-font-specification:'Highway Gothic Wide';fill:#ffffff;fill-opacity:1;stroke:none;stroke-width:0.195795;stroke-opacity:1"
     d="m 307.73613,74.585806 -5.84383,-3.1e-4 v -0.64991 c 0,0 -3.28426,1.17901 -5.00331,1.30951 -2.09089,0.15851 -4.27306,0.0249 -6.25651,-0.65656 -1.59032,-0.54619 -3.22831,-1.38 -4.66217,-2.37241 -0.67704,-0.46859 -1.28378,-0.98979 -1.82373,-1.66572 -0.61936,-0.77481 -0.95841,-1.81912 -0.97721,-2.81078 -0.0249,-1.30862 0.26045,-2.7556 1.14821,-3.75459 1.82466,-2.05033 4.53758,-3.42173 7.31017,-4.09367 1.04549,-0.25454 2.07585,-0.3669 3.10487,-0.47978 1.08657,-0.11903 2.73396,0.0535 4.11495,0.38123 1.64937,0.3916 2.9541,0.96428 2.9541,0.96428 0,0 0.15167,-0.95269 0.0761,-1.421 -0.11562,-0.71878 -0.46216,-1.5763 -0.79474,-2.03432 -0.81756,-1.12581 -2.29692,-1.65105 -3.62238,-2.0742 -0.47306,-0.15292 -0.98638,-0.12961 -1.48269,-0.1467 -0.61205,-0.0218 -1.22591,0.006 -1.83625,0.0566 -0.98703,0.082 -2.14957,0.23092 -2.94496,0.39244 -2.72436,0.55176 -4.22942,1.38671 -4.22942,1.38671 l -2.36346,-5.26966 c 0,0 1.91034,-0.91803 4.54789,-1.58351 2.07324,-0.52301 4.72782,-0.84242 6.36271,-0.75946 3.10859,0.1585 6.24681,0.8417 8.47317,2.75913 2.22646,1.91756 3.74993,4.52428 3.74993,7.58563 z m -6.05064,-7.22007 c 0,0 -1.07781,-0.86632 -2.51568,-1.43589 -1.26029,-0.49936 -2.82005,-0.71235 -3.86844,-0.70551 -0.96947,0.006 -2.6327,0.32087 -3.80571,0.79487 -1.44163,0.58277 -2.31261,1.34653 -2.31261,1.34653 0,0 0.74433,0.73326 2.07948,1.28474 1.26203,0.52136 3.08656,0.86268 4.15465,0.86349 1.05304,0.001 2.55603,-0.23341 3.81003,-0.74452 1.37624,-0.56111 2.45828,-1.40371 2.45828,-1.40371 z" />
  <path
     d="m 407.15908,74.585806 -5.84408,-3.1e-4 v -0.64991 c 0,0 -3.28404,1.17901 -5.00296,1.30951 -2.09086,0.15851 -4.27337,0.0249 -6.25651,-0.65656 -1.59054,-0.54619 -3.22862,-1.38 -4.6623,-2.37241 -0.67695,-0.46859 -1.28363,-0.98979 -1.8237,-1.66572 -0.61936,-0.77481 -0.95844,-1.81912 -0.97718,-2.81078 -0.0249,-1.30862 0.26045,-2.7556 1.14818,-3.75459 1.82466,-2.05033 4.53761,-3.42173 7.31027,-4.09367 1.04536,-0.25454 2.07572,-0.3669 3.10474,-0.47978 1.08655,-0.11903 2.73393,0.0535 4.11495,0.38123 1.64938,0.3916 2.95416,0.96428 2.95416,0.96428 0,0 0.15167,-0.95269 0.0762,-1.421 -0.11593,-0.71878 -0.46225,-1.5763 -0.79486,-2.03432 -0.81771,-1.12581 -2.29692,-1.65105 -3.6225,-2.0742 -0.47291,-0.15292 -0.98626,-0.12961 -1.48285,-0.1467 -0.61177,-0.0218 -1.22566,0.006 -1.83594,0.0566 -0.98712,0.082 -2.14969,0.23092 -2.94502,0.39244 -2.72451,0.55176 -4.22949,1.38671 -4.22949,1.38671 l -2.36361,-5.26966 c 0,0 1.91053,-0.91803 4.54808,-1.58351 2.07318,-0.52301 4.72788,-0.84242 6.36286,-0.75946 3.10844,0.1585 6.24672,0.8417 8.47312,2.75913 2.22633,1.91756 3.74986,4.52428 3.74986,7.58563 z m -6.0506,-7.22007 c 0,0 -1.07775,-0.86632 -2.51566,-1.43589 -1.26047,-0.49936 -2.82002,-0.71235 -3.86849,-0.70551 -0.96944,0.006 -2.63264,0.32087 -3.80575,0.79487 -1.44157,0.58277 -2.31245,1.34653 -2.31245,1.34653 0,0 0.74417,0.73326 2.07923,1.28474 1.26218,0.52136 3.08653,0.86268 4.15468,0.86349 1.05301,0.001 2.55618,-0.23341 3.80997,-0.74452 1.37624,-0.56111 2.45847,-1.40371 2.45847,-1.40371 z"
     style="font-style:normal;font-variant:normal;font-weight:normal;font-stretch:normal;font-size:46.5314px;line-height:1.15;font-family:'Highway Gothic Wide';-inkscape-font-specification:'Highway Gothic Wide';fill:#ffffff;fill-opacity:1;stroke:none;stroke-width:0.195795;stroke-opacity:1"
     id="path183502-0"
     sodipodi:nodetypes="cccasasasssscasaaasccssssccssscsssc" />
  <path
     style="font-style:normal;font-variant:normal;font-weight:normal;font-stretch:normal;font-size:12px;font-family:'Highway Gothic Expanded';-inkscape-font-specification:'Highway Gothic Expanded, ';writing-mode:lr-tb;fill:#ffffff;fill-opacity:1;fill-rule:nonzero;stroke:none;stroke-width:0.347049"
     d="m 399.89677,126.66851 3.45551,4.63172 c -1.80499,1.33904 -3.45933,1.42979 -4.53372,1.42979 -2.01018,0 -4.09156,-1.05068 -5.33929,-2.61054 -1.21301,-1.55946 -1.72349,-2.96382 -1.7133,-5.07787 l 0.0612,-12.47842 h -5.71771 v -5.75202 h 5.71771 V 96.727816 h 5.76921 v 10.083354 h 5.75646 v 5.75202 h -5.75646 v 12.98499 c 0,0 0.0311,0.45538 0.14949,0.63975 0.22626,0.35365 0.58495,0.68534 0.99586,0.77133 0.21538,0.0451 0.57792,-0.006 0.83023,-0.0979 0.20699,-0.0768 0.32671,-0.19207 0.32671,-0.19207 z"
     id="path183504"
     sodipodi:nodetypes="ccscscccccccccccassc" />
  <path
     id="path82574-5"
     style="font-style:normal;font-variant:normal;font-weight:normal;font-stretch:normal;font-size:122.83px;line-height:1.15;font-family:'Highway Gothic Wide';-inkscape-font-specification:'Highway Gothic Wide';text-align:center;letter-spacing:3.26px;text-anchor:middle;fill:#ffffff;fill-opacity:1;stroke-width:0.40427"
     d="m 416.12086,98.136406 v 6.017014 h 5.99432 v -6.017014 z m 0,8.534694 v 26.32245 h 5.99432 V 106.6711 Z"
     sodipodi:nodetypes="cccccccccc" />
  <path
     sodipodi:nodetypes="cccccccccc"
     d="m 366.88823,98.136406 v 6.017014 h 5.99426 v -6.017014 z m 0,8.534694 v 26.32245 h 5.99426 V 106.6711 Z"
     style="font-style:normal;font-variant:normal;font-weight:normal;font-stretch:normal;font-size:122.83px;line-height:1.15;font-family:'Highway Gothic Wide';-inkscape-font-specification:'Highway Gothic Wide';text-align:center;letter-spacing:3.26px;text-anchor:middle;fill:#ffffff;fill-opacity:1;stroke-width:0.40427"
     id="path183521" />
  <path
     id="path183523-3"
     style="font-style:normal;font-variant:normal;font-weight:normal;font-stretch:normal;font-size:122.83px;line-height:1.15;font-family:'Highway Gothic Wide';-inkscape-font-specification:'Highway Gothic Wide';text-align:center;letter-spacing:3.26px;text-anchor:middle;fill:#ffffff;fill-opacity:1;stroke-width:0.40427"
     d="m 154.18862,106.6711 v 26.32245 h 5.99429 V 106.6711 Z"
     sodipodi:nodetypes="ccccc" />
  <path
     d="m 270.66369,189.64236 h -7.0887 l -9.01393,-12.00579 -2.39699,2.01904 v 9.98675 h -5.69045 v -35.6391 h 5.69045 v 18.17661 l 9.71929,-8.21496 h 8.78033 l -11.7593,9.96593 z"
     style="font-size:13.0452px;line-height:1.15;font-family:'Highway Gothic Wide';-inkscape-font-specification:'Highway Gothic Wide';fill:#ffffff;fill-opacity:1;stroke-width:0.0413525"
     id="path24540"
     sodipodi:nodetypes="ccccccccccccc" />
  <path
     sodipodi:nodetypes="ccccccccccc"
     id="path258278-6"
     style="font-style:normal;font-variant:normal;font-weight:normal;font-stretch:normal;font-size:30px;line-height:1.15;font-family:'Highway Gothic';-inkscape-font-specification:'Highway Gothic';fill:#ffffff;fill-opacity:1;stroke-width:0.262632"
     d="m 198.62317,112.47493 -14.50967,14.52704 h 14.50967 v 5.83842 l -24.70979,-3e-5 3e-5,-5.83839 14.50967,-14.52704 h -14.50967 v -5.80387 h 24.70976 z" />
  <path
     sodipodi:nodetypes="cccssssssccccsssssssccccccssscasaaascc"
     id="path42828-7"
     style="font-style:normal;font-variant:normal;font-weight:normal;font-stretch:normal;font-size:30px;line-height:1.15;font-family:'Highway Gothic Wide';-inkscape-font-specification:'Highway Gothic Wide';fill:#ffffff;fill-opacity:1;stroke-width:0.266812"
     d="m 370.39231,75.680896 h -5.94135 l 6e-5,-13.6712 c 0,0 -0.38657,-2.64724 -1.19899,-3.62812 -0.60149,-0.7259 -1.29448,-1.52654 -2.17677,-2.10985 -1.27582,-0.84375 -2.80883,-1.32555 -3.87197,-1.24515 -0.50318,0.0379 -1.04985,0.028 -1.5617,0.1237 -1.28486,0.25299 -2.50906,0.81137 -3.44065,1.66948 -0.74986,0.69065 -1.6614,1.92548 -2.105,3.14387 -0.44083,1.21081 -0.41622,2.4075 -0.41622,2.4075 v 13.3103 h -5.89178 v -13.67132 c 0,0 -0.0674,-1.09267 -0.49246,-2.25279 -0.32506,-0.88549 -0.93457,-1.81036 -1.43921,-2.31864 -0.67058,-0.67471 -1.44875,-1.31915 -2.34341,-1.74289 -1.03309,-0.4896 -2.20642,-0.70644 -3.30471,-0.68807 -1.25432,0.0217 -2.56451,0.41793 -3.67002,1.10867 -0.60403,0.37753 -1.11514,0.88115 -1.59582,1.36997 -0.52304,0.53165 -1.09003,1.48172 -1.42594,2.37601 -0.35527,0.94567 -0.46442,1.82215 -0.46442,1.82215 l -0.0361,13.99691 h -5.85215 v -25.85971 h 5.85215 v 1.54463 c 0,0 1.1599,-0.84906 2.75401,-1.44461 1.60129,-0.59838 3.6399,-0.94299 4.98146,-0.82595 1.57295,0.13831 4.02386,0.52998 5.84899,1.53519 2.45738,1.35374 4.1129,3.393 4.1129,3.393 0,0 0.90418,-1.01068 1.41886,-1.44869 0.85286,-0.72586 1.9349,-1.5261 2.74543,-1.9371 1.82574,-0.92618 3.89416,-1.55641 5.94145,-1.55641 2.32815,0 4.70656,0.66635 6.75651,1.76993 1.71383,0.92278 3.18484,2.33803 4.34535,3.90084 0.90539,1.21898 1.53721,2.64766 1.93307,4.12528 0.36662,1.36844 0.42648,2.52526 0.42648,2.52526 z" />
  <path
     d="m 329.64349,189.97809 h -5.84262 l 3e-5,-13.44391 c 0,0 -0.37998,-2.60312 -1.17932,-3.5678 -0.5912,-0.71375 -1.27268,-1.50112 -2.14052,-2.0747 -1.25451,-0.82977 -2.76197,-1.30348 -3.80736,-1.22435 -0.49464,0.0376 -1.03225,0.028 -1.53596,0.12214 -1.26324,0.24926 -2.46708,0.79785 -3.38319,1.6416 -0.73743,0.67922 -1.6337,1.89356 -2.07003,3.09159 -0.43347,1.19073 -0.40895,2.36735 -0.40895,2.36735 v 13.08917 H 303.4815 V 176.5352 c 0,0 -0.0668,-1.07474 -0.48404,-2.21542 -0.31984,-0.8708 -0.91934,-1.78013 -1.41565,-2.28011 -0.65923,-0.66324 -1.4246,-1.29705 -2.30428,-1.71392 -1.016,-0.4813 -2.16961,-0.69451 -3.24957,-0.67639 -1.23368,0.0218 -2.522,0.41088 -3.60911,1.09015 -0.59399,0.37134 -1.09686,0.86657 -1.56924,1.34712 -0.5145,0.5228 -1.07194,1.45705 -1.40229,2.33645 -0.34949,0.93007 -0.4569,1.79197 -0.4569,1.79197 l -0.0345,13.76406 h -5.75482 v -25.42956 h 5.75482 v 1.51905 c 0,0 1.14062,-0.83511 2.7081,-1.42062 1.57497,-0.58843 3.57955,-0.92748 4.89888,-0.81224 1.54662,0.13706 3.95673,0.52124 5.75143,1.50982 2.41676,1.33121 4.04453,3.33629 4.04453,3.33629 0,0 0.88916,-0.9939 1.39529,-1.42432 0.83866,-0.71409 1.90289,-1.50084 2.69987,-1.90479 1.7952,-0.91082 3.82927,-1.53061 5.84243,-1.53061 2.2893,0 4.62836,0.65519 6.64407,1.74037 1.68558,0.90762 3.132,2.29915 4.27322,3.83608 0.89006,1.19856 1.51165,2.60339 1.90108,4.05643 0.36031,1.34582 0.41917,2.4834 0.41917,2.4834 z"
     style="font-style:normal;font-variant:normal;font-weight:normal;font-stretch:normal;font-size:30px;line-height:1.15;font-family:'Highway Gothic Wide';-inkscape-font-specification:'Highway Gothic Wide';fill:#ffffff;fill-opacity:1;stroke-width:0.262375"
     id="path183573-3"
     sodipodi:nodetypes="cccssssssccccsssssssccccccssscasaaascc" />
  <path
     id="path7201-9"
     style="font-style:normal;font-variant:normal;font-weight:normal;font-stretch:normal;font-size:122.83px;line-height:1.15;font-family:'Highway Gothic Wide';-inkscape-font-specification:'Highway Gothic Wide';text-align:center;letter-spacing:3.26px;text-anchor:middle;fill:#ffffff;fill-opacity:1;stroke-width:0.387365"
     d="m 264.02481,39.283916 0.0249,36.06974 h 5.74409 l -0.0249,-36.06974 z"
     sodipodi:nodetypes="ccccc" />
  <path
     d="m 136.4729,132.70385 -6.45362,0.006 v -14.43159 h -15.84824 v 14.43112 h -6.49169 l 0.001,-36.069024 h 6.49144 v 14.415524 h 15.84846 V 96.640356 h 6.46113 z"
     style="font-style:normal;font-variant:normal;font-weight:normal;font-stretch:normal;font-size:30px;line-height:1.15;font-family:'Highway Gothic Wide';-inkscape-font-specification:'Highway Gothic Wide';text-align:center;text-anchor:middle;fill:#ffffff;fill-opacity:1;stroke:none;stroke-width:0.260655;stroke-opacity:1"
     id="path67101-2"
     sodipodi:nodetypes="ccccccccccccc" />
</svg>
