<?xml version="1.0" encoding="UTF-8" standalone="no"?>
<svg
   xmlns:dc="http://purl.org/dc/elements/1.1/"
   xmlns:cc="http://creativecommons.org/ns#"
   xmlns:rdf="http://www.w3.org/1999/02/22-rdf-syntax-ns#"
   xmlns:svg="http://www.w3.org/2000/svg"
   xmlns="http://www.w3.org/2000/svg"
   xmlns:sodipodi="http://sodipodi.sourceforge.net/DTD/sodipodi-0.dtd"
   xmlns:inkscape="http://www.inkscape.org/namespaces/inkscape"
   sodipodi:docname="Turkey_road_sign_B-63a.svg"
   inkscape:version="1.0 (4035a4fb49, 2020-05-01)"
   id="svg2859"
   version="1.1"
   viewBox="0 0 83.757592 76.634376"
   height="76.634377mm"
   width="83.757591mm">
  <defs
     id="defs2853" />
  <sodipodi:namedview
     inkscape:window-maximized="1"
     inkscape:window-y="-9"
     inkscape:window-x="-9"
     inkscape:window-height="1001"
     inkscape:window-width="1920"
     showgrid="false"
     inkscape:document-rotation="0"
     inkscape:current-layer="layer1"
     inkscape:document-units="mm"
     inkscape:cy="169.54866"
     inkscape:cx="-59.767705"
     inkscape:zoom="0.76311221"
     inkscape:pageshadow="2"
     inkscape:pageopacity="0.0"
     borderopacity="1.0"
     bordercolor="#666666"
     pagecolor="#ffffff"
     id="base" />
  <metadata
     id="metadata2856">
    <rdf:RDF>
      <cc:Work
         rdf:about="">
        <dc:format>image/svg+xml</dc:format>
        <dc:type
           rdf:resource="http://purl.org/dc/dcmitype/StillImage" />
        <dc:title></dc:title>
      </cc:Work>
    </rdf:RDF>
  </metadata>
  <g
     transform="translate(-189.8602,42.268362)"
     id="layer1"
     inkscape:groupmode="layer"
     inkscape:label="Layer 1">
    <path
       sodipodi:nodetypes="ccccc"
       d="m 189.8602,-42.268362 h 83.75759 V 34.366016 H 189.8602 Z"
       style="opacity:1;fill:#00408c;fill-opacity:1;stroke-width:1.665;stroke-linecap:square;paint-order:fill markers stroke"
       id="rect26788" />
    <path
       id="path27356"
       d="m 195.02522,-41.226482 c -2.26152,0 -4.1068,1.845292 -4.1068,4.106804 v 66.369632 c 0,2.261517 1.84528,4.106807 4.1068,4.106807 h 73.41803 c 2.26152,0 4.10639,-1.84529 4.10639,-4.106807 v -66.369632 c 0,-2.261512 -1.84487,-4.106804 -4.10639,-4.106804 z m 0,1.563659 h 73.41803 c 1.4223,0 2.54273,1.120853 2.54273,2.543145 v 66.369632 c 0,1.422286 -1.12043,2.543146 -2.54273,2.543146 h -73.41803 c -1.42229,0 -2.54314,-1.12086 -2.54314,-2.543146 v -66.369632 c 0,-1.422292 1.12085,-2.543145 2.54314,-2.543145 z"
       style="color:#000000;font-style:normal;font-variant:normal;font-weight:normal;font-stretch:normal;font-size:medium;line-height:normal;font-family:sans-serif;font-variant-ligatures:normal;font-variant-position:normal;font-variant-caps:normal;font-variant-numeric:normal;font-variant-alternates:normal;font-variant-east-asian:normal;font-feature-settings:normal;font-variation-settings:normal;text-indent:0;text-align:start;text-decoration:none;text-decoration-line:none;text-decoration-style:solid;text-decoration-color:#000000;letter-spacing:normal;word-spacing:normal;text-transform:none;writing-mode:lr-tb;direction:ltr;text-orientation:mixed;dominant-baseline:auto;baseline-shift:baseline;text-anchor:start;white-space:normal;shape-padding:0;shape-margin:0;inline-size:0;clip-rule:nonzero;display:inline;overflow:visible;visibility:visible;opacity:1;isolation:auto;mix-blend-mode:normal;color-interpolation:sRGB;color-interpolation-filters:linearRGB;solid-color:#000000;solid-opacity:1;vector-effect:none;fill:#ffffff;fill-opacity:1;fill-rule:nonzero;stroke:none;stroke-width:1.92961;stroke-linecap:square;stroke-linejoin:miter;stroke-miterlimit:4;stroke-dasharray:none;stroke-dashoffset:0;stroke-opacity:1;paint-order:fill markers stroke;color-rendering:auto;image-rendering:auto;shape-rendering:auto;text-rendering:auto;enable-background:accumulate;stop-color:#000000;stop-opacity:1"
       sodipodi:nodetypes="ssssssssssssssssss" />
    <g
       transform="matrix(-0.22370487,0,0,0.22370487,188.48172,0.07128606)"
       style="opacity:1;stroke-width:4.47017"
       id="g1822">
      <path
         id="path1824"
         d="m -126.36843,-12.198848 h 87.58653 c 3.42296,0 6.23299,2.6592843 6.23299,6.0704867 V 48.119548 c 0,3.411208 -2.42541,5.824678 -5.84835,5.824659 l -88.12265,-4.95e-4 c -3.42296,-1.9e-5 -5.829,-2.783881 -5.829,-6.195089 V -6.1781902 c 0,-3.4112024 2.55751,-6.0206578 5.98048,-6.0206578 z"
         style="color:#000000;font-style:normal;font-variant:normal;font-weight:normal;font-stretch:normal;font-size:medium;line-height:normal;font-family:sans-serif;font-variant-ligatures:normal;font-variant-position:normal;font-variant-caps:normal;font-variant-numeric:normal;font-variant-alternates:normal;font-variant-east-asian:normal;font-feature-settings:normal;font-variation-settings:normal;text-indent:0;text-align:start;text-decoration:none;text-decoration-line:none;text-decoration-style:solid;text-decoration-color:#000000;letter-spacing:normal;word-spacing:normal;text-transform:none;writing-mode:lr-tb;direction:ltr;text-orientation:mixed;dominant-baseline:auto;baseline-shift:baseline;text-anchor:start;white-space:normal;shape-padding:0;shape-margin:0;inline-size:0;clip-rule:nonzero;display:inline;overflow:visible;visibility:visible;isolation:auto;mix-blend-mode:normal;color-interpolation:sRGB;color-interpolation-filters:linearRGB;solid-color:#000000;solid-opacity:1;vector-effect:none;fill:#ffffff;fill-opacity:1;fill-rule:evenodd;stroke:none;stroke-width:0.894031;stroke-linecap:round;stroke-linejoin:round;stroke-miterlimit:10;stroke-dasharray:none;stroke-dashoffset:0;stroke-opacity:1;color-rendering:auto;image-rendering:auto;shape-rendering:auto;text-rendering:auto;enable-background:accumulate;stop-color:#000000;stop-opacity:1" />
      <path
         style="color:#000000;font-style:normal;font-variant:normal;font-weight:normal;font-stretch:normal;font-size:medium;line-height:normal;font-family:sans-serif;font-variant-ligatures:normal;font-variant-position:normal;font-variant-caps:normal;font-variant-numeric:normal;font-variant-alternates:normal;font-variant-east-asian:normal;font-feature-settings:normal;font-variation-settings:normal;text-indent:0;text-align:start;text-decoration:none;text-decoration-line:none;text-decoration-style:solid;text-decoration-color:#000000;letter-spacing:normal;word-spacing:normal;text-transform:none;writing-mode:lr-tb;direction:ltr;text-orientation:mixed;dominant-baseline:auto;baseline-shift:baseline;text-anchor:start;white-space:normal;shape-padding:0;shape-margin:0;inline-size:0;clip-rule:nonzero;display:inline;overflow:visible;visibility:visible;isolation:auto;mix-blend-mode:normal;color-interpolation:sRGB;color-interpolation-filters:linearRGB;solid-color:#000000;solid-opacity:1;vector-effect:none;fill:#ffffff;fill-opacity:1;fill-rule:evenodd;stroke:none;stroke-width:0.894031;stroke-linecap:round;stroke-linejoin:round;stroke-miterlimit:10;stroke-dasharray:none;stroke-dashoffset:0;stroke-opacity:1;color-rendering:auto;image-rendering:auto;shape-rendering:auto;text-rendering:auto;enable-background:accumulate;stop-color:#000000;stop-opacity:1"
         d="m -238.00579,-12.198848 h 87.58653 c 3.42296,0 6.23299,2.6592843 6.23299,6.0704867 V 48.119548 c 0,3.411208 -2.42541,5.824678 -5.84835,5.824659 l -88.12265,-4.95e-4 c -3.42296,-1.9e-5 -5.829,-2.783881 -5.829,-6.195089 V -6.1781902 c 0,-3.4112024 2.55751,-6.0206578 5.98048,-6.0206578 z"
         id="path6018" />
      <path
         id="path6022"
         d="m -349.37519,-12.198848 h 87.58653 c 3.42296,0 6.23299,2.6592843 6.23299,6.0704867 V 48.119548 c 0,3.411208 -2.42541,5.824678 -5.84835,5.824659 l -88.12265,-4.95e-4 c -3.42296,-1.9e-5 -5.829,-2.783881 -5.829,-6.195089 V -6.1781902 c 0,-3.4112024 2.55751,-6.0206578 5.98048,-6.0206578 z"
         style="color:#000000;font-style:normal;font-variant:normal;font-weight:normal;font-stretch:normal;font-size:medium;line-height:normal;font-family:sans-serif;font-variant-ligatures:normal;font-variant-position:normal;font-variant-caps:normal;font-variant-numeric:normal;font-variant-alternates:normal;font-variant-east-asian:normal;font-feature-settings:normal;font-variation-settings:normal;text-indent:0;text-align:start;text-decoration:none;text-decoration-line:none;text-decoration-style:solid;text-decoration-color:#000000;letter-spacing:normal;word-spacing:normal;text-transform:none;writing-mode:lr-tb;direction:ltr;text-orientation:mixed;dominant-baseline:auto;baseline-shift:baseline;text-anchor:start;white-space:normal;shape-padding:0;shape-margin:0;inline-size:0;clip-rule:nonzero;display:inline;overflow:visible;visibility:visible;isolation:auto;mix-blend-mode:normal;color-interpolation:sRGB;color-interpolation-filters:linearRGB;solid-color:#000000;solid-opacity:1;vector-effect:none;fill:#ffffff;fill-opacity:1;fill-rule:evenodd;stroke:none;stroke-width:0.894031;stroke-linecap:round;stroke-linejoin:round;stroke-miterlimit:10;stroke-dasharray:none;stroke-dashoffset:0;stroke-opacity:1;color-rendering:auto;image-rendering:auto;shape-rendering:auto;text-rendering:auto;enable-background:accumulate;stop-color:#000000;stop-opacity:1" />
    </g>
    <path
       style="color:#000000;font-style:normal;font-variant:normal;font-weight:normal;font-stretch:normal;font-size:medium;line-height:normal;font-family:sans-serif;font-variant-ligatures:normal;font-variant-position:normal;font-variant-caps:normal;font-variant-numeric:normal;font-variant-alternates:normal;font-variant-east-asian:normal;font-feature-settings:normal;font-variation-settings:normal;text-indent:0;text-align:start;text-decoration:none;text-decoration-line:none;text-decoration-style:solid;text-decoration-color:#000000;letter-spacing:normal;word-spacing:normal;text-transform:none;writing-mode:lr-tb;direction:ltr;text-orientation:mixed;dominant-baseline:auto;baseline-shift:baseline;text-anchor:start;white-space:normal;shape-padding:0;shape-margin:0;inline-size:0;clip-rule:nonzero;display:inline;overflow:visible;visibility:visible;opacity:1;isolation:auto;mix-blend-mode:normal;color-interpolation:sRGB;color-interpolation-filters:linearRGB;solid-color:#000000;solid-opacity:1;vector-effect:none;fill:#000000;fill-opacity:1;fill-rule:evenodd;stroke:none;stroke-width:2;stroke-linecap:round;stroke-linejoin:round;stroke-miterlimit:10;stroke-dasharray:none;stroke-dashoffset:0;stroke-opacity:1;color-rendering:auto;image-rendering:auto;shape-rendering:auto;text-rendering:auto;enable-background:accumulate;stop-color:#000000;stop-opacity:1"
       d="m 216.7213,-2.2784825 c 0.54687,0 0.99408,0.4472342 0.99408,0.994088 V 10.764777 c 0,0.546856 -0.44721,0.994086 -0.99408,0.994086 h -19.5826 c -0.54684,0 -0.99407,-0.44723 -0.99407,-0.994086 V -1.2843945 c 0,-0.5468538 0.44723,-0.994088 0.99407,-0.994088 z m 0,0.4458808 h -19.5826 c -0.30753,0 -0.54819,0.240656 -0.54819,0.5482072 V 10.764777 c 0,0.307551 0.24066,0.548207 0.54819,0.548207 h 19.5826 c 0.30756,0 0.54822,-0.240656 0.54822,-0.548207 V -1.2843945 c 0,-0.3075512 -0.24066,-0.5482072 -0.54822,-0.5482072 z"
       id="path28849"
       sodipodi:nodetypes="ssssssssssssssssss" />
    <path
       sodipodi:nodetypes="ccscscccsscccssccsscccsccccccscccssscccccccccsscccsssccssssssssss"
       d="m 210.91422,0.75869299 v 0 H 210.565 c -0.032,0 -0.0635,0.00147 -0.0946,0.00363 h -2.07349 c -0.0435,0 -0.0784,0.048658 -0.0795,0.1097052 h -6e-5 v 0.00204 c 0,3.006e-4 -4e-5,9.007e-4 -4e-5,0.00147 V 1.7489323 c 0,0.00272 8e-5,0.00545 2.9e-4,0.00817 l 4e-4,1.8373262 c 0,0.022088 -0.001,0.043791 -0.003,0.064984 h -8.43154 c -0.0317,0 -0.0572,0.036065 -0.0572,0.08081 v 0.3012922 0.1220008 2.1986556 c 0,0.2442273 0.139,0.4408402 0.31167,0.4408402 h 0.87908 c -0.001,-0.028816 -0.002,-0.0577 -0.002,-0.086562 l 1.6e-4,-0.013682 c 0.0119,-0.7964427 0.6613,-1.4356372 1.45781,-1.4349338 0.006,2.3e-6 0.0113,4.77e-5 0.017,1.588e-4 0.80309,0.010097 1.44649,0.6683611 1.43826,1.4714917 -1.7e-4,0.021226 -8.1e-4,0.042419 -0.002,0.063599 h 6.42182 c -0.001,-0.028816 -0.002,-0.0577 -0.002,-0.086562 l 8e-5,-0.013682 c 0.0119,-0.7964393 0.6613,-1.4356428 1.45784,-1.4349281 0.006,5.7e-6 0.0113,4.76e-5 0.017,8.05e-5 0.8031,0.010097 1.44649,0.6683611 1.43828,1.4714917 -1.9e-4,0.021226 -8.2e-4,0.042419 -0.002,0.063599 h 0.51491 c 0.17267,0 0.31167,-0.1966185 0.31167,-0.4408436 V 3.891506 c 0,-0.2442251 -0.14941,-0.4278344 -0.32208,-0.46423 l -1.01806,-0.361326 -0.97596,-1.8383053 -8.1e-4,-7.48e-5 c -0.10506,-0.27086751 -0.44571,-0.46830851 -0.85222,-0.46830851 z m -1.72523,0.61026381 h 1.099 0.0768 0.38193 c 0.37747,0 0.53318,0.2757515 0.75673,0.6969401 0.0293,0.055159 0.121,0.2339954 0.20457,0.4187573 0.0144,0.0042 0.0175,0.026774 0.0294,0.048182 l 0.39726,0.7151758 c 0.0133,0.023802 -0.0282,0.095025 -0.0475,0.095025 h -2.44583 c -1.6e-4,0 -3.1e-4,-5.44e-5 -4e-4,-5.44e-5 h -0.45174 z m -6.71153,4.1078665 c -0.69378,0 -1.26175,0.568856 -1.26175,1.2599523 0,0.6907265 0.56802,1.260278 1.26175,1.260278 0.69379,0 1.26212,-0.5696298 1.26212,-1.260278 0,-0.6907242 -0.56833,-1.2599523 -1.26212,-1.2599523 z m 9.33098,0 c -0.69379,0 -1.26175,0.568856 -1.26175,1.2599523 0,0.6907265 0.568,1.260278 1.26175,1.260278 0.69381,0 1.26216,-0.5696298 1.26216,-1.260278 0,-0.6907242 -0.56833,-1.2599523 -1.26216,-1.2599523 z"
       style="opacity:1;fill:#000000;fill-opacity:1;fill-rule:evenodd;stroke-width:3.96878;stroke-linecap:round;stroke-opacity:0.522267"
       id="rect28778" />
    <path
       sodipodi:nodetypes="ssssssssssssssssss"
       id="path6020"
       d="m 241.69513,-2.2784825 c 0.54685,0 0.99408,0.4472342 0.99408,0.994088 V 10.764777 c 0,0.546856 -0.44723,0.994086 -0.99408,0.994086 h -19.58259 c -0.54686,0 -0.99408,-0.44723 -0.99408,-0.994086 V -1.2843945 c 0,-0.5468538 0.44722,-0.994088 0.99408,-0.994088 z m 0,0.4458808 h -19.58259 c -0.30755,0 -0.54821,0.240656 -0.54821,0.5482072 V 10.764777 c 0,0.307551 0.24066,0.548207 0.54821,0.548207 h 19.58259 c 0.30754,0 0.5482,-0.240656 0.5482,-0.548207 V -1.2843945 c 0,-0.3075512 -0.24066,-0.5482072 -0.5482,-0.5482072 z"
       style="color:#000000;font-style:normal;font-variant:normal;font-weight:normal;font-stretch:normal;font-size:medium;line-height:normal;font-family:sans-serif;font-variant-ligatures:normal;font-variant-position:normal;font-variant-caps:normal;font-variant-numeric:normal;font-variant-alternates:normal;font-variant-east-asian:normal;font-feature-settings:normal;font-variation-settings:normal;text-indent:0;text-align:start;text-decoration:none;text-decoration-line:none;text-decoration-style:solid;text-decoration-color:#000000;letter-spacing:normal;word-spacing:normal;text-transform:none;writing-mode:lr-tb;direction:ltr;text-orientation:mixed;dominant-baseline:auto;baseline-shift:baseline;text-anchor:start;white-space:normal;shape-padding:0;shape-margin:0;inline-size:0;clip-rule:nonzero;display:inline;overflow:visible;visibility:visible;opacity:1;isolation:auto;mix-blend-mode:normal;color-interpolation:sRGB;color-interpolation-filters:linearRGB;solid-color:#000000;solid-opacity:1;vector-effect:none;fill:#000000;fill-opacity:1;fill-rule:evenodd;stroke:none;stroke-width:2;stroke-linecap:round;stroke-linejoin:round;stroke-miterlimit:10;stroke-dasharray:none;stroke-dashoffset:0;stroke-opacity:1;color-rendering:auto;image-rendering:auto;shape-rendering:auto;text-rendering:auto;enable-background:accumulate;stop-color:#000000;stop-opacity:1" />
    <path
       style="color:#000000;font-style:normal;font-variant:normal;font-weight:normal;font-stretch:normal;font-size:medium;line-height:normal;font-family:sans-serif;font-variant-ligatures:normal;font-variant-position:normal;font-variant-caps:normal;font-variant-numeric:normal;font-variant-alternates:normal;font-variant-east-asian:normal;font-feature-settings:normal;font-variation-settings:normal;text-indent:0;text-align:start;text-decoration:none;text-decoration-line:none;text-decoration-style:solid;text-decoration-color:#000000;letter-spacing:normal;word-spacing:normal;text-transform:none;writing-mode:lr-tb;direction:ltr;text-orientation:mixed;dominant-baseline:auto;baseline-shift:baseline;text-anchor:start;white-space:normal;shape-padding:0;shape-margin:0;inline-size:0;clip-rule:nonzero;display:inline;overflow:visible;visibility:visible;opacity:1;isolation:auto;mix-blend-mode:normal;color-interpolation:sRGB;color-interpolation-filters:linearRGB;solid-color:#000000;solid-opacity:1;vector-effect:none;fill:#000000;fill-opacity:1;fill-rule:evenodd;stroke:none;stroke-width:2;stroke-linecap:round;stroke-linejoin:round;stroke-miterlimit:10;stroke-dasharray:none;stroke-dashoffset:0;stroke-opacity:1;color-rendering:auto;image-rendering:auto;shape-rendering:auto;text-rendering:auto;enable-background:accumulate;stop-color:#000000;stop-opacity:1"
       d="m 266.60901,-2.2784825 c 0.54686,0 0.99408,0.4472342 0.99408,0.994088 V 10.764777 c 0,0.546856 -0.44722,0.994086 -0.99408,0.994086 h -19.5826 c -0.54684,0 -0.99407,-0.44723 -0.99407,-0.994086 V -1.2843945 c 0,-0.5468538 0.44723,-0.994088 0.99407,-0.994088 z m 0,0.4458808 h -19.5826 c -0.30753,0 -0.54819,0.240656 -0.54819,0.5482072 V 10.764777 c 0,0.307551 0.24066,0.548207 0.54819,0.548207 h 19.5826 c 0.30755,0 0.54821,-0.240656 0.54821,-0.548207 V -1.2843945 c 0,-0.3075512 -0.24066,-0.5482072 -0.54821,-0.5482072 z"
       id="path6024"
       sodipodi:nodetypes="ssssssssssssssssss" />
    <path
       id="path61228"
       style="opacity:1;fill:#000000;fill-opacity:1;fill-rule:evenodd;stroke:none;stroke-width:0.702733;stroke-linecap:round;stroke-linejoin:round;stroke-miterlimit:10;stroke-dasharray:none;stroke-opacity:0.87451"
       d="M 234.96466,0.75585339 V 5.9398427 H 223.84603 V 0.75585339 Z m 3.22323,1.75017351 0.93359,2.3574762 v 2.6480726 h -0.56405 c 0,0 0.007,-0.1716358 -0.0558,-0.3908057 -0.0521,-0.1844013 -0.15622,-0.4006488 -0.3147,-0.5927667 -0.1322,-0.1602717 -0.33326,-0.2919066 -0.54065,-0.3843052 -0.21384,-0.095275 -0.38862,-0.1418759 -0.59206,-0.1499625 -0.1485,-0.0059 -0.30103,0.020863 -0.4395,0.074808 -0.2783,0.1084573 -0.56789,0.2516969 -0.75218,0.487115 -0.14673,0.1874336 -0.24345,0.408008 -0.29083,0.5946613 -0.0511,0.2008898 -0.047,0.3612602 -0.047,0.3612602 h -6.82734 c 0,0 -0.005,-0.080605 -0.0212,-0.2010158 -0.0171,-0.1209582 -0.0542,-0.2638144 -0.0912,-0.3538169 -0.0394,-0.095967 -0.11277,-0.2321553 -0.19167,-0.3397526 -0.0509,-0.069544 -0.10313,-0.1280159 -0.13898,-0.1658001 -0.0277,-0.029145 -0.0455,-0.045969 -0.0455,-0.045969 h 7.21507 V 2.5060326 Z m -0.14204,0.6445277 h -2.15115 v 1.5008272 h 2.74498 z m -1.00614,3.2148388 c 0.63035,0 1.14641,0.5171063 1.14641,1.1447654 0,0.6276555 -0.51606,1.1450024 -1.14641,1.1450001 -0.63036,0 -1.14666,-0.5173502 -1.14666,-1.1450001 0,-0.6276591 0.5163,-1.1447654 1.14666,-1.1447654 z m -9.85724,0 c 0.63035,0 1.14642,0.5171063 1.14642,1.1447654 0,0.6276555 -0.51607,1.1450024 -1.14642,1.1450001 -0.63035,0 -1.14677,-0.5173502 -1.14677,-1.1450001 0,-0.6276591 0.51642,-1.1447654 1.14677,-1.1447654 z m -1.03533,0.039821 c 0,0 -0.0943,0.088694 -0.18459,0.2118876 -0.0789,0.1075837 -0.15214,0.2439006 -0.19156,0.3398706 -0.037,0.089999 -0.0744,0.23238 -0.0916,0.353345 -0.0174,0.1204114 -0.0137,0.2195692 -0.0137,0.2195692 l -1.81956,-0.5920554 v -0.532617 z m 10.89257,0.595486 c -0.28322,0 -0.5078,0.2233245 -0.5078,0.5094531 0,0.286123 0.22458,0.509807 0.5078,0.509807 0.28322,0 0.50756,-0.223684 0.50756,-0.509807 0,-0.2861286 -0.22434,-0.5094531 -0.50756,-0.5094531 z m -9.85724,0 c -0.28321,0 -0.5078,0.2233245 -0.5078,0.5094531 0,0.286123 0.22459,0.509807 0.5078,0.509807 0.28322,0 0.50757,-0.223684 0.50757,-0.509807 0,-0.2861286 -0.22435,-0.5094531 -0.50757,-0.5094531 z" />
    <path
       id="path86004"
       style="opacity:1;fill:#000000;fill-opacity:1;fill-rule:evenodd;stroke:none;stroke-width:0.70273;stroke-linecap:round;stroke-linejoin:round;stroke-miterlimit:10;stroke-dasharray:none;stroke-opacity:1"
       d="m 261.37403,1.9272894 v 2.9616172 h -2.58278 V 5.4908887 H 248.40332 V 1.9272894 Z m 2.12435,1.1619834 0.59931,1.4552616 V 6.628721 h -0.35055 c 0,0 0.005,-0.1194039 -0.0388,-0.2719282 -0.0362,-0.1283267 -0.10868,-0.2787522 -0.21901,-0.4124473 -0.092,-0.1115317 -0.23196,-0.203135 -0.37629,-0.2674402 -0.14881,-0.066288 -0.27039,-0.098723 -0.41197,-0.1043504 -0.10335,-0.00408 -0.20993,0.013478 -0.30589,0.05205 -0.1868,0.075081 -0.37169,0.1750871 -0.49993,0.3389131 -0.10211,0.1304346 -0.16943,0.2838823 -0.20241,0.4137803 -0.0355,0.1397998 -0.0327,0.2514201 -0.0327,0.2514201 h -0.15569 c 0,0 -0.0113,-0.1407131 -0.0542,-0.2849159 -0.0369,-0.1233894 -0.0965,-0.2410848 -0.199,-0.3674194 -0.10914,-0.1346435 -0.27482,-0.237417 -0.43901,-0.3013024 -0.12534,-0.04876 -0.22924,-0.079891 -0.34778,-0.075228 -0.20489,0.00805 -0.39376,0.057995 -0.58924,0.1769192 -0.10642,0.064734 -0.18338,0.1611952 -0.25203,0.243777 -0.23021,0.2769676 -0.21562,0.6081696 -0.21562,0.6081696 h -0.39158 V 5.8643787 5.6901324 5.1014953 h 2.56786 V 3.0892706 Z m -0.14986,0.4282179 h -1.50999 v 0.961157 h 1.90861 z m -4.55727,2.1829576 V 6.628721 h -3.46665 c 0,0 0.001,-0.087208 -0.0251,-0.196454 -0.0289,-0.1214471 -0.0875,-0.2700597 -0.14075,-0.3561425 -0.0486,-0.078303 -0.13419,-0.1861959 -0.22267,-0.2608862 -0.0874,-0.073719 -0.17776,-0.11479 -0.17776,-0.11479 z m -4.98574,0 c 0,0 -0.10505,0.053173 -0.20264,0.1342045 -0.0822,0.068319 -0.15468,0.1590011 -0.19901,0.2286066 -0.0553,0.086834 -0.11775,0.2371742 -0.14804,0.3610027 -0.0277,0.1133582 -0.0256,0.2044589 -0.0256,0.2044589 h -0.14986 c 0,0 0.006,-0.087072 -0.0196,-0.1954874 -0.0278,-0.1182717 -0.0889,-0.2619016 -0.14052,-0.3453388 -0.0461,-0.07457 -0.12541,-0.1808003 -0.21138,-0.2544548 -0.0996,-0.085348 -0.20373,-0.1329917 -0.20373,-0.1329917 z m -2.23818,0 c 0,0 -0.12047,0.058551 -0.2314,0.1549521 -0.083,0.072188 -0.15493,0.173316 -0.19875,0.2447503 -0.0506,0.082432 -0.10301,0.2184404 -0.12887,0.3347847 -0.0231,0.1041348 -0.0222,0.1937856 -0.0222,0.1937856 h -1.31245 L 248.40331,6.4191625 V 5.7004483 Z m 11.13201,0.014884 c 0.50684,0 0.92184,0.4158337 0.92184,0.9205072 0,0.5046746 -0.415,0.9207489 -0.92184,0.9207489 -0.50685,0 -0.92209,-0.4160743 -0.92209,-0.9207489 0,-0.5046678 0.41524,-0.9205072 0.92209,-0.9205072 z m -2.25419,0 c 0.50685,0 0.92172,0.4158337 0.92172,0.9205072 0,0.5046746 -0.41487,0.9207489 -0.92172,0.9207489 -0.50684,0 -0.92209,-0.4160743 -0.92209,-0.9207489 0,-0.5046678 0.41525,-0.9205072 0.92209,-0.9205072 z m -6.15888,0 c 0.50684,0 0.92172,0.4158337 0.92172,0.9205072 0,0.5046746 -0.41488,0.9207489 -0.92172,0.9207489 -0.50684,0 -0.92208,-0.4160743 -0.92208,-0.9207489 0,-0.5046678 0.41524,-0.9205072 0.92208,-0.9205072 z m -2.25432,0 c 0.50685,0 0.92186,0.4158337 0.92186,0.9205072 0,0.5046746 -0.41501,0.9207489 -0.92186,0.9207489 -0.50683,0 -0.92195,-0.4160743 -0.92195,-0.9207489 0,-0.5046678 0.41512,-0.9205072 0.92195,-0.9205072 z m 10.66739,0.5108541 c -0.22772,0 -0.40833,0.1795898 -0.40833,0.4096531 0,0.2300632 0.18061,0.4098969 0.40833,0.4098969 0.22771,0 0.40807,-0.1798337 0.40807,-0.4098969 0,-0.2300633 -0.18036,-0.4096531 -0.40807,-0.4096531 z m -2.25419,0 c -0.22772,0 -0.40831,0.1795898 -0.40831,0.4096531 0,0.2300632 0.18059,0.4098969 0.40831,0.4098969 0.22773,0 0.40808,-0.1798337 0.40808,-0.4098969 0,-0.2300633 -0.18035,-0.4096531 -0.40808,-0.4096531 z m -6.15888,0 c -0.22772,0 -0.40832,0.1795898 -0.40832,0.4096531 0,0.2300632 0.1806,0.4098969 0.40832,0.4098969 0.22772,0 0.40807,-0.1798337 0.40807,-0.4098969 0,-0.2300633 -0.18035,-0.4096531 -0.40807,-0.4096531 z m -2.25432,0 c -0.22771,0 -0.40819,0.1795898 -0.40819,0.4096531 0,0.2300632 0.18048,0.4098969 0.40819,0.4098969 0.22773,0 0.40809,-0.1798337 0.40809,-0.4098969 0,-0.2300633 -0.18036,-0.4096531 -0.40809,-0.4096531 z" />
    <path
       d="m 197.83951,-36.260327 h 67.78516 c 1.02902,0 1.85744,0.828421 1.85744,1.85745 v 25.1614222 c 0,1.0290246 -0.82842,1.8574464 -1.85744,1.8574464 h -67.78516 c -1.02904,0 -1.85745,-0.8284218 -1.85745,-1.8574464 V -34.402877 c 0,-1.029029 0.82841,-1.85745 1.85745,-1.85745 z"
       style="opacity:1;fill:#dd7500;fill-opacity:1;fill-rule:evenodd;stroke-width:0.815099;stroke-linecap:round;stroke-linejoin:round;stroke-miterlimit:0.1"
       id="rect9000-2"
       sodipodi:nodetypes="sssssssss" />
    <path
       d="m 203.78296,-32.454564 v 7.974367 l 2.00385,0.007 c 0,0 1.41277,-8.11e-4 1.56942,-0.03106 0.0873,-0.01669 0.1627,-0.0291 0.1671,-0.02874 0.005,8.11e-4 0.0189,-0.0028 0.0305,-0.007 0.0116,-0.0045 0.0801,-0.02429 0.153,-0.04455 0.20882,-0.05794 0.39925,-0.12962 0.56575,-0.213396 0.34743,-0.17484 0.5402,-0.312145 0.82077,-0.584509 0.28618,-0.277795 0.4711,-0.532868 0.63727,-0.877636 0.36013,-0.747121 0.5133,-1.964683 0.37697,-2.990535 -0.1223,-0.920324 -0.32939,-1.46753 -0.77036,-2.033164 -0.08,-0.102546 -0.39598,-0.407751 -0.5417,-0.522943 -0.21288,-0.168295 -0.66189,-0.403542 -0.90343,-0.473116 -0.0364,-0.01055 -0.11999,-0.03518 -0.18527,-0.05511 -0.0652,-0.01985 -0.17854,-0.04481 -0.2515,-0.05628 -0.0729,-0.01145 -0.16646,-0.02842 -0.20871,-0.03751 -0.0563,-0.01213 -0.52934,-0.01873 -1.77052,-0.02169 z m 35.65892,0.0047 v 2.245394 h -1.27277 v 1.280398 h 1.27277 l -0.0135,2.778308 c -0.002,0.470697 0.11163,0.783076 0.38167,1.130317 0.27779,0.347237 0.74081,0.581572 1.18835,0.581572 0.23921,0 0.6077,-0.02021 1.00955,-0.318342 l -0.76918,-1.031238 c 0,0 -0.0275,0.02601 -0.0733,0.04279 -0.0562,0.02041 -0.13698,0.0317 -0.18467,0.02169 -0.0916,-0.01917 -0.17126,-0.09306 -0.22162,-0.17178 -0.0263,-0.04104 -0.0328,-0.142459 -0.0328,-0.142459 v -2.890871 h 1.28157 v -1.280397 h -1.28157 v -2.245395 z m 5.31449,0.151844 v 1.30678 h 1.30151 v -1.30678 z m -39.54938,1.281574 0.95385,0.0047 c 1.04156,0.0048 1.00293,0.002 1.26692,0.09087 0.12438,0.042 0.36387,0.158468 0.43266,0.210465 0.1867,0.14107 0.30266,0.254009 0.4098,0.398662 0.20555,0.277474 0.30444,0.547828 0.39279,1.076379 0.0816,0.488181 0.0746,1.249661 -0.0152,1.641539 -0.0115,0.04993 -0.0301,0.139898 -0.0416,0.199919 -0.0914,0.477742 -0.32771,0.8691 -0.68944,1.141452 -0.0499,0.03759 -0.16959,0.108911 -0.26558,0.158296 -0.1677,0.08628 -0.21532,0.102989 -0.44733,0.157116 -0.093,0.02182 -0.20979,0.02497 -1.05058,0.02929 l -0.94623,0.0047 z m 51.62113,0.527634 c -0.46561,0 -0.93606,0.143465 -1.35133,0.354105 -0.18429,0.09349 -0.43039,0.275778 -0.62437,0.44087 -0.11707,0.09964 -0.32303,0.329483 -0.32303,0.329483 0,0 -0.37618,-0.464246 -0.9351,-0.77211 -0.41507,-0.228632 -0.9725,-0.317613 -1.33023,-0.34883 -0.30513,-0.02657 -0.76905,0.05153 -1.13324,0.187604 -0.36254,0.135448 -0.62613,0.328896 -0.62613,0.328896 v -0.351756 h -1.33141 v 5.881401 h 1.33141 l 0.008,-3.183414 c 0,0 0.0247,-0.198831 0.10551,-0.413907 0.0763,-0.203382 0.20584,-0.419566 0.32479,-0.540533 0.10937,-0.111157 0.22553,-0.226046 0.36289,-0.311894 0.25142,-0.157103 0.54897,-0.247129 0.83426,-0.252093 0.24978,-0.0042 0.51663,0.04522 0.75159,0.156532 0.20347,0.09639 0.38103,0.242824 0.53351,0.396317 0.11478,0.115557 0.25318,0.326218 0.32713,0.527638 0.0969,0.263847 0.11197,0.512393 0.11197,0.512393 v 3.108961 h 1.3402 v -3.026883 c 0,0 -0.006,-0.272208 0.0944,-0.547569 0.10085,-0.277135 0.30842,-0.558175 0.47897,-0.715247 0.2119,-0.195157 0.48987,-0.321943 0.78208,-0.379311 0.11642,-0.02229 0.24081,-0.01945 0.35527,-0.02814 0.24177,-0.01829 0.59042,0.09133 0.88056,0.283165 0.20071,0.132698 0.35867,0.314452 0.4954,0.479564 0.1848,0.223084 0.27262,0.82546 0.27262,0.82546 v 3.108959 h 1.35134 l -0.0252,-3.247317 c 0,0 -0.014,-0.262727 -0.0973,-0.573951 -0.0901,-0.336095 -0.23378,-0.661321 -0.43969,-0.938612 -0.26392,-0.355409 -0.59808,-0.677177 -0.98786,-0.887018 -0.46624,-0.251011 -1.00709,-0.402764 -1.5366,-0.402764 z m -32.50482,0.01642 c -0.27624,0.01721 -0.6056,0.0873 -0.8788,0.189365 -0.3626,0.135472 -0.62613,0.328307 -0.62613,0.328307 v -0.351172 h -1.33141 v 5.882574 h 1.33141 l 0.008,-3.184003 c 0,0 0.0253,-0.199378 0.10607,-0.414486 0.0763,-0.203414 0.20524,-0.419545 0.32421,-0.540538 0.10936,-0.111168 0.2255,-0.226041 0.3629,-0.311889 0.25144,-0.157143 0.5495,-0.247174 0.83483,-0.252096 0.24983,-0.0042 0.51659,0.04521 0.75159,0.156535 0.20352,0.09641 0.38101,0.242807 0.5335,0.396312 0.11482,0.115577 0.25318,0.32617 0.32714,0.527639 0.0969,0.263874 0.11197,0.512392 0.11197,0.512397 v 3.110129 h 1.34021 v -3.028057 c 0,0 -0.0183,-0.466707 -0.0838,-0.688274 -0.12741,-0.430549 -0.31245,-0.857975 -0.59037,-1.210635 -0.25023,-0.317537 -0.57582,-0.587264 -0.93568,-0.771522 -0.40812,-0.208976 -0.97303,-0.318157 -1.33081,-0.349415 -0.0763,-0.0067 -0.16236,-0.0069 -0.25445,-0.0012 z m -8.39881,0.03927 c -0.83337,0 -1.53874,0.290686 -2.11642,0.871774 -0.57767,0.581095 -0.8665,1.287557 -0.8665,2.119932 0,0.840229 0.29343,1.551145 0.88057,2.132241 0.59662,0.573239 1.32098,0.859462 2.17329,0.859462 0.87117,0 1.54571,-0.464282 1.90125,-0.770937 l -0.88761,-0.992545 c -0.3788,0.298398 -0.62544,0.424452 -1.01364,0.424456 -0.30305,0 -0.67258,-0.04219 -0.96617,-0.262062 -0.28403,-0.219879 -0.4563,-0.340249 -0.63375,-0.726381 h 4.41925 l 0.0733,-0.651338 c -0.009,-0.746 -0.19767,-1.293793 -0.68065,-1.914155 -0.48299,-0.620349 -1.29803,-1.082562 -2.28291,-1.090447 z m 17.25961,0 c -0.83337,0 -1.53873,0.290686 -2.11641,0.871774 -0.57767,0.581095 -0.8665,1.287557 -0.8665,2.119932 0,0.840229 0.29342,1.551145 0.88056,2.132241 0.59662,0.573239 1.32098,0.859462 2.17329,0.859462 0.87118,0 1.54571,-0.464282 1.90125,-0.770937 l -0.88761,-0.992545 c -0.3788,0.298398 -0.62544,0.424452 -1.01364,0.424456 -0.30304,0 -0.67258,-0.04219 -0.96617,-0.262062 -0.28403,-0.219879 -0.4563,-0.340249 -0.63374,-0.726381 h 4.41925 l 0.0733,-0.651338 c -0.009,-0.746 -0.19767,-1.293793 -0.68065,-1.914155 -0.48297,-0.620349 -1.29801,-1.082562 -2.28291,-1.090447 z m 11.57227,0.103182 v 5.890781 h 1.30151 v -5.890747 z m -28.80667,1.224117 c 0.17765,-0.0044 0.44278,0.05917 0.66658,0.166501 0.16989,0.08147 0.30822,0.195517 0.41038,0.280236 0.24623,0.196249 0.40335,0.55226 0.40335,0.55226 h -3.0345 c 0,0 0.18761,-0.38034 0.43383,-0.58451 0.13213,-0.109546 0.31755,-0.232542 0.5294,-0.311305 0.19816,-0.07367 0.42161,-0.106778 0.59096,-0.103182 z m 17.25961,0 c 0.17765,-0.0044 0.44278,0.05917 0.66658,0.166501 0.16989,0.08147 0.30822,0.195517 0.41039,0.280236 0.24623,0.196249 0.40335,0.55226 0.40335,0.55226 h -3.0345 c 0,0 0.18761,-0.38034 0.43382,-0.58451 0.13213,-0.109546 0.31755,-0.232542 0.5294,-0.311305 0.19816,-0.07367 0.42161,-0.106778 0.59096,-0.103182 z m -33.55072,7.91222 v 1.439865 h 1.43458 v -1.439865 z m 0,2.401925 v 7.984915 h 1.43458 v -7.984915 z m 12.81866,0.125458 v 2.199665 h -1.24757 v 1.255192 h 1.24757 l -0.0129,2.722609 c -0.002,0.461254 0.10879,0.767767 0.37345,1.108042 0.27222,0.340249 0.72634,0.569261 1.1649,0.569261 0.23441,0 0.59527,-0.01979 0.98903,-0.311891 l -0.75394,-1.010723 c 0,0 -0.026,0.02579 -0.0709,0.04221 -0.055,0.01993 -0.13443,0.03094 -0.18116,0.0211 -0.0896,-0.01877 -0.16812,-0.09111 -0.2175,-0.168259 -0.0258,-0.04022 -0.0322,-0.139531 -0.0322,-0.139531 v -2.83283 h 1.25578 v -1.25519 h -1.25578 v -2.199666 z m 19.37721,1.788108 1.64564,3.849408 0.84187,1.945223 -0.30251,0.547574 c 0,0 -0.0477,0.08812 -0.13777,0.158875 -0.0593,0.04659 -0.15272,0.08276 -0.20871,0.09028 -0.0715,0.0096 -0.1728,0.0057 -0.25854,-0.03401 -0.0985,-0.04556 -0.17705,-0.128393 -0.17705,-0.128393 l -1.07873,0.961478 c 0,0 0.24728,0.2908617 0.60737,0.4643162 0.32265,0.1554263 0.74403,0.1967172 1.01892,0.1782273 0.25024,-0.016836 0.61606,-0.133373 0.88586,-0.3130649 0.28885,-0.192405 0.47369,-0.4484957 0.47369,-0.4484957 l 3.11131,-7.2714299 h -1.39531 l -1.81391,4.229897 -1.81682,-4.229897 z m -25.35065,0.0041 c -0.27589,0 -0.61451,0.0279 -0.91868,0.07153 -0.22459,0.03217 -0.44626,0.08353 -0.66599,0.140114 -0.15352,0.03958 -0.31725,0.06038 -0.45494,0.138946 -0.11594,0.06612 -0.19789,0.152961 -0.29607,0.269682 -0.2617,0.311118 -0.41244,0.867892 -0.35704,1.320267 0.0477,0.389101 0.24397,0.708607 0.57221,1.027133 0.0997,0.09189 0.29416,0.199911 0.45552,0.272028 0.22864,0.102126 0.4774,0.150531 0.717,0.223364 0.11299,0.03434 0.22619,0.0675 0.33945,0.100844 0.17625,0.05186 0.35298,0.102887 0.5294,0.154187 0.29774,0.08662 0.59741,0.16692 0.89346,0.259128 0.11756,0.0367 0.24686,0.05843 0.35,0.116668 0.05,0.02821 0.0808,0.08167 0.11784,0.125459 0.0219,0.02593 0.0279,0.06303 0.0311,0.09674 0.003,0.02822 0.008,0.07324 0.005,0.109626 -0.005,0.03646 -0.0276,0.106699 -0.0276,0.106699 0,0 -0.39761,0.101775 -0.60034,0.130153 -0.21746,0.0305 -0.47975,0.04279 -0.6572,0.04279 -0.65648,-0.0079 -1.41209,-0.09347 -2.14631,-0.48367 l -0.59917,1.209462 c 0.85516,0.445925 1.75626,0.616693 2.78417,0.632582 0.44416,-0.0045 0.8825,-0.07187 1.26223,-0.150084 0.14143,-0.02905 0.2646,-0.06635 0.38752,-0.102014 0.11828,-0.03422 0.23697,-0.06598 0.33534,-0.13367 0.19281,-0.135732 0.31079,-0.30681 0.40453,-0.482492 0.13722,-0.257216 0.20229,-0.538389 0.20753,-0.850672 -0.009,-0.589265 -0.20699,-0.887294 -0.51533,-1.190114 -0.4195,-0.412022 -1.13509,-0.534622 -1.63098,-0.671275 -0.26804,-0.07387 -0.54313,-0.158279 -0.81491,-0.236852 -0.15518,-0.04477 -0.31384,-0.07963 -0.46607,-0.133667 -0.18634,-0.06606 -0.41638,-0.08215 -0.54582,-0.231576 -0.051,-0.05889 -0.061,-0.148439 -0.0598,-0.226294 3.8e-4,-0.04267 0.037,-0.122533 0.037,-0.122533 0,0 0.7721,-0.195176 1.16607,-0.190534 0.67011,0.0086 1.49652,0.151172 1.97513,0.375209 l 0.51591,-1.240534 c -0.71782,-0.309314 -1.48329,-0.476634 -2.32981,-0.476634 z m 21.0117,0 c -0.27589,0 -0.61451,0.0279 -0.91868,0.07153 -0.22459,0.03217 -0.44625,0.08353 -0.66599,0.140114 -0.15351,0.03958 -0.31725,0.06038 -0.45494,0.138946 -0.11594,0.06612 -0.19788,0.152961 -0.29606,0.269682 -0.26171,0.311118 -0.41244,0.867892 -0.35703,1.320267 0.0476,0.389101 0.24395,0.708607 0.57219,1.027133 0.0997,0.09189 0.29417,0.199911 0.45553,0.272028 0.22864,0.102126 0.4774,0.150531 0.717,0.223364 0.11299,0.03434 0.22618,0.0675 0.33945,0.100844 0.17624,0.05186 0.35298,0.102887 0.52939,0.154187 0.29775,0.08662 0.59741,0.16692 0.89346,0.259128 0.11756,0.0367 0.24686,0.05843 0.35,0.116668 0.05,0.02821 0.0808,0.08167 0.11784,0.125459 0.0219,0.02593 0.0279,0.06303 0.0311,0.09674 0.003,0.02822 0.008,0.07324 0.005,0.109626 -0.005,0.03646 -0.0276,0.106699 -0.0276,0.106699 0,0 -0.39761,0.101775 -0.60034,0.130153 -0.21746,0.0305 -0.47974,0.04279 -0.65719,0.04279 -0.65649,-0.0079 -1.4121,-0.09347 -2.14632,-0.48367 l -0.59917,1.209462 c 0.85516,0.445925 1.75627,0.616693 2.78418,0.632582 0.44416,-0.0045 0.8825,-0.07187 1.26222,-0.150084 0.14143,-0.02905 0.26461,-0.06635 0.38753,-0.102014 0.11827,-0.03422 0.23697,-0.06598 0.33533,-0.13367 0.19282,-0.135732 0.31079,-0.30681 0.40453,-0.482492 0.13723,-0.257216 0.20229,-0.538389 0.20754,-0.850672 -0.009,-0.589265 -0.20698,-0.887294 -0.51533,-1.190114 -0.4195,-0.412022 -1.13509,-0.534622 -1.63099,-0.671275 -0.26803,-0.07387 -0.54313,-0.158279 -0.8149,-0.236852 -0.15519,-0.04477 -0.31385,-0.07963 -0.46608,-0.133667 -0.18633,-0.06606 -0.41637,-0.08215 -0.54581,-0.231576 -0.0511,-0.05889 -0.061,-0.148439 -0.0598,-0.226294 3e-4,-0.04267 0.037,-0.122533 0.037,-0.122533 0,0 0.7721,-0.195176 1.16609,-0.190534 0.67009,0.0086 1.49651,0.151172 1.97512,0.375209 l 0.51591,-1.240534 c -0.71783,-0.309314 -1.4833,-0.476634 -2.32981,-0.476634 z m -7.57746,0.04455 c -0.3784,-0.01925 -0.99287,0.05482 -1.4727,0.175879 -0.61045,0.154022 -1.05292,0.366415 -1.05292,0.366415 l 0.54698,1.219427 c 0,0 0.34852,-0.192926 0.97906,-0.320686 0.18407,-0.0373 0.45338,-0.07218 0.68182,-0.09087 0.14125,-0.01145 0.28283,-0.01765 0.42446,-0.01289 0.11488,0.004 0.23405,-0.0016 0.34355,0.03342 0.30677,0.09795 0.64913,0.219581 0.83835,0.480148 0.077,0.105995 0.15724,0.304429 0.1841,0.470769 0.0175,0.108389 -0.0176,0.328895 -0.0176,0.328895 0,0 -0.30186,-0.132705 -0.68358,-0.223368 -0.31964,-0.07591 -0.70118,-0.115516 -0.95268,-0.08793 -0.2381,0.02609 -0.47618,0.05215 -0.71817,0.110806 -0.64168,0.155516 -1.26966,0.4729 -1.69196,0.947405 -0.20578,0.231216 -0.2713,0.566584 -0.26558,0.869431 0.005,0.229504 0.0824,0.470823 0.22571,0.650163 0.12501,0.156423 0.26544,0.277316 0.42211,0.385763 0.33184,0.229667 0.71121,0.422368 1.07932,0.548742 0.45901,0.157599 0.96415,0.189129 1.44807,0.152427 0.39784,-0.03018 1.15786,-0.303096 1.15786,-0.303096 v 0.150083 h 1.35252 v -3.456612 c 0,-0.708523 -0.35298,-1.312063 -0.86826,-1.755863 -0.51527,-0.443795 -1.24104,-0.601859 -1.96047,-0.638439 z m 23.19378,0.0028 c -0.8465,0 -1.56142,0.294284 -2.14456,0.8835 -0.58314,0.589208 -0.8747,1.304527 -0.8747,2.145139 0,0.832748 0.29156,1.543624 0.8747,2.132829 0.58314,0.58921 1.29806,0.8835 2.14456,0.8835 0.83709,0 1.54733,-0.29429 2.13048,-0.8835 0.59255,-0.589205 0.88878,-1.300081 0.88878,-2.132829 0,-0.840612 -0.29623,-1.555931 -0.88878,-2.145139 -0.58315,-0.589216 -1.29339,-0.8835 -2.13048,-0.8835 z m 14.88583,0.0059 v 3.027471 c 0,0 0.0183,0.466704 0.0838,0.688271 0.1274,0.430548 0.31245,0.857981 0.59037,1.210641 0.25023,0.317532 0.57582,0.587259 0.93567,0.77152 0.40813,0.208976 0.97304,0.318159 1.33082,0.349413 0.30519,0.02663 0.76839,-0.05151 1.13266,-0.187605 0.3626,-0.135472 0.62672,-0.328894 0.62672,-0.328894 v 0.351172 h 1.3314 v -5.881979 h -1.3314 l -0.008,3.183418 c 0,0 -0.0247,0.199379 -0.10551,0.414486 -0.0765,0.203414 -0.20524,0.419546 -0.3242,0.540538 -0.10937,0.111169 -0.22552,0.226041 -0.3629,0.311889 -0.25145,0.157141 -0.5495,0.247171 -0.83484,0.252093 -0.24983,0.0042 -0.51718,-0.0452 -0.75219,-0.156532 -0.20349,-0.09642 -0.38042,-0.242807 -0.5329,-0.396313 -0.11481,-0.115576 -0.25319,-0.326169 -0.32715,-0.527641 -0.0969,-0.263871 -0.11197,-0.512394 -0.11197,-0.512394 v -3.109544 z m -6.19916,0.0041 c -0.27618,0.01721 -0.60502,0.08671 -0.87822,0.188777 -0.3626,0.135476 -0.62672,0.328306 -0.62672,0.328306 v -0.351174 h -1.3314 v 5.882576 h 1.3314 l 0.008,-3.184002 c 0,0 0.0247,-0.199379 0.1055,-0.414486 0.0764,-0.203414 0.20523,-0.419546 0.32421,-0.540538 0.10936,-0.111169 0.2255,-0.226041 0.3629,-0.311889 0.25145,-0.15714 0.5495,-0.247174 0.83483,-0.252097 0.24983,-0.0042 0.51718,0.0452 0.75218,0.156535 0.20351,0.09642 0.38042,0.243392 0.53292,0.396898 0.11481,0.115576 0.25317,0.325585 0.32713,0.527054 0.0969,0.263874 0.11197,0.512392 0.11197,0.512392 v 3.110133 h 1.34021 v -3.028044 c 0,0 -0.0183,-0.46612 -0.0838,-0.687687 -0.12741,-0.430548 -0.31245,-0.857974 -0.59036,-1.210633 -0.25025,-0.317542 -0.57588,-0.587848 -0.93569,-0.772111 -0.40812,-0.208976 -0.97303,-0.318157 -1.33081,-0.349415 -0.0763,-0.0067 -0.16236,-0.0064 -0.25444,-3.9e-4 z m -8.72712,1.340787 c 0.39516,-0.01089 0.82,0.138168 1.11683,0.399246 0.31623,0.278107 0.53762,0.706061 0.57395,1.125627 0.0363,0.418761 -0.0956,0.887374 -0.37052,1.205356 -0.30539,0.353204 -0.79892,0.591237 -1.26574,0.600918 -0.47612,0.0099 -0.99303,-0.207795 -1.31499,-0.558707 -0.27655,-0.301424 -0.40408,-0.75823 -0.38107,-1.166666 0.0234,-0.414267 0.21933,-0.843682 0.51709,-1.132662 0.29186,-0.283262 0.71789,-0.46191 1.12445,-0.473112 z m -23.20257,2.330982 c 0.24265,-0.0016 0.60352,0.0474 0.89522,0.162983 0.33277,0.131866 0.58215,0.332409 0.58215,0.332409 0,0 -0.25016,0.194941 -0.56867,0.324793 -0.29021,0.118311 -0.63801,0.17256 -0.88174,0.172359 -0.24718,-2.07e-4 -0.66996,-0.07925 -0.96206,-0.199914 -0.30901,-0.127644 -0.48074,-0.297238 -0.48074,-0.297238 0,0 0.20161,-0.17705 0.53527,-0.311889 0.27149,-0.109717 0.65621,-0.181899 0.88057,-0.183503 z"
       style="opacity:1;fill:#000000;fill-opacity:1;stroke:none;stroke-width:0.0189498;stroke-opacity:1"
       id="path37133" />
    <path
       id="path31013"
       style="opacity:1;fill:#ffffff;fill-opacity:1;stroke-width:0.0179164"
       d="m 214.89325,18.279558 c -0.11406,0.0024 -0.21914,0.009 -0.30545,0.02053 -0.0475,0.0064 -0.14629,0.01909 -0.21926,0.02872 -0.14462,0.01909 -0.3056,0.05405 -0.45963,0.09967 -0.0542,0.01609 -0.1151,0.03314 -0.13543,0.03811 -0.0939,0.02165 -0.36291,0.12659 -0.53408,0.208713 -0.23144,0.11101 -0.3705,0.189639 -0.56751,0.320687 l -0.15184,0.100833 0.10256,0.141881 c 0.0562,0.07812 0.23783,0.328251 0.40394,0.555777 l 0.30193,0.413901 0.0433,-0.03342 c 0.12855,-0.09896 0.43773,-0.263616 0.63608,-0.338862 0.20712,-0.07858 0.32679,-0.111509 0.55462,-0.151843 0.18041,-0.03198 0.22195,-0.03482 0.48132,-0.03402 0.25303,9.01e-4 0.30398,0.0047 0.46725,0.03458 0.18169,0.03326 0.41938,0.0955 0.5464,0.143048 0.0364,0.01359 0.16383,0.0725 0.28316,0.130738 0.20874,0.101911 0.21751,0.107527 0.2392,0.15712 0.0526,0.120039 0.0619,0.292089 0.0217,0.409799 -0.0163,0.0479 -0.0242,0.05265 -0.25092,0.168842 -0.33456,0.171461 -0.64619,0.267169 -0.9984,0.306032 -0.061,0.0068 -0.31216,0.01233 -0.55813,0.01233 h -0.44732 v 0.682998 0.683586 l 0.50888,0.0059 c 0.47845,0.0058 0.52015,0.0082 0.69647,0.0387 0.32855,0.05687 0.5077,0.105349 0.7686,0.207535 0.22253,0.08716 0.2602,0.105338 0.30838,0.150084 0.28023,0.260209 0.37561,0.641037 0.24564,0.981406 -0.0719,0.18843 -0.22607,0.379615 -0.34648,0.429149 -0.0361,0.01479 -0.10131,0.04158 -0.14539,0.0598 -0.55466,0.228848 -1.11996,0.309089 -1.72773,0.245646 -0.53699,-0.05606 -1.12217,-0.269011 -1.55126,-0.565156 -0.0773,-0.05331 -0.0919,-0.05992 -0.10607,-0.04455 -0.0351,0.0379 -0.76423,1.067722 -0.7686,1.085174 -0.006,0.0226 0.0918,0.09372 0.31014,0.225713 0.70394,0.425581 1.5647,0.673528 2.39372,0.690617 0.0678,0.0012 0.18696,8.99e-4 0.26499,-0.0012 0.12347,-0.0036 0.21058,-0.01149 0.5118,-0.0469 0.28846,-0.03394 0.79779,-0.164065 1.06056,-0.271441 0.075,-0.03062 0.17074,-0.06939 0.21281,-0.08559 0.11392,-0.04385 0.29487,-0.136607 0.39045,-0.200506 0.10358,-0.0692 0.28376,-0.238432 0.39983,-0.375208 0.26118,-0.307739 0.45358,-0.748125 0.51065,-1.169011 0.0206,-0.15217 0.006,-0.575886 -0.0252,-0.721689 -0.10641,-0.498482 -0.33894,-0.911536 -0.69999,-1.242882 l -0.0862,-0.07915 0.0779,-0.09791 c 0.0774,-0.09737 0.19893,-0.285204 0.24916,-0.384587 0.0866,-0.171204 0.16977,-0.474378 0.18643,-0.680068 0.0389,-0.479478 -0.0786,-0.925064 -0.34766,-1.317335 -0.0754,-0.11 -0.0987,-0.133622 -0.19288,-0.198158 -0.1836,-0.12577 -0.5593,-0.332832 -0.7299,-0.402176 -0.21176,-0.08607 -0.50489,-0.181854 -0.64841,-0.212231 -0.081,-0.0172 -0.1668,-0.03658 -0.19053,-0.04279 -0.22066,-0.05711 -0.64156,-0.08822 -0.98375,-0.0809 z m 10.19689,0.03166 c -0.99523,0 -1.70696,0.441657 -2.27998,1.122697 -0.573,0.673734 -0.94975,1.495805 -0.94975,2.667502 0,1.032563 0.32683,1.867748 0.83953,2.570767 0.35201,0.486559 0.81676,0.845268 1.32612,1.049408 0.34162,0.136912 0.70303,0.199863 1.06408,0.202265 0.81332,0.0054 1.61131,-0.39973 2.1768,-1.102767 0.57301,-0.710343 0.95619,-1.592209 0.95619,-2.741955 0,-1.127743 -0.35864,-1.950991 -0.93919,-2.639358 -0.57302,-0.695695 -1.25888,-1.128559 -2.1938,-1.128559 z m 9.72553,0 c -0.99523,0 -1.70696,0.441657 -2.27998,1.122697 -0.573,0.673734 -0.95034,1.495805 -0.95034,2.667502 0,1.032563 0.32684,1.867748 0.83954,2.570767 0.35201,0.486559 0.81735,0.845268 1.32672,1.049408 0.3416,0.136912 0.70301,0.199863 1.06406,0.202265 0.81333,0.0054 1.61133,-0.39973 2.1768,-1.102767 0.57301,-0.710343 0.95619,-1.592209 0.95619,-2.741955 0,-1.127743 -0.35922,-1.950991 -0.93977,-2.639358 -0.57303,-0.695695 -1.2583,-1.128559 -2.19322,-1.128559 z m -9.73374,1.377722 c 0.56548,0 0.95486,0.340351 1.26399,0.779726 0.23972,0.332634 0.41082,0.767972 0.48425,1.208294 0.0233,0.141317 0.0217,0.28547 0.0287,0.423868 0.0172,0.336244 -0.0621,0.708686 -0.17472,1.042376 -0.0379,0.112099 -0.0965,0.224309 -0.15418,0.331828 -0.0453,0.08454 -0.0938,0.167974 -0.15009,0.245646 -0.12533,0.17292 -0.24008,0.365364 -0.41507,0.487772 -0.25476,0.17822 -0.44359,0.324204 -0.87471,0.324204 -0.28244,0 -0.53641,-0.0573 -0.75393,-0.182334 -0.22379,-0.128627 -0.40956,-0.327681 -0.57395,-0.550498 -0.32422,-0.446709 -0.52237,-0.915422 -0.52237,-1.698994 0,-0.776256 0.24682,-1.283061 0.57103,-1.722443 0.3242,-0.439394 0.698,-0.689445 1.27102,-0.689445 z m 9.72554,0 c 0.56547,0 0.95427,0.340351 1.2634,0.779726 0.23972,0.332634 0.4114,0.767972 0.48483,1.208294 0.0233,0.141317 0.0217,0.28547 0.0287,0.423868 0.0172,0.336244 -0.0621,0.708686 -0.1747,1.042376 -0.0379,0.112099 -0.0966,0.224309 -0.15419,0.331828 -0.0453,0.08454 -0.0938,0.167974 -0.1501,0.245646 -0.12533,0.17292 -0.24008,0.365364 -0.41506,0.487772 -0.25476,0.17822 -0.44359,0.324204 -0.87471,0.324204 -0.28244,0 -0.53641,-0.0573 -0.75393,-0.182334 -0.22379,-0.128627 -0.40956,-0.327681 -0.57396,-0.550498 -0.3242,-0.446709 -0.52235,-0.915422 -0.52235,-1.698994 0,-0.776256 0.24681,-1.283061 0.57102,-1.722443 0.32418,-0.439394 0.69799,-0.689445 1.27101,-0.689445 z m 13.7772,0.62906 c -0.43786,0 -0.88054,0.134337 -1.27102,0.332412 -0.17333,0.08792 -0.40444,0.259242 -0.58686,0.414488 -0.11004,0.0937 -0.30368,0.309548 -0.30368,0.309548 0,0 -0.35381,-0.435708 -0.87938,-0.725207 -0.39034,-0.214999 -0.9147,-0.298972 -1.2511,-0.328308 -0.28693,-0.025 -0.72276,0.0485 -1.06524,0.176465 -0.34091,0.12736 -0.5892,0.308956 -0.5892,0.308956 V 20.47629 h -1.25167 v 5.53023 h 1.25167 l 0.008,-2.993462 c 0,0 0.023,-0.187623 0.0991,-0.389867 0.0718,-0.191251 0.19359,-0.393955 0.30545,-0.507706 0.10278,-0.10452 0.21202,-0.212407 0.34119,-0.293131 0.23642,-0.14773 0.51674,-0.232794 0.78501,-0.237438 0.23489,-0.004 0.48551,0.04247 0.70645,0.147154 0.19134,0.09063 0.35788,0.228523 0.50126,0.372865 0.10789,0.108661 0.23825,0.306569 0.30779,0.495975 0.0911,0.248106 0.10551,0.481912 0.10551,0.481912 v 2.923698 h 1.25988 v -2.846898 c 0,0 -0.006,-0.255808 0.0891,-0.514744 0.0949,-0.260593 0.28989,-0.524743 0.45025,-0.672441 0.19926,-0.183516 0.46099,-0.303084 0.73576,-0.357036 0.10948,-0.02098 0.22655,-0.01822 0.33418,-0.02639 0.22734,-0.0172 0.55495,0.08635 0.8278,0.266747 0.18872,0.124779 0.33687,0.295568 0.46549,0.450836 0.17377,0.209777 0.25678,0.776217 0.25678,0.776217 v 2.923695 h 1.27044 l -0.0235,-3.053848 c 0,0 -0.013,-0.24729 -0.0914,-0.53995 -0.0846,-0.316048 -0.21968,-0.621577 -0.41331,-0.882325 -0.24817,-0.334213 -0.56269,-0.636932 -0.92923,-0.834256 -0.43842,-0.23604 -0.9472,-0.378141 -1.44514,-0.378141 z" />
  </g>
</svg>
