<svg width="83.758mm" height="76.634mm" version="1.1" viewBox="0 0 83.758 76.634" xmlns="http://www.w3.org/2000/svg"><g transform="translate(-189.86 42.268)"><path d="m189.86-42.268h83.758v76.634h-83.758z" fill="#00408c" stroke-linecap="square" stroke-width="1.665" style="paint-order:fill markers stroke"/><path d="m195.03-41.226c-2.2615 0-4.1068 1.8453-4.1068 4.1068v66.37c0 2.2615 1.8453 4.1068 4.1068 4.1068h73.418c2.2615 0 4.1064-1.8453 4.1064-4.1068v-66.37c0-2.2615-1.8449-4.1068-4.1064-4.1068zm0 1.5637h73.418c1.4223 0 2.5427 1.1209 2.5427 2.5431v66.37c0 1.4223-1.1204 2.5431-2.5427 2.5431h-73.418c-1.4223 0-2.5431-1.1209-2.5431-2.5431v-66.37c0-1.4223 1.1208-2.5431 2.5431-2.5431z" color="#000000" color-rendering="auto" dominant-baseline="auto" enable-background="accumulate" fill="#fff" image-rendering="auto" shape-rendering="auto" solid-color="#000000" stop-color="#000000" style="font-feature-settings:normal;font-variant-alternates:normal;font-variant-caps:normal;font-variant-east-asian:normal;font-variant-ligatures:normal;font-variant-numeric:normal;font-variant-position:normal;font-variation-settings:normal;inline-size:0;isolation:auto;mix-blend-mode:normal;paint-order:fill markers stroke;shape-margin:0;shape-padding:0;text-decoration-color:#000000;text-decoration-line:none;text-decoration-style:solid;text-indent:0;text-orientation:mixed;text-transform:none;white-space:normal"/><g transform="matrix(-.2237 0 0 .2237 188.48 .071286)" fill="#fff" fill-rule="evenodd" shape-rendering="auto" stroke-width="4.4702"><path d="m-126.37-12.199h87.587c3.423 0 6.233 2.6593 6.233 6.0705v54.248c0 3.4112-2.4254 5.8247-5.8484 5.8247l-88.123-4.95e-4c-3.423-1.9e-5 -5.829-2.7839-5.829-6.1951v-53.927c0-3.4112 2.5575-6.0207 5.9805-6.0207z" color="#000000" color-rendering="auto" dominant-baseline="auto" enable-background="accumulate" image-rendering="auto" solid-color="#000000" stop-color="#000000" style="font-feature-settings:normal;font-variant-alternates:normal;font-variant-caps:normal;font-variant-east-asian:normal;font-variant-ligatures:normal;font-variant-numeric:normal;font-variant-position:normal;font-variation-settings:normal;inline-size:0;isolation:auto;mix-blend-mode:normal;shape-margin:0;shape-padding:0;text-decoration-color:#000000;text-decoration-line:none;text-decoration-style:solid;text-indent:0;text-orientation:mixed;text-transform:none;white-space:normal"/><path d="m-238.01-12.199h87.587c3.423 0 6.233 2.6593 6.233 6.0705v54.248c0 3.4112-2.4254 5.8247-5.8484 5.8247l-88.123-4.95e-4c-3.423-1.9e-5 -5.829-2.7839-5.829-6.1951v-53.927c0-3.4112 2.5575-6.0207 5.9805-6.0207z" color="#000000" color-rendering="auto" dominant-baseline="auto" enable-background="accumulate" image-rendering="auto" solid-color="#000000" stop-color="#000000" style="font-feature-settings:normal;font-variant-alternates:normal;font-variant-caps:normal;font-variant-east-asian:normal;font-variant-ligatures:normal;font-variant-numeric:normal;font-variant-position:normal;font-variation-settings:normal;inline-size:0;isolation:auto;mix-blend-mode:normal;shape-margin:0;shape-padding:0;text-decoration-color:#000000;text-decoration-line:none;text-decoration-style:solid;text-indent:0;text-orientation:mixed;text-transform:none;white-space:normal"/><path d="m-349.38-12.199h87.587c3.423 0 6.233 2.6593 6.233 6.0705v54.248c0 3.4112-2.4254 5.8247-5.8484 5.8247l-88.123-4.95e-4c-3.423-1.9e-5 -5.829-2.7839-5.829-6.1951v-53.927c0-3.4112 2.5575-6.0207 5.9805-6.0207z" color="#000000" color-rendering="auto" dominant-baseline="auto" enable-background="accumulate" image-rendering="auto" solid-color="#000000" stop-color="#000000" style="font-feature-settings:normal;font-variant-alternates:normal;font-variant-caps:normal;font-variant-east-asian:normal;font-variant-ligatures:normal;font-variant-numeric:normal;font-variant-position:normal;font-variation-settings:normal;inline-size:0;isolation:auto;mix-blend-mode:normal;shape-margin:0;shape-padding:0;text-decoration-color:#000000;text-decoration-line:none;text-decoration-style:solid;text-indent:0;text-orientation:mixed;text-transform:none;white-space:normal"/></g><g fill-rule="evenodd"><path d="m216.72-2.2785c0.54687 0 0.99408 0.44723 0.99408 0.99409v12.049c0 0.54686-0.44721 0.99409-0.99408 0.99409h-19.583c-0.54684 0-0.99407-0.44723-0.99407-0.99409v-12.049c0-0.54685 0.44723-0.99409 0.99407-0.99409zm0 0.44588h-19.583c-0.30753 0-0.54819 0.24066-0.54819 0.54821v12.049c0 0.30755 0.24066 0.54821 0.54819 0.54821h19.583c0.30756 0 0.54822-0.24066 0.54822-0.54821v-12.049c0-0.30755-0.24066-0.54821-0.54822-0.54821z" color="#000000" color-rendering="auto" dominant-baseline="auto" enable-background="accumulate" image-rendering="auto" shape-rendering="auto" solid-color="#000000" stop-color="#000000" style="font-feature-settings:normal;font-variant-alternates:normal;font-variant-caps:normal;font-variant-east-asian:normal;font-variant-ligatures:normal;font-variant-numeric:normal;font-variant-position:normal;font-variation-settings:normal;inline-size:0;isolation:auto;mix-blend-mode:normal;shape-margin:0;shape-padding:0;text-decoration-color:#000000;text-decoration-line:none;text-decoration-style:solid;text-indent:0;text-orientation:mixed;text-transform:none;white-space:normal"/><path d="m210.91 0.75869v0h-0.34922c-0.032 0-0.0635 0.00147-0.0946 0.00363h-2.0735c-0.0435 0-0.0784 0.048658-0.0795 0.10971h-6e-5v0.00204c0 3.006e-4 -4e-5 9.007e-4 -4e-5 0.00147v0.87339c0 0.00272 8e-5 0.00545 2.9e-4 0.00817l4e-4 1.8373c0 0.022088-1e-3 0.043791-3e-3 0.064984h-8.4315c-0.0317 0-0.0572 0.036065-0.0572 0.08081v2.6219c0 0.24423 0.139 0.44084 0.31167 0.44084h0.87908c-1e-3 -0.028816-2e-3 -0.0577-2e-3 -0.086562l1.6e-4 -0.013682c0.0119-0.79644 0.6613-1.4356 1.4578-1.4349 6e-3 2.3e-6 0.0113 4.77e-5 0.017 1.588e-4 0.80309 0.010097 1.4465 0.66836 1.4383 1.4715-1.7e-4 0.021226-8.1e-4 0.042419-2e-3 0.063599h6.4218c-1e-3 -0.028816-2e-3 -0.0577-2e-3 -0.086562l8e-5 -0.013682c0.0119-0.79644 0.6613-1.4356 1.4578-1.4349 6e-3 5.7e-6 0.0113 4.76e-5 0.017 8.05e-5 0.8031 0.010097 1.4465 0.66836 1.4383 1.4715-1.9e-4 0.021226-8.2e-4 0.042419-2e-3 0.063599h0.51491c0.17267 0 0.31167-0.19662 0.31167-0.44084v-2.4707c0-0.24423-0.14941-0.42783-0.32208-0.46423l-1.0181-0.36133-0.97596-1.8383-8.1e-4 -7.48e-5c-0.10506-0.27087-0.44571-0.46831-0.85222-0.46831zm-1.7252 0.61026h1.5577c0.37747 0 0.53318 0.27575 0.75673 0.69694 0.0293 0.055159 0.121 0.234 0.20457 0.41876 0.0144 0.0042 0.0175 0.026774 0.0294 0.048182l0.39726 0.71518c0.0133 0.023802-0.0282 0.095025-0.0475 0.095025h-2.4458c-1.6e-4 0-3.1e-4 -5.44e-5 -4e-4 -5.44e-5h-0.45174zm-6.7115 4.1079c-0.69378 0-1.2618 0.56886-1.2618 1.26 0 0.69073 0.56802 1.2603 1.2618 1.2603 0.69379 0 1.2621-0.56963 1.2621-1.2603 0-0.69072-0.56833-1.26-1.2621-1.26zm9.331 0c-0.69379 0-1.2618 0.56886-1.2618 1.26 0 0.69073 0.568 1.2603 1.2618 1.2603 0.69381 0 1.2622-0.56963 1.2622-1.2603 0-0.69072-0.56833-1.26-1.2622-1.26z" stroke-linecap="round" stroke-opacity=".52227" stroke-width="3.9688"/><path d="m241.7-2.2785c0.54685 0 0.99408 0.44723 0.99408 0.99409v12.049c0 0.54686-0.44723 0.99409-0.99408 0.99409h-19.583c-0.54686 0-0.99408-0.44723-0.99408-0.99409v-12.049c0-0.54685 0.44722-0.99409 0.99408-0.99409zm0 0.44588h-19.583c-0.30755 0-0.54821 0.24066-0.54821 0.54821v12.049c0 0.30755 0.24066 0.54821 0.54821 0.54821h19.583c0.30754 0 0.5482-0.24066 0.5482-0.54821v-12.049c0-0.30755-0.24066-0.54821-0.5482-0.54821z" color="#000000" color-rendering="auto" dominant-baseline="auto" enable-background="accumulate" image-rendering="auto" shape-rendering="auto" solid-color="#000000" stop-color="#000000" style="font-feature-settings:normal;font-variant-alternates:normal;font-variant-caps:normal;font-variant-east-asian:normal;font-variant-ligatures:normal;font-variant-numeric:normal;font-variant-position:normal;font-variation-settings:normal;inline-size:0;isolation:auto;mix-blend-mode:normal;shape-margin:0;shape-padding:0;text-decoration-color:#000000;text-decoration-line:none;text-decoration-style:solid;text-indent:0;text-orientation:mixed;text-transform:none;white-space:normal"/><path d="m266.61-2.2785c0.54686 0 0.99408 0.44723 0.99408 0.99409v12.049c0 0.54686-0.44722 0.99409-0.99408 0.99409h-19.583c-0.54684 0-0.99407-0.44723-0.99407-0.99409v-12.049c0-0.54685 0.44723-0.99409 0.99407-0.99409zm0 0.44588h-19.583c-0.30753 0-0.54819 0.24066-0.54819 0.54821v12.049c0 0.30755 0.24066 0.54821 0.54819 0.54821h19.583c0.30755 0 0.54821-0.24066 0.54821-0.54821v-12.049c0-0.30755-0.24066-0.54821-0.54821-0.54821z" color="#000000" color-rendering="auto" dominant-baseline="auto" enable-background="accumulate" image-rendering="auto" shape-rendering="auto" solid-color="#000000" stop-color="#000000" style="font-feature-settings:normal;font-variant-alternates:normal;font-variant-caps:normal;font-variant-east-asian:normal;font-variant-ligatures:normal;font-variant-numeric:normal;font-variant-position:normal;font-variation-settings:normal;inline-size:0;isolation:auto;mix-blend-mode:normal;shape-margin:0;shape-padding:0;text-decoration-color:#000000;text-decoration-line:none;text-decoration-style:solid;text-indent:0;text-orientation:mixed;text-transform:none;white-space:normal"/><path d="m234.96 0.75585v5.184h-11.119v-5.184zm3.2232 1.7502 0.93359 2.3575v2.6481h-0.56405s7e-3 -0.17164-0.0558-0.39081c-0.0521-0.1844-0.15622-0.40065-0.3147-0.59277-0.1322-0.16027-0.33326-0.29191-0.54065-0.38431-0.21384-0.095275-0.38862-0.14188-0.59206-0.14996-0.1485-0.0059-0.30103 0.020863-0.4395 0.074808-0.2783 0.10846-0.56789 0.2517-0.75218 0.48712-0.14673 0.18743-0.24345 0.40801-0.29083 0.59466-0.0511 0.20089-0.047 0.36126-0.047 0.36126h-6.8273s-5e-3 -0.080605-0.0212-0.20102c-0.0171-0.12096-0.0542-0.26381-0.0912-0.35382-0.0394-0.095967-0.11277-0.23216-0.19167-0.33975-0.0509-0.069544-0.10313-0.12802-0.13898-0.1658-0.0277-0.029145-0.0455-0.045969-0.0455-0.045969h7.2151v-3.8992zm-0.14204 0.64453h-2.1512v1.5008h2.745zm-1.0061 3.2148c0.63035 0 1.1464 0.51711 1.1464 1.1448 0 0.62766-0.51606 1.145-1.1464 1.145-0.63036 0-1.1467-0.51735-1.1467-1.145 0-0.62766 0.5163-1.1448 1.1467-1.1448zm-9.8572 0c0.63035 0 1.1464 0.51711 1.1464 1.1448 0 0.62766-0.51607 1.145-1.1464 1.145-0.63035 0-1.1468-0.51735-1.1468-1.145 0-0.62766 0.51642-1.1448 1.1468-1.1448zm-1.0353 0.039821s-0.0943 0.088694-0.18459 0.21189c-0.0789 0.10758-0.15214 0.2439-0.19156 0.33987-0.037 0.089999-0.0744 0.23238-0.0916 0.35334-0.0174 0.12041-0.0137 0.21957-0.0137 0.21957l-1.8196-0.59206v-0.53262zm10.893 0.59549c-0.28322 0-0.5078 0.22332-0.5078 0.50945 0 0.28612 0.22458 0.50981 0.5078 0.50981s0.50756-0.22368 0.50756-0.50981c0-0.28613-0.22434-0.50945-0.50756-0.50945zm-9.8572 0c-0.28321 0-0.5078 0.22332-0.5078 0.50945 0 0.28612 0.22459 0.50981 0.5078 0.50981 0.28322 0 0.50757-0.22368 0.50757-0.50981 0-0.28613-0.22435-0.50945-0.50757-0.50945z"/><path d="m261.37 1.9273v2.9616h-2.5828v0.60198h-10.388v-3.5636zm2.1244 1.162 0.59931 1.4553v2.0842h-0.35055s5e-3 -0.1194-0.0388-0.27193c-0.0362-0.12833-0.10868-0.27875-0.21901-0.41245-0.092-0.11153-0.23196-0.20314-0.37629-0.26744-0.14881-0.066288-0.27039-0.098723-0.41197-0.10435-0.10335-0.00408-0.20993 0.013478-0.30589 0.05205-0.1868 0.075081-0.37169 0.17509-0.49993 0.33891-0.10211 0.13043-0.16943 0.28388-0.20241 0.41378-0.0355 0.1398-0.0327 0.25142-0.0327 0.25142h-0.15569s-0.0113-0.14071-0.0542-0.28492c-0.0369-0.12339-0.0965-0.24108-0.199-0.36742-0.10914-0.13464-0.27482-0.23742-0.43901-0.3013-0.12534-0.04876-0.22924-0.079891-0.34778-0.075228-0.20489 0.00805-0.39376 0.057995-0.58924 0.17692-0.10642 0.064734-0.18338 0.1612-0.25203 0.24378-0.23021 0.27697-0.21562 0.60817-0.21562 0.60817h-0.39158v-1.5272h2.5679v-2.0122zm-0.14986 0.42822h-1.51v0.96116h1.9086zm-4.5573 2.183v0.92827h-3.4666s1e-3 -0.087208-0.0251-0.19645c-0.0289-0.12145-0.0875-0.27006-0.14075-0.35614-0.0486-0.078303-0.13419-0.1862-0.22267-0.26089-0.0874-0.073719-0.17776-0.11479-0.17776-0.11479zm-4.9857 0s-0.10505 0.053173-0.20264 0.1342c-0.0822 0.068319-0.15468 0.159-0.19901 0.22861-0.0553 0.086834-0.11775 0.23717-0.14804 0.361-0.0277 0.11336-0.0256 0.20446-0.0256 0.20446h-0.14986s6e-3 -0.087072-0.0196-0.19549c-0.0278-0.11827-0.0889-0.2619-0.14052-0.34534-0.0461-0.07457-0.12541-0.1808-0.21138-0.25445-0.0996-0.085348-0.20373-0.13299-0.20373-0.13299zm-2.2382 0s-0.12047 0.058551-0.2314 0.15495c-0.083 0.072188-0.15493 0.17332-0.19875 0.24475-0.0506 0.082432-0.10301 0.21844-0.12887 0.33478-0.0231 0.10413-0.0222 0.19379-0.0222 0.19379h-1.3124l-1.2704-0.20956v-0.71871zm11.132 0.014884c0.50684 0 0.92184 0.41583 0.92184 0.92051 0 0.50467-0.415 0.92075-0.92184 0.92075-0.50685 0-0.92209-0.41607-0.92209-0.92075 0-0.50467 0.41524-0.92051 0.92209-0.92051zm-2.2542 0c0.50685 0 0.92172 0.41583 0.92172 0.92051 0 0.50467-0.41487 0.92075-0.92172 0.92075-0.50684 0-0.92209-0.41607-0.92209-0.92075 0-0.50467 0.41525-0.92051 0.92209-0.92051zm-6.1589 0c0.50684 0 0.92172 0.41583 0.92172 0.92051 0 0.50467-0.41488 0.92075-0.92172 0.92075s-0.92208-0.41607-0.92208-0.92075c0-0.50467 0.41524-0.92051 0.92208-0.92051zm-2.2543 0c0.50685 0 0.92186 0.41583 0.92186 0.92051 0 0.50467-0.41501 0.92075-0.92186 0.92075-0.50683 0-0.92195-0.41607-0.92195-0.92075 0-0.50467 0.41512-0.92051 0.92195-0.92051zm10.667 0.51085c-0.22772 0-0.40833 0.17959-0.40833 0.40965 0 0.23006 0.18061 0.4099 0.40833 0.4099 0.22771 0 0.40807-0.17983 0.40807-0.4099 0-0.23006-0.18036-0.40965-0.40807-0.40965zm-2.2542 0c-0.22772 0-0.40831 0.17959-0.40831 0.40965 0 0.23006 0.18059 0.4099 0.40831 0.4099 0.22773 0 0.40808-0.17983 0.40808-0.4099 0-0.23006-0.18035-0.40965-0.40808-0.40965zm-6.1589 0c-0.22772 0-0.40832 0.17959-0.40832 0.40965 0 0.23006 0.1806 0.4099 0.40832 0.4099s0.40807-0.17983 0.40807-0.4099c0-0.23006-0.18035-0.40965-0.40807-0.40965zm-2.2543 0c-0.22771 0-0.40819 0.17959-0.40819 0.40965 0 0.23006 0.18048 0.4099 0.40819 0.4099 0.22773 0 0.40809-0.17983 0.40809-0.4099 0-0.23006-0.18036-0.40965-0.40809-0.40965z"/></g><path d="m197.84-36.26h67.785c1.029 0 1.8574 0.82842 1.8574 1.8574v25.161c0 1.029-0.82842 1.8574-1.8574 1.8574h-67.785c-1.029 0-1.8574-0.82842-1.8574-1.8574v-25.161c0-1.029 0.82841-1.8574 1.8574-1.8574z" fill="#dd7500" fill-rule="evenodd" stroke-linecap="round" stroke-linejoin="round" stroke-miterlimit=".1" stroke-width=".8151"/><path d="m203.78-32.455v7.9744l2.0038 7e-3s1.4128-8.11e-4 1.5694-0.03106c0.0873-0.01669 0.1627-0.0291 0.1671-0.02874 5e-3 8.11e-4 0.0189-0.0028 0.0305-7e-3 0.0116-0.0045 0.0801-0.02429 0.153-0.04455 0.20882-0.05794 0.39925-0.12962 0.56575-0.2134 0.34743-0.17484 0.5402-0.31214 0.82077-0.58451 0.28618-0.2778 0.4711-0.53287 0.63727-0.87764 0.36013-0.74712 0.5133-1.9647 0.37697-2.9905-0.1223-0.92032-0.32939-1.4675-0.77036-2.0332-0.08-0.10255-0.39598-0.40775-0.5417-0.52294-0.21288-0.1683-0.66189-0.40354-0.90343-0.47312-0.0364-0.01055-0.11999-0.03518-0.18527-0.05511-0.0652-0.01985-0.17854-0.04481-0.2515-0.05628-0.0729-0.01145-0.16646-0.02842-0.20871-0.03751-0.0563-0.01213-0.52934-0.01873-1.7705-0.02169zm35.659 0.0047v2.2454h-1.2728v1.2804h1.2728l-0.0135 2.7783c-2e-3 0.4707 0.11163 0.78308 0.38167 1.1303 0.27779 0.34724 0.74081 0.58157 1.1884 0.58157 0.23921 0 0.6077-0.02021 1.0096-0.31834l-0.76918-1.0312s-0.0275 0.02601-0.0733 0.04279c-0.0562 0.02041-0.13698 0.0317-0.18467 0.02169-0.0916-0.01917-0.17126-0.09306-0.22162-0.17178-0.0263-0.04104-0.0328-0.14246-0.0328-0.14246v-2.8909h1.2816v-1.2804h-1.2816v-2.2454zm5.3145 0.15184v1.3068h1.3015v-1.3068zm-39.549 1.2816 0.95385 0.0047c1.0416 0.0048 1.0029 2e-3 1.2669 0.09087 0.12438 0.042 0.36387 0.15847 0.43266 0.21046 0.1867 0.14107 0.30266 0.25401 0.4098 0.39866 0.20555 0.27747 0.30444 0.54783 0.39279 1.0764 0.0816 0.48818 0.0746 1.2497-0.0152 1.6415-0.0115 0.04993-0.0301 0.1399-0.0416 0.19992-0.0914 0.47774-0.32771 0.8691-0.68944 1.1415-0.0499 0.03759-0.16959 0.10891-0.26558 0.1583-0.1677 0.08628-0.21532 0.10299-0.44733 0.15712-0.093 0.02182-0.20979 0.02497-1.0506 0.02929l-0.94623 0.0047zm51.621 0.52763c-0.46561 0-0.93606 0.14346-1.3513 0.3541-0.18429 0.09349-0.43039 0.27578-0.62437 0.44087-0.11707 0.09964-0.32303 0.32948-0.32303 0.32948s-0.37618-0.46425-0.9351-0.77211c-0.41507-0.22863-0.9725-0.31761-1.3302-0.34883-0.30513-0.02657-0.76905 0.05153-1.1332 0.1876-0.36254 0.13545-0.62613 0.3289-0.62613 0.3289v-0.35176h-1.3314v5.8814h1.3314l8e-3 -3.1834s0.0247-0.19883 0.10551-0.41391c0.0763-0.20338 0.20584-0.41957 0.32479-0.54053 0.10937-0.11116 0.22553-0.22605 0.36289-0.31189 0.25142-0.1571 0.54897-0.24713 0.83426-0.25209 0.24978-0.0042 0.51663 0.04522 0.75159 0.15653 0.20347 0.09639 0.38103 0.24282 0.53351 0.39632 0.11478 0.11556 0.25318 0.32622 0.32713 0.52764 0.0969 0.26385 0.11197 0.51239 0.11197 0.51239v3.109h1.3402v-3.0269s-6e-3 -0.27221 0.0944-0.54757c0.10085-0.27714 0.30842-0.55818 0.47897-0.71525 0.2119-0.19516 0.48987-0.32194 0.78208-0.37931 0.11642-0.02229 0.24081-0.01945 0.35527-0.02814 0.24177-0.01829 0.59042 0.09133 0.88056 0.28316 0.20071 0.1327 0.35867 0.31445 0.4954 0.47956 0.1848 0.22308 0.27262 0.82546 0.27262 0.82546v3.109h1.3513l-0.0252-3.2473s-0.014-0.26273-0.0973-0.57395c-0.0901-0.3361-0.23378-0.66132-0.43969-0.93861-0.26392-0.35541-0.59808-0.67718-0.98786-0.88702-0.46624-0.25101-1.0071-0.40276-1.5366-0.40276zm-32.505 0.01642c-0.27624 0.01721-0.6056 0.0873-0.8788 0.18936-0.3626 0.13547-0.62613 0.32831-0.62613 0.32831v-0.35117h-1.3314v5.8826h1.3314l8e-3 -3.184s0.0253-0.19938 0.10607-0.41449c0.0763-0.20341 0.20524-0.41954 0.32421-0.54054 0.10936-0.11117 0.2255-0.22604 0.3629-0.31189 0.25144-0.15714 0.5495-0.24717 0.83483-0.2521 0.24983-0.0042 0.51659 0.04521 0.75159 0.15654 0.20352 0.09641 0.38101 0.24281 0.5335 0.39631 0.11482 0.11558 0.25318 0.32617 0.32714 0.52764 0.0969 0.26387 0.11197 0.51239 0.11197 0.5124v3.1101h1.3402v-3.0281s-0.0183-0.46671-0.0838-0.68827c-0.12741-0.43055-0.31245-0.85798-0.59037-1.2106-0.25023-0.31754-0.57582-0.58726-0.93568-0.77152-0.40812-0.20898-0.97303-0.31816-1.3308-0.34942-0.0763-0.0067-0.16236-0.0069-0.25445-0.0012zm-8.3988 0.03927c-0.83337 0-1.5387 0.29069-2.1164 0.87177-0.57767 0.5811-0.8665 1.2876-0.8665 2.1199 0 0.84023 0.29343 1.5511 0.88057 2.1322 0.59662 0.57324 1.321 0.85946 2.1733 0.85946 0.87117 0 1.5457-0.46428 1.9012-0.77094l-0.88761-0.99254c-0.3788 0.2984-0.62544 0.42445-1.0136 0.42446-0.30305 0-0.67258-0.04219-0.96617-0.26206-0.28403-0.21988-0.4563-0.34025-0.63375-0.72638h4.4192l0.0733-0.65134c-9e-3 -0.746-0.19767-1.2938-0.68065-1.9142-0.48299-0.62035-1.298-1.0826-2.2829-1.0904zm17.26 0c-0.83337 0-1.5387 0.29069-2.1164 0.87177-0.57767 0.5811-0.8665 1.2876-0.8665 2.1199 0 0.84023 0.29342 1.5511 0.88056 2.1322 0.59662 0.57324 1.321 0.85946 2.1733 0.85946 0.87118 0 1.5457-0.46428 1.9012-0.77094l-0.88761-0.99254c-0.3788 0.2984-0.62544 0.42445-1.0136 0.42446-0.30304 0-0.67258-0.04219-0.96617-0.26206-0.28403-0.21988-0.4563-0.34025-0.63374-0.72638h4.4192l0.0733-0.65134c-9e-3 -0.746-0.19767-1.2938-0.68065-1.9142-0.48297-0.62035-1.298-1.0826-2.2829-1.0904zm11.572 0.10318v5.8908h1.3015v-5.8907zm-28.807 1.2241c0.17765-0.0044 0.44278 0.05917 0.66658 0.1665 0.16989 0.08147 0.30822 0.19552 0.41038 0.28024 0.24623 0.19625 0.40335 0.55226 0.40335 0.55226h-3.0345s0.18761-0.38034 0.43383-0.58451c0.13213-0.10955 0.31755-0.23254 0.5294-0.3113 0.19816-0.07367 0.42161-0.10678 0.59096-0.10318zm17.26 0c0.17765-0.0044 0.44278 0.05917 0.66658 0.1665 0.16989 0.08147 0.30822 0.19552 0.41039 0.28024 0.24623 0.19625 0.40335 0.55226 0.40335 0.55226h-3.0345s0.18761-0.38034 0.43382-0.58451c0.13213-0.10955 0.31755-0.23254 0.5294-0.3113 0.19816-0.07367 0.42161-0.10678 0.59096-0.10318zm-33.551 7.9122v1.4399h1.4346v-1.4399zm0 2.4019v7.9849h1.4346v-7.9849zm12.819 0.12546v2.1997h-1.2476v1.2552h1.2476l-0.0129 2.7226c-2e-3 0.46125 0.10879 0.76777 0.37345 1.108 0.27222 0.34025 0.72634 0.56926 1.1649 0.56926 0.23441 0 0.59527-0.01979 0.98903-0.31189l-0.75394-1.0107s-0.026 0.02579-0.0709 0.04221c-0.055 0.01993-0.13443 0.03094-0.18116 0.0211-0.0896-0.01877-0.16812-0.09111-0.2175-0.16826-0.0258-0.04022-0.0322-0.13953-0.0322-0.13953v-2.8328h1.2558v-1.2552h-1.2558v-2.1997zm19.377 1.7881 1.6456 3.8494 0.84187 1.9452-0.30251 0.54757s-0.0477 0.08812-0.13777 0.15888c-0.0593 0.04659-0.15272 0.08276-0.20871 0.09028-0.0715 0.0096-0.1728 0.0057-0.25854-0.03401-0.0985-0.04556-0.17705-0.12839-0.17705-0.12839l-1.0787 0.96148s0.24728 0.29086 0.60737 0.46432c0.32265 0.15543 0.74403 0.19672 1.0189 0.17823 0.25024-0.016836 0.61606-0.13337 0.88586-0.31306 0.28885-0.1924 0.47369-0.4485 0.47369-0.4485l3.1113-7.2714h-1.3953l-1.8139 4.2299-1.8168-4.2299zm-25.351 0.0041c-0.27589 0-0.61451 0.0279-0.91868 0.07153-0.22459 0.03217-0.44626 0.08353-0.66599 0.14011-0.15352 0.03958-0.31725 0.06038-0.45494 0.13895-0.11594 0.06612-0.19789 0.15296-0.29607 0.26968-0.2617 0.31112-0.41244 0.86789-0.35704 1.3203 0.0477 0.3891 0.24397 0.70861 0.57221 1.0271 0.0997 0.09189 0.29416 0.19991 0.45552 0.27203 0.22864 0.10213 0.4774 0.15053 0.717 0.22336 0.11299 0.03434 0.22619 0.0675 0.33945 0.10084 0.17625 0.05186 0.35298 0.10289 0.5294 0.15419 0.29774 0.08662 0.59741 0.16692 0.89346 0.25913 0.11756 0.0367 0.24686 0.05843 0.35 0.11667 0.05 0.02821 0.0808 0.08167 0.11784 0.12546 0.0219 0.02593 0.0279 0.06303 0.0311 0.09674 3e-3 0.02822 8e-3 0.07324 5e-3 0.10963-5e-3 0.03646-0.0276 0.1067-0.0276 0.1067s-0.39761 0.10178-0.60034 0.13015c-0.21746 0.0305-0.47975 0.04279-0.6572 0.04279-0.65648-0.0079-1.4121-0.09347-2.1463-0.48367l-0.59917 1.2095c0.85516 0.44592 1.7563 0.61669 2.7842 0.63258 0.44416-0.0045 0.8825-0.07187 1.2622-0.15008 0.14143-0.02905 0.2646-0.06635 0.38752-0.10201 0.11828-0.03422 0.23697-0.06598 0.33534-0.13367 0.19281-0.13573 0.31079-0.30681 0.40453-0.48249 0.13722-0.25722 0.20229-0.53839 0.20753-0.85067-9e-3 -0.58926-0.20699-0.88729-0.51533-1.1901-0.4195-0.41202-1.1351-0.53462-1.631-0.67128-0.26804-0.07387-0.54313-0.15828-0.81491-0.23685-0.15518-0.04477-0.31384-0.07963-0.46607-0.13367-0.18634-0.06606-0.41638-0.08215-0.54582-0.23158-0.051-0.05889-0.061-0.14844-0.0598-0.22629 3.8e-4 -0.04267 0.037-0.12253 0.037-0.12253s0.7721-0.19518 1.1661-0.19053c0.67011 0.0086 1.4965 0.15117 1.9751 0.37521l0.51591-1.2405c-0.71782-0.30931-1.4833-0.47663-2.3298-0.47663zm21.012 0c-0.27589 0-0.61451 0.0279-0.91868 0.07153-0.22459 0.03217-0.44625 0.08353-0.66599 0.14011-0.15351 0.03958-0.31725 0.06038-0.45494 0.13895-0.11594 0.06612-0.19788 0.15296-0.29606 0.26968-0.26171 0.31112-0.41244 0.86789-0.35703 1.3203 0.0476 0.3891 0.24395 0.70861 0.57219 1.0271 0.0997 0.09189 0.29417 0.19991 0.45553 0.27203 0.22864 0.10213 0.4774 0.15053 0.717 0.22336 0.11299 0.03434 0.22618 0.0675 0.33945 0.10084 0.17624 0.05186 0.35298 0.10289 0.52939 0.15419 0.29775 0.08662 0.59741 0.16692 0.89346 0.25913 0.11756 0.0367 0.24686 0.05843 0.35 0.11667 0.05 0.02821 0.0808 0.08167 0.11784 0.12546 0.0219 0.02593 0.0279 0.06303 0.0311 0.09674 3e-3 0.02822 8e-3 0.07324 5e-3 0.10963-5e-3 0.03646-0.0276 0.1067-0.0276 0.1067s-0.39761 0.10178-0.60034 0.13015c-0.21746 0.0305-0.47974 0.04279-0.65719 0.04279-0.65649-0.0079-1.4121-0.09347-2.1463-0.48367l-0.59917 1.2095c0.85516 0.44592 1.7563 0.61669 2.7842 0.63258 0.44416-0.0045 0.8825-0.07187 1.2622-0.15008 0.14143-0.02905 0.26461-0.06635 0.38753-0.10201 0.11827-0.03422 0.23697-0.06598 0.33533-0.13367 0.19282-0.13573 0.31079-0.30681 0.40453-0.48249 0.13723-0.25722 0.20229-0.53839 0.20754-0.85067-9e-3 -0.58926-0.20698-0.88729-0.51533-1.1901-0.4195-0.41202-1.1351-0.53462-1.631-0.67128-0.26803-0.07387-0.54313-0.15828-0.8149-0.23685-0.15519-0.04477-0.31385-0.07963-0.46608-0.13367-0.18633-0.06606-0.41637-0.08215-0.54581-0.23158-0.0511-0.05889-0.061-0.14844-0.0598-0.22629 3e-4 -0.04267 0.037-0.12253 0.037-0.12253s0.7721-0.19518 1.1661-0.19053c0.67009 0.0086 1.4965 0.15117 1.9751 0.37521l0.51591-1.2405c-0.71783-0.30931-1.4833-0.47663-2.3298-0.47663zm-7.5775 0.04455c-0.3784-0.01925-0.99287 0.05482-1.4727 0.17588-0.61045 0.15402-1.0529 0.36642-1.0529 0.36642l0.54698 1.2194s0.34852-0.19293 0.97906-0.32069c0.18407-0.0373 0.45338-0.07218 0.68182-0.09087 0.14125-0.01145 0.28283-0.01765 0.42446-0.01289 0.11488 4e-3 0.23405-0.0016 0.34355 0.03342 0.30677 0.09795 0.64913 0.21958 0.83835 0.48015 0.077 0.106 0.15724 0.30443 0.1841 0.47077 0.0175 0.10839-0.0176 0.3289-0.0176 0.3289s-0.30186-0.1327-0.68358-0.22337c-0.31964-0.07591-0.70118-0.11552-0.95268-0.08793-0.2381 0.02609-0.47618 0.05215-0.71817 0.11081-0.64168 0.15552-1.2697 0.4729-1.692 0.9474-0.20578 0.23122-0.2713 0.56658-0.26558 0.86943 5e-3 0.2295 0.0824 0.47082 0.22571 0.65016 0.12501 0.15642 0.26544 0.27732 0.42211 0.38576 0.33184 0.22967 0.71121 0.42237 1.0793 0.54874 0.45901 0.1576 0.96415 0.18913 1.4481 0.15243 0.39784-0.03018 1.1579-0.3031 1.1579-0.3031v0.15008h1.3525v-3.4566c0-0.70852-0.35298-1.3121-0.86826-1.7559-0.51527-0.4438-1.241-0.60186-1.9605-0.63844zm23.194 0.0028c-0.8465 0-1.5614 0.29428-2.1446 0.8835-0.58314 0.58921-0.8747 1.3045-0.8747 2.1451 0 0.83275 0.29156 1.5436 0.8747 2.1328 0.58314 0.58921 1.2981 0.8835 2.1446 0.8835 0.83709 0 1.5473-0.29429 2.1305-0.8835 0.59255-0.5892 0.88878-1.3001 0.88878-2.1328 0-0.84061-0.29623-1.5559-0.88878-2.1451-0.58315-0.58922-1.2934-0.8835-2.1305-0.8835zm14.886 0.0059v3.0275s0.0183 0.4667 0.0838 0.68827c0.1274 0.43055 0.31245 0.85798 0.59037 1.2106 0.25023 0.31753 0.57582 0.58726 0.93567 0.77152 0.40813 0.20898 0.97304 0.31816 1.3308 0.34941 0.30519 0.02663 0.76839-0.05151 1.1327-0.1876 0.3626-0.13547 0.62672-0.32889 0.62672-0.32889v0.35117h1.3314v-5.882h-1.3314l-8e-3 3.1834s-0.0247 0.19938-0.10551 0.41449c-0.0765 0.20341-0.20524 0.41955-0.3242 0.54054-0.10937 0.11117-0.22552 0.22604-0.3629 0.31189-0.25145 0.15714-0.5495 0.24717-0.83484 0.25209-0.24983 0.0042-0.51718-0.0452-0.75219-0.15653-0.20349-0.09642-0.38042-0.24281-0.5329-0.39631-0.11481-0.11558-0.25319-0.32617-0.32715-0.52764-0.0969-0.26387-0.11197-0.51239-0.11197-0.51239v-3.1095zm-6.1992 0.0041c-0.27618 0.01721-0.60502 0.08671-0.87822 0.18878-0.3626 0.13548-0.62672 0.32831-0.62672 0.32831v-0.35117h-1.3314v5.8826h1.3314l8e-3 -3.184s0.0247-0.19938 0.1055-0.41449c0.0764-0.20341 0.20523-0.41955 0.32421-0.54054 0.10936-0.11117 0.2255-0.22604 0.3629-0.31189 0.25145-0.15714 0.5495-0.24717 0.83483-0.2521 0.24983-0.0042 0.51718 0.0452 0.75218 0.15654 0.20351 0.09642 0.38042 0.24339 0.53292 0.3969 0.11481 0.11558 0.25317 0.32558 0.32713 0.52705 0.0969 0.26387 0.11197 0.51239 0.11197 0.51239v3.1101h1.3402v-3.028s-0.0183-0.46612-0.0838-0.68769c-0.12741-0.43055-0.31245-0.85797-0.59036-1.2106-0.25025-0.31754-0.57588-0.58785-0.93569-0.77211-0.40812-0.20898-0.97303-0.31816-1.3308-0.34942-0.0763-0.0067-0.16236-0.0064-0.25444-3.9e-4zm-8.7271 1.3408c0.39516-0.01089 0.82 0.13817 1.1168 0.39925 0.31623 0.27811 0.53762 0.70606 0.57395 1.1256 0.0363 0.41876-0.0956 0.88737-0.37052 1.2054-0.30539 0.3532-0.79892 0.59124-1.2657 0.60092-0.47612 0.0099-0.99303-0.2078-1.315-0.55871-0.27655-0.30142-0.40408-0.75823-0.38107-1.1667 0.0234-0.41427 0.21933-0.84368 0.51709-1.1327 0.29186-0.28326 0.71789-0.46191 1.1244-0.47311zm-23.203 2.331c0.24265-0.0016 0.60352 0.0474 0.89522 0.16298 0.33277 0.13187 0.58215 0.33241 0.58215 0.33241s-0.25016 0.19494-0.56867 0.32479c-0.29021 0.11831-0.63801 0.17256-0.88174 0.17236-0.24718-2.07e-4 -0.66996-0.07925-0.96206-0.19991-0.30901-0.12764-0.48074-0.29724-0.48074-0.29724s0.20161-0.17705 0.53527-0.31189c0.27149-0.10972 0.65621-0.1819 0.88057-0.1835z"/><path d="m214.89 18.28c-0.11406 0.0024-0.21914 9e-3 -0.30545 0.02053-0.0475 0.0064-0.14629 0.01909-0.21926 0.02872-0.14462 0.01909-0.3056 0.05405-0.45963 0.09967-0.0542 0.01609-0.1151 0.03314-0.13543 0.03811-0.0939 0.02165-0.36291 0.12659-0.53408 0.20871-0.23144 0.11101-0.3705 0.18964-0.56751 0.32069l-0.15184 0.10083 0.10256 0.14188c0.0562 0.07812 0.23783 0.32825 0.40394 0.55578l0.30193 0.4139 0.0433-0.03342c0.12855-0.09896 0.43773-0.26362 0.63608-0.33886 0.20712-0.07858 0.32679-0.11151 0.55462-0.15184 0.18041-0.03198 0.22195-0.03482 0.48132-0.03402 0.25303 9.01e-4 0.30398 0.0047 0.46725 0.03458 0.18169 0.03326 0.41938 0.0955 0.5464 0.14305 0.0364 0.01359 0.16383 0.0725 0.28316 0.13074 0.20874 0.10191 0.21751 0.10753 0.2392 0.15712 0.0526 0.12004 0.0619 0.29209 0.0217 0.4098-0.0163 0.0479-0.0242 0.05265-0.25092 0.16884-0.33456 0.17146-0.64619 0.26717-0.9984 0.30603-0.061 0.0068-0.31216 0.01233-0.55813 0.01233h-0.44732v1.3666l0.50888 0.0059c0.47845 0.0058 0.52015 0.0082 0.69647 0.0387 0.32855 0.05687 0.5077 0.10535 0.7686 0.20754 0.22253 0.08716 0.2602 0.10534 0.30838 0.15008 0.28023 0.26021 0.37561 0.64104 0.24564 0.98141-0.0719 0.18843-0.22607 0.37962-0.34648 0.42915-0.0361 0.01479-0.10131 0.04158-0.14539 0.0598-0.55466 0.22885-1.12 0.30909-1.7277 0.24565-0.53699-0.05606-1.1222-0.26901-1.5513-0.56516-0.0773-0.05331-0.0919-0.05992-0.10607-0.04455-0.0351 0.0379-0.76423 1.0677-0.7686 1.0852-6e-3 0.0226 0.0918 0.09372 0.31014 0.22571 0.70394 0.42558 1.5647 0.67353 2.3937 0.69062 0.0678 0.0012 0.18696 8.99e-4 0.26499-0.0012 0.12347-0.0036 0.21058-0.01149 0.5118-0.0469 0.28846-0.03394 0.79779-0.16406 1.0606-0.27144 0.075-0.03062 0.17074-0.06939 0.21281-0.08559 0.11392-0.04385 0.29487-0.13661 0.39045-0.20051 0.10358-0.0692 0.28376-0.23843 0.39983-0.37521 0.26118-0.30774 0.45358-0.74812 0.51065-1.169 0.0206-0.15217 6e-3 -0.57589-0.0252-0.72169-0.10641-0.49848-0.33894-0.91154-0.69999-1.2429l-0.0862-0.07915 0.0779-0.09791c0.0774-0.09737 0.19893-0.2852 0.24916-0.38459 0.0866-0.1712 0.16977-0.47438 0.18643-0.68007 0.0389-0.47948-0.0786-0.92506-0.34766-1.3173-0.0754-0.11-0.0987-0.13362-0.19288-0.19816-0.1836-0.12577-0.5593-0.33283-0.7299-0.40218-0.21176-0.08607-0.50489-0.18185-0.64841-0.21223-0.081-0.0172-0.1668-0.03658-0.19053-0.04279-0.22066-0.05711-0.64156-0.08822-0.98375-0.0809zm10.197 0.03166c-0.99523 0-1.707 0.44166-2.28 1.1227-0.573 0.67373-0.94975 1.4958-0.94975 2.6675 0 1.0326 0.32683 1.8677 0.83953 2.5708 0.35201 0.48656 0.81676 0.84527 1.3261 1.0494 0.34162 0.13691 0.70303 0.19986 1.0641 0.20226 0.81332 0.0054 1.6113-0.39973 2.1768-1.1028 0.57301-0.71034 0.95619-1.5922 0.95619-2.742 0-1.1277-0.35864-1.951-0.93919-2.6394-0.57302-0.6957-1.2589-1.1286-2.1938-1.1286zm9.7255 0c-0.99523 0-1.707 0.44166-2.28 1.1227-0.573 0.67373-0.95034 1.4958-0.95034 2.6675 0 1.0326 0.32684 1.8677 0.83954 2.5708 0.35201 0.48656 0.81735 0.84527 1.3267 1.0494 0.3416 0.13691 0.70301 0.19986 1.0641 0.20226 0.81333 0.0054 1.6113-0.39973 2.1768-1.1028 0.57301-0.71034 0.95619-1.5922 0.95619-2.742 0-1.1277-0.35922-1.951-0.93977-2.6394-0.57303-0.6957-1.2583-1.1286-2.1932-1.1286zm-9.7337 1.3777c0.56548 0 0.95486 0.34035 1.264 0.77973 0.23972 0.33263 0.41082 0.76797 0.48425 1.2083 0.0233 0.14132 0.0217 0.28547 0.0287 0.42387 0.0172 0.33624-0.0621 0.70869-0.17472 1.0424-0.0379 0.1121-0.0965 0.22431-0.15418 0.33183-0.0453 0.08454-0.0938 0.16797-0.15009 0.24565-0.12533 0.17292-0.24008 0.36536-0.41507 0.48777-0.25476 0.17822-0.44359 0.3242-0.87471 0.3242-0.28244 0-0.53641-0.0573-0.75393-0.18233-0.22379-0.12863-0.40956-0.32768-0.57395-0.5505-0.32422-0.44671-0.52237-0.91542-0.52237-1.699 0-0.77626 0.24682-1.2831 0.57103-1.7224 0.3242-0.43939 0.698-0.68944 1.271-0.68944zm9.7255 0c0.56547 0 0.95427 0.34035 1.2634 0.77973 0.23972 0.33263 0.4114 0.76797 0.48483 1.2083 0.0233 0.14132 0.0217 0.28547 0.0287 0.42387 0.0172 0.33624-0.0621 0.70869-0.1747 1.0424-0.0379 0.1121-0.0966 0.22431-0.15419 0.33183-0.0453 0.08454-0.0938 0.16797-0.1501 0.24565-0.12533 0.17292-0.24008 0.36536-0.41506 0.48777-0.25476 0.17822-0.44359 0.3242-0.87471 0.3242-0.28244 0-0.53641-0.0573-0.75393-0.18233-0.22379-0.12863-0.40956-0.32768-0.57396-0.5505-0.3242-0.44671-0.52235-0.91542-0.52235-1.699 0-0.77626 0.24681-1.2831 0.57102-1.7224 0.32418-0.43939 0.69799-0.68944 1.271-0.68944zm13.777 0.62906c-0.43786 0-0.88054 0.13434-1.271 0.33241-0.17333 0.08792-0.40444 0.25924-0.58686 0.41449-0.11004 0.0937-0.30368 0.30955-0.30368 0.30955s-0.35381-0.43571-0.87938-0.72521c-0.39034-0.215-0.9147-0.29897-1.2511-0.32831-0.28693-0.025-0.72276 0.0485-1.0652 0.17646-0.34091 0.12736-0.5892 0.30896-0.5892 0.30896v-0.33006h-1.2517v5.5302h1.2517l8e-3 -2.9935s0.023-0.18762 0.0991-0.38987c0.0718-0.19125 0.19359-0.39396 0.30545-0.50771 0.10278-0.10452 0.21202-0.21241 0.34119-0.29313 0.23642-0.14773 0.51674-0.23279 0.78501-0.23744 0.23489-4e-3 0.48551 0.04247 0.70645 0.14715 0.19134 0.09063 0.35788 0.22852 0.50126 0.37286 0.10789 0.10866 0.23825 0.30657 0.30779 0.49598 0.0911 0.24811 0.10551 0.48191 0.10551 0.48191v2.9237h1.2599v-2.8469s-6e-3 -0.25581 0.0891-0.51474c0.0949-0.26059 0.28989-0.52474 0.45025-0.67244 0.19926-0.18352 0.46099-0.30308 0.73576-0.35704 0.10948-0.02098 0.22655-0.01822 0.33418-0.02639 0.22734-0.0172 0.55495 0.08635 0.8278 0.26675 0.18872 0.12478 0.33687 0.29557 0.46549 0.45084 0.17377 0.20978 0.25678 0.77622 0.25678 0.77622v2.9237h1.2704l-0.0235-3.0538s-0.013-0.24729-0.0914-0.53995c-0.0846-0.31605-0.21968-0.62158-0.41331-0.88232-0.24817-0.33421-0.56269-0.63693-0.92923-0.83426-0.43842-0.23604-0.9472-0.37814-1.4451-0.37814z" fill="#fff" stroke-width=".017916"/></g></svg>