<svg width="79.211mm" height="76.737mm" version="1.1" viewBox="0 0 79.211 76.737" xmlns="http://www.w3.org/2000/svg"><g transform="translate(-89.533 41.564)"><path d="m89.533-41.564h79.211v76.737h-79.211z" fill="#00408c" stroke-linecap="square" stroke-width="1.665" style="paint-order:fill markers stroke"/><path d="m94.705-40.52c-2.2646 0-4.1123 1.8478-4.1123 4.1123v66.459c0 2.2646 1.8478 4.1123 4.1123 4.1123h68.858c2.2646 0 4.1119-1.8478 4.1119-4.1123v-66.459c0-2.2645-1.8474-4.1123-4.1119-4.1123zm0 1.5658h68.858c1.4242 0 2.5462 1.1224 2.5462 2.5466v66.459c0 1.4242-1.1219 2.5466-2.5462 2.5466h-68.858c-1.4242 0-2.5466-1.1224-2.5466-2.5466v-66.459c0-1.4242 1.1224-2.5466 2.5466-2.5466z" color="#000000" color-rendering="auto" dominant-baseline="auto" enable-background="accumulate" fill="#fff" image-rendering="auto" shape-rendering="auto" solid-color="#000000" stop-color="#000000" style="font-feature-settings:normal;font-variant-alternates:normal;font-variant-caps:normal;font-variant-east-asian:normal;font-variant-ligatures:normal;font-variant-numeric:normal;font-variant-position:normal;font-variation-settings:normal;inline-size:0;isolation:auto;mix-blend-mode:normal;paint-order:fill markers stroke;shape-margin:0;shape-padding:0;text-decoration-color:#000000;text-decoration-line:none;text-decoration-style:solid;text-indent:0;text-orientation:mixed;text-transform:none;white-space:normal"/><g transform="matrix(-.20864 0 0 .20864 88.652 -1.2699)" fill="#fff" fill-rule="evenodd" shape-rendering="auto" stroke-width="4.7929"><path d="m-126.37-12.199h87.587c3.423 0 6.233 2.6593 6.233 6.0705v54.248c0 3.4112-2.4254 5.8247-5.8484 5.8247l-88.123-4.95e-4c-3.423-1.9e-5 -5.829-2.7839-5.829-6.1951v-53.927c0-3.4112 2.5575-6.0207 5.9805-6.0207z" color="#000000" color-rendering="auto" dominant-baseline="auto" enable-background="accumulate" image-rendering="auto" solid-color="#000000" stop-color="#000000" style="font-feature-settings:normal;font-variant-alternates:normal;font-variant-caps:normal;font-variant-east-asian:normal;font-variant-ligatures:normal;font-variant-numeric:normal;font-variant-position:normal;font-variation-settings:normal;inline-size:0;isolation:auto;mix-blend-mode:normal;shape-margin:0;shape-padding:0;text-decoration-color:#000000;text-decoration-line:none;text-decoration-style:solid;text-indent:0;text-orientation:mixed;text-transform:none;white-space:normal"/><path d="m-238.01-12.199h87.587c3.423 0 6.233 2.6593 6.233 6.0705v54.248c0 3.4112-2.4254 5.8247-5.8484 5.8247l-88.123-4.95e-4c-3.423-1.9e-5 -5.829-2.7839-5.829-6.1951v-53.927c0-3.4112 2.5575-6.0207 5.9805-6.0207z" color="#000000" color-rendering="auto" dominant-baseline="auto" enable-background="accumulate" image-rendering="auto" solid-color="#000000" stop-color="#000000" style="font-feature-settings:normal;font-variant-alternates:normal;font-variant-caps:normal;font-variant-east-asian:normal;font-variant-ligatures:normal;font-variant-numeric:normal;font-variant-position:normal;font-variation-settings:normal;inline-size:0;isolation:auto;mix-blend-mode:normal;shape-margin:0;shape-padding:0;text-decoration-color:#000000;text-decoration-line:none;text-decoration-style:solid;text-indent:0;text-orientation:mixed;text-transform:none;white-space:normal"/><path d="m-349.38-12.199h87.587c3.423 0 6.233 2.6593 6.233 6.0705v54.248c0 3.4112-2.4254 5.8247-5.8484 5.8247l-88.123-4.95e-4c-3.423-1.9e-5 -5.829-2.7839-5.829-6.1951v-53.927c0-3.4112 2.5575-6.0207 5.9805-6.0207z" color="#000000" color-rendering="auto" dominant-baseline="auto" enable-background="accumulate" image-rendering="auto" solid-color="#000000" stop-color="#000000" style="font-feature-settings:normal;font-variant-alternates:normal;font-variant-caps:normal;font-variant-east-asian:normal;font-variant-ligatures:normal;font-variant-numeric:normal;font-variant-position:normal;font-variation-settings:normal;inline-size:0;isolation:auto;mix-blend-mode:normal;shape-margin:0;shape-padding:0;text-decoration-color:#000000;text-decoration-line:none;text-decoration-style:solid;text-indent:0;text-orientation:mixed;text-transform:none;white-space:normal"/></g><g fill-rule="evenodd"><path d="m114.99-3.4614c0.51004 0 0.92715 0.41712 0.92715 0.92714v11.238c0 0.51003-0.41711 0.92714-0.92715 0.92714h-18.264c-0.51004 0-0.92715-0.41711-0.92715-0.92714v-11.238c0-0.51002 0.41711-0.92714 0.92715-0.92714zm0 0.41585h-18.264c-0.28684 0-0.51129 0.22445-0.51129 0.51129v11.238c0 0.28684 0.22445 0.51129 0.51129 0.51129h18.264c0.28684 0 0.5113-0.22445 0.5113-0.51129v-11.238c0-0.28684-0.22446-0.51129-0.5113-0.51129z" color="#000000" color-rendering="auto" dominant-baseline="auto" enable-background="accumulate" image-rendering="auto" shape-rendering="auto" solid-color="#000000" stop-color="#000000" style="font-feature-settings:normal;font-variant-alternates:normal;font-variant-caps:normal;font-variant-east-asian:normal;font-variant-ligatures:normal;font-variant-numeric:normal;font-variant-position:normal;font-variation-settings:normal;inline-size:0;isolation:auto;mix-blend-mode:normal;shape-margin:0;shape-padding:0;text-decoration-color:#000000;text-decoration-line:none;text-decoration-style:solid;text-indent:0;text-orientation:mixed;text-transform:none;white-space:normal"/><path d="m109.57-0.62877v0h-0.32571c-0.0299 0-0.0593 0.0015-0.0882 0.0032h-1.9339c-0.0405 0-0.0731 0.04538-0.0742 0.10231h-6e-5v0.0022c-1e-5 3.01e-4 -4e-5 9.02e-4 -4e-5 0.0015v0.81458c0 0.0027 7e-5 0.0051 2.8e-4 0.0076l3.7e-4 1.7136c0 0.02058-1e-3 0.04084-2e-3 0.0606h-7.8638c-0.0296 0-0.0533 0.03362-0.0533 0.07538v2.4454c0 0.22778 0.12964 0.41116 0.29069 0.41116h0.81988c-1e-3 -0.0269-2e-3 -0.05381-2e-3 -0.08073l1.5e-4 -0.01278c0.0113-0.74281 0.61676-1.339 1.3596-1.3383 6e-3 3e-6 0.0102 4.2e-5 0.0159 1.47e-4 0.74903 0.0094 1.3491 0.62336 1.3414 1.3724-1.6e-4 0.01981-8.1e-4 0.03956-2e-3 0.05931h5.9894c-1e-3 -0.0269-2e-3 -0.05381-2e-3 -0.08074l7e-5 -0.01277c0.0113-0.74281 0.61677-1.339 1.3597-1.3383 6e-3 3e-6 0.0102 4.2e-5 0.0159 7.2e-5 0.74902 0.0094 1.3491 0.62335 1.3414 1.3724-1.8e-4 0.01981-8e-4 0.03956-2e-3 0.05931h0.48022c0.16104 0 0.29068-0.18338 0.29068-0.41116v-2.3044c0-0.22778-0.13936-0.39902-0.30038-0.43297l-0.94951-0.337-0.91023-1.7145-8.2e-4 -7.2e-5c-0.0981-0.25263-0.41571-0.43677-0.79484-0.43677zm-1.6091 0.56917h1.4529c0.35206 0 0.49728 0.25718 0.70578 0.65001 0.0273 0.05144 0.11292 0.21824 0.1908 0.39056 0.0135 4e-3 0.0162 0.02498 0.0273 0.04493l0.37052 0.66701c0.0124 0.02221-0.0263 0.08863-0.0443 0.08863h-2.2811c-1.5e-4 0-2.9e-4 -5.2e-5 -3.6e-4 -5.2e-5h-0.42131zm-6.2596 3.8312c-0.64706 0-1.1768 0.53055-1.1768 1.1751 0 0.64422 0.52977 1.1754 1.1768 1.1754 0.64707 0 1.1771-0.53127 1.1771-1.1754 0-0.64421-0.53006-1.1751-1.1771-1.1751zm8.7027 0c-0.6471 0-1.1768 0.53055-1.1768 1.1751 0 0.64422 0.52976 1.1754 1.1768 1.1754 0.64708 0 1.1771-0.53127 1.1771-1.1754 0-0.64421-0.53005-1.1751-1.1771-1.1751z" stroke-linecap="round" stroke-opacity=".52227" stroke-width="3.9688"/><path d="m138.28-3.4614c0.51004 0 0.92716 0.41712 0.92716 0.92714v11.238c0 0.51003-0.41712 0.92714-0.92716 0.92714h-18.264c-0.51002 0-0.92715-0.41711-0.92715-0.92714v-11.238c0-0.51002 0.41713-0.92714 0.92715-0.92714zm0 0.41585h-18.264c-0.28685 0-0.51128 0.22445-0.51128 0.51129v11.238c0 0.28684 0.22443 0.51129 0.51128 0.51129h18.264c0.28685 0 0.51129-0.22445 0.51129-0.51129v-11.238c0-0.28684-0.22444-0.51129-0.51129-0.51129z" color="#000000" color-rendering="auto" dominant-baseline="auto" enable-background="accumulate" image-rendering="auto" shape-rendering="auto" solid-color="#000000" stop-color="#000000" style="font-feature-settings:normal;font-variant-alternates:normal;font-variant-caps:normal;font-variant-east-asian:normal;font-variant-ligatures:normal;font-variant-numeric:normal;font-variant-position:normal;font-variation-settings:normal;inline-size:0;isolation:auto;mix-blend-mode:normal;shape-margin:0;shape-padding:0;text-decoration-color:#000000;text-decoration-line:none;text-decoration-style:solid;text-indent:0;text-orientation:mixed;text-transform:none;white-space:normal"/><path d="m161.52-3.4614c0.51005 0 0.92712 0.41712 0.92712 0.92714v11.238c0 0.51003-0.41707 0.92714-0.92712 0.92714h-18.264c-0.51004 0-0.92715-0.41711-0.92715-0.92714v-11.238c0-0.51002 0.41711-0.92714 0.92715-0.92714zm0 0.41585h-18.264c-0.28685 0-0.5113 0.22445-0.5113 0.51129v11.238c0 0.28684 0.22445 0.51129 0.5113 0.51129h18.264c0.28683 0 0.51129-0.22445 0.51129-0.51129v-11.238c0-0.28684-0.22446-0.51129-0.51129-0.51129z" color="#000000" color-rendering="auto" dominant-baseline="auto" enable-background="accumulate" image-rendering="auto" shape-rendering="auto" solid-color="#000000" stop-color="#000000" style="font-feature-settings:normal;font-variant-alternates:normal;font-variant-caps:normal;font-variant-east-asian:normal;font-variant-ligatures:normal;font-variant-numeric:normal;font-variant-position:normal;font-variation-settings:normal;inline-size:0;isolation:auto;mix-blend-mode:normal;shape-margin:0;shape-padding:0;text-decoration-color:#000000;text-decoration-line:none;text-decoration-style:solid;text-indent:0;text-orientation:mixed;text-transform:none;white-space:normal"/><path d="m132.01-0.63142v4.8349h-10.37v-4.8349zm3.0062 1.6323 0.87072 2.1987v2.4698h-0.52607s6e-3 -0.16008-0.052-0.36449c-0.0485-0.17198-0.1457-0.37367-0.29351-0.55285-0.12329-0.14948-0.31081-0.27225-0.50424-0.35843-0.19944-0.08885-0.36246-0.13232-0.5522-0.13987-0.13849-0.0056-0.28074 0.01945-0.40989 0.06977-0.25956 0.10115-0.52965 0.23475-0.70154 0.45432-0.13684 0.17481-0.22705 0.38053-0.27125 0.55462-0.0476 0.18736-0.0438 0.33694-0.0438 0.33694h-6.3676s-5e-3 -0.07518-0.0197-0.18748c-0.016-0.11282-0.0506-0.24605-0.0851-0.32999-0.0368-0.08951-0.10519-0.21652-0.17878-0.31687-0.0476-0.06485-0.0962-0.1194-0.12962-0.15463-0.0257-0.02717-0.0425-0.04288-0.0425-0.04288h6.7292v-3.6366zm-0.13249 0.60113h-2.0063v1.3998h2.5601zm-0.93839 2.9984c0.58791 0 1.0692 0.48229 1.0692 1.0677 0 0.58538-0.48131 1.0679-1.0692 1.0679-0.58791 0-1.0694-0.48251-1.0694-1.0679 0-0.58539 0.48152-1.0677 1.0694-1.0677zm-9.1935 0c0.5879 0 1.0692 0.48229 1.0692 1.0677 0 0.58538-0.48132 1.0679-1.0692 1.0679-0.58789 0-1.0696-0.48251-1.0696-1.0679 0-0.58539 0.48166-1.0677 1.0696-1.0677zm-0.96562 0.03715s-0.0879 0.08273-0.17216 0.19762c-0.0736 0.10034-0.1419 0.22748-0.17865 0.31699-0.0346 0.08394-0.0694 0.21673-0.0854 0.32955-0.0161 0.11231-0.0127 0.20478-0.0127 0.20478l-1.697-0.55218v-0.49675zm10.159 0.55539c-0.26415 0-0.4736 0.20829-0.4736 0.47514s0.20945 0.47548 0.4736 0.47548 0.47338-0.20862 0.47338-0.47548-0.20923-0.47514-0.47338-0.47514zm-9.1935 0c-0.26414 0-0.47361 0.20829-0.47361 0.47514s0.20947 0.47548 0.47361 0.47548c0.26415 0 0.47338-0.20862 0.47338-0.47548s-0.20923-0.47514-0.47338-0.47514z"/><path d="m156.64 0.46114v2.7622h-2.4088v0.56144h-9.6884v-3.3236zm1.9813 1.0837 0.55898 1.3573v1.9438h-0.32694s5e-3 -0.11136-0.036-0.25362c-0.0336-0.11968-0.10144-0.25998-0.2043-0.38467-0.0857-0.10402-0.21635-0.18946-0.35095-0.24944-0.13879-0.06184-0.25216-0.09207-0.38421-0.09732-0.0964-4e-3 -0.19581 0.0126-0.2853 0.04855-0.17422 0.07004-0.34667 0.1633-0.46628 0.31609-0.0953 0.12165-0.15798 0.26476-0.18877 0.38592-0.0333 0.13039-0.0304 0.23449-0.0304 0.23449h-0.1452s-0.0102-0.13124-0.0506-0.26573c-0.0344-0.11508-0.09-0.22485-0.18559-0.34268-0.1019-0.12558-0.25633-0.22143-0.40947-0.28101-0.11689-0.04547-0.2138-0.07452-0.32436-0.07016-0.19109 0.0075-0.36727 0.05409-0.54957 0.16501-0.0992 0.06036-0.17104 0.15034-0.23504 0.22736-0.21474 0.25831-0.20111 0.56721-0.20111 0.56721h-0.36521v-1.4244h2.395v-1.8767zm-0.13975 0.39938h-1.4083v0.89643h1.7801zm-4.2504 2.036v0.86576h-3.2332s0-0.08133-0.0231-0.18322c-0.0268-0.11327-0.0815-0.25188-0.1313-0.33216-0.0452-0.07303-0.12515-0.17366-0.20767-0.24332-0.0814-0.06876-0.16578-0.10706-0.16578-0.10706zm-4.65 0s-0.0981 0.0496-0.189 0.12517c-0.0767 0.06372-0.14425 0.14829-0.18559 0.21321-0.0516 0.08098-0.10986 0.2212-0.13807 0.33669-0.0256 0.10573-0.024 0.19069-0.024 0.19069h-0.13979s6e-3 -0.08122-0.0184-0.18232c-0.026-0.11031-0.0829-0.24426-0.13105-0.32208-0.0431-0.06955-0.11694-0.16863-0.19713-0.23732-0.093-0.07961-0.19-0.12404-0.19-0.12404zm-2.0874 0s-0.11235 0.0546-0.21581 0.14452c-0.0774 0.06732-0.14452 0.16165-0.18539 0.22827-0.0472 0.07689-0.096 0.20373-0.12019 0.31224-0.0217 0.09712-0.0208 0.18074-0.0208 0.18074h-1.2241l-1.1848-0.19545v-0.67031zm10.382 0.01386c0.47269 0 0.85976 0.38783 0.85976 0.85852 0 0.47069-0.38707 0.85874-0.85976 0.85874-0.47271 0-0.85999-0.38806-0.85999-0.85874s0.38728-0.85852 0.85999-0.85852zm-2.1024 0c0.4727 0 0.85964 0.38783 0.85964 0.85852 0 0.47069-0.38694 0.85874-0.85964 0.85874-0.47269 0-0.85999-0.38806-0.85999-0.85874s0.3873-0.85852 0.85999-0.85852zm-5.7441 0c0.4727 0 0.85963 0.38783 0.85963 0.85852 0 0.47069-0.38693 0.85874-0.85963 0.85874-0.47274 0-0.86-0.38806-0.86-0.85874s0.38726-0.85852 0.86-0.85852zm-2.1025 0c0.4727 0 0.85976 0.38783 0.85976 0.85852 0 0.47069-0.38706 0.85874-0.85976 0.85874-0.47273 0-0.85987-0.38806-0.85987-0.85874s0.38714-0.85852 0.85987-0.85852zm9.949 0.47646c-0.2124 0-0.38084 0.1675-0.38084 0.38207s0.16844 0.38229 0.38084 0.38229c0.21236 0 0.3806-0.16772 0.3806-0.38229s-0.16824-0.38207-0.3806-0.38207zm-2.1024 0c-0.2124 0-0.38085 0.1675-0.38085 0.38207s0.16845 0.38229 0.38085 0.38229c0.21237 0 0.3806-0.16772 0.3806-0.38229s-0.16823-0.38207-0.3806-0.38207zm-5.7441 0c-0.21239 0-0.38084 0.1675-0.38084 0.38207s0.16845 0.38229 0.38084 0.38229c0.21237 0 0.38057-0.16772 0.38057-0.38229s-0.1682-0.38207-0.38057-0.38207zm-2.1025 0c-0.2124 0-0.38072 0.1675-0.38072 0.38207s0.16832 0.38229 0.38072 0.38229c0.21237 0 0.38061-0.16772 0.38061-0.38229s-0.16824-0.38207-0.38061-0.38207z"/></g><path d="m97.724-35.547h63.153c0.95873 0 1.7305 0.77181 1.7305 1.7305v23.442c0 0.95871-0.77178 1.7305-1.7305 1.7305h-63.153c-0.95871 0-1.7305-0.77181-1.7305-1.7305v-23.442c0-0.95871 0.77181-1.7305 1.7305-1.7305z" fill="#dd7500" fill-rule="evenodd" stroke-linecap="round" stroke-linejoin="round" stroke-miterlimit=".1" stroke-width=".8151"/><path d="m103.26-32.002v7.4294l1.8669 0.0066s1.3162-8.12e-4 1.4622-0.02894c0.0814-0.01555 0.15158-0.02709 0.15568-0.02678 5e-3 8.11e-4 0.0176-0.0028 0.0284-0.0066 0.0102-0.0042 0.0745-0.02265 0.14255-0.04152 0.19454-0.05398 0.37196-0.12076 0.52709-0.19882 0.32368-0.16289 0.50328-0.29081 0.76467-0.54456 0.26662-0.25881 0.43891-0.49645 0.59373-0.81766 0.33552-0.69606 0.47821-1.8304 0.3512-2.7862-0.11393-0.85744-0.30686-1.3672-0.71771-1.8942-0.0745-0.09555-0.36892-0.37989-0.50468-0.48721-0.19833-0.15679-0.61665-0.37596-0.8417-0.44078-0.034-0.0099-0.11178-0.03278-0.1726-0.05135-0.0608-0.01847-0.16633-0.04174-0.23432-0.05244-0.0679-0.01068-0.15509-0.02649-0.19445-0.03494-0.0525-0.01136-0.49317-0.01744-1.6495-0.0202zm33.222 0.0043v2.092h-1.1858v1.1929h1.1858l-0.0126 2.5884c-2e-3 0.43853 0.10394 0.72957 0.35557 1.0531 0.25881 0.32351 0.69019 0.54184 1.1072 0.54184 0.22286 0 0.56618-0.01888 0.94055-0.29659l-0.71659-0.96077s-0.0255 0.02425-0.0683 0.03987c-0.0524 0.019-0.12763 0.02954-0.17205 0.0202-0.0853-0.01787-0.15954-0.0867-0.20646-0.16004-0.0244-0.03823-0.0305-0.13273-0.0305-0.13273v-2.6933h1.194v-1.1929h-1.194v-2.092zm4.9513 0.14146v1.2175h1.2126v-1.2175zm-36.847 1.194 0.88866 0.0043c0.97041 0.0045 0.9344 2e-3 1.1804 0.08465 0.11588 0.03911 0.33901 0.14764 0.4031 0.19608 0.17395 0.13143 0.28197 0.23665 0.3818 0.37142 0.19148 0.25851 0.28362 0.51039 0.36595 1.0028 0.076 0.45482 0.0695 1.1643-0.0142 1.5294-0.0102 0.04652-0.028 0.13034-0.0388 0.18625-0.0852 0.4451-0.30531 0.80971-0.64233 1.0635-0.0465 0.03502-0.15799 0.10147-0.24743 0.14748-0.15625 0.08038-0.20061 0.09595-0.41675 0.14638-0.0867 0.02032-0.19546 0.02333-0.9788 0.02733l-0.88157 0.0043zm48.094 0.49158c-0.43382 0-0.87213 0.13366-1.259 0.32991-0.17173 0.08709-0.40101 0.25694-0.58172 0.41074-0.10905 0.09283-0.30096 0.30697-0.30096 0.30697s-0.35046-0.43252-0.87117-0.71935c-0.38674-0.21301-0.90609-0.29591-1.2394-0.32499-0.28426-0.02481-0.71648 0.048-1.0558 0.17478-0.33776 0.12619-0.58334 0.30642-0.58334 0.30642v-0.32771h-1.2404v5.4795h1.2404l7e-3 -2.9659s0.0233-0.18524 0.0983-0.38562c0.0712-0.18948 0.19182-0.3909 0.30262-0.5036 0.10179-0.10356 0.21011-0.2106 0.33808-0.29058 0.23424-0.14637 0.51145-0.23024 0.77727-0.23487 0.23269-4e-3 0.48132 0.04212 0.70022 0.14583 0.18955 0.0898 0.35499 0.22623 0.49706 0.36923 0.1069 0.10766 0.23588 0.30393 0.30478 0.49159 0.0902 0.24581 0.10429 0.47738 0.10429 0.47738v2.8965h1.2486v-2.82s-6e-3 -0.25361 0.0879-0.51015c0.0939-0.25819 0.28738-0.52003 0.44625-0.66636 0.1974-0.18182 0.45641-0.29994 0.72865-0.35339 0.10849-0.02075 0.22435-0.01812 0.33099-0.02621 0.22524-0.01703 0.55005 0.08509 0.82041 0.26382 0.18695 0.12363 0.33415 0.29297 0.46151 0.4468 0.17217 0.20784 0.254 0.76905 0.254 0.76905v2.8965h1.259l-0.0236-3.0254s-0.0132-0.24477-0.0906-0.53473c-0.0838-0.31313-0.21777-0.61613-0.40962-0.87447-0.24591-0.33112-0.55722-0.6309-0.92038-0.8264-0.43434-0.23386-0.93826-0.37524-1.4316-0.37524zm-30.284 0.0153c-0.25737 0.01602-0.56422 0.08133-0.81877 0.17642-0.33781 0.12622-0.58334 0.30587-0.58334 0.30587v-0.32717h-1.2404v5.4806h1.2404l7e-3 -2.9664s0.0235-0.18576 0.0988-0.38617c0.0712-0.18951 0.19122-0.39087 0.30206-0.5036 0.1019-0.10358 0.2101-0.2106 0.33809-0.29058 0.23428-0.1464 0.51196-0.23028 0.77781-0.23487 0.23274-4e-3 0.48128 0.04211 0.70022 0.14584 0.1896 0.08983 0.35497 0.22621 0.49704 0.36923 0.10702 0.10768 0.23588 0.30389 0.30478 0.49158 0.0902 0.24585 0.10429 0.47738 0.10429 0.47738v2.8976h1.2486v-2.8211s-0.017-0.43481-0.0781-0.64124c-0.11871-0.40112-0.2911-0.79934-0.55003-1.1279-0.23313-0.29584-0.53646-0.54713-0.87173-0.7188-0.38023-0.19469-0.90654-0.29641-1.2399-0.32553-0.0711-0.0061-0.15127-0.0064-0.23705-0.0012zm-7.8249 0.0366c-0.77643 0-1.4336 0.27082-1.9718 0.81221-0.5382 0.54138-0.80729 1.1996-0.80729 1.9751 0 0.78281 0.27337 1.4451 0.8204 1.9865 0.55585 0.53407 1.2307 0.80073 2.0248 0.80073 0.81164 0 1.4401-0.43255 1.7713-0.71826l-0.82695-0.92472c-0.35292 0.27801-0.58271 0.39545-0.94438 0.39546-0.28234 0-0.62663-0.03932-0.90014-0.24415-0.26462-0.20485-0.42512-0.317-0.59044-0.67674h4.1172l0.0683-0.60683c-9e-3 -0.69502-0.18416-1.2054-0.63414-1.7833-0.44997-0.57796-1.2093-1.0086-2.1269-1.0159zm16.08 0c-0.77643 0-1.4336 0.27082-1.9718 0.81221-0.53819 0.54138-0.80728 1.1996-0.80728 1.9751 0 0.78281 0.27337 1.4451 0.82039 1.9865 0.55584 0.53407 1.2307 0.80073 2.0248 0.80073 0.81165 0 1.4401-0.43255 1.7713-0.71826l-0.82695-0.92472c-0.35292 0.27801-0.5827 0.39545-0.94438 0.39546-0.28233 0-0.62662-0.03932-0.90015-0.24415-0.26462-0.20485-0.42511-0.317-0.59043-0.67674h4.1173l0.0683-0.60683c-9e-3 -0.69502-0.18418-1.2054-0.63414-1.7833-0.44997-0.57796-1.2093-1.0086-2.1269-1.0159zm10.781 0.09613v5.4882h1.2126v-5.4882zm-26.838 1.1405c0.16551-0.0042 0.41254 0.05513 0.62104 0.15512 0.15827 0.0759 0.28714 0.18216 0.38233 0.26109 0.22939 0.18284 0.37578 0.51452 0.37578 0.51452h-2.8271s0.1748-0.35435 0.40419-0.54456c0.12308-0.10207 0.29583-0.21665 0.49321-0.29003 0.18461-0.06864 0.3928-0.09949 0.55057-0.09613zm16.08 0c0.16551-0.0042 0.41252 0.05513 0.62102 0.15512 0.15829 0.0759 0.28716 0.18216 0.38235 0.26109 0.2294 0.18284 0.37579 0.51452 0.37579 0.51452h-2.8271s0.17479-0.35435 0.40419-0.54456c0.12309-0.10207 0.29583-0.21665 0.49322-0.29003 0.18461-0.06864 0.39279-0.09949 0.55057-0.09613zm-31.258 7.3715v1.3415h1.3365v-1.3415zm0 2.2378v7.4393h1.3365v-7.4393zm11.943 0.11689v2.0493h-1.1623v1.1694h1.1623l-0.012 2.5366c-2e-3 0.42973 0.10134 0.7153 0.34793 1.0323 0.25363 0.317 0.67671 0.53036 1.0853 0.53036 0.21839 0 0.55459-0.01844 0.92144-0.29058l-0.70241-0.94165s-0.0243 0.02401-0.0661 0.03932c-0.0514 0.01855-0.12524 0.02882-0.16878 0.01964-0.0835-0.01747-0.15663-0.08488-0.20265-0.15676-0.0239-0.03747-0.03-0.12999-0.03-0.12999v-2.6392h1.17v-1.1694h-1.17v-2.0493zm18.053 1.6659 1.5332 3.5864 0.78433 1.8123-0.28183 0.51015s-0.0443 0.0821-0.12836 0.14802c-0.0553 0.04342-0.14228 0.0771-0.19445 0.08411-0.0666 9e-3 -0.16098 0.0053-0.24086-0.0317-0.0918-0.04246-0.16497-0.11961-0.16497-0.11961l-1.005 0.89576s0.23038 0.27099 0.56585 0.43259c0.30061 0.14481 0.6932 0.18327 0.9493 0.16604 0.23313-0.01573 0.57396-0.12426 0.82532-0.29167 0.2691-0.17925 0.44132-0.41784 0.44132-0.41784l2.8987-6.7745h-1.3l-1.6899 3.9408-1.6927-3.9408zm-23.618 4e-3c-0.25704 0-0.57252 0.02597-0.8559 0.06663-0.20924 0.02998-0.41576 0.07783-0.62048 0.13054-0.14303 0.03687-0.29557 0.05626-0.42386 0.12945-0.10803 0.06161-0.18437 0.14251-0.27582 0.25126-0.24384 0.28985-0.38426 0.80859-0.33264 1.23 0.0445 0.36251 0.22728 0.66018 0.53309 0.95694 0.0929 0.08561 0.27408 0.18625 0.4244 0.25344 0.21303 0.09516 0.44479 0.14025 0.668 0.2081 0.10519 0.03198 0.21074 0.06289 0.31625 0.09395 0.16422 0.04831 0.32887 0.09586 0.49322 0.14365 0.27741 0.08071 0.55659 0.15551 0.83241 0.24142 0.10951 0.03418 0.22999 0.05443 0.32609 0.1087 0.0466 0.02629 0.0753 0.07609 0.10973 0.11688 0.0204 0.02417 0.026 0.05873 0.0289 0.09012 3e-3 0.02629 8e-3 0.06826 5e-3 0.10214-3e-3 0.03399-0.0256 0.09941-0.0256 0.09941s-0.37043 0.09483-0.55931 0.12126c-0.2026 0.02841-0.44696 0.03987-0.61228 0.03987-0.61163-0.0074-1.3156-0.08709-1.9996-0.45062l-0.55821 1.1268c0.7967 0.41545 1.6362 0.57455 2.5939 0.58935 0.41381-0.0043 0.82219-0.06695 1.176-0.13983 0.13176-0.02705 0.24652-0.06182 0.36105-0.09504 0.11019-0.0319 0.22077-0.06148 0.31241-0.12453 0.17964-0.12646 0.28955-0.28585 0.37689-0.44952 0.12785-0.23964 0.18846-0.5016 0.19335-0.79254-8e-3 -0.549-0.19284-0.82666-0.48011-1.1088-0.39083-0.38386-1.0575-0.49809-1.5195-0.6254-0.24971-0.06882-0.50602-0.14746-0.75922-0.22066-0.14458-0.04171-0.2924-0.0742-0.43422-0.12453-0.1736-0.06155-0.38793-0.07655-0.50852-0.21575-0.0476-0.05488-0.0568-0.1383-0.0557-0.21084 3.6e-4 -0.03976 0.0345-0.11416 0.0345-0.11416s0.71933-0.18184 1.0864-0.17751c0.62431 0.0081 1.3942 0.14084 1.8402 0.34957l0.48066-1.1558c-0.66877-0.28817-1.3819-0.44406-2.1706-0.44406zm19.576 0c-0.25704 0-0.57251 0.02597-0.85589 0.06663-0.20926 0.02998-0.41578 0.07783-0.62048 0.13054-0.14303 0.03687-0.29557 0.05626-0.42387 0.12945-0.10803 0.06161-0.18435 0.14251-0.27583 0.25126-0.24382 0.28985-0.38426 0.80859-0.33262 1.23 0.0444 0.36251 0.22726 0.66018 0.53308 0.95694 0.0928 0.08561 0.27407 0.18625 0.4244 0.25344 0.21302 0.09516 0.44479 0.14025 0.66801 0.2081 0.10519 0.03198 0.21072 0.06289 0.31624 0.09395 0.16422 0.04831 0.32887 0.09586 0.49322 0.14365 0.27742 0.08071 0.55659 0.15551 0.83242 0.24142 0.10951 0.03418 0.22998 0.05443 0.32608 0.1087 0.0466 0.02629 0.0753 0.07609 0.10974 0.11688 0.0204 0.02417 0.026 0.05873 0.029 0.09012 3e-3 0.02629 8e-3 0.06826 5e-3 0.10214-3e-3 0.03399-0.0256 0.09941-0.0256 0.09941s-0.37043 0.09483-0.5593 0.12126c-0.20261 0.02841-0.44696 0.03987-0.61229 0.03987-0.61162-0.0074-1.3156-0.08709-1.9996-0.45062l-0.55822 1.1268c0.7967 0.41545 1.6362 0.57455 2.5939 0.58935 0.4138-0.0043 0.82219-0.06695 1.176-0.13983 0.13176-0.02705 0.24652-0.06182 0.36104-0.09504 0.1102-0.0319 0.22079-0.06148 0.31243-0.12453 0.17963-0.12646 0.28954-0.28585 0.37687-0.44952 0.12785-0.23964 0.18848-0.5016 0.19336-0.79254-8e-3 -0.549-0.19284-0.82666-0.48011-1.1088-0.39084-0.38386-1.0575-0.49809-1.5195-0.6254-0.24972-0.06882-0.50603-0.14746-0.75923-0.22066-0.14457-0.04171-0.29238-0.0742-0.43421-0.12453-0.17361-0.06155-0.38793-0.07655-0.50853-0.21575-0.0476-0.05488-0.0568-0.1383-0.0557-0.21084 3e-4 -0.03976 0.0345-0.11416 0.0345-0.11416s0.71933-0.18184 1.0864-0.17751c0.62432 0.0081 1.3943 0.14084 1.8402 0.34957l0.48066-1.1558c-0.66876-0.28817-1.3819-0.44406-2.1706-0.44406zm-7.0596 0.04151c-0.35256-0.01792-0.92503 0.05108-1.3721 0.16386-0.56873 0.14349-0.98096 0.34138-0.98096 0.34138l0.5096 1.1361s0.32471-0.17975 0.91215-0.29878c0.1715-0.03475 0.42241-0.06725 0.63524-0.08465 0.13159-0.01068 0.2635-0.01643 0.39545-0.01202 0.10702 0.0036 0.21805-0.0016 0.32008 0.03114 0.2858 0.09126 0.60476 0.20458 0.78105 0.44734 0.0717 0.09875 0.1465 0.28363 0.17152 0.4386 0.0163 0.10098-0.0163 0.30641-0.0163 0.30641s-0.28123-0.12363-0.63687-0.2081c-0.29779-0.07072-0.65326-0.10763-0.88758-0.08193-0.22182 0.02432-0.44364 0.04859-0.66909 0.10323-0.59781 0.14489-1.1829 0.44058-1.5763 0.88266-0.19173 0.21542-0.25276 0.52787-0.24743 0.81002 5e-3 0.21382 0.0768 0.43865 0.21028 0.60573 0.11647 0.14573 0.2473 0.25836 0.39327 0.3594 0.30916 0.21397 0.66262 0.3935 1.0056 0.51124 0.42765 0.14683 0.89827 0.17621 1.3491 0.14201 0.37064-0.02809 1.0788-0.28238 1.0788-0.28238v0.13983h1.2601v-3.2204c0-0.6601-0.32887-1.2224-0.80893-1.6359-0.48007-0.41347-1.1562-0.56073-1.8265-0.59481zm21.609 0.0028c-0.78866 0-1.4547 0.27418-1.998 0.82312-0.54329 0.54895-0.81492 1.2154-0.81492 1.9985 0 0.77584 0.27163 1.4381 0.81492 1.9871 0.5433 0.54895 1.2094 0.82313 1.998 0.82313 0.77987 0 1.4416-0.27418 1.9849-0.82313 0.55205-0.54894 0.82804-1.2112 0.82804-1.9871 0-0.78317-0.27599-1.4496-0.82804-1.9985-0.54331-0.54895-1.205-0.82312-1.9849-0.82312zm13.869 0.0054v2.8206s0.0172 0.43482 0.0781 0.64124c0.1187 0.40113 0.2911 0.79935 0.55003 1.1279 0.23312 0.29583 0.53646 0.54713 0.87175 0.7188 0.38023 0.1947 0.90651 0.29642 1.2399 0.32554 0.28434 0.02481 0.71588-0.04799 1.0552-0.17478 0.33783-0.12622 0.5839-0.30642 0.5839-0.30642v0.32717h1.2404v-5.48h-1.2404l-8e-3 2.9659s-0.0228 0.18575-0.0982 0.38616c-0.0712 0.18951-0.19124 0.39088-0.30204 0.5036-0.1019 0.10357-0.21013 0.2106-0.33812 0.29058-0.23425 0.14641-0.51194 0.23028-0.7778 0.23487-0.23272 4e-3 -0.48184-0.04211-0.70077-0.14583-0.1896-0.08982-0.35444-0.22622-0.49651-0.36923-0.1069-0.10767-0.23585-0.30388-0.30477-0.49158-0.0902-0.24584-0.10429-0.47738-0.10429-0.47738v-2.897zm-5.7755 4e-3c-0.25733 0.01602-0.56367 0.08078-0.8182 0.17588-0.33784 0.12622-0.5839 0.30587-0.5839 0.30587v-0.32717h-1.2404v5.4806h1.2404l8e-3 -2.9664s0.0232-0.18576 0.0983-0.38616c0.0712-0.18951 0.1912-0.39087 0.30205-0.5036 0.1019-0.10358 0.21007-0.2106 0.33813-0.29058 0.23424-0.1464 0.51193-0.23028 0.77774-0.23487 0.23277-4e-3 0.48185 0.04212 0.70082 0.14584 0.18959 0.08983 0.35439 0.22676 0.49646 0.36978 0.10702 0.10768 0.23589 0.30334 0.30481 0.49104 0.0902 0.24584 0.1043 0.47738 0.1043 0.47738v2.8976h1.2486v-2.8211s-0.0172-0.43427-0.078-0.6407c-0.11872-0.40113-0.29112-0.79934-0.55005-1.1279-0.23312-0.29584-0.53649-0.54767-0.87173-0.71934-0.38025-0.1947-0.90654-0.29641-1.2399-0.32554-0.0711-0.0061-0.15126-0.0059-0.23706-3.6e-4zm-8.1308 1.2492c0.36816-0.01011 0.76396 0.12873 1.0405 0.37196 0.29462 0.2591 0.50086 0.65781 0.53474 1.0487 0.0338 0.39014-0.089 0.82673-0.34521 1.123-0.28453 0.32906-0.74433 0.55083-1.1792 0.55985-0.44359 0.0092-0.92516-0.1936-1.2251-0.52053-0.25767-0.28083-0.37647-0.70642-0.35503-1.0869 0.0217-0.38596 0.20435-0.78603 0.48175-1.0553 0.27192-0.26391 0.66884-0.43034 1.0476-0.44078zm-21.617 2.1717c0.22607-0.0016 0.56228 0.04416 0.83405 0.15184 0.31003 0.12286 0.54238 0.3097 0.54238 0.3097s-0.23307 0.18162-0.52981 0.30259c-0.27039 0.11023-0.59442 0.16077-0.82149 0.16058-0.23031-1.92e-4 -0.62418-0.07384-0.89633-0.18625-0.28789-0.11892-0.44788-0.27692-0.44788-0.27692s0.18784-0.16496 0.49869-0.29058c0.25294-0.10223 0.61136-0.16947 0.82039-0.17096z"/><path d="m123.3 28.032-1.3213-1.3761 0.0792-0.078c0.0438-0.04277 1.6654-1.4783 3.6043-3.1894 1.9389-1.7112 3.5255-3.1229 3.5258-3.1371 2.5e-4 -0.01439-0.63277-0.40531-1.4066-0.86903-1.5913-0.95352-1.6439-0.99284-1.6856-1.259-0.0314-0.20006 0.0349-0.40207 0.17704-0.53951 0.10599-0.10259 0.23429-0.13566 4.7486-1.224 2.5518-0.61523 4.6921-1.1345 4.7563-1.154 0.15526-0.04706 0.36743-0.01993 0.51402 0.06572 0.10236 0.05976 0.13031 0.09131 0.19554 0.22221 0.042 0.08388 0.0772 0.20505 0.0786 0.2693 2e-3 0.13913-2.5534 9.4067-2.6308 9.5382-0.11918 0.20224-0.40771 0.31742-0.65787 0.26263-0.24793-0.05432-0.30946-0.14406-1.1842-1.7271-0.43241-0.7826-0.79774-1.4231-0.81182-1.4233-0.0142-2.61e-4 -1.5157 1.5752-3.3369 3.501-1.8212 1.9258-3.3139 3.4998-3.3171 3.4978-2e-3 -0.0022-0.60053-0.6227-1.3271-1.3796z" fill="#fff" stroke-width=".26458"/></g></svg>