<?xml version="1.0" encoding="UTF-8" standalone="no"?>
<svg
   xmlns:dc="http://purl.org/dc/elements/1.1/"
   xmlns:cc="http://creativecommons.org/ns#"
   xmlns:rdf="http://www.w3.org/1999/02/22-rdf-syntax-ns#"
   xmlns:svg="http://www.w3.org/2000/svg"
   xmlns="http://www.w3.org/2000/svg"
   xmlns:sodipodi="http://sodipodi.sourceforge.net/DTD/sodipodi-0.dtd"
   xmlns:inkscape="http://www.inkscape.org/namespaces/inkscape"
   sodipodi:docname="Turkey_road_sign_B-63b.svg"
   inkscape:version="1.0 (4035a4fb49, 2020-05-01)"
   id="svg2859"
   version="1.1"
   viewBox="0 0 79.211266 76.737327"
   height="76.737328mm"
   width="79.211266mm">
  <defs
     id="defs2853" />
  <sodipodi:namedview
     inkscape:window-maximized="1"
     inkscape:window-y="-9"
     inkscape:window-x="-9"
     inkscape:window-height="1001"
     inkscape:window-width="1920"
     showgrid="false"
     inkscape:document-rotation="0"
     inkscape:current-layer="layer1"
     inkscape:document-units="mm"
     inkscape:cy="258.82912"
     inkscape:cx="260.63468"
     inkscape:zoom="1.5262244"
     inkscape:pageshadow="2"
     inkscape:pageopacity="0.0"
     borderopacity="1.0"
     bordercolor="#666666"
     pagecolor="#ffffff"
     id="base" />
  <metadata
     id="metadata2856">
    <rdf:RDF>
      <cc:Work
         rdf:about="">
        <dc:format>image/svg+xml</dc:format>
        <dc:type
           rdf:resource="http://purl.org/dc/dcmitype/StillImage" />
        <dc:title></dc:title>
      </cc:Work>
    </rdf:RDF>
  </metadata>
  <g
     transform="translate(-89.532583,41.563569)"
     id="layer1"
     inkscape:groupmode="layer"
     inkscape:label="Layer 1">
    <path
       id="path31716"
       style="opacity:1;fill:#00408c;fill-opacity:1;stroke-width:1.665;stroke-linecap:square;paint-order:fill markers stroke"
       d="M 89.532583,-41.563569 H 168.74385 V 35.173762 H 89.532583 Z"
       sodipodi:nodetypes="ccccc" />
    <path
       sodipodi:nodetypes="ssssssssssssssssss"
       style="color:#000000;font-style:normal;font-variant:normal;font-weight:normal;font-stretch:normal;font-size:medium;line-height:normal;font-family:sans-serif;font-variant-ligatures:normal;font-variant-position:normal;font-variant-caps:normal;font-variant-numeric:normal;font-variant-alternates:normal;font-variant-east-asian:normal;font-feature-settings:normal;font-variation-settings:normal;text-indent:0;text-align:start;text-decoration:none;text-decoration-line:none;text-decoration-style:solid;text-decoration-color:#000000;letter-spacing:normal;word-spacing:normal;text-transform:none;writing-mode:lr-tb;direction:ltr;text-orientation:mixed;dominant-baseline:auto;baseline-shift:baseline;text-anchor:start;white-space:normal;shape-padding:0;shape-margin:0;inline-size:0;clip-rule:nonzero;display:inline;overflow:visible;visibility:visible;opacity:1;isolation:auto;mix-blend-mode:normal;color-interpolation:sRGB;color-interpolation-filters:linearRGB;solid-color:#000000;solid-opacity:1;vector-effect:none;fill:#ffffff;fill-opacity:1;fill-rule:nonzero;stroke:none;stroke-width:1.92961;stroke-linecap:square;stroke-linejoin:miter;stroke-miterlimit:4;stroke-dasharray:none;stroke-dashoffset:0;stroke-opacity:1;paint-order:fill markers stroke;color-rendering:auto;image-rendering:auto;shape-rendering:auto;text-rendering:auto;enable-background:accumulate;stop-color:#000000;stop-opacity:1"
       d="m 94.704533,-40.520289 c -2.26455,0 -4.11231,1.847772 -4.11231,4.11232 v 66.458796 c 0,2.264555 1.84776,4.112324 4.11231,4.112324 h 68.857797 c 2.26458,0 4.11193,-1.847769 4.11193,-4.112324 v -66.458796 c 0,-2.264548 -1.84735,-4.11232 -4.11193,-4.11232 z m 0,1.565759 h 68.857797 c 1.42423,0 2.54616,1.122358 2.54616,2.546561 v 66.458796 c 0,1.424196 -1.12193,2.546563 -2.54616,2.546563 H 94.704533 c -1.4242,0 -2.54656,-1.122367 -2.54656,-2.546563 v -66.458796 c 0,-1.424203 1.12236,-2.546561 2.54656,-2.546561 z"
       id="path31718" />
    <g
       id="g31726"
       style="opacity:1;stroke-width:4.79291"
       transform="matrix(-0.20864092,0,0,0.20864092,88.652363,-1.2698887)">
      <path
         style="color:#000000;font-style:normal;font-variant:normal;font-weight:normal;font-stretch:normal;font-size:medium;line-height:normal;font-family:sans-serif;font-variant-ligatures:normal;font-variant-position:normal;font-variant-caps:normal;font-variant-numeric:normal;font-variant-alternates:normal;font-variant-east-asian:normal;font-feature-settings:normal;font-variation-settings:normal;text-indent:0;text-align:start;text-decoration:none;text-decoration-line:none;text-decoration-style:solid;text-decoration-color:#000000;letter-spacing:normal;word-spacing:normal;text-transform:none;writing-mode:lr-tb;direction:ltr;text-orientation:mixed;dominant-baseline:auto;baseline-shift:baseline;text-anchor:start;white-space:normal;shape-padding:0;shape-margin:0;inline-size:0;clip-rule:nonzero;display:inline;overflow:visible;visibility:visible;isolation:auto;mix-blend-mode:normal;color-interpolation:sRGB;color-interpolation-filters:linearRGB;solid-color:#000000;solid-opacity:1;vector-effect:none;fill:#ffffff;fill-opacity:1;fill-rule:evenodd;stroke:none;stroke-width:0.958579;stroke-linecap:round;stroke-linejoin:round;stroke-miterlimit:10;stroke-dasharray:none;stroke-dashoffset:0;stroke-opacity:1;color-rendering:auto;image-rendering:auto;shape-rendering:auto;text-rendering:auto;enable-background:accumulate;stop-color:#000000;stop-opacity:1"
         d="m -126.36843,-12.198848 h 87.58653 c 3.42296,0 6.23299,2.6592843 6.23299,6.0704867 V 48.119548 c 0,3.411208 -2.42541,5.824678 -5.84835,5.824659 l -88.12265,-4.95e-4 c -3.42296,-1.9e-5 -5.829,-2.783881 -5.829,-6.195089 V -6.1781902 c 0,-3.4112024 2.55751,-6.0206578 5.98048,-6.0206578 z"
         id="path31720" />
      <path
         id="path31722"
         d="m -238.00579,-12.198848 h 87.58653 c 3.42296,0 6.23299,2.6592843 6.23299,6.0704867 V 48.119548 c 0,3.411208 -2.42541,5.824678 -5.84835,5.824659 l -88.12265,-4.95e-4 c -3.42296,-1.9e-5 -5.829,-2.783881 -5.829,-6.195089 V -6.1781902 c 0,-3.4112024 2.55751,-6.0206578 5.98048,-6.0206578 z"
         style="color:#000000;font-style:normal;font-variant:normal;font-weight:normal;font-stretch:normal;font-size:medium;line-height:normal;font-family:sans-serif;font-variant-ligatures:normal;font-variant-position:normal;font-variant-caps:normal;font-variant-numeric:normal;font-variant-alternates:normal;font-variant-east-asian:normal;font-feature-settings:normal;font-variation-settings:normal;text-indent:0;text-align:start;text-decoration:none;text-decoration-line:none;text-decoration-style:solid;text-decoration-color:#000000;letter-spacing:normal;word-spacing:normal;text-transform:none;writing-mode:lr-tb;direction:ltr;text-orientation:mixed;dominant-baseline:auto;baseline-shift:baseline;text-anchor:start;white-space:normal;shape-padding:0;shape-margin:0;inline-size:0;clip-rule:nonzero;display:inline;overflow:visible;visibility:visible;isolation:auto;mix-blend-mode:normal;color-interpolation:sRGB;color-interpolation-filters:linearRGB;solid-color:#000000;solid-opacity:1;vector-effect:none;fill:#ffffff;fill-opacity:1;fill-rule:evenodd;stroke:none;stroke-width:0.958579;stroke-linecap:round;stroke-linejoin:round;stroke-miterlimit:10;stroke-dasharray:none;stroke-dashoffset:0;stroke-opacity:1;color-rendering:auto;image-rendering:auto;shape-rendering:auto;text-rendering:auto;enable-background:accumulate;stop-color:#000000;stop-opacity:1" />
      <path
         style="color:#000000;font-style:normal;font-variant:normal;font-weight:normal;font-stretch:normal;font-size:medium;line-height:normal;font-family:sans-serif;font-variant-ligatures:normal;font-variant-position:normal;font-variant-caps:normal;font-variant-numeric:normal;font-variant-alternates:normal;font-variant-east-asian:normal;font-feature-settings:normal;font-variation-settings:normal;text-indent:0;text-align:start;text-decoration:none;text-decoration-line:none;text-decoration-style:solid;text-decoration-color:#000000;letter-spacing:normal;word-spacing:normal;text-transform:none;writing-mode:lr-tb;direction:ltr;text-orientation:mixed;dominant-baseline:auto;baseline-shift:baseline;text-anchor:start;white-space:normal;shape-padding:0;shape-margin:0;inline-size:0;clip-rule:nonzero;display:inline;overflow:visible;visibility:visible;isolation:auto;mix-blend-mode:normal;color-interpolation:sRGB;color-interpolation-filters:linearRGB;solid-color:#000000;solid-opacity:1;vector-effect:none;fill:#ffffff;fill-opacity:1;fill-rule:evenodd;stroke:none;stroke-width:0.958579;stroke-linecap:round;stroke-linejoin:round;stroke-miterlimit:10;stroke-dasharray:none;stroke-dashoffset:0;stroke-opacity:1;color-rendering:auto;image-rendering:auto;shape-rendering:auto;text-rendering:auto;enable-background:accumulate;stop-color:#000000;stop-opacity:1"
         d="m -349.37519,-12.198848 h 87.58653 c 3.42296,0 6.23299,2.6592843 6.23299,6.0704867 V 48.119548 c 0,3.411208 -2.42541,5.824678 -5.84835,5.824659 l -88.12265,-4.95e-4 c -3.42296,-1.9e-5 -5.829,-2.783881 -5.829,-6.195089 V -6.1781902 c 0,-3.4112024 2.55751,-6.0206578 5.98048,-6.0206578 z"
         id="path31724" />
    </g>
    <path
       sodipodi:nodetypes="ssssssssssssssssss"
       id="path31728"
       d="m 114.99031,-3.4614247 c 0.51004,0 0.92715,0.417117 0.92715,0.927142 v 11.237803 c 0,0.510032 -0.41711,0.927143 -0.92715,0.927143 H 96.726393 c -0.51004,0 -0.92715,-0.417111 -0.92715,-0.927143 v -11.237803 c 0,-0.510025 0.41711,-0.927142 0.92715,-0.927142 z m 0,0.415854 H 96.726393 c -0.28684,0 -0.51129,0.224448 -0.51129,0.511288 v 11.237803 c 0,0.28684 0.22445,0.511289 0.51129,0.511289 h 18.263917 c 0.28684,0 0.5113,-0.224449 0.5113,-0.511289 v -11.237803 c 0,-0.28684 -0.22446,-0.511288 -0.5113,-0.511288 z"
       style="color:#000000;font-style:normal;font-variant:normal;font-weight:normal;font-stretch:normal;font-size:medium;line-height:normal;font-family:sans-serif;font-variant-ligatures:normal;font-variant-position:normal;font-variant-caps:normal;font-variant-numeric:normal;font-variant-alternates:normal;font-variant-east-asian:normal;font-feature-settings:normal;font-variation-settings:normal;text-indent:0;text-align:start;text-decoration:none;text-decoration-line:none;text-decoration-style:solid;text-decoration-color:#000000;letter-spacing:normal;word-spacing:normal;text-transform:none;writing-mode:lr-tb;direction:ltr;text-orientation:mixed;dominant-baseline:auto;baseline-shift:baseline;text-anchor:start;white-space:normal;shape-padding:0;shape-margin:0;inline-size:0;clip-rule:nonzero;display:inline;overflow:visible;visibility:visible;opacity:1;isolation:auto;mix-blend-mode:normal;color-interpolation:sRGB;color-interpolation-filters:linearRGB;solid-color:#000000;solid-opacity:1;vector-effect:none;fill:#000000;fill-opacity:1;fill-rule:evenodd;stroke:none;stroke-width:1.99999;stroke-linecap:round;stroke-linejoin:round;stroke-miterlimit:10;stroke-dasharray:none;stroke-dashoffset:0;stroke-opacity:1;color-rendering:auto;image-rendering:auto;shape-rendering:auto;text-rendering:auto;enable-background:accumulate;stop-color:#000000;stop-opacity:1" />
    <path
       id="path31730"
       style="opacity:1;fill:#000000;fill-opacity:1;fill-rule:evenodd;stroke-width:3.96879;stroke-linecap:round;stroke-opacity:0.522267"
       d="m 109.57427,-0.62876767 v 0 h -0.32571 c -0.0299,0 -0.0593,0.0015 -0.0882,0.0032 h -1.93387 c -0.0405,0 -0.0731,0.04538 -0.0742,0.102309 h -6e-5 v 0.0022 c -1e-5,3.01e-4 -4e-5,9.02e-4 -4e-5,0.0015 v 0.814579 c 0,0.0027 7e-5,0.0051 2.8e-4,0.0076 l 3.7e-4,1.71360397 c 0,0.02058 -10e-4,0.04084 -0.002,0.0606 h -7.863787 c -0.0296,0 -0.0533,0.03362 -0.0533,0.07538 v 0.281001 0.113789 2.0506 c 0,0.227784 0.12964,0.411156 0.29069,0.411156 h 0.819877 c -10e-4,-0.0269 -0.002,-0.05381 -0.002,-0.08073 l 1.5e-4,-0.01278 c 0.0113,-0.742812 0.61676,-1.338963 1.35964,-1.338308 0.006,3e-6 0.0102,4.2e-5 0.0159,1.47e-4 0.74903,0.0094 1.34909,0.623357 1.34142,1.372405 -1.6e-4,0.01981 -8.1e-4,0.03956 -0.002,0.05931 h 5.98937 c -0.001,-0.0269 -0.002,-0.05381 -0.002,-0.08074 l 7e-5,-0.01277 c 0.0113,-0.742806 0.61677,-1.33897 1.35968,-1.3383 0.006,3e-6 0.0102,4.2e-5 0.0159,7.2e-5 0.74902,0.0094 1.3491,0.623353 1.34143,1.372405 -1.8e-4,0.01981 -8e-4,0.03956 -0.002,0.05931 h 0.48022 c 0.16104,0 0.29068,-0.183375 0.29068,-0.411157 v -2.304363 c 0,-0.227777 -0.13936,-0.399024 -0.30038,-0.432968 l -0.94951,-0.336997 -0.91023,-1.71451297 -8.2e-4,-7.2e-5 c -0.0981,-0.252627 -0.41571,-0.436771 -0.79484,-0.436771 z m -1.60906,0.569166 h 1.025 0.0717 0.35619 c 0.35206,0 0.49728,0.257185 0.70578,0.65001 0.0273,0.05144 0.11292,0.218239 0.1908,0.390562 0.0135,0.004 0.0162,0.02498 0.0273,0.04493 l 0.37052,0.667014 c 0.0124,0.02221 -0.0263,0.08863 -0.0443,0.08863 h -2.28113 c -1.5e-4,0 -2.9e-4,-5.2e-5 -3.6e-4,-5.2e-5 h -0.42131 z m -6.25958,3.83124797 c -0.64706,0 -1.17678,0.530552 -1.17678,1.17511 0,0.644216 0.52977,1.175415 1.17678,1.175415 0.64707,0 1.17713,-0.531272 1.17713,-1.175415 0,-0.644208 -0.53006,-1.17511 -1.17713,-1.17511 z m 8.70266,0 c -0.6471,0 -1.17681,0.530552 -1.17681,1.17511 0,0.644216 0.52976,1.175415 1.17681,1.175415 0.64708,0 1.17714,-0.531272 1.17714,-1.175415 0,-0.644208 -0.53005,-1.17511 -1.17714,-1.17511 z"
       sodipodi:nodetypes="ccscscccsscccssccsscccsccccccscccssscccccccccsscccsssccssssssssss" />
    <path
       style="color:#000000;font-style:normal;font-variant:normal;font-weight:normal;font-stretch:normal;font-size:medium;line-height:normal;font-family:sans-serif;font-variant-ligatures:normal;font-variant-position:normal;font-variant-caps:normal;font-variant-numeric:normal;font-variant-alternates:normal;font-variant-east-asian:normal;font-feature-settings:normal;font-variation-settings:normal;text-indent:0;text-align:start;text-decoration:none;text-decoration-line:none;text-decoration-style:solid;text-decoration-color:#000000;letter-spacing:normal;word-spacing:normal;text-transform:none;writing-mode:lr-tb;direction:ltr;text-orientation:mixed;dominant-baseline:auto;baseline-shift:baseline;text-anchor:start;white-space:normal;shape-padding:0;shape-margin:0;inline-size:0;clip-rule:nonzero;display:inline;overflow:visible;visibility:visible;opacity:1;isolation:auto;mix-blend-mode:normal;color-interpolation:sRGB;color-interpolation-filters:linearRGB;solid-color:#000000;solid-opacity:1;vector-effect:none;fill:#000000;fill-opacity:1;fill-rule:evenodd;stroke:none;stroke-width:1.99999;stroke-linecap:round;stroke-linejoin:round;stroke-miterlimit:10;stroke-dasharray:none;stroke-dashoffset:0;stroke-opacity:1;color-rendering:auto;image-rendering:auto;shape-rendering:auto;text-rendering:auto;enable-background:accumulate;stop-color:#000000;stop-opacity:1"
       d="m 138.28243,-3.4614247 c 0.51004,0 0.92716,0.417117 0.92716,0.927142 v 11.237803 c 0,0.510032 -0.41712,0.927143 -0.92716,0.927143 h -18.26392 c -0.51002,0 -0.92715,-0.417111 -0.92715,-0.927143 v -11.237803 c 0,-0.510025 0.41713,-0.927142 0.92715,-0.927142 z m 0,0.415854 h -18.26392 c -0.28685,0 -0.51128,0.224448 -0.51128,0.511288 v 11.237803 c 0,0.28684 0.22443,0.511289 0.51128,0.511289 h 18.26392 c 0.28685,0 0.51129,-0.224449 0.51129,-0.511289 v -11.237803 c 0,-0.28684 -0.22444,-0.511288 -0.51129,-0.511288 z"
       id="path31732"
       sodipodi:nodetypes="ssssssssssssssssss" />
    <path
       sodipodi:nodetypes="ssssssssssssssssss"
       id="path31734"
       d="m 161.51866,-3.4614247 c 0.51005,0 0.92712,0.417117 0.92712,0.927142 v 11.237803 c 0,0.510032 -0.41707,0.927143 -0.92712,0.927143 h -18.26393 c -0.51004,0 -0.92715,-0.417111 -0.92715,-0.927143 v -11.237803 c 0,-0.510025 0.41711,-0.927142 0.92715,-0.927142 z m 0,0.415854 h -18.26393 c -0.28685,0 -0.5113,0.224448 -0.5113,0.511288 v 11.237803 c 0,0.28684 0.22445,0.511289 0.5113,0.511289 h 18.26393 c 0.28683,0 0.51129,-0.224449 0.51129,-0.511289 v -11.237803 c 0,-0.28684 -0.22446,-0.511288 -0.51129,-0.511288 z"
       style="color:#000000;font-style:normal;font-variant:normal;font-weight:normal;font-stretch:normal;font-size:medium;line-height:normal;font-family:sans-serif;font-variant-ligatures:normal;font-variant-position:normal;font-variant-caps:normal;font-variant-numeric:normal;font-variant-alternates:normal;font-variant-east-asian:normal;font-feature-settings:normal;font-variation-settings:normal;text-indent:0;text-align:start;text-decoration:none;text-decoration-line:none;text-decoration-style:solid;text-decoration-color:#000000;letter-spacing:normal;word-spacing:normal;text-transform:none;writing-mode:lr-tb;direction:ltr;text-orientation:mixed;dominant-baseline:auto;baseline-shift:baseline;text-anchor:start;white-space:normal;shape-padding:0;shape-margin:0;inline-size:0;clip-rule:nonzero;display:inline;overflow:visible;visibility:visible;opacity:1;isolation:auto;mix-blend-mode:normal;color-interpolation:sRGB;color-interpolation-filters:linearRGB;solid-color:#000000;solid-opacity:1;vector-effect:none;fill:#000000;fill-opacity:1;fill-rule:evenodd;stroke:none;stroke-width:1.99999;stroke-linecap:round;stroke-linejoin:round;stroke-miterlimit:10;stroke-dasharray:none;stroke-dashoffset:0;stroke-opacity:1;color-rendering:auto;image-rendering:auto;shape-rendering:auto;text-rendering:auto;enable-background:accumulate;stop-color:#000000;stop-opacity:1" />
    <path
       d="M 132.0052,-0.63141967 V 4.2034903 h -10.36994 v -4.83490997 z m 3.00618,1.63231997 0.87072,2.198727 v 2.469758 h -0.52607 c 0,0 0.006,-0.160082 -0.052,-0.364492 -0.0485,-0.171984 -0.1457,-0.373667 -0.29351,-0.552849 -0.12329,-0.14948 -0.31081,-0.272251 -0.50424,-0.35843 -0.19944,-0.08885 -0.36246,-0.132318 -0.5522,-0.139866 -0.13849,-0.0056 -0.28074,0.01945 -0.40989,0.06977 -0.25956,0.101151 -0.52965,0.234749 -0.70154,0.454316 -0.13684,0.174813 -0.22705,0.380534 -0.27125,0.554617 -0.0476,0.187361 -0.0438,0.336935 -0.0438,0.336935 H 126.16 c 0,0 -0.005,-0.07518 -0.0197,-0.187481 -0.016,-0.112818 -0.0506,-0.246049 -0.0851,-0.329993 -0.0368,-0.08951 -0.10519,-0.216519 -0.17878,-0.316874 -0.0476,-0.06485 -0.0962,-0.119395 -0.12962,-0.154633 -0.0257,-0.02717 -0.0425,-0.04288 -0.0425,-0.04288 h 6.72921 v -3.636627 z m -0.13249,0.60113 h -2.00629 v 1.399762 h 2.56013 z m -0.93839,2.998352 c 0.58791,0 1.06922,0.482289 1.06922,1.067681 0,0.585385 -0.48131,1.067896 -1.06922,1.067892 -0.58791,0 -1.06943,-0.482507 -1.06943,-1.067892 0,-0.585392 0.48152,-1.067681 1.06943,-1.067681 z m -9.19346,0 c 0.5879,0 1.06922,0.482289 1.06922,1.067681 0,0.585385 -0.48132,1.067896 -1.06922,1.067892 -0.58789,0 -1.06955,-0.482507 -1.06955,-1.067892 0,-0.585392 0.48166,-1.067681 1.06955,-1.067681 z m -0.96562,0.03715 c 0,0 -0.0879,0.08273 -0.17216,0.197619 -0.0736,0.100344 -0.1419,0.227478 -0.17865,0.316989 -0.0346,0.08394 -0.0694,0.216728 -0.0854,0.329547 -0.0161,0.112307 -0.0127,0.204784 -0.0127,0.204784 l -1.69702,-0.552185 v -0.496754 z m 10.15908,0.555388 c -0.26415,0 -0.4736,0.208287 -0.4736,0.475145 0,0.266858 0.20945,0.475479 0.4736,0.475479 0.26415,0 0.47338,-0.208621 0.47338,-0.475479 0,-0.266858 -0.20923,-0.475145 -0.47338,-0.475145 z m -9.19346,0 c -0.26414,0 -0.47361,0.208287 -0.47361,0.475145 0,0.266858 0.20947,0.475479 0.47361,0.475479 0.26415,0 0.47338,-0.208621 0.47338,-0.475479 0,-0.266858 -0.20923,-0.475145 -0.47338,-0.475145 z"
       style="opacity:1;fill:#000000;fill-opacity:1;fill-rule:evenodd;stroke:none;stroke-width:0.702733;stroke-linecap:round;stroke-linejoin:round;stroke-miterlimit:10;stroke-dasharray:none;stroke-opacity:0.87451"
       id="path31736" />
    <path
       d="M 156.63619,0.46113633 V 3.2233223 h -2.40884 v 0.561444 h -9.68844 V 0.46113633 Z m 1.98128,1.08373597 0.55898,1.357269 v 1.943837 h -0.32694 c 0,0 0.005,-0.111364 -0.036,-0.253619 -0.0336,-0.119683 -0.10144,-0.259978 -0.2043,-0.384669 -0.0857,-0.104025 -0.21635,-0.189458 -0.35095,-0.249435 -0.13879,-0.06184 -0.25216,-0.09207 -0.38421,-0.09732 -0.0964,-0.004 -0.19581,0.0126 -0.2853,0.04855 -0.17422,0.07004 -0.34667,0.1633 -0.46628,0.316093 -0.0953,0.121652 -0.15798,0.264765 -0.18877,0.385916 -0.0333,0.130389 -0.0304,0.234491 -0.0304,0.234491 h -0.1452 c 0,0 -0.0102,-0.131235 -0.0506,-0.265729 -0.0344,-0.11508 -0.09,-0.22485 -0.18559,-0.34268 -0.1019,-0.125578 -0.25633,-0.221427 -0.40947,-0.281013 -0.11689,-0.04547 -0.2138,-0.07452 -0.32436,-0.07016 -0.19109,0.0075 -0.36727,0.05409 -0.54957,0.165007 -0.0992,0.06036 -0.17104,0.15034 -0.23504,0.227364 -0.21474,0.258313 -0.20111,0.567212 -0.20111,0.567212 h -0.36521 v -0.712868 -0.162513 -0.548998 h 2.39495 v -1.876727 z m -0.13975,0.399381 h -1.40831 v 0.896434 h 1.7801 z m -4.25037,2.035962 v 0.865763 h -3.23323 c 0,0 0,-0.08133 -0.0231,-0.183225 -0.0268,-0.113271 -0.0815,-0.251875 -0.1313,-0.332163 -0.0452,-0.07303 -0.12515,-0.173659 -0.20767,-0.243317 -0.0814,-0.06876 -0.16578,-0.107058 -0.16578,-0.107058 z m -4.65003,0 c 0,0 -0.0981,0.0496 -0.189,0.125169 -0.0767,0.06372 -0.14425,0.148293 -0.18559,0.213213 -0.0516,0.08098 -0.10986,0.221199 -0.13807,0.336691 -0.0256,0.105728 -0.024,0.19069 -0.024,0.19069 h -0.13979 c 0,0 0.006,-0.08122 -0.0184,-0.182322 -0.026,-0.110307 -0.0829,-0.244265 -0.13105,-0.322083 -0.0431,-0.06955 -0.11694,-0.168629 -0.19713,-0.237318 -0.093,-0.07961 -0.19,-0.12404 -0.19,-0.12404 z m -2.08745,0 c 0,0 -0.11235,0.0546 -0.21581,0.144518 -0.0774,0.06732 -0.14452,0.161647 -0.18539,0.228267 -0.0472,0.07689 -0.096,0.203733 -0.12019,0.312243 -0.0217,0.09712 -0.0208,0.180735 -0.0208,0.180735 h -1.22407 l -1.18478,-0.195449 v -0.670314 z m 10.38239,0.01386 c 0.47269,0 0.85976,0.387832 0.85976,0.858522 0,0.470687 -0.38707,0.858744 -0.85976,0.858744 -0.47271,0 -0.85999,-0.388057 -0.85999,-0.858744 0,-0.470687 0.38728,-0.858522 0.85999,-0.858522 z m -2.1024,0 c 0.4727,0 0.85964,0.387832 0.85964,0.858522 0,0.470687 -0.38694,0.858744 -0.85964,0.858744 -0.47269,0 -0.85999,-0.388057 -0.85999,-0.858744 0,-0.470687 0.3873,-0.858522 0.85999,-0.858522 z m -5.74414,0 c 0.4727,0 0.85963,0.387832 0.85963,0.858522 0,0.470687 -0.38693,0.858744 -0.85963,0.858744 -0.47274,0 -0.86,-0.388057 -0.86,-0.858744 0,-0.470687 0.38726,-0.858522 0.86,-0.858522 z m -2.10251,0 c 0.4727,0 0.85976,0.387832 0.85976,0.858522 0,0.470687 -0.38706,0.858744 -0.85976,0.858744 -0.47273,0 -0.85987,-0.388057 -0.85987,-0.858744 0,-0.470687 0.38714,-0.858522 0.85987,-0.858522 z m 9.94905,0.476455 c -0.2124,0 -0.38084,0.167496 -0.38084,0.382067 0,0.214571 0.16844,0.382293 0.38084,0.382293 0.21236,0 0.3806,-0.167722 0.3806,-0.382293 0,-0.214571 -0.16824,-0.382067 -0.3806,-0.382067 z m -2.1024,0 c -0.2124,0 -0.38085,0.167496 -0.38085,0.382067 0,0.214571 0.16845,0.382293 0.38085,0.382293 0.21237,0 0.3806,-0.167722 0.3806,-0.382293 0,-0.214571 -0.16823,-0.382067 -0.3806,-0.382067 z m -5.74414,0 c -0.21239,0 -0.38084,0.167496 -0.38084,0.382067 0,0.214571 0.16845,0.382293 0.38084,0.382293 0.21237,0 0.38057,-0.167722 0.38057,-0.382293 0,-0.214571 -0.1682,-0.382067 -0.38057,-0.382067 z m -2.10251,0 c -0.2124,0 -0.38072,0.167496 -0.38072,0.382067 0,0.214571 0.16832,0.382293 0.38072,0.382293 0.21237,0 0.38061,-0.167722 0.38061,-0.382293 0,-0.214571 -0.16824,-0.382067 -0.38061,-0.382067 z"
       style="opacity:1;fill:#000000;fill-opacity:1;fill-rule:evenodd;stroke:none;stroke-width:0.702731;stroke-linecap:round;stroke-linejoin:round;stroke-miterlimit:10;stroke-dasharray:none;stroke-opacity:1"
       id="path31738" />
    <path
       sodipodi:nodetypes="sssssssss"
       id="path31740"
       style="opacity:1;fill:#dd7500;fill-opacity:1;fill-rule:evenodd;stroke-width:0.815099;stroke-linecap:round;stroke-linejoin:round;stroke-miterlimit:0.1"
       d="m 97.723863,-35.547462 h 63.152987 c 0.95873,0 1.73051,0.771807 1.73051,1.73052 v 23.44199 c 0,0.9587093 -0.77178,1.7305173 -1.73051,1.7305173 H 97.723863 c -0.95871,0 -1.73052,-0.771808 -1.73052,-1.7305173 v -23.44199 c 0,-0.958713 0.77181,-1.73052 1.73052,-1.73052 z" />
    <path
       id="path31742"
       style="opacity:1;fill:#000000;fill-opacity:1;stroke:none;stroke-width:0.0189498;stroke-opacity:1"
       d="m 103.26116,-32.001765 v 7.429429 l 1.8669,0.0066 c 0,0 1.31624,-8.12e-4 1.46218,-0.02894 0.0814,-0.01555 0.15158,-0.02709 0.15568,-0.02678 0.005,8.11e-4 0.0176,-0.0028 0.0284,-0.0066 0.0102,-0.0042 0.0745,-0.02265 0.14255,-0.04152 0.19454,-0.05398 0.37196,-0.120761 0.52709,-0.198817 0.32368,-0.162889 0.50328,-0.290812 0.76467,-0.544562 0.26662,-0.258812 0.43891,-0.496454 0.59373,-0.817663 0.33552,-0.696065 0.47821,-1.830423 0.3512,-2.786173 -0.11393,-0.857435 -0.30686,-1.367247 -0.71771,-1.894226 -0.0745,-0.09555 -0.36892,-0.379889 -0.50468,-0.487213 -0.19833,-0.156794 -0.61665,-0.375959 -0.8417,-0.440782 -0.034,-0.0099 -0.11178,-0.03278 -0.1726,-0.05135 -0.0608,-0.01847 -0.16633,-0.04174 -0.23432,-0.05244 -0.0679,-0.01068 -0.15509,-0.02649 -0.19445,-0.03494 -0.0525,-0.01136 -0.49317,-0.01744 -1.64952,-0.0202 z m 33.22213,0.0043 v 2.09195 h -1.1858 v 1.192906 h 1.1858 l -0.0126,2.588448 c -0.002,0.438533 0.10394,0.729569 0.35557,1.053075 0.25881,0.323514 0.69019,0.541837 1.10716,0.541837 0.22286,0 0.56618,-0.01888 0.94055,-0.296591 l -0.71659,-0.960772 c 0,0 -0.0255,0.02425 -0.0683,0.03987 -0.0524,0.019 -0.12763,0.02954 -0.17205,0.0202 -0.0853,-0.01787 -0.15954,-0.0867 -0.20646,-0.160037 -0.0244,-0.03823 -0.0305,-0.132727 -0.0305,-0.132727 v -2.693319 h 1.194 v -1.1929 h -1.194 v -2.091951 z m 4.95132,0.141464 v 1.217483 h 1.21257 v -1.217478 z m -36.84674,1.193995 0.88866,0.0043 c 0.97041,0.0045 0.9344,0.002 1.18035,0.08465 0.11588,0.03911 0.33901,0.147639 0.4031,0.196083 0.17395,0.131434 0.28197,0.236649 0.3818,0.371422 0.19148,0.258514 0.28362,0.510393 0.36595,1.002819 0.076,0.454819 0.0695,1.16427 -0.0142,1.529367 -0.0102,0.04652 -0.028,0.130339 -0.0388,0.186253 -0.0852,0.445097 -0.30531,0.809709 -0.64233,1.063454 -0.0465,0.03502 -0.15799,0.101469 -0.24743,0.147477 -0.15625,0.08038 -0.20061,0.09595 -0.41675,0.146377 -0.0867,0.02032 -0.19546,0.02333 -0.9788,0.02733 l -0.88157,0.0043 z m 48.09357,0.491581 c -0.43382,0 -0.87213,0.133658 -1.25898,0.329906 -0.17173,0.08709 -0.40101,0.256936 -0.58172,0.410743 -0.10905,0.09283 -0.30096,0.306967 -0.30096,0.306967 0,0 -0.35046,-0.43252 -0.87117,-0.719349 -0.38674,-0.213009 -0.90609,-0.295906 -1.23936,-0.324989 -0.28426,-0.02481 -0.71648,0.048 -1.0558,0.174784 -0.33776,0.126188 -0.58334,0.306418 -0.58334,0.306418 v -0.327714 h -1.24044 v 5.479488 h 1.24044 l 0.007,-2.965869 c 0,0 0.0233,-0.185244 0.0983,-0.38562 0.0712,-0.189484 0.19182,-0.390897 0.30262,-0.5036 0.10179,-0.103558 0.21011,-0.210596 0.33808,-0.290575 0.23424,-0.14637 0.51145,-0.230242 0.77727,-0.234866 0.23269,-0.004 0.48132,0.04212 0.70022,0.145834 0.18955,0.0898 0.35499,0.226229 0.49706,0.369231 0.1069,0.107661 0.23588,0.303926 0.30478,0.491586 0.0902,0.245813 0.10429,0.477378 0.10429,0.477378 v 2.896501 h 1.24861 v -2.820036 c 0,0 -0.006,-0.253606 0.0879,-0.510153 0.0939,-0.258189 0.28738,-0.52003 0.44625,-0.666364 0.1974,-0.181821 0.45641,-0.299942 0.72865,-0.353392 0.10849,-0.02075 0.22435,-0.01812 0.33099,-0.02621 0.22524,-0.01703 0.55005,0.08509 0.82041,0.263816 0.18695,0.123631 0.33415,0.292969 0.46151,0.446797 0.17217,0.207838 0.254,0.769052 0.254,0.769052 v 2.896501 h 1.25899 l -0.0236,-3.02541 c 0,0 -0.0132,-0.244773 -0.0906,-0.534726 -0.0838,-0.313131 -0.21777,-0.61613 -0.40962,-0.874469 -0.24591,-0.331124 -0.55722,-0.630901 -0.92038,-0.826403 -0.43434,-0.233857 -0.93826,-0.375241 -1.43156,-0.375241 z m -30.28358,0.0153 c -0.25737,0.01602 -0.56422,0.08133 -0.81877,0.176424 -0.33781,0.126216 -0.58334,0.305868 -0.58334,0.305868 V -30 h -1.24041 v 5.480582 h 1.24041 l 0.007,-2.966415 c 0,0 0.0235,-0.18576 0.0988,-0.386168 0.0712,-0.18951 0.19122,-0.390871 0.30206,-0.503597 0.1019,-0.103581 0.2101,-0.210596 0.33809,-0.290579 0.23428,-0.146402 0.51196,-0.230281 0.77781,-0.234871 0.23274,-0.004 0.48128,0.04211 0.70022,0.145842 0.1896,0.08983 0.35497,0.226214 0.49704,0.369228 0.10702,0.107683 0.23588,0.303886 0.30478,0.491581 0.0902,0.245847 0.10429,0.477379 0.10429,0.477383 v 2.897596 h 1.24862 v -2.821131 c 0,0 -0.017,-0.43481 -0.0781,-0.641237 -0.11871,-0.401125 -0.2911,-0.799345 -0.55003,-1.127906 -0.23313,-0.295841 -0.53646,-0.547128 -0.87173,-0.718803 -0.38023,-0.194693 -0.90654,-0.29641 -1.23987,-0.32553 -0.0711,-0.0061 -0.15127,-0.0064 -0.23705,-0.0012 z m -7.82488,0.0366 c -0.77643,0 -1.4336,0.270825 -1.97179,0.812206 -0.5382,0.541383 -0.80729,1.199568 -0.80729,1.975059 0,0.782814 0.27337,1.445148 0.8204,1.986532 0.55585,0.534068 1.23071,0.800731 2.02477,0.800731 0.81164,0 1.44008,-0.43255 1.77133,-0.718256 l -0.82695,-0.924719 c -0.35292,0.278012 -0.58271,0.395451 -0.94438,0.395455 -0.28234,0 -0.62663,-0.03932 -0.90014,-0.244152 -0.26462,-0.204853 -0.42512,-0.317 -0.59044,-0.676744 h 4.11725 l 0.0683,-0.606831 c -0.009,-0.69502 -0.18416,-1.20538 -0.63414,-1.783345 -0.44997,-0.577961 -1.20932,-1.008591 -2.1269,-1.015936 z m 16.08016,0 c -0.77643,0 -1.43358,0.270825 -1.97179,0.812206 -0.53819,0.541383 -0.80728,1.199568 -0.80728,1.975059 0,0.782814 0.27337,1.445148 0.82039,1.986532 0.55584,0.534068 1.23071,0.800731 2.02477,0.800731 0.81165,0 1.44008,-0.43255 1.77133,-0.718256 l -0.82695,-0.924719 c -0.35292,0.278012 -0.5827,0.395451 -0.94438,0.395455 -0.28233,0 -0.62662,-0.03932 -0.90015,-0.244152 -0.26462,-0.204853 -0.42511,-0.317 -0.59043,-0.676744 h 4.11726 l 0.0683,-0.606831 c -0.009,-0.69502 -0.18418,-1.20538 -0.63414,-1.783345 -0.44997,-0.577961 -1.20933,-1.008591 -2.12691,-1.015936 z m 10.78147,0.09613 v 5.488233 h 1.21257 v -5.488225 z m -26.83815,1.140469 c 0.16551,-0.0042 0.41254,0.05513 0.62104,0.155123 0.15827,0.0759 0.28714,0.182158 0.38233,0.261087 0.22939,0.182839 0.37578,0.51452 0.37578,0.51452 h -2.82712 c 0,0 0.1748,-0.354353 0.40419,-0.544565 0.12308,-0.102071 0.29583,-0.216651 0.49321,-0.290031 0.18461,-0.06864 0.3928,-0.09949 0.55057,-0.09613 z m 16.08017,0 c 0.16551,-0.0042 0.41252,0.05513 0.62102,0.155123 0.15829,0.0759 0.28716,0.182158 0.38235,0.261087 0.2294,0.182839 0.37579,0.51452 0.37579,0.51452 h -2.82714 c 0,0 0.17479,-0.354353 0.40419,-0.544565 0.12309,-0.102071 0.29583,-0.216651 0.49322,-0.290031 0.18461,-0.06864 0.39279,-0.09949 0.55057,-0.09613 z m -31.258007,7.371537 v 1.341466 h 1.336547 v -1.341466 z m 0,2.237784 v 7.439263 h 1.336547 v -7.4393 z m 11.942687,0.116889 v 2.049345 h -1.16232 v 1.169416 h 1.16232 l -0.012,2.536562 c -0.002,0.429728 0.10134,0.715301 0.34793,1.03232 0.25363,0.316998 0.67671,0.530359 1.08531,0.530359 0.21839,0 0.55459,-0.01844 0.92144,-0.290576 l -0.70241,-0.941651 c 0,0 -0.0243,0.02401 -0.0661,0.03932 -0.0514,0.01855 -0.12524,0.02882 -0.16878,0.01964 -0.0835,-0.01747 -0.15663,-0.08488 -0.20265,-0.156758 -0.0239,-0.03747 -0.03,-0.129994 -0.03,-0.129994 v -2.639245 h 1.16995 v -1.169419 h -1.16995 v -2.049344 z m 18.05305,1.665914 1.53319,3.586355 0.78433,1.8123 -0.28183,0.510148 c 0,0 -0.0443,0.0821 -0.12836,0.148021 -0.0553,0.04342 -0.14228,0.0771 -0.19445,0.08411 -0.0666,0.009 -0.16098,0.0053 -0.24086,-0.0317 -0.0918,-0.04246 -0.16497,-0.119614 -0.16497,-0.119614 l -1.00499,0.895765 c 0,0 0.23038,0.270989 0.56585,0.432594 0.30061,0.144809 0.6932,0.1832723 0.9493,0.166044 0.23313,-0.01573 0.57396,-0.12426 0.82532,-0.291674 0.2691,-0.179248 0.44132,-0.417841 0.44132,-0.417841 l 2.89869,-6.774534 h -1.29996 l -1.68994,3.940843 -1.69268,-3.940843 z m -23.61829,0.004 c -0.25704,0 -0.57252,0.02597 -0.8559,0.06663 -0.20924,0.02998 -0.41576,0.07783 -0.62048,0.130541 -0.14303,0.03687 -0.29557,0.05626 -0.42386,0.129449 -0.10803,0.06161 -0.18437,0.14251 -0.27582,0.251257 -0.24384,0.289854 -0.38426,0.808588 -0.33264,1.230043 0.0445,0.362511 0.22728,0.660185 0.53309,0.956943 0.0929,0.08561 0.27408,0.186251 0.4244,0.253438 0.21303,0.09516 0.44479,0.140246 0.668,0.208103 0.10519,0.03198 0.21074,0.06289 0.31625,0.09395 0.16422,0.04831 0.32887,0.09586 0.49322,0.143652 0.27741,0.08071 0.55659,0.155514 0.83241,0.241417 0.10951,0.03418 0.22999,0.05443 0.32609,0.108695 0.0466,0.02629 0.0753,0.07609 0.10973,0.116882 0.0204,0.02417 0.026,0.05873 0.0289,0.09012 0.003,0.02629 0.008,0.06826 0.005,0.102139 -0.003,0.03399 -0.0256,0.09941 -0.0256,0.09941 0,0 -0.37043,0.09483 -0.55931,0.121259 -0.2026,0.02841 -0.44696,0.03987 -0.61228,0.03987 -0.61163,-0.0074 -1.3156,-0.08709 -1.99965,-0.450615 l -0.55821,1.126811 c 0.7967,0.415452 1.63623,0.57455 2.5939,0.589354 0.41381,-0.0043 0.82219,-0.06695 1.17597,-0.139826 0.13176,-0.02705 0.24652,-0.06182 0.36105,-0.09504 0.11019,-0.0319 0.22077,-0.06148 0.31241,-0.124531 0.17964,-0.126461 0.28955,-0.285847 0.37689,-0.449522 0.12785,-0.239635 0.18846,-0.5016 0.19335,-0.79254 -0.008,-0.548998 -0.19284,-0.826657 -0.48011,-1.108788 -0.39083,-0.383864 -1.05752,-0.498086 -1.51953,-0.625404 -0.24971,-0.06882 -0.50602,-0.147463 -0.75922,-0.220663 -0.14458,-0.04171 -0.2924,-0.0742 -0.43422,-0.124531 -0.1736,-0.06155 -0.38793,-0.07655 -0.50852,-0.21575 -0.0476,-0.05488 -0.0568,-0.138298 -0.0557,-0.210837 3.6e-4,-0.03976 0.0345,-0.114155 0.0345,-0.114155 0,0 0.71933,-0.181843 1.08639,-0.177514 0.62431,0.0081 1.39424,0.14084 1.84015,0.349567 l 0.48066,-1.155762 c -0.66877,-0.288174 -1.38193,-0.444062 -2.1706,-0.444062 z m 19.57585,0 c -0.25704,0 -0.57251,0.02597 -0.85589,0.06663 -0.20926,0.02998 -0.41578,0.07783 -0.62048,0.130541 -0.14303,0.03687 -0.29557,0.05626 -0.42387,0.129449 -0.10803,0.06161 -0.18435,0.14251 -0.27583,0.251257 -0.24382,0.289854 -0.38426,0.808588 -0.33262,1.230043 0.0444,0.362511 0.22726,0.660185 0.53308,0.956943 0.0928,0.08561 0.27407,0.186251 0.4244,0.253438 0.21302,0.09516 0.44479,0.140246 0.66801,0.208103 0.10519,0.03198 0.21072,0.06289 0.31624,0.09395 0.16422,0.04831 0.32887,0.09586 0.49322,0.143652 0.27742,0.08071 0.55659,0.155514 0.83242,0.241417 0.10951,0.03418 0.22998,0.05443 0.32608,0.108695 0.0466,0.02629 0.0753,0.07609 0.10974,0.116882 0.0204,0.02417 0.026,0.05873 0.029,0.09012 0.003,0.02629 0.008,0.06826 0.005,0.102139 -0.003,0.03399 -0.0256,0.09941 -0.0256,0.09941 0,0 -0.37043,0.09483 -0.5593,0.121259 -0.20261,0.02841 -0.44696,0.03987 -0.61229,0.03987 -0.61162,-0.0074 -1.3156,-0.08709 -1.99964,-0.450615 l -0.55822,1.126811 c 0.7967,0.415452 1.63624,0.57455 2.59391,0.589354 0.4138,-0.0043 0.82219,-0.06695 1.17597,-0.139826 0.13176,-0.02705 0.24652,-0.06182 0.36104,-0.09504 0.1102,-0.0319 0.22079,-0.06148 0.31243,-0.124531 0.17963,-0.126461 0.28954,-0.285847 0.37687,-0.449522 0.12785,-0.239635 0.18848,-0.5016 0.19336,-0.79254 -0.008,-0.548998 -0.19284,-0.826657 -0.48011,-1.108788 -0.39084,-0.383864 -1.05753,-0.498086 -1.51953,-0.625404 -0.24972,-0.06882 -0.50603,-0.147463 -0.75923,-0.220663 -0.14457,-0.04171 -0.29238,-0.0742 -0.43421,-0.124531 -0.17361,-0.06155 -0.38793,-0.07655 -0.50853,-0.21575 -0.0476,-0.05488 -0.0568,-0.138298 -0.0557,-0.210837 3e-4,-0.03976 0.0345,-0.114155 0.0345,-0.114155 0,0 0.71933,-0.181843 1.08639,-0.177514 0.62432,0.0081 1.39426,0.14084 1.84015,0.349567 l 0.48066,-1.155762 c -0.66876,-0.288174 -1.38194,-0.444062 -2.17061,-0.444062 z m -7.05964,0.04151 c -0.35256,-0.01792 -0.92503,0.05108 -1.37208,0.163863 -0.56873,0.143492 -0.98096,0.341375 -0.98096,0.341375 l 0.5096,1.136101 c 0,0 0.32471,-0.179749 0.91215,-0.298775 0.1715,-0.03475 0.42241,-0.06725 0.63524,-0.08465 0.13159,-0.01068 0.2635,-0.01643 0.39545,-0.01202 0.10702,0.0036 0.21805,-0.0016 0.32008,0.03114 0.2858,0.09126 0.60476,0.204575 0.78105,0.44734 0.0717,0.09875 0.1465,0.283627 0.17152,0.438601 0.0163,0.10098 -0.0163,0.306414 -0.0163,0.306414 0,0 -0.28123,-0.12363 -0.63687,-0.208099 -0.29779,-0.07072 -0.65326,-0.107626 -0.88758,-0.08193 -0.22182,0.02432 -0.44364,0.04859 -0.66909,0.103229 -0.59781,0.144887 -1.1829,0.44058 -1.57634,0.88266 -0.19173,0.215416 -0.25276,0.527866 -0.24743,0.810021 0.005,0.213817 0.0768,0.438648 0.21028,0.605733 0.11647,0.145732 0.2473,0.258362 0.39327,0.359402 0.30916,0.213971 0.66262,0.393504 1.00556,0.511243 0.42765,0.14683 0.89827,0.176206 1.34912,0.14201 0.37064,-0.02809 1.07875,-0.282384 1.07875,-0.282384 v 0.139828 h 1.26009 v -3.220402 c 0,-0.660101 -0.32887,-1.222401 -0.80893,-1.635874 -0.48007,-0.413468 -1.15624,-0.560732 -1.82649,-0.594812 z m 21.60881,0.0028 c -0.78866,0 -1.45472,0.274176 -1.99802,0.823122 -0.54329,0.548946 -0.81492,1.215382 -0.81492,1.998548 0,0.775845 0.27163,1.438143 0.81492,1.98708 0.5433,0.54895 1.20936,0.823127 1.99802,0.823127 0.77987,0 1.44158,-0.274177 1.98489,-0.823127 0.55205,-0.548937 0.82804,-1.211235 0.82804,-1.98708 0,-0.783166 -0.27599,-1.449602 -0.82804,-1.998548 -0.54331,-0.548946 -1.20502,-0.823122 -1.98489,-0.823122 z m 13.86858,0.0054 v 2.820581 c 0,0 0.0172,0.434817 0.0781,0.641238 0.1187,0.401129 0.2911,0.799348 0.55003,1.127908 0.23312,0.295834 0.53646,0.547131 0.87175,0.7188 0.38023,0.194697 0.90651,0.296415 1.23987,0.325538 0.28434,0.02481 0.71588,-0.04799 1.05524,-0.174785 0.33783,-0.126218 0.5839,-0.30642 0.5839,-0.30642 v 0.327173 h 1.24043 v -5.479971 h -1.24043 l -0.008,2.965873 c 0,0 -0.0228,0.185752 -0.0982,0.386161 -0.0712,0.189512 -0.19124,0.390877 -0.30204,0.5036 -0.1019,0.10357 -0.21013,0.210595 -0.33812,0.290575 -0.23425,0.146406 -0.51194,0.230282 -0.7778,0.234866 -0.23272,0.004 -0.48184,-0.04211 -0.70077,-0.145834 -0.1896,-0.08982 -0.35444,-0.226216 -0.49651,-0.369232 -0.1069,-0.107672 -0.23585,-0.30388 -0.30477,-0.491581 -0.0902,-0.245842 -0.10429,-0.477381 -0.10429,-0.477381 v -2.897047 z m -5.77552,0.004 c -0.25733,0.01602 -0.56367,0.08078 -0.8182,0.17588 -0.33784,0.126219 -0.5839,0.305872 -0.5839,0.305872 v -0.327173 h -1.24044 v 5.480581 h 1.24044 l 0.008,-2.966418 c 0,0 0.0232,-0.185756 0.0983,-0.386165 0.0712,-0.189511 0.1912,-0.390874 0.30205,-0.503595 0.1019,-0.103582 0.21007,-0.2106 0.33813,-0.29058 0.23424,-0.146402 0.51193,-0.230285 0.77774,-0.23487 0.23277,-0.004 0.48185,0.04212 0.70082,0.145837 0.18959,0.08983 0.35439,0.226762 0.49646,0.369777 0.10702,0.107683 0.23589,0.303337 0.30481,0.491037 0.0902,0.245842 0.1043,0.477378 0.1043,0.477378 v 2.897599 h 1.2486 v -2.82113 c 0,0 -0.0172,-0.434268 -0.078,-0.640695 -0.11872,-0.401126 -0.29112,-0.799342 -0.55005,-1.127906 -0.23312,-0.295838 -0.53649,-0.547674 -0.87173,-0.719344 -0.38025,-0.194698 -0.90654,-0.296412 -1.23988,-0.325539 -0.0711,-0.0061 -0.15126,-0.0059 -0.23706,-3.6e-4 z m -8.13075,1.249165 c 0.36816,-0.01011 0.76396,0.128728 1.04051,0.371965 0.29462,0.2591 0.50086,0.657813 0.53474,1.048707 0.0338,0.390145 -0.089,0.826732 -0.34521,1.122987 -0.28453,0.329064 -0.74433,0.550833 -1.17925,0.559854 -0.44359,0.0092 -0.92516,-0.193599 -1.22513,-0.520527 -0.25767,-0.28083 -0.37647,-0.706418 -0.35503,-1.08694 0.0217,-0.385957 0.20435,-0.786031 0.48175,-1.055261 0.27192,-0.263906 0.66884,-0.430342 1.04762,-0.440785 z m -21.61701,2.171693 c 0.22607,-0.0016 0.56228,0.04416 0.83405,0.151844 0.31003,0.122856 0.54238,0.3097 0.54238,0.3097 0,0 -0.23307,0.181615 -0.52981,0.302594 -0.27039,0.110227 -0.59442,0.160769 -0.82149,0.160581 -0.23031,-1.92e-4 -0.62418,-0.07384 -0.89633,-0.18625 -0.28789,-0.118921 -0.44788,-0.276925 -0.44788,-0.276925 0,0 0.18784,-0.164957 0.49869,-0.290579 0.25294,-0.10223 0.61136,-0.16947 0.82039,-0.170965 z" />
    <path
       sodipodi:nodetypes="sccscsssscsssssscscs"
       inkscape:connector-curvature="0"
       id="path7404"
       d="m 123.30245,28.032488 -1.32128,-1.376062 0.0792,-0.078 c 0.0438,-0.04277 1.66536,-1.478255 3.60429,-3.189426 1.93894,-1.711174 3.5255,-3.122879 3.52575,-3.137129 2.5e-4,-0.01439 -0.63277,-0.405311 -1.40664,-0.86903 -1.59128,-0.953521 -1.64393,-0.992845 -1.68557,-1.259018 -0.0314,-0.200062 0.0349,-0.402067 0.17704,-0.539513 0.10599,-0.102592 0.23429,-0.135665 4.74856,-1.224033 2.55178,-0.615231 4.69211,-1.134521 4.75629,-1.153986 0.15526,-0.04706 0.36743,-0.01993 0.51402,0.06572 0.10236,0.05976 0.13031,0.09131 0.19554,0.222208 0.042,0.08388 0.0772,0.205053 0.0786,0.269297 0.002,0.139128 -2.55337,9.406689 -2.63081,9.538158 -0.11918,0.202239 -0.40771,0.31742 -0.65787,0.262627 -0.24793,-0.05432 -0.30946,-0.144064 -1.18416,-1.727147 -0.43241,-0.782602 -0.79774,-1.423108 -0.81182,-1.423346 -0.0142,-2.61e-4 -1.51572,1.575215 -3.33694,3.500985 -1.82122,1.925782 -3.31392,3.499787 -3.31712,3.497816 -0.002,-0.0022 -0.60053,-0.622698 -1.32714,-1.379621 z"
       style="opacity:1;fill:#ffffff;stroke-width:0.264582" />
  </g>
</svg>
