<svg width="502.4" height="108.9" version="1.1" viewBox="0 0 132.9 28.81" xmlns="http://www.w3.org/2000/svg"><g transform="translate(-609.9 -445.6)"><path d="m610 445.7v28.55h118.4l14.24-14.27-14.24-14.28zm0.2656 0.2656h118l13.98 14.01-13.98 14h-118z" color="#000000" style="paint-order:stroke fill markers"/><path d="m610.1 445.8v28.28h118.2l14.11-14.14-14.11-14.15z" color="#000000" fill="#fff" stroke-linecap="square" stroke-width=".2646" style="-inkscape-stroke:none;paint-order:stroke fill markers"/><path d="m644.3 457.8c-0.2607 1.2e-4 -0.5194 0.0162-0.777 0.0404-0.3427 0.0323-0.6875 0.1035-1.024 0.1904-0.2126 0.0554-0.437 0.0841-0.6145 0.2114-0.3916 0.2785-0.5146 0.5987-0.6446 0.9632-0.0958 0.2696-0.1075 0.7073-0.08 0.8531 0.08 0.4076 0.2368 0.8376 0.6256 1.18 0.3552 0.3132 0.7319 0.4361 1.11 0.5542 0.4226 0.1318 0.8478 0.2457 1.281 0.3678 0.255 0.0715 0.5567 0.1641 0.8309 0.2445 0.1661 0.0473 0.3767 0.1014 0.5535 0.1637 0.1301 0.0473 0.2429 0.0841 0.3067 0.2021 0.0323 0.0404 0.0558 0.1111 0.0558 0.1714 0 0.0715-0.0473 0.2077-0.0473 0.2077-0.6336 0.1556-1.031 0.1932-1.362 0.2061-0.356 0.0162-0.6351-3e-3 -1.049-0.0554-0.559-0.0715-1.608-0.517-1.608-0.517l-0.7073 1.428s0.329 0.1718 0.762 0.3241c0.4226 0.1475 0.9442 0.2736 1.309 0.3314 0.2292 0.0404 0.4805 0.0554 0.7382 0.0715v2.124h1.587v-2.192c0.4131-0.0558 0.8588-0.1455 1.197-0.3354 0.4305-0.2425 0.7001-0.8054 0.758-1.472 0.0558-0.6874-0.2599-1.2-0.647-1.569-0.7335-0.6978-1.58-0.6225-2.381-0.9045-0.5384-0.1895-1.555-0.3908-1.627-0.5297-0.0323-0.0554-0.0816-0.1035-0.0929-0.1681-0.0323-0.0917-0.0323-0.211 0.0323-0.2821 0 0 0.6755-0.1738 1.022-0.1992 0.4655-0.0323 0.9372-8e-3 1.398 0.0634 0.2098 0.0323 0.5258 0.0938 0.7866 0.1701 0.2829 0.082 0.5043 0.1807 0.5043 0.1807l0.6098-1.465s-0.2457-0.1031-0.5693-0.2098c-0.3092-0.1006-0.6915-0.2033-0.9461-0.2445-0.4258-0.0711-0.86-0.1047-1.293-0.1047z" color="#000000" color-rendering="auto" dominant-baseline="auto" image-rendering="auto" shape-rendering="auto" solid-color="#000000" stop-color="#000000" style="font-feature-settings:normal;font-variant-alternates:normal;font-variant-caps:normal;font-variant-east-asian:normal;font-variant-ligatures:normal;font-variant-numeric:normal;font-variant-position:normal;font-variation-settings:normal;inline-size:0;isolation:auto;mix-blend-mode:normal;shape-margin:0;shape-padding:0;text-decoration-color:#000000;text-decoration-line:none;text-decoration-style:solid;text-indent:0;text-orientation:mixed;text-transform:none;white-space:normal"/><path d="m634.7 457.8a3.569 3.569 0 0 0-3.56 3.569 3.569 3.569 0 0 0 3.569 3.569 3.569 3.569 0 0 0 2.377-0.9067l-1.059-1.185a1.98 1.98 0 0 1-1.317 0.5019 1.98 1.98 0 0 1-1.81-1.179h5.282a3.569 3.569 0 0 0 0.0905-0.8011 3.569 3.569 0 0 0-3.569-3.569zm0 1.589a1.98 1.98 0 0 1 1.817 1.193h-3.633a1.98 1.98 0 0 1 1.805-1.193z"/><path d="m616.4 447.4c-2.592 0-4.734 2.142-4.734 4.734v15.72c0 2.592 2.142 4.734 4.734 4.734h111.2l12.55-12.59-12.55-12.6zm3.2e-4 1.77h107.1l6.3 10.83-6.3 10.82h-107.1c-1.642 0-2.964-1.322-2.964-2.964v-15.72c0-1.642 1.322-2.964 2.964-2.964z" color="#000000" stroke-linecap="square" stroke-width=".3388" style="-inkscape-stroke:none;paint-order:stroke fill markers"/><path d="m680.8 457.8c-1.067-8e-3 -2.244 0.2388-3.138 0.6535l0.648 1.444c0.7401-0.3367 1.423-0.4959 2.427-0.4959 0.9189 0 1.662 0.5555 1.662 1.243v0.3116c-0.5235-0.232-1.158-0.367-1.836-0.367-0.7527 0-1.443 0.2259-1.998 0.5054-0.3096 0.1564-0.5572 0.3427-0.768 0.5393-0.0978 0.0837-0.1912 0.1512-0.2607 0.251-0.1798 0.2684-0.2805 0.5656-0.2805 0.8784 0 0.3201 0.1119 0.6229 0.2946 0.8994 0.0283 0.0364 0.0837 0.0837 0.1261 0.112 0.0699 0.0562 0.1253 0.1261 0.1944 0.1798 0.2417 0.1904 0.4791 0.3645 0.775 0.5055 0.5488 0.2655 1.186 0.4735 1.919 0.4735 0.6774 0 1.311-0.1479 1.836-0.3674v0.1665h1.586v-4.266h-3e-3c-0.0364-1.17-0.8198-1.906-1.667-2.319-0.2195-0.1119-0.9943-0.348-1.514-0.3532zm-0.2259 4.367h0.0558c0.9412 0 1.707 0.5893 1.707 0.5893s-0.7653 0.5893-1.707 0.5893c-0.9426 0-1.707-0.5893-1.707-0.5893s0.7304-0.5781 1.652-0.5893z" stroke-width=".3637"/><path d="m619.4 455v9.882h4.955c0.5105 0 1.017-0.141 1.519-0.4128 0.4533-0.2441 0.7503-0.5955 1.015-1.047 0.2748-0.463 0.424-1.089 0.424-1.59-8e-3 -0.5272-0.2203-1.022-0.4644-1.476-0.1406-0.2578-0.562-0.6862-0.562-0.6862s0.6192-0.7839 0.6192-1.767c0-1.003-0.5927-2.045-1.487-2.546-0.4128-0.2356-0.9833-0.3544-1.711-0.3544zm1.782 1.784h2.872c0.6039 0 1.091 0.4882 1.091 1.091 0 0.6039-0.4868 1.091-1.091 1.091h-2.872zm0.0283 3.945h3.134c0.6597 0 1.192 0.5314 1.192 1.191 0 0.6597-0.5314 1.192-1.192 1.192h-3.134z"/><path d="m671.6 457.8c-1.987 3e-3 -3.594 1.617-3.595 3.604-2e-4 1.68 1.16 3.137 2.797 3.513v1.591h1.599v-1.588c0.8049-0.1815 1.523-0.6332 2.035-1.28h-0.0283l-1.241-0.9986c-0.3795 0.4692-0.9506 0.7419-1.554 0.742-1.104 0-1.999-0.8948-1.999-1.999 1.3e-4 -1.099 0.888-1.992 1.987-1.999h8e-3c0.6065 2e-4 1.18 0.2756 1.559 0.749l1.248-1.01c-0.684-0.85-1.716-1.344-2.807-1.344h-8e-3z"/><path d="m662.4 457.8v7.119h1.573v-7.119z" stroke-width=".1061"/><path d="m652.8 455v3.371c0.5678-0.3827 1.251-0.6097 1.988-0.6097h8e-3c1.962 3e-3 3.55 1.597 3.55 3.56 1.2e-4 1.966-1.594 3.56-3.56 3.56-0.7362 0-1.42-0.2263-1.988-0.6096v0.6089h-1.577v-9.881zm2 4.345h-8e-3c-1.091 0-1.976 0.8848-1.976 1.976 0 1.091 0.8848 1.976 1.976 1.976 1.091 8e-5 1.976-0.8847 1.976-1.976 4e-5 -1.087-0.877-1.969-1.963-1.976z"/><path d="m695.4 464.9h-1.965l-2.499-3.329-0.6643 0.56v2.769h-1.578v-9.882h1.578v5.04l2.695-2.278h2.434l-3.26 2.763z" stroke-width=".01147"/><path d="m713.5 455c-0.5216-3e-3 -1.043 0.093-1.511 0.2878-0.5565 0.2344-0.8481 0.4277-1.275 0.8454-0.3225 0.316-0.4993 0.547-0.5988 0.786-0.1358 0.3233-0.192 0.6019-0.1924 0.9535-6.1e-4 0.5682 0.2017 1.098 0.6027 1.577l0.0578 0.0744-0.2154 0.2114c-0.3864 0.3791-0.5405 0.6302-0.7221 1.173-0.0736 0.213-0.1018 0.3932-0.118 0.6978-0.0433 0.7907 0.2627 1.547 0.8523 2.114 0.2449 0.2356 0.6906 0.5366 1.011 0.6841 0.5325 0.2441 1.013 0.386 1.478 0.4368 0.0841 8e-3 0.2138 0.0202 0.2878 0.0323 0.1512 0.0162 0.4649 0.0162 0.6247 0l8e-3 8e-3c0.0582-8e-3 0.1802-0.0162 0.2724-0.0283 1.023-0.1148 2.104-0.6429 2.693-1.317 0.2542-0.2914 0.4516-0.6496 0.5554-1.013 0.1022-0.3544 0.1071-0.3888 0.1063-0.7952-5.6e-4 -0.4272-0.0162-0.5492-0.1362-0.888-0.0841-0.2425-0.141-0.369-0.2498-0.5441-0.1608-0.2599-0.3209-0.4499-0.5578-0.6635l-0.1111-0.1006 0.0364-0.0432c0.0202-0.0202 0.0582-0.0736 0.0865-0.1059 0.2623-0.3407 0.373-0.5608 0.4748-0.9428 0.0509-0.1976 0.0509-0.1976 0.0509-0.5821v-0.3843l-0.0509-0.1867c-0.0909-0.3261-0.1806-0.5176-0.3346-0.7152-0.2793-0.3581-0.647-0.7006-1.007-0.9375-0.1637-0.1083-0.5499-0.2995-0.7769-0.3843-0.4242-0.1596-0.8843-0.2409-1.345-0.2445zm-0.0323 1.779c0.2477 2.5e-4 0.3027 8e-3 0.4649 0.0433 0.4802 0.1124 0.8846 0.3512 1.179 0.697 0.1176 0.1378 0.1382 0.1883 0.1382 0.3455 0 0.1596-0.0202 0.2098-0.1467 0.3516-0.3043 0.3415-0.7068 0.5786-1.156 0.6818-0.1932 0.0433-0.2154 0.0437-0.5357 0.0364-0.2586-8e-3 -0.3076-0.0162-0.4642-0.0509l3e-3 3e-3c-0.4214-0.1136-0.7043-0.2776-1.02-0.5951-0.215-0.2158-0.2279-0.2425-0.2182-0.4649 8e-3 -0.1225 0.0162-0.1471 0.0509-0.2094 0.0582-0.0873 0.3274-0.352 0.4155-0.4094 0.0364-0.0202 0.1063-0.0736 0.156-0.1059 0.1406-0.0946 0.3985-0.2021 0.6369-0.2647 0.2085-0.0509 0.2259-0.0586 0.4969-0.0586zm-0.0404 3.565c0.1944-3e-3 0.39 8e-3 0.519 0.0283 0.2805 0.0432 0.4839 0.1111 0.7876 0.2457 0.2445 0.1083 0.5558 0.3201 0.6749 0.4604 0.1047 0.122 0.1382 0.1802 0.1855 0.3144 0.0509 0.1338 0.0586 0.1827 0.0509 0.3411-1e-3 0.2397-0.0651 0.4214-0.2243 0.611-0.0958 0.1172-0.1398 0.1536-0.3585 0.2974-0.2744 0.1802-0.7137 0.3585-0.9983 0.4064-0.4584 0.0768-0.6414 0.082-1.015 0.0323l8e-3 -3e-3c-0.2732-0.0432-0.3565-0.0647-0.6498-0.1718-0.2162-0.08-0.3993-0.1782-0.6331-0.3403-0.1443-0.1002-0.1956-0.1467-0.2623-0.2388-0.0982-0.1354-0.1649-0.2845-0.1887-0.4276-0.0202-0.1087-8e-3 -0.3593 0.0162-0.4398 0.0509-0.1697 0.156-0.3391 0.2752-0.4505 0.1035-0.0966 0.4123-0.295 0.5852-0.3758 0.2158-0.101 0.5076-0.1992 0.7183-0.2429 0.1241-0.0242 0.3177-0.0404 0.5121-0.0424z" stroke-width=".00473"/></g></svg>