<?xml version="1.0" encoding="UTF-8" standalone="no"?>
<!-- Created with Inkscape (http://www.inkscape.org/) -->

<svg
   width="502.41437"
   height="108.89368"
   viewBox="0 0 132.93048 28.811452"
   version="1.1"
   id="svg21775"
   inkscape:version="1.2.2 (732a01da63, 2022-12-09)"
   sodipodi:docname="04.svg"
   xml:space="preserve"
   xmlns:inkscape="http://www.inkscape.org/namespaces/inkscape"
   xmlns:sodipodi="http://sodipodi.sourceforge.net/DTD/sodipodi-0.dtd"
   xmlns="http://www.w3.org/2000/svg"
   xmlns:svg="http://www.w3.org/2000/svg"><sodipodi:namedview
     id="namedview21777"
     pagecolor="#ffffff"
     bordercolor="#000000"
     borderopacity="0.25"
     inkscape:showpageshadow="2"
     inkscape:pageopacity="0.0"
     inkscape:pagecheckerboard="0"
     inkscape:deskcolor="#d1d1d1"
     inkscape:document-units="px"
     showgrid="false"
     inkscape:zoom="16"
     inkscape:cx="444.68749"
     inkscape:cy="7.7187498"
     inkscape:window-width="1920"
     inkscape:window-height="991"
     inkscape:window-x="-9"
     inkscape:window-y="-9"
     inkscape:window-maximized="1"
     inkscape:current-layer="layer1"
     showguides="true" /><defs
     id="defs21772" /><g
     inkscape:label="Layer 1"
     inkscape:groupmode="layer"
     id="layer1"
     transform="translate(-609.87748,-445.55521)"><g
       id="rect16004-90"><path
         style="color:#000000;fill:#000000;stroke:none;stroke-width:0.264583;stroke-linecap:square;stroke-dasharray:none;stroke-opacity:1;paint-order:stroke fill markers"
         d="m 610.00977,445.6875 v 0.13281 28.41406 h 118.37304 l 14.23828,-14.26757 -14.23828,-14.2793 z m 0.26562,0.26562 h 117.99609 l 13.97657,14.01368 -13.97657,14.0039 H 610.27539 Z"
         id="path115209" /><path
         style="color:#000000;fill:#ffffff;stroke-width:0.264583;stroke-linecap:square;-inkscape-stroke:none;paint-order:stroke fill markers"
         d="m 610.14243,445.8199 v 28.28213 h 118.1848 L 742.4341,459.96699 728.32723,445.8199 Z"
         id="path115211" /></g><path
       d="m 644.3337,457.75591 c -0.26067,1.2e-4 -0.51937,0.0162 -0.77701,0.0404 -0.34272,0.0323 -0.68753,0.10346 -1.02411,0.19035 -0.21258,0.0554 -0.43696,0.0841 -0.61454,0.21137 -0.39162,0.27846 -0.51464,0.5987 -0.64465,0.9632 -0.0958,0.26957 -0.10751,0.70734 -0.08,0.85307 0.08,0.40763 0.23682,0.8376 0.62557,1.18007 0.35525,0.31321 0.73191,0.43611 1.10991,0.55425 0.42261,0.13175 0.84782,0.24572 1.28142,0.36777 0.25502,0.0715 0.55667,0.16408 0.83089,0.24451 0.1661,0.0473 0.37666,0.10144 0.55348,0.16368 0.13013,0.0473 0.24289,0.0841 0.30674,0.20207 0.0323,0.0404 0.0558,0.11114 0.0558,0.17136 0,0.0715 -0.0473,0.20773 -0.0473,0.20773 -0.63358,0.15559 -1.03053,0.19318 -1.36185,0.20611 -0.35605,0.0162 -0.63512,-0.003 -1.04876,-0.0554 -0.55897,-0.0715 -1.60798,-0.51702 -1.60798,-0.51702 l -0.70729,1.42833 c 0,0 0.32897,0.17176 0.76202,0.32413 0.42261,0.14751 0.94416,0.2736 1.30907,0.3314 0.22915,0.0404 0.48052,0.0554 0.73821,0.0715 v 2.12443 h 1.58716 v -2.19225 c 0.41312,-0.0558 0.85885,-0.14549 1.1972,-0.33544 0.43054,-0.24248 0.70014,-0.80538 0.75802,-1.47194 0.0558,-0.68745 -0.25987,-1.19982 -0.647,-1.56873 -0.73348,-0.6978 -1.57973,-0.62246 -2.38058,-0.90452 -0.53844,-0.18954 -1.55479,-0.39081 -1.62673,-0.52967 -0.0323,-0.0554 -0.0816,-0.10346 -0.0929,-0.16813 -0.0323,-0.0917 -0.0323,-0.21096 0.0323,-0.28209 0,0 0.67553,-0.17378 1.02204,-0.19924 0.46546,-0.0323 0.93718,-0.008 1.39835,0.0634 0.20975,0.0323 0.52575,0.0938 0.78663,0.17014 0.2829,0.082 0.50429,0.18066 0.50429,0.18066 l 0.60978,-1.46515 c 0,0 -0.24572,-0.10306 -0.56932,-0.20976 -0.30917,-0.10063 -0.69146,-0.20328 -0.94607,-0.2445 -0.42581,-0.0711 -0.86002,-0.10468 -1.29322,-0.10468 z"
       style="color:#000000;font-style:normal;font-variant:normal;font-weight:normal;font-stretch:normal;font-size:medium;line-height:normal;font-family:sans-serif;font-variant-ligatures:normal;font-variant-position:normal;font-variant-caps:normal;font-variant-numeric:normal;font-variant-alternates:normal;font-variant-east-asian:normal;font-feature-settings:normal;font-variation-settings:normal;text-indent:0;text-align:start;text-decoration:none;text-decoration-line:none;text-decoration-style:solid;text-decoration-color:#000000;letter-spacing:normal;word-spacing:normal;text-transform:none;writing-mode:lr-tb;direction:ltr;text-orientation:mixed;dominant-baseline:auto;baseline-shift:baseline;text-anchor:start;white-space:normal;shape-padding:0;shape-margin:0;inline-size:0;clip-rule:nonzero;display:inline;overflow:visible;visibility:visible;isolation:auto;mix-blend-mode:normal;color-interpolation:sRGB;color-interpolation-filters:linearRGB;solid-color:#000000;solid-opacity:1;vector-effect:none;fill:#000000;fill-opacity:1;fill-rule:nonzero;stroke:none;stroke-width:1.6691;stroke-linecap:butt;stroke-linejoin:miter;stroke-miterlimit:4;stroke-dasharray:none;stroke-dashoffset:0;stroke-opacity:1;color-rendering:auto;image-rendering:auto;shape-rendering:auto;text-rendering:auto;enable-background:accumulate;stop-color:#000000"
       id="path24632-4-1"
       sodipodi:nodetypes="ccccccscccccsccccccccccccccccccccccccccc" /><path
       id="path46573-7"
       style="fill:#000000;fill-opacity:1;stroke:none;stroke-width:0.257333;stroke-opacity:1"
       d="m 634.73556,457.75591 a 3.5691551,3.5691551 0 0 0 -3.55992,3.56881 3.5691551,3.5691551 0 0 0 3.56925,3.56937 3.5691551,3.5691551 0 0 0 2.37662,-0.90674 l -1.05946,-1.18471 a 1.9798082,1.9798082 0 0 1 -1.31716,0.50191 1.9798082,1.9798082 0 0 1 -1.81004,-1.17865 h 1.01016 2.11506 2.15721 v 0 a 3.5691551,3.5691551 0 0 0 0.0905,-0.8011 3.5691551,3.5691551 0 0 0 -3.56873,-3.56885 z m 0,1.58942 a 1.9798082,1.9798082 0 0 1 1.81663,1.19272 H 632.919 a 1.9798082,1.9798082 0 0 1 1.80504,-1.19272 z" /><path
       id="path16262-6"
       style="color:#000000;fill:#000000;stroke-width:0.338755;stroke-linecap:square;-inkscape-stroke:none;paint-order:stroke fill markers"
       d="m 616.42019,447.36713 c -2.59211,0 -4.73404,2.1419 -4.73404,4.73397 v 15.72479 c 0,2.59203 2.14193,4.73388 4.73404,4.73388 h 111.23708 l 12.54704,-12.59258 -12.54651,-12.60006 z m 3.2e-4,1.77004 h 107.13682 l 6.29959,10.83002 -6.29959,10.82258 H 616.42055 c -1.64204,0 -2.96437,-1.32184 -2.96437,-2.96388 V 452.1011 c 0,-1.64213 1.32233,-2.96393 2.96437,-2.96393 z"
       sodipodi:nodetypes="sssscccsccccssssc" /><path
       d="m 680.84097,457.76104 c -1.06686,-0.008 -2.24434,0.23885 -3.13823,0.65354 l 0.64796,1.44414 c 0.74008,-0.33666 1.42256,-0.49593 2.42674,-0.49593 0.91886,0 1.66233,0.5555 1.66233,1.24283 v 0.19965 0.11195 c -0.52349,-0.23198 -1.15763,-0.36697 -1.83559,-0.36697 -0.75268,0 -1.44268,0.22592 -1.99781,0.50543 -0.30958,0.1564 -0.5572,0.34271 -0.76804,0.53929 -0.0978,0.0837 -0.19116,0.15115 -0.26068,0.25097 -0.17984,0.26836 -0.28047,0.56557 -0.28047,0.87837 0,0.32009 0.11194,0.62291 0.29462,0.89935 0.0283,0.0364 0.0837,0.0837 0.12609,0.11195 0.0699,0.0562 0.12529,0.12609 0.1944,0.17984 0.24167,0.19036 0.47911,0.36454 0.77499,0.50551 0.54879,0.26552 1.1856,0.47346 1.91856,0.47346 0.67735,0 1.31129,-0.14792 1.83583,-0.36737 v 0.16651 h 1.58623 v -3.78431 -0.36979 -0.11195 h -0.003 c -0.0364,-1.17032 -0.81977,-1.90643 -1.66653,-2.31891 -0.21946,-0.11194 -0.99432,-0.34797 -1.51402,-0.35322 z m -0.22592,4.3672 c 0.008,0 0.0283,0 0.0558,0 0.94122,0 1.70679,0.58932 1.70679,0.58932 0,0 -0.76529,0.58929 -1.70679,0.58929 -0.94263,0 -1.70687,-0.58929 -1.70687,-0.58929 0,0 0.73038,-0.57813 1.65227,-0.58932 z"
       style="fill:#000000;stroke-width:0.363728"
       id="path61117-2" /><path
       d="m 619.40073,455.01248 v 9.88153 h 4.95547 c 0.51048,0 1.01671,-0.14105 1.51911,-0.41283 0.45329,-0.24411 0.75033,-0.59551 1.01533,-1.04743 0.27482,-0.46303 0.42399,-1.08925 0.42399,-1.59023 -0.008,-0.52717 -0.22026,-1.02229 -0.46444,-1.47639 -0.14065,-0.25784 -0.56201,-0.68616 -0.56201,-0.68616 0,0 0.61919,-0.78388 0.61919,-1.76741 0,-1.00276 -0.59272,-2.04498 -1.48742,-2.5464 -0.41283,-0.23562 -0.98328,-0.35444 -1.71075,-0.35444 z m 1.78244,1.78382 h 2.87223 c 0.60387,0 1.09062,0.48817 1.09062,1.09063 0,0.60392 -0.48675,1.09067 -1.09062,1.09067 h -2.87223 z m 0.0283,3.94548 h 3.13431 c 0.65969,0 1.19248,0.53137 1.19248,1.19101 0,0.65969 -0.53141,1.19248 -1.19248,1.19248 h -3.13431 z"
       style="font-style:normal;font-variant:normal;font-weight:normal;font-stretch:normal;font-size:30px;line-height:1.15;font-family:'Highway Gothic Wide';-inkscape-font-specification:'Highway Gothic Wide';fill:#000000;fill-opacity:1;stroke:none;stroke-width:0.10886;stroke-opacity:1"
       id="path49927-2-0"
       sodipodi:nodetypes="ccscccccsccccssscccssscc" /><path
       id="rect55510-4-4"
       style="fill:#000000;fill-opacity:1;stroke:none;stroke-width:0.29503;stroke-opacity:1"
       d="m 671.64762,457.7745 c -1.98666,0.003 -3.59447,1.61698 -3.59468,3.6036 -2e-4,1.67976 1.16006,3.13694 2.79718,3.513 v 1.59137 h 1.59916 v -1.58846 c 0.80486,-0.18146 1.52323,-0.63321 2.035,-1.28037 h -0.0283 l -1.24129,-0.99857 c -0.3795,0.46922 -0.95064,0.74189 -1.55411,0.74197 -1.10392,0 -1.99894,-0.89477 -1.99915,-1.99874 1.3e-4,-1.0994 0.88803,-1.99244 1.98743,-1.99886 0.003,0 0.008,0 0.008,0 0.6065,2e-4 1.18014,0.27562 1.55939,0.74896 l 1.24825,-1.00976 c -0.68402,-0.84996 -1.71625,-1.34431 -2.80724,-1.34447 -0.003,0 -0.008,0 -0.008,0 z"
       sodipodi:nodetypes="cscccccccccscccscc" /><path
       sodipodi:nodetypes="ccccc"
       d="m 662.4046,457.77502 v 7.11875 h 1.57273 v -7.11875 z"
       style="font-style:normal;font-variant:normal;font-weight:normal;font-stretch:normal;font-size:122.83px;line-height:1.15;font-family:'Highway Gothic Wide';-inkscape-font-specification:'Highway Gothic Wide';text-align:center;letter-spacing:3.26px;text-anchor:middle;fill:#000000;fill-opacity:1;stroke-width:0.106074"
       id="path82574-5-8-5" /><path
       id="rect55334-7-7"
       style="fill:#000000;fill-opacity:1;stroke:none;stroke-width:0.226059;stroke-opacity:1"
       d="m 652.76144,455.01329 v 3.37094 c 0.56782,-0.38272 1.25103,-0.60969 1.98775,-0.60969 0,0 0.008,0 0.008,0 1.96201,0.003 3.54969,1.59746 3.54978,3.55959 1.2e-4,1.96589 -1.59355,3.5598 -3.5596,3.55988 -0.73619,0 -1.41976,-0.22632 -1.98763,-0.60965 v 0.60888 h -1.57665 v -9.88072 z m 2.00044,4.34489 c 0,0 -0.008,0 -0.008,0 -1.09147,0 -1.97627,0.88484 -1.97627,1.97636 0,1.09135 0.8848,1.97615 1.97627,1.97607 1.09144,8e-5 1.97628,-0.88472 1.97628,-1.97607 4e-5,-1.08655 -0.877,-1.96933 -1.96346,-1.97636 z" /><path
       d="m 695.41645,464.89377 h -1.96524 l -2.49936,-3.32879 -0.66433,0.55999 v 2.76904 h -1.57787 v -9.88153 h 1.57787 v 5.03982 l 2.69488,-2.2778 h 2.43421 l -3.26036,2.76314 z"
       style="font-size:13.0452px;line-height:1.15;font-family:'Highway Gothic Wide';-inkscape-font-specification:'Highway Gothic Wide';fill:#000000;fill-opacity:1;stroke-width:0.0114653"
       id="path24540-9-9"
       sodipodi:nodetypes="ccccccccccccc" /><path
       id="path105968"
       style="fill:#000000;fill-opacity:1;stroke-width:0.00472996"
       d="m 713.47781,455.01268 c -0.52163,-0.003 -1.0431,0.093 -1.51122,0.28776 -0.55651,0.2344 -0.84806,0.42766 -1.27455,0.84539 -0.32251,0.31604 -0.49933,0.54697 -0.59883,0.78602 -0.13579,0.32332 -0.19197,0.60194 -0.19237,0.95346 -6.1e-4,0.56815 0.20167,1.09758 0.60266,1.57662 l 0.0578,0.0744 -0.2154,0.21137 c -0.38637,0.37909 -0.54051,0.63022 -0.72213,1.17259 -0.0736,0.21298 -0.10185,0.39323 -0.11801,0.6978 -0.0433,0.79071 0.26269,1.54686 0.85226,2.11384 0.24491,0.23562 0.69056,0.53658 1.01125,0.68406 0.53251,0.2441 1.01271,0.38596 1.47768,0.43676 0.0841,0.008 0.2138,0.0202 0.28775,0.0323 0.15115,0.0162 0.46489,0.0162 0.62473,0 l 0.008,0.008 c 0.0582,-0.008 0.18024,-0.0162 0.27239,-0.0283 1.02301,-0.11477 2.10366,-0.64291 2.69295,-1.31719 0.2542,-0.29139 0.45159,-0.64958 0.55545,-1.01275 0.10225,-0.35444 0.1071,-0.38879 0.10629,-0.7952 -5.6e-4,-0.42722 -0.0162,-0.54923 -0.13619,-0.88799 -0.0841,-0.24248 -0.14105,-0.36898 -0.24977,-0.54406 -0.16085,-0.25986 -0.32089,-0.44993 -0.55776,-0.66352 l -0.11114,-0.10064 0.0364,-0.0432 c 0.0202,-0.0202 0.0582,-0.0736 0.0865,-0.10589 0.26229,-0.34069 0.37303,-0.56075 0.47483,-0.94279 0.0509,-0.19763 0.0509,-0.19763 0.0509,-0.58209 v -0.38434 l -0.0509,-0.18672 c -0.0909,-0.32614 -0.18065,-0.51763 -0.33463,-0.71525 -0.27926,-0.35808 -0.64696,-0.70055 -1.00673,-0.9375 -0.16368,-0.10831 -0.54988,-0.29947 -0.77689,-0.38434 -0.42419,-0.15964 -0.88431,-0.24088 -1.34459,-0.24451 z m -0.0323,1.77901 c 0.24774,2.5e-4 0.30271,0.008 0.46493,0.0433 0.48021,0.11235 0.88456,0.3512 1.17942,0.69699 0.11761,0.13781 0.13822,0.18833 0.13822,0.34554 0,0.15964 -0.0202,0.20975 -0.14671,0.35161 -0.30432,0.3415 -0.70677,0.57858 -1.15585,0.68175 -0.19319,0.0433 -0.21541,0.0437 -0.53566,0.0364 -0.25865,-0.008 -0.30755,-0.0162 -0.4642,-0.0509 l 0.003,0.003 c -0.42144,-0.11356 -0.70431,-0.27764 -1.02039,-0.59506 -0.215,-0.21581 -0.22794,-0.24249 -0.21824,-0.46493 0.008,-0.12246 0.0162,-0.14711 0.0509,-0.20935 0.0582,-0.0873 0.32735,-0.35201 0.41546,-0.4094 0.0364,-0.0202 0.10629,-0.0736 0.156,-0.10588 0.14064,-0.0946 0.39849,-0.20208 0.63689,-0.26472 0.20854,-0.0509 0.22592,-0.0586 0.4969,-0.0586 z m -0.0404,3.56498 c 0.19439,-0.003 0.39,0.008 0.51896,0.0283 0.28048,0.0432 0.48389,0.11114 0.78756,0.24572 0.24451,0.10831 0.55582,0.32008 0.67492,0.46036 0.10468,0.12205 0.13822,0.18025 0.18551,0.31442 0.0509,0.13378 0.0586,0.18268 0.0509,0.3411 -0.001,0.23966 -0.0651,0.42141 -0.2243,0.61103 -0.0958,0.1172 -0.13984,0.15358 -0.35848,0.29745 -0.27441,0.18025 -0.71368,0.35848 -0.99832,0.40637 -0.45842,0.0768 -0.64138,0.082 -1.01509,0.0323 l 0.008,-0.003 c -0.2732,-0.0432 -0.35646,-0.0647 -0.64983,-0.17176 -0.21621,-0.08 -0.39929,-0.17823 -0.63309,-0.34029 -0.14428,-0.10023 -0.19561,-0.1467 -0.26229,-0.23885 -0.0982,-0.13539 -0.16489,-0.28452 -0.18874,-0.42763 -0.0202,-0.10871 -0.008,-0.35928 0.0162,-0.43983 0.0509,-0.16974 0.156,-0.33908 0.27522,-0.45046 0.10346,-0.0966 0.41227,-0.29503 0.58516,-0.37585 0.21582,-0.10104 0.50761,-0.19925 0.71829,-0.2429 0.12408,-0.0242 0.31766,-0.0404 0.51214,-0.0424 z" /></g></svg>
