<?xml version="1.0" encoding="UTF-8" standalone="no"?>
<svg
   xmlns:dc="http://purl.org/dc/elements/1.1/"
   xmlns:cc="http://creativecommons.org/ns#"
   xmlns:rdf="http://www.w3.org/1999/02/22-rdf-syntax-ns#"
   xmlns:svg="http://www.w3.org/2000/svg"
   xmlns="http://www.w3.org/2000/svg"
   xmlns:sodipodi="http://sodipodi.sourceforge.net/DTD/sodipodi-0.dtd"
   xmlns:inkscape="http://www.inkscape.org/namespaces/inkscape"
   sodipodi:docname="Turkey_road_sign_B-63c.svg"
   inkscape:version="1.0 (4035a4fb49, 2020-05-01)"
   id="svg2859"
   version="1.1"
   viewBox="0 0 79.374992 49.09436"
   height="49.09436mm"
   width="79.374992mm">
  <defs
     id="defs2853" />
  <sodipodi:namedview
     inkscape:window-maximized="1"
     inkscape:window-y="-9"
     inkscape:window-x="-9"
     inkscape:window-height="1001"
     inkscape:window-width="1920"
     showgrid="false"
     inkscape:document-rotation="0"
     inkscape:current-layer="layer1"
     inkscape:document-units="mm"
     inkscape:cy="100.86209"
     inkscape:cx="125.07879"
     inkscape:zoom="2.1584073"
     inkscape:pageshadow="2"
     inkscape:pageopacity="0.0"
     borderopacity="1.0"
     bordercolor="#666666"
     pagecolor="#ffffff"
     id="base" />
  <metadata
     id="metadata2856">
    <rdf:RDF>
      <cc:Work
         rdf:about="">
        <dc:format>image/svg+xml</dc:format>
        <dc:type
           rdf:resource="http://purl.org/dc/dcmitype/StillImage" />
        <dc:title></dc:title>
      </cc:Work>
    </rdf:RDF>
  </metadata>
  <g
     transform="translate(-152.05529,74.357341)"
     id="layer1"
     inkscape:groupmode="layer"
     inkscape:label="Layer 1">
    <path
       id="path9084"
       style="opacity:1;fill:#00408c;fill-opacity:1;stroke-width:1.665;stroke-linecap:square;paint-order:fill markers stroke"
       d="m 152.05539,-74.357341 h 79.37489 l -1.1e-4,49.094362 h -79.37488 z"
       sodipodi:nodetypes="ccccc" />
    <path
       sodipodi:nodetypes="ssssssssssssssssss"
       style="color:#000000;font-style:normal;font-variant:normal;font-weight:normal;font-stretch:normal;font-size:medium;line-height:normal;font-family:sans-serif;font-variant-ligatures:normal;font-variant-position:normal;font-variant-caps:normal;font-variant-numeric:normal;font-variant-alternates:normal;font-variant-east-asian:normal;font-feature-settings:normal;font-variation-settings:normal;text-indent:0;text-align:start;text-decoration:none;text-decoration-line:none;text-decoration-style:solid;text-decoration-color:#000000;letter-spacing:normal;word-spacing:normal;text-transform:none;writing-mode:lr-tb;direction:ltr;text-orientation:mixed;dominant-baseline:auto;baseline-shift:baseline;text-anchor:start;white-space:normal;shape-padding:0;shape-margin:0;inline-size:0;clip-rule:nonzero;display:inline;overflow:visible;visibility:visible;opacity:1;isolation:auto;mix-blend-mode:normal;color-interpolation:sRGB;color-interpolation-filters:linearRGB;solid-color:#000000;solid-opacity:1;vector-effect:none;fill:#ffffff;fill-opacity:1;fill-rule:nonzero;stroke:none;stroke-width:1.92961;stroke-linecap:square;stroke-linejoin:miter;stroke-miterlimit:4;stroke-dasharray:none;stroke-dashoffset:0;stroke-opacity:1;paint-order:fill markers stroke;color-rendering:auto;image-rendering:auto;shape-rendering:auto;text-rendering:auto;enable-background:accumulate;stop-color:#000000;stop-opacity:1"
       d="m 156.95014,-73.369976 c -2.14316,0 -3.8919,1.748739 -3.8919,3.891915 l -1.1e-4,39.366721 c -1e-5,2.143181 1.74874,3.891914 3.89191,3.891914 h 69.57636 c 2.14317,0 3.89149,-1.748733 3.89151,-3.891914 l 1.1e-4,-39.366721 c 0,-2.143176 -1.74834,-3.891915 -3.89151,-3.891915 z m 0,1.481849 h 69.57637 c 1.34787,0 2.40968,1.062185 2.40968,2.410066 l -1.1e-4,39.366721 c -1e-5,1.347862 -1.06181,2.410067 -2.40968,2.410067 h -69.57636 c -1.34788,0 -2.41008,-1.062205 -2.41008,-2.410067 l 1.1e-4,-39.366721 c 1e-5,-1.347881 1.06221,-2.410066 2.41007,-2.410066 z"
       id="path9086" />
    <path
       style="color:#000000;font-style:normal;font-variant:normal;font-weight:normal;font-stretch:normal;font-size:medium;line-height:normal;font-family:sans-serif;font-variant-ligatures:normal;font-variant-position:normal;font-variant-caps:normal;font-variant-numeric:normal;font-variant-alternates:normal;font-variant-east-asian:normal;font-feature-settings:normal;font-variation-settings:normal;text-indent:0;text-align:start;text-decoration:none;text-decoration-line:none;text-decoration-style:solid;text-decoration-color:#000000;letter-spacing:normal;word-spacing:normal;text-transform:none;writing-mode:lr-tb;direction:ltr;text-orientation:mixed;dominant-baseline:auto;baseline-shift:baseline;text-anchor:start;white-space:normal;shape-padding:0;shape-margin:0;inline-size:0;clip-rule:nonzero;display:inline;overflow:visible;visibility:visible;opacity:1;isolation:auto;mix-blend-mode:normal;color-interpolation:sRGB;color-interpolation-filters:linearRGB;solid-color:#000000;solid-opacity:1;vector-effect:none;fill:#ffffff;fill-opacity:1;fill-rule:evenodd;stroke:none;stroke-width:0.199999;stroke-linecap:round;stroke-linejoin:round;stroke-miterlimit:10;stroke-dasharray:none;stroke-dashoffset:0;stroke-opacity:1;color-rendering:auto;image-rendering:auto;shape-rendering:auto;text-rendering:auto;enable-background:accumulate;stop-color:#000000;stop-opacity:1"
       d="m 176.78292,-44.260659 h -17.21325 c -0.6727,0 -1.22495,0.522623 -1.22495,1.193024 v 10.66127 c 0,0.670401 0.47665,1.144717 1.14935,1.144713 l 17.31863,-9.6e-5 c 0.6727,-7e-6 1.14556,-0.547113 1.14556,-1.217514 v -10.598167 c 0,-0.670397 -0.50263,-1.18323 -1.17534,-1.18323 z"
       id="path9088" />
    <path
       id="path9090"
       d="m 200.26788,-44.260659 h -17.21325 c -0.67272,0 -1.22497,0.522623 -1.22497,1.193024 v 10.66127 c 0,0.670401 0.47666,1.144717 1.14937,1.144713 l 17.31863,-9.6e-5 c 0.6727,-7e-6 1.14556,-0.547113 1.14556,-1.217514 v -10.598167 c 0,-0.670397 -0.50263,-1.18323 -1.17534,-1.18323 z"
       style="color:#000000;font-style:normal;font-variant:normal;font-weight:normal;font-stretch:normal;font-size:medium;line-height:normal;font-family:sans-serif;font-variant-ligatures:normal;font-variant-position:normal;font-variant-caps:normal;font-variant-numeric:normal;font-variant-alternates:normal;font-variant-east-asian:normal;font-feature-settings:normal;font-variation-settings:normal;text-indent:0;text-align:start;text-decoration:none;text-decoration-line:none;text-decoration-style:solid;text-decoration-color:#000000;letter-spacing:normal;word-spacing:normal;text-transform:none;writing-mode:lr-tb;direction:ltr;text-orientation:mixed;dominant-baseline:auto;baseline-shift:baseline;text-anchor:start;white-space:normal;shape-padding:0;shape-margin:0;inline-size:0;clip-rule:nonzero;display:inline;overflow:visible;visibility:visible;opacity:1;isolation:auto;mix-blend-mode:normal;color-interpolation:sRGB;color-interpolation-filters:linearRGB;solid-color:#000000;solid-opacity:1;vector-effect:none;fill:#ffffff;fill-opacity:1;fill-rule:evenodd;stroke:none;stroke-width:0.199999;stroke-linecap:round;stroke-linejoin:round;stroke-miterlimit:10;stroke-dasharray:none;stroke-dashoffset:0;stroke-opacity:1;color-rendering:auto;image-rendering:auto;shape-rendering:auto;text-rendering:auto;enable-background:accumulate;stop-color:#000000;stop-opacity:1" />
    <path
       style="color:#000000;font-style:normal;font-variant:normal;font-weight:normal;font-stretch:normal;font-size:medium;line-height:normal;font-family:sans-serif;font-variant-ligatures:normal;font-variant-position:normal;font-variant-caps:normal;font-variant-numeric:normal;font-variant-alternates:normal;font-variant-east-asian:normal;font-feature-settings:normal;font-variation-settings:normal;text-indent:0;text-align:start;text-decoration:none;text-decoration-line:none;text-decoration-style:solid;text-decoration-color:#000000;letter-spacing:normal;word-spacing:normal;text-transform:none;writing-mode:lr-tb;direction:ltr;text-orientation:mixed;dominant-baseline:auto;baseline-shift:baseline;text-anchor:start;white-space:normal;shape-padding:0;shape-margin:0;inline-size:0;clip-rule:nonzero;display:inline;overflow:visible;visibility:visible;opacity:1;isolation:auto;mix-blend-mode:normal;color-interpolation:sRGB;color-interpolation-filters:linearRGB;solid-color:#000000;solid-opacity:1;vector-effect:none;fill:#ffffff;fill-opacity:1;fill-rule:evenodd;stroke:none;stroke-width:0.199999;stroke-linecap:round;stroke-linejoin:round;stroke-miterlimit:10;stroke-dasharray:none;stroke-dashoffset:0;stroke-opacity:1;color-rendering:auto;image-rendering:auto;shape-rendering:auto;text-rendering:auto;enable-background:accumulate;stop-color:#000000;stop-opacity:1"
       d="m 223.97268,-44.260659 h -17.21327 c -0.6727,0 -1.22497,0.522623 -1.22497,1.193024 v 10.66127 c 0,0.670401 0.47668,1.144717 1.14937,1.144713 l 17.31863,-9.6e-5 c 0.67272,-7e-6 1.14558,-0.547113 1.14558,-1.217514 v -10.598167 c 0,-0.670397 -0.50262,-1.18323 -1.17534,-1.18323 z"
       id="path9092" />
    <path
       transform="matrix(0.26458333,0,0,0.26458333,152.05529,-74.357341)"
       d="m 28.339844,115.00977 c -1.815799,0 -3.302735,1.48502 -3.302735,3.30078 v 40.00781 c 0,1.81577 1.486936,3.30078 3.302735,3.30078 h 65.021484 c 1.815799,0 3.300781,-1.48501 3.300781,-3.30078 v -40.00781 c 0,-1.81576 -1.484982,-3.30078 -3.300781,-3.30078 z m 0,1.48046 h 65.021484 c 1.021191,0 1.820313,0.79912 1.820313,1.82032 v 40.00781 c 0,1.02119 -0.799122,1.82031 -1.820313,1.82031 H 28.339844 c -1.021229,0 -1.820313,-0.79912 -1.820313,-1.82031 v -40.00781 c 0,-1.0212 0.799084,-1.82032 1.820313,-1.82032 z m 44.580078,8.60547 c -0.106583,0 -0.21165,0.005 -0.314453,0.0117 h -6.884766 c -0.144,0 -0.261467,0.16059 -0.265625,0.36328 v 0.008 c -3.8e-5,0.001 0,0.004 0,0.006 v 2.90039 c 0,0.0102 0.0012,0.0183 0.002,0.0273 v 6.10156 c 0,0.0733 -0.0022,0.14443 -0.0098,0.21485 H 37.451172 c -0.105071,0 -0.189453,0.11896 -0.189453,0.26757 v 1.00196 0.40429 7.30078 c 0,0.81093 0.461802,1.4629 1.035156,1.4629 h 2.919922 c -0.0038,-0.0957 -0.0077,-0.19126 -0.0039,-0.28711 v -0.0449 c 0.03893,-2.64448 2.195119,-4.766 4.839843,-4.76367 0.0189,1e-5 0.03925,-3.6e-4 0.05664,0 2.66657,0.0336 4.802641,2.21806 4.775391,4.88477 -5.67e-4,0.0704 -0.0034,0.14067 -0.0078,0.21094 h 21.324219 c -0.0038,-0.0957 -0.0078,-0.19134 -0.0078,-0.28711 v -0.0449 c 0.03893,-2.64448 2.195044,-4.76603 4.839844,-4.76367 0.0189,2e-5 0.03925,-9e-5 0.05664,0 2.666608,0.0336 4.802641,2.21806 4.77539,4.88477 -6.42e-4,0.0704 -0.0034,0.14052 -0.0078,0.21094 h 1.710937 c 0.573317,0 1.035157,-0.65195 1.035157,-1.4629 V 135.5 c 0,-0.8109 -0.497034,-1.42214 -1.070313,-1.54297 l -3.380859,-1.19922 -3.240235,-6.10351 h -0.002 c -0.349228,-0.89938 -1.480295,-1.55469 -2.830078,-1.55469 l -0.002,-0.004 z m -4.570313,2.02539 H 72 h 0.253906 1.269532 c 1.253328,0 1.769419,0.91594 2.511718,2.31446 0.09751,0.18315 0.402422,0.77712 0.679688,1.39062 0.048,0.0151 0.05759,0.0891 0.09766,0.16016 l 1.318359,2.37305 c 0.04422,0.0791 -0.09395,0.3164 -0.158203,0.3164 h -8.121094 -1.5 z m -22.283203,13.64063 c -2.303584,0 -4.189453,1.88889 -4.189453,4.18359 0,2.29349 1.88602,4.1836 4.189453,4.1836 2.303698,0 4.189453,-1.89037 4.189453,-4.1836 0,-2.29347 -1.885755,-4.18359 -4.189453,-4.18359 z m 30.982422,0 c -2.303698,0 -4.189453,1.88889 -4.189453,4.18359 0,2.29349 1.885869,4.1836 4.189453,4.1836 2.30366,0 4.189453,-1.89037 4.189453,-4.1836 0,-2.29347 -1.885755,-4.18359 -4.189453,-4.18359 z"
       style="color:#000000;font-style:normal;font-variant:normal;font-weight:normal;font-stretch:normal;font-size:medium;line-height:normal;font-family:sans-serif;font-variant-ligatures:normal;font-variant-position:normal;font-variant-caps:normal;font-variant-numeric:normal;font-variant-alternates:normal;font-variant-east-asian:normal;font-feature-settings:normal;font-variation-settings:normal;text-indent:0;text-align:start;text-decoration:none;text-decoration-line:none;text-decoration-style:solid;text-decoration-color:#000000;letter-spacing:normal;word-spacing:normal;text-transform:none;writing-mode:lr-tb;direction:ltr;text-orientation:mixed;dominant-baseline:auto;baseline-shift:baseline;text-anchor:start;white-space:normal;shape-padding:0;shape-margin:0;inline-size:0;clip-rule:nonzero;display:inline;overflow:visible;visibility:visible;opacity:1;isolation:auto;mix-blend-mode:normal;color-interpolation:sRGB;color-interpolation-filters:linearRGB;solid-color:#000000;solid-opacity:1;vector-effect:none;fill:#000000;fill-opacity:1;fill-rule:evenodd;stroke:none;stroke-width:7.55909;stroke-linecap:round;stroke-linejoin:round;stroke-miterlimit:10;stroke-dasharray:none;stroke-dashoffset:0;stroke-opacity:1;color-rendering:auto;image-rendering:auto;shape-rendering:auto;text-rendering:auto;enable-background:accumulate;stop-color:#000000;stop-opacity:1"
       id="path9096" />
    <path
       transform="matrix(0.26458333,0,0,0.26458333,152.05529,-74.357341)"
       d="m 117.10156,115.00977 c -1.81576,0 -3.30078,1.48502 -3.30078,3.30078 v 40.00781 c 0,1.81577 1.48502,3.30078 3.30078,3.30078 h 65.02149 c 1.8158,0 3.30078,-1.48501 3.30078,-3.30078 v -40.00781 c 0,-1.81576 -1.48498,-3.30078 -3.30078,-3.30078 z m 0,1.48046 h 65.02149 c 1.02119,0 1.82031,0.79912 1.82031,1.82032 v 40.00781 c 0,1.02119 -0.79912,1.82031 -1.82031,1.82031 h -65.02149 c -1.02119,0 -1.82031,-0.79912 -1.82031,-1.82031 v -40.00781 c 0,-1.0212 0.79912,-1.82032 1.82031,-1.82032 z m 5.75586,8.59571 v 17.21289 h 36.91797 v -17.21289 z m 38.44336,5.81054 v 12.94727 h -23.95703 c 0,0 0.0585,0.0556 0.15039,0.15234 0.11898,0.12548 0.29357,0.31989 0.46289,0.55079 0.26154,0.35725 0.504,0.8083 0.63477,1.12695 0.12283,0.29885 0.24604,0.77413 0.30273,1.17578 0.0514,0.39979 0.0703,0.66797 0.0703,0.66797 h 22.66993 c 0,0 -0.0135,-0.53219 0.15625,-1.19922 0.1573,-0.61976 0.47766,-1.35227 0.96484,-1.97461 0.6119,-0.78167 1.57399,-1.25903 2.49805,-1.61914 0.45981,-0.17923 0.96594,-0.26808 1.45898,-0.24805 0.67552,0.0268 1.25674,0.1817 1.9668,0.49805 0.68867,0.30678 1.356,0.7452 1.79492,1.27734 0.52622,0.63791 0.8722,1.35452 1.04492,1.9668 0.20788,0.72774 0.18555,1.29883 0.18555,1.29883 h 1.87109 v -8.79297 l -3.09961,-7.82813 z m 1.5625,2.14063 h 7.14258 l 1.9707,4.98242 h -9.11328 z m -28.92773,10.67383 c -2.09299,0 -3.8086,1.71672 -3.8086,3.80078 0,2.08404 1.71561,3.80273 3.8086,3.80273 2.09306,1e-5 3.80664,-1.71869 3.80664,-3.80273 0,-2.08406 -1.71358,-3.80078 -3.80664,-3.80078 z m 32.72851,0 c -2.09302,0 -3.80664,1.71672 -3.80664,3.80078 0,2.08404 1.71362,3.80273 3.80664,3.80273 2.09303,1e-5 3.80664,-1.71869 3.80664,-3.80273 0,-2.08406 -1.71361,-3.80078 -3.80664,-3.80078 z m -43.80664,0.13281 v 1.76758 l 6.04102,1.96679 c 0,0 -0.0125,-0.32873 0.0449,-0.72851 0.0571,-0.40167 0.18185,-0.87498 0.30469,-1.17383 0.13092,-0.31868 0.37479,-0.77171 0.63672,-1.1289 0.2996,-0.40906 0.61328,-0.70313 0.61328,-0.70313 z m 11.07813,1.97656 c 0.94042,0 1.68554,0.74135 1.68554,1.69141 0,0.95002 -0.74512,1.69336 -1.68554,1.69336 -0.94035,0 -1.6875,-0.74334 -1.6875,-1.69336 0,-0.95006 0.74715,-1.69141 1.6875,-1.69141 z m 32.72851,0 c 0.94035,0 1.68555,0.74135 1.68555,1.69141 0,0.95002 -0.7452,1.69336 -1.68555,1.69336 -0.94038,0 -1.68554,-0.74334 -1.68554,-1.69336 0,-0.95006 0.74516,-1.69141 1.68554,-1.69141 z"
       style="color:#000000;font-style:normal;font-variant:normal;font-weight:normal;font-stretch:normal;font-size:medium;line-height:normal;font-family:sans-serif;font-variant-ligatures:normal;font-variant-position:normal;font-variant-caps:normal;font-variant-numeric:normal;font-variant-alternates:normal;font-variant-east-asian:normal;font-feature-settings:normal;font-variation-settings:normal;text-indent:0;text-align:start;text-decoration:none;text-decoration-line:none;text-decoration-style:solid;text-decoration-color:#000000;letter-spacing:normal;word-spacing:normal;text-transform:none;writing-mode:lr-tb;direction:ltr;text-orientation:mixed;dominant-baseline:auto;baseline-shift:baseline;text-anchor:start;white-space:normal;shape-padding:0;shape-margin:0;inline-size:0;clip-rule:nonzero;display:inline;overflow:visible;visibility:visible;opacity:1;isolation:auto;mix-blend-mode:normal;color-interpolation:sRGB;color-interpolation-filters:linearRGB;solid-color:#000000;solid-opacity:1;vector-effect:none;fill:#000000;fill-opacity:1;fill-rule:evenodd;stroke:none;stroke-width:7.55909;stroke-linecap:round;stroke-linejoin:round;stroke-miterlimit:10;stroke-dasharray:none;stroke-dashoffset:0;stroke-opacity:1;color-rendering:auto;image-rendering:auto;shape-rendering:auto;text-rendering:auto;enable-background:accumulate;stop-color:#000000;stop-opacity:1"
       id="path9100" />
    <path
       transform="matrix(0.26458333,0,0,0.26458333,152.05529,-74.357341)"
       d="m 206.69336,115.00977 c -1.81572,0 -3.30078,1.48502 -3.30078,3.30078 v 40.00781 c 0,1.81577 1.48506,3.30078 3.30078,3.30078 h 65.02148 c 1.8158,0 3.30079,-1.48501 3.30078,-3.30078 v -40.00781 c 0,-1.81576 -1.48498,-3.30078 -3.30078,-3.30078 z m 0,1.48046 h 65.02148 c 1.02119,0 1.82032,0.79912 1.82032,1.82032 v 40.00781 c 0,1.02119 -0.79913,1.82031 -1.82032,1.82031 h -65.02148 c -1.02115,0 -1.82031,-0.79912 -1.82031,-1.82031 v -40.00781 c 0,-1.0212 0.79916,-1.82032 1.82031,-1.82032 z m 4.57226,12.48438 v 11.83203 h 34.49219 v -1.99805 h 8.57617 v -9.83398 z m 43.76368,3.85937 v 6.67969 h -8.52539 v 1.95508 0.57813 2.53906 h 1.30078 c 0,0 -0.0495,-1.09989 0.71484,-2.01953 0.22787,-0.27419 0.48488,-0.59557 0.83789,-0.81055 0.64902,-0.39483 1.27477,-0.5591 1.95508,-0.58594 0.39364,-0.0155 0.73997,0.0881 1.15625,0.25 0.5452,0.21213 1.09457,0.55294 1.45703,1 0.34023,0.41949 0.5377,0.80906 0.66016,1.21875 0.14097,0.4788 0.17968,0.94727 0.17968,0.94727 h 0.51758 c 0,0 -0.009,-0.37176 0.10938,-0.83594 0.10953,-0.43132 0.33247,-0.93995 0.67187,-1.37305 0.42584,-0.54395 1.0399,-0.8757 1.66016,-1.125 0.31858,-0.12805 0.67244,-0.18893 1.01562,-0.17383 0.47006,0.0186 0.87306,0.12754 1.36719,0.34766 0.47921,0.21351 0.94462,0.5164 1.25,0.88672 0.36631,0.44393 0.60638,0.945 0.72656,1.37109 0.14778,0.50643 0.12891,0.90235 0.12891,0.90235 h 1.16406 v -6.91992 l -1.99023,-4.83204 z m 0.8457,1.42188 h 5.01367 l 1.32422,3.19141 H 255.875 Z m -44.60938,7.24805 v 2.38671 l 4.21876,0.69532 h 4.35742 c 0,0 -0.003,-0.29878 0.0742,-0.64453 0.0855,-0.3863 0.25992,-0.83766 0.42773,-1.11133 0.14551,-0.2372 0.38463,-0.5728 0.66016,-0.8125 0.36805,-0.32007 0.76757,-0.51367 0.76757,-0.51367 z m 13.61915,0 c 0,0 0.34507,0.15798 0.67578,0.4414 0.28558,0.24458 0.55005,0.59619 0.70312,0.84375 0.17137,0.27705 0.37458,0.75376 0.4668,1.14649 0.0843,0.35996 0.0644,0.65039 0.0644,0.65039 h 0.49805 c 0,0 -0.008,-0.30329 0.084,-0.67969 0.10035,-0.41115 0.30888,-0.90896 0.49219,-1.19727 0.14718,-0.23113 0.38727,-0.53288 0.66016,-0.75976 0.32356,-0.26905 0.67383,-0.44531 0.67382,-0.44531 z m 7.48242,0 c 0,0 0.29995,0.13606 0.58984,0.38086 0.29382,0.248 0.57727,0.6052 0.73828,0.86523 0.17711,0.28583 0.37275,0.78034 0.46875,1.18359 0.0873,0.36273 0.082,0.65235 0.082,0.65235 h 11.51172 v -3.08203 z m -9.05274,0.0488 c -1.68291,0 -3.0625,1.38094 -3.0625,3.05665 0,1.67568 1.37959,3.05664 3.0625,3.05664 1.68291,0 3.06055,-1.38096 3.06055,-3.05664 0,-1.67571 -1.37764,-3.05665 -3.06055,-3.05665 z m 7.48438,0 c -1.68291,0 -3.06055,1.38094 -3.06055,3.05665 0,1.67568 1.37764,3.05664 3.06055,3.05664 1.68295,0 3.06054,-1.38096 3.06055,-3.05664 0,-1.67571 -1.3776,-3.05665 -3.06055,-3.05665 z m 20.45117,0 c -1.68291,0 -3.0625,1.38094 -3.0625,3.05665 0,1.67568 1.37959,3.05664 3.0625,3.05664 1.68287,0 3.06055,-1.38096 3.06055,-3.05664 0,-1.67571 -1.37768,-3.05665 -3.06055,-3.05665 z m 7.48438,0 c -1.68292,0 -3.0625,1.38094 -3.0625,3.05665 0,1.67568 1.37958,3.05664 3.0625,3.05664 1.6829,0 3.06054,-1.38096 3.06054,-3.05664 0,-1.67571 -1.37764,-3.05665 -3.06054,-3.05665 z M 223.31445,143.25 c 0.75614,0 1.35547,0.59546 1.35547,1.35938 0,0.76389 -0.59933,1.36132 -1.35547,1.36132 -0.75609,0 -1.35547,-0.59743 -1.35547,-1.36132 0,-0.76392 0.59938,-1.35938 1.35547,-1.35938 z m 7.48438,0 c 0.75617,0 1.35547,0.59546 1.35547,1.35938 0,0.76389 -0.5993,1.36132 -1.35547,1.36132 -0.75606,0 -1.35547,-0.59743 -1.35547,-1.36132 0,-0.76392 0.59941,-1.35938 1.35547,-1.35938 z m 20.45117,0 c 0.75613,0 1.35352,0.59546 1.35352,1.35938 0,0.76389 -0.59739,1.36132 -1.35352,1.36132 -0.75613,0 -1.35742,-0.59743 -1.35742,-1.36132 0,-0.76392 0.60129,-1.35938 1.35742,-1.35938 z m 7.48438,0 c 0.75608,0 1.35546,0.59546 1.35546,1.35938 0,0.76389 -0.59938,1.36132 -1.35546,1.36132 -0.75614,0 -1.35547,-0.59743 -1.35547,-1.36132 0,-0.76392 0.59933,-1.35938 1.35547,-1.35938 z"
       style="color:#000000;font-style:normal;font-variant:normal;font-weight:normal;font-stretch:normal;font-size:medium;line-height:normal;font-family:sans-serif;font-variant-ligatures:normal;font-variant-position:normal;font-variant-caps:normal;font-variant-numeric:normal;font-variant-alternates:normal;font-variant-east-asian:normal;font-feature-settings:normal;font-variation-settings:normal;text-indent:0;text-align:start;text-decoration:none;text-decoration-line:none;text-decoration-style:solid;text-decoration-color:#000000;letter-spacing:normal;word-spacing:normal;text-transform:none;writing-mode:lr-tb;direction:ltr;text-orientation:mixed;dominant-baseline:auto;baseline-shift:baseline;text-anchor:start;white-space:normal;shape-padding:0;shape-margin:0;inline-size:0;clip-rule:nonzero;display:inline;overflow:visible;visibility:visible;opacity:1;isolation:auto;mix-blend-mode:normal;color-interpolation:sRGB;color-interpolation-filters:linearRGB;solid-color:#000000;solid-opacity:1;vector-effect:none;fill:#000000;fill-opacity:1;fill-rule:evenodd;stroke:none;stroke-width:7.55909;stroke-linecap:round;stroke-linejoin:round;stroke-miterlimit:10;stroke-dasharray:none;stroke-dashoffset:0;stroke-opacity:1;color-rendering:auto;image-rendering:auto;shape-rendering:auto;text-rendering:auto;enable-background:accumulate;stop-color:#000000;stop-opacity:1"
       id="path9102" />
    <path
       d="m 213.71586,-58.268841 a 10.343252,10.343252 0 0 1 -10.34324,10.343251 10.343252,10.343252 0 0 1 -10.34325,-10.343251 10.343252,10.343252 0 0 1 10.34325,-10.343249 10.343252,10.343252 0 0 1 10.34324,10.343249"
       style="opacity:1;fill:#ffffff;fill-opacity:1;fill-rule:nonzero;stroke:none;stroke-width:0.793747;stroke-linecap:round;stroke-linejoin:round;stroke-miterlimit:2;stroke-dasharray:none;stroke-dashoffset:0;stroke-opacity:1"
       id="path2367" />
    <path
       d="m 203.36717,-68.317527 a 10.048715,10.048715 0 0 0 -10.04327,10.04876 10.048715,10.048715 0 0 0 10.0487,10.0487 10.048715,10.048715 0 0 0 10.04874,-10.0487 10.048715,10.048715 0 0 0 -10.04874,-10.04876 10.048715,10.048715 0 0 0 -0.006,0 z m -0.007,1.801056 a 8.228247,8.228247 0 0 1 0.007,0 8.228247,8.228247 0 0 1 8.22824,8.228248 8.228247,8.228247 0 0 1 -8.22824,8.228246 8.228247,8.228247 0 0 1 -8.22824,-8.228246 8.228247,8.228247 0 0 1 8.2216,-8.228248 z"
       style="opacity:1;fill:#d40000;fill-opacity:1;fill-rule:nonzero;stroke:none;stroke-width:0.296349"
       id="circle11674" />
    <path
       id="rect38024-9"
       style="opacity:1;fill:#d40000;fill-opacity:1;fill-rule:evenodd;stroke:none;stroke-width:4.39999;stroke-linecap:square;stroke-linejoin:round;paint-order:fill markers stroke"
       d="m 196.97806,-62.385739 v 5.873567 h 6.1542 v -5.873567 z m 0,6.295674 v 0.559813 h 6.1542 v -0.559813 z m 0.41918,0.839803 c -0.0784,0 -0.14143,0.06273 -0.14143,0.141131 v 1.261175 c 0,0.0784 0.0632,0.141136 0.14143,0.141136 h 0.30793 c 0.0784,0 0.14142,-0.06273 0.14142,-0.141136 v -1.261175 c 0,-0.0784 -0.0632,-0.141131 -0.14142,-0.141131 z m 0.75876,0 c -0.0784,0 -0.14142,0.06273 -0.14142,0.141131 v 1.261175 c 0,0.0784 0.063,0.141136 0.14142,0.141136 h 0.30793 c 0.0784,0 0.14142,-0.06273 0.14142,-0.141136 v -0.517186 h 1.09691 c 0.0588,0.142552 0.19787,0.235645 0.35214,0.235791 0.15427,0 0.29326,-0.09267 0.35212,-0.235791 h 1.09691 0.002 v 0.523034 c 0,0.0784 0.0632,0.141132 0.14142,0.141132 h 0.30792 c 0.0784,0 0.14141,-0.06273 0.14141,-0.141132 v -1.261186 c 0,-0.0784 -0.063,-0.141132 -0.14141,-0.141132 h -0.30792 c -0.0784,0 -0.14142,0.06273 -0.14142,0.141132 v 0.454616 h -0.002 -1.09764 c -0.0599,-0.141137 -0.19828,-0.232367 -0.35139,-0.232081 -0.15285,0 -0.29087,0.09124 -0.35067,0.232081 h -1.09838 v -0.449482 c 0,-0.07841 -0.0632,-0.141137 -0.14142,-0.141137 z m 4.25063,0 c -0.0784,0 -0.1414,0.06273 -0.1414,0.141131 v 1.261175 c 0,0.0784 0.063,0.141136 0.1414,0.141136 h 0.30793 c 0.0784,0 0.14142,-0.06273 0.14142,-0.141136 v -1.261175 c 0,-0.0784 -0.0632,-0.141131 -0.14142,-0.141131 z" />
    <path
       sodipodi:nodetypes="cscscccscssccccccscssssccsssscsccccccsscsccccccsscccccccccccccccccsssccccc"
       d="m 206.9728,-58.187811 c -0.007,8e-6 -0.0133,0 -0.02,8e-6 -0.2655,0 -0.56979,0.0084 -0.78978,0.02884 -0.34994,0.03264 -0.72019,0.115096 -0.96901,0.181431 -0.2003,0.05337 -0.27812,0.224403 -0.27812,0.224403 h -1.1e-4 l -0.54076,1.259506 c 0,0 -0.0499,0.07389 -0.0793,0.107185 -0.0187,0.02104 -0.061,0.05798 -0.061,0.05798 0,0 -0.0721,0.04616 -0.0965,0.08014 -0.0216,0.03021 -0.0534,0.07622 -0.0694,0.119346 -0.0144,0.0387 -0.0227,0.121716 -0.0227,0.121716 l -9.2e-4,0.181473 0.84539,0.0029 -0.001,0.363659 -0.84522,-0.0021 0.001,0.795549 c 1.6e-4,0.08853 0.0713,0.159674 0.15979,0.159679 h 0.006 v 0.693154 c 0,0.05694 0.0458,0.102765 0.10281,0.102765 h 0.80665 c 0.0569,0 0.10281,-0.04583 0.10281,-0.102765 v -0.693179 l 3.33386,-0.0037 v 0.697125 c 0,0.05694 0.0459,0.102776 0.10281,0.102776 h 0.80664 c 0.0569,0 0.10281,-0.04583 0.10281,-0.102776 v -0.697189 h 0.0132 c 0.0885,0 0.15986,-0.07114 0.15982,-0.159674 l -0.002,-0.777193 -0.84221,-0.0029 0.002,-0.361374 0.84608,0.0013 v -0.181754 c 0,0 3e-4,-0.04616 -0.012,-0.09498 -0.009,-0.03801 -0.0308,-0.07673 -0.046,-0.102536 -0.0281,-0.04719 -0.11665,-0.116269 -0.11665,-0.116269 0,0 -0.0495,-0.04056 -0.0702,-0.06469 -0.0374,-0.0436 -0.0964,-0.142929 -0.0964,-0.142929 l -0.49981,-1.198845 c 0,0 -0.0836,-0.202355 -0.33873,-0.27734 -0.27499,-0.08078 -0.72432,-0.140737 -1.09543,-0.166889 -0.21025,-0.01486 -0.33242,-0.03231 -0.49877,-0.03223 z m -0.0977,0.379678 c 0.0178,0 0.0354,0 0.0529,0 0.0187,0 0.0372,3.94e-4 0.0555,3.94e-4 0.30794,0.0037 0.60849,0.0558 0.92147,0.09485 0.14673,0.01821 0.44783,0.07838 0.44783,0.07838 0,0 0.0568,0.017 0.10648,0.04583 0.023,0.01321 0.0434,0.03437 0.0579,0.04799 0.0168,0.01579 0.0394,0.0434 0.0546,0.0686 0.0165,0.02726 0.0251,0.05157 0.0251,0.05157 l 0.45053,1.053154 c 0,0 -0.35345,-0.07777 -0.76035,-0.119321 -0.42917,-0.04378 -0.93255,-0.06923 -1.28124,-0.06943 -0.35556,0 -1.07868,0.03143 -1.5151,0.0756 -0.40827,0.04131 -0.74305,0.103028 -0.74305,0.103028 l 0.45812,-1.057008 c 0,0 0.0148,-0.03857 0.04,-0.07379 0.0181,-0.02532 0.044,-0.04653 0.0622,-0.06156 0.0167,-0.0139 0.0423,-0.03049 0.0682,-0.04223 0.0342,-0.01559 0.0677,-0.02416 0.0677,-0.02416 0,0 0.30338,-0.06841 0.66225,-0.113528 0.21115,-0.02654 0.50273,-0.05738 0.76904,-0.05838 z m -0.75409,1.952623 1.54546,0.0021 v 0.575 l -1.54546,-0.0021 z"
       style="opacity:1;fill:#000000;fill-opacity:1;fill-rule:evenodd;stroke:none;stroke-width:0.200001;stroke-linecap:round;stroke-linejoin:round;stroke-miterlimit:10;stroke-opacity:1"
       id="rect220966" />
    <path
       d="m 190.15595,-57.97316 a 10.216762,10.216762 0 0 1 -10.21677,10.216768 10.216762,10.216762 0 0 1 -10.21675,-10.216768 10.216762,10.216762 0 0 1 10.21675,-10.216758 10.216762,10.216762 0 0 1 10.21677,10.216758"
       style="opacity:1;fill:#ffffff;fill-opacity:1;fill-rule:nonzero;stroke:none;stroke-width:0.793758;stroke-linecap:round;stroke-linejoin:round;stroke-miterlimit:2;stroke-dasharray:none;stroke-dashoffset:0;stroke-opacity:1"
       id="path2367-8" />
    <path
       sodipodi:nodetypes="cscssscsscsssssssss"
       d="m 179.93382,-67.898987 c -2.63157,0.0013 -5.15487,1.047806 -7.01516,2.909119 -1.8603,1.861313 -2.90531,4.385184 -2.9053,7.016753 2e-5,2.632482 1.04577,5.157145 2.90722,7.018591 1.86144,1.861446 4.3861,2.907193 7.01858,2.907209 2.6325,5e-6 5.15717,-1.045743 7.01863,-2.907189 1.86145,-1.86145 2.90723,-4.386116 2.90723,-7.018611 0,-2.632506 -1.04574,-5.157198 -2.90719,-7.018659 -1.86148,-1.861471 -4.38616,-2.907226 -7.01867,-2.907213 z m 0.006,2.414477 c 1.99329,0 3.90493,0.791829 5.3144,2.201296 1.40947,1.409467 2.2013,3.321112 2.2013,5.3144 0,1.993284 -0.79183,3.904938 -2.2013,5.314405 -1.40947,1.409467 -3.32111,2.2013 -5.3144,2.2013 -1.99329,0 -3.90494,-0.791833 -5.3144,-2.2013 -1.40947,-1.409467 -2.2013,-3.321121 -2.2013,-5.314405 0,-1.993288 0.79183,-3.904933 2.2013,-5.3144 1.40946,-1.409467 3.32111,-2.201296 5.3144,-2.201296 z"
       style="opacity:1;fill:#d40000;fill-opacity:1;fill-rule:nonzero;stroke:none;stroke-width:0.296349"
       id="circle11674-0" />
    <path
       d="m 174.90926,-61.995755 v 1.231331 h 3.13926 c -1.34579,2.191652 -2.04848,4.684525 -2.05453,7.349678 h 1.18855 c 0.0211,-3.630352 1.38172,-6.054403 2.31359,-7.358421 v -1.222588 z m 7.95511,0 c -0.0982,3.94e-4 -0.19079,0.0061 -0.27546,0.01628 -0.42634,0.05134 -0.78631,0.22172 -1.08239,0.512223 -0.60882,0.597339 -0.93897,1.700446 -0.98906,3.304658 -0.009,0.289118 -0.009,0.62226 0.001,0.905055 0.0362,1.038724 0.19502,1.882808 0.4743,2.521768 0.087,0.199196 0.1649,0.335323 0.27741,0.485199 0.25973,0.345993 0.64614,0.634238 1.06722,0.796041 0.22626,0.08694 0.43795,0.132888 0.65054,0.141164 0.0402,0.0016 0.12156,8e-6 0.17623,-0.0032 0.37984,-0.02238 0.73802,-0.1325 1.05529,-0.324394 0.0742,-0.04492 0.15134,-0.09824 0.21867,-0.151276 0.21225,-0.167159 0.39018,-0.369989 0.53019,-0.604323 0.0899,-0.150384 0.161,-0.308395 0.22658,-0.503023 0.17161,-0.509273 0.27083,-1.196556 0.29821,-2.066259 0.006,-0.181794 0.007,-0.290982 0.007,-0.522137 -3e-5,-0.228478 -0.001,-0.352417 -0.007,-0.559794 -0.0327,-1.221335 -0.16427,-2.035891 -0.4218,-2.611536 -0.1359,-0.303734 -0.31098,-0.558162 -0.52098,-0.757091 -0.35075,-0.332284 -0.80587,-0.519686 -1.37696,-0.567055 -0.10727,-0.0089 -0.21109,-0.01305 -0.30929,-0.0124 z m 0.1923,1.37036 c 0.0544,-3.35e-4 0.1075,0.0021 0.15348,0.0058 0.21385,0.01919 0.37083,0.08421 0.48921,0.202546 0.0727,0.07271 0.12855,0.160935 0.18505,0.292507 0.18262,0.425362 0.28866,1.021207 0.32782,1.84245 0.0132,0.275471 0.0184,0.530689 0.0184,0.893848 0,0.256177 -0.001,0.334115 -0.007,0.501008 -0.0208,0.563282 -0.0852,0.979923 -0.19775,1.280786 -0.0152,0.04086 -0.0185,0.07654 -0.0785,0.211817 -0.10338,0.233469 -0.18251,0.360013 -0.25255,0.453501 -0.13901,0.185547 -0.3062,0.266096 -0.57956,0.279214 -0.0244,0.0013 -0.11426,0.0016 -0.13793,3.94e-4 -0.10567,-0.0045 -0.18135,-0.01409 -0.25503,-0.03223 -0.18855,-0.04649 -0.31121,-0.144165 -0.40535,-0.32277 -0.0384,-0.07279 -0.071,-0.151955 -0.11595,-0.281229 -0.0183,-0.05265 -0.0958,-0.286036 -0.10877,-0.32737 -0.1238,-0.39587 -0.1979,-0.861892 -0.22853,-1.437183 -0.0196,-0.36742 -0.0215,-0.80531 -0.006,-1.185569 0.0322,-0.756214 0.13349,-1.351525 0.29936,-1.760598 0.0585,-0.144174 0.13256,-0.276383 0.19969,-0.356411 0.12776,-0.152259 0.29691,-0.231881 0.53867,-0.25349 0.0508,-0.0045 0.10636,-0.007 0.16074,-0.0072 z"
       style="opacity:1;fill:#000000;fill-opacity:1;stroke-width:0.0105267"
       id="path11978"
       sodipodi:nodetypes="ccccccccccsccsssccscsscccsscccccccssccscccscccssscccc" />
  </g>
</svg>
