<svg width="79.375mm" height="49.094mm" version="1.1" viewBox="0 0 79.375 49.094" xmlns="http://www.w3.org/2000/svg"><g transform="translate(-152.06 74.357)"><path d="m152.06-74.357h79.375l-1.1e-4 49.094h-79.375z" fill="#00408c" stroke-linecap="square" stroke-width="1.665" style="paint-order:fill markers stroke"/><g shape-rendering="auto"><g fill="#fff"><path d="m156.95-73.37c-2.1432 0-3.8919 1.7487-3.8919 3.8919l-1.1e-4 39.367c-1e-5 2.1432 1.7487 3.8919 3.8919 3.8919h69.576c2.1432 0 3.8915-1.7487 3.8915-3.8919l1.1e-4 -39.367c0-2.1432-1.7483-3.8919-3.8915-3.8919zm0 1.4818h69.576c1.3479 0 2.4097 1.0622 2.4097 2.4101l-1.1e-4 39.367c-1e-5 1.3479-1.0618 2.4101-2.4097 2.4101h-69.576c-1.3479 0-2.4101-1.0622-2.4101-2.4101l1.1e-4 -39.367c1e-5 -1.3479 1.0622-2.4101 2.4101-2.4101z" color="#000000" color-rendering="auto" dominant-baseline="auto" enable-background="accumulate" image-rendering="auto" solid-color="#000000" stop-color="#000000" style="font-feature-settings:normal;font-variant-alternates:normal;font-variant-caps:normal;font-variant-east-asian:normal;font-variant-ligatures:normal;font-variant-numeric:normal;font-variant-position:normal;font-variation-settings:normal;inline-size:0;isolation:auto;mix-blend-mode:normal;paint-order:fill markers stroke;shape-margin:0;shape-padding:0;text-decoration-color:#000000;text-decoration-line:none;text-decoration-style:solid;text-indent:0;text-orientation:mixed;text-transform:none;white-space:normal"/><g fill-rule="evenodd"><path d="m176.78-44.261h-17.213c-0.6727 0-1.225 0.52262-1.225 1.193v10.661c0 0.6704 0.47665 1.1447 1.1494 1.1447l17.319-9.6e-5c0.6727-7e-6 1.1456-0.54711 1.1456-1.2175v-10.598c0-0.6704-0.50263-1.1832-1.1753-1.1832z" color="#000000" color-rendering="auto" dominant-baseline="auto" enable-background="accumulate" image-rendering="auto" solid-color="#000000" stop-color="#000000" style="font-feature-settings:normal;font-variant-alternates:normal;font-variant-caps:normal;font-variant-east-asian:normal;font-variant-ligatures:normal;font-variant-numeric:normal;font-variant-position:normal;font-variation-settings:normal;inline-size:0;isolation:auto;mix-blend-mode:normal;shape-margin:0;shape-padding:0;text-decoration-color:#000000;text-decoration-line:none;text-decoration-style:solid;text-indent:0;text-orientation:mixed;text-transform:none;white-space:normal"/><path d="m200.27-44.261h-17.213c-0.67272 0-1.225 0.52262-1.225 1.193v10.661c0 0.6704 0.47666 1.1447 1.1494 1.1447l17.319-9.6e-5c0.6727-7e-6 1.1456-0.54711 1.1456-1.2175v-10.598c0-0.6704-0.50263-1.1832-1.1753-1.1832z" color="#000000" color-rendering="auto" dominant-baseline="auto" enable-background="accumulate" image-rendering="auto" solid-color="#000000" stop-color="#000000" style="font-feature-settings:normal;font-variant-alternates:normal;font-variant-caps:normal;font-variant-east-asian:normal;font-variant-ligatures:normal;font-variant-numeric:normal;font-variant-position:normal;font-variation-settings:normal;inline-size:0;isolation:auto;mix-blend-mode:normal;shape-margin:0;shape-padding:0;text-decoration-color:#000000;text-decoration-line:none;text-decoration-style:solid;text-indent:0;text-orientation:mixed;text-transform:none;white-space:normal"/><path d="m223.97-44.261h-17.213c-0.6727 0-1.225 0.52262-1.225 1.193v10.661c0 0.6704 0.47668 1.1447 1.1494 1.1447l17.319-9.6e-5c0.67272-7e-6 1.1456-0.54711 1.1456-1.2175v-10.598c0-0.6704-0.50262-1.1832-1.1753-1.1832z" color="#000000" color-rendering="auto" dominant-baseline="auto" enable-background="accumulate" image-rendering="auto" solid-color="#000000" stop-color="#000000" style="font-feature-settings:normal;font-variant-alternates:normal;font-variant-caps:normal;font-variant-east-asian:normal;font-variant-ligatures:normal;font-variant-numeric:normal;font-variant-position:normal;font-variation-settings:normal;inline-size:0;isolation:auto;mix-blend-mode:normal;shape-margin:0;shape-padding:0;text-decoration-color:#000000;text-decoration-line:none;text-decoration-style:solid;text-indent:0;text-orientation:mixed;text-transform:none;white-space:normal"/></g></g><g fill-rule="evenodd"><path transform="matrix(.26458 0 0 .26458 152.06 -74.357)" d="m28.34 115.01c-1.8158 0-3.3027 1.485-3.3027 3.3008v40.008c0 1.8158 1.4869 3.3008 3.3027 3.3008h65.021c1.8158 0 3.3008-1.485 3.3008-3.3008v-40.008c0-1.8158-1.485-3.3008-3.3008-3.3008zm0 1.4805h65.021c1.0212 0 1.8203 0.79912 1.8203 1.8203v40.008c0 1.0212-0.79912 1.8203-1.8203 1.8203h-65.021c-1.0212 0-1.8203-0.79912-1.8203-1.8203v-40.008c0-1.0212 0.79908-1.8203 1.8203-1.8203zm44.58 8.6055c-0.10658 0-0.21165 5e-3 -0.31445 0.0117h-6.8848c-0.144 0-0.26147 0.16059-0.26562 0.36328v8e-3c-3.8e-5 1e-3 0 4e-3 0 6e-3v2.9004c0 0.0102 0.0012 0.0183 2e-3 0.0273v6.1016c0 0.0733-0.0022 0.14443-0.0098 0.21485h-27.996c-0.10507 0-0.18945 0.11896-0.18945 0.26757v8.707c0 0.81093 0.4618 1.4629 1.0352 1.4629h2.9199c-0.0038-0.0957-0.0077-0.19126-0.0039-0.28711v-0.0449c0.03893-2.6445 2.1951-4.766 4.8398-4.7637 0.0189 1e-5 0.03925-3.6e-4 0.05664 0 2.6666 0.0336 4.8026 2.2181 4.7754 4.8848-5.67e-4 0.0704-0.0034 0.14067-0.0078 0.21094h21.324c-0.0038-0.0957-0.0078-0.19134-0.0078-0.28711v-0.0449c0.03893-2.6445 2.195-4.766 4.8398-4.7637 0.0189 2e-5 0.03925-9e-5 0.05664 0 2.6666 0.0336 4.8026 2.2181 4.7754 4.8848-6.42e-4 0.0704-0.0034 0.14052-0.0078 0.21094h1.7109c0.57332 0 1.0352-0.65195 1.0352-1.4629v-8.2034c0-0.8109-0.49703-1.4221-1.0703-1.543l-3.3809-1.1992-3.2402-6.1035h-2e-3c-0.34923-0.89938-1.4803-1.5547-2.8301-1.5547l-2e-3 -4e-3zm-4.5703 2.0254h5.1738c1.2533 0 1.7694 0.91594 2.5117 2.3145 0.09751 0.18315 0.40242 0.77712 0.67969 1.3906 0.048 0.0151 0.05759 0.0891 0.09766 0.16016l1.3184 2.373c0.04422 0.0791-0.09395 0.3164-0.1582 0.3164h-9.6211zm-22.283 13.641c-2.3036 0-4.1895 1.8889-4.1895 4.1836 0 2.2935 1.886 4.1836 4.1895 4.1836 2.3037 0 4.1895-1.8904 4.1895-4.1836 0-2.2935-1.8858-4.1836-4.1895-4.1836zm30.982 0c-2.3037 0-4.1895 1.8889-4.1895 4.1836 0 2.2935 1.8859 4.1836 4.1895 4.1836 2.3037 0 4.1895-1.8904 4.1895-4.1836 0-2.2935-1.8858-4.1836-4.1895-4.1836z" color="#000000" color-rendering="auto" dominant-baseline="auto" enable-background="accumulate" image-rendering="auto" solid-color="#000000" stop-color="#000000" style="font-feature-settings:normal;font-variant-alternates:normal;font-variant-caps:normal;font-variant-east-asian:normal;font-variant-ligatures:normal;font-variant-numeric:normal;font-variant-position:normal;font-variation-settings:normal;inline-size:0;isolation:auto;mix-blend-mode:normal;shape-margin:0;shape-padding:0;text-decoration-color:#000000;text-decoration-line:none;text-decoration-style:solid;text-indent:0;text-orientation:mixed;text-transform:none;white-space:normal"/><path transform="matrix(.26458 0 0 .26458 152.06 -74.357)" d="m117.1 115.01c-1.8158 0-3.3008 1.485-3.3008 3.3008v40.008c0 1.8158 1.485 3.3008 3.3008 3.3008h65.021c1.8158 0 3.3008-1.485 3.3008-3.3008v-40.008c0-1.8158-1.485-3.3008-3.3008-3.3008zm0 1.4805h65.021c1.0212 0 1.8203 0.79912 1.8203 1.8203v40.008c0 1.0212-0.79912 1.8203-1.8203 1.8203h-65.021c-1.0212 0-1.8203-0.79912-1.8203-1.8203v-40.008c0-1.0212 0.79912-1.8203 1.8203-1.8203zm5.7559 8.5957v17.213h36.918v-17.213zm38.443 5.8105v12.947h-23.957s0.0585 0.0556 0.15039 0.15234c0.11898 0.12548 0.29357 0.31989 0.46289 0.55079 0.26154 0.35725 0.504 0.8083 0.63477 1.127 0.12283 0.29885 0.24604 0.77413 0.30273 1.1758 0.0514 0.39979 0.0703 0.66797 0.0703 0.66797h22.67s-0.0135-0.53219 0.15625-1.1992c0.1573-0.61976 0.47766-1.3523 0.96484-1.9746 0.6119-0.78167 1.574-1.259 2.498-1.6191 0.45981-0.17923 0.96594-0.26808 1.459-0.24805 0.67552 0.0268 1.2567 0.1817 1.9668 0.49805 0.68867 0.30678 1.356 0.7452 1.7949 1.2773 0.52622 0.63791 0.8722 1.3545 1.0449 1.9668 0.20788 0.72774 0.18555 1.2988 0.18555 1.2988h1.8711v-8.793l-3.0996-7.8281zm1.5625 2.1406h7.1426l1.9707 4.9824h-9.1133zm-28.928 10.674c-2.093 0-3.8086 1.7167-3.8086 3.8008 0 2.084 1.7156 3.8027 3.8086 3.8027 2.0931 1e-5 3.8066-1.7187 3.8066-3.8027 0-2.0841-1.7136-3.8008-3.8066-3.8008zm32.729 0c-2.093 0-3.8066 1.7167-3.8066 3.8008 0 2.084 1.7136 3.8027 3.8066 3.8027 2.093 1e-5 3.8066-1.7187 3.8066-3.8027 0-2.0841-1.7136-3.8008-3.8066-3.8008zm-43.807 0.13281v1.7676l6.041 1.9668s-0.0125-0.32873 0.0449-0.72851c0.0571-0.40167 0.18185-0.87498 0.30469-1.1738 0.13092-0.31868 0.37479-0.77171 0.63672-1.1289 0.2996-0.40906 0.61328-0.70313 0.61328-0.70313zm11.078 1.9766c0.94042 0 1.6855 0.74135 1.6855 1.6914 0 0.95002-0.74512 1.6934-1.6855 1.6934-0.94035 0-1.6875-0.74334-1.6875-1.6934 0-0.95006 0.74715-1.6914 1.6875-1.6914zm32.729 0c0.94035 0 1.6856 0.74135 1.6856 1.6914 0 0.95002-0.7452 1.6934-1.6856 1.6934-0.94038 0-1.6855-0.74334-1.6855-1.6934 0-0.95006 0.74516-1.6914 1.6855-1.6914z" color="#000000" color-rendering="auto" dominant-baseline="auto" enable-background="accumulate" image-rendering="auto" solid-color="#000000" stop-color="#000000" style="font-feature-settings:normal;font-variant-alternates:normal;font-variant-caps:normal;font-variant-east-asian:normal;font-variant-ligatures:normal;font-variant-numeric:normal;font-variant-position:normal;font-variation-settings:normal;inline-size:0;isolation:auto;mix-blend-mode:normal;shape-margin:0;shape-padding:0;text-decoration-color:#000000;text-decoration-line:none;text-decoration-style:solid;text-indent:0;text-orientation:mixed;text-transform:none;white-space:normal"/><path transform="matrix(.26458 0 0 .26458 152.06 -74.357)" d="m206.69 115.01c-1.8157 0-3.3008 1.485-3.3008 3.3008v40.008c0 1.8158 1.4851 3.3008 3.3008 3.3008h65.021c1.8158 0 3.3008-1.485 3.3008-3.3008v-40.008c0-1.8158-1.485-3.3008-3.3008-3.3008zm0 1.4805h65.021c1.0212 0 1.8203 0.79912 1.8203 1.8203v40.008c0 1.0212-0.79913 1.8203-1.8203 1.8203h-65.021c-1.0212 0-1.8203-0.79912-1.8203-1.8203v-40.008c0-1.0212 0.79916-1.8203 1.8203-1.8203zm4.5723 12.484v11.832h34.492v-1.998h8.5762v-9.834zm43.764 3.8594v6.6797h-8.5254v5.0723h1.3008s-0.0495-1.0999 0.71484-2.0195c0.22787-0.27419 0.48488-0.59557 0.83789-0.81055 0.64902-0.39483 1.2748-0.5591 1.9551-0.58594 0.39364-0.0155 0.73997 0.0881 1.1562 0.25 0.5452 0.21213 1.0946 0.55294 1.457 1 0.34023 0.41949 0.5377 0.80906 0.66016 1.2188 0.14097 0.4788 0.17968 0.94727 0.17968 0.94727h0.51758s-9e-3 -0.37176 0.10938-0.83594c0.10953-0.43132 0.33247-0.93995 0.67187-1.373 0.42584-0.54395 1.0399-0.8757 1.6602-1.125 0.31858-0.12805 0.67244-0.18893 1.0156-0.17383 0.47006 0.0186 0.87306 0.12754 1.3672 0.34766 0.47921 0.21351 0.94462 0.5164 1.25 0.88672 0.36631 0.44393 0.60638 0.945 0.72656 1.3711 0.14778 0.50643 0.12891 0.90235 0.12891 0.90235h1.1641v-6.9199l-1.9902-4.832zm0.8457 1.4219h5.0137l1.3242 3.1914h-6.3379zm-44.609 7.248v2.3867l4.2188 0.69532h4.3574s-3e-3 -0.29878 0.0742-0.64453c0.0855-0.3863 0.25992-0.83766 0.42773-1.1113 0.14551-0.2372 0.38463-0.5728 0.66016-0.8125 0.36805-0.32007 0.76757-0.51367 0.76757-0.51367zm13.619 0s0.34507 0.15798 0.67578 0.4414c0.28558 0.24458 0.55005 0.59619 0.70312 0.84375 0.17137 0.27705 0.37458 0.75376 0.4668 1.1465 0.0843 0.35996 0.0644 0.65039 0.0644 0.65039h0.49805s-8e-3 -0.30329 0.084-0.67969c0.10035-0.41115 0.30888-0.90896 0.49219-1.1973 0.14718-0.23113 0.38727-0.53288 0.66016-0.75976 0.32356-0.26905 0.67383-0.44531 0.67382-0.44531zm7.4824 0s0.29995 0.13606 0.58984 0.38086c0.29382 0.248 0.57727 0.6052 0.73828 0.86523 0.17711 0.28583 0.37275 0.78034 0.46875 1.1836 0.0873 0.36273 0.082 0.65235 0.082 0.65235h11.512v-3.082zm-9.0527 0.0488c-1.6829 0-3.0625 1.3809-3.0625 3.0566 0 1.6757 1.3796 3.0566 3.0625 3.0566s3.0606-1.381 3.0606-3.0566c0-1.6757-1.3776-3.0566-3.0606-3.0566zm7.4844 0c-1.6829 0-3.0606 1.3809-3.0606 3.0566 0 1.6757 1.3776 3.0566 3.0606 3.0566 1.683 0 3.0605-1.381 3.0606-3.0566 0-1.6757-1.3776-3.0566-3.0606-3.0566zm20.451 0c-1.6829 0-3.0625 1.3809-3.0625 3.0566 0 1.6757 1.3796 3.0566 3.0625 3.0566 1.6829 0 3.0606-1.381 3.0606-3.0566 0-1.6757-1.3777-3.0566-3.0606-3.0566zm7.4844 0c-1.6829 0-3.0625 1.3809-3.0625 3.0566 0 1.6757 1.3796 3.0566 3.0625 3.0566 1.6829 0 3.0605-1.381 3.0605-3.0566 0-1.6757-1.3776-3.0566-3.0605-3.0566zm-35.42 1.6973c0.75614 0 1.3555 0.59546 1.3555 1.3594 0 0.76389-0.59933 1.3613-1.3555 1.3613-0.75609 0-1.3555-0.59743-1.3555-1.3613 0-0.76392 0.59938-1.3594 1.3555-1.3594zm7.4844 0c0.75617 0 1.3555 0.59546 1.3555 1.3594 0 0.76389-0.5993 1.3613-1.3555 1.3613-0.75606 0-1.3555-0.59743-1.3555-1.3613 0-0.76392 0.59941-1.3594 1.3555-1.3594zm20.451 0c0.75613 0 1.3535 0.59546 1.3535 1.3594 0 0.76389-0.59739 1.3613-1.3535 1.3613s-1.3574-0.59743-1.3574-1.3613c0-0.76392 0.60129-1.3594 1.3574-1.3594zm7.4844 0c0.75608 0 1.3555 0.59546 1.3555 1.3594 0 0.76389-0.59938 1.3613-1.3555 1.3613-0.75614 0-1.3555-0.59743-1.3555-1.3613 0-0.76392 0.59933-1.3594 1.3555-1.3594z" color="#000000" color-rendering="auto" dominant-baseline="auto" enable-background="accumulate" image-rendering="auto" solid-color="#000000" stop-color="#000000" style="font-feature-settings:normal;font-variant-alternates:normal;font-variant-caps:normal;font-variant-east-asian:normal;font-variant-ligatures:normal;font-variant-numeric:normal;font-variant-position:normal;font-variation-settings:normal;inline-size:0;isolation:auto;mix-blend-mode:normal;shape-margin:0;shape-padding:0;text-decoration-color:#000000;text-decoration-line:none;text-decoration-style:solid;text-indent:0;text-orientation:mixed;text-transform:none;white-space:normal"/></g></g><path d="m213.72-58.269a10.343 10.343 0 0 1-10.343 10.343 10.343 10.343 0 0 1-10.343-10.343 10.343 10.343 0 0 1 10.343-10.343 10.343 10.343 0 0 1 10.343 10.343" fill="#fff"/><path d="m203.37-68.318a10.049 10.049 0 0 0-10.043 10.049 10.049 10.049 0 0 0 10.049 10.049 10.049 10.049 0 0 0 10.049-10.049 10.049 10.049 0 0 0-10.049-10.049 10.049 10.049 0 0 0-6e-3 0zm-7e-3 1.8011a8.2282 8.2282 0 0 1 7e-3 0 8.2282 8.2282 0 0 1 8.2282 8.2282 8.2282 8.2282 0 0 1-8.2282 8.2282 8.2282 8.2282 0 0 1-8.2282-8.2282 8.2282 8.2282 0 0 1 8.2216-8.2282z" fill="#d40000"/><path d="m196.98-62.386v5.8736h6.1542v-5.8736zm0 6.2957v0.55981h6.1542v-0.55981zm0.41918 0.8398c-0.0784 0-0.14143 0.06273-0.14143 0.14113v1.2612c0 0.0784 0.0632 0.14114 0.14143 0.14114h0.30793c0.0784 0 0.14142-0.06273 0.14142-0.14114v-1.2612c0-0.0784-0.0632-0.14113-0.14142-0.14113zm0.75876 0c-0.0784 0-0.14142 0.06273-0.14142 0.14113v1.2612c0 0.0784 0.063 0.14114 0.14142 0.14114h0.30793c0.0784 0 0.14142-0.06273 0.14142-0.14114v-0.51719h1.0969c0.0588 0.14255 0.19787 0.23564 0.35214 0.23579 0.15427 0 0.29326-0.09267 0.35212-0.23579h1.0989v0.52303c0 0.0784 0.0632 0.14113 0.14142 0.14113h0.30792c0.0784 0 0.14141-0.06273 0.14141-0.14113v-1.2612c0-0.0784-0.063-0.14113-0.14141-0.14113h-0.30792c-0.0784 0-0.14142 0.06273-0.14142 0.14113v0.45462h-1.0996c-0.0599-0.14114-0.19828-0.23237-0.35139-0.23208-0.15285 0-0.29087 0.09124-0.35067 0.23208h-1.0984v-0.44948c0-0.07841-0.0632-0.14114-0.14142-0.14114zm4.2506 0c-0.0784 0-0.1414 0.06273-0.1414 0.14113v1.2612c0 0.0784 0.063 0.14114 0.1414 0.14114h0.30793c0.0784 0 0.14142-0.06273 0.14142-0.14114v-1.2612c0-0.0784-0.0632-0.14113-0.14142-0.14113z" fill="#d40000" fill-rule="evenodd" style="paint-order:fill markers stroke"/><path d="m206.97-58.188c-7e-3 8e-6 -0.0133 0-0.02 8e-6 -0.2655 0-0.56979 0.0084-0.78978 0.02884-0.34994 0.03264-0.72019 0.1151-0.96901 0.18143-0.2003 0.05337-0.27812 0.2244-0.27812 0.2244h-1.1e-4l-0.54076 1.2595s-0.0499 0.07389-0.0793 0.10718c-0.0187 0.02104-0.061 0.05798-0.061 0.05798s-0.0721 0.04616-0.0965 0.08014c-0.0216 0.03021-0.0534 0.07622-0.0694 0.11935-0.0144 0.0387-0.0227 0.12172-0.0227 0.12172l-9.2e-4 0.18147 0.84539 0.0029-1e-3 0.36366-0.84522-0.0021 1e-3 0.79555c1.6e-4 0.08853 0.0713 0.15967 0.15979 0.15968h6e-3v0.69315c0 0.05694 0.0458 0.10276 0.10281 0.10276h0.80665c0.0569 0 0.10281-0.04583 0.10281-0.10276v-0.69318l3.3339-0.0037v0.69712c0 0.05694 0.0459 0.10278 0.10281 0.10278h0.80664c0.0569 0 0.10281-0.04583 0.10281-0.10278v-0.69719h0.0132c0.0885 0 0.15986-0.07114 0.15982-0.15967l-2e-3 -0.77719-0.84221-0.0029 2e-3 -0.36137 0.84608 0.0013v-0.18175s3e-4 -0.04616-0.012-0.09498c-9e-3 -0.03801-0.0308-0.07673-0.046-0.10254-0.0281-0.04719-0.11665-0.11627-0.11665-0.11627s-0.0495-0.04056-0.0702-0.06469c-0.0374-0.0436-0.0964-0.14293-0.0964-0.14293l-0.49981-1.1988s-0.0836-0.20236-0.33873-0.27734c-0.27499-0.08078-0.72432-0.14074-1.0954-0.16689-0.21025-0.01486-0.33242-0.03231-0.49877-0.03223zm-0.0977 0.37968h0.0529c0.0187 0 0.0372 3.94e-4 0.0555 3.94e-4 0.30794 0.0037 0.60849 0.0558 0.92147 0.09485 0.14673 0.01821 0.44783 0.07838 0.44783 0.07838s0.0568 0.017 0.10648 0.04583c0.023 0.01321 0.0434 0.03437 0.0579 0.04799 0.0168 0.01579 0.0394 0.0434 0.0546 0.0686 0.0165 0.02726 0.0251 0.05157 0.0251 0.05157l0.45053 1.0532s-0.35345-0.07777-0.76035-0.11932c-0.42917-0.04378-0.93255-0.06923-1.2812-0.06943-0.35556 0-1.0787 0.03143-1.5151 0.0756-0.40827 0.04131-0.74305 0.10303-0.74305 0.10303l0.45812-1.057s0.0148-0.03857 0.04-0.07379c0.0181-0.02532 0.044-0.04653 0.0622-0.06156 0.0167-0.0139 0.0423-0.03049 0.0682-0.04223 0.0342-0.01559 0.0677-0.02416 0.0677-0.02416s0.30338-0.06841 0.66225-0.11353c0.21115-0.02654 0.50273-0.05738 0.76904-0.05838zm-0.75409 1.9526 1.5455 0.0021v0.575l-1.5455-0.0021z" fill-rule="evenodd"/><path d="m190.16-57.973a10.217 10.217 0 0 1-10.217 10.217 10.217 10.217 0 0 1-10.217-10.217 10.217 10.217 0 0 1 10.217-10.217 10.217 10.217 0 0 1 10.217 10.217" fill="#fff"/><path d="m179.93-67.899c-2.6316 0.0013-5.1549 1.0478-7.0152 2.9091-1.8603 1.8613-2.9053 4.3852-2.9053 7.0168 2e-5 2.6325 1.0458 5.1571 2.9072 7.0186 1.8614 1.8614 4.3861 2.9072 7.0186 2.9072 2.6325 5e-6 5.1572-1.0457 7.0186-2.9072 1.8614-1.8614 2.9072-4.3861 2.9072-7.0186 0-2.6325-1.0457-5.1572-2.9072-7.0187-1.8615-1.8615-4.3862-2.9072-7.0187-2.9072zm6e-3 2.4145c1.9933 0 3.9049 0.79183 5.3144 2.2013s2.2013 3.3211 2.2013 5.3144c0 1.9933-0.79183 3.9049-2.2013 5.3144s-3.3211 2.2013-5.3144 2.2013-3.9049-0.79183-5.3144-2.2013c-1.4095-1.4095-2.2013-3.3211-2.2013-5.3144 0-1.9933 0.79183-3.9049 2.2013-5.3144 1.4095-1.4095 3.3211-2.2013 5.3144-2.2013z" fill="#d40000"/><path d="m174.91-61.996v1.2313h3.1393c-1.3458 2.1917-2.0485 4.6845-2.0545 7.3497h1.1886c0.0211-3.6304 1.3817-6.0544 2.3136-7.3584v-1.2226zm7.9551 0c-0.0982 3.94e-4 -0.19079 0.0061-0.27546 0.01628-0.42634 0.05134-0.78631 0.22172-1.0824 0.51222-0.60882 0.59734-0.93897 1.7004-0.98906 3.3047-9e-3 0.28912-9e-3 0.62226 1e-3 0.90506 0.0362 1.0387 0.19502 1.8828 0.4743 2.5218 0.087 0.1992 0.1649 0.33532 0.27741 0.4852 0.25973 0.34599 0.64614 0.63424 1.0672 0.79604 0.22626 0.08694 0.43795 0.13289 0.65054 0.14116 0.0402 0.0016 0.12156 8e-6 0.17623-0.0032 0.37984-0.02238 0.73802-0.1325 1.0553-0.32439 0.0742-0.04492 0.15134-0.09824 0.21867-0.15128 0.21225-0.16716 0.39018-0.36999 0.53019-0.60432 0.0899-0.15038 0.161-0.3084 0.22658-0.50302 0.17161-0.50927 0.27083-1.1966 0.29821-2.0663 6e-3 -0.18179 7e-3 -0.29098 7e-3 -0.52214-3e-5 -0.22848-1e-3 -0.35242-7e-3 -0.55979-0.0327-1.2213-0.16427-2.0359-0.4218-2.6115-0.1359-0.30373-0.31098-0.55816-0.52098-0.75709-0.35075-0.33228-0.80587-0.51969-1.377-0.56706-0.10727-0.0089-0.21109-0.01305-0.30929-0.0124zm0.1923 1.3704c0.0544-3.35e-4 0.1075 0.0021 0.15348 0.0058 0.21385 0.01919 0.37083 0.08421 0.48921 0.20255 0.0727 0.07271 0.12855 0.16094 0.18505 0.29251 0.18262 0.42536 0.28866 1.0212 0.32782 1.8424 0.0132 0.27547 0.0184 0.53069 0.0184 0.89385 0 0.25618-1e-3 0.33412-7e-3 0.50101-0.0208 0.56328-0.0852 0.97992-0.19775 1.2808-0.0152 0.04086-0.0185 0.07654-0.0785 0.21182-0.10338 0.23347-0.18251 0.36001-0.25255 0.4535-0.13901 0.18555-0.3062 0.2661-0.57956 0.27921-0.0244 0.0013-0.11426 0.0016-0.13793 3.94e-4 -0.10567-0.0045-0.18135-0.01409-0.25503-0.03223-0.18855-0.04649-0.31121-0.14416-0.40535-0.32277-0.0384-0.07279-0.071-0.15196-0.11595-0.28123-0.0183-0.05265-0.0958-0.28604-0.10877-0.32737-0.1238-0.39587-0.1979-0.86189-0.22853-1.4372-0.0196-0.36742-0.0215-0.80531-6e-3 -1.1856 0.0322-0.75621 0.13349-1.3515 0.29936-1.7606 0.0585-0.14417 0.13256-0.27638 0.19969-0.35641 0.12776-0.15226 0.29691-0.23188 0.53867-0.25349 0.0508-0.0045 0.10636-7e-3 0.16074-0.0072z" stroke-width=".010527"/></g></svg>