<svg width="79.375mm" height="49.094mm" version="1.1" viewBox="0 0 79.375 49.094" xmlns="http://www.w3.org/2000/svg"><g transform="translate(-172.68 5.5772)"><path d="m172.68-5.5772h79.375l-1.3e-4 49.094h-79.375z" fill="#00408c" stroke-linecap="square" stroke-width="1.665" style="paint-order:fill markers stroke"/><g shape-rendering="auto"><g fill="#fff"><g fill-rule="evenodd"><path d="m197.4 24.52h-17.213c-0.67271 0-1.225 0.52262-1.225 1.193v10.661c0 0.6704 0.47665 1.1447 1.1494 1.1447l17.319-9.6e-5c0.67271-7e-6 1.1456-0.54711 1.1456-1.2175v-10.598c0-0.6704-0.50262-1.1832-1.1753-1.1832z" color="#000000" color-rendering="auto" dominant-baseline="auto" enable-background="accumulate" image-rendering="auto" solid-color="#000000" stop-color="#000000" style="font-feature-settings:normal;font-variant-alternates:normal;font-variant-caps:normal;font-variant-east-asian:normal;font-variant-ligatures:normal;font-variant-numeric:normal;font-variant-position:normal;font-variation-settings:normal;inline-size:0;isolation:auto;mix-blend-mode:normal;shape-margin:0;shape-padding:0;text-decoration-color:#000000;text-decoration-line:none;text-decoration-style:solid;text-indent:0;text-orientation:mixed;text-transform:none;white-space:normal"/><path d="m220.89 24.52h-17.213c-0.67273 0-1.225 0.52262-1.225 1.193v10.661c0 0.6704 0.47668 1.1447 1.1494 1.1447l17.319-9.6e-5c0.67269-7e-6 1.1456-0.54711 1.1456-1.2175v-10.598c0-0.6704-0.50262-1.1832-1.1753-1.1832z" color="#000000" color-rendering="auto" dominant-baseline="auto" enable-background="accumulate" image-rendering="auto" solid-color="#000000" stop-color="#000000" style="font-feature-settings:normal;font-variant-alternates:normal;font-variant-caps:normal;font-variant-east-asian:normal;font-variant-ligatures:normal;font-variant-numeric:normal;font-variant-position:normal;font-variation-settings:normal;inline-size:0;isolation:auto;mix-blend-mode:normal;shape-margin:0;shape-padding:0;text-decoration-color:#000000;text-decoration-line:none;text-decoration-style:solid;text-indent:0;text-orientation:mixed;text-transform:none;white-space:normal"/><path d="m244.59 24.52h-17.213c-0.67269 0-1.2249 0.52262-1.2249 1.193v10.661c0 0.6704 0.47665 1.1447 1.1494 1.1447l17.318-9.6e-5c0.67269-7e-6 1.1456-0.54711 1.1456-1.2175v-10.598c0-0.6704-0.50262-1.1832-1.1753-1.1832z" color="#000000" color-rendering="auto" dominant-baseline="auto" enable-background="accumulate" image-rendering="auto" solid-color="#000000" stop-color="#000000" style="font-feature-settings:normal;font-variant-alternates:normal;font-variant-caps:normal;font-variant-east-asian:normal;font-variant-ligatures:normal;font-variant-numeric:normal;font-variant-position:normal;font-variation-settings:normal;inline-size:0;isolation:auto;mix-blend-mode:normal;shape-margin:0;shape-padding:0;text-decoration-color:#000000;text-decoration-line:none;text-decoration-style:solid;text-indent:0;text-orientation:mixed;text-transform:none;white-space:normal"/></g><path d="m177.57-4.5898c-2.1432 0-3.8919 1.7487-3.8919 3.8919l-1.1e-4 39.367c0 2.1432 1.7487 3.8919 3.8919 3.8919h69.576c2.1432 0 3.8915-1.7487 3.8915-3.8919l1.2e-4 -39.367c0-2.1432-1.7483-3.8919-3.8915-3.8919zm0 1.4818h69.576c1.3479 0 2.4096 1.0622 2.4096 2.4101l-1.1e-4 39.367c0 1.3479-1.0618 2.4101-2.4097 2.4101h-69.576c-1.3479 0-2.4101-1.0622-2.4101-2.4101l1e-4 -39.367c1e-5 -1.3479 1.0622-2.4101 2.4101-2.4101z" color="#000000" color-rendering="auto" dominant-baseline="auto" enable-background="accumulate" image-rendering="auto" solid-color="#000000" stop-color="#000000" style="font-feature-settings:normal;font-variant-alternates:normal;font-variant-caps:normal;font-variant-east-asian:normal;font-variant-ligatures:normal;font-variant-numeric:normal;font-variant-position:normal;font-variation-settings:normal;inline-size:0;isolation:auto;mix-blend-mode:normal;paint-order:fill markers stroke;shape-margin:0;shape-padding:0;text-decoration-color:#000000;text-decoration-line:none;text-decoration-style:solid;text-indent:0;text-orientation:mixed;text-transform:none;white-space:normal"/></g><path d="m197.38 24.853c0.48042 0 0.87331 0.39291 0.87331 0.87333v10.585c0 0.48042-0.39289 0.87332-0.87331 0.87332h-17.204c-0.48042 0-0.87332-0.3929-0.87332-0.87332v-10.585c0-0.48042 0.3929-0.87333 0.87332-0.87333zm0 0.39172h-17.204c-0.2702 0-0.48161 0.21141-0.48161 0.4816v10.585c0 0.27019 0.21141 0.48161 0.48161 0.48161h17.204c0.27018 0 0.48161-0.21142 0.48161-0.48161v-10.585c0-0.27019-0.21143-0.4816-0.48161-0.4816z" color="#000000" color-rendering="auto" dominant-baseline="auto" enable-background="accumulate" fill-rule="evenodd" image-rendering="auto" solid-color="#000000" stop-color="#000000" style="font-feature-settings:normal;font-variant-alternates:normal;font-variant-caps:normal;font-variant-east-asian:normal;font-variant-ligatures:normal;font-variant-numeric:normal;font-variant-position:normal;font-variation-settings:normal;inline-size:0;isolation:auto;mix-blend-mode:normal;shape-margin:0;shape-padding:0;text-decoration-color:#000000;text-decoration-line:none;text-decoration-style:solid;text-indent:0;text-orientation:mixed;text-transform:none;white-space:normal"/></g><g fill-rule="evenodd"><path d="m192.28 27.521v0h-0.30679c-0.0282 0-0.0559 0.0015-0.0831 0.0032h-1.8216c-0.0381 0-0.0689 0.04274-0.0699 0.09636h-5e-5v0.0022c-1e-5 3.04e-4 -4e-5 9.09e-4 -4e-5 0.0015v0.76729c0 0.0027 8e-5 0.0048 2.7e-4 0.0072l3.7e-4 1.6141c0 0.01938-1e-3 0.03845-3e-3 0.05708h-7.407c-0.0278 0-0.0502 0.03167-0.0502 0.07099v2.3034c0 0.21456 0.12211 0.38729 0.2738 0.38729h0.7723c-1e-3 -0.02533-2e-3 -0.05068-1e-3 -0.07604l1.4e-4 -0.01202c0.0103-0.69969 0.58095-1.2612 1.2807-1.2606 5e-3 3e-6 0.0103 4e-5 0.0149 1.36e-4 0.70554 0.0089 1.2708 0.58717 1.2635 1.2927-1.5e-4 0.01863-8.1e-4 0.03728-2e-3 0.05587h5.6417c-1e-3 -0.02532-2e-3 -0.0507-2e-3 -0.07604l7e-5 -0.01202c0.0103-0.69969 0.58097-1.2612 1.2807-1.2606 5e-3 4e-6 0.0103 4.3e-5 0.015 6.7e-5 0.70554 0.0089 1.2708 0.58717 1.2636 1.2927-1.7e-4 0.01863-8.2e-4 0.03723-2e-3 0.05586h0.45236c0.1517 0 0.27381-0.17273 0.27381-0.38729v-2.1706c0-0.21455-0.13127-0.37586-0.28295-0.40783l-0.89439-0.31743-0.85739-1.615-8.2e-4 -7.2e-5c-0.09388-0.23798-0.39305-0.41143-0.75018-0.41143zm-1.5156 0.53613h1.3686c0.33161 0 0.4684 0.24225 0.66479 0.61227 0.0258 0.04846 0.10636 0.20557 0.17974 0.36789 0.0127 4e-3 0.0153 0.02354 0.0259 0.04233l0.34901 0.62829c0.0117 0.02093-0.0248 0.0835-0.0418 0.0835h-2.1487c-1.4e-4 0-2.8e-4 -5.5e-5 -3.7e-4 -5.5e-5h-0.39685zm-5.8962 3.6088c-0.6095 0-1.1085 0.49976-1.1085 1.1069 0 0.60682 0.499 1.1072 1.1085 1.1072 0.6095 0 1.1088-0.50043 1.1088-1.1072 0-0.60682-0.49929-1.1069-1.1088-1.1069zm8.1974 0c-0.60951 0-1.1085 0.49976-1.1085 1.1069 0 0.60682 0.499 1.1072 1.1085 1.1072 0.60952 0 1.1088-0.50043 1.1088-1.1072 0-0.60682-0.49929-1.1069-1.1088-1.1069z" stroke-linecap="round" stroke-opacity=".52227" stroke-width="3.9688"/><path d="m220.86 24.853c0.48043 0 0.87335 0.39291 0.87335 0.87333v10.585c0 0.48042-0.39292 0.87332-0.87335 0.87332h-17.204c-0.48042 0-0.87331-0.3929-0.87331-0.87332v-10.585c0-0.48042 0.39289-0.87333 0.87331-0.87333zm0 0.39172h-17.204c-0.27018 0-0.48159 0.21141-0.48159 0.4816v10.585c0 0.27019 0.21141 0.48161 0.48159 0.48161h17.204c0.27021 0 0.48161-0.21142 0.48161-0.48161v-10.585c0-0.27019-0.2114-0.4816-0.48161-0.4816z" color="#000000" color-rendering="auto" dominant-baseline="auto" enable-background="accumulate" image-rendering="auto" shape-rendering="auto" solid-color="#000000" stop-color="#000000" style="font-feature-settings:normal;font-variant-alternates:normal;font-variant-caps:normal;font-variant-east-asian:normal;font-variant-ligatures:normal;font-variant-numeric:normal;font-variant-position:normal;font-variation-settings:normal;inline-size:0;isolation:auto;mix-blend-mode:normal;shape-margin:0;shape-padding:0;text-decoration-color:#000000;text-decoration-line:none;text-decoration-style:solid;text-indent:0;text-orientation:mixed;text-transform:none;white-space:normal"/><path d="m244.57 24.853c0.48043 0 0.87333 0.39291 0.87333 0.87333v10.585c0 0.48042-0.3929 0.87332-0.87333 0.87332h-17.204c-0.48043 0-0.87333-0.3929-0.87333-0.87332v-10.585c0-0.48042 0.3929-0.87333 0.87333-0.87333zm0 0.39172h-17.204c-0.27019 0-0.4816 0.21141-0.4816 0.4816v10.585c0 0.27019 0.21141 0.48161 0.4816 0.48161h17.204c0.2702 0 0.48164-0.21142 0.48164-0.48161v-10.585c0-0.27019-0.21144-0.4816-0.48164-0.4816z" color="#000000" color-rendering="auto" dominant-baseline="auto" enable-background="accumulate" image-rendering="auto" shape-rendering="auto" solid-color="#000000" stop-color="#000000" style="font-feature-settings:normal;font-variant-alternates:normal;font-variant-caps:normal;font-variant-east-asian:normal;font-variant-ligatures:normal;font-variant-numeric:normal;font-variant-position:normal;font-variation-settings:normal;inline-size:0;isolation:auto;mix-blend-mode:normal;shape-margin:0;shape-padding:0;text-decoration-color:#000000;text-decoration-line:none;text-decoration-style:solid;text-indent:0;text-orientation:mixed;text-transform:none;white-space:normal"/><path d="m214.95 27.518v4.5542h-9.7679v-4.5542zm2.8317 1.5376 0.82017 2.0711v2.3264h-0.49552s6e-3 -0.15078-0.049-0.34333c-0.0457-0.162-0.13725-0.35197-0.27647-0.52075-0.11613-0.1408-0.29277-0.25645-0.47497-0.33762-0.18786-0.0837-0.34141-0.12464-0.52013-0.13174-0.13046-0.0053-0.26446 0.0183-0.38611 0.06572-0.24449 0.09528-0.4989 0.22112-0.6608 0.42794-0.1289 0.16466-0.21388 0.35844-0.25549 0.52242-0.0449 0.17648-0.0412 0.31737-0.0412 0.31737h-5.9979s-5e-3 -0.07081-0.0185-0.17659c-0.015-0.10627-0.0476-0.23177-0.0801-0.31084-0.0346-0.08431-0.0992-0.20395-0.16839-0.29848-0.0448-0.06109-0.0906-0.11246-0.12209-0.14566-0.0243-0.0256-0.04-0.04039-0.04-0.04039h6.3386v-3.4255zm-0.12479 0.56623h-1.8898v1.3185h2.4115zm-0.88392 2.8243c0.55378 0 1.0072 0.45429 1.0072 1.0057 0 0.5514-0.45338 1.0059-1.0072 1.0059-0.55377 0-1.0074-0.4545-1.0074-1.0059 0-0.55141 0.45358-1.0057 1.0074-1.0057zm-8.6598 0c0.55378 0 1.0072 0.45429 1.0072 1.0057 0 0.5514-0.45338 1.0059-1.0072 1.0059-0.55377 0-1.0075-0.4545-1.0075-1.0059 0-0.55141 0.45369-1.0057 1.0075-1.0057zm-0.90956 0.03502s-0.0829 0.07792-0.16216 0.18615c-0.0693 0.09451-0.13365 0.21427-0.1683 0.29858-0.0325 0.07907-0.0654 0.20414-0.0805 0.31042-0.0152 0.10578-0.0121 0.1929-0.0121 0.1929l-1.5985-0.52014v-0.46791zm9.5693 0.52314c-0.24881 0-0.4461 0.1962-0.4461 0.44757 0 0.25136 0.19729 0.44787 0.4461 0.44787s0.44591-0.19651 0.44591-0.44787c0-0.25137-0.1971-0.44757-0.44591-0.44757zm-8.6598 0c-0.24881 0-0.44611 0.1962-0.44611 0.44757 0 0.25136 0.1973 0.44787 0.44611 0.44787 0.24883 0 0.4459-0.19651 0.4459-0.44787 0-0.25137-0.19707-0.44757-0.4459-0.44757z"/><path d="m239.97 28.547v2.6018h-2.269v0.52885h-9.126v-3.1307zm1.8663 1.0208 0.52651 1.2785v1.831h-0.30797s5e-3 -0.10491-0.0343-0.2389c-0.0319-0.11274-0.0955-0.24488-0.19241-0.36234-0.0808-0.09798-0.20376-0.17846-0.33059-0.23495-0.1307-0.05824-0.23753-0.08674-0.36192-0.09167-0.0908-4e-3 -0.18442 0.01184-0.26872 0.04573-0.16413 0.06596-0.32654 0.15381-0.43922 0.29774-0.0897 0.11459-0.14884 0.2494-0.17779 0.36352-0.0311 0.12282-0.0287 0.22088-0.0287 0.22088h-0.13676s-9e-3 -0.12362-0.0476-0.25031c-0.0323-0.1084-0.0848-0.2118-0.17485-0.32279-0.0959-0.11828-0.2414-0.20858-0.38567-0.2647-0.11014-0.04283-0.20138-0.07018-0.3055-0.06608-0.18002 0.0071-0.34594 0.05095-0.51767 0.15542-0.0934 0.05688-0.16111 0.14162-0.22141 0.21416-0.20224 0.24332-0.18942 0.53429-0.18942 0.53429h-0.344v-1.3417h2.2559v-1.7678zm-0.13163 0.3762h-1.3266v0.84439h1.6768zm-4.0036 1.9178v0.8155h-3.0455s0-0.07662-0.0222-0.17259c-0.0254-0.10669-0.0768-0.23725-0.12364-0.31288-0.0426-0.0688-0.11789-0.16358-0.19561-0.22919-0.0767-0.06477-0.15618-0.10084-0.15618-0.10084zm-4.3801 0s-0.0923 0.04671-0.178 0.1179c-0.0722 0.06003-0.13591 0.13968-0.17483 0.20084-0.0486 0.07628-0.1035 0.20836-0.13006 0.31714-0.0243 0.09959-0.0227 0.17963-0.0227 0.17963h-0.13168s6e-3 -0.0765-0.0174-0.17174c-0.0243-0.10391-0.0781-0.23009-0.12342-0.30339-0.0405-0.0655-0.11014-0.15883-0.18571-0.22354-0.0875-0.07499-0.17897-0.11683-0.17897-0.11683zm-1.9663 0s-0.1059 0.05144-0.20328 0.13612c-0.0729 0.06342-0.13611 0.15226-0.17464 0.21502-0.0444 0.07241-0.0906 0.1919-0.11323 0.29411-0.0203 0.09148-0.0194 0.17025-0.0194 0.17025h-1.153l-1.116-0.18411v-0.6314zm9.7797 0.01309c0.44525 0 0.80984 0.36532 0.80984 0.80869s-0.36459 0.80889-0.80984 0.80889c-0.44529 0-0.81009-0.36553-0.81009-0.80889s0.3648-0.80869 0.81009-0.80869zm-1.9804 0c0.44528 0 0.80976 0.36532 0.80976 0.80869s-0.36448 0.80889-0.80976 0.80889c-0.44526 0-0.81005-0.36553-0.81005-0.80889s0.36479-0.80869 0.81005-0.80869zm-5.4107 0c0.44529 0 0.80976 0.36532 0.80976 0.80869s-0.36447 0.80889-0.80976 0.80889c-0.44525 0-0.81005-0.36553-0.81005-0.80889s0.3648-0.80869 0.81005-0.80869zm-1.9804 0c0.44529 0 0.80985 0.36532 0.80985 0.80869s-0.36456 0.80889-0.80985 0.80889c-0.44525 0-0.80997-0.36553-0.80997-0.80889s0.36472-0.80869 0.80997-0.80869zm9.3715 0.4488c-0.20006 0-0.35874 0.15777-0.35874 0.35989 0 0.20212 0.15868 0.3601 0.35874 0.3601 0.20005 0 0.35849-0.15798 0.35849-0.3601 0-0.20212-0.15844-0.35989-0.35849-0.35989zm-1.9804 0c-0.20005 0-0.3587 0.15777-0.3587 0.35989 0 0.20212 0.15865 0.3601 0.3587 0.3601 0.20008 0 0.35849-0.15798 0.35849-0.3601 0-0.20212-0.15841-0.35989-0.35849-0.35989zm-5.4107 0c-0.20005 0-0.3587 0.15777-0.3587 0.35989 0 0.20212 0.15865 0.3601 0.3587 0.3601 0.20009 0 0.35853-0.15798 0.35853-0.3601 0-0.20212-0.15844-0.35989-0.35853-0.35989zm-1.9804 0c-0.20005 0-0.35862 0.15777-0.35862 0.35989 0 0.20212 0.15857 0.3601 0.35862 0.3601 0.20004 0 0.3585-0.15798 0.3585-0.3601 0-0.20212-0.15846-0.35989-0.3585-0.35989z"/></g><g><path d="m234.34 10.511a10.343 10.343 0 0 1-10.343 10.343 10.343 10.343 0 0 1-10.343-10.343 10.343 10.343 0 0 1 10.343-10.343 10.343 10.343 0 0 1 10.343 10.343" fill="#fff"/><path d="m223.99 0.46264c-5.5477 0.002862-10.043 4.5011-10.043 10.049 1e-5 5.5497 4.499 10.049 10.049 10.049 5.5498 1.6e-5 10.049-4.4989 10.049-10.049 0-5.5498-4.499-10.049-10.049-10.049h-6e-3z" fill="#00408c"/><path d="m210.78 10.807a10.217 10.217 0 0 1-10.217 10.217 10.217 10.217 0 0 1-10.217-10.217 10.217 10.217 0 0 1 10.217-10.217 10.217 10.217 0 0 1 10.217 10.217" fill="#fff"/><path d="m200.55 0.88118c-2.6316 0.001259-5.1549 1.0478-7.0152 2.9091-1.8603 1.8613-2.9053 4.3852-2.9053 7.0168 0 2.6325 1.0458 5.1571 2.9072 7.0186 1.8614 1.8614 4.3861 2.9072 7.0186 2.9072 2.6325 5e-6 5.1572-1.0457 7.0186-2.9072 1.8615-1.8614 2.9072-4.3861 2.9072-7.0186 0-2.6325-1.0457-5.1572-2.9072-7.0187-1.8615-1.8615-4.3862-2.9072-7.0186-2.9072zm6e-3 2.4145c1.9933 0 3.9049 0.79183 5.3144 2.2013 1.4095 1.4095 2.2013 3.3211 2.2013 5.3144 0 1.9933-0.79183 3.9049-2.2013 5.3144-1.4095 1.4095-3.3211 2.2013-5.3144 2.2013-1.9933 0-3.9049-0.79183-5.3144-2.2013-1.4095-1.4095-2.2013-3.3211-2.2013-5.3144 0-1.9933 0.79182-3.9049 2.2013-5.3144 1.4095-1.4095 3.3211-2.2013 5.3144-2.2013z" fill="#d40000"/></g><path d="m217.94 6.3375 1.6488-1.6544 6.597 6.6101 1.6169-2.5658c0.10224-0.14295 0.27901-0.086405 0.3051 0.054188l1.4935 7.5871-7.5702-1.4952c-0.15344-0.03466-0.19767-0.20701-0.0561-0.30696l2.5621-1.6189z" fill="#fff" fill-rule="evenodd" style="paint-order:fill markers stroke"/><path d="m195.83 6.769-0.18452 4.4278 1.1274 0.13216c0.17088-0.61006 0.62628-0.85923 1.0746-0.85143 0.35181 0 0.64901 0.22272 0.87665 0.49729 0.23453 0.27456 0.19758 0.6156 0.18978 1.015 0 0.46591-0.0913 0.87213-0.2703 1.264-0.0722 0.15793-0.18858 0.3009-0.31373 0.41574-0.28336 0.26012-0.64114 0.41034-0.99514 0.39867-0.3932 0-0.71392-0.22228-1.0381-0.42196l-0.84059 0.8633c0.40381 0.35123 1.0712 0.77085 1.6851 0.77085 0.87605 0 1.6755-0.28269 2.2343-0.95659 0.56562-0.6739 0.76251-1.5008 0.76642-2.3131 2e-3 -0.44182-0.0493-0.90675-0.22063-1.3247-0.0993-0.2422-0.26661-0.46103-0.41396-0.67025-0.15665-0.22235-0.41352-0.37431-0.64882-0.49421-0.29006-0.14783-0.60785-0.24832-0.96967-0.25804-0.16602 0-0.39892 0.022623-0.59005 0.066403-0.21394 0.049047-0.37744 0.11991-0.37744 0.11991l0.0576-1.4748h2.82v-1.2059zm7.6581 0.02173c-0.0972 3.641e-4 -0.18891 0.00595-0.27274 0.016074-0.42202 0.050822-0.77834 0.21948-1.0714 0.50704-0.60265 0.59129-0.92947 1.6832-0.97904 3.2712-9e-3 0.28619-8e-3 0.61596 1e-3 0.8959 0.036 1.0282 0.19305 1.8637 0.46949 2.4962 0.0862 0.19717 0.16323 0.33192 0.2746 0.48028 0.2571 0.34249 0.63961 0.62782 1.0564 0.78798 0.22398 0.08606 0.43353 0.13154 0.64396 0.13974 0.0397 0.0016 0.12033 0 0.17443-0.0029 0.37601-0.02218 0.73056-0.13116 1.0446-0.3211 0.0735-0.04445 0.14981-0.09725 0.21648-0.14975 0.21008-0.16547 0.38621-0.36623 0.52479-0.5982 0.089-0.14887 0.15938-0.30527 0.22431-0.49792 0.16986-0.50412 0.26807-1.1844 0.29517-2.0453 6e-3 -0.17995 7e-3 -0.28803 7e-3 -0.51685 0-0.22617-1e-3 -0.34885-7e-3 -0.55413-0.0324-1.209-0.1626-2.0153-0.41753-2.5851-0.13452-0.30066-0.30783-0.55251-0.5157-0.74942-0.34721-0.32892-0.7977-0.51443-1.363-0.56132-0.10625-0.00882-0.20899-0.01288-0.30623-0.012239zm0.19029 1.3565c0.0538-2.782e-4 0.10647 0.0016 0.15193 0.00572 0.21167 0.019028 0.36706 0.083348 0.48425 0.2005 0.072 0.071979 0.12724 0.1593 0.18317 0.28954 0.18078 0.42106 0.28575 1.0109 0.32451 1.8238 0.013 0.27268 0.0183 0.52531 0.0183 0.88479 0 0.25358-1e-3 0.33073-7e-3 0.49594-0.0206 0.55758-0.0843 0.97-0.19575 1.2678-0.0151 0.04046-0.0302 0.07575-0.0895 0.20966-0.10235 0.23111-0.16882 0.35637-0.23814 0.44891-0.13761 0.18367-0.30311 0.26341-0.5737 0.27639-0.0242 0.0013-0.11311 0.0016-0.13654 3.65e-4 -0.10464-0.0045-0.17949-0.0139-0.25244-0.03186-0.18664-0.04601-0.30805-0.14271-0.40124-0.31951-0.038-0.07206-0.0703-0.15042-0.11479-0.27838-0.0181-0.05212-0.0948-0.28313-0.10762-0.32405-0.12253-0.39186-0.1959-0.85316-0.22622-1.4226-0.0193-0.3637-0.0213-0.79716-6e-3 -1.1736 0.0319-0.74855 0.13213-1.3378 0.29634-1.7428 0.0578-0.14271 0.13121-0.27358 0.19767-0.3528 0.12646-0.15072 0.29389-0.22953 0.53321-0.25092 0.0503-0.00458 0.10533-0.00687 0.15911-0.0071z" stroke-width=".010527"/></g></svg>