<?xml version="1.0" encoding="UTF-8" standalone="no"?>
<svg
   xmlns:dc="http://purl.org/dc/elements/1.1/"
   xmlns:cc="http://creativecommons.org/ns#"
   xmlns:rdf="http://www.w3.org/1999/02/22-rdf-syntax-ns#"
   xmlns:svg="http://www.w3.org/2000/svg"
   xmlns="http://www.w3.org/2000/svg"
   xmlns:sodipodi="http://sodipodi.sourceforge.net/DTD/sodipodi-0.dtd"
   xmlns:inkscape="http://www.inkscape.org/namespaces/inkscape"
   sodipodi:docname="Turkey_road_sign_B-63d.svg"
   inkscape:version="1.0 (4035a4fb49, 2020-05-01)"
   id="svg2859"
   version="1.1"
   viewBox="0 0 79.375 49.094356"
   height="49.094357mm"
   width="79.375mm">
  <defs
     id="defs2853" />
  <sodipodi:namedview
     inkscape:window-maximized="1"
     inkscape:window-y="-9"
     inkscape:window-x="-9"
     inkscape:window-height="1001"
     inkscape:window-width="1920"
     showgrid="false"
     inkscape:document-rotation="0"
     inkscape:current-layer="layer1"
     inkscape:document-units="mm"
     inkscape:cy="151.79616"
     inkscape:cx="7.1731175"
     inkscape:zoom="0.76311221"
     inkscape:pageshadow="2"
     inkscape:pageopacity="0.0"
     borderopacity="1.0"
     bordercolor="#666666"
     pagecolor="#ffffff"
     id="base" />
  <metadata
     id="metadata2856">
    <rdf:RDF>
      <cc:Work
         rdf:about="">
        <dc:format>image/svg+xml</dc:format>
        <dc:type
           rdf:resource="http://purl.org/dc/dcmitype/StillImage" />
        <dc:title></dc:title>
      </cc:Work>
    </rdf:RDF>
  </metadata>
  <g
     transform="translate(-172.67513,5.5771703)"
     id="layer1"
     inkscape:groupmode="layer"
     inkscape:label="Layer 1">
    <path
       sodipodi:nodetypes="ccccc"
       d="m 172.67524,-5.5771703 h 79.37489 L 252.05,43.517188 h -79.37487 z"
       style="opacity:1;fill:#00408c;fill-opacity:1;stroke-width:1.665;stroke-linecap:square;paint-order:fill markers stroke"
       id="path11105" />
    <path
       id="path11109"
       d="m 197.40268,24.519509 h -17.21324 c -0.67271,0 -1.22496,0.522623 -1.22496,1.193024 v 10.66127 c 0,0.670401 0.47665,1.144716 1.14936,1.144713 l 17.31861,-9.6e-5 c 0.67271,-7e-6 1.14556,-0.547114 1.14556,-1.217514 V 25.70274 c 0,-0.670398 -0.50262,-1.183231 -1.17533,-1.183231 z"
       style="color:#000000;font-style:normal;font-variant:normal;font-weight:normal;font-stretch:normal;font-size:medium;line-height:normal;font-family:sans-serif;font-variant-ligatures:normal;font-variant-position:normal;font-variant-caps:normal;font-variant-numeric:normal;font-variant-alternates:normal;font-variant-east-asian:normal;font-feature-settings:normal;font-variation-settings:normal;text-indent:0;text-align:start;text-decoration:none;text-decoration-line:none;text-decoration-style:solid;text-decoration-color:#000000;letter-spacing:normal;word-spacing:normal;text-transform:none;writing-mode:lr-tb;direction:ltr;text-orientation:mixed;dominant-baseline:auto;baseline-shift:baseline;text-anchor:start;white-space:normal;shape-padding:0;shape-margin:0;inline-size:0;clip-rule:nonzero;display:inline;overflow:visible;visibility:visible;opacity:1;isolation:auto;mix-blend-mode:normal;color-interpolation:sRGB;color-interpolation-filters:linearRGB;solid-color:#000000;solid-opacity:1;vector-effect:none;fill:#ffffff;fill-opacity:1;fill-rule:evenodd;stroke:none;stroke-width:0.199999;stroke-linecap:round;stroke-linejoin:round;stroke-miterlimit:10;stroke-dasharray:none;stroke-dashoffset:0;stroke-opacity:1;color-rendering:auto;image-rendering:auto;shape-rendering:auto;text-rendering:auto;enable-background:accumulate;stop-color:#000000;stop-opacity:1" />
    <path
       style="color:#000000;font-style:normal;font-variant:normal;font-weight:normal;font-stretch:normal;font-size:medium;line-height:normal;font-family:sans-serif;font-variant-ligatures:normal;font-variant-position:normal;font-variant-caps:normal;font-variant-numeric:normal;font-variant-alternates:normal;font-variant-east-asian:normal;font-feature-settings:normal;font-variation-settings:normal;text-indent:0;text-align:start;text-decoration:none;text-decoration-line:none;text-decoration-style:solid;text-decoration-color:#000000;letter-spacing:normal;word-spacing:normal;text-transform:none;writing-mode:lr-tb;direction:ltr;text-orientation:mixed;dominant-baseline:auto;baseline-shift:baseline;text-anchor:start;white-space:normal;shape-padding:0;shape-margin:0;inline-size:0;clip-rule:nonzero;display:inline;overflow:visible;visibility:visible;opacity:1;isolation:auto;mix-blend-mode:normal;color-interpolation:sRGB;color-interpolation-filters:linearRGB;solid-color:#000000;solid-opacity:1;vector-effect:none;fill:#ffffff;fill-opacity:1;fill-rule:evenodd;stroke:none;stroke-width:0.199999;stroke-linecap:round;stroke-linejoin:round;stroke-miterlimit:10;stroke-dasharray:none;stroke-dashoffset:0;stroke-opacity:1;color-rendering:auto;image-rendering:auto;shape-rendering:auto;text-rendering:auto;enable-background:accumulate;stop-color:#000000;stop-opacity:1"
       d="m 220.88759,24.519509 h -17.2132 c -0.67273,0 -1.22498,0.522623 -1.22498,1.193024 v 10.66127 c 0,0.670401 0.47668,1.144716 1.14938,1.144713 l 17.31856,-9.6e-5 c 0.67269,-7e-6 1.14556,-0.547114 1.14556,-1.217514 V 25.70274 c 0,-0.670398 -0.50262,-1.183231 -1.17532,-1.183231 z"
       id="path11111" />
    <path
       id="path11113"
       d="m 244.59216,24.519509 h -17.21313 c -0.67269,0 -1.22493,0.522623 -1.22493,1.193024 v 10.66127 c 0,0.670401 0.47665,1.144716 1.14936,1.144713 l 17.31847,-9.6e-5 c 0.67269,-7e-6 1.14556,-0.547114 1.14556,-1.217514 V 25.70274 c 0,-0.670398 -0.50262,-1.183231 -1.17533,-1.183231 z"
       style="color:#000000;font-style:normal;font-variant:normal;font-weight:normal;font-stretch:normal;font-size:medium;line-height:normal;font-family:sans-serif;font-variant-ligatures:normal;font-variant-position:normal;font-variant-caps:normal;font-variant-numeric:normal;font-variant-alternates:normal;font-variant-east-asian:normal;font-feature-settings:normal;font-variation-settings:normal;text-indent:0;text-align:start;text-decoration:none;text-decoration-line:none;text-decoration-style:solid;text-decoration-color:#000000;letter-spacing:normal;word-spacing:normal;text-transform:none;writing-mode:lr-tb;direction:ltr;text-orientation:mixed;dominant-baseline:auto;baseline-shift:baseline;text-anchor:start;white-space:normal;shape-padding:0;shape-margin:0;inline-size:0;clip-rule:nonzero;display:inline;overflow:visible;visibility:visible;opacity:1;isolation:auto;mix-blend-mode:normal;color-interpolation:sRGB;color-interpolation-filters:linearRGB;solid-color:#000000;solid-opacity:1;vector-effect:none;fill:#ffffff;fill-opacity:1;fill-rule:evenodd;stroke:none;stroke-width:0.199999;stroke-linecap:round;stroke-linejoin:round;stroke-miterlimit:10;stroke-dasharray:none;stroke-dashoffset:0;stroke-opacity:1;color-rendering:auto;image-rendering:auto;shape-rendering:auto;text-rendering:auto;enable-background:accumulate;stop-color:#000000;stop-opacity:1" />
    <path
       id="path11107"
       d="m 177.56999,-4.5898061 c -2.14317,0 -3.8919,1.7487402 -3.89191,3.89191615 l -1.1e-4,39.36671795 c 0,2.14318 1.74874,3.891913 3.89191,3.891913 h 69.57636 c 2.14316,0 3.89149,-1.748733 3.89149,-3.891913 l 1.2e-4,-39.36671795 c 0,-2.14317595 -1.74832,-3.89191615 -3.89148,-3.89191615 z m 0,1.4818484 h 69.57638 c 1.34786,0 2.40964,1.0621862 2.40964,2.41006775 L 249.5559,38.668828 c 0,1.347862 -1.06179,2.410066 -2.40966,2.410066 h -69.57636 c -1.34787,0 -2.41008,-1.062204 -2.41007,-2.410066 l 1e-4,-39.36671795 c 1e-5,-1.34788155 1.06222,-2.41006775 2.41008,-2.41006775 z"
       style="color:#000000;font-style:normal;font-variant:normal;font-weight:normal;font-stretch:normal;font-size:medium;line-height:normal;font-family:sans-serif;font-variant-ligatures:normal;font-variant-position:normal;font-variant-caps:normal;font-variant-numeric:normal;font-variant-alternates:normal;font-variant-east-asian:normal;font-feature-settings:normal;font-variation-settings:normal;text-indent:0;text-align:start;text-decoration:none;text-decoration-line:none;text-decoration-style:solid;text-decoration-color:#000000;letter-spacing:normal;word-spacing:normal;text-transform:none;writing-mode:lr-tb;direction:ltr;text-orientation:mixed;dominant-baseline:auto;baseline-shift:baseline;text-anchor:start;white-space:normal;shape-padding:0;shape-margin:0;inline-size:0;clip-rule:nonzero;display:inline;overflow:visible;visibility:visible;opacity:1;isolation:auto;mix-blend-mode:normal;color-interpolation:sRGB;color-interpolation-filters:linearRGB;solid-color:#000000;solid-opacity:1;vector-effect:none;fill:#ffffff;fill-opacity:1;fill-rule:nonzero;stroke:none;stroke-width:1.92961;stroke-linecap:square;stroke-linejoin:miter;stroke-miterlimit:4;stroke-dasharray:none;stroke-dashoffset:0;stroke-opacity:1;paint-order:fill markers stroke;color-rendering:auto;image-rendering:auto;shape-rendering:auto;text-rendering:auto;enable-background:accumulate;stop-color:#000000;stop-opacity:1"
       sodipodi:nodetypes="ssssssssssssssssss" />
    <path
       style="color:#000000;font-style:normal;font-variant:normal;font-weight:normal;font-stretch:normal;font-size:medium;line-height:normal;font-family:sans-serif;font-variant-ligatures:normal;font-variant-position:normal;font-variant-caps:normal;font-variant-numeric:normal;font-variant-alternates:normal;font-variant-east-asian:normal;font-feature-settings:normal;font-variation-settings:normal;text-indent:0;text-align:start;text-decoration:none;text-decoration-line:none;text-decoration-style:solid;text-decoration-color:#000000;letter-spacing:normal;word-spacing:normal;text-transform:none;writing-mode:lr-tb;direction:ltr;text-orientation:mixed;dominant-baseline:auto;baseline-shift:baseline;text-anchor:start;white-space:normal;shape-padding:0;shape-margin:0;inline-size:0;clip-rule:nonzero;display:inline;overflow:visible;visibility:visible;opacity:1;isolation:auto;mix-blend-mode:normal;color-interpolation:sRGB;color-interpolation-filters:linearRGB;solid-color:#000000;solid-opacity:1;vector-effect:none;fill:#000000;fill-opacity:1;fill-rule:evenodd;stroke:none;stroke-width:2.00001;stroke-linecap:round;stroke-linejoin:round;stroke-miterlimit:10;stroke-dasharray:none;stroke-dashoffset:0;stroke-opacity:1;color-rendering:auto;image-rendering:auto;shape-rendering:auto;text-rendering:auto;enable-background:accumulate;stop-color:#000000;stop-opacity:1"
       d="m 197.37678,24.852621 c 0.48042,0 0.87331,0.392906 0.87331,0.873326 v 10.585407 c 0,0.480422 -0.39289,0.873325 -0.87331,0.873325 h -17.20365 c -0.48042,0 -0.87332,-0.392903 -0.87332,-0.873325 V 25.725947 c 0,-0.48042 0.3929,-0.873326 0.87332,-0.873326 z m 0,0.391722 h -17.20365 c -0.2702,0 -0.48161,0.211412 -0.48161,0.481604 v 10.585407 c 0,0.27019 0.21141,0.48161 0.48161,0.48161 h 17.20365 c 0.27018,0 0.48161,-0.21142 0.48161,-0.48161 V 25.725947 c 0,-0.270192 -0.21143,-0.481604 -0.48161,-0.481604 z"
       id="path11115"
       sodipodi:nodetypes="ssssssssssssssssss" />
    <path
       sodipodi:nodetypes="ccscscccsscccssccsscccsccccccscccssscccccccccsscccsssccssssssssss"
       d="m 192.27514,27.520835 v 0 h -0.30679 c -0.0282,0 -0.0559,0.0015 -0.0831,0.0032 h -1.82161 c -0.0381,0 -0.0689,0.04274 -0.0699,0.09636 h -5e-5 v 0.0022 c -10e-6,3.04e-4 -4e-5,9.09e-4 -4e-5,0.0015 v 0.767292 c 0,0.0027 8e-5,0.0048 2.7e-4,0.0072 l 3.7e-4,1.614128 c 0,0.01938 -0.001,0.03845 -0.003,0.05708 h -7.40695 c -0.0278,0 -0.0502,0.03167 -0.0502,0.07099 v 0.264691 0.107184 1.931556 c 0,0.214558 0.12211,0.387287 0.2738,0.387287 h 0.7723 c -0.001,-0.02533 -0.002,-0.05068 -0.001,-0.07604 l 1.4e-4,-0.01202 c 0.0103,-0.699687 0.58095,-1.261231 1.2807,-1.260613 0.005,3e-6 0.0103,4e-5 0.0149,1.36e-4 0.70554,0.0089 1.27077,0.587168 1.26354,1.292734 -1.5e-4,0.01863 -8.1e-4,0.03728 -0.002,0.05587 h 5.64168 c -0.001,-0.02532 -0.002,-0.0507 -0.002,-0.07604 l 7e-5,-0.01202 c 0.0103,-0.699687 0.58097,-1.261233 1.28074,-1.260607 0.005,4e-6 0.0103,4.3e-5 0.015,6.7e-5 0.70554,0.0089 1.27077,0.587174 1.26355,1.292741 -1.7e-4,0.01863 -8.2e-4,0.03723 -0.002,0.05586 h 0.45236 c 0.1517,0 0.27381,-0.172727 0.27381,-0.38729 v -2.170588 c 0,-0.214551 -0.13127,-0.375861 -0.28295,-0.407829 l -0.89439,-0.317434 -0.85739,-1.614979 -8.2e-4,-7.2e-5 C 192.9303,27.695404 192.63113,27.52195 192.274,27.52195 Z m -1.51564,0.536126 h 0.96549 0.0676 0.33552 c 0.33161,0 0.4684,0.24225 0.66479,0.612274 0.0258,0.04846 0.10636,0.205569 0.17974,0.367891 0.0127,0.004 0.0153,0.02354 0.0259,0.04233 l 0.34901,0.628288 c 0.0117,0.02093 -0.0248,0.0835 -0.0418,0.0835 h -2.1487 c -1.4e-4,0 -2.8e-4,-5.5e-5 -3.7e-4,-5.5e-5 h -0.39685 z m -5.89619,3.60883 c -0.6095,0 -1.10846,0.499755 -1.10846,1.106894 0,0.606818 0.499,1.107179 1.10846,1.107179 0.6095,0 1.10879,-0.500431 1.10879,-1.107179 0,-0.606815 -0.49929,-1.106894 -1.10879,-1.106894 z m 8.19743,0 c -0.60951,0 -1.10848,0.499755 -1.10848,1.106894 0,0.606818 0.499,1.107179 1.10848,1.107179 0.60952,0 1.10882,-0.500431 1.10882,-1.107179 0,-0.606815 -0.49929,-1.106894 -1.10882,-1.106894 z"
       style="opacity:1;fill:#000000;fill-opacity:1;fill-rule:evenodd;stroke-width:3.96878;stroke-linecap:round;stroke-opacity:0.522267"
       id="path11117" />
    <path
       sodipodi:nodetypes="ssssssssssssssssss"
       id="path11119"
       d="m 220.86172,24.852621 c 0.48043,0 0.87335,0.392906 0.87335,0.873326 v 10.585407 c 0,0.480422 -0.39292,0.873325 -0.87335,0.873325 h -17.20364 c -0.48042,0 -0.87331,-0.392903 -0.87331,-0.873325 V 25.725947 c 0,-0.48042 0.39289,-0.873326 0.87331,-0.873326 z m 0,0.391722 h -17.20364 c -0.27018,0 -0.48159,0.211412 -0.48159,0.481604 v 10.585407 c 0,0.27019 0.21141,0.48161 0.48159,0.48161 h 17.20364 c 0.27021,0 0.48161,-0.21142 0.48161,-0.48161 V 25.725947 c 0,-0.270192 -0.2114,-0.481604 -0.48161,-0.481604 z"
       style="color:#000000;font-style:normal;font-variant:normal;font-weight:normal;font-stretch:normal;font-size:medium;line-height:normal;font-family:sans-serif;font-variant-ligatures:normal;font-variant-position:normal;font-variant-caps:normal;font-variant-numeric:normal;font-variant-alternates:normal;font-variant-east-asian:normal;font-feature-settings:normal;font-variation-settings:normal;text-indent:0;text-align:start;text-decoration:none;text-decoration-line:none;text-decoration-style:solid;text-decoration-color:#000000;letter-spacing:normal;word-spacing:normal;text-transform:none;writing-mode:lr-tb;direction:ltr;text-orientation:mixed;dominant-baseline:auto;baseline-shift:baseline;text-anchor:start;white-space:normal;shape-padding:0;shape-margin:0;inline-size:0;clip-rule:nonzero;display:inline;overflow:visible;visibility:visible;opacity:1;isolation:auto;mix-blend-mode:normal;color-interpolation:sRGB;color-interpolation-filters:linearRGB;solid-color:#000000;solid-opacity:1;vector-effect:none;fill:#000000;fill-opacity:1;fill-rule:evenodd;stroke:none;stroke-width:2.00001;stroke-linecap:round;stroke-linejoin:round;stroke-miterlimit:10;stroke-dasharray:none;stroke-dashoffset:0;stroke-opacity:1;color-rendering:auto;image-rendering:auto;shape-rendering:auto;text-rendering:auto;enable-background:accumulate;stop-color:#000000;stop-opacity:1" />
    <path
       style="color:#000000;font-style:normal;font-variant:normal;font-weight:normal;font-stretch:normal;font-size:medium;line-height:normal;font-family:sans-serif;font-variant-ligatures:normal;font-variant-position:normal;font-variant-caps:normal;font-variant-numeric:normal;font-variant-alternates:normal;font-variant-east-asian:normal;font-feature-settings:normal;font-variation-settings:normal;text-indent:0;text-align:start;text-decoration:none;text-decoration-line:none;text-decoration-style:solid;text-decoration-color:#000000;letter-spacing:normal;word-spacing:normal;text-transform:none;writing-mode:lr-tb;direction:ltr;text-orientation:mixed;dominant-baseline:auto;baseline-shift:baseline;text-anchor:start;white-space:normal;shape-padding:0;shape-margin:0;inline-size:0;clip-rule:nonzero;display:inline;overflow:visible;visibility:visible;opacity:1;isolation:auto;mix-blend-mode:normal;color-interpolation:sRGB;color-interpolation-filters:linearRGB;solid-color:#000000;solid-opacity:1;vector-effect:none;fill:#000000;fill-opacity:1;fill-rule:evenodd;stroke:none;stroke-width:2.00001;stroke-linecap:round;stroke-linejoin:round;stroke-miterlimit:10;stroke-dasharray:none;stroke-dashoffset:0;stroke-opacity:1;color-rendering:auto;image-rendering:auto;shape-rendering:auto;text-rendering:auto;enable-background:accumulate;stop-color:#000000;stop-opacity:1"
       d="m 244.56651,24.852621 c 0.48043,0 0.87333,0.392906 0.87333,0.873326 v 10.585407 c 0,0.480422 -0.3929,0.873325 -0.87333,0.873325 h -17.20363 c -0.48043,0 -0.87333,-0.392903 -0.87333,-0.873325 V 25.725947 c 0,-0.48042 0.3929,-0.873326 0.87333,-0.873326 z m 0,0.391722 h -17.20363 c -0.27019,0 -0.4816,0.211412 -0.4816,0.481604 v 10.585407 c 0,0.27019 0.21141,0.48161 0.4816,0.48161 h 17.20363 c 0.2702,0 0.48164,-0.21142 0.48164,-0.48161 V 25.725947 c 0,-0.270192 -0.21144,-0.481604 -0.48164,-0.481604 z"
       id="path11121"
       sodipodi:nodetypes="ssssssssssssssssss" />
    <path
       id="path11123"
       style="opacity:1;fill:#000000;fill-opacity:1;fill-rule:evenodd;stroke:none;stroke-width:0.702732;stroke-linecap:round;stroke-linejoin:round;stroke-miterlimit:10;stroke-dasharray:none;stroke-opacity:0.87451"
       d="m 214.94891,27.518339 v 4.554232 h -9.76792 v -4.554232 z m 2.83166,1.537562 0.82017,2.07108 v 2.326377 h -0.49552 c 0,0 0.006,-0.150781 -0.049,-0.343331 -0.0457,-0.161998 -0.13725,-0.351973 -0.27647,-0.520753 -0.11613,-0.140796 -0.29277,-0.256447 -0.47497,-0.337617 -0.18786,-0.0837 -0.34141,-0.124642 -0.52013,-0.131743 -0.13046,-0.0053 -0.26446,0.0183 -0.38611,0.06572 -0.24449,0.09528 -0.4989,0.221119 -0.6608,0.427936 -0.1289,0.16466 -0.21388,0.358443 -0.25549,0.52242 -0.0449,0.176485 -0.0412,0.31737 -0.0412,0.31737 h -5.99793 c 0,0 -0.005,-0.07081 -0.0185,-0.176589 -0.015,-0.106269 -0.0476,-0.231769 -0.0801,-0.31084 -0.0346,-0.08431 -0.0992,-0.203952 -0.16839,-0.298478 -0.0448,-0.06109 -0.0906,-0.112462 -0.12209,-0.14566 -0.0243,-0.0256 -0.04,-0.04039 -0.04,-0.04039 h 6.33856 v -3.425507 z m -0.12479,0.566228 h -1.88982 v 1.3185 h 2.4115 z m -0.88392,2.824289 c 0.55378,0 1.00716,0.454293 1.00716,1.005701 0,0.551402 -0.45338,1.005901 -1.00716,1.005898 -0.55377,0 -1.00735,-0.454496 -1.00735,-1.005898 0,-0.551408 0.45358,-1.005701 1.00735,-1.005701 z m -8.65975,0 c 0.55378,0 1.00716,0.454293 1.00716,1.005701 0,0.551402 -0.45338,1.005901 -1.00716,1.005898 -0.55377,0 -1.00746,-0.454496 -1.00746,-1.005898 0,-0.551408 0.45369,-1.005701 1.00746,-1.005701 z m -0.90956,0.03502 c 0,0 -0.0829,0.07792 -0.16216,0.186149 -0.0693,0.09451 -0.13365,0.214267 -0.1683,0.298584 -0.0325,0.07907 -0.0654,0.204145 -0.0805,0.310418 -0.0152,0.105777 -0.0121,0.192899 -0.0121,0.192899 L 205.181,32.949353 V 32.48144 Z m 9.56931,0.523145 c -0.24881,0 -0.4461,0.196195 -0.4461,0.447566 0,0.251359 0.19729,0.447873 0.4461,0.447873 0.24881,0 0.44591,-0.196514 0.44591,-0.447873 0,-0.251371 -0.1971,-0.447566 -0.44591,-0.447566 z m -8.65975,0 c -0.24881,0 -0.44611,0.196195 -0.44611,0.447566 0,0.251359 0.1973,0.447873 0.44611,0.447873 0.24883,0 0.4459,-0.196514 0.4459,-0.447873 0,-0.251371 -0.19707,-0.447566 -0.4459,-0.447566 z" />
    <path
       id="path11125"
       style="opacity:1;fill:#000000;fill-opacity:1;fill-rule:evenodd;stroke:none;stroke-width:0.702731;stroke-linecap:round;stroke-linejoin:round;stroke-miterlimit:10;stroke-dasharray:none;stroke-opacity:1"
       d="m 239.96752,28.547464 v 2.601837 h -2.26902 v 0.528849 h -9.126 v -3.130686 z m 1.86626,1.020824 0.52651,1.278478 v 1.830996 h -0.30797 c 0,0 0.005,-0.104906 -0.0343,-0.238899 -0.0319,-0.112737 -0.0955,-0.244885 -0.19241,-0.362341 -0.0808,-0.09798 -0.20376,-0.178456 -0.33059,-0.234947 -0.1307,-0.05824 -0.23753,-0.08674 -0.36192,-0.09167 -0.0908,-0.004 -0.18442,0.01184 -0.26872,0.04573 -0.16413,0.06596 -0.32654,0.153813 -0.43922,0.297735 -0.0897,0.114589 -0.14884,0.249396 -0.17779,0.363515 -0.0311,0.122815 -0.0287,0.220881 -0.0287,0.220881 h -0.13676 c 0,0 -0.009,-0.123624 -0.0476,-0.250307 -0.0323,-0.108398 -0.0848,-0.211797 -0.17485,-0.322786 -0.0959,-0.118284 -0.2414,-0.208575 -0.38567,-0.2647 -0.11014,-0.04283 -0.20138,-0.07018 -0.3055,-0.06608 -0.18002,0.0071 -0.34594,0.05095 -0.51767,0.155424 -0.0934,0.05688 -0.16111,0.141617 -0.22141,0.214163 -0.20224,0.243322 -0.18942,0.534293 -0.18942,0.534293 h -0.344 v -0.671491 -0.153077 -0.51713 h 2.25589 v -1.767777 z m -0.13163,0.3762 h -1.32658 v 0.844388 h 1.67675 z m -4.00365,1.91777 v 0.815504 h -3.04554 c 0,0 0,-0.07662 -0.0222,-0.172591 -0.0254,-0.106692 -0.0768,-0.23725 -0.12364,-0.312877 -0.0426,-0.0688 -0.11789,-0.163576 -0.19561,-0.229194 -0.0767,-0.06477 -0.15618,-0.100842 -0.15618,-0.100842 z m -4.38008,0 c 0,0 -0.0923,0.04671 -0.178,0.117896 -0.0722,0.06003 -0.13591,0.139685 -0.17483,0.200838 -0.0486,0.07628 -0.1035,0.208359 -0.13006,0.317143 -0.0243,0.09959 -0.0227,0.179627 -0.0227,0.179627 h -0.13168 c 0,0 0.006,-0.0765 -0.0174,-0.171739 -0.0243,-0.10391 -0.0781,-0.230088 -0.12342,-0.303391 -0.0405,-0.0655 -0.11014,-0.158829 -0.18571,-0.223541 -0.0875,-0.07499 -0.17897,-0.116833 -0.17897,-0.116833 z m -1.96626,0 c 0,0 -0.1059,0.05144 -0.20328,0.136125 -0.0729,0.06342 -0.13611,0.152259 -0.17464,0.215018 -0.0444,0.07241 -0.0906,0.191905 -0.11323,0.294113 -0.0203,0.09148 -0.0194,0.170248 -0.0194,0.170248 h -1.15299 l -1.11603,-0.184107 v -0.631397 z m 9.77966,0.01309 c 0.44525,0 0.80984,0.365323 0.80984,0.808686 0,0.443363 -0.36459,0.808889 -0.80984,0.808889 -0.44529,0 -0.81009,-0.365526 -0.81009,-0.808889 0,-0.443363 0.3648,-0.808686 0.81009,-0.808686 z m -1.98036,0 c 0.44528,0 0.80976,0.365323 0.80976,0.808686 0,0.443363 -0.36448,0.808889 -0.80976,0.808889 -0.44526,0 -0.81005,-0.365526 -0.81005,-0.808889 0,-0.443363 0.36479,-0.808686 0.81005,-0.808686 z m -5.41069,0 c 0.44529,0 0.80976,0.365323 0.80976,0.808686 0,0.443363 -0.36447,0.808889 -0.80976,0.808889 -0.44525,0 -0.81005,-0.365526 -0.81005,-0.808889 0,-0.443363 0.3648,-0.808686 0.81005,-0.808686 z m -1.98044,0 c 0.44529,0 0.80985,0.365323 0.80985,0.808686 0,0.443363 -0.36456,0.808889 -0.80985,0.808889 -0.44525,0 -0.80997,-0.365526 -0.80997,-0.808889 0,-0.443363 0.36472,-0.808686 0.80997,-0.808686 z m 9.37149,0.448795 c -0.20006,0 -0.35874,0.157772 -0.35874,0.359891 0,0.202117 0.15868,0.360098 0.35874,0.360098 0.20005,0 0.35849,-0.157981 0.35849,-0.360098 0,-0.202119 -0.15844,-0.359891 -0.35849,-0.359891 z m -1.98036,0 c -0.20005,0 -0.3587,0.157772 -0.3587,0.359891 0,0.202117 0.15865,0.360098 0.3587,0.360098 0.20008,0 0.35849,-0.157981 0.35849,-0.360098 0,-0.202119 -0.15841,-0.359891 -0.35849,-0.359891 z m -5.41069,0 c -0.20005,0 -0.3587,0.157772 -0.3587,0.359891 0,0.202117 0.15865,0.360098 0.3587,0.360098 0.20009,0 0.35853,-0.157981 0.35853,-0.360098 0,-0.202119 -0.15844,-0.359891 -0.35853,-0.359891 z m -1.98044,0 c -0.20005,0 -0.35862,0.157772 -0.35862,0.359891 0,0.202117 0.15857,0.360098 0.35862,0.360098 0.20004,0 0.3585,-0.157981 0.3585,-0.360098 0,-0.202119 -0.15846,-0.359891 -0.3585,-0.359891 z" />
    <path
       id="path11127"
       style="opacity:1;fill:#ffffff;fill-opacity:1;fill-rule:nonzero;stroke:none;stroke-width:0.793746;stroke-linecap:round;stroke-linejoin:round;stroke-miterlimit:2;stroke-dasharray:none;stroke-dashoffset:0;stroke-opacity:1"
       d="M 234.3357,10.511329 A 10.343251,10.343251 0 0 1 223.99245,20.854579 10.343251,10.343251 0 0 1 213.6492,10.511329 10.343251,10.343251 0 0 1 223.99245,0.16808071 10.343251,10.343251 0 0 1 234.3357,10.511329" />
    <path
       sodipodi:nodetypes="ssssscs"
       id="path11129"
       style="opacity:1;fill:#00408c;fill-opacity:1;fill-rule:nonzero;stroke:none;stroke-width:0.296349"
       d="m 223.98701,0.46264215 c -5.54766,0.002862 -10.0433,4.50111225 -10.04327,10.04875985 1e-5,5.54974 4.49896,10.048692 10.04871,10.0487 5.54975,1.6e-5 10.04874,-4.498944 10.04874,-10.0487 0,-5.5497794 -4.49899,-10.04877588 -10.04874,-10.04875985 h -0.006 z" />
    <path
       id="path11135"
       style="opacity:1;fill:#ffffff;fill-opacity:1;fill-rule:nonzero;stroke:none;stroke-width:0.793758;stroke-linecap:round;stroke-linejoin:round;stroke-miterlimit:2;stroke-dasharray:none;stroke-dashoffset:0;stroke-opacity:1"
       d="M 210.77578,10.80701 A 10.216761,10.216761 0 0 1 200.55903,21.023777 10.216761,10.216761 0 0 1 190.34226,10.80701 10.216761,10.216761 0 0 1 200.55903,0.5902514 10.216761,10.216761 0 0 1 210.77578,10.80701" />
    <path
       id="path11137"
       style="opacity:1;fill:#d40000;fill-opacity:1;fill-rule:nonzero;stroke:none;stroke-width:0.296349"
       d="m 200.55366,0.8811824 c -2.63157,0.001259 -5.15487,1.0478075 -7.01515,2.9091199 -1.8603,1.8613113 -2.90532,4.3851832 -2.9053,7.0167527 0,2.632482 1.04577,5.157145 2.90721,7.01859 1.86145,1.861446 4.3861,2.907193 7.01859,2.907209 2.63248,5e-6 5.15716,-1.045743 7.01862,-2.907188 1.86146,-1.86145 2.90723,-4.386117 2.90723,-7.018611 0,-2.632506 -1.04574,-5.1571976 -2.9072,-7.0186601 -1.86146,-1.8614692 -4.38615,-2.90722395 -7.01865,-2.9072125 z m 0.006,2.4144778 c 1.99329,0 3.90493,0.7918288 5.3144,2.2012962 1.40947,1.4094662 2.2013,3.3211114 2.2013,5.3143996 0,1.993284 -0.79183,3.904937 -2.2013,5.314405 -1.40947,1.409466 -3.32111,2.201299 -5.3144,2.201299 -1.99328,0 -3.90493,-0.791833 -5.31441,-2.201299 -1.40946,-1.409468 -2.20128,-3.321121 -2.20128,-5.314405 0,-1.9932882 0.79182,-3.9049334 2.20128,-5.3143996 1.40948,-1.4094674 3.32113,-2.2012962 5.31441,-2.2012962 z"
       sodipodi:nodetypes="cscssscsscsssssssss" />
    <path
       id="rect16087"
       style="opacity:1;fill:#ffffff;fill-rule:evenodd;stroke:none;stroke-width:0;stroke-linecap:square;stroke-linejoin:round;paint-order:fill markers stroke"
       d="m 217.94354,6.3375139 1.6488,-1.6543945 6.59704,6.6101266 1.61694,-2.5658236 c 0.10224,-0.142953 0.27901,-0.086405 0.3051,0.054188 l 1.49346,7.5870546 -7.57025,-1.495242 c -0.15344,-0.03466 -0.19767,-0.20701 -0.0561,-0.306957 l 2.56212,-1.618892 z"
       sodipodi:nodetypes="cccccccccc" />
    <path
       id="path11755"
       style="opacity:1;fill:#000000;fill-opacity:1;stroke-width:0.0105267"
       d="m 195.83096,6.7689914 -0.18452,4.4277506 1.12737,0.132164 c 0.17088,-0.610061 0.62628,-0.859229 1.07464,-0.85143 0.35181,0 0.64901,0.222725 0.87665,0.497287 0.23453,0.274561 0.19758,0.615598 0.18978,1.014966 0,0.465909 -0.0913,0.87213 -0.2703,1.263961 -0.0722,0.157933 -0.18858,0.300899 -0.31373,0.415741 -0.28336,0.260119 -0.64114,0.410337 -0.99514,0.398673 -0.3932,0 -0.71392,-0.222285 -1.03814,-0.421965 l -0.84059,0.863301 c 0.40381,0.351228 1.07117,0.77085 1.6851,0.77085 0.87605,0 1.67553,-0.282691 2.23428,-0.956587 0.56562,-0.673901 0.76251,-1.500759 0.76642,-2.313126 v 0 c 0.002,-0.441825 -0.0493,-0.906751 -0.22063,-1.324722 -0.0993,-0.242205 -0.26661,-0.461033 -0.41396,-0.670249 -0.15665,-0.2223544 -0.41352,-0.3743062 -0.64882,-0.4942058 -0.29006,-0.1478326 -0.60785,-0.2483206 -0.96967,-0.2580418 -0.16602,0 -0.39892,0.022623 -0.59005,0.066403 -0.21394,0.049047 -0.37744,0.119911 -0.37744,0.119911 l 0.0576,-1.4748485 h 2.82003 V 6.7689227 Z m 7.65814,0.02173 c -0.0972,3.641e-4 -0.18891,0.00595 -0.27274,0.016074 -0.42202,0.050822 -0.77834,0.2194785 -1.07142,0.5070367 -0.60265,0.591289 -0.92947,1.6832239 -0.97904,3.2711909 -0.009,0.286194 -0.008,0.615963 0.001,0.895896 0.036,1.028201 0.19305,1.863735 0.46949,2.49623 0.0862,0.19717 0.16323,0.331921 0.2746,0.480283 0.2571,0.342491 0.63961,0.627816 1.05641,0.787979 0.22398,0.08606 0.43353,0.131539 0.64396,0.139739 v 0 c 0.0397,0.0016 0.12033,0 0.17443,-0.0029 0.37601,-0.02218 0.73056,-0.131155 1.04461,-0.321105 0.0735,-0.04445 0.14981,-0.09725 0.21648,-0.149747 0.21008,-0.165466 0.38621,-0.366233 0.52479,-0.598199 0.089,-0.148866 0.15938,-0.305269 0.22431,-0.497925 0.16986,-0.504121 0.26807,-1.184447 0.29517,-2.045338 0.006,-0.179953 0.007,-0.288034 0.007,-0.51685 0,-0.226168 -0.001,-0.34885 -0.007,-0.554127 -0.0324,-1.2089637 -0.1626,-2.0152719 -0.41753,-2.5850896 -0.13452,-0.3006603 -0.30783,-0.5525117 -0.5157,-0.7494199 -0.34721,-0.3289218 -0.7977,-0.514428 -1.36301,-0.5613169 -0.10625,-0.00882 -0.20899,-0.01288 -0.30623,-0.012239 z m 0.19029,1.3564808 c 0.0538,-2.782e-4 0.10647,0.0016 0.15193,0.00572 0.21167,0.019028 0.36706,0.083348 0.48425,0.2004951 0.072,0.071979 0.12724,0.1593032 0.18317,0.2895377 0.18078,0.4210601 0.28575,1.0108745 0.32451,1.823802 0.013,0.272676 0.0183,0.525309 0.0183,0.884793 0,0.253579 -0.001,0.33073 -0.007,0.495938 -0.0206,0.55758 -0.0843,0.969997 -0.19575,1.267814 -0.0151,0.04046 -0.0302,0.07575 -0.0895,0.209664 -0.10235,0.231111 -0.16882,0.356369 -0.23814,0.448909 -0.13761,0.183674 -0.30311,0.26341 -0.5737,0.27639 -0.0242,0.0013 -0.11311,0.0016 -0.13654,3.65e-4 -0.10464,-0.0045 -0.17949,-0.0139 -0.25244,-0.03186 -0.18664,-0.04601 -0.30805,-0.142711 -0.40124,-0.319506 -0.038,-0.07206 -0.0703,-0.150418 -0.11479,-0.278383 -0.0181,-0.05212 -0.0948,-0.283131 -0.10762,-0.324054 -0.12253,-0.391858 -0.1959,-0.853159 -0.22622,-1.422625 -0.0193,-0.363704 -0.0213,-0.79716 -0.006,-1.173567 0.0319,-0.7485505 0.13213,-1.3378405 0.29634,-1.7427692 0.0578,-0.1427115 0.13121,-0.2735802 0.19767,-0.3527996 0.12646,-0.15072 0.29389,-0.2295306 0.53321,-0.2509206 0.0503,-0.00458 0.10533,-0.00687 0.15911,-0.0071 z" />
  </g>
</svg>
