<svg xmlns="http://www.w3.org/2000/svg" width="253.13808" height="253.13803" viewBox="0 0 253.13808 253.13803">
  <g transform="matrix(0.521025, 0, 0, 0.521025, 27.30508, -437.89728)">
    <path d="m 428.64158,1083.3765 c 0.022,131.5062 -106.59658,238.1249 -238.12489,238.1249 -131.528298,0 -238.146975,-106.6187 -238.124926,-238.1249 -0.022,-131.50604 106.596628,-238.12483 238.124926,-238.12483 131.52831,0 238.14713,106.61879 238.12489,238.12483 z" fill="#000000" stroke="#00408c" stroke-width="9.596468"/>
    
    <path d="m 426.26031,1083.3765 c 0,130.1981 -105.54564,235.7438 -235.74362,235.7438 -130.197965,0 -235.743658,-105.5457 -235.743658,-235.7438 0,-130.19795 105.545693,-235.74355 235.743658,-235.74355 130.19798,0 235.74362,105.5456 235.74362,235.74355 z" fill="#ffffff"/>
    
    <path d="m -98.542297,89.556557 c 0,51.908043 -40.226053,93.987823 -89.847393,93.987823 -49.62135,0 -89.8474,-42.07978 -89.8474,-93.987823 0,-51.908042 40.22605,-93.9878238 89.8474,-93.9878238 49.62134,0 89.847393,42.0797818 89.847393,93.9878238 z" transform="matrix(2.3073382,0,0,2.3073382,629.70453,877.21169)" fill="#00408b" stroke="#ffffff" stroke-width="0.831822"/>
    
    <path d="m 190.51669,852.39541 c -127.56752,0 -230.981135,103.41365 -230.981135,230.98119 0,127.5675 103.413615,230.9812 230.981135,230.9812 127.56748,0 230.98117,-103.4137 230.98117,-230.9812 0,-127.56754 -103.41369,-230.98119 -230.98117,-230.98119 z m 0,59.53127 c 94.64036,0 171.44996,76.80952 171.44996,171.44992 0,42.3652 -15.43532,81.0974 -40.92776,111.0257 L 79.490928,952.8547 C 109.41924,927.36185 148.15191,911.92668 190.51669,911.92668 z M 58.357308,974.21132 299.68188,1215.6104 c -29.65846,24.5261 -67.70288,39.216 -109.16519,39.216 -94.640408,0 -171.449866,-76.8095 -171.449866,-171.4498 0,-41.4802 14.74612,-79.5021 39.290604,-109.16528 z" fill="#d40000" fill-rule="evenodd" stroke="#ffffff" stroke-width="1.919294"/>
  </g>
</svg>
