<?xml version="1.0" encoding="UTF-8" standalone="no"?>
<svg
   xmlns:dc="http://purl.org/dc/elements/1.1/"
   xmlns:cc="http://creativecommons.org/ns#"
   xmlns:rdf="http://www.w3.org/1999/02/22-rdf-syntax-ns#"
   xmlns:svg="http://www.w3.org/2000/svg"
   xmlns="http://www.w3.org/2000/svg"
   xmlns:sodipodi="http://sodipodi.sourceforge.net/DTD/sodipodi-0.dtd"
   xmlns:inkscape="http://www.inkscape.org/namespaces/inkscape"
   inkscape:version="1.0 (4035a4fb49, 2020-05-01)"
   inkscape:export-ydpi="96"
   inkscape:export-xdpi="96"
   inkscape:export-filename="C:\Users\Adinan\Documents\rect9004.png"
   sodipodi:docname="Turkey_road_sign_P-7h.svg"
   viewBox="0 0 200.25716 203.16643"
   height="203.16643"
   width="200.25716"
   id="svg8427"
   version="1.1">
  <metadata
     id="metadata8433">
    <rdf:RDF>
      <cc:Work
         rdf:about="">
        <dc:format>image/svg+xml</dc:format>
        <dc:type
           rdf:resource="http://purl.org/dc/dcmitype/StillImage" />
        <dc:title></dc:title>
      </cc:Work>
    </rdf:RDF>
  </metadata>
  <defs
     id="defs8431">
    <clipPath
       clipPathUnits="userSpaceOnUse"
       id="clipPath124490">
      <path
         d="M 0,0 H 260.37 V 255.2 H 0 Z"
         id="path124488" />
    </clipPath>
    <clipPath
       clipPathUnits="userSpaceOnUse"
       id="clipPath136036">
      <path
         d="M 0,0 H 264.34 V 266.57 H 0 Z"
         id="path136034" />
    </clipPath>
  </defs>
  <sodipodi:namedview
     inkscape:current-layer="g8435"
     inkscape:window-maximized="1"
     inkscape:window-y="-9"
     inkscape:window-x="-9"
     inkscape:cy="222.90103"
     inkscape:cx="-59.775442"
     inkscape:zoom="1.4142136"
     showgrid="false"
     id="namedview8429"
     inkscape:window-height="1001"
     inkscape:window-width="1920"
     inkscape:pageshadow="2"
     inkscape:pageopacity="0"
     guidetolerance="10"
     gridtolerance="10"
     objecttolerance="10"
     borderopacity="1"
     bordercolor="#666666"
     pagecolor="#ffffff"
     inkscape:document-rotation="0">
    <inkscape:grid
       originy="-51.60556"
       originx="-225.39187"
       id="grid18096"
       type="xygrid" />
  </sodipodi:namedview>
  <g
     transform="translate(-608.68197,87.640082)"
     id="g8435"
     inkscape:label="Image"
     inkscape:groupmode="layer">
    <path
       d="m 621.75051,-87.640082 h 174.12008 c 7.23997,0 13.06854,5.82857 13.06854,13.06854 V 102.45781 c 0,7.23998 -5.82857,13.06854 -13.06854,13.06854 H 621.75051 c -7.23997,0 -13.06854,-5.82856 -13.06854,-13.06854 V -74.571542 c 0,-7.23997 5.82857,-13.06854 13.06854,-13.06854 z"
       style="opacity:0.999883;fill:#00408c;fill-opacity:1;fill-rule:evenodd;stroke-width:3.0807;stroke-linecap:round;stroke-linejoin:round;stroke-miterlimit:0.1"
       id="rect9000-2" />
    <path
       sodipodi:nodetypes="sssssscssssssscccsscssssssssscs"
       id="path9038-5"
       d="m 620.53274,111.67852 c -4.08048,-0.52402 -7.32515,-3.80626 -7.83723,-7.92797 -0.10693,-0.86065 -0.10693,-178.505412 0,-179.366072 0.22056,-1.77533 0.90983,-3.36035 2.06635,-4.75175 1.28619,-1.5474 2.98684,-2.56787 5.14764,-3.08883 0.52041,-0.12547 3.94884,-0.13139 88.70673,-0.15295 62.69734,-0.0159 87.9737,4e-5 88.45995,0.0554 4.20133,0.47809 7.48768,3.73503 8.00987,7.93815 0.10693,0.86065 0.10693,178.505422 0,179.366072 -0.51767,4.16674 -3.76713,7.41621 -7.93388,7.93388 -0.76909,0.0956 -175.87498,0.0897 -176.61943,-0.006 z m 176.97843,-3.07807 c 2.24328,-0.5995 3.90502,-2.30377 4.49137,-4.52699 l 0.16411,-0.6496 v -89.356342 -89.35634 l -0.16473,-0.6496 c -0.57134,-2.25306 -2.26919,-3.95891 -4.49999,-4.5211 l -0.67645,-0.17047 h -87.704 c -83.33657,0 -88.12356,0.007 -88.65495,0.1252 -1.19475,0.26629 -2.20037,0.81638 -3.05521,1.67121 -0.82489,0.82489 -1.37088,1.80066 -1.66782,2.98065 -0.11655,0.46313 -0.1251,5.69627 -0.14616,89.37911 -0.0148,58.874541 0.002,89.130882 0.0498,89.608972 0.0951,0.95178 0.23251,1.45274 0.61355,2.23751 0.88952,1.83205 2.71455,3.10636 4.80367,3.35413 0.25803,0.0306 40.01367,0.0515 88.34584,0.0467 l 87.48748,-0.009 z"
       style="fill:#ffffff;fill-opacity:1;stroke-width:0.0870807" />
    <g
       id="g124482"
       transform="matrix(3.1538304,0,0,-3.0729759,388.49101,120.68906)"
       style="stroke:none;stroke-width:0.343498">
      <g
         id="g124484"
         transform="scale(0.27653,0.28213)"
         style="stroke:none;stroke-width:0.343498">
        <g
           id="g124486"
           clip-path="url(#clipPath124490)"
           style="stroke:none;stroke-width:0.343498" />
      </g>
    </g>
    <g
       transform="matrix(5.5044553,0,0,5.5044553,-2.59362,-2807.1613)"
       style="font-size:30px;line-height:1.15;font-family:'ALS Direct';-inkscape-font-specification:'ALS Direct';fill:#ffffff;fill-opacity:1;stroke:none;stroke-width:0.181671;stroke-opacity:0.713725"
       id="g119107"
       aria-label="R">
      <path
         d="m 121.37966,510.67654 -1.97957,-10e-4 0.0266,7.19125 H 116.626 L 116.6064,497.883 h 6.95101 c 0.53297,0 1.03611,0.001 1.67793,0.11222 0.94776,0.16381 1.99164,0.71366 2.68917,1.30041 1.35953,1.14362 2.39218,2.66682 2.39218,5.00682 0,1.4945 -0.47893,2.62076 -1.31286,3.79869 -0.41405,0.58486 -0.93987,1.06182 -1.51381,1.46737 -0.44449,0.31408 -0.95283,0.5352 -1.46272,0.72557 -0.36552,0.13647 -0.74817,0.22933 -1.13289,0.29431 -0.30377,0.0513 -0.92123,0.0743 -0.92123,0.0743 z m 5.72489,-7.76656 c -0.1715,-0.44911 -0.4691,-0.85919 -0.82354,-1.18397 -0.4418,-0.40484 -0.98647,-0.71922 -1.55965,-0.89402 -0.53141,-0.16207 -1.43306,-0.11601 -1.66248,-0.11911 -0.32615,-0.004 -0.66067,-0.006 -0.97663,-0.006 l -2.66988,0.004 v 7.18222 l 2.38394,-0.003 c 0.45799,-3.4e-4 0.79261,1.1e-4 1.10498,-0.001 0.28784,-10e-4 1.28244,0.0437 1.88109,-0.14931 0.5861,-0.18899 1.1587,-0.50819 1.58015,-0.9572 0.48545,-0.5172 0.85837,-1.18829 0.9852,-1.88619 0.11927,-0.65634 -0.005,-1.36323 -0.24318,-1.98642 z"
         style="font-style:normal;font-variant:normal;font-weight:normal;font-stretch:normal;font-family:'Highway Gothic Wide';-inkscape-font-specification:'Highway Gothic Wide';fill:#ffffff;fill-opacity:1;stroke:none;stroke-width:0.181671;stroke-opacity:0.713725"
         id="path119105"
         sodipodi:nodetypes="cccccsssssaaaccaaasscccsaaaa" />
    </g>
    <g
       id="g136028"
       transform="matrix(3.0802569,0,0,-3.1213404,586.50745,128.67216)"
       style="stroke:none;stroke-width:0.338175;fill:#ffffff;fill-opacity:1">
      <g
         id="g136030"
         transform="scale(0.27238,0.2701)"
         style="stroke:none;stroke-width:0.338175;fill:#ffffff;fill-opacity:1">
        <g
           id="g136032"
           clip-path="url(#clipPath136036)"
           style="stroke:none;stroke-width:0.338175;fill:#ffffff;fill-opacity:1">
          <path
             sodipodi:nodetypes="ccccccccccccc"
             d="m 203.17881,174.76805 h 10.94004 l 0.0182,-18.95153 H 233.248 v -10.89233 h -19.11092 l -0.0182,-19.09767 h -10.94004 v 19.09767 h -19.13692 v 10.89233 h 19.13692 z"
             style="opacity:0.999883;fill:#ffffff;fill-opacity:1;fill-rule:evenodd;stroke-width:0.898781;stroke-linecap:round;stroke-linejoin:round;stroke-miterlimit:10"
             id="rect162467" />
        </g>
      </g>
    </g>
    <path
       sodipodi:nodetypes="ccccccccccccccsssccscsccsssccsssccccccccccccccccccccccccccccccccccccccccccccccccc"
       d="m 690.03939,47.775938 -10.57812,7.49218 10.57812,7.45313 10.63086,-7.45313 z m 0,14.94531 h -5.36133 l -1.17382,1.30859 h -18.73829 l -2.3457,2.61914 v 25.83789 h -2.72656 v 3.50391 h 10.35547 c 0,0 0.22701,1.23558 1.01758,2.08008 0.80214,0.85685 2.17392,1.32219 3.0664,1.32226 0.82202,7e-5 2.11282,-0.42204 2.88281,-1.20703 0.89024,-0.90759 1.20313,-2.19531 1.20313,-2.19531 h 2.75195 c 0,0 0.25982,1.28883 1.21875,2.22461 0.74719,0.72915 2.10504,1.15755 2.88086,1.15625 0.84675,-0.001 2.1283,-0.41678 2.91016,-1.22656 0.847,-0.87725 1.16211,-2.1543 1.16211,-2.1543 h 54.91211 c 0,0 0.33486,1.28112 1.11523,2.10742 0.80527,0.85266 2.07015,1.25133 2.96484,1.25195 0.76822,5.3e-4 2.10859,-0.37858 2.85157,-1.09765 0.96375,-0.93273 1.24023,-2.26172 1.24023,-2.26172 h 2.74414 c 0,0 0.32026,1.33848 1.24024,2.26172 0.74971,0.75236 2.0233,1.12403 2.81445,1.1289 0.81155,0.005 2.09389,-0.34178 2.86914,-1.10546 0.93323,-0.91931 1.28906,-2.28516 1.28906,-2.28516 h 17.58594 v -3.50391 h -2.74414 v -26.07226 l -2.59961,-2.38477 h -16.83203 l -1.40039,-1.30859 z m -26.50976,4.45508 h 9.53711 v 13.74218 h -9.53711 z m 10.89648,0 h 11.99024 v 25.03515 h -11.99024 z m 14.7168,0 h 14.43945 v 13.74218 h -14.43945 z m 15.82226,0 H 719.389 v 13.74218 h -14.42383 z m 15.75782,0 h 14.46289 v 13.74218 h -14.46289 z m 43.42601,-5.2e-4 h 12.76958 v 13.74211 H 764.149 Z m -1.38435,0 v 25.03593 H 750.8005 v -25.03593 z m -25.25391,0 h 11.98931 v 25.03593 h -11.98931 z"
       style="opacity:0.999883;fill:#ffffff;fill-opacity:1;fill-rule:evenodd;stroke-width:0.755906;stroke-linecap:round;stroke-linejoin:round;stroke-miterlimit:10"
       id="rect170486" />
  </g>
</svg>
