<svg xmlns="http://www.w3.org/2000/svg" width="258.07217" height="258.07217" viewBox="0 0 258.07217 258.07217">
  <g transform="matrix(0.521025, 0, 0, 0.521025, -256.48443, -437.85059)">
    <path fill="#000000" fill-rule="evenodd" d="m 985.12941,1088.022 c 0.0226,135.4149 -109.76456,245.2023 -245.20235,245.2023 -135.43779,0 -245.22524,-109.7874 -245.20235,-245.2023 -0.0227,-135.41493 109.76456,-245.20238 245.20235,-245.20238 135.43779,0 245.22524,109.78745 245.20235,245.20238 z" />
    
    <path fill="#ffffff" fill-rule="evenodd" d="m 982.67739,1088.022 c 0,134.0673 -108.68295,242.7503 -242.75033,242.7503 -134.06738,0 -242.75033,-108.683 -242.75033,-242.7503 0,-134.06741 108.68295,-242.75035 242.75033,-242.75035 134.06738,0 242.75033,108.68294 242.75033,242.75035 z" />
    
    <path fill="#00408b" stroke="#00418c" stroke-width="3.4649" stroke-linecap="round" stroke-linejoin="round" transform="matrix(1.107849,0,0,1.107849,683.04858,954.22148)" d="m 240.97319,117.04863 c 0,114.10623 -84.15957,206.6076 -187.97565,206.6076 -103.816084,0 -187.97565,-92.50137 -187.97565,-206.6076 0,-114.1062297 84.159566,-206.607605 187.97565,-206.607605 103.81608,0 187.97565,92.5013753 187.97565,206.607605 z" />
    
    <path fill="#d40000" fill-rule="evenodd" stroke="#ffffff" stroke-width="1.919294" d="m 739.92706,850.17569 c -131.35872,0 -237.84628,106.48757 -237.84628,237.84631 0,131.3587 106.48756,237.8462 237.84628,237.8462 131.35871,0 237.84628,-106.4875 237.84628,-237.8462 0,-131.35874 -106.48757,-237.84631 -237.84628,-237.84631 z m 0,61.30059 c 43.15774,0 82.70784,15.52703 113.3892,41.27573 L 739.02472,1067.0435 625.60174,953.62057 c 30.81817,-26.25011 70.7011,-42.14418 114.32587,-42.14418 z m 135.26997,63.1565 c 25.74869,30.68112 41.27573,70.23142 41.27573,113.38922 0,43.6243 -15.89402,83.5072 -42.14419,114.3258 L 760.90559,1088.9249 875.19714,974.63333 z m -271.35728,0.98762 113.28676,113.3211 -112.46942,112.4694 c -25.74869,-30.6811 -41.27573,-70.2314 -41.27573,-113.3892 0,-42.713 15.18441,-81.8562 40.45839,-112.4013 z m 135.16807,135.2019 113.32109,113.3548 c -30.53984,25.2549 -69.70667,40.3903 -112.4013,40.3903 -43.15774,0 -82.70785,-15.527 -113.3892,-41.2757 l 112.46941,-112.4694 z" />
  </g>
</svg>
