<?xml version="1.0" encoding="UTF-8" standalone="no"?>
<svg
   xmlns:dc="http://purl.org/dc/elements/1.1/"
   xmlns:cc="http://creativecommons.org/ns#"
   xmlns:rdf="http://www.w3.org/1999/02/22-rdf-syntax-ns#"
   xmlns:svg="http://www.w3.org/2000/svg"
   xmlns="http://www.w3.org/2000/svg"
   xmlns:sodipodi="http://sodipodi.sourceforge.net/DTD/sodipodi-0.dtd"
   xmlns:inkscape="http://www.inkscape.org/namespaces/inkscape"
   inkscape:version="1.0 (4035a4fb49, 2020-05-01)"
   inkscape:export-ydpi="96"
   inkscape:export-xdpi="96"
   inkscape:export-filename="C:\Users\Adinan\Documents\rect9004.png"
   sodipodi:docname="Turkey_road_sign_P-7f.svg"
   viewBox="0 0 200.25716 203.16643"
   height="203.16643"
   width="200.25716"
   id="svg8427"
   version="1.1">
  <metadata
     id="metadata8433">
    <rdf:RDF>
      <cc:Work
         rdf:about="">
        <dc:format>image/svg+xml</dc:format>
        <dc:type
           rdf:resource="http://purl.org/dc/dcmitype/StillImage" />
        <dc:title></dc:title>
      </cc:Work>
    </rdf:RDF>
  </metadata>
  <defs
     id="defs8431">
    <clipPath
       clipPathUnits="userSpaceOnUse"
       id="clipPath124490">
      <path
         d="M 0,0 H 260.37 V 255.2 H 0 Z"
         id="path124488" />
    </clipPath>
    <clipPath
       clipPathUnits="userSpaceOnUse"
       id="clipPath136036">
      <path
         d="M 0,0 H 264.34 V 266.57 H 0 Z"
         id="path136034" />
    </clipPath>
    <clipPath
       clipPathUnits="userSpaceOnUse"
       id="clipPath191701">
      <path
         d="M 0,0 H 227.21 V 241.73 H 0 Z"
         id="path191699" />
    </clipPath>
    <clipPath
       clipPathUnits="userSpaceOnUse"
       id="clipPath195117">
      <path
         d="M 0,0 H 101.29 V 102.44 H 0 Z"
         id="path195115" />
    </clipPath>
  </defs>
  <sodipodi:namedview
     inkscape:current-layer="g8435"
     inkscape:window-maximized="1"
     inkscape:window-y="-9"
     inkscape:window-x="-9"
     inkscape:cy="143.31667"
     inkscape:cx="115.25717"
     inkscape:zoom="1.4142136"
     showgrid="false"
     id="namedview8429"
     inkscape:window-height="1001"
     inkscape:window-width="1920"
     inkscape:pageshadow="2"
     inkscape:pageopacity="0"
     guidetolerance="10"
     gridtolerance="10"
     objecttolerance="10"
     borderopacity="1"
     bordercolor="#666666"
     pagecolor="#ffffff"
     inkscape:document-rotation="0">
    <inkscape:grid
       originy="-51.60556"
       originx="-225.39187"
       id="grid18096"
       type="xygrid" />
  </sodipodi:namedview>
  <g
     transform="translate(-608.68197,87.640082)"
     id="g8435"
     inkscape:label="Image"
     inkscape:groupmode="layer">
    <path
       d="m 621.75051,-87.640082 h 174.12008 c 7.23997,0 13.06854,5.82857 13.06854,13.06854 V 102.45781 c 0,7.23998 -5.82857,13.06854 -13.06854,13.06854 H 621.75051 c -7.23997,0 -13.06854,-5.82856 -13.06854,-13.06854 V -74.571542 c 0,-7.23997 5.82857,-13.06854 13.06854,-13.06854 z"
       style="opacity:0.999883;fill:#00408c;fill-opacity:1;fill-rule:evenodd;stroke-width:3.0807;stroke-linecap:round;stroke-linejoin:round;stroke-miterlimit:0.1"
       id="rect9000-2" />
    <path
       sodipodi:nodetypes="sssssscssssssscccsscssssssssscs"
       id="path9038-5"
       d="m 620.53274,111.67852 c -4.08048,-0.52402 -7.32515,-3.80626 -7.83723,-7.92797 -0.10693,-0.86065 -0.10693,-178.505412 0,-179.366072 0.22056,-1.77533 0.90983,-3.36035 2.06635,-4.75175 1.28619,-1.5474 2.98684,-2.56787 5.14764,-3.08883 0.52041,-0.12547 3.94884,-0.13139 88.70673,-0.15295 62.69734,-0.0159 87.9737,4e-5 88.45995,0.0554 4.20133,0.47809 7.48768,3.73503 8.00987,7.93815 0.10693,0.86065 0.10693,178.505422 0,179.366072 -0.51767,4.16674 -3.76713,7.41621 -7.93388,7.93388 -0.76909,0.0956 -175.87498,0.0897 -176.61943,-0.006 z m 176.97843,-3.07807 c 2.24328,-0.5995 3.90502,-2.30377 4.49137,-4.52699 l 0.16411,-0.6496 v -89.356342 -89.35634 l -0.16473,-0.6496 c -0.57134,-2.25306 -2.26919,-3.95891 -4.49999,-4.5211 l -0.67645,-0.17047 h -87.704 c -83.33657,0 -88.12356,0.007 -88.65495,0.1252 -1.19475,0.26629 -2.20037,0.81638 -3.05521,1.67121 -0.82489,0.82489 -1.37088,1.80066 -1.66782,2.98065 -0.11655,0.46313 -0.1251,5.69627 -0.14616,89.37911 -0.0148,58.874541 0.002,89.130882 0.0498,89.608972 0.0951,0.95178 0.23251,1.45274 0.61355,2.23751 0.88952,1.83205 2.71455,3.10636 4.80367,3.35413 0.25803,0.0306 40.01367,0.0515 88.34584,0.0467 l 87.48748,-0.009 z"
       style="fill:#ffffff;fill-opacity:1;stroke-width:0.0870807" />
    <g
       id="g124482"
       transform="matrix(3.1538304,0,0,-3.0729759,388.49101,120.68906)"
       style="stroke:none;stroke-width:0.343498">
      <g
         id="g124484"
         transform="scale(0.27653,0.28213)"
         style="stroke:none;stroke-width:0.343498">
        <g
           id="g124486"
           clip-path="url(#clipPath124490)"
           style="stroke:none;stroke-width:0.343498" />
      </g>
    </g>
    <g
       id="g191693"
       transform="matrix(3.0097305,0,0,-3.1985513,390.01663,129.22915)"
       style="stroke:none;stroke-width:0.328565">
      <g
         id="g191695"
         transform="scale(0.31689,0.29786)"
         style="stroke:none;stroke-width:0.328565">
        <g
           id="g191697"
           clip-path="url(#clipPath191701)"
           style="stroke:none;stroke-width:0.328565">
          <path
             d="M 301.21842,35.778 V 159.27"
             style="fill:none;stroke:none;stroke-width:0.0459992;stroke-linecap:butt;stroke-linejoin:round;stroke-miterlimit:10;stroke-dasharray:none;stroke-opacity:1"
             id="path191721" />
        </g>
      </g>
    </g>
    <g
       transform="matrix(7.3184255,0,0,7.3184255,-188.92028,-3703.3736)"
       style="font-size:30px;line-height:1.15;font-family:'ALS Direct';-inkscape-font-specification:'ALS Direct';fill:#ffffff;fill-opacity:1;stroke:none;stroke-width:0.136642;stroke-opacity:1"
       id="g119107"
       aria-label="R">
      <path
         d="m 121.37966,510.67654 -1.97957,-10e-4 0.0266,7.19125 H 116.626 L 116.6064,497.883 h 6.95101 c 0.53297,0 1.03611,0.001 1.67793,0.11222 0.94776,0.16381 1.99164,0.71366 2.68917,1.30041 1.35953,1.14362 2.39218,2.66682 2.39218,5.00682 0,1.4945 -0.47893,2.62076 -1.31286,3.79869 -0.41405,0.58486 -0.93987,1.06182 -1.51381,1.46737 -0.44449,0.31408 -0.95283,0.5352 -1.46272,0.72557 -0.36552,0.13647 -0.74817,0.22933 -1.13289,0.29431 -0.30377,0.0513 -0.92123,0.0743 -0.92123,0.0743 z m 5.72489,-7.76656 c -0.1715,-0.44911 -0.4691,-0.85919 -0.82354,-1.18397 -0.4418,-0.40484 -0.98647,-0.71922 -1.55965,-0.89402 -0.53141,-0.16207 -1.43306,-0.11601 -1.66248,-0.11911 -0.32615,-0.004 -0.66067,-0.006 -0.97663,-0.006 l -2.66988,0.004 v 7.18222 l 2.38394,-0.003 c 0.45799,-3.4e-4 0.79261,1.1e-4 1.10498,-0.001 0.28784,-10e-4 1.28244,0.0437 1.88109,-0.14931 0.5861,-0.18899 1.1587,-0.50819 1.58015,-0.9572 0.48545,-0.5172 0.85837,-1.18829 0.9852,-1.88619 0.11927,-0.65634 -0.005,-1.36323 -0.24318,-1.98642 z"
         style="font-style:normal;font-variant:normal;font-weight:normal;font-stretch:normal;font-family:'Highway Gothic Wide';-inkscape-font-specification:'Highway Gothic Wide';fill:#ffffff;fill-opacity:1;stroke:none;stroke-width:0.136642;stroke-opacity:1"
         id="path119105"
         sodipodi:nodetypes="cccccsssssaaaccaaasscccsaaaa" />
    </g>
  </g>
</svg>
