<?xml version="1.0" encoding="UTF-8" standalone="no"?>
<svg
   xmlns:dc="http://purl.org/dc/elements/1.1/"
   xmlns:cc="http://creativecommons.org/ns#"
   xmlns:rdf="http://www.w3.org/1999/02/22-rdf-syntax-ns#"
   xmlns:svg="http://www.w3.org/2000/svg"
   xmlns="http://www.w3.org/2000/svg"
   xmlns:sodipodi="http://sodipodi.sourceforge.net/DTD/sodipodi-0.dtd"
   xmlns:inkscape="http://www.inkscape.org/namespaces/inkscape"
   inkscape:version="1.0 (4035a4fb49, 2020-05-01)"
   inkscape:export-ydpi="96"
   inkscape:export-xdpi="96"
   inkscape:export-filename="C:\Users\Adinan\Documents\rect9004.png"
   sodipodi:docname="Turkey_road_sign_P-7f.svg.2020_07_14_23_26_44.0.svg"
   viewBox="0 0 202.69994 312.79258"
   height="312.79257"
   width="202.69994"
   id="svg8427"
   version="1.1">
  <metadata
     id="metadata8433">
    <rdf:RDF>
      <cc:Work
         rdf:about="">
        <dc:format>image/svg+xml</dc:format>
        <dc:type
           rdf:resource="http://purl.org/dc/dcmitype/StillImage" />
        <dc:title />
      </cc:Work>
    </rdf:RDF>
  </metadata>
  <defs
     id="defs8431">
    <clipPath
       clipPathUnits="userSpaceOnUse"
       id="clipPath124490">
      <path
         d="M 0,0 H 260.37 V 255.2 H 0 Z"
         id="path124488" />
    </clipPath>
    <clipPath
       clipPathUnits="userSpaceOnUse"
       id="clipPath136036">
      <path
         d="M 0,0 H 264.34 V 266.57 H 0 Z"
         id="path136034" />
    </clipPath>
    <clipPath
       clipPathUnits="userSpaceOnUse"
       id="clipPath191701">
      <path
         d="M 0,0 H 227.21 V 241.73 H 0 Z"
         id="path191699" />
    </clipPath>
    <clipPath
       clipPathUnits="userSpaceOnUse"
       id="clipPath195117">
      <path
         d="M 0,0 H 101.29 V 102.44 H 0 Z"
         id="path195115" />
    </clipPath>
  </defs>
  <sodipodi:namedview
     inkscape:current-layer="g8435"
     inkscape:window-maximized="1"
     inkscape:window-y="-9"
     inkscape:window-x="-9"
     inkscape:cy="217.2559"
     inkscape:cx="61.387046"
     inkscape:zoom="1"
     showgrid="false"
     id="namedview8429"
     inkscape:window-height="1001"
     inkscape:window-width="1920"
     inkscape:pageshadow="2"
     inkscape:pageopacity="0"
     guidetolerance="10"
     gridtolerance="10"
     objecttolerance="10"
     borderopacity="1"
     bordercolor="#666666"
     pagecolor="#ffffff"
     inkscape:document-rotation="0">
    <inkscape:grid
       originy="-52.97334"
       originx="-216.35106"
       id="grid18096"
       type="xygrid" />
  </sodipodi:namedview>
  <g
     transform="translate(-599.64116,86.272303)"
     id="g8435"
     inkscape:label="Image"
     inkscape:groupmode="layer">
    <g
       id="g124482"
       transform="matrix(3.1538304,0,0,-3.0729759,388.49101,120.68906)"
       style="stroke:none;stroke-width:0.343498">
      <g
         id="g124484"
         transform="scale(0.27653,0.28213)"
         style="stroke:none;stroke-width:0.343498">
        <g
           id="g124486"
           clip-path="url(#clipPath124490)"
           style="stroke:none;stroke-width:0.343498" />
      </g>
    </g>
    <g
       id="g191693"
       transform="matrix(3.0097305,0,0,-3.1985513,390.01663,129.22915)"
       style="stroke:none;stroke-width:0.328565">
      <g
         id="g191695"
         transform="scale(0.31689,0.29786)"
         style="stroke:none;stroke-width:0.328565">
        <g
           id="g191697"
           clip-path="url(#clipPath191701)"
           style="stroke:none;stroke-width:0.328565">
          <path
             d="M 301.21842,35.778 V 159.27"
             style="fill:none;stroke:none;stroke-width:0.0459992;stroke-linecap:butt;stroke-linejoin:round;stroke-miterlimit:10;stroke-dasharray:none;stroke-opacity:1"
             id="path191721" />
        </g>
      </g>
    </g>
    <path
       sodipodi:nodetypes="sssssssss"
       d="m 611.57823,-86.272303 h 178.82584 c 6.61323,0 11.93703,5.323925 11.93703,11.937043 v 288.9185 c 0,6.61311 -5.3238,11.93704 -11.93703,11.93704 H 611.57823 c -6.61316,0 -11.93707,-5.32393 -11.93707,-11.93704 v -288.9185 c 0,-6.613118 5.32391,-11.937043 11.93707,-11.937043 z"
       style="opacity:0.999883;fill:#00408c;fill-opacity:1;fill-rule:evenodd;stroke-width:178.791;stroke-linecap:round;stroke-linejoin:round;stroke-miterlimit:0.1"
       id="rect90889" />
    <path
       sodipodi:nodetypes="ssssssssssssssssss"
       id="path90896"
       d="m 612.3224,-82.801592 c -5.13955,0 -9.32972,4.190162 -9.32972,9.329732 v 287.04292 c 0,5.13957 4.19017,9.32974 9.32972,9.32974 h 177.24764 c 5.13956,0 9.32856,-4.19016 9.32856,-9.32974 V -73.47186 c 0,-5.139569 -4.189,-9.329732 -9.32856,-9.329732 z m 0,3.347995 h 177.24764 c 3.34296,0 5.98176,2.638779 5.98176,5.981736 V 213.57106 c 0,3.34295 -2.6388,5.98174 -5.98176,5.98174 H 612.3224 c -3.34294,0 -5.98172,-2.63879 -5.98172,-5.98174 V -73.47186 c 0,-3.342958 2.63878,-5.981737 5.98172,-5.981737 z"
       style="color:#000000;font-style:normal;font-variant:normal;font-weight:normal;font-stretch:normal;font-size:medium;line-height:normal;font-family:sans-serif;font-variant-ligatures:normal;font-variant-position:normal;font-variant-caps:normal;font-variant-numeric:normal;font-variant-alternates:normal;font-variant-east-asian:normal;font-feature-settings:normal;font-variation-settings:normal;text-indent:0;text-align:start;text-decoration:none;text-decoration-line:none;text-decoration-style:solid;text-decoration-color:#000000;letter-spacing:normal;word-spacing:normal;text-transform:none;writing-mode:lr-tb;direction:ltr;text-orientation:mixed;dominant-baseline:auto;baseline-shift:baseline;text-anchor:start;white-space:normal;shape-padding:0;shape-margin:0;inline-size:0;clip-rule:nonzero;display:inline;overflow:visible;visibility:visible;opacity:0.999883;isolation:auto;mix-blend-mode:normal;color-interpolation:sRGB;color-interpolation-filters:linearRGB;solid-color:#000000;solid-opacity:1;vector-effect:none;fill:#ffffff;fill-opacity:1;fill-rule:evenodd;stroke:none;stroke-width:5.3;stroke-linecap:round;stroke-linejoin:round;stroke-miterlimit:0.1;stroke-dasharray:none;stroke-dashoffset:0;stroke-opacity:1;color-rendering:auto;image-rendering:auto;shape-rendering:auto;text-rendering:auto;enable-background:accumulate;stop-color:#000000;stop-opacity:1" />
    <g
       transform="matrix(7.8472254,0,0,7.8472254,-260.73054,-3966.1862)"
       style="font-size:30px;line-height:1.15;font-family:'ALS Direct';-inkscape-font-specification:'ALS Direct';fill:#ffffff;fill-opacity:1;stroke:none;stroke-width:0.127434;stroke-opacity:1"
       id="g119107"
       aria-label="R">
      <path
         d="m 121.37966,510.67654 -1.97957,-10e-4 0.0266,7.19125 H 116.626 L 116.6064,497.883 h 6.95101 c 0.53297,0 1.03611,0.001 1.67793,0.11222 0.94776,0.16381 1.99164,0.71366 2.68917,1.30041 1.35953,1.14362 2.39218,2.66682 2.39218,5.00682 0,1.4945 -0.47893,2.62076 -1.31286,3.79869 -0.41405,0.58486 -0.93987,1.06182 -1.51381,1.46737 -0.44449,0.31408 -0.95283,0.5352 -1.46272,0.72557 -0.36552,0.13647 -0.74817,0.22933 -1.13289,0.29431 -0.30377,0.0513 -0.92123,0.0743 -0.92123,0.0743 z m 5.72489,-7.76656 c -0.1715,-0.44911 -0.4691,-0.85919 -0.82354,-1.18397 -0.4418,-0.40484 -0.98647,-0.71922 -1.55965,-0.89402 -0.53141,-0.16207 -1.43306,-0.11601 -1.66248,-0.11911 -0.32615,-0.004 -0.66067,-0.006 -0.97663,-0.006 l -2.66988,0.004 v 7.18222 l 2.38394,-0.003 c 0.45799,-3.4e-4 0.79261,1.1e-4 1.10498,-0.001 0.28784,-10e-4 1.28244,0.0437 1.88109,-0.14931 0.5861,-0.18899 1.1587,-0.50819 1.58015,-0.9572 0.48545,-0.5172 0.85837,-1.18829 0.9852,-1.88619 0.11927,-0.65634 -0.005,-1.36323 -0.24318,-1.98642 z"
         style="font-style:normal;font-variant:normal;font-weight:normal;font-stretch:normal;font-family:'Highway Gothic Wide';-inkscape-font-specification:'Highway Gothic Wide';fill:#ffffff;fill-opacity:1;stroke:none;stroke-width:0.127434;stroke-opacity:1"
         id="path119105"
         sodipodi:nodetypes="cccccsssssaaaccaaasscccsaaaa" />
    </g>
    <path
       sodipodi:nodetypes="cccccccccccc"
       d="m 678.84467,191.94177 16.32352,1e-5 80.59578,4e-5 H 760.849 l -50.38646,4e-5 72.43406,-0.004 V 202.356 l -104.05193,0.004 -24.39506,-0.004 v -3.47002 h 24.39508 z"
       style="opacity:0.999883;fill:#ffffff;fill-opacity:1;fill-rule:evenodd;stroke:none;stroke-width:0.755906;stroke-linecap:round;stroke-linejoin:round;stroke-miterlimit:10;stroke-opacity:1"
       id="rect220963" />
    <path
       sodipodi:nodetypes="ccacaccccccsccccccccsccccccacaccssasscccssccssscssacssscccccccc"
       d="m 705.86522,129.06549 -8.34956,19.57615 c 0,0 -0.78621,1.16516 -1.2504,1.69019 -0.2931,0.33152 -0.96242,0.91436 -0.96242,0.91436 0,0 -1.26044,0.72716 -1.73311,1.26355 -0.55639,0.63141 -1.21887,2.211 -1.21887,2.211 l 0.004,4.2427 h 13.13476 v 5.39843 h -13.13476 v 12.44727 c 0.002,1.39557 1.12396,2.51758 2.51953,2.51758 h 0.30273 l -0.008,12.91601 h 15.29297 l 0.006,-12.91601 h 50.3457 l 0.0352,13.01562 H 775.765 l -0.0449,-13.01562 h 0.37305 c 1.39557,0 2.52032,-1.12201 2.51953,-2.51758 l -0.0312,-12.25391 h -12.85352 v -5.20703 h 12.85352 v -4.60534 c 0,0 -0.35954,-0.96934 -0.66839,-1.37453 -0.5612,-0.73627 -2.08644,-1.83305 -2.08644,-1.83305 0,0 -0.77326,-0.64469 -1.10569,-1.02014 -0.45655,-0.51565 -1.2068,-1.67708 -1.2068,-1.67708 l -7.88005,-18.90218 c 0,0 -0.96436,-3.43062 -4.98814,-4.61267 -4.33564,-1.27366 -11.42005,-2.21904 -17.27132,-2.63152 -3.31491,-0.23368 -5.47656,-0.29161 -8.21702,-0.27318 -3.28362,0.0221 -6.28413,0.12811 -9.84034,0.45972 -5.51739,0.51449 -11.14367,1.60305 -15.06667,2.64878 -3.15794,0.8418 -4.38502,3.53848 -4.38502,3.53848 z m 61.83091,21.12052 c 0,0 -5.04627,-0.94647 -11.46154,-1.60125 -6.76671,-0.69064 -15.05651,-1.09158 -20.55409,-1.09459 -5.60619,-0.003 -14.07901,0.49568 -20.95983,1.19213 -6.4371,0.65155 -11.48091,1.50371 -11.48091,1.50371 l 6.84718,-16.10613 c 0,0 0.23421,-0.60823 0.63085,-1.16333 0.28527,-0.39924 0.69228,-0.73328 0.97992,-0.97046 0.26407,-0.21774 0.66668,-0.48128 1.07509,-0.66629 0.5398,-0.24454 1.06636,-0.38109 1.06636,-0.38109 0,0 4.92446,-1.09824 10.58292,-1.80966 3.78764,-0.47622 8.01394,-0.65715 10.90502,-0.67189 3.62481,-0.0185 9.94688,0.43776 14.88155,1.05344 2.31352,0.28866 6.88439,1.23556 6.88439,1.23556 0,0 0.89473,0.26884 1.67905,0.72254 0.36276,0.20984 0.68453,0.54173 0.91444,0.75668 0.26585,0.24855 0.6214,0.68434 0.86173,1.08165 0.26004,0.4299 0.39463,0.81285 0.39463,0.81285 z m -44.56843,8.003 h 25.05236 v 9.06595 H 723.1277 Z"
       style="opacity:0.999883;fill:#ffffff;fill-opacity:1;fill-rule:evenodd;stroke:none;stroke-width:0.755906;stroke-linecap:round;stroke-linejoin:round;stroke-miterlimit:10;stroke-opacity:1"
       id="rect220966" />
  </g>
</svg>
