<?xml version="1.0" encoding="UTF-8" standalone="no"?>
<svg
   xmlns:dc="http://purl.org/dc/elements/1.1/"
   xmlns:cc="http://creativecommons.org/ns#"
   xmlns:rdf="http://www.w3.org/1999/02/22-rdf-syntax-ns#"
   xmlns:svg="http://www.w3.org/2000/svg"
   xmlns="http://www.w3.org/2000/svg"
   xmlns:sodipodi="http://sodipodi.sourceforge.net/DTD/sodipodi-0.dtd"
   xmlns:inkscape="http://www.inkscape.org/namespaces/inkscape"
   version="1.1"
   id="svg8427"
   width="199.99789"
   height="308.97003"
   viewBox="0 0 199.9979 308.97004"
   sodipodi:docname="Turkey_road_sign_P-3c.svg"
   inkscape:export-filename="C:\Users\Adinan\Documents\rect9004.png"
   inkscape:export-xdpi="96"
   inkscape:export-ydpi="96"
   inkscape:version="1.0 (4035a4fb49, 2020-05-01)">
  <metadata
     id="metadata8433">
    <rdf:RDF>
      <cc:Work
         rdf:about="">
        <dc:format>image/svg+xml</dc:format>
        <dc:type
           rdf:resource="http://purl.org/dc/dcmitype/StillImage" />
        <dc:title></dc:title>
      </cc:Work>
    </rdf:RDF>
  </metadata>
  <defs
     id="defs8431">
    <clipPath
       id="clipPath124490"
       clipPathUnits="userSpaceOnUse">
      <path
         id="path124488"
         d="M 0,0 H 260.37 V 255.2 H 0 Z" />
    </clipPath>
    <clipPath
       id="clipPath136036"
       clipPathUnits="userSpaceOnUse">
      <path
         id="path136034"
         d="M 0,0 H 264.34 V 266.57 H 0 Z" />
    </clipPath>
    <clipPath
       id="clipPath191701"
       clipPathUnits="userSpaceOnUse">
      <path
         id="path191699"
         d="M 0,0 H 227.21 V 241.73 H 0 Z" />
    </clipPath>
    <clipPath
       id="clipPath195117"
       clipPathUnits="userSpaceOnUse">
      <path
         id="path195115"
         d="M 0,0 H 101.29 V 102.44 H 0 Z" />
    </clipPath>
    <clipPath
       clipPathUnits="userSpaceOnUse"
       id="clipPath195501">
      <path
         d="M 0,0 H 382.07 V 114.05 H 0 Z"
         id="path195499" />
    </clipPath>
  </defs>
  <sodipodi:namedview
     inkscape:document-rotation="0"
     pagecolor="#ffffff"
     bordercolor="#666666"
     borderopacity="1"
     objecttolerance="10"
     gridtolerance="10"
     guidetolerance="10"
     inkscape:pageopacity="0"
     inkscape:pageshadow="2"
     inkscape:window-width="1920"
     inkscape:window-height="1001"
     id="namedview8429"
     showgrid="false"
     inkscape:zoom="0.5"
     inkscape:cx="207.34914"
     inkscape:cy="428.07075"
     inkscape:window-x="-9"
     inkscape:window-y="-9"
     inkscape:window-maximized="1"
     inkscape:current-layer="g8435">
    <inkscape:grid
       type="xygrid"
       id="grid18096"
       originx="-599.40032"
       originy="-116.30998" />
  </sodipodi:namedview>
  <g
     inkscape:groupmode="layer"
     inkscape:label="Image"
     id="g8435"
     transform="translate(-982.6904,22.93567)">
    <g
       style="stroke:none;stroke-width:0.343498"
       transform="matrix(3.1538304,0,0,-3.0729759,388.49101,120.68906)"
       id="g124482">
      <g
         style="stroke:none;stroke-width:0.343498"
         transform="scale(0.27653,0.28213)"
         id="g124484">
        <g
           style="stroke:none;stroke-width:0.343498"
           clip-path="url(#clipPath124490)"
           id="g124486" />
      </g>
    </g>
    <g
       style="stroke:none;stroke-width:0.328565"
       transform="matrix(3.0097305,0,0,-3.1985513,390.01663,129.22915)"
       id="g191693">
      <g
         style="stroke:none;stroke-width:0.328565"
         transform="scale(0.31689,0.29786)"
         id="g191695">
        <g
           style="stroke:none;stroke-width:0.328565"
           clip-path="url(#clipPath191701)"
           id="g191697">
          <path
             id="path191721"
             style="fill:none;stroke:none;stroke-width:0.0459992;stroke-linecap:butt;stroke-linejoin:round;stroke-miterlimit:10;stroke-dasharray:none;stroke-opacity:1"
             d="M 301.21842,35.778 V 159.27" />
        </g>
      </g>
    </g>
    <path
       d="m 995.742,-22.93567 h 173.8949 c 7.2307,0 13.0514,5.82105 13.0514,13.0516202 V 272.98271 c 0,7.2307 -5.8212,13.05166 -13.0515,13.05166 H 995.7419 c -7.2307,0 -13.0515,-5.82096 -13.0515,-13.05166 V -9.8840498 c 0,-7.2305702 5.8208,-13.0516202 13.0515,-13.0516202 z"
       style="opacity:1;fill:#00408c;fill-opacity:1;fill-rule:evenodd;stroke-width:3.08069;stroke-linecap:round;stroke-linejoin:round;stroke-miterlimit:0.1"
       id="rect9000-2"
       sodipodi:nodetypes="sssssssss" />
    <g
       id="g195495"
       transform="matrix(3.6990084,0,0,-3.7928809,590.99705,358.61005)"
       style="opacity:1;fill:#ffffff;stroke:none;stroke-width:0.23349">
      <g
         id="g195497"
         clip-path="url(#clipPath195501)"
         style="fill:#ffffff;stroke:none;stroke-width:0.23349">
        <path
           id="rect220966-4"
           style="opacity:1;fill:#ffffff;fill-opacity:1;fill-rule:evenodd;stroke:none;stroke-width:0.201809;stroke-linecap:round;stroke-linejoin:round;stroke-miterlimit:10;stroke-opacity:1"
           d="m 129.04125,42.698755 -1.75102,-5.263161 c 0,0 -0.18103,-0.319975 -0.29178,-0.46671 -0.07,-0.09266 -0.23379,-0.259119 -0.23379,-0.259119 0,0 -0.31736,-0.217561 -0.43011,-0.367434 -0.13271,-0.176425 -0.271,-0.600845 -0.271,-0.600845 l 0.10192,-1.098584 3.48763,0.304922 0.12849,-1.397948 -3.4877,-0.304929 0.29629,-3.223273 c 0.0337,-0.36135 0.35838,-0.625845 0.72893,-0.593448 l 0.0804,0.0071 0.30556,-3.344823 4.06069,0.355024 -0.30555,3.344821 13.36808,1.168763 0.3193,-3.369621 3.9606,0.346272 -0.32176,3.369406 0.0991,0.0087 c 0.37053,0.0324 0.64249,0.349057 0.60906,0.710428 l -0.30022,3.172457 -3.41303,-0.298399 -0.12391,1.348385 3.41294,0.298391 -0.10964,1.192573 c 0,0 -0.11857,0.242667 -0.21021,0.340423 -0.16654,0.177632 -0.59763,0.426242 -0.59763,0.426242 0,0 -0.22069,0.148989 -0.31788,0.238499 -0.13349,0.122931 -0.36036,0.406271 -0.36036,0.406271 l -2.5423,4.711869 c 0,0 -0.33772,0.865986 -1.43429,1.078671 -1.18154,0.22917 -3.08514,0.309517 -4.64862,0.280494 -0.88576,-0.01643 -1.46112,-0.05161 -2.18835,-0.119974 -0.87135,-0.08201 -1.66554,-0.179064 -2.60191,-0.34749 -1.45276,-0.261314 -2.92078,-0.673814 -3.93754,-1.03568 -0.81847,-0.291298 -1.08011,-1.018103 -1.08011,-1.018103 z m 16.92048,-4.033856 c 0,0 -1.36245,0.127943 -3.08145,0.148571 -1.81319,0.02176 -4.02388,-0.06686 -5.48371,-0.193708 -1.48864,-0.129459 -3.72654,-0.455201 -5.53701,-0.795286 -1.69369,-0.318155 -3.01267,-0.655919 -3.01267,-0.655919 l 1.43471,4.329707 c 0,0 0.0476,0.162939 0.13981,0.315896 0.0662,0.110007 0.16636,0.205957 0.23709,0.274055 0.0649,0.06252 0.16558,0.140106 0.2696,0.197493 0.13752,0.07585 0.27409,0.123443 0.27409,0.123443 0,0 1.28143,0.398713 2.76696,0.714298 0.99438,0.211248 2.11227,0.356213 2.87958,0.427147 0.96204,0.08899 2.65156,0.117555 3.97651,0.07268 0.62116,-0.02103 1.8574,-0.160137 1.8574,-0.160137 0,0 0.24397,-0.04884 0.46304,-0.148124 0.10131,-0.04592 0.19464,-0.124393 0.26081,-0.174715 0.0765,-0.05819 0.18128,-0.162788 0.25455,-0.260096 0.0793,-0.105288 0.12413,-0.201331 0.12413,-0.201331 z m -11.64358,-3.10706 6.65205,0.581586 0.21579,-2.34767 -6.65205,-0.581584 z"
           sodipodi:nodetypes="ccacaccccccsccccccccsccccccacaccssasscccssccssscssacssscccccccc" />
      </g>
    </g>
    <path
       sodipodi:nodetypes="sssssscssssssscccsscssssssssscs"
       id="path9038-5"
       d="m 994.5274,282.19178 c -4.0751,-0.52307 -7.3155,-3.8014 -7.8269,-7.91776 -0.1071,-0.85952 -0.1071,-284.3409 0,-285.20051 0.2227,-1.77296 0.9084,-3.35598 2.0634,-4.74555 1.2845,-1.54545 2.983,-2.5646 5.1411,-3.08487 0.5195,-0.12506 3.9437,-0.13149 88.5921,-0.15247 62.6162,-0.0171 87.8597,4e-5 88.3453,0.0514 4.1959,0.47736 7.4783,3.73017 7.9995,7.92786 0.1071,0.85952 0.1071,284.34091 0,285.20051 -0.5165,4.16129 -3.762,7.40656 -7.9236,7.92362 -0.7679,0.0955 -175.6474,0.0904 -176.3909,-0.004 z m 176.7494,-3.07418 c 2.2403,-0.59865 3.8999,-2.30073 4.4858,-4.52112 l 0.1627,-0.64877 V 184.70708 -10.60018 l -0.1628,-0.64872 c -0.5704,-2.2502 -2.2664,-3.95408 -4.4944,-4.5153 l -0.6754,-0.17003 h -87.5907 c -83.2286,0 -88.0096,0.004 -88.5402,0.12506 -1.1932,0.26596 -2.1975,0.81528 -3.0511,1.66906 -0.824,0.82376 -1.3692,1.79832 -1.6656,2.97678 -0.1156,0.46255 -0.1199,111.75538 -0.1456,195.32996 0,58.79832 0,89.01553 0.047,89.49298 0.094,0.95061 0.2313,1.45089 0.6125,2.23465 0.8887,1.82962 2.711,3.10231 4.7976,3.34977 0.257,0.03 39.9618,0.0514 88.2314,0.0458 l 87.3745,-0.0128 z"
       style="opacity:1;fill:#ffffff;fill-opacity:1;stroke-width:0.0870806" />
    <path
       id="rect130784"
       style="opacity:1;fill:#ffffff;fill-rule:evenodd;stroke-width:0;stroke-linecap:square;stroke-linejoin:round;paint-order:fill markers stroke"
       d="m 1102.6401,251.78407 v 6.84251 h -69.9476 v 3.4129 h 69.9476 56.1702 0.3512 v -10.25541 z" />
    <path
       id="rect130794"
       style="opacity:1;fill:#ffffff;fill-rule:evenodd;stroke-width:0;stroke-linecap:square;stroke-linejoin:round;paint-order:fill markers stroke"
       d="M 1032.6925,4.7685802 V 158.9086 h 21.0544 V 103.15653 H 1085.4 c 27.2525,0 49.1939,-21.94137 49.1939,-49.19395 0,-27.25263 -21.9414,-49.1939998 -49.1939,-49.1939998 h -31.6531 z m 21.0544,21.6567298 h 32.1632 c 15.3634,0 27.7296,12.36628 27.7296,27.72965 0,15.36337 -12.3662,27.72961 -27.7296,27.72961 h -32.1632 z" />
  </g>
</svg>
