<?xml version="1.0" encoding="UTF-8" standalone="no"?>
<svg
   xmlns:dc="http://purl.org/dc/elements/1.1/"
   xmlns:cc="http://creativecommons.org/ns#"
   xmlns:rdf="http://www.w3.org/1999/02/22-rdf-syntax-ns#"
   xmlns:svg="http://www.w3.org/2000/svg"
   xmlns="http://www.w3.org/2000/svg"
   xmlns:sodipodi="http://sodipodi.sourceforge.net/DTD/sodipodi-0.dtd"
   xmlns:inkscape="http://www.inkscape.org/namespaces/inkscape"
   version="1.1"
   id="svg8427"
   width="199.99789"
   height="308.97009"
   viewBox="0 0 199.9979 308.9701"
   sodipodi:docname="Turkey_road_sign_P-3d.svg"
   inkscape:export-filename="C:\Users\Adinan\Documents\rect9004.png"
   inkscape:export-xdpi="96"
   inkscape:export-ydpi="96"
   inkscape:version="1.0 (4035a4fb49, 2020-05-01)">
  <metadata
     id="metadata8433">
    <rdf:RDF>
      <cc:Work
         rdf:about="">
        <dc:format>image/svg+xml</dc:format>
        <dc:type
           rdf:resource="http://purl.org/dc/dcmitype/StillImage" />
        <dc:title></dc:title>
      </cc:Work>
    </rdf:RDF>
  </metadata>
  <defs
     id="defs8431">
    <clipPath
       id="clipPath124490"
       clipPathUnits="userSpaceOnUse">
      <path
         id="path124488"
         d="M 0,0 H 260.37 V 255.2 H 0 Z" />
    </clipPath>
    <clipPath
       id="clipPath136036"
       clipPathUnits="userSpaceOnUse">
      <path
         id="path136034"
         d="M 0,0 H 264.34 V 266.57 H 0 Z" />
    </clipPath>
    <clipPath
       id="clipPath191701"
       clipPathUnits="userSpaceOnUse">
      <path
         id="path191699"
         d="M 0,0 H 227.21 V 241.73 H 0 Z" />
    </clipPath>
    <clipPath
       id="clipPath195117"
       clipPathUnits="userSpaceOnUse">
      <path
         id="path195115"
         d="M 0,0 H 101.29 V 102.44 H 0 Z" />
    </clipPath>
    <clipPath
       clipPathUnits="userSpaceOnUse"
       id="clipPath195501">
      <path
         d="M 0,0 H 382.07 V 114.05 H 0 Z"
         id="path195499" />
    </clipPath>
  </defs>
  <sodipodi:namedview
     inkscape:document-rotation="0"
     pagecolor="#ffffff"
     bordercolor="#666666"
     borderopacity="1"
     objecttolerance="10"
     gridtolerance="10"
     guidetolerance="10"
     inkscape:pageopacity="0"
     inkscape:pageshadow="2"
     inkscape:window-width="1920"
     inkscape:window-height="1001"
     id="namedview8429"
     showgrid="false"
     inkscape:zoom="0.5"
     inkscape:cx="-95.301656"
     inkscape:cy="386.14151"
     inkscape:window-x="-9"
     inkscape:window-y="-9"
     inkscape:window-maximized="1"
     inkscape:current-layer="g8435">
    <inkscape:grid
       type="xygrid"
       id="grid18096"
       originx="-902.05115"
       originy="-158.23922" />
  </sodipodi:namedview>
  <g
     inkscape:groupmode="layer"
     inkscape:label="Image"
     id="g8435"
     transform="translate(-1285.3412,-18.99357)">
    <g
       style="stroke:none;stroke-width:0.343498"
       transform="matrix(3.1538304,0,0,-3.0729759,388.49101,120.68906)"
       id="g124482">
      <g
         style="stroke:none;stroke-width:0.343498"
         transform="scale(0.27653,0.28213)"
         id="g124484">
        <g
           style="stroke:none;stroke-width:0.343498"
           clip-path="url(#clipPath124490)"
           id="g124486" />
      </g>
    </g>
    <g
       style="stroke:none;stroke-width:0.328565"
       transform="matrix(3.0097305,0,0,-3.1985513,390.01663,129.22915)"
       id="g191693">
      <g
         style="stroke:none;stroke-width:0.328565"
         transform="scale(0.31689,0.29786)"
         id="g191695">
        <g
           style="stroke:none;stroke-width:0.328565"
           clip-path="url(#clipPath191701)"
           id="g191697">
          <path
             id="path191721"
             style="fill:none;stroke:none;stroke-width:0.0459992;stroke-linecap:butt;stroke-linejoin:round;stroke-miterlimit:10;stroke-dasharray:none;stroke-opacity:1"
             d="M 301.21842,35.778 V 159.27" />
        </g>
      </g>
    </g>
    <path
       sodipodi:nodetypes="sssssssss"
       id="path141576"
       style="opacity:1;fill:#00408c;fill-opacity:1;fill-rule:evenodd;stroke-width:3.08069;stroke-linecap:round;stroke-linejoin:round;stroke-miterlimit:0.1"
       d="m 1298.3932,18.99357 h 173.8944 c 7.2307,0 13.0515,5.82105 13.0515,13.05163 v 282.86679 c 0,7.23066 -5.8208,13.05167 -13.0515,13.05167 h -173.8945 c -7.2307,0 -13.0515,-5.82101 -13.0519,-13.05167 V 32.0452 c 0,-7.23058 5.8212,-13.05163 13.0519,-13.05163 z" />
    <path
       d="m 1393.0553,293.71267 v 6.84251 l -84.0043,0.004 v 3.4129 l 84.0043,-0.004 68.7831,0.004 h 0.3512 v -10.25545 z"
       style="opacity:1;fill:#ffffff;fill-rule:evenodd;stroke-width:0;stroke-linecap:square;stroke-linejoin:round;paint-order:fill markers stroke"
       id="path140894"
       sodipodi:nodetypes="ccccccccc" />
    <path
       d="M 1335.6028,46.69658 V 200.8366 h 21.0544 v -55.75207 h 31.6527 c 27.2525,0 49.1939,-21.94137 49.1939,-49.194 0,-27.25263 -21.9414,-49.19395 -49.1939,-49.19395 h -31.6527 z m 21.0544,21.65673 h 32.1628 c 15.3634,0 27.7296,12.36624 27.7296,27.72961 0,15.36336 -12.3662,27.72965 -27.7296,27.72965 h -32.1628 z"
       style="opacity:1;fill:#ffffff;fill-rule:evenodd;stroke-width:0;stroke-linecap:square;stroke-linejoin:round;paint-order:fill markers stroke"
       id="path140900" />
    <path
       d="m 1407.2524,244.69826 22.899,15.0753 26.5836,-0.44541 4.1141,9.48201 -4.4987,11.27361 -10.8039,2.66683 c 0,0 -0.4835,-4.2454 -3.1821,-7.12629 -1.3311,-1.4216 -3.1102,-2.54177 -5.0379,-3.14282 -1.5945,-0.49741 -3.3462,-0.60966 -4.5364,-0.50996 -1.2711,0.10664 -2.9843,0.45856 -4.53,1.29753 -1.8351,0.99623 -3.4849,2.60863 -4.5727,4.31298 -1.9975,3.12942 -1.6862,7.16179 -1.6862,7.16179 l -50.2059,4.4138 c 0,0 -0.5221,-4.2024 -3.1693,-7.05305 -1.1589,-1.24776 -2.8039,-2.37226 -4.47,-2.98633 -1.7713,-0.65254 -3.5693,-0.75275 -4.9085,-0.6471 -1.2814,0.0955 -3.1046,0.37389 -4.7051,1.25209 -1.8292,1.00355 -3.4194,2.71107 -4.4987,4.35499 -2.0909,3.18493 -1.7251,7.14346 -1.7251,7.14346 l -14.9347,0.1786 -3.968,-11.41323 0.6976,-11.41858 21.4737,-1.88783 15.6606,-18.4652 z m -0.3083,3.7127 -13.5226,1.18874 1.1692,13.29879 29.862,-2.62529 z m -16.7776,1.47488 -13.3346,1.17229 -7.7827,14.08576 22.2865,-1.95923 z m 42.6883,23.933 c 5.4464,-0.47852 10.298,3.5972 10.7751,9.02029 0.4767,5.42296 -3.5894,10.28508 -9.0359,10.7639 -5.4465,0.47852 -10.3015,-3.59895 -10.7781,-9.02199 -0.4772,-5.42305 3.5924,-10.28342 9.0389,-10.7622 z m -73.6437,6.47427 c 5.446,-0.47852 10.298,3.59724 10.7747,9.02028 0.4767,5.42292 -3.5894,10.28513 -9.0359,10.76391 -5.446,0.47852 -10.3002,-3.59912 -10.7769,-9.02212 -0.4771,-5.42301 3.5916,-10.28329 9.0381,-10.76207 z m 74.1263,-0.98471 c -2.4472,0.21543 -4.219,2.31513 -4.0014,4.78731 0.2184,2.47209 2.3286,4.23396 4.7753,4.01883 2.4473,-0.21542 4.2144,-2.31786 3.9972,-4.79004 -0.2184,-2.47214 -2.3243,-4.23118 -4.7711,-4.0161 z m -73.6441,6.47423 c -2.4467,0.21542 -4.2173,2.31508 -4.0001,4.7873 0.2184,2.47205 2.3277,4.23388 4.7745,4.01884 2.4467,-0.21543 4.2151,-2.31804 3.998,-4.79005 -0.2184,-2.47217 -2.3252,-4.23122 -4.7724,-4.01609 z"
       style="opacity:1;fill:#ffffff;fill-opacity:1;fill-rule:evenodd;stroke:none;stroke-width:10.2047;stroke-linecap:round;stroke-linejoin:round;stroke-miterlimit:10"
       id="path141553" />
    <path
       style="opacity:1;fill:#ffffff;fill-opacity:1;stroke-width:0.0870806"
       d="m 1297.1786,324.12102 c -4.0751,-0.52306 -7.3155,-3.80135 -7.8269,-7.91775 -0.1071,-0.85952 -0.1113,-284.34091 0,-285.20052 0.2227,-1.77296 0.9084,-3.35598 2.0634,-4.74554 1.2845,-1.54546 2.983,-2.5646 5.1411,-3.08488 0.5196,-0.12506 3.9437,-0.13148 88.5917,-0.15247 62.6162,-0.0171 87.8601,4e-5 88.3453,0.0514 4.1959,0.47737 7.4783,3.73018 7.9999,7.92786 0.1071,0.85953 0.1071,284.34091 0,285.20052 -0.5165,4.16132 -3.762,7.40655 -7.9232,7.92362 -0.7684,0.0955 -175.6474,0.0904 -176.3909,-0.004 z m 176.7494,-3.07413 c 2.2403,-0.5987 3.8999,-2.30074 4.4854,-4.52113 l 0.1627,-0.64876 V 226.63637 31.32906 l -0.1628,-0.64872 c -0.5704,-2.2502 -2.2665,-3.95408 -4.4944,-4.5153 l -0.6754,-0.17003 h -87.5907 c -83.2282,0 -88.0091,0.004 -88.5398,0.12506 -1.1932,0.26597 -2.1975,0.81528 -3.0515,1.66906 -0.8236,0.82376 -1.3688,1.79832 -1.6656,2.97678 -0.1156,0.46255 -0.1242,111.75543 -0.1456,195.32996 0,58.79833 0,89.01553 0.047,89.49298 0.094,0.95062 0.2313,1.4509 0.6129,2.23465 0.8882,1.82963 2.711,3.10231 4.7972,3.34978 0.2569,0.03 39.9622,0.0514 88.2318,0.0458 l 87.3745,-0.0129 z"
       id="path141578"
       sodipodi:nodetypes="sssssscssssssscccsscssssssssscs" />
  </g>
</svg>
