<?xml version="1.0" encoding="UTF-8" standalone="no"?>
<svg
   xmlns:dc="http://purl.org/dc/elements/1.1/"
   xmlns:cc="http://creativecommons.org/ns#"
   xmlns:rdf="http://www.w3.org/1999/02/22-rdf-syntax-ns#"
   xmlns:svg="http://www.w3.org/2000/svg"
   xmlns="http://www.w3.org/2000/svg"
   xmlns:sodipodi="http://sodipodi.sourceforge.net/DTD/sodipodi-0.dtd"
   xmlns:inkscape="http://www.inkscape.org/namespaces/inkscape"
   version="1.1"
   id="svg8427"
   width="199.9978"
   height="308.97009"
   viewBox="0 0 199.99781 308.9701"
   sodipodi:docname="Turkey_road_sign_P-3e.svg"
   inkscape:export-filename="C:\Users\Adinan\Documents\rect9004.png"
   inkscape:export-xdpi="96"
   inkscape:export-ydpi="96"
   inkscape:version="1.0 (4035a4fb49, 2020-05-01)">
  <metadata
     id="metadata8433">
    <rdf:RDF>
      <cc:Work
         rdf:about="">
        <dc:format>image/svg+xml</dc:format>
        <dc:type
           rdf:resource="http://purl.org/dc/dcmitype/StillImage" />
        <dc:title></dc:title>
      </cc:Work>
    </rdf:RDF>
  </metadata>
  <defs
     id="defs8431">
    <clipPath
       id="clipPath124490"
       clipPathUnits="userSpaceOnUse">
      <path
         id="path124488"
         d="M 0,0 H 260.37 V 255.2 H 0 Z" />
    </clipPath>
    <clipPath
       id="clipPath136036"
       clipPathUnits="userSpaceOnUse">
      <path
         id="path136034"
         d="M 0,0 H 264.34 V 266.57 H 0 Z" />
    </clipPath>
    <clipPath
       id="clipPath191701"
       clipPathUnits="userSpaceOnUse">
      <path
         id="path191699"
         d="M 0,0 H 227.21 V 241.73 H 0 Z" />
    </clipPath>
    <clipPath
       id="clipPath195117"
       clipPathUnits="userSpaceOnUse">
      <path
         id="path195115"
         d="M 0,0 H 101.29 V 102.44 H 0 Z" />
    </clipPath>
    <clipPath
       clipPathUnits="userSpaceOnUse"
       id="clipPath195501">
      <path
         d="M 0,0 H 382.07 V 114.05 H 0 Z"
         id="path195499" />
    </clipPath>
  </defs>
  <sodipodi:namedview
     inkscape:document-rotation="0"
     pagecolor="#ffffff"
     bordercolor="#666666"
     borderopacity="1"
     objecttolerance="10"
     gridtolerance="10"
     guidetolerance="10"
     inkscape:pageopacity="0"
     inkscape:pageshadow="2"
     inkscape:window-width="1920"
     inkscape:window-height="1001"
     id="namedview8429"
     showgrid="false"
     inkscape:zoom="0.5"
     inkscape:cx="272.04724"
     inkscape:cy="612.21227"
     inkscape:window-x="-9"
     inkscape:window-y="-9"
     inkscape:window-maximized="1"
     inkscape:current-layer="g8435">
    <inkscape:grid
       type="xygrid"
       id="grid18096"
       originx="-534.70227"
       originy="67.831542" />
  </sodipodi:namedview>
  <g
     inkscape:groupmode="layer"
     inkscape:label="Image"
     id="g8435"
     transform="translate(-917.9923,207.07719)">
    <g
       style="stroke:none;stroke-width:0.343498"
       transform="matrix(3.1538304,0,0,-3.0729759,388.49101,120.68906)"
       id="g124482">
      <g
         style="stroke:none;stroke-width:0.343498"
         transform="scale(0.27653,0.28213)"
         id="g124484">
        <g
           style="stroke:none;stroke-width:0.343498"
           clip-path="url(#clipPath124490)"
           id="g124486" />
      </g>
    </g>
    <g
       style="stroke:none;stroke-width:0.328565"
       transform="matrix(3.0097305,0,0,-3.1985513,390.01663,129.22915)"
       id="g191693">
      <g
         style="stroke:none;stroke-width:0.328565"
         transform="scale(0.31689,0.29786)"
         id="g191695">
        <g
           style="stroke:none;stroke-width:0.328565"
           clip-path="url(#clipPath191701)"
           id="g191697">
          <path
             id="path191721"
             style="fill:none;stroke:none;stroke-width:0.0459992;stroke-linecap:butt;stroke-linejoin:round;stroke-miterlimit:10;stroke-dasharray:none;stroke-opacity:1"
             d="M 301.21842,35.778 V 159.27" />
        </g>
      </g>
    </g>
    <path
       d="m 931.0437,-207.07719 h 173.8949 c 7.2307,0 13.0515,5.82105 13.0515,13.05162 V 88.841226 c 0,7.230659 -5.8208,13.051664 -13.0515,13.051664 H 931.0437 c -7.2307,0 -13.0514,-5.821005 -13.0514,-13.051664 V -194.02557 c 0,-7.23057 5.8208,-13.05162 13.0515,-13.05162 z"
       style="opacity:1;fill:#00408c;fill-opacity:1;fill-rule:evenodd;stroke-width:3.08069;stroke-linecap:round;stroke-linejoin:round;stroke-miterlimit:0.1"
       id="path141580"
       sodipodi:nodetypes="sssssssss" />
    <path
       sodipodi:nodetypes="sssssscssssssscccsscssssssssscs"
       id="path141582"
       d="m 929.8295,98.050252 c -4.0755,-0.523062 -7.3159,-3.801354 -7.8273,-7.917752 -0.107,-0.859521 -0.107,-284.34091 0,-285.20051 0.2227,-1.77297 0.9088,-3.35598 2.0639,-4.74555 1.2844,-1.54546 2.9825,-2.5646 5.1407,-3.08488 0.5199,-0.12506 3.944,-0.13148 88.592,-0.15247 62.6163,-0.0171 87.8601,5e-5 88.3454,0.0514 4.1958,0.47736 7.4782,3.73017 7.9999,7.92786 0.107,0.85952 0.107,284.340902 0,285.200509 -0.5165,4.161326 -3.7621,7.406554 -7.9233,7.92362 -0.7683,0.09551 -175.6474,0.09037 -176.3909,-0.0043 z m 176.7494,-3.074129 c 2.2403,-0.598697 3.8999,-2.300736 4.4854,-4.521126 l 0.1628,-0.648763 V 0.56559995 -194.7417 l -0.1627,-0.64872 c -0.5705,-2.2502 -2.2665,-3.95408 -4.4944,-4.51531 l -0.6754,-0.17002 h -87.5908 c -83.2286,0 -88.0095,0.004 -88.5402,0.12506 -1.1932,0.26596 -2.1975,0.81527 -3.0511,1.66906 -0.824,0.82376 -1.3692,1.79831 -1.6656,2.97678 -0.1156,0.46254 -0.1242,111.75542 -0.1456,195.32995995 0,58.79836405 0,89.01552505 0.047,89.49297505 0.094,0.950617 0.2313,1.450937 0.6129,2.234695 0.8883,1.829624 2.711,3.10231 4.7976,3.349729 0.257,0.02998 39.9618,0.05139 88.2315,0.04583 l 87.3744,-0.01285 z"
       style="opacity:1;fill:#ffffff;fill-opacity:1;stroke-width:0.0870806" />
    <path
       sodipodi:nodetypes="ccccccccc"
       id="path141584"
       style="opacity:1;fill:#ffffff;fill-rule:evenodd;stroke-width:0;stroke-linecap:square;stroke-linejoin:round;paint-order:fill markers stroke"
       d="m 965.8391,67.641906 v 6.842505 h -24.1174 v 3.412901 l 84.0047,-0.0043 68.7831,0.004 h 0.3512 V 67.641563 Z" />
    <path
       id="path141586"
       style="opacity:1;fill:#ffffff;fill-rule:evenodd;stroke-width:0;stroke-linecap:square;stroke-linejoin:round;paint-order:fill markers stroke"
       d="M 968.2735,-179.37868 V -25.2387 h 21.0544 v -55.75204 h 31.6531 c 27.2525,0 49.1939,-21.9414 49.1939,-49.19399 0,-27.25263 -21.9414,-49.19395 -49.1939,-49.19395 h -31.6531 z m 21.0544,21.65673 h 32.1632 c 15.3633,0 27.7296,12.36624 27.7296,27.7296 0,15.36337 -12.3663,27.72966 -27.7296,27.72966 h -32.1632 z" />
    <path
       d="m 1044.8899,15.895089 21.6835,17.174661 26.7583,1.902133 3.2969,9.89385 -5.5176,10.933721 -11.0946,1.72461 c 0,0 -0.1114,-4.308612 -2.5684,-7.442616 -1.2121,-1.546444 -2.9012,-2.82958 -4.7861,-3.604044 -1.5581,-0.640411 -3.3089,-0.908645 -4.5141,-0.913227 -1.2874,-0.0038 -3.04,0.19701 -4.6674,0.903848 -1.9329,0.839092 -3.7334,2.314184 -4.9771,3.930952 -2.2845,2.968815 -2.3277,7.049452 -2.3277,7.049452 h -50.8518 c 0,0 -0.1542,-4.269938 -2.562,-7.369037 -1.0544,-1.356629 -2.6086,-2.632227 -4.2288,-3.39654 -1.7226,-0.812582 -3.521,-1.071778 -4.8765,-1.084456 -1.2964,-0.01713 -3.1534,0.101503 -4.84,0.84269 -1.9268,0.847144 -3.6764,2.422754 -4.9064,3.979648 -2.383,3.016611 -2.365,7.027695 -2.365,7.027695 l -15.0267,-1.141546 -2.9792,-11.820952 1.7102,-11.416181 h 21.7499 l 17.372,-17.174661 z m -0.6352,3.704776 h -13.696 V 33.06975 h 30.2462 z m -16.9929,0 h -13.5064 l -9.0667,13.469885 h 22.5731 z m 40.7896,27.827128 c 5.5163,-4.3e-5 10.033,4.525452 10.033,10.018267 0,5.492814 -4.5167,10.02045 -10.033,10.02045 -5.5163,0 -10.0351,-4.527636 -10.0351,-10.02045 0,-5.492815 4.5188,-10.018267 10.0351,-10.018267 z m -74.5902,0 c 5.5168,-4.3e-5 10.0334,4.525452 10.0334,10.018267 0,5.492814 -4.5166,10.02045 -10.0334,10.02045 -5.5162,0 -10.0346,-4.527636 -10.0346,-10.02045 0,-5.492815 4.5184,-10.018267 10.0346,-10.018267 z m 74.5902,5.559113 c -2.4784,0 -4.4438,1.95524 -4.4438,4.459154 0,2.503999 1.9654,4.461295 4.4438,4.461295 2.4785,0 4.4417,-1.957296 4.4417,-4.461295 0,-2.503914 -1.9632,-4.459154 -4.4417,-4.459154 z m -74.5902,0 c -2.478,0 -4.4434,1.95524 -4.4434,4.459154 0,2.503999 1.9654,4.461295 4.4434,4.461295 2.4789,0 4.4418,-1.957296 4.4418,-4.461295 0,-2.503914 -1.9629,-4.459154 -4.4418,-4.459154 z"
       style="opacity:1;fill:#ffffff;fill-opacity:1;fill-rule:evenodd;stroke:none;stroke-width:10.2047;stroke-linecap:round;stroke-linejoin:round;stroke-miterlimit:10"
       id="path142194" />
  </g>
</svg>
