<?xml version="1.0" encoding="UTF-8" standalone="no"?>
<svg
   xmlns:dc="http://purl.org/dc/elements/1.1/"
   xmlns:cc="http://creativecommons.org/ns#"
   xmlns:rdf="http://www.w3.org/1999/02/22-rdf-syntax-ns#"
   xmlns:svg="http://www.w3.org/2000/svg"
   xmlns="http://www.w3.org/2000/svg"
   xmlns:sodipodi="http://sodipodi.sourceforge.net/DTD/sodipodi-0.dtd"
   xmlns:inkscape="http://www.inkscape.org/namespaces/inkscape"
   inkscape:version="1.0 (4035a4fb49, 2020-05-01)"
   inkscape:export-ydpi="96"
   inkscape:export-xdpi="96"
   inkscape:export-filename="C:\Users\Adinan\Documents\rect9004.png"
   sodipodi:docname="Turkey_road_sign_P-7g.svg"
   viewBox="0 0 200.25716 203.16643"
   height="203.16643"
   width="200.25716"
   id="svg8427"
   version="1.1">
  <metadata
     id="metadata8433">
    <rdf:RDF>
      <cc:Work
         rdf:about="">
        <dc:format>image/svg+xml</dc:format>
        <dc:type
           rdf:resource="http://purl.org/dc/dcmitype/StillImage" />
        <dc:title></dc:title>
      </cc:Work>
    </rdf:RDF>
  </metadata>
  <defs
     id="defs8431">
    <clipPath
       clipPathUnits="userSpaceOnUse"
       id="clipPath124490">
      <path
         d="M 0,0 H 260.37 V 255.2 H 0 Z"
         id="path124488" />
    </clipPath>
  </defs>
  <sodipodi:namedview
     inkscape:current-layer="g8435"
     inkscape:window-maximized="1"
     inkscape:window-y="-9"
     inkscape:window-x="-9"
     inkscape:cy="98.858555"
     inkscape:cx="133.12851"
     inkscape:zoom="3.1393564"
     showgrid="false"
     id="namedview8429"
     inkscape:window-height="1001"
     inkscape:window-width="1920"
     inkscape:pageshadow="2"
     inkscape:pageopacity="0"
     guidetolerance="10"
     gridtolerance="10"
     objecttolerance="10"
     borderopacity="1"
     bordercolor="#666666"
     pagecolor="#ffffff"
     inkscape:document-rotation="0">
    <inkscape:grid
       originy="-51.60556"
       originx="-225.39187"
       id="grid18096"
       type="xygrid" />
  </sodipodi:namedview>
  <g
     transform="translate(-608.68197,87.640082)"
     id="g8435"
     inkscape:label="Image"
     inkscape:groupmode="layer">
    <path
       d="m 621.75051,-87.640082 h 174.12008 c 7.23997,0 13.06854,5.82857 13.06854,13.06854 V 102.45781 c 0,7.23998 -5.82857,13.06854 -13.06854,13.06854 H 621.75051 c -7.23997,0 -13.06854,-5.82856 -13.06854,-13.06854 V -74.571542 c 0,-7.23997 5.82857,-13.06854 13.06854,-13.06854 z"
       style="opacity:0.999883;fill:#00408c;fill-opacity:1;fill-rule:evenodd;stroke-width:3.0807;stroke-linecap:round;stroke-linejoin:round;stroke-miterlimit:0.1"
       id="rect9000-2" />
    <path
       sodipodi:nodetypes="sssssscssssssscccsscssssssssscs"
       id="path9038-5"
       d="m 620.53274,111.67852 c -4.08048,-0.52402 -7.32515,-3.80626 -7.83723,-7.92797 -0.10693,-0.86065 -0.10693,-178.505412 0,-179.366072 0.22056,-1.77533 0.90983,-3.36035 2.06635,-4.75175 1.28619,-1.5474 2.98684,-2.56787 5.14764,-3.08883 0.52041,-0.12547 3.94884,-0.13139 88.70673,-0.15295 62.69734,-0.0159 87.9737,4e-5 88.45995,0.0554 4.20133,0.47809 7.48768,3.73503 8.00987,7.93815 0.10693,0.86065 0.10693,178.505422 0,179.366072 -0.51767,4.16674 -3.76713,7.41621 -7.93388,7.93388 -0.76909,0.0956 -175.87498,0.0897 -176.61943,-0.006 z m 176.97843,-3.07807 c 2.24328,-0.5995 3.90502,-2.30377 4.49137,-4.52699 l 0.16411,-0.6496 v -89.356342 -89.35634 l -0.16473,-0.6496 c -0.57134,-2.25306 -2.26919,-3.95891 -4.49999,-4.5211 l -0.67645,-0.17047 h -87.704 c -83.33657,0 -88.12356,0.007 -88.65495,0.1252 -1.19475,0.26629 -2.20037,0.81638 -3.05521,1.67121 -0.82489,0.82489 -1.37088,1.80066 -1.66782,2.98065 -0.11655,0.46313 -0.1251,5.69627 -0.14616,89.37911 -0.0148,58.874541 0.002,89.130882 0.0498,89.608972 0.0951,0.95178 0.23251,1.45274 0.61355,2.23751 0.88952,1.83205 2.71455,3.10636 4.80367,3.35413 0.25803,0.0306 40.01367,0.0515 88.34584,0.0467 l 87.48748,-0.009 z"
       style="fill:#ffffff;fill-opacity:1;stroke-width:0.0870807" />
    <g
       id="g124482"
       transform="matrix(3.1538304,0,0,-3.0729759,388.49101,120.68906)"
       style="stroke:none;stroke-width:0.343498">
      <g
         id="g124484"
         transform="scale(0.27653,0.28213)"
         style="stroke:none;stroke-width:0.343498">
        <g
           id="g124486"
           clip-path="url(#clipPath124490)"
           style="stroke:none;stroke-width:0.343498" />
      </g>
    </g>
    <g
       transform="matrix(5.5044553,0,0,5.5044553,32.33852,-2809.9484)"
       style="font-size:30px;line-height:1.15;font-family:'ALS Direct';-inkscape-font-specification:'ALS Direct';fill:#ffffff;fill-opacity:1;stroke:none;stroke-width:0.181671;stroke-opacity:0.713725"
       id="g119107"
       aria-label="R">
      <path
         d="m 121.37966,510.67654 -1.97957,-10e-4 0.0266,7.19125 H 116.626 L 116.6064,497.883 h 6.95101 c 0.53297,0 1.03611,0.001 1.67793,0.11222 0.94776,0.16381 1.99164,0.71366 2.68917,1.30041 1.35953,1.14362 2.39218,2.66682 2.39218,5.00682 0,1.4945 -0.47893,2.62076 -1.31286,3.79869 -0.41405,0.58486 -0.93987,1.06182 -1.51381,1.46737 -0.44449,0.31408 -0.95283,0.5352 -1.46272,0.72557 -0.36552,0.13647 -0.74817,0.22933 -1.13289,0.29431 -0.30377,0.0513 -0.92123,0.0743 -0.92123,0.0743 z m 5.72489,-7.76656 c -0.1715,-0.44911 -0.4691,-0.85919 -0.82354,-1.18397 -0.4418,-0.40484 -0.98647,-0.71922 -1.55965,-0.89402 -0.53141,-0.16207 -1.43306,-0.11601 -1.66248,-0.11911 -0.32615,-0.004 -0.66067,-0.006 -0.97663,-0.006 l -2.66988,0.004 v 7.18222 l 2.38394,-0.003 c 0.45799,-3.4e-4 0.79261,1.1e-4 1.10498,-0.001 0.28784,-10e-4 1.28244,0.0437 1.88109,-0.14931 0.5861,-0.18899 1.1587,-0.50819 1.58015,-0.9572 0.48545,-0.5172 0.85837,-1.18829 0.9852,-1.88619 0.11927,-0.65634 -0.005,-1.36323 -0.24318,-1.98642 z"
         style="font-style:normal;font-variant:normal;font-weight:normal;font-stretch:normal;font-family:'Highway Gothic Wide';-inkscape-font-specification:'Highway Gothic Wide';fill:#ffffff;fill-opacity:1;stroke:none;stroke-width:0.181671;stroke-opacity:0.713725"
         id="path119105"
         sodipodi:nodetypes="cccccsssssaaaccaaasscccsaaaa" />
    </g>
    <path
       sodipodi:nodetypes="ccccccccccccc"
       d="m 642.20786,40.626186 h 9.17869 l 0.0153,15.977543 h 16.03409 v 9.183038 h -16.03409 l -0.0153,16.100753 h -9.17869 V 65.786767 h -16.05589 v -9.183038 h 16.05589 z"
       style="opacity:0.999883;fill:#ffffff;fill-opacity:1;fill-rule:evenodd;stroke-width:0.755906;stroke-linecap:round;stroke-linejoin:round;stroke-miterlimit:10"
       id="rect162467" />
    <g
       transform="matrix(1.029044,0,0,1.029044,408.87168,-393.89242)"
       style="font-size:30px;line-height:1.15;font-family:'ALS Direct';-inkscape-font-specification:'ALS Direct';fill:#ffffff;fill-opacity:1;stroke:none;stroke-width:0.971776;stroke-opacity:0.713725"
       id="text119055"
       aria-label="M">
      <path
         sodipodi:nodetypes="ccccccccccccc"
         id="path119057"
         style="font-style:normal;font-variant:normal;font-weight:normal;font-stretch:normal;font-family:'Highway Gothic Wide';-inkscape-font-specification:'Highway Gothic Wide';fill:#ffffff;fill-opacity:1;stroke:none;stroke-width:0.971776;stroke-opacity:0.713725"
         d="m 280.15763,477.02402 h -3.60219 l -0.008,-13.86426 -6.83087,11.15482 -6.82098,-11.13588 -0.0152,13.84543 -3.61608,10e-6 v -20.1 l 4.014,-0.0312 6.44253,10.47376 6.42576,-10.47311 4.01092,0.0304 z" />
    </g>
    <path
       d="m 723.45973,96.924743 -14.81781,0.01669 V 76.351658 l 14.81765,-0.02572 v 3.687722 l -11.06846,0.02572 -0.0541,4.519662 7.01068,0.0092 v 3.749185 l -7.01068,-0.0092 0.0541,4.945491 11.06862,-0.01669 z"
       style="font-style:normal;font-variant:normal;font-weight:normal;font-stretch:normal;font-size:30px;line-height:1.15;font-family:'Highway Gothic Wide';-inkscape-font-specification:'Highway Gothic Wide';fill:#ffffff;fill-opacity:1;stroke:none;stroke-width:1.51285;stroke-opacity:0.713725"
       id="path49967"
       sodipodi:nodetypes="ccccccccccccc" />
    <g
       transform="matrix(1.0412544,0,0,1.0412544,437.52622,-414.06082)"
       style="font-size:30px;line-height:1.15;font-family:'ALS Direct';-inkscape-font-specification:'ALS Direct';fill:#ffffff;fill-opacity:1;stroke:none;stroke-width:1.48537;stroke-opacity:0.713726"
       id="text18072"
       aria-label="T">
      <path
         sodipodi:nodetypes="ccccccccc"
         id="path18075"
         style="font-style:normal;font-variant:normal;font-weight:normal;font-stretch:normal;font-family:'Highway Gothic Wide';-inkscape-font-specification:'Highway Gothic Wide';fill:#ffffff;fill-opacity:1;stroke:none;stroke-width:1.48537;stroke-opacity:0.713726"
         d="m 294.81734,474.48971 h -5.72732 v 16.20325 h -3.5684 v -16.20313 l -5.69866,-1.3e-4 v -3.54 l 14.99438,10e-6 z" />
    </g>
    <g
       transform="matrix(1.0344504,0,0,1.0344504,631.74641,-439.79471)"
       style="font-size:30px;line-height:1.15;font-family:'ALS Direct';-inkscape-font-specification:'ALS Direct';fill:#ffffff;fill-opacity:1;stroke:none;stroke-width:0.966697;stroke-opacity:0.713726"
       id="text119090"
       aria-label="R">
      <path
         sodipodi:nodetypes="cccccccssssaccsasassccsasss"
         id="path119092"
         style="font-style:normal;font-variant:normal;font-weight:normal;font-stretch:normal;font-family:'Highway Gothic Wide';-inkscape-font-specification:'Highway Gothic Wide';fill:#ffffff;fill-opacity:1;stroke:none;stroke-width:0.966697;stroke-opacity:0.713726"
         d="m 132.55457,518.83314 h -4.18416 l -4.6752,-8.34853 -3.46925,-10e-4 v 8.36155 h -3.6 l -0.008,-19.94648 h 9.24 c 0.53297,0 1.21955,-0.037 1.86137,0.074 0.94776,0.16381 1.8617,0.56079 2.55923,1.14754 1.35953,1.14362 2.27825,2.4782 2.27825,4.8182 0,1.4945 -0.68799,2.73897 -1.60035,3.74363 -0.80998,0.89192 -2.15081,1.53174 -3.17163,1.73348 z m -3.57281,-14.10645 c 0.0136,-0.37657 -0.0999,-0.78364 -0.28127,-1.12497 -0.13511,-0.25425 -0.35499,-0.47526 -0.57724,-0.64254 -0.25525,-0.1921 -0.50311,-0.29531 -0.78182,-0.36804 -0.21755,-0.0568 -0.44341,-0.0444 -0.67283,-0.0475 -0.32615,-0.004 -0.66067,-0.006 -0.97663,-0.006 l -5.44439,-0.009 0.005,4.35544 5.6513,-0.0264 c 0.87999,-0.004 1.16792,0.0569 1.702,-0.14015 0.31227,-0.11519 0.65904,-0.39413 0.80997,-0.58393 0.29832,-0.37512 0.54904,-0.95093 0.56545,-1.40684 z" />
    </g>
    <path
       sodipodi:nodetypes="scscscscsscasscscs"
       id="path82564-1"
       style="font-style:normal;font-variant:normal;font-weight:normal;font-stretch:normal;font-size:122.83px;line-height:1.15;font-family:'Highway Gothic Wide';-inkscape-font-specification:'Highway Gothic Wide';text-align:center;letter-spacing:3.26px;text-anchor:middle;fill:#ffffff;fill-opacity:1;stroke:none;stroke-width:1.51629;stroke-opacity:0.713725"
       d="m 794.06473,86.743575 c 0,3.225161 -0.89803,5.271128 -2.43799,7.263741 -1.5197,1.972078 -3.5561,2.958115 -6.1092,2.958115 -2.79623,0 -4.9846,-1.140107 -6.5651,-3.420316 -1.37785,-1.972073 -2.16925,-3.843433 -2.16925,-6.739915 0,-3.286791 0.92362,-5.670549 2.46358,-7.560448 1.53997,-1.910444 3.64728,-2.86567 6.32195,-2.86567 2.51257,0 4.53884,0.975765 6.07881,2.927295 1.56022,1.930991 2.4172,4.273664 2.4172,7.437198 z m -3.69376,0.06163 c 0,-2.177497 -0.66197,-3.811941 -1.51301,-5.044491 -0.83076,-1.232545 -2.09275,-1.69761 -3.34376,-1.704338 -1.31425,-0.007 -2.66057,0.520064 -3.53186,1.752608 -0.8713,1.232551 -1.46536,2.818724 -1.46536,4.996221 0,2.198046 0.4917,3.468393 1.36298,4.721472 0.87131,1.232555 2.32925,1.721392 3.68876,1.74101 1.43781,0.02073 2.96164,-0.863774 3.77214,-2.404459 0.64841,-1.212003 1.03011,-2.127031 1.03011,-4.058023 z" />
  </g>
</svg>
