<svg id="vector" xmlns="http://www.w3.org/2000/svg" width="67.41" height="55.15" viewBox="0 0 67.41 55.15"><path fill="#000000" d="M39,11 C49,12.5 57,18 57,24.8 C57,31.6 49,37.1 39,38.6" fill-opacity="0" stroke-linejoin="round" stroke-linecap="round" stroke="#00FF66" stroke-width="3" id="path_0"/><path fill="#000000" d="M35.8,14.2 C33.4,20.2 33.4,29.3 35.8,35.1" fill-opacity="0" stroke-linejoin="round" stroke-linecap="round" stroke="#00FF66" stroke-width="3" id="path_1"/><path fill="#000000" d="M39,11 C36.7,10.7 34.5,12 33.5,14.2 C31.1,20.1 31.1,29.2 33.5,35.1 C34.4,37.4 36.7,38.7 39,38.4" fill-opacity="0" stroke-linejoin="round" stroke-linecap="round" stroke="#00FF66" stroke-width="3" id="path_2"/><path fill="none" d="M12,16 L29,11" stroke-linecap="round" stroke="#00FF66" stroke-width="3" id="path_3"/><path fill="none" d="M10,23 L27,18" stroke-linecap="round" stroke="#00FF66" stroke-width="3" id="path_4"/><path fill="none" d="M10,30 L27,25" stroke-linecap="round" stroke="#00FF66" stroke-width="3" id="path_5"/><path fill="none" d="M11,37 L28,32" stroke-linecap="round" stroke="#00FF66" stroke-width="3" id="path_6"/><path fill="none" d="M13,44 L30,39" stroke-linecap="round" stroke="#00FF66" stroke-width="3" id="path_7"/><path fill="#00FF66" d="M26,3.8             l-0.49,1.21             a47,47 0 0 0 -1.3,4             l4.5,-1.4             c0.13,-0.35 0.26,-0.7 0.38,-1             l0.28,-0.6 0.07,-0.2             l1.1,0.4             a40,40 0 0 1 -1.4,-3.7             a43,43 0 0 0 -4.1,1.4             l1.1,0.4z" id="path_8"/><path fill="#00FF66" d="M30,46             l-0.1,-0.25             L29.5,44.8             c-0.22,-0.6 -0.45,-1.2 -0.65,-1.8             l-3.6,1.3             c0.22,0.75 0.45,1.4 0.68,2             l0.3,0.9 0.1,0.25             l-1.1,0.45             a43,43 0 0 0 4.1,1.5             a40,40 0 0 1 1.4,-4z" id="path_9"/></svg>