<svg xmlns="http://www.w3.org/2000/svg" width="38.42" height="25.44" viewBox="0 0 38.42 25.44">
  <g transform="translate(-1.83,-4.76)">
    <path fill="none" d="M2.95 9.1c3.12-0.86 18.7-4.92 35.95-2.92c0.28 0.04 0.49 0.27 0.49 0.55v19.05c0 0.29-0.21 0.53-0.5 0.55c-4.38 0.33-29.95 2.12-35.66 2.98c-0.35 0.06-0.64-0.21-0.64-0.56V9.67c0-0.26 0.17-0.49 0.41-0.57Z" stroke="#F2F2F2" stroke-width="1.1" stroke-miterlimit="10"/>
  </g>

  <path fill="none" d="M20.92 8.9h2.05l-0.01-2.64l4.54 5.15l-4.36 5.88l-0.07-2.53l-2.16 0.06" stroke="#F2F2F2" stroke-width="1.1" stroke-linecap="round" stroke-linejoin="round" stroke-miterlimit="10"/>

  <g fill="#F2F2F2">
    <circle cx="13.12" cy="7.42" r="1.14"/>
    <circle cx="17.02" cy="7.25" r="1.14"/>
    <circle cx="13.25" cy="11.02" r="1.14"/>
    <circle cx="17.15" cy="10.86" r="1.14"/>
    <rect x="12.2" y="13.15" width="6.2" height="1.35" rx="0.18"/>
    <circle cx="13.58" cy="18.2" r="1.14"/>
    <circle cx="17.47" cy="18.03" r="1.14"/>
    <circle cx="13.42" cy="21.85" r="1.14"/>
    <circle cx="17.32" cy="21.69" r="1.14"/>
    <rect x="13.03" y="23.88" width="6.1" height="1.28" rx="0.16"/>
  </g>
</svg>
