<svg id="vector" xmlns="http://www.w3.org/2000/svg" width="67.41" height="55.15" viewBox="0 0 67.41 55.15"><path fill="#000000" d="M39,38.6 C45,36.8 49.9,33.7 52.6,29.2" fill-opacity="0" stroke-linejoin="round" stroke-linecap="round" stroke="#00FF66" stroke-width="3" id="path_0"/><path fill="#000000" d="M35.8,14.2 C33.4,20.2 33.4,29.3 35.8,35.1" fill-opacity="0" stroke-linejoin="round" stroke-linecap="round" stroke="#00FF66" stroke-width="3" id="path_1"/><path fill="#000000" d="M39,11 C36.7,10.7 34.5,12 33.5,14.2 C31.1,20.1 31.1,29.2 33.5,35.1 C34.4,37.4 36.7,38.7 39,38.4" fill-opacity="0" stroke-linejoin="round" stroke-linecap="round" stroke="#00FF66" stroke-width="3" id="path_2"/><path fill="none" d="M12,16 L29,11" stroke-linecap="round" stroke="#00FF66" stroke-width="3" id="path_3"/><path fill="none" d="M10,23 L27,18" stroke-linecap="round" stroke="#00FF66" stroke-width="3" id="path_4"/><path fill="none" d="M10,30 L27,25" stroke-linecap="round" stroke="#00FF66" stroke-width="3" id="path_5"/><path fill="none" d="M11,37 L28,32" stroke-linecap="round" stroke="#00FF66" stroke-width="3" id="path_6"/><path fill="none" d="M13,44 L30,39" stroke-linecap="round" stroke="#00FF66" stroke-width="3" id="path_7"/><path fill="#00FF66" d="M42.77,15.2             c0.31,0.47 0.64,0.94 0.93,1.45             A17.73,17.73 0 0 1 45,19.39             a9.2,9.2 0 0 1 0.31,0.9             l0.1,0.34             l1.91,-2.51             c0.18,0.12 0.34,0.27 0.51,0.41             a10.47,10.47 0 0 1 3.9,5.82             l3.52,-0.67             a12,12 0 0 0 -1.94,-4.5             a16.86,16.86 0 0 0 -3.2,-3.41             c-0.21,-0.16 -0.4,-0.34 -0.62,-0.49             l1.91,-2.51             l-0.49,-0.1             c-0.31,-0.06 -0.75,-0.15 -1.28,-0.21             a24.23,24.23 0 0 0 -3.74,-0.21             c-0.66,0 -1.31,0.06 -1.91,0.1             l-1.62,0.19             l-1.54,0.26             l1,1.18             C42.13,14.33 42.45,14.75 42.77,15.2Z" id="path_8"/></svg>