<svg id="vector" xmlns="http://www.w3.org/2000/svg" width="67.41" height="55.15" viewBox="0 0 67.41 55.15"><path fill="#000000" d="M39,11 C49,12.5 57,18 57,24.8 C57,31.6 49,37.1 39,38.6" fill-opacity="0" stroke-linejoin="round" stroke-linecap="round" stroke="#FFFF00" stroke-width="3" id="path_0"/><path fill="#000000" d="M35.8,14.2 C33.4,20.2 33.4,29.3 35.8,35.1" fill-opacity="0" stroke-linejoin="round" stroke-linecap="round" stroke="#FFFF00" stroke-width="3" id="path_1"/><path fill="#000000" d="M39,11 C36.7,10.7 34.5,12 33.5,14.2 C31.1,20.1 31.1,29.2 33.5,35.1 C34.4,37.4 36.7,38.7 39,38.4" fill-opacity="0" stroke-linejoin="round" stroke-linecap="round" stroke="#FFFF00" stroke-width="3" id="path_2"/><path fill="#000000" d="M12,16 L29,11" fill-opacity="0" stroke-linejoin="round" stroke-linecap="round" stroke="#FFFF00" stroke-width="3" id="path_3"/><path fill="#000000" d="M10,23 L27,18" fill-opacity="0" stroke-linejoin="round" stroke-linecap="round" stroke="#FFFF00" stroke-width="3" id="path_4"/><path fill="#000000" d="M10,30 L27,25" fill-opacity="0" stroke-linejoin="round" stroke-linecap="round" stroke="#FFFF00" stroke-width="3" id="path_5"/><path fill="#000000" d="M11,37 L28,32" fill-opacity="0" stroke-linejoin="round" stroke-linecap="round" stroke="#FFFF00" stroke-width="3" id="path_6"/><path fill="#000000" d="M13,44 L30,39" fill-opacity="0" stroke-linejoin="round" stroke-linecap="round" stroke="#FFFF00" stroke-width="3" id="path_7"/></svg>