<svg id="vector" xmlns="http://www.w3.org/2000/svg" width="53.57" height="53.56" viewBox="0 0 53.57 53.56">
  <defs>
    <linearGradient id="g1" x1="0" y1="0" x2="1" y2="1">
      <stop offset="0%" stop-color="#e53935"/>
      <stop offset="100%" stop-color="#c62828"/>
    </linearGradient>
  </defs>
  <circle cx="26.785" cy="26.78" r="25.1" fill="none" stroke="#d32f2f" stroke-width="1.4" opacity="0.9"/>
  <path fill="url(#g1)" d="M31 22.81V21.32h-3V19a1.67 1.67 0 1 0 -3.35 0V31.37a2.7 2.7 0 1 0 3.35 0v-3h3V26.9h-3V25.6h3V24.11h-3v-1.3Z" id="path_0"/>
  <path fill="url(#g1)" d="M40.92 26.81l2.65 0a16.9 16.9 0 0 0 -0.34 -3.36l-2.6 0.53a14 14 0 0 0 -1.1 -3.27l2.39 -1.15a16.83 16.83 0 0 0 -1.78 -2.91L38 18.22a14.21 14.21 0 0 0 -2.41 -2.47l1.66 -2.07a16.83 16.83 0 0 0 -2.87 -1.86l-1.21 2.36A14 14 0 0 0 30 13l0.6 -2.59A16.85 16.85 0 0 0 27.18 10l-0.06 2.65h-0.33a14.17 14.17 0 0 0 -3.1 0.35L23.1 10.4a16.74 16.74 0 0 0 -3.24 1.08L21 13.9A14.13 14.13 0 0 0 18 15.7l-1.65 -2.08A16.9 16.9 0 0 0 13.92 16l2 1.7a14.14 14.14 0 0 0 -1.88 2.89l-2.38 -1.16a16.73 16.73 0 0 0 -1.17 3.21l2.57 0.65a14.15 14.15 0 0 0 -0.43 3.42H10v0.06a16.88 16.88 0 0 0 0.34 3.4l2.6 -0.53A14 14 0 0 0 14 32.91l-2.39 1.15A16.82 16.82 0 0 0 13.45 37l2.11 -1.61A14.21 14.21 0 0 0 18 37.82L16.31 39.9a16.87 16.87 0 0 0 2.87 1.85l1.2 -2.37a14 14 0 0 0 3.24 1.17L23 43.14a16.87 16.87 0 0 0 3.39 0.42l0.06 -2.65h0.3a14.16 14.16 0 0 0 3.13 -0.35l0.58 2.59a16.68 16.68 0 0 0 3.24 -1.09l-1.1 -2.41a14.13 14.13 0 0 0 2.94 -1.8l1.65 2.08a16.94 16.94 0 0 0 2.44 -2.39l-2 -1.7a14.15 14.15 0 0 0 1.87 -2.9l2.39 1.16a16.74 16.74 0 0 0 1.17 -3.21l-2.57 -0.65A14.15 14.15 0 0 0 40.92 26.81ZM26.78 37.9A11.12 11.12 0 1 1 37.9 26.78 11.13 11.13 0 0 1 26.78 37.9Z" id="path_1"/>
  <circle cx="26.785" cy="26.78" r="10.05" fill="none" stroke="#b71c1c" stroke-width="0.9" opacity="0.7"/>
</svg>
