<svg id="vector" xmlns="http://www.w3.org/2000/svg" width="67.41" height="55.15" viewBox="0 0 67.41 55.15"><path fill="#0000FF" d="M39.41,11              C49.41,12.5 57.41,18 57.41,24.8              C57.41,31.6 49.41,37.1 39.41,38.6              C36.7,38.7 34.5,37.4 33.5,35.1              C31.1,29.2 31.1,20.1 33.5,14.2              C34.5,12 36.7,10.7 39.41,11 Z" stroke-linejoin="round" stroke-linecap="round" stroke="#0000FF" stroke-width="3" id="path_0"/><path fill="#000000" d="M35.81,14.2              C33.41,20.2 33.41,29.3 35.81,35.1" fill-opacity="0" stroke-linejoin="round" stroke-linecap="round" stroke="#0000FF" stroke-width="3" id="path_1"/><path fill="none" d="M9.41,15 L26.41,15" stroke-linecap="round" stroke="#0000FF" stroke-width="3" id="path_2"/><path fill="none" d="M9.41,20 L26.41,20" stroke-linecap="round" stroke="#0000FF" stroke-width="3" id="path_3"/><path fill="none" d="M9.41,25 L26.41,25" stroke-linecap="round" stroke="#0000FF" stroke-width="3" id="path_4"/><path fill="none" d="M9.41,30 L26.41,30" stroke-linecap="round" stroke="#0000FF" stroke-width="3" id="path_5"/><path fill="none" d="M9.41,35 L26.41,35" stroke-linecap="round" stroke="#0000FF" stroke-width="3" id="path_6"/></svg>