<svg id="vector" xmlns="http://www.w3.org/2000/svg" width="67.41" height="55.15" viewBox="0 0 67.41 55.15"><path fill="#000000" d="M39,11 C49,12.5 57,18 57,24.8 C57,31.6 49,37.1 39,38.6" fill-opacity="0" stroke-linejoin="round" stroke-linecap="round" stroke="#00FF66" stroke-width="3" id="path_0"/><path fill="#000000" d="M35.8,14.2 C33.4,20.2 33.4,29.3 35.8,35.1" fill-opacity="0" stroke-linejoin="round" stroke-linecap="round" stroke="#00FF66" stroke-width="3" id="path_1"/><path fill="#000000" d="M39,11 C36.7,10.7 34.5,12 33.5,14.2 C31.1,20.1 31.1,29.2 33.5,35.1 C34.4,37.4 36.7,38.7 39,38.4" fill-opacity="0" stroke-linejoin="round" stroke-linecap="round" stroke="#00FF66" stroke-width="3" id="path_2"/><path fill="#00FF66" d="M27.8,15.8             a3.2,3.2 0 1,1 -6.4,0             a3.2,3.2 0 1,1 6.4,0Z" id="path_3"/><path fill="#00FF66" d="M19.6,15.8             a2.0,2.0 0 1,1 -4.0,0             a2.0,2.0 0 1,1 4.0,0Z" id="path_4"/><path fill="#00FF66" d="M13.8,15.8             a1.25,1.25 0 1,1 -2.5,0             a1.25,1.25 0 1,1 2.5,0Z" id="path_5"/><path fill="#00FF66" d="M27.8,24.8             a3.2,3.2 0 1,1 -6.4,0             a3.2,3.2 0 1,1 6.4,0Z" id="path_6"/><path fill="#00FF66" d="M19.6,24.8             a2.0,2.0 0 1,1 -4.0,0             a2.0,2.0 0 1,1 4.0,0Z" id="path_7"/><path fill="#00FF66" d="M13.8,24.8             a1.25,1.25 0 1,1 -2.5,0             a1.25,1.25 0 1,1 2.5,0Z" id="path_8"/><path fill="#00FF66" d="M27.8,33.8             a3.2,3.2 0 1,1 -6.4,0             a3.2,3.2 0 1,1 6.4,0Z" id="path_9"/><path fill="#00FF66" d="M19.6,33.8             a2.0,2.0 0 1,1 -4.0,0             a2.0,2.0 0 1,1 4.0,0Z" id="path_10"/><path fill="#00FF66" d="M13.8,33.8             a1.25,1.25 0 1,1 -2.5,0             a1.25,1.25 0 1,1 2.5,0Z" id="path_11"/></svg>