<svg id="vector" xmlns="http://www.w3.org/2000/svg" width="67.41" height="55.15" viewBox="0 0 67.41 55.15"><path fill="#000000" d="M28,11 C18,12.5 10,18 10,24.8 C10,31.6 18,37.1 28,38.6" fill-opacity="0" stroke-linejoin="round" stroke-linecap="round" stroke="#FF0000" stroke-width="3" id="path_0"/><path fill="#000000" d="M31.6,14.2 C34,20.2 34,29.3 31.6,35.1" fill-opacity="0" stroke-linejoin="round" stroke-linecap="round" stroke="#FF0000" stroke-width="3" id="path_1"/><path fill="#000000" d="M28.4,11 C30.7,10.7 32.9,12 33.9,14.2 C36.3,20.1 36.3,29.2 33.9,35.1 C33,37.4 30.7,38.7 28.4,38.4" fill-opacity="0" stroke-linejoin="round" stroke-linecap="round" stroke="#FF0000" stroke-width="3" id="path_2"/><path fill="#000000" d="M41,15 L58,15" fill-opacity="0" stroke-linecap="round" stroke="#FF0000" stroke-width="3" id="path_3"/><path fill="#000000" d="M41,20 L58,20" fill-opacity="0" stroke-linecap="round" stroke="#FF0000" stroke-width="3" id="path_4"/><path fill="#000000" d="M41,25 L58,25" fill-opacity="0" stroke-linecap="round" stroke="#FF0000" stroke-width="3" id="path_5"/><path fill="#000000" d="M41,30 L58,30" fill-opacity="0" stroke-linecap="round" stroke="#FF0000" stroke-width="3" id="path_6"/><path fill="#000000" d="M41,35 L58,35" fill-opacity="0" stroke-linecap="round" stroke="#FF0000" stroke-width="3" id="path_7"/><path fill="#000000" d="M50.3,12.8             C52.1,14.3 52.9,16.2 52.7,18.3             C52.5,20.1 51.8,21.8 51.3,23.6             C51,24.5 51,25.5 51.3,26.4             C51.8,28.2 52.5,29.9 52.7,31.7             C52.9,33.8 52.1,35.7 50.3,37.2" fill-opacity="0" stroke-linejoin="round" stroke-linecap="round" stroke="#FF0000" stroke-width="3" id="path_8"/></svg>