<svg width="100.34mm" height="33.425mm" version="1.1" viewBox="0 0 100.34 33.425" xmlns="http://www.w3.org/2000/svg"><defs><clipPath><path d="m0 0h266.48v167.56h-266.48z"/></clipPath></defs><g transform="translate(245.04 -21.295)"><g transform="matrix(13.477 0 0 -8.4749 -545.32 295.11)" fill="#0000d6" fill-opacity=".82353" stroke-miterlimit="10" stroke-width=".046786"><g transform="matrix(.27019 0 0 .42969 6.7086 .29524)" fill="#0000d6" fill-opacity=".82353" stroke-miterlimit="10" stroke-width=".13731"></g></g><path d="m-238.94 21.395h87.887c3.4347 0 6.2544 2.6677 6.2544 6.0897v21.293c0 3.422-2.4338 5.8431-5.8684 5.8431l-88.425-3.66e-4c-3.4347-2e-5 -5.849-2.7927-5.849-6.2146v-20.97c0-3.6174 3.3766-6.0398 6.001-6.0398z" fill="#fff" fill-rule="evenodd" opacity=".99988" stroke="#000" stroke-linecap="round" stroke-linejoin="round" stroke-miterlimit="10" stroke-width=".2"/><g><g fill-rule="evenodd"><path d="m-238.8 23.095c-2.4529 0-4.459 2.0055-4.459 4.4578v20.905c0 2.4523 2.0061 4.4578 4.459 4.4578h87.838c2.4529 0 4.459-2.0055 4.459-4.4578v-20.905c0-2.4523-2.006-4.4578-4.459-4.4578zm0 1.9995h87.838c1.3795 0 2.459 1.0792 2.459 2.4583v20.905c0 1.3792-1.0794 2.4583-2.459 2.4583h-87.838c-1.3795 0-2.459-1.0792-2.459-2.4583v-20.905c0-1.3791 1.0794-2.4583 2.459-2.4583z" color="#000000" color-rendering="auto" dominant-baseline="auto" enable-background="accumulate" image-rendering="auto" opacity=".99988" shape-rendering="auto" solid-color="#000000" stop-color="#000000" style="font-feature-settings:normal;font-variant-alternates:normal;font-variant-caps:normal;font-variant-east-asian:normal;font-variant-ligatures:normal;font-variant-numeric:normal;font-variant-position:normal;font-variation-settings:normal;inline-size:0;isolation:auto;mix-blend-mode:normal;shape-margin:0;shape-padding:0;text-decoration-color:#000000;text-decoration-line:none;text-decoration-style:solid;text-indent:0;text-orientation:mixed;text-transform:none;white-space:normal"/><path d="m-160.87 38.002 5.3948-10.838 5.4062 10.838-3.243-2.183 2e-3 13.022h-4.3288v-13.022z" opacity=".99988"/><path d="m-239.72 38.002 5.3948-10.838 5.4062 10.838-3.243-2.183 2e-3 13.022h-4.3288v-13.022z" opacity=".99988"/></g><path d="m-207.83 40.431h-1.3004v1.6318h-1.4554v-1.6324h-4.7085v-1.6181l4.2173-4.88h1.9466v5.0423h1.3004zm-2.7558-1.457-0.0138-3.3409-2.8976 3.3371z" stroke-width=".26458"/><path d="m-187.81 42.073-1.781-0.0033-2.6494-3.8684-0.60904 0.59958v3.2716l-1.4701 1.31e-4 0.011-8.1571 1.4594-8.73e-4 3e-3 2.8462 2.9399-2.846h2.0982l-3.3456 3.276z"/><path d="m-174.51 42.063-1.3089 2e-6v-3.0138s-0.0851-0.58357-0.26424-0.79981c-0.13253-0.16003-0.28514-0.33654-0.47956-0.46516-0.28102-0.18595-0.61873-0.29217-0.85293-0.27445-0.11084 0.0083-0.23131 5e-3 -0.34408 0.02718-0.28302 0.0556-0.55269 0.17887-0.75793 0.36804-0.16519 0.15223-0.36599 0.42446-0.4637 0.69308-0.0972 0.2669-0.0916 0.53071-0.0916 0.53071v2.9343h-1.2979v-3.0138s-0.0137-0.24087-0.10838-0.49661c-0.0716-0.19523-0.2058-0.39914-0.31709-0.51115-0.14763-0.14877-0.31915-0.29082-0.51622-0.38426-0.22746-0.10788-0.48606-0.15572-0.728-0.15168-0.27633 0.0047-0.56496 0.09213-0.8085 0.24441-0.13307 0.0832-0.24557 0.19424-0.35158 0.30199-0.11524 0.11725-0.24009 0.3267-0.31409 0.52382-0.0782 0.20847-0.10235 0.4017-0.10235 0.4017l-8e-3 3.0856h-1.2892v-5.7008h1.2892v0.34047s0.25546-0.18716 0.60669-0.31846c0.35275-0.13188 0.80184-0.20786 1.0974-0.18208 0.3465 0.03026 0.88646 0.11681 1.2885 0.33845 0.54137 0.29841 0.90607 0.74797 0.90607 0.74797s0.19921-0.2228 0.31253-0.31937c0.18796-0.16003 0.42627-0.33641 0.60482-0.42703 0.40223-0.20418 0.85786-0.3431 1.3088-0.3431 0.5129 0 1.0369 0.14688 1.4884 0.39019 0.37757 0.20341 0.70163 0.51542 0.95726 0.85991 0.19947 0.26879 0.33865 0.58367 0.42585 0.90944 0.0807 0.30168 0.0939 0.55668 0.0939 0.55668z" stroke-width=".26458"/></g></g></svg>