<svg width="27.797mm" height="18.521mm" version="1.1" viewBox="0 0 27.797 18.521" xmlns="http://www.w3.org/2000/svg"><g transform="translate(-41.401 11.339)" fill-rule="evenodd"><path d="m43.599-11.323c-1.1982 0-2.1824 0.98428-2.1824 2.1827v14.123c0 1.1985 0.98411 2.1827 2.1824 2.1827h23.4c1.1983 0 2.1824-0.98427 2.1824-2.1827v-14.123c0-1.1984-0.98411-2.1827-2.1824-2.1827z" color="#000000" color-rendering="auto" dominant-baseline="auto" enable-background="accumulate" fill="#fff" image-rendering="auto" shape-rendering="auto" solid-color="#000000" stop-color="#000000" stroke="#000" stroke-linecap="square" stroke-linejoin="round" stroke-miterlimit="10" stroke-opacity=".46274" stroke-width=".032" style="font-feature-settings:normal;font-variant-alternates:normal;font-variant-caps:normal;font-variant-east-asian:normal;font-variant-ligatures:normal;font-variant-numeric:normal;font-variant-position:normal;font-variation-settings:normal;inline-size:0;isolation:auto;mix-blend-mode:normal;paint-order:fill markers stroke;shape-margin:0;shape-padding:0;text-decoration-color:#000000;text-decoration-line:none;text-decoration-style:solid;text-indent:0;text-orientation:mixed;text-transform:none;white-space:normal"/><path transform="matrix(.26458 0 0 .26458 41.401 -27.292)" d="m8.3086 62.217c-3.521 0-6.3887 2.8671-6.3887 6.3887v53.381c0 3.5216 2.8677 6.3906 6.3887 6.3906h88.443c3.521 0 6.3887-2.8691 6.3887-6.3906v-53.381c0-3.5216-2.8677-6.3887-6.3887-6.3887zm0 2.1074h88.443c2.389 0 4.2812 1.8919 4.2812 4.2812v53.381c0 2.3894-1.8923 4.2812-4.2812 4.2812h-88.443c-2.389 0-4.2715-1.8919-4.2715-4.2812v-53.381c0-2.3894 1.8825-4.2812 4.2715-4.2812zm41.553 4.3105-2.0859 2.0859 0.28906 0.28711 2.084-2.0781zm-35.119 0.02734-2.0859 2.084 0.29492 0.29102 2.0781-2.0801zm8.793 0-2.0879 2.084 0.29883 0.29102 2.0781-2.0801zm17.572 0-2.084 2.084 0.28711 0.29102 2.0859-2.0801zm26.354 0-2.0859 2.084 0.29102 0.29102 2.084-2.0801zm-35.146 0.0059-2.0859 2.0859 0.28906 0.29102 2.0879-2.0801zm26.352 0-2.084 2.0859 0.28906 0.29102 2.0859-2.0801zm-39.531 3.5195-2.0859 2.0879 0.29688 0.28711 2.0781-2.0801zm8.7793 0-2.0859 2.0879 0.28906 0.28711 2.0879-2.0801zm8.793 0-2.084 2.0879 0.28711 0.28711 2.0879-2.0801zm15.809 0.58789c-4.3492 0-9.1663 0.60872-13.801 1.9629-3.9504 1.1543-7.7484 2.8828-11.217 4.8984-2.6653 1.549-5.107 3.3222-7.2891 5.1973-4.5025 3.869-7.7807 8.2739-9.8672 11.779 0 0 2.5586-1.5651 5.2324-2.5449 2.8344-1.0387 5.8594-1.4949 8.2793-1.5215 2.3549-0.02589 5.6008 0.32497 8.4922 1.2695 3.3382 1.0905 6.1113 2.7969 6.1113 2.7969s2.7711-1.7888 6.6348-2.9863c1.9995-0.61974 4.6777-0.97336 6.5469-1.0586v29.488h1.7559v-29.484c2.2286 0.09556 5.209 0.51182 7.6719 1.3789 3.1733 1.1172 5.5078 2.6621 5.5078 2.6621s2.5684-1.7519 6.1992-2.9043c2.6196-0.83147 6.0786-1.1723 8.1641-1.1602 2.5898 0.01501 6.0545 0.62152 9.0117 1.7109 2.5006 0.92119 4.7402 2.3535 4.7402 2.3535-3.8809-6.5691-10.48-13.699-18.65-17.916-3.1902-1.6465-6.5742-3.0414-10.037-4.0273-4.4531-1.2678-9.0337-1.8945-13.486-1.8945zm-37.773 2.9238-2.0859 2.0879 0.29492 0.28711 2.0781-2.0781zm8.793 0-2.0879 2.0879 0.29102 0.28711 2.0859-2.0781zm-4.4004 3.5254-2.0859 2.0879 0.28906 0.28906 2.0859-2.0781zm-4.2461 3.6621-2.084 2.0859 0.28711 0.28906 2.0859-2.0801z" style="paint-order:fill markers stroke"/></g></svg>