<svg width="26.458mm" height="13.203mm" version="1.1" viewBox="0 0 26.458 13.203" xmlns="http://www.w3.org/2000/svg"><g transform="translate(-41.401 27.292)" fill-rule="evenodd"><path d="m43.475-27.276c-1.1324 0-2.0585 0.92955-2.0585 2.0615v9.0507c0 1.1319 0.9269 2.0591 2.0585 2.0591h22.309c1.1316 0 2.0585-0.92716 2.0585-2.0591v-9.0507c0-1.1319-0.92605-2.0615-2.0585-2.0615z" color="#000000" color-rendering="auto" dominant-baseline="auto" enable-background="accumulate" fill="#fff" image-rendering="auto" shape-rendering="auto" solid-color="#000000" stop-color="#000000" stroke="#000" stroke-linecap="square" stroke-linejoin="round" stroke-miterlimit="10" stroke-width=".032" style="font-feature-settings:normal;font-variant-alternates:normal;font-variant-caps:normal;font-variant-east-asian:normal;font-variant-ligatures:normal;font-variant-numeric:normal;font-variant-position:normal;font-variation-settings:normal;inline-size:0;isolation:auto;mix-blend-mode:normal;paint-order:fill markers stroke;shape-margin:0;shape-padding:0;text-decoration-color:#000000;text-decoration-line:none;text-decoration-style:solid;text-indent:0;text-orientation:mixed;text-transform:none;white-space:normal"/><path d="m43.475-26.808c-0.87756 0-1.5901 0.71512-1.5901 1.5929v9.0507c0 0.87781 0.71253 1.5905 1.5901 1.5905h22.309c0.87756 0 1.5901-0.71274 1.5901-1.5905v-9.0507c0-0.87782-0.71253-1.5929-1.5901-1.5929zm0 0.52857h22.309c0.59441 0 1.0641 0.46979 1.0641 1.0644v9.0507c0 0.59458-0.46966 1.0644-1.0641 1.0644h-22.309c-0.59441 0-1.0641-0.46978-1.0641-1.0644v-9.0507c0-0.59458 0.46966-1.0644 1.0641-1.0644z" color="#000000" color-rendering="auto" dominant-baseline="auto" enable-background="accumulate" image-rendering="auto" shape-rendering="auto" solid-color="#000000" stop-color="#000000" style="font-feature-settings:normal;font-variant-alternates:normal;font-variant-caps:normal;font-variant-east-asian:normal;font-variant-ligatures:normal;font-variant-numeric:normal;font-variant-position:normal;font-variation-settings:normal;inline-size:0;isolation:auto;mix-blend-mode:normal;paint-order:fill markers stroke;shape-margin:0;shape-padding:0;text-decoration-color:#000000;text-decoration-line:none;text-decoration-style:solid;text-indent:0;text-orientation:mixed;text-transform:none;white-space:normal"/><path d="m59.667-25.148v0.81687l-0.30823-0.34836-0.42834 0.37633 0.73656 0.84484v1.5409a1.2836 1.2839 0 0 0-0.34382 0.20024l-1.3371-0.77237-0.35907-1.0629-0.5421 0.18499 0.14871 0.44372-0.70288-0.41002-0.46266 0.80034 0.70288 0.40685-0.45376 0.09091 0.11185 0.56132 1.0963-0.21868 1.3403 0.77491a1.2836 1.2839 0 0 0-0.01589 0.19643 1.2836 1.2839 0 0 0 0.01653 0.19961l-1.339 0.77364-1.095-0.21868-0.11185 0.56577 0.45757 0.08709-0.70987 0.41193 0.46075 0.7997 0.70987-0.41002-0.1538 0.44054 0.54528 0.18499 0.35589-1.0629 1.3397-0.77428a1.2836 1.2839 0 0 0 0.34127 0.19834v1.5473l-0.7372 0.84547 0.42897 0.37633 0.30823-0.349v0.81687h0.92214v-0.81687l0.30504 0.34963 0.43025-0.37697-0.7353-0.84547v-1.5428a1.2836 1.2839 0 0 0 0.34826-0.19961l1.3346 0.7711 0.35589 1.0629 0.54591-0.18499-0.15443-0.44054 0.71051 0.41002 0.46075-0.7997-0.70987-0.41193 0.45757-0.08709-0.11185-0.56577-1.095 0.21868-1.3308-0.76856a1.2836 1.2839 0 0 0 0.01653-0.20469 1.2836 1.2839 0 0 0-0.01653-0.20088l1.3327-0.77046 1.0963 0.21868 0.11185-0.56132-0.45439-0.09091 0.70352-0.40684-0.46266-0.80034-0.70352 0.41002 0.14935-0.44372-0.5421-0.18499-0.3597 1.0629-1.3314 0.76919a1.2836 1.2839 0 0 0-0.35144-0.20152v-1.5358l0.73593-0.84548-0.43088-0.37633-0.30505 0.349v-0.8175zm-11.001 0.03052v0.81687l-0.30823-0.34836-0.42834 0.37633 0.73657 0.84484v1.5409a1.2836 1.2839 0 0 0-0.34382 0.20024l-1.3371-0.77237-0.35907-1.0629-0.5421 0.18499 0.14871 0.44372-0.70288-0.41002-0.46266 0.80034 0.70288 0.40684-0.45376 0.09091 0.11185 0.56132 1.0963-0.21868 1.3403 0.77491a1.2836 1.2839 0 0 0-0.01589 0.19643 1.2836 1.2839 0 0 0 0.01653 0.19961l-1.339 0.77364-1.095-0.21868-0.11185 0.56577 0.45757 0.08709-0.70987 0.41193 0.46075 0.79971 0.70987-0.41002-0.1538 0.44054 0.54528 0.18499 0.35589-1.0629 1.3397-0.77428a1.2836 1.2839 0 0 0 0.34127 0.19834v1.5473l-0.7372 0.84547 0.42898 0.37633 0.30823-0.349v0.81687h0.92214v-0.81687l0.30505 0.34963 0.43024-0.37697-0.73529-0.84547v-1.5428a1.2836 1.2839 0 0 0 0.34826-0.19961l1.3346 0.7711 0.35589 1.0629 0.54591-0.18499-0.15443-0.44054 0.71051 0.41002 0.46075-0.79971-0.70987-0.41193 0.45757-0.08709-0.11185-0.56577-1.095 0.21868-1.3308-0.76856a1.2836 1.2839 0 0 0 0.01652-0.2047 1.2836 1.2839 0 0 0-0.01652-0.20088l1.3327-0.77046 1.0963 0.21868 0.11185-0.56132-0.4544-0.09091 0.70352-0.40684-0.46266-0.80034-0.70352 0.41002 0.14935-0.44372-0.5421-0.18499-0.3597 1.0629-1.3314 0.76919a1.2836 1.2839 0 0 0-0.35144-0.20152v-1.5358l0.73593-0.84548-0.43088-0.37633-0.30505 0.349v-0.8175z" style="paint-order:fill markers stroke"/></g></svg>