<svg width="100.34mm" height="67.1mm" version="1.1" viewBox="0 0 100.34 67.1" xmlns="http://www.w3.org/2000/svg"><defs><clipPath><path d="m0 0h266.48v167.56h-266.48z"/></clipPath><clipPath><path d="m0 0h266.48v167.56h-266.48z"/></clipPath></defs><g transform="translate(133.6 12.729)"><g transform="matrix(13.477 0 0 -8.4749 -545.32 295.11)" fill="#0000d6" fill-opacity=".82353" stroke-miterlimit="10" stroke-width=".046786"><g transform="matrix(.27019 0 0 .42969 6.7086 .29524)" fill="#0000d6" fill-opacity=".82353" stroke-miterlimit="10" stroke-width=".13731"/></g><g transform="translate(-47.328 .7082)"><g transform="matrix(13.477 0 0 -8.4749 -545.32 295.11)" fill="#0000d6" fill-opacity=".82353" stroke-miterlimit="10" stroke-width=".046786"><g transform="matrix(.27019 0 0 .42969 6.7086 .29524)" fill="#0000d6" fill-opacity=".82353" stroke-miterlimit="10" stroke-width=".13731"/></g><path d="m-79.654-13.387c-3.6385 0-6.5723 2.9337-6.5723 6.5723v53.857c0 3.6385 2.9337 6.5703 6.5723 6.5703h87.102c3.6385 0 6.5703-2.9318 6.5703-6.5703v-53.857c0-3.6385-2.9318-6.5723-6.5703-6.5723zm0 0.24414h87.102c3.5072 0 6.3262 2.8209 6.3262 6.3281v53.857c0 3.5072-2.8189 6.3262-6.3262 6.3262h-87.102c-3.5072 0-6.3281-2.8189-6.3281-6.3262v-53.857c0-3.5072 2.8209-6.3281 6.3281-6.3281z" color="#000000" style="paint-order:stroke fill markers"/><path d="m-79.655-13.265h87.101c3.5729 0 6.4493 2.8764 6.4493 6.4493v53.857c0 3.5729-2.8764 6.4493-6.4493 6.4493h-87.101c-3.5729 0-6.4493-2.8764-6.4493-6.4493v-53.857c0-3.5729 2.8764-6.4493 6.4493-6.4493z" color="#000000" fill="#fff" stroke-linecap="square" stroke-width=".24466" style="-inkscape-stroke:none;paint-order:stroke fill markers"/><path d="m-79.654-11.183c-2.3838 0-4.3689 1.9842-4.3689 4.368v53.856c0 2.3838 1.9851 4.3689 4.3689 4.3689h87.1c2.3838 0 4.3689-1.9851 4.3689-4.3689v-53.856c0-2.3838-1.9851-4.368-4.3689-4.368zm0 2.0818h87.101c1.2668 0 2.2862 1.0195 2.2862 2.2862v53.857c0 1.2668-1.0195 2.2862-2.2862 2.2862h-87.101c-1.2668 0-2.2871-1.0195-2.2871-2.2862v-53.857c0-1.2668 1.0203-2.2862 2.2871-2.2862z" color="#000000" stroke-linecap="square" stroke-width=".5863" style="-inkscape-stroke:none;paint-order:stroke fill markers"/></g><path d="m-80.077 27.661v-18.66l4.2232 2.5707-7.5893-15.14-7.5678 15.14 4.2069-2.532v18.621z" stroke-linecap="square" stroke-width=".45843" style="paint-order:stroke fill markers"/><g fill-rule="evenodd" shape-rendering="auto"><path d="m-57.075 35.717c-0.71159 0-1.4304 0.22032-2.0651 0.54227-0.28169 0.14284-0.65666 0.42123-0.95326 0.6735-0.17883 0.15231-0.49278 0.50265-0.49278 0.50265s-0.57698-0.70814-1.4312-1.1786c-0.6344-0.34943-1.4862-0.48693-2.0329-0.53484-0.46635-0.04067-1.1742 0.07927-1.7308 0.28722-0.55382 0.20702-0.95828 0.50266-0.95828 0.50266v-0.53731h-2.0329v8.9883h2.0329l0.01026-4.8655s0.0371-0.30271 0.16089-0.6314c0.11665-0.31082 0.3161-0.64216 0.4977-0.82703 0.167-0.16987 0.34478-0.34422 0.55466-0.47541 0.38425-0.24006 0.83917-0.37909 1.2752-0.38628 0.38174-0.0071 0.78956 0.07015 1.1489 0.24019 0.31088 0.14722 0.58175 0.36957 0.8146 0.60416 0.17542 0.17661 0.38711 0.49936 0.5002 0.8072 0.14704 0.40323 0.17087 0.78245 0.17087 0.78245v4.7517h2.0477v-4.6254s-0.01026-0.41608 0.14368-0.83693c0.15417-0.42353 0.47226-0.85191 0.73295-1.092 0.32382-0.29825 0.7494-0.49421 1.1959-0.58189 0.17784-0.03398 0.3674-0.02871 0.54228-0.04203 0.36946-0.02789 0.90377 0.14012 1.347 0.43333 0.30672 0.20279 0.54584 0.4806 0.75522 0.73291 0.28224 0.34093 0.416 1.2604 0.416 1.2604v4.7516h2.0651l-0.03458-4.9621s-0.02107-0.40088-0.14858-0.87653c-0.13757-0.51365-0.35622-1.0124-0.67101-1.4361-0.40331-0.54315-0.9148-1.0337-1.5104-1.3544-0.71254-0.38359-1.5405-0.61655-2.3498-0.61655z" color="#000000" color-rendering="auto" dominant-baseline="auto" enable-background="accumulate" image-rendering="auto" solid-color="#000000" stop-color="#000000" style="font-feature-settings:normal;font-variant-alternates:normal;font-variant-caps:normal;font-variant-east-asian:normal;font-variant-ligatures:normal;font-variant-numeric:normal;font-variant-position:normal;font-variation-settings:normal;inline-size:0;isolation:auto;mix-blend-mode:normal;paint-order:fill markers stroke;shape-margin:0;shape-padding:0;text-decoration-color:#000000;text-decoration-line:none;text-decoration-style:solid;text-indent:0;text-orientation:mixed;text-transform:none;white-space:normal"/><path d="m-79.254 32.403c-1.6614 0-2.8498 0.73834-3.8062 1.8752-0.95653 1.1246-1.5871 2.4961-1.5871 4.4519 0 1.7236 0.54559 3.1202 1.4014 4.2937 0.58755 0.81222 1.3638 1.4098 2.2139 1.7505 0.57033 0.2286 1.1753 0.33241 1.778 0.33617 1.3576 0.0085 2.6886-0.66553 3.6326-1.8391 0.95647-1.1858 1.594-2.66 1.594-4.5792 0-1.8825-0.59826-3.2556-1.5674-4.4046-0.95647-1.1613-2.0987-1.8846-3.6592-1.8846zm-0.01482 2.299c0.94389 0 1.5938 0.56914 2.1099 1.3026 0.4001 0.55527 0.68467 1.2812 0.80733 2.0162 0.03876 0.23585 0.03544 0.47661 0.04991 0.7076 0.02912 0.56126-0.10448 1.184-0.29232 1.741-0.06272 0.18711-0.16222 0.37254-0.25794 0.55198-0.0757 0.14116-0.15639 0.28132-0.2502 0.41097-0.20927 0.28866-0.40115 0.61072-0.69298 0.81507-0.42523 0.29747-0.74112 0.53908-1.4608 0.53908-0.47152 0-0.89511-0.09316-1.2579-0.30178-0.37351-0.21471-0.68405-0.5489-0.95864-0.92082-0.54135-0.74568-0.87097-1.5276-0.87097-2.8355 0-1.2958 0.41145-2.1408 0.95265-2.8742 0.54116-0.73349 1.1654-1.1521 2.1219-1.1521z" color="#000000" color-rendering="auto" dominant-baseline="auto" enable-background="accumulate" image-rendering="auto" solid-color="#000000" stop-color="#000000" style="font-feature-settings:normal;font-variant-alternates:normal;font-variant-caps:normal;font-variant-east-asian:normal;font-variant-ligatures:normal;font-variant-numeric:normal;font-variant-position:normal;font-variation-settings:normal;inline-size:0;isolation:auto;mix-blend-mode:normal;paint-order:fill markers stroke;shape-margin:0;shape-padding:0;text-decoration-color:#000000;text-decoration-line:none;text-decoration-style:solid;text-indent:0;text-orientation:mixed;text-transform:none;white-space:normal"/><path d="m-95.271 32.515c-1.6613 0-2.8497 0.73834-3.8062 1.8752-0.95654 1.1246-1.5871 2.4961-1.5871 4.4519 0 1.7236 0.54561 3.1202 1.4014 4.2937 0.58758 0.81222 1.3638 1.4098 2.2139 1.7505 0.57033 0.2286 1.1753 0.33241 1.778 0.33617 1.3576 0.0086 2.6886-0.66553 3.6326-1.8391 0.95647-1.1857 1.594-2.66 1.594-4.5792 0-1.8825-0.59826-3.2556-1.5674-4.4046-0.95649-1.1613-2.0987-1.8846-3.6592-1.8846zm-0.01482 2.299c0.94387 0 1.5939 0.56913 2.1099 1.3026 0.4001 0.55527 0.68466 1.2812 0.80732 2.0162 0.0387 0.23584 0.0354 0.47661 0.0499 0.7076 0.02915 0.56126-0.1044 1.184-0.29234 1.7411-0.06274 0.18711-0.1622 0.37254-0.25791 0.55198-0.07575 0.14116-0.15628 0.28132-0.2502 0.41097-0.20927 0.28866-0.40116 0.61072-0.69299 0.81507-0.42524 0.29747-0.74109 0.53908-1.4608 0.53908-0.47151 0-0.89511-0.09316-1.2578-0.30178-0.37353-0.21471-0.68407-0.54891-0.95866-0.92082-0.54133-0.74568-0.87096-1.5276-0.87096-2.8355 0-1.2958 0.41144-2.1408 0.95263-2.8742 0.54118-0.73349 1.1654-1.1521 2.1219-1.1521z" color="#000000" color-rendering="auto" dominant-baseline="auto" enable-background="accumulate" image-rendering="auto" solid-color="#000000" stop-color="#000000" style="font-feature-settings:normal;font-variant-alternates:normal;font-variant-caps:normal;font-variant-east-asian:normal;font-variant-ligatures:normal;font-variant-numeric:normal;font-variant-position:normal;font-variation-settings:normal;inline-size:0;isolation:auto;mix-blend-mode:normal;paint-order:fill markers stroke;shape-margin:0;shape-padding:0;text-decoration-color:#000000;text-decoration-line:none;text-decoration-style:solid;text-indent:0;text-orientation:mixed;text-transform:none;white-space:normal"/></g><path d="m-109.32 45.173h-2.2731l-3e-3 -8.2967-0.1151-0.05984s-0.77631 0.43312-1.1993 0.5573c-0.47409 0.1392-1.4686 0.20119-1.4686 0.20119l3e-3 -2.2704s0.46652-0.03409 0.93634-0.19737c0.39236-0.13627 0.77534-0.38045 1.0014-0.60421 0.26033-0.25766 0.55213-0.72393 0.7001-1.1628 0.14294-0.4241 0.14657-0.8254 0.14657-0.8254h2.2731z" stroke-width=".091254"/></g></svg>