<svg width="21.264mm" height="21.282mm" version="1.1" viewBox="0 0 21.264 21.282" xmlns="http://www.w3.org/2000/svg"><g transform="translate(-143.5 -60.341)"><g fill-rule="evenodd" shape-rendering="auto"><path d="m144.79 60.357c-0.69915 0-1.2734 0.57428-1.2734 1.2734v18.703c0 0.69915 0.57429 1.2734 1.2734 1.2734h18.686c0.69915 0 1.2734-0.57428 1.2734-1.2734v-18.703c0-0.69915-0.57428-1.2734-1.2734-1.2734z" color="#000000" color-rendering="auto" dominant-baseline="auto" enable-background="accumulate" fill="#fff" image-rendering="auto" solid-color="#000000" stop-color="#000000" stroke="#000" stroke-linecap="square" stroke-linejoin="round" stroke-miterlimit="10" stroke-width=".032" style="font-feature-settings:normal;font-variant-alternates:normal;font-variant-caps:normal;font-variant-east-asian:normal;font-variant-ligatures:normal;font-variant-numeric:normal;font-variant-position:normal;font-variation-settings:normal;inline-size:0;isolation:auto;mix-blend-mode:normal;paint-order:fill markers stroke;shape-margin:0;shape-padding:0;text-decoration-color:#000000;text-decoration-line:none;text-decoration-style:solid;text-indent:0;text-orientation:mixed;text-transform:none;white-space:normal"/><path transform="matrix(.26458 0 0 .26458 143.53 60.358)" d="m4.7891 1.3789c-1.8881 0-3.4316 1.5436-3.4316 3.4316v70.689c0 1.8881 1.5436 3.4336 3.4316 3.4336h70.623c1.8881 0 3.4336-1.5455 3.4336-3.4336v-70.689c0-1.8881-1.5455-3.4316-3.4336-3.4316zm0 1.6309h70.623c1.0117 0 1.8008 0.78902 1.8008 1.8008v34.533h-34.412v-7.1367l3.3594 2.0059-6.0625-12.119-6.0508 12.119 3.375-2.0625v7.1934h-34.434v-34.533c0-1.0118 0.78904-1.8008 1.8008-1.8008zm22.65 4.9453-0.39258 4.2578 1.5137 1.2129s0.37844-0.1893 0.8457-0.31055c0.37874-0.09827 0.82182-0.12998 1.123-0.15039 0.30327-0.02056 0.62915 0.03423 0.93945 0.11719 0.21222 0.05681 0.40471 0.13444 0.5918 0.23438 0.12699 0.06788 0.23982 0.13226 0.35547 0.24609 0.23603 0.23255 0.43126 0.5794 0.41992 0.94141 0 0.34016-0.10885 0.70905-0.32617 0.97656-0.10809 0.13338-0.2596 0.1912-0.40625 0.30859-0.44111 0.34311-1.2554 0.41458-1.8965 0.36133-0.38472-0.0319-1.0198-0.17162-1.4883-0.36328-0.61629-0.25214-1.0254-0.56641-1.0254-0.56641l-1.0547 1.459s0.81446 0.54091 1.2656 0.7207c0.7225 0.28791 1.4921 0.47745 2.2656 0.55859 0.41159 0.0432 0.88194 0.0071 1.2402-0.04102 0.39318-0.05272 0.70457-0.16305 1.0273-0.28906 0.36149-0.14111 0.71003-0.31593 1.0117-0.55469h2e-3c0.25634-0.20351 0.48824-0.45042 0.6543-0.73242 0.12888-0.21874 0.26394-0.43723 0.35352-0.67969 0.10054-0.27151 0.1475-0.5695 0.17774-0.8457 0.06047-0.57784-0.11018-1.2324-0.36719-1.7539-0.07106-0.14482-0.14266-0.27011-0.23828-0.38867-0.22696-0.28116-0.49451-0.53547-0.78516-0.75-0.18818-0.13882-0.39627-0.24218-0.61133-0.33984-0.39137-0.17785-0.87514-0.31774-1.3105-0.38672-0.2366-0.03734-0.43704-0.05759-0.65625-0.05078-0.30391 0.0086-0.76198 0.05026-1.1309 0.10938-0.33902 0.0542-0.60352 0.125-0.60352 0.125l0.14648-1.625 4.7598 0.00977v-1.8027zm15.994 0c-1.3104 0-2.2475 0.5818-3.002 1.4785-0.75451 0.8871-1.252 1.969-1.252 3.5117 0 1.3596 0.43041 2.4611 1.1055 3.3867 0.46348 0.64066 1.0755 1.1121 1.7461 1.3809 0.44984 0.18032 0.92692 0.26265 1.4023 0.26562 1.0709 0.0071 2.1207-0.5255 2.8652-1.4512 0.75447-0.93531 1.2578-2.0975 1.2578-3.6113 0-1.4849-0.47192-2.5682-1.2363-3.4746-0.75446-0.91602-1.6558-1.4863-2.8867-1.4863zm-25.566 0.00195c-0.66902 0.00367-1.3527 0.20893-1.9531 0.51367-0.51352 0.26067-0.96093 0.65573-1.3418 1.0879-0.24971 0.28335-0.59766 0.96289-0.59766 0.96289l1.6348 0.75586s0.18207-0.38003 0.47461-0.71289c0.21759-0.24735 0.51554-0.45104 0.74609-0.54492 0.29178-0.11879 0.67786-0.23211 1.0312-0.25781 0.21282-0.015345 0.42696-0.00437 0.63672 0.064453 0.33026 0.10834 0.6413 0.3473 0.87109 0.5918 0.27129 0.28896 0.37784 0.72174 0.4043 1.1172 0.01852 0.25783-0.05729 0.52181-0.1582 0.75977-0.08833 0.20787-0.37891 0.56055-0.37891 0.56055l-5.6641 3.3184v1.8066l8-0.0039 2e-3 -1.8008-4.4082-0.0078 3.0488-1.7734s0.54376-0.50012 0.73047-0.8125c0.31623-0.52813 0.61184-1.121 0.62695-1.7363 0.022-0.8687-0.25218-1.7888-0.75977-2.4941-0.27306-0.37927-0.65678-0.70248-1.0743-0.93556-0.19918-0.11123-0.40238-0.19465-0.61328-0.26562-0.20731-0.06977-0.41297-0.12337-0.63672-0.15625-0.28033-0.041669-0.5421-0.037547-0.62109-0.037109zm25.555 1.8125c0.74453 0 1.257 0.44882 1.6641 1.0273 0.31559 0.43798 0.53996 1.0101 0.63672 1.5898 0.03061 0.18605 0.02772 0.37639 0.03906 0.55859 0.02305 0.44272-0.08231 0.93367-0.23047 1.373-0.04951 0.14759-0.12753 0.294-0.20312 0.43555-0.05972 0.11131-0.12319 0.22194-0.19727 0.32422-0.16505 0.22769-0.3167 0.48138-0.54688 0.64258-0.33543 0.23463-0.5847 0.42578-1.1523 0.42578-0.37194 0-0.70608-0.07368-0.99219-0.23828-0.29465-0.16936-0.53929-0.4332-0.75586-0.72656-0.42701-0.58818-0.6875-1.2046-0.6875-2.2363 0-1.0221 0.32506-1.689 0.75195-2.2676 0.42686-0.57857 0.91932-0.9082 1.6738-0.9082zm18.154 0.80078c-0.5613 0-1.1283 0.17379-1.6289 0.42774-0.2222 0.1127-0.518 0.33226-0.75195 0.53125-0.14105 0.12013-0.38867 0.39648-0.38867 0.39648s-0.45513-0.55858-1.1289-0.92969c-0.50037-0.27563-1.1723-0.38408-1.6035-0.42188-0.36786-0.03209-0.92617 0.06253-1.3652 0.22656-0.43684 0.16328-0.75586 0.39648-0.75586 0.39648v-0.42383h-1.6035v7.0898h1.6035l0.0078-3.8379s0.02944-0.23877 0.12695-0.49805c0.09199-0.24517 0.24933-0.50653 0.39258-0.65234 0.13179-0.13398 0.27196-0.27152 0.4375-0.375 0.30308-0.18935 0.66192-0.29902 1.0059-0.30469 0.30112-5e-3 0.62279 0.05528 0.90625 0.18945 0.24525 0.11619 0.45889 0.29152 0.64258 0.47656 0.13837 0.1393 0.30534 0.39388 0.39453 0.63672 0.11603 0.31806 0.13476 0.61719 0.13476 0.61719v3.748h1.6152v-3.6484s-0.0077-0.3282 0.11328-0.66016c0.12162-0.33408 0.37252-0.67197 0.57812-0.86133 0.25542-0.23525 0.59111-0.38982 0.94336-0.45898 0.14026-0.02684 0.28978-0.02262 0.42774-0.0332 0.29144-0.02203 0.71289 0.11053 1.0625 0.3418 0.24192 0.15996 0.43054 0.3791 0.5957 0.57812 0.22261 0.26892 0.32812 0.99414 0.32812 0.99414v3.748h1.6289l-0.02734-3.9141s-0.01665-0.31621-0.11719-0.69141c-0.1085-0.40516-0.28098-0.79855-0.5293-1.1328-0.31812-0.42844-0.72158-0.8154-1.1914-1.0684-0.56205-0.30257-1.2152-0.48633-1.8535-0.48633zm-58.588 30.383 34.434 2e-3v7.1895l-3.375-2.0625 6.0508 12.121 6.0625-12.121-3.3594 2.0059v-7.1309l34.412 2e-3v34.541c0 1.0118-0.78904 1.7949-1.8008 1.7949h-70.623c-1.0117 0-1.8008-0.78315-1.8008-1.7949zm24.449 21.727-0.39258 4.2578 1.5137 1.2129s0.37836-0.1893 0.8457-0.31055c0.37882-0.09827 0.82178-0.12998 1.123-0.15039 0.30312-0.02041 0.62912 0.03438 0.93945 0.11719 0.21241 0.05681 0.40662 0.13444 0.59375 0.23438 0.12699 0.06788 0.23786 0.13225 0.35352 0.24609 0.23622 0.23259 0.43126 0.57934 0.41992 0.94141 0 0.3402-0.10885 0.71096-0.32617 0.97852-0.10809 0.13342-0.25957 0.1912-0.40625 0.30859-0.44118 0.34314-1.2553 0.41458-1.8965 0.36133-0.38479-0.03175-1.0197-0.17158-1.4883-0.36328-0.6164-0.25217-1.0254-0.56641-1.0254-0.56641l-1.0547 1.459s0.81439 0.54088 1.2656 0.7207c0.7226 0.28796 1.492 0.47744 2.2656 0.55859 0.41167 0.0432 0.88186 0.0072 1.2402-0.04102 0.39326-0.05272 0.7045-0.16305 1.0273-0.28906 0.36132-0.14117 0.71196-0.31588 1.0137-0.55469h2e-3c0.25625-0.20356 0.48819-0.45037 0.6543-0.73242 0.12888-0.21876 0.26394-0.43719 0.35352-0.67969 0.10054-0.27156 0.1475-0.5714 0.17774-0.84766 0.06047-0.57794-0.11213-1.2323-0.36914-1.7539-0.07106-0.14487-0.14071-0.2701-0.23633-0.38867-0.22677-0.2812-0.49642-0.53544-0.78711-0.75-0.18822-0.13886-0.39624-0.24214-0.61133-0.33984-0.39141-0.1779-0.87507-0.31772-1.3105-0.38672-0.2366-0.03742-0.437-0.05758-0.65625-0.05078-0.30387 0.0087-0.76194 0.05026-1.1309 0.10938-0.33902 0.0542-0.60352 0.125-0.60352 0.125l0.14648-1.625 4.7617 0.0098v-1.8028zm16.002 0c-1.3107 0-2.2493 0.58164-3.0039 1.4785-0.75466 0.88725-1.252 1.9687-1.252 3.5117 0 1.3598 0.4303 2.4629 1.1055 3.3887 0.46356 0.64077 1.0754 1.1121 1.7461 1.3809 0.44992 0.18036 0.9288 0.26264 1.4043 0.26562 1.0711 0.0072 2.1206-0.52534 2.8652-1.4512 0.75462-0.93547 1.2578-2.0992 1.2578-3.6133 0-1.4852-0.47177-2.5681-1.2363-3.4746-0.75458-0.91618-1.6555-1.4863-2.8867-1.4863zm-29.773 0.0059 2e-3 0.90234v0.90234l2.9297 2e-3c1.6114 2.7e-4 2.9297 7.63e-4 2.9297 2e-3 0 8.01e-4 -1.1688 1.8475-2.5977 4.1035-1.4289 2.256-2.5999 4.1056-2.6016 4.1094h2e-3c-0.0035 0.0068 0.04731 0.0059 1.0645 0.0059h1.0703l0.02148-0.03711c0.01285-0.02007 1.1838-1.8683 2.6016-4.1094l2.5781-4.0762v-1.8047h-4zm29.762 1.8086c0.74468 0 1.2569 0.44872 1.6641 1.0273 0.31559 0.43805 0.53992 1.01 0.63672 1.5898 0.03024 0.1861 0.02659 0.37638 0.03906 0.55859 0.02268 0.4428-0.08231 0.9336-0.23047 1.373-0.04951 0.14763-0.12753 0.29398-0.20312 0.43555-0.05972 0.11131-0.12319 0.2239-0.19726 0.32617-0.16517 0.22771-0.31663 0.48135-0.54688 0.64258-0.33524 0.23467-0.58458 0.42578-1.1523 0.42578-0.37191 0-0.70604-0.07361-0.99219-0.23828-0.2948-0.1694-0.53925-0.43315-0.75586-0.72656-0.42705-0.58828-0.6875-1.2064-0.6875-2.2383 0-1.0223 0.32487-1.689 0.75195-2.2676 0.42694-0.57866 0.91921-0.9082 1.6738-0.9082zm18.148 0.80078c-0.5613 0-1.1283 0.17379-1.6289 0.42773-0.2222 0.1127-0.518 0.33226-0.75195 0.53125-0.14105 0.12013-0.38867 0.39648-0.38867 0.39648s-0.45513-0.55858-1.1289-0.92969c-0.50037-0.27563-1.1723-0.38408-1.6035-0.42188-0.36786-0.03209-0.92617 0.06253-1.3652 0.22656-0.43684 0.16328-0.75586 0.39648-0.75586 0.39648v-0.42383h-1.6035v7.0898h1.6035l0.007813-3.8379s0.02944-0.23877 0.12695-0.49805c0.09199-0.24517 0.24933-0.50653 0.39258-0.65234 0.13179-0.13398 0.27196-0.27152 0.4375-0.375 0.30308-0.18935 0.66192-0.29902 1.0059-0.30469 0.30112-5e-3 0.62279 0.05528 0.90625 0.18945 0.24525 0.11619 0.45889 0.29152 0.64258 0.47656 0.13837 0.1393 0.30534 0.39388 0.39453 0.63672 0.11603 0.31806 0.13476 0.61719 0.13476 0.61719v3.748h1.6152v-3.6484s-0.0077-0.3282 0.11328-0.66016c0.12162-0.33408 0.37252-0.67393 0.57812-0.86328 0.25542-0.23525 0.59111-0.38787 0.94336-0.45703 0.14026-0.02683 0.28978-0.02262 0.42774-0.0332 0.29144-0.02203 0.71289 0.11053 1.0625 0.3418 0.24192 0.15996 0.43054 0.3791 0.5957 0.57812 0.22261 0.26892 0.32812 0.99414 0.32812 0.99414v3.748h1.6289l-0.02734-3.9141s-0.01665-0.31817-0.11719-0.69336c-0.10851-0.40516-0.28098-0.7966-0.5293-1.1309-0.31812-0.42844-0.72158-0.8154-1.1914-1.0684-0.56205-0.30257-1.2152-0.48633-1.8535-0.48633z" color="#000000" color-rendering="auto" dominant-baseline="auto" enable-background="accumulate" image-rendering="auto" solid-color="#000000" stop-color="#000000" style="font-feature-settings:normal;font-variant-alternates:normal;font-variant-caps:normal;font-variant-east-asian:normal;font-variant-ligatures:normal;font-variant-numeric:normal;font-variant-position:normal;font-variation-settings:normal;inline-size:0;isolation:auto;mix-blend-mode:normal;paint-order:fill markers stroke;shape-margin:0;shape-padding:0;text-decoration-color:#000000;text-decoration-line:none;text-decoration-style:solid;text-indent:0;text-orientation:mixed;text-transform:none;white-space:normal"/></g></g></svg>