<svg width="99.223mm" height="33.187mm" version="1.1" viewBox="0 0 99.223 33.187" xmlns="http://www.w3.org/2000/svg"><g transform="translate(36.101 -19.899)"><path d="m-29.959 19.983c-3.325 0-6.0586 2.7318-6.0586 6.0567v20.906c0 3.3249 2.7336 6.0566 6.0586 6.0566h86.938c3.325 0 6.0586-2.7318 6.0586-6.0566v-20.906c0-3.3248-2.7336-6.0567-6.0586-6.0567z" color="#000000" color-rendering="auto" dominant-baseline="auto" enable-background="accumulate" fill="#fff" fill-rule="evenodd" image-rendering="auto" shape-rendering="auto" solid-color="#000000" stop-color="#000000" stroke="#000" stroke-linecap="round" stroke-linejoin="round" stroke-width=".16775" style="font-feature-settings:normal;font-variant-alternates:normal;font-variant-caps:normal;font-variant-east-asian:normal;font-variant-ligatures:normal;font-variant-numeric:normal;font-variant-position:normal;font-variation-settings:normal;inline-size:0;isolation:auto;mix-blend-mode:normal;shape-margin:0;shape-padding:0;text-decoration-color:#000000;text-decoration-line:none;text-decoration-style:solid;text-indent:0;text-orientation:mixed;text-transform:none;white-space:normal"/><path d="m-29.958 21.582c-2.4529 0-4.459 2.0055-4.459 4.4578v20.905c0 2.4523 2.0061 4.4578 4.459 4.4578h86.938c2.4529 0 4.4589-2.0055 4.4589-4.4578v-20.905c0-2.4523-2.006-4.4578-4.4589-4.4578zm0 1.9995h86.938c1.3795 0 2.459 1.0791 2.459 2.4583v20.905c0 1.3792-1.0794 2.4583-2.459 2.4583h-86.938c-1.3795 0-2.459-1.0792-2.459-2.4583v-20.905c0-1.3792 1.0794-2.4583 2.459-2.4583z" color="#000000" color-rendering="auto" dominant-baseline="auto" enable-background="accumulate" fill-rule="evenodd" image-rendering="auto" shape-rendering="auto" solid-color="#000000" stop-color="#000000" style="font-feature-settings:normal;font-variant-alternates:normal;font-variant-caps:normal;font-variant-east-asian:normal;font-variant-ligatures:normal;font-variant-numeric:normal;font-variant-position:normal;font-variation-settings:normal;inline-size:0;isolation:auto;mix-blend-mode:normal;shape-margin:0;shape-padding:0;text-decoration-color:#000000;text-decoration-line:none;text-decoration-style:solid;text-indent:0;text-orientation:mixed;text-transform:none;white-space:normal"/><path d="m-21.6 31.961c-1.0891 0-1.8679 0.48739-2.4949 1.2396-0.62704 0.74417-1.0386 1.6536-1.0386 2.9478 0 1.1405 0.35742 2.0619 0.91867 2.8384 0.38518 0.5374 0.89315 0.93409 1.4505 1.1596 0.37389 0.15112 0.76923 0.22212 1.1643 0.22439 0.89004 8e-3 1.764-0.44165 2.3828-1.2182 0.62708-0.78461 1.0463-1.7598 1.0463-3.0297 0-1.2456-0.39361-2.1542-1.0289-2.9146-0.62707-0.76845-1.3771-1.2474-2.4002-1.2474zm10.57 8e-3c-0.41365-8e-3 -0.83121 0.062-1.2127 0.207-0.19163 0.0729-0.51609 0.23422-0.65374 0.32603-0.30315 0.20172-0.61398 0.49381-0.84905 0.79844-0.12949 0.16766-0.20547 0.32978-0.28219 0.6071l-0.0446 0.16015v0.32602c-1.8e-4 0.32715 8e-5 0.3279 0.0446 0.49584 0.086 0.32527 0.17934 0.51226 0.40035 0.80234 0.0225 0.0303 0.0551 0.0695 0.0733 0.0898l0.0337 0.0378-0.0928 0.0838c-0.19948 0.18176-0.33458 0.34489-0.46996 0.56612-0.0913 0.14924-0.14 0.25612-0.21071 0.46269-0.0988 0.28822-0.11338 0.3923-0.11413 0.75548-5.03e-4 0.34566 2e-3 0.37399 0.089 0.67544 0.0886 0.30863 0.25562 0.61558 0.47 0.86286 0.49672 0.57342 1.4064 1.0229 2.2686 1.1205 0.0778 8e-3 0.18198 0.019 0.23018 0.0265 0.13437 0.015 0.40013 0.015 0.52798 0 0.0632-8e-3 0.1711-0.0188 0.24178-0.0265 0.39192-0.0434 0.79657-0.16503 1.2455-0.37284 0.27059-0.125 0.6468-0.38159 0.85294-0.58177 0.49684-0.4824 0.75464-1.1252 0.71946-1.7979-0.015-0.25877-0.0405-0.4123-0.10064-0.59344-0.15273-0.46184-0.28182-0.67491-0.60729-0.99755l-0.18179-0.18176 0.0519-0.0624c0.33834-0.40762 0.50729-0.85785 0.50677-1.3412-5.29e-4 -0.29881-0.0461-0.53688-0.16061-0.81208-0.0842-0.20287-0.23316-0.39874-0.5048-0.66766-0.35968-0.35547-0.60666-0.52128-1.0754-0.72033-0.37127-0.15789-0.78162-0.23912-1.1952-0.24593zm42.298 0.034c-0.50551 0-1.0363 0.12237-1.5511 0.31619-0.40434 0.15225-0.80947 0.33811-1.1101 0.62472-0.47727 0.45517-0.77677 1.1747-0.7543 1.837 0.01871 0.61451 0.35405 1.2473 0.81425 1.6496 0.51222 0.44722 1.3872 0.72386 2.0695 0.84529 0.27208 0.0494 0.41977 0.0598 0.63048 0.0528 0.34844-0.0113 0.68883-0.0494 1.0328-0.15413 0.3748-0.11409 0.67114-0.25762 0.67114-0.25762s-0.13137 0.50666-0.45836 0.98778c-0.24964 0.36794-0.67084 0.7193-0.90323 0.82969-0.38499 0.18138-0.8736 0.11898-1.2107-0.0389-0.31775-0.14924-0.49317-0.39045-0.49317-0.39045l-1.145 0.94684s0.3744 0.46652 0.96897 0.78472c0.3869 0.20702 0.95044 0.31166 1.2785 0.31619 0.78055 0.0113 1.6998-0.37511 2.2454-0.98778 0.26423-0.29579 0.65855-0.79463 0.87611-1.2884 0.30165-0.69538 0.39264-1.3704 0.39264-1.3704l-0.0021-2.3055s-0.15649-0.6509-0.32486-0.93312c-0.15386-0.25727-0.39582-0.49015-0.60538-0.66182-0.66117-0.54171-1.4624-0.80232-2.4215-0.80232zm-10.744 2e-3s1.11e-4 0.26445-0.0909 0.54466c-0.0965 0.28975-0.2878 0.59703-0.45836 0.76721-0.14786 0.14774-0.39661 0.31051-0.65371 0.40021-0.30728 0.10732-0.61309 0.12875-0.61309 0.12875l-0.0021 1.4992s0.65066-0.0408 0.96121-0.13252c0.27772-0.0819 0.78526-0.3668 0.78526-0.3668l0.0793 0.0389 4e-3 5.4777h1.4873l-0.01119-8.3572zm-42.132 1.4797c0.61878 0 1.0446 0.37551 1.3828 0.86088 0.26236 0.36758 0.44958 0.84896 0.52996 1.3353 0.0262 0.15601 0.0225 0.31581 0.03 0.46852 0.0187 0.37133-0.068 0.78124-0.19162 1.1498-0.0416 0.12386-0.10514 0.24818-0.16848 0.36681-0.0495 0.0932-0.10289 0.18551-0.16436 0.27123-0.13737 0.19115-0.2631 0.40357-0.4545 0.53877-0.27884 0.19682-0.48554 0.35736-0.95737 0.35736-0.30915 0-0.58584-0.0632-0.82392-0.20097-0.24477-0.1421-0.44867-0.36114-0.62857-0.6071-0.35481-0.49341-0.57249-1.0105-0.57249-1.876 0-0.85741 0.26985-1.4181 0.62472-1.9033 0.35482-0.48535 0.76545-0.76136 1.3925-0.76136zm10.527 0c0.22755-2.65e-4 0.24215 3.44e-4 0.41775 0.0468 0.20098 0.0532 0.41862 0.14511 0.53768 0.22627 0.0427 0.0303 0.10138 0.0699 0.13137 0.0898 0.0744 0.0494 0.3024 0.2754 0.35217 0.34944 0.0375 0.0532 0.0401 0.0737 0.0446 0.17762 7e-3 0.18926-4e-3 0.2108-0.18572 0.39435-0.26685 0.2701-0.50353 0.41116-0.85872 0.50757-0.13325 0.0378-0.17485 0.0404-0.3926 0.0449-0.27023 8e-3 -0.2893 4e-3 -0.45259-0.034-0.37888-0.0876-0.71669-0.29089-0.97284-0.58176-0.10626-0.12086-0.12387-0.1624-0.12387-0.29882 0-0.13402 0.015-0.17763 0.116-0.29465 0.24851-0.29353 0.58916-0.49566 0.99413-0.5915 0.13699-0.034 0.18422-0.0378 0.3926-0.0378zm42.428 0.0449c0.5033 0 0.91387 0.1047 1.2339 0.31429 0.10701 0.0748 0.24553 0.15488 0.33647 0.26747 0.10252 0.13609 0.19423 0.30599 0.2167 0.47243 0.01871 0.17424-0.0375 0.34754-0.116 0.49975-0.0491 0.0975-0.15611 0.16503-0.2126 0.24781-0.0558 0.0596-0.1235 0.0883-0.19162 0.13064-0.0469 0.0303-0.0935 0.0613-0.13924 0.0898-0.0424 0.0227-0.0763 0.0453-0.12201 0.0624-0.3271 0.13101-0.68237 0.2089-1.0366 0.2089-0.50345 0-0.76504-0.10695-1.1102-0.26745-0.0641-0.0303-0.12874-0.0654-0.18572-0.10357-0.12762-0.0767-0.24327-0.16578-0.32299-0.26935-0.0525-0.0737-0.12013-0.18176-0.15461-0.2852-0.0337-0.0883-0.0375-0.20022-0.0337-0.27728h4e-3c0.01119-0.29807 0.3009-0.61853 0.6131-0.81209 0.3114-0.18514 0.71886-0.27916 1.2223-0.27916zm-32.121 1.2611c-0.17635-8e-3 -0.3563-4e-3 -0.48156 0.0113-0.0337 4e-3 -0.10738 0.015-0.16061 0.0228-0.10513 0.015-0.2208 0.0389-0.33272 0.0722-0.0394 0.0113-0.0841 0.0227-0.0988 0.0265-0.0682 0.015-0.26423 0.094-0.38874 0.15413-0.16811 0.0816-0.26873 0.13834-0.41196 0.23422l-0.11039 0.074 0.0733 0.10357c0.0409 0.0575 0.17335 0.24101 0.29417 0.40797l0.22043 0.30261 0.03-0.0228c0.0935-0.0725 0.31812-0.19266 0.46222-0.24781 0.15049-0.0573 0.23878-0.0816 0.40424-0.11146 0.131-0.0227 0.15986-0.0265 0.34807-0.0265 0.18385 6.35e-4 0.22193 4e-3 0.3402 0.0265 0.13212 0.0265 0.30428 0.0707 0.3965 0.10545 0.02619 0.0113 0.11825 0.0528 0.2051 0.0955 0.15161 0.0748 0.15836 0.079 0.1741 0.11522 0.0386 0.088 0.045 0.21419 0.015 0.30071-0.01119 0.034-0.01871 0.0378-0.18197 0.12311-0.24288 0.12575-0.4694 0.19605-0.72529 0.22439-0.0442 4e-3 -0.22567 0.0113-0.4042 0.0113h-0.32487v1.0014l0.36942 4e-3c0.34768 4e-3 0.37669 8e-3 0.5048 0.0303 0.23878 0.0415 0.3694 0.0774 0.55892 0.15225 0.16174 0.0639 0.18901 0.0767 0.2242 0.1092 0.2036 0.19076 0.27245 0.47077 0.17785 0.72035-0.0525 0.13834-0.16398 0.27803-0.25152 0.31431-0.02619 0.0113-0.074 0.0303-0.10626 0.043-0.40298 0.16767-0.81367 0.22817-1.2552 0.18176-0.39012-0.0412-0.81387-0.19869-1.1256-0.41581-0.056-0.0393-0.0669-0.0427-0.0774-0.0303-0.02619 0.0265-0.55597 0.7817-0.55896 0.7945-4e-3 0.015 0.0678 0.0692 0.22642 0.16578 0.51087 0.31166 1.1351 0.49269 1.7368 0.50564h0.0021c0.0495 9.26e-4 0.13549 1e-3 0.19162 0 0.0898-2e-3 0.15274-8e-3 0.37127-0.034 0.2096-0.0265 0.57885-0.12049 0.76976-0.19909 0.0547-0.0227 0.12388-0.0506 0.15461-0.0624 0.0827-0.0303 0.21483-0.0998 0.28443-0.14662 0.0752-0.0506 0.20585-0.17499 0.29007-0.2754 0.18975-0.22552 0.32973-0.5484 0.37126-0.85699 0.015-0.11147 4e-3 -0.42211-0.01879-0.52906-0.077-0.36566-0.24627-0.66868-0.50866-0.91166l-0.0637-0.0585 0.0581-0.0722c0.0562-0.0714 0.14337-0.20815 0.1801-0.28106 0.0628-0.12537 0.12313-0.34905 0.1355-0.49974 0.03-0.3517-0.056-0.67672-0.25151-0.96436-0.0547-0.0804-0.0725-0.0991-0.14111-0.14661-0.13325-0.0921-0.406-0.24403-0.52995-0.29465-0.15387-0.0631-0.36753-0.13364-0.47192-0.15601-0.0588-0.0113-0.12012-0.0265-0.13737-0.0303-0.10663-0.0265-0.27846-0.0464-0.45452-0.0547zm5.8564 2e-3c-0.72257 0-1.2395 0.32262-1.6556 0.82186-0.41604 0.49374-0.6885 1.0974-0.6885 1.9561 0 0.7567 0.2369 1.3686 0.60923 1.8838 0.25562 0.35662 0.59335 0.61954 0.96316 0.76916 0.24815 0.10056 0.50952 0.14661 0.77167 0.14849 0.59052 4e-3 1.1696-0.29314 1.5801-0.80818 0.41607-0.5206 0.69433-1.1682 0.69433-2.0107 0-0.82649-0.25935-1.4301-0.68078-1.9346-0.41604-0.50986-0.91488-0.82579-1.5937-0.82579zm36.506 0c-0.72259 0-1.2376 0.32262-1.6536 0.82186-0.41604 0.49374-0.69048 1.0974-0.69048 1.9561 0 0.7567 0.2369 1.3686 0.60922 1.8838 0.25563 0.35662 0.59335 0.61954 0.96316 0.76916 0.24815 0.10056 0.50957 0.14661 0.77171 0.14849 0.59052 4e-3 1.1715-0.29314 1.5821-0.80818 0.41606-0.5206 0.69243-1.1682 0.69243-2.0107 0-0.82649-0.25937-1.4301-0.68083-1.9346-0.41603-0.50986-0.91485-0.82579-1.5937-0.82579zm7.0671 0c-0.72258 0-1.2395 0.32262-1.6556 0.82186-0.41604 0.49374-0.69048 1.0974-0.69048 1.9561 0 0.7567 0.23878 1.3686 0.61117 1.8838 0.25563 0.35662 0.59142 0.61954 0.96124 0.76916 0.24812 0.10056 0.51149 0.14661 0.77363 0.14849 0.59052 4e-3 1.1696-0.29314 1.5801-0.80818 0.41607-0.5206 0.69435-1.1682 0.69435-2.0107 0-0.82649-0.26125-1.4301-0.68271-1.9346-0.41606-0.50986-0.91294-0.82579-1.5918-0.82579zm-37.579 0.67926v1.4309h3.9552v-1.4309zm-5.9995 0.32979c0.41057 0 0.69427 0.25009 0.91871 0.57201 0.1741 0.24366 0.2968 0.56162 0.34994 0.88431 0.01881 0.10357 0.015 0.2089 0.02249 0.31053 0.0113 0.24629-0.0438 0.5207-0.12575 0.76523-0.02619 0.0823-0.0705 0.16316-0.11225 0.24216-0.0337 0.062-0.0692 0.12274-0.11039 0.1795-0.0909 0.12688-0.1726 0.26935-0.29977 0.35925-0.18498 0.13064-0.32338 0.2361-0.63633 0.2361-0.2051 0-0.38939-0.0412-0.54732-0.13251-0.16248-0.0945-0.29642-0.24063-0.41586-0.4041-0.2354-0.32753-0.37905-0.67125-0.37905-1.2455 0-0.56885 0.1786-0.9391 0.41391-1.2611 0.2354-0.32187 0.50649-0.5056 0.92251-0.5056zm36.506 0c0.41057 0 0.69423 0.25009 0.91867 0.57201 0.17411 0.24366 0.29867 0.56162 0.3522 0.88431 0.01871 0.10357 0.015 0.2089 0.01871 0.31053 0.01119 0.24629-0.0438 0.5207-0.12575 0.76523-0.02619 0.0823-0.0703 0.16316-0.11226 0.24216-0.0337 0.062-0.0675 0.12274-0.10813 0.1795-0.0909 0.12688-0.17485 0.26935-0.30165 0.35925-0.18498 0.13064-0.32338 0.2361-0.63633 0.2361-0.2051 0-0.38939-0.0412-0.54732-0.13251-0.16248-0.0945-0.29642-0.24063-0.41586-0.4041-0.2354-0.32753-0.37905-0.67125-0.37905-1.2455 0-0.56885 0.1786-0.9391 0.41387-1.2611 0.2354-0.32187 0.50653-0.5056 0.92255-0.5056zm7.0671 0c0.41058 0 0.69229 0.25009 0.91673 0.57201 0.1741 0.24366 0.29867 0.56162 0.35182 0.88431 0.01871 0.10357 0.015 0.2089 0.02249 0.31053 0.01119 0.24629-0.0461 0.5207-0.12763 0.76523-0.02619 0.0823-0.0686 0.16316-0.11001 0.24216-0.0337 0.062-0.0692 0.12274-0.11038 0.1795-0.0909 0.12688-0.17485 0.26935-0.30165 0.35925-0.18497 0.13064-0.3215 0.2361-0.63438 0.2361-0.20509 0-0.38943-0.0412-0.54736-0.13251-0.16248-0.0945-0.29829-0.24063-0.41777-0.4041-0.2354-0.32753-0.37905-0.67125-0.37905-1.2455 0-0.56885 0.18048-0.9391 0.41582-1.2611 0.23541-0.32187 0.50653-0.5056 0.92255-0.5056zm-59.695 0.71451c0.16399 2e-3 0.32712 0.015 0.4313 0.034 0.17785 0.0378 0.42353 0.12123 0.60535 0.207 0.14562 0.0688 0.40649 0.23837 0.4932 0.31997 0.10026 0.0947 0.18752 0.23837 0.23205 0.38263 0.02249 0.0692 0.03 0.28219 0.015 0.37475-0.01871 0.12161-0.0752 0.2482-0.15873 0.36304-0.0564 0.0782-0.0988 0.11786-0.22043 0.20285-0.19687 0.13797-0.35107 0.22251-0.53383 0.29088-0.24701 0.0921-0.31925 0.11146-0.54926 0.14661-0.31514 0.0479-0.46814 0.0442-0.85486-0.0228-0.23992-0.0408-0.60991-0.19418-0.84132-0.34754-0.18423-0.12199-0.22043-0.15187-0.30166-0.25198-0.13137-0.16203-0.18825-0.31732-0.18937-0.52124-8.2e-4 -0.13515 7e-3 -0.17725 0.0465-0.29087 0.0401-0.11334 0.0684-0.16127 0.15686-0.26558 0.10063-0.11935 0.36229-0.30032 0.56861-0.39239 0.25562-0.11409 0.42652-0.16841 0.66338-0.2089 0.10851-0.0188 0.2751-0.0265 0.43903-0.0227zm5.9917 2.3523c-0.40408 4e-3 -0.72948 0.33591-0.72913 0.74378 5.29e-4 0.40338 0.31993 0.73261 0.71947 0.74182 3.9e-5 1.9e-4 0.0021 0.0113 0.0021 0.0113s0.02619 0.24252-0.01119 0.47828c-0.0394 0.25122-0.14299 0.49972-0.23204 0.68323-0.10851 0.22364-0.47966 0.57005-0.47966 0.57005s0.54216-0.24971 0.93802-0.7672c0.33909-0.44331 0.54153-1.1281 0.54153-1.5129 0-0.0423-8e-3 -0.0733-0.01119-0.11147 4e-3 -0.031 7e-3 -0.0623 7e-3 -0.0936 2.65e-4 -0.41092-0.32978-0.74413-0.73689-0.74379-0.0021-1e-5 -5e-3 -1e-5 -7e-3 0zm42.341 0c-0.40409 4e-3 -0.72952 0.33583-0.72915 0.74378 5.29e-4 0.40339 0.32 0.73261 0.71946 0.74182 7.9e-5 1.9e-4 0.0021 0.0113 0.0021 0.0113s0.02619 0.24252-0.01119 0.47828c-0.0393 0.25122-0.14299 0.49972-0.23205 0.68323-0.10851 0.22364-0.47967 0.57005-0.47967 0.57005s0.54221-0.25008 0.93804-0.7672c0.33907-0.44331 0.54155-1.1281 0.54155-1.5129 0-0.0423-0.0011-0.0741-0.0021-0.11147-5.29e-4 -0.0303-0.0021-0.0624-0.0021-0.0936 2.65e-4 -0.41094-0.32973-0.74413-0.73691-0.74379h-7e-3z"/></g></svg>