<svg width="99.223mm" height="33.187mm" version="1.1" viewBox="0 0 99.223 33.187" xmlns="http://www.w3.org/2000/svg"><defs><clipPath><path d="m304.91 571.96h81.055v28.348h-81.055z"/></clipPath></defs><g transform="translate(36.101 -57.47)"><path d="m-29.959 57.554c-3.325 0-6.0586 2.7318-6.0586 6.0567v20.906c0 3.3249 2.7336 6.0566 6.0586 6.0566h86.938c3.325 0 6.0586-2.7318 6.0586-6.0566v-20.906c0-3.3248-2.7336-6.0567-6.0586-6.0567z" color="#000000" color-rendering="auto" dominant-baseline="auto" enable-background="accumulate" fill="#fff" fill-rule="evenodd" image-rendering="auto" shape-rendering="auto" solid-color="#000000" stop-color="#000000" stroke="#000" stroke-linecap="round" stroke-linejoin="round" stroke-width=".16775" style="font-feature-settings:normal;font-variant-alternates:normal;font-variant-caps:normal;font-variant-east-asian:normal;font-variant-ligatures:normal;font-variant-numeric:normal;font-variant-position:normal;font-variation-settings:normal;inline-size:0;isolation:auto;mix-blend-mode:normal;shape-margin:0;shape-padding:0;text-decoration-color:#000000;text-decoration-line:none;text-decoration-style:solid;text-indent:0;text-orientation:mixed;text-transform:none;white-space:normal"/><path d="m-29.958 59.153c-2.4529 0-4.459 2.0055-4.459 4.4578v20.905c0 2.4523 2.0061 4.4578 4.459 4.4578h86.938c2.4529 0 4.4589-2.0055 4.4589-4.4578v-20.905c0-2.4523-2.006-4.4578-4.4589-4.4578zm0 1.9995h86.938c1.3795 0 2.459 1.0791 2.459 2.4583v20.905c0 1.3792-1.0794 2.4583-2.459 2.4583h-86.938c-1.3795 0-2.459-1.0792-2.459-2.4583v-20.905c0-1.3792 1.0794-2.4583 2.459-2.4583z" color="#000000" color-rendering="auto" dominant-baseline="auto" enable-background="accumulate" fill-rule="evenodd" image-rendering="auto" shape-rendering="auto" solid-color="#000000" stop-color="#000000" style="font-feature-settings:normal;font-variant-alternates:normal;font-variant-caps:normal;font-variant-east-asian:normal;font-variant-ligatures:normal;font-variant-numeric:normal;font-variant-position:normal;font-variation-settings:normal;inline-size:0;isolation:auto;mix-blend-mode:normal;shape-margin:0;shape-padding:0;text-decoration-color:#000000;text-decoration-line:none;text-decoration-style:solid;text-indent:0;text-orientation:mixed;text-transform:none;white-space:normal"/><path d="m-19.841 69.943c-0.26034-0.01043-0.52565-0.0083-0.71056 0.01626-0.04977 0.0074-0.15766 0.02559-0.23625 0.03611-0.1552 0.02448-0.32714 0.05754-0.49234 0.10643-0.05814 0.01746-0.12437 0.03371-0.14608 0.03787-0.10065 0.02448-0.3897 0.14043-0.5735 0.2291-0.24817 0.12078-0.39632 0.20281-0.60776 0.34454l-0.16231 0.11004 0.10821 0.15334c0.06038 0.08516 0.25445 0.35418 0.43283 0.6007l0.32642 0.44736 0.04328-0.03427c0.13802-0.1071 0.47079-0.28478 0.68351-0.36619 0.22217-0.08451 0.35269-0.12017 0.59694-0.16415 0.19341-0.03491 0.23434-0.03972 0.51218-0.03972 0.27141 8.89e-4 0.32859 0.0074 0.50316 0.03972 0.19505 0.03907 0.44818 0.10382 0.58432 0.15514 0.03867 0.01746 0.17476 0.07749 0.30298 0.1407 0.22381 0.11066 0.23469 0.1165 0.25789 0.16956 0.05699 0.12986 0.06575 0.3178 0.02164 0.44556-0.01675 0.04997-0.02801 0.05439-0.26872 0.1804-0.35855 0.18536-0.6917 0.29003-1.0694 0.33191-0.06523 0.0074-0.3334 0.01801-0.59694 0.01801h-0.47972v1.4774l0.54464 0.0074c0.51325 0.0074 0.55571 0.0109 0.74483 0.04507 0.3525 0.06142 0.54621 0.11483 0.82598 0.22549 0.23874 0.09425 0.27807 0.11238 0.33003 0.16055 0.30055 0.28136 0.40296 0.69574 0.2633 1.0643-0.07748 0.20421-0.24227 0.41001-0.37151 0.4636-0.03867 0.01746-0.1093 0.04424-0.1569 0.06318-0.59488 0.2475-1.2003 0.3372-1.8522 0.26878-0.5759-0.06078-1.2025-0.2926-1.6628-0.61332-0.08268-0.05828-0.09812-0.06364-0.11362-0.04507-0.03867 0.03907-0.82157 1.1536-0.82598 1.1725-0.0059 0.02448 0.10127 0.10291 0.33544 0.24534 0.75416 0.46018 1.6745 0.72772 2.5627 0.74681h0.0036c0.07307 8.89e-4 0.20033 0.0018 0.28314 0 0.13258-0.0027 0.22567-0.01108 0.54825-0.05052 0.30942-0.03907 0.85435-0.17814 1.1362-0.29404 0.08076-0.03491 0.1837-0.07453 0.22904-0.09199 0.12208-0.0447 0.31565-0.14735 0.4184-0.21647 0.11102-0.07471 0.30489-0.25751 0.42922-0.40587 0.2801-0.33302 0.48694-0.81069 0.54825-1.2663 0.02234-0.1647 5e-3 -0.62316-0.02886-0.78109-0.11367-0.53992-0.36289-0.98693-0.75024-1.3457l-0.09378-0.08654 0.08476-0.10643c0.08296-0.10543 0.21271-0.30707 0.26691-0.4149 0.09269-0.18502 0.1819-0.51529 0.20018-0.7378 0.04429-0.51932-0.0829-1.0003-0.37151-1.4251-0.08072-0.11868-0.10792-0.14596-0.2092-0.21646-0.19672-0.13615-0.59972-0.36001-0.7827-0.43475-0.22716-0.0932-0.54203-0.19773-0.69613-0.2309-0.0868-0.01746-0.17655-0.03768-0.20199-0.04332-0.15743-0.03907-0.41098-0.06899-0.67089-0.08118zm10.554 0.0018c-1.0667 0-1.8295 0.47692-2.4437 1.214-0.61417 0.72909-1.0171 1.6201-1.0171 2.8881 0 1.1173 0.35029 2.0209 0.89992 2.7816 0.37735 0.52658 0.8752 0.91552 1.4211 1.1365 0.36632 0.14828 0.75279 0.21583 1.1398 0.21826 0.87174 0.0074 1.7258-0.43187 2.3319-1.1924 0.61421-0.7687 1.0244-1.7251 1.0244-2.9692 0-1.2204-0.3824-2.1125-1.0045-2.8574-0.61417-0.75282-1.3496-1.2194-2.3517-1.2194zm33.099 0.02346v8.251h1.3165v-2.3126l0.55546-0.46721 2.0866 2.7798h1.6412l-2.7232-3.6366 2.7232-2.3072h-2.0325l-2.2507 1.9013v-4.2085zm14.004 0v8.251h1.3183v-2.3126l0.55366-0.46721 2.0866 2.7798h1.6411l-2.7214-3.6367 2.7214-2.3072h-2.0325l-2.2489 1.9013v-4.2085zm-33.135 0.0037v8.2636l2.0758 0.0092s1.4626 6.99e-4 1.6249-0.03067c0.09053-0.01745 0.16859-0.03297 0.17313-0.03251 0.0049 0 0.01879-0.0037 0.03066-0.0074 0.01191-0.0046 0.08311-0.0241 0.1587-0.04507 0.21632-0.06003 0.41365-0.13502 0.58612-0.22188 0.3599-0.18114 0.56056-0.32406 0.85123-0.60612 0.29645-0.28771 0.48794-0.55191 0.66007-0.90916 0.3731-0.77415 0.53259-2.0344 0.39135-3.0973-0.1267-0.95363-0.34211-1.5208-0.79893-2.107-0.08283-0.10625-0.40994-0.42393-0.56088-0.54297-0.22053-0.17433-0.68577-0.4166-0.936-0.48885-0.03773-0.01154-0.12534-0.03676-0.19297-0.05772-0.0676-0.0206-0.18411-0.04553-0.2597-0.05957-0.07556-0.01044-0.17265-0.02743-0.21642-0.03787-0.05832-0.01394-0.54835-0.02273-1.8341-0.0253zm27.869 0.32118v1.3187h1.3129v-1.3187zm-41.846 1.1418h0.00183c0.60506 7.62e-4 1.0234 0.37119 1.3544 0.84603 0.257 0.35979 0.43915 0.82776 0.51759 1.3042 0.027919 0.15324 0.021646 0.31003 0.032465 0.45999 0.016401 0.36368-0.064796 0.76816-0.18576 1.1292-0.038669 0.12148-0.10429 0.24048-0.16592 0.35717-0.049768 0.09181-0.10148 0.1814-0.16231 0.26517-0.13419 0.18745-0.25592 0.39763-0.44365 0.53035-0.27305 0.19304-0.47762 0.34815-0.9396 0.34815-0.30278 0-0.57481-0.05976-0.80795-0.19482-0.23986-0.13963-0.43686-0.3557-0.61317-0.59709-0.34749-0.48364-0.55907-0.99027-0.55907-1.8382 0-0.83995 0.26401-1.388 0.61137-1.8634 0.34712-0.47478 0.74676-0.74625 1.3598-0.74682zm15.452 0.02881 0.98649 0.0037c1.079 0.0046 1.0394 0.0018 1.3129 0.0938 0.12886 0.04369 0.3778 0.16451 0.44906 0.21827 0.19342 0.14598 0.31283 0.26334 0.42381 0.4131 0.21293 0.28743 0.31605 0.56894 0.40758 1.1166 0.08474 0.50581 0.07684 1.2932-0.01624 1.6993-0.01177 0.05163-0.03141 0.14532-0.04328 0.20745-0.09467 0.49503-0.33944 0.90131-0.71417 1.1834-0.05175 0.03944-0.17647 0.1132-0.27593 0.16416-0.17373 0.08968-0.22134 0.10615-0.46169 0.16235v0.0018c-0.09642 0.02448-0.21829 0.02724-1.0893 0.03067l-0.97928 0.0037zm10.909 0.81536c-0.3732-0.02023-0.98031 0.05098-1.4536 0.17137-0.60206 0.1521-1.037 0.36258-1.037 0.36258l0.53923 1.2032s0.34294-0.18792 0.96485-0.31568c0.18155-0.03704 0.44738-0.07453 0.67269-0.09199 0.13925-0.01256 0.2787-0.01598 0.4184-0.01265 0.11332 0.0037 0.23097-6.2e-4 0.33905 0.03427 0.30256 0.09644 0.64122 0.2182 0.82779 0.47442 0.07594 0.10444 0.15312 0.30058 0.18035 0.4636 0.01746 0.10647-0.01624 0.3229-0.01624 0.3229s-0.29802-0.12751-0.67449-0.21827c-0.31524-0.07398-0.6915-0.11632-0.9396-0.08839-0.23486 0.02549-0.47001 0.05135-0.70876 0.11004-0.63288 0.15338-1.2517 0.46628-1.6682 0.93442-0.20304 0.22816-0.26924 0.55874-0.2633 0.85685 0.0043 0.22648 0.08222 0.46525 0.22363 0.64219 0.12328 0.15475 0.26214 0.27276 0.4166 0.38062 0.32728 0.22641 0.70098 0.41516 1.064 0.54117 0.45272 0.15848 0.95106 0.18853 1.4283 0.15153 0.39238-0.03076 1.1416-0.29944 1.1416-0.29944v0.14972h1.3346v-3.4112c0-0.6991-0.34842-1.294-0.85664-1.7317-0.5082-0.43876-1.2237-0.59256-1.9333-0.62957zm31.436 0c-0.37319-0.02097-0.9803 0.05098-1.4536 0.17137-0.60206 0.1522-1.037 0.36258-1.037 0.36258l0.53923 1.2032s0.34296-0.18792 0.96486-0.31568c0.18152-0.03704 0.44737-0.07416 0.67268-0.09199 0.13925-0.01394 0.2787-0.01792 0.4184-0.01441 0.11332 0.0037 0.23096 5.18e-4 0.33904 0.03611 0.30258 0.09634 0.64122 0.21816 0.82779 0.47442 0.0759 0.10438 0.15313 0.30055 0.18035 0.4636 0.01746 0.10647-0.01625 0.3229-0.01625 0.3229s-0.29803-0.12751-0.67449-0.21827c-0.31524-0.07398-0.69153-0.11632-0.93959-0.08839-0.23488 0.02448-0.47002 0.05135-0.70876 0.11004-0.63288 0.15324-1.2517 0.46631-1.6682 0.93442-0.20305 0.2283-0.26925 0.55874-0.26331 0.85685 0.0046 0.22655 0.08218 0.46527 0.22363 0.64219 0.12326 0.15465 0.26213 0.27263 0.4166 0.38062 0.32728 0.22656 0.70098 0.41516 1.064 0.54117 0.45272 0.15848 0.95106 0.18853 1.4283 0.15153 0.39237-0.0314 1.1416-0.29944 1.1416-0.29944v0.14972h1.3346v-3.4112c0-0.6991-0.34844-1.294-0.85665-1.7317-0.5082-0.43875-1.2237-0.59256-1.9333-0.62957zm-15.952 0.0018v5.9475h1.3129v-5.9474zm-15.533 3.6331c0.23933-0.0018 0.59595 0.04572 0.88369 0.16055 0.32614 0.13008 0.56864 0.32406 0.5717 0.32651-0.0018 0.0018-0.24606 0.19138-0.55907 0.32109-0.28623 0.11554-0.62885 0.17159-0.86927 0.17137-0.24381 0-0.6606-0.07767-0.94862-0.19842-0.30473-0.12532-0.47431-0.29224-0.47431-0.29224s0.19765-0.17407 0.52661-0.30847c0.26778-0.10716 0.64804-0.17906 0.86927-0.18039zm31.436 0c0.23934-0.0018 0.59595 0.04572 0.8837 0.16055 0.32613 0.13021 0.56864 0.32406 0.57169 0.32651-0.0019 0.0018-0.24607 0.19123-0.55907 0.32109-0.28623 0.11554-0.62884 0.17172-0.86926 0.17137-0.2438 0-0.6606-0.07767-0.94862-0.19842-0.30474-0.12532-0.47431-0.29224-0.47431-0.29224s0.19767-0.17407 0.52661-0.30847c0.26779-0.10716 0.64805-0.17899 0.86927-0.18039z"/></g></svg>