<svg width="100.34mm" height="66.57mm" version="1.1" viewBox="0 0 100.34 66.57" xmlns="http://www.w3.org/2000/svg"><defs><clipPath><path d="m0 0h266.48v167.56h-266.48z"/></clipPath></defs><g transform="translate(242.45 12.299)"><path d="m-236.35-12.199h87.887c3.4347 0 6.2544 2.6684 6.2544 6.0913v54.434c0 3.4229-2.4337 5.8447-5.8684 5.8447l-88.425-4.97e-4c-3.4347-1.9e-5 -5.849-2.7934-5.849-6.2164v-54.112c0-3.4229 2.5663-6.0413 6.001-6.0413z" fill="#fff" fill-rule="evenodd" opacity=".99988" stroke="#000" stroke-linecap="round" stroke-linejoin="round" stroke-miterlimit="10" stroke-opacity=".90588" stroke-width=".2"/><g transform="matrix(13.477 0 0 -8.4749 -545.32 295.11)" fill="#0000d6" fill-opacity=".82353" stroke-miterlimit="10" stroke-width=".046786"><g transform="matrix(.27019 0 0 .42969 6.7086 .29524)" fill="#0000d6" fill-opacity=".82353" stroke-miterlimit="10" stroke-width=".13731"></g></g><g fill-rule="evenodd"><path d="m-236.21-10.498c-2.4529 0-4.459 2.0061-4.459 4.459v54.047c0 2.4529 2.006 4.459 4.459 4.459h87.838c2.4529 0 4.459-2.0061 4.459-4.459v-54.047c0-2.4529-2.006-4.459-4.459-4.459zm0 2h87.838c1.3795 0 2.459 1.0795 2.459 2.459v54.047c0 1.3795-1.0795 2.459-2.459 2.459h-87.838c-1.3795 0-2.459-1.0795-2.459-2.459v-54.047c0-1.3795 1.0795-2.459 2.459-2.459z" color="#000000" color-rendering="auto" dominant-baseline="auto" enable-background="accumulate" image-rendering="auto" opacity=".99988" shape-rendering="auto" solid-color="#000000" stop-color="#000000" style="font-feature-settings:normal;font-variant-alternates:normal;font-variant-caps:normal;font-variant-east-asian:normal;font-variant-ligatures:normal;font-variant-numeric:normal;font-variant-position:normal;font-variation-settings:normal;inline-size:0;isolation:auto;mix-blend-mode:normal;shape-margin:0;shape-padding:0;text-decoration-color:#000000;text-decoration-line:none;text-decoration-style:solid;text-indent:0;text-orientation:mixed;text-transform:none;white-space:normal"/><path d="m-199.7 7.5444-10.835 8.5819-13.37 0.95033-1.6474 4.9439 2.7569 5.4632 5.5438 0.86196s0.0556-2.1532 1.2831-3.7192c0.60572-0.77275 1.4498-1.4139 2.3916-1.8009 0.77874-0.31998 1.6535-0.454 2.2557-0.4563 0.64327-0.0024 1.5194 0.09852 2.3327 0.45165 0.96571 0.41932 1.865 1.1563 2.4867 1.9642 1.1415 1.4835 1.1632 3.5223 1.1632 3.5223h25.409s0.0766-2.1335 1.2803-3.6821c0.5269-0.67787 1.303-1.3154 2.1127-1.6973 0.86081-0.40605 1.7595-0.53534 2.4368-0.54166 0.64779-0.0061 1.5757 0.05073 2.4183 0.42119 0.96283 0.4233 1.8373 1.2103 2.4518 1.9883 1.1907 1.5073 1.1815 3.5116 1.1815 3.5116l7.5086-0.56999 1.4888-5.9071-0.85473-5.704h-10.868l-8.6801-8.5819zm8.8086 1.8509h6.7487l4.5304 6.7309h-11.279zm-1.6475 6.7309h-15.113l8.2694-6.7309h6.8438z" opacity=".99988"/><path d="m-211.27 23.3c-2.7564-4e-6 -5.0132 2.2613-5.0132 5.0059 0 2.7446 2.2568 5.0072 5.0132 5.0072 2.7564-6e-6 5.0145-2.2625 5.0145-5.0072 0-2.7446-2.258-5.0059-5.0145-5.0059zm0 2.778c1.2385 5e-6 2.2206 0.97677 2.2206 2.228 0 1.2512-0.98211 2.2292-2.2206 2.2292-1.2385 5e-6 -2.2193-0.97803-2.2193-2.2292 0-1.2512 0.98085-2.228 2.2193-2.228z" color="#000000" color-rendering="auto" dominant-baseline="auto" enable-background="accumulate" image-rendering="auto" opacity=".99988" shape-rendering="auto" solid-color="#000000" stop-color="#000000" style="font-feature-settings:normal;font-variant-alternates:normal;font-variant-caps:normal;font-variant-east-asian:normal;font-variant-ligatures:normal;font-variant-numeric:normal;font-variant-position:normal;font-variation-settings:normal;inline-size:0;isolation:auto;mix-blend-mode:normal;shape-margin:0;shape-padding:0;text-decoration-color:#000000;text-decoration-line:none;text-decoration-style:solid;text-indent:0;text-orientation:mixed;text-transform:none;white-space:normal"/><path d="m-174 23.3c-2.7564-4e-6 -5.0132 2.2613-5.0132 5.0059 0 2.7446 2.2568 5.0072 5.0132 5.0072 2.7564-6e-6 5.0145-2.2625 5.0145-5.0072 0-2.7446-2.258-5.0059-5.0145-5.0059zm0 2.778c1.2385 5e-6 2.2206 0.97677 2.2206 2.228 0 1.2512-0.98211 2.2292-2.2206 2.2292-1.2385 5e-6 -2.2193-0.97803-2.2193-2.2292 0-1.2512 0.98085-2.228 2.2193-2.228z" color="#000000" color-rendering="auto" dominant-baseline="auto" enable-background="accumulate" image-rendering="auto" opacity=".99988" shape-rendering="auto" solid-color="#000000" stop-color="#000000" style="font-feature-settings:normal;font-variant-alternates:normal;font-variant-caps:normal;font-variant-east-asian:normal;font-variant-ligatures:normal;font-variant-numeric:normal;font-variant-position:normal;font-variation-settings:normal;inline-size:0;isolation:auto;mix-blend-mode:normal;shape-margin:0;shape-padding:0;text-decoration-color:#000000;text-decoration-line:none;text-decoration-style:solid;text-indent:0;text-orientation:mixed;text-transform:none;white-space:normal"/></g></g></svg>