<svg width="100.34mm" height="66.57mm" version="1.1" viewBox="0 0 100.34 66.57" xmlns="http://www.w3.org/2000/svg"><defs><clipPath><path d="m0 0h266.48v167.56h-266.48z"/></clipPath><clipPath id="a"><path d="m0 0h459.09v177.77h-459.09z"/></clipPath></defs><g transform="translate(242.45 12.299)"><path d="m-236.35-12.199h87.887c3.4347 0 6.2544 2.6684 6.2544 6.0913v54.434c0 3.4229-2.4337 5.8447-5.8684 5.8447l-88.425-4.97e-4c-3.4347-1.9e-5 -5.849-2.7934-5.849-6.2164v-54.112c0-3.4229 2.5663-6.0413 6.001-6.0413z" fill="#fff" fill-rule="evenodd" opacity=".99988" stroke="#000" stroke-linecap="round" stroke-linejoin="round" stroke-miterlimit="10" stroke-opacity=".90588" stroke-width=".2"/><g transform="matrix(13.477 0 0 -8.4749 -545.32 295.11)" fill="#0000d6" fill-opacity=".82353" stroke-miterlimit="10" stroke-width=".046786"><g transform="matrix(.27019 0 0 .42969 6.7086 .29524)" fill="#0000d6" fill-opacity=".82353" stroke-miterlimit="10" stroke-width=".13731"></g></g><g><path d="m-236.21-10.498c-2.4529 0-4.459 2.0061-4.459 4.459v54.047c0 2.4529 2.006 4.459 4.459 4.459h87.838c2.4529 0 4.459-2.0061 4.459-4.459v-54.047c0-2.4529-2.006-4.459-4.459-4.459zm0 2h87.838c1.3795 0 2.459 1.0795 2.459 2.459v54.047c0 1.3795-1.0795 2.459-2.459 2.459h-87.838c-1.3795 0-2.459-1.0795-2.459-2.459v-54.047c0-1.3795 1.0795-2.459 2.459-2.459z" color="#000000" color-rendering="auto" dominant-baseline="auto" enable-background="accumulate" fill-rule="evenodd" image-rendering="auto" opacity=".99988" shape-rendering="auto" solid-color="#000000" stop-color="#000000" style="font-feature-settings:normal;font-variant-alternates:normal;font-variant-caps:normal;font-variant-east-asian:normal;font-variant-ligatures:normal;font-variant-numeric:normal;font-variant-position:normal;font-variation-settings:normal;inline-size:0;isolation:auto;mix-blend-mode:normal;shape-margin:0;shape-padding:0;text-decoration-color:#000000;text-decoration-line:none;text-decoration-style:solid;text-indent:0;text-orientation:mixed;text-transform:none;white-space:normal"/><g transform="matrix(4.1412 0 0 -1.5946 -439.94 87.709)" stroke-width=".25396"><g transform="scale(.15683 .40502)" stroke-width=".25396"><g clip-path="url(#a)" stroke-width=".25396"><path transform="matrix(.40245 0 0 -.40471 459.04 114.47)" d="m-315.88-16.201-1.7891 34.223h23.121v-34.223zm25.889 0-0.0508 34.223h222.2v-7.6836l-8.1758-26.539zm125.46 6.1287v23.449h-36.949v-23.449zm-83.688 0v23.449h-36.924v-23.449zm125.46 0h-36.949v23.449h36.949zm-120.54 0h36.924v23.449h-36.924zm-55.386 0v23.449h-14.834l1.0685-23.449zm180.82 0h37.123l7.2556 23.449h-44.379zm-200.75 32.17-3.0801 29.701h23.705s-0.32127-1.9428-0.0286-4.5781c0.29204-2.6296 1.1961-5.9487 2.9425-8.7153 1.6328-2.5866 3.0302-4.3826 5.7863-6.3548 3.8144-2.7294 8.6719-3.8484 11.856-3.8707 2.5113-0.01756 6.3068 0.52912 9.6214 2.1257 3.3901 1.6329 6.2933 4.3479 8.2727 7.2135 4.2091 6.0936 3.2493 14.18 3.2493 14.18h104.36s-0.54894-7.9766 3.7504-14.228c1.6284-2.3679 3.7494-4.6792 6.4292-6.2635 3.5142-2.0776 7.7347-3.0833 10.506-3.1186 3.0996-0.03944 7.2211 0.81035 10.84 2.8273 2.6498 1.4769 4.9806 3.6618 6.6898 6.1707 2.0072 2.9463 3.1116 6.668 3.5398 9.5415 0.38826 2.6058 0.18888 4.5141 0.18888 4.5141l42.143-3.0312v-26.113z" fill-rule="evenodd" opacity=".99988"/></g></g></g><path d="m-176.03 22.366c-2.3493-3e-6 -4.2815 1.9322-4.2815 4.2815 0 2.3493 1.9322 4.2834 4.2815 4.2834 2.3493-4e-6 4.2834-1.9341 4.2834-4.2834s-1.9341-4.2815-4.2834-4.2815zm0 2.6665c0.90778 2e-6 1.6169 0.70718 1.6169 1.615s-0.70911 1.615-1.6169 1.615c-0.90777 1e-6 -1.615-0.70718-1.615-1.615 0-0.90778 0.70718-1.615 1.615-1.615z" color="#000000" color-rendering="auto" dominant-baseline="auto" enable-background="accumulate" fill-rule="evenodd" image-rendering="auto" opacity=".99988" shape-rendering="auto" solid-color="#000000" stop-color="#000000" style="font-feature-settings:normal;font-variant-alternates:normal;font-variant-caps:normal;font-variant-east-asian:normal;font-variant-ligatures:normal;font-variant-numeric:normal;font-variant-position:normal;font-variation-settings:normal;inline-size:0;isolation:auto;mix-blend-mode:normal;shape-margin:0;shape-padding:0;text-decoration-color:#000000;text-decoration-line:none;text-decoration-style:solid;text-indent:0;text-orientation:mixed;text-transform:none;white-space:normal"/><path d="m-214.26 22.366c-2.3493-3e-6 -4.2815 1.9322-4.2815 4.2815 0 2.3493 1.9322 4.2834 4.2815 4.2834 2.3493-4e-6 4.2834-1.9341 4.2834-4.2834s-1.9341-4.2815-4.2834-4.2815zm0 2.6665c0.90778 2e-6 1.6169 0.70718 1.6169 1.615s-0.70911 1.615-1.6169 1.615c-0.90777 1e-6 -1.615-0.70718-1.615-1.615 0-0.90778 0.70718-1.615 1.615-1.615z" color="#000000" color-rendering="auto" dominant-baseline="auto" enable-background="accumulate" fill-rule="evenodd" image-rendering="auto" opacity=".99988" shape-rendering="auto" solid-color="#000000" stop-color="#000000" style="font-feature-settings:normal;font-variant-alternates:normal;font-variant-caps:normal;font-variant-east-asian:normal;font-variant-ligatures:normal;font-variant-numeric:normal;font-variant-position:normal;font-variation-settings:normal;inline-size:0;isolation:auto;mix-blend-mode:normal;shape-margin:0;shape-padding:0;text-decoration-color:#000000;text-decoration-line:none;text-decoration-style:solid;text-indent:0;text-orientation:mixed;text-transform:none;white-space:normal"/></g></g></svg>