<svg width="100.34mm" height="66.57mm" version="1.1" viewBox="0 0 100.34 66.57" xmlns="http://www.w3.org/2000/svg"><defs><clipPath><path d="m0 0h266.48v167.56h-266.48z"/></clipPath></defs><g transform="translate(242.45 12.299)"><path d="m-236.35-12.199h87.887c3.4347 0 6.2544 2.6684 6.2544 6.0913v54.434c0 3.4229-2.4337 5.8447-5.8684 5.8447l-88.425-4.97e-4c-3.4347-1.9e-5 -5.849-2.7934-5.849-6.2164v-54.112c0-3.4229 2.5663-6.0413 6.001-6.0413z" fill="#fff" fill-rule="evenodd" opacity=".99988" stroke="#000" stroke-linecap="round" stroke-linejoin="round" stroke-miterlimit="10" stroke-opacity=".90588" stroke-width=".2"/><g transform="matrix(13.477 0 0 -8.4749 -545.32 295.11)" fill="#0000d6" fill-opacity=".82353" stroke-miterlimit="10" stroke-width=".046786"><g transform="matrix(.27019 0 0 .42969 6.7086 .29524)" fill="#0000d6" fill-opacity=".82353" stroke-miterlimit="10" stroke-width=".13731"></g></g><g fill-rule="evenodd"><path d="m-236.21-10.498c-2.4529 0-4.459 2.0061-4.459 4.459v54.047c0 2.4529 2.006 4.459 4.459 4.459h87.838c2.4529 0 4.459-2.0061 4.459-4.459v-54.047c0-2.4529-2.006-4.459-4.459-4.459zm0 2h87.838c1.3795 0 2.459 1.0795 2.459 2.459v54.047c0 1.3795-1.0795 2.459-2.459 2.459h-87.838c-1.3795 0-2.459-1.0795-2.459-2.459v-54.047c0-1.3795 1.0795-2.459 2.459-2.459z" color="#000000" color-rendering="auto" dominant-baseline="auto" enable-background="accumulate" image-rendering="auto" opacity=".99988" shape-rendering="auto" solid-color="#000000" stop-color="#000000" style="font-feature-settings:normal;font-variant-alternates:normal;font-variant-caps:normal;font-variant-east-asian:normal;font-variant-ligatures:normal;font-variant-numeric:normal;font-variant-position:normal;font-variation-settings:normal;inline-size:0;isolation:auto;mix-blend-mode:normal;shape-margin:0;shape-padding:0;text-decoration-color:#000000;text-decoration-line:none;text-decoration-style:solid;text-indent:0;text-orientation:mixed;text-transform:none;white-space:normal"/><path d="m-207.82 3.1599v22.669h48.62v-22.669zm-14.095 7.6533-4.0824 10.309v11.579h2.4663s-0.0278-0.75051 0.24377-1.7089c0.22752-0.80638 0.68352-1.752 1.3765-2.5921 0.57809-0.70085 1.4569-1.2762 2.3638-1.6802 0.93507-0.41659 1.6995-0.62033 2.5891-0.6557 0.64936-0.02582 1.3165 0.09109 1.922 0.32706 1.217 0.47426 2.4832 1.1003 3.289 2.1298 0.64162 0.81962 1.0648 1.7841 1.272 2.6003 0.22317 0.87849 0.20493 1.5798 0.20493 1.5798h29.855s0.0198-0.3525 0.0924-0.87905c0.0749-0.52895 0.23743-1.1535 0.39943-1.5471 0.17243-0.41967 0.49292-1.0151 0.83775-1.4856 0.22289-0.30411 0.45132-0.56003 0.60801-0.72525 0.12087-0.12745 0.19905-0.20093 0.19907-0.20093h-31.551v-17.05zm10.028 2.8183v6.5627h-12.004l2.5968-6.5627z" opacity=".99988"/><path d="m-173.79 27.689c-2.7564-4e-6 -5.0132 2.2613-5.0132 5.0059 0 2.7446 2.2568 5.0072 5.0132 5.0072 2.7564-6e-6 5.0145-2.2625 5.0145-5.0072 0-2.7446-2.258-5.0059-5.0145-5.0059zm0 2.778c1.2384 5e-6 2.2206 0.97677 2.2206 2.228 0 1.2512-0.98212 2.2292-2.2206 2.2292-1.2385 5e-6 -2.2193-0.97803-2.2193-2.2292 0-1.2512 0.98082-2.228 2.2193-2.228z" color="#000000" color-rendering="auto" dominant-baseline="auto" enable-background="accumulate" image-rendering="auto" opacity=".99988" shape-rendering="auto" solid-color="#000000" stop-color="#000000" style="font-feature-settings:normal;font-variant-alternates:normal;font-variant-caps:normal;font-variant-east-asian:normal;font-variant-ligatures:normal;font-variant-numeric:normal;font-variant-position:normal;font-variation-settings:normal;inline-size:0;isolation:auto;mix-blend-mode:normal;shape-margin:0;shape-padding:0;text-decoration-color:#000000;text-decoration-line:none;text-decoration-style:solid;text-indent:0;text-orientation:mixed;text-transform:none;white-space:normal"/><path d="m-216.89 27.689c-2.7564-4e-6 -5.0132 2.2613-5.0132 5.0059 0 2.7446 2.2568 5.0072 5.0132 5.0072 2.7564-6e-6 5.0145-2.2625 5.0145-5.0072 0-2.7446-2.258-5.0059-5.0145-5.0059zm0 2.778c1.2385 5e-6 2.2206 0.97677 2.2206 2.228 0 1.2512-0.98211 2.2292-2.2206 2.2292-1.2385 5e-6 -2.2193-0.97803-2.2193-2.2292 0-1.2512 0.98085-2.228 2.2193-2.228z" color="#000000" color-rendering="auto" dominant-baseline="auto" enable-background="accumulate" image-rendering="auto" opacity=".99988" shape-rendering="auto" solid-color="#000000" stop-color="#000000" style="font-feature-settings:normal;font-variant-alternates:normal;font-variant-caps:normal;font-variant-east-asian:normal;font-variant-ligatures:normal;font-variant-numeric:normal;font-variant-position:normal;font-variation-settings:normal;inline-size:0;isolation:auto;mix-blend-mode:normal;shape-margin:0;shape-padding:0;text-decoration-color:#000000;text-decoration-line:none;text-decoration-style:solid;text-indent:0;text-orientation:mixed;text-transform:none;white-space:normal"/><path d="m-169.26 27.864 10.062-4.8e-5v2.3289l-7.9566 2.589s0.0158-0.4335-0.0599-0.96005c-0.0749-0.52895-0.23902-1.1518-0.4007-1.5454-0.17242-0.41967-0.49282-1.0158-0.83776-1.4863-0.39479-0.53869-0.80688-0.92618-0.80688-0.92618z" opacity=".99988"/></g></g></svg>