<svg width="100.34mm" height="33.425mm" version="1.1" viewBox="0 0 100.34 33.425" xmlns="http://www.w3.org/2000/svg"><defs><clipPath><path d="m0 0h266.48v167.56h-266.48z"/></clipPath><clipPath id="a"><path d="m0 0h302.79v108.4h-302.79z"/></clipPath></defs><g transform="translate(245.04 -21.295)"><g transform="matrix(13.477 0 0 -8.4749 -545.32 295.11)" fill="#0000d6" fill-opacity=".82353" stroke-miterlimit="10" stroke-width=".046786"><g transform="matrix(.27019 0 0 .42969 6.7086 .29524)" fill="#0000d6" fill-opacity=".82353" stroke-miterlimit="10" stroke-width=".13731"></g></g><path d="m-237.84 21.395h86.787c3.4347 0 6.2544 2.6677 6.2544 6.0897v21.293c0 3.422-2.4338 5.8431-5.8684 5.8431l-87.325-3.66e-4c-3.4347-1.4e-5 -5.849-2.7927-5.849-6.2146v-20.97c0-3.6174 3.3766-6.0398 6.001-6.0398z" fill="#fff" fill-rule="evenodd" opacity=".99988" stroke="#000" stroke-linecap="round" stroke-linejoin="round" stroke-miterlimit="10" stroke-width=".2"/><path d="m-237.7 23.095c-2.4529 0-4.459 2.0055-4.459 4.4578v20.905c0 2.4523 2.0061 4.4578 4.459 4.4578h86.738c2.4529 0 4.459-2.0055 4.459-4.4578v-20.905c0-2.4523-2.006-4.4578-4.459-4.4578zm0 1.9995h86.738c1.3795 0 2.459 1.0792 2.459 2.4583v20.905c0 1.3792-1.0794 2.4583-2.459 2.4583h-86.738c-1.3795 0-2.459-1.0792-2.459-2.4583v-20.905c0-1.3791 1.0794-2.4583 2.459-2.4583z" color="#000000" color-rendering="auto" dominant-baseline="auto" enable-background="accumulate" fill-rule="evenodd" image-rendering="auto" opacity=".99988" shape-rendering="auto" solid-color="#000000" stop-color="#000000" style="font-feature-settings:normal;font-variant-alternates:normal;font-variant-caps:normal;font-variant-east-asian:normal;font-variant-ligatures:normal;font-variant-numeric:normal;font-variant-position:normal;font-variation-settings:normal;inline-size:0;isolation:auto;mix-blend-mode:normal;shape-margin:0;shape-padding:0;text-decoration-color:#000000;text-decoration-line:none;text-decoration-style:solid;text-indent:0;text-orientation:mixed;text-transform:none;white-space:normal"/><g transform="matrix(1.4163 0 0 -.50636 -245.64 22.649)" stroke-width=".27442"><g transform="scale(.23778 .66418)" stroke-width=".27442"><g clip-path="url(#a)" stroke-width=".27442"><g transform="matrix(2.6334 0 0 -2.637 789.93 1298.1)" fill="#3a042c" fill-opacity=".75686" aria-label="2"><path d="m-268.3 515.09-11.148 4e-3 -3.4e-4 -2.5176 7.8921-4.6234s0.40631-0.49193 0.52909-0.7816c0.14055-0.33162 0.24698-0.69824 0.22175-1.0575-0.0387-0.55108-0.18529-1.1559-0.56348-1.5586-0.31998-0.3407-0.75563-0.67337-1.2159-0.82434-0.2924-0.0959-0.59093-0.11034-0.88746-0.0889-0.49219 0.0356-1.0299 0.19226-1.4365 0.3578-0.32147 0.13088-0.73662 0.41544-1.0398 0.76014-0.40792 0.46386-0.66063 0.99332-0.66063 0.99332l-2.2786-1.0518s0.48469-0.94646 0.83255-1.3413c0.53055-0.60223 1.1537-1.1543 1.8694-1.5175 0.83667-0.42468 1.7897-0.71171 2.722-0.71682 0.11037-6e-4 0.47608-5e-3 0.86677 0.0528 0.31189 0.0462 0.59913 0.12133 0.88806 0.21856 0.29388 0.0989 0.5763 0.21396 0.8539 0.36899 0.58173 0.32485 1.1157 0.77681 1.4961 1.3053 0.70738 0.98288 1.09 2.2644 1.0594 3.475-0.0217 0.8575-0.43351 1.6843-0.87411 2.4203-0.26063 0.43533-1.0177 1.1319-1.0177 1.1319l-4.2488 2.4705 6.1433 0.0105z" fill="#3a042c" fill-opacity=".75686" stroke-width=".043962"/></g><g transform="matrix(1.207 0 0 -1.1739 -482.37 786.09)" fill="#34070e" fill-opacity=".73333" stroke-width=".66045" aria-label="0"><path d="m508.57 704.95c0 4.8024-1.5544 8.4854-3.8791 11.452-2.2941 2.9365-5.5308 4.6292-8.8304 4.6065-1.4648-0.01-2.932-0.27365-4.3179-0.84553-2.0665-0.85272-3.9523-2.3497-5.3804-4.382-2.08-2.9365-3.4062-6.4267-3.4062-10.74 0-4.8942 1.5302-8.3279 3.855-11.142 2.3247-2.8447 5.2119-4.6875 9.2496-4.6875 3.793 0 6.5742 1.8061 8.8989 4.712 2.3553 2.8753 3.8106 6.3152 3.8106 11.026zm-5.534 0.0918c-0.0289-0.57806-0.0215-1.1812-0.11714-1.7716-0.29789-1.8392-0.99212-3.6568-1.9647-5.0462-1.2541-1.8353-2.8324-3.2574-5.1265-3.2574-2.3247 0-3.8425 1.0438-5.1578 2.8791-1.3153 1.8353-2.3164 3.9538-2.3164 7.1961 0 3.273 0.8051 5.2286 2.1204 7.0945 0.66699 0.93068 1.4204 1.7639 2.3283 2.3011 0.88252 0.52221 1.9124 0.76154 3.0583 0.76154 1.7491 0 2.5143-0.61034 3.5479-1.3547 0.70999-0.51134 1.1762-1.3158 1.6848-2.038 0.22843-0.32444 0.42583-0.67207 0.60965-1.0253 0.23372-0.44908 0.47135-0.91823 0.62486-1.3865 0.45696-1.3939 0.77865-2.9482 0.70841-4.3527z" fill="#34070e" fill-opacity=".73333" stroke-width=".66045"/></g><g transform="matrix(1.207 0 0 -1.1739 -435.23 786.09)" fill="#34070e" fill-opacity=".73333" stroke-width=".66045" aria-label="0"><path d="m508.57 704.95c0 4.8024-1.5544 8.4854-3.8791 11.452-2.2941 2.9365-5.5308 4.6292-8.8304 4.6065-1.4648-0.01-2.932-0.27365-4.3179-0.84553-2.0665-0.85272-3.9523-2.3497-5.3804-4.382-2.08-2.9365-3.4062-6.4267-3.4062-10.74 0-4.8942 1.5302-8.3279 3.855-11.142 2.3247-2.8447 5.2119-4.6875 9.2496-4.6875 3.793 0 6.5742 1.8061 8.8989 4.712 2.3553 2.8753 3.8106 6.3152 3.8106 11.026zm-5.534 0.0918c-0.0289-0.57806-0.0215-1.1812-0.11714-1.7716-0.29789-1.8392-0.99212-3.6568-1.9647-5.0462-1.2541-1.8353-2.8324-3.2574-5.1265-3.2574-2.3247 0-3.8425 1.0438-5.1578 2.8791-1.3153 1.8353-2.3164 3.9538-2.3164 7.1961 0 3.273 0.8051 5.2286 2.1204 7.0945 0.66699 0.93068 1.4204 1.7639 2.3283 2.3011 0.88252 0.52221 1.9124 0.76154 3.0583 0.76154 1.7491 0 2.5143-0.61034 3.5479-1.3547 0.70999-0.51134 1.1762-1.3158 1.6848-2.038 0.22843-0.32444 0.42583-0.67207 0.60965-1.0253 0.23372-0.44908 0.47135-0.91823 0.62486-1.3865 0.45696-1.3939 0.77865-2.9482 0.70841-4.3527z" fill="#34070e" fill-opacity=".73333" stroke-width=".66045"/></g></g></g></g><path d="m-163.9 43.948-2.0156 3e-6v-4.6412s-0.13105-0.89868-0.40692-1.2317c-0.20409-0.24644-0.4391-0.51826-0.73849-0.71633-0.43276-0.28635-0.95282-0.44993-1.3135-0.42264-0.17069 0.01278-0.35621 0.0077-0.52987 0.04186-0.43584 0.08562-0.85112 0.27545-1.1672 0.56676-0.25439 0.23443-0.56361 0.65364-0.71408 1.0673-0.14968 0.41101-0.14106 0.81726-0.14106 0.81726v4.5187h-1.9987v-4.6412s-0.0211-0.37092-0.1669-0.76475c-0.11026-0.30065-0.31692-0.61466-0.4883-0.78714-0.22735-0.2291-0.49148-0.44785-0.79496-0.59173-0.35027-0.16614-0.7485-0.2398-1.1211-0.23358-0.42553 0.0072-0.87001 0.14188-1.245 0.37638-0.20492 0.12812-0.37817 0.29912-0.54142 0.46505-0.17746 0.18056-0.36972 0.50309-0.48368 0.80666-0.12042 0.32103-0.15761 0.61859-0.15761 0.61859l-0.0123 4.7517h-1.9853v-8.7789h1.9853v0.52431s0.39339-0.28821 0.93427-0.4904c0.54322-0.20309 1.2348-0.3201 1.6899-0.28039 0.53359 0.0466 1.3651 0.17988 1.9842 0.52119 0.83368 0.45953 1.3953 1.1518 1.3953 1.1518s0.30678-0.3431 0.48129-0.49182c0.28944-0.24644 0.65643-0.51805 0.93139-0.6576 0.61941-0.31443 1.3211-0.52836 2.0156-0.52836 0.78984 0 1.5967 0.22618 2.2921 0.60087 0.58144 0.31325 1.0805 0.79372 1.4741 1.3242 0.30718 0.41393 0.52151 0.89883 0.65579 1.4005 0.12427 0.46457 0.1446 0.85727 0.1446 0.85727zm-53.653-8.22e-4 -9.8873 0.0035-3e-4 -2.2328 6.9994-4.1004s0.36034-0.43628 0.46924-0.69318c0.12465-0.29411 0.21904-0.61926 0.19666-0.9379-0.0343-0.48874-0.16433-1.0251-0.49974-1.3823-0.28378-0.30216-0.67015-0.5972-1.0783-0.73109-0.25932-0.08505-0.52408-0.09786-0.78707-0.07884-0.43651 0.03157-0.91341 0.17051-1.274 0.31733-0.2851 0.11607-0.65329 0.36844-0.92213 0.67415-0.36178 0.41139-0.5859 0.88096-0.5859 0.88096l-2.0209-0.93286s0.42986-0.8394 0.73837-1.1896c0.47053-0.53411 1.0232-1.0237 1.6579-1.3459 0.74202-0.37664 1.5872-0.6312 2.4141-0.63573 0.0979-5.32e-4 0.42223-0.0044 0.76872 0.04683 0.27661 0.04097 0.53136 0.1076 0.7876 0.19384 0.26064 0.08771 0.51111 0.18976 0.75731 0.32725 0.51592 0.2881 0.98953 0.68894 1.3268 1.1576 0.62736 0.8717 0.96673 2.0083 0.93952 3.0819-0.0192 0.7605-0.38447 1.4938-0.77523 2.1465-0.23115 0.38609-0.90259 1.0039-0.90259 1.0039l-3.7681 2.1911 5.4484 0.0093zm16.198-6.2872c0 1.8961-0.63183 3.3502-1.5768 4.5216-0.93255 1.1594-2.2482 1.8277-3.5895 1.8187-0.59543-0.0039-1.1918-0.10804-1.7552-0.33383-0.84001-0.33667-1.6066-0.92769-2.1871-1.7301-0.84551-1.1594-1.3846-2.5374-1.3846-4.2402 0-1.9323 0.62202-3.288 1.567-4.3991 0.94498-1.1232 2.1186-1.8507 3.7599-1.8507 1.5418 0 2.6724 0.71308 3.6173 1.8604 0.95742 1.1352 1.549 2.4933 1.549 4.3532zm-2.2495 0.03624c-0.0118-0.22823-9e-3 -0.46638-0.0476-0.69944-0.12109-0.72615-0.40329-1.4438-0.79863-1.9923-0.5098-0.72462-1.1514-1.2861-2.0839-1.2861-0.94499 0-1.5619 0.4121-2.0966 1.1367-0.53466 0.72461-0.9416 1.561-0.9416 2.8412 0 1.2922 0.32727 2.0644 0.86193 2.8011 0.27112 0.36745 0.57736 0.69641 0.94642 0.90853 0.35874 0.20618 0.77738 0.30067 1.2432 0.30067 0.71099 0 1.0221-0.24097 1.4422-0.53487 0.2886-0.20189 0.47811-0.51949 0.68483-0.80466 0.0929-0.1281 0.1731-0.26535 0.24782-0.4048 0.095-0.1773 0.1916-0.36253 0.254-0.5474 0.18575-0.55032 0.31651-1.164 0.28796-1.7185zm18.124-0.03624c0 1.8961-0.63184 3.3502-1.5768 4.5216-0.93255 1.1594-2.2482 1.8277-3.5895 1.8187-0.59544-0.0039-1.1918-0.10804-1.7552-0.33383-0.84001-0.33667-1.6066-0.92769-2.1871-1.7301-0.84551-1.1594-1.3846-2.5374-1.3846-4.2402 0-1.9323 0.62202-3.288 1.567-4.3991 0.94498-1.1232 2.1186-1.8507 3.7599-1.8507 1.5418 0 2.6723 0.71308 3.6173 1.8604 0.95742 1.1352 1.549 2.4933 1.549 4.3532zm-2.2495 0.03624c-0.0117-0.22823-9e-3 -0.46638-0.0476-0.69944-0.12109-0.72615-0.40329-1.4438-0.79863-1.9923-0.5098-0.72462-1.1513-1.2861-2.0839-1.2861-0.94499 0-1.5619 0.4121-2.0966 1.1367-0.53466 0.72461-0.9416 1.561-0.9416 2.8412 0 1.2922 0.32727 2.0644 0.86193 2.8011 0.27113 0.36745 0.57736 0.69641 0.94643 0.90853 0.35873 0.20618 0.77737 0.30067 1.2432 0.30067 0.71098 0 1.022-0.24097 1.4422-0.53487 0.2886-0.20189 0.47812-0.51949 0.68483-0.80466 0.0929-0.1281 0.1731-0.26535 0.24782-0.4048 0.095-0.1773 0.1916-0.36253 0.254-0.5474 0.18575-0.55032 0.31652-1.164 0.28796-1.7185z" stroke-width=".26458"/></g></svg>