<svg width="100.34mm" height="66.57mm" version="1.1" viewBox="0 0 100.34 66.57" xmlns="http://www.w3.org/2000/svg"><defs><clipPath><path d="m0 0h266.48v167.56h-266.48z"/></clipPath></defs><g transform="translate(242.45 12.299)"><path d="m-236.35-12.199h87.887c3.4347 0 6.2544 2.6684 6.2544 6.0913v54.434c0 3.4229-2.4337 5.8447-5.8684 5.8447l-88.425-4.97e-4c-3.4347-1.9e-5 -5.849-2.7934-5.849-6.2164v-54.112c0-3.4229 2.5663-6.0413 6.001-6.0413z" fill="#fff" fill-rule="evenodd" opacity=".99988" stroke="#000" stroke-linecap="round" stroke-linejoin="round" stroke-miterlimit="10" stroke-opacity=".90588" stroke-width=".2"/><g transform="matrix(13.477 0 0 -8.4749 -545.32 295.11)" fill="#0000d6" fill-opacity=".82353" stroke-miterlimit="10" stroke-width=".046786"><g transform="matrix(.27019 0 0 .42969 6.7086 .29524)" fill="#0000d6" fill-opacity=".82353" stroke-miterlimit="10" stroke-width=".13731"></g></g><path d="m-236.21-10.498c-2.4529 0-4.459 2.0061-4.459 4.459v54.047c0 2.4529 2.006 4.459 4.459 4.459h87.838c2.4529 0 4.459-2.0061 4.459-4.459v-54.047c0-2.4529-2.006-4.459-4.459-4.459zm0 2h87.838c1.3795 0 2.459 1.0795 2.459 2.459v54.047c0 1.3795-1.0795 2.459-2.459 2.459h-87.838c-1.3795 0-2.459-1.0795-2.459-2.459v-54.047c0-1.3795 1.0795-2.459 2.459-2.459z" color="#000000" color-rendering="auto" dominant-baseline="auto" enable-background="accumulate" fill-rule="evenodd" image-rendering="auto" opacity=".99988" shape-rendering="auto" solid-color="#000000" stop-color="#000000" style="font-feature-settings:normal;font-variant-alternates:normal;font-variant-caps:normal;font-variant-east-asian:normal;font-variant-ligatures:normal;font-variant-numeric:normal;font-variant-position:normal;font-variation-settings:normal;inline-size:0;isolation:auto;mix-blend-mode:normal;shape-margin:0;shape-padding:0;text-decoration-color:#000000;text-decoration-line:none;text-decoration-style:solid;text-indent:0;text-orientation:mixed;text-transform:none;white-space:normal"/><path d="m-214.45 8.6952v12.613h10.999v2.5637h44.239v-15.176zm-9.047 4.9485-2.5523 6.1976v8.8759h1.4929s-0.0187-0.50852 0.16537-1.1581c0.15421-0.54651 0.46308-1.1871 0.93276-1.7565 0.39178-0.47499 0.98782-0.8651 1.6025-1.1389 0.63373-0.28233 1.1515-0.42044 1.7544-0.44442 0.4401-0.01749 0.8941 0.05743 1.3028 0.22169 0.79553 0.31975 1.5829 0.74562 2.1291 1.4433 0.43484 0.55548 0.72153 1.209 0.86196 1.7622 0.15125 0.59539 0.13901 1.0707 0.13901 1.0707h0.66301s0.0477-0.59907 0.23107-1.2132c0.15694-0.52549 0.41076-1.0269 0.84713-1.5649 0.46504-0.57338 1.1703-1.0109 1.8696-1.2829 0.53378-0.20766 0.97656-0.34044 1.4814-0.32061 0.87257 0.03428 1.6766 0.24686 2.5091 0.7533 0.45316 0.27569 0.78096 0.68688 1.0733 1.0386 0.9804 1.1795 0.91864 2.5898 0.91864 2.5898h1.6676v-6.504h-10.936v-8.5695zm0.6382 1.8237h6.4306v4.0933h-8.1282zm19.408 9.2966v3.9532l14.763 1.67e-4s-4e-3 -0.37165 0.10688-0.8369c0.12313-0.51721 0.37247-1.1501 0.5995-1.5167 0.20652-0.3335 0.57154-0.79272 0.94837-1.1108 0.37192-0.31395 0.75705-0.48896 0.75705-0.48896zm21.233 3.7e-5s0.44755 0.22658 0.86292 0.57166c0.35022 0.29095 0.65859 0.67697 0.84737 0.97342 0.23549 0.36979 0.50164 1.0098 0.63061 1.5372 0.11808 0.4828 0.10905 0.87113 0.10905 0.87113h0.63798s-0.0246-0.37104 0.0838-0.83272c0.11824-0.5037 0.37873-1.1153 0.59849-1.4706 0.1964-0.31756 0.53394-0.76993 0.90007-1.0836 0.42425-0.36348 0.86762-0.56643 0.86762-0.56643zm9.5318-1.8e-5s0.51271 0.24932 0.98512 0.65987c0.35372 0.3074 0.66014 0.7381 0.84676 1.0423 0.21534 0.35106 0.43878 0.9304 0.5487 1.4259 0.0984 0.44345 0.0947 0.82532 0.0947 0.82532l5.5893-1.67e-4 5.41-0.89245v-3.0608z" fill-rule="evenodd" opacity=".99988"/><g fill-rule="evenodd" shape-rendering="auto"><path d="m-174.66 24.828c-2.1585-3e-6 -3.9257 1.7707-3.9257 3.92 0 2.1493 1.7672 3.921 3.9257 3.921 2.1585-4e-6 3.9267-1.7717 3.9267-3.921 0-2.1493-1.7682-3.92-3.9267-3.92zm0 2.1753c0.9698 4e-6 1.7389 0.76488 1.7389 1.7446 0 0.97976-0.76907 1.7456-1.7389 1.7456-0.9698 3e-6 -1.7379-0.76587-1.7379-1.7456 0-0.97977 0.76807-1.7446 1.7379-1.7446z" color="#000000" color-rendering="auto" dominant-baseline="auto" enable-background="accumulate" image-rendering="auto" opacity=".99988" solid-color="#000000" stop-color="#000000" style="font-feature-settings:normal;font-variant-alternates:normal;font-variant-caps:normal;font-variant-east-asian:normal;font-variant-ligatures:normal;font-variant-numeric:normal;font-variant-position:normal;font-variation-settings:normal;inline-size:0;isolation:auto;mix-blend-mode:normal;shape-margin:0;shape-padding:0;text-decoration-color:#000000;text-decoration-line:none;text-decoration-style:solid;text-indent:0;text-orientation:mixed;text-transform:none;white-space:normal"/><path d="m-184.26 24.828c-2.1585-3e-6 -3.9257 1.7707-3.9257 3.92 0 2.1493 1.7672 3.921 3.9257 3.921 2.1585-4e-6 3.9267-1.7717 3.9267-3.921 0-2.1493-1.7682-3.92-3.9267-3.92zm0 2.1753c0.9698 4e-6 1.7389 0.76488 1.7389 1.7446 0 0.97976-0.76907 1.7456-1.7389 1.7456-0.9698 3e-6 -1.7379-0.76587-1.7379-1.7456 0-0.97977 0.76807-1.7446 1.7379-1.7446z" color="#000000" color-rendering="auto" dominant-baseline="auto" enable-background="accumulate" image-rendering="auto" opacity=".99988" solid-color="#000000" stop-color="#000000" style="font-feature-settings:normal;font-variant-alternates:normal;font-variant-caps:normal;font-variant-east-asian:normal;font-variant-ligatures:normal;font-variant-numeric:normal;font-variant-position:normal;font-variation-settings:normal;inline-size:0;isolation:auto;mix-blend-mode:normal;shape-margin:0;shape-padding:0;text-decoration-color:#000000;text-decoration-line:none;text-decoration-style:solid;text-indent:0;text-orientation:mixed;text-transform:none;white-space:normal"/><path d="m-210.49 24.828c-2.1585-3e-6 -3.9257 1.7707-3.9257 3.92 0 2.1493 1.7672 3.921 3.9257 3.921 2.1585-4e-6 3.9267-1.7717 3.9267-3.921 0-2.1493-1.7682-3.92-3.9267-3.92zm0 2.1753c0.9698 4e-6 1.7389 0.76488 1.7389 1.7446 0 0.97976-0.76907 1.7456-1.7389 1.7456-0.9698 3e-6 -1.7379-0.76587-1.7379-1.7456 0-0.97977 0.76807-1.7446 1.7379-1.7446z" color="#000000" color-rendering="auto" dominant-baseline="auto" enable-background="accumulate" image-rendering="auto" opacity=".99988" solid-color="#000000" stop-color="#000000" style="font-feature-settings:normal;font-variant-alternates:normal;font-variant-caps:normal;font-variant-east-asian:normal;font-variant-ligatures:normal;font-variant-numeric:normal;font-variant-position:normal;font-variation-settings:normal;inline-size:0;isolation:auto;mix-blend-mode:normal;shape-margin:0;shape-padding:0;text-decoration-color:#000000;text-decoration-line:none;text-decoration-style:solid;text-indent:0;text-orientation:mixed;text-transform:none;white-space:normal"/><path d="m-220.09 24.828c-2.1585-3e-6 -3.9257 1.7707-3.9257 3.92 0 2.1493 1.7672 3.921 3.9257 3.921 2.1585-4e-6 3.9267-1.7717 3.9267-3.921 0-2.1493-1.7682-3.92-3.9267-3.92zm0 2.1753c0.9698 4e-6 1.7389 0.76488 1.7389 1.7446 0 0.97976-0.76907 1.7456-1.7389 1.7456-0.9698 3e-6 -1.7379-0.76587-1.7379-1.7456 0-0.97977 0.76807-1.7446 1.7379-1.7446z" color="#000000" color-rendering="auto" dominant-baseline="auto" enable-background="accumulate" image-rendering="auto" opacity=".99988" solid-color="#000000" stop-color="#000000" style="font-feature-settings:normal;font-variant-alternates:normal;font-variant-caps:normal;font-variant-east-asian:normal;font-variant-ligatures:normal;font-variant-numeric:normal;font-variant-position:normal;font-variation-settings:normal;inline-size:0;isolation:auto;mix-blend-mode:normal;shape-margin:0;shape-padding:0;text-decoration-color:#000000;text-decoration-line:none;text-decoration-style:solid;text-indent:0;text-orientation:mixed;text-transform:none;white-space:normal"/></g></g></svg>