<svg width="100.34mm" height="66.57mm" version="1.1" viewBox="0 0 100.34 66.57" xmlns="http://www.w3.org/2000/svg"><defs><clipPath><path d="m0 0h266.48v167.56h-266.48z"/></clipPath></defs><g transform="translate(242.45 12.299)"><path d="m-236.35-12.199h87.887c3.4347 0 6.2544 2.6684 6.2544 6.0913v54.434c0 3.4229-2.4337 5.8447-5.8684 5.8447l-88.425-4.97e-4c-3.4347-1.9e-5 -5.849-2.7934-5.849-6.2164v-54.112c0-3.4229 2.5663-6.0413 6.001-6.0413z" fill="#fff" fill-rule="evenodd" opacity=".99988" stroke="#000" stroke-linecap="round" stroke-linejoin="round" stroke-miterlimit="10" stroke-width=".2"/><g transform="matrix(13.477 0 0 -8.4749 -545.32 295.11)" fill="#0000d6" fill-opacity=".82353" stroke-miterlimit="10" stroke-width=".046786"><g transform="matrix(.27019 0 0 .42969 6.7086 .29524)" fill="#0000d6" fill-opacity=".82353" stroke-miterlimit="10" stroke-width=".13731"></g></g><g><path d="m-236.21-10.498c-2.4529 0-4.459 2.0061-4.459 4.459v54.047c0 2.4529 2.006 4.459 4.459 4.459h87.838c2.4529 0 4.459-2.0061 4.459-4.459v-54.047c0-2.4529-2.006-4.459-4.459-4.459zm0 2h87.838c1.3795 0 2.459 1.0795 2.459 2.459v54.047c0 1.3795-1.0795 2.459-2.459 2.459h-87.838c-1.3795 0-2.459-1.0795-2.459-2.459v-54.047c0-1.3795 1.0795-2.459 2.459-2.459z" color="#000000" color-rendering="auto" dominant-baseline="auto" enable-background="accumulate" fill-rule="evenodd" image-rendering="auto" opacity=".99988" shape-rendering="auto" solid-color="#000000" stop-color="#000000" style="font-feature-settings:normal;font-variant-alternates:normal;font-variant-caps:normal;font-variant-east-asian:normal;font-variant-ligatures:normal;font-variant-numeric:normal;font-variant-position:normal;font-variation-settings:normal;inline-size:0;isolation:auto;mix-blend-mode:normal;shape-margin:0;shape-padding:0;text-decoration-color:#000000;text-decoration-line:none;text-decoration-style:solid;text-indent:0;text-orientation:mixed;text-transform:none;white-space:normal"/><path d="m-181.11-1.3497c-0.56866-0.00223-1.267 0.26551-1.7044 0.69588-0.45645 0.44903-0.76789 1.175-0.7551 1.7662 0.0156 0.68379 0.41414 1.4306 0.94957 1.8887 0.45317 0.38776 1.1875 0.5694 1.7036 0.54686 0.69748-0.030328 1.2079-0.37644 1.6109-0.82542 0.38394-0.4277 0.62403-1.2082 0.61678-1.6102-9e-3 -0.50255-0.17884-1.1384-0.54203-1.5465-0.46326-0.52053-1.2308-0.9131-1.8793-0.91564zm-1.6432 7.0071-6.87 3.5077s-0.41749 0.29012-0.55744 0.49602c-0.12569 0.18481-0.20823 0.44086-0.22949 0.63012-0.0597 0.53525 0.17103 1.1849 0.61075 1.4961 0.0797 0.05637 0.21292 0.09148 0.32638 0.09855 0.12663 0.0078 0.37644-0.06463 0.37644-0.06463l5.4433-2.8226 0.88541 2.9616-5.642 1.5995s-0.48781 0.18656-0.67374 0.3603c-0.18416 0.17212-0.40071 0.64143-0.40071 0.64143l-2.4591 8.0688s-0.0469 0.38739 0.0825 0.72868c0.13601 0.35903 0.45617 0.67578 0.7303 0.77715 0.31047 0.11484 0.81342 0.16158 1.2004-0.04524 0.14445-0.0771 0.27045-0.16615 0.37485-0.2763 0.18009-0.18988 0.29233-0.39908 0.29233-0.39908l2.2927-7.3595 6.1995-1.5349 0.42331-0.10502 0.75776-0.18741s0.79412-0.42258 1.0567-0.77069c0.23762-0.31492 0.40877-1.1116 0.40877-1.1116v-5.7002s-0.0431-0.45982-0.29891-0.88702c-0.20916-0.34952-0.57741-0.6885-0.84986-0.83532-0.25325-0.13654-0.72796-0.26588-1.1084-0.25203-0.49034 0.017822-0.89511 0.23265-0.89511 0.23265l-1.1407 0.58165zm-33.846 8.7377v9.7944h24.627v-9.7944zm38.111 0.63982c-1.1279 0.02626-2.3613 0.31944-3.3235 0.64305-0.73515 0.24725-1.5026 0.61383-2.0164 0.91126-0.58802 0.3404-1.3902 0.97472-2.0132 1.543-0.5904 0.53857-1.0179 1.0211-1.0179 1.0211l1.0502 0.99689s0.39996-0.48814 0.96943-0.99689c0.56244-0.50248 1.2914-1.0238 1.8128-1.32 0.60756-0.34518 1.5215-0.72607 2.3379-0.9775 0.72371-0.22286 1.6391-0.42353 2.4769-0.42816 1.0008-0.0056 2.0207 0.08085 2.9988 0.31345 0.41718 0.09921 0.84233 0.18863 1.2296 0.36838 0.96023 0.4458 2.4296 1.2521 3.4317 2.1586 0.74472 0.67358 1.8516 2.3767 1.8516 2.3767l1.1051-0.99689s-1.2964-1.8495-2.1424-2.5803c-0.67665-0.5845-1.5063-1.1618-2.3121-1.6092-0.52939-0.29396-1.0644-0.5167-1.4848-0.70283-1.526-0.67559-3.2854-0.75956-4.9538-0.7206zm-27.995 9.7912s0.56369 0.33385 1.068 0.72707c0.2495 0.1946 0.46364 0.42386 0.6285 0.59458 0.19823 0.20507 0.47327 0.54293 0.68022 0.8434 0.23324 0.33875 0.38779 0.63012 0.38779 0.63012h11.746v-2.7952s-10.477 0.01501-14.511 0z" fill-rule="evenodd" opacity=".99988" stroke-linecap="round" stroke-linejoin="round" stroke-miterlimit="10" stroke-opacity=".82353" stroke-width=".84799"/><path d="m-216.05 24.743v-9.7954"/><path d="m-177.73 17.119c-5.3952 0-9.8324 4.4402-9.8324 9.8292s4.4373 9.8292 9.8324 9.8292 9.8324-4.4402 9.8324-9.8292-4.4373-9.8292-9.8324-9.8292zm0 6.2873c1.9891 0 3.5375 1.5468 3.5375 3.5419s-1.5484 3.5419-3.5375 3.5419c-1.9891 0-3.5375-1.5468-3.5375-3.5419s1.5484-3.5419 3.5375-3.5419z" color="#000000" color-rendering="auto" dominant-baseline="auto" enable-background="accumulate" fill-rule="evenodd" image-rendering="auto" opacity=".99988" shape-rendering="auto" solid-color="#000000" stop-color="#000000" style="font-feature-settings:normal;font-variant-alternates:normal;font-variant-caps:normal;font-variant-east-asian:normal;font-variant-ligatures:normal;font-variant-numeric:normal;font-variant-position:normal;font-variation-settings:normal;inline-size:0;isolation:auto;mix-blend-mode:normal;shape-margin:0;shape-padding:0;text-decoration-color:#000000;text-decoration-line:none;text-decoration-style:solid;text-indent:0;text-orientation:mixed;text-transform:none;white-space:normal"/><path d="m-209.6 24.658c-3.2988 0-6.0637 2.7644-6.0637 6.0585s2.7648 6.0564 6.0637 6.0564 6.0637-2.7623 6.0637-6.0564-2.7648-6.0585-6.0637-6.0585zm0 3.5138c1.3568 0 2.5478 1.1908 2.5478 2.5447 0 1.3539-1.191 2.5447-2.5478 2.5447s-2.5478-1.1908-2.5478-2.5447c0-1.3539 1.191-2.5447 2.5478-2.5447z" color="#000000" color-rendering="auto" dominant-baseline="auto" enable-background="accumulate" fill-rule="evenodd" image-rendering="auto" opacity=".99988" shape-rendering="auto" solid-color="#000000" stop-color="#000000" style="font-feature-settings:normal;font-variant-alternates:normal;font-variant-caps:normal;font-variant-east-asian:normal;font-variant-ligatures:normal;font-variant-numeric:normal;font-variant-position:normal;font-variation-settings:normal;inline-size:0;isolation:auto;mix-blend-mode:normal;shape-margin:0;shape-padding:0;text-decoration-color:#000000;text-decoration-line:none;text-decoration-style:solid;text-indent:0;text-orientation:mixed;text-transform:none;white-space:normal"/></g></g></svg>