<svg width="100.34mm" height="66.57mm" version="1.1" viewBox="0 0 100.34 66.57" xmlns="http://www.w3.org/2000/svg"><defs><clipPath><path d="m0 0h266.48v167.56h-266.48z"/></clipPath></defs><g transform="translate(242.45 12.299)"><path d="m-236.35-12.199h87.887c3.4347 0 6.2544 2.6684 6.2544 6.0913v54.434c0 3.4229-2.4337 5.8447-5.8684 5.8447l-88.425-4.97e-4c-3.4347-1.9e-5 -5.849-2.7934-5.849-6.2164v-54.112c0-3.4229 2.5663-6.0413 6.001-6.0413z" fill="#fff" fill-rule="evenodd" opacity=".99988" stroke="#000" stroke-linecap="round" stroke-linejoin="round" stroke-miterlimit="10" stroke-width=".2"/><g transform="matrix(13.477 0 0 -8.4749 -545.32 295.11)" fill="#0000d6" fill-opacity=".82353" stroke-miterlimit="10" stroke-width=".046786"><g transform="matrix(.27019 0 0 .42969 6.7086 .29524)" fill="#0000d6" fill-opacity=".82353" stroke-miterlimit="10" stroke-width=".13731"></g></g><g fill-rule="evenodd"><path d="m-236.21-10.498c-2.4529 0-4.459 2.0061-4.459 4.459v54.047c0 2.4529 2.006 4.459 4.459 4.459h87.838c2.4529 0 4.459-2.0061 4.459-4.459v-54.047c0-2.4529-2.006-4.459-4.459-4.459zm0 2h87.838c1.3795 0 2.459 1.0795 2.459 2.459v54.047c0 1.3795-1.0795 2.459-2.459 2.459h-87.838c-1.3795 0-2.459-1.0795-2.459-2.459v-54.047c0-1.3795 1.0795-2.459 2.459-2.459z" color="#000000" color-rendering="auto" dominant-baseline="auto" enable-background="accumulate" image-rendering="auto" opacity=".99988" shape-rendering="auto" solid-color="#000000" stop-color="#000000" style="font-feature-settings:normal;font-variant-alternates:normal;font-variant-caps:normal;font-variant-east-asian:normal;font-variant-ligatures:normal;font-variant-numeric:normal;font-variant-position:normal;font-variation-settings:normal;inline-size:0;isolation:auto;mix-blend-mode:normal;shape-margin:0;shape-padding:0;text-decoration-color:#000000;text-decoration-line:none;text-decoration-style:solid;text-indent:0;text-orientation:mixed;text-transform:none;white-space:normal"/><path d="m-195.89 3.5189c-2.2614 0-4.0818 1.8187-4.0818 4.0774v0.23478l3.7653 0.00736 0.12195 2.3909-3.3582 1.9599v2.0372l7.6353-4.7474v-1.8826c0-2.2587-1.8204-4.0774-4.0819-4.0774zm-3.4206 11.953-3.9379 0.63626-0.13224-0.58438-6.146 1.5011 1.4958 3.486s1.2445-0.06993 2.4569 0.31723c1.4375 0.459 2.9389 1.4445 3.811 2.3104 0.87197 0.86579 1.6199 2.1654 2.0953 3.6078 0.41251 1.2514 0.2493 1.8659 0.61163 2.7225 0.24499 0.57883 0.56558 1.157 1.0326 1.5776 0.45496 0.40975 1.0385 0.69542 1.6334 0.84019 0.0828 0.02012 0.25533 5.92e-4 0.25533 5.92e-4l10.673 0.02474s-0.48661-1.9124-0.33174-3.5077c0.17627-1.815 1.044-3.4026 1.9368-4.5559 0.77619-1.0026 2.2355-2.1659 3.7548-2.7428 1.5236-0.57852 3.1061-0.56919 3.1061-0.56919v-1.8832l-6.4004 1.247-2.2895-2.8498-5.3421 4.3265-4.0671 0.79797s-0.69366 0.20306-0.93921 0.44804c-0.1665 0.16614-0.30527 0.63621-0.30527 0.63621l-0.32563 1.5275s-2.1586-1.3806-3.0452-2.29c-0.98184-1.0072-2.4495-3.436-2.4495-3.436l3.3448-0.5528s0.11383-0.03036 0.16706-0.04572c0.095-0.0276 0.27316-0.11389 0.27316-0.11389l3.7141-2.3416 0.50876 0.50918 2.5642 3.9697 5.2607-4.2492-3.6835-4.708s-0.26858-0.34394-0.62616-0.58403c-0.17771-0.11945-0.4201-0.19527-0.57789-0.22581-0.20904-0.04049-0.55753-0.04239-0.82551 0.03189-0.31732 0.08796-0.5398 0.25885-0.5398 0.25885z" opacity=".99988"/><path d="m-208.01 21.619c-4.2787 0-7.7707 3.4929-7.7707 7.7693 0 4.2763 3.492 7.7713 7.7707 7.7713 4.2787 2e-6 7.7727-3.4949 7.7727-7.7713 0-4.2764-3.494-7.7693-7.7727-7.7693zm0 2.4356c2.9585-3e-6 5.3322 2.3727 5.3322 5.3337 0 2.961-2.3736 5.3337-5.3322 5.3337-2.9585-3e-6 -5.3322-2.3727-5.3322-5.3337s2.3737-5.3337 5.3322-5.3337z" color="#000000" color-rendering="auto" dominant-baseline="auto" enable-background="accumulate" image-rendering="auto" opacity=".99988" shape-rendering="auto" solid-color="#000000" stop-color="#000000" style="font-feature-settings:normal;font-variant-alternates:normal;font-variant-caps:normal;font-variant-east-asian:normal;font-variant-ligatures:normal;font-variant-numeric:normal;font-variant-position:normal;font-variation-settings:normal;inline-size:0;isolation:auto;mix-blend-mode:normal;shape-margin:0;shape-padding:0;text-decoration-color:#000000;text-decoration-line:none;text-decoration-style:solid;text-indent:0;text-orientation:mixed;text-transform:none;white-space:normal"/><path d="m-176.97 21.619c-4.2787 0-7.7707 3.4929-7.7707 7.7693 0 4.2763 3.492 7.7713 7.7707 7.7713 4.2787 2e-6 7.7727-3.4949 7.7727-7.7713 0-4.2764-3.494-7.7693-7.7727-7.7693zm0 2.4356c2.9585-3e-6 5.3322 2.3727 5.3322 5.3337 0 2.961-2.3737 5.3337-5.3322 5.3337-2.9585-3e-6 -5.3322-2.3727-5.3322-5.3337s2.3737-5.3337 5.3322-5.3337z" color="#000000" color-rendering="auto" dominant-baseline="auto" enable-background="accumulate" image-rendering="auto" opacity=".99988" shape-rendering="auto" solid-color="#000000" stop-color="#000000" style="font-feature-settings:normal;font-variant-alternates:normal;font-variant-caps:normal;font-variant-east-asian:normal;font-variant-ligatures:normal;font-variant-numeric:normal;font-variant-position:normal;font-variation-settings:normal;inline-size:0;isolation:auto;mix-blend-mode:normal;shape-margin:0;shape-padding:0;text-decoration-color:#000000;text-decoration-line:none;text-decoration-style:solid;text-indent:0;text-orientation:mixed;text-transform:none;white-space:normal"/></g></g></svg>