<svg width="100.34mm" height="66.57mm" version="1.1" viewBox="0 0 100.34 66.57" xmlns="http://www.w3.org/2000/svg"><defs><clipPath><path d="m0 0h266.48v167.56h-266.48z"/></clipPath></defs><g transform="translate(242.45 12.299)"><path d="m-236.35-12.199h87.887c3.4347 0 6.2544 2.6684 6.2544 6.0913v54.434c0 3.4229-2.4337 5.8447-5.8684 5.8447l-88.425-4.97e-4c-3.4347-1.9e-5 -5.849-2.7934-5.849-6.2164v-54.112c0-3.4229 2.5663-6.0413 6.001-6.0413z" fill="#fff" fill-rule="evenodd" opacity=".99988" stroke="#000" stroke-linecap="round" stroke-linejoin="round" stroke-miterlimit="10" stroke-width=".2"/><g transform="matrix(13.477 0 0 -8.4749 -545.32 295.11)" fill="#0000d6" fill-opacity=".82353" stroke-miterlimit="10" stroke-width=".046786"><g transform="matrix(.27019 0 0 .42969 6.7086 .29524)" fill="#0000d6" fill-opacity=".82353" stroke-miterlimit="10" stroke-width=".13731"></g></g><g fill-rule="evenodd"><path d="m-236.21-10.498c-2.4529 0-4.459 2.0061-4.459 4.459v54.047c0 2.4529 2.006 4.459 4.459 4.459h87.838c2.4529 0 4.459-2.0061 4.459-4.459v-54.047c0-2.4529-2.006-4.459-4.459-4.459zm0 2h87.838c1.3795 0 2.459 1.0795 2.459 2.459v54.047c0 1.3795-1.0795 2.459-2.459 2.459h-87.838c-1.3795 0-2.459-1.0795-2.459-2.459v-54.047c0-1.3795 1.0795-2.459 2.459-2.459z" color="#000000" color-rendering="auto" dominant-baseline="auto" enable-background="accumulate" image-rendering="auto" opacity=".99988" shape-rendering="auto" solid-color="#000000" stop-color="#000000" style="font-feature-settings:normal;font-variant-alternates:normal;font-variant-caps:normal;font-variant-east-asian:normal;font-variant-ligatures:normal;font-variant-numeric:normal;font-variant-position:normal;font-variation-settings:normal;inline-size:0;isolation:auto;mix-blend-mode:normal;shape-margin:0;shape-padding:0;text-decoration-color:#000000;text-decoration-line:none;text-decoration-style:solid;text-indent:0;text-orientation:mixed;text-transform:none;white-space:normal"/><path d="m-193.86 6.2212-2.7064 12.147 1.0951 9.534h-7.9135v1.9513h29.794s0.16426-1.9049 1.4184-3.3274c0.45669-0.51806 1.1334-0.99606 1.841-1.2935 0.68286-0.287 1.3956-0.40196 1.887-0.40973 0.47992-0.0075 1.2092 0.06528 1.898 0.29216 0.83664 0.27555 1.6393 0.75885 2.1754 1.3394 1.3036 1.4117 1.4111 3.3991 1.4111 3.3991h10.708l1.0693-11.421-0.6541-12.211zm5.2089 1.6995h8.0146v19.729h-8.0146zm19.967 0.095536h15.237v7.5828h-15.237zm-60.28 4.0275v1.5746h2.982l3.649 5.411h7.5368l-7.0958-6.9856zm0 7.489v4.8763h24.913l-0.78089-4.8763h-17.22zm0 5.7895v4.8139h6.6806s-0.0384-0.32449 0.048-0.78013c0.12266-0.64612 0.4145-1.5411 0.71852-2.0204 0.27378-0.43155 0.79434-0.96581 1.3098-1.3583 0.52618-0.40064 1.0446-0.65513 1.0446-0.65513zm13.891-1.04e-4s0.71934 0.30428 1.3539 0.84105c0.44035 0.37251 0.79416 0.92174 1.028 1.2903 0.21724 0.34258 0.41891 0.74004 0.55246 1.2544 0.1735 0.66861 0.24745 1.4282 0.24745 1.4282l6.4932-0.5016 0.30506-1.163 0.16178-0.61551 0.66698-2.5337z" opacity=".99988" stroke-linecap="round" stroke-linejoin="round" stroke-miterlimit="10" stroke-opacity=".82353" stroke-width=".84799"/><path d="m-217.07 25.746c2.4029-8e-6 4.3703 1.9713 4.3703 4.3639 0 2.3926-1.9674 4.365-4.3703 4.365-2.4029-6e-6 -4.3714-1.9724-4.3714-4.365 0-2.3927 1.9684-4.3639 4.3714-4.3639zm0 2.4217c-1.0796 6e-6 -1.9358 0.8515-1.9358 1.9422 0 1.0907 0.85616 1.9433 1.9358 1.9433 1.0796 2e-6 1.9347-0.8526 1.9347-1.9433 0-1.0907-0.85507-1.9422-1.9347-1.9422z" color="#000000" color-rendering="auto" dominant-baseline="auto" enable-background="accumulate" image-rendering="auto" opacity=".99988" shape-rendering="auto" solid-color="#000000" stop-color="#000000" style="font-feature-settings:normal;font-variant-alternates:normal;font-variant-caps:normal;font-variant-east-asian:normal;font-variant-ligatures:normal;font-variant-numeric:normal;font-variant-position:normal;font-variation-settings:normal;inline-size:0;isolation:auto;mix-blend-mode:normal;shape-margin:0;shape-padding:0;text-decoration-color:#000000;text-decoration-line:none;text-decoration-style:solid;text-indent:0;text-orientation:mixed;text-transform:none;white-space:normal"/><path d="m-168.25 25.746c2.4029-8e-6 4.3703 1.9713 4.3703 4.3639 0 2.3926-1.9674 4.365-4.3703 4.365-2.403-6e-6 -4.3714-1.9724-4.3714-4.365 0-2.3927 1.9685-4.3639 4.3714-4.3639zm0 2.4217c-1.0797 6e-6 -1.9358 0.8515-1.9358 1.9422 0 1.0907 0.85613 1.9433 1.9358 1.9433 1.0796 2e-6 1.9347-0.8526 1.9347-1.9433 0-1.0907-0.85506-1.9422-1.9347-1.9422z" color="#000000" color-rendering="auto" dominant-baseline="auto" enable-background="accumulate" image-rendering="auto" opacity=".99988" shape-rendering="auto" solid-color="#000000" stop-color="#000000" style="font-feature-settings:normal;font-variant-alternates:normal;font-variant-caps:normal;font-variant-east-asian:normal;font-variant-ligatures:normal;font-variant-numeric:normal;font-variant-position:normal;font-variation-settings:normal;inline-size:0;isolation:auto;mix-blend-mode:normal;shape-margin:0;shape-padding:0;text-decoration-color:#000000;text-decoration-line:none;text-decoration-style:solid;text-indent:0;text-orientation:mixed;text-transform:none;white-space:normal"/></g></g></svg>