<svg width="100.34mm" height="66.57mm" version="1.1" viewBox="0 0 100.34 66.57" xmlns="http://www.w3.org/2000/svg"><defs><clipPath><path d="m0 0h266.48v167.56h-266.48z"/></clipPath></defs><g transform="translate(242.45 12.299)"><path d="m-236.35-12.199h87.887c3.4347 0 6.2544 2.6684 6.2544 6.0913v54.434c0 3.4229-2.4337 5.8447-5.8684 5.8447l-88.425-4.97e-4c-3.4347-1.9e-5 -5.849-2.7934-5.849-6.2164v-54.112c0-3.4229 2.5663-6.0413 6.001-6.0413z" fill="#fff" fill-rule="evenodd" opacity=".99988" stroke="#000" stroke-linecap="round" stroke-linejoin="round" stroke-miterlimit="10" stroke-width=".2"/><g transform="matrix(13.477 0 0 -8.4749 -545.32 295.11)" fill="#0000d6" fill-opacity=".82353" stroke-miterlimit="10" stroke-width=".046786"><g transform="matrix(.27019 0 0 .42969 6.7086 .29524)" fill="#0000d6" fill-opacity=".82353" stroke-miterlimit="10" stroke-width=".13731"></g></g><g><path d="m-236.21-10.498c-2.4529 0-4.459 2.0061-4.459 4.459v54.047c0 2.4529 2.006 4.459 4.459 4.459h87.838c2.4529 0 4.459-2.0061 4.459-4.459v-54.047c0-2.4529-2.006-4.459-4.459-4.459zm0 2h87.838c1.3795 0 2.459 1.0795 2.459 2.459v54.047c0 1.3795-1.0795 2.459-2.459 2.459h-87.838c-1.3795 0-2.459-1.0795-2.459-2.459v-54.047c0-1.3795 1.0795-2.459 2.459-2.459z" color="#000000" color-rendering="auto" dominant-baseline="auto" enable-background="accumulate" fill-rule="evenodd" image-rendering="auto" opacity=".99988" shape-rendering="auto" solid-color="#000000" stop-color="#000000" style="font-feature-settings:normal;font-variant-alternates:normal;font-variant-caps:normal;font-variant-east-asian:normal;font-variant-ligatures:normal;font-variant-numeric:normal;font-variant-position:normal;font-variation-settings:normal;inline-size:0;isolation:auto;mix-blend-mode:normal;shape-margin:0;shape-padding:0;text-decoration-color:#000000;text-decoration-line:none;text-decoration-style:solid;text-indent:0;text-orientation:mixed;text-transform:none;white-space:normal"/><path d="m-216.64 24.743v-9.7954"/><path d="m-214.09 7.6692v16.85h58.132v-16.85h-17.333v15.38h-4.9177v-15.38zm-10.384 5.668-3.0289 7.6487v8.5914h1.8304s-0.0211-0.55695 0.18029-1.2681c0.16883-0.59831 0.50748-1.2998 1.0217-1.9231 0.42892-0.52001 1.0811-0.94679 1.754-1.2466 0.69377-0.30909 1.2605-0.46054 1.9205-0.48679 0.48179-0.01917 0.97761 0.06788 1.4269 0.24297 0.90297 0.35187 1.842 0.81673 2.44 1.5806 0.47607 0.60813 0.7898 1.3235 0.94353 1.9291 0.16563 0.65181 0.15201 1.1719 0.15201 1.1719l22 3.2e-5s-0.0264-0.29718 0.0289-0.66305c0.0605-0.4006 0.20801-0.88509 0.33216-1.1896 0.11812-0.28988 0.32388-0.6724 0.55647-1.0045 0.28184-0.4025 0.58492-0.73101 0.58492-0.73101l-23.175-0.0013v-12.651zm0.46103 2.0914h6.9799v4.8687h-8.9064zm38.402 10.56s0.84567 1.0458 1.113 1.6542c0.26675 0.60698 0.46476 1.934 0.46476 1.934h5.8216l3e-3 -3.5887zm12.321 3.5882 3.7831 1.63e-4s0.0116-0.4704 0.10699-0.97318c0.0625-0.33038 0.18282-0.67474 0.2814-0.90883 0.13175-0.31274 0.36032-0.73347 0.61283-1.0788 0.25799-0.35289 0.53852-0.62712 0.53852-0.62712h-5.3229zm12.019-3.5881s0.35135 0.36952 0.65853 0.81341c0.20551 0.29697 0.36977 0.63582 0.47549 0.88771 0.0939 0.22383 0.21227 0.5322 0.27475 0.8487 0.10301 0.52154 0.12095 1.0385 0.12095 1.0385l3.783-1.36e-4 8.8e-4 -3.5878z" fill-rule="evenodd" opacity=".99988"/></g><g fill-rule="evenodd" shape-rendering="auto"><path d="m-188.98 25.852c-2.047-3e-6 -3.7229 1.6792-3.7229 3.7175 0 2.0382 1.6759 3.7184 3.7229 3.7184 2.047-5e-6 3.7238-1.6802 3.7238-3.7184 0-2.0382-1.6768-3.7175-3.7238-3.7175zm0 2.063c0.9197 2e-6 1.649 0.72536 1.649 1.6545 0 0.92915-0.72934 1.6555-1.649 1.6555-0.91971 5e-6 -1.6481-0.7263-1.6481-1.6555 0-0.92916 0.72838-1.6545 1.6481-1.6545z" color="#000000" color-rendering="auto" dominant-baseline="auto" enable-background="accumulate" image-rendering="auto" opacity=".99988" solid-color="#000000" stop-color="#000000" style="font-feature-settings:normal;font-variant-alternates:normal;font-variant-caps:normal;font-variant-east-asian:normal;font-variant-ligatures:normal;font-variant-numeric:normal;font-variant-position:normal;font-variation-settings:normal;inline-size:0;isolation:auto;mix-blend-mode:normal;shape-margin:0;shape-padding:0;text-decoration-color:#000000;text-decoration-line:none;text-decoration-style:solid;text-indent:0;text-orientation:mixed;text-transform:none;white-space:normal"/><path d="m-220.79 25.852c-2.047-3e-6 -3.7229 1.6792-3.7229 3.7175 0 2.0382 1.6759 3.7184 3.7229 3.7184 2.047-5e-6 3.7238-1.6802 3.7238-3.7184 0-2.0382-1.6768-3.7175-3.7238-3.7175zm0 2.063c0.91969 2e-6 1.649 0.72536 1.649 1.6545 0 0.92915-0.72934 1.6555-1.649 1.6555-0.91972 5e-6 -1.6481-0.7263-1.6481-1.6555 0-0.92916 0.72838-1.6545 1.6481-1.6545z" color="#000000" color-rendering="auto" dominant-baseline="auto" enable-background="accumulate" image-rendering="auto" opacity=".99988" solid-color="#000000" stop-color="#000000" style="font-feature-settings:normal;font-variant-alternates:normal;font-variant-caps:normal;font-variant-east-asian:normal;font-variant-ligatures:normal;font-variant-numeric:normal;font-variant-position:normal;font-variation-settings:normal;inline-size:0;isolation:auto;mix-blend-mode:normal;shape-margin:0;shape-padding:0;text-decoration-color:#000000;text-decoration-line:none;text-decoration-style:solid;text-indent:0;text-orientation:mixed;text-transform:none;white-space:normal"/><path d="m-164.69 25.852c-2.047-3e-6 -3.7229 1.6792-3.7229 3.7175 0 2.0382 1.6759 3.7184 3.7229 3.7184 2.047-5e-6 3.7238-1.6802 3.7238-3.7184 0-2.0382-1.6768-3.7175-3.7238-3.7175zm0 2.063c0.9197 2e-6 1.649 0.72536 1.649 1.6545 0 0.92915-0.72934 1.6555-1.649 1.6555-0.91971 5e-6 -1.6481-0.7263-1.6481-1.6555 0-0.92916 0.72838-1.6545 1.6481-1.6545z" color="#000000" color-rendering="auto" dominant-baseline="auto" enable-background="accumulate" image-rendering="auto" opacity=".99988" solid-color="#000000" stop-color="#000000" style="font-feature-settings:normal;font-variant-alternates:normal;font-variant-caps:normal;font-variant-east-asian:normal;font-variant-ligatures:normal;font-variant-numeric:normal;font-variant-position:normal;font-variation-settings:normal;inline-size:0;isolation:auto;mix-blend-mode:normal;shape-margin:0;shape-padding:0;text-decoration-color:#000000;text-decoration-line:none;text-decoration-style:solid;text-indent:0;text-orientation:mixed;text-transform:none;white-space:normal"/></g></g></svg>