<svg width="100.34mm" height="100.47mm" version="1.1" viewBox="0 0 100.34 100.47" xmlns="http://www.w3.org/2000/svg"><defs><clipPath><path d="m0 0h266.48v167.56h-266.48z"/></clipPath><clipPath id="a"><path d="m0 0h459.09v177.77h-459.09z"/></clipPath></defs><g transform="translate(242.45 46.199)"><path d="m-236.35-46.099h87.887c3.4347 0 6.2544 2.6684 6.2544 6.0913v88.334c0 3.4229-2.4337 5.8447-5.8684 5.8447l-88.425-4.97e-4c-3.4347-1.9e-5 -5.849-2.7934-5.849-6.2164v-88.012c0-3.4229 2.5663-6.0413 6.001-6.0413z" fill="#fff" fill-rule="evenodd" opacity=".99988" stroke="#000" stroke-linecap="round" stroke-linejoin="round" stroke-miterlimit="10" stroke-opacity=".90588" stroke-width=".2"/><g transform="matrix(13.477 0 0 -8.4749 -545.32 295.11)" fill="#0000d6" fill-opacity=".82353" stroke-miterlimit="10" stroke-width=".046786"><g transform="matrix(.27019 0 0 .42969 6.7086 .29524)" fill="#0000d6" fill-opacity=".82353" stroke-miterlimit="10" stroke-width=".13731"></g></g><g><g fill-rule="evenodd"><path d="m-207.62 14.062v22.791h48.881v-22.791zm-14.171 7.6944-4.1043 10.364v11.641h2.4795s-0.0279-0.75454 0.24508-1.7181c0.22875-0.81071 0.68719-1.7614 1.3839-2.606 0.58119-0.70461 1.4647-1.283 2.3765-1.6893 0.94009-0.41882 1.7087-0.62366 2.603-0.65922 0.65285-0.02596 1.3236 0.09158 1.9323 0.32882 1.2235 0.47681 2.4965 1.1062 3.3067 2.1412 0.64506 0.82402 1.0706 1.7936 1.2789 2.6142 0.22436 0.88321 0.20603 1.5883 0.20603 1.5883h30.015s0.0199-0.3544 0.0929-0.88377c0.0753-0.53179 0.23871-1.1597 0.40158-1.5554 0.17335-0.42192 0.49556-1.0205 0.84225-1.4935 0.22408-0.30574 0.45374-0.56304 0.61127-0.72914 0.12152-0.12813 0.20012-0.20201 0.20014-0.20201h-31.72v-17.142zm10.081 2.8334v6.5979h-12.068l2.6108-6.5979z" opacity=".99988"/><path d="m-173.41 38.724c-2.7712-4e-6 -5.0401 2.2734-5.0401 5.0328 0 2.7594 2.2689 5.0341 5.0401 5.0341 2.7712-4e-6 5.0414-2.2747 5.0414-5.0341 0-2.7594-2.2702-5.0328-5.0414-5.0328zm0 2.7929c1.2451 4e-6 2.2325 0.98201 2.2325 2.2399 0 1.2579-0.9874 2.2412-2.2325 2.2412-1.2452 4e-6 -2.2312-0.98328-2.2312-2.2412s0.98608-2.2399 2.2312-2.2399z" color="#000000" color-rendering="auto" dominant-baseline="auto" enable-background="accumulate" image-rendering="auto" opacity=".99988" shape-rendering="auto" solid-color="#000000" stop-color="#000000" style="font-feature-settings:normal;font-variant-alternates:normal;font-variant-caps:normal;font-variant-east-asian:normal;font-variant-ligatures:normal;font-variant-numeric:normal;font-variant-position:normal;font-variation-settings:normal;inline-size:0;isolation:auto;mix-blend-mode:normal;shape-margin:0;shape-padding:0;text-decoration-color:#000000;text-decoration-line:none;text-decoration-style:solid;text-indent:0;text-orientation:mixed;text-transform:none;white-space:normal"/><path d="m-216.74 38.724c-2.7712-4e-6 -5.0401 2.2734-5.0401 5.0328 0 2.7594 2.2689 5.0341 5.0401 5.0341s5.0414-2.2747 5.0414-5.0341c0-2.7594-2.2702-5.0328-5.0414-5.0328zm0 2.7929c1.2451 4e-6 2.2325 0.98201 2.2325 2.2399 0 1.2579-0.98739 2.2412-2.2325 2.2412-1.2451 4e-6 -2.2312-0.98328-2.2312-2.2412s0.98611-2.2399 2.2312-2.2399z" color="#000000" color-rendering="auto" dominant-baseline="auto" enable-background="accumulate" image-rendering="auto" opacity=".99988" shape-rendering="auto" solid-color="#000000" stop-color="#000000" style="font-feature-settings:normal;font-variant-alternates:normal;font-variant-caps:normal;font-variant-east-asian:normal;font-variant-ligatures:normal;font-variant-numeric:normal;font-variant-position:normal;font-variation-settings:normal;inline-size:0;isolation:auto;mix-blend-mode:normal;shape-margin:0;shape-padding:0;text-decoration-color:#000000;text-decoration-line:none;text-decoration-style:solid;text-indent:0;text-orientation:mixed;text-transform:none;white-space:normal"/><path d="m-168.86 38.899 10.116-4.8e-5v2.3414l-7.9993 2.6029s0.0159-0.43583-0.0602-0.9652c-0.0753-0.53179-0.2403-1.158-0.40285-1.5537-0.17335-0.42193-0.49547-1.0212-0.84226-1.4942-0.39691-0.54158-0.81121-0.93115-0.81121-0.93115z" opacity=".99988"/><path d="m-236.21-44.398c-2.4529 0-4.459 2.0061-4.459 4.459v87.947c0 2.4529 2.006 4.459 4.459 4.459h87.838c2.4529 0 4.459-2.0061 4.459-4.459v-87.947c0-2.4529-2.006-4.459-4.459-4.459zm0 2h87.838c1.3795 0 2.459 1.0795 2.459 2.459v87.947c0 1.3795-1.0795 2.459-2.459 2.459h-87.838c-1.3795 0-2.459-1.0795-2.459-2.459v-87.947c0-1.3795 1.0795-2.459 2.459-2.459z" color="#000000" color-rendering="auto" dominant-baseline="auto" enable-background="accumulate" image-rendering="auto" opacity=".99988" shape-rendering="auto" solid-color="#000000" stop-color="#000000" style="font-feature-settings:normal;font-variant-alternates:normal;font-variant-caps:normal;font-variant-east-asian:normal;font-variant-ligatures:normal;font-variant-numeric:normal;font-variant-position:normal;font-variation-settings:normal;inline-size:0;isolation:auto;mix-blend-mode:normal;shape-margin:0;shape-padding:0;text-decoration-color:#000000;text-decoration-line:none;text-decoration-style:solid;text-indent:0;text-orientation:mixed;text-transform:none;white-space:normal"/></g><path d="m-210.1-24.966-2.2526 0.0025v-5.0371h-5.5317v5.0371h-2.2659l6.3e-4 -12.59h2.2658v5.0317h5.5318v-5.0317h2.2552z" stroke-width=".26458"/><path d="m-196.2-25.223-2.0285-1.13e-4v-0.22565s-1.14 0.40935-1.7366 0.45462c-0.72579 0.05506-1.4832 0.0084-2.1717-0.22796-0.55208-0.18954-1.1207-0.47897-1.6184-0.82343-0.23499-0.16264-0.44555-0.34362-0.63305-0.57821-0.21494-0.26897-0.33264-0.63142-0.33916-0.97567-8e-3 -0.4542 0.0898-0.95649 0.39857-1.3033 0.63336-0.71165 1.575-1.1877 2.5374-1.421 0.36292-0.08797 0.72059-0.12731 1.0777-0.16647 0.37719-0.04136 0.94899 0.01841 1.4284 0.13228 0.57249 0.13598 1.0254 0.33478 1.0254 0.33478s0.0522-0.33073 0.026-0.49328c-0.0402-0.24947-0.16042-0.54714-0.27588-0.70611-0.28379-0.39079-0.79726-0.57308-1.2574-0.71999-0.16421-0.05244-0.3424-0.04484-0.51469-0.05067-0.21242-0.0072-0.42549 0.0022-0.63733 0.01953-0.34262 0.028-0.74619 0.0802-1.0222 0.13614-0.94568 0.1916-1.4681 0.48139-1.4681 0.48139l-0.82042-1.8291s0.66313-0.31867 1.5787-0.54966c0.71963-0.18157 1.641-0.29247 2.2086-0.26361 1.079 0.05487 2.1683 0.29211 2.9411 0.95772 0.77279 0.6656 1.3016 1.5704 1.3016 2.633zm-2.1002-2.5062s-0.37413-0.30067-0.87321-0.49843c-0.43751-0.17336-0.97888-0.24722-1.3428-0.24484-0.33648 0.0023-0.91381 0.11134-1.321 0.2759-0.50039 0.20223-0.8027 0.46738-0.8027 0.46738s0.25833 0.25453 0.72177 0.44597c0.43808 0.18096 1.0714 0.29941 1.4421 0.29972 0.36555 3.06e-4 0.88726-0.08101 1.3225-0.25845 0.47769-0.19474 0.85332-0.48724 0.85332-0.48724z"/><path d="m-183.69-33.106-1.2396 1.5622s-0.3001-0.26239-0.72425-0.37113c-0.41401-0.10614-0.94846-0.06021-1.2547 0.06216-0.30108 0.12032-0.74647 0.46386-0.97756 0.82204-0.26484 0.41044-0.29487 0.8326-0.29487 0.8326l-7e-3 5.2348-1.9983 6e-6v-8.7915l1.9983 0.01414v0.28676s0.27879-0.17708 0.66094-0.30759c0.39436-0.13468 0.8977-0.22307 1.246-0.23279 0.37918-0.01055 0.97523 0.05957 1.4435 0.24034 0.65901 0.25438 1.148 0.64803 1.148 0.64803z"/><path d="m-164.52-26.62c-0.70942 0.83592-1.5613 1.3637-2.5217 1.5763-3e-3 5.82e-4 8e-5 2.1106 8e-5 2.1106h-1.9985s-8.6e-4 -2.1072-3e-3 -2.1078c-0.25362-0.05559-0.4953-0.13284-0.72612-0.23046-0.53575-0.2266-1.013-0.56299-1.4449-0.9931-0.84826-0.8565-1.3242-1.8938-1.3242-3.1962s0.45768-2.3291 1.306-3.1856c0.38873-0.39249 0.83169-0.69002 1.3078-0.9119 0.56286-0.2623 1.1774-0.41347 1.8807-0.41347 1.3752 0 2.6673 0.61867 3.5302 1.6981l-1.5653 1.2578c-0.49863-0.58335-1.1447-0.89124-1.9287-0.92644-0.68119 0-1.3928 0.30244-1.8298 0.77176-0.42415 0.45758-0.68706 0.9857-0.68706 1.7131 0 0.71571 0.22909 1.2149 0.65323 1.6842 0.21231 0.22799 0.49146 0.4551 0.81533 0.59882 0.34281 0.15212 0.73396 0.21424 1.0842 0.21424 0.78403-0.05867 1.2133-0.20576 1.8928-0.91464z" stroke-width=".26458"/><path d="m-179.84-37.031v2.0062h1.9986v-2.0062zm0 3.0221v9.0458h1.9986v-9.0458z" stroke-width=".393"/><g transform="matrix(4.192 0 0 -1.6141 -442.64 62.539)" stroke-width=".25088"><g transform="scale(.15683 .40502)" stroke-width=".25088"><g clip-path="url(#a)" stroke-width=".25088"><path transform="matrix(.40245 0 0 -.40471 459.04 114.47)" d="m-315.88-16.201-1.7891 34.223h23.121v-34.223zm25.889 0-0.0508 34.223h222.2v-7.6836l-8.1758-26.539zm125.46 6.1287v23.449h-36.949v-23.449zm-83.688 0v23.449h-36.924v-23.449zm125.46 0h-36.949v23.449h36.949zm-120.54 0h36.924v23.449h-36.924zm-55.386 0v23.449h-14.834l1.0685-23.449zm180.82 0h37.123l7.2556 23.449h-44.379zm-200.75 32.17-3.0801 29.701h23.705s-0.32127-1.9428-0.0286-4.5781c0.29204-2.6296 1.1961-5.9487 2.9425-8.7153 1.6328-2.5866 3.0302-4.3826 5.7863-6.3548 3.8144-2.7294 8.6719-3.8484 11.856-3.8707 2.5113-0.01756 6.3068 0.52912 9.6214 2.1257 3.3901 1.6329 6.2933 4.3479 8.2727 7.2135 4.2091 6.0936 3.2493 14.18 3.2493 14.18h104.36s-0.54894-7.9766 3.7504-14.228c1.6284-2.3679 3.7494-4.6792 6.4292-6.2635 3.5142-2.0776 7.7347-3.0833 10.506-3.1186 3.0996-0.03944 7.2211 0.81035 10.84 2.8273 2.6498 1.4769 4.9806 3.6618 6.6898 6.1707 2.0072 2.9463 3.1116 6.668 3.5398 9.5415 0.38826 2.6058 0.18888 4.5141 0.18888 4.5141l42.143-3.0312v-26.113z" fill-rule="evenodd" opacity=".99988"/></g></g></g><path d="m-175.49-3.6055c-2.3781-3.2e-6 -4.334 1.9559-4.334 4.334 0 2.3781 1.9559 4.3359 4.334 4.3359 2.3781-4.7e-6 4.3359-1.9578 4.3359-4.3359 0-2.3781-1.9578-4.334-4.3359-4.334zm0 2.6992c0.91891 1.82e-6 1.6367 0.71585 1.6367 1.6348 0 0.91891-0.71781 1.6348-1.6367 1.6348-0.91891 1.3e-6 -1.6348-0.71585-1.6348-1.6348 0-0.91891 0.71585-1.6348 1.6348-1.6348z" color="#000000" color-rendering="auto" dominant-baseline="auto" enable-background="accumulate" fill-rule="evenodd" image-rendering="auto" opacity=".99988" shape-rendering="auto" solid-color="#000000" stop-color="#000000" style="font-feature-settings:normal;font-variant-alternates:normal;font-variant-caps:normal;font-variant-east-asian:normal;font-variant-ligatures:normal;font-variant-numeric:normal;font-variant-position:normal;font-variation-settings:normal;inline-size:0;isolation:auto;mix-blend-mode:normal;shape-margin:0;shape-padding:0;text-decoration-color:#000000;text-decoration-line:none;text-decoration-style:solid;text-indent:0;text-orientation:mixed;text-transform:none;white-space:normal"/><path d="m-214.19-3.6055c-2.3781-3.2e-6 -4.334 1.9559-4.334 4.334 0 2.3781 1.9559 4.3359 4.334 4.3359 2.3781-4.7e-6 4.3359-1.9578 4.3359-4.3359 0-2.3781-1.9578-4.334-4.3359-4.334zm0 2.6992c0.91891 1.82e-6 1.6367 0.71585 1.6367 1.6348 0 0.91891-0.71781 1.6348-1.6367 1.6348-0.91891 1.3e-6 -1.6348-0.71585-1.6348-1.6348 0-0.91891 0.71585-1.6348 1.6348-1.6348z" color="#000000" color-rendering="auto" dominant-baseline="auto" enable-background="accumulate" fill-rule="evenodd" image-rendering="auto" opacity=".99988" shape-rendering="auto" solid-color="#000000" stop-color="#000000" style="font-feature-settings:normal;font-variant-alternates:normal;font-variant-caps:normal;font-variant-east-asian:normal;font-variant-ligatures:normal;font-variant-numeric:normal;font-variant-position:normal;font-variation-settings:normal;inline-size:0;isolation:auto;mix-blend-mode:normal;shape-margin:0;shape-padding:0;text-decoration-color:#000000;text-decoration-line:none;text-decoration-style:solid;text-indent:0;text-orientation:mixed;text-transform:none;white-space:normal"/></g></g></svg>