<svg width="100.46mm" height="100.46mm" version="1.1" viewBox="0 0 100.46 100.46" xmlns="http://www.w3.org/2000/svg"><defs><clipPath><path d="m0 0h266.48v167.56h-266.48z"/></clipPath></defs><g transform="translate(242.5 46.238)"><g><path d="m-236.19-46.188c-3.4654 0-6.2617 2.7963-6.2617 6.2617v87.836c0 3.4655 2.7963 6.2617 6.2617 6.2617h87.836c3.4655 0 6.2617-2.7963 6.2617-6.2617v-87.836c0-3.4655-2.7962-6.2617-6.2617-6.2617zm0 0.40039h87.836c3.2508 0 5.8613 2.6105 5.8613 5.8613v87.836c0 3.2508-2.6105 5.8613-5.8613 5.8613h-87.836c-3.2508 0-5.8633-2.6105-5.8633-5.8613v-87.836c0-3.2508 2.6125-5.8613 5.8633-5.8613z" color="#000000" style="paint-order:stroke fill markers"/><path d="m-236.19-45.988h87.836c3.3581 0 6.0616 2.7035 6.0616 6.0616v87.836c0 3.3581-2.7035 6.0616-6.0616 6.0616h-87.836c-3.3581 0-6.0616-2.7035-6.0616-6.0616v-87.836c0-3.3581 2.7035-6.0616 6.0616-6.0616z" color="#000000" fill="#fff" stroke-linecap="square" stroke-width=".4" style="-inkscape-stroke:none;paint-order:stroke fill markers"/></g><g transform="matrix(13.477 0 0 -8.4749 -545.32 295.11)" fill="#0000d6" fill-opacity=".82353" stroke-miterlimit="10" stroke-width=".046786"><g transform="matrix(.27019 0 0 .42969 6.7086 .29524)" fill="#0000d6" fill-opacity=".82353" stroke-miterlimit="10" stroke-width=".13731"></g></g><path d="m-236.21-44.398c-2.4529 0-4.459 2.0061-4.459 4.459v87.947c0 2.4529 2.006 4.459 4.459 4.459h87.838c2.4529 0 4.459-2.0061 4.459-4.459v-87.947c0-2.4529-2.006-4.459-4.459-4.459zm0 2h87.838c1.3795 0 2.459 1.0795 2.459 2.459v87.947c0 1.3795-1.0795 2.459-2.459 2.459h-87.838c-1.3795 0-2.459-1.0795-2.459-2.459v-87.947c0-1.3795 1.0795-2.459 2.459-2.459z" color="#000000" color-rendering="auto" dominant-baseline="auto" enable-background="accumulate" fill-rule="evenodd" image-rendering="auto" shape-rendering="auto" solid-color="#000000" stop-color="#000000" style="font-feature-settings:normal;font-variant-alternates:normal;font-variant-caps:normal;font-variant-east-asian:normal;font-variant-ligatures:normal;font-variant-numeric:normal;font-variant-position:normal;font-variation-settings:normal;inline-size:0;isolation:auto;mix-blend-mode:normal;shape-margin:0;shape-padding:0;text-decoration-color:#000000;text-decoration-line:none;text-decoration-style:solid;text-indent:0;text-orientation:mixed;text-transform:none;white-space:normal"/><path d="m-196.06-35.329v25.21h7.5782v-25.21zm-35.519 31.873v15.054h16.79c8.3055 0 14.992 6.6865 14.992 14.992v16.757h15.053v-16.798c0-16.623-13.382-30.005-30.006-30.005zm53.43 3.7375v7.5782h25.21v-7.5782z" stroke-linecap="square" stroke-width=".33387" style="paint-order:stroke fill markers"/></g></svg>