<svg width="100.34mm" height="67.1mm" version="1.1" viewBox="0 0 100.34 67.1" xmlns="http://www.w3.org/2000/svg"><defs><clipPath><path d="m0 0h266.48v167.56h-266.48z"/></clipPath><clipPath><path d="m0 0h266.48v167.56h-266.48z"/></clipPath></defs><g transform="translate(133.6 12.729)"><g transform="matrix(13.477 0 0 -8.4749 -545.32 295.11)" fill="#0000d6" fill-opacity=".82353" stroke-miterlimit="10" stroke-width=".046786"><g transform="matrix(.27019 0 0 .42969 6.7086 .29524)" fill="#0000d6" fill-opacity=".82353" stroke-miterlimit="10" stroke-width=".13731"/></g><g transform="translate(-47.328 .7082)"><g transform="matrix(13.477 0 0 -8.4749 -545.32 295.11)" fill="#0000d6" fill-opacity=".82353" stroke-miterlimit="10" stroke-width=".046786"><g transform="matrix(.27019 0 0 .42969 6.7086 .29524)" fill="#0000d6" fill-opacity=".82353" stroke-miterlimit="10" stroke-width=".13731"/></g><path d="m-79.654-13.387c-3.6385 0-6.5723 2.9337-6.5723 6.5723v53.857c0 3.6385 2.9337 6.5703 6.5723 6.5703h87.102c3.6385 0 6.5703-2.9318 6.5703-6.5703v-53.857c0-3.6385-2.9318-6.5723-6.5703-6.5723zm0 0.24414h87.102c3.5072 0 6.3262 2.8209 6.3262 6.3281v53.857c0 3.5072-2.8189 6.3262-6.3262 6.3262h-87.102c-3.5072 0-6.3281-2.8189-6.3281-6.3262v-53.857c0-3.5072 2.8209-6.3281 6.3281-6.3281z" color="#000000" style="paint-order:stroke fill markers"/><path d="m-79.655-13.265h87.101c3.5729 0 6.4493 2.8764 6.4493 6.4493v53.857c0 3.5729-2.8764 6.4493-6.4493 6.4493h-87.101c-3.5729 0-6.4493-2.8764-6.4493-6.4493v-53.857c0-3.5729 2.8764-6.4493 6.4493-6.4493z" color="#000000" fill="#fff" stroke-linecap="square" stroke-width=".24466" style="-inkscape-stroke:none;paint-order:stroke fill markers"/><path d="m-79.654-11.183c-2.3838 0-4.3689 1.9842-4.3689 4.368v53.856c0 2.3838 1.9851 4.3689 4.3689 4.3689h87.1c2.3838 0 4.3689-1.9851 4.3689-4.3689v-53.856c0-2.3838-1.9851-4.368-4.3689-4.368zm0 2.0818h87.101c1.2668 0 2.2862 1.0195 2.2862 2.2862v53.857c0 1.2668-1.0195 2.2862-2.2862 2.2862h-87.101c-1.2668 0-2.2871-1.0195-2.2871-2.2862v-53.857c0-1.2668 1.0203-2.2862 2.2871-2.2862z" color="#000000" stroke-linecap="square" stroke-width=".5863" style="-inkscape-stroke:none;paint-order:stroke fill markers"/></g><path d="m-79.949 4.526c-4.2103 6.5e-5 -8.0729 0.84267-11.091 2.2466-1.2778 0.59437-3.668 1.7948-5.696 3.4211-1.4282 1.1452-2.8884 2.4341-3.9799 3.7168-0.62239 0.73134-1.211 1.4721-1.6731 2.103-0.23152 0.31609-0.34321 0.60864-0.58808 0.85118-0.31399 0.31099-0.76779 0.56806-1.098 0.74285-0.55406 0.29333-0.97154 0.4084-0.97154 0.4084l0.055 0.58207s-1.7677 0.462-2.968 0.55026c-1.5238 0.11204-3.7418 0.41355-3.7418 0.41355v5.86e-4c-2.3613 0.89446-5.8504 3.5851-4.7546 6.199 0.49472 1.0559 1.123 1.1894 2.1924 1.6542 2.4743 1.0753 7.9682 0.77624 8.1198 0.76778-6e-4 0.0035-0.0116 0.04296-0.0116 0.04296s-0.63342 0.46598-0.98617 1.1177c-0.34701 0.64106-0.41387 1.4642-0.36887 1.8924 0.19828 1.8864 1.8276 2.8318 3.7014 4.3221 1.5494 1.2322 4.2194 2.5691 6.6736 3.25 2.6885 0.74586 5.1019 0.77724 5.1019 0.77724s0.08169-0.8178-0.12212-1.7754c-0.17204-0.80806-0.59685-1.7224-0.94318-2.2561-0.33428-0.51508-0.91997-1.1724-1.5562-1.625-0.65549-0.46632-1.3559-0.76263-1.3559-0.76263l3.2723 0.57003c0.05174 0.0096 0.10532 0.01897 0.15739 0.02835l0.80733 0.13154c2.3621 0.37875 4.9809 0.59707 7.7483 0.59841 0.56142-0.0023 1.1223-0.01298 1.6809-0.0327 0.72194 0.02094 1.447 0.03187 2.1727 0.0327 3.419-0.0018 6.7601-0.23121 9.7903-0.65601l-0.92942 2.1219c-0.69101 1.577 0.02226 3.4024 1.5992 4.0934 1.5769 0.69101 3.4033-0.02224 4.0943-1.5992l2.6137-5.9643c0.01165-0.02653 0.02183-0.05329 0.0327-0.07997 0.02032-0.0047 0.03727-0.0075 0.05763-0.01198 2.6728-0.58896 5.6589-1.3426 8.1155-2.3979 1.5696-0.67432 2.4553-1.5458 3.4236-2.6026 0.81993-0.89478 1.9422-3.0789 1.9422-3.0789s-0.66101-0.12892-1.4797-0.46084c-0.82315-0.33376-1.8063-0.873-2.5243-1.5855-1.3055-1.2955-2.1414-3.2079-3.3334-5.0847-0.98217-1.5465-2.288-3.0292-3.5801-4.4657-2.3356-2.5965-6.0032-4.5781-7.0321-5.1802-3.1795-1.8604-7.635-3.017-12.567-3.017zm-31.467 18.189a0.79119 1.3394 60 0 1 0.61903 0.28888 0.79119 1.3394 60 0 1-0.76435 1.3542 0.79119 1.3394 60 0 1-1.5553-0.01546 0.79119 1.3394 60 0 1 0.76434-1.355 0.79119 1.3394 60 0 1 0.9363-0.27254z" stroke-linecap="round" stroke-linejoin="round" stroke-width=".1675" style="paint-order:stroke fill markers"/></g></svg>