<svg width="100.34mm" height="68.125mm" version="1.1" viewBox="0 0 100.34 68.125" xmlns="http://www.w3.org/2000/svg"><defs><clipPath><path d="m0 0h266.48v167.56h-266.48z"/></clipPath></defs><g transform="translate(245.04 13.405)"><g transform="matrix(13.477 0 0 -8.4749 -545.32 295.11)" fill="#0000d6" fill-opacity=".82353" stroke-miterlimit="10" stroke-width=".046786"><g transform="matrix(.27019 0 0 .42969 6.7086 .29524)" fill="#0000d6" fill-opacity=".82353" stroke-miterlimit="10" stroke-width=".13731"></g></g><path d="m-238.94-13.305h87.887c3.4347 0 6.2544 2.6677 6.2544 6.0897v55.993c0 3.422-2.4338 5.8431-5.8684 5.8431l-88.425-3.66e-4c-3.4347-2e-5 -5.849-2.7927-5.849-6.2146v-55.67c0-3.422 2.5662-6.0397 6.001-6.0397z" fill="#fff" fill-rule="evenodd" opacity=".99988" stroke="#000" stroke-linecap="round" stroke-linejoin="round" stroke-miterlimit="10" stroke-width=".2"/><g><path d="m-238.8-11.604c-2.4529 0-4.459 2.0055-4.459 4.4578v55.605c0 2.4523 2.0061 4.4578 4.459 4.4578h87.838c2.4529 0 4.459-2.0055 4.459-4.4578v-55.605c0-2.4523-2.006-4.4578-4.459-4.4578zm0 1.9995h87.838c1.3795 0 2.459 1.0792 2.459 2.4583v55.605c0 1.3792-1.0794 2.4583-2.459 2.4583h-87.838c-1.3795 0-2.459-1.0792-2.459-2.4583v-55.605c0-1.3791 1.0794-2.4583 2.459-2.4583z" color="#000000" color-rendering="auto" dominant-baseline="auto" enable-background="accumulate" fill-rule="evenodd" image-rendering="auto" opacity=".99988" shape-rendering="auto" solid-color="#000000" stop-color="#000000" style="font-feature-settings:normal;font-variant-alternates:normal;font-variant-caps:normal;font-variant-east-asian:normal;font-variant-ligatures:normal;font-variant-numeric:normal;font-variant-position:normal;font-variation-settings:normal;inline-size:0;isolation:auto;mix-blend-mode:normal;shape-margin:0;shape-padding:0;text-decoration-color:#000000;text-decoration-line:none;text-decoration-style:solid;text-indent:0;text-orientation:mixed;text-transform:none;white-space:normal"/><path d="m-234.42 5.2071h55.936l-4.7431-8.0437 29.978 14.845-30.445 15.291 5.0705-8.4895-55.796 0.0089z" fill-rule="evenodd" opacity=".99988"/><path d="m-200.65 37.906c0 1.9319-0.64136 3.4135-1.6006 4.6071-0.9466 1.1813-2.2822 1.8622-3.6437 1.8531-0.60445-0.0041-1.2098-0.11007-1.7817-0.34016-0.85268-0.34303-1.6308-0.94523-2.2202-1.7628-0.85831-1.1813-1.4055-2.5854-1.4055-4.3204 0-1.9688 0.6314-3.3502 1.5907-4.4823 0.95924-1.1444 2.1506-1.8857 3.8167-1.8857 1.5651 0 2.7127 0.72656 3.672 1.8956 0.97187 1.1567 1.5724 2.5405 1.5724 4.4355zm-2.2835 0.03715c-0.01-0.23252-0.01-0.47519-0.0494-0.71266-0.12288-0.73987-0.40912-1.4711-0.81069-2.03-0.51749-0.73831-1.1687-1.3104-2.1154-1.3104-0.95928 0-1.5856 0.41991-2.1283 1.1582-0.54276 0.73832-0.95583 1.5905-0.95583 2.8949 0 1.3167 0.33213 2.1034 0.87495 2.854 0.27537 0.37439 0.58609 0.70958 0.96071 0.9257 0.36421 0.21008 0.78912 0.30638 1.262 0.30638 0.7217 0 1.0375-0.24555 1.464-0.54498 0.29315-0.20572 0.48512-0.52931 0.69516-0.81987 0.0943-0.13052 0.17569-0.27036 0.25169-0.41243 0.0962-0.18066 0.19444-0.36938 0.25761-0.55776 0.18852-0.56072 0.32128-1.186 0.29216-1.751z" stroke-width=".26458"/><path d="m-184.46 37.906c0 1.9319-0.64142 3.4135-1.6006 4.6071-0.94666 1.1813-2.2822 1.8622-3.6438 1.8531-0.6044-0.0041-1.2098-0.11007-1.7817-0.34016-0.85269-0.34303-1.6309-0.94523-2.2202-1.7628-0.85826-1.1813-1.4055-2.5854-1.4055-4.3204 0-1.9688 0.63144-3.3502 1.5907-4.4823 0.95928-1.1444 2.1506-1.8857 3.8167-1.8857 1.5651 0 2.7128 0.72656 3.672 1.8956 0.97192 1.1567 1.5724 2.5405 1.5724 4.4355zm-2.2835 0.03715c-0.01-0.23252-0.01-0.47519-0.0494-0.71266-0.12288-0.73987-0.40911-1.4711-0.81068-2.03-0.5175-0.73831-1.1687-1.3104-2.1154-1.3104-0.95924 0-1.5856 0.41991-2.1283 1.1582-0.54276 0.73832-0.95583 1.5905-0.95583 2.8949 0 1.3167 0.33214 2.1034 0.87495 2.854 0.27538 0.37439 0.58609 0.70958 0.96071 0.9257 0.36421 0.21008 0.78913 0.30638 1.262 0.30638 0.72176 0 1.0375-0.24555 1.464-0.54498 0.29315-0.20572 0.48562-0.52931 0.69521-0.81987 0.0943-0.13052 0.17569-0.27036 0.25169-0.41243 0.0962-0.18066 0.19444-0.36938 0.25761-0.55776 0.18853-0.56072 0.32128-1.186 0.29216-1.751z" stroke-width=".26458"/><path d="m-233.95 5.6764v13.603"/><g transform="matrix(.63423 0 0 .63659 -295.85 -381.98)" stroke-width=".4164" aria-label="1"><path d="m119.3 669.71-3.6094 1e-5 -6e-3 -13.174-0.1828-0.0951s-1.2327 0.68775-1.9043 0.88494c-0.7528 0.22103-2.332 0.31948-2.332 0.31948l4e-3 -3.6052s0.74079-0.0541 1.4868-0.31341c0.62301-0.21656 1.2311-0.60409 1.5901-0.95939 0.41341-0.40915 0.87672-1.1496 1.1117-1.8464 0.22707-0.67342 0.23274-1.3107 0.23274-1.3107l3.6094-1e-5z" stroke-width=".4164"/></g><path d="m-162.39 44.286-2.035 1e-5v-4.7s-0.13226-0.91009-0.4106-1.2473c-0.2058-0.24956-0.44317-0.52484-0.7456-0.72542-0.43675-0.28998-0.96204-0.45562-1.3261-0.42798-0.17223 0.01288-0.35977 0.0079-0.53501 0.0421-0.44021 0.08674-0.8593 0.27893-1.1784 0.57396-0.25663 0.23742-0.56902 0.66193-0.72102 1.0808-0.15102 0.41624-0.14263 0.82763-0.14263 0.82763v4.576h-2.018v-4.6998s-0.0247-0.37563-0.16878-0.77446c-0.11153-0.30449-0.32029-0.62246-0.49301-0.79713-0.22949-0.23202-0.49623-0.45354-0.80265-0.59924-0.35385-0.16827-0.75571-0.24287-1.1319-0.23653-0.42985 0.0074-0.8784 0.14365-1.257 0.38112-0.20678 0.12978-0.38198 0.30291-0.54662 0.47093-0.17914 0.18284-0.37358 0.50948-0.48857 0.8169-0.1219 0.3251-0.15891 0.62644-0.15891 0.62644l-0.01 4.812h-2.0044v-8.8903h2.0044v0.53096s0.39727-0.29186 0.94329-0.49662c0.54849-0.20567 1.2467-0.32416 1.7062-0.28394 0.53871 0.04706 1.3782 0.18219 2.0034 0.5278 0.84168 0.46538 1.4087 1.1665 1.4087 1.1665s0.30944-0.34744 0.48611-0.49806c0.29216-0.24956 0.66274-0.52462 0.94034-0.66595 0.62537-0.31841 1.3338-0.53506 2.035-0.53506 0.79742 0 1.612 0.22905 2.3142 0.60849 0.58698 0.31717 1.0908 0.80379 1.4883 1.341 0.30992 0.41917 0.52657 0.91024 0.66214 1.4183 0.12535 0.47044 0.14608 0.86814 0.14608 0.86814z" stroke-width=".26458"/></g></g></svg>