<svg width="26.458mm" height="17.712mm" version="1.1" viewBox="0 0 26.458 17.712" xmlns="http://www.w3.org/2000/svg"><g transform="translate(-113.29 -92.016)" fill-rule="evenodd"><g shape-rendering="auto"><path d="m114.91 92.016h23.143c0.91429 0 1.6649 0.71031 1.6649 1.6215v14.49c0 0.91115-0.64784 1.5558-1.5621 1.5558l-23.286-1.2e-4c-0.91429-1e-5 -1.557-0.7436-1.557-1.6548v-14.404c0-0.91115 0.68313-1.6082 1.5974-1.6082z" color="#000000" color-rendering="auto" dominant-baseline="auto" enable-background="accumulate" fill="#faa" image-rendering="auto" opacity=".54754" solid-color="#000000" stop-color="#000000" style="font-feature-settings:normal;font-variant-alternates:normal;font-variant-caps:normal;font-variant-east-asian:normal;font-variant-ligatures:normal;font-variant-numeric:normal;font-variant-position:normal;font-variation-settings:normal;inline-size:0;isolation:auto;mix-blend-mode:normal;shape-margin:0;shape-padding:0;text-decoration-color:#000000;text-decoration-line:none;text-decoration-style:solid;text-indent:0;text-orientation:mixed;text-transform:none;white-space:normal"/><path d="m114.89 92.043h23.174c0.90566 0 1.6492 0.7036 1.6492 1.6062v14.512c0 0.90255-0.64173 1.5411-1.5474 1.5411l-23.316-1.4e-4c-0.90566 0-1.5423-0.73656-1.5423-1.6391v-14.427c0-0.90255 0.67667-1.593 1.5823-1.593z" color="#000000" color-rendering="auto" dominant-baseline="auto" enable-background="accumulate" fill="#fff" image-rendering="auto" opacity=".99988" solid-color="#000000" stop-color="#000000" style="font-feature-settings:normal;font-variant-alternates:normal;font-variant-caps:normal;font-variant-east-asian:normal;font-variant-ligatures:normal;font-variant-numeric:normal;font-variant-position:normal;font-variation-settings:normal;inline-size:0;isolation:auto;mix-blend-mode:normal;shape-margin:0;shape-padding:0;text-decoration-color:#000000;text-decoration-line:none;text-decoration-style:solid;text-indent:0;text-orientation:mixed;text-transform:none;white-space:normal"/><path d="m114.89 92.016c-0.91911 0-1.6087 0.70377-1.6087 1.6195v14.427c0 0.915 0.64889 1.6655 1.5689 1.6655l23.316 5.3e-4c0.91809 0 1.5735-0.65277 1.5735-1.5679v-14.512c0-0.91711-0.75598-1.6325-1.6753-1.6325zm0 0.05271h23.174c0.89195 0 1.6226 0.69173 1.6226 1.5797v14.512c0 0.89001-0.62762 1.5146-1.5208 1.5146h-23.316c-0.89132-1e-5 -1.5157-0.72272-1.5157-1.6128v-14.427c0-0.88932 0.66324-1.5668 1.5555-1.5668z" color="#000000" color-rendering="auto" dominant-baseline="auto" enable-background="accumulate" fill-opacity=".90588" image-rendering="auto" opacity=".99988" solid-color="#000000" stop-color="#000000" style="font-feature-settings:normal;font-variant-alternates:normal;font-variant-caps:normal;font-variant-east-asian:normal;font-variant-ligatures:normal;font-variant-numeric:normal;font-variant-position:normal;font-variation-settings:normal;inline-size:0;isolation:auto;mix-blend-mode:normal;shape-margin:0;shape-padding:0;text-decoration-color:#000000;text-decoration-line:none;text-decoration-style:solid;text-indent:0;text-orientation:mixed;text-transform:none;white-space:normal"/><path d="m114.93 92.491c-0.64679 0-1.1757 0.52895-1.1757 1.1757v14.41c0 0.64678 0.52895 1.1757 1.1757 1.1757h23.161c0.64679 0 1.1757-0.52896 1.1757-1.1757v-14.41c0-0.64678-0.52895-1.1757-1.1757-1.1757zm0 0.52736h23.161c0.36375 0 0.64838 0.28463 0.64838 0.64838v14.41c0 0.36375-0.28463 0.64838-0.64838 0.64838h-23.161c-0.36375 0-0.64838-0.28463-0.64838-0.64838v-14.41c0-0.36375 0.28463-0.64838 0.64838-0.64838z" color="#000000" color-rendering="auto" dominant-baseline="auto" enable-background="accumulate" image-rendering="auto" opacity=".99988" solid-color="#000000" stop-color="#000000" style="font-feature-settings:normal;font-variant-alternates:normal;font-variant-caps:normal;font-variant-east-asian:normal;font-variant-ligatures:normal;font-variant-numeric:normal;font-variant-position:normal;font-variation-settings:normal;inline-size:0;isolation:auto;mix-blend-mode:normal;shape-margin:0;shape-padding:0;text-decoration-color:#000000;text-decoration-line:none;text-decoration-style:solid;text-indent:0;text-orientation:mixed;text-transform:none;white-space:normal"/></g><path d="m133.46 96.09-8.487 0.82537v1.9936l1.2934 0.6947h4.3055v-0.27656l2.888-0.61161zm-8.8002 1.178-8.1808 0.18997-7e-3 0.72551 8.1878 0.18996zm11.632 1.5341-5.4 1.2299-8.2389 0.014-5.9024 1.641-0.0304 0.0128c-0.0112 3e-3 -0.0209 9e-3 -0.0316 0.0129-0.18522 0.0718-0.28995 0.29379-0.25861 0.45832 0.0397 0.20858 0.1263 0.24535 0.26173 0.24535h1.3223l3e-3 1e-3 18.275-1e-3zm-18.74 4.0321s-0.13343 0.21416-0.19893 0.4911c-0.0459 0.19395-0.0409 0.43633-8e-3 0.58274 0.0426 0.18813 0.13693 0.46658 0.29878 0.66038 0.19515 0.23365 0.45871 0.36666 0.45871 0.36666l2.5881 1.3547h12.095l2.5736-1.2615s0.27123-0.1719 0.38499-0.28358c0.11281-0.11072 0.22931-0.27164 0.28865-0.37641 0.0941-0.16606 0.17171-0.38528 0.18684-0.55583 0.0175-0.19723 0.01-0.38922-0.0257-0.54843-0.0566-0.25555-0.15953-0.42985-0.15953-0.42985h-0.64751s0.15753 0.14984 0.23872 0.36861c0.0849 0.22867 0.0925 0.53054 0.03 0.70914-0.0566 0.1619-0.14203 0.35788-0.31868 0.50005-0.0373 0.0299-0.11663 0.087-0.11663 0.087l-0.89987 0.43609-1.5349 0.74307h-12.17l-2.3848-1.2092s-0.148-0.10966-0.26134-0.29294c-0.0896-0.14491-0.1493-0.35107-0.15446-0.48016-6e-3 -0.15594 0.028-0.3918 0.12364-0.56754 0.0965-0.1774 0.25432-0.29411 0.25432-0.29411zm1.2576 0.0191c-0.40142 1.3e-4 -0.72674 0.32565-0.72668 0.72707-6e-5 0.40142 0.32526 0.72691 0.72668 0.72708 0.40158 5e-5 0.72713-0.3255 0.72708-0.72708 5e-5 -0.40157-0.3255-0.72712-0.72708-0.72707zm2.2405 0c-0.70489-5e-5 -1.2763 0.57139-1.2763 1.2763-4e-5 0.7049 0.5714 1.2763 1.2763 1.2763 0.70474-1.4e-4 1.2759-0.57155 1.2759-1.2763 5e-5 -0.70473-0.57115-1.2761-1.2759-1.2763zm2.8556 0c-0.70474 1.3e-4 -1.2759 0.57154-1.2759 1.2763-5e-5 0.70475 0.57115 1.2761 1.2759 1.2763 0.7049 4e-5 1.2763-0.5714 1.2763-1.2763 5e-5 -0.70489-0.57139-1.2763-1.2763-1.2763zm2.7995 0c-0.70489-5e-5 -1.2763 0.57138-1.2763 1.2763-4e-5 0.7049 0.5714 1.2763 1.2763 1.2763 0.7049 4e-5 1.2763-0.5714 1.2763-1.2763 5e-5 -0.70488-0.57139-1.2763-1.2763-1.2763zm2.8724 0c-0.7049-5e-5 -1.2763 0.57139-1.2763 1.2763-6e-5 0.7049 0.57138 1.2763 1.2763 1.2763 0.70489 4e-5 1.2763-0.5714 1.2763-1.2763 5e-5 -0.70489-0.57139-1.2763-1.2763-1.2763zm2.8158 0c-0.70474 1.3e-4 -1.2759 0.57154-1.2759 1.2763-4e-5 0.70475 0.57115 1.2761 1.2759 1.2763 0.7049 4e-5 1.2763-0.5714 1.2763-1.2763 6e-5 -0.70489-0.57138-1.2763-1.2763-1.2763zm2.2468 0c-0.40142 1.3e-4 -0.72674 0.32565-0.72668 0.72707-6e-5 0.40142 0.32526 0.72691 0.72668 0.72708 0.40158 5e-5 0.72713-0.3255 0.72707-0.72708 6e-5 -0.40157-0.32549-0.72712-0.72707-0.72707z"/></g></svg>