<svg width="238.15mm" height="106.59mm" version="1.1" viewBox="0 0 238.15 106.59" xmlns="http://www.w3.org/2000/svg"><g transform="translate(-70.434 -134.98)"><path d="m81.238 134.99c-5.9662 0-10.791 4.8229-10.791 10.789v84.984c0 5.9662 4.8249 10.789 10.791 10.789h216.54c5.9662 0 10.789-4.8229 10.789-10.789v-84.984c0-5.9661-4.8229-10.789-10.789-10.789zm0 1.3125h216.54c5.2621 0 9.4785 4.2145 9.4785 9.4766v84.984c0 5.2621-4.2164 9.4766-9.4785 9.4766h-216.54c-5.2621 0-9.4785-4.2144-9.4785-9.4766v-84.984c0-5.2621 4.2164-9.4766 9.4785-9.4766z" color="#000000" style="paint-order:stroke fill markers"/><path d="m81.237 135.65h216.55c5.6141 0 10.134 4.5197 10.134 10.134v84.983c0 5.6141-4.5197 10.134-10.134 10.134h-216.55c-5.6142 0-10.134-4.5197-10.134-10.134v-84.983c0-5.6141 4.5197-10.134 10.134-10.134z" color="#000000" fill="#fff" stroke-linecap="square" stroke-width="1.3118" style="-inkscape-stroke:none;paint-order:stroke fill markers"/><g transform="matrix(.92553 0 0 .92553 -85.949 -60.47)"><g transform="translate(.01545 -.19959)"><path d="m180.74 215.57c-4.0295 0-7.3843 3.3548-7.3843 7.3843v92.013c0 4.0295 3.3548 7.3828 7.3843 7.3828h233.73c4.0295 0 7.3843-3.3533 7.3843-7.3828v-92.013c0-4.0295-3.3548-7.3843-7.3843-7.3843zm0 3.5581h233.73c2.1194 0 3.8247 1.7068 3.8247 3.8262v92.011c0 2.1194-1.7053 3.8262-3.8247 3.8262h-233.73c-2.1194 0-3.8247-1.7068-3.8247-3.8262v-92.011c0-2.1194 1.7053-3.8262 3.8247-3.8262z" color="#000000" stroke-linecap="square" style="-inkscape-stroke:none;paint-order:stroke fill markers"/><g><path transform="matrix(.53369 0 0 .53369 167.28 129.87)" d="m106.09 182.32 22.46 11.425-32.636 49.291 33.567-4.7227-48.895 75.112 9.1701 3.8449-25.688 15.828 1.0315-30.252 8.5354 6.311 24.789-49.211-33.457 5.538z" fill-rule="evenodd"/><path transform="matrix(2.2327 0 0 2.2357 -183.45 1838.9)" d="m211.38-698.54-1.4262 6e-3v6.2847h-3.2293v-6.2911l-7.8948 3.2e-4v-2.1637l7.8948-14.375h3.2293v13.303l1.4262 8e-3zm-4.6555-3.291v-6.5264l-3.606 6.5567z" stroke-width=".12199"/><path transform="matrix(2.2327 0 0 2.2357 -183.45 1838.9)" d="m227.2-697.25c-7e-3 1.2447-0.30806 2.5116-1.1759 3.5442-0.85727 1.0326-2.084 1.4657-3.4281 1.4657-0.94195 0-1.9658-0.64296-2.5854-1.1811l1.2897-1.3227c0.49743 0.30595 0.98953 0.6465 1.5928 0.6465 0.54316 0.0177 1.0921-0.21246 1.5268-0.6109 0.1921-0.17608 0.37066-0.39493 0.48137-0.63693 0.27466-0.60035 0.41472-1.2228 0.41472-1.9367 0.0105-0.6119 0.0687-1.1345-0.29108-1.5552-0.34926-0.42068-0.80527-0.76189-1.345-0.76189-0.68794-0.0127-1.3866 0.36979-1.6488 1.3045l-1.7297-0.20246 0.28322-6.7842h6.0893v1.8477h-4.3268l-0.0885 2.2597s0.25097-0.10865 0.57908-0.18382c0.29323-0.0672 0.65057-0.1018 0.90531-0.1018 0.55513 0.0141 1.0427 0.16885 1.4878 0.39531 0.36102 0.18371 0.75515 0.41661 0.99551 0.75729 0.22618 0.32059 0.48277 0.65588 0.63507 1.027 0.26282 0.6404 0.3426 1.3527 0.33854 2.0297z" stroke-width=".12199"/><path transform="matrix(2.2327 0 0 2.2357 -183.45 1838.9)" d="m234.02-692.24c-1.2049 0-2.2297-0.45584-2.8831-1.571-0.27369-0.4798-0.41326-1.0665-0.55062-1.7444-0.18549-0.91544-0.3187-1.9972-0.3187-3.2067 0-0.83902 0.0536-1.6018 0.16085-2.2883 0.15541-0.99499 0.27725-1.8588 0.65789-2.5335 0.65348-1.1403 1.7288-1.6815 2.9337-1.6815 1.2253 0 2.2696 0.54121 2.9027 1.6815 0.14458 0.25629 0.25778 0.53744 0.33701 0.84818 0.0552 0.21653 0.0811 0.45169 0.14346 0.68491 0.24617 0.92121 0.36928 2.0175 0.36928 3.2887 0 1.0506-0.13735 2.0002-0.2802 2.828-0.14338 0.83088-0.29285 1.5392-0.61507 2.1041-0.25665 0.45211-0.61485 0.76583-0.98245 1.0185-0.53914 0.37053-1.1462 0.57153-1.8747 0.57153zm-0.061-11.185c-0.47675 0-0.95713 0.27956-1.2432 0.6979-0.1428 0.20884-0.20124 0.46674-0.25807 0.71303-0.24185 1.0482-0.33204 1.8934-0.34225 3.2091 0 0.95999 0.0821 1.7225 0.17981 2.3485 0.0528 0.33817 0.0908 0.60906 0.17421 0.9046 0.0856 0.30361 0.14791 0.64078 0.3331 0.88581 0.29772 0.39394 0.80556 0.61455 1.2588 0.60683 0.50703-0.0164 0.93789-0.26113 1.2008-0.67648 0.13949-0.22035 0.19916-0.52123 0.2748-0.78939 0.0603-0.21377 0.0946-0.41293 0.14206-0.65101 0.13749-0.68924 0.21186-1.5578 0.22704-2.6288-0.0204-1.4034-0.12274-2.1156-0.37361-3.139-0.0768-0.31312-0.15349-0.69034-0.34282-0.90439-0.3106-0.35117-0.78032-0.54554-1.2307-0.57668z" stroke-width=".12199"/><path transform="matrix(2.2327 0 0 2.2357 -183.45 1838.9)" d="m256.08-692.23-1.8435-6e-3 1e-3 -6.4858c0.0136-0.39533-0.1568-0.78385-0.51121-1.1655-0.34081-0.39533-0.7634-0.58618-1.2678-0.57255-0.49075 0-0.91559 0.0909-1.2291 0.44533-0.11214 0.13253-0.25866 0.27709-0.36113 0.44005-0.17158 0.27285-0.272 0.58233-0.26347 0.86397l-0.0126 6.4809-1.846 2e-5v-6.3735c0.0136-0.42259-0.10176-0.86644-0.44253-1.2345-0.3408-0.3817-0.90921-0.63291-1.4136-0.61928-0.44986 0.0136-0.89929 0.15107-1.2265 0.50553-0.31353 0.34081-0.53511 0.74649-0.54875 1.1963v6.5254h-1.846v-10.032h1.846v0.20978c0.38493-0.22415 0.97792-0.47329 1.8095-0.47329 1.1315 0 2.1012 0.50903 2.7449 1.1684 0.8184-0.74535 1.6238-1.148 2.7826-1.148 0.55741 0 1.1613 0.14834 1.7078 0.425 0.42917 0.21726 0.82137 0.52 1.1386 0.84933 0.24134 0.25056 0.41769 0.49096 0.55538 0.77959 0.0827 0.17338 0.1647 0.35356 0.2013 0.59354 0.0252 0.16527 0.0271 0.36652 0.0299 0.5765z" stroke-width=".12199"/></g><path d="m281.35 318.85h32.52l-16.26-16.31z" style="paint-order:stroke fill markers"/><path d="m281.35 219.04h32.52l-16.26 16.31z" style="paint-order:stroke fill markers"/></g><path d="m296.67 291.29q0.41951-0.31962 0.79906-0.93889-0.55934-0.0599-0.93889-0.43948-0.37955-0.39953-0.37955-1.1187 0-0.6792 0.43948-1.1187 0.43948-0.45946 1.0787-0.45946 0.73913 0 1.1986 0.49941 0.47943 0.49941 0.47943 1.2585 0 1.678-1.4383 2.9765z" stroke-linecap="square" stroke-width="3.5548" style="paint-order:stroke fill markers"/></g></g></svg>