<svg width="100.34mm" height="67.1mm" version="1.1" viewBox="0 0 100.34 67.1" xmlns="http://www.w3.org/2000/svg"><defs><clipPath><path d="m0 0h266.48v167.56h-266.48z"/></clipPath></defs><g transform="translate(86.277 13.437)"><g transform="matrix(13.477 0 0 -8.4749 -545.32 295.11)" fill="#0000d6" fill-opacity=".82353" stroke-miterlimit="10" stroke-width=".046786"><g transform="matrix(.27019 0 0 .42969 6.7086 .29524)" fill="#0000d6" fill-opacity=".82353" stroke-miterlimit="10" stroke-width=".13731"></g></g><path d="m-79.654-13.387c-3.6385 0-6.5723 2.9337-6.5723 6.5723v53.857c0 3.6385 2.9337 6.5703 6.5723 6.5703h87.102c3.6385 0 6.5703-2.9318 6.5703-6.5703v-53.857c0-3.6385-2.9318-6.5723-6.5703-6.5723zm0 0.24414h87.102c3.5072 0 6.3262 2.8209 6.3262 6.3281v53.857c0 3.5072-2.8189 6.3262-6.3262 6.3262h-87.102c-3.5072 0-6.3281-2.8189-6.3281-6.3262v-53.857c0-3.5072 2.8209-6.3281 6.3281-6.3281z" color="#000000" style="paint-order:stroke fill markers"/><path d="m-79.655-13.265h87.101c3.5729 0 6.4493 2.8764 6.4493 6.4493v53.857c0 3.5729-2.8764 6.4493-6.4493 6.4493h-87.101c-3.5729 0-6.4493-2.8764-6.4493-6.4493v-53.857c0-3.5729 2.8764-6.4493 6.4493-6.4493z" color="#000000" fill="#fff" stroke-linecap="square" stroke-width=".24466" style="-inkscape-stroke:none;paint-order:stroke fill markers"/><g><g><path d="m-48.871 43.589h-2.6458l-2.9563-5.2791-2.1937-6.45e-4v5.2873h-2.2764l-0.0051-12.613h5.8428c0.33702 0 0.77117-0.0234 1.177 0.0468 0.5993 0.10359 1.1772 0.35461 1.6183 0.72563 0.85968 0.72315 1.4406 1.5671 1.4406 3.0467 0 0.94503-0.43504 1.732-1.012 2.3672-0.51218 0.56399-1.36 0.96858-2.0055 1.0961zm-2.2592-8.92c0.0086-0.23812-0.06317-0.49552-0.17786-0.71136-0.08544-0.16078-0.22447-0.30052-0.36501-0.4063-0.16141-0.12147-0.31813-0.18674-0.49437-0.23273-0.13756-0.03591-0.28038-0.02807-0.42546-0.03003-0.20624-0.0025-0.41777-0.0038-0.61756-0.0038l-3.4427-0.0057 0.0032 2.7541 3.5735-0.01669c0.55645-0.0025 0.73852 0.03598 1.0762-0.08863 0.19746-0.07284 0.41674-0.24922 0.51218-0.36924 0.18864-0.2372 0.34718-0.60131 0.35755-0.8896z"/><path d="m-35.887 43.299-2.0526-1.15e-4v-0.22826s-1.1535 0.41424-1.7573 0.46003c-0.73445 0.05582-1.5009 0.0086-2.1974-0.23054-0.55867-0.19185-1.134-0.48465-1.6376-0.83322-0.23766-0.1647-0.45086-0.34773-0.64054-0.58506-0.2175-0.27213-0.33668-0.63891-0.34321-0.98727-0.0088-0.4596 0.09103-0.96786 0.40327-1.3188 0.64092-0.7201 1.5938-1.2019 2.5675-1.4379 0.36727-0.08905 0.72918-0.12872 1.0905-0.1684 0.3817-0.04175 0.96031 0.01863 1.4453 0.13379 0.57932 0.13749 1.0376 0.33872 1.0376 0.33872s0.05298-0.33464 0.02598-0.49916c-0.0409-0.25239-0.16247-0.55358-0.27914-0.71449-0.28693-0.39542-0.80668-0.57993-1.2723-0.72855-0.16622-0.05305-0.34653-0.04525-0.5209-0.05129-0.21491-0.0071-0.43056 0.0022-0.64484 0.01976-0.34687 0.02842-0.75505 0.08122-1.0344 0.13779-0.95693 0.19383-1.4855 0.48706-1.4855 0.48706l-0.83015-1.8509s0.67107-0.32242 1.5974-0.55617c0.7282-0.18377 1.6606-0.29595 2.2348-0.26676 1.0918 0.05556 2.1941 0.29558 2.976 0.96909 0.78199 0.67351 1.3171 1.5891 1.3171 2.6644zm-2.1252-2.536s-0.37853-0.30422-0.88357-0.50434c-0.44275-0.1755-0.9905-0.25016-1.3588-0.2477-0.34069 0.0022-0.92467 0.11261-1.3367 0.27917-0.50629 0.20468-0.81223 0.47293-0.81223 0.47293s0.26158 0.25757 0.73033 0.45127c0.44326 0.18309 1.0841 0.30292 1.4593 0.3033 0.36989 3.07e-4 0.89782-0.08202 1.3383-0.26152 0.48336-0.19716 0.86346-0.49305 0.86346-0.49305z"/><path d="m-8.3949 43.299-2.0526-1.15e-4v-0.22826s-1.1535 0.41424-1.7573 0.46003c-0.73445 0.05582-1.5009 0.0086-2.1974-0.23054-0.55867-0.19185-1.134-0.48465-1.6376-0.83322-0.23766-0.1647-0.45089-0.34773-0.64056-0.58506-0.2175-0.27213-0.33665-0.63891-0.34319-0.98727-0.0088-0.4596 0.09102-0.96786 0.40325-1.3188 0.64092-0.7201 1.5938-1.2019 2.5675-1.4379 0.36727-0.08905 0.72918-0.12872 1.0905-0.1684 0.38167-0.04175 0.96028 0.01863 1.4453 0.13379 0.57932 0.13749 1.0376 0.33872 1.0376 0.33872s0.05298-0.33464 0.02598-0.49916c-0.0409-0.25239-0.16247-0.55358-0.27914-0.71449-0.28693-0.39542-0.80667-0.57993-1.2723-0.72855-0.16622-0.05305-0.34653-0.04525-0.5209-0.05129-0.21491-0.0071-0.43056 0.0022-0.64483 0.01976-0.34688 0.02842-0.75506 0.08122-1.0344 0.13779-0.95694 0.19383-1.4855 0.48706-1.4855 0.48706l-0.83016-1.8509s0.67107-0.32242 1.5974-0.55617c0.7282-0.18377 1.6606-0.29595 2.2349-0.26676 1.0918 0.05556 2.1941 0.29558 2.976 0.96909 0.78199 0.67351 1.3171 1.5891 1.3171 2.6644zm-2.1252-2.536s-0.37856-0.30422-0.88359-0.50434c-0.44275-0.1755-0.9905-0.25016-1.3587-0.2477-0.34072 0.0022-0.9247 0.11261-1.3367 0.27917-0.50627 0.20468-0.81223 0.47293-0.81223 0.47293s0.26158 0.25757 0.73034 0.45127c0.44326 0.18309 1.0841 0.30292 1.4593 0.3033 0.36986 3.07e-4 0.89779-0.08202 1.3382-0.26152 0.48339-0.19716 0.86346-0.49305 0.86346-0.49305z"/><path d="m-30.63 38.893c0-1.2169 0.43298-2.2559 1.2989-3.1169 0.85216-0.86102 1.8899-1.2915 3.1131-1.2915 0.91795 0 1.73 0.23714 2.436 0.71124 0.0028 0.0022 0.0088-4.135 0.0088-4.135h1.9619s0.0053 6.6153 0.0053 7.8322c0 1.2284-0.0053 4.4181-0.0053 4.4181h-1.9619s-0.0088-0.70321-0.01163-0.70056c-0.70501 0.47219-1.5155 0.70819-2.4314 0.70819-1.2233 0-2.261-0.43054-3.1132-1.2915-0.86588-0.86102-1.2989-1.9057-1.2989-3.1342zm2.0007 0.22332c0.05325 0.61313 0.37605 1.2386 0.83822 1.645 0.43378 0.38154 1.0545 0.59906 1.632 0.58314 0.59419-0.01645 1.2169-0.27775 1.6434-0.69166 0.43514-0.42227 0.72123-1.0494 0.75542-1.6548 0.03369-0.59684-0.15238-1.2644-0.5566-1.7048-0.47048-0.51279-1.2259-0.83061-1.9216-0.81614-0.6822 0.01413-1.403 0.36161-1.8493 0.87777-0.40172 0.46466-0.59453 1.1495-0.54155 1.7615z"/><path d="m4.0108 35.379-1.2321 1.5528s-0.29825-0.26078-0.71984-0.36889c-0.41149-0.1054-0.94273-0.05973-1.2471 0.06171-0.29935 0.11946-0.74201 0.46108-0.97166 0.81706-0.2633 0.40795-0.29323 0.82754-0.29323 0.82754l-0.0088 5.2031-1.9862 6e-6v-8.7383l1.9862 0.01413v0.28503s0.27712-0.17599 0.65693-0.3057c0.39198-0.13379 0.89226-0.22166 1.2385-0.23128 0.37687-0.01047 0.96932 0.05923 1.4347 0.23893 0.65506 0.25288 1.141 0.6441 1.141 0.6441z"/></g><path d="m-56.49-5.0912c-0.60329 11.612-9.8818 20.828-21.522 21.329v1.0778c12.22-0.50505 21.993-10.214 22.6-22.407zm6.4851 0c-0.65572 15.182-12.796 27.256-28.007 27.804v1.369c15.939-0.54693 28.724-13.262 29.38-29.173zm7.3207 0c-0.57115 19.271-16.03 34.664-35.327 35.133v1.4643c20.084-0.47139 36.218-16.539 36.792-36.597zm-31.567 0.026624c-0.31004 1.8608-1.7978 3.3085-3.6784 3.5556v0.42083c2.1064-0.25318 3.781-1.8892 4.0992-3.9764zm3.2722 0c-0.52199 3.5831-3.4059 6.3785-7.0321 6.7659v0.58143c3.9388-0.39367 7.0824-3.451 7.6136-7.3473zm4.5707 0c-0.8258 5.8487-5.6284 10.381-11.603 10.797v0.82362c6.4178-0.42128 11.593-5.3269 12.431-11.621zm4.2461 0c-0.6024 8.4416-7.3689 15.124-15.85 15.586v0.99368c9.0156-0.46648 16.238-7.6029 16.845-16.58z" color="#000000" stroke-linecap="square" stroke-width=".5863" style="-inkscape-stroke:none;paint-order:stroke fill markers"/><path d="m-79.654-11.183c-2.3838 0-4.3689 1.9842-4.3689 4.368v53.856c0 2.3838 1.9851 4.3689 4.3689 4.3689h87.1c2.3838 0 4.3689-1.9851 4.3689-4.3689v-53.856c0-2.3838-1.9851-4.368-4.3689-4.368zm0 2.0818h87.101c1.2668 0 2.2862 1.0195 2.2862 2.2862v53.857c0 1.2668-1.0195 2.2862-2.2862 2.2862h-87.101c-1.2668 0-2.2871-1.0195-2.2871-2.2862v-53.857c0-1.2668 1.0203-2.2862 2.2871-2.2862z" color="#000000" stroke-linecap="square" stroke-width=".5863" style="-inkscape-stroke:none;paint-order:stroke fill markers"/></g></g></svg>