<svg width="99.823" height="80.043" version="1.1" viewBox="0 0 99.823 80.043" xmlns="http://www.w3.org/2000/svg"><defs><clipPath id="a"><path d="m0 0h226.6v179.82h-226.6z"/></clipPath></defs><g transform="matrix(1.3333 0 0 -1.3333 -231.69 780.33)"><g transform="matrix(1.125 0 0 .89375 169.88 522.97)"><g transform="scale(.31774 .40041)"><g clip-path="url(#a)"><path transform="scale(1,-1)" d="m26.888-173.93h177.41c8.8167 0 15.915 7.0979 15.915 15.915v135.71c0 8.8167-7.0979 15.915-15.915 15.915h-177.41c-8.8167 0-15.915-7.0979-15.915-15.915v-135.71c0-8.8167 7.0979-15.915 15.915-15.915z" fill="#fff" fill-rule="evenodd" opacity=".99988" stroke="#000" stroke-linecap="round" stroke-linejoin="round" stroke-miterlimit=".1" stroke-width=".2097" style="mix-blend-mode:normal"/><g><path d="m144.09 32.584v35.28"/><path d="m150.11 32.584v42.692"/><path d="m25.105 92.553v-4.181h180.38z" fill-rule="evenodd"/><path d="m25.105 92.553h180.38v-4.181z" fill-rule="evenodd"/><g transform="matrix(.5334 0 0 -.46433 99.172 .73951)" stroke-width="4.2136" aria-label="1"><path d="m94.561-69.66h-11.286v-75.98h-5.0619v-10.139c4.3512-1.2375 5.7725-2.4325 8.1553-5.8234l8.1928 4e-5z" stroke-width="4.2136"/></g><path transform="scale(1,-1)" d="m26.188-170.21c-6.2747 0-11.393 5.116-11.393 11.391v137.29c0 6.2747 5.1179 11.393 11.393 11.393h178.49c6.2747 0 11.393-5.1179 11.393-11.393v-137.29c0-6.2747-5.1179-11.391-11.393-11.391zm0 4.1934h178.49c4.0238 0 7.1973 3.1735 7.1973 7.1973v137.29c0 4.0238-3.1735 7.1973-7.1973 7.1973h-178.49c-4.0238 0-7.1973-3.1735-7.1973-7.1973v-137.29c0-4.0238 3.1735-7.1973 7.1973-7.1973z" color="#000000" color-rendering="auto" dominant-baseline="auto" enable-background="accumulate" fill-rule="evenodd" image-rendering="auto" opacity=".99988" shape-rendering="auto" solid-color="#000000" stop-color="#000000" style="font-feature-settings:normal;font-variant-alternates:normal;font-variant-caps:normal;font-variant-east-asian:normal;font-variant-ligatures:normal;font-variant-numeric:normal;font-variant-position:normal;font-variation-settings:normal;inline-size:0;isolation:auto;mix-blend-mode:normal;shape-margin:0;shape-padding:0;text-decoration-color:#000000;text-decoration-line:none;text-decoration-style:solid;text-indent:0;text-orientation:mixed;text-transform:none;white-space:normal"/><g transform="matrix(.5334 0 0 -.46433 110.77 72.907)" stroke-width="4.2136" aria-label="1"><path d="m94.561-69.66h-11.286v-75.98h-5.0619v-10.139c4.3512-1.2375 5.7725-2.4325 8.1553-5.8234l8.1928 4e-5z" stroke-width="4.2136"/></g><g stroke-width="2.097"><path d="m198.88 116.85-2.6716-0.0112v-11.775h-6.049v11.787l-14.789-6e-4v4.0538l14.789 26.933h6.049v-24.924l2.6716-0.015zm-8.7206 6.1659v12.228l-6.7548-12.285z"/><path d="m80.428 33.171c-3.9356 0-7.283 1.4893-9.4175 5.1328-0.89398 1.5675-1.3499 3.4843-1.7985 5.699-0.60588 2.9908-1.041 6.525-1.041 10.477 0 2.7411 0.17508 5.2332 0.5254 7.4762 0.50763 3.2507 0.90561 6.0728 2.1489 8.2771 2.1345 3.7254 5.6471 5.4936 9.5827 5.4936 4.0023 0 7.4136-1.7682 9.4814-5.4936 0.47225-0.83732 0.842-1.7559 1.1008-2.7711 0.18031-0.70742 0.34787-1.4852 0.4686-2.2377 0.57103-3.5585 1.2062-6.5912 1.2062-10.745 0-3.4325-0.44865-6.5348-0.91525-9.2394-0.46834-2.7146-0.95657-5.0286-2.0091-6.8742-0.83832-1.4771-2.0083-2.502-3.2091-3.3274-1.761-1.2106-3.7439-1.8672-6.1237-1.8672zm-0.19925 36.541c-1.5573 0-3.1264-0.91335-4.0607-2.2801-0.46644-0.6823-0.65733-1.5249-0.84296-2.3295-0.78998-3.4247-1.0846-6.1859-1.1179-10.484 0-3.1364 0.26817-5.6275 0.58733-7.6727 0.17247-1.1048 0.29659-1.9899 0.56904-2.9554 0.27961-0.99192 0.48313-2.0935 1.088-2.894 0.97247-1.287 2.6313-2.0078 4.1118-1.9826 1.6562 0.05358 3.0635 0.85314 3.9223 2.2101 0.45563 0.7199 0.65054 1.7029 0.89761 2.579 0.19697 0.69841 0.309 1.3491 0.46402 2.1269 0.4491 2.2518 0.69202 5.0895 0.74161 8.5887-0.06661 4.5851-0.40092 6.9117-1.2204 10.255-0.25087 1.023-0.50137 2.2554-1.1198 2.9547-1.0145 1.1473-2.5488 1.7823-4.0201 1.8841z"/><path d="m115.68 33.171c-3.9356 0-7.283 1.4893-9.4175 5.1328-0.89398 1.5675-1.3499 3.4843-1.7985 5.699-0.60589 2.9908-1.041 6.525-1.041 10.477 0 2.7411 0.17508 5.2332 0.52541 7.4762 0.50763 3.2507 0.90561 6.0728 2.1489 8.2771 2.1345 3.7254 5.6471 5.4936 9.5827 5.4936 4.0023 0 7.4136-1.7682 9.4814-5.4936 0.47225-0.83732 0.842-1.7559 1.1008-2.7711 0.18031-0.70742 0.34787-1.4852 0.4686-2.2377 0.57103-3.5585 1.2062-6.5912 1.2062-10.745 0-3.4325-0.44865-6.5348-0.91525-9.2394-0.46834-2.7146-0.95657-5.0286-2.0091-6.8742-0.83832-1.4771-2.0083-2.502-3.2091-3.3274-1.761-1.2106-3.7439-1.8672-6.1236-1.8672zm-0.19925 36.541c-1.5572 0-3.1264-0.91335-4.0606-2.2801-0.46644-0.6823-0.65733-1.5249-0.84296-2.3295-0.78998-3.4247-1.0846-6.1859-1.1179-10.484 0-3.1364 0.26817-5.6275 0.58733-7.6727 0.17246-1.1048 0.29658-1.9899 0.56903-2.9554 0.27961-0.99192 0.48314-2.0935 1.088-2.894 0.97247-1.287 2.6313-2.0078 4.1118-1.9826 1.6562 0.05358 3.0635 0.85314 3.9223 2.2101 0.45563 0.7199 0.65053 1.7029 0.89761 2.579 0.19696 0.69841 0.309 1.3491 0.46402 2.1269 0.4491 2.2518 0.69202 5.0895 0.74161 8.5887-0.0666 4.5851-0.40092 6.9117-1.2204 10.255-0.25087 1.023-0.50137 2.2554-1.1198 2.9547-1.0146 1.1473-2.5488 1.7823-4.0201 1.8841z"/></g><path transform="scale(1,-1)" d="m25.105-92.553h180.38v4.181h-180.38z" fill-rule="evenodd" opacity=".99988"/><path d="m114.55 105.18c-3.9356 0-7.283 1.4893-9.4175 5.1328-0.89398 1.5676-1.3499 3.4843-1.7985 5.699-0.6059 2.9908-1.041 6.525-1.041 10.477 0 2.7412 0.17509 5.2332 0.52541 7.4762 0.50764 3.2507 0.90562 6.0728 2.1489 8.2771 2.1345 3.7254 5.6471 5.4936 9.5827 5.4936 4.0023 0 7.4135-1.7682 9.4814-5.4936 0.47225-0.83732 0.842-1.7559 1.1008-2.7711 0.18031-0.70742 0.34787-1.4852 0.4686-2.2377 0.57103-3.5585 1.2062-6.5912 1.2062-10.745 0-3.4325-0.44865-6.5348-0.91525-9.2394-0.46834-2.7146-0.95657-5.0286-2.0091-6.8742-0.83832-1.4771-2.0083-2.502-3.2091-3.3274-1.761-1.2106-3.7439-1.8672-6.1236-1.8672zm-0.19925 36.541c-1.5572 0-3.1264-0.91335-4.0606-2.2801-0.46644-0.6823-0.65733-1.5249-0.84296-2.3295-0.78998-3.4246-1.0846-6.1859-1.1179-10.484 0-3.1364 0.26817-5.6275 0.58733-7.6727 0.17246-1.1048 0.29658-1.9898 0.56903-2.9554 0.27961-0.99193 0.48314-2.0935 1.088-2.894 0.97247-1.287 2.6313-2.0078 4.1118-1.9826 1.6562 0.0536 3.0635 0.85314 3.9223 2.2101 0.45563 0.7199 0.65053 1.7029 0.89761 2.579 0.19696 0.6984 0.309 1.3491 0.46402 2.1269 0.4491 2.2518 0.69202 5.0895 0.74161 8.5886-0.0666 4.5851-0.40092 6.9117-1.2204 10.255-0.25087 1.023-0.50137 2.2554-1.1198 2.9547-1.0146 1.1473-2.5488 1.7823-4.02 1.8841z" stroke-width="2.097"/><path transform="scale(1,-1)" d="m135.89-128.61h10.49v3.88h-10.49z" fill-rule="evenodd" opacity=".99988"/></g></g></g></g><path d="m202.67 566.34c-8e-3 -1.4761-0.36483-2.9786-1.3926-4.2031-1.0153-1.2245-2.468-1.7382-4.0599-1.7382-1.1155 0-2.3281 0.76248-3.0618 1.4007l1.5274 1.5686c0.5891-0.36284 1.1719-0.76669 1.8863-0.76669 0.64326-0.021 1.2933 0.25196 1.8082 0.72448 0.2275 0.20881 0.43897 0.46834 0.57008 0.75533 0.32528 0.71196 0.49114 1.4501 0.49114 2.2967 0.0124 0.72565 0.0814 1.3454-0.3447 1.8443-0.41364 0.49888-0.9537 0.90353-1.5929 0.90353-0.81472 0.0151-1.6421-0.43854-1.9526-1.547l-2.0485 0.24008 0.33541 8.0454h7.2116v-2.1912h-5.1242l-0.10481-2.6798s0.29722 0.12884 0.68581 0.21799c0.34728 0.0796 0.77046 0.12073 1.0722 0.12073 0.65744-0.0168 1.2349-0.20024 1.7619-0.4688 0.42755-0.21787 0.89431-0.49406 1.179-0.89808 0.26787-0.38017 0.57175-0.7778 0.75212-1.2179 0.31126-0.75945 0.40574-1.6042 0.40092-2.407z" stroke-width=".75001"/><g transform="matrix(.63569 0 0 -.74651 73.176 141.17)" stroke-width="1.0887" aria-label="6"><path d="m184.61-567.88c0 1.74-0.73151 3.2166-2.0515 4.3966-0.62795 0.56998-1.3852 0.95286-2.1522 1.2207-0.82089 0.2867-1.6624 0.43826-2.6653 0.43826-1.94 0-3.4286-0.70662-4.7486-1.9466-1.3-1.24-1.649-2.4615-1.649-4.2615 0-1.3559 0.12864-2.699 0.47241-4.0232 0.36106-1.3908 0.95466-2.7607 1.6821-4.1028 1.42-2.64 3.7592-4.6534 5.8576-6.1602l2.121 2.2723c-1.7995 1.1984-4.0548 3.435-5.1834 5.6184 0.76304-0.18468 1.2528-0.17088 2.1128-0.17088 1.86 0 3.4586 0.97472 4.7986 2.1747 0.37451 0.33045 0.56638 0.75103 0.76802 1.1425 0.53059 1.0301 0.63739 2.1842 0.63739 3.4015zm-3.449-4e-3c0-0.45227 0.0454-1.0788-0.0971-1.668-0.10321-0.42692-0.32911-0.83234-0.62646-1.1465-0.57537-0.60794-1.5008-0.97571-2.5008-0.97571-1.14-0.02-2.0016 0.44832-2.5801 1.1032-0.25737 0.29136-0.46148 0.63232-0.54812 1.0022-0.14219 0.60701-0.0616 1.2785-0.074 1.8378 0 0.82 0.29116 1.5931 0.99116 2.1731s1.3139 0.79936 2.3139 0.79936c0.98 0 1.8366-0.46139 2.412-1.0549 0.53748-0.55442 0.70947-1.2705 0.70947-2.0705z" stroke-width="1.0887"/></g></g></svg>