<svg width="100.34mm" height="68.125mm" version="1.1" viewBox="0 0 100.34 68.125" xmlns="http://www.w3.org/2000/svg"><defs><clipPath><path d="m0 0h266.48v167.56h-266.48z"/></clipPath></defs><g transform="translate(245.04 13.405)"><g transform="matrix(13.477 0 0 -8.4749 -545.32 295.11)" fill="#0000d6" fill-opacity=".82353" stroke-miterlimit="10" stroke-width=".046786"><g transform="matrix(.27019 0 0 .42969 6.7086 .29524)" fill="#0000d6" fill-opacity=".82353" stroke-miterlimit="10" stroke-width=".13731"></g></g><g fill-rule="evenodd"><path d="m-238.94-13.305h87.887c3.4347 0 6.2544 2.6677 6.2544 6.0897v55.993c0 3.422-2.4338 5.8431-5.8684 5.8431l-88.425-3.66e-4c-3.4347-2e-5 -5.849-2.7927-5.849-6.2146v-55.67c0-3.422 2.5662-6.0397 6.001-6.0397z" fill="#fff" opacity=".99988" stroke="#000" stroke-linecap="round" stroke-linejoin="round" stroke-miterlimit="10" stroke-width=".2"/><path d="m-238.8-11.604c-2.4529 0-4.459 2.0055-4.459 4.4578v55.605c0 2.4523 2.0061 4.4578 4.459 4.4578h87.838c2.4529 0 4.459-2.0055 4.459-4.4578v-55.605c0-2.4523-2.006-4.4578-4.459-4.4578zm0 1.9995h87.838c1.3795 0 2.459 1.0792 2.459 2.4583v55.605c0 1.3792-1.0794 2.4583-2.459 2.4583h-87.838c-1.3795 0-2.459-1.0792-2.459-2.4583v-55.605c0-1.3791 1.0794-2.4583 2.459-2.4583z" color="#000000" color-rendering="auto" dominant-baseline="auto" enable-background="accumulate" image-rendering="auto" opacity=".99988" shape-rendering="auto" solid-color="#000000" stop-color="#000000" style="font-feature-settings:normal;font-variant-alternates:normal;font-variant-caps:normal;font-variant-east-asian:normal;font-variant-ligatures:normal;font-variant-numeric:normal;font-variant-position:normal;font-variation-settings:normal;inline-size:0;isolation:auto;mix-blend-mode:normal;shape-margin:0;shape-padding:0;text-decoration-color:#000000;text-decoration-line:none;text-decoration-style:solid;text-indent:0;text-orientation:mixed;text-transform:none;white-space:normal"/><path d="m-234.47 45.599 0.0251-18.525s-0.10094-3.1502 0.90984-6.5997c0.81171-2.7693 2.5543-5.7389 4.0286-7.3707 1.8354-2.0315 4.9844-4.5177 8.2595-5.7867 3.4367-1.3316 6.9599-1.3963 6.9599-1.3963h34.287l-4.8264-8.1587 30.504 15.057-30.98 15.51 5.1596-8.6109-34.113 0.0055s-0.92445 0.0412-1.922 0.4231c-1.0441 0.39989-2.1761 1.1555-2.7764 1.8083-0.57248 0.62249-1.2037 1.7169-1.502 2.7426-0.28724 0.9874-0.25209 1.9187-0.25209 1.9187v18.983z" opacity=".99988"/></g></g></svg>