<svg width="100.34mm" height="50.663mm" version="1.1" viewBox="0 0 100.34 50.663" xmlns="http://www.w3.org/2000/svg"><defs><clipPath><path d="m0 0h266.48v167.56h-266.48z"/></clipPath></defs><g transform="translate(245.04 -4.0577)"><g transform="matrix(13.477 0 0 -8.4749 -545.32 295.11)" fill="#0000d6" fill-opacity=".82353" stroke-miterlimit="10" stroke-width=".046786"><g transform="matrix(.27019 0 0 .42969 6.7086 .29524)" fill="#0000d6" fill-opacity=".82353" stroke-miterlimit="10" stroke-width=".13731"></g></g><g fill-rule="evenodd"><path d="m-238.94 4.1577h87.887c3.4347 0 6.2544 2.6677 6.2544 6.0897v38.53c0 3.422-2.4338 5.8431-5.8684 5.8431l-88.425-3.66e-4c-3.4347-2e-5 -5.849-2.7927-5.849-6.2146v-38.208c0-3.6174 3.3766-6.0398 6.001-6.0398z" fill="#fff" opacity=".99988" stroke="#000" stroke-linecap="round" stroke-linejoin="round" stroke-miterlimit="10" stroke-width=".2"/><path d="m-238.8 5.858c-2.4529 0-4.459 2.0055-4.459 4.4578v38.143c0 2.4523 2.0061 4.4578 4.459 4.4578h87.838c2.4529 0 4.459-2.0055 4.459-4.4578v-38.143c0-2.4523-2.006-4.4578-4.459-4.4578zm0 1.9995h87.838c1.3795 0 2.459 1.0792 2.459 2.4583v38.143c0 1.3792-1.0794 2.4583-2.459 2.4583h-87.838c-1.3795 0-2.459-1.0792-2.459-2.4583v-38.143c0-1.3791 1.0794-2.4583 2.459-2.4583z" color="#000000" color-rendering="auto" dominant-baseline="auto" enable-background="accumulate" image-rendering="auto" opacity=".99988" shape-rendering="auto" solid-color="#000000" stop-color="#000000" style="font-feature-settings:normal;font-variant-alternates:normal;font-variant-caps:normal;font-variant-east-asian:normal;font-variant-ligatures:normal;font-variant-numeric:normal;font-variant-position:normal;font-variation-settings:normal;inline-size:0;isolation:auto;mix-blend-mode:normal;shape-margin:0;shape-padding:0;text-decoration-color:#000000;text-decoration-line:none;text-decoration-style:solid;text-indent:0;text-orientation:mixed;text-transform:none;white-space:normal"/><path d="m-235.43 22.401h55.476l-5.1437-8.4043 30.194 15.137-30.194 15.161 5.0323-8.4275h-55.364z" opacity=".99988"/></g></g></svg>