<svg width="100.34mm" height="66.57mm" version="1.1" viewBox="0 0 100.34 66.57" xmlns="http://www.w3.org/2000/svg"><defs><clipPath><path d="m0 0h266.48v167.56h-266.48z"/></clipPath></defs><g transform="translate(242.45 12.299)"><path d="m-236.35-12.199h87.887c3.4347 0 6.2544 2.6684 6.2544 6.0913v54.434c0 3.4229-2.4337 5.8447-5.8684 5.8447l-88.425-4.97e-4c-3.4347-1.9e-5 -5.849-2.7934-5.849-6.2164v-54.112c0-3.4229 2.5663-6.0413 6.001-6.0413z" fill="#fff" fill-rule="evenodd" opacity=".99988" stroke="#000" stroke-linecap="round" stroke-linejoin="round" stroke-miterlimit="10" stroke-width=".2"/><g transform="matrix(13.477 0 0 -8.4749 -545.32 295.11)" fill="#0000d6" fill-opacity=".82353" stroke-miterlimit="10" stroke-width=".046786"><g transform="matrix(.27019 0 0 .42969 6.7086 .29524)" fill="#0000d6" fill-opacity=".82353" stroke-miterlimit="10" stroke-width=".13731"></g></g><g fill-rule="evenodd"><path d="m-236.21-10.498c-2.4529 0-4.459 2.0061-4.459 4.459v54.047c0 2.4529 2.006 4.459 4.459 4.459h87.838c2.4529 0 4.459-2.0061 4.459-4.459v-54.047c0-2.4529-2.006-4.459-4.459-4.459zm0 2h87.838c1.3795 0 2.459 1.0795 2.459 2.459v54.047c0 1.3795-1.0795 2.459-2.459 2.459h-87.838c-1.3795 0-2.459-1.0795-2.459-2.459v-54.047c0-1.3795 1.0795-2.459 2.459-2.459z" color="#000000" color-rendering="auto" dominant-baseline="auto" enable-background="accumulate" image-rendering="auto" opacity=".99988" shape-rendering="auto" solid-color="#000000" stop-color="#000000" style="font-feature-settings:normal;font-variant-alternates:normal;font-variant-caps:normal;font-variant-east-asian:normal;font-variant-ligatures:normal;font-variant-numeric:normal;font-variant-position:normal;font-variation-settings:normal;inline-size:0;isolation:auto;mix-blend-mode:normal;shape-margin:0;shape-padding:0;text-decoration-color:#000000;text-decoration-line:none;text-decoration-style:solid;text-indent:0;text-orientation:mixed;text-transform:none;white-space:normal"/><path d="m-192.09 8.8163 10.3 8.1583 12.71 0.90342 1.5661 4.6999-2.6209 5.1936-5.2702 0.81942s-0.0529-2.0469-1.2198-3.5356c-0.57582-0.73461-1.3782-1.3442-2.2735-1.712-0.7403-0.30419-1.5718-0.43159-2.1443-0.43378-0.61152-0.0023-1.4444 0.09366-2.2175 0.42936-0.91804 0.39862-1.773 1.0993-2.3639 1.8673-1.0851 1.4102-1.1058 3.3484-1.1058 3.3484h-24.155s-0.0728-2.0282-1.2171-3.5003c-0.5009-0.64441-1.2387-1.2505-2.0084-1.6136-0.81832-0.386-1.6726-0.50891-2.3165-0.51493-0.61582-0.0058-1.4979 0.04823-2.2989 0.4004-0.9153 0.40241-1.7466 1.1506-2.3308 1.8902-1.1319 1.4329-1.1232 3.3382-1.1232 3.3382l-7.138-0.54186-1.4153-5.6156 0.81254-5.4225h10.332l8.2516-8.1583zm-8.3738 1.7596h-6.4156l-4.3068 6.3986h10.722zm1.5662 6.3986h14.367l-7.8612-6.3986h-6.506z" opacity=".99988"/><path d="m-181.09 23.794c2.6204-4e-6 4.7658 2.1496 4.7658 4.7588 0 2.6092-2.1454 4.76-4.7658 4.76-2.6204-6e-6 -4.767-2.1509-4.767-4.76 0-2.6092 2.1466-4.7588 4.767-4.7588zm0 2.6408c-1.1773 5e-6 -2.111 0.92855-2.111 2.118 0 1.1894 0.93363 2.1192 2.111 2.1192 1.1773 4e-6 2.1098-0.92976 2.1098-2.1192 0-1.1894-0.93244-2.118-2.1098-2.118z" color="#000000" color-rendering="auto" dominant-baseline="auto" enable-background="accumulate" image-rendering="auto" opacity=".99988" shape-rendering="auto" solid-color="#000000" stop-color="#000000" style="font-feature-settings:normal;font-variant-alternates:normal;font-variant-caps:normal;font-variant-east-asian:normal;font-variant-ligatures:normal;font-variant-numeric:normal;font-variant-position:normal;font-variation-settings:normal;inline-size:0;isolation:auto;mix-blend-mode:normal;shape-margin:0;shape-padding:0;text-decoration-color:#000000;text-decoration-line:none;text-decoration-style:solid;text-indent:0;text-orientation:mixed;text-transform:none;white-space:normal"/><path d="m-216.52 23.794c2.6204-4e-6 4.7658 2.1496 4.7658 4.7588 0 2.6092-2.1454 4.76-4.7658 4.76-2.6204-6e-6 -4.767-2.1509-4.767-4.76 0-2.6092 2.1466-4.7588 4.767-4.7588zm0 2.6408c-1.1773 5e-6 -2.111 0.92855-2.111 2.118 0 1.1894 0.93363 2.1192 2.111 2.1192 1.1773 4e-6 2.1098-0.92976 2.1098-2.1192 0-1.1894-0.93244-2.118-2.1098-2.118z" color="#000000" color-rendering="auto" dominant-baseline="auto" enable-background="accumulate" image-rendering="auto" opacity=".99988" shape-rendering="auto" solid-color="#000000" stop-color="#000000" style="font-feature-settings:normal;font-variant-alternates:normal;font-variant-caps:normal;font-variant-east-asian:normal;font-variant-ligatures:normal;font-variant-numeric:normal;font-variant-position:normal;font-variation-settings:normal;inline-size:0;isolation:auto;mix-blend-mode:normal;shape-margin:0;shape-padding:0;text-decoration-color:#000000;text-decoration-line:none;text-decoration-style:solid;text-indent:0;text-orientation:mixed;text-transform:none;white-space:normal"/><path d="m-165.66 18.806 16.626-2.9082 0.0973 0.53717-16.386 2.8811 12.416-0.25081 9e-3 0.54829-12.445 0.23525 16.518 2.2265-0.0693 0.54273-16.544-2.2182 12.228 3.6056-0.15886 0.52421-12.283-3.6287 15.14 7.1259-0.23187 0.49643-15.116-7.135 10.795 7.3018-0.31222 0.45382-10.772-7.2638 12.214 11.309-0.37788 0.40193-12.346-11.433s0.24289-0.22023 0.47586-0.5647c0.2103-0.31092 0.40819-0.73273 0.4901-1.0137 0.0689-0.23639 0.12902-0.593 0.12535-0.91765-5e-3 -0.45515-0.0928-0.85671-0.0928-0.85671z" opacity=".99988"/></g></g></svg>