<svg width="94.142mm" height="66.57mm" version="1.1" viewBox="0 0 94.142 66.57" xmlns="http://www.w3.org/2000/svg"><defs><clipPath><path d="m0 0h266.48v167.56h-266.48z"/></clipPath></defs><g transform="translate(242.45 12.299)"><path d="m-236.35-12.199h81.687c3.4347 0 6.2544 2.6684 6.2544 6.0913v54.434c0 3.4229-2.4337 5.8447-5.8684 5.8447l-82.225-4.97e-4c-3.4347-2.1e-5 -5.849-2.7934-5.849-6.2164v-54.112c0-3.4229 2.5663-6.0413 6.001-6.0413z" fill="#fff" fill-rule="evenodd" opacity=".99988" stroke="#000" stroke-linecap="round" stroke-linejoin="round" stroke-miterlimit="10" stroke-opacity=".90588" stroke-width=".2"/><g transform="matrix(13.477 0 0 -8.4749 -545.32 295.11)" fill="#0000d6" fill-opacity=".82353" stroke-miterlimit="10" stroke-width=".046786"><g transform="matrix(.27019 0 0 .42969 6.7086 .29524)" fill="#0000d6" fill-opacity=".82353" stroke-miterlimit="10" stroke-width=".13731"></g></g><path d="m-236.21-10.498c-2.4529 0-4.459 2.0061-4.459 4.459v54.047c0 2.4529 2.006 4.459 4.459 4.459h81.638c2.4529 0 4.459-2.0061 4.459-4.459v-54.047c0-2.4529-2.006-4.459-4.459-4.459zm0 2h81.638c1.3795 0 2.459 1.0795 2.459 2.459v54.047c0 1.3795-1.0795 2.459-2.459 2.459h-81.638c-1.3795 0-2.459-1.0795-2.459-2.459v-54.047c0-1.3795 1.0795-2.459 2.459-2.459z" color="#000000" color-rendering="auto" dominant-baseline="auto" enable-background="accumulate" fill-rule="evenodd" image-rendering="auto" opacity=".99988" shape-rendering="auto" solid-color="#000000" stop-color="#000000" style="font-feature-settings:normal;font-variant-alternates:normal;font-variant-caps:normal;font-variant-east-asian:normal;font-variant-ligatures:normal;font-variant-numeric:normal;font-variant-position:normal;font-variation-settings:normal;inline-size:0;isolation:auto;mix-blend-mode:normal;shape-margin:0;shape-padding:0;text-decoration-color:#000000;text-decoration-line:none;text-decoration-style:solid;text-indent:0;text-orientation:mixed;text-transform:none;white-space:normal"/><path transform="matrix(.26458 0 0 .26458 -242.45 -12.299)" d="m231.81 34.875c-6.1808 0.04366-10.005 0.75347-9.9199 0.75586-34.028 78.821-0.34935 150.01 8e-3 150.37 44.786 4.8632 71.875-30.217 72.234-30.217 33.673-43.419 5.2012-84.379 5.2012-85.076-20.465-31.685-51.702-35.942-67.524-35.83zm-26.24 10.131-162.17 97.58 9.7285 7.623 148.62-88.875zm-9.377 39.578-127.79 75.361 11.803 7.6426 115.98-67.381zm0 33.695-101.74 59.025 13.197 7.2969 90.291-51.752zm3.4609 31.252-77.078 44.436 12.502 8.0039 66.67-37.859zm6.25 29.508-54.846 32.289 12.102 8.2422 47.238-27.559z"/></g></svg>