<svg width="100mm" height="66.602mm" version="1.1" viewBox="0 0 100 66.602" xmlns="http://www.w3.org/2000/svg"><defs><clipPath id="a"><path d="m0 0h266.48v167.56h-266.48z"/></clipPath></defs><g transform="translate(343.33 12.946)"><path d="m-336.43-12.846h86.068c3.4347 0 6.9268 3.4801 6.9268 6.903v52.596c0 3.4229-3.492 6.903-6.9268 6.903h-85.946c-3.4347 0-6.9268-3.4801-6.9268-6.903v-52.596c0-3.4229 3.3709-6.903 6.8056-6.903z" fill="#fff" fill-rule="evenodd" opacity=".99988" stroke="#000" stroke-linecap="round" stroke-linejoin="round" stroke-miterlimit="10" stroke-width=".2"/><g><path d="m-262.29 41.405-2.0197 8e-6 2e-5 -4.6314s-0.13151-0.89681-0.40765-1.2291c-0.20442-0.24594-0.44002-0.51718-0.73999-0.71484-0.43368-0.28574-0.95477-0.44898-1.3162-0.42175-0.17097 0.01286-0.35695 8e-3 -0.53096 0.04178-0.43675 0.08551-0.85286 0.27488-1.1696 0.56557-0.2549 0.23397-0.56477 0.65226-0.71559 1.0651-0.14986 0.41016-0.14152 0.81555-0.14152 0.81555v4.5092h-2.0029v-4.6315s-0.0227-0.37016-0.16734-0.76315c-0.11048-0.30003-0.31772-0.61338-0.4893-0.78549-0.22789-0.22863-0.49244-0.44691-0.79658-0.59051-0.35121-0.1658-0.75004-0.23931-1.1234-0.23308-0.42642 0.0068-0.87183 0.14158-1.2476 0.37558-0.20532 0.12787-0.37914 0.29849-0.54251 0.46408-0.17784 0.18019-0.37056 0.50204-0.48473 0.80498-0.12083 0.32036-0.15788 0.61729-0.15788 0.61729l-0.0117 4.7418h-1.9894v-8.7606h1.9894v0.52321s0.39433-0.28762 0.9362-0.48938c0.54436-0.20267 1.2373-0.31941 1.6934-0.27978 0.53468 0.04654 1.3679 0.17953 1.9883 0.52009 0.8354 0.45858 1.3982 1.1494 1.3982 1.1494s0.30731-0.34238 0.48228-0.49078c0.28995-0.24594 0.65779-0.51697 0.9333-0.65624 0.62068-0.31374 1.3238-0.52725 2.0197-0.52724 0.79146 0 1.6 0.22572 2.2968 0.59961 0.58259 0.31256 1.0826 0.79205 1.4771 1.3214 0.30776 0.41305 0.52262 0.89695 0.65715 1.3976 0.12466 0.46359 0.14502 0.85546 0.14502 0.85546z" stroke-width=".26458"/><g transform="matrix(13.477 0 0 -8.4749 -545.32 295.11)" stroke-miterlimit="10" stroke-width=".046786"><g transform="scale(.27019 .42969)" stroke-miterlimit="10" stroke-width=".13731"><g clip-path="url(#a)" stroke-miterlimit="10" stroke-width=".13731"><path d="m57.659 84.079c-0.92146 0-1.6719-0.74712-1.6719-1.6645v-13.926c0-0.91736 0.75046-1.6647 1.6719-1.6647h23.078c0.92146 0 1.6719 0.74734 1.6719 1.6647v13.926c0 0.91736-0.75046 1.6645-1.6719 1.6645zm0-0.55733h23.078c0.62097 0 1.1121-0.48894 1.1121-1.1072v-13.926c0-0.61821-0.49113-1.1074-1.1121-1.1074h-23.078c-0.62097 0-1.1121 0.48916-1.1121 1.1074v13.926c0 0.61821 0.49113 1.1072 1.1121 1.1072z" color="#000000" color-rendering="auto" dominant-baseline="auto" enable-background="accumulate" fill-rule="evenodd" image-rendering="auto" opacity=".99988" shape-rendering="auto" solid-color="#000000" stop-color="#000000" style="font-feature-settings:normal;font-variant-alternates:normal;font-variant-caps:normal;font-variant-east-asian:normal;font-variant-ligatures:normal;font-variant-numeric:normal;font-variant-position:normal;font-variation-settings:normal;inline-size:0;isolation:auto;mix-blend-mode:normal;shape-margin:0;shape-padding:0;text-decoration-color:#000000;text-decoration-line:none;text-decoration-style:solid;text-indent:0;text-orientation:mixed;text-transform:none;white-space:normal"/><path d="m61.584 76.646v4.5842l0.97683-0.0024c0.71609-0.0019 0.98866-5e-3 1.0211-0.01204 0.02432-0.0053 0.07874-0.01493 0.12084-0.02151 0.04208-0.0066 0.10735-0.02131 0.14501-0.03272 0.03763-0.01141 0.08568-0.0257 0.10672-0.03175 0.13936-0.04004 0.39853-0.17525 0.52135-0.27201 0.08407-0.06623 0.2664-0.24154 0.31253-0.3005 0.25441-0.32518 0.37416-0.63998 0.44472-1.1691 0.07866-0.58978-0.01-1.2894-0.2177-1.7189-0.09587-0.19821-0.20293-0.34504-0.36803-0.50475-0.16187-0.15658-0.27286-0.23534-0.4733-0.33585-0.09606-0.04817-0.20581-0.08947-0.32629-0.12278-0.04207-0.01164-0.08197-0.02329-0.08861-0.02589-0.0069-0.0026-0.01438-0.0043-0.01713-0.0038-0.0031 4.57e-4 -0.04622-7e-3 -0.09668-0.01659-0.09041-0.01728-0.90534-0.01772-0.90534-0.01772zm1.9738 0.83743c0.13385 0.03114 0.16106 0.04067 0.2578 0.09027 0.05536 0.0284 0.12427 0.06931 0.15307 0.09091 0.2087 0.15658 0.34521 0.38177 0.39793 0.65643 0.0069 0.03449 0.01744 0.08619 0.02401 0.11489 0.05183 0.2253 0.05598 0.66263 0.0088 0.94328-0.05098 0.30388-0.10795 0.45958-0.22653 0.61911-0.06181 0.08316-0.1288 0.14806-0.23653 0.22916-0.03969 0.02988-0.17799 0.09693-0.24974 0.12108-0.15231 0.05125-0.13019 0.04966-0.73112 0.05242l-0.54984 0.0025v-2.9398l0.54581 0.0028c0.48509 0.0025 0.55254 0.0044 0.60624 0.01689z"/><path d="m70.2 81.23v-2.6723c0-0.2317-0.03896-0.42935-0.13924-0.59291-0.19606-0.33166-0.49014-0.49751-0.88224-0.49751-0.38755 0-0.68162 0.16585-0.88224 0.49751-0.09574 0.16356-0.14362 0.36121-0.14362 0.59291v2.6723l-0.82061-0.0015v-2.7263c0-0.55882 0.17309-0.96417 0.5196-1.3276 0.34651-0.35892 0.78886-0.53824 1.3269-0.53824s0.98013 0.17932 1.3266 0.53824c0.34651 0.36346 0.51982 0.7688 0.51981 1.3276v2.7241z"/></g></g></g><g><path d="m-264.53 15.994h-3.5338l-3.9485-7.0267-2.93-8.462e-4v7.0376h-3.0404l-7e-3 -16.788h7.8038c0.45012 0 1.03-0.031119 1.572 0.062247 0.80044 0.13787 1.5723 0.47199 2.1614 0.96583 1.1482 0.96255 1.9241 2.0858 1.9241 4.0553 0 1.2579-0.58105 2.3053-1.3516 3.1509-0.68406 0.75071-1.8165 1.2892-2.6786 1.459zm-3.0175-11.873c0.01-0.31695-0.0843-0.65957-0.23755-0.94685-0.11415-0.214-0.29981-0.40002-0.48751-0.54081-0.21558-0.16168-0.42492-0.24856-0.6603-0.30977-0.18368-0.047776-0.3745-0.037352-0.56826-0.039989-0.27544-0.00307-0.55796-0.00471-0.8248-0.00471l-4.5982-0.00777 3e-3 3.6658 4.7729-0.022256c0.74321-0.00307 0.98638 0.04793 1.4374-0.11796 0.26372-0.096948 0.55661-0.33172 0.68406-0.49148 0.25194-0.31573 0.46371-0.80037 0.47758-1.1841z"/><g transform="matrix(.62448 0 0 .62233 -393.87 -375.38)" stroke-width=".42442" aria-label="1"><path d="m119.3 669.71-3.6094 1e-5 -6e-3 -13.174-0.1828-0.0951s-1.2327 0.68775-1.9043 0.88494c-0.7528 0.22103-2.332 0.31948-2.332 0.31948l4e-3 -3.6052s0.74079-0.0541 1.4868-0.31341c0.62301-0.21656 1.2311-0.60409 1.5901-0.95939 0.41341-0.40915 0.87672-1.1496 1.1117-1.8464 0.22707-0.67342 0.23274-1.3107 0.23274-1.3107l3.6094-1e-5z" stroke-width=".42442"/></g><g transform="matrix(.6149 0 0 .61279 -482.76 -368.78)" stroke-width=".43102" aria-label="5"><path d="m294.15 667.46c-0.61562 0.48821-1.33 0.84171-2.0686 1.13-0.65842 0.25703-1.2924 0.48418-2.0946 0.5918-0.7313 0.0981-1.6915 0.17179-2.531 0.0838-1.5781-0.16551-3.1474-0.55368-4.6214-1.1411-0.9204-0.36676-2.5848-1.4674-2.5848-1.4674l2.1522-2.9791s0.83719 0.641 2.0944 1.1554c0.95571 0.39105 2.2522 0.67622 3.0371 0.74134 1.3079 0.10853 2.9676-0.0377 3.8676-0.73772 0.29944-0.23955 0.60927-0.3563 0.83034-0.62841 0.44339-0.54576 0.66356-1.2982 0.66356-1.9922 0.0269-0.73849-0.3745-1.4471-0.85623-1.9215-0.23583-0.23226-0.46629-0.36147-0.72523-0.49987-0.38135-0.20384-0.77229-0.36325-1.2055-0.47909-0.63286-0.16921-1.301-0.28071-1.9197-0.23882-0.61402 0.0416-1.5162 0.1072-2.2888 0.30765-0.95333 0.24734-1.7268 0.63342-1.7268 0.63342l-3.0868-2.4774 0.80093-8.6844 13.057 0.0157v3.6765l-9.7112-0.018-0.29623 3.3164s0.53824-0.14692 1.2299-0.25761c0.75303-0.12051 1.6879-0.20629 2.308-0.22383 0.44654-0.0126 0.85341 0.0289 1.336 0.10535 0.88837 0.14068 1.8754 0.42405 2.6739 0.78692 0.4384 0.19923 0.86658 0.41303 1.2505 0.69621 0.59334 0.4376 1.1355 0.95484 1.5987 1.5284 0.19535 0.24191 0.34261 0.49941 0.48816 0.79487 0.52409 1.0639 0.87199 2.398 0.74891 3.5769-0.0588 0.56348-0.15906 1.1709-0.3633 1.7248-0.18239 0.49466-0.45643 0.93951-0.71931 1.3858-0.33946 0.57621-0.81368 1.0798-1.3377 1.4953z" stroke-width=".43102"/></g><path d="m-284.03 35.1c0 1.9089-0.6383 3.3728-1.5929 4.5522-0.94209 1.1672-2.2712 1.84-3.6262 1.831-0.60154-3e-3 -1.204-0.10872-1.7732-0.33609-0.84859-0.33894-1.623-0.93396-2.2095-1.7418-0.85418-1.1672-1.3988-2.5545-1.3988-4.2689 0-1.9454 0.62841-3.3102 1.583-4.4288 0.95466-1.1307 2.1403-1.8632 3.7984-1.8632 1.5576 0 2.6996 0.71789 3.6543 1.873 0.96721 1.1429 1.5648 2.5102 1.5648 4.3826zm-2.2725 0.03647c-0.0117-0.22978-0.01-0.46953-0.0482-0.70417-0.12233-0.73105-0.40742-1.4536-0.80681-2.0058-0.515-0.72951-1.1631-1.2948-2.1052-1.2948-0.95464 0-1.5779 0.4149-2.118 1.1444-0.54014 0.72952-0.95124 1.5716-0.95124 2.8604 0 1.301 0.33061 2.0783 0.87075 2.82 0.2739 0.36994 0.58328 0.70112 0.95609 0.91468 0.36242 0.20757 0.78535 0.3027 1.2559 0.3027 0.71826 0 1.0325-0.2426 1.457-0.5385 0.29152-0.20325 0.48301-0.52299 0.69183-0.8101 0.0938-0.12896 0.1748-0.26714 0.25036-0.40753 0.096-0.17851 0.19355-0.36499 0.2566-0.5511 0.1877-0.55405 0.31974-1.1719 0.29088-1.7301z" stroke-width=".26458"/></g></g></g></svg>