<svg width="100.34mm" height="65.704mm" version="1.1" viewBox="0 0 100.34 65.704" xmlns="http://www.w3.org/2000/svg"><defs><clipPath><path d="m0 0h266.48v167.56h-266.48z"/></clipPath><clipPath id="a"><path d="m0 0h295.41v211.13h-295.41z"/></clipPath></defs><g transform="translate(140.67 11.324)"><g transform="matrix(13.477 0 0 -8.4749 -545.32 295.11)" fill="#0000d6" fill-opacity=".82353" stroke-miterlimit="10" stroke-width=".046786"><g transform="matrix(.27019 0 0 .42969 6.7086 .29524)" fill="#0000d6" fill-opacity=".82353" stroke-miterlimit="10" stroke-width=".13731"></g></g><path d="m-134.64-11.224h88.03c3.3945 0 6.1812 2.6336 6.1812 6.0118v53.724c0 3.3782-2.4052 5.7684-5.7997 5.7684l-88.562-3.61e-4c-3.3945-1.7e-5 -5.7804-2.7569-5.7804-6.1352v-53.406c0-3.3782 2.5362-5.9625 5.9307-5.9625z" fill="#fff" fill-rule="evenodd" opacity=".99988" stroke="#000" stroke-linecap="round" stroke-linejoin="round" stroke-miterlimit="10" stroke-width=".2"/><g><path d="m-134.5-9.5458c-2.4242 0-4.4068 1.9799-4.4068 4.4008v53.341c0 2.4209 1.9825 4.4008 4.4068 4.4008h87.982c2.4242 0 4.4067-1.9799 4.4067-4.4008v-53.341c0-2.4209-1.9825-4.4008-4.4067-4.4008zm0 1.9739h87.982c1.3634 0 2.4302 1.0654 2.4302 2.4269v53.341c0 1.3615-1.0668 2.4269-2.4302 2.4269h-87.982c-1.3634 0-2.4302-1.0654-2.4302-2.4269v-53.341c0-1.3615 1.0668-2.4269 2.4302-2.4269z" color="#000000" color-rendering="auto" dominant-baseline="auto" enable-background="accumulate" fill-rule="evenodd" image-rendering="auto" opacity=".99988" shape-rendering="auto" solid-color="#000000" stop-color="#000000" style="font-feature-settings:normal;font-variant-alternates:normal;font-variant-caps:normal;font-variant-east-asian:normal;font-variant-ligatures:normal;font-variant-numeric:normal;font-variant-position:normal;font-variation-settings:normal;inline-size:0;isolation:auto;mix-blend-mode:normal;shape-margin:0;shape-padding:0;text-decoration-color:#000000;text-decoration-line:none;text-decoration-style:solid;text-indent:0;text-orientation:mixed;text-transform:none;white-space:normal"/><g transform="matrix(1.4045 0 0 -1.0037 -145.16 59.769)" stroke-width=".22528"><g transform="scale(.24373 .34102)" stroke-width=".22528"><g clip-path="url(#a)" stroke-width=".22528"><path transform="matrix(3.427 0 0 -3.4349 -386.64 870.43)" d="m170.36 221.96s0.0177 0.0264 0.0264 0.0397c1.0996 1.6594 1.7386 3.6535 1.7386 5.8045 0 5.8155-4.6755 10.488-10.484 10.488-5.8089 0-10.482-4.6728-10.482-10.488 0-0.69124 0.0712-1.3641 0.20016-2.0158 2e-3 -0.0115 7e-3 -0.0346 7e-3 -0.0346l-3.4739 4.9104s6e-3 0.0285 9e-3 0.0427c1.3434 6.3472 6.9983 11.138 13.74 11.138 7.7373 0 14.045-6.3103 14.045-14.041 0-4.2486-1.9126-8.058-4.9144-10.635-8e-3 -7e-3 -0.0232-0.0198-0.0232-0.0198z" color="#000000" color-rendering="auto" dominant-baseline="auto" enable-background="accumulate" fill-rule="evenodd" image-rendering="auto" opacity=".99988" shape-rendering="auto" solid-color="#000000" stop-color="#000000" style="font-feature-settings:normal;font-variant-alternates:normal;font-variant-caps:normal;font-variant-east-asian:normal;font-variant-ligatures:normal;font-variant-numeric:normal;font-variant-position:normal;font-variation-settings:normal;inline-size:0;isolation:auto;mix-blend-mode:normal;shape-margin:0;shape-padding:0;text-decoration-color:#000000;text-decoration-line:none;text-decoration-style:solid;text-indent:0;text-orientation:mixed;text-transform:none;white-space:normal"/></g></g></g><path d="m-78.026 1.8787c0 0.99652-0.27136 1.9295-0.74412 2.7288-0.0088 0.01422-1.2552 20.022-1.2552 20.022h-21.262l-8.969 13.602-8.2693-6.4796 2.7533-3.7971 4.3955 3.437 7.5665-11.475h19.372l0.13346-2.1599h-15.929v-4.7236h16.22s0.4438-5.7969 0.34674-5.8022c-2.8174-0.15237-5.0551-2.4901-5.0551-5.3516 0-2.96 2.3943-5.3596 5.3479-5.3596s5.3478 2.3996 5.3478 5.3596z" fill-rule="evenodd" opacity=".99988"/></g></g></svg>