<?xml version="1.0" encoding="utf-8"?>
<!-- Generator: Adobe Illustrator 25.2.3, SVG Export Plug-In . SVG Version: 6.00 Build 0)  -->
<svg version="1.1" id="Layer_1" xmlns="http://www.w3.org/2000/svg" xmlns:xlink="http://www.w3.org/1999/xlink" x="0px" y="0px"
	 viewBox="0 0 450.8 395.4" style="enable-background:new 0 0 450.8 395.4;" xml:space="preserve">
<style type="text/css">
	.st0{fill:#FFFFFF;stroke:#000000;stroke-width:0.75;stroke-linecap:round;stroke-linejoin:round;}
	.st1{fill:#EF2028;}
</style>
<g id="Layer_2_1_">
	<g id="svg48705">
		<g id="layer1">
			<path id="path2818-7" class="st0" d="M444.7,359.9c1.6,2.5,3.1,5.2,4.3,7.9c0.9,2.2,1.4,4.5,1.4,6.9c0.1,3.5-0.8,6.9-2.5,10
				c-2.6,4.6-6.8,8-11.8,9.5c-2.9,0.9-6.1,0.8-9.1,0.8H22.1c-1.5,0-3,0-4.5-0.2c-6.4-0.9-11.9-4.8-14.9-10.4
				c-1.7-3.4-2.5-7.2-2.2-11c0.2-3.8,1.5-6.5,3.7-10.3L207.1,11.9c3.8-7,10.2-11.4,18.2-11.5c9.2,0.2,15.5,5.6,18.7,12.4
				L444.7,359.9z"/>
			<path id="path2820-2" class="st1" d="M21.9,390.3c-6.9,0-11.9-2.4-14.9-7.6s-2.3-11.3,0.3-15.9L212.2,12.7
				c2.6-4.5,8-7.5,13.9-7.5c6.1,0,10.2,3.4,13.2,8.5l204.2,353.4c3,4.9,3,11.1,0,16c-2.9,5.1-8.7,7.3-13.9,7.3L21.9,390.3z
				 M56.2,354.3l338.2-0.1L225.3,61.6L56.2,354.3z"/>
		</g>
		<path d="M86.7,344.1c91.6,0,183.3,0,274.9,0c0.8,0,1.2-0.1,1.1-1.1c-0.1-1.6,0-3.3,0-4.9h0.2c0,1.9,0,3.8,0,5.7
			c0,0.5-0.1,0.6-0.5,0.5c-0.1,0-0.3,0-0.4,0c-91.4,0-182.9,0-274.3,0C87.4,344.3,87,344.5,86.7,344.1z"/>
		<path d="M259.1,160c-0.9-0.1-1.9,0.2-2.8-0.2h2.8C259.1,159.9,259.1,159.9,259.1,160z"/>
		<path d="M362.7,338.1h-19.5c-0.4,0.1-0.8,0-1.1-0.2c-2.5-2.2-5.6-3.5-8.4-5.2c-1-0.6-2-1.3-2.8-2.1c-1.4-1.7-2.5-3.6-3.1-5.8
			c-0.5-1.8-1.8-3.4-3.5-4.1c-1.1-0.4-1.8-1.5-1.7-2.7c0.2-1.3-0.5-2.6-1.6-3.2c-2.5-1.3-4.8-2.8-7.6-3.1c-0.6-0.1-1.2-0.4-1.5-0.9
			c-0.7-1-1.6-1.9-2.5-2.6c-1.4-1-2.4-2.3-3-3.9c-0.5-1.4-1.6-2.5-3-3c-3.4-1.4-6.7-2.9-10.1-4.2c-5-2-9.8-1.8-14.4,1.2
			c-1.3,0.9-2.7,1.6-4.1,2.3c-4.1,2.2-8,4.6-9.9,9.1c0,0.1-0.1,0.2-0.2,0.3c-1.1,1.5-2.1,1.4-3-0.2l-0.5-0.8
			c-5.4-10.1-13.2-18.7-22.7-25c-2.8-1.7-5.2-3.9-7.1-6.5c-1-1.4-2.1-2.7-3.5-3.7c-1.7-1.3-3.4-2.7-5.1-4c-2.1-1.5-3-4.1-2.4-6.6
			c0.7-3,1.9-5.8,3.4-8.5c3.1-6.1,6.8-11.8,9.9-17.9c1.1-2.2,2.4-4.4,2.4-7c0.1-0.8,0.5-1.6,1.3-2c2-1.3,3.9-2.8,5.7-4.5
			c1.6-1.4,2.9-3.2,3.7-5.3c1.5-3.6,1.9-7.6,1-11.5c-0.8-3.2-1.7-6.2-4.5-8.3c-1.7-1.2-1.5-3.1-0.9-4.6c0.5-1.3,2.2-1.9,3.9-1.8
			c1.9,0.3,3.9,0.3,5.9,0.1c8.7-1.2,18.7-10.7,17.6-21c-0.1-1-0.4-1.9-0.9-2.8c-0.5-0.7-1-1.4-1.4-2.2c-1.7-3.4-4.8-4.9-8.3-5.8
			c-0.9-0.3-1.9,0.1-2.8-0.2h-0.2c-1.1,0.2-2.2,0.3-3.4,0.2c-2.4-0.3-4.6,0.6-6.9,1.1c-0.4,0.1-0.8,0.3-1.1,0.6
			c-2.4,2.2-5.2,4-6.9,6.9c-0.2,0.3-0.4,0.6-0.7,0.8c-0.9,1-1.6,2.2-2.1,3.5c-0.3,0.8-0.6,1.6-1,2.3c-0.6,1-1.6,1.6-2.8,1.5
			c-1.1,0-1.4-0.9-1.8-1.7c-0.1-0.3-0.2-0.5-0.4-0.8c-0.7-1.6-2.1-2.7-3.8-3c-0.6-0.1-1.2-0.3-1.6-0.7c-0.7-0.6-1.7-0.9-2.7-0.8
			c-5.4,0-10.8,0.1-16.2,0c-7.9-0.1-15.7,0.4-23.6,0.2c-2.3,0-4.6,0.9-6.3,2.5c-1.6,1.4-2.5,3.3-3.6,5c-1.8,2.9-3.1,6.1-3.6,9.5
			c-0.3,2.4-0.7,4.7-1.4,7c-1.5,4.8-2.2,9.7-3,14.6c0,0.9-0.1,1.8-0.3,2.7c-0.4-1-1-1.9-1.7-2.8c-1-1.5-2.8-2.3-4.5-2.1
			c-0.9,0-1.6,0.7-1.8,1.6c-0.1,1.4-0.3,2.8,0.7,4.1c1.4,1.9,2.9,3.7,4.3,5.6c0.8,1.1,0.9,1.6,0.1,2.7c-0.4,0.7-0.8,1.4-1.1,2.1
			c-1.8,3.5-3.3,7.1-5,10.6c-0.4,0.7-0.6,1.4-0.6,2.1c0,7.4-0.2,14.9,0.3,22.3c0.1,1.5,0.1,3,0.2,4.5c0.2,5.3,1.5,10.5,2,15.7
			c0.5,4.9,0.4,9.9-0.1,14.8c-0.4,4.4-1.7,8.6-2.7,12.8c-2.1,8.2-3.1,16.6-3.1,25c0,1.9-0.5,3.8-1.3,5.5c-0.3,1.2-1.5,2-2.8,1.8
			c-0.6,0-1.1,0-1.7,0H88.5c-0.6-0.1-1.2,0-1.8,0.3v6c0.4,0.1,0.8,0.2,1.2,0.1h274.5c0.3,0,0.5-0.1,0.5-0.4
			C362.9,341.8,362.9,340,362.7,338.1z M204.3,234.7c3-2.6,6.8-4.1,10.7-4.1c-1,2-1.9,4.1-2.6,6.3c-0.8,3-1.3,6.1-1.4,9.1
			c0,0.5-0.1,1-0.1,1.5c0,0.2,0,0.7-0.3,0.7s-0.5-0.3-0.6-0.6c-0.9-1.7-1.7-3.5-2.3-5.4c-0.9-2.3-2-4.5-3.4-6.6
			C204,235.3,203.9,235.1,204.3,234.7z M176.9,204.5c1.4-3.2,3.1-6.4,5-9.3c0.3-0.4,0.5-1,0.5-1.5c-0.1-1.4,0.6-2.8,1.8-3.7
			c1.1-1,2.1-1.7,3.4-1.4c1.2-0.2,2.4,0.1,3.5,0.6c1,0.5,1.1,1.2,0.3,2c-4,3.6-6.5,8.3-10.1,12.2c-0.9,1.1-2.2,1.8-3.5,2.2
			c-0.3,0.1-0.7,0.1-1-0.2C176.5,205.1,176.8,204.8,176.9,204.5z M176.6,324.3c0.8,0.5,2,0.9,2.1,1.7s-0.7,1.5-1.1,2.3
			c-1.2,2.5-2.7,4.8-4.1,7.2c-0.1,0.2-0.2,0.4-0.5,0.5c-1.8,0.2-3.3-1.1-3.5-2.9c0-0.1,0-0.2,0-0.3c0.1-1.3,0.4-2.6,0.9-3.8
			c1.9-5.1,2.6-10.4,3.1-15.7c0.5-4.9,0.9-9.7,2.8-14.3c1.2-3,3-5.8,5.3-8.2c2.4-2.6,2.8-5.6,2.9-8.8c0.1-6.1-0.1-12.2-0.7-18.2
			c0-0.6,0-1.2,0-2c3.6,5,7.1,9.9,10.6,14.8c1.6,2.3,3.2,4.5,4.9,6.8c0.4,0.6,0.5,0.9-0.1,1.5c-4.9,5.4-9.2,11.3-13,17.5
			c-4,6.7-7.3,13.7-9.8,21C176.1,323.7,176.3,324.1,176.6,324.3z M255.4,315.7c-1.1,0.6-2.3,1.1-3.5,1.6c-3.5,1.4-5.6,4.5-8.1,7
			c-2,2.1-3.6,4.5-4.7,7.2c-0.2,0.5-0.6,0.9-1.1,1c-2.1,0.7-4.4,1.1-6.1,2.6c-0.5,0.3-1,0.4-1.5,0.4c-2.4,0.2-4.7,1-6.8,2.2
			c-0.6,0.3-1.2,0.5-1.8,0.4c-3.9,0-7.8,0-11.8,0c-0.7,0-1-0.2-1-0.9c0-0.7-0.1-1.5-0.2-2.2c-0.2-0.8-0.8-1.4-1.6-1.7
			c-2.5-0.8-5.1-1.1-7.7-1c-0.3,0-0.8,0.2-0.9-0.3c0-0.6,0-1.3,0.1-1.9c0.2,0,0.4,0,0.6,0c1.2,0,2.5,0,3.7,0.2
			c0.8,0.1,1.2-0.1,1.4-0.9c1.6-5,3-10.1,5.2-15c1-2.2,2.4-4.2,3.5-6.4c1.8-3.9,4.3-7.4,6.5-11.1c1.9-3.2,3.9-6.3,5.9-9.5
			c1-1.4,1.4-3.2,1.2-4.9c1.2,1.5,2.6,2.9,4.2,4.2c3.1,2.4,6.4,4.5,9.4,7c6.5,5.6,11.9,12.4,15.8,20.1
			C256.6,314.7,256.4,315.2,255.4,315.7z"/>
	</g>
</g>
</svg>
