<svg enable-background="new 0 0 450.8 395.4" version="1.1" viewBox="0 0 450.8 395.4" xmlns="http://www.w3.org/2000/svg"><style type="text/css">.st0{fill:#FFFFFF;stroke:#000000;stroke-width:0.75;stroke-linecap:round;stroke-linejoin:round;}.st1{fill:#EF2028;}</style><path class="st0" d="m444.7 359.9c1.6 2.5 3.1 5.2 4.3 7.9 0.9 2.2 1.4 4.5 1.4 6.9 0.1 3.5-0.8 6.9-2.5 10-2.6 4.6-6.8 8-11.8 9.5-2.9 0.9-6.1 0.8-9.1 0.8h-404.9c-1.5 0-3 0-4.5-0.2-6.4-0.9-11.9-4.8-14.9-10.4-1.7-3.4-2.5-7.2-2.2-11 0.2-3.8 1.5-6.5 3.7-10.3l202.9-351.2c3.8-7 10.2-11.4 18.2-11.5 9.2 0.2 15.5 5.6 18.7 12.4l200.7 347.1z"/><path class="st1" d="m21.9 390.3c-6.9 0-11.9-2.4-14.9-7.6s-2.3-11.3 0.3-15.9l204.9-354.1c2.6-4.5 8-7.5 13.9-7.5 6.1 0 10.2 3.4 13.2 8.5l204.2 353.4c3 4.9 3 11.1 0 16-2.9 5.1-8.7 7.3-13.9 7.3l-407.7-0.1zm34.3-36 338.2-0.1-169.1-292.6-169.1 292.7z"/><path d="m86.7 344.1h274.9c0.8 0 1.2-0.1 1.1-1.1-0.1-1.6 0-3.3 0-4.9h0.2v5.7c0 0.5-0.1 0.6-0.5 0.5h-0.4-274.3c-0.3 0-0.7 0.2-1-0.2z"/><path d="m259.1 160c-0.9-0.1-1.9 0.2-2.8-0.2h2.8v0.2z"/><path d="m362.7 338.1h-19.5c-0.4 0.1-0.8 0-1.1-0.2-2.5-2.2-5.6-3.5-8.4-5.2-1-0.6-2-1.3-2.8-2.1-1.4-1.7-2.5-3.6-3.1-5.8-0.5-1.8-1.8-3.4-3.5-4.1-1.1-0.4-1.8-1.5-1.7-2.7 0.2-1.3-0.5-2.6-1.6-3.2-2.5-1.3-4.8-2.8-7.6-3.1-0.6-0.1-1.2-0.4-1.5-0.9-0.7-1-1.6-1.9-2.5-2.6-1.4-1-2.4-2.3-3-3.9-0.5-1.4-1.6-2.5-3-3-3.4-1.4-6.7-2.9-10.1-4.2-5-2-9.8-1.8-14.4 1.2-1.3 0.9-2.7 1.6-4.1 2.3-4.1 2.2-8 4.6-9.9 9.1 0 0.1-0.1 0.2-0.2 0.3-1.1 1.5-2.1 1.4-3-0.2l-0.5-0.8c-5.4-10.1-13.2-18.7-22.7-25-2.8-1.7-5.2-3.9-7.1-6.5-1-1.4-2.1-2.7-3.5-3.7-1.7-1.3-3.4-2.7-5.1-4-2.1-1.5-3-4.1-2.4-6.6 0.7-3 1.9-5.8 3.4-8.5 3.1-6.1 6.8-11.8 9.9-17.9 1.1-2.2 2.4-4.4 2.4-7 0.1-0.8 0.5-1.6 1.3-2 2-1.3 3.9-2.8 5.7-4.5 1.6-1.4 2.9-3.2 3.7-5.3 1.5-3.6 1.9-7.6 1-11.5-0.8-3.2-1.7-6.2-4.5-8.3-1.7-1.2-1.5-3.1-0.9-4.6 0.5-1.3 2.2-1.9 3.9-1.8 1.9 0.3 3.9 0.3 5.9 0.1 8.7-1.2 18.7-10.7 17.6-21-0.1-1-0.4-1.9-0.9-2.8-0.5-0.7-1-1.4-1.4-2.2-1.7-3.4-4.8-4.9-8.3-5.8-0.9-0.3-1.9 0.1-2.8-0.2h-0.2c-1.1 0.2-2.2 0.3-3.4 0.2-2.4-0.3-4.6 0.6-6.9 1.1-0.4 0.1-0.8 0.3-1.1 0.6-2.4 2.2-5.2 4-6.9 6.9-0.2 0.3-0.4 0.6-0.7 0.8-0.9 1-1.6 2.2-2.1 3.5-0.3 0.8-0.6 1.6-1 2.3-0.6 1-1.6 1.6-2.8 1.5-1.1 0-1.4-0.9-1.8-1.7-0.1-0.3-0.2-0.5-0.4-0.8-0.7-1.6-2.1-2.7-3.8-3-0.6-0.1-1.2-0.3-1.6-0.7-0.7-0.6-1.7-0.9-2.7-0.8-5.4 0-10.8 0.1-16.2 0-7.9-0.1-15.7 0.4-23.6 0.2-2.3 0-4.6 0.9-6.3 2.5-1.6 1.4-2.5 3.3-3.6 5-1.8 2.9-3.1 6.1-3.6 9.5-0.3 2.4-0.7 4.7-1.4 7-1.5 4.8-2.2 9.7-3 14.6 0 0.9-0.1 1.8-0.3 2.7-0.4-1-1-1.9-1.7-2.8-1-1.5-2.8-2.3-4.5-2.1-0.9 0-1.6 0.7-1.8 1.6-0.1 1.4-0.3 2.8 0.7 4.1 1.4 1.9 2.9 3.7 4.3 5.6 0.8 1.1 0.9 1.6 0.1 2.7-0.4 0.7-0.8 1.4-1.1 2.1-1.8 3.5-3.3 7.1-5 10.6-0.4 0.7-0.6 1.4-0.6 2.1 0 7.4-0.2 14.9 0.3 22.3 0.1 1.5 0.1 3 0.2 4.5 0.2 5.3 1.5 10.5 2 15.7 0.5 4.9 0.4 9.9-0.1 14.8-0.4 4.4-1.7 8.6-2.7 12.8-2.1 8.2-3.1 16.6-3.1 25 0 1.9-0.5 3.8-1.3 5.5-0.3 1.2-1.5 2-2.8 1.8h-1.7-55.7c-0.6-0.1-1.2 0-1.8 0.3v6c0.4 0.1 0.8 0.2 1.2 0.1h274.5c0.3 0 0.5-0.1 0.5-0.4 0-1.8 0-3.6-0.2-5.5zm-158.4-103.4c3-2.6 6.8-4.1 10.7-4.1-1 2-1.9 4.1-2.6 6.3-0.8 3-1.3 6.1-1.4 9.1 0 0.5-0.1 1-0.1 1.5 0 0.2 0 0.7-0.3 0.7s-0.5-0.3-0.6-0.6c-0.9-1.7-1.7-3.5-2.3-5.4-0.9-2.3-2-4.5-3.4-6.6-0.3-0.3-0.4-0.5 0-0.9zm-27.4-30.2c1.4-3.2 3.1-6.4 5-9.3 0.3-0.4 0.5-1 0.5-1.5-0.1-1.4 0.6-2.8 1.8-3.7 1.1-1 2.1-1.7 3.4-1.4 1.2-0.2 2.4 0.1 3.5 0.6 1 0.5 1.1 1.2 0.3 2-4 3.6-6.5 8.3-10.1 12.2-0.9 1.1-2.2 1.8-3.5 2.2-0.3 0.1-0.7 0.1-1-0.2s0-0.6 0.1-0.9zm-0.3 119.8c0.8 0.5 2 0.9 2.1 1.7s-0.7 1.5-1.1 2.3c-1.2 2.5-2.7 4.8-4.1 7.2-0.1 0.2-0.2 0.4-0.5 0.5-1.8 0.2-3.3-1.1-3.5-2.9v-0.3c0.1-1.3 0.4-2.6 0.9-3.8 1.9-5.1 2.6-10.4 3.1-15.7 0.5-4.9 0.9-9.7 2.8-14.3 1.2-3 3-5.8 5.3-8.2 2.4-2.6 2.8-5.6 2.9-8.8 0.1-6.1-0.1-12.2-0.7-18.2v-2c3.6 5 7.1 9.9 10.6 14.8 1.6 2.3 3.2 4.5 4.9 6.8 0.4 0.6 0.5 0.9-0.1 1.5-4.9 5.4-9.2 11.3-13 17.5-4 6.7-7.3 13.7-9.8 21-0.3 0.3-0.1 0.7 0.2 0.9zm78.8-8.6c-1.1 0.6-2.3 1.1-3.5 1.6-3.5 1.4-5.6 4.5-8.1 7-2 2.1-3.6 4.5-4.7 7.2-0.2 0.5-0.6 0.9-1.1 1-2.1 0.7-4.4 1.1-6.1 2.6-0.5 0.3-1 0.4-1.5 0.4-2.4 0.2-4.7 1-6.8 2.2-0.6 0.3-1.2 0.5-1.8 0.4h-11.8c-0.7 0-1-0.2-1-0.9s-0.1-1.5-0.2-2.2c-0.2-0.8-0.8-1.4-1.6-1.7-2.5-0.8-5.1-1.1-7.7-1-0.3 0-0.8 0.2-0.9-0.3 0-0.6 0-1.3 0.1-1.9h0.6c1.2 0 2.5 0 3.7 0.2 0.8 0.1 1.2-0.1 1.4-0.9 1.6-5 3-10.1 5.2-15 1-2.2 2.4-4.2 3.5-6.4 1.8-3.9 4.3-7.4 6.5-11.1 1.9-3.2 3.9-6.3 5.9-9.5 1-1.4 1.4-3.2 1.2-4.9 1.2 1.5 2.6 2.9 4.2 4.2 3.1 2.4 6.4 4.5 9.4 7 6.5 5.6 11.9 12.4 15.8 20.1 0.5 0.9 0.3 1.4-0.7 1.9z"/></svg>