<svg width="280.86" height="304.58" version="1.1" xmlns="http://www.w3.org/2000/svg"><g transform="translate(177.93 25.687)"><g transform="translate(330.67 -206.84)"><g transform="translate(-108.37 1759.9)"><rect x="578.74" y="298.17" width="0" height="27.202" rx="249.48" ry="27.202" color="#000000"/><g transform="translate(247.7 -1439.7)"><g transform="matrix(1.25 0 0 -1.25 160.86 131.62)"><g transform="matrix(.8 0 0 -.8 -516.73 1351.2)"><g transform="translate(-401.27 52.383)"><g transform="translate(313.46 86.017)"><text x="-111.1793" y="682.42792" fill="#000000" font-family="Bitstream Vera Sans" font-size="144px" xml:space="preserve"><tspan x="-111.1793" y="682.42792"/></text><g transform="translate(815.16 1646.5)"><g transform="translate(-112.84 192.81)"><g transform="translate(740.92 -193.26)"><path d="m-1237.8-366.16-280.47 0.18227 0.389 304.4 280.47-0.18227-0.3891-304.4z" fill="#ff0" fill-rule="evenodd"/><path d="m-1267.8-357.41-218.13 0.14031c-10.114 6e-3 -18.249 5.3921-18.241 12.075l0.3394 262.8c0.014 6.6832 8.1578 12.058 18.272 12.052l218.13-0.13941c10.114-8e-3 18.249-5.3922 18.241-12.075l-0.3394-262.8c-0.014-6.6832-8.1578-12.058-18.272-12.052z" fill="none" stroke="#000" stroke-linecap="round" stroke-linejoin="round" stroke-width="6"/><g transform="matrix(.52103 0 0 .52103 -1105.9 -659.01)"><path d="m-633.36 1072s0.33508-26.814 1.6354-38.751c4.5676-41.934 39.156-78.502 100.18-105.91 46.636-20.947 94.703-59.014 117.65-93.169 19.661-29.269 33.597-64.749 33.597-85.534 0-14.675 3.5381-14.543 3.5381-14.543s33.202 6.6544 33.202 6.6544l-64.617-106.22-62.902 111.06s35.195-7.8509 35.195-7.8509 0.0719 12.973-3.3974 26.058c-13.717 51.738-59.483 99.951-119.52 125.91-44.701 19.331-88.809 54.537-109.52 87.422-14.25 22.622-17.056 31.691-18.849 60.908l-2.1068 34.328c18.641-0.055 55.925-0.3561 55.925-0.3561z"/><path d="m-545.35 583.02h65.728l0.0925 91.646c-15.655 74.926-51.577 72.565-65.635 0l-0.18483-91.646z" stroke="#000" stroke-width="1.9193px"/><path d="m-545.35 1129.2h65.728l0.0925-91.646c-15.655-74.926-51.577-72.565-65.635 0l-0.18483 91.646z" stroke="#000" stroke-width="1.9193px"/></g></g></g></g></g></g></g></g></g></g></g></g></svg>