<svg width="132.87mm" height="132.87mm" version="1.1" viewBox="0 0 132.87 132.87" xmlns="http://www.w3.org/2000/svg"><g transform="translate(127.64 -66.039)"><path d="m-118.02 66.33h113.63c5.1683 0 9.3291 4.1608 9.3291 9.3292v113.63c0 5.1684-4.1608 9.3291-9.3291 9.3291h-113.63c-5.1684 0-9.3292-4.1608-9.3292-9.3291v-113.63c0-5.1684 4.1608-9.3292 9.3292-9.3292z" fill="#e6eb12" fill-rule="evenodd"/><path d="m-117.93 68.645c-3.9327 0-7.0987 3.166-7.0987 7.0987v113.46c0 3.9327 3.166 7.0987 7.0987 7.0987h113.46c3.9327 0 7.0987-3.166 7.0987-7.0987v-113.46c0-3.9327-3.166-7.0987-7.0987-7.0987zm0.0615 2.3594h113.34c2.652 0 4.7871 2.1351 4.7871 4.7871v113.37c0 2.652-2.135 4.7871-4.7871 4.7871h-113.34c-2.6521 0-4.7871-2.1351-4.7871-4.7871v-113.37c0-2.652 2.135-4.7871 4.7871-4.7871z" fill-rule="evenodd" stroke-width=".56201"/><g transform="matrix(.46398 0 0 .46398 -116.95 83.611)"><path class="st0" d="m237.2 192c0.9 1.4 1.6 2.8 2.3 4.2 0.5 1.2 0.7 2.4 0.7 3.7 0 1.9-0.4 3.7-1.3 5.3-1.4 2.4-3.6 4.2-6.3 5.1-1.6 0.4-3.2 0.5-4.9 0.4h-215.8c-0.8 0-1.6 0-2.4-0.1-3.4-0.5-6.4-2.5-8-5.6-0.9-1.8-1.3-3.8-1.1-5.8s0.9-3.9 2-5.5l108.2-187.2c2.6-5.4 9-7.7 14.4-5.1 2.4 1.1 4.3 3.1 5.3 5.6z" fill="#fff"/><path class="st1" d="m11.8 208.3c-3.7 0-6.3-1.3-7.9-4.1-1.4-2.7-1.4-5.9 0.2-8.5l109.2-188.8c1.6-2.5 4.4-4.1 7.4-4 3.2 0 5.4 1.8 7 4.5l108.9 188.4c1.6 2.6 1.6 5.9 0 8.6-1.6 2.5-4.4 4-7.4 3.9zm18.3-19.2h180.3l-90.1-156.1z" fill="#e32521"/><path d="m120.4 61.9c11.7 0 21.3 9.5 21.3 21.3v79.3c0 11.7-9.5 21.3-21.3 21.3-11.7 0-21.3-9.5-21.3-21.3v-79.4c0-11.7 9.5-21.2 21.3-21.2z"/><g><circle class="st2" cx="120.3" cy="83.2" r="18.5" fill="#e32521"/><circle class="st3" cx="120.3" cy="122.7" r="18.5" fill="#f0e40b"/><circle class="st4" cx="120.3" cy="162.3" r="18.5" fill="#67b22f"/></g></g></g><style type="text/css">.st0{fill:#FFFFFF;stroke:#000000;stroke-width:0.75;stroke-linecap:round;stroke-linejoin:round;}.st1{fill:#EF2028;}.st2{fill:#E32521;}.st3{fill:#F0E40B;}.st4{fill:#67B22F;}</style></svg>