<svg width="132.82mm" height="132.82mm" version="1.1" viewBox="0 0 132.82 132.82" xmlns="http://www.w3.org/2000/svg"><g transform="translate(-57.379 -85.349)"><path d="m66.973 85.614h113.63c5.1684 0 9.3291 4.1608 9.3291 9.3291v113.63c0 5.1683-4.1608 9.3291-9.3291 9.3291h-113.63c-5.1683 0-9.3291-4.1608-9.3291-9.3291v-113.63c0-5.1683 4.1608-9.3291 9.3291-9.3291z" fill="#e6eb12" fill-opacity=".96471" fill-rule="evenodd" style="paint-order:stroke fill markers"/><path d="m67.058 87.929c-3.9327 0-7.0987 3.166-7.0987 7.0987v113.46c0 3.9327 3.166 7.0987 7.0987 7.0987h113.46c3.9327 0 7.0987-3.166 7.0987-7.0987v-113.46c0-3.9327-3.166-7.0987-7.0987-7.0987zm0.06145 2.3594h113.34c2.652 0 4.7871 2.135 4.7871 4.7871v113.37c0 2.6521-2.135 4.7871-4.7871 4.7871h-113.34c-2.652 0-4.7871-2.135-4.7871-4.7871v-113.37c0-2.652 2.135-4.7871 4.7871-4.7871z" fill-rule="evenodd" stroke-width=".56201"/><g transform="matrix(.14724 0 0 .14724 114.01 285.2)"><path d="m66.438-1205.3c-165.06 0-299.05 133.99-299.05 299.05-5.3e-4 165.06 133.99 299.05 299.05 299.05 165.06 5.3e-4 299.05-133.99 299.05-299.05 5.3e-4 -165.06-133.99-299.05-299.05-299.05z" color="#000000" color-rendering="auto" dominant-baseline="auto" enable-background="accumulate" fill="#fff" fill-rule="evenodd" image-rendering="auto" shape-rendering="auto" solid-color="#000000" stop-color="#000000" style="font-feature-settings:normal;font-variant-alternates:normal;font-variant-caps:normal;font-variant-east-asian:normal;font-variant-ligatures:normal;font-variant-numeric:normal;font-variant-position:normal;font-variation-settings:normal;inline-size:0;isolation:auto;mix-blend-mode:normal;paint-order:stroke fill markers;shape-margin:0;shape-padding:0;text-decoration-color:#000000;text-decoration-line:none;text-decoration-style:solid;text-indent:0;text-orientation:mixed;text-transform:none;white-space:normal"/><path d="m286.56-906.3c0-121.62-98.572-220.19-220.18-220.19-121.62 0-220.19 98.572-220.19 220.19 0 121.61 98.572 220.18 220.19 220.18 121.61 0 220.18-98.572 220.18-220.18" fill="none" stroke="#ee232b" stroke-linecap="round" stroke-linejoin="round" stroke-miterlimit="10" stroke-width=".16"/><path d="m356.71-906.3c0-160.34-129.98-290.32-290.32-290.32-160.34 0-290.32 129.98-290.32 290.32 0 160.33 129.98 290.32 290.32 290.32 160.34 0 290.32-129.99 290.32-290.32" fill="none" stroke="#ee232b" stroke-linecap="round" stroke-linejoin="round" stroke-miterlimit="10" stroke-width=".16"/><path d="m66.438-1196.9c-160.48 0-290.58 130.1-290.57 290.58-5.3e-4 160.48 130.09 290.58 290.57 290.58 160.48 5.3e-4 290.58-130.1 290.58-290.58 2.7e-4 -160.48-130.1-290.58-290.58-290.58zm-0.63642 70.562c0.1642-3e-4 0.32761-3e-4 0.49155 0 121.49 5e-4 219.98 98.487 219.98 219.98-7.9e-4 121.49-98.487 219.98-219.98 219.98-121.49-5.3e-4 -219.98-98.487-219.98-219.98 2.6e-4 -121.3 98.188-219.71 219.49-219.98z" color="#000000" color-rendering="auto" dominant-baseline="auto" enable-background="accumulate" fill="#ed232a" fill-rule="evenodd" image-rendering="auto" shape-rendering="auto" solid-color="#000000" stop-color="#000000" style="font-feature-settings:normal;font-variant-alternates:normal;font-variant-caps:normal;font-variant-east-asian:normal;font-variant-ligatures:normal;font-variant-numeric:normal;font-variant-position:normal;font-variation-settings:normal;inline-size:0;isolation:auto;mix-blend-mode:normal;paint-order:stroke fill markers;shape-margin:0;shape-padding:0;text-decoration-color:#000000;text-decoration-line:none;text-decoration-style:solid;text-indent:0;text-orientation:mixed;text-transform:none;white-space:normal"/><path d="m-82.292-1034.6-5.6172 134.79 34.32 4.0234c5.2018-18.572 19.065-26.157 32.715-25.92 10.71 0 19.758 6.7804 26.688 15.139 7.14 8.3584 6.0149 18.741 5.7773 30.898 0 14.184-2.7772 26.55-8.2285 38.478-2.1972 4.8079-5.7409 9.1603-9.5508 12.656-8.6262 7.9187-19.518 12.492-30.295 12.137-11.97 0-21.733-6.7669-31.604-12.846l-25.59 26.281c12.293 10.692 32.609 23.467 51.299 23.467 26.669 0 51.008-8.6058 68.018-29.121 17.219-20.515 23.213-45.687 23.332-70.418 0.081-13.45-1.5025-27.604-6.7168-40.328-3.0219-7.3733-8.116-14.035-12.602-20.404-4.7693-6.7691-12.589-11.395-19.752-15.045-8.8305-4.5004-18.505-7.5597-29.52-7.8555-5.0543 0-12.144 0.6882-17.963 2.0215-6.5128 1.4932-11.49 3.6504-11.49 3.6504l1.7539-44.898h85.85v-36.711zm233.13 0.6621c-2.96 0.02-5.7509 0.1828-8.3028 0.4902-12.847 1.5471-23.695 6.6814-32.617 15.436-18.346 18-28.295 51.242-29.805 99.584-0.2716 8.7125-0.2567 18.752 0.041 27.273 1.0932 31.301 5.877 56.737 14.293 75.992 2.6235 6.0025 4.9689 10.105 8.3594 14.621 7.8269 10.426 19.471 19.112 32.16 23.988 6.8184 2.62 13.197 4.0045 19.604 4.2539 1.2105 0.047 3.6631 0 5.3105-0.094 11.446-0.675 22.24-3.9927 31.801-9.7754 2.237-1.3531 4.5607-2.9603 6.5899-4.5586 6.3959-5.0374 11.758-11.149 15.976-18.211 2.7074-4.5318 4.8519-9.2933 6.8282-15.158 5.1714-15.347 8.1611-36.058 8.9863-62.266 0.1736-5.4783 0.2168-8.7686 0.2168-15.734 0-6.8852-0.049-10.62-0.2168-16.869-0.9854-36.804-4.9499-61.35-12.711-78.697-4.0951-9.1528-9.3715-16.82-15.699-22.814-10.57-10.013-24.285-15.66-41.494-17.088-3.2334-0.2685-6.3622-0.393-9.3222-0.373zm5.7929 41.295c1.6387-0.01 3.241 0.052 4.625 0.1758 6.4443 0.5788 11.175 2.5373 14.742 6.1035 2.1924 2.1914 3.8738 4.8497 5.5762 8.8145 5.5032 12.818 8.6989 30.774 9.8789 55.522 0.3958 8.301 0.5566 15.992 0.5566 26.936 0 7.7196-0.033 10.068-0.2187 15.098-0.6272 16.974-2.5663 29.529-5.959 38.596-0.4612 1.2319-0.9206 2.306-2.7266 6.3828-3.1167 7.0356-5.1397 10.849-7.25 13.666-4.189 5.5915-9.2272 8.0189-17.465 8.4141-0.7343 0.036-3.4427 0.047-4.1563 0.016-3.1855-0.1358-5.4648-0.4233-7.6855-0.9707-5.6818-1.4005-9.3779-4.3444-12.215-9.7266-1.1563-2.1935-2.1399-4.5791-3.4942-8.4746-0.5515-1.5867-2.8876-8.6193-3.2773-9.8652-3.7305-11.929-5.9639-25.973-6.8867-43.309-0.5894-11.072-0.6487-24.268-0.1602-35.727 0.9714-22.788 4.0227-40.728 9.0215-53.055 1.7618-4.3445 3.9943-8.3286 6.0176-10.74 3.85-4.5883 8.947-6.9876 16.232-7.6387 1.5304-0.137 3.205-0.2097 4.8437-0.2168z" stroke-width=".039786"/></g></g></svg>