<svg width="323.55mm" height="200mm" version="1.1" viewBox="0 0 323.55 200" xmlns="http://www.w3.org/2000/svg"><defs><clipPath id="a"><path d="m0 0h408.52v260.99h-408.52z"/></clipPath></defs><g transform="translate(-115.73 -218.78)"><path d="m115.73 218.78h323.55v200h-323.55z" fill="#ff0" fill-rule="evenodd"/><g transform="matrix(7.2417 0 0 -4.6177 94.338 532.62)" stroke-width=".060216"><g transform="scale(.17624 .27587)" stroke-width=".060216"><g clip-path="url(#a)" stroke-width=".060216"><path d="m72.735 150.66h96.457l-8.0392 13.434 48.111-24.128-48.111-24.17 7.9907 13.456h-96.409z" fill-rule="evenodd" opacity=".99988"/><path d="m173.05 218.81 0.01-33.959h5.3979l-0.01 33.959z" stroke-width=".30821"/><path d="m259.7 224.88-178.38-5.6788 97.555-0.70085 80.827 6.3797" fill="none"/><path d="m235.79 206.82-3.3766-4.2633s-0.81744 0.71604-1.9728 1.0128c-1.1277 0.28965-2.5835 0.16432-3.4176-0.16961-0.82011-0.32836-2.0332-1.2659-2.6628-2.2434-0.72138-1.1201-0.80317-2.2721-0.80317-2.2721l-0.0203-14.286-5.4432-3e-5v23.992l5.4432-0.0386v-0.78255s0.75942 0.48324 1.8004 0.83942c1.0742 0.36756 2.4452 0.60877 3.394 0.63526 1.0328 0.0288 2.6564-0.16254 3.9318-0.65588 1.795-0.69418 3.127-1.7684 3.127-1.7684z"/></g></g></g><g><path d="m143.84 225.51c-11.444 0-20.761 9.317-20.761 20.761v144.73c0 11.444 9.3169 20.761 20.761 20.761h267.94c11.444 0 20.761-9.3169 20.761-20.761v-144.73c0-11.444-9.3169-20.761-20.761-20.761zm0 6.8428h267.94c7.7715 0 13.925 6.1462 13.925 13.918v144.73c0 7.7716-6.1537 13.918-13.925 13.918h-267.94c-7.7715 0-13.918-6.1462-13.918-13.918v-144.73c0-7.7715 6.1462-13.918 13.918-13.918z" color="#000000" color-rendering="auto" dominant-baseline="auto" enable-background="accumulate" fill-rule="evenodd" image-rendering="auto" opacity=".99988" shape-rendering="auto" solid-color="#000000" stop-color="#000000" style="font-feature-settings:normal;font-variant-alternates:normal;font-variant-caps:normal;font-variant-east-asian:normal;font-variant-ligatures:normal;font-variant-numeric:normal;font-variant-position:normal;font-variation-settings:normal;inline-size:0;isolation:auto;mix-blend-mode:normal;shape-margin:0;shape-padding:0;text-decoration-color:#000000;text-decoration-line:none;text-decoration-style:solid;text-indent:0;text-orientation:mixed;text-transform:none;white-space:normal"/><path d="m197.66 252.68-17.905 26.238v17.469h-7.8158l1.1e-4 -17.48-17.933-26.228 9.4948 2e-3 12.317 18.033 12.325-18.034z"/><path d="m225.18 296.62-7.0893-4.4e-4v-0.78862s-3.984 1.4306-6.0692 1.5889c-2.5365 0.19254-5.1837 0.0326-7.5897-0.79732-1.9293-0.66244-3.9164-1.6738-5.6558-2.8776-0.82125-0.56889-1.5571-1.2009-2.2124-2.0207-0.75164-0.93981-1.1626-2.2067-1.1853-3.4098-0.0326-1.5875 0.31436-3.3428 1.393-4.5547 2.2135-2.487 5.5044-4.1509 8.8677-4.966 1.2684-0.30783 2.5184-0.44489 3.7664-0.58195 1.3182-0.14467 3.3166 0.0652 4.9919 0.4623 2.0008 0.47534 3.5836 1.17 3.5836 1.17s0.18275-1.1558 0.087-1.7239c-0.14032-0.87237-0.5602-1.9123-0.96375-2.4678-0.99202-1.3658-2.7863-2.0029-4.3942-2.5163-0.57433-0.18274-1.1966-0.15664-1.7988-0.1773-0.74186-0.0217-1.487 8e-3 -2.2273 0.0652-1.1974 0.0979-2.6078 0.28065-3.5725 0.47535-3.305 0.67006-5.1308 1.6823-5.1308 1.6823l-2.8672-6.3924s2.3176-1.1137 5.5173-1.9211c2.515-0.63416 5.7352-1.0225 7.7184-0.92132 3.7709 0.19144 7.5778 1.0214 10.279 3.3471 2.7008 2.3261 4.5488 5.4882 4.5488 9.2019zm-7.3399-8.7587s-1.3076-1.0508-3.0518-1.742c-1.5289-0.60587-3.421-0.86368-4.6928-0.85606-1.176 8e-3 -3.1936 0.38941-4.6167 0.96375-1.7488 0.70703-2.8052 1.6335-2.8052 1.6335s0.90284 0.88978 2.5224 1.5585c1.531 0.63198 3.7443 1.0464 5.0399 1.0475 1.2776 1e-3 3.1008-0.2839 4.622-0.90283 1.6695-0.68094 2.9823-1.7028 2.9823-1.7028z"/><path d="m305.77 296.62-7.0893-4.4e-4v-0.78862s-3.9839 1.4306-6.0692 1.5889c-2.5364 0.19254-5.1837 0.0326-7.5896-0.79732-1.9294-0.66244-3.9166-1.6738-5.6559-2.8776-0.82125-0.56889-1.557-1.2009-2.2123-2.0207-0.75164-0.93981-1.1627-2.2067-1.1853-3.4098-0.0326-1.5875 0.31436-3.3428 1.3929-4.5547 2.2135-2.487 5.5044-4.1509 8.8678-4.966 1.2683-0.30783 2.5182-0.44489 3.7663-0.58195 1.3182-0.14467 3.3166 0.0652 4.992 0.4623 2.0007 0.47534 3.5836 1.17 3.5836 1.17s0.18274-1.1558 0.087-1.7239c-0.14032-0.87237-0.56019-1.9123-0.96375-2.4678-0.99203-1.3658-2.7864-2.0029-4.3942-2.5163-0.57433-0.18274-1.1967-0.15664-1.7988-0.1773-0.74294-0.0217-1.4871 8e-3 -2.2274 0.0652-1.1973 0.0979-2.6078 0.28065-3.5725 0.47535-3.305 0.66897-5.1307 1.6823-5.1307 1.6823l-2.8678-6.3924s2.3176-1.1137 5.5173-1.9211c2.515-0.63416 5.7352-1.0225 7.7186-0.92132 3.7708 0.19144 7.5777 1.0214 10.279 3.3471 2.7008 2.3261 4.5489 5.4882 4.5489 9.2019zm-7.3399-8.7587s-1.3075-1.0508-3.0518-1.742c-1.5289-0.60587-3.421-0.86368-4.6928-0.85606-1.176 8e-3 -3.1936 0.38941-4.6166 0.96375-1.7488 0.70703-2.8053 1.6335-2.8053 1.6335s0.90282 0.88978 2.5224 1.5585c1.531 0.63198 3.7444 1.0464 5.04 1.0475 1.2774 1e-3 3.1007-0.2839 4.6218-0.90283 1.6695-0.68094 2.9823-1.7028 2.9823-1.7028z"/><path d="m361.89 296.62-7.0892-4.4e-4v-0.78862s-3.984 1.4306-6.0692 1.5889c-2.5365 0.19254-5.1837 0.0326-7.5896-0.79732-1.9293-0.66244-3.9164-1.6738-5.6558-2.8776-0.82125-0.56889-1.5571-1.2009-2.2124-2.0207-0.75164-0.93981-1.1626-2.2067-1.1853-3.4098-0.0326-1.5875 0.31436-3.3428 1.393-4.5547 2.2134-2.487 5.5044-4.1509 8.8676-4.966 1.2684-0.30783 2.5182-0.44489 3.7664-0.58195 1.3182-0.14467 3.3166 0.0652 4.9919 0.4623 2.0007 0.47534 3.5836 1.17 3.5836 1.17s0.18274-1.1558 0.087-1.7239c-0.1414-0.87237-0.56127-1.9123-0.96374-2.4678-0.99203-1.3658-2.7863-2.0029-4.3942-2.5163-0.57433-0.18274-1.1966-0.15664-1.7988-0.1773-0.74293-0.0217-1.487 8e-3 -2.2273 0.0652-1.1974 0.0979-2.6078 0.28065-3.5725 0.47535-3.305 0.66897-5.1308 1.6823-5.1308 1.6823l-2.8676-6.3924s2.3174-1.1137 5.5172-1.9211c2.515-0.63416 5.7352-1.0225 7.7186-0.92132 3.7709 0.19144 7.5778 1.0214 10.279 3.3471 2.7008 2.3261 4.549 5.4882 4.549 9.2019zm-7.3399-8.7587s-1.3075-1.0508-3.0517-1.742c-1.5289-0.60587-3.421-0.86368-4.6928-0.85606-1.176 8e-3 -3.1936 0.38941-4.6167 0.96375-1.7488 0.70703-2.8052 1.6335-2.8052 1.6335s0.90283 0.88978 2.5224 1.5585c1.531 0.63198 3.7442 1.0464 5.0399 1.0475 1.2776 1e-3 3.1008-0.2839 4.622-0.90283 1.6695-0.68094 2.9822-1.7028 2.9822-1.7028z"/><path d="m268.7 266.39-17.032 39.803s-1.0127 1.3998-2.5935 2.453c-1.4768 0.98333-3.4778 1.6218-4.8474 1.7141-1.5047 0.0979-3.8116-0.12292-5.5776-0.97354-1.9711-0.9496-3.3266-2.5427-3.3266-2.5427l5.9065-5.2613s0.42966 0.45359 0.96919 0.70269c0.46882 0.21645 1.0247 0.2393 1.416 0.18708 0.30675-0.0435 0.8169-0.24148 1.1424-0.49601 0.49384-0.38724 0.75381-0.8702 0.75381-0.8702l1.6575-2.9952-4.611-10.647-9.0065-21.072h7.6375l9.9455 23.154 9.9298-23.154z"/></g></g></svg>