<?xml version="1.0" encoding="UTF-8" standalone="no"?>
<svg
   xmlns:dc="http://purl.org/dc/elements/1.1/"
   xmlns:cc="http://creativecommons.org/ns#"
   xmlns:rdf="http://www.w3.org/1999/02/22-rdf-syntax-ns#"
   xmlns:svg="http://www.w3.org/2000/svg"
   xmlns="http://www.w3.org/2000/svg"
   xmlns:sodipodi="http://sodipodi.sourceforge.net/DTD/sodipodi-0.dtd"
   xmlns:inkscape="http://www.inkscape.org/namespaces/inkscape"
   sodipodi:docname="YB-3.svg"
   inkscape:version="1.0 (4035a4fb49, 2020-05-01)"
   id="svg205429"
   version="1.1"
   viewBox="0 0 323.54541 200"
   height="200mm"
   width="323.54541mm">
  <defs
     id="defs205423">
    <clipPath
       id="clipPath62909"
       clipPathUnits="userSpaceOnUse">
      <path
         id="path62907"
         d="M 0,0 H 408.52 V 260.99 H 0 Z" />
    </clipPath>
  </defs>
  <sodipodi:namedview
     inkscape:window-maximized="0"
     inkscape:window-y="0"
     inkscape:window-x="96"
     inkscape:window-height="1030"
     inkscape:window-width="1424"
     showgrid="false"
     inkscape:document-rotation="0"
     inkscape:current-layer="g62905"
     inkscape:document-units="mm"
     inkscape:cy="-571.98699"
     inkscape:cx="398.29061"
     inkscape:zoom="0.24748737"
     inkscape:pageshadow="2"
     inkscape:pageopacity="0.0"
     borderopacity="1.0"
     bordercolor="#666666"
     pagecolor="#ffffff"
     id="base" />
  <metadata
     id="metadata205426">
    <rdf:RDF>
      <cc:Work
         rdf:about="">
        <dc:format>image/svg+xml</dc:format>
        <dc:type
           rdf:resource="http://purl.org/dc/dcmitype/StillImage" />
        <dc:title></dc:title>
      </cc:Work>
    </rdf:RDF>
  </metadata>
  <g
     transform="translate(-115.72576,-218.78234)"
     id="layer1"
     inkscape:groupmode="layer"
     inkscape:label="Layer 1">
    <path
       style="display:inline;fill:#ffff00;fill-opacity:1;fill-rule:evenodd;stroke:none;stroke-width:0.264583"
       d="m 115.72576,218.78234 h 323.5454 v 200 h -323.5454 z"
       id="rect1873" />
    <g
       style="stroke-width:0.0602159"
       transform="matrix(7.2417476,0,0,-4.6177053,94.337588,532.61632)"
       id="g62901">
      <g
         style="stroke-width:0.0602159"
         transform="scale(0.17624,0.27587)"
         id="g62903">
        <g
           style="stroke-width:0.0602159"
           clip-path="url(#clipPath62909)"
           id="g62905">
          <path
             id="rect205168"
             style="opacity:0.999883;fill:#000000;fill-opacity:1;fill-rule:evenodd;stroke:none;stroke-width:0.4933;stroke-linecap:round;stroke-linejoin:round;stroke-miterlimit:0.1;stroke-opacity:1"
             d="M 72.735496,150.66458 H 169.1929 l -8.03923,13.43404 48.11138,-24.12841 -48.11138,-24.17049 7.99074,13.45599 H 72.735496 Z"
             sodipodi:nodetypes="cccccccc" />
          <path
             id="path7201-2"
             style="font-style:normal;font-variant:normal;font-weight:normal;font-stretch:normal;font-size:122.83px;line-height:1.15;font-family:'Highway Gothic Wide';-inkscape-font-specification:'Highway Gothic Wide';text-align:center;letter-spacing:3.26px;text-anchor:middle;fill:#000000;fill-opacity:1;stroke-width:0.308213"
             d="m 173.04915,218.80683 0.01,-33.95938 h 5.39792 l -0.01,33.95938 z"
             sodipodi:nodetypes="ccccc" />
          <path
             sodipodi:nodetypes="cccc"
             id="path68609"
             style="fill:none;stroke:none;stroke-width:0.00843022;stroke-linecap:butt;stroke-linejoin:round;stroke-miterlimit:10;stroke-dasharray:none;stroke-opacity:1"
             d="m 259.70468,224.88244 -178.382166,-5.67884 97.555406,-0.70085 80.82676,6.37969" />
          <path
             sodipodi:nodetypes="ccsssccccccssscc"
             id="path108350"
             style="font-size:30px;line-height:1.15;font-family:'Highway Gothic Wide';-inkscape-font-specification:'Highway Gothic Wide';fill:#000000;fill-opacity:1;stroke:none;stroke-width:0.116721;stroke-opacity:1"
             d="m 235.79331,206.82134 -3.37656,-4.26326 c 0,0 -0.81744,0.71604 -1.97279,1.0128 -1.12768,0.28965 -2.58346,0.16432 -3.41759,-0.16961 -0.82011,-0.32836 -2.03323,-1.26588 -2.66278,-2.24335 -0.72138,-1.12008 -0.80317,-2.27214 -0.80317,-2.27214 l -0.0203,-14.28566 -5.44316,-3e-5 v 23.99206 l 5.44316,-0.0386 V 207.771 c 0,0 0.75942,0.48324 1.80036,0.83942 1.07421,0.36756 2.44522,0.60877 3.39405,0.63526 1.03282,0.0288 2.65637,-0.16254 3.93184,-0.65588 1.79505,-0.69418 3.12698,-1.76845 3.12698,-1.76845 z" />
        </g>
      </g>
    </g>
    <path
       id="path237344"
       d="m 143.83786,225.50691 c -11.44366,0 -20.76055,9.31701 -20.76055,20.76056 V 390.9995 c 0,11.44366 9.31689,20.76055 20.76055,20.76055 H 411.7769 c 11.44366,0 20.76055,-9.31689 20.76055,-20.76055 V 246.26747 c 0,-11.44355 -9.31689,-20.76056 -20.76055,-20.76056 z m 0,6.84281 H 411.7769 c 7.77153,0 13.92525,6.14622 13.92525,13.91775 V 390.9995 c 0,7.77163 -6.15372,13.91785 -13.92525,13.91785 H 143.83786 c -7.77153,0 -13.91774,-6.14622 -13.91774,-13.91785 V 246.26747 c 0,-7.77153 6.14621,-13.91775 13.91774,-13.91775 z"
       style="color:#000000;font-style:normal;font-variant:normal;font-weight:normal;font-stretch:normal;font-size:medium;line-height:normal;font-family:sans-serif;font-variant-ligatures:normal;font-variant-position:normal;font-variant-caps:normal;font-variant-numeric:normal;font-variant-alternates:normal;font-variant-east-asian:normal;font-feature-settings:normal;font-variation-settings:normal;text-indent:0;text-align:start;text-decoration:none;text-decoration-line:none;text-decoration-style:solid;text-decoration-color:#000000;letter-spacing:normal;word-spacing:normal;text-transform:none;writing-mode:lr-tb;direction:ltr;text-orientation:mixed;dominant-baseline:auto;baseline-shift:baseline;text-anchor:start;white-space:normal;shape-padding:0;shape-margin:0;inline-size:0;clip-rule:nonzero;display:inline;overflow:visible;visibility:visible;opacity:0.999883;isolation:auto;mix-blend-mode:normal;color-interpolation:sRGB;color-interpolation-filters:linearRGB;solid-color:#000000;solid-opacity:1;vector-effect:none;fill:#000000;fill-opacity:1;fill-rule:evenodd;stroke:none;stroke-width:0.629;stroke-linecap:round;stroke-linejoin:round;stroke-miterlimit:0.1;stroke-dasharray:none;stroke-dashoffset:0;stroke-opacity:1;color-rendering:auto;image-rendering:auto;shape-rendering:auto;text-rendering:auto;enable-background:accumulate;stop-color:#000000;stop-opacity:1" />
    <path
       d="m 197.65597,252.67866 -17.90521,26.23791 v 17.46935 h -7.81581 l 1.1e-4,-17.48034 -17.93284,-26.22823 9.49485,0.002 12.31712,18.03324 12.32484,-18.03422 z"
       style="font-style:normal;font-variant:normal;font-weight:normal;font-stretch:normal;font-size:30px;line-height:1.15;font-family:'Highway Gothic Wide';-inkscape-font-specification:'Highway Gothic Wide';fill:#000000;fill-opacity:1;stroke:none;stroke-width:0.400969;stroke-opacity:0.713725"
       id="path17996"
       sodipodi:nodetypes="cccccccccc" />
    <path
       sodipodi:nodetypes="cccasasasssscasaaasccssssccssscssscc"
       id="path108315-8"
       style="font-style:normal;font-variant:normal;font-weight:normal;font-stretch:normal;font-size:46.5314px;line-height:1.15;font-family:'Highway Gothic Wide';-inkscape-font-specification:'Highway Gothic Wide';fill:#000000;fill-opacity:1;stroke:none;stroke-width:0.198439;stroke-opacity:1"
       d="m 225.18264,296.61696 -7.08929,-4.4e-4 v -0.78862 c 0,0 -3.98399,1.43061 -6.0692,1.58888 -2.53652,0.19254 -5.18367,0.0326 -7.58966,-0.79732 -1.92934,-0.66244 -3.91644,-1.67382 -5.65575,-2.87764 -0.82125,-0.56889 -1.55711,-1.20087 -2.21237,-2.02071 -0.75164,-0.93981 -1.16259,-2.20671 -1.18532,-3.40977 -0.0326,-1.58746 0.31436,-3.34275 1.39297,-4.55472 2.21346,-2.48704 5.50444,-4.15086 8.86766,-4.96601 1.26842,-0.30783 2.51835,-0.44489 3.76643,-0.58195 1.31824,-0.14467 3.31655,0.0652 4.9919,0.4623 2.0008,0.47534 3.58358,1.16998 3.58358,1.16998 0,0 0.18275,-1.15585 0.087,-1.72387 -0.14032,-0.87237 -0.5602,-1.91226 -0.96375,-2.46777 -0.99202,-1.36578 -2.78627,-2.00287 -4.39418,-2.51629 -0.57433,-0.18274 -1.19663,-0.15664 -1.7988,-0.1773 -0.74186,-0.0217 -1.48696,0.008 -2.22728,0.0652 -1.19739,0.0979 -2.60777,0.28065 -3.5725,0.47535 -3.30501,0.67006 -5.1308,1.68231 -5.1308,1.68231 l -2.86719,-6.39237 c 0,0 2.31756,-1.11374 5.51727,-1.92107 2.51499,-0.63416 5.73516,-1.02249 7.71845,-0.92132 3.7709,0.19144 7.5778,1.02139 10.27869,3.34711 2.70076,2.32614 4.54885,5.48823 4.54885,9.20191 z m -7.33991,-8.75866 c 0,0 -1.30758,-1.05077 -3.05179,-1.74203 -1.52893,-0.60587 -3.42097,-0.86368 -4.69276,-0.85606 -1.17597,0.008 -3.19363,0.38941 -4.61673,0.96375 -1.74877,0.70703 -2.8052,1.63347 -2.8052,1.63347 0,0 0.90284,0.88978 2.52238,1.55852 1.53101,0.63198 3.74426,1.04642 5.03987,1.04751 1.27756,10e-4 3.10084,-0.2839 4.62195,-0.90283 1.66948,-0.68094 2.98228,-1.70277 2.98228,-1.70277 z" />
    <path
       d="m 305.76665,296.61696 -7.08929,-4.4e-4 v -0.78862 c 0,0 -3.98388,1.43061 -6.0692,1.58888 -2.53641,0.19254 -5.18367,0.0326 -7.58955,-0.79732 -1.92945,-0.66244 -3.91655,-1.67382 -5.65586,-2.87764 -0.82125,-0.56889 -1.557,-1.20087 -2.21226,-2.02071 -0.75164,-0.93981 -1.16269,-2.20671 -1.18532,-3.40977 -0.0326,-1.58746 0.31436,-3.34275 1.39286,-4.55472 2.21346,-2.48704 5.50445,-4.15086 8.86776,-4.96601 1.26832,-0.30783 2.51825,-0.44489 3.76634,-0.58195 1.31824,-0.14467 3.31665,0.0652 4.992,0.4623 2.0007,0.47534 3.58359,1.16998 3.58359,1.16998 0,0 0.18274,-1.15585 0.087,-1.72387 -0.14032,-0.87237 -0.56019,-1.91226 -0.96375,-2.46777 -0.99203,-1.36578 -2.78637,-2.00287 -4.39418,-2.51629 -0.57433,-0.18274 -1.19674,-0.15664 -1.7988,-0.1773 -0.74294,-0.0217 -1.48707,0.008 -2.22739,0.0652 -1.19729,0.0979 -2.60777,0.28065 -3.57249,0.47535 -3.30502,0.66897 -5.13069,1.68231 -5.13069,1.68231 l -2.86775,-6.39237 c 0,0 2.31756,-1.11374 5.51728,-1.92107 2.51499,-0.63416 5.73516,-1.02249 7.71856,-0.92132 3.77079,0.19144 7.57769,1.02139 10.27857,3.34711 2.70077,2.32614 4.54886,5.48823 4.54886,9.20191 z m -7.33991,-8.75866 c 0,0 -1.30747,-1.05077 -3.05178,-1.74203 -1.52894,-0.60587 -3.42097,-0.86368 -4.69277,-0.85606 -1.17596,0.008 -3.19363,0.38941 -4.61662,0.96375 -1.74877,0.70703 -2.8053,1.63347 -2.8053,1.63347 0,0 0.90282,0.88978 2.52237,1.55852 1.53101,0.63198 3.74436,1.04642 5.03998,1.04751 1.27745,10e-4 3.10074,-0.2839 4.62185,-0.90283 1.66947,-0.68094 2.98227,-1.70277 2.98227,-1.70277 z"
       style="font-style:normal;font-variant:normal;font-weight:normal;font-stretch:normal;font-size:46.5314px;line-height:1.15;font-family:'Highway Gothic Wide';-inkscape-font-specification:'Highway Gothic Wide';fill:#000000;fill-opacity:1;stroke:none;stroke-width:0.198439;stroke-opacity:1"
       id="path205172"
       sodipodi:nodetypes="cccasasasssscasaaasccssssccssscssscc" />
    <path
       sodipodi:nodetypes="cccasasasssscasaaasccssssccssscssscc"
       id="path205174"
       style="font-style:normal;font-variant:normal;font-weight:normal;font-stretch:normal;font-size:46.5314px;line-height:1.15;font-family:'Highway Gothic Wide';-inkscape-font-specification:'Highway Gothic Wide';fill:#000000;fill-opacity:1;stroke:none;stroke-width:0.198439;stroke-opacity:1"
       d="m 361.88764,296.61696 -7.08919,-4.4e-4 v -0.78862 c 0,0 -3.98399,1.43061 -6.06921,1.58888 -2.53652,0.19254 -5.18366,0.0326 -7.58965,-0.79732 -1.92934,-0.66244 -3.91644,-1.67382 -5.65575,-2.87764 -0.82125,-0.56889 -1.55711,-1.20087 -2.21237,-2.02071 -0.75164,-0.93981 -1.16258,-2.20671 -1.18532,-3.40977 -0.0326,-1.58746 0.31436,-3.34275 1.39297,-4.55472 2.21335,-2.48704 5.50444,-4.15086 8.86765,-4.96601 1.26843,-0.30783 2.51825,-0.44489 3.76644,-0.58195 1.31825,-0.14467 3.31655,0.0652 4.9919,0.4623 2.00069,0.47534 3.58359,1.16998 3.58359,1.16998 0,0 0.18274,-1.15585 0.087,-1.72387 -0.1414,-0.87237 -0.56127,-1.91226 -0.96374,-2.46777 -0.99203,-1.36578 -2.78627,-2.00287 -4.39418,-2.51629 -0.57433,-0.18274 -1.19663,-0.15664 -1.79881,-0.1773 -0.74293,-0.0217 -1.48695,0.008 -2.22727,0.0652 -1.1974,0.0979 -2.60777,0.28065 -3.57249,0.47535 -3.30502,0.66897 -5.1308,1.68231 -5.1308,1.68231 l -2.86764,-6.39237 c 0,0 2.31745,-1.11374 5.51717,-1.92107 2.51499,-0.63416 5.73515,-1.02249 7.71856,-0.92132 3.7709,0.19144 7.5778,1.02139 10.27857,3.34711 2.70077,2.32614 4.54897,5.48823 4.54897,9.20191 z m -7.33992,-8.75866 c 0,0 -1.30747,-1.05077 -3.05167,-1.74203 -1.52894,-0.60587 -3.42097,-0.86368 -4.69277,-0.85606 -1.17596,0.008 -3.19363,0.38941 -4.61673,0.96375 -1.74878,0.70703 -2.8052,1.63347 -2.8052,1.63347 0,0 0.90283,0.88978 2.52238,1.55852 1.53101,0.63198 3.74425,1.04642 5.03987,1.04751 1.27756,10e-4 3.10085,-0.2839 4.62195,-0.90283 1.66948,-0.68094 2.98217,-1.70277 2.98217,-1.70277 z" />
    <path
       sodipodi:nodetypes="ccsssccssscccccccc"
       id="path108381-6"
       style="font-style:normal;font-variant:normal;font-weight:normal;font-stretch:normal;font-size:20.4734px;line-height:1.15;font-family:'Highway Gothic Wide';-inkscape-font-specification:'Highway Gothic Wide';fill:#000000;fill-opacity:1;stroke:none;stroke-width:0.0761756;stroke-opacity:1"
       d="m 268.69629,266.39125 -17.03219,39.80312 c 0,0 -1.01269,1.39982 -2.59351,2.45298 -1.47684,0.98333 -3.47776,1.62183 -4.84745,1.71408 -1.50469,0.0979 -3.81158,-0.12292 -5.57765,-0.97354 -1.97111,-0.9496 -3.32655,-2.54272 -3.32655,-2.54272 l 5.90647,-5.26133 c 0,0 0.42966,0.45359 0.96919,0.70269 0.46882,0.21645 1.02466,0.2393 1.41603,0.18708 0.30675,-0.0435 0.8169,-0.24148 1.14235,-0.49601 0.49384,-0.38724 0.75381,-0.8702 0.75381,-0.8702 l 1.65752,-2.99522 -4.61097,-10.64732 -9.00646,-21.07241 h 7.63752 l 9.94551,23.15371 9.92984,-23.15371 z" />
  </g>
</svg>
