<svg width="218.8" height="304.58" version="1.1" xmlns="http://www.w3.org/2000/svg"><g transform="translate(116.73 25.687)"><g transform="translate(330.67 -206.84)"><g transform="translate(-108.37 1759.9)"><rect x="578.74" y="298.17" width="0" height="27.202" rx="249.48" ry="27.202" color="#000000"/><g transform="translate(247.7 -1439.7)"><g transform="matrix(1.25 0 0 -1.25 160.86 131.62)"><g transform="matrix(.8 0 0 -.8 -516.73 1351.2)"><g transform="translate(-401.27 52.383)"><g transform="translate(313.46 86.017)"><text x="-111.1793" y="682.42792" fill="#000000" font-family="Bitstream Vera Sans" font-size="144px" xml:space="preserve"><tspan x="-111.1793" y="682.42792"/></text><g transform="translate(815.16 1646.5)"><g transform="translate(-112.84 192.81)"><g transform="translate(740.92 -193.26)"><path d="m-1238.6-366.16-218.5 0.18227 0.3031 304.4 218.5-0.18227-0.3031-304.4z" fill="#ff0" fill-rule="evenodd"/><path d="m-1262-357.41-169.93 0.14031c-7.8791 6e-3 -14.217 5.3921-14.21 12.075l0.2644 262.8c0.011 6.6832 6.3553 12.058 14.234 12.052l169.93-0.13941c7.8792-8e-3 14.217-5.3922 14.21-12.075l-0.2644-262.8c-0.011-6.6832-6.3553-12.058-14.234-12.052z" fill="none" stroke="#000" stroke-linecap="round" stroke-linejoin="round" stroke-width="6"/><g transform="matrix(.52103 0 0 .52103 -1105.9 -659.01)"><path d="m-348.03 995.24c-0.0951-92.033-8.4255-92.496-25.918-128.99l-10.412-12.67 32.281-14.061-125.44-61.007 38.532 134.21s21.187-26.564 21.187-26.564 26.112 33.525 26.112 115.65v77.938h21.872 21.872l-0.0874-84.504h5e-5 1e-5zm-148.94 84.901c1.4581-1.4582 1.889-82.206 1.889-175.71v-170.01l33.992 10.436-55.928-114.22c-15.668 30.045-58.08 115.08-58.08 115.08l36.272-11.577v172.81 172.81h19.22c10.571 0 21.176 1.8554 22.634 0.3973z"/></g></g></g></g></g></g></g></g></g></g></g></g></svg>