<svg width="218.8" height="304.58" version="1.1" xmlns="http://www.w3.org/2000/svg"><g transform="translate(116.73 25.687)"><g transform="translate(330.67 -206.84)"><g transform="translate(-108.37 1759.9)"><rect x="578.74" y="298.17" width="0" height="27.202" rx="249.48" ry="27.202" color="#000000"/><g transform="translate(247.7 -1439.7)"><g transform="matrix(1.25 0 0 -1.25 160.86 131.62)"><g transform="matrix(.8 0 0 -.8 -516.73 1351.2)"><g transform="translate(-401.27 52.383)"><g transform="translate(313.46 86.017)"><text x="-111.1793" y="682.42792" fill="#000000" font-family="Bitstream Vera Sans" font-size="144px" xml:space="preserve"><tspan x="-111.1793" y="682.42792"/></text><g transform="translate(815.16 1646.5)"><g transform="translate(-112.84 192.81)"><g transform="translate(740.92 -193.26)"><path d="m-1238.6-366.16-218.5 0.18227 0.3031 304.4 218.5-0.18227-0.3031-304.4z" fill="#ff0" fill-rule="evenodd"/><path d="m-1262-357.41-169.93 0.14031c-7.8791 6e-3 -14.217 5.3921-14.21 12.075l0.2644 262.8c0.011 6.6832 6.3553 12.058 14.234 12.052l169.93-0.13941c7.8792-8e-3 14.217-5.3922 14.21-12.075l-0.2644-262.8c-0.011-6.6832-6.3553-12.058-14.234-12.052z" fill="none" stroke="#000" stroke-linecap="round" stroke-linejoin="round" stroke-width="6"/><g transform="matrix(.52103 0 0 .52103 -1105.9 -659.01)"><path d="m-368.66 1072s-0.26104-26.814-1.274-38.751c-3.5584-41.934-30.504-78.502-78.044-105.91-36.332-20.947-73.777-59.014-91.651-93.169-15.317-29.269-26.174-64.749-26.174-85.534 0-14.675-2.7563-14.543-2.7563-14.543s-31.846 6.6544-31.846 6.6544l56.32-106.22 54.984 111.06s-33.399-7.8509-33.399-7.8509-0.056 12.973 2.6467 26.058c10.686 51.738 46.339 99.951 93.113 125.91 34.824 19.331 69.186 54.537 85.323 87.422 11.101 22.622 13.288 31.691 14.684 60.908l1.6413 34.328c-14.522-0.055-43.568-0.3561-43.568-0.3561z"/></g></g></g></g></g></g></g></g></g></g></g></g></svg>